<?xml version="1.0" encoding="utf-8"?>
<!-- Generator: Adobe Illustrator 24.0.0, SVG Export Plug-In . SVG Version: 6.00 Build 0)  -->
<svg version="1.1" id="Layer_1" xmlns="http://www.w3.org/2000/svg" xmlns:xlink="http://www.w3.org/1999/xlink" x="0px" y="0px"
	 viewBox="0 0 256 256" enable-background="new 0 0 256 256" xml:space="preserve">
<g>
	<path fill="#EBE7F2" d="M128,213.349c-1.381,0-2.5-1.119-2.5-2.5v-91.871c0-1.381,1.119-2.5,2.5-2.5s2.5,1.119,2.5,2.5v91.871
		C130.5,212.229,129.381,213.349,128,213.349z"/>
	<g>
		<path fill="#846F75" d="M226.024,27.476h-72.103c-1.381,0-2.5,1.119-2.5,2.5s1.119,2.5,2.5,2.5h69.603v191.049h-36.418
			c-1.381,0-2.5,1.119-2.5,2.5s1.119,2.5,2.5,2.5h38.918c1.381,0,2.5-1.119,2.5-2.5V29.976
			C228.524,28.595,227.405,27.476,226.024,27.476z"/>
		<path fill="#846F75" d="M69.152,223.524H32.476V32.476h69.603c1.381,0,2.5-1.119,2.5-2.5s-1.119-2.5-2.5-2.5H29.976
			c-1.381,0-2.5,1.119-2.5,2.5v196.049c0,1.381,1.119,2.5,2.5,2.5h39.177c1.381,0,2.5-1.119,2.5-2.5S70.533,223.524,69.152,223.524z
			"/>
		<path fill="#846F75" d="M165.904,84.432H141.84c-0.621-1.576-1.503-3-2.577-4.243c0.022-0.034,0-43.773,0.008-43.824
			c10.293-2.097,9.057-16.95-1.537-17.233c0,0-19.467,0-19.467,0c-10.586,0.28-11.837,15.135-1.537,17.233
			c0.008,0.076-0.015,43.756,0.008,43.824c-1.073,1.243-1.956,2.667-2.577,4.243H90.096c-1.788,0-3.444,0.89-4.43,2.382
			c-0.986,1.491-1.156,3.363-0.457,5.008l3.907,9.18c1.277,3.001,4.21,4.94,7.472,4.94h10.138v9.622c0,2.317,1.342,4.321,3.287,5.29
			v88.574c0,2.112,0.606,4.166,1.754,5.938l11.775,18.199c0.982,1.519,2.649,2.425,4.458,2.425s3.476-0.907,4.458-2.426
			l11.775-18.198c1.147-1.773,1.754-3.827,1.754-5.938v-88.574c1.945-0.97,3.287-2.974,3.287-5.29v-9.621h10.138
			c3.263,0,6.196-1.939,7.473-4.941l3.905-9.18C172.336,88.471,169.595,84.322,165.904,84.432z M134.271,36.509V76.42
			c-3.793-1.831-8.748-1.831-12.541,0V36.509H134.271z M114.578,27.821c0-2.034,1.654-3.689,3.688-3.689h19.467
			c4.857,0.125,4.868,7.249,0,7.377c0,0-0.919,0-0.919,0c-0.015,0-0.029-0.004-0.044-0.004h-17.541
			c-0.015,0-0.029,0.004-0.044,0.004h-0.919C116.232,31.509,114.578,29.854,114.578,27.821z M140.036,212.65l-11.775,18.198
			c-0.023,0.035-0.092,0.142-0.261,0.142s-0.237-0.107-0.261-0.142l-11.775-18.199c-0.622-0.961-0.951-2.076-0.951-3.222v-87.951
			h25.975v87.951C140.987,210.574,140.658,211.688,140.036,212.65z M144.274,115.564c0,0.504-0.41,0.914-0.914,0.914H112.64
			c-0.504,0-0.914-0.41-0.914-0.914v-9.621l32.549,0V115.564z M166.189,89.864l-3.906,9.181c-0.49,1.153-1.617,1.898-2.871,1.898
			l-62.824,0c-1.254,0-2.381-0.745-2.871-1.898l-3.906-9.18c0,0,0,0-0.001,0c-0.016-0.038-0.064-0.153,0.027-0.292
			s0.218-0.139,0.259-0.139h25.885c1.149,0,2.15-0.784,2.427-1.899c1.093-4.415,5.037-7.498,9.593-7.498
			c4.555,0,8.5,3.083,9.593,7.498c0.276,1.116,1.277,1.899,2.427,1.899h25.885c0.041,0,0.167,0,0.259,0.139
			S166.206,89.826,166.189,89.864z"/>
	</g>
	<path fill="#EBE7F2" d="M153.815,221.049c-0.941,0-1.843-0.534-2.267-1.442c-0.585-1.251-0.045-2.739,1.206-3.323
		c22.317-10.426,36.738-33.908,36.738-59.823c0-1.381,1.119-2.5,2.5-2.5s2.5,1.119,2.5,2.5c0,27.849-15.553,53.109-39.621,64.354
		C154.529,220.973,154.17,221.049,153.815,221.049z"/>
	<path fill="#65C1D6" d="M128,251.984c-0.344,0-0.687-0.071-1.008-0.212l-25.813-11.369c-34.088-15.013-56.113-48.782-56.113-86.029
		V57.505c0-1.381,1.119-2.5,2.5-2.5h61.664c1.381,0,2.5,1.119,2.5,2.5s-1.119,2.5-2.5,2.5H50.065v94.368
		c0,35.267,20.854,67.239,53.129,81.453L128,246.752l24.806-10.925c32.274-14.214,53.129-46.187,53.129-81.453V60.005h-59.164
		c-1.381,0-2.5-1.119-2.5-2.5s1.119-2.5,2.5-2.5h61.664c1.381,0,2.5,1.119,2.5,2.5v96.868c0,37.248-22.025,71.016-56.113,86.029
		l-25.813,11.369C128.687,251.913,128.344,251.984,128,251.984z"/>
	<path fill="#EBE7F2" d="M102.185,221.049c-0.354,0-0.714-0.076-1.057-0.235c-24.068-11.245-39.621-36.505-39.621-64.354
		c0-1.381,1.119-2.5,2.5-2.5s2.5,1.119,2.5,2.5c0,25.915,14.421,49.397,36.738,59.823c1.251,0.584,1.791,2.072,1.206,3.323
		C104.027,220.515,103.126,221.049,102.185,221.049z"/>
</g>
</svg>
