<?xml version="1.0" encoding="utf-8"?>
<!-- Generator: Adobe Illustrator 24.0.0, SVG Export Plug-In . SVG Version: 6.00 Build 0)  -->
<svg version="1.1" id="Layer_1" xmlns="http://www.w3.org/2000/svg" xmlns:xlink="http://www.w3.org/1999/xlink" x="0px" y="0px"
	 viewBox="0 0 256 256" enable-background="new 0 0 256 256" xml:space="preserve">
<g>
	<path fill="#EBE7F2" d="M110.937,187.347c-0.825,0-1.634-0.409-2.11-1.157c-0.742-1.165-0.399-2.71,0.766-3.452l16.705-10.642
		c0.818-0.522,1.867-0.522,2.686,0l16.706,10.642c1.165,0.742,1.508,2.287,0.766,3.452c-0.743,1.165-2.289,1.505-3.451,0.765
		l-15.363-9.786l-15.362,9.786C111.861,187.22,111.396,187.347,110.937,187.347z"/>
	<path fill="#EBE7F2" d="M144.344,202.378c-0.46,0-0.925-0.127-1.341-0.392L127.64,192.2l-15.362,9.786
		c-1.162,0.741-2.708,0.4-3.451-0.765c-0.742-1.165-0.399-2.71,0.766-3.452l16.705-10.642c0.818-0.522,1.867-0.522,2.686,0
		l16.706,10.642c1.165,0.742,1.508,2.287,0.766,3.452C145.978,201.969,145.169,202.378,144.344,202.378z"/>
	<path fill="#A58BC9" d="M144.636,46.713l-14.787-27.908c-0.434-0.818-1.283-1.33-2.209-1.33s-1.775,0.512-2.209,1.33
		l-14.786,27.908c-2.832,5.152,3.5,10.749,8.265,7.291c0,0,6.23-4.375,6.23-4.375v22.125c0,1.381,1.119,2.5,2.5,2.5
		s2.5-1.119,2.5-2.5V49.629l6.23,4.375c1.004,0.705,2.14,1.054,3.27,1.054C143.713,55.157,146.755,50.331,144.636,46.713z
		 M140.069,49.867c-0.396,0.349-0.718,0.12-0.825,0.045l-10.168-7.141c-0.459-0.324-1.029-0.485-1.589-0.449
		c-0.459,0.027-0.908,0.185-1.284,0.449l-10.167,7.141c-0.106,0.074-0.431,0.304-0.825-0.045c-0.395-0.348-0.209-0.698-0.148-0.813
		l12.577-23.739l12.578,23.739C140.278,49.169,140.464,49.519,140.069,49.867z"/>
	<path fill="#846F75" d="M199.47,93.255C180.302,77.777,154.92,69.253,128,69.253s-52.302,8.524-71.47,24.002
		c-19.301,15.584-30.092,36.403-30.386,58.622c-0.012,0.919,0.171,1.853,0.529,2.699c0.998,2.36,3.169,3.758,5.557,3.559
		c2.454-0.205,4.439-2.021,5.058-4.624c0.482-2.029,1.113-4.032,1.863-6.01h177.697c0.751,1.977,1.382,3.981,1.863,6.01
		c0.618,2.604,2.604,4.419,5.058,4.624c0.15,0.013,0.3,0.019,0.447,0.019c2.2,0,4.174-1.366,5.108-3.576
		c0.359-0.847,0.542-1.781,0.53-2.701C229.562,129.659,218.771,108.84,199.47,93.255z M41.351,142.502
		c5.335-10.553,14.509-20.071,26.688-27.5c16.672-10.17,37.966-15.771,59.961-15.771s43.289,5.601,59.961,15.771
		c12.179,7.429,21.353,16.948,26.688,27.5H41.351z M224.721,152.629c-0.069,0.165-0.269,0.546-0.534,0.524
		c-0.197-0.017-0.477-0.235-0.609-0.797c-7.996-33.68-48.192-58.125-95.577-58.125c-43.351,0-80.667,20.466-92.832,49.74
		c-0.022,0.049-0.041,0.1-0.06,0.15c-1.104,2.677-2.016,5.421-2.684,8.236c-0.133,0.562-0.412,0.78-0.609,0.797
		c-0.248,0.025-0.464-0.359-0.534-0.524c0,0-0.001-0.001-0.001-0.002c-0.091-0.214-0.137-0.451-0.134-0.684
		c0.565-42.839,44.015-77.69,96.855-77.69s96.29,34.852,96.855,77.69C224.858,152.177,224.813,152.413,224.721,152.629z"/>
	<path fill="#A58BC9" d="M226.024,115.61c-1.381,0-2.5-1.119-2.5-2.5V32.476h-80.245c-1.381,0-2.5-1.119-2.5-2.5s1.119-2.5,2.5-2.5
		h82.745c1.381,0,2.5,1.119,2.5,2.5v83.135C228.524,114.491,227.405,115.61,226.024,115.61z"/>
	<path fill="#A58BC9" d="M29.976,116.602c-1.381,0-2.5-1.119-2.5-2.5V29.976c0-1.381,1.119-2.5,2.5-2.5h82.182
		c1.381,0,2.5,1.119,2.5,2.5s-1.119,2.5-2.5,2.5H32.476v81.626C32.476,115.483,31.356,116.602,29.976,116.602z"/>
	<path fill="#A58BC9" d="M226.024,228.524H29.976c-1.381,0-2.5-1.119-2.5-2.5v-60.37c0-1.381,1.119-2.5,2.5-2.5s2.5,1.119,2.5,2.5
		v57.87h191.049v-58.538c0-1.381,1.119-2.5,2.5-2.5s2.5,1.119,2.5,2.5v61.038C228.524,227.405,227.405,228.524,226.024,228.524z"/>
	<path fill="#A58BC9" d="M145.688,166.092l-15.549-9.905V99.249c-0.712-0.012-1.426-0.018-2.14-0.018
		c-0.955,0-1.908,0.011-2.86,0.032v56.924l-15.548,9.905c-0.721,0.459-1.157,1.254-1.157,2.108v47.824
		c0,0.913,0.497,1.753,1.298,2.192c0.375,0.206,0.789,0.308,1.202,0.308c0.468,0,0.935-0.131,1.343-0.392l15.362-9.787l15.363,9.787
		c0.408,0.261,0.875,0.392,1.343,0.392c0.413,0,0.827-0.103,1.202-0.308c0.801-0.439,1.298-1.279,1.298-2.192v-47.824
		C146.846,167.346,146.409,166.551,145.688,166.092z M113.435,169.572l11.705-7.457v41.896l-11.705,7.457V169.572z M141.846,211.468
		l-11.706-7.457v-41.896l11.706,7.457V211.468z"/>
</g>
</svg>
