<?xml version="1.0" encoding="utf-8"?>
<!-- Generator: Adobe Illustrator 24.0.0, SVG Export Plug-In . SVG Version: 6.00 Build 0)  -->
<svg version="1.1" id="Layer_1" xmlns="http://www.w3.org/2000/svg" xmlns:xlink="http://www.w3.org/1999/xlink" x="0px" y="0px"
	 viewBox="0 0 256 256" enable-background="new 0 0 256 256" xml:space="preserve">
<g>
	<path fill="#EBE7F2" d="M63.12,180.458c-14.77,0-26.786-12.016-26.786-26.786s12.016-26.786,26.786-26.786
		c14.77,0,26.786,12.016,26.786,26.786S77.89,180.458,63.12,180.458z M63.12,131.885c-12.013,0-21.786,9.773-21.786,21.786
		s9.773,21.786,21.786,21.786s21.786-9.773,21.786-21.786S75.132,131.885,63.12,131.885z"/>
	<path fill="#EBE7F2" d="M192.88,180.458c-14.77,0-26.786-12.016-26.786-26.786s12.016-26.786,26.786-26.786
		c14.77,0,26.786,12.016,26.786,26.786S207.65,180.458,192.88,180.458z M192.88,131.885c-12.013,0-21.786,9.773-21.786,21.786
		s9.773,21.786,21.786,21.786s21.786-9.773,21.786-21.786S204.893,131.885,192.88,131.885z"/>
	<path fill="#846F75" d="M198.829,112.052c-6.189-0.876-12.148-0.35-17.655,1.25L170.53,83.376c-1.086-2.964,0.354-6.215,3.28-7.401
		l11.775-4.772c1.254-0.508,1.998-1.902,1.556-3.181c-0.471-1.365-1.982-2.042-3.304-1.505l-11.906,4.825
		c-5.438,2.204-8.116,8.246-6.105,13.733l3.763,10.579h-56.204c-0.415,0-0.813,0.114-1.171,0.305l-5.171-24.108
		c-0.307-1.433-1.788-2.316-3.218-1.853c-1.246,0.404-1.913,1.77-1.638,3.05l5.853,27.285l-18.625,20.571
		c-7.978-6.415-18.33-9.992-29.515-9.152c-20.566,1.543-37.168,18.148-38.701,38.715c-1.835,24.622,17.68,45.245,41.92,45.245
		c22.341,0,40.661-17.52,41.96-39.541h3.412c1.181,6.41,6.8,11.285,13.546,11.285c1.469,0,2.883-0.236,4.212-0.664l4.651,8.656
		h-4.834c-1.308,0-2.499,0.941-2.629,2.242c-0.15,1.497,1.021,2.758,2.487,2.758h9.156c0.001,0,0.002,0,0.004,0
		c0.001,0,0.003,0,0.004,0h9.01c1.308,0,2.499-0.941,2.629-2.242c0.15-1.497-1.021-2.758-2.487-2.758h-7.663l-5.927-11.031
		c3.149-2.529,5.173-6.403,5.173-10.746c0-3.104-1.043-5.961-2.781-8.268l39.12-42.522l4.3,12.09
		c-16.206,6.902-27.226,23.696-25.43,42.757c1.933,20.514,18.878,36.768,39.451,37.917c25.322,1.413,46.188-19.724,44.321-45.133
		C233.367,130.95,218.25,114.8,198.829,112.052z M108.492,151.171h-3.412c-0.616-10.449-5.065-19.88-11.958-26.911l16.211-17.904
		l7.419,34.589C112.511,142.713,109.345,146.541,108.492,151.171z M89.759,127.974c5.89,6.104,9.706,14.215,10.308,23.198H69.17
		c-0.197,0-0.387,0.028-0.571,0.072c0.154-0.107,0.299-0.23,0.43-0.374L89.759,127.974z M63.12,190.712
		c-21.31,0-38.475-18.09-36.945-39.721c1.283-18.137,15.89-32.843,34.018-34.247c9.782-0.757,18.842,2.321,25.861,7.873
		l-20.612,22.765c-0.979,1.081-0.965,2.848,0.172,3.76c0.458,0.367,1.01,0.548,1.561,0.548c0.193,0,0.384-0.028,0.573-0.072
		c-0.729,0.506-1.177,1.387-1.058,2.366c0.155,1.276,1.328,2.187,2.614,2.187h30.763C98.775,175.433,82.703,190.712,63.12,190.712z
		 M128.223,159.901l-3.939-7.331c-0.572-1.065-1.817-1.654-2.971-1.293c-1.553,0.486-2.208,2.219-1.478,3.578l3.986,7.419
		c-1.063,0.22-2.195,0.25-3.361,0.042c-3.633-0.647-6.539-3.61-7.1-7.258c-0.917-5.965,4.211-11.046,10.188-10.044
		c3.631,0.609,6.553,3.542,7.151,7.175C131.196,155.199,130.147,157.991,128.223,159.901z M129.364,142.016
		c-2.125-1.341-4.633-2.129-7.326-2.129c-0.133,0-0.263,0.016-0.395,0.02l-8.176-38.117l0.496-0.548
		c0.34-0.375,0.822-0.589,1.328-0.589h52.127L129.364,142.016z M188.636,190.474c-17.218-1.925-30.951-15.891-32.619-33.136
		c-1.617-16.725,7.97-31.476,22.125-37.641l10.23,28.761c0.364,1.024,1.328,1.663,2.355,1.663c0.428,0,0.868-0.11,1.278-0.351
		c1.052-0.618,1.445-1.954,1.036-3.104l-10.189-28.645c3.192-0.899,6.552-1.391,10.027-1.391c20.424,0,37.04,16.616,37.04,37.041
		C229.92,175.494,210.951,192.969,188.636,190.474z"/>
	<path fill="#ED9ABC" d="M29.976,121.602c-1.381,0-2.5-1.119-2.5-2.5V29.976c0-1.381,1.119-2.5,2.5-2.5h196.049
		c1.381,0,2.5,1.119,2.5,2.5v88.135c0,1.381-1.119,2.5-2.5,2.5s-2.5-1.119-2.5-2.5V32.476H32.476v86.626
		C32.476,120.483,31.356,121.602,29.976,121.602z"/>
	<path fill="#ED9ABC" d="M226.024,228.524H29.976c-1.381,0-2.5-1.119-2.5-2.5v-37.789c0-1.381,1.119-2.5,2.5-2.5s2.5,1.119,2.5,2.5
		v35.289h191.049v-34.41c0-1.381,1.119-2.5,2.5-2.5s2.5,1.119,2.5,2.5v36.91C228.524,227.405,227.405,228.524,226.024,228.524z"/>
	<path fill="#EBE7F2" d="M213.271,209.63H43.687c-1.381,0-2.5-1.119-2.5-2.5s1.119-2.5,2.5-2.5h169.583c1.381,0,2.5,1.119,2.5,2.5
		S214.652,209.63,213.271,209.63z"/>
	<path fill="#ED9ABC" d="M95.89,79.157h-3.858c-5.202,0-9.435-4.232-9.435-9.435s4.232-9.435,9.435-9.435h28.744
		c3.82,0,6.929,3.108,6.929,6.929s-3.108,6.929-6.929,6.929h-12.718c-1.63,0-3.166,0.632-4.323,1.781
		C101.634,78.01,98.848,79.157,95.89,79.157z M92.032,65.288c-2.445,0-4.435,1.989-4.435,4.435s1.989,4.435,4.435,4.435h3.858
		c1.63,0,3.166-0.632,4.324-1.781c2.101-2.083,4.887-3.231,7.845-3.231h12.718c1.063,0,1.929-0.865,1.929-1.929
		s-0.865-1.929-1.929-1.929H92.032z"/>
	<path fill="#ED9ABC" d="M63.12,162.222c-4.715,0-8.551-3.836-8.551-8.551s3.836-8.551,8.551-8.551s8.551,3.836,8.551,8.551
		S67.834,162.222,63.12,162.222z M63.12,150.121c-1.958,0-3.551,1.593-3.551,3.551s1.593,3.551,3.551,3.551s3.551-1.593,3.551-3.551
		S65.078,150.121,63.12,150.121z"/>
	<path fill="#ED9ABC" d="M192.88,162.222c-4.715,0-8.551-3.836-8.551-8.551s3.836-8.551,8.551-8.551s8.551,3.836,8.551,8.551
		S197.595,162.222,192.88,162.222z M192.88,150.121c-1.958,0-3.551,1.593-3.551,3.551s1.593,3.551,3.551,3.551
		s3.551-1.593,3.551-3.551S194.838,150.121,192.88,150.121z"/>
</g>
</svg>
