<?xml version="1.0" encoding="utf-8"?>
<!-- Generator: Adobe Illustrator 24.0.0, SVG Export Plug-In . SVG Version: 6.00 Build 0)  -->
<svg version="1.1" id="Layer_1" xmlns="http://www.w3.org/2000/svg" xmlns:xlink="http://www.w3.org/1999/xlink" x="0px" y="0px"
	 viewBox="0 0 256 256" enable-background="new 0 0 256 256" xml:space="preserve">
<g>
	<path fill="#EBE7F2" d="M50.541,121.603c-0.098,0-0.196-0.006-0.295-0.018c-1.371-0.161-2.353-1.403-2.19-2.774
		c2.101-17.844,10.288-34.693,23.055-47.445c12.768-12.753,29.629-20.921,47.478-23.001c1.358-0.169,2.612,0.822,2.772,2.194
		c0.159,1.371-0.822,2.612-2.194,2.772c-34.844,4.06-62.044,31.226-66.146,66.063C52.871,120.667,51.791,121.603,50.541,121.603z"/>
	<path fill="#EBE7F2" d="M119.202,208.331c-0.093,0-0.188-0.005-0.282-0.016c-18.037-2.025-35.059-10.249-47.928-23.156
		c-12.872-12.91-21.045-29.961-23.015-48.01c-0.149-1.373,0.842-2.607,2.214-2.757c1.387-0.146,2.607,0.842,2.757,2.214
		c3.793,34.77,31.773,62.838,66.53,66.74c1.372,0.154,2.359,1.392,2.205,2.764C121.54,207.388,120.458,208.331,119.202,208.331z"/>
	<path fill="#EBE7F2" d="M136.798,208.331c-1.256,0-2.338-0.943-2.481-2.221c-0.154-1.372,0.833-2.609,2.205-2.764
		c34.757-3.902,62.737-31.971,66.53-66.74c0.149-1.373,1.382-2.358,2.757-2.214c1.372,0.149,2.363,1.384,2.214,2.757
		c-1.97,18.049-10.143,35.1-23.015,48.01c-12.869,12.907-29.891,21.131-47.928,23.156
		C136.985,208.326,136.891,208.331,136.798,208.331z"/>
	<path fill="#EBE7F2" d="M205.459,121.603c-1.25,0-2.33-0.936-2.479-2.208c-4.102-34.838-31.302-62.004-66.146-66.063
		c-1.372-0.16-2.354-1.401-2.194-2.772c0.16-1.371,1.407-2.357,2.772-2.194c17.849,2.08,34.71,10.248,47.478,23.001
		c12.767,12.752,20.954,29.602,23.055,47.445c0.162,1.371-0.819,2.613-2.19,2.774C205.655,121.597,205.557,121.603,205.459,121.603z
		"/>
	<path fill="#65C1D6" d="M29.976,111.113c-1.381,0-2.5-1.119-2.5-2.5V29.976c0-1.381,1.119-2.5,2.5-2.5h78.667
		c1.381,0,2.5,1.119,2.5,2.5s-1.119,2.5-2.5,2.5H32.476v76.138C32.476,109.994,31.356,111.113,29.976,111.113z"/>
	<path fill="#65C1D6" d="M108.562,228.524H29.976c-1.381,0-2.5-1.119-2.5-2.5v-78.586c0-1.381,1.119-2.5,2.5-2.5s2.5,1.119,2.5,2.5
		v76.086h76.086c1.381,0,2.5,1.119,2.5,2.5S109.942,228.524,108.562,228.524z"/>
	<path fill="#65C1D6" d="M226.024,228.524h-78.586c-1.381,0-2.5-1.119-2.5-2.5s1.119-2.5,2.5-2.5h76.086v-76.108
		c0-1.381,1.119-2.5,2.5-2.5s2.5,1.119,2.5,2.5v78.608C228.524,227.405,227.405,228.524,226.024,228.524z"/>
	<path fill="#65C1D6" d="M226.024,111.062c-1.381,0-2.5-1.119-2.5-2.5V32.476h-76.086c-1.381,0-2.5-1.119-2.5-2.5s1.119-2.5,2.5-2.5
		h78.586c1.381,0,2.5,1.119,2.5,2.5v78.586C228.524,109.942,227.405,111.062,226.024,111.062z"/>
	<g>
		<path fill="#846F75" d="M151.987,93.837h-47.975c-5.611,0-10.176,4.564-10.176,10.176v47.975c0,5.611,4.564,10.176,10.176,10.176
			h47.975c5.611,0,10.176-4.564,10.176-10.176v-47.975C162.163,98.401,157.599,93.837,151.987,93.837z M157.163,151.987
			c0,2.854-2.322,5.176-5.176,5.176h-47.975c-2.854,0-5.176-2.322-5.176-5.176v-47.975c0-2.854,2.322-5.176,5.176-5.176h47.975
			c2.854,0,5.176,2.322,5.176,5.176V151.987z"/>
		<path fill="#846F75" d="M137.696,128c0-5.347-4.35-9.696-9.696-9.696s-9.696,4.35-9.696,9.696s4.35,9.696,9.696,9.696
			S137.696,133.347,137.696,128z M128,132.696c-2.59,0-4.696-2.106-4.696-4.696s2.106-4.696,4.696-4.696s4.696,2.106,4.696,4.696
			S130.59,132.696,128,132.696z"/>
		<path fill="#846F75" d="M111.681,120.745c5.347,0,9.696-4.35,9.696-9.696s-4.35-9.696-9.696-9.696s-9.696,4.35-9.696,9.696
			S106.334,120.745,111.681,120.745z M111.681,106.353c2.59,0,4.696,2.106,4.696,4.696s-2.106,4.696-4.696,4.696
			s-4.696-2.106-4.696-4.696S109.091,106.353,111.681,106.353z"/>
		<path fill="#846F75" d="M144.319,101.353c-5.347,0-9.696,4.35-9.696,9.696s4.35,9.696,9.696,9.696s9.696-4.35,9.696-9.696
			S149.666,101.353,144.319,101.353z M144.319,115.745c-2.59,0-4.696-2.106-4.696-4.696s2.106-4.696,4.696-4.696
			s4.696,2.106,4.696,4.696S146.909,115.745,144.319,115.745z"/>
		<path fill="#846F75" d="M111.681,135.255c-5.347,0-9.696,4.35-9.696,9.696s4.35,9.696,9.696,9.696s9.696-4.35,9.696-9.696
			S117.027,135.255,111.681,135.255z M111.681,149.647c-2.59,0-4.696-2.106-4.696-4.696s2.106-4.696,4.696-4.696
			s4.696,2.106,4.696,4.696S114.271,149.647,111.681,149.647z"/>
		<path fill="#846F75" d="M144.319,135.255c-5.347,0-9.696,4.35-9.696,9.696s4.35,9.696,9.696,9.696s9.696-4.35,9.696-9.696
			S149.666,135.255,144.319,135.255z M144.319,149.647c-2.59,0-4.696-2.106-4.696-4.696s2.106-4.696,4.696-4.696
			s4.696,2.106,4.696,4.696S146.909,149.647,144.319,149.647z"/>
		<path fill="#846F75" d="M112.728,86.351h30.545c4.808,0,8.719-3.911,8.719-8.719c0-4.468-3.378-8.161-7.715-8.661l-8.003-30.759
			c2.32-2.235,3.665-5.338,3.665-8.596c0-6.583-5.355-11.938-11.938-11.938s-11.938,5.355-11.938,11.938
			c0,3.258,1.345,6.361,3.665,8.596l-8.003,30.759c-4.336,0.5-7.715,4.193-7.715,8.661C104.009,82.439,107.92,86.351,112.728,86.351
			z M124.965,37.939c0.261-1.005-0.126-2.067-0.973-2.668c-1.835-1.304-2.931-3.417-2.931-5.655c0-3.826,3.112-6.938,6.938-6.938
			s6.938,3.112,6.938,6.938c0,2.237-1.096,4.352-2.932,5.655c-0.846,0.602-1.232,1.663-0.972,2.668l8.06,30.974h-22.189
			L124.965,37.939z M112.728,73.913h30.545c2.051,0,3.719,1.668,3.719,3.719s-1.668,3.719-3.719,3.719h-30.545
			c-2.051,0-3.719-1.668-3.719-3.719S110.677,73.913,112.728,73.913z"/>
		<path fill="#846F75" d="M143.272,169.649h-30.545c-4.808,0-8.719,3.911-8.719,8.719c0,4.468,3.378,8.161,7.715,8.661l8.003,30.759
			c-2.32,2.235-3.665,5.338-3.665,8.596c0,6.583,5.355,11.938,11.938,11.938s11.938-5.355,11.938-11.938
			c0-3.258-1.345-6.361-3.665-8.596l8.003-30.759c4.336-0.5,7.715-4.193,7.715-8.661
			C151.991,173.561,148.08,169.649,143.272,169.649z M131.035,218.061c-0.261,1.005,0.126,2.067,0.973,2.668
			c1.835,1.304,2.931,3.417,2.931,5.655c0,3.826-3.112,6.938-6.938,6.938s-6.938-3.112-6.938-6.938c0-2.237,1.096-4.352,2.932-5.655
			c0.846-0.602,1.232-1.663,0.972-2.668l-8.06-30.974h22.189L131.035,218.061z M143.272,182.087h-30.545
			c-2.051,0-3.719-1.668-3.719-3.719s1.668-3.719,3.719-3.719h30.545c2.051,0,3.719,1.668,3.719,3.719
			S145.323,182.087,143.272,182.087z"/>
		<path fill="#846F75" d="M226.384,116.062c-3.258,0-6.361,1.345-8.596,3.665l-30.759-8.003c-0.5-4.336-4.193-7.715-8.661-7.715
			c-4.808,0-8.719,3.911-8.719,8.719v30.545c0,4.808,3.911,8.719,8.719,8.719c4.468,0,8.161-3.378,8.661-7.715l30.759-8.003
			c2.235,2.32,5.338,3.665,8.596,3.665c6.583,0,11.938-5.355,11.938-11.938S232.967,116.062,226.384,116.062z M182.087,143.272
			c0,2.051-1.668,3.719-3.719,3.719s-3.719-1.668-3.719-3.719v-30.545c0-2.051,1.668-3.719,3.719-3.719s3.719,1.668,3.719,3.719
			V143.272z M226.384,134.938c-2.237,0-4.352-1.096-5.655-2.932c-0.602-0.846-1.662-1.229-2.668-0.972l-30.974,8.06v-22.189
			l30.974,8.06c1.006,0.26,2.068-0.126,2.668-0.973c1.304-1.835,3.417-2.931,5.655-2.931c3.826,0,6.938,3.112,6.938,6.938
			S230.21,134.938,226.384,134.938z"/>
		<path fill="#846F75" d="M77.632,104.009c-4.468,0-8.161,3.378-8.661,7.715l-30.759,8.003c-2.235-2.32-5.338-3.665-8.596-3.665
			c-6.583,0-11.938,5.355-11.938,11.938s5.355,11.938,11.938,11.938c3.258,0,6.361-1.345,8.596-3.665l30.759,8.003
			c0.5,4.336,4.193,7.715,8.661,7.715c4.808,0,8.719-3.911,8.719-8.719v-30.545C86.351,107.92,82.439,104.009,77.632,104.009z
			 M37.939,131.035c-0.209-0.054-0.421-0.08-0.63-0.08c-0.797,0-1.563,0.382-2.038,1.053c-1.304,1.835-3.417,2.931-5.655,2.931
			c-3.826,0-6.938-3.112-6.938-6.938s3.112-6.938,6.938-6.938c2.237,0,4.352,1.096,5.655,2.932c0.602,0.846,1.663,1.23,2.668,0.972
			l30.974-8.06v22.189L37.939,131.035z M81.351,143.272c0,2.051-1.668,3.719-3.719,3.719s-3.719-1.668-3.719-3.719v-30.545
			c0-2.051,1.668-3.719,3.719-3.719s3.719,1.668,3.719,3.719V143.272z"/>
	</g>
</g>
</svg>
