<?xml version="1.0" encoding="utf-8"?>
<!-- Generator: Adobe Illustrator 24.0.0, SVG Export Plug-In . SVG Version: 6.00 Build 0)  -->
<svg version="1.1" id="Layer_1" xmlns="http://www.w3.org/2000/svg" xmlns:xlink="http://www.w3.org/1999/xlink" x="0px" y="0px"
	 viewBox="0 0 256 256" enable-background="new 0 0 256 256" xml:space="preserve">
<g>
	<path fill="#A58BC9" d="M231.053,149.193H80.85c-1.381,0-2.5-1.119-2.5-2.5s1.119-2.5,2.5-2.5h150.203c1.381,0,2.5,1.119,2.5,2.5
		S232.434,149.193,231.053,149.193z"/>
	<path fill="#A58BC9" d="M199.482,116.909c-0.656,0-1.311-0.256-1.801-0.766l-18.545-19.259c-0.958-0.994-0.928-2.577,0.067-3.535
		s2.577-0.928,3.535,0.067l18.545,19.259c0.958,0.994,0.928,2.577-0.067,3.535C200.73,116.677,200.105,116.909,199.482,116.909z"/>
	<path fill="#A58BC9" d="M190.209,86.588c-0.656,0-1.311-0.256-1.801-0.766l-26.452-27.471c-0.958-0.995-0.928-2.577,0.067-3.535
		c0.995-0.958,2.577-0.928,3.535,0.067l26.452,27.471c0.958,0.995,0.928,2.577-0.067,3.535
		C191.458,86.356,190.833,86.588,190.209,86.588z"/>
	<path fill="#A58BC9" d="M73.147,85.99c-1.381,0-2.5-1.119-2.5-2.5V56.618c0-1.381,1.119-2.5,2.5-2.5s2.5,1.119,2.5,2.5V83.49
		C75.647,84.871,74.528,85.99,73.147,85.99z"/>
	<path fill="#EBE7F2" d="M225.154,164.053H25.432c-1.381,0-2.5-1.119-2.5-2.5s1.119-2.5,2.5-2.5h199.722c1.381,0,2.5,1.119,2.5,2.5
		S226.535,164.053,225.154,164.053z"/>
	<g>
		<path fill="#846F75" d="M236.483,132.939c-0.021-0.756-0.426-1.475-1.027-1.925c0,0-25.883-18.634-25.883-18.634
			c-0.425-0.306-0.936-0.471-1.46-0.471h-71.263c-5.728,0-11.292-2.367-15.265-6.493l-7.479-7.767h90.735
			c10.599-0.293,10.699-15.701,0-16.062c0,0-155.101,0-155.101,0c-10.038,0.262-10.921,14.615-0.908,15.997v37.882
			c0,1.381,1.119,2.5,2.5,2.5s2.5-1.119,2.5-2.5V97.65h53.333l10.818,11.234c4.911,5.1,11.788,8.025,18.867,8.025h70.457
			l18.938,13.634H94.252c-2.638,0-5.087,1.425-6.392,3.72l-4.966,8.741c-0.417,0.734-1.201,1.19-2.044,1.19H35.419
			c-2.852,0-5.47,1.672-6.669,4.259l-9.013,19.441c-0.581,1.253-0.036,2.739,1.216,3.32c1.253,0.58,2.739,0.037,3.32-1.216
			l9.013-19.441c0.384-0.827,1.221-1.362,2.133-1.362H80.85c2.638,0,5.087-1.425,6.392-3.72l4.966-8.741
			c0.417-0.734,1.201-1.19,2.044-1.19h136.8c-1.143,6.292-4.577,21.784-12.23,33.042c-0.776,1.142-0.48,2.697,0.662,3.473
			c1.127,0.77,2.692,0.488,3.473-0.662c10.452-15.374,13.396-37.11,13.516-38.028C236.481,133.225,236.484,133.096,236.483,132.939z
			 M46.966,90.841c-0.936-1.927,0.652-4.302,2.774-4.253c0,0,155.101,0,155.101,0c0.627,0,1.23,0.191,1.744,0.552
			c1.685,1.185,1.303,2.897,1.146,3.394c-0.157,0.496-0.83,2.116-2.89,2.116H49.739C48.501,92.65,47.465,91.974,46.966,90.841z"/>
		<path fill="#846F75" d="M68.847,59.118h116.589c3.573,0,6.578-2.201,7.656-5.608c1.078-3.406-0.114-6.936-3.037-8.992
			c-1.36-0.956-2.957-1.461-4.619-1.461H68.847c-2.25,0-4.41,0.952-5.928,2.613c-2.179,2.384-2.724,5.701-1.421,8.657
			S65.617,59.118,68.847,59.118z M66.609,49.042c0.573-0.626,1.388-0.986,2.237-0.986h116.589c0.627,0,1.23,0.191,1.744,0.552
			c1.685,1.185,1.303,2.896,1.146,3.393c-0.157,0.496-0.83,2.116-2.89,2.116H68.847c-1.238,0-2.274-0.676-2.773-1.808
			S65.775,49.956,66.609,49.042z"/>
		<path fill="#846F75" d="M225.154,175.425c-7.05,0-10.668,3.207-13.861,6.037c-2.893,2.564-5.392,4.779-10.545,4.779
			s-7.652-2.214-10.545-4.779c-3.193-2.83-6.812-6.037-13.861-6.037c-7.049,0-10.667,3.207-13.86,6.037
			c-2.893,2.564-5.391,4.778-10.543,4.778c-5.152,0-7.65-2.214-10.543-4.779c-3.192-2.83-6.81-6.037-13.859-6.037
			c-7.049,0-10.667,3.207-13.859,6.037c-2.893,2.564-5.391,4.778-10.543,4.778s-7.65-2.214-10.542-4.778
			c-3.192-2.83-6.81-6.037-13.859-6.037c-7.048,0-10.666,3.207-13.857,6.037c-2.893,2.564-5.39,4.778-10.542,4.778
			c-5.151,0-7.649-2.214-10.541-4.778c-3.192-2.83-6.81-6.037-13.857-6.037c-1.381,0-2.5,1.119-2.5,2.5s1.119,2.5,2.5,2.5
			c5.151,0,7.648,2.214,10.54,4.778c3.192,2.83,6.81,6.037,13.858,6.037s10.667-3.208,13.858-6.037
			c2.892-2.564,5.39-4.778,10.541-4.778c5.152,0,7.65,2.214,10.543,4.779c3.192,2.83,6.81,6.037,13.859,6.037
			c7.049,0,10.667-3.207,13.859-6.037c2.893-2.564,5.391-4.778,10.543-4.778s7.65,2.214,10.542,4.778
			c3.192,2.83,6.81,6.037,13.859,6.037c7.049,0,10.667-3.207,13.859-6.037c2.893-2.564,5.391-4.779,10.543-4.779
			c5.153,0,7.652,2.214,10.545,4.779c3.193,2.83,6.812,6.037,13.861,6.037c7.05,0,10.669-3.207,13.862-6.037
			c2.893-2.564,5.392-4.779,10.545-4.779c1.381,0,2.5-1.119,2.5-2.5S226.535,175.425,225.154,175.425z"/>
	</g>
	<path fill="#EBE7F2" d="M200.747,212.943c-7.05,0-10.668-3.207-13.861-6.037c-2.893-2.564-5.392-4.779-10.545-4.779
		c-5.152,0-7.651,2.214-10.543,4.779c-3.192,2.83-6.811,6.037-13.859,6.037c-7.049,0-10.667-3.208-13.859-6.037
		c-2.893-2.564-5.391-4.778-10.542-4.778s-7.65,2.214-10.543,4.778c-3.192,2.83-6.81,6.037-13.859,6.037
		c-7.049,0-10.667-3.207-13.859-6.037c-2.893-2.564-5.391-4.779-10.543-4.779c-5.151,0-7.648,2.214-10.541,4.778
		c-3.192,2.83-6.81,6.037-13.858,6.037s-10.666-3.208-13.858-6.037c-2.892-2.564-5.389-4.778-10.54-4.778
		c-1.381,0-2.5-1.119-2.5-2.5s1.119-2.5,2.5-2.5c7.048,0,10.666,3.208,13.857,6.037c2.892,2.564,5.39,4.778,10.541,4.778
		c5.151,0,7.649-2.214,10.542-4.778c3.191-2.83,6.809-6.037,13.857-6.037c7.049,0,10.667,3.208,13.859,6.037
		c2.893,2.564,5.391,4.778,10.542,4.778s7.65-2.214,10.543-4.778c3.192-2.83,6.81-6.037,13.859-6.037
		c7.049,0,10.667,3.207,13.859,6.037c2.893,2.564,5.391,4.779,10.543,4.779c5.152,0,7.65-2.214,10.543-4.778
		c3.192-2.83,6.811-6.037,13.86-6.037c7.05,0,10.668,3.207,13.861,6.037c2.893,2.564,5.392,4.779,10.545,4.779
		s7.652-2.214,10.545-4.779c3.193-2.83,6.812-6.037,13.861-6.037c1.381,0,2.5,1.119,2.5,2.5s-1.119,2.5-2.5,2.5
		c-5.153,0-7.652,2.214-10.545,4.779C211.416,209.736,207.797,212.943,200.747,212.943z"/>
	<path fill="#A58BC9" d="M71.705,123.386c-5.545,0-10.057-4.512-10.057-10.057c0-5.546,4.512-10.058,10.057-10.058
		c5.546,0,10.058,4.512,10.058,10.058C81.762,118.874,77.25,123.386,71.705,123.386z M71.705,108.271
		c-2.789,0-5.057,2.269-5.057,5.058s2.269,5.057,5.057,5.057s5.058-2.269,5.058-5.057S74.493,108.271,71.705,108.271z"/>
	<path fill="#A58BC9" d="M97.445,123.386c-5.546,0-10.058-4.512-10.058-10.057c0-5.546,4.512-10.058,10.058-10.058
		c5.545,0,10.057,4.512,10.057,10.058C107.502,118.874,102.99,123.386,97.445,123.386z M97.445,108.271
		c-2.789,0-5.058,2.269-5.058,5.058s2.269,5.057,5.058,5.057s5.057-2.269,5.057-5.057S100.233,108.271,97.445,108.271z"/>
	<path fill="#A58BC9" d="M29.976,139.79c-1.381,0-2.5-1.119-2.5-2.5V29.976c0-1.381,1.119-2.5,2.5-2.5h196.049
		c1.381,0,2.5,1.119,2.5,2.5v83.353c0,1.381-1.119,2.5-2.5,2.5s-2.5-1.119-2.5-2.5V32.476H32.476V137.29
		C32.476,138.67,31.356,139.79,29.976,139.79z"/>
	<path fill="#A58BC9" d="M226.024,228.524H29.976c-1.381,0-2.5-1.119-2.5-2.5v-48.1c0-1.381,1.119-2.5,2.5-2.5s2.5,1.119,2.5,2.5
		v45.6h191.049v-45.6c0-1.381,1.119-2.5,2.5-2.5s2.5,1.119,2.5,2.5v48.1C228.524,227.405,227.405,228.524,226.024,228.524z"/>
</g>
</svg>
