<?xml version="1.0" encoding="utf-8"?>
<!-- Generator: Adobe Illustrator 24.0.0, SVG Export Plug-In . SVG Version: 6.00 Build 0)  -->
<svg version="1.1" id="Layer_1" xmlns="http://www.w3.org/2000/svg" xmlns:xlink="http://www.w3.org/1999/xlink" x="0px" y="0px"
	 viewBox="0 0 256 256" enable-background="new 0 0 256 256" xml:space="preserve">
<g>
	<path fill="#EBE7F2" d="M226.024,112.714H172.28c-1.381,0-2.5-1.119-2.5-2.5s1.119-2.5,2.5-2.5h53.744c1.381,0,2.5,1.119,2.5,2.5
		S227.405,112.714,226.024,112.714z"/>
	<path fill="#EBE7F2" d="M83.72,112.714H30.809c-1.381,0-2.5-1.119-2.5-2.5s1.119-2.5,2.5-2.5H83.72c1.381,0,2.5,1.119,2.5,2.5
		S85.101,112.714,83.72,112.714z"/>
	<path fill="#EBE7F2" d="M128,228.524c-1.381,0-2.5-1.119-2.5-2.5v-14.449c0-1.381,1.119-2.5,2.5-2.5s2.5,1.119,2.5,2.5v14.449
		C130.5,227.405,129.381,228.524,128,228.524z"/>
	<path fill="#EBE7F2" d="M127.785,68.434c-1.381,0-2.5-1.119-2.5-2.5V29.976c0-1.381,1.119-2.5,2.5-2.5s2.5,1.119,2.5,2.5v35.958
		C130.285,67.315,129.166,68.434,127.785,68.434z"/>
	<path fill="#EBE7F2" d="M143.774,183.137h-31.549c-1.381,0-2.5-1.119-2.5-2.5s1.119-2.5,2.5-2.5h31.549c1.381,0,2.5,1.119,2.5,2.5
		S145.155,183.137,143.774,183.137z"/>
	<path fill="#EBE7F2" d="M143.774,191.799h-31.549c-1.381,0-2.5-1.119-2.5-2.5s1.119-2.5,2.5-2.5h31.549c1.381,0,2.5,1.119,2.5,2.5
		S145.155,191.799,143.774,191.799z"/>
	<path fill="#A58BC9" d="M131.171,143.53h-6.342c-2.415,0-4.523-1.632-5.128-3.97l-1.371-5.318l-4.728,2.791
		c-2.084,1.226-4.728,0.89-6.435-0.818l-4.485-4.484c-1.707-1.708-2.044-4.353-0.82-6.433l2.792-4.73l-5.315-1.37
		c-2.34-0.607-3.972-2.715-3.972-5.129v-6.343c0-2.414,1.632-4.522,3.968-5.128l5.319-1.371l-2.79-4.728
		c-1.226-2.083-0.889-4.728,0.817-6.435l4.486-4.486c1.706-1.707,4.353-2.044,6.432-0.819l4.73,2.792l1.37-5.316
		c0.605-2.34,2.714-3.972,5.129-3.972h6.342c2.415,0,4.523,1.632,5.128,3.97l1.371,5.318l4.728-2.791
		c2.083-1.226,4.728-0.889,6.435,0.818l4.485,4.484c1.707,1.708,2.044,4.353,0.819,6.433l-2.791,4.73l5.315,1.37
		c0.001,0,0.002,0,0.004,0.001c2.336,0.606,3.968,2.714,3.968,5.128v6.343c0,2.414-1.632,4.522-3.968,5.128l-5.319,1.371l2.79,4.727
		c1.226,2.083,0.889,4.729-0.817,6.435l-4.486,4.486c-1.707,1.706-4.352,2.044-6.432,0.819l-4.73-2.792l-1.37,5.316
		C135.694,141.897,133.586,143.53,131.171,143.53z M119.922,127.899c0.324,0,0.649,0.063,0.957,0.19
		c0.726,0.3,1.268,0.925,1.464,1.686l2.199,8.534c0.033,0.129,0.151,0.22,0.287,0.22h6.342c0.136,0,0.254-0.091,0.288-0.222
		l2.198-8.532c0.196-0.761,0.738-1.385,1.464-1.686c0.727-0.301,1.552-0.244,2.228,0.157l7.59,4.48
		c0.114,0.067,0.262,0.047,0.358-0.047l4.485-4.485c0.096-0.095,0.114-0.245,0.045-0.362l-4.478-7.586
		c-0.399-0.676-0.457-1.501-0.156-2.227c0.301-0.726,0.925-1.269,1.686-1.464l8.534-2.199c0.128-0.033,0.22-0.151,0.22-0.287v-6.343
		c0-0.135-0.091-0.253-0.222-0.288l-8.532-2.199c-0.761-0.196-1.385-0.738-1.686-1.464c-0.301-0.726-0.243-1.551,0.156-2.227
		l4.479-7.589c0.067-0.114,0.049-0.263-0.048-0.359l-4.484-4.484c-0.096-0.096-0.244-0.114-0.361-0.046l-7.587,4.478
		c-0.676,0.4-1.5,0.458-2.228,0.157c-0.726-0.3-1.268-0.925-1.464-1.686l-2.199-8.534c-0.033-0.129-0.151-0.22-0.287-0.22h-6.342
		c-0.136,0-0.254,0.091-0.288,0.222l-2.198,8.532c-0.196,0.761-0.738,1.385-1.464,1.686c-0.727,0.301-1.553,0.243-2.228-0.157
		l-7.59-4.48c-0.115-0.068-0.263-0.048-0.358,0.047l-4.485,4.485c-0.096,0.095-0.114,0.244-0.046,0.361l4.479,7.587
		c0.399,0.676,0.457,1.501,0.156,2.227c-0.301,0.726-0.925,1.268-1.686,1.464l-8.534,2.199c-0.128,0.033-0.22,0.151-0.22,0.287
		v6.343c0,0.136,0.092,0.254,0.224,0.288l8.53,2.198c0.761,0.196,1.385,0.738,1.686,1.464c0.301,0.726,0.243,1.551-0.156,2.227
		l-4.479,7.589c-0.067,0.114-0.049,0.264,0.048,0.36l4.484,4.484c0.098,0.097,0.246,0.115,0.361,0.046l7.587-4.478
		C119.041,128.016,119.48,127.899,119.922,127.899z"/>
	<path fill="#A58BC9" d="M128,123.423c-6.906,0-12.525-5.619-12.525-12.526S121.094,98.372,128,98.372s12.525,5.619,12.525,12.525
		S134.906,123.423,128,123.423z M128,103.372c-4.149,0-7.525,3.376-7.525,7.525c0,4.15,3.376,7.526,7.525,7.526
		s7.525-3.376,7.525-7.526C135.525,106.748,132.149,103.372,128,103.372z"/>
	<path fill="#A58BC9" d="M202.917,89.844c-20.271,0-36.762-16.491-36.762-36.761s16.491-36.761,36.762-36.761
		c20.27,0,36.761,16.491,36.761,36.761S223.187,89.844,202.917,89.844z M202.917,21.322c-17.514,0-31.762,14.248-31.762,31.761
		s14.248,31.761,31.762,31.761c17.513,0,31.761-14.248,31.761-31.761S220.43,21.322,202.917,21.322z"/>
	<path fill="#A58BC9" d="M53.083,239.678c-20.27,0-36.761-16.491-36.761-36.761s16.491-36.761,36.761-36.761
		c20.271,0,36.762,16.491,36.762,36.761S73.354,239.678,53.083,239.678z M53.083,171.156c-17.513,0-31.761,14.248-31.761,31.761
		s14.248,31.761,31.761,31.761c17.514,0,31.762-14.248,31.762-31.761S70.597,171.156,53.083,171.156z"/>
	<path fill="#A58BC9" d="M202.917,239.678c-20.271,0-36.762-16.491-36.762-36.761s16.491-36.761,36.762-36.761
		c20.27,0,36.761,16.491,36.761,36.761S223.187,239.678,202.917,239.678z M202.917,171.156c-17.514,0-31.762,14.248-31.762,31.761
		s14.248,31.761,31.762,31.761c17.513,0,31.761-14.248,31.761-31.761S220.43,171.156,202.917,171.156z"/>
	<g>
		<path fill="#846F75" d="M159.904,76.001c-28.781-27.282-77.031-7.148-78.646,32.305c-0.556,13.961,5.074,27.324,15.446,36.663
			c5.492,4.946,8.643,12.252,8.643,20.043c-0.185,3.292,1.6,6.353,4.379,7.787v20.816c-0.03,5.43,4.762,9.529,10.098,9.059v4.637
			c0,3.729,3.034,6.764,6.764,6.764h2.826c3.729,0,6.764-3.034,6.764-6.764v-4.637c5.336,0.469,10.128-3.628,10.098-9.059
			c0,0,0-20.816,0-20.816c2.943-1.494,4.658-4.803,4.379-8.221c0-7.411,3.281-14.677,9.003-19.936
			C179.581,126.866,179.686,93.922,159.904,76.001z M131.177,207.312c0,0.973-0.791,1.764-1.764,1.764h-2.826
			c-0.973,0-1.764-0.791-1.764-1.764v-4.637h6.354V207.312z M137.215,197.674h-18.43c-2.238,0-4.06-1.821-4.06-4.059v-19.874h26.549
			v19.874C141.274,195.854,139.453,197.674,137.215,197.674z M156.271,140.961c-6.748,6.203-10.618,14.812-10.618,23.617v0.985
			c0,1.752-1.425,3.177-3.177,3.177h-28.953c-1.752,0-3.177-1.425-3.177-3.177v-0.551c0-9.206-3.753-17.866-10.297-23.759
			c-9.264-8.341-14.292-20.278-13.796-32.749c1.443-35.208,44.5-53.228,70.24-28.847C174.16,95.671,174.071,125.079,156.271,140.961
			z"/>
		<path fill="#846F75" d="M32.476,165.622V90.377c0-1.381-1.119-2.5-2.5-2.5s-2.5,1.119-2.5,2.5v75.245c0,1.381,1.119,2.5,2.5,2.5
			S32.476,167.003,32.476,165.622z"/>
		<path fill="#846F75" d="M165.623,223.524H90.378c-1.381,0-2.5,1.119-2.5,2.5s1.119,2.5,2.5,2.5h75.245c1.381,0,2.5-1.119,2.5-2.5
			S167.004,223.524,165.623,223.524z"/>
		<path fill="#846F75" d="M226.024,87.51c-1.381,0-2.5,1.119-2.5,2.5v75.613c0,1.381,1.119,2.5,2.5,2.5s2.5-1.119,2.5-2.5V90.01
			C228.524,88.629,227.405,87.51,226.024,87.51z"/>
		<path fill="#846F75" d="M90.378,32.476h74.815c1.381,0,2.5-1.119,2.5-2.5s-1.119-2.5-2.5-2.5H90.378c-1.381,0-2.5,1.119-2.5,2.5
			S88.997,32.476,90.378,32.476z"/>
		<path fill="#846F75" d="M193.633,68.166c1.415,1.415,3.296,2.194,5.297,2.194c1.999,0,3.88-0.779,5.297-2.194l19.569-19.57
			c1.415-1.415,2.194-3.296,2.194-5.297c0-2.001-0.779-3.882-2.193-5.296c-1.415-1.416-3.296-2.195-5.298-2.195
			s-3.883,0.779-5.297,2.194L198.93,52.273l-6.298-6.297c-1.414-1.415-3.296-2.194-5.297-2.194c-2.002,0-3.884,0.779-5.297,2.193
			c-1.415,1.415-2.195,3.296-2.195,5.298c0,2.001,0.78,3.883,2.195,5.297L193.633,68.166z M185.574,49.511
			c0.47-0.47,1.095-0.729,1.761-0.729s1.291,0.259,1.762,0.729l8.065,8.065c0.977,0.977,2.559,0.977,3.535,0l16.041-16.041
			c0.939-0.94,2.581-0.941,3.522,0c0.972,0.972,0.972,2.552,0,3.524l-19.568,19.569c-0.93,0.929-2.597,0.928-3.524,0.001
			l-11.595-11.595c-0.471-0.471-0.73-1.096-0.73-1.762S185.103,49.982,185.574,49.511z"/>
		<path fill="#846F75" d="M68.665,185.641c-2.001,0-3.883,0.779-5.297,2.194l-14.272,14.272l-6.298-6.297
			c-1.414-1.415-3.295-2.194-5.297-2.194s-3.883,0.779-5.297,2.194c-2.921,2.921-2.921,7.674,0,10.595L43.799,218
			c1.416,1.415,3.297,2.194,5.297,2.194c2.002,0,3.883-0.779,5.297-2.194l19.569-19.57c1.415-1.415,2.195-3.296,2.195-5.298
			c0-2.001-0.78-3.882-2.194-5.296C72.549,186.42,70.667,185.641,68.665,185.641z M70.427,194.894l-19.57,19.571
			c-0.939,0.939-2.581,0.94-3.522,0l-11.595-11.595c-0.972-0.972-0.971-2.553,0-3.524c0.471-0.47,1.096-0.729,1.762-0.729
			s1.291,0.259,1.762,0.729l8.065,8.065c0.977,0.977,2.559,0.977,3.535,0l16.04-16.04c0.941-0.94,2.582-0.941,3.523,0
			c0.471,0.471,0.73,1.096,0.73,1.761C71.157,193.797,70.897,194.422,70.427,194.894z"/>
		<path fill="#846F75" d="M218.499,185.641c-2.002,0-3.883,0.779-5.297,2.194l-14.272,14.272l-6.298-6.297
			c-1.414-1.415-3.296-2.194-5.297-2.194c-2.002,0-3.884,0.779-5.297,2.193c-1.415,1.415-2.195,3.297-2.195,5.298
			c0,2.001,0.78,3.883,2.195,5.297l11.594,11.594c1.415,1.416,3.296,2.195,5.298,2.195c2,0,3.881-0.779,5.297-2.194l19.569-19.57
			c1.415-1.415,2.194-3.296,2.194-5.297c0-2.001-0.779-3.882-2.194-5.297C222.382,186.42,220.501,185.641,218.499,185.641z
			 M220.261,194.894l-19.569,19.57c-0.942,0.942-2.583,0.941-3.523,0l-11.595-11.595c-0.471-0.471-0.73-1.096-0.73-1.762
			s0.26-1.291,0.731-1.763c0.47-0.47,1.095-0.729,1.761-0.729s1.291,0.259,1.762,0.729l8.065,8.065c0.977,0.977,2.559,0.977,3.535,0
			l16.04-16.04c0.941-0.94,2.582-0.94,3.523,0C221.232,192.341,221.232,193.922,220.261,194.894z"/>
		<path fill="#846F75" d="M68.665,35.807c-2.002,0-3.883,0.779-5.297,2.194L49.096,52.273l-6.298-6.297
			c-1.414-1.415-3.295-2.194-5.297-2.194s-3.883,0.779-5.297,2.194c-2.921,2.92-2.921,7.673,0,10.595L43.8,68.167
			c1.416,1.415,3.297,2.193,5.296,2.193c2.001,0,3.882-0.779,5.297-2.194l19.569-19.57c1.415-1.415,2.195-3.296,2.195-5.298
			c0-2.001-0.78-3.882-2.194-5.296C72.549,36.586,70.668,35.807,68.665,35.807z M70.427,45.06L50.857,64.63
			c-0.935,0.934-2.589,0.934-3.523,0L35.739,53.036c-0.971-0.972-0.972-2.553,0-3.524c0.471-0.47,1.096-0.729,1.762-0.729
			s1.291,0.259,1.762,0.729l8.065,8.065c0.977,0.977,2.559,0.977,3.535,0l16.041-16.041c0.939-0.942,2.581-0.941,3.522,0.001
			c0.471,0.471,0.73,1.096,0.73,1.761C71.157,43.963,70.897,44.589,70.427,45.06z"/>
	</g>
	<path fill="#A58BC9" d="M53.083,89.844c-20.27,0-36.761-16.491-36.761-36.761s16.491-36.761,36.761-36.761
		c20.271,0,36.762,16.491,36.762,36.761S73.354,89.844,53.083,89.844z M53.083,21.322c-17.513,0-31.761,14.248-31.761,31.761
		S35.57,84.844,53.083,84.844c17.514,0,31.762-14.248,31.762-31.761S70.597,21.322,53.083,21.322z"/>
</g>
</svg>
