<?xml version="1.0" encoding="utf-8"?>
<!-- Generator: Adobe Illustrator 24.0.0, SVG Export Plug-In . SVG Version: 6.00 Build 0)  -->
<svg version="1.1" id="Layer_1" xmlns="http://www.w3.org/2000/svg" xmlns:xlink="http://www.w3.org/1999/xlink" x="0px" y="0px"
	 viewBox="0 0 256 256" enable-background="new 0 0 256 256" xml:space="preserve">
<g>
	<path fill="#EBE7F2" d="M179.813,102.008c-1.381,0-2.5-1.119-2.5-2.5V78.687H78.687v20.821c0,1.381-1.119,2.5-2.5,2.5
		s-2.5-1.119-2.5-2.5V76.187c0-1.381,1.119-2.5,2.5-2.5h103.627c1.381,0,2.5,1.119,2.5,2.5v23.321
		C182.313,100.889,181.194,102.008,179.813,102.008z"/>
	<path fill="#846F75" d="M227.137,104.922c-0.001-0.001-0.002-0.001-0.003-0.001l-26.767-6.897l14.051-23.807
		c2.852-4.84,2.067-10.997-1.906-14.972l-15.758-15.758c-3.975-3.973-10.132-4.757-14.974-1.905l-23.805,14.051l-6.898-26.771
		c-1.408-5.438-6.316-9.237-11.935-9.237h-22.285c-5.618,0-10.526,3.799-11.936,9.24l-6.897,26.768L74.218,41.581
		c-4.845-2.851-11-2.065-14.971,1.906L43.488,59.245c-3.974,3.973-4.757,10.13-1.905,14.974l14.05,23.805l-26.771,6.898
		c-5.438,1.408-9.237,6.316-9.237,11.935v22.285c0,5.619,3.799,10.527,9.24,11.937l26.768,6.896l-14.051,23.807
		c-2.851,4.843-2.067,11,1.906,14.973l15.759,15.758c3.972,3.974,10.128,4.756,14.973,1.905l23.805-14.051l6.898,26.771
		c1.408,5.439,6.316,9.238,11.935,9.238h22.285c5.618,0,10.526-3.799,11.936-9.241l6.897-26.768l23.807,14.052
		c4.844,2.853,11,2.066,14.972-1.906l15.758-15.758c3.974-3.975,4.757-10.132,1.905-14.975l-14.05-23.805l26.77-6.897
		c5.439-1.408,9.238-6.316,9.238-11.936v-22.285C236.375,111.238,232.576,106.33,227.137,104.922z M231.375,139.142
		c0,3.341-2.259,6.258-5.489,7.095l-29.985,7.726c-0.761,0.196-1.385,0.738-1.686,1.464c-0.301,0.727-0.243,1.551,0.156,2.228
		l15.738,26.665c1.695,2.878,1.229,6.538-1.133,8.9l-15.758,15.758c-2.362,2.36-6.02,2.827-8.897,1.134l-26.667-15.74
		c-0.677-0.398-1.502-0.456-2.228-0.156c-0.726,0.301-1.268,0.925-1.464,1.686l-7.726,29.983c-0.838,3.233-3.755,5.492-7.095,5.492
		h-22.285c-3.34,0-6.257-2.259-7.094-5.489l-7.727-29.986c-0.196-0.761-0.738-1.385-1.464-1.686c-0.308-0.128-0.633-0.19-0.957-0.19
		c-0.441,0-0.881,0.117-1.271,0.347l-26.665,15.739c-2.876,1.693-6.536,1.23-8.898-1.133l-15.759-15.758
		c-2.361-2.362-2.827-6.021-1.134-8.898l15.739-26.667c0.399-0.677,0.457-1.501,0.156-2.228c-0.301-0.726-0.925-1.268-1.686-1.464
		l-29.983-7.725c-3.233-0.838-5.491-3.756-5.491-7.096v-22.285c0-3.34,2.258-6.257,5.488-7.094l29.986-7.727
		c0.761-0.196,1.385-0.738,1.686-1.464c0.301-0.727,0.243-1.551-0.156-2.228L45.891,71.68c-1.694-2.878-1.229-6.537,1.133-8.899
		l15.759-15.758c2.361-2.361,6.019-2.828,8.896-1.134l26.667,15.74c0.676,0.397,1.501,0.458,2.228,0.156
		c0.726-0.301,1.268-0.925,1.464-1.686l7.726-29.983c0.838-3.233,3.755-5.491,7.095-5.491h22.285c3.34,0,6.257,2.258,7.094,5.488
		l7.727,29.986c0.196,0.761,0.738,1.385,1.464,1.686c0.727,0.303,1.552,0.242,2.228-0.156l26.665-15.739
		c2.878-1.693,6.538-1.228,8.899,1.133l15.758,15.758c2.361,2.362,2.828,6.022,1.134,8.897l-15.739,26.667
		c-0.399,0.677-0.457,1.501-0.156,2.228c0.301,0.726,0.925,1.268,1.686,1.464l29.982,7.726c3.233,0.838,5.492,3.755,5.492,7.095
		V139.142z"/>
	<g>
		<path fill="#ED9ABC" d="M173.692,107.008H82.308c-4.754,0-8.621,3.867-8.621,8.62v58.064c0,4.754,3.867,8.621,8.621,8.621h91.385
			c4.754,0,8.621-3.867,8.621-8.621v-58.064C182.313,110.875,178.446,107.008,173.692,107.008z M78.687,115.628
			c0-1.996,1.624-3.62,3.621-3.62h91.385c1.997,0,3.621,1.624,3.621,3.62v13.097c0,9.391-7.641,17.031-17.031,17.031h-5.587v-4.905
			c0-1.381-1.119-2.5-2.5-2.5s-2.5,1.119-2.5,2.5v4.905h-43.391v-4.905c0-1.381-1.119-2.5-2.5-2.5s-2.5,1.119-2.5,2.5v4.905h-5.587
			c-9.391,0-17.031-7.641-17.031-17.031V115.628z M177.313,173.692c0,1.997-1.624,3.621-3.621,3.621H82.308
			c-1.997,0-3.621-1.624-3.621-3.621v-31.007c4.044,4.924,10.177,8.071,17.031,8.071h5.587v4.054c0,1.381,1.119,2.5,2.5,2.5
			s2.5-1.119,2.5-2.5v-4.054h43.391v4.054c0,1.381,1.119,2.5,2.5,2.5s2.5-1.119,2.5-2.5v-4.054h5.587
			c6.854,0,12.988-3.146,17.031-8.071V173.692z"/>
		<path fill="#ED9ABC" d="M108.4,102.991c1.381,0,2.5-1.119,2.5-2.5v-4.525c0-1.26,1.025-2.285,2.285-2.285h29.629
			c1.26,0,2.285,1.025,2.285,2.285v4.525c0,1.381,1.119,2.5,2.5,2.5s2.5-1.119,2.5-2.5v-4.525c0-4.017-3.269-7.285-7.285-7.285
			h-29.629c-4.017,0-7.285,3.269-7.285,7.285v4.525C105.9,101.872,107.02,102.991,108.4,102.991z"/>
	</g>
</g>
</svg>
