<?xml version="1.0" encoding="utf-8"?>
<!-- Generator: Adobe Illustrator 24.0.0, SVG Export Plug-In . SVG Version: 6.00 Build 0)  -->
<svg version="1.1" id="Layer_1" xmlns="http://www.w3.org/2000/svg" xmlns:xlink="http://www.w3.org/1999/xlink" x="0px" y="0px"
	 viewBox="0 0 256 256" enable-background="new 0 0 256 256" xml:space="preserve">
<g>
	<path fill="#A58BC9" d="M136.463,33.906c-0.792-1.131-2.352-1.405-3.482-0.614L128,36.781l-4.981-3.489
		c-1.13-0.792-2.69-0.518-3.482,0.614c-0.792,1.131-0.517,2.69,0.614,3.482l5.113,3.581l-4.57,26.158
		c-0.142,0.814,0.127,1.645,0.719,2.222l4.843,4.715c0.485,0.472,1.114,0.708,1.744,0.708s1.259-0.236,1.744-0.708l4.843-4.715
		c0.592-0.577,0.861-1.408,0.719-2.222l-4.57-26.158l5.113-3.581C136.98,36.596,137.255,35.037,136.463,33.906z M128,68.783
		l-2.153-2.097L128,54.36l2.153,12.326L128,68.783z"/>
	<path fill="#A58BC9" d="M136.463,202.179c-0.792-1.132-2.353-1.404-3.482-0.614L128,205.054l-4.981-3.489
		c-1.13-0.791-2.69-0.518-3.482,0.614c-0.792,1.131-0.517,2.689,0.614,3.482l5.113,3.581l-4.57,26.158
		c-0.142,0.814,0.127,1.646,0.719,2.222l4.843,4.714c0.485,0.472,1.114,0.708,1.744,0.708s1.258-0.236,1.744-0.708l4.843-4.714
		c0.592-0.576,0.861-1.408,0.719-2.222l-4.57-26.158l5.113-3.581C136.98,204.868,137.255,203.31,136.463,202.179z M128,237.056
		l-2.153-2.096L128,222.634l2.153,12.326L128,237.056z"/>
	<path fill="#A58BC9" d="M54.977,118.042c-0.792-1.131-2.351-1.405-3.482-0.614l-4.981,3.489l-4.981-3.489
		c-1.131-0.792-2.689-0.518-3.482,0.614c-0.792,1.131-0.517,2.689,0.614,3.482l5.113,3.581l-4.57,26.158
		c-0.142,0.814,0.127,1.646,0.719,2.222l4.843,4.714c0.485,0.472,1.114,0.708,1.744,0.708s1.258-0.236,1.744-0.708l4.843-4.714
		c0.592-0.576,0.861-1.408,0.719-2.222l-4.57-26.158l5.113-3.581C55.494,120.732,55.769,119.173,54.977,118.042z M46.514,152.919
		l-2.153-2.096l2.153-12.326l2.153,12.326L46.514,152.919z"/>
	<path fill="#A58BC9" d="M217.95,118.042c-0.792-1.131-2.352-1.405-3.482-0.614l-4.981,3.489l-4.981-3.489
		c-1.13-0.792-2.689-0.518-3.482,0.614c-0.792,1.131-0.517,2.69,0.614,3.482l5.113,3.581l-4.57,26.158
		c-0.142,0.814,0.127,1.646,0.719,2.222l4.843,4.714c0.485,0.472,1.114,0.708,1.744,0.708s1.258-0.236,1.744-0.708l4.843-4.714
		c0.592-0.576,0.861-1.408,0.719-2.222l-4.57-26.158l5.113-3.581C218.467,120.732,218.742,119.173,217.95,118.042z M209.486,152.919
		l-2.153-2.096l2.153-12.326l2.153,12.326L209.486,152.919z"/>
	<g>
		<path fill="#846F75" d="M128,88.328c-21.875,0-39.672,17.797-39.672,39.672s17.797,39.672,39.672,39.672
			s39.672-17.797,39.672-39.672S149.875,88.328,128,88.328z M156.368,108.101c-0.074,0.036-0.149,0.063-0.221,0.107
			c-2.464,1.513-5.358,2.792-8.553,3.817c-1.526-6.614-3.983-12.24-7.082-16.351C146.946,98.172,152.452,102.536,156.368,108.101z
			 M144.34,128c0,3.372-0.245,6.648-0.691,9.757c-4.891-1.072-10.195-1.647-15.649-1.647c-5.45,0-10.755,0.576-15.649,1.648
			c-0.447-3.11-0.691-6.386-0.691-9.759c0-3.372,0.245-6.648,0.691-9.757c4.89,1.072,10.194,1.647,15.649,1.647
			c5.45,0,10.755-0.576,15.648-1.649C144.095,121.351,144.34,124.627,144.34,128z M128,162.672c-6.403,0-12.086-8.301-14.745-20.002
			c4.575-1.014,9.577-1.56,14.745-1.56c5.172,0,10.173,0.545,14.745,1.559C140.087,154.37,134.404,162.672,128,162.672z
			 M128,114.889c-5.172,0-10.173-0.545-14.745-1.559c2.658-11.701,8.342-20.003,14.745-20.003c6.403,0,12.086,8.301,14.745,20.001
			C138.17,114.343,133.167,114.889,128,114.889z M115.487,95.673c-3.099,4.111-5.557,9.739-7.083,16.354
			c-3.259-1.046-6.203-2.357-8.7-3.911c-0.02-0.012-0.042-0.019-0.062-0.03C103.558,102.528,109.06,98.17,115.487,95.673z
			 M97.069,112.364c2.982,1.856,6.509,3.4,10.403,4.601c-0.525,3.493-0.811,7.19-0.811,11.035c0,3.846,0.286,7.542,0.811,11.035
			c-3.83,1.18-7.303,2.694-10.252,4.507c-0.052,0.032-0.094,0.074-0.143,0.109c-2.391-4.706-3.749-10.021-3.749-15.651
			C93.328,122.376,94.682,117.066,97.069,112.364z M99.633,147.901c0.069-0.034,0.14-0.059,0.207-0.1
			c2.466-1.517,5.365-2.799,8.566-3.826c1.526,6.614,3.983,12.241,7.082,16.352C109.054,157.828,103.549,153.465,99.633,147.901z
			 M140.513,160.327c3.099-4.111,5.557-9.739,7.083-16.354c3.26,1.046,6.207,2.358,8.704,3.914c0.019,0.012,0.04,0.015,0.059,0.026
			C152.443,153.471,146.941,157.83,140.513,160.327z M158.931,143.636c-2.982-1.856-6.509-3.4-10.403-4.601
			c0.525-3.493,0.811-7.189,0.811-11.035s-0.286-7.543-0.811-11.035c3.823-1.178,7.291-2.688,10.236-4.497
			c0.058-0.036,0.105-0.081,0.159-0.121c2.392,4.706,3.75,10.022,3.75,15.653C162.672,133.624,161.318,138.934,158.931,143.636z"/>
		<path fill="#846F75" d="M103.205,81.396h49.591c1.381,0,2.5-1.119,2.5-2.5V44.352c0-6.348-5.164-11.512-11.512-11.512h-2.621
			c2.275-3.011,3.512-6.772,3.352-10.672c-0.345-8.421-6.939-15.212-15.339-15.796c-4.646-0.323-9.062,1.241-12.449,4.4
			c-3.34,3.116-5.256,7.522-5.256,12.088c0,3.685,1.206,7.163,3.34,9.979h-2.594c-6.348,0-11.512,5.164-11.512,11.512v34.544
			C100.705,80.276,101.824,81.396,103.205,81.396z M105.705,44.352c0-3.59,2.921-6.512,6.512-6.512h9.368
			c1.154,0,2.158-0.79,2.43-1.911c0.272-1.121-0.259-2.283-1.285-2.812c-3.861-1.988-6.259-5.918-6.259-10.257
			c0-3.231,1.302-6.226,3.667-8.432c2.362-2.203,5.45-3.293,8.692-3.068c5.758,0.4,10.454,5.237,10.69,11.013
			c0.184,4.477-2.269,8.694-6.249,10.744c-1.025,0.529-1.557,1.69-1.285,2.812c0.272,1.122,1.276,1.911,2.43,1.911h9.368
			c3.59,0,6.512,2.921,6.512,6.512v32.044h-44.591V44.352z"/>
		<path fill="#846F75" d="M143.784,201.113h-2.62c2.275-3.01,3.511-6.772,3.352-10.671c-0.345-8.422-6.94-15.212-15.339-15.796
			c-4.646-0.321-9.062,1.24-12.449,4.4c-3.34,3.116-5.256,7.522-5.256,12.088c0,3.684,1.206,7.163,3.34,9.979h-2.594
			c-6.348,0-11.512,5.165-11.512,11.512v34.543c0,1.381,1.119,2.5,2.5,2.5h49.591c1.381,0,2.5-1.119,2.5-2.5v-34.543
			C155.295,206.277,150.131,201.113,143.784,201.113z M150.295,244.668h-44.591v-32.043c0-3.591,2.921-6.512,6.512-6.512h9.368
			c1.154,0,2.158-0.79,2.43-1.911s-0.259-2.283-1.285-2.812c-3.86-1.988-6.258-5.918-6.258-10.256c0-3.231,1.302-6.226,3.667-8.432
			c2.362-2.204,5.45-3.295,8.692-3.068c5.758,0.399,10.454,5.237,10.69,11.013c0.184,4.477-2.269,8.694-6.248,10.744
			c-1.026,0.528-1.557,1.69-1.285,2.812c0.272,1.122,1.276,1.911,2.43,1.911h9.368c3.59,0,6.512,2.921,6.512,6.512V244.668z"/>
		<path fill="#846F75" d="M62.298,116.977h-2.621c2.275-3.011,3.512-6.772,3.352-10.672c-0.345-8.421-6.939-15.212-15.339-15.796
			c-4.645-0.322-9.062,1.24-12.449,4.4c-3.34,3.116-5.256,7.522-5.256,12.088c0,3.685,1.206,7.163,3.34,9.979H30.73
			c-6.348,0-11.512,5.164-11.512,11.512v34.544c0,1.381,1.119,2.5,2.5,2.5H71.31c1.381,0,2.5-1.119,2.5-2.5v-34.544
			C73.81,122.141,68.646,116.977,62.298,116.977z M68.81,160.532H24.218v-32.044c0-3.59,2.921-6.512,6.512-6.512h9.369
			c1.154,0,2.158-0.79,2.43-1.911c0.272-1.121-0.259-2.283-1.285-2.812c-3.861-1.988-6.259-5.918-6.259-10.257
			c0-3.232,1.302-6.227,3.667-8.432c2.362-2.204,5.454-3.292,8.691-3.068c5.758,0.4,10.454,5.237,10.69,11.013
			c0.184,4.477-2.269,8.694-6.249,10.744c-1.025,0.529-1.557,1.69-1.285,2.812c0.272,1.122,1.276,1.911,2.43,1.911h9.369
			c3.59,0,6.512,2.921,6.512,6.512V160.532z"/>
		<path fill="#846F75" d="M225.27,116.977h-2.621c2.275-3.01,3.511-6.772,3.352-10.672c-0.345-8.421-6.939-15.212-15.339-15.796
			c-4.642-0.322-9.063,1.241-12.449,4.4c-3.34,3.116-5.256,7.522-5.256,12.088c0,3.685,1.206,7.163,3.34,9.979h-2.595
			c-6.348,0-11.512,5.164-11.512,11.512v34.544c0,1.381,1.119,2.5,2.5,2.5h49.591c1.381,0,2.5-1.119,2.5-2.5v-34.544
			C236.782,122.141,231.618,116.977,225.27,116.977z M231.782,160.532H187.19v-32.044c0-3.59,2.921-6.512,6.512-6.512h9.369
			c1.154,0,2.158-0.79,2.43-1.911c0.272-1.121-0.259-2.283-1.285-2.812c-3.861-1.988-6.259-5.918-6.259-10.257
			c0-3.232,1.302-6.226,3.667-8.432c2.362-2.203,5.445-3.292,8.692-3.068c5.757,0.4,10.453,5.237,10.689,11.013
			c0.184,4.477-2.269,8.694-6.248,10.744c-1.025,0.529-1.557,1.69-1.285,2.812c0.272,1.122,1.276,1.911,2.43,1.911h9.368
			c3.59,0,6.512,2.921,6.512,6.512V160.532z"/>
	</g>
	<path fill="#A58BC9" d="M93.205,228.524H29.976c-1.381,0-2.5-1.119-2.5-2.5v-52.992c0-1.381,1.119-2.5,2.5-2.5s2.5,1.119,2.5,2.5
		v50.492h60.729c1.381,0,2.5,1.119,2.5,2.5S94.585,228.524,93.205,228.524z"/>
	<path fill="#A58BC9" d="M226.024,228.524h-63.229c-1.381,0-2.5-1.119-2.5-2.5s1.119-2.5,2.5-2.5h60.729v-50.492
		c0-1.381,1.119-2.5,2.5-2.5s2.5,1.119,2.5,2.5v52.992C228.524,227.405,227.405,228.524,226.024,228.524z"/>
	<path fill="#A58BC9" d="M226.024,91.829c-1.381,0-2.5-1.119-2.5-2.5V32.476h-65.729c-1.381,0-2.5-1.119-2.5-2.5s1.119-2.5,2.5-2.5
		h68.229c1.381,0,2.5,1.119,2.5,2.5v59.353C228.524,90.709,227.405,91.829,226.024,91.829z"/>
	<path fill="#A58BC9" d="M29.976,91.83c-1.381,0-2.5-1.119-2.5-2.5V29.976c0-1.381,1.119-2.5,2.5-2.5h68.229
		c1.381,0,2.5,1.119,2.5,2.5s-1.119,2.5-2.5,2.5H32.476V89.33C32.476,90.71,31.356,91.83,29.976,91.83z"/>
</g>
</svg>
