<?xml version="1.0" encoding="utf-8"?>
<!-- Generator: Adobe Illustrator 24.0.0, SVG Export Plug-In . SVG Version: 6.00 Build 0)  -->
<svg version="1.1" id="Layer_1" xmlns="http://www.w3.org/2000/svg" xmlns:xlink="http://www.w3.org/1999/xlink" x="0px" y="0px"
	 viewBox="0 0 256 256" enable-background="new 0 0 256 256" xml:space="preserve">
<g>
	<path fill="#65C1D6" d="M128.051,197.271c-14.379,0.05-20.617-17.924-9.556-26.929c3.06-2.124,2.98-6.492,1.188-9.459
		c-0.571-0.948-0.452-2.159,0.294-2.977c0.744-0.818,1.942-1.047,2.937-0.565c5.2,2.387,11.061,6.193,11.688,12.539
		c1.156-0.59,2.423-0.045,3.268,0.82C148.375,179.801,141.97,197.299,128.051,197.271z M121.478,174.356
		c-7.16,6.129-2.958,17.184,5.449,17.856c8.327,1.002,14.599-8.616,9.119-16.192c-1.348,1.52-5.772,5.384-7.977,2.475
		c-0.618-0.901-0.581-2.098,0.093-2.958c2.844-3.572,1.367-8.366-2.237-10.72C126.156,168.516,124.516,172.171,121.478,174.356z"/>
	<path fill="#65C1D6" d="M155.999,212.748l-21.354-8.611l21.354-8.611c1.281-0.516,1.9-1.973,1.384-3.253
		c-0.516-1.281-1.975-1.901-3.253-1.383l-26.168,10.552l-26.168-10.552c-1.276-0.517-2.736,0.103-3.253,1.383
		s0.103,2.737,1.384,3.253l21.354,8.611l-21.354,8.611c-1.281,0.516-1.9,1.973-1.384,3.253c0.393,0.974,1.329,1.565,2.319,1.565
		c0.312,0,0.628-0.058,0.934-0.182l26.168-10.552l26.168,10.552c0.306,0.124,0.622,0.182,0.934,0.182
		c0.989,0,1.927-0.591,2.319-1.565C157.9,214.72,157.28,213.264,155.999,212.748z"/>
	<path fill="#EBE7F2" d="M127.962,115.965c-1.381,0-2.5-1.119-2.5-2.5V47.091c0-1.381,1.119-2.5,2.5-2.5c1.381,0,2.5,1.119,2.5,2.5
		v66.374C130.462,114.846,129.343,115.965,127.962,115.965z"/>
	<g>
		<path fill="#846F75" d="M236.651,185.545L129.953,44.94c-0.473-0.623-1.209-0.989-1.991-0.989s-1.519,0.366-1.991,0.989
			L19.273,185.545c-0.835,1.1-0.62,2.668,0.479,3.503c1.101,0.834,2.669,0.619,3.503-0.48l22.087-29.106v27.594
			c0,1.381,1.119,2.5,2.5,2.5h38.444c0.693,0,1.355-0.288,1.828-0.795c20.047-21.495,33.415-43.295,39.848-64.948
			c6.433,21.652,19.801,43.453,39.848,64.948c0.473,0.507,1.135,0.795,1.828,0.795h38.443c1.381,0,2.5-1.119,2.5-2.5v-27.596
			l22.088,29.107c0.491,0.648,1.238,0.989,1.993,0.989c0.526,0,1.058-0.166,1.51-0.508
			C237.272,188.213,237.486,186.646,236.651,185.545z M205.581,153.079v31.478h-34.854c-22.015-23.813-35.576-47.892-40.314-71.582
			c-0.233-1.168-1.26-2.01-2.451-2.01s-2.218,0.841-2.451,2.01c-4.738,23.69-18.3,47.769-40.314,71.582H50.342v-31.478
			c0-0.062-0.014-0.121-0.018-0.182l77.638-102.31L205.6,152.896C205.595,152.958,205.581,153.016,205.581,153.079z"/>
		<path fill="#846F75" d="M95.228,135.696H80.345c-1.381,0-2.5,1.119-2.5,2.5v14.883c0,1.381,1.119,2.5,2.5,2.5h14.883
			c1.381,0,2.5-1.119,2.5-2.5v-14.883C97.728,136.815,96.609,135.696,95.228,135.696z M92.728,150.579h-9.883v-9.883h9.883V150.579z
			"/>
		<path fill="#846F75" d="M160.696,155.579h14.883c1.381,0,2.5-1.119,2.5-2.5v-14.883c0-1.381-1.119-2.5-2.5-2.5h-14.883
			c-1.381,0-2.5,1.119-2.5,2.5v14.883C158.196,154.46,159.316,155.579,160.696,155.579z M163.196,140.696h9.883v9.883h-9.883
			V140.696z"/>
		<path fill="#846F75" d="M175.105,81.188h22.211c6.555,0,11.888-5.333,11.888-11.888c0-5.415-3.568-10-8.592-11.428
			c-0.909-7.473-7.292-13.281-15.007-13.281c-7.865,0-14.347,6.038-15.054,13.721c-4.4,1.808-7.334,6.084-7.334,10.988
			C163.217,75.855,168.55,81.188,175.105,81.188z M173.554,62.587c1.166-0.268,1.979-1.324,1.939-2.52
			c-0.004-0.119-0.007-0.238-0.007-0.358c0-5.579,4.539-10.118,10.118-10.118s10.118,4.539,10.118,10.118l-0.003,0.187
			c-0.031,1.311,0.956,2.425,2.262,2.549c3.547,0.338,6.222,3.286,6.222,6.855c0,3.798-3.09,6.888-6.888,6.888h-22.211
			c-3.798,0-6.888-3.09-6.888-6.888C168.217,66.07,170.411,63.31,173.554,62.587z"/>
		<path fill="#846F75" d="M190.812,96.188c-2.971,1.425-4.92,4.432-4.92,7.855c0,4.808,3.912,8.72,8.72,8.72h14.717
			c4.808,0,8.72-3.912,8.72-8.72c0-3.781-2.372-7.01-5.778-8.216c-0.886-5.104-5.348-9-10.701-9
			C196.089,86.827,191.545,90.906,190.812,96.188z M207.429,97.688l-0.002,0.119c-0.022,1.305,0.963,2.409,2.263,2.533
			c1.914,0.183,3.358,1.774,3.358,3.703c0,2.051-1.669,3.72-3.72,3.72h-14.717c-2.051,0-3.72-1.669-3.72-3.72
			c0-1.745,1.185-3.236,2.882-3.626c1.172-0.269,1.986-1.335,1.938-2.537l-0.004-0.192c0-3.231,2.629-5.861,5.86-5.861
			S207.429,94.457,207.429,97.688z"/>
		<path fill="#846F75" d="M43.604,89.279c1.857-1.856,4.414-2.74,7.023-2.417c2.605,0.321,4.875,1.796,6.227,4.048l2.707,4.511
			c0.452,0.753,1.266,1.214,2.144,1.214s1.692-0.461,2.144-1.214l2.706-4.511c1.352-2.252,3.621-3.728,6.227-4.048
			c2.604-0.323,5.166,0.56,7.023,2.417c0.977,0.977,2.559,0.977,3.535,0c0.977-0.976,0.977-2.559,0-3.535
			c-2.952-2.953-7.019-4.356-11.169-3.844c-4.146,0.51-7.755,2.857-9.903,6.438l-0.563,0.938l-0.563-0.938
			c-2.148-3.582-5.758-5.928-9.903-6.438c-4.145-0.514-8.216,0.89-11.169,3.844c-0.977,0.976-0.977,2.559,0,3.535
			C41.045,90.256,42.627,90.256,43.604,89.279z"/>
		<path fill="#846F75" d="M63.876,61.751c1.858-1.857,4.419-2.734,7.023-2.417c2.606,0.321,4.876,1.796,6.227,4.048l2.707,4.511
			c0.452,0.753,1.266,1.214,2.144,1.214s1.692-0.461,2.144-1.214l2.706-4.511c1.351-2.252,3.62-3.727,6.227-4.048
			c2.603-0.317,5.165,0.56,7.023,2.417c0.977,0.977,2.559,0.977,3.535,0c0.977-0.976,0.977-2.559,0-3.535
			c-2.953-2.954-7.026-4.353-11.17-3.844c-4.145,0.511-7.754,2.857-9.902,6.438l-0.563,0.938l-0.563-0.938
			c-2.148-3.581-5.758-5.928-9.902-6.438c-4.142-0.511-8.217,0.89-11.17,3.844c-0.977,0.976-0.977,2.559,0,3.535
			C61.318,62.728,62.9,62.728,63.876,61.751z"/>
	</g>
	<path fill="#65C1D6" d="M226.017,163.167c-1.381,0-2.5-1.119-2.5-2.5V32.476H32.468v128.111c0,1.381-1.119,2.5-2.5,2.5
		s-2.5-1.119-2.5-2.5V29.976c0-1.381,1.119-2.5,2.5-2.5h196.049c1.381,0,2.5,1.119,2.5,2.5v130.691
		C228.517,162.048,227.398,163.167,226.017,163.167z"/>
	<path fill="#65C1D6" d="M226.017,228.524H29.968c-1.381,0-2.5-1.119-2.5-2.5v-35.438c0-1.381,1.119-2.5,2.5-2.5s2.5,1.119,2.5,2.5
		v32.938h191.049v-32.857c0-1.381,1.119-2.5,2.5-2.5s2.5,1.119,2.5,2.5v35.357C228.517,227.405,227.398,228.524,226.017,228.524z"/>
</g>
</svg>
