<?xml version="1.0" encoding="utf-8"?>
<!-- Generator: Adobe Illustrator 24.0.0, SVG Export Plug-In . SVG Version: 6.00 Build 0)  -->
<svg version="1.1" id="Layer_1" xmlns="http://www.w3.org/2000/svg" xmlns:xlink="http://www.w3.org/1999/xlink" x="0px" y="0px"
	 viewBox="0 0 256 256" enable-background="new 0 0 256 256" xml:space="preserve">
<g>
	<path fill="#EBE7F2" d="M116.068,81.307c-0.457,0-0.919-0.125-1.334-0.388c-1.167-0.738-1.515-2.282-0.776-3.449
		c4.078-6.447,3.797-10.892,3.472-16.038c-0.333-5.254-0.708-11.21,4.235-19.026c4.945-7.817,10.487-10.03,15.377-11.981
		c4.79-1.912,8.927-3.563,13.005-10.011c0.738-1.167,2.281-1.514,3.449-0.776c1.167,0.738,1.515,2.282,0.776,3.449
		c-4.945,7.817-10.487,10.03-15.377,11.981c-4.79,1.912-8.927,3.563-13.005,10.011c-4.077,6.446-3.796,10.891-3.471,16.038
		c0.332,5.254,0.708,11.209-4.236,19.026C117.708,80.895,116.897,81.307,116.068,81.307z"/>
	<path fill="#EBE7F2" d="M32.099,236.181c-0.514,0-1.032-0.158-1.478-0.485c-1.113-0.817-1.352-2.382-0.535-3.495l4.117-5.606
		c4.932-7.755,10.453-9.958,15.327-11.902c4.789-1.91,8.925-3.561,13.002-10.005c4.077-6.445,3.795-10.89,3.47-16.036
		c-0.333-5.254-0.709-11.209,4.234-19.024c4.944-7.816,10.486-10.028,15.376-11.979c4.79-1.911,8.926-3.562,13.003-10.008
		c0.41-0.647,0.788-1.298,1.125-1.934c0.646-1.221,2.16-1.685,3.38-1.038s1.685,2.16,1.038,3.38c-0.396,0.748-0.84,1.51-1.317,2.265
		c-4.944,7.816-10.486,10.028-15.376,11.979c-4.79,1.911-8.926,3.562-13.003,10.008c-4.077,6.445-3.795,10.89-3.47,16.036
		c0.333,5.254,0.709,11.209-4.234,19.024c-4.943,7.815-10.485,10.026-15.375,11.977c-4.789,1.91-8.925,3.561-13.002,10.005
		c-0.031,0.049-0.063,0.097-0.098,0.144l-4.167,5.675C33.626,235.828,32.867,236.181,32.099,236.181z"/>
	<path fill="#EBE7F2" d="M132.022,100.182c-0.692,0-1.38-0.285-1.874-0.844c-0.915-1.035-0.817-2.615,0.217-3.529
		c1.579-1.396,2.997-3.102,4.335-5.219c4.078-6.446,3.797-10.891,3.471-16.038c-0.332-5.254-0.708-11.209,4.236-19.026
		c4.945-7.817,10.487-10.03,15.377-11.981c4.79-1.912,8.927-3.563,13.005-10.011c3.225-5.099,3.655-8.903,3.638-12.255
		c-0.007-1.381,1.107-2.505,2.488-2.512c0.004,0,0.008,0,0.013,0c1.375,0,2.493,1.111,2.5,2.488
		c0.019,3.914-0.49,8.751-4.413,14.952c-4.945,7.817-10.487,10.03-15.377,11.981c-4.79,1.912-8.927,3.563-13.005,10.011
		c-4.078,6.446-3.797,10.892-3.471,16.038c0.332,5.254,0.708,11.209-4.236,19.026c-1.594,2.521-3.312,4.58-5.249,6.292
		C133.202,99.975,132.611,100.182,132.022,100.182z"/>
	<path fill="#EBE7F2" d="M63.983,236.181c-0.801,0-1.587-0.384-2.071-1.096c-0.775-1.142-0.479-2.697,0.664-3.473
		c2.604-1.768,5.192-2.801,7.696-3.799c4.789-1.911,8.925-3.561,13.002-10.006s3.795-10.89,3.47-16.036
		c-0.333-5.253-0.709-11.208,4.234-19.024c2.059-3.254,4.364-5.784,7.046-7.733c1.117-0.81,2.681-0.563,3.492,0.553
		c0.812,1.117,0.564,2.681-0.553,3.492c-2.162,1.571-4.046,3.652-5.76,6.361c-4.077,6.445-3.795,10.89-3.47,16.036
		c0.333,5.253,0.709,11.208-4.234,19.024s-10.485,10.026-15.375,11.977c-2.358,0.941-4.586,1.83-6.74,3.292
		C64.956,236.041,64.467,236.181,63.983,236.181z"/>
	<path fill="#EBE7F2" d="M168.211,68.555c-0.597,0-1.196-0.212-1.674-0.644c-1.025-0.925-1.106-2.506-0.181-3.531
		c4.031-4.466,8.169-6.118,12.171-7.716c4.79-1.912,8.927-3.563,13.005-10.011c4.078-6.447,3.797-10.893,3.473-16.041
		c-0.191-3.022-0.388-6.147,0.34-9.719c0.276-1.353,1.596-2.224,2.95-1.95c1.353,0.276,2.226,1.597,1.95,2.95
		c-0.596,2.92-0.428,5.584-0.25,8.404c0.332,5.255,0.708,11.211-4.237,19.028c-4.945,7.818-10.487,10.03-15.377,11.982
		c-3.631,1.449-7.061,2.818-10.313,6.421C169.575,68.276,168.895,68.555,168.211,68.555z"/>
	<path fill="#F9B087" d="M51.06,236.321c-0.7,0-1.396-0.292-1.891-0.863c-0.904-1.043-0.791-2.623,0.253-3.526
		c26.406-22.871,22.176-42.156,18.444-59.171c-2.406-10.971-4.679-21.333,2.34-30.311c0.292-0.374,0.684-0.656,1.131-0.815
		l16.453-5.854c1.3-0.464,2.73,0.216,3.193,1.517c0.463,1.301-0.216,2.731-1.517,3.194l-15.745,5.603
		c-5.05,7.002-3.243,15.24-0.972,25.596c3.832,17.467,8.6,39.205-20.054,64.021C52.223,236.121,51.64,236.321,51.06,236.321z"/>
	<path fill="#F9B087" d="M139.642,122.482c-1.028,0-1.991-0.639-2.355-1.662c-0.463-1.301,0.216-2.731,1.517-3.194l14.763-5.254
		c1.3-0.463,2.73,0.217,3.194,1.517c0.463,1.301-0.216,2.731-1.517,3.194l-14.763,5.254
		C140.203,122.436,139.92,122.482,139.642,122.482z"/>
	<path fill="#F9B087" d="M160.085,105.892c-0.167,0-0.335-0.017-0.505-0.051c-1.353-0.278-2.224-1.599-1.947-2.952l16.846-82.125
		c0.277-1.353,1.599-2.226,2.952-1.947c1.353,0.278,2.224,1.599,1.947,2.952l-16.846,82.125
		C162.289,105.077,161.248,105.892,160.085,105.892z"/>
	<g>
		<path fill="#846F75" d="M227.942,62.905c-0.885-1.059-2.461-1.2-3.521-0.313l-56.91,47.596c0.329-4.174-2.55-8.176-6.833-9.225
			c-0.625-0.11-15.925-4.013-15.909-3.778l-21.047-1.96c-1.42-0.133-2.83,0.016-4.19,0.44c-1.973,0.859-30.047,9.518-31.817,10.577
			c0,0-17.916,13.584-17.916,13.584c-1.169,0.886-2.129,1.983-2.854,3.261l-8.923,15.737c-2.362,4.165-1.055,9.514,2.913,11.925
			c4.023,2.563,9.799,1.061,12.062-3.136l8.206-14.472c0.11-0.193,0.254-0.359,0.43-0.492l9.48-7.202
			c0.971-0.681,2.128-0.296,2.528,0.808c0,0,8.317,26.708,8.317,26.708c0.078,0.25,0.094,0.517,0.047,0.774l-9.834,53.627
			c-1.775,11.466,14.495,14.796,17.031,3.386c0,0,9.651-52.623,9.651-52.623c0.109-0.594,0.535-1.074,1.112-1.254l6.165-1.919
			c0.532-0.166,1.125-0.042,1.545,0.325l8.675,7.552c0.461,0.402,0.656,1.021,0.508,1.615l-2.384,9.569
			c-0.974,3.909,0.779,7.929,4.021,9.854l-13.262,5.644c-0.648,0.275-1.149,0.812-1.381,1.476L111.906,225.2
			c-1.008,3.118,3.539,4.75,4.721,1.648c0,0,11.58-33.168,11.58-33.168l35.244-14.999c0.866-0.369,1.452-1.192,1.515-2.131
			l4.143-61.18l58.521-48.944C228.688,65.541,228.828,63.964,227.942,62.905z M150.071,162.537l-3.667,14.717
			c-1.401,4.771-8.231,2.919-7.081-2.031c0,0,2.384-9.569,2.384-9.569c0.604-2.426-0.191-4.953-2.077-6.595l-8.675-7.552
			c-1.72-1.497-4.139-2.005-6.315-1.327l-6.165,1.919c-2.357,0.734-4.098,2.699-4.543,5.126l-9.651,52.623
			c-0.321,1.993-2.43,3.404-4.398,2.934c-1.923-0.413-3.178-2.439-2.797-4.517l9.834-53.625c0.193-1.049,0.127-2.144-0.191-3.164
			l-8.317-26.708c-1.206-4.282-6.848-6.097-10.327-3.303l-9.48,7.202c-0.718,0.545-1.308,1.22-1.754,2.006l-8.207,14.474
			c-2.62,4.213-8.708,0.631-6.276-3.857c0,0,8.923-15.736,8.923-15.736c0.643-1.483,18.999-14.83,19.442-15.327
			c0.531-0.403,1.124-0.708,1.762-0.907l28.522-8.882c1.711-0.617,23.43,1.834,24.12,1.865c0,0,14.35,3.516,14.35,3.516
			c4.892,1.282,3.399,8.195-1.501,7.212c0,0-14.009-3.433-14.009-3.433c-0.317-0.078-0.642-0.132-0.963-0.162l-10.798-1.006
			c-4.542-0.555-8.428,4.227-6.934,8.561c0,0,7.907,25.392,7.907,25.392c0.365,1.172,1.048,2.219,1.975,3.025l13.106,11.41
			C149.905,158.242,150.595,160.434,150.071,162.537z M160.081,174.682l-8.817,3.752l3.659-14.688
			c0.98-3.936-0.311-8.035-3.37-10.699l-13.106-11.41c-0.227-0.198-0.394-0.454-0.483-0.74l-7.907-25.393
			c-0.314-1.188,0.502-2.156,1.698-2.095c0,0,10.801,1.006,10.801,1.006c0.078,0.007,0.155,0.021,0.232,0.04l14.01,3.433
			c2.509,0.619,5.149,0.085,7.227-1.451L160.081,174.682z"/>
		<path fill="#846F75" d="M89.3,93.453c11.127,9.938,29.114,1.074,28.058-13.8c-0.938-14.959-19.722-21.36-29.598-10.083
			C81.615,76.279,82.343,87.589,89.3,93.453z M91.516,72.872c6.905-7.946,20.231-3.414,20.853,7.104
			c0.422,6.56-4.571,12.242-11.131,12.665C90.73,93.37,84.52,80.747,91.516,72.872z"/>
	</g>
	<path fill="#F9B087" d="M88.627,140.636c-1.028,0-1.991-0.639-2.355-1.662c-0.463-1.301,0.216-2.731,1.517-3.194l51.014-18.154
		c1.301-0.463,2.73,0.216,3.194,1.517c0.463,1.301-0.216,2.731-1.517,3.194l-51.014,18.154
		C89.188,140.59,88.906,140.636,88.627,140.636z"/>
	<path fill="#F9B087" d="M29.976,222.063c-1.381,0-2.5-1.119-2.5-2.5V29.976c0-1.381,1.119-2.5,2.5-2.5h92.127
		c1.381,0,2.5,1.119,2.5,2.5s-1.119,2.5-2.5,2.5H32.476v187.087C32.476,220.944,31.356,222.063,29.976,222.063z"/>
	<path fill="#F9B087" d="M226.024,228.524H92.829c-1.381,0-2.5-1.119-2.5-2.5s1.119-2.5,2.5-2.5h130.696V32.476h-14.729
		c-1.381,0-2.5-1.119-2.5-2.5s1.119-2.5,2.5-2.5h17.229c1.381,0,2.5,1.119,2.5,2.5v196.049
		C228.524,227.405,227.405,228.524,226.024,228.524z"/>
</g>
</svg>
