<?xml version="1.0" encoding="utf-8"?>
<!-- Generator: Adobe Illustrator 24.0.0, SVG Export Plug-In . SVG Version: 6.00 Build 0)  -->
<svg version="1.1" id="Layer_1" xmlns="http://www.w3.org/2000/svg" xmlns:xlink="http://www.w3.org/1999/xlink" x="0px" y="0px"
	 viewBox="0 0 256 256" enable-background="new 0 0 256 256" xml:space="preserve">
<g>
	<path fill="#EBE7F2" d="M105.955,228.525c-0.966,0-1.886-0.563-2.295-1.506c-0.549-1.267,0.033-2.739,1.299-3.289l38.849-16.842
		c0.348-0.151,0.73-0.215,1.105-0.204l80.911,3.604c1.379,0.062,2.447,1.229,2.386,2.609c-0.062,1.378-1.202,2.436-2.608,2.386
		l-80.335-3.578l-38.318,16.613C106.624,228.458,106.287,228.525,105.955,228.525z"/>
	<path fill="#EBE7F2" d="M214.258,43.047c-0.253,0-0.511-0.039-0.765-0.12l-32.962-10.571c-1.314-0.421-2.038-1.829-1.617-3.144
		c0.423-1.314,1.83-2.038,3.145-1.617l32.962,10.571c1.314,0.421,2.038,1.829,1.617,3.144
		C216.297,42.371,215.314,43.047,214.258,43.047z"/>
	<path fill="#EBE7F2" d="M78.878,48.749c-0.137,0-0.274-0.011-0.41-0.034l-48.902-8.137c-1.362-0.227-2.283-1.515-2.056-2.876
		c0.226-1.362,1.516-2.283,2.876-2.056l48.313,8.039l51.227-16.094c1.314-0.415,2.721,0.318,3.134,1.636
		c0.414,1.317-0.318,2.721-1.636,3.135L79.627,48.634C79.384,48.71,79.131,48.749,78.878,48.749z"/>
	<path fill="#A58BC9" d="M225.711,120.617c-0.536,0-1.075-0.171-1.531-0.526l-53.69-41.705c-1.091-0.847-1.288-2.417-0.441-3.508
		s2.416-1.29,3.508-0.44l53.69,41.705c1.091,0.847,1.288,2.417,0.441,3.508C227.194,120.285,226.457,120.617,225.711,120.617z"/>
	<path fill="#A58BC9" d="M172.024,69.578c-0.746,0-1.483-0.332-1.977-0.966c-0.847-1.09-0.649-2.661,0.441-3.508l23.903-18.567
		c1.088-0.849,2.66-0.65,3.508,0.44c0.847,1.09,0.649,2.661-0.441,3.508l-23.903,18.567
		C173.101,69.407,172.561,69.578,172.024,69.578z"/>
	<path fill="#A58BC9" d="M172.022,78.913h-6.172c-1.381,0-2.5-1.119-2.5-2.5s1.119-2.5,2.5-2.5h3.672v-4.334h-18.557
		c-1.381,0-2.5-1.119-2.5-2.5s1.119-2.5,2.5-2.5h21.057c1.381,0,2.5,1.119,2.5,2.5v9.334
		C174.522,77.793,173.403,78.913,172.022,78.913z"/>
	<g>
		<path fill="#846F75" d="M163.351,81.963c0,6.829-5.556,12.384-12.385,12.384s-12.385-5.556-12.385-12.384
			c0-1.381-1.119-2.5-2.5-2.5s-2.5,1.119-2.5,2.5c0,9.586,7.799,17.384,17.385,17.384s17.385-7.798,17.385-17.384
			c0-1.381-1.119-2.5-2.5-2.5S163.351,80.582,163.351,81.963z"/>
		<path fill="#846F75" d="M236.024,187.048h-86.011c0.176-0.271,0.338-0.553,0.485-0.846l13.958-27.716
			c1.851-3.677,0.938-8.117-2.219-10.799c-1.576-1.337-3.664-2.074-5.88-2.074h-19.612l9.278-16.07l6.754,9.402
			c2.329,3.322,6.946,4.63,10.667,2.999c0,0,19.468-8.224,19.468-8.224c10.655-5.006,4.114-20.512-6.912-16.359
			c0,0-12.962,5.476-12.962,5.476l-8.355-11.298c-0.204-0.276-0.463-0.507-0.76-0.679L124.46,93.851
			c-0.462-0.267-1-0.377-1.529-0.319l-24.342,2.734c-1.335,0.149-2.641,0.607-3.775,1.326l-20.628,13.08
			c-9.693,6.645-0.681,20.927,9.51,14.998c0,0,18.895-11.98,18.895-11.98l8.045-0.893l-17.233,29.849
			c-0.136,0.235-0.232,0.491-0.286,0.756l-5.382,26.733l-26.307,22.799c-2.669,2.253-3.732,6.118-2.645,9.42l-38.164-10.146
			c-1.332-0.354-2.703,0.44-3.058,1.774s0.439,2.704,1.774,3.058l60.55,16.097c0.505,0.135,1.043,0.107,1.532-0.08l55.125-21.008
			h99.483C239.179,192.007,239.453,187.173,236.024,187.048z M63.372,199.367c0.074-1.034,0.546-1.977,1.329-2.655l26.952-23.358
			c0.418-0.362,0.705-0.853,0.813-1.396l5.47-27.168l19.5-33.774c0.471-0.816,0.443-1.829-0.072-2.618
			c-0.516-0.79-1.434-1.223-2.369-1.117l-13.532,1.502c-0.378,0.042-0.742,0.17-1.063,0.374l-19.383,12.29
			c-2.782,1.891-6.698-0.874-5.863-4.124c0.226-1.011,0.833-1.873,1.708-2.429l20.628-13.08c0.496-0.314,1.066-0.515,1.654-0.58
			l23.527-2.643l28.301,16.339l9.217,12.462c0.686,0.928,1.919,1.266,2.982,0.816l14.774-6.242c4.743-1.865,7.694,5.02,3.02,7.148
			c0,0-19.467,8.223-19.467,8.223c-1.641,0.692-3.631,0.123-4.661-1.311l-9.013-12.548c-0.986-1.454-3.36-1.344-4.195,0.209
			c0,0-13.38,23.174-13.38,23.174c-0.98,1.586,0.298,3.808,2.165,3.75c0,0,23.942,0,23.942,0c2.96-0.139,4.963,3.082,3.633,5.624
			c0,0-13.958,27.716-13.958,27.716c-2.392,4.472-9.135,1.173-6.927-3.489c0,0,9.299-18.468,9.299-18.468
			c0.86-1.591-0.432-3.68-2.237-3.624c0,0-20.469,0.032-20.469,0.032l-17.204-9.933c-1.414-0.866-3.415,0.035-3.7,1.669
			c0,0-5.154,25.488-5.154,25.488c-0.169,0.836-0.618,1.605-1.262,2.164l-28.596,24.782
			C67.298,204.84,63.041,202.737,63.372,199.367z M80.389,208.097l-7.151-1.901l28.416-24.626c1.475-1.278,2.5-3.036,2.887-4.95
			l4.465-22.08l14.775,8.53c0.381,0.22,0.808,0.325,1.254,0.335l17.076-0.027l-7.47,14.837c-1.46,2.831-1.212,6.368,0.583,8.985
			C135.216,187.201,80.405,208.092,80.389,208.097z"/>
		<path fill="#846F75" d="M19.594,57.175l63.685,9.835c0.126,0.02,0.254,0.029,0.381,0.029c0.245,0,0.49-0.036,0.726-0.107
			L148.8,47.397l87.033,6.688c1.373,0.099,2.578-0.925,2.684-2.301c0.106-1.376-0.924-2.578-2.301-2.684l-87.501-6.724
			c-0.309-0.024-0.621,0.011-0.917,0.1L83.48,61.982l-63.123-9.749c-1.357-0.21-2.641,0.725-2.852,2.089
			S18.229,56.964,19.594,57.175z"/>
	</g>
	<path fill="#A58BC9" d="M29.976,48.749c-1.381,0-2.5-1.119-2.5-2.5V29.976c0-1.381,1.119-2.5,2.5-2.5h196.049
		c1.381,0,2.5,1.119,2.5,2.5v10.9c0,1.381-1.119,2.5-2.5,2.5s-2.5-1.119-2.5-2.5v-8.4H32.476v13.773
		C32.476,47.629,31.356,48.749,29.976,48.749z"/>
	<path fill="#A58BC9" d="M29.976,189.781c-1.381,0-2.5-1.119-2.5-2.5V66.313c0-1.381,1.119-2.5,2.5-2.5s2.5,1.119,2.5,2.5v120.968
		C32.476,188.662,31.356,189.781,29.976,189.781z"/>
	<path fill="#A58BC9" d="M226.024,228.524H29.976c-1.381,0-2.5-1.119-2.5-2.5v-18.892c0-1.381,1.119-2.5,2.5-2.5s2.5,1.119,2.5,2.5
		v16.392h191.049v-23.976c0-1.381,1.119-2.5,2.5-2.5s2.5,1.119,2.5,2.5v26.476C228.524,227.405,227.405,228.524,226.024,228.524z"/>
	<path fill="#A58BC9" d="M226.024,182.048c-1.381,0-2.5-1.119-2.5-2.5V61.023c0-1.381,1.119-2.5,2.5-2.5s2.5,1.119,2.5,2.5v118.525
		C228.524,180.929,227.405,182.048,226.024,182.048z"/>
	<path fill="#A58BC9" d="M165.851,84.463h-29.77c-1.381,0-2.5-1.119-2.5-2.5c0-9.586,7.799-17.385,17.385-17.385
		s17.385,7.799,17.385,17.385C168.351,83.344,167.231,84.463,165.851,84.463z M138.835,79.463h24.262
		c-1.159-5.635-6.158-9.885-12.131-9.885S139.994,73.828,138.835,79.463z"/>
</g>
</svg>
