<?xml version="1.0" encoding="utf-8"?>
<!-- Generator: Adobe Illustrator 24.0.0, SVG Export Plug-In . SVG Version: 6.00 Build 0)  -->
<svg version="1.1" id="Layer_1" xmlns="http://www.w3.org/2000/svg" xmlns:xlink="http://www.w3.org/1999/xlink" x="0px" y="0px"
	 viewBox="0 0 256 256" enable-background="new 0 0 256 256" xml:space="preserve">
<g>
	<path fill="#65C1D6" d="M162.408,207.998H130.5v-9.277c0-1.381-1.119-2.5-2.5-2.5s-2.5,1.119-2.5,2.5v9.277H93.592
		c-1.381,0-2.5,1.119-2.5,2.5s1.119,2.5,2.5,2.5h68.816c1.381,0,2.5-1.119,2.5-2.5S163.789,207.998,162.408,207.998z"/>
	<path fill="#65C1D6" d="M72.605,181.656c-0.792-1.132-2.352-1.405-3.482-0.614l-6.605,4.626l-6.606-4.626
		c-1.13-0.792-2.689-0.518-3.482,0.614c-0.792,1.131-0.517,2.69,0.614,3.482l6.738,4.719l-5.796,33.178
		c-0.142,0.814,0.127,1.646,0.719,2.222l6.07,5.908c0.485,0.472,1.114,0.708,1.744,0.708s1.259-0.236,1.744-0.708l6.069-5.908
		c0.592-0.576,0.861-1.408,0.719-2.222l-5.796-33.178l6.737-4.719C73.123,184.346,73.397,182.787,72.605,181.656z M62.518,225.885
		l-3.38-3.29l3.38-19.346l3.379,19.346L62.518,225.885z"/>
	<path fill="#65C1D6" d="M213.52,210.257h-9.117c-1.381,0-2.5-1.119-2.5-2.5s1.119-2.5,2.5-2.5h9.117c1.381,0,2.5,1.119,2.5,2.5
		S214.9,210.257,213.52,210.257z"/>
	<path fill="#65C1D6" d="M202.696,180.883c-1.218-0.648-2.732-0.187-3.381,1.033l-5.833,10.963l-5.833-10.963
		c-0.648-1.219-2.163-1.681-3.381-1.033c-1.22,0.648-1.682,2.162-1.033,3.381l7.747,14.561v37.972c0,1.381,1.119,2.5,2.5,2.5
		s2.5-1.119,2.5-2.5v-37.972l7.747-14.561C204.378,183.045,203.916,181.532,202.696,180.883z"/>
	<path fill="#EBE7F2" d="M145.91,156.093h-35.821c-1.381,0-2.5-1.119-2.5-2.5s1.119-2.5,2.5-2.5h35.821c1.381,0,2.5,1.119,2.5,2.5
		S147.291,156.093,145.91,156.093z"/>
	<path fill="#EBE7F2" d="M145.91,165.929h-35.821c-1.381,0-2.5-1.119-2.5-2.5s1.119-2.5,2.5-2.5h35.821c1.381,0,2.5,1.119,2.5,2.5
		S147.291,165.929,145.91,165.929z"/>
	<g>
		<path fill="#846F75" d="M82.298,180.59h-4.609c3.284-3.807,5.104-8.794,4.893-13.98c-0.419-10.231-8.43-18.481-18.635-19.19
			c-5.636-0.39-11.01,1.507-15.125,5.345c-4.058,3.786-6.385,9.139-6.385,14.686c0,4.93,1.777,9.557,4.88,13.139h-4.579
			c-7.606,0-13.794,6.188-13.794,13.793v43.291c0,1.381,1.119,2.5,2.5,2.5h62.148c1.381,0,2.5-1.119,2.5-2.5v-43.291
			C96.092,186.778,89.904,180.59,82.298,180.59z M91.092,235.174H33.944v-40.791c0-4.849,3.945-8.793,8.794-8.793h11.74
			c1.154,0,2.158-0.79,2.43-1.911c0.272-1.121-0.259-2.283-1.285-2.812c-5.05-2.601-8.187-7.742-8.187-13.417
			c0-4.228,1.703-8.145,4.796-11.03c3.09-2.883,7.13-4.311,11.368-4.013c7.533,0.523,13.676,6.851,13.985,14.406
			c0.24,5.856-2.968,11.372-8.173,14.053c-1.025,0.529-1.557,1.69-1.285,2.812c0.272,1.122,1.276,1.911,2.43,1.911h11.741
			c4.849,0,8.793,3.945,8.793,8.793V235.174z"/>
		<path fill="#846F75" d="M213.263,180.59h-4.608c3.283-3.807,5.104-8.794,4.892-13.98c-0.419-10.231-8.43-18.481-18.634-19.19
			c-5.646-0.39-11.011,1.506-15.125,5.345c-4.059,3.786-6.386,9.139-6.386,14.686c0,4.93,1.777,9.557,4.88,13.139h-4.579
			c-7.606,0-13.794,6.188-13.794,13.793v43.291c0,1.381,1.119,2.5,2.5,2.5h62.147c1.381,0,2.5-1.119,2.5-2.5v-43.291
			C227.056,186.778,220.868,180.59,213.263,180.59z M222.056,235.174h-57.147v-40.791c0-4.849,3.945-8.793,8.794-8.793h11.74
			c1.154,0,2.158-0.79,2.43-1.911c0.271-1.121-0.259-2.283-1.285-2.812c-5.049-2.601-8.186-7.742-8.186-13.417
			c0-4.228,1.703-8.145,4.796-11.03c3.09-2.882,7.124-4.31,11.368-4.013c7.532,0.523,13.675,6.851,13.984,14.407
			c0.24,5.855-2.968,11.372-8.172,14.053c-1.026,0.529-1.557,1.69-1.285,2.812c0.271,1.122,1.275,1.911,2.43,1.911h11.74
			c4.849,0,8.793,3.945,8.793,8.793V235.174z"/>
		<path fill="#846F75" d="M163.715,112.474c22.477-20.057,22.599-57.219,0.28-77.44c-32.793-30.712-86.832-8.338-88.729,36.445
			c-0.627,15.751,5.724,30.828,17.426,41.364c6.308,5.68,9.926,14.066,9.926,23.01c-0.212,3.679,1.823,7.094,4.972,8.629v23.847
			c0.004,6.204,5.428,10.544,11.465,9.948v5.604c0,4.048,3.293,7.341,7.341,7.341h3.209c4.048,0,7.342-3.293,7.342-7.341v-5.604
			c6.038,0.595,11.459-3.744,11.464-9.948c0,0,0-23.847,0-23.847c3.339-1.599,5.295-5.299,4.973-9.122
			C153.383,126.852,157.148,118.51,163.715,112.474z M131.946,183.88c0,1.291-1.051,2.341-2.342,2.341h-3.209
			c-1.291,0-2.341-1.05-2.341-2.341v-5.604h7.892V183.88z M138.463,173.277h-20.926c-2.728,0-4.948-2.22-4.948-4.948v-22.904h30.821
			v22.904C143.41,171.057,141.19,173.277,138.463,173.277z M160.331,108.793c-7.594,6.979-11.948,16.663-11.948,26.567v1.119
			c0,2.176-1.771,3.946-3.946,3.946h-32.873c-2.176,0-3.946-1.77-3.946-3.946c0.169-10.538-4.065-20.603-11.58-27.352
			c-10.594-9.538-16.344-23.188-15.776-37.449c1.65-40.261,50.889-60.869,80.322-32.987
			C180.786,57.002,180.684,90.631,160.331,108.793z"/>
	</g>
	<path fill="#65C1D6" d="M123.97,90.752c-2.016,0-3.91-0.785-5.335-2.21l-11.719-11.719c-1.425-1.425-2.21-3.32-2.21-5.335
		c0-2.015,0.785-3.91,2.21-5.335c1.424-1.424,3.318-2.209,5.335-2.209c2.016,0,3.911,0.785,5.335,2.21l6.384,6.383l14.445-14.445
		c1.424-1.425,3.318-2.21,5.335-2.21c2.016,0,3.91,0.785,5.335,2.21c2.942,2.942,2.942,7.729,0,10.671l-19.78,19.78
		C127.88,89.967,125.985,90.752,123.97,90.752z M112.25,68.943c-0.68,0-1.319,0.264-1.799,0.745c-0.482,0.481-0.747,1.121-0.747,1.8
		c0,0.68,0.265,1.319,0.746,1.8l11.719,11.72c0.962,0.961,2.638,0.96,3.599,0l19.781-19.781c0.48-0.481,0.746-1.121,0.746-1.8
		s-0.266-1.319-0.746-1.8c-0.962-0.961-2.64-0.96-3.599,0l-16.214,16.213c-0.976,0.977-2.559,0.976-3.535,0l-8.152-8.151
		C113.569,69.207,112.93,68.943,112.25,68.943z"/>
	<path fill="#65C1D6" d="M128,110.447c-20.474,0-37.13-16.656-37.13-37.129c0-20.474,16.656-37.13,37.13-37.13
		s37.13,16.656,37.13,37.13C165.13,93.791,148.474,110.447,128,110.447z M128,41.188c-17.716,0-32.13,14.414-32.13,32.13
		s14.414,32.129,32.13,32.129c17.717,0,32.13-14.413,32.13-32.129S145.717,41.188,128,41.188z"/>
</g>
</svg>
