<?xml version="1.0" encoding="utf-8"?>
<!-- Generator: Adobe Illustrator 24.0.0, SVG Export Plug-In . SVG Version: 6.00 Build 0)  -->
<svg version="1.1" id="Layer_1" xmlns="http://www.w3.org/2000/svg" xmlns:xlink="http://www.w3.org/1999/xlink" x="0px" y="0px"
	 viewBox="0 0 256 256" enable-background="new 0 0 256 256" xml:space="preserve">
<g>
	<path fill="#EBE7F2" d="M150.429,228.883h-16.858c-1.381,0-2.5-1.119-2.5-2.5v-38.176c0-1.381,1.119-2.5,2.5-2.5h16.858
		c1.381,0,2.5,1.119,2.5,2.5v38.176C152.929,227.764,151.81,228.883,150.429,228.883z M136.071,223.883h11.858v-33.176h-11.858
		V223.883z"/>
	<path fill="#EBE7F2" d="M67.791,152.932H29.615c-1.381,0-2.5-1.119-2.5-2.5v-16.858c0-1.381,1.119-2.5,2.5-2.5h38.176
		c1.381,0,2.5,1.119,2.5,2.5v16.858C70.291,151.813,69.172,152.932,67.791,152.932z M32.115,147.932h33.176v-11.858H32.115V147.932z
		"/>
	<path fill="#EBE7F2" d="M122.424,70.293h-16.858c-1.381,0-2.5-1.119-2.5-2.5V29.617c0-1.381,1.119-2.5,2.5-2.5h16.858
		c1.381,0,2.5,1.119,2.5,2.5v38.176C124.924,69.174,123.805,70.293,122.424,70.293z M108.066,65.293h11.858V32.117h-11.858V65.293z"
		/>
	<path fill="#EBE7F2" d="M226.381,124.926h-38.176c-1.381,0-2.5-1.119-2.5-2.5v-16.858c0-1.381,1.119-2.5,2.5-2.5h38.176
		c1.381,0,2.5,1.119,2.5,2.5v16.858C228.881,123.807,227.762,124.926,226.381,124.926z M190.705,119.926h33.176v-11.858h-33.176
		V119.926z"/>
	<g>
		<path fill="#846F75" d="M230.686,185.15c0-4.761-3.346-9.684-9.816-9.881h-24.064c1.064-1.092,2.204-2.199,3.363-3.376
			c4.563-4.052,6.515-11.699,2.153-16.702c-3.668-4.219-10.033-2.167-14.424,1.536c-7.01,5.183-14.188,10.823-21.955,17.25
			c-4.288,3.581-9.257,6.8-12.378,11.728h-45.093c-3.259,0.066-3.327,4.914,0,5c0,0,46.545,0,46.545,0c0.94,0,1.8-0.527,2.227-1.364
			c1.79-3.51,5.423-6.372,8.937-9.14c8.413-6.837,16.972-13.822,24.755-19.501c2.144-1.853,6.131-3.932,7.615-2.224
			c2.388,2.739,0.997,7.32-1.746,9.718c-2.724,2.755-5.433,5.206-7.427,8.169c-1.149,1.578,0.122,3.967,2.066,3.907
			c0,0,29.349-0.001,29.349-0.001c3.611,0.11,4.892,2.699,4.893,4.882c0,2.183-1.281,4.771-4.893,4.882
			c-1.35,0.042-2.423,1.148-2.423,2.499c0,1.351,1.073,2.457,2.423,2.499c6.565,0.134,6.548,9.598,0.077,9.763c0,0-4.399,0-4.399,0
			c-1.366,0-2.479,1.096-2.5,2.461c-0.021,1.365,1.057,2.495,2.422,2.538c5.743,0.148,5.727,8.328,0.077,8.51c0,0-4.713,0-4.713,0
			c-3.263,0.074-3.308,4.838-0.071,4.999c4.962,0.122,4.961,7.209,0.071,7.366c0,0-38.912,0-38.912,0
			c-5.319,0-10.384-2.209-13.548-5.911c-0.475-0.556-1.169-0.875-1.9-0.875H87.896c-1.381,0-2.5,1.119-2.5,2.5s1.119,2.5,2.5,2.5
			h68.395c4.15,4.327,10.116,6.786,16.556,6.786l38.989-0.001c7.343-0.294,10.262-7.421,7.542-12.828
			c5.949-1.912,7.846-8.777,4.962-13.665c7.072-2.553,8.382-11.876,3.155-16.642C229.604,190.618,230.686,187.858,230.686,185.15z"
			/>
		<path fill="#846F75" d="M35.13,80.73h24.064c-1.064,1.092-2.204,2.198-3.363,3.376c-4.563,4.052-6.515,11.699-2.153,16.702
			c1.443,1.66,3.304,2.349,5.297,2.349c3.073,0,6.463-1.638,9.127-3.884c7.01-5.183,14.188-10.823,21.954-17.25
			c4.288-3.581,9.257-6.8,12.378-11.728h44.892c3.259-0.066,3.328-4.914,0-5c0,0-46.344,0-46.344,0c-0.94,0-1.8,0.527-2.227,1.364
			c-2.299,4.525-7.785,8.059-11.899,11.522C79.15,84.56,72.022,90.16,65.065,95.301c-2.144,1.853-6.13,3.931-7.615,2.224
			c-2.388-2.739-0.997-7.32,1.746-9.718c2.723-2.754,5.434-5.207,7.427-8.169c1.148-1.578-0.121-3.967-2.066-3.907
			c0,0-29.349,0.001-29.349,0.001c-3.611-0.11-4.892-2.699-4.893-4.882c0-2.183,1.281-4.771,4.893-4.882
			c1.35-0.042,2.423-1.148,2.423-2.499c0-1.351-1.073-2.457-2.423-2.499c-6.561-0.129-6.55-9.599-0.077-9.763c0,0,4.399,0,4.399,0
			c3.263-0.079,3.308-4.828,0.077-4.999c-5.743-0.148-5.726-8.328-0.077-8.51c0,0,4.713,0,4.713,0
			c3.262-0.074,3.308-4.838,0.071-4.999c-4.962-0.122-4.961-7.209-0.071-7.366c0,0,38.912,0,38.912,0
			c5.319,0,10.384,2.209,13.548,5.911c0.475,0.556,1.169,0.875,1.9,0.875h69.505c1.381,0,2.5-1.119,2.5-2.5s-1.119-2.5-2.5-2.5
			H99.709c-4.15-4.327-10.116-6.786-16.556-6.786l-38.989,0.001c-7.343,0.294-10.262,7.421-7.542,12.828
			c-5.949,1.912-7.846,8.777-4.962,13.665c-7.072,2.552-8.382,11.876-3.155,16.642C22.38,69.22,25.316,80.408,35.13,80.73z"/>
		<path fill="#846F75" d="M155.191,53.679c-4.218,3.668-2.167,10.032,1.536,14.424c5.183,7.01,10.823,14.188,17.25,21.954
			c3.581,4.287,6.8,9.258,11.728,12.378v45.093c0.058,3.235,4.91,3.348,5,0c0,0,0-46.545,0-46.545c0-0.94-0.527-1.8-1.364-2.227
			c-4.525-2.299-8.06-7.785-11.522-11.899c-6.378-7.708-11.978-14.836-17.119-21.793c-1.853-2.144-3.93-6.131-2.224-7.615
			c2.739-2.386,7.319-0.997,9.718,1.746c2.751,2.722,5.209,5.434,8.169,7.427c1.575,1.149,3.969-0.122,3.907-2.066
			c0,0-0.001-29.349-0.001-29.349c0.11-3.611,2.699-4.892,4.882-4.893c2.183,0,4.771,1.281,4.882,4.893
			c0.042,1.35,1.148,2.423,2.499,2.423c1.351,0,2.457-1.073,2.499-2.423c0.129-6.561,9.599-6.55,9.763-0.077c0,0,0,4.399,0,4.399
			c0.058,3.258,4.883,3.306,4.999,0.077c0.141-5.739,8.332-5.728,8.51-0.077c0,0,0,4.713,0,4.713
			c0.083,3.251,4.834,3.342,4.999,0.071c0.115-4.958,7.212-4.962,7.366-0.071c0,0,0,38.912,0,38.912
			c0,5.319-2.209,10.384-5.911,13.548c-0.556,0.475-0.875,1.169-0.875,1.9v69.506c0,1.381,1.119,2.5,2.5,2.5s2.5-1.119,2.5-2.5
			V99.709c4.327-4.15,6.786-10.116,6.786-16.556l-0.001-38.989c-0.294-7.342-7.42-10.262-12.828-7.542
			c-1.912-5.949-8.777-7.846-13.665-4.961c-2.552-7.073-11.876-8.382-16.642-3.155c-5.752-6.127-16.939-3.191-17.262,6.624
			c0,0,0,24.065,0,24.065c-1.092-1.068-2.199-2.202-3.376-3.363C167.841,51.268,160.193,49.317,155.191,53.679z"/>
		<path fill="#846F75" d="M100.809,202.321c4.218-3.668,2.167-10.032-1.536-14.424c-5.183-7.01-10.823-14.188-17.25-21.954
			c-3.581-4.287-6.8-9.258-11.728-12.378c0,0,0-45.093,0-45.093c-0.066-3.259-4.914-3.327-5,0c0,0,0,46.545,0,46.545
			c0,0.94,0.527,1.8,1.364,2.227c3.51,1.79,6.372,5.423,9.14,8.936c6.837,8.414,13.823,16.972,19.501,24.756
			c1.853,2.144,3.931,6.131,2.224,7.615c-2.738,2.388-7.318,0.998-9.718-1.746c-2.755-2.724-5.206-5.433-8.169-7.427
			c-1.577-1.148-3.967,0.122-3.907,2.066c0,0,0.001,29.349,0.001,29.349c-0.11,3.611-2.699,4.892-4.882,4.893
			c-2.183,0-4.771-1.281-4.882-4.893c-0.042-1.35-1.148-2.423-2.499-2.423c-1.351,0-2.457,1.073-2.499,2.423
			c-0.132,6.563-9.598,6.548-9.763,0.077c0,0,0-4.399,0-4.399c0.001-1.38-1.121-2.501-2.5-2.5c-1.348,0-2.457,1.071-2.499,2.423
			c-0.147,5.741-8.328,5.728-8.51,0.077c0,0,0-4.713,0-4.713c-0.075-3.256-4.863-3.334-4.999-0.071
			c-0.121,4.961-7.209,4.961-7.366,0.071c0,0,0-38.912,0-38.912c0-5.319,2.209-10.384,5.911-13.548
			c0.556-0.475,0.875-1.169,0.875-1.9V87.894c0-1.381-1.119-2.5-2.5-2.5s-2.5,1.119-2.5,2.5v68.397
			c-4.327,4.15-6.786,10.116-6.786,16.556l0.001,38.989c0.294,7.342,7.42,10.262,12.828,7.542c1.912,5.949,8.777,7.846,13.665,4.961
			c2.552,7.073,11.876,8.382,16.642,3.155c5.752,6.127,16.939,3.191,17.262-6.624c0,0,0-24.065,0-24.065
			c1.092,1.068,2.199,2.202,3.376,3.363C88.159,204.731,95.806,206.682,100.809,202.321z"/>
	</g>
	<path fill="#F9B087" d="M122.426,59.899h-16.858c-1.381,0-2.5-1.119-2.5-2.5V40.542c0-1.381,1.119-2.5,2.5-2.5h16.858
		c1.381,0,2.5,1.119,2.5,2.5v16.858C124.926,58.78,123.807,59.899,122.426,59.899z M108.068,54.899h11.858V43.042h-11.858V54.899z"
		/>
	<path fill="#F9B087" d="M150.432,217.958h-16.858c-1.381,0-2.5-1.119-2.5-2.5v-16.858c0-1.381,1.119-2.5,2.5-2.5h16.858
		c1.381,0,2.5,1.119,2.5,2.5v16.858C152.932,216.839,151.813,217.958,150.432,217.958z M136.074,212.958h11.858v-11.858h-11.858
		V212.958z"/>
	<path fill="#F9B087" d="M48.971,152.932c-6.026,0-10.929-4.903-10.929-10.929c0-6.026,4.903-10.929,10.929-10.929
		c6.026,0,10.929,4.903,10.929,10.929C59.899,148.029,54.997,152.932,48.971,152.932z M48.971,136.074
		c-3.27,0-5.929,2.66-5.929,5.929c0,3.27,2.66,5.929,5.929,5.929c3.269,0,5.929-2.66,5.929-5.929
		C54.899,138.733,52.24,136.074,48.971,136.074z"/>
	<path fill="#F9B087" d="M207.029,124.926c-6.026,0-10.929-4.903-10.929-10.929c0-6.026,4.903-10.929,10.929-10.929
		c6.026,0,10.929,4.903,10.929,10.929C217.958,120.023,213.056,124.926,207.029,124.926z M207.029,108.068
		c-3.269,0-5.929,2.66-5.929,5.929c0,3.269,2.66,5.929,5.929,5.929c3.27,0,5.929-2.66,5.929-5.929
		C212.958,110.728,210.299,108.068,207.029,108.068z"/>
	<path fill="#F9B087" d="M123.97,145.436c-2.015,0-3.909-0.785-5.334-2.209l-11.72-11.72c-1.425-1.425-2.21-3.319-2.21-5.335
		c0-2.016,0.785-3.911,2.21-5.336c1.424-1.424,3.318-2.209,5.335-2.209c2.016,0,3.911,0.785,5.335,2.21l6.384,6.383l14.445-14.445
		c1.424-1.425,3.318-2.21,5.334-2.21c2.017,0,3.911,0.785,5.335,2.21c1.425,1.424,2.21,3.319,2.21,5.335
		c0,2.016-0.785,3.91-2.21,5.335l-19.78,19.78C127.879,144.651,125.985,145.436,123.97,145.436z M112.25,123.625
		c-0.68,0-1.319,0.265-1.799,0.745c-0.481,0.481-0.746,1.121-0.746,1.801c0,0.68,0.265,1.319,0.746,1.799l11.719,11.72
		c0.962,0.961,2.637,0.961,3.599,0l19.78-19.781c0.481-0.481,0.746-1.12,0.746-1.8c0-0.68-0.265-1.319-0.746-1.8
		c-0.96-0.961-2.638-0.961-3.599-0.001l-16.213,16.213c-0.976,0.977-2.56,0.976-3.535,0l-8.152-8.152
		C113.569,123.89,112.93,123.625,112.25,123.625z"/>
	<path fill="#F9B087" d="M128,165.13c-20.474,0-37.13-16.656-37.13-37.13S107.526,90.87,128,90.87s37.13,16.656,37.13,37.13
		S148.474,165.13,128,165.13z M128,95.87c-17.716,0-32.13,14.414-32.13,32.13s14.414,32.13,32.13,32.13s32.13-14.414,32.13-32.13
		S145.716,95.87,128,95.87z"/>
</g>
</svg>
