<?xml version="1.0" encoding="utf-8"?>
<!-- Generator: Adobe Illustrator 24.0.0, SVG Export Plug-In . SVG Version: 6.00 Build 0)  -->
<svg version="1.1" id="Layer_1" xmlns="http://www.w3.org/2000/svg" xmlns:xlink="http://www.w3.org/1999/xlink" x="0px" y="0px"
	 viewBox="0 0 256 256" enable-background="new 0 0 256 256" xml:space="preserve">
<g>
	<path fill="#65C1D6" d="M139.65,103.808c-0.792-1.132-2.352-1.404-3.482-0.614L128,108.916l-8.168-5.721
		c-1.131-0.791-2.689-0.517-3.482,0.614c-0.792,1.131-0.517,2.689,0.614,3.482l8.3,5.813l-6.975,39.93
		c-0.142,0.814,0.127,1.646,0.719,2.222l7.249,7.056c0.485,0.472,1.114,0.708,1.744,0.708s1.258-0.236,1.744-0.708l7.249-7.056
		c0.592-0.576,0.861-1.408,0.719-2.222l-6.975-39.93l8.3-5.813C140.167,106.498,140.442,104.939,139.65,103.808z M128,157.031
		l-4.559-4.438L128,126.496l4.559,26.098L128,157.031z"/>
	<path fill="#65C1D6" d="M202.917,89.844c-20.27,0-36.761-16.491-36.761-36.761s16.491-36.761,36.761-36.761
		s36.761,16.491,36.761,36.761S223.187,89.844,202.917,89.844z M202.917,21.322c-17.513,0-31.761,14.248-31.761,31.761
		s14.248,31.761,31.761,31.761s31.761-14.248,31.761-31.761S220.43,21.322,202.917,21.322z"/>
	<path fill="#65C1D6" d="M53.083,239.678c-20.27,0-36.761-16.491-36.761-36.761s16.491-36.761,36.761-36.761
		s36.761,16.491,36.761,36.761S73.353,239.678,53.083,239.678z M53.083,171.156c-17.513,0-31.761,14.248-31.761,31.761
		s14.248,31.761,31.761,31.761s31.761-14.248,31.761-31.761S70.596,171.156,53.083,171.156z"/>
	<path fill="#65C1D6" d="M202.917,239.678c-20.27,0-36.761-16.491-36.761-36.761s16.491-36.761,36.761-36.761
		s36.761,16.491,36.761,36.761S223.187,239.678,202.917,239.678z M202.917,171.156c-17.513,0-31.761,14.248-31.761,31.761
		s14.248,31.761,31.761,31.761s31.761-14.248,31.761-31.761S220.43,171.156,202.917,171.156z"/>
	<g>
		<path fill="#846F75" d="M88.388,118.73v51.703c0,1.381,1.119,2.5,2.5,2.5h74.225c1.381,0,2.5-1.119,2.5-2.5V118.73
			c0-8.816-7.172-15.988-15.988-15.988h-6.597c4.299-4.544,6.714-10.722,6.451-17.163c-0.491-11.972-9.864-21.625-21.804-22.455
			c-6.599-0.459-12.885,1.763-17.7,6.255c-4.749,4.43-7.472,10.693-7.472,17.185c0,6.145,2.36,11.887,6.44,16.178h-6.567
			C95.56,102.742,88.388,109.915,88.388,118.73z M119.542,103.02c-6.193-3.19-10.041-9.496-10.041-16.456
			c0-5.185,2.089-9.99,5.883-13.528c3.79-3.536,8.74-5.284,13.942-4.923c9.24,0.642,16.775,8.404,17.155,17.671
			c0.294,7.182-3.641,13.948-10.024,17.236c-1.025,0.528-1.557,1.69-1.285,2.812c0.272,1.122,1.276,1.911,2.43,1.911h14.022
			c6.059,0,10.988,4.929,10.988,10.988v49.203H93.388V118.73c0-6.059,4.929-10.988,10.988-10.988h14.022
			c1.154,0,2.158-0.79,2.43-1.911C121.1,104.71,120.568,103.548,119.542,103.02z"/>
		<path fill="#846F75" d="M32.476,165.622V90.377c0-1.381-1.119-2.5-2.5-2.5s-2.5,1.119-2.5,2.5v75.245c0,1.381,1.119,2.5,2.5,2.5
			S32.476,167.003,32.476,165.622z"/>
		<path fill="#846F75" d="M165.623,223.524H90.378c-1.381,0-2.5,1.119-2.5,2.5s1.119,2.5,2.5,2.5h75.245c1.381,0,2.5-1.119,2.5-2.5
			S167.003,223.524,165.623,223.524z"/>
		<path fill="#846F75" d="M226.024,87.51c-1.381,0-2.5,1.119-2.5,2.5v75.613c0,1.381,1.119,2.5,2.5,2.5s2.5-1.119,2.5-2.5V90.01
			C228.524,88.629,227.405,87.51,226.024,87.51z"/>
		<path fill="#846F75" d="M90.378,32.476h74.815c1.381,0,2.5-1.119,2.5-2.5s-1.119-2.5-2.5-2.5H90.378c-1.381,0-2.5,1.119-2.5,2.5
			S88.997,32.476,90.378,32.476z"/>
		<path fill="#846F75" d="M193.633,68.166c1.415,1.415,3.296,2.194,5.296,2.194c2,0,3.881-0.779,5.297-2.194l19.57-19.57
			c1.415-1.415,2.195-3.296,2.195-5.298c0-2.001-0.78-3.882-2.194-5.296c-1.415-1.416-3.296-2.195-5.297-2.195
			c-2.002,0-3.883,0.779-5.297,2.194l-14.273,14.272l-6.297-6.296c-1.414-1.415-3.295-2.194-5.297-2.194
			c-2.002,0-3.883,0.779-5.296,2.193c-1.416,1.415-2.196,3.296-2.196,5.298c0,2.001,0.78,3.883,2.195,5.297L193.633,68.166z
			 M185.574,49.511c0.47-0.47,1.095-0.729,1.761-0.729c0.666,0,1.291,0.259,1.761,0.729l8.065,8.065c0.976,0.977,2.56,0.977,3.535,0
			l16.042-16.041c0.939-0.94,2.581-0.942,3.522,0.001c0.471,0.47,0.73,1.096,0.73,1.761c0,0.666-0.259,1.292-0.73,1.762
			l-19.569,19.57c-0.935,0.935-2.589,0.934-3.523,0l-11.595-11.595c-0.471-0.471-0.73-1.096-0.73-1.762
			S185.102,49.982,185.574,49.511z"/>
		<path fill="#846F75" d="M68.665,185.641c-2.001,0-3.883,0.779-5.296,2.194l-14.273,14.272l-6.297-6.296
			c-1.414-1.415-3.295-2.194-5.297-2.194c-2.001,0-3.883,0.779-5.297,2.194c-1.416,1.415-2.195,3.296-2.195,5.297
			c0,2.001,0.78,3.883,2.195,5.297l11.595,11.595c1.415,1.415,3.296,2.194,5.297,2.194s3.882-0.779,5.297-2.194l19.569-19.57
			c1.416-1.415,2.196-3.296,2.196-5.298c0-2.001-0.78-3.882-2.195-5.296C72.548,186.42,70.667,185.641,68.665,185.641z
			 M70.427,194.894l-19.569,19.57c-0.941,0.94-2.582,0.94-3.523,0l-11.595-11.595c-0.471-0.47-0.73-1.096-0.73-1.762
			s0.259-1.291,0.73-1.762c0.47-0.47,1.096-0.729,1.761-0.729c0.666,0,1.292,0.259,1.762,0.729l8.065,8.065
			c0.976,0.977,2.56,0.977,3.535,0l16.041-16.041c0.939-0.939,2.582-0.94,3.523,0.001c0.471,0.471,0.73,1.096,0.73,1.761
			C71.157,193.797,70.898,194.422,70.427,194.894z"/>
		<path fill="#846F75" d="M218.499,185.641c-2.002,0-3.883,0.779-5.297,2.194l-14.273,14.272l-6.297-6.296
			c-1.414-1.415-3.295-2.194-5.297-2.194c-2.002,0-3.883,0.779-5.297,2.193c-1.416,1.415-2.195,3.297-2.195,5.298
			c0,2.001,0.78,3.883,2.195,5.297l11.594,11.594c1.415,1.416,3.295,2.195,5.297,2.195c2.001,0,3.882-0.779,5.297-2.194l19.57-19.57
			c1.415-1.415,2.195-3.296,2.195-5.298c0-2.001-0.78-3.882-2.194-5.297S220.5,185.641,218.499,185.641z M220.261,194.894
			l-19.57,19.57c-0.941,0.94-2.582,0.941-3.523,0l-11.595-11.595c-0.471-0.471-0.73-1.096-0.73-1.762s0.26-1.291,0.731-1.763
			c0.47-0.47,1.095-0.729,1.761-0.729c0.666,0,1.291,0.259,1.761,0.729l8.065,8.065c0.976,0.977,2.56,0.977,3.535,0l16.041-16.041
			c0.939-0.939,2.582-0.94,3.523,0.001c0.471,0.47,0.73,1.096,0.73,1.761C220.991,193.797,220.731,194.423,220.261,194.894z"/>
		<path fill="#846F75" d="M68.665,35.807c-2.001,0-3.883,0.779-5.296,2.194L49.096,52.273l-6.297-6.296
			c-1.414-1.415-3.295-2.194-5.297-2.194c-2.001,0-3.883,0.779-5.297,2.193c-1.415,1.415-2.195,3.296-2.195,5.298
			c0,2.001,0.779,3.882,2.195,5.297l11.595,11.595c1.415,1.415,3.296,2.194,5.296,2.194s3.881-0.779,5.297-2.194l19.569-19.57
			c1.416-1.415,2.196-3.296,2.196-5.298c0-2.001-0.78-3.882-2.194-5.296C72.548,36.586,70.667,35.807,68.665,35.807z M70.427,45.06
			L50.858,64.63c-0.936,0.935-2.589,0.934-3.524,0L35.739,53.036c-0.471-0.471-0.73-1.097-0.73-1.762s0.259-1.292,0.73-1.762
			c0.47-0.47,1.096-0.729,1.761-0.729c0.666,0,1.292,0.259,1.762,0.729l8.065,8.065c0.976,0.977,2.56,0.977,3.535,0l16.042-16.041
			c0.939-0.941,2.58-0.941,3.522,0.001c0.471,0.471,0.73,1.096,0.73,1.761C71.157,43.963,70.898,44.589,70.427,45.06z"/>
	</g>
	<path fill="#65C1D6" d="M53.083,89.844c-20.27,0-36.761-16.491-36.761-36.761s16.491-36.761,36.761-36.761
		s36.761,16.491,36.761,36.761S73.353,89.844,53.083,89.844z M53.083,21.322c-17.513,0-31.761,14.248-31.761,31.761
		S35.57,84.844,53.083,84.844s31.761-14.248,31.761-31.761S70.596,21.322,53.083,21.322z"/>
</g>
</svg>
