<?xml version="1.0" encoding="utf-8"?>
<!-- Generator: Adobe Illustrator 24.0.0, SVG Export Plug-In . SVG Version: 6.00 Build 0)  -->
<svg version="1.1" id="Layer_1" xmlns="http://www.w3.org/2000/svg" xmlns:xlink="http://www.w3.org/1999/xlink" x="0px" y="0px"
	 viewBox="0 0 256 256" enable-background="new 0 0 256 256" xml:space="preserve">
<g>
	<path fill="#EBE7F2" d="M126.761,119.46c-0.336,0-0.673-0.068-0.988-0.204L73.016,96.555c-1.268-0.546-1.854-2.016-1.308-3.285
		c0.546-1.269,2.017-1.854,3.285-1.308l51.768,22.276l51.769-22.276c1.267-0.547,2.738,0.039,3.285,1.308
		c0.545,1.269-0.04,2.739-1.309,3.285l-52.757,22.701C127.434,119.392,127.097,119.46,126.761,119.46z"/>
	<path fill="#ED9ABC" d="M126.761,134.656c-0.336,0-0.673-0.068-0.988-0.204l-52.756-22.702c-0.917-0.395-1.512-1.298-1.512-2.296
		V63.718c0-1.381,1.119-2.5,2.5-2.5s2.5,1.119,2.5,2.5v44.09l50.256,21.626l50.257-21.626v-44.09c0-1.381,1.119-2.5,2.5-2.5
		s2.5,1.119,2.5,2.5v45.736c0,0.999-0.595,1.902-1.512,2.296l-52.757,22.702C127.434,134.588,127.097,134.656,126.761,134.656z"/>
	<path fill="#ED9ABC" d="M209.424,48.683L127.75,13.521c-0.632-0.271-1.346-0.271-1.978,0c-0.005,0.003-81.684,35.162-81.691,35.173
		c-0.892,0.395-1.487,1.308-1.494,2.286c0,0,0,51.791,0,51.791c-4.979,1.14-8.709,5.598-8.709,10.917
		c0.616,14.869,21.804,14.865,22.418,0c0-5.32-3.729-9.777-8.709-10.917V54.778l78.186,33.66c0.632,0.271,1.346,0.271,1.978,0
		l81.674-35.162C211.392,52.504,211.417,49.456,209.424,48.683z M51.295,113.688c0,3.423-2.785,6.208-6.208,6.208
		c-8.218-0.291-8.216-12.127,0-12.417C48.51,107.48,51.295,110.265,51.295,113.688z M126.761,83.42l-69.545-29.94h68.212
		c1.381,0,2.5-1.119,2.5-2.5s-1.119-2.5-2.5-2.5H57.216l69.545-29.941l75.353,32.441L126.761,83.42z"/>
	<path fill="#EBE7F2" d="M99.19,241.624c-0.64,0-1.28-0.244-1.768-0.732c-0.977-0.976-0.977-2.559,0-3.535l46.433-46.433
		c0.977-0.977,2.559-0.977,3.535,0c0.977,0.976,0.977,2.559,0,3.535l-46.433,46.433C100.47,241.38,99.83,241.624,99.19,241.624z"/>
	<path fill="#EBE7F2" d="M82.227,167.082c-0.934,0-1.83-0.525-2.259-1.425c-3.926-8.236-3.944-17.194-0.054-26.624
		c0.526-1.277,1.99-1.887,3.264-1.358c1.276,0.526,1.884,1.988,1.358,3.264c-3.375,8.182-3.393,15.563-0.054,22.566
		c0.594,1.246,0.065,2.738-1.181,3.333C82.953,167.004,82.587,167.082,82.227,167.082z"/>
	<path fill="#EBE7F2" d="M90.669,167.082c-0.36,0-0.727-0.078-1.074-0.244c-1.247-0.594-1.775-2.086-1.181-3.333
		c3.338-7.003,3.321-14.385-0.054-22.566c-0.526-1.276,0.082-2.738,1.358-3.264c1.277-0.527,2.738,0.082,3.264,1.358
		c3.89,9.43,3.872,18.388-0.054,26.624C92.499,166.556,91.603,167.082,90.669,167.082z"/>
	<path fill="#EBE7F2" d="M86.448,204.775c-1.381,0-2.5-1.119-2.5-2.5v-18.311c0-1.381,1.119-2.5,2.5-2.5s2.5,1.119,2.5,2.5v18.311
		C88.948,203.656,87.829,204.775,86.448,204.775z"/>
	<path fill="#EBE7F2" d="M95.603,195.62H77.292c-1.381,0-2.5-1.119-2.5-2.5s1.119-2.5,2.5-2.5h18.311c1.381,0,2.5,1.119,2.5,2.5
		S96.984,195.62,95.603,195.62z"/>
	<path fill="#EBE7F2" d="M79.974,202.094c-0.64,0-1.28-0.244-1.768-0.732c-0.977-0.976-0.977-2.559,0-3.535l12.947-12.948
		c0.976-0.977,2.56-0.977,3.535,0c0.977,0.976,0.977,2.559,0,3.535l-12.947,12.948C81.254,201.85,80.614,202.094,79.974,202.094z"/>
	<path fill="#EBE7F2" d="M92.921,202.094c-0.64,0-1.28-0.244-1.768-0.732l-12.947-12.948c-0.977-0.976-0.977-2.559,0-3.535
		c0.976-0.977,2.56-0.977,3.535,0l12.947,12.948c0.977,0.976,0.977,2.559,0,3.535C94.201,201.85,93.561,202.094,92.921,202.094z"/>
	<g>
		<path fill="#846F75" d="M195.761,113.136h-11.838c-1.381,0-2.5,1.119-2.5,2.5s1.119,2.5,2.5,2.5h9.338v100.828h-53.444
			c-1.381,0-2.5,1.119-2.5,2.5s1.119,2.5,2.5,2.5h55.944c1.381,0,2.5-1.119,2.5-2.5V115.636
			C198.261,114.255,197.142,113.136,195.761,113.136z"/>
		<path fill="#846F75" d="M92.851,221.464c0-1.381-1.119-2.5-2.5-2.5H62.739V118.136h5.809c1.381,0,2.5-1.119,2.5-2.5
			s-1.119-2.5-2.5-2.5h-8.309c-1.381,0-2.5,1.119-2.5,2.5v105.828c0,1.381,1.119,2.5,2.5,2.5h30.112
			C91.732,223.964,92.851,222.845,92.851,221.464z"/>
		<path fill="#846F75" d="M139.489,180.867c0.977,0.977,2.559,0.977,3.535,0l29.327-29.326l5.443,5.443l-29.284,29.284
			c-0.977,0.976-0.977,2.559,0,3.535c0.488,0.488,1.128,0.732,1.768,0.732s1.279-0.244,1.768-0.732l31.052-31.051
			c0.977-0.976,0.977-2.559,0-3.535l-8.979-8.979c-0.469-0.469-1.104-0.732-1.768-0.732s-1.299,0.263-1.768,0.732l-31.095,31.094
			C138.513,178.308,138.513,179.891,139.489,180.867z"/>
		<path fill="#846F75" d="M155.566,200.134c0-0.663-0.264-1.299-0.732-1.768l-16.422-16.421c-0.977-0.977-2.559-0.977-3.535,0
			l-49.668,49.668c-0.977,0.976-0.977,2.559,0,3.535c5.015,5.016,11.601,7.522,18.189,7.522c6.586,0,13.175-2.508,18.189-7.522
			l33.247-33.247C155.303,201.433,155.566,200.797,155.566,200.134z M118.052,231.613c-7.482,7.482-19.309,8.036-27.435,1.662
			l46.027-46.027l12.887,12.886L118.052,231.613z"/>
		<path fill="#846F75" d="M172.564,160.306l1.424-1.424c0.977-0.976,0.977-2.559,0-3.535c-0.977-0.977-2.559-0.977-3.535,0
			l-1.424,1.424c-0.977,0.976-0.977,2.559,0,3.535c0.488,0.488,1.128,0.732,1.768,0.732S172.076,160.794,172.564,160.306z"/>
		<path fill="#846F75" d="M67.634,152.321c0,6.855,5.37,12.783,13.212,14.772c1.358,2.529,3.351,3.952,5.601,3.952
			s4.243-1.423,5.601-3.952c7.842-1.989,13.212-7.917,13.212-14.772c0-6.983-5.56-12.954-13.511-14.847
			c0.46-1.907,1.978-3.462,3.336-4.519l1.274-0.991c1.09-0.847,1.287-2.418,0.439-3.508c-0.847-1.09-2.418-1.287-3.508-0.439
			l-1.275,0.991c-3.925,3.053-5.819,6.9-5.332,10.834c0.14,1.129,1.023,2.021,2.15,2.171c6.514,0.869,11.425,5.3,11.425,10.307
			c0,4.789-4.288,8.96-10.427,10.145c-0.833,0.161-1.527,0.732-1.844,1.518c-0.628,1.554-1.36,2.061-1.542,2.061
			s-0.914-0.507-1.542-2.061c-0.317-0.786-1.012-1.357-1.844-1.518c-6.139-1.185-10.427-5.356-10.427-10.145
			c0-5.007,4.912-9.438,11.425-10.307c1.127-0.15,2.011-1.042,2.15-2.171c0.487-3.934-1.407-7.781-5.333-10.834l-1.274-0.991
			c-1.09-0.847-2.66-0.65-3.508,0.439c-0.848,1.09-0.651,2.661,0.439,3.508l1.274,0.991c1.358,1.056,2.876,2.611,3.336,4.519
			C73.194,139.367,67.634,145.338,67.634,152.321z"/>
		<path fill="#846F75" d="M86.448,174.306c-10.374,0-18.813,8.439-18.813,18.813s8.439,18.814,18.813,18.814
			s18.813-8.44,18.813-18.814S96.822,174.306,86.448,174.306z M86.448,206.934c-7.617,0-13.813-6.197-13.813-13.814
			c0-7.617,6.197-13.813,13.813-13.813s13.813,6.197,13.813,13.813C100.261,200.737,94.064,206.934,86.448,206.934z"/>
		<path fill="#846F75" d="M173.231,179.928c-7.273,0-13.191,5.917-13.191,13.191s5.918,13.192,13.191,13.192
			s13.191-5.918,13.191-13.192S180.505,179.928,173.231,179.928z M173.231,201.312c-4.517,0-8.191-3.675-8.191-8.192
			c0-4.517,3.675-8.191,8.191-8.191s8.191,3.675,8.191,8.191C181.423,197.637,177.748,201.312,173.231,201.312z"/>
		<path fill="#846F75" d="M119.298,181.58c2.457,0,4.849-0.69,6.918-1.997c1.167-0.737,1.516-2.281,0.779-3.449
			c-0.737-1.167-2.28-1.517-3.449-0.779c-1.269,0.801-2.738,1.225-4.248,1.225c-4.396,0-7.972-3.576-7.972-7.972
			c0-1.556,0.447-3.062,1.294-4.355c0.756-1.155,0.432-2.705-0.724-3.461c-1.156-0.755-2.705-0.432-3.461,0.724
			c-1.38,2.109-2.109,4.562-2.109,7.093C106.326,175.76,112.146,181.58,119.298,181.58z"/>
		<path fill="#846F75" d="M127.818,173.06c2.747,0,5.373-0.849,7.594-2.454c1.119-0.809,1.37-2.372,0.561-3.491
			c-0.808-1.12-2.373-1.372-3.49-0.561c-1.362,0.985-2.976,1.506-4.664,1.506c-4.396,0-7.972-3.576-7.972-7.972
			c0-1.592,0.467-3.128,1.35-4.441c0.771-1.146,0.467-2.699-0.679-3.47c-1.145-0.771-2.699-0.467-3.47,0.679
			c-1.44,2.142-2.202,4.642-2.202,7.232C114.846,167.24,120.666,173.06,127.818,173.06z"/>
		<path fill="#846F75" d="M136.338,164.54c7.153,0,12.973-5.819,12.973-12.972s-5.819-12.972-12.973-12.972
			c-7.152,0-12.972,5.819-12.972,12.972S129.186,164.54,136.338,164.54z M136.338,143.596c4.396,0,7.973,3.576,7.973,7.972
			c0,4.396-3.576,7.972-7.973,7.972c-4.396,0-7.972-3.576-7.972-7.972C128.366,147.172,131.942,143.596,136.338,143.596z"/>
	</g>
</g>
</svg>
