<?xml version="1.0" encoding="utf-8"?>
<!-- Generator: Adobe Illustrator 24.0.0, SVG Export Plug-In . SVG Version: 6.00 Build 0)  -->
<svg version="1.1" id="Layer_1" xmlns="http://www.w3.org/2000/svg" xmlns:xlink="http://www.w3.org/1999/xlink" x="0px" y="0px"
	 viewBox="0 0 256 256" enable-background="new 0 0 256 256" xml:space="preserve">
<g>
	<path fill="#ED9ABC" d="M58.173,74.82c-0.64,0-1.279-0.244-1.768-0.732c-0.977-0.976-0.977-2.559,0-3.535l3.876-3.876
		c0.977-0.977,2.559-0.977,3.535,0c0.977,0.976,0.977,2.559,0,3.535l-3.876,3.876C59.452,74.576,58.813,74.82,58.173,74.82z"/>
	<path fill="#ED9ABC" d="M172.677,48.172c-0.64,0-1.279-0.244-1.768-0.732l-3.658-3.659c-0.977-0.976-0.977-2.559,0-3.536
		c0.977-0.976,2.559-0.976,3.535,0l3.658,3.659c0.977,0.976,0.977,2.559,0,3.536C173.956,47.928,173.316,48.172,172.677,48.172z"/>
	<path fill="#ED9ABC" d="M162.408,207.998H130.5v-44.151c0-1.381-1.119-2.5-2.5-2.5s-2.5,1.119-2.5,2.5v44.151H93.592
		c-1.381,0-2.5,1.119-2.5,2.5s1.119,2.5,2.5,2.5h68.816c1.381,0,2.5-1.119,2.5-2.5S163.789,207.998,162.408,207.998z"/>
	<path fill="#ED9ABC" d="M72.605,181.656c-0.791-1.131-2.351-1.406-3.482-0.614l-6.605,4.626l-6.605-4.626
		c-1.131-0.792-2.69-0.517-3.482,0.614c-0.792,1.131-0.518,2.69,0.613,3.482l6.738,4.719l-5.796,33.178
		c-0.142,0.814,0.127,1.646,0.719,2.222l6.069,5.908c0.485,0.472,1.115,0.708,1.744,0.708s1.259-0.236,1.744-0.708l6.069-5.908
		c0.592-0.576,0.86-1.408,0.719-2.222l-5.796-33.178l6.738-4.719C73.123,184.346,73.397,182.787,72.605,181.656z M62.518,225.885
		l-3.38-3.29l3.38-19.346l3.38,19.346L62.518,225.885z"/>
	<path fill="#ED9ABC" d="M213.52,210.257h-9.117c-1.381,0-2.5-1.119-2.5-2.5s1.119-2.5,2.5-2.5h9.117c1.381,0,2.5,1.119,2.5,2.5
		S214.9,210.257,213.52,210.257z"/>
	<path fill="#ED9ABC" d="M202.696,180.883c-1.218-0.648-2.732-0.187-3.381,1.033l-5.833,10.963l-5.833-10.963
		c-0.649-1.219-2.164-1.681-3.381-1.033c-1.22,0.648-1.682,2.162-1.033,3.381l7.747,14.561v37.972c0,1.381,1.119,2.5,2.5,2.5
		s2.5-1.119,2.5-2.5v-37.972l7.747-14.561C204.378,183.045,203.916,181.532,202.696,180.883z"/>
	<g>
		<path fill="#846F75" d="M167.869,116.371c0.842,0.002,1.642-0.433,2.099-1.141l12.514-19.319l8.065-8.066l2.059,2.059
			c1.57,1.572,4.129,1.571,5.699,0l18.877-18.876c1.57-1.571,1.57-4.128-0.001-5.7l-43.292-43.292c-1.57-1.572-4.13-1.572-5.7,0
			l-18.874,18.875c-1.564,1.5-1.568,4.202-0.001,5.701c0,0,0.83,0.83,0.83,0.83L139.62,57.966h-13.856
			c-2.345,0-4.558,0.836-6.314,2.355l-6.667-2.155l-7.601-7.601l1.503-1.503c1.564-1.499,1.568-4.202,0.001-5.701
			c0,0-18.875-18.875-18.875-18.875c-1.57-1.573-4.13-1.572-5.7,0L38.819,67.777c-0.762,0.761-1.181,1.773-1.181,2.85
			c0,1.076,0.419,2.088,1.181,2.85l18.875,18.875c1.501,1.563,4.2,1.566,5.7,0c0,0,1.467-1.467,1.467-1.467l10.258,10.259
			l2.335,4.167c1.666,2.845,5.917,0.441,4.361-2.444c0,0-2.504-4.468-2.504-4.468c-0.111-0.2-0.251-0.383-0.413-0.545L68.397,87.351
			l33.25-33.25c0.386,0.259,8.737,9.092,9.024,8.638c0,0,4.77,1.542,4.77,1.542L100.41,79.312c-3.182,3.181-3.709,8.136-1.255,11.78
			c3.077,4.832,10.374,5.568,14.319,1.434c0,0,14.757-14.757,14.757-14.757l37.87,37.869
			C166.572,116.11,167.21,116.371,167.869,116.371z M171.039,26.257l41.921,41.921l-17.505,17.504l-41.921-41.921L171.039,26.257z
			 M43.04,70.627l41.921-41.921l17.505,17.505l-41.921,41.92L43.04,70.627z M128.231,71.733c-0.663,0-1.299,0.263-1.768,0.732
			l-16.524,16.525c-0.91,0.911-2.168,1.36-3.452,1.237c-3.532-0.253-5.216-4.881-2.542-7.38c0,0,18.512-18.512,18.512-18.512
			c0.884-0.883,2.058-1.37,3.307-1.37h14.892c0.663,0,1.299-0.263,1.768-0.732l11.256-11.255l33.332,33.332l-8.252,8.252
			c-0.124,0.124-0.235,0.261-0.331,0.409l-10.977,16.946l-37.452-37.451C129.53,71.997,128.895,71.733,128.231,71.733z"/>
		<path fill="#846F75" d="M120.952,137.021c3.06-5.08-0.141-12.314-5.96-13.46c3.827-9.253-7.709-17.123-14.919-10.166
			c-1.884-6.437-10.644-8.577-15.276-3.701c0,0-6.739,6.739-6.739,6.739c-5.316,5.174-2.241,14.588,5.098,15.597
			c-1.792,5.719,3.286,12.046,9.174,11.605c-0.399,5.668,5.454,10.688,11.072,9.307c0.729,7.515,10.399,10.888,15.648,5.443
			c0,0,5.984-5.985,5.984-5.985C130.039,147.662,127.62,138.632,120.952,137.021z M81.593,119.968l6.739-6.739
			c4.018-3.827,9.775,1.932,5.948,5.947v0l-6.739,6.739C83.525,129.739,77.772,123.993,81.593,119.968z M89.059,137.421
			c-1.631-1.566-1.631-4.382,0-5.948c0,0,14.484-14.484,14.484-14.484c4.014-3.825,9.776,1.927,5.948,5.947v0l-14.484,14.484
			C93.365,139.061,90.698,139.06,89.059,137.421z M98.542,146.905c-1.64-1.64-1.64-4.308,0-5.948l11.406-11.406
			c4.016-3.826,9.774,1.929,5.948,5.947c0,0,0,0,0,0l-11.406,11.406C102.925,148.537,100.108,148.536,98.542,146.905z
			 M121.498,148.864L121.498,148.864l-5.984,5.985c-4.049,3.813-9.759-1.901-5.948-5.948c0,0,5.984-5.984,5.984-5.984
			C119.574,139.097,125.322,144.848,121.498,148.864z"/>
		<path fill="#846F75" d="M165.426,139.493c1.422-1.422,2.272-3.2,2.567-5.049c9.087,2.508,15.621-8.673,8.99-15.375
			c-0.979-0.973-2.542-0.952-3.515,0.027c-0.975,0.979-0.95,2.581,0.028,3.555c0.337,0.391,0.65,0.783,0.84,1.275
			c1.829,4.155-3.565,7.862-6.793,4.666c-0.012-0.043-7.636-7.615-7.658-7.659c-2.364-2.279-5.819,1.169-3.535,3.536
			c0,0,5.545,5.544,5.545,5.544c3.819,4.04-1.946,9.759-5.958,5.944c-0.693-0.694-5.793-5.801-6.611-6.62
			c-2.357-2.284-5.822,1.166-3.537,3.533c0,0,5.472,5.479,5.472,5.479c3.823,4.024-1.936,9.773-5.949,5.947
			c0,0-5.779-5.775-5.779-5.775c-2.362-2.282-5.82,1.171-3.535,3.535c0.403,0.407,3.544,3.542,4.028,4.029
			c3.821,4.009-1.92,9.773-5.948,5.947c-0.976-0.975-2.559-0.976-3.535,0.001c-2.911,3.634,3.705,6.379,6.509,6.227
			c4.368,0.132,8.665-3.541,9.118-7.985c5.272,1.443,11.037-2.836,11.284-8.211C160.347,142.558,163.334,141.585,165.426,139.493z"
			/>
		<path fill="#846F75" d="M82.298,180.59h-4.608c3.285-3.808,5.105-8.794,4.893-13.98c-0.419-10.231-8.43-18.481-18.635-19.19
			c-5.634-0.395-11.011,1.506-15.125,5.345c-4.059,3.786-6.386,9.139-6.386,14.686c0,4.93,1.777,9.557,4.88,13.139h-4.579
			c-7.605,0-13.793,6.188-13.793,13.793v43.291c0,1.381,1.119,2.5,2.5,2.5h62.147c1.381,0,2.5-1.119,2.5-2.5v-43.291
			C96.092,186.778,89.904,180.59,82.298,180.59z M91.092,235.174H33.944v-40.791c0-4.849,3.944-8.793,8.793-8.793h11.74
			c1.154,0,2.158-0.79,2.43-1.911c0.271-1.121-0.259-2.283-1.285-2.812c-5.049-2.601-8.186-7.742-8.186-13.417
			c0-4.228,1.703-8.145,4.796-11.03c3.09-2.883,7.121-4.311,11.369-4.013c7.532,0.523,13.675,6.851,13.984,14.407
			c0.24,5.855-2.968,11.372-8.173,14.053c-1.026,0.529-1.557,1.69-1.285,2.812c0.271,1.122,1.275,1.911,2.43,1.911h11.74
			c4.849,0,8.794,3.945,8.794,8.793V235.174z"/>
		<path fill="#846F75" d="M213.263,180.59h-4.608c3.283-3.807,5.104-8.794,4.892-13.98c-0.419-10.231-8.43-18.481-18.634-19.19
			c-5.643-0.39-11.011,1.506-15.125,5.345c-4.059,3.786-6.386,9.139-6.386,14.686c0,4.93,1.777,9.557,4.88,13.139h-4.579
			c-7.606,0-13.794,6.188-13.794,13.793v43.291c0,1.381,1.119,2.5,2.5,2.5h62.147c1.381,0,2.5-1.119,2.5-2.5v-43.291
			C227.056,186.778,220.868,180.59,213.263,180.59z M222.056,235.174h-57.147v-40.791c0-4.849,3.945-8.793,8.794-8.793h11.74
			c1.154,0,2.158-0.79,2.43-1.911c0.271-1.121-0.259-2.283-1.285-2.812c-5.049-2.601-8.186-7.742-8.186-13.417
			c0-4.228,1.703-8.145,4.796-11.03c3.09-2.882,7.121-4.31,11.368-4.013c7.532,0.523,13.675,6.851,13.984,14.407
			c0.24,5.855-2.968,11.372-8.172,14.053c-1.026,0.529-1.557,1.69-1.285,2.812c0.271,1.122,1.275,1.911,2.43,1.911h11.74
			c4.849,0,8.793,3.945,8.793,8.793V235.174z"/>
	</g>
</g>
</svg>
