<?xml version="1.0" encoding="utf-8"?>
<!-- Generator: Adobe Illustrator 24.0.0, SVG Export Plug-In . SVG Version: 6.00 Build 0)  -->
<svg version="1.1" id="Layer_1" xmlns="http://www.w3.org/2000/svg" xmlns:xlink="http://www.w3.org/1999/xlink" x="0px" y="0px"
	 viewBox="0 0 256 256" enable-background="new 0 0 256 256" xml:space="preserve">
<g>
	<path fill="#EBE7F2" d="M127.97,76.882c-1.381,0-2.5-1.119-2.5-2.5V21.514c0-1.381,1.119-2.5,2.5-2.5s2.5,1.119,2.5,2.5v52.869
		C130.47,75.763,129.351,76.882,127.97,76.882z"/>
	<path fill="#A58BC9" d="M162.408,207.998H130.5v-41.757c0-1.381-1.119-2.5-2.5-2.5s-2.5,1.119-2.5,2.5v41.757H93.592
		c-1.381,0-2.5,1.119-2.5,2.5s1.119,2.5,2.5,2.5h68.816c1.381,0,2.5-1.119,2.5-2.5S163.789,207.998,162.408,207.998z"/>
	<path fill="#A58BC9" d="M72.605,181.656c-0.792-1.13-2.352-1.405-3.482-0.614l-6.605,4.626l-6.605-4.626
		c-1.131-0.791-2.689-0.516-3.482,0.614c-0.792,1.131-0.518,2.69,0.613,3.482l6.738,4.719l-5.796,33.178
		c-0.142,0.814,0.127,1.646,0.719,2.222l6.069,5.908c0.485,0.472,1.115,0.708,1.744,0.708s1.259-0.236,1.744-0.708l6.069-5.908
		c0.592-0.576,0.86-1.408,0.719-2.222l-5.796-33.178l6.738-4.719C73.123,184.346,73.397,182.787,72.605,181.656z M62.518,225.885
		l-3.38-3.29l3.38-19.346l3.38,19.346L62.518,225.885z"/>
	<path fill="#A58BC9" d="M213.52,210.257h-9.117c-1.381,0-2.5-1.119-2.5-2.5s1.119-2.5,2.5-2.5h9.117c1.381,0,2.5,1.119,2.5,2.5
		S214.9,210.257,213.52,210.257z"/>
	<path fill="#A58BC9" d="M202.696,180.883c-1.219-0.648-2.732-0.186-3.381,1.033l-5.833,10.963l-5.833-10.963
		c-0.648-1.22-2.164-1.682-3.381-1.033c-1.22,0.648-1.682,2.162-1.033,3.381l7.747,14.561v37.972c0,1.381,1.119,2.5,2.5,2.5
		s2.5-1.119,2.5-2.5v-37.972l7.747-14.561C204.378,183.045,203.916,181.532,202.696,180.883z"/>
	<g>
		<path fill="#846F75" d="M191.787,135.5c1.381,0,2.5-1.119,2.5-2.5v-20.469l16.68,21.98c0.491,0.648,1.238,0.989,1.993,0.989
			c0.526,0,1.058-0.166,1.51-0.508c1.1-0.835,1.314-2.403,0.479-3.503L129.961,19.493c-0.473-0.623-1.209-0.989-1.991-0.989
			s-1.519,0.366-1.991,0.989L40.99,131.489c-0.835,1.1-0.62,2.668,0.479,3.503c1.101,0.834,2.669,0.619,3.503-0.48l16.68-21.98V133
			c0,1.381,1.119,2.5,2.5,2.5h30.621c0.693,0,1.355-0.288,1.828-0.795c15.532-16.654,26.051-33.546,31.368-50.346
			c5.317,16.8,15.836,33.692,31.368,50.346c0.473,0.507,1.135,0.795,1.828,0.795H191.787z M130.421,73.892
			c-0.233-1.168-1.26-2.01-2.451-2.01s-2.218,0.841-2.451,2.01c-3.745,18.723-14.454,37.764-31.836,56.608h-27.03v-24.558
			L127.97,25.14l61.317,80.803V130.5h-27.03C144.875,111.656,134.166,92.615,130.421,73.892z"/>
		<path fill="#846F75" d="M101.896,91.581H90.041c-1.381,0-2.5,1.119-2.5,2.5v11.855c0,1.381,1.119,2.5,2.5,2.5h11.854
			c1.381,0,2.5-1.119,2.5-2.5V94.081C104.396,92.7,103.276,91.581,101.896,91.581z M99.396,103.436h-6.854v-6.855h6.854V103.436z"/>
		<path fill="#846F75" d="M168.398,105.936V94.081c0-1.381-1.119-2.5-2.5-2.5h-11.855c-1.381,0-2.5,1.119-2.5,2.5v11.855
			c0,1.381,1.119,2.5,2.5,2.5h11.855C167.279,108.436,168.398,107.316,168.398,105.936z M163.398,103.436h-6.855v-6.855h6.855
			V103.436z"/>
		<path fill="#846F75" d="M82.298,180.59h-4.608c3.285-3.808,5.105-8.794,4.893-13.98c-0.419-10.231-8.43-18.481-18.635-19.19
			c-5.635-0.393-11.011,1.506-15.125,5.345c-4.059,3.786-6.386,9.139-6.386,14.686c0,4.93,1.777,9.557,4.88,13.139h-4.579
			c-7.605,0-13.793,6.188-13.793,13.793v43.291c0,1.381,1.119,2.5,2.5,2.5h62.147c1.381,0,2.5-1.119,2.5-2.5v-43.291
			C96.092,186.778,89.904,180.59,82.298,180.59z M91.092,235.174H33.944v-40.791c0-4.849,3.944-8.793,8.793-8.793h11.74
			c1.154,0,2.158-0.79,2.43-1.911c0.271-1.121-0.259-2.283-1.285-2.812c-5.049-2.601-8.186-7.742-8.186-13.417
			c0-4.228,1.703-8.145,4.796-11.03c3.09-2.883,7.123-4.311,11.369-4.013c7.532,0.523,13.675,6.851,13.984,14.407
			c0.24,5.855-2.968,11.372-8.173,14.053c-1.026,0.529-1.557,1.69-1.285,2.812c0.271,1.122,1.275,1.911,2.43,1.911h11.74
			c4.849,0,8.794,3.945,8.794,8.793V235.174z"/>
		<path fill="#846F75" d="M213.263,180.59h-4.608c3.283-3.807,5.104-8.794,4.892-13.98c-0.419-10.231-8.43-18.481-18.634-19.19
			c-5.642-0.392-11.011,1.506-15.125,5.345c-4.059,3.786-6.386,9.139-6.386,14.686c0,4.93,1.777,9.557,4.88,13.139h-4.579
			c-7.606,0-13.794,6.188-13.794,13.793v43.291c0,1.381,1.119,2.5,2.5,2.5h62.147c1.381,0,2.5-1.119,2.5-2.5v-43.291
			C227.056,186.778,220.868,180.59,213.263,180.59z M222.056,235.174h-57.147v-40.791c0-4.849,3.945-8.793,8.794-8.793h11.74
			c1.154,0,2.158-0.79,2.43-1.911c0.271-1.121-0.259-2.283-1.285-2.812c-5.049-2.601-8.186-7.742-8.186-13.417
			c0-4.228,1.703-8.145,4.796-11.03c3.09-2.882,7.122-4.31,11.368-4.013c7.532,0.523,13.675,6.851,13.984,14.407
			c0.24,5.855-2.968,11.372-8.172,14.053c-1.026,0.529-1.557,1.69-1.285,2.812c0.271,1.122,1.275,1.911,2.43,1.911h11.74
			c4.849,0,8.793,3.945,8.793,8.793V235.174z"/>
	</g>
	<path fill="#A58BC9" d="M128.048,147.605c-12.794,0.045-18.336-15.96-8.482-23.958c2.511-1.746,2.403-5.334,0.94-7.763
		c-0.572-0.947-0.454-2.159,0.292-2.977s1.941-1.048,2.937-0.566c4.296,1.971,9.548,5.312,10.269,10.719
		c1.04-0.315,2.045,0.194,2.777,0.916C146.126,132.014,140.393,147.677,128.048,147.605z M122.549,127.66
		c-5.964,5.121-2.457,14.335,4.557,14.896c6.719,0.848,12.043-6.858,7.845-13.187c-1.356,1.446-5.23,4.464-7.159,1.809
		c-0.619-0.9-0.582-2.098,0.092-2.958c2.155-2.709,1.313-6.431-1.336-8.4C126.537,122.895,125.061,125.841,122.549,127.66z"/>
	<path fill="#A58BC9" d="M151.477,168.208c-0.312,0-0.628-0.058-0.934-0.182l-47.016-18.958c-3.015-1.296-1.231-5.798,1.869-4.637
		c0,0,47.016,18.958,47.016,18.958C154.94,164.397,154.175,168.23,151.477,168.208z"/>
	<path fill="#A58BC9" d="M104.463,168.208c-2.68,0.019-3.481-3.8-0.935-4.819c0,0,47.016-18.958,47.016-18.958
		c3.068-1.155,4.91,3.318,1.869,4.637c0,0-47.016,18.958-47.016,18.958C105.091,168.149,104.774,168.208,104.463,168.208z"/>
</g>
</svg>
