<?xml version="1.0" encoding="utf-8"?>
<!-- Generator: Adobe Illustrator 24.0.0, SVG Export Plug-In . SVG Version: 6.00 Build 0)  -->
<svg version="1.1" id="Layer_1" xmlns="http://www.w3.org/2000/svg" xmlns:xlink="http://www.w3.org/1999/xlink" x="0px" y="0px"
	 viewBox="0 0 256 256" enable-background="new 0 0 256 256" xml:space="preserve">
<g>
	<path fill="#F9B087" d="M82.324,174.878c-0.791-1.131-2.351-1.406-3.482-0.614l-3.964,2.776l-3.964-2.776
		c-1.131-0.792-2.69-0.516-3.482,0.614c-0.792,1.131-0.518,2.69,0.613,3.482l4.096,2.869l-3.802,21.763
		c-0.142,0.814,0.127,1.646,0.719,2.222l4.076,3.967c0.485,0.472,1.115,0.708,1.744,0.708s1.259-0.236,1.744-0.708l4.075-3.967
		c0.592-0.577,0.86-1.408,0.719-2.222l-3.802-21.763l4.097-2.869C82.842,177.568,83.116,176.009,82.324,174.878z M74.878,203.901
		l-1.386-1.349l1.386-7.932l1.386,7.932L74.878,203.901z"/>
	<path fill="#F9B087" d="M135.446,174.878c-0.792-1.131-2.352-1.406-3.482-0.614L128,177.041l-3.964-2.776
		c-1.13-0.792-2.69-0.516-3.482,0.614c-0.792,1.131-0.518,2.69,0.613,3.482l4.097,2.869l-3.802,21.763
		c-0.142,0.814,0.127,1.645,0.719,2.222l4.075,3.967c0.485,0.472,1.115,0.708,1.744,0.708s1.259-0.236,1.744-0.708l4.075-3.967
		c0.592-0.577,0.86-1.408,0.719-2.222l-3.802-21.763l4.097-2.869C135.964,177.568,136.238,176.009,135.446,174.878z M128,203.9
		l-1.386-1.349l1.386-7.93l1.386,7.93L128,203.9z"/>
	<path fill="#F9B087" d="M188.568,174.878c-0.792-1.131-2.351-1.406-3.482-0.614l-3.964,2.776l-3.964-2.776
		c-1.131-0.792-2.69-0.516-3.482,0.614c-0.792,1.131-0.518,2.69,0.613,3.482l4.097,2.869l-3.802,21.763
		c-0.142,0.814,0.127,1.645,0.719,2.222l4.075,3.967c0.485,0.472,1.115,0.708,1.744,0.708s1.259-0.236,1.744-0.708l4.076-3.967
		c0.592-0.576,0.86-1.408,0.719-2.222l-3.802-21.763l4.096-2.869C189.086,177.568,189.36,176.009,188.568,174.878z M181.122,203.901
		l-1.386-1.349l1.386-7.932l1.386,7.932L181.122,203.901z"/>
	<path fill="#F9B087" d="M226.024,228.524H29.976c-1.381,0-2.5-1.119-2.5-2.5V29.976c0-1.381,1.119-2.5,2.5-2.5H118
		c1.381,0,2.5,1.119,2.5,2.5s-1.119,2.5-2.5,2.5H32.476v191.049h191.049V32.476H138c-1.381,0-2.5-1.119-2.5-2.5s1.119-2.5,2.5-2.5
		h88.024c1.381,0,2.5,1.119,2.5,2.5v196.049C228.524,227.405,227.405,228.524,226.024,228.524z"/>
	<path fill="#F9B087" d="M128,120.088c-8.714,0-13.416-15.019-13.416-29.15s4.702-29.15,13.416-29.15s13.416,15.019,13.416,29.15
		S136.714,120.088,128,120.088z M128,66.788c-3.432,0-8.416,9.408-8.416,24.15s4.984,24.15,8.416,24.15s8.416-9.408,8.416-24.15
		S131.432,66.788,128,66.788z"/>
	<path fill="#F9B087" d="M128,104.354c-14.132,0-29.15-4.702-29.15-13.416S113.868,77.522,128,77.522s29.15,4.702,29.15,13.416
		S142.132,104.354,128,104.354z M128,82.522c-14.742,0-24.15,4.984-24.15,8.416c0,3.432,9.408,8.416,24.15,8.416
		s24.15-4.984,24.15-8.416C152.15,87.507,142.742,82.522,128,82.522z"/>
	<path fill="#F9B087" d="M128,145.244c-1.381,0-2.5-1.119-2.5-2.5v-12.798c0-1.381,1.119-2.5,2.5-2.5s2.5,1.119,2.5,2.5v12.798
		C130.5,144.125,129.381,145.244,128,145.244z"/>
	<path fill="#F9B087" d="M181.159,92.085h-14.151c-1.381,0-2.5-1.119-2.5-2.5s1.119-2.5,2.5-2.5h14.151c1.381,0,2.5,1.119,2.5,2.5
		S182.54,92.085,181.159,92.085z"/>
	<path fill="#F9B087" d="M88.992,92.085H74.841c-1.381,0-2.5-1.119-2.5-2.5s1.119-2.5,2.5-2.5h14.151c1.381,0,2.5,1.119,2.5,2.5
		S90.373,92.085,88.992,92.085z"/>
	<path fill="#F9B087" d="M154.904,65.181c-0.64,0-1.279-0.244-1.768-0.732c-0.977-0.976-0.977-2.559,0-3.535l10.686-10.685
		c0.977-0.977,2.559-0.977,3.535,0c0.977,0.976,0.977,2.559,0,3.535l-10.686,10.685C156.184,64.937,155.544,65.181,154.904,65.181z"
		/>
	<path fill="#F9B087" d="M90.41,129.674c-0.64,0-1.279-0.244-1.768-0.732c-0.977-0.976-0.977-2.559,0-3.535l8.937-8.937
		c0.977-0.977,2.559-0.977,3.535,0c0.977,0.976,0.977,2.559,0,3.535l-8.937,8.937C91.689,129.43,91.05,129.674,90.41,129.674z"/>
	<path fill="#F9B087" d="M165.59,129.674c-0.64,0-1.279-0.244-1.768-0.732l-9.341-9.341c-0.977-0.976-0.977-2.559,0-3.535
		c0.977-0.977,2.559-0.977,3.535,0l9.341,9.341c0.977,0.976,0.977,2.559,0,3.535C166.869,129.43,166.229,129.674,165.59,129.674z"/>
	<path fill="#F9B087" d="M101.096,65.181c-0.64,0-1.279-0.244-1.768-0.732L88.643,53.763c-0.977-0.976-0.977-2.559,0-3.535
		c0.977-0.977,2.559-0.977,3.535,0l10.686,10.685c0.977,0.976,0.977,2.559,0,3.535C102.375,64.937,101.735,65.181,101.096,65.181z"
		/>
	<g>
		<path fill="#846F75" d="M88.159,173.812h-1.436c1.679-2.49,2.574-5.495,2.447-8.6c-0.299-7.289-6.006-13.167-13.276-13.671
			c-4.008-0.275-7.842,1.073-10.773,3.809c-2.891,2.697-4.549,6.51-4.549,10.461c0,2.917,0.874,5.685,2.437,8.001h-1.413
			c-5.56,0-10.083,4.523-10.083,10.083v29.068c0,1.381,1.119,2.5,2.5,2.5h41.73c1.381,0,2.5-1.119,2.5-2.5v-29.068
			C98.243,178.335,93.72,173.812,88.159,173.812z M93.243,210.463h-36.73v-26.568c0-2.803,2.28-5.083,5.083-5.083h7.884
			c1.154,0,2.158-0.79,2.43-1.911c0.271-1.121-0.259-2.283-1.285-2.812c-3.116-1.605-5.052-4.777-5.052-8.279
			c0-2.608,1.051-5.025,2.959-6.806c1.907-1.779,4.386-2.662,7.018-2.476c4.646,0.323,8.436,4.227,8.626,8.888
			c0.148,3.613-1.831,7.018-5.044,8.673c-1.025,0.528-1.556,1.69-1.284,2.811c0.271,1.122,1.276,1.911,2.43,1.911h7.883
			c2.804,0,5.084,2.28,5.084,5.083V210.463z"/>
		<path fill="#846F75" d="M141.282,173.812h-1.437c1.679-2.49,2.574-5.495,2.447-8.6c-0.299-7.289-6.006-13.167-13.276-13.671
			c-4.009-0.275-7.842,1.073-10.773,3.809c-2.891,2.697-4.549,6.51-4.549,10.461c0,2.917,0.874,5.685,2.437,8.001h-1.413
			c-5.56,0-10.083,4.523-10.083,10.083v29.068c0,1.381,1.119,2.5,2.5,2.5h41.73c1.381,0,2.5-1.119,2.5-2.5v-29.068
			C151.365,178.335,146.842,173.812,141.282,173.812z M146.365,210.463h-36.73v-26.568c0-2.803,2.28-5.083,5.083-5.083h7.884
			c1.154,0,2.158-0.79,2.43-1.911c0.271-1.121-0.259-2.283-1.285-2.812c-3.116-1.605-5.052-4.777-5.052-8.279
			c0-2.608,1.051-5.025,2.959-6.806c1.907-1.779,4.388-2.662,7.018-2.476c4.646,0.323,8.436,4.227,8.626,8.888
			c0.148,3.613-1.831,7.018-5.044,8.673c-1.025,0.528-1.556,1.69-1.284,2.811c0.271,1.122,1.276,1.911,2.43,1.911h7.884
			c2.803,0,5.083,2.28,5.083,5.083V210.463z"/>
		<path fill="#846F75" d="M194.404,173.812h-1.437c1.679-2.49,2.574-5.495,2.447-8.6c-0.298-7.289-6.005-13.167-13.276-13.672
			c-4.007-0.274-7.841,1.074-10.772,3.808c-2.891,2.697-4.549,6.51-4.549,10.462c0,2.917,0.874,5.685,2.436,8.001h-1.412
			c-5.561,0-10.084,4.523-10.084,10.083v29.068c0,1.381,1.119,2.5,2.5,2.5h41.73c1.381,0,2.5-1.119,2.5-2.5v-29.068
			C204.487,178.335,199.964,173.812,194.404,173.812z M199.487,210.463h-36.73v-26.568c0-2.803,2.28-5.083,5.084-5.083h7.883
			c1.154,0,2.158-0.79,2.43-1.911c0.271-1.121-0.259-2.283-1.285-2.812c-3.115-1.605-5.051-4.777-5.051-8.279
			c0-2.608,1.051-5.025,2.959-6.806c1.906-1.778,4.388-2.662,7.017-2.476c4.646,0.323,8.436,4.227,8.626,8.888
			c0.148,3.614-1.831,7.018-5.043,8.672c-1.026,0.528-1.557,1.69-1.285,2.812c0.271,1.122,1.275,1.911,2.43,1.911h7.884
			c2.803,0,5.083,2.28,5.083,5.083V210.463z"/>
		<path fill="#846F75" d="M130.5,61.895V17.921c0-1.381-1.119-2.5-2.5-2.5s-2.5,1.119-2.5,2.5v43.974
			c-14.907,1.272-26.65,13.812-26.65,29.043c0,16.073,13.077,29.15,29.15,29.15s29.15-13.077,29.15-29.15
			C157.15,75.707,145.407,63.167,130.5,61.895z M128,115.088c-13.316,0-24.15-10.833-24.15-24.15s10.834-24.15,24.15-24.15
			s24.15,10.833,24.15,24.15S141.316,115.088,128,115.088z"/>
		<path fill="#846F75" d="M211.037,109.55h-1.589c-6.505,0-11.797-5.292-11.797-11.797v-1.588c0-1.381-1.119-2.5-2.5-2.5
			s-2.5,1.119-2.5,2.5v1.588c0,6.505-5.292,11.797-11.797,11.797h-1.589c-1.381,0-2.5,1.119-2.5,2.5s1.119,2.5,2.5,2.5h1.589
			c6.505,0,11.797,5.292,11.797,11.797v1.588c0,1.381,1.119,2.5,2.5,2.5s2.5-1.119,2.5-2.5v-1.588
			c0-6.505,5.292-11.797,11.797-11.797h1.589c1.381,0,2.5-1.119,2.5-2.5S212.418,109.55,211.037,109.55z M195.151,117.539
			c-1.377-2.228-3.261-4.111-5.489-5.489c2.228-1.377,4.111-3.261,5.489-5.489c1.377,2.228,3.261,4.111,5.489,5.489
			C198.412,113.428,196.529,115.311,195.151,117.539z"/>
		<path fill="#846F75" d="M58.349,126.347v1.588c0,1.381,1.119,2.5,2.5,2.5s2.5-1.119,2.5-2.5v-1.588
			c0-6.505,5.292-11.797,11.797-11.797h1.589c1.381,0,2.5-1.119,2.5-2.5s-1.119-2.5-2.5-2.5h-1.589
			c-6.505,0-11.797-5.292-11.797-11.797v-1.588c0-1.381-1.119-2.5-2.5-2.5s-2.5,1.119-2.5,2.5v1.588
			c0,6.505-5.292,11.797-11.797,11.797h-1.589c-1.381,0-2.5,1.119-2.5,2.5s1.119,2.5,2.5,2.5h1.589
			C53.057,114.55,58.349,119.842,58.349,126.347z M60.849,106.562c1.377,2.228,3.261,4.111,5.489,5.489
			c-2.228,1.377-4.111,3.261-5.489,5.489c-1.377-2.228-3.261-4.111-5.489-5.489C57.588,110.673,59.471,108.789,60.849,106.562z"/>
	</g>
</g>
</svg>
