<?xml version="1.0" encoding="utf-8"?>
<!-- Generator: Adobe Illustrator 24.0.0, SVG Export Plug-In . SVG Version: 6.00 Build 0)  -->
<svg version="1.1" id="Layer_1" xmlns="http://www.w3.org/2000/svg" xmlns:xlink="http://www.w3.org/1999/xlink" x="0px" y="0px"
	 viewBox="0 0 256 256" enable-background="new 0 0 256 256" xml:space="preserve">
<g>
	<path fill="#EBE7F2" d="M141.35,193.667H114.65c-1.381,0-2.5-1.119-2.5-2.5s1.119-2.5,2.5-2.5h26.699c1.381,0,2.5,1.119,2.5,2.5
		S142.73,193.667,141.35,193.667z"/>
	<g>
		<path fill="#846F75" d="M227.137,104.922c-0.001-0.001-0.002-0.001-0.003-0.001l-26.767-6.897l14.051-23.807
			c2.852-4.84,2.067-10.997-1.906-14.972l-15.758-15.758c-3.974-3.973-10.131-4.757-14.974-1.905l-23.805,14.051l-6.898-26.771
			c-1.408-5.438-6.316-9.237-11.935-9.237h-22.286c-5.618,0-10.526,3.799-11.935,9.24l-6.897,26.768L74.218,41.581
			c-4.845-2.85-11-2.065-14.971,1.906L43.489,59.245c-3.974,3.974-4.758,10.13-1.906,14.974l14.05,23.805l-26.771,6.898
			c-5.439,1.408-9.238,6.316-9.238,11.935v22.285c0,5.619,3.799,10.527,9.241,11.937l26.767,6.896l-14.052,23.807
			c-2.851,4.843-2.066,10.999,1.907,14.973l15.758,15.758c3.972,3.972,10.128,4.757,14.974,1.905l23.804-14.051l6.898,26.771
			c1.409,5.439,6.316,9.238,11.934,9.238h22.286c5.618,0,10.526-3.799,11.936-9.241l6.897-26.768l23.807,14.052
			c4.844,2.853,11,2.066,14.972-1.906l15.758-15.758c3.974-3.975,4.757-10.132,1.905-14.975l-14.05-23.805l26.77-6.897
			c5.439-1.408,9.238-6.316,9.238-11.936v-22.285C236.375,111.238,232.576,106.33,227.137,104.922z M231.375,139.142
			c0,3.341-2.259,6.258-5.489,7.095l-29.985,7.726c-0.761,0.196-1.385,0.738-1.686,1.464c-0.301,0.727-0.243,1.551,0.156,2.228
			l15.738,26.665c1.695,2.878,1.229,6.538-1.133,8.9l-15.758,15.758c-2.363,2.36-6.02,2.827-8.897,1.134l-26.667-15.74
			c-0.676-0.398-1.502-0.456-2.228-0.156c-0.726,0.301-1.268,0.925-1.464,1.686l-7.726,29.983c-0.838,3.233-3.755,5.492-7.095,5.492
			h-22.286c-3.339,0-6.256-2.259-7.093-5.489l-7.727-29.986c-0.196-0.761-0.738-1.385-1.464-1.686
			c-0.307-0.128-0.632-0.19-0.957-0.19c-0.441,0-0.881,0.117-1.271,0.347l-26.664,15.739c-2.879,1.692-6.539,1.228-8.9-1.133
			l-15.758-15.758c-2.362-2.362-2.828-6.022-1.135-8.898l15.74-26.667c0.399-0.677,0.458-1.501,0.157-2.228
			c-0.301-0.726-0.925-1.268-1.686-1.464l-29.982-7.725c-3.233-0.838-5.492-3.756-5.492-7.096v-22.285
			c0-3.34,2.258-6.257,5.489-7.094l29.986-7.727c0.761-0.196,1.385-0.738,1.686-1.464c0.301-0.727,0.243-1.551-0.157-2.228
			L45.89,71.68c-1.694-2.878-1.228-6.537,1.134-8.899l15.758-15.758c2.361-2.361,6.021-2.827,8.897-1.134l26.667,15.74
			c0.676,0.397,1.501,0.458,2.228,0.156c0.726-0.301,1.269-0.925,1.464-1.686l7.727-29.983c0.837-3.233,3.754-5.491,7.093-5.491
			h22.286c3.34,0,6.257,2.258,7.094,5.488l7.727,29.986c0.196,0.761,0.738,1.385,1.464,1.686c0.727,0.303,1.553,0.242,2.228-0.156
			l26.665-15.739c2.879-1.693,6.538-1.228,8.899,1.133l15.758,15.758c2.361,2.362,2.828,6.022,1.134,8.897l-15.739,26.667
			c-0.399,0.677-0.457,1.501-0.156,2.228c0.301,0.726,0.925,1.268,1.686,1.464l29.982,7.726c3.233,0.838,5.492,3.755,5.492,7.095
			V139.142z"/>
		<path fill="#846F75" d="M157.656,91.581c-8.91-8.313-20.55-12.423-32.759-11.574c-21.754,1.513-39.476,19.786-40.345,41.602
			c-0.517,12.978,4.716,25.398,14.357,34.079c5.045,4.543,7.938,11.254,7.938,18.413v0.51c0,3.419,2.225,6.328,5.303,7.356v14.336
			c0,4.439,3.612,8.051,8.051,8.051h0.494v3.54c0,3.368,2.74,6.108,6.108,6.108h2.393c3.368,0,6.108-2.74,6.108-6.108v-3.54h0.494
			c4.439,0,8.051-3.611,8.051-8.051v-14.336c3.078-1.028,5.303-3.937,5.303-7.356v-0.912c0-6.807,3.015-13.482,8.272-18.314
			c8.935-8.214,14.059-19.878,14.059-32.002C171.483,111.37,166.443,99.779,157.656,91.581z M130.305,207.894
			c0,0.611-0.497,1.108-1.108,1.108h-2.393c-0.611,0-1.108-0.497-1.108-1.108v-3.54h4.609V207.894z M135.799,199.354h-15.597
			c-1.683,0-3.051-1.368-3.051-3.051v-13.938h21.699v13.938C138.85,197.985,137.481,199.354,135.799,199.354z M154.04,151.702
			c-6.283,5.777-9.888,13.794-9.888,21.996v0.912c0,1.519-1.235,2.754-2.754,2.754h-26.797c-1.519,0-2.754-1.235-2.754-2.754v-0.51
			c0-8.573-3.496-16.639-9.592-22.128c-8.533-7.684-13.165-18.678-12.707-30.165c0.769-19.305,16.449-35.475,35.696-36.813
			c0.933-0.065,1.86-0.097,2.784-0.097c9.789,0,19.012,3.616,26.217,10.339c7.777,7.255,12.238,17.514,12.238,28.145
			C166.483,134.11,161.948,144.433,154.04,151.702z"/>
	</g>
	<path fill="#A58BC9" d="M197.41,126.027h-18.833c-1.381,0-2.5-1.119-2.5-2.5s1.119-2.5,2.5-2.5h18.833c1.381,0,2.5,1.119,2.5,2.5
		S198.791,126.027,197.41,126.027z"/>
	<path fill="#A58BC9" d="M77.422,126.027H58.59c-1.381,0-2.5-1.119-2.5-2.5s1.119-2.5,2.5-2.5h18.833c1.381,0,2.5,1.119,2.5,2.5
		S78.803,126.027,77.422,126.027z"/>
	<path fill="#A58BC9" d="M128,75.45c-1.381,0-2.5-1.119-2.5-2.5V54.117c0-1.381,1.119-2.5,2.5-2.5s2.5,1.119,2.5,2.5V72.95
		C130.5,74.331,129.381,75.45,128,75.45z"/>
	<path fill="#A58BC9" d="M163.764,90.264c-0.64,0-1.279-0.244-1.768-0.732c-0.977-0.977-0.977-2.559,0-3.535l13.316-13.316
		c0.977-0.977,2.559-0.977,3.535,0s0.977,2.559,0,3.535l-13.316,13.316C165.043,90.02,164.403,90.264,163.764,90.264z"/>
	<path fill="#A58BC9" d="M78.919,175.107c-0.64,0-1.28-0.244-1.768-0.732c-0.977-0.977-0.977-2.559,0-3.535l13.317-13.316
		c0.976-0.977,2.56-0.977,3.535,0c0.977,0.977,0.977,2.559,0,3.535l-13.317,13.316C80.199,174.863,79.559,175.107,78.919,175.107z"
		/>
	<path fill="#A58BC9" d="M177.08,175.107c-0.64,0-1.279-0.244-1.768-0.732l-13.316-13.316c-0.977-0.977-0.977-2.559,0-3.535
		s2.559-0.977,3.535,0l13.316,13.316c0.977,0.977,0.977,2.559,0,3.535C178.359,174.863,177.72,175.107,177.08,175.107z"/>
	<path fill="#A58BC9" d="M92.236,90.264c-0.64,0-1.28-0.244-1.768-0.732L77.152,76.215c-0.977-0.977-0.977-2.559,0-3.535
		c0.976-0.977,2.56-0.977,3.535,0l13.317,13.316c0.977,0.977,0.977,2.559,0,3.535C93.516,90.02,92.876,90.264,92.236,90.264z"/>
	<path fill="#A58BC9" d="M145.444,149.606h-34.889c-1.381,0-2.5-1.119-2.5-2.5v-24.303c0-4.875,3.966-8.841,8.84-8.841h0.438
		c-1.098-1.864-1.704-4.021-1.704-6.279c0-3.417,1.434-6.714,3.933-9.046c2.535-2.365,5.846-3.531,9.315-3.294
		c6.287,0.438,11.223,5.52,11.481,11.822c0.1,2.425-0.522,4.778-1.713,6.797h0.458c4.874,0,8.84,3.966,8.84,8.841v24.303
		C147.944,148.487,146.825,149.606,145.444,149.606z M113.055,144.606h29.889v-21.803c0-2.118-1.723-3.841-3.84-3.841h-6.591
		c-1.154,0-2.158-0.79-2.43-1.911c-0.271-1.121,0.259-2.283,1.285-2.812c2.544-1.311,4.111-4.007,3.994-6.869
		c-0.151-3.691-3.152-6.783-6.832-7.039c-2.081-0.151-4.048,0.553-5.558,1.961c-1.511,1.41-2.344,3.325-2.344,5.391
		c0,2.772,1.533,5.285,4.001,6.557c1.026,0.528,1.557,1.69,1.285,2.812s-1.276,1.911-2.43,1.911h-6.591
		c-2.118,0-3.84,1.723-3.84,3.841V144.606z"/>
</g>
</svg>
