<?xml version="1.0" encoding="utf-8"?>
<!-- Generator: Adobe Illustrator 24.0.0, SVG Export Plug-In . SVG Version: 6.00 Build 0)  -->
<svg version="1.1" id="Layer_1" xmlns="http://www.w3.org/2000/svg" xmlns:xlink="http://www.w3.org/1999/xlink" x="0px" y="0px"
	 viewBox="0 0 256 256" enable-background="new 0 0 256 256" xml:space="preserve">
<g>
	<path fill="#EBE7F2" d="M128,121.646c-1.381,0-2.5-1.119-2.5-2.5V74.032c0-1.381,1.119-2.5,2.5-2.5s2.5,1.119,2.5,2.5v45.113
		C130.5,120.526,129.381,121.646,128,121.646z"/>
	<path fill="#EBE7F2" d="M100.319,223.177c-0.681,0-1.358-0.276-1.853-0.819l-15.471-17.045l-41.388-28.613
		c-1.945-1.308-3.505-3.358-4.252-5.607l-17.449-52.77c-0.433-1.312,0.278-2.726,1.589-3.159c1.314-0.433,2.726,0.279,3.159,1.589
		l17.448,52.768c0.397,1.198,1.266,2.339,2.321,3.048l41.651,28.796c0.157,0.108,0.301,0.235,0.43,0.376l15.664,17.257
		c0.928,1.022,0.851,2.604-0.171,3.532C101.52,222.963,100.919,223.177,100.319,223.177z"/>
	<path fill="#EBE7F2" d="M155.681,223.177c-0.6,0-1.2-0.214-1.68-0.648c-1.021-0.929-1.099-2.51-0.171-3.532l15.664-17.257
		c0.129-0.141,0.272-0.268,0.43-0.376l41.624-28.777c1.083-0.728,1.951-1.868,2.35-3.068l17.447-52.766
		c0.434-1.31,1.844-2.021,3.159-1.589c1.311,0.434,2.021,1.848,1.589,3.159l-17.448,52.768c-0.748,2.251-2.308,4.302-4.28,5.628
		l-41.36,28.595l-15.471,17.045C157.039,222.9,156.361,223.177,155.681,223.177z"/>
	<g>
		<path fill="#846F75" d="M111.149,181.644c-1.474-1.697-4.279-1.823-5.911-0.287c0,0-3.069,2.787-3.069,2.787l-6.541-17.811
			c-0.799-2.179-2.243-4.017-4.183-5.321l-23.863-15.935c-4.958-3.588-11.18-2.241-14.768,1.141l-15.443-32.055
			c-7.189-13.889-27.825-5.581-23.284,9.443c0,0,17.45,52.77,17.45,52.77c0.747,2.247,2.306,4.297,4.279,5.625L75.3,208.533
			c-1.816,1.451-2.039,4.353-0.435,6.046c0,0,13.402,14.764,13.402,14.764c0.751,0.827,1.779,1.313,2.896,1.366
			c1.108,0.054,2.189-0.33,3.015-1.081l30.087-27.312c1.695-1.476,1.833-4.279,0.286-5.91
			C124.55,196.406,111.149,181.644,111.149,181.644z M91.42,225.377l-12.305-13.555l1.908-1.731c1.19-1.033,1.047-3.079-0.285-3.927
			c0,0-42.132-28.313-42.132-28.313c-1.057-0.711-1.925-1.852-2.322-3.049l-17.449-52.767c-1.299-3.928,0.729-8.109,4.618-9.519
			c3.667-1.333,7.717,0.313,9.416,3.82l16.978,35.24c-1.353,6.526,5.087,11.203,10.346,15.229c1.74,1.385,3.627,3.364,5.546,1.221
			c1.697-2.365-0.683-3.795-2.469-5.161c-3.494-2.84-11.484-7.81-7.546-12.452c1.909-2.36,5.951-3.439,9.005-1.233l23.934,15.983
			c1.052,0.708,1.838,1.707,2.271,2.891l7.241,19.714l-15.201,13.798c-1.707,1.443-0.515,4.433,1.682,4.352
			c0.599,0,1.2-0.214,1.68-0.648c3.79-3.44,18.143-16.47,21.66-19.664l12.304,13.556L91.42,225.377z"/>
		<path fill="#846F75" d="M234.252,107.816c-6.086-2.205-12.801,0.522-15.625,6.352l-15.441,32.05
			c-3.588-3.382-9.801-4.731-14.691-1.194l-23.945,15.993c-1.934,1.3-3.378,3.138-4.176,5.314l-6.542,17.813l-3.068-2.785
			c-1.641-1.543-4.435-1.411-5.912,0.284c0,0-13.398,14.762-13.398,14.762c-1.547,1.634-1.414,4.434,0.283,5.912
			c0,0,30.088,27.311,30.088,27.311c1.638,1.547,4.432,1.412,5.911-0.284c0,0,13.401-14.765,13.401-14.765
			c1.601-1.692,1.383-4.595-0.436-6.045L220.185,182c1.973-1.327,3.531-3.377,4.279-5.627l17.449-52.768
			C244.066,117.091,240.701,110.155,234.252,107.816z M237.165,122.035L219.717,174.8c-0.398,1.2-1.267,2.341-2.322,3.051
			l-42.133,28.313c-1.327,0.843-1.48,2.9-0.285,3.927c0,0,1.908,1.731,1.908,1.731l-12.305,13.555l-28.879-26.214l12.304-13.556
			c3.431,3.115,17.947,16.294,21.66,19.664c2.463,2.163,5.761-1.447,3.361-3.703c0,0-15.201-13.798-15.201-13.798l7.242-19.716
			c0.433-1.182,1.219-2.181,2.265-2.884l24.016-16.042c2.98-2.153,7.021-1.073,8.929,1.287c3.937,4.645-4.05,9.61-7.546,12.452
			c-1.785,1.364-4.165,2.801-2.469,5.161c1.916,2.141,3.806,0.166,5.546-1.221c5.246-4.01,11.71-8.724,10.346-15.229l16.976-35.235
			c1.702-3.512,5.749-5.158,9.418-3.825C236.436,113.927,238.464,118.108,237.165,122.035z"/>
	</g>
	<path fill="#EBE7F2" d="M176.539,114.855c-1.381,0-2.5-1.119-2.5-2.5V69.856c0-1.381,1.119-2.5,2.5-2.5s2.5,1.119,2.5,2.5v42.499
		C179.039,113.736,177.92,114.855,176.539,114.855z"/>
	<path fill="#EBE7F2" d="M79.461,114.855c-1.381,0-2.5-1.119-2.5-2.5V69.856c0-1.381,1.119-2.5,2.5-2.5s2.5,1.119,2.5,2.5v42.499
		C81.961,113.736,80.842,114.855,79.461,114.855z"/>
	<path fill="#A58BC9" d="M195.628,57.489h-4.301c3.127-3.689,4.856-8.489,4.652-13.479c-0.407-9.957-8.203-17.985-18.136-18.676
		c-5.48-0.374-10.716,1.468-14.72,5.203c-3.949,3.685-6.214,8.894-6.214,14.292c0,4.739,1.688,9.192,4.641,12.66h-4.271
		c-1.381,0-2.5,1.119-2.5,2.5s1.119,2.5,2.5,2.5h11.381c1.154,0,2.158-0.79,2.43-1.911s-0.259-2.283-1.285-2.812
		c-4.869-2.508-7.895-7.465-7.895-12.938c0-4.076,1.643-7.854,4.625-10.636c2.979-2.781,6.874-4.157,10.963-3.871
		c7.264,0.505,13.188,6.606,13.485,13.893c0.231,5.646-2.862,10.966-7.881,13.552c-1.026,0.528-1.557,1.69-1.285,2.812
		s1.276,1.911,2.43,1.911h11.381c4.658,0,8.448,3.789,8.448,8.447v39.466h-36.712v-29.61c0-8.767-7.132-15.898-15.897-15.898h-6.515
		c4.256-4.515,6.647-10.643,6.386-17.032c-0.488-11.9-9.806-21.496-21.675-22.321c-6.554-0.453-12.808,1.753-17.594,6.218
		c-4.72,4.404-7.427,10.63-7.427,17.082c0,6.095,2.336,11.791,6.374,16.054h-6.483c-8.766,0-15.897,7.132-15.897,15.898v29.61
		H51.924V70.937c0-4.658,3.79-8.447,8.448-8.447h11.381c1.153,0,2.158-0.79,2.43-1.911s-0.259-2.283-1.285-2.812
		c-5.019-2.586-8.112-7.905-7.881-13.552c0.298-7.286,6.222-13.388,13.485-13.893c4.096-0.282,7.984,1.091,10.963,3.871
		c2.982,2.782,4.625,6.56,4.625,10.636c0,5.473-3.025,10.43-7.895,12.938c-1.026,0.528-1.557,1.69-1.285,2.812
		s1.275,1.911,2.43,1.911h11.381c1.381,0,2.5-1.119,2.5-2.5s-1.119-2.5-2.5-2.5h-4.271c2.952-3.468,4.641-7.921,4.641-12.66
		c0-5.398-2.265-10.607-6.214-14.292c-4.005-3.736-9.239-5.577-14.72-5.203c-9.933,0.69-17.729,8.719-18.136,18.676
		c-0.204,4.99,1.525,9.79,4.653,13.479h-4.302c-7.415,0-13.448,6.032-13.448,13.447v41.966c0,1.381,1.119,2.5,2.5,2.5h39.212v16.747
		c0,1.381,1.119,2.5,2.5,2.5s2.5-1.119,2.5-2.5V80.792c0-6.01,4.889-10.898,10.897-10.898h13.929c1.154,0,2.158-0.79,2.43-1.911
		s-0.259-2.283-1.285-2.812c-6.146-3.165-9.964-9.423-9.964-16.331c0-5.146,2.073-9.913,5.838-13.426
		c3.761-3.509,8.666-5.251,13.836-4.886c9.17,0.638,16.648,8.341,17.025,17.538c0.292,7.128-3.613,13.842-9.948,17.104
		c-1.026,0.528-1.557,1.69-1.285,2.812s1.275,1.911,2.43,1.911h13.929c6.009,0,10.897,4.889,10.897,10.898v51.357
		c0,1.381,1.119,2.5,2.5,2.5s2.5-1.119,2.5-2.5v-16.747h39.212c1.381,0,2.5-1.119,2.5-2.5V70.937
		C209.076,63.521,203.043,57.489,195.628,57.489z"/>
	<path fill="#A58BC9" d="M128,169.382c-0.569,0-1.139-0.193-1.603-0.581c-1.132-0.945-27.734-23.339-27.734-38.992
		c0-9.616,7.824-17.439,17.44-17.439c4.491,0,8.692,1.678,11.896,4.681c3.204-3.003,7.405-4.681,11.896-4.681
		c9.616,0,17.44,7.823,17.44,17.439c0,15.653-26.603,38.047-27.734,38.992C129.139,169.188,128.569,169.382,128,169.382z
		 M116.104,117.369c-6.859,0-12.44,5.58-12.44,12.439c0,10.326,16.29,26.732,24.337,33.781c8.046-7.053,24.337-23.466,24.337-33.781
		c0-6.859-5.581-12.439-12.44-12.439c-3.919,0-7.53,1.792-9.907,4.915c-0.473,0.621-1.208,0.986-1.989,0.986
		s-1.517-0.365-1.989-0.986C123.634,119.161,120.022,117.369,116.104,117.369z"/>
</g>
</svg>
