<?xml version="1.0" encoding="utf-8"?>
<!-- Generator: Adobe Illustrator 24.0.0, SVG Export Plug-In . SVG Version: 6.00 Build 0)  -->
<svg version="1.1" id="Layer_1" xmlns="http://www.w3.org/2000/svg" xmlns:xlink="http://www.w3.org/1999/xlink" x="0px" y="0px"
	 viewBox="0 0 256 256" enable-background="new 0 0 256 256" xml:space="preserve">
<g>
	<path fill="#A58BC9" d="M128,120.951c-1.381,0-2.5-1.119-2.5-2.5v-7.143c0-1.381,1.119-2.5,2.5-2.5s2.5,1.119,2.5,2.5v7.143
		C130.5,119.832,129.381,120.951,128,120.951z"/>
	<path fill="#A58BC9" d="M128,43.058c-1.381,0-2.5-1.119-2.5-2.5V18.472c0-1.381,1.119-2.5,2.5-2.5s2.5,1.119,2.5,2.5v22.086
		C130.5,41.938,129.381,43.058,128,43.058z"/>
	<path fill="#A58BC9" d="M226.024,228.524H29.976c-1.381,0-2.5-1.119-2.5-2.5V29.976c0-1.381,1.119-2.5,2.5-2.5h33.991
		c1.381,0,2.5,1.119,2.5,2.5s-1.119,2.5-2.5,2.5H32.476v191.049h191.049V32.476h-31.491c-1.381,0-2.5-1.119-2.5-2.5
		s1.119-2.5,2.5-2.5h33.991c1.381,0,2.5,1.119,2.5,2.5v196.049C228.524,227.405,227.405,228.524,226.024,228.524z"/>
	<path fill="#A58BC9" d="M82.324,160.877c-0.792-1.131-2.352-1.406-3.482-0.613l-3.964,2.776l-3.964-2.776
		c-1.131-0.792-2.69-0.517-3.482,0.613c-0.792,1.131-0.518,2.69,0.613,3.482l4.096,2.869l-3.802,21.764
		c-0.142,0.814,0.127,1.646,0.72,2.223l4.076,3.967c0.485,0.472,1.114,0.708,1.743,0.708s1.259-0.236,1.744-0.709l4.075-3.967
		c0.592-0.576,0.86-1.407,0.719-2.222l-3.802-21.763l4.097-2.869C82.842,163.567,83.116,162.008,82.324,160.877z M74.878,189.901
		l-1.386-1.35l1.386-7.932l1.386,7.933L74.878,189.901z"/>
	<path fill="#A58BC9" d="M135.446,160.877c-0.792-1.131-2.351-1.406-3.482-0.613L128,163.04l-3.964-2.776
		c-1.131-0.792-2.689-0.517-3.482,0.613c-0.792,1.131-0.518,2.69,0.613,3.482l4.097,2.869l-3.802,21.763
		c-0.142,0.814,0.127,1.646,0.719,2.222l4.075,3.967c0.485,0.473,1.115,0.709,1.744,0.709s1.259-0.236,1.744-0.709l4.075-3.967
		c0.592-0.576,0.86-1.407,0.719-2.222l-3.802-21.763l4.097-2.869C135.964,163.567,136.238,162.008,135.446,160.877z M128,189.9
		l-1.386-1.348l1.386-7.931l1.386,7.931L128,189.9z"/>
	<path fill="#A58BC9" d="M188.568,160.877c-0.792-1.131-2.352-1.406-3.482-0.613l-3.964,2.776l-3.964-2.776
		c-1.13-0.792-2.689-0.517-3.482,0.613c-0.792,1.131-0.518,2.69,0.613,3.482l4.097,2.869l-3.802,21.763
		c-0.142,0.814,0.127,1.646,0.719,2.222l4.075,3.967c0.485,0.473,1.115,0.709,1.744,0.709s1.259-0.236,1.743-0.708l4.076-3.967
		c0.593-0.576,0.861-1.408,0.72-2.223l-3.802-21.764l4.096-2.869C189.086,163.567,189.36,162.008,188.568,160.877z M181.122,189.901
		l-1.386-1.349l1.386-7.933l1.386,7.932L181.122,189.901z"/>
	<g>
		<path fill="#846F75" d="M73.967,120.951h108.066c1.381,0,2.5-1.119,2.5-2.5V18.472c0-1.381-1.119-2.5-2.5-2.5H73.967
			c-1.381,0-2.5,1.119-2.5,2.5v99.979C71.467,119.832,72.586,120.951,73.967,120.951z M76.467,20.972h103.066v94.979H76.467V20.972z
			"/>
		<path fill="#846F75" d="M145.227,69.741h-2.652v-7.109c0-8.036-6.538-14.574-14.574-14.574s-14.574,6.538-14.574,14.574v7.109
			h-2.652c-1.381,0-2.5,1.119-2.5,2.5v29.067c0,1.381,1.119,2.5,2.5,2.5h34.453c1.381,0,2.5-1.119,2.5-2.5V72.241
			C147.727,70.86,146.607,69.741,145.227,69.741z M118.426,62.632c0-5.279,4.295-9.574,9.574-9.574s9.574,4.295,9.574,9.574v7.109
			h-19.148V62.632z M142.727,98.809h-29.453V74.741h29.453V98.809z"/>
		<path fill="#846F75" d="M128,77.051c-3.695,0-6.702,3.007-6.702,6.702c0,2.812,1.741,5.225,4.202,6.218v4.325
			c0,1.381,1.119,2.5,2.5,2.5s2.5-1.119,2.5-2.5v-4.325c2.461-0.993,4.202-3.406,4.202-6.218
			C134.702,80.058,131.695,77.051,128,77.051z M128,82.051c0.938,0,1.702,0.764,1.702,1.702s-0.764,1.702-1.702,1.702
			s-1.702-0.764-1.702-1.702S127.062,82.051,128,82.051z"/>
		<path fill="#846F75" d="M88.159,159.812h-1.436c1.679-2.49,2.574-5.494,2.447-8.6c-0.299-7.289-6.006-13.166-13.276-13.671
			c-4.011-0.265-7.842,1.074-10.773,3.809c-2.891,2.696-4.549,6.51-4.549,10.461c0,2.917,0.873,5.685,2.437,8.001h-1.413
			c-5.56,0-10.083,4.523-10.083,10.084v29.067c0,1.381,1.119,2.5,2.5,2.5h41.73c1.381,0,2.5-1.119,2.5-2.5v-29.067
			C98.243,164.335,93.72,159.812,88.159,159.812z M93.243,196.463h-36.73v-26.567c0-2.804,2.28-5.084,5.083-5.084h7.884
			c1.154,0,2.158-0.79,2.43-1.911s-0.259-2.283-1.285-2.812c-3.116-1.605-5.052-4.777-5.052-8.278c0-2.608,1.051-5.024,2.959-6.805
			c1.906-1.78,4.39-2.657,7.018-2.477c4.646,0.322,8.436,4.227,8.626,8.888c0.148,3.613-1.831,7.018-5.043,8.672
			c-1.026,0.528-1.557,1.69-1.285,2.812s1.275,1.911,2.43,1.911h7.883c2.804,0,5.084,2.28,5.084,5.084V196.463z"/>
		<path fill="#846F75" d="M141.282,159.812h-1.437c1.679-2.49,2.574-5.494,2.447-8.6c-0.299-7.289-6.006-13.166-13.276-13.671
			c-4.013-0.265-7.842,1.074-10.773,3.809c-2.891,2.696-4.549,6.51-4.549,10.461c0,2.917,0.873,5.685,2.437,8.001h-1.413
			c-5.56,0-10.083,4.523-10.083,10.084v29.067c0,1.381,1.119,2.5,2.5,2.5h41.73c1.381,0,2.5-1.119,2.5-2.5v-29.067
			C151.365,164.335,146.842,159.812,141.282,159.812z M146.365,196.463h-36.73v-26.567c0-2.804,2.28-5.084,5.083-5.084h7.884
			c1.154,0,2.158-0.79,2.43-1.911s-0.259-2.283-1.285-2.812c-3.116-1.605-5.052-4.777-5.052-8.278c0-2.608,1.051-5.024,2.959-6.805
			c1.906-1.78,4.392-2.657,7.018-2.477c4.646,0.322,8.436,4.227,8.626,8.888c0.148,3.613-1.831,7.018-5.043,8.672
			c-1.026,0.528-1.557,1.69-1.285,2.812s1.275,1.911,2.43,1.911h7.884c2.803,0,5.083,2.28,5.083,5.084V196.463z"/>
		<path fill="#846F75" d="M194.404,159.812h-1.436c1.678-2.489,2.573-5.494,2.446-8.599c-0.298-7.289-6.005-13.167-13.276-13.672
			c-4.008-0.265-7.841,1.073-10.772,3.808c-2.891,2.697-4.549,6.51-4.549,10.462c0,2.917,0.874,5.685,2.436,8.001h-1.412
			c-5.561,0-10.084,4.523-10.084,10.084v29.067c0,1.381,1.119,2.5,2.5,2.5h41.73c1.381,0,2.5-1.119,2.5-2.5v-29.067
			C204.487,164.335,199.964,159.812,194.404,159.812z M199.487,196.463h-36.73v-26.567c0-2.804,2.28-5.084,5.084-5.084h7.883
			c1.154,0,2.158-0.79,2.43-1.911s-0.259-2.283-1.285-2.812c-3.115-1.604-5.051-4.777-5.051-8.278c0-2.608,1.051-5.025,2.959-6.806
			c1.906-1.779,4.387-2.656,7.017-2.476c4.646,0.322,8.436,4.227,8.626,8.888c0.148,3.614-1.831,7.018-5.043,8.672
			c-1.026,0.528-1.557,1.69-1.285,2.812s1.275,1.911,2.43,1.911h7.884c2.803,0,5.083,2.28,5.083,5.084V196.463z"/>
	</g>
</g>
</svg>
