<?xml version="1.0" encoding="utf-8"?>
<!-- Generator: Adobe Illustrator 24.0.0, SVG Export Plug-In . SVG Version: 6.00 Build 0)  -->
<svg version="1.1" id="Layer_1" xmlns="http://www.w3.org/2000/svg" xmlns:xlink="http://www.w3.org/1999/xlink" x="0px" y="0px"
	 viewBox="0 0 256 256" enable-background="new 0 0 256 256" xml:space="preserve">
<g>
	<path fill="#EBE7F2" d="M134.616,59.283h-13.232c-7.766,0-14.083-6.317-14.083-14.082v-4.269c0-1.381,1.119-2.5,2.5-2.5
		s2.5,1.119,2.5,2.5v4.269c0,5.008,4.074,9.082,9.083,9.082h13.232c5.009,0,9.083-4.074,9.083-9.082v-4.269
		c0-1.381,1.119-2.5,2.5-2.5s2.5,1.119,2.5,2.5v4.269C148.699,52.966,142.382,59.283,134.616,59.283z"/>
	<path fill="#F9B087" d="M162.408,207.998H130.5v-44.571c0-1.381-1.119-2.5-2.5-2.5s-2.5,1.119-2.5,2.5v44.571H93.592
		c-1.381,0-2.5,1.119-2.5,2.5s1.119,2.5,2.5,2.5h68.816c1.381,0,2.5-1.119,2.5-2.5S163.789,207.998,162.408,207.998z"/>
	<path fill="#F9B087" d="M72.605,181.656c-0.792-1.131-2.352-1.405-3.482-0.613l-6.605,4.627l-6.605-4.627
		c-1.131-0.792-2.689-0.518-3.482,0.613c-0.792,1.132-0.518,2.69,0.613,3.482l6.738,4.719l-5.796,33.177
		c-0.142,0.814,0.127,1.646,0.719,2.223l6.069,5.907c0.485,0.472,1.115,0.708,1.744,0.708s1.259-0.236,1.744-0.708l6.069-5.907
		c0.592-0.577,0.86-1.408,0.719-2.223l-5.796-33.177l6.738-4.719C73.123,184.347,73.397,182.788,72.605,181.656z M62.518,225.885
		l-3.38-3.289l3.38-19.346l3.38,19.346L62.518,225.885z"/>
	<path fill="#F9B087" d="M213.52,210.258h-9.117c-1.381,0-2.5-1.119-2.5-2.5s1.119-2.5,2.5-2.5h9.117c1.381,0,2.5,1.119,2.5,2.5
		S214.9,210.258,213.52,210.258z"/>
	<path fill="#F9B087" d="M202.696,180.884c-1.219-0.648-2.732-0.188-3.381,1.033l-5.833,10.963l-5.833-10.963
		c-0.648-1.221-2.164-1.682-3.381-1.033c-1.22,0.648-1.682,2.162-1.033,3.381l7.747,14.561v37.973c0,1.381,1.119,2.5,2.5,2.5
		s2.5-1.119,2.5-2.5v-37.973l7.747-14.561C204.378,183.046,203.916,181.532,202.696,180.884z"/>
	<g>
		<path fill="#846F75" d="M71.198,46.743c1.381,0,2.5-1.119,2.5-2.5V33.912c0-3.963,3.225-7.188,7.188-7.188h9.154
			c3.963,0,7.188,3.225,7.188,7.188v7.021c0,1.381,1.119,2.5,2.5,2.5s2.5-1.119,2.5-2.5v-7.021c0-6.72-5.468-12.188-12.188-12.188
			h-9.154c-6.72,0-12.188,5.468-12.188,12.188v10.331C68.698,45.624,69.817,46.743,71.198,46.743z"/>
		<path fill="#846F75" d="M156.272,43.433c1.381,0,2.5-1.119,2.5-2.5v-7.021c0-3.963,3.225-7.188,7.188-7.188h9.154
			c3.963,0,7.188,3.225,7.188,7.188v10.331c0,1.381,1.119,2.5,2.5,2.5s2.5-1.119,2.5-2.5V33.912c0-6.72-5.468-12.188-12.188-12.188
			h-9.154c-6.72,0-12.188,5.468-12.188,12.188v7.021C153.772,42.313,154.892,43.433,156.272,43.433z"/>
		<path fill="#846F75" d="M123.344,92.714h9.313c1.381,0,2.5-1.119,2.5-2.5s-1.119-2.5-2.5-2.5h-9.313c-1.381,0-2.5,1.119-2.5,2.5
			S121.963,92.714,123.344,92.714z"/>
		<path fill="#846F75" d="M180.237,62.167c-5.128,0-9.3,4.172-9.3,9.3c0,5.129,4.172,9.301,9.3,9.301s9.3-4.172,9.3-9.301
			C189.537,66.339,185.365,62.167,180.237,62.167z M180.237,75.768c-2.371,0-4.3-1.93-4.3-4.301s1.929-4.3,4.3-4.3
			s4.3,1.929,4.3,4.3S182.608,75.768,180.237,75.768z"/>
		<path fill="#846F75" d="M180.237,86.249c-5.128,0-9.3,4.172-9.3,9.3s4.172,9.3,9.3,9.3s9.3-4.172,9.3-9.3
			S185.365,86.249,180.237,86.249z M180.237,99.849c-2.371,0-4.3-1.929-4.3-4.3s1.929-4.3,4.3-4.3s4.3,1.929,4.3,4.3
			S182.608,99.849,180.237,99.849z"/>
		<path fill="#846F75" d="M165.041,71.467c0-5.128-4.172-9.3-9.3-9.3s-9.3,4.172-9.3,9.3c0,5.129,4.172,9.301,9.3,9.301
			S165.041,76.596,165.041,71.467z M155.741,75.768c-2.371,0-4.3-1.93-4.3-4.301s1.929-4.3,4.3-4.3s4.3,1.929,4.3,4.3
			S158.112,75.768,155.741,75.768z"/>
		<path fill="#846F75" d="M101.808,94.312c3.661-3.739,5.921-8.854,5.921-14.488c0-5.636-2.262-10.754-5.926-14.493
			c-0.043-0.051-0.089-0.101-0.137-0.149c-0.048-0.048-0.097-0.092-0.147-0.135c-3.741-3.674-8.865-5.943-14.51-5.943
			c-11.426,0-20.721,9.295-20.721,20.721c0,11.425,9.295,20.72,20.721,20.72c5.634,0,10.75-2.26,14.489-5.922
			c0.055-0.046,0.11-0.095,0.162-0.147C101.712,94.421,101.761,94.367,101.808,94.312z M99.747,89.026l-9.195-9.195l9.201-9.201
			c1.872,2.587,2.976,5.764,2.976,9.194C102.729,83.257,101.623,86.437,99.747,89.026z M96.221,67.092l-9.204,9.204l-9.21-9.21
			c2.589-1.876,5.769-2.983,9.203-2.983C90.447,64.103,93.631,65.212,96.221,67.092z M74.272,70.62l9.21,9.21l-9.204,9.204
			c-1.879-2.59-2.989-5.773-2.989-9.211C71.289,76.389,72.396,73.209,74.272,70.62z M77.816,92.567l9.201-9.201l9.195,9.195
			c-2.589,1.875-5.769,2.982-9.202,2.982C83.58,95.543,80.403,94.438,77.816,92.567z"/>
		<path fill="#846F75" d="M82.298,180.591h-4.608c3.284-3.808,5.105-8.795,4.893-13.981c-0.419-10.23-8.43-18.48-18.635-19.189
			c-5.635-0.387-11.011,1.507-15.126,5.346c-4.058,3.786-6.385,9.139-6.385,14.686c0,4.93,1.777,9.558,4.88,13.14h-4.579
			c-7.605,0-13.793,6.188-13.793,13.793v43.29c0,1.381,1.119,2.5,2.5,2.5h62.147c1.381,0,2.5-1.119,2.5-2.5v-43.29
			C96.092,186.778,89.904,180.591,82.298,180.591z M91.092,235.174H33.944v-40.79c0-4.849,3.944-8.793,8.793-8.793h11.74
			c1.154,0,2.158-0.79,2.43-1.911s-0.259-2.283-1.285-2.812c-5.049-2.601-8.186-7.742-8.186-13.417
			c0-4.228,1.703-8.144,4.796-11.029c3.089-2.883,7.109-4.31,11.369-4.014c7.532,0.523,13.675,6.851,13.984,14.406
			c0.24,5.855-2.968,11.372-8.174,14.054c-1.025,0.528-1.556,1.69-1.284,2.812s1.276,1.911,2.43,1.911h11.74
			c4.849,0,8.794,3.944,8.794,8.793V235.174z"/>
		<path fill="#846F75" d="M213.263,180.591h-4.608c3.283-3.808,5.104-8.795,4.892-13.981c-0.419-10.23-8.43-18.48-18.635-19.189
			c-5.635-0.387-11.01,1.507-15.125,5.346c-4.058,3.786-6.385,9.139-6.385,14.686c0,4.93,1.777,9.558,4.88,13.14h-4.579
			c-7.606,0-13.794,6.188-13.794,13.793v43.29c0,1.381,1.119,2.5,2.5,2.5h62.147c1.381,0,2.5-1.119,2.5-2.5v-43.29
			C227.056,186.778,220.868,180.591,213.263,180.591z M222.056,235.174h-57.147v-40.79c0-4.849,3.945-8.793,8.794-8.793h11.74
			c1.154,0,2.158-0.79,2.43-1.911s-0.259-2.283-1.285-2.812c-5.049-2.601-8.186-7.742-8.186-13.417
			c0-4.228,1.703-8.145,4.796-11.029c3.089-2.883,7.112-4.306,11.368-4.014c7.532,0.523,13.675,6.851,13.984,14.406
			c0.24,5.855-2.968,11.372-8.173,14.054c-1.025,0.528-1.556,1.69-1.284,2.812s1.276,1.911,2.43,1.911h11.74
			c4.849,0,8.793,3.944,8.793,8.793V235.174z"/>
		<path fill="#846F75" d="M128,115.872c-13.8,0-25.027,11.228-25.027,25.027S114.2,165.927,128,165.927s25.027-11.228,25.027-25.027
			S141.8,115.872,128,115.872z M128,160.927c-11.043,0-20.027-8.984-20.027-20.027s8.984-20.027,20.027-20.027
			s20.027,8.984,20.027,20.027S139.043,160.927,128,160.927z"/>
	</g>
	<path fill="#F9B087" d="M116.839,150.722c-0.64,0-1.279-0.244-1.768-0.732c-0.977-0.977-0.977-2.559,0-3.535l5.554-5.555
		l-5.554-5.554c-0.977-0.976-0.977-2.559,0-3.535s2.559-0.977,3.535,0l7.322,7.321c0.469,0.469,0.732,1.104,0.732,1.768
		s-0.264,1.299-0.732,1.768l-7.322,7.322C118.118,150.478,117.479,150.722,116.839,150.722z"/>
	<path fill="#F9B087" d="M139.161,150.722c-0.64,0-1.279-0.244-1.768-0.732l-7.322-7.322c-0.469-0.469-0.732-1.104-0.732-1.768
		s0.264-1.299,0.732-1.768l7.322-7.321c0.977-0.977,2.559-0.977,3.535,0s0.977,2.56,0,3.535l-5.554,5.554l5.554,5.555
		c0.977,0.977,0.977,2.559,0,3.535C140.44,150.478,139.801,150.722,139.161,150.722z"/>
	<path fill="#F9B087" d="M71.161,130.83c-4.094,0-8.165-1.192-11.973-3.563c-33.653-23.062-9.868-90.381,25.852-88.833
		c0-0.001,85.92-0.001,85.92-0.001c23.105,0,41.902,24.886,41.902,55.475c0,14.41-6.15,27.192-16.051,33.359
		c-6.913,4.304-14.691,4.724-21.903,1.18l-39.233-19.275c-4.95-2.432-10.401-2.432-15.35,0l-39.233,19.275
		C77.853,130.037,74.499,130.83,71.161,130.83z M128,102.336c3.347,0,6.694,0.782,9.88,2.347l39.233,19.275
		c17.892,7.954,30.961-11.952,30.749-30.051c0-27.832-16.555-50.475-36.902-50.475H85.04c-20.348,0-36.902,22.643-36.902,50.475
		c-0.222,18.093,12.866,38.01,30.749,30.051c0,0,39.233-19.276,39.233-19.276C121.306,103.118,124.653,102.336,128,102.336z"/>
</g>
</svg>
