<?xml version="1.0" encoding="utf-8"?>
<!-- Generator: Adobe Illustrator 24.0.0, SVG Export Plug-In . SVG Version: 6.00 Build 0)  -->
<svg version="1.1" id="Layer_1" xmlns="http://www.w3.org/2000/svg" xmlns:xlink="http://www.w3.org/1999/xlink" x="0px" y="0px"
	 viewBox="0 0 256 256" enable-background="new 0 0 256 256" xml:space="preserve">
<g>
	<path fill="#EBE7F2" d="M141.897,179.874c-1.381,0-2.5-1.119-2.5-2.5v-8.047l-65.154-7.544c-1.372-0.159-2.354-1.399-2.196-2.771
		s1.392-2.358,2.771-2.196l67.366,7.8c1.261,0.146,2.212,1.214,2.212,2.483v10.274C144.397,178.755,143.278,179.874,141.897,179.874
		z"/>
	<path fill="#EBE7F2" d="M178.644,175.863c-7.027,0-12.744-5.717-12.744-12.744s5.717-12.744,12.744-12.744
		c7.027,0,12.744,5.717,12.744,12.744S185.671,175.863,178.644,175.863z M178.644,155.375c-4.27,0-7.744,3.474-7.744,7.744
		s3.474,7.744,7.744,7.744s7.744-3.474,7.744-7.744S182.914,155.375,178.644,155.375z"/>
	<path fill="#EBE7F2" d="M48.98,175.863c-7.027,0-12.744-5.717-12.744-12.744s5.717-12.744,12.744-12.744
		s12.744,5.717,12.744,12.744S56.008,175.863,48.98,175.863z M48.98,155.375c-4.27,0-7.744,3.474-7.744,7.744
		s3.474,7.744,7.744,7.744s7.744-3.474,7.744-7.744S53.25,155.375,48.98,155.375z"/>
	<path fill="#F9B087" d="M226.024,144.882c-1.381,0-2.5-1.119-2.5-2.5V32.476h-21.491c-1.381,0-2.5-1.119-2.5-2.5s1.119-2.5,2.5-2.5
		h23.991c1.381,0,2.5,1.119,2.5,2.5v112.406C228.524,143.763,227.405,144.882,226.024,144.882z"/>
	<path fill="#F9B087" d="M226.024,228.524H29.976c-1.381,0-2.5-1.119-2.5-2.5v-27.072c0-1.381,1.119-2.5,2.5-2.5s2.5,1.119,2.5,2.5
		v24.572h191.049v-36.15c0-1.381,1.119-2.5,2.5-2.5s2.5,1.119,2.5,2.5v38.65C228.524,227.405,227.405,228.524,226.024,228.524z"/>
	<path fill="#F9B087" d="M29.976,118.317c-1.381,0-2.5-1.119-2.5-2.5V29.976c0-1.381,1.119-2.5,2.5-2.5h23.991
		c1.381,0,2.5,1.119,2.5,2.5s-1.119,2.5-2.5,2.5H32.476v83.342C32.476,117.198,31.356,118.317,29.976,118.317z"/>
	<path fill="#EBE7F2" d="M213.271,209.63H43.687c-1.381,0-2.5-1.119-2.5-2.5s1.119-2.5,2.5-2.5h169.583c1.381,0,2.5,1.119,2.5,2.5
		S214.652,209.63,213.271,209.63z"/>
	<g>
		<path fill="#846F75" d="M235.596,162.665l-11.829-11.007c-16.512-23.037-39.694-38.06-68.905-44.653
			c-0.739-0.166-1.518,0.011-2.111,0.485c-0.593,0.475-0.939,1.193-0.939,1.953v20.047l-12.767-12.693l7.338-7.039
			c0.997-0.955,1.029-2.538,0.074-3.534c-0.956-0.995-2.538-1.029-3.535-0.073l-18.747,17.982c-0.997,0.955-1.029,2.538-0.074,3.534
			c0.491,0.512,1.147,0.77,1.805,0.77c0.622,0,1.246-0.231,1.73-0.696l7.8-7.482l16.376,16.281v14.277h-22.363
			c-15.048,0-28.575-8.948-34.461-22.796l-4.268-10.042c-2.85-6.704-9.399-11.036-16.685-11.036h-8.116
			c-0.839,0-1.622,0.421-2.085,1.121c-0.463,0.699-0.544,1.585-0.216,2.356l1.829,4.304H48.98c-1.381,0-2.5,1.119-2.5,2.5v6.093
			H21.85c-1.381,0-2.5,1.119-2.5,2.5v12.257c0,1.381,1.119,2.5,2.5,2.5h9.988c-6.797,5.18-11.191,13.359-11.191,22.545
			c0,15.623,12.71,28.333,28.333,28.333c9.359,0,17.673-4.562,22.835-11.578h83.994c5.162,7.016,13.475,11.578,22.834,11.578
			c9.359,0,17.673-4.562,22.835-11.578h27.349c5.479,0,9.936-4.457,9.936-9.936C238.764,167.188,237.609,164.537,235.596,162.665z
			 M216.9,150.817h-12.736c-4.587-9.479-14.303-16.031-25.521-16.031c-8.775,0-16.631,4.01-21.832,10.294v-32.474
			C182.093,118.908,201.817,131.448,216.9,150.817z M74.035,111.943c5.276,0,10.02,3.138,12.083,7.992l4.268,10.041
			c3.868,9.101,10.646,16.333,18.983,20.806c-14.391-0.617-27.164-9.412-32.838-22.761l-4.992-11.745
			c-0.007-0.018-0.015-0.036-0.023-0.053l-1.819-4.28H74.035z M51.48,119.725h16.092l4.358,10.253
			c3.878,9.123,10.682,16.37,19.05,20.84H74.501c-4.243-8.767-12.873-15.031-23.021-15.922V119.725z M24.35,135.574v-7.257h22.13
			v6.578c-1.415,0.125-2.8,0.353-4.148,0.679H24.35z M48.98,186.452c-12.866,0-23.333-10.467-23.333-23.333
			c0-10.785,7.354-19.883,17.311-22.545h0.107c0.438,0,0.85-0.113,1.208-0.311c1.521-0.313,3.095-0.477,4.707-0.477
			c12.866,0,23.333,10.467,23.333,23.333S61.846,186.452,48.98,186.452z M74.758,174.874c1.64-3.583,2.555-7.564,2.555-11.755
			c0-2.524-0.332-4.971-0.954-7.302h74.906c-0.622,2.331-0.954,4.778-0.954,7.302c0,4.191,0.915,8.172,2.555,11.755H74.758z
			 M178.644,186.452c-12.866,0-23.333-10.467-23.333-23.333s10.467-23.333,23.333-23.333s23.333,10.467,23.333,23.333
			S191.51,186.452,178.644,186.452z M228.828,174.874h-24.406c1.64-3.583,2.555-7.564,2.555-11.755c0-2.524-0.332-4.971-0.954-7.302
			h14.875l11.292,10.508c1,0.931,1.573,2.247,1.573,3.613C233.764,172.66,231.549,174.874,228.828,174.874z"/>
		<path fill="#846F75" d="M57.763,57.496c0.001,0.002,0.002,0.004,0.003,0.006c0.002,0.003,0.003,0.006,0.005,0.009l13.475,26.011
			c0.305,0.588,0.832,1.032,1.463,1.232c0.247,0.078,0.502,0.117,0.756,0.117c0.396,0,0.792-0.095,1.15-0.28l37.283-19.316
			c0.008-0.004,0.017-0.008,0.025-0.013c0.005-0.003,0.01-0.006,0.015-0.008l9.622-4.985l3.623,6.993L109.69,97.167
			c-0.635,1.227-0.156,2.735,1.07,3.37c0.368,0.19,0.761,0.281,1.148,0.281c0.904,0,1.777-0.492,2.222-1.351L128,72.696
			l13.87,26.772c0.445,0.858,1.317,1.351,2.222,1.351c0.387,0,0.781-0.091,1.148-0.281c1.226-0.635,1.705-2.144,1.07-3.37
			l-15.494-29.906l3.623-6.992l9.622,4.985c0.005,0.003,0.01,0.006,0.015,0.008c0.008,0.004,0.017,0.008,0.025,0.013l37.283,19.316
			c0.358,0.186,0.753,0.28,1.15,0.28c0.254,0,0.51-0.039,0.756-0.117c0.632-0.2,1.159-0.645,1.463-1.232l13.475-26.011
			c0.002-0.003,0.003-0.006,0.005-0.009c0.001-0.002,0.002-0.004,0.003-0.006l6.5-12.547c0.635-1.227,0.156-2.735-1.07-3.37
			l-24.872-12.885c0,0,0,0-0.001,0s0,0-0.001,0l-24.293-12.586c-0.587-0.305-1.275-0.362-1.906-0.163
			c-0.632,0.2-1.158,0.645-1.463,1.232l-19.983,38.572l0,0L128,61.826l-18.454-35.619l-4.679-9.031
			c-0.305-0.588-0.832-1.032-1.463-1.232c-0.632-0.201-1.318-0.143-1.906,0.163L77.205,28.692c0,0,0,0-0.001,0s0,0-0.001,0
			L52.333,41.578c-1.226,0.635-1.705,2.144-1.07,3.37L57.763,57.496z M174.276,31.982l-4.204,8.114l-7.996-4.143l4.204-8.114
			L174.276,31.982z M186.712,38.425l-4.204,8.114l-7.997-4.143l4.204-8.114L186.712,38.425z M187.968,66.448l-7.996-4.143
			l4.676-9.027l7.996,4.143L187.968,66.448z M175.532,60.005l-7.997-4.143l4.677-9.027l7.997,4.143L175.532,60.005z M161.031,68.415
			l4.204-8.114l7.997,4.143l-4.204,8.114L161.031,68.415z M148.596,61.972l4.204-8.114l7.996,4.143l-4.204,8.114L148.596,61.972z
			 M159.776,40.393l7.996,4.143l-4.677,9.026l-7.996-4.143L159.776,40.393z M150.659,47.119l-7.417-3.843l4.677-9.026l7.418,3.843
			L150.659,47.119z M157.636,33.653l-7.418-3.843l4.204-8.114l7.418,3.843L157.636,33.653z M140.942,47.715l7.417,3.843
			l-4.204,8.114l-7.417-3.843L140.942,47.715z M181.464,79.001l-7.996-4.143l4.204-8.114l7.996,4.143L181.464,79.001z
			 M194.944,52.982l-7.996-4.143l4.204-8.114l7.996,4.143L194.944,52.982z M77.285,34.282l4.204,8.114l-7.997,4.143l-4.204-8.114
			L77.285,34.282z M89.721,27.839l4.204,8.114l-7.996,4.143l-4.204-8.114L89.721,27.839z M99.408,66.115l-4.204-8.114l7.996-4.143
			l4.204,8.114L99.408,66.115z M86.972,72.558l-4.204-8.114l7.997-4.143l4.204,8.114L86.972,72.558z M92.905,53.562l-4.677-9.026
			l7.996-4.143l4.677,9.026L92.905,53.562z M100.664,38.092l7.418-3.843l4.677,9.027l-7.418,3.843L100.664,38.092z M101.578,21.696
			l4.204,8.114l-7.418,3.843l-4.204-8.114L101.578,21.696z M83.788,46.835l4.677,9.027l-7.997,4.143l-4.676-9.027L83.788,46.835z
			 M76.028,62.305l-7.996,4.143l-4.676-9.027l7.996-4.143L76.028,62.305z M74.536,79.001l-4.204-8.114l7.996-4.143l4.204,8.114
			L74.536,79.001z M111.844,59.672l-4.204-8.114l7.418-3.843l4.204,8.114L111.844,59.672z M64.848,40.725l4.204,8.114l-7.996,4.143
			l-4.204-8.115L64.848,40.725z"/>
	</g>
</g>
</svg>
