<?xml version="1.0" encoding="utf-8"?>
<!-- Generator: Adobe Illustrator 24.0.0, SVG Export Plug-In . SVG Version: 6.00 Build 0)  -->
<svg version="1.1" id="Layer_1" xmlns="http://www.w3.org/2000/svg" xmlns:xlink="http://www.w3.org/1999/xlink" x="0px" y="0px"
	 viewBox="0 0 256 256" enable-background="new 0 0 256 256" xml:space="preserve">
<g>
	<path fill="#F9B087" d="M166.317,93.185c-0.655,0-1.293-0.258-1.768-0.732c-0.615-0.614-0.866-1.504-0.664-2.35l6.98-29.16
		c0.231-0.965,1.012-1.703,1.989-1.878c0.977-0.178,1.965,0.244,2.519,1.068l4.771,7.111l28.651-28.651l-2.087-6.064
		c-0.311-0.904-0.079-1.905,0.597-2.581l16.37-16.371c0.609-0.61,1.492-0.862,2.33-0.668c0.84,0.194,1.521,0.808,1.802,1.623
		l3.783,10.997l10.997,3.784c0.815,0.28,1.429,0.961,1.622,1.801c0.194,0.84-0.059,1.721-0.668,2.33l-16.37,16.371
		c-0.676,0.676-1.676,0.906-2.581,0.597l-6.237-2.146l-28.595,28.594l7.111,4.771c0.824,0.553,1.244,1.542,1.068,2.519
		s-0.913,1.758-1.879,1.989l-29.16,6.981C166.706,93.163,166.511,93.185,166.317,93.185z M174.4,67.656l-4.703,19.649l19.648-4.704
		l-4.897-3.286c-0.621-0.417-1.023-1.089-1.096-1.833s0.191-1.482,0.721-2.01l31.85-31.849c0.676-0.676,1.676-0.906,2.581-0.597
		l6.237,2.146l12.436-12.437l-8.366-2.878c-0.728-0.251-1.3-0.823-1.551-1.551l-2.878-8.366l-12.437,12.437l2.087,6.064
		c0.311,0.904,0.079,1.906-0.597,2.581L181.53,72.929c-0.527,0.528-1.252,0.794-2.011,0.721c-0.744-0.073-1.416-0.475-1.833-1.096
		L174.4,67.656z"/>
	<g>
		<path fill="#846F75" d="M200.398,128c0,39.92-32.478,72.398-72.398,72.398S55.602,167.92,55.602,128S88.079,55.602,128,55.602
			c11.767,0,23.446,2.886,33.777,8.345c1.219,0.645,2.732,0.179,3.378-1.042c0.646-1.221,0.179-2.733-1.042-3.378
			c-11.048-5.838-23.536-8.924-36.113-8.924c-42.678,0-77.398,34.721-77.398,77.398S85.322,205.398,128,205.398
			s77.398-34.721,77.398-77.398c0-12.25-2.779-23.968-8.262-34.829c-0.622-1.233-2.125-1.727-3.358-1.105
			c-1.232,0.622-1.727,2.126-1.104,3.358C197.8,105.58,200.398,116.54,200.398,128z"/>
		<path fill="#846F75" d="M207.818,68.005c-0.83-1.104-2.396-1.326-3.501-0.494c-1.103,0.83-1.324,2.397-0.493,3.5
			c12.444,16.53,19.021,36.236,19.021,56.988c0,52.298-42.548,94.846-94.846,94.846S33.154,180.298,33.154,128
			S75.702,33.154,128,33.154c21.247,0,41.33,6.866,58.077,19.855c1.092,0.847,2.662,0.648,3.508-0.443s0.647-2.662-0.443-3.508
			C171.509,35.382,150.366,28.154,128,28.154c-55.055,0-99.846,44.791-99.846,99.846S72.945,227.846,128,227.846
			s99.846-44.791,99.846-99.846C227.846,106.155,220.921,85.409,207.818,68.005z"/>
	</g>
	<path fill="#F9B087" d="M123.073,148.758c-2.314,0-4.491-0.901-6.128-2.539l-14.327-14.327c-1.638-1.637-2.539-3.813-2.539-6.129
		s0.901-4.492,2.539-6.129c1.636-1.636,3.813-2.538,6.129-2.538c2.315,0,4.492,0.901,6.128,2.538l8.198,8.197l18.052-18.051
		c1.636-1.637,3.813-2.539,6.128-2.539c0.001,0,0,0,0,0c2.316,0,4.493,0.901,6.13,2.539c1.637,1.637,2.538,3.813,2.538,6.129
		s-0.901,4.492-2.539,6.129l-24.181,24.18C127.564,147.856,125.388,148.758,123.073,148.758z M108.747,122.097
		c-0.98,0-1.901,0.381-2.594,1.073c-0.692,0.693-1.074,1.614-1.074,2.594s0.382,1.9,1.074,2.593l14.327,14.327
		c1.385,1.385,3.801,1.385,5.186,0l24.181-24.181c0.692-0.693,1.074-1.614,1.074-2.594s-0.382-1.901-1.074-2.593
		c-1.384-1.385-3.802-1.386-5.186,0l-19.82,19.819c-0.977,0.977-2.559,0.977-3.535,0l-9.966-9.965
		C110.647,122.478,109.727,122.097,108.747,122.097z"/>
	<path fill="#F9B087" d="M128,172.833c-24.721,0-44.833-20.112-44.833-44.833S103.279,83.167,128,83.167
		s44.833,20.112,44.833,44.833S152.721,172.833,128,172.833z M128,88.167c-21.964,0-39.833,17.869-39.833,39.833
		s17.869,39.833,39.833,39.833s39.833-17.869,39.833-39.833S149.964,88.167,128,88.167z"/>
	<path fill="#EBE7F2" d="M128,189.802c-34.078,0-61.803-27.725-61.803-61.802S93.922,66.198,128,66.198
		c11.264,0,22.288,3.06,31.883,8.849c1.183,0.713,1.563,2.25,0.85,3.432c-0.714,1.183-2.254,1.562-3.432,0.849
		c-8.816-5.319-18.948-8.13-29.301-8.13c-31.321,0-56.803,25.481-56.803,56.802S96.679,184.802,128,184.802
		s56.803-25.481,56.803-56.802c0-10.203-2.735-20.208-7.911-28.934c-0.704-1.188-0.313-2.721,0.875-3.426
		c1.188-0.705,2.721-0.313,3.426,0.875c5.633,9.497,8.61,20.384,8.61,31.484C189.803,162.078,162.078,189.802,128,189.802z"/>
</g>
</svg>
