<?xml version="1.0" encoding="utf-8"?>
<!-- Generator: Adobe Illustrator 24.0.0, SVG Export Plug-In . SVG Version: 6.00 Build 0)  -->
<svg version="1.1" id="Layer_1" xmlns="http://www.w3.org/2000/svg" xmlns:xlink="http://www.w3.org/1999/xlink" x="0px" y="0px"
	 viewBox="0 0 256 256" enable-background="new 0 0 256 256" xml:space="preserve">
<g>
	<path fill="#ED9ABC" d="M82.324,174.878c-0.792-1.13-2.352-1.405-3.482-0.614l-3.964,2.776l-3.964-2.776
		c-1.131-0.791-2.69-0.516-3.482,0.614c-0.792,1.131-0.518,2.69,0.613,3.482l4.096,2.869l-3.803,21.763
		c-0.142,0.814,0.127,1.646,0.719,2.222l4.076,3.967c0.485,0.472,1.115,0.708,1.744,0.708s1.259-0.236,1.744-0.708l4.075-3.967
		c0.592-0.577,0.86-1.408,0.719-2.222l-3.802-21.763l4.097-2.869C82.842,177.568,83.116,176.009,82.324,174.878z M74.878,203.901
		l-1.386-1.349l1.386-7.932l1.386,7.932L74.878,203.901z"/>
	<path fill="#ED9ABC" d="M135.446,174.878c-0.792-1.13-2.351-1.405-3.482-0.614L128,177.041l-3.964-2.776
		c-1.131-0.791-2.689-0.516-3.482,0.614c-0.792,1.131-0.518,2.69,0.613,3.482l4.097,2.869l-3.802,21.763
		c-0.142,0.814,0.127,1.645,0.719,2.222l4.075,3.967c0.485,0.472,1.115,0.708,1.744,0.708s1.259-0.236,1.744-0.708l4.075-3.967
		c0.592-0.577,0.86-1.408,0.719-2.222l-3.802-21.763l4.097-2.869C135.964,177.568,136.238,176.009,135.446,174.878z M128,203.9
		l-1.386-1.349l1.386-7.93l1.386,7.93L128,203.9z"/>
	<path fill="#ED9ABC" d="M188.568,174.878c-0.792-1.13-2.352-1.405-3.482-0.614l-3.964,2.776l-3.964-2.776
		c-1.13-0.791-2.689-0.516-3.482,0.614c-0.792,1.131-0.518,2.69,0.613,3.482l4.097,2.869l-3.802,21.763
		c-0.142,0.814,0.127,1.645,0.719,2.222l4.075,3.967c0.485,0.472,1.115,0.708,1.744,0.708s1.259-0.236,1.744-0.708l4.076-3.967
		c0.592-0.576,0.86-1.408,0.719-2.222l-3.802-21.763l4.096-2.869C189.086,177.568,189.36,176.009,188.568,174.878z M181.122,203.901
		l-1.386-1.349l1.386-7.932l1.386,7.932L181.122,203.901z"/>
	<path fill="#ED9ABC" d="M82.324,104.402c-0.792-1.131-2.352-1.406-3.482-0.614l-3.964,2.777l-3.964-2.777
		c-1.131-0.792-2.69-0.516-3.482,0.614c-0.792,1.131-0.518,2.689,0.613,3.482l4.096,2.869l-3.803,21.763
		c-0.142,0.814,0.127,1.646,0.719,2.222l4.076,3.967c0.485,0.472,1.115,0.708,1.744,0.708s1.259-0.236,1.744-0.708l4.075-3.967
		c0.592-0.577,0.86-1.408,0.719-2.222l-3.802-21.763l4.097-2.869C82.842,107.092,83.116,105.533,82.324,104.402z M74.878,133.426
		l-1.386-1.349l1.386-7.932l1.386,7.932L74.878,133.426z"/>
	<path fill="#ED9ABC" d="M135.446,104.402c-0.792-1.131-2.351-1.406-3.482-0.614L128,106.565l-3.964-2.777
		c-1.131-0.792-2.689-0.516-3.482,0.614c-0.792,1.131-0.518,2.689,0.613,3.482l4.097,2.869l-3.802,21.763
		c-0.142,0.814,0.127,1.645,0.719,2.222l4.075,3.967c0.485,0.472,1.115,0.708,1.744,0.708s1.259-0.236,1.744-0.708l4.075-3.967
		c0.592-0.577,0.86-1.408,0.719-2.222l-3.802-21.763l4.097-2.869C135.964,107.092,136.238,105.533,135.446,104.402z M128,133.425
		l-1.386-1.349l1.386-7.93l1.386,7.93L128,133.425z"/>
	<path fill="#ED9ABC" d="M188.568,104.402c-0.792-1.131-2.352-1.406-3.482-0.614l-3.964,2.777l-3.964-2.777
		c-1.13-0.792-2.689-0.516-3.482,0.614c-0.792,1.131-0.518,2.689,0.613,3.482l4.097,2.869l-3.802,21.763
		c-0.142,0.814,0.127,1.645,0.719,2.222l4.075,3.967c0.485,0.472,1.115,0.708,1.744,0.708s1.259-0.236,1.744-0.708l4.076-3.967
		c0.592-0.576,0.86-1.408,0.719-2.222l-3.802-21.763l4.096-2.869C189.086,107.092,189.36,105.533,188.568,104.402z M181.122,133.426
		l-1.386-1.349l1.386-7.932l1.386,7.932L181.122,133.426z"/>
	<path fill="#ED9ABC" d="M128,73.249c-18.095,0-32.816-14.722-32.816-32.817S109.905,7.615,128,7.615s32.816,14.722,32.816,32.817
		S146.095,73.249,128,73.249z M128,12.615c-15.338,0-27.816,12.479-27.816,27.817S112.662,68.249,128,68.249
		s27.816-12.479,27.816-27.817S143.338,12.615,128,12.615z"/>
	<g>
		<path fill="#846F75" d="M88.159,173.812h-1.436c1.679-2.49,2.574-5.495,2.447-8.6c-0.299-7.289-6.006-13.167-13.276-13.671
			c-4.011-0.277-7.842,1.074-10.773,3.809c-2.891,2.697-4.549,6.51-4.549,10.461c0,2.917,0.874,5.685,2.437,8.001h-1.413
			c-5.56,0-10.083,4.523-10.083,10.083v29.068c0,1.381,1.119,2.5,2.5,2.5h41.73c1.381,0,2.5-1.119,2.5-2.5v-29.068
			C98.243,178.335,93.72,173.812,88.159,173.812z M93.243,210.463h-36.73v-26.568c0-2.803,2.28-5.083,5.083-5.083h7.884
			c1.154,0,2.158-0.79,2.43-1.911c0.271-1.121-0.259-2.283-1.285-2.812c-3.116-1.605-5.052-4.777-5.052-8.279
			c0-2.608,1.051-5.025,2.959-6.806c1.907-1.779,4.39-2.659,7.018-2.476c4.646,0.323,8.436,4.227,8.626,8.888
			c0.148,3.613-1.831,7.018-5.044,8.673c-1.025,0.528-1.556,1.69-1.284,2.811c0.271,1.122,1.276,1.911,2.43,1.911h7.883
			c2.804,0,5.084,2.28,5.084,5.083V210.463z"/>
		<path fill="#846F75" d="M141.282,173.812h-1.437c1.679-2.49,2.574-5.495,2.447-8.6c-0.299-7.289-6.006-13.167-13.276-13.671
			c-4.013-0.277-7.842,1.074-10.773,3.809c-2.891,2.697-4.549,6.51-4.549,10.461c0,2.917,0.874,5.685,2.437,8.001h-1.413
			c-5.56,0-10.083,4.523-10.083,10.083v29.068c0,1.381,1.119,2.5,2.5,2.5h41.73c1.381,0,2.5-1.119,2.5-2.5v-29.068
			C151.365,178.335,146.842,173.812,141.282,173.812z M146.365,210.463h-36.73v-26.568c0-2.803,2.28-5.083,5.083-5.083h7.884
			c1.154,0,2.158-0.79,2.43-1.911c0.271-1.121-0.259-2.283-1.285-2.812c-3.116-1.605-5.052-4.777-5.052-8.279
			c0-2.608,1.051-5.025,2.959-6.806c1.907-1.779,4.392-2.659,7.018-2.476c4.646,0.323,8.436,4.227,8.626,8.888
			c0.148,3.613-1.831,7.018-5.044,8.673c-1.025,0.528-1.556,1.69-1.284,2.811c0.271,1.122,1.276,1.911,2.43,1.911h7.884
			c2.803,0,5.083,2.28,5.083,5.083V210.463z"/>
		<path fill="#846F75" d="M194.404,173.812h-1.437c1.679-2.49,2.574-5.495,2.447-8.6c-0.298-7.289-6.005-13.167-13.276-13.672
			c-4.007-0.274-7.841,1.074-10.772,3.808c-2.891,2.697-4.549,6.51-4.549,10.462c0,2.917,0.874,5.685,2.436,8.001h-1.412
			c-5.561,0-10.084,4.523-10.084,10.083v29.068c0,1.381,1.119,2.5,2.5,2.5h41.73c1.381,0,2.5-1.119,2.5-2.5v-29.068
			C204.487,178.335,199.964,173.812,194.404,173.812z M199.487,210.463h-36.73v-26.568c0-2.803,2.28-5.083,5.084-5.083h7.883
			c1.154,0,2.158-0.79,2.43-1.911c0.271-1.121-0.259-2.283-1.285-2.812c-3.115-1.605-5.051-4.777-5.051-8.279
			c0-2.608,1.051-5.025,2.959-6.806c1.906-1.778,4.387-2.658,7.017-2.476c4.646,0.323,8.436,4.227,8.626,8.888
			c0.148,3.614-1.831,7.018-5.043,8.672c-1.026,0.528-1.557,1.69-1.285,2.812c0.271,1.122,1.275,1.911,2.43,1.911h7.884
			c2.803,0,5.083,2.28,5.083,5.083V210.463z"/>
		<path fill="#846F75" d="M88.159,103.336h-1.436c1.679-2.49,2.574-5.495,2.447-8.6c-0.299-7.289-6.006-13.166-13.276-13.671
			c-4.011-0.276-7.842,1.073-10.773,3.809c-2.891,2.697-4.549,6.51-4.549,10.461c0,2.917,0.873,5.685,2.437,8.001h-1.413
			c-5.56,0-10.083,4.523-10.083,10.083v29.068c0,1.381,1.119,2.5,2.5,2.5h41.73c1.381,0,2.5-1.119,2.5-2.5V113.42
			C98.243,107.86,93.72,103.336,88.159,103.336z M93.243,139.988h-36.73V113.42c0-2.803,2.28-5.083,5.083-5.083h7.884
			c1.154,0,2.158-0.79,2.43-1.911c0.271-1.121-0.259-2.283-1.285-2.812c-3.116-1.605-5.052-4.777-5.052-8.278
			c0-2.608,1.051-5.025,2.959-6.806c1.907-1.779,4.39-2.658,7.018-2.476c4.646,0.323,8.436,4.227,8.626,8.888
			c0.148,3.614-1.831,7.018-5.043,8.672c-1.026,0.528-1.557,1.69-1.285,2.812c0.271,1.122,1.275,1.911,2.43,1.911h7.883
			c2.804,0,5.084,2.28,5.084,5.083V139.988z"/>
		<path fill="#846F75" d="M141.282,103.336h-1.437c1.679-2.49,2.574-5.495,2.447-8.6c-0.299-7.289-6.006-13.166-13.276-13.671
			c-4.013-0.276-7.842,1.073-10.773,3.809c-2.891,2.697-4.549,6.51-4.549,10.461c0,2.917,0.873,5.685,2.437,8.001h-1.413
			c-5.56,0-10.083,4.523-10.083,10.083v29.068c0,1.381,1.119,2.5,2.5,2.5h41.73c1.381,0,2.5-1.119,2.5-2.5V113.42
			C151.365,107.86,146.842,103.336,141.282,103.336z M146.365,139.988h-36.73V113.42c0-2.803,2.28-5.083,5.083-5.083h7.884
			c1.154,0,2.158-0.79,2.43-1.911c0.271-1.121-0.259-2.283-1.285-2.812c-3.116-1.605-5.052-4.777-5.052-8.278
			c0-2.608,1.051-5.025,2.959-6.806c1.907-1.779,4.392-2.658,7.018-2.476c4.646,0.323,8.436,4.227,8.626,8.888
			c0.148,3.614-1.831,7.018-5.043,8.672c-1.026,0.528-1.557,1.69-1.285,2.812c0.271,1.122,1.275,1.911,2.43,1.911h7.884
			c2.803,0,5.083,2.28,5.083,5.083V139.988z"/>
		<path fill="#846F75" d="M194.404,103.336h-1.436c1.678-2.49,2.573-5.495,2.446-8.6c-0.298-7.289-6.005-13.167-13.276-13.671
			c-4.007-0.278-7.841,1.074-10.772,3.808c-2.891,2.697-4.549,6.51-4.549,10.462c0,2.917,0.874,5.685,2.436,8.001h-1.412
			c-5.561,0-10.084,4.523-10.084,10.083v29.068c0,1.381,1.119,2.5,2.5,2.5h41.73c1.381,0,2.5-1.119,2.5-2.5V113.42
			C204.487,107.86,199.964,103.336,194.404,103.336z M199.487,139.988h-36.73V113.42c0-2.803,2.28-5.083,5.084-5.083h7.883
			c1.154,0,2.158-0.79,2.43-1.911c0.271-1.121-0.259-2.283-1.285-2.812c-3.115-1.605-5.051-4.777-5.051-8.278
			c0-2.608,1.051-5.025,2.959-6.806c1.906-1.778,4.387-2.658,7.017-2.476c4.646,0.323,8.436,4.227,8.626,8.888
			c0.148,3.614-1.831,7.019-5.043,8.672c-1.026,0.528-1.557,1.69-1.285,2.812s1.275,1.911,2.43,1.911h7.884
			c2.803,0,5.083,2.28,5.083,5.083V139.988z"/>
		<path fill="#846F75" d="M120.37,53.479c-1.381,0-2.5,1.119-2.5,2.5s1.119,2.5,2.5,2.5h5.13v2.307c0,1.381,1.119,2.5,2.5,2.5
			s2.5-1.119,2.5-2.5v-2.307h5.13c1.381,0,2.5-1.119,2.5-2.5V40.719c0-1.381-1.119-2.5-2.5-2.5h-12.76V27.96h12.76
			c1.381,0,2.5-1.119,2.5-2.5s-1.119-2.5-2.5-2.5h-5.13v-2.307c0-1.381-1.119-2.5-2.5-2.5s-2.5,1.119-2.5,2.5v2.307h-5.13
			c-1.381,0-2.5,1.119-2.5,2.5v15.259c0,1.381,1.119,2.5,2.5,2.5h12.76v10.259H120.37z"/>
	</g>
	<path fill="#ED9ABC" d="M226.024,228.524H29.976c-1.381,0-2.5-1.119-2.5-2.5V29.976c0-1.381,1.119-2.5,2.5-2.5H89.36
		c1.381,0,2.5,1.119,2.5,2.5s-1.119,2.5-2.5,2.5H32.476v191.049h191.049V32.476h-57.06c-1.381,0-2.5-1.119-2.5-2.5
		s1.119-2.5,2.5-2.5h59.56c1.381,0,2.5,1.119,2.5,2.5v196.049C228.524,227.405,227.405,228.524,226.024,228.524z"/>
</g>
</svg>
