<?xml version="1.0" encoding="utf-8"?>
<!-- Generator: Adobe Illustrator 24.0.0, SVG Export Plug-In . SVG Version: 6.00 Build 0)  -->
<svg version="1.1" id="Layer_1" xmlns="http://www.w3.org/2000/svg" xmlns:xlink="http://www.w3.org/1999/xlink" x="0px" y="0px"
	 viewBox="0 0 256 256" enable-background="new 0 0 256 256" xml:space="preserve">
<g>
	<g>
		<path fill="#846F75" d="M123.963,102.283c-1.939,0-3.901,0.515-5.603,1.527c0.881-10.583-9.965-15.949-17.683-10.979
			c0.73-8.926-4.72-14.528-12.16-14.635c-4.991,0-10.126,2.99-11.689,8.793c-7.535-5.692-19.382-1.76-19.795,9.491
			c0,0,0,62.06,0,62.06c-1.764-1.637-3.818-3.77-5.752-5.673c-12.577-13.183-33.039-2.053-18.684,15.052
			c7.462,10.226,16.62,21.447,25.614,32.518c5.767,7.396,12.557,15.814,23.341,15.399c0,0,28.477,0,28.477,0
			c13.519,0,24.518-12.443,24.518-27.738l-0.001-75.373C134.334,105.867,129.064,102.283,123.963,102.283z M129.546,188.098
			c0,12.538-8.756,22.738-19.518,22.738l-28.559,0.001c-8.486,0.274-14.005-6.722-19.329-13.492
			c-8.947-11.027-18.138-22.269-25.572-32.466c-2.521-2.937-5.586-8.574-2.798-11.009c4.143-3.51,10.507-1.381,13.81,2.359
			c3.556,3.504,6.748,7.043,10.546,9.591c1.58,1.142,3.965-0.117,3.907-2.066c0,0-0.001-67.197-0.001-67.197
			c0.304-9.592,14.005-9.593,14.323-0.013c0,0,0,41.038,0,41.038c0.085,3.298,4.916,3.296,5,0
			c-0.001-3.783,0.001-44.815-0.001-47.231c0.287-9.581,13.992-9.577,14.324-0.077c0,0,0,47.309,0,47.309c0.08,3.297,4.92,3.296,5,0
			c0,0,0-35.28,0-35.28c0.267-8.479,12.385-8.468,12.683-0.064c0,0,0,35.344,0,35.344c0,1.381,1.119,2.5,2.5,2.5s2.5-1.119,2.5-2.5
			v-24.723c0.144-7.312,10.919-7.628,11.185-0.057C129.546,112.801,129.546,188.098,129.546,188.098z"/>
		<path fill="#846F75" d="M225.515,112.06c-6.209-5.416-15.741-2.945-20.796,2.764c-0.816,0.807-4.678,4.679-5.752,5.674
			l-0.001-62.136c-0.412-11.16-12.279-15.098-19.783-9.422c-1.55-5.781-6.698-8.786-11.7-8.785
			c-7.369,0.082-12.887,5.704-12.161,14.634c-7.71-4.953-18.513,0.352-17.683,10.979c-6.651-3.829-15.82-0.304-16.185,8.991
			c0,0,0,19.636,0,19.636c0.084,3.295,4.916,3.299,5,0c0,0-0.001-19.559-0.001-19.559c0.232-7.667,11.039-7.338,11.186-0.019
			c0,0,0,24.723,0,24.723c0.092,3.301,4.912,3.296,5,0c0,0-0.001-35.267-0.001-35.267c0.135-4.38,3.282-6.341,6.343-6.341
			c3.056,0,6.2,1.957,6.341,6.328v35.28c0.086,3.297,4.916,3.297,5,0c0,0-0.001-47.231-0.001-47.231
			c0.151-4.941,3.707-7.153,7.162-7.153c3.456,0,7.011,2.211,7.162,7.076V99.54c0.078,3.293,4.919,3.299,5,0c0,0,0-41.037,0-41.037
			c0.157-4.932,3.708-7.14,7.16-7.14c3.456,0,7.012,2.212,7.162,7.076v67.274c-0.069,1.94,2.339,3.217,3.907,2.066
			c3.042-2.072,10.506-9.546,10.546-9.592c3.379-3.864,9.881-5.783,13.812-2.356c2.745,2.388-0.195,7.937-2.693,10.874
			c-0.037,0.043-24.651,31.293-25.679,32.6c-5.325,6.771-10.837,13.764-19.411,13.49h-32.833c-3.266,0.045-3.313,4.932,0,5
			c0,0,33.212,0.01,33.439,0.01c10.616,0,17.047-8.177,22.734-15.409c1.05-1.335,18.837-23.35,25.614-32.519
			C228.023,124.406,230.645,116.521,225.515,112.06z"/>
	</g>
	<path fill="#65C1D6" d="M226.024,228.524H29.976c-1.381,0-2.5-1.119-2.5-2.5v-49.859c0-1.381,1.119-2.5,2.5-2.5s2.5,1.119,2.5,2.5
		v47.359h191.049v-86.073c0-1.381,1.119-2.5,2.5-2.5s2.5,1.119,2.5,2.5v88.573C228.524,227.405,227.405,228.524,226.024,228.524z"/>
	<path fill="#65C1D6" d="M29.976,144.796c-1.381,0-2.5-1.119-2.5-2.5V29.976c0-1.381,1.119-2.5,2.5-2.5h196.049
		c1.381,0,2.5,1.119,2.5,2.5v75.38c0,1.381-1.119,2.5-2.5,2.5s-2.5-1.119-2.5-2.5v-72.88H32.476v109.821
		C32.476,143.677,31.356,144.796,29.976,144.796z"/>
	<path fill="#65C1D6" d="M163.28,182.438h-13.747c-1.381,0-2.5,1.119-2.5,2.5s1.119,2.5,2.5,2.5h7.712l-24.14,24.14
		c-0.977,0.976-0.977,2.559,0,3.535c0.488,0.488,1.128,0.732,1.768,0.732s1.279-0.244,1.768-0.732l24.14-24.139v7.711
		c0,1.381,1.119,2.5,2.5,2.5s2.5-1.119,2.5-2.5v-13.747C165.78,183.558,164.661,182.438,163.28,182.438z"/>
	<path fill="#65C1D6" d="M131.832,42.924c-0.977-0.977-2.559-0.977-3.535,0l-24.14,24.14v-7.712c0-1.381-1.119-2.5-2.5-2.5
		s-2.5,1.119-2.5,2.5v13.747c0,1.381,1.119,2.5,2.5,2.5h13.747c1.381,0,2.5-1.119,2.5-2.5s-1.119-2.5-2.5-2.5h-7.711l24.139-24.139
		C132.809,45.483,132.809,43.9,131.832,42.924z"/>
</g>
</svg>
