<?xml version="1.0" encoding="utf-8"?>
<!-- Generator: Adobe Illustrator 24.0.0, SVG Export Plug-In . SVG Version: 6.00 Build 0)  -->
<svg version="1.1" id="Layer_1" xmlns="http://www.w3.org/2000/svg" xmlns:xlink="http://www.w3.org/1999/xlink" x="0px" y="0px"
	 viewBox="0 0 256 256" enable-background="new 0 0 256 256" xml:space="preserve">
<g>
	<path fill="#EBE7F2" d="M149.895,188.633h-43.789c-1.381,0-2.5-1.119-2.5-2.5s1.119-2.5,2.5-2.5h43.789c1.381,0,2.5,1.119,2.5,2.5
		S151.275,188.633,149.895,188.633z"/>
	<path fill="#EBE7F2" d="M149.895,200.656h-43.789c-1.381,0-2.5-1.119-2.5-2.5s1.119-2.5,2.5-2.5h43.789c1.381,0,2.5,1.119,2.5,2.5
		S151.275,200.656,149.895,200.656z"/>
	<path fill="#EBE7F2" d="M45.643,159.598c-1.381,0-2.5-1.119-2.5-2.5c0-4.306-1.912-8.533-5.246-11.598
		c-6.128-5.633-9.643-13.633-9.643-21.949c0-15.528,11.647-28.296,27.092-29.701c1.375-0.123,2.592,0.888,2.716,2.263
		c0.126,1.375-0.888,2.591-2.263,2.716c-12.853,1.169-22.545,11.797-22.545,24.722c0,6.921,2.926,13.579,8.026,18.269
		c4.361,4.009,6.862,9.578,6.862,15.279C48.143,158.479,47.023,159.598,45.643,159.598z"/>
	<path fill="#EBE7F2" d="M76.053,199.457H43.479c-1.381,0-2.5-1.119-2.5-2.5s1.119-2.5,2.5-2.5h32.574c1.381,0,2.5,1.119,2.5,2.5
		S77.434,199.457,76.053,199.457z"/>
	<path fill="#EBE7F2" d="M76.053,208.777H43.479c-1.381,0-2.5-1.119-2.5-2.5s1.119-2.5,2.5-2.5h32.574c1.381,0,2.5,1.119,2.5,2.5
		S77.434,208.777,76.053,208.777z"/>
	<path fill="#EBE7F2" d="M210.357,159.598c-1.381,0-2.5-1.119-2.5-2.5c0-5.701,2.501-11.27,6.863-15.279
		c5.1-4.689,8.025-11.348,8.025-18.269c0-12.925-9.692-23.553-22.545-24.722c-1.375-0.125-2.389-1.341-2.263-2.716
		c0.124-1.375,1.35-2.387,2.716-2.263c15.444,1.405,27.092,14.173,27.092,29.701c0,8.316-3.515,16.316-9.642,21.949
		c-3.335,3.065-5.247,7.292-5.247,11.598C212.857,158.479,211.738,159.598,210.357,159.598z"/>
	<path fill="#EBE7F2" d="M212.521,199.457h-32.574c-1.381,0-2.5-1.119-2.5-2.5s1.119-2.5,2.5-2.5h32.574c1.381,0,2.5,1.119,2.5,2.5
		S213.902,199.457,212.521,199.457z"/>
	<path fill="#EBE7F2" d="M212.521,208.777h-32.574c-1.381,0-2.5-1.119-2.5-2.5s1.119-2.5,2.5-2.5h32.574c1.381,0,2.5,1.119,2.5,2.5
		S213.902,208.777,212.521,208.777z"/>
	<g>
		<path fill="#846F75" d="M171.282,135.458c13.142-12.082,20.679-29.239,20.679-47.072c0-17.669-7.413-34.719-20.339-46.778
			c-13.106-12.227-30.229-18.269-48.188-17.024c-15.601,1.084-30.264,7.946-41.289,19.32C71.126,55.272,64.714,70.142,64.091,85.775
			c-0.76,19.089,6.938,37.36,21.119,50.13c7.828,7.049,12.317,17.452,12.317,28.542v0.765c0,4.188,2.498,7.795,6.078,9.434v29.501
			c0,6.398,5.206,11.604,11.604,11.604h2.41v7.407c0,4.642,3.776,8.417,8.418,8.417h3.924c4.642,0,8.418-3.776,8.418-8.417v-7.407
			h2.41c6.398,0,11.604-5.206,11.604-11.604v-29.501c3.58-1.639,6.078-5.247,6.078-9.434v-1.368
			C158.473,153.288,163.142,142.942,171.282,135.458z M133.38,223.158c0,1.884-1.533,3.417-3.418,3.417h-3.924
			c-1.885,0-3.418-1.533-3.418-3.417v-7.407h10.76V223.158z M140.79,210.751h-25.58c-3.642,0-6.604-2.962-6.604-6.604v-28.556
			h38.789v28.556C147.395,207.789,144.432,210.751,140.79,210.751z M153.473,163.844v1.368c0,2.966-2.413,5.379-5.38,5.379h-40.186
			c-2.967,0-5.38-2.413-5.38-5.379v-0.765c0-12.504-5.093-24.261-13.972-32.257c-13.073-11.771-20.169-28.616-19.469-46.215
			c1.179-29.579,25.203-54.354,54.692-56.403c1.43-0.1,2.851-0.149,4.266-0.149c14.997,0,29.126,5.542,40.166,15.841
			c11.916,11.116,18.75,26.833,18.75,43.122c0,16.438-6.948,32.254-19.063,43.392C158.73,140.205,153.473,151.893,153.473,163.844z"
			/>
		<path fill="#846F75" d="M88.68,156.527c-6.74,6.069-10.605,14.988-10.605,24.471v0.569c0,1.854-1.508,3.362-3.361,3.362H44.819
			c-1.854,0-3.362-1.508-3.362-3.362v-1.018c0-9.069-3.986-17.936-10.938-24.326c-8.881-8.164-13.974-19.757-13.974-31.807
			c0-22.502,16.875-41.005,39.253-43.041c1.375-0.125,2.389-1.341,2.263-2.716c-0.124-1.375-1.341-2.386-2.716-2.263
			c-24.97,2.271-43.8,22.915-43.8,48.02c0,13.445,5.682,26.38,15.589,35.488c5.925,5.446,9.322,12.971,9.322,20.645v1.018
			c0,3.226,1.839,6.026,4.521,7.42v21.544c0,5.113,4.159,9.272,9.272,9.272h1.153v4.87c0,3.806,3.097,6.902,6.902,6.902h2.919
			c3.806,0,6.902-3.096,6.902-6.902v-4.87h1.152c5.113,0,9.272-4.16,9.272-9.272v-21.544c2.682-1.394,4.521-4.194,4.521-7.42v-0.569
			c0-8.068,3.263-15.633,8.951-20.755c1.026-0.924,1.109-2.505,0.185-3.531C91.287,155.687,89.705,155.603,88.68,156.527z
			 M63.128,224.673c0,1.049-0.854,1.902-1.902,1.902h-2.919c-1.049,0-1.902-0.853-1.902-1.902v-4.87h6.724V224.673z M69.28,214.804
			H50.251c-2.355,0-4.272-1.917-4.272-4.272V189.93h27.574v20.602C73.553,212.887,71.636,214.804,69.28,214.804z"/>
		<path fill="#846F75" d="M200.654,76.397c-1.366-0.124-2.592,0.888-2.716,2.263c-0.126,1.375,0.888,2.591,2.263,2.716
			c22.378,2.035,39.253,20.539,39.253,43.041c0,12.05-5.093,23.644-13.974,31.807c-6.951,6.39-10.938,15.257-10.938,24.326v1.018
			c0,1.854-1.509,3.362-3.362,3.362h-29.894c-1.854,0-3.361-1.508-3.361-3.362v-0.569c0-9.483-3.865-18.402-10.605-24.471
			c-1.025-0.923-2.606-0.841-3.53,0.185c-0.925,1.026-0.842,2.607,0.185,3.531c5.688,5.122,8.951,12.687,8.951,20.755v0.569
			c0,3.226,1.839,6.026,4.521,7.42v21.544c0,5.113,4.159,9.272,9.272,9.272h1.152v4.87c0,3.806,3.097,6.902,6.902,6.902h2.919
			c3.806,0,6.902-3.096,6.902-6.902v-4.87h1.153c5.113,0,9.272-4.16,9.272-9.272v-21.544c2.682-1.394,4.521-4.194,4.521-7.42v-1.018
			c0-7.674,3.397-15.199,9.322-20.645c9.907-9.107,15.589-22.042,15.589-35.488C244.454,99.313,225.624,78.668,200.654,76.397z
			 M199.596,224.673c0,1.049-0.854,1.902-1.902,1.902h-2.919c-1.049,0-1.902-0.853-1.902-1.902v-4.87h6.724V224.673z
			 M205.749,214.804H186.72c-2.355,0-4.272-1.917-4.272-4.272V189.93h27.574v20.602
			C210.021,212.887,208.104,214.804,205.749,214.804z"/>
	</g>
	<path fill="#ED9ABC" d="M123.073,108.758c-2.314,0-4.491-0.901-6.128-2.539l-14.327-14.327c-1.638-1.637-2.539-3.813-2.539-6.129
		s0.901-4.492,2.539-6.129c1.636-1.636,3.813-2.538,6.129-2.538c2.315,0,4.492,0.901,6.128,2.538l8.198,8.197l18.052-18.051
		c1.636-1.637,3.813-2.539,6.128-2.539c0.001,0,0,0,0,0c2.316,0,4.493,0.901,6.13,2.539c1.637,1.637,2.538,3.813,2.538,6.129
		s-0.901,4.492-2.539,6.129l-24.181,24.18C127.564,107.856,125.388,108.758,123.073,108.758z M108.747,82.097
		c-0.98,0-1.901,0.381-2.594,1.073c-0.692,0.693-1.074,1.614-1.074,2.594s0.382,1.9,1.074,2.593l14.327,14.327
		c1.385,1.385,3.801,1.385,5.186,0l24.181-24.181c0.692-0.693,1.074-1.614,1.074-2.594s-0.382-1.901-1.074-2.593
		c-1.383-1.385-3.801-1.385-5.186,0l-19.82,19.819c-0.977,0.977-2.559,0.977-3.535,0l-9.966-9.965
		C110.647,82.478,109.727,82.097,108.747,82.097z"/>
	<path fill="#ED9ABC" d="M128,132.833c-24.721,0-44.833-20.112-44.833-44.833S103.279,43.167,128,43.167S172.833,63.279,172.833,88
		S152.721,132.833,128,132.833z M128,48.167c-21.964,0-39.833,17.869-39.833,39.833s17.869,39.833,39.833,39.833
		S167.833,109.964,167.833,88S149.964,48.167,128,48.167z"/>
</g>
</svg>
