<?xml version="1.0" encoding="utf-8"?>
<!-- Generator: Adobe Illustrator 24.0.0, SVG Export Plug-In . SVG Version: 6.00 Build 0)  -->
<svg version="1.1" id="Layer_1" xmlns="http://www.w3.org/2000/svg" xmlns:xlink="http://www.w3.org/1999/xlink" x="0px" y="0px"
	 viewBox="0 0 256 256" enable-background="new 0 0 256 256" xml:space="preserve">
<g>
	<path fill="#EBE7F2" d="M136.185,140.05h-14.842c-1.381,0-2.5-1.119-2.5-2.5s1.119-2.5,2.5-2.5h14.842
		c5.787,0,10.495-4.708,10.495-10.495s-4.708-10.495-10.495-10.495h-13.46c-1.381,0-2.5-1.119-2.5-2.5s1.119-2.5,2.5-2.5h13.46
		c8.544,0,15.495,6.951,15.495,15.495S144.729,140.05,136.185,140.05z"/>
	<path fill="#F9B087" d="M126.881,152.678c-0.941,0-1.881-0.009-2.816-0.027c-1.38-0.026-2.479-1.167-2.452-2.547
		c0.026-1.381,1.15-2.485,2.548-2.452c0.904,0.017,1.811,0.026,2.721,0.026c37.022,0,69.146-14.833,81.239-21.21
		c1.046-0.552,1.159-1.521,1.159-1.912s-0.113-1.36-1.159-1.912c-11.525-6.078-35.133-16.78-63.744-20.161
		c-1.372-0.162-2.352-1.405-2.189-2.776c0.162-1.371,1.399-2.348,2.775-2.189c29.416,3.477,53.658,14.464,65.49,20.704
		c2.36,1.245,3.827,3.672,3.827,6.335s-1.467,5.09-3.827,6.335C195.022,139.027,163.648,152.678,126.881,152.678z"/>
	<path fill="#F9B087" d="M101.034,150.455c-0.138,0-0.278-0.012-0.419-0.035c-25.94-4.377-47.042-14.116-57.312-19.532
		c-2.359-1.244-3.824-3.67-3.824-6.332s1.465-5.087,3.824-6.332c12.929-6.819,39.36-18.649,71.112-21.271
		c1.383-0.103,2.584,0.91,2.697,2.286c0.114,1.376-0.909,2.583-2.285,2.697c-30.867,2.548-56.601,14.07-69.192,20.711
		c-1.044,0.55-1.156,1.518-1.156,1.909s0.112,1.358,1.156,1.909c10.005,5.276,30.559,14.764,55.812,19.024
		c1.361,0.23,2.279,1.52,2.049,2.881C103.29,149.591,102.232,150.455,101.034,150.455z"/>
	<g>
		<path fill="#846F75" d="M95.061,178.556c-2.509-0.726-4.188-2.215-6.134-3.939c-2.994-2.654-6.388-5.662-13.014-5.662
			c-6.625,0-10.019,3.008-13.012,5.662c-2.775,2.46-4.968,4.404-9.696,4.404s-6.92-1.943-9.695-4.404
			c-2.993-2.654-6.387-5.662-13.012-5.662c-1.381,0-2.5,1.119-2.5,2.5s1.119,2.5,2.5,2.5c4.729,0,6.92,1.943,9.695,4.404
			c2.993,2.654,6.387,5.662,13.012,5.662c6.626,0,10.02-3.008,13.013-5.663c2.775-2.46,4.968-4.403,9.695-4.403
			c8.599-0.023,9.924,7.262,17.759,9.404C96.839,184.198,98.22,179.558,95.061,178.556z"/>
		<path fill="#846F75" d="M134.349,174.617c-0.364-0.324-0.729-0.647-1.101-0.966c-1.046-0.899-2.626-0.781-3.525,0.268
			c-0.899,1.047-0.78,2.625,0.268,3.525c3.704,3.195,6.669,6.493,14.055,6.576c6.627,0,10.021-3.008,13.015-5.662
			c2.775-2.46,4.968-4.404,9.697-4.404c4.73,0,7.033,2.041,9.699,4.404c2.99,2.659,6.432,5.681,13.055,5.662
			c6.625,0,10.019-3.008,13.012-5.662c2.41-2.214,4.764-4.003,8.022-4.313c4.89-0.666,8.515,1.498,11.37,4.313
			c2.994,2.654,6.388,5.662,13.014,5.662c1.381,0,2.5-1.119,2.5-2.5s-1.119-2.5-2.5-2.5c-4.729,0-6.922-1.943-9.697-4.404
			c-2.99-2.658-6.423-5.678-13.045-5.662c-6.627,0-10.021,3.008-13.016,5.662c-5.458,5.655-13.407,6.15-19.355,0
			c-2.989-2.659-6.439-5.685-13.059-5.662c-6.626,0-10.02,3.008-13.014,5.662c-2.666,2.363-4.969,4.404-9.698,4.404
			C139.316,179.021,137.124,177.077,134.349,174.617z"/>
		<path fill="#846F75" d="M91.809,197.176c-4.942-3.635-7.353-7.926-15.896-8.022c-6.625,0-10.019,3.008-13.012,5.662
			c-2.775,2.46-4.968,4.404-9.696,4.404s-6.92-1.943-9.695-4.404c-2.993-2.654-6.387-5.662-13.012-5.662c-1.381,0-2.5,1.119-2.5,2.5
			s1.119,2.5,2.5,2.5c4.729,0,6.92,1.943,9.695,4.404c2.993,2.654,6.387,5.662,13.012,5.662c6.626,0,10.02-3.008,13.013-5.663
			c2.775-2.46,4.968-4.403,9.695-4.403c6.477-0.076,8.59,4.042,13.052,7.134C91.702,203.094,94.485,199.127,91.809,197.176z"/>
		<path fill="#846F75" d="M30.498,80.157c6.625,0,10.019-3.008,13.012-5.662c2.775-2.46,4.967-4.404,9.695-4.404
			s6.921,1.943,9.696,4.404c2.993,2.654,6.387,5.662,13.012,5.662c6.626,0,10.02-3.008,13.014-5.662
			c2.775-2.46,4.968-4.404,9.697-4.404s6.922,1.943,9.697,4.404c2.994,2.654,6.388,5.662,13.014,5.662
			c2.906-0.131,9.136-0.436,7.86-4.456c-0.522-1.278-1.979-1.891-3.26-1.369c-1.36,0.556-2.865,0.826-4.601,0.826
			c-4.729,0-6.922-1.943-9.697-4.404c-2.994-2.654-6.388-5.662-13.014-5.662s-10.02,3.008-13.014,5.662
			c-2.775,2.46-4.968,4.404-9.697,4.404c-4.728,0-6.92-1.943-9.695-4.403c-2.993-2.654-6.387-5.663-13.013-5.663
			c-6.625,0-10.019,3.008-13.012,5.662c-2.775,2.46-4.967,4.404-9.695,4.404C27.237,75.225,27.171,80.069,30.498,80.157z"/>
		<path fill="#846F75" d="M162.099,79.719c6.6,1.559,12.785-0.872,17.099-5.225c2.666-2.362,4.968-4.403,9.696-4.404
			c4.579,0.022,6.812,1.821,9.692,4.404c2.991,2.655,6.408,5.673,13.031,5.662c6.613-0.006,10.003-3.01,12.995-5.662
			c2.775-2.46,4.968-4.404,9.697-4.404c3.269-0.07,3.32-4.914,0-5c-6.626,0-10.019,3.008-13.014,5.662
			c-2.774,2.459-4.966,4.402-9.69,4.404c-4.726-0.002-7.028-2.042-9.693-4.404c-2.994-2.654-6.395-5.665-13.021-5.662
			c-6.625,0-10.019,3.008-13.012,5.662c-2.781,2.454-4.97,4.382-9.697,4.404c-1.081,0-2.053-0.102-2.971-0.312
			c-1.344-0.31-2.687,0.535-2.994,1.88C159.91,78.071,160.752,79.412,162.099,79.719z"/>
		<path fill="#846F75" d="M30.498,59.958c6.625,0,10.019-3.008,13.012-5.662c2.775-2.46,4.967-4.404,9.695-4.404
			s6.921,1.943,9.696,4.404c2.993,2.654,6.387,5.662,13.012,5.662c6.626,0,10.02-3.008,13.014-5.662
			c2.775-2.46,4.968-4.404,9.697-4.404s6.922,1.943,9.697,4.404c2.994,2.654,6.388,5.662,13.014,5.662s10.019-3.007,13.013-5.661
			c1.033-0.916,1.129-2.496,0.213-3.529c-0.916-1.032-2.496-1.129-3.529-0.212c-2.665,2.362-4.968,4.403-9.696,4.403
			c-4.729,0-6.922-1.943-9.697-4.404c-2.994-2.654-6.388-5.662-13.014-5.662S88.604,47.9,85.61,50.554
			c-2.775,2.46-4.968,4.404-9.697,4.404c-4.728,0-6.92-1.943-9.695-4.403c-2.993-2.654-6.387-5.663-13.013-5.663
			c-6.625,0-10.019,3.008-13.012,5.662c-2.775,2.46-4.967,4.404-9.695,4.404C27.238,55.025,27.171,59.87,30.498,59.958z"/>
		<path fill="#846F75" d="M166.184,59.958c6.626,0,10.02-3.008,13.013-5.663c2.775-2.46,4.968-4.403,9.695-4.403
			c4.729,0,6.92,1.943,9.695,4.404c2.993,2.654,6.387,5.662,13.012,5.662c6.626,0,10.02-3.008,13.014-5.662
			c2.775-2.46,4.968-4.404,9.697-4.404c1.381,0,2.5-1.119,2.5-2.5s-1.119-2.5-2.5-2.5c-6.626,0-10.02,3.008-13.014,5.662
			c-2.775,2.46-4.968,4.404-9.697,4.404c-4.729,0-6.92-1.943-9.695-4.404c-2.993-2.654-6.387-5.662-13.012-5.662
			s-10.019,3.008-13.012,5.662c-2.775,2.46-4.968,4.404-9.696,4.404C162.91,55.03,162.868,59.872,166.184,59.958z"/>
		<path fill="#846F75" d="M234.929,199.22c-4.729,0-6.922-1.943-9.697-4.404c-2.994-2.654-6.387-5.662-13.013-5.662
			c-6.624-0.016-10.057,3.005-13.048,5.662c-5.32,5.609-13.525,6.149-19.355,0c-2.992-2.654-6.399-5.669-13.022-5.661
			c-6.621-0.021-10.06,3.004-13.05,5.661c-2.666,2.363-4.969,4.404-9.698,4.404c-5.938,0.011-8.102-3.268-11.859-6.249
			c-2.587-1.98-5.663,1.791-3.105,3.919c4.304,3.499,6.985,7.222,14.965,7.33c6.627,0,10.021-3.008,13.015-5.662
			c2.775-2.46,4.968-4.404,9.697-4.404c4.73,0,7.033,2.041,9.699,4.404c2.994,2.654,6.389,5.662,13.016,5.662
			c6.621,0.019,10.061-3.004,13.051-5.662c2.764-2.655,5.826-4.543,9.696-4.404c4.728,0,6.921,1.943,9.696,4.403
			c2.994,2.654,6.388,5.663,13.014,5.663C238.195,204.146,238.252,199.309,234.929,199.22z"/>
		<path fill="#846F75" d="M131.236,159.229c1.053-3.716-1.518-7.8-5.301-8.518l11.993-42.427c8.801,2.034,12.311-10.431,3.757-13.29
			l3.472-12.283c0.376-1.329-0.396-2.71-1.726-3.086c-1.325-0.377-2.71,0.398-3.085,1.726l-3.498,12.374l-14.505-3.771
			c-3.683-0.958-7.467,1.261-8.427,4.949l-3.413,13.129c-3.518,0.465-6.75,2.033-9.321,4.509c-5.348,1.386-9.316,6.239-9.316,12.015
			c0,5.781,3.975,10.639,9.331,12.019c0.326,0.311,0.65,0.624,1.01,0.914l-3.457,13.3c-0.949,3.687,1.271,7.464,4.95,8.42
			l13.634,3.545l-3.76,13.301c-0.376,1.329,0.396,2.71,1.726,3.086c1.292,0.376,2.715-0.386,3.085-1.726
			c0,0,3.789-13.403,3.789-13.403C125.883,165.365,130.323,163.118,131.236,159.229z M121.096,149.453l-7.229-1.88l1.646-6.335
			h3.238c2.178,0,4.13-1.39,4.856-3.457c3.019-8.583,3.085-17.285,0.182-25.922l1.766-6.792l7.534,1.959L121.096,149.453z
			 M96.868,124.556c0-4.094,3.331-7.425,7.425-7.425c9.827,0.349,9.824,14.502,0,14.85C100.199,131.98,96.868,128.65,96.868,124.556
			z M126.396,157.971c-0.238,0.998-1.338,1.646-2.328,1.367c0,0-19.108-4.968-19.108-4.968c-1.017-0.265-1.63-1.312-1.367-2.329
			l3.885-14.947c0.048-0.187,0.067-0.375,0.072-0.561c11.097-3.042,12.418-18.306,2.026-23.206c1.808-0.67,4.716,0.156,5.32-2.31
			c0,0,3.862-14.856,3.862-14.856c0.265-1.02,1.315-1.632,2.329-1.369l19.107,4.968c2.414,0.685,1.485,4.277-0.961,3.698
			c0,0-14.84-3.858-14.84-3.858c-1.292-0.363-2.737,0.484-3.049,1.791c0,0-2.589,9.958-2.589,9.958
			c-0.145,0.554-0.091,1.147,0.146,1.668c2.689,7.668,2.687,15.441-0.01,23.106c-0.024,0.069-0.08,0.116-0.14,0.116h-5.171
			c-1.139,0-2.133,0.769-2.42,1.871l-2.763,10.625c-0.361,1.291,0.484,2.738,1.791,3.048c0,0,14.84,3.858,14.84,3.858
			C126.028,155.878,126.676,156.983,126.396,157.971z"/>
	</g>
	<path fill="#F9B087" d="M151.064,85.806c-0.239,0-0.482-0.035-0.724-0.107l-16.44-4.964c-0.635-0.191-1.167-0.627-1.48-1.212
		c-0.313-0.584-0.382-1.269-0.19-1.904l6.876-22.771c1.768-5.852,7.966-9.177,13.819-7.409c5.853,1.768,9.175,7.967,7.408,13.819
		l-6.876,22.771C153.131,85.109,152.138,85.806,151.064,85.806z M137.739,76.671l11.653,3.519l6.153-20.377l0,0
		c0.471-1.557,0.306-3.203-0.462-4.636c-0.769-1.433-2.049-2.48-3.604-2.951c-3.212-0.97-6.616,0.855-7.587,4.067L137.739,76.671z"
		/>
	<path fill="#F9B087" d="M108.995,211.107c-1.059,0-2.135-0.153-3.199-0.475c-2.835-0.856-5.166-2.765-6.565-5.375
		s-1.698-5.608-0.843-8.443l6.876-22.771c0.399-1.322,1.795-2.068,3.116-1.67l16.44,4.964c0.635,0.191,1.167,0.627,1.48,1.212
		c0.313,0.584,0.382,1.269,0.19,1.904l-6.876,22.771C118.169,208.012,113.757,211.107,108.995,211.107z M109.328,177.882
		l-6.153,20.377l0,0c-0.471,1.557-0.306,3.203,0.462,4.636c0.769,1.433,2.049,2.48,3.604,2.951c3.212,0.971,6.617-0.855,7.587-4.067
		l6.153-20.377L109.328,177.882z M100.781,197.537h0.01H100.781z"/>
	<path fill="#F9B087" d="M226.024,170.262c-1.381,0-2.5-1.119-2.5-2.5V80.414c0-1.381,1.119-2.5,2.5-2.5s2.5,1.119,2.5,2.5v87.348
		C228.524,169.143,227.405,170.262,226.024,170.262z"/>
	<path fill="#F9B087" d="M226.024,228.524H29.976c-1.381,0-2.5-1.119-2.5-2.5V29.976c0-1.381,1.119-2.5,2.5-2.5h196.049
		c1.381,0,2.5,1.119,2.5,2.5v9.939c0,1.381-1.119,2.5-2.5,2.5s-2.5-1.119-2.5-2.5v-7.439H32.476v191.049h191.049v-14.209
		c0-1.381,1.119-2.5,2.5-2.5s2.5,1.119,2.5,2.5v16.709C228.524,227.405,227.405,228.524,226.024,228.524z"/>
</g>
</svg>
