<?xml version="1.0" encoding="utf-8"?>
<!-- Generator: Adobe Illustrator 24.0.0, SVG Export Plug-In . SVG Version: 6.00 Build 0)  -->
<svg version="1.1" id="Layer_1" xmlns="http://www.w3.org/2000/svg" xmlns:xlink="http://www.w3.org/1999/xlink" x="0px" y="0px"
	 viewBox="0 0 256 256" enable-background="new 0 0 256 256" xml:space="preserve">
<g>
	<path fill="#EBE7F2" d="M73.547,109.061c-1.381,0-2.5-1.119-2.5-2.5V78.855c0-1.381,1.119-2.5,2.5-2.5s2.5,1.119,2.5,2.5v27.705
		C76.047,107.941,74.928,109.061,73.547,109.061z"/>
	<path fill="#EBE7F2" d="M182.453,109.061c-1.381,0-2.5-1.119-2.5-2.5V78.855c0-1.381,1.119-2.5,2.5-2.5s2.5,1.119,2.5,2.5v27.705
		C184.953,107.941,183.834,109.061,182.453,109.061z"/>
	<path fill="#ED9ABC" d="M174.195,147.978l-15.824-27.845c-0.444-0.782-1.274-1.265-2.174-1.265H99.803
		c-0.899,0-1.729,0.483-2.174,1.265l-15.824,27.845c-0.473,0.832-0.429,1.86,0.111,2.648l44.021,64.234
		c0.467,0.68,1.238,1.087,2.063,1.087s1.596-0.407,2.063-1.087l44.021-64.234C174.624,149.838,174.668,148.81,174.195,147.978z
		 M144.061,151.925L128,204.375l-16.061-52.45H144.061z M113.385,146.925L128,126.236l14.615,20.689H113.385z M132.449,123.868
		h20.203l-6.11,19.952L132.449,123.868z M109.457,143.82l-6.11-19.952h20.203L109.457,143.82z M121.121,198.988l-32.253-47.063
		h17.841L121.121,198.988z M149.291,151.925h17.842l-32.253,47.063L149.291,151.925z M167.845,146.925h-17.023l5.961-19.466
		L167.845,146.925z M99.217,127.458l5.961,19.466H88.155L99.217,127.458z"/>
	<path fill="#846F75" d="M194.786,76.355h-51.548v-62.29c0-1.381-1.119-2.5-2.5-2.5s-2.5,1.119-2.5,2.5v62.29h-20.477v-62.29
		c0-1.381-1.119-2.5-2.5-2.5s-2.5,1.119-2.5,2.5v62.29H61.214c-9.102,0-16.507,7.404-16.507,16.506v44.637
		c0,15.902,12.938,28.839,28.84,28.839c1.381,0,2.5-1.119,2.5-2.5v-54.777h103.906v54.777c0,1.381,1.119,2.5,2.5,2.5
		c15.902,0,28.84-12.938,28.84-28.839V92.861C211.293,83.76,203.888,76.355,194.786,76.355z M206.293,137.499
		c0,12.301-9.365,22.456-21.34,23.709v-54.647c0-1.381-1.119-2.5-2.5-2.5H73.547c-1.381,0-2.5,1.119-2.5,2.5v54.647
		c-11.975-1.253-21.34-11.408-21.34-23.709V92.861c0-6.344,5.162-11.506,11.507-11.506h133.572c6.345,0,11.507,5.162,11.507,11.506
		V137.499z"/>
	<path fill="#ED9ABC" d="M226.024,228.524H29.976c-1.381,0-2.5-1.119-2.5-2.5V29.976c0-1.381,1.119-2.5,2.5-2.5h75.286
		c1.381,0,2.5,1.119,2.5,2.5s-1.119,2.5-2.5,2.5H32.476v191.049h191.049V32.476h-72.786c-1.381,0-2.5-1.119-2.5-2.5
		s1.119-2.5,2.5-2.5h75.286c1.381,0,2.5,1.119,2.5,2.5v196.049C228.524,227.405,227.405,228.524,226.024,228.524z"/>
</g>
</svg>
