<?xml version="1.0" encoding="utf-8"?>
<!-- Generator: Adobe Illustrator 24.0.0, SVG Export Plug-In . SVG Version: 6.00 Build 0)  -->
<svg version="1.1" id="Layer_1" xmlns="http://www.w3.org/2000/svg" xmlns:xlink="http://www.w3.org/1999/xlink" x="0px" y="0px"
	 viewBox="0 0 256 256" enable-background="new 0 0 256 256" xml:space="preserve">
<g>
	<path fill="#EBE7F2" d="M180.343,103.525H146.5c-1.381,0-2.5-1.119-2.5-2.5s1.119-2.5,2.5-2.5h33.844c1.381,0,2.5,1.119,2.5,2.5
		S181.724,103.525,180.343,103.525z"/>
	<path fill="#EBE7F2" d="M180.343,119.896H146.5c-1.381,0-2.5-1.119-2.5-2.5s1.119-2.5,2.5-2.5h33.844c1.381,0,2.5,1.119,2.5,2.5
		S181.724,119.896,180.343,119.896z"/>
	<path fill="#EBE7F2" d="M180.343,136.268H146.5c-1.381,0-2.5-1.119-2.5-2.5s1.119-2.5,2.5-2.5h33.844c1.381,0,2.5,1.119,2.5,2.5
		S181.724,136.268,180.343,136.268z"/>
	<path fill="#A58BC9" d="M191.563,80.623h-28.248c8.592-25.447,1.268-43.351-4.05-51.941c-2.83-4.571-8.406-6.592-13.263-4.799
		c-4.007,1.478-6.748,5.039-7.155,9.292c-0.929,9.715-3.681,22.962-11.517,30.902c-8.634,8.749-25.634,23.785-33.469,30.648v-5.223
		c0-1.381-1.119-2.5-2.5-2.5H56.567c-1.381,0-2.5,1.119-2.5,2.5v68.688c0,1.381,1.119,2.5,2.5,2.5h34.794c1.381,0,2.5-1.119,2.5-2.5
		v-8.012l52.146,10.463c0.162,0.032,0.327,0.049,0.492,0.049h45.063c5.718,0,10.37-4.652,10.37-10.37V90.992
		C201.933,85.274,197.281,80.623,191.563,80.623z M59.067,155.69V92.002h29.794v63.688H59.067z M196.933,150.32
		c0,2.961-2.409,5.37-5.37,5.37h-44.815l-52.887-10.612v-43.716c4.635-4.032,26.694-23.302,37.028-33.774
		c8.869-8.986,11.93-23.416,12.936-33.938c0.226-2.359,1.686-4.257,3.908-5.076c2.634-0.973,5.697,0.18,7.281,2.74
		c4.956,8.005,11.801,24.933,3.005,49.309h-3.649c-5.718,0-10.37,4.652-10.37,10.37v47.719c0,1.381,1.119,2.5,2.5,2.5
		s2.5-1.119,2.5-2.5V90.992c0-2.961,2.409-5.37,5.37-5.37h37.193c2.961,0,5.37,2.409,5.37,5.37V150.32z"/>
	<path fill="#A58BC9" d="M89.211,77.287c-1.381,0-2.5-1.119-2.5-2.5V50.846c0-1.381,1.119-2.5,2.5-2.5h10.494L81.154,29.794
		L62.603,48.346h10.494c1.381,0,2.5,1.119,2.5,2.5v23.941c0,1.381-1.119,2.5-2.5,2.5s-2.5-1.119-2.5-2.5V53.346h-14.03
		c-1.011,0-1.923-0.609-2.31-1.543c-0.387-0.934-0.173-2.009,0.542-2.724l24.586-24.587c0.938-0.938,2.598-0.938,3.535,0
		l24.587,24.587c0.715,0.715,0.929,1.79,0.542,2.724c-0.387,0.935-1.298,1.543-2.31,1.543h-14.03v21.441
		C91.711,76.167,90.592,77.287,89.211,77.287z"/>
	<path fill="#846F75" d="M226.024,41.493h-47.733c-1.381,0-2.5,1.119-2.5,2.5s1.119,2.5,2.5,2.5h45.233v148.036h-73.089
		c-0.816,0-1.581,0.398-2.049,1.067l-21.19,30.308l-21.19-30.308c-0.468-0.669-1.232-1.067-2.049-1.067H32.476V46.493h14.963
		c1.381,0,2.5-1.119,2.5-2.5s-1.119-2.5-2.5-2.5H29.976c-1.381,0-2.5,1.119-2.5,2.5v153.036c0,1.381,1.119,2.5,2.5,2.5h72.679
		l22.493,32.171c0.468,0.669,1.232,1.067,2.049,1.067s1.581-0.398,2.049-1.067l22.493-32.171h74.287c1.381,0,2.5-1.119,2.5-2.5
		V43.993C228.524,42.612,227.405,41.493,226.024,41.493z"/>
</g>
</svg>
