<?xml version="1.0" encoding="utf-8"?>
<!-- Generator: Adobe Illustrator 24.0.0, SVG Export Plug-In . SVG Version: 6.00 Build 0)  -->
<svg version="1.1" id="Layer_1" xmlns="http://www.w3.org/2000/svg" xmlns:xlink="http://www.w3.org/1999/xlink" x="0px" y="0px"
	 viewBox="0 0 256 256" enable-background="new 0 0 256 256" xml:space="preserve">
<g>
	<path fill="#EBE7F2" d="M49.77,83.893H29.629c-1.381,0-2.5-1.119-2.5-2.5s1.119-2.5,2.5-2.5H49.77c1.381,0,2.5,1.119,2.5,2.5
		S51.151,83.893,49.77,83.893z"/>
	<path fill="#EBE7F2" d="M49.77,102.535H29.629c-1.381,0-2.5-1.119-2.5-2.5s1.119-2.5,2.5-2.5H49.77c1.381,0,2.5,1.119,2.5,2.5
		S51.151,102.535,49.77,102.535z"/>
	<path fill="#EBE7F2" d="M49.77,121.179H29.629c-1.381,0-2.5-1.119-2.5-2.5s1.119-2.5,2.5-2.5H49.77c1.381,0,2.5,1.119,2.5,2.5
		S51.151,121.179,49.77,121.179z"/>
	<path fill="#EBE7F2" d="M49.77,139.821H29.629c-1.381,0-2.5-1.119-2.5-2.5s1.119-2.5,2.5-2.5H49.77c1.381,0,2.5,1.119,2.5,2.5
		S51.151,139.821,49.77,139.821z"/>
	<path fill="#EBE7F2" d="M49.77,158.465H29.629c-1.381,0-2.5-1.119-2.5-2.5s1.119-2.5,2.5-2.5H49.77c1.381,0,2.5,1.119,2.5,2.5
		S51.151,158.465,49.77,158.465z"/>
	<path fill="#EBE7F2" d="M49.77,177.107H29.629c-1.381,0-2.5-1.119-2.5-2.5s1.119-2.5,2.5-2.5H49.77c1.381,0,2.5,1.119,2.5,2.5
		S51.151,177.107,49.77,177.107z"/>
	<path fill="#EBE7F2" d="M226.371,83.893H206.23c-1.381,0-2.5-1.119-2.5-2.5s1.119-2.5,2.5-2.5h20.141c1.381,0,2.5,1.119,2.5,2.5
		S227.752,83.893,226.371,83.893z"/>
	<path fill="#EBE7F2" d="M226.371,102.535H206.23c-1.381,0-2.5-1.119-2.5-2.5s1.119-2.5,2.5-2.5h20.141c1.381,0,2.5,1.119,2.5,2.5
		S227.752,102.535,226.371,102.535z"/>
	<path fill="#EBE7F2" d="M226.371,121.179H206.23c-1.381,0-2.5-1.119-2.5-2.5s1.119-2.5,2.5-2.5h20.141c1.381,0,2.5,1.119,2.5,2.5
		S227.752,121.179,226.371,121.179z"/>
	<path fill="#EBE7F2" d="M226.371,139.821H206.23c-1.381,0-2.5-1.119-2.5-2.5s1.119-2.5,2.5-2.5h20.141c1.381,0,2.5,1.119,2.5,2.5
		S227.752,139.821,226.371,139.821z"/>
	<path fill="#EBE7F2" d="M226.371,158.465H206.23c-1.381,0-2.5-1.119-2.5-2.5s1.119-2.5,2.5-2.5h20.141c1.381,0,2.5,1.119,2.5,2.5
		S227.752,158.465,226.371,158.465z"/>
	<path fill="#EBE7F2" d="M226.371,177.107H206.23c-1.381,0-2.5-1.119-2.5-2.5s1.119-2.5,2.5-2.5h20.141c1.381,0,2.5,1.119,2.5,2.5
		S227.752,177.107,226.371,177.107z"/>
	<path fill="#65C1D6" d="M128,181.708c-37.334,0-67.708-30.374-67.708-67.708S90.666,46.292,128,46.292S195.708,76.666,195.708,114
		S165.334,181.708,128,181.708z M128,51.292c-34.578,0-62.708,28.131-62.708,62.708S93.422,176.708,128,176.708
		s62.708-28.131,62.708-62.708S162.578,51.292,128,51.292z"/>
	<g>
		<path fill="#846F75" d="M106.893,134.904c10.394,0,18.85-8.456,18.85-18.85V91.027l20.626,12.843v20.638
			c-0.971-0.152-1.956-0.229-2.95-0.229c-10.394,0-18.85,8.456-18.85,18.85s8.456,18.85,18.85,18.85s18.85-8.456,18.85-18.85
			l0.001-44.957c0-0.84-0.422-1.624-1.123-2.087L113.72,64.778c-0.768-0.506-1.752-0.551-2.562-0.114
			c-0.81,0.436-1.315,1.281-1.315,2.201v30.569c-0.971-0.152-1.956-0.229-2.95-0.229c-10.394,0-18.85,8.456-18.85,18.85
			S96.5,134.904,106.893,134.904z M106.893,102.205c1.584,0,3.138,0.265,4.617,0.788c0.764,0.269,1.613,0.152,2.276-0.316
			c0.663-0.469,1.057-1.229,1.057-2.041V71.511l42.426,28.005v43.612c0,7.637-6.213,13.85-13.85,13.85s-13.85-6.213-13.85-13.85
			s6.213-13.85,13.85-13.85c1.584,0,3.138,0.265,4.617,0.788c0.763,0.27,1.613,0.152,2.276-0.316
			c0.663-0.469,1.057-1.229,1.057-2.041v-25.228c0-0.863-0.446-1.666-1.179-2.122l-25.626-15.956
			c-0.772-0.481-1.742-0.504-2.535-0.063c-0.794,0.44-1.286,1.277-1.286,2.186v29.529c0,7.637-6.213,13.85-13.85,13.85
			s-13.85-6.213-13.85-13.85S99.256,102.205,106.893,102.205z"/>
		<path fill="#846F75" d="M226.371,30.341H29.629c-1.381,0-2.5,1.119-2.5,2.5V222.5c0,1.381,1.119,2.5,2.5,2.5h37.212
			c1.381,0,2.5-1.119,2.5-2.5s-1.119-2.5-2.5-2.5H32.129v-23.155h191.742V220h-34.558c-1.381,0-2.5,1.119-2.5,2.5s1.119,2.5,2.5,2.5
			h37.058c1.381,0,2.5-1.119,2.5-2.5V32.841C228.871,31.46,227.752,30.341,226.371,30.341z M32.129,35.341h191.742v23.156h-42.884
			c-1.381,0-2.5,1.119-2.5,2.5s1.119,2.5,2.5,2.5h22.743v128.348H52.27V63.497h22.743c1.381,0,2.5-1.119,2.5-2.5s-1.119-2.5-2.5-2.5
			H32.129V35.341z M32.129,63.497H47.27v128.348H32.129V63.497z M208.73,191.845V63.497h15.141v128.348H208.73z"/>
		<path fill="#846F75" d="M180.045,207.708H75.955c-1.381,0-2.5,1.119-2.5,2.5v24.584c0,1.381,1.119,2.5,2.5,2.5h104.091
			c1.381,0,2.5-1.119,2.5-2.5v-24.584C182.545,208.827,181.426,207.708,180.045,207.708z M177.545,232.292H78.455v-19.584h99.091
			V232.292z"/>
	</g>
</g>
</svg>
