<?xml version="1.0" encoding="utf-8"?>
<!-- Generator: Adobe Illustrator 24.0.0, SVG Export Plug-In . SVG Version: 6.00 Build 0)  -->
<svg version="1.1" id="Layer_1" xmlns="http://www.w3.org/2000/svg" xmlns:xlink="http://www.w3.org/1999/xlink" x="0px" y="0px"
	 viewBox="0 0 256 256" enable-background="new 0 0 256 256" xml:space="preserve">
<g>
	<path fill="#65C1D6" d="M226.024,228.524h-36.887c-1.381,0-2.5-1.119-2.5-2.5s1.119-2.5,2.5-2.5h34.387V32.476H32.476v191.049
		h34.387c1.381,0,2.5,1.119,2.5,2.5s-1.119,2.5-2.5,2.5H29.976c-1.381,0-2.5-1.119-2.5-2.5V29.976c0-1.381,1.119-2.5,2.5-2.5
		h196.049c1.381,0,2.5,1.119,2.5,2.5v196.049C228.524,227.405,227.405,228.524,226.024,228.524z"/>
	<path fill="#65C1D6" d="M138.936,82.334c-0.792-1.131-2.352-1.405-3.482-0.613L128,86.941l-7.453-5.221
		c-1.13-0.791-2.69-0.519-3.482,0.613c-0.792,1.131-0.517,2.69,0.614,3.482l7.585,5.313l-6.436,36.84
		c-0.142,0.814,0.127,1.646,0.719,2.223l6.709,6.53c0.485,0.472,1.114,0.708,1.744,0.708s1.259-0.236,1.744-0.709l6.709-6.53
		c0.592-0.576,0.86-1.407,0.719-2.222l-6.435-36.84l7.586-5.313C139.453,85.024,139.728,83.465,138.936,82.334z M128,131.441
		l-4.02-3.912l4.02-23.009l4.02,23.009L128,131.441z"/>
	<path fill="#EBE7F2" d="M173.227,128.162c-1.381,0-2.5-1.119-2.5-2.5v-39.6c0-1.381,1.119-2.5,2.5-2.5s2.5,1.119,2.5,2.5v39.6
		C175.727,127.043,174.607,128.162,173.227,128.162z"/>
	<path fill="#EBE7F2" d="M82.773,128.162c-1.381,0-2.5-1.119-2.5-2.5v-39.6c0-1.381,1.119-2.5,2.5-2.5s2.5,1.119,2.5,2.5v39.6
		C85.273,127.043,84.154,128.162,82.773,128.162z"/>
	<g>
		<path fill="#846F75" d="M189.138,199.136h-22.537v-3.327h4.795c2.257,0,4.094-1.837,4.094-4.094v-8.065
			c0-2.257-1.837-4.094-4.094-4.094h-4.795v-3.218c0-1.381-1.119-2.5-2.5-2.5h-19.778c-1.381,0-2.5,1.119-2.5,2.5v22.798H116.89
			c-0.563-1.677-1.114-4.586-1.588-7.872h14.268c2.011,0,3.646-1.636,3.646-3.646v-32.865c0-2.011-1.636-3.646-3.646-3.646H84.158
			c-2.011,0-3.647,1.636-3.647,3.646v32.865c0,2.011,1.636,3.646,3.647,3.646h14.267c-0.474,3.286-1.024,6.195-1.588,7.872H66.862
			c-1.381,0-2.5,1.119-2.5,2.5v10.23c0,1.381,1.119,2.5,2.5,2.5h6.535v32.521c0,1.381,1.119,2.5,2.5,2.5h10.23
			c1.381,0,2.5-1.119,2.5-2.5v-10.496h78.745v10.496c0,1.381,1.119,2.5,2.5,2.5h10.23c1.381,0,2.5-1.119,2.5-2.5v-32.521h6.535
			c1.381,0,2.5-1.119,2.5-2.5v-10.23C191.638,200.255,190.519,199.136,189.138,199.136z M170.489,184.556v6.253h-3.889v-6.253
			H170.489z M146.822,178.838h14.778v20.298h-14.778V178.838z M85.511,186.264v-30.158h42.706v30.158h-13.548
			c-0.305-2.752-0.542-5.478-0.677-7.745h3.461c1.381,0,2.5-1.119,2.5-2.5s-1.119-2.5-2.5-2.5H97.075c-1.381,0-2.5,1.119-2.5,2.5
			s1.119,2.5,2.5,2.5h2.66c-0.135,2.267-0.372,4.993-0.677,7.745H85.511z M104.724,178.519h4.278
			c0.297,4.742,1.139,14.652,2.711,20.617h-9.7C103.586,193.17,104.428,183.261,104.724,178.519z M83.627,244.387h-5.23v-30.021
			h5.23V244.387z M88.627,231.391v-17.024h78.745v17.024H88.627z M177.603,244.387h-5.23v-30.021h5.23V244.387z M186.638,209.366
			H69.362v-5.23h117.275V209.366z"/>
		<path fill="#846F75" d="M191.014,74.369h-3.645c2.793-3.431,4.329-7.828,4.143-12.396c-0.385-9.364-7.717-16.916-17.056-17.564
			c-5.17-0.363-10.078,1.379-13.844,4.892c-3.715,3.465-5.845,8.364-5.845,13.442c0,4.33,1.499,8.406,4.13,11.626h-3.616
			c-1.381,0-2.5,1.119-2.5,2.5s1.119,2.5,2.5,2.5h10.604c1.153,0,2.157-0.79,2.43-1.911c0.271-1.121-0.259-2.283-1.284-2.812
			c-4.479-2.308-7.263-6.869-7.263-11.903c0-3.751,1.511-7.227,4.255-9.786c2.741-2.558,6.313-3.824,10.087-3.56
			c6.682,0.464,12.131,6.078,12.406,12.78c0.212,5.196-2.634,10.09-7.251,12.469c-1.026,0.528-1.557,1.69-1.285,2.812
			s1.276,1.911,2.43,1.911h10.604c4.246,0,7.7,3.454,7.7,7.7v36.602h-33.865V96.252c0-8.262-6.722-14.983-14.983-14.983h-5.68
			c3.83-4.21,5.971-9.842,5.73-15.707c-0.459-11.175-9.209-20.186-20.354-20.961c-6.158-0.43-12.027,1.646-16.521,5.839
			c-4.433,4.136-6.975,9.982-6.975,16.042c0,5.587,2.09,10.817,5.718,14.787h-5.649c-8.262,0-14.984,6.722-14.984,14.983v27.419
			H57.286V87.069c0-4.246,3.455-7.7,7.701-7.7h10.604c1.154,0,2.158-0.79,2.43-1.911s-0.259-2.283-1.285-2.812
			c-4.618-2.379-7.464-7.272-7.251-12.468c0.274-6.703,5.724-12.317,12.407-12.781c3.76-0.257,7.344,1.003,10.086,3.56
			c2.744,2.561,4.255,6.035,4.255,9.786c0,5.034-2.783,9.596-7.263,11.903c-1.025,0.528-1.557,1.69-1.285,2.812
			s1.276,1.911,2.43,1.911h10.604c1.381,0,2.5-1.119,2.5-2.5s-1.119-2.5-2.5-2.5h-3.617c2.631-3.22,4.13-7.295,4.13-11.626
			c0-5.077-2.13-9.977-5.845-13.441c-3.767-3.514-8.69-5.245-13.843-4.893c-9.34,0.648-16.672,8.2-17.056,17.564
			c-0.187,4.567,1.349,8.965,4.142,12.396h-3.644c-7.003,0-12.701,5.697-12.701,12.7v39.102c0,1.381,1.119,2.5,2.5,2.5h36.365
			v15.435c0,1.381,1.119,2.5,2.5,2.5h68.698c1.381,0,2.5-1.119,2.5-2.5v-15.435h36.365c1.381,0,2.5-1.119,2.5-2.5V87.069
			C203.714,80.066,198.017,74.369,191.014,74.369z M159.849,141.605H96.151V96.252c0-5.505,4.479-9.983,9.984-9.983h12.978
			c1.154,0,2.158-0.79,2.43-1.911s-0.259-2.283-1.285-2.812c-5.67-2.92-9.192-8.692-9.192-15.064c0-4.747,1.913-9.146,5.385-12.386
			c3.47-3.237,8.016-4.833,12.764-4.507c8.459,0.588,15.357,7.694,15.705,16.178c0.27,6.574-3.333,12.769-9.177,15.779
			c-1.026,0.528-1.557,1.69-1.285,2.812s1.276,1.911,2.43,1.911h12.978c5.505,0,9.983,4.479,9.983,9.983V141.605z"/>
	</g>
</g>
</svg>
