<?xml version="1.0" encoding="utf-8"?>
<!-- Generator: Adobe Illustrator 24.0.0, SVG Export Plug-In . SVG Version: 6.00 Build 0)  -->
<svg version="1.1" id="Layer_1" xmlns="http://www.w3.org/2000/svg" xmlns:xlink="http://www.w3.org/1999/xlink" x="0px" y="0px"
	 viewBox="0 0 256 256" enable-background="new 0 0 256 256" xml:space="preserve">
<g>
	<path fill="#EBE7F2" d="M128,145.658c-1.381,0-2.5-1.119-2.5-2.5V102.03c0-1.381,1.119-2.5,2.5-2.5s2.5,1.119,2.5,2.5v41.128
		C130.5,144.539,129.381,145.658,128,145.658z"/>
	<path fill="#F9B087" d="M77.848,163.328c-6.25,0-11.335-5.085-11.335-11.335s5.085-11.335,11.335-11.335
		s11.335,5.085,11.335,11.335S84.098,163.328,77.848,163.328z M77.848,145.658c-3.493,0-6.335,2.842-6.335,6.335
		s2.842,6.335,6.335,6.335s6.335-2.842,6.335-6.335S81.341,145.658,77.848,145.658z"/>
	<path fill="#F9B087" d="M178.152,163.328c-6.25,0-11.335-5.085-11.335-11.335s5.085-11.335,11.335-11.335
		s11.335,5.085,11.335,11.335S184.402,163.328,178.152,163.328z M178.152,145.658c-3.493,0-6.335,2.842-6.335,6.335
		s2.842,6.335,6.335,6.335s6.335-2.842,6.335-6.335S181.646,145.658,178.152,145.658z"/>
	<path fill="#F9B087" d="M29.976,95.553c-1.381,0-2.5-1.119-2.5-2.5V29.976c0-1.381,1.119-2.5,2.5-2.5h196.049
		c1.381,0,2.5,1.119,2.5,2.5V92.03c0,1.381-1.119,2.5-2.5,2.5s-2.5-1.119-2.5-2.5V32.476H32.476v60.578
		C32.476,94.434,31.356,95.553,29.976,95.553z"/>
	<path fill="#F9B087" d="M226.024,228.524H29.976c-1.381,0-2.5-1.119-2.5-2.5v-71.867c0-1.381,1.119-2.5,2.5-2.5s2.5,1.119,2.5,2.5
		v69.367h191.049v-69.367c0-1.381,1.119-2.5,2.5-2.5s2.5,1.119,2.5,2.5v71.867C228.524,227.405,227.405,228.524,226.024,228.524z"/>
	<path fill="#EBE7F2" d="M213.271,209.63H43.687c-1.381,0-2.5-1.119-2.5-2.5s1.119-2.5,2.5-2.5h169.584c1.381,0,2.5,1.119,2.5,2.5
		S214.652,209.63,213.271,209.63z"/>
	<g>
		<path fill="#846F75" d="M221.632,99.53h-8.268l-30.046-52.121c-0.446-0.774-1.272-1.251-2.166-1.251H122.4
			c-1.381,0-2.5,1.119-2.5,2.5v6.448L35.393,99.53h-1.025c-6.893,0-12.5,5.607-12.5,12.5v26.128c0,4.136,3.364,7.5,7.5,7.5h9.334
			c-0.333,2.064-0.512,4.179-0.512,6.335c0,21.868,17.791,39.658,39.658,39.658s39.658-17.791,39.658-39.658
			c0-2.156-0.179-4.271-0.512-6.335h22.011c-0.333,2.064-0.512,4.179-0.512,6.335c0,21.868,17.791,39.658,39.659,39.658
			c21.867,0,39.658-17.791,39.658-39.658c0-2.156-0.179-4.271-0.512-6.335h9.333c4.136,0,7.5-3.364,7.5-7.5V112.03
			C234.132,105.137,228.524,99.53,221.632,99.53z M229.132,123.182h-7.848v-7.847h7.848V123.182z M179.708,51.157l27.885,48.373
			h-7.739l-23.509-40.78c-0.446-0.774-1.272-1.251-2.166-1.251h-39.793c-1.381,0-2.5,1.119-2.5,2.5V99.53H124.9V51.157H179.708z
			 M194.082,99.53h-57.196V62.498h35.849L194.082,99.53z M119.9,60.753V99.53H46.138L119.9,60.753z M34.715,115.334v7.847h-7.847
			v-7.847H34.715z M77.848,186.651c-19.111,0-34.658-15.547-34.658-34.658s15.547-34.658,34.658-34.658s34.658,15.547,34.658,34.658
			S96.959,186.651,77.848,186.651z M178.152,186.651c-19.111,0-34.659-15.547-34.659-34.658s15.548-34.658,34.659-34.658
			c19.11,0,34.658,15.547,34.658,34.658S197.263,186.651,178.152,186.651z M226.632,140.658h-10.481
			c-4.89-16.36-20.07-28.323-37.999-28.323c-17.93,0-33.11,11.963-38,28.323h-24.305c-4.889-16.36-20.07-28.323-37.999-28.323
			s-33.11,11.963-37.999,28.323H29.368c-1.378,0-2.5-1.122-2.5-2.5v-9.976h10.347c1.381,0,2.5-1.119,2.5-2.5v-12.847
			c0-1.381-1.119-2.5-2.5-2.5H27.069c0.771-3.321,3.747-5.805,7.299-5.805h1.64c0.001,0,0.002,0,0.004,0c0.001,0,0.003,0,0.004,0
			h162.392c0.001,0,0.003,0,0.004,0s0.003,0,0.004,0h23.217c3.552,0,6.528,2.484,7.299,5.805h-10.147c-1.381,0-2.5,1.119-2.5,2.5
			v12.847c0,1.381,1.119,2.5,2.5,2.5h10.348v9.976C229.132,139.536,228.011,140.658,226.632,140.658z"/>
		<path fill="#846F75" d="M77.848,129.275c-12.526,0-22.717,10.191-22.717,22.717s10.191,22.717,22.717,22.717
			s22.717-10.191,22.717-22.717S90.375,129.275,77.848,129.275z M77.848,169.71c-9.77,0-17.717-7.948-17.717-17.717
			s7.948-17.717,17.717-17.717s17.717,7.948,17.717,17.717S87.618,169.71,77.848,169.71z"/>
		<path fill="#846F75" d="M178.152,129.275c-12.526,0-22.718,10.191-22.718,22.717s10.191,22.717,22.718,22.717
			s22.717-10.191,22.717-22.717S190.679,129.275,178.152,129.275z M178.152,169.71c-9.77,0-17.718-7.948-17.718-17.717
			s7.948-17.717,17.718-17.717s17.717,7.948,17.717,17.717S187.922,169.71,178.152,169.71z"/>
	</g>
</g>
</svg>
