<?xml version="1.0" encoding="utf-8"?>
<!-- Generator: Adobe Illustrator 24.0.0, SVG Export Plug-In . SVG Version: 6.00 Build 0)  -->
<svg version="1.1" id="Layer_1" xmlns="http://www.w3.org/2000/svg" xmlns:xlink="http://www.w3.org/1999/xlink" x="0px" y="0px"
	 viewBox="0 0 256 256" enable-background="new 0 0 256 256" xml:space="preserve">
<g>
	<path fill="#A58BC9" d="M128,9.903c-12.638,0-22.919,10.282-22.919,22.92S115.362,55.742,128,55.742s22.919-10.281,22.919-22.919
		S140.638,9.903,128,9.903z M128,50.742c-2.513,0-5.229-3.527-6.716-8.997c2.114-0.388,4.382-0.594,6.716-0.594
		c2.335,0,4.603,0.205,6.716,0.593C133.229,47.215,130.514,50.742,128,50.742z M128,36.151c-2.63,0-5.207,0.237-7.632,0.686
		c-0.141-1.282-0.217-2.624-0.217-4.014c0-1.39,0.076-2.732,0.217-4.014c2.424,0.449,5,0.685,7.632,0.685
		c2.63,0,5.207-0.237,7.632-0.686c0.141,1.282,0.217,2.625,0.217,4.015c0,1.39-0.076,2.732-0.217,4.014
		C133.208,36.388,130.632,36.151,128,36.151z M110.081,32.823c0-2.482,0.508-4.848,1.424-7c1.206,0.653,2.536,1.226,3.962,1.715
		c-0.207,1.687-0.315,3.454-0.315,5.285s0.109,3.599,0.315,5.285c-1.426,0.488-2.756,1.062-3.962,1.714
		C110.588,37.671,110.081,35.305,110.081,32.823z M128,14.903c2.513,0,5.229,3.527,6.715,8.997
		c-2.114,0.388-4.382,0.594-6.715,0.594c-2.335,0-4.603-0.205-6.716-0.593C122.771,18.431,125.486,14.903,128,14.903z
		 M140.534,27.537c1.426-0.488,2.756-1.062,3.962-1.714c0.916,2.152,1.424,4.518,1.424,7c0,2.482-0.507,4.848-1.424,6.999
		c-1.206-0.653-2.536-1.226-3.962-1.714c0.207-1.686,0.315-3.454,0.315-5.285C140.849,30.992,140.741,29.224,140.534,27.537z
		 M141.909,21.538c-0.721,0.379-1.498,0.725-2.324,1.037c-0.452-1.696-1.017-3.264-1.679-4.677
		C139.417,18.904,140.767,20.133,141.909,21.538z M118.093,17.898c-0.662,1.413-1.227,2.981-1.679,4.677
		c-0.826-0.311-1.603-0.658-2.324-1.037C115.232,20.133,116.582,18.904,118.093,17.898z M114.091,44.109
		c0.721-0.38,1.498-0.726,2.324-1.037c0.452,1.696,1.017,3.264,1.678,4.676C116.583,46.742,115.233,45.513,114.091,44.109z
		 M137.907,47.748c0.662-1.413,1.227-2.981,1.679-4.677c0.826,0.311,1.603,0.658,2.324,1.037
		C140.768,45.513,139.418,46.742,137.907,47.748z"/>
	<g>
		<path fill="#A58BC9" d="M175.006,149.047h-6.81v-30.335c0-8.933-7.268-16.2-16.201-16.2h-6.793
			c4.399-4.614,6.874-10.908,6.605-17.472c-0.498-12.141-10.003-21.93-22.111-22.771c-6.69-0.463-13.066,1.789-17.949,6.343
			c-4.815,4.493-7.577,10.845-7.577,17.427c0,6.263,2.418,12.113,6.594,16.473h-6.762c-8.933,0-16.201,7.268-16.201,16.2v30.335
			h-6.81c-1.381,0-2.5,1.119-2.5,2.5s1.119,2.5,2.5,2.5h6.81v17.183c0,1.381,1.119,2.5,2.5,2.5h22.059c1.381,0,2.5-1.119,2.5-2.5
			s-1.119-2.5-2.5-2.5H92.803v-50.018c0-6.176,5.024-11.2,11.201-11.2h14.243c1.154,0,2.158-0.79,2.43-1.911
			s-0.259-2.283-1.285-2.812c-6.304-3.247-10.22-9.665-10.22-16.75c0-5.277,2.126-10.168,5.988-13.771
			c3.858-3.599,8.898-5.387,14.191-5.011c9.405,0.653,17.075,8.554,17.461,17.987c0.3,7.31-3.706,14.196-10.204,17.544
			c-1.025,0.528-1.557,1.69-1.285,2.812s1.276,1.911,2.43,1.911h14.243c6.176,0,11.201,5.024,11.201,11.2v50.018h-19.559
			c-1.381,0-2.5,1.119-2.5,2.5s1.119,2.5,2.5,2.5h22.059c1.381,0,2.5-1.119,2.5-2.5v-17.183h6.81c1.381,0,2.5-1.119,2.5-2.5
			S176.387,149.047,175.006,149.047z"/>
		<path fill="#A58BC9" d="M197.155,94.939h-4.521c3.239-3.773,5.034-8.707,4.824-13.838c-0.416-10.152-8.366-18.339-18.492-19.043
			c-5.599-0.384-10.926,1.495-15.009,5.305c-4.027,3.757-6.337,9.069-6.337,14.574c0,4.875,1.752,9.452,4.812,13.002h-4.492
			c-1.381,0-2.5,1.119-2.5,2.5s1.119,2.5,2.5,2.5h11.638c1.154,0,2.158-0.79,2.43-1.911s-0.259-2.283-1.285-2.812
			c-4.998-2.574-8.103-7.663-8.103-13.279c0-4.185,1.686-8.063,4.748-10.918c3.059-2.854,7.059-4.264,11.252-3.973
			c7.456,0.519,13.537,6.781,13.843,14.26c0.237,5.797-2.938,11.257-8.089,13.91c-1.026,0.528-1.557,1.69-1.285,2.812
			s1.276,1.911,2.43,1.911h11.638c4.794,0,8.695,3.9,8.695,8.695v40.412h-10.843c-1.381,0-2.5,1.119-2.5,2.5s1.119,2.5,2.5,2.5
			h13.343c1.381,0,2.5-1.119,2.5-2.5v-42.912C210.85,101.083,204.706,94.939,197.155,94.939z"/>
		<path fill="#A58BC9" d="M77.381,67.047c4.193-0.294,8.193,1.119,11.252,3.973c3.062,2.855,4.748,6.733,4.748,10.918
			c0,5.616-3.105,10.705-8.103,13.279c-1.025,0.528-1.557,1.69-1.285,2.812s1.276,1.911,2.43,1.911H98.06c1.381,0,2.5-1.119,2.5-2.5
			s-1.119-2.5-2.5-2.5h-4.492c3.06-3.55,4.812-8.127,4.812-13.002c0-5.505-2.31-10.817-6.337-14.574
			c-4.083-3.81-9.42-5.69-15.009-5.305c-10.126,0.704-18.076,8.891-18.492,19.043c-0.21,5.131,1.584,10.064,4.824,13.838h-4.521
			c-7.551,0-13.695,6.144-13.695,13.695v42.912c0,1.381,1.119,2.5,2.5,2.5h12.454c1.381,0,2.5-1.119,2.5-2.5s-1.119-2.5-2.5-2.5
			H50.15v-40.412c0-4.795,3.9-8.695,8.695-8.695h11.638c1.154,0,2.158-0.79,2.43-1.911s-0.259-2.283-1.285-2.812
			c-5.151-2.653-8.327-8.113-8.089-13.91C63.844,73.828,69.925,67.565,77.381,67.047z"/>
	</g>
	<g>
		<path fill="#846F75" d="M225.101,25.414h-66.956c-1.381,0-2.5,1.119-2.5,2.5s1.119,2.5,2.5,2.5h66.956
			c4.535,0,8.225,3.689,8.225,8.225v142.923c0,4.535-3.689,8.225-8.225,8.225H30.899c-4.535,0-8.225-3.689-8.225-8.225V38.639
			c0-4.535,3.689-8.225,8.225-8.225h66.681c1.381,0,2.5-1.119,2.5-2.5s-1.119-2.5-2.5-2.5H30.899
			c-7.292,0-13.225,5.933-13.225,13.225v142.923c0,7.292,5.933,13.225,13.225,13.225h194.201c7.292,0,13.225-5.933,13.225-13.225
			V38.639C238.325,31.347,232.393,25.414,225.101,25.414z"/>
		<path fill="#846F75" d="M169.635,219.809h-14.115v-17.522c0-1.381-1.119-2.5-2.5-2.5s-2.5,1.119-2.5,2.5v17.522h-45.041v-17.522
			c0-1.381-1.119-2.5-2.5-2.5s-2.5,1.119-2.5,2.5v17.522H86.365c-5.728,0-10.388,4.66-10.388,10.389s4.66,10.389,10.388,10.389
			h83.271c5.728,0,10.388-4.66,10.388-10.389S175.363,219.809,169.635,219.809z M169.635,235.586H86.365
			c-2.971,0-5.388-2.417-5.388-5.389s2.417-5.389,5.388-5.389h83.271c2.971,0,5.388,2.417,5.388,5.389
			S172.606,235.586,169.635,235.586z"/>
		<path fill="#846F75" d="M109.708,136.501h7.783v17.801c0,1.381,1.119,2.5,2.5,2.5h16.019c1.381,0,2.5-1.119,2.5-2.5v-17.801h7.783
			c1.011,0,1.923-0.609,2.31-1.543c0.387-0.935,0.173-2.01-0.542-2.725l-18.292-18.292c-0.976-0.977-2.56-0.977-3.535,0
			l-18.292,18.292c-0.715,0.715-0.929,1.79-0.542,2.725C107.785,135.892,108.697,136.501,109.708,136.501z M128,119.244
			l12.256,12.257h-4.247c-1.381,0-2.5,1.119-2.5,2.5v17.801h-11.019v-17.801c0-1.381-1.119-2.5-2.5-2.5h-4.247L128,119.244z"/>
		<path fill="#846F75" d="M136.009,162.017h-16.019c-1.381,0-2.5,1.119-2.5,2.5v13.629c0,1.381,1.119,2.5,2.5,2.5h16.019
			c1.381,0,2.5-1.119,2.5-2.5v-13.629C138.509,163.136,137.39,162.017,136.009,162.017z M133.509,175.646h-11.019v-8.629h11.019
			V175.646z"/>
		<path fill="#846F75" d="M70.994,172.594c1.381,0,2.5-1.119,2.5-2.5v-47.528l4.985,4.985c0.488,0.488,1.128,0.732,1.768,0.732
			s1.28-0.244,1.768-0.732c0.977-0.976,0.977-2.559,0-3.535l-9.252-9.253c-0.938-0.938-2.598-0.938-3.535,0l-9.252,9.253
			c-0.977,0.977-0.977,2.56,0,3.535c0.976,0.977,2.56,0.977,3.535,0l4.985-4.985v47.528
			C68.494,171.475,69.613,172.594,70.994,172.594z"/>
		<path fill="#846F75" d="M185.006,172.594c1.381,0,2.5-1.119,2.5-2.5v-47.528l4.985,4.985c0.488,0.488,1.128,0.732,1.768,0.732
			s1.28-0.244,1.768-0.732c0.977-0.976,0.977-2.559,0-3.535l-9.252-9.253c-0.938-0.938-2.598-0.938-3.535,0l-9.252,9.253
			c-0.977,0.977-0.977,2.56,0,3.535c0.976,0.977,2.56,0.977,3.535,0l4.985-4.985v47.528
			C182.506,171.475,183.625,172.594,185.006,172.594z"/>
	</g>
</g>
</svg>
