<?xml version="1.0" encoding="utf-8"?>
<!-- Generator: Adobe Illustrator 24.0.0, SVG Export Plug-In . SVG Version: 6.00 Build 0)  -->
<svg version="1.1" id="Layer_1" xmlns="http://www.w3.org/2000/svg" xmlns:xlink="http://www.w3.org/1999/xlink" x="0px" y="0px"
	 viewBox="0 0 256 256" enable-background="new 0 0 256 256" xml:space="preserve">
<g>
	<path fill="#F9B087" d="M29.976,93.727c-1.381,0-2.5-1.119-2.5-2.5V29.976c0-1.381,1.119-2.5,2.5-2.5h196.049
		c1.381,0,2.5,1.119,2.5,2.5v11.678c0,1.381-1.119,2.5-2.5,2.5s-2.5-1.119-2.5-2.5v-9.178H32.476v58.751
		C32.476,92.607,31.356,93.727,29.976,93.727z"/>
	<path fill="#F9B087" d="M226.024,228.524H29.976c-1.381,0-2.5-1.119-2.5-2.5v-22.519c0-1.381,1.119-2.5,2.5-2.5s2.5,1.119,2.5,2.5
		v20.019h191.049v-86.592c0-1.381,1.119-2.5,2.5-2.5s2.5,1.119,2.5,2.5v89.092C228.524,227.405,227.405,228.524,226.024,228.524z"/>
	<path fill="#F9B087" d="M218.539,81.912c-0.042,0-0.083-0.001-0.125-0.003c-0.706-0.035-1.363-0.367-1.811-0.914l-5.932-7.25
		c-0.874-1.068-0.717-2.644,0.352-3.518c1.068-0.875,2.644-0.716,3.518,0.352l4.183,5.112l8.922-8.921
		c0.976-0.977,2.56-0.977,3.535,0c0.977,0.976,0.977,2.559,0,3.535L220.307,81.18C219.837,81.65,219.2,81.912,218.539,81.912z"/>
	<g>
		<path fill="#846F75" d="M150.941,80.376c-2.102-3.581-4.783-6.752-7.97-9.427c-1.058-0.888-2.634-0.75-3.522,0.308
			c-0.888,1.058-0.75,2.634,0.308,3.522c2.748,2.306,5.06,5.041,6.872,8.128c0.466,0.793,1.301,1.235,2.159,1.235
			c0.43,0,0.866-0.111,1.263-0.344C151.241,83.099,151.64,81.567,150.941,80.376z"/>
		<path fill="#846F75" d="M153.392,106.42c1.381,0,2.5-1.119,2.5-2.5v-5.278c0-2.249-0.208-4.501-0.619-6.696
			c-0.254-1.358-1.565-2.25-2.917-1.998c-1.357,0.254-2.251,1.561-1.998,2.917c0.354,1.893,0.534,3.836,0.534,5.776v5.278
			C150.892,105.301,152.011,106.42,153.392,106.42z"/>
		<path fill="#846F75" d="M98.398,74.118c0.51,0,1.025-0.156,1.47-0.479c2.824-2.057,6.043-3.629,9.568-4.673
			c1.324-0.392,2.079-1.783,1.687-3.107s-1.782-2.08-3.107-1.687c-4.073,1.207-7.805,3.032-11.091,5.425
			c-1.116,0.813-1.362,2.376-0.549,3.493C96.865,73.762,97.626,74.118,98.398,74.118z"/>
		<path fill="#846F75" d="M120.103,67.508c3.597,0.039,7.116,0.686,10.461,1.924c0.287,0.106,0.58,0.156,0.868,0.156
			c1.016,0,1.972-0.624,2.345-1.632c0.479-1.295-0.182-2.733-1.477-3.213c-3.886-1.438-7.971-2.19-12.144-2.235
			c-1.403,0.012-2.512,1.093-2.527,2.473C117.615,66.362,118.722,67.493,120.103,67.508z"/>
		<path fill="#846F75" d="M220.666,111.15c-1.381,0-2.5,1.147-2.5,2.528c0,3.583-0.603,7.095-1.792,10.438
			c-0.463,1.301,0.217,2.73,1.518,3.193c0.277,0.099,0.56,0.145,0.838,0.145c1.028,0,1.991-0.639,2.355-1.663
			c1.381-3.882,2.081-7.958,2.081-12.114v-0.056C223.166,112.241,222.047,111.15,220.666,111.15z"/>
		<path fill="#846F75" d="M193.191,144.206c-2.014,0.404-4.084,0.609-6.156,0.609h-0.007c-1.499,0-3.005-0.107-4.478-0.319
			c-1.373-0.194-2.634,0.752-2.831,2.119s0.752,2.634,2.119,2.831c1.708,0.246,3.454,0.37,5.189,0.37h0.008
			c2.4,0,4.803-0.238,7.139-0.707c1.354-0.271,2.231-1.589,1.959-2.943S194.549,143.933,193.191,144.206z"/>
		<path fill="#846F75" d="M214.66,133.027c-1.068-0.875-2.644-0.717-3.518,0.352c-2.271,2.776-4.977,5.122-8.041,6.973
			c-1.182,0.714-1.562,2.251-0.848,3.433c0.47,0.778,1.296,1.208,2.143,1.208c0.44,0,0.886-0.116,1.29-0.36
			c3.554-2.147,6.692-4.868,9.326-8.087C215.886,135.477,215.729,133.901,214.66,133.027z"/>
		<path fill="#846F75" d="M155.936,115.341c-0.073-1.379-1.239-2.451-2.628-2.365c-1.379,0.073-2.438,1.249-2.365,2.628
			c0.219,4.164,1.144,8.214,2.748,12.04c0.402,0.958,1.33,1.534,2.307,1.534c0.322,0,0.65-0.063,0.966-0.195
			c1.273-0.534,1.873-1.999,1.339-3.272C156.92,122.417,156.124,118.928,155.936,115.341z"/>
		<path fill="#846F75" d="M172.441,141.194c-3.159-1.679-5.988-3.874-8.41-6.524c-0.931-1.02-2.512-1.09-3.532-0.16
			c-1.02,0.931-1.091,2.512-0.16,3.532c2.808,3.074,6.09,5.62,9.755,7.567c0.374,0.199,0.775,0.293,1.171,0.293
			c0.895,0,1.76-0.482,2.209-1.328C174.124,143.355,173.661,141.842,172.441,141.194z"/>
		<path fill="#846F75" d="M245.695,73.54c0-13.801-11.228-25.029-25.029-25.029c-13.801,0-25.029,11.228-25.029,25.029
			c0,12.958,9.897,23.647,22.529,24.905v3.624c0,1.381,1.119,2.5,2.5,2.5s2.5-1.119,2.5-2.5v-3.624
			C235.797,97.187,245.695,86.498,245.695,73.54z M220.666,93.569c-11.044,0-20.029-8.985-20.029-20.029s8.985-20.029,20.029-20.029
			s20.029,8.985,20.029,20.029S231.71,93.569,220.666,93.569z"/>
		<path fill="#846F75" d="M91.244,83.979c0.415-0.88,0.878-1.737,1.386-2.563c0.723-1.176,0.355-2.716-0.821-3.439
			c-1.175-0.722-2.716-0.355-3.439,0.821c-0.814,1.324-1.531,2.714-2.143,4.15c-3.463-0.57-7.016-0.867-10.638-0.867
			c-35.998,0-65.284,29.286-65.284,65.284s29.286,65.284,65.284,65.284s65.284-29.286,65.284-65.284
			C140.873,116.762,119.706,91.01,91.244,83.979z M75.589,207.649c-33.241,0-60.284-27.043-60.284-60.284
			s27.043-60.284,60.284-60.284s60.284,27.043,60.284,60.284S108.83,207.649,75.589,207.649z"/>
	</g>
	<path fill="#EBE7F2" d="M75.588,155.741c-2.146,0-4.292-0.816-5.925-2.45c-3.267-3.268-3.267-8.584,0-11.852
		c3.268-3.268,8.585-3.268,11.852,0c3.268,3.267,3.268,8.584,0,11.851c0,0,0,0,0,0C79.88,154.925,77.734,155.741,75.588,155.741z
		 M79.747,151.523h0.01H79.747z M75.588,143.987c-0.865,0-1.731,0.33-2.39,0.988c-1.317,1.318-1.317,3.463,0,4.781
		c1.318,1.318,3.462,1.318,4.78,0c1.318-1.318,1.318-3.462,0-4.78C77.32,144.316,76.454,143.987,75.588,143.987z"/>
	<path fill="#F9B087" d="M39.66,185.795c-0.646,0-1.286-0.249-1.769-0.732c-0.838-0.838-0.973-2.149-0.322-3.14l21.323-32.469
		c-0.642-5.14,1.112-10.304,4.797-13.988c3.684-3.685,8.848-5.438,13.989-4.797l32.469-21.323c0.99-0.651,2.302-0.517,3.14,0.322
		c0.838,0.838,0.973,2.149,0.322,3.14l-21.323,32.469c0.642,5.14-1.112,10.304-4.796,13.988c-3.685,3.685-8.848,5.439-13.989,4.796
		l-32.469,21.323C40.611,185.66,40.134,185.795,39.66,185.795z M75.588,135.539c-3.112,0-6.127,1.224-8.364,3.462
		c-2.763,2.763-3.98,6.71-3.258,10.56c0.12,0.636-0.012,1.293-0.367,1.833l-15.228,23.188l23.188-15.228
		c0.541-0.355,1.197-0.486,1.833-0.367c3.851,0.722,7.798-0.495,10.561-3.257c2.762-2.763,3.98-6.71,3.257-10.56
		c-0.12-0.636,0.012-1.293,0.367-1.833l15.229-23.189l-23.189,15.228c-0.541,0.355-1.196,0.487-1.833,0.367
		C77.053,135.606,76.317,135.539,75.588,135.539z"/>
</g>
</svg>
