<?xml version="1.0" encoding="utf-8"?>
<!-- Generator: Adobe Illustrator 24.0.0, SVG Export Plug-In . SVG Version: 6.00 Build 0)  -->
<svg version="1.1" id="Layer_1" xmlns="http://www.w3.org/2000/svg" xmlns:xlink="http://www.w3.org/1999/xlink" x="0px" y="0px"
	 viewBox="0 0 256 256" enable-background="new 0 0 256 256" xml:space="preserve">
<g>
	<path fill="#EBE7F2" d="M148.393,169.855h-17.27c-1.381,0-2.5-1.119-2.5-2.5s1.119-2.5,2.5-2.5h17.27c1.381,0,2.5,1.119,2.5,2.5
		S149.773,169.855,148.393,169.855z"/>
	<path fill="#EBE7F2" d="M148.393,178.65h-17.27c-1.381,0-2.5-1.119-2.5-2.5s1.119-2.5,2.5-2.5h17.27c1.381,0,2.5,1.119,2.5,2.5
		S149.773,178.65,148.393,178.65z"/>
	<path fill="#EBE7F2" d="M217.34,135.037c-1.381,0-2.5-1.119-2.5-2.5v-26.359c0-1.381,1.119-2.5,2.5-2.5s2.5,1.119,2.5,2.5v26.359
		C219.84,133.918,218.721,135.037,217.34,135.037z"/>
	<path fill="#F9B087" d="M135.807,123.602h-93.83c-0.835,0-1.614-0.417-2.078-1.111c-0.464-0.693-0.551-1.573-0.231-2.345
		l6.178-14.924c0.387-0.935,1.298-1.544,2.31-1.544h93.83c0.835,0,1.614,0.417,2.078,1.111c0.464,0.693,0.551,1.573,0.231,2.345
		l-6.178,14.924C137.729,122.992,136.818,123.602,135.807,123.602z M45.717,118.602h88.419l4.108-9.924H49.825L45.717,118.602z"/>
	<path fill="#EBE7F2" d="M145.619,76.901h-35.361c-19.272,0-34.951-15.679-34.951-34.951c0-1.381,1.119-2.5,2.5-2.5
		s2.5,1.119,2.5,2.5c0,16.515,13.437,29.951,29.951,29.951h35.361c1.381,0,2.5,1.119,2.5,2.5S147,76.901,145.619,76.901z"/>
	<path fill="#846F75" d="M232.508,103.678h-33.663c-1.381,0-2.5,1.119-2.5,2.5v4.09h-34.029v-4.09c0-1.381-1.119-2.5-2.5-2.5
		h-15.331v-9.246h7.759c7.933,0,14.386-6.454,14.386-14.387c0-22.486-18.294-40.78-40.78-40.78H77.483
		c-8.127,0-14.738,6.612-14.738,14.739c0,22.292,18.136,40.428,40.427,40.428h15.768v9.246H27.437c-1.381,0-2.5,1.119-2.5,2.5
		v29.849c0,1.381,1.119,2.5,2.5,2.5h5.911l-11.59,46.96c-0.185,0.746-0.016,1.535,0.459,2.14c0.474,0.605,1.199,0.959,1.968,0.959
		h22.849c1.15,0,2.151-0.784,2.427-1.901l5.344-21.651h17.508c7.063,0,13.179-4.79,14.871-11.648l3.667-14.857h10.874v46.367
		c0,10.855-8.832,19.688-19.688,19.688H51.707l-27.594-7.076c-0.748-0.192-1.544-0.026-2.153,0.446
		c-0.61,0.474-0.968,1.203-0.968,1.976v14.309c0,0.772,0.357,1.502,0.968,1.976c0.442,0.344,0.983,0.524,1.532,0.524
		c0.207,0,0.416-0.025,0.621-0.078l27.594-7.076h30.328c13.612,0,24.688-11.075,24.688-24.688v-46.367h21.9v48.355
		c0,1.381,1.119,2.5,2.5,2.5h17.27c1.381,0,2.5-1.119,2.5-2.5v-48.355h8.923c1.381,0,2.5-1.119,2.5-2.5v-6.222h34.029v2.732
		c0,1.381,1.119,2.5,2.5,2.5h33.663c1.381,0,2.5-1.119,2.5-2.5v-26.359C235.008,104.797,233.889,103.678,232.508,103.678z
		 M25.992,211.014v-7.865l15.334,3.933L25.992,211.014z M67.745,54.004c0-5.37,4.368-9.739,9.738-9.739h48.365
		c19.729,0,35.78,16.051,35.78,35.78c0,5.176-4.21,9.387-9.386,9.387h-49.071C83.638,89.432,67.745,73.539,67.745,54.004z
		 M123.939,94.432h15.545v9.246h-15.545V94.432z M45.075,183.585H27.377l11.12-45.059h17.698l-5.766,23.363
		c-0.005,0.02-0.01,0.04-0.015,0.06L45.075,183.585z M82.329,152.186c-1.141,4.62-5.26,7.847-10.018,7.847H56.038l5.308-21.506
		h4.724l3.184,13.441c0.272,1.15,1.298,1.925,2.431,1.925c0.19,0,0.385-0.022,0.578-0.068c1.344-0.318,2.175-1.665,1.856-3.009
		l-2.911-12.289H85.7L82.329,152.186z M145.893,184.382h-12.27v-45.855h12.27V184.382z M157.315,133.526H88.952
		c-0.044-0.001-0.088-0.001-0.131,0H29.937v-24.849h127.379V133.526z M162.315,124.805v-9.537h34.029v9.537H162.315z
		 M230.008,130.037h-28.663v-21.359h28.663V130.037z"/>
	<path fill="#F9B087" d="M226.024,228.524H29.976c-1.381,0-2.5-1.119-2.5-2.5s1.119-2.5,2.5-2.5h193.549v-80.987
		c0-1.381,1.119-2.5,2.5-2.5s2.5,1.119,2.5,2.5v83.487C228.524,227.405,227.405,228.524,226.024,228.524z"/>
	<path fill="#F9B087" d="M226.024,98.678c-1.381,0-2.5-1.119-2.5-2.5V32.476H32.476v62.358c0,1.381-1.119,2.5-2.5,2.5
		s-2.5-1.119-2.5-2.5V29.976c0-1.381,1.119-2.5,2.5-2.5h196.049c1.381,0,2.5,1.119,2.5,2.5v66.202
		C228.524,97.559,227.405,98.678,226.024,98.678z"/>
	<path fill="#F9B087" d="M191.211,193.438c-5.835,0-10.582-4.747-10.582-10.582s4.747-10.582,10.582-10.582
		c5.834,0,10.581,4.747,10.581,10.582S197.045,193.438,191.211,193.438z M191.211,177.273c-3.078,0-5.582,2.504-5.582,5.582
		s2.504,5.582,5.582,5.582c3.077,0,5.581-2.504,5.581-5.582S194.288,177.273,191.211,177.273z"/>
	<path fill="#F9B087" d="M203.644,215.746c-5.835,0-10.582-4.747-10.582-10.582c0-5.834,4.747-10.581,10.582-10.581
		c5.834,0,10.581,4.747,10.581,10.581C214.225,210.999,209.478,215.746,203.644,215.746z M203.644,199.583
		c-3.078,0-5.582,2.504-5.582,5.581c0,3.078,2.504,5.582,5.582,5.582c3.077,0,5.581-2.504,5.581-5.582
		C209.225,202.087,206.721,199.583,203.644,199.583z"/>
	<path fill="#F9B087" d="M178.778,215.746c-5.835,0-10.582-4.747-10.582-10.582c0-5.834,4.747-10.581,10.582-10.581
		c5.834,0,10.581,4.747,10.581,10.581C189.359,210.999,184.612,215.746,178.778,215.746z M178.778,199.583
		c-3.078,0-5.582,2.504-5.582,5.581c0,3.078,2.504,5.582,5.582,5.582c3.077,0,5.581-2.504,5.581-5.582
		C184.359,202.087,181.855,199.583,178.778,199.583z"/>
</g>
</svg>
