<?xml version="1.0" encoding="utf-8"?>
<!-- Generator: Adobe Illustrator 24.0.0, SVG Export Plug-In . SVG Version: 6.00 Build 0)  -->
<svg version="1.1" id="Layer_1" xmlns="http://www.w3.org/2000/svg" xmlns:xlink="http://www.w3.org/1999/xlink" x="0px" y="0px"
	 viewBox="0 0 256 256" enable-background="new 0 0 256 256" xml:space="preserve">
<g>
	<path fill="#EBE7F2" d="M84.157,160.086c-1.381,0-2.5-1.119-2.5-2.5v-50.235c0-1.381,1.119-2.5,2.5-2.5s2.5,1.119,2.5,2.5v50.235
		C86.657,158.967,85.538,160.086,84.157,160.086z"/>
	<path fill="#EBE7F2" d="M157.586,86.658h-22.584c-1.381,0-2.5-1.119-2.5-2.5s1.119-2.5,2.5-2.5h22.584c1.381,0,2.5,1.119,2.5,2.5
		S158.967,86.658,157.586,86.658z"/>
	<path fill="#A58BC9" d="M107.351,109.852H82.928c-0.983,0-1.875-0.576-2.279-1.473c-0.404-0.896-0.245-1.946,0.406-2.683
		c3.974-4.498,5.663-10.265,4.758-16.241c-1.313-8.666-8.601-15.668-17.329-16.649c-5.761-0.65-11.283,1.101-15.558,4.922
		c-4.218,3.77-6.637,9.174-6.637,14.827c0,4.83,1.773,9.497,4.994,13.141c0.651,0.737,0.81,1.787,0.406,2.683
		c-0.404,0.896-1.296,1.473-2.279,1.473H24.985c-1.381,0-2.5-1.119-2.5-2.5V33.557c0-6.105,4.967-11.072,11.072-11.072h73.794
		c1.381,0,2.5,1.119,2.5,2.5v19.576c4.837-2.759,10.506-3.838,16.146-2.98c11.038,1.673,19.62,10.603,20.869,21.715
		c0.797,7.086-1.45,14.175-6.163,19.447c-4.718,5.277-11.48,8.304-18.555,8.304c-4.338,0-8.569-1.14-12.296-3.27v19.574
		C109.851,108.732,108.732,109.852,107.351,109.852z M87.775,104.852h17.076V82.927c0-0.983,0.576-1.875,1.473-2.279
		c0.896-0.404,1.947-0.245,2.683,0.406c3.644,3.22,8.311,4.994,13.141,4.994c5.652,0,11.057-2.419,14.826-6.636
		c3.821-4.275,5.57-9.8,4.923-15.557c-0.981-8.728-7.983-16.017-16.649-17.33c-5.979-0.907-11.744,0.784-16.241,4.758
		c-0.737,0.651-1.786,0.812-2.683,0.405c-0.896-0.404-1.472-1.296-1.472-2.279V27.485H33.557c-3.348,0-6.072,2.724-6.072,6.072
		v71.294h17.074c-2.13-3.728-3.271-7.958-3.271-12.296c0-7.074,3.027-13.837,8.304-18.554c5.273-4.713,12.361-6.959,19.449-6.164
		c11.112,1.25,20.042,9.832,21.714,20.869C91.61,94.348,90.533,100.016,87.775,104.852z"/>
	<g>
		<path fill="#846F75" d="M223.373,81.658h-65.787c-1.381,0-2.5,1.119-2.5,2.5v21.773c0,0.983,0.576,1.875,1.473,2.279
			c0.895,0.404,1.945,0.247,2.683-0.406c3.948-3.49,9.017-4.972,14.259-4.177c7.606,1.153,13.752,7.55,14.613,15.211
			c0.568,5.055-0.967,9.905-4.321,13.658c-3.31,3.702-8.053,5.826-13.015,5.826c-4.239,0-8.336-1.557-11.536-4.384
			c-0.738-0.652-1.79-0.81-2.683-0.405c-0.896,0.404-1.473,1.296-1.473,2.279v19.274h-14.49c2.322-4.273,3.212-9.229,2.464-14.163
			c-1.509-9.961-9.567-17.706-19.596-18.833c-6.396-0.72-12.792,1.309-17.549,5.562c-4.762,4.257-7.494,10.36-7.494,16.743
			c0,3.758,0.948,7.427,2.725,10.691H84.157c-1.381,0-2.5,1.119-2.5,2.5v65.787c0,5.592,4.55,10.142,10.142,10.142h131.574
			c5.592,0,10.142-4.549,10.142-10.142V91.799C233.515,86.207,228.965,81.658,223.373,81.658z M170.777,143.323
			c6.383,0,12.485-2.731,16.742-7.493c4.254-4.758,6.281-11.154,5.563-17.549c-1.127-10.028-8.871-18.087-18.832-19.596
			c-4.936-0.749-9.891,0.143-14.164,2.464V86.658h63.287c2.835,0,5.142,2.307,5.142,5.142v63.287h-19.273
			c-0.983,0-1.875,0.576-2.279,1.473c-0.404,0.896-0.245,1.946,0.406,2.683c2.827,3.2,4.384,7.296,4.384,11.536
			c0,4.962-2.124,9.706-5.826,13.016c-3.753,3.355-8.604,4.888-13.659,4.32c-7.661-0.861-14.059-7.007-15.21-14.614
			c-0.795-5.246,0.688-10.309,4.177-14.257c0.65-0.737,0.81-1.787,0.405-2.683c-0.404-0.896-1.296-1.472-2.279-1.472h-19.273
			v-14.489C163.351,142.375,167.02,143.323,170.777,143.323z M86.657,223.373v-63.287h19.274c0.983,0,1.875-0.576,2.279-1.473
			c0.404-0.896,0.245-1.946-0.406-2.683c-2.827-3.199-4.384-7.296-4.384-11.536c0-4.962,2.124-9.706,5.826-13.015
			c3.753-3.354,8.6-4.889,13.659-4.321c7.661,0.861,14.059,7.007,15.211,14.614c0.795,5.247-0.688,10.31-4.177,14.258
			c-0.651,0.736-0.811,1.787-0.406,2.683c0.404,0.896,1.296,1.473,2.279,1.473h19.273v14.49c-4.273-2.321-9.229-3.212-14.161-2.464
			c-9.961,1.509-17.706,9.566-18.834,19.593c-0.72,6.395,1.307,12.792,5.561,17.551c4.257,4.763,10.36,7.495,16.744,7.495
			c3.758,0,7.427-0.948,10.69-2.724v14.487H91.799C88.964,228.515,86.657,226.208,86.657,223.373z M223.373,228.515h-63.287v-19.273
			c0-0.983-0.576-1.875-1.473-2.279c-0.896-0.404-1.946-0.245-2.683,0.406c-3.199,2.827-7.295,4.383-11.535,4.383
			c-4.963,0-9.707-2.124-13.017-5.827c-3.354-3.753-4.889-8.604-4.319-13.66c0.862-7.661,7.008-14.057,14.613-15.209
			c5.247-0.795,10.311,0.688,14.258,4.177c0.735,0.65,1.785,0.811,2.683,0.406c0.896-0.404,1.473-1.296,1.473-2.279v-19.273h14.491
			c-2.322,4.273-3.212,9.229-2.464,14.161c1.508,9.962,9.565,17.707,19.595,18.834c0.848,0.095,1.696,0.143,2.54,0.143
			c5.521,0,10.882-2.015,15.01-5.704c4.763-4.257,7.494-10.36,7.494-16.744c0-3.758-0.948-7.427-2.726-10.691h14.488v63.287
			C228.515,226.208,226.208,228.515,223.373,228.515z"/>
		<path fill="#846F75" d="M73.157,223.524H32.476V117.352c0-1.381-1.119-2.5-2.5-2.5s-2.5,1.119-2.5,2.5v108.673
			c0,1.381,1.119,2.5,2.5,2.5h43.182c1.381,0,2.5-1.119,2.5-2.5S74.538,223.524,73.157,223.524z"/>
		<path fill="#846F75" d="M117.351,32.476h106.173v40.682c0,1.381,1.119,2.5,2.5,2.5s2.5-1.119,2.5-2.5V29.976
			c0-1.381-1.119-2.5-2.5-2.5H117.351c-1.381,0-2.5,1.119-2.5,2.5S115.97,32.476,117.351,32.476z"/>
	</g>
</g>
</svg>
