<?xml version="1.0" encoding="utf-8"?>
<!-- Generator: Adobe Illustrator 24.0.0, SVG Export Plug-In . SVG Version: 6.00 Build 0)  -->
<svg version="1.1" id="Layer_1" xmlns="http://www.w3.org/2000/svg" xmlns:xlink="http://www.w3.org/1999/xlink" x="0px" y="0px"
	 viewBox="0 0 256 256" enable-background="new 0 0 256 256" xml:space="preserve">
<g>
	<path fill="#ED9ABC" d="M167.859,183.157h-23.325c-1.381,0-2.5-1.119-2.5-2.5s1.119-2.5,2.5-2.5h20.825v-53.029
		c0-6.609-5.377-11.986-11.986-11.986h-15.06c-1.154,0-2.158-0.79-2.43-1.911s0.259-2.283,1.285-2.812
		c6.92-3.563,11.185-10.897,10.866-18.683c-0.412-10.047-8.58-18.461-18.596-19.156c-5.635-0.394-11.004,1.504-15.113,5.336
		c-4.112,3.837-6.376,9.045-6.376,14.665c0,7.546,4.17,14.381,10.883,17.838c1.026,0.528,1.557,1.69,1.285,2.812
		s-1.276,1.911-2.43,1.911h-15.06c-6.609,0-11.986,5.377-11.986,11.986v53.029h20.825c1.381,0,2.5,1.119,2.5,2.5s-1.119,2.5-2.5,2.5
		H88.141c-1.381,0-2.5-1.119-2.5-2.5v-55.529c0-9.366,7.62-16.986,16.986-16.986h7.488c-4.535-4.606-7.167-10.859-7.167-17.561
		c0-6.92,2.903-13.598,7.966-18.32c5.134-4.79,11.84-7.155,18.871-6.669c12.729,0.884,22.723,11.176,23.246,23.939
		c0.288,7.017-2.407,13.738-7.177,18.61h7.52c9.366,0,16.986,7.62,16.986,16.986v55.529
		C170.359,182.038,169.24,183.157,167.859,183.157z"/>
	<g>
		<path fill="#846F75" d="M129.768,120.186c-0.976-0.977-2.56-0.977-3.535,0l-19.341,19.341c-0.715,0.715-0.929,1.79-0.542,2.725
			c0.387,0.934,1.298,1.543,2.31,1.543h8.372v18.965c0,1.381,1.119,2.5,2.5,2.5h16.938c1.381,0,2.5-1.119,2.5-2.5v-18.965h8.372
			c1.011,0,1.923-0.609,2.31-1.543c0.387-0.935,0.173-2.01-0.542-2.725L129.768,120.186z M136.469,138.794
			c-1.381,0-2.5,1.119-2.5,2.5v18.965h-11.938v-18.965c0-1.381-1.119-2.5-2.5-2.5h-4.836L128,125.488l13.305,13.306H136.469z"/>
		<path fill="#846F75" d="M136.469,171.06h-16.938c-1.381,0-2.5,1.119-2.5,2.5v14.411c0,1.381,1.119,2.5,2.5,2.5h16.938
			c1.381,0,2.5-1.119,2.5-2.5V173.56C138.969,172.179,137.85,171.06,136.469,171.06z M133.969,185.471h-11.938v-9.411h11.938
			V185.471z"/>
		<path fill="#846F75" d="M227.137,104.922c-0.001,0-0.002-0.001-0.003-0.001l-26.768-6.897l14.051-23.807
			c2.851-4.841,2.067-10.998-1.906-14.972l-15.758-15.758c-3.972-3.972-10.128-4.757-14.974-1.905l-23.804,14.051l-6.898-26.771
			c-1.409-5.438-6.316-9.237-11.935-9.237h-22.286c-5.618,0-10.526,3.799-11.935,9.24l-6.897,26.768L74.218,41.581
			c-4.844-2.85-11-2.065-14.971,1.906L43.489,59.245c-3.974,3.974-4.758,10.13-1.906,14.974l14.05,23.805l-26.771,6.898
			c-5.439,1.408-9.238,6.316-9.238,11.935v22.285c0,5.619,3.799,10.527,9.241,11.937l26.767,6.896l-14.052,23.807
			c-2.851,4.843-2.066,10.999,1.907,14.973l15.758,15.758c3.972,3.972,10.128,4.757,14.974,1.905l23.804-14.051l6.898,26.771
			c1.409,5.439,6.316,9.238,11.934,9.238h22.286c5.618,0,10.526-3.799,11.936-9.241l6.897-26.768l23.807,14.052
			c4.841,2.85,10.998,2.065,14.971-1.906l15.759-15.758c3.973-3.974,4.757-10.131,1.904-14.975l-14.05-23.805l26.771-6.897
			c5.439-1.408,9.238-6.316,9.238-11.936v-22.285C236.375,111.238,232.576,106.33,227.137,104.922z M231.375,139.142
			c0,3.34-2.258,6.258-5.488,7.095l-29.986,7.726c-0.761,0.196-1.385,0.738-1.686,1.464c-0.301,0.727-0.243,1.551,0.157,2.228
			l15.738,26.665c1.695,2.878,1.229,6.538-1.133,8.9l-15.758,15.758c-2.361,2.36-6.02,2.829-8.896,1.134l-26.667-15.74
			c-0.677-0.398-1.503-0.457-2.228-0.156c-0.726,0.301-1.269,0.925-1.464,1.686l-7.726,29.983c-0.838,3.233-3.755,5.492-7.095,5.492
			h-22.286c-3.339,0-6.256-2.259-7.093-5.489l-7.727-29.986c-0.196-0.761-0.738-1.385-1.464-1.686
			c-0.307-0.128-0.632-0.19-0.957-0.19c-0.441,0-0.881,0.117-1.271,0.347l-26.664,15.739c-2.878,1.692-6.539,1.227-8.9-1.133
			l-15.758-15.758c-2.362-2.362-2.828-6.022-1.135-8.898l15.74-26.667c0.399-0.677,0.458-1.501,0.157-2.228
			c-0.301-0.726-0.925-1.268-1.686-1.464l-29.982-7.725c-3.233-0.838-5.492-3.756-5.492-7.096v-22.285
			c0-3.34,2.258-6.257,5.489-7.094l29.986-7.727c0.761-0.196,1.385-0.738,1.686-1.464c0.301-0.727,0.243-1.551-0.157-2.228
			L45.89,71.68c-1.694-2.878-1.228-6.537,1.134-8.899l15.758-15.758c2.361-2.361,6.021-2.827,8.897-1.134l26.667,15.74
			c0.677,0.398,1.502,0.458,2.228,0.156c0.726-0.301,1.269-0.925,1.464-1.686l7.727-29.983c0.837-3.233,3.754-5.491,7.093-5.491
			h22.286c3.34,0,6.257,2.258,7.094,5.488l7.727,29.986c0.196,0.761,0.738,1.385,1.464,1.686c0.726,0.303,1.551,0.243,2.228-0.156
			l26.664-15.739c2.879-1.692,6.538-1.228,8.899,1.133l15.758,15.758c2.362,2.362,2.828,6.021,1.135,8.897l-15.739,26.667
			c-0.399,0.677-0.458,1.501-0.157,2.228c0.301,0.726,0.925,1.268,1.686,1.464l29.986,7.727c3.232,0.839,5.489,3.755,5.489,7.094
			V139.142z"/>
	</g>
	<path fill="#EBE7F2" d="M179.813,182.313c-1.381,0-2.5-1.119-2.5-2.5V78.687H155.96c-1.381,0-2.5-1.119-2.5-2.5s1.119-2.5,2.5-2.5
		h23.853c1.381,0,2.5,1.119,2.5,2.5v103.627C182.313,181.194,181.194,182.313,179.813,182.313z"/>
	<path fill="#EBE7F2" d="M76.187,182.313c-1.381,0-2.5-1.119-2.5-2.5V76.187c0-1.381,1.119-2.5,2.5-2.5h23.807
		c1.381,0,2.5,1.119,2.5,2.5s-1.119,2.5-2.5,2.5H78.687v101.127C78.687,181.194,77.568,182.313,76.187,182.313z"/>
</g>
</svg>
