<?xml version="1.0" encoding="utf-8"?>
<!-- Generator: Adobe Illustrator 24.0.0, SVG Export Plug-In . SVG Version: 6.00 Build 0)  -->
<svg version="1.1" id="Layer_1" xmlns="http://www.w3.org/2000/svg" xmlns:xlink="http://www.w3.org/1999/xlink" x="0px" y="0px"
	 viewBox="0 0 256 256" enable-background="new 0 0 256 256" xml:space="preserve">
<g>
	<path fill="#EBE7F2" d="M170.587,102.179H90.08c-1.381,0-2.5-1.119-2.5-2.5s1.119-2.5,2.5-2.5h80.507c1.381,0,2.5,1.119,2.5,2.5
		S171.968,102.179,170.587,102.179z"/>
	<path fill="#65C1D6" d="M90.08,190.535c-8.131,0-15.985-2.29-22.8-6.634l-15.485,5.525c-0.911,0.326-1.925,0.096-2.608-0.587
		s-0.912-1.698-0.587-2.608l5.538-15.522c-4.283-6.779-6.54-14.583-6.54-22.656c0-23.424,19.057-42.481,42.481-42.481
		c23.425,0,42.482,19.057,42.482,42.481C132.562,171.478,113.505,190.535,90.08,190.535z M67.614,178.627
		c0.495,0,0.986,0.147,1.407,0.433c6.224,4.236,13.506,6.475,21.059,6.475c20.667,0,37.482-16.814,37.482-37.482
		s-16.814-37.481-37.482-37.481s-37.481,16.814-37.481,37.481c0,7.5,2.208,14.738,6.384,20.93c0.444,0.659,0.549,1.49,0.282,2.238
		l-4.183,11.723l11.692-4.171C67.047,178.675,67.332,178.627,67.614,178.627z"/>
	<g>
		<path fill="#846F75" d="M90.08,102.523c1.381,0,2.5-1.119,2.5-2.5v-4.941c0-1.774,1.444-3.218,3.218-3.218h69.071
			c1.774,0,3.218,1.444,3.218,3.218V197.82c0,4.694-3.819,8.513-8.514,8.513h-58.48c-4.694,0-8.514-3.819-8.514-8.513v-2.074
			c0-1.381-1.119-2.5-2.5-2.5s-2.5,1.119-2.5,2.5v2.074c0,7.451,6.062,13.513,13.514,13.513h58.48
			c7.452,0,13.514-6.062,13.514-13.513v-6.734h0.948c18.559,0,33.657-15.098,33.657-33.657v-39.669
			c0-7.474-6.081-13.555-13.556-13.555h-21.049v-9.124c0-4.532-3.687-8.218-8.218-8.218H95.798c-4.532,0-8.218,3.687-8.218,8.218
			v4.941C87.58,101.404,88.699,102.523,90.08,102.523z M173.087,120.642h18.168v36.788c0,9.495-7.725,17.22-17.22,17.22h-0.948
			V120.642z M194.136,109.206c4.718,0,8.556,3.838,8.556,8.555v39.669c0,15.801-12.855,28.657-28.657,28.657h-0.948v-6.437h0.948
			c12.252,0,22.22-9.968,22.22-22.22v-39.288c0-1.381-1.119-2.5-2.5-2.5h-20.668v-6.437H194.136z"/>
		<path fill="#846F75" d="M143.516,191.433v-74.726c0-1.381-1.119-2.5-2.5-2.5s-2.5,1.119-2.5,2.5v74.726c0,1.381,1.119,2.5,2.5,2.5
			S143.516,192.813,143.516,191.433z"/>
		<path fill="#846F75" d="M156.789,191.433v-74.726c0-1.381-1.119-2.5-2.5-2.5s-2.5,1.119-2.5,2.5v74.726c0,1.381,1.119,2.5,2.5,2.5
			S156.789,192.813,156.789,191.433z"/>
		<path fill="#846F75" d="M229.046,64.558H26.954c-1.381,0-2.5,1.119-2.5,2.5v161.085c0,1.381,1.119,2.5,2.5,2.5h202.092
			c1.381,0,2.5-1.119,2.5-2.5V67.058C231.546,65.677,230.427,64.558,229.046,64.558z M226.546,225.643H29.454V69.558h197.092
			V225.643z"/>
		<path fill="#846F75" d="M26.954,55.357h201.232c1.381,0,2.5-1.119,2.5-2.5s-1.119-2.5-2.5-2.5H29.454V36.981h198.732
			c1.381,0,2.5-1.119,2.5-2.5s-1.119-2.5-2.5-2.5H26.954c-1.381,0-2.5,1.119-2.5,2.5v18.376
			C24.454,54.238,25.573,55.357,26.954,55.357z"/>
		<path fill="#846F75" d="M77.372,142.807c1.381,0,2.5-1.119,2.5-2.5v-9.145h18.29v18.29h-9.145c-1.381,0-2.5,1.119-2.5,2.5v6.608
			c0,1.381,1.119,2.5,2.5,2.5s2.5-1.119,2.5-2.5v-4.108h9.145c1.381,0,2.5-1.119,2.5-2.5v-23.29c0-1.381-1.119-2.5-2.5-2.5h-23.29
			c-1.381,0-2.5,1.119-2.5,2.5v11.645C74.872,141.688,75.991,142.807,77.372,142.807z"/>
		<path fill="#846F75" d="M91.517,170.427v-2.694c0-1.381-1.119-2.5-2.5-2.5s-2.5,1.119-2.5,2.5v2.694c0,1.381,1.119,2.5,2.5,2.5
			S91.517,171.808,91.517,170.427z"/>
	</g>
	<path fill="#65C1D6" d="M55.043,84.355c-1.381,0-2.5-1.119-2.5-2.5V28.289c0-1.381,1.119-2.5,2.5-2.5s2.5,1.119,2.5,2.5v53.566
		C57.543,83.236,56.424,84.355,55.043,84.355z"/>
	<path fill="#65C1D6" d="M200.491,84.355c-1.381,0-2.5-1.119-2.5-2.5V28.289c0-1.381,1.119-2.5,2.5-2.5s2.5,1.119,2.5,2.5v53.566
		C202.991,83.236,201.872,84.355,200.491,84.355z"/>
</g>
</svg>
