<?xml version="1.0" encoding="utf-8"?>
<!-- Generator: Adobe Illustrator 24.0.0, SVG Export Plug-In . SVG Version: 6.00 Build 0)  -->
<svg version="1.1" id="Layer_1" xmlns="http://www.w3.org/2000/svg" xmlns:xlink="http://www.w3.org/1999/xlink" x="0px" y="0px"
	 viewBox="0 0 256 256" enable-background="new 0 0 256 256" xml:space="preserve">
<g>
	<path fill="#EBE7F2" d="M153.17,166.453c-0.64,0-1.279-0.244-1.768-0.732c-0.977-0.977-0.977-2.56,0-3.535l7.139-7.138
		c0.977-0.977,2.559-0.977,3.535,0s0.977,2.56,0,3.535l-7.139,7.138C154.449,166.209,153.81,166.453,153.17,166.453z"/>
	<path fill="#EBE7F2" d="M160.235,173.519c-0.64,0-1.279-0.244-1.768-0.732c-0.977-0.977-0.977-2.56,0-3.535l7.139-7.138
		c0.977-0.977,2.559-0.977,3.535,0s0.977,2.56,0,3.535l-7.139,7.138C161.515,173.274,160.875,173.519,160.235,173.519z"/>
	<path fill="#EBE7F2" d="M167.302,180.585c-0.64,0-1.279-0.244-1.768-0.732c-0.977-0.976-0.977-2.559,0-3.535l7.138-7.139
		c0.977-0.977,2.559-0.977,3.535,0c0.977,0.976,0.977,2.559,0,3.535l-7.138,7.139C168.581,180.341,167.941,180.585,167.302,180.585z
		"/>
	<path fill="#EBE7F2" d="M173.354,120.628c-0.64,0-1.279-0.244-1.768-0.732c-0.977-0.977-0.977-2.559,0-3.535l20.998-20.998
		c0.977-0.977,2.559-0.977,3.535,0s0.977,2.559,0,3.535l-20.998,20.998C174.634,120.384,173.994,120.628,173.354,120.628z"/>
	<path fill="#EBE7F2" d="M144.686,91.959c-0.64,0-1.279-0.244-1.768-0.732c-0.977-0.977-0.977-2.56,0-3.535l20.998-20.997
		c0.977-0.977,2.559-0.977,3.535,0s0.977,2.56,0,3.535l-20.998,20.997C145.965,91.715,145.325,91.959,144.686,91.959z"/>
	<g>
		<path fill="#846F75" d="M183.356,175.036l-19.947-19.948c-2.582-3.172-41.161-50.525-49.347-58.711L86.628,68.942
			c-4.675-4.675-13.263-3.696-19.145,2.186c-2.759,2.758-4.547,6.195-5.034,9.679c-0.524,3.744,0.487,7.106,2.849,9.467
			l27.435,27.435c8.186,8.186,55.539,46.764,58.711,49.346L171.39,187c-1.372,2.533-0.989,5.773,1.15,7.914
			c1.304,1.303,3.016,1.953,4.727,1.953c1.712,0,3.424-0.651,4.727-1.954l9.273-9.273c1.263-1.263,1.958-2.941,1.958-4.728
			c0-1.785-0.695-3.464-1.958-4.726C189.129,174.047,185.89,173.664,183.356,175.036z M154.699,163.256
			c-0.502-0.408-50.321-40.973-58.432-49.083L68.833,86.738C67.608,85.513,67.1,83.652,67.4,81.5
			c0.338-2.414,1.623-4.842,3.618-6.837c2.396-2.396,5.432-3.69,8.031-3.69c1.594,0,3.024,0.486,4.043,1.505l27.435,27.435
			c8.11,8.11,48.676,57.93,49.085,58.432c0.054,0.066,0.11,0.129,0.171,0.189l19.842,19.842l-4.895,4.894l-19.841-19.841
			C154.828,163.367,154.766,163.311,154.699,163.256z M187.731,182.103l-9.273,9.274c-0.656,0.656-1.726,0.656-2.382,0
			c-0.657-0.657-0.657-1.726-0.001-2.383l0.404-0.404c0.006-0.006,0.013-0.012,0.019-0.018l8.43-8.43c0,0,0,0,0.001-0.001
			l0.421-0.421c0.656-0.657,1.726-0.656,2.382,0.001c0.318,0.317,0.493,0.74,0.493,1.189
			C188.225,181.361,188.05,181.784,187.731,182.103z"/>
		<path fill="#846F75" d="M118.305,148.846l-42.126,42.126c-1.195,1.196-3.142,1.195-4.337,0s-1.195-3.141,0-4.336l41.27-41.27
			c0.977-0.977,0.977-2.559,0-3.535s-2.559-0.977-3.535,0l-41.27,41.27c-3.145,3.145-3.145,8.262,0,11.406
			c1.572,1.572,3.638,2.359,5.703,2.359c2.066,0,4.132-0.787,5.704-2.359l42.126-42.126c0.977-0.977,0.977-2.559,0-3.535
			S119.281,147.869,118.305,148.846z"/>
		<path fill="#846F75" d="M202.951,102.194L160.62,59.862c-0.938-0.938-2.598-0.938-3.535,0L136.087,80.86
			c-0.977,0.977-0.977,2.559,0,3.535l15.462,15.462l-13.718,13.719c-0.977,0.977-0.977,2.56,0,3.535
			c0.488,0.488,1.128,0.732,1.768,0.732s1.279-0.244,1.768-0.732l13.718-13.719l4.337,4.337l-14.45,14.45
			c-0.977,0.977-0.977,2.559,0,3.535c0.488,0.488,1.128,0.732,1.768,0.732s1.279-0.244,1.768-0.732l14.45-14.45l15.462,15.462
			c0.488,0.488,1.128,0.732,1.768,0.732s1.279-0.244,1.768-0.732l20.998-20.997c0.469-0.469,0.732-1.104,0.732-1.768
			S203.42,102.663,202.951,102.194z M180.186,121.424L141.39,82.628l17.463-17.463l38.796,38.797L180.186,121.424z"/>
	</g>
	<path fill="#ED9ABC" d="M128,250.5c-0.755,0-1.47-0.341-1.944-0.929l-26.789-33.14l-41.151,11.064
		c-0.729,0.197-1.508,0.053-2.119-0.392c-0.61-0.443-0.988-1.14-1.027-1.894l-2.193-42.558l-39.796-15.236
		c-0.705-0.271-1.251-0.845-1.484-1.563s-0.129-1.503,0.282-2.136L35.018,128l-23.24-35.719c-0.411-0.633-0.516-1.418-0.282-2.136
		s0.779-1.292,1.484-1.563l39.796-15.236l2.193-42.558c0.039-0.754,0.417-1.45,1.027-1.894c0.611-0.443,1.391-0.587,2.119-0.392
		l41.151,11.064l26.789-33.14C126.53,5.841,127.245,5.5,128,5.5s1.47,0.341,1.944,0.929l26.789,33.14l41.151-11.064
		c0.729-0.195,1.509-0.052,2.119,0.392s0.988,1.14,1.027,1.894l2.193,42.558l39.796,15.236c0.705,0.271,1.251,0.845,1.484,1.563
		s0.129,1.503-0.282,2.136L220.982,128l23.24,35.719c0.411,0.633,0.516,1.418,0.282,2.136s-0.779,1.292-1.484,1.563l-39.796,15.236
		l-2.193,42.558c-0.039,0.754-0.417,1.45-1.027,1.894c-0.61,0.444-1.39,0.589-2.119,0.392l-41.151-11.064l-26.789,33.14
		C129.47,250.159,128.755,250.5,128,250.5z M100.188,211.095c0.743,0,1.463,0.332,1.944,0.929l25.867,32l25.867-32
		c0.621-0.771,1.64-1.099,2.594-0.843l39.735,10.684l2.118-41.093c0.052-0.987,0.68-1.853,1.604-2.206l38.427-14.712l-22.44-34.49
		c-0.539-0.829-0.539-1.897,0-2.727l22.44-34.49l-38.427-14.712c-0.924-0.354-1.552-1.219-1.604-2.206l-2.118-41.093l-39.735,10.684
		c-0.953,0.256-1.973-0.073-2.594-0.843l-25.867-32l-25.867,32c-0.621,0.77-1.639,1.098-2.594,0.843L59.804,34.136l-2.118,41.093
		c-0.052,0.987-0.68,1.853-1.604,2.206L17.655,92.146l22.44,34.49c0.539,0.829,0.539,1.897,0,2.727l-22.44,34.49l38.427,14.712
		c0.924,0.354,1.552,1.219,1.604,2.206l2.118,41.093l39.735-10.684C99.754,211.123,99.973,211.095,100.188,211.095z"/>
</g>
</svg>
