<?xml version="1.0" encoding="utf-8"?>
<!-- Generator: Adobe Illustrator 24.0.0, SVG Export Plug-In . SVG Version: 6.00 Build 0)  -->
<svg version="1.1" id="Layer_1" xmlns="http://www.w3.org/2000/svg" xmlns:xlink="http://www.w3.org/1999/xlink" x="0px" y="0px"
	 viewBox="0 0 256 256" enable-background="new 0 0 256 256" xml:space="preserve">
<g>
	<g>
		<path fill="#ED9ABC" d="M175.006,184.664h-6.809v-30.335c0-8.933-7.268-16.2-16.201-16.2h-6.793
			c4.399-4.614,6.874-10.908,6.605-17.472c-0.498-12.141-10.004-21.93-22.111-22.771c-6.69-0.463-13.066,1.789-17.949,6.344
			c-4.815,4.492-7.577,10.844-7.577,17.426c0,6.263,2.418,12.113,6.594,16.473h-6.762c-8.933,0-16.201,7.268-16.201,16.2v30.335
			h-6.81c-1.381,0-2.5,1.119-2.5,2.5s1.119,2.5,2.5,2.5h6.81v17.183c0,1.381,1.119,2.5,2.5,2.5h22.059c1.381,0,2.5-1.119,2.5-2.5
			s-1.119-2.5-2.5-2.5H92.803v-50.018c0-6.176,5.024-11.2,11.201-11.2h14.243c1.154,0,2.158-0.79,2.43-1.911
			s-0.259-2.283-1.285-2.812c-6.304-3.247-10.22-9.665-10.22-16.75c0-5.277,2.126-10.168,5.988-13.771
			c3.858-3.6,8.898-5.386,14.192-5.011c9.404,0.653,17.074,8.554,17.461,17.987c0.299,7.31-3.706,14.196-10.203,17.544
			c-1.026,0.528-1.557,1.69-1.285,2.812s1.276,1.911,2.43,1.911h14.242c6.177,0,11.201,5.024,11.201,11.2v50.018h-19.56
			c-1.381,0-2.5,1.119-2.5,2.5s1.119,2.5,2.5,2.5h22.06c1.381,0,2.5-1.119,2.5-2.5v-17.183h6.809c1.381,0,2.5-1.119,2.5-2.5
			S176.387,184.664,175.006,184.664z"/>
		<path fill="#ED9ABC" d="M197.155,130.557h-4.521c3.238-3.773,5.033-8.707,4.823-13.838c-0.416-10.152-8.366-18.339-18.492-19.043
			c-5.591-0.389-10.926,1.494-15.009,5.305c-4.027,3.757-6.337,9.069-6.337,14.574c0,4.875,1.752,9.452,4.812,13.002h-4.492
			c-1.381,0-2.5,1.119-2.5,2.5s1.119,2.5,2.5,2.5h11.639c1.154,0,2.158-0.79,2.43-1.911s-0.259-2.283-1.285-2.812
			c-4.998-2.574-8.103-7.663-8.103-13.279c0-4.185,1.687-8.063,4.747-10.919c3.059-2.852,7.052-4.266,11.252-3.972
			c7.456,0.519,13.536,6.781,13.843,14.26c0.237,5.797-2.938,11.257-8.09,13.91c-1.026,0.528-1.557,1.69-1.285,2.812
			s1.275,1.911,2.43,1.911h11.639c4.794,0,8.694,3.9,8.694,8.695v40.412h-10.844c-1.381,0-2.5,1.119-2.5,2.5s1.119,2.5,2.5,2.5
			h13.344c1.381,0,2.5-1.119,2.5-2.5v-42.912C210.85,136.7,204.706,130.557,197.155,130.557z"/>
		<path fill="#ED9ABC" d="M77.381,102.664c4.193-0.295,8.193,1.119,11.252,3.973c3.062,2.855,4.748,6.733,4.748,10.918
			c0,5.616-3.105,10.705-8.103,13.279c-1.025,0.528-1.557,1.69-1.285,2.812s1.276,1.911,2.43,1.911H98.06c1.381,0,2.5-1.119,2.5-2.5
			s-1.119-2.5-2.5-2.5h-4.492c3.06-3.55,4.812-8.127,4.812-13.002c0-5.505-2.31-10.817-6.337-14.574
			c-4.084-3.81-9.416-5.695-15.009-5.305c-10.126,0.704-18.076,8.891-18.492,19.043c-0.21,5.131,1.584,10.064,4.824,13.838h-4.521
			c-7.551,0-13.695,6.144-13.695,13.695v42.912c0,1.381,1.119,2.5,2.5,2.5h12.454c1.381,0,2.5-1.119,2.5-2.5s-1.119-2.5-2.5-2.5
			H50.15v-40.412c0-4.795,3.9-8.695,8.695-8.695h11.638c1.154,0,2.158-0.79,2.43-1.911s-0.259-2.283-1.285-2.812
			c-5.151-2.653-8.327-8.113-8.089-13.91C63.844,109.445,69.925,103.183,77.381,102.664z"/>
	</g>
	<g>
		<path fill="#846F75" d="M129.768,149.559c-0.977-0.977-2.56-0.977-3.535,0l-18.292,18.292c-0.715,0.715-0.929,1.79-0.542,2.725
			c0.387,0.934,1.298,1.543,2.31,1.543h7.783v17.8c0,1.381,1.119,2.5,2.5,2.5h16.019c1.381,0,2.5-1.119,2.5-2.5v-17.8h7.782
			c1.011,0,1.923-0.609,2.31-1.543c0.387-0.935,0.173-2.01-0.542-2.725L129.768,149.559z M136.01,167.118
			c-1.381,0-2.5,1.119-2.5,2.5v17.8h-11.019v-17.8c0-1.381-1.119-2.5-2.5-2.5h-4.247L128,154.861l12.257,12.257H136.01z"/>
		<path fill="#846F75" d="M136.01,197.634h-16.019c-1.381,0-2.5,1.119-2.5,2.5v13.629c0,1.381,1.119,2.5,2.5,2.5h16.019
			c1.381,0,2.5-1.119,2.5-2.5v-13.629C138.51,198.753,137.391,197.634,136.01,197.634z M133.51,211.263h-11.019v-8.629h11.019
			V211.263z"/>
		<path fill="#846F75" d="M72.761,150.38c-0.976-0.977-2.56-0.977-3.535,0l-9.252,9.252c-0.977,0.976-0.977,2.559,0,3.535
			c0.976,0.977,2.56,0.977,3.535,0l4.985-4.985v47.529c0,1.381,1.119,2.5,2.5,2.5s2.5-1.119,2.5-2.5v-47.529l4.985,4.985
			c0.488,0.488,1.128,0.732,1.768,0.732s1.28-0.244,1.768-0.732c0.977-0.977,0.977-2.56,0-3.535L72.761,150.38z"/>
		<path fill="#846F75" d="M196.026,159.632l-9.253-9.252c-0.977-0.977-2.559-0.977-3.535,0l-9.252,9.252
			c-0.977,0.977-0.977,2.559,0,3.535s2.559,0.977,3.535,0l4.984-4.984v47.528c0,1.381,1.119,2.5,2.5,2.5s2.5-1.119,2.5-2.5v-47.529
			l4.985,4.985c0.488,0.488,1.128,0.732,1.768,0.732s1.279-0.244,1.768-0.732C197.003,162.19,197.003,160.607,196.026,159.632z"/>
		<path fill="#846F75" d="M136.798,87.442c4.851-4.851,4.851-12.743,0-17.595c-4.851-4.851-12.744-4.851-17.596,0
			c-2.35,2.35-3.644,5.475-3.644,8.798s1.294,6.447,3.644,8.797c2.35,2.351,5.475,3.645,8.798,3.645S134.448,89.793,136.798,87.442z
			 M120.559,78.646c0-1.988,0.774-3.856,2.179-5.263c1.451-1.45,3.356-2.176,5.262-2.176c1.906,0,3.812,0.726,5.263,2.176
			c2.9,2.902,2.901,7.623,0,10.524c-1.406,1.405-3.274,2.18-5.263,2.18c-1.988,0-3.856-0.774-5.262-2.18
			C121.333,82.502,120.559,80.633,120.559,78.646z"/>
		<path fill="#846F75" d="M105.703,56.349c-0.977,0.977-0.977,2.559,0,3.535c0.976,0.977,2.56,0.977,3.535,0
			c10.346-10.346,27.179-10.345,37.523,0c0.488,0.488,1.128,0.732,1.768,0.732s1.279-0.244,1.768-0.732
			c0.977-0.977,0.977-2.559,0-3.535C138.003,44.054,117.998,44.054,105.703,56.349z"/>
		<path fill="#846F75" d="M91.233,41.878c-0.977,0.977-0.977,2.559,0,3.535c0.488,0.488,1.128,0.732,1.768,0.732
			s1.28-0.244,1.768-0.732c18.324-18.323,48.141-18.321,66.464,0c0.977,0.977,2.559,0.977,3.535,0s0.977-2.56,0-3.535
			C144.494,21.604,111.506,21.604,91.233,41.878z"/>
		<path fill="#846F75" d="M81.396,32.041c12.449-12.448,29-19.304,46.604-19.304s34.155,6.855,46.604,19.304
			c0.488,0.488,1.128,0.732,1.768,0.732s1.279-0.244,1.768-0.732c0.977-0.977,0.977-2.559,0-3.535
			C164.746,15.113,146.939,7.737,128,7.737c-18.94,0-36.747,7.376-50.139,20.769c-0.977,0.977-0.977,2.559,0,3.535
			C78.836,33.018,80.42,33.018,81.396,32.041z"/>
	</g>
	<path fill="#ED9ABC" d="M226.024,228.524H29.976c-1.381,0-2.5-1.119-2.5-2.5V29.976c0-1.381,1.119-2.5,2.5-2.5h39.653
		c1.381,0,2.5,1.119,2.5,2.5s-1.119,2.5-2.5,2.5H32.476v191.049h191.049V32.476h-37.153c-1.381,0-2.5-1.119-2.5-2.5
		s1.119-2.5,2.5-2.5h39.653c1.381,0,2.5,1.119,2.5,2.5v196.049C228.524,227.405,227.405,228.524,226.024,228.524z"/>
</g>
</svg>
