<?xml version="1.0" encoding="utf-8"?>
<!-- Generator: Adobe Illustrator 24.0.0, SVG Export Plug-In . SVG Version: 6.00 Build 0)  -->
<svg version="1.1" id="Layer_1" xmlns="http://www.w3.org/2000/svg" xmlns:xlink="http://www.w3.org/1999/xlink" x="0px" y="0px"
	 viewBox="0 0 256 256" enable-background="new 0 0 256 256" xml:space="preserve">
<g>
	<path fill="#65C1D6" d="M93.204,228.524H29.976c-1.381,0-2.5-1.119-2.5-2.5v-52.992c0-1.381,1.119-2.5,2.5-2.5s2.5,1.119,2.5,2.5
		v50.492h60.729c1.381,0,2.5,1.119,2.5,2.5S94.585,228.524,93.204,228.524z"/>
	<path fill="#65C1D6" d="M226.024,228.524h-63.229c-1.381,0-2.5-1.119-2.5-2.5s1.119-2.5,2.5-2.5h60.729v-50.492
		c0-1.381,1.119-2.5,2.5-2.5s2.5,1.119,2.5,2.5v52.992C228.524,227.405,227.405,228.524,226.024,228.524z"/>
	<path fill="#65C1D6" d="M226.024,91.829c-1.381,0-2.5-1.119-2.5-2.5V32.476h-65.729c-1.381,0-2.5-1.119-2.5-2.5s1.119-2.5,2.5-2.5
		h68.229c1.381,0,2.5,1.119,2.5,2.5v59.353C228.524,90.709,227.405,91.829,226.024,91.829z"/>
	<path fill="#65C1D6" d="M29.976,91.83c-1.381,0-2.5-1.119-2.5-2.5V29.976c0-1.381,1.119-2.5,2.5-2.5h68.229
		c1.381,0,2.5,1.119,2.5,2.5s-1.119,2.5-2.5,2.5H32.476V89.33C32.476,90.71,31.356,91.83,29.976,91.83z"/>
	<path fill="#65C1D6" d="M152.906,59.101h-49.813c-1.381,0-2.5-1.119-2.5-2.5s1.119-2.5,2.5-2.5h49.813c1.381,0,2.5,1.119,2.5,2.5
		S154.287,59.101,152.906,59.101z"/>
	<path fill="#65C1D6" d="M152.906,71.162h-49.813c-1.381,0-2.5-1.119-2.5-2.5s1.119-2.5,2.5-2.5h49.813c1.381,0,2.5,1.119,2.5,2.5
		S154.287,71.162,152.906,71.162z"/>
	<path fill="#65C1D6" d="M128,49.617c-7.788,0-14.125-6.336-14.125-14.125c0-1.381,1.119-2.5,2.5-2.5s2.5,1.119,2.5,2.5
		c0,5.031,4.094,9.125,9.125,9.125s9.125-4.093,9.125-9.125c0-1.381,1.119-2.5,2.5-2.5s2.5,1.119,2.5,2.5
		C142.125,43.281,135.788,49.617,128,49.617z"/>
	<path fill="#65C1D6" d="M152.906,227.183h-49.813c-1.381,0-2.5-1.119-2.5-2.5s1.119-2.5,2.5-2.5h49.813c1.381,0,2.5,1.119,2.5,2.5
		S154.287,227.183,152.906,227.183z"/>
	<path fill="#65C1D6" d="M152.906,239.244h-49.813c-1.381,0-2.5-1.119-2.5-2.5s1.119-2.5,2.5-2.5h49.813c1.381,0,2.5,1.119,2.5,2.5
		S154.287,239.244,152.906,239.244z"/>
	<path fill="#65C1D6" d="M128,217.7c-7.788,0-14.125-6.336-14.125-14.125c0-1.381,1.119-2.5,2.5-2.5s2.5,1.119,2.5,2.5
		c0,5.032,4.094,9.125,9.125,9.125s9.125-4.093,9.125-9.125c0-1.381,1.119-2.5,2.5-2.5s2.5,1.119,2.5,2.5
		C142.125,211.364,135.788,217.7,128,217.7z"/>
	<path fill="#65C1D6" d="M234.392,143.046H184.58c-1.381,0-2.5-1.119-2.5-2.5s1.119-2.5,2.5-2.5h49.812c1.381,0,2.5,1.119,2.5,2.5
		S235.772,143.046,234.392,143.046z"/>
	<path fill="#65C1D6" d="M234.392,155.107H184.58c-1.381,0-2.5-1.119-2.5-2.5s1.119-2.5,2.5-2.5h49.812c1.381,0,2.5,1.119,2.5,2.5
		S235.772,155.107,234.392,155.107z"/>
	<path fill="#65C1D6" d="M209.486,133.563c-7.788,0-14.125-6.336-14.125-14.125c0-1.381,1.119-2.5,2.5-2.5s2.5,1.119,2.5,2.5
		c0,5.032,4.094,9.125,9.125,9.125s9.125-4.093,9.125-9.125c0-1.381,1.119-2.5,2.5-2.5s2.5,1.119,2.5,2.5
		C223.611,127.227,217.274,133.563,209.486,133.563z"/>
	<path fill="#65C1D6" d="M71.53,143.046H21.719c-1.381,0-2.5-1.119-2.5-2.5s1.119-2.5,2.5-2.5H71.53c1.381,0,2.5,1.119,2.5,2.5
		S72.911,143.046,71.53,143.046z"/>
	<path fill="#65C1D6" d="M71.53,155.107H21.719c-1.381,0-2.5-1.119-2.5-2.5s1.119-2.5,2.5-2.5H71.53c1.381,0,2.5,1.119,2.5,2.5
		S72.911,155.107,71.53,155.107z"/>
	<path fill="#65C1D6" d="M46.624,133.563c-7.788,0-14.125-6.336-14.125-14.125c0-1.381,1.119-2.5,2.5-2.5s2.5,1.119,2.5,2.5
		c0,5.032,4.094,9.125,9.125,9.125s9.125-4.093,9.125-9.125c0-1.381,1.119-2.5,2.5-2.5s2.5,1.119,2.5,2.5
		C60.749,127.227,54.412,133.563,46.624,133.563z"/>
	<g>
		<path fill="#846F75" d="M143.854,32.993h-2.655c2.293-3.025,3.539-6.808,3.378-10.729c-0.346-8.454-6.966-15.27-15.397-15.856
			c-4.649-0.325-9.096,1.246-12.496,4.417c-3.353,3.128-5.275,7.55-5.275,12.133c0,3.706,1.216,7.205,3.366,10.035h-2.629
			c-6.37,0-11.552,5.182-11.552,11.552v34.697c0,1.381,1.119,2.5,2.5,2.5h49.813c1.381,0,2.5-1.119,2.5-2.5V44.544
			C155.406,38.175,150.225,32.993,143.854,32.993z M150.406,76.742h-44.813V44.544c0-3.613,2.939-6.552,6.552-6.552h9.41
			c1.154,0,2.158-0.79,2.43-1.911c0.271-1.121-0.259-2.283-1.285-2.812c-3.881-1.999-6.292-5.951-6.292-10.313
			c0-3.249,1.31-6.259,3.687-8.477c2.374-2.216,5.476-3.315,8.739-3.085c5.789,0.402,10.51,5.266,10.747,11.072
			c0.185,4.501-2.281,8.741-6.281,10.802c-1.026,0.529-1.557,1.69-1.285,2.812c0.271,1.122,1.275,1.911,2.43,1.911h9.41
			c3.612,0,6.552,2.939,6.552,6.552V76.742z"/>
		<path fill="#846F75" d="M143.854,201.075h-2.655c2.293-3.025,3.539-6.808,3.378-10.729c-0.346-8.454-6.966-15.27-15.397-15.856
			c-4.649-0.327-9.096,1.245-12.496,4.417c-3.353,3.128-5.275,7.551-5.275,12.134c0,3.706,1.216,7.205,3.366,10.035h-2.629
			c-6.37,0-11.552,5.182-11.552,11.552v34.697c0,1.381,1.119,2.5,2.5,2.5h49.813c1.381,0,2.5-1.119,2.5-2.5v-34.697
			C155.406,206.257,150.225,201.075,143.854,201.075z M150.406,244.824h-44.813v-32.197c0-3.613,2.939-6.552,6.552-6.552h9.41
			c1.154,0,2.158-0.79,2.43-1.911c0.271-1.121-0.259-2.283-1.285-2.812c-3.881-1.999-6.292-5.951-6.292-10.312
			c0-3.249,1.31-6.26,3.687-8.478c2.375-2.216,5.476-3.311,8.739-3.085c5.789,0.402,10.51,5.266,10.747,11.072
			c0.185,4.501-2.281,8.741-6.281,10.802c-1.026,0.529-1.557,1.69-1.285,2.812c0.271,1.122,1.275,1.911,2.43,1.911h9.41
			c3.612,0,6.552,2.939,6.552,6.552V244.824z"/>
		<path fill="#846F75" d="M225.34,116.938h-2.654c2.292-3.025,3.539-6.808,3.378-10.729c-0.346-8.454-6.966-15.271-15.397-15.856
			c-4.649-0.324-9.096,1.245-12.496,4.417c-3.353,3.128-5.275,7.55-5.275,12.134c0,3.706,1.216,7.205,3.366,10.035h-2.629
			c-6.37,0-11.552,5.182-11.552,11.552v34.698c0,1.381,1.119,2.5,2.5,2.5h49.812c1.381,0,2.5-1.119,2.5-2.5V128.49
			C236.892,122.121,231.71,116.938,225.34,116.938z M231.892,160.688H187.08V128.49c0-3.613,2.939-6.552,6.552-6.552h9.41
			c1.154,0,2.158-0.79,2.43-1.911c0.271-1.121-0.259-2.283-1.285-2.812c-3.881-1.999-6.292-5.951-6.292-10.312
			c0-3.25,1.31-6.26,3.687-8.478c2.374-2.215,5.475-3.311,8.739-3.084c5.789,0.402,10.51,5.266,10.747,11.073
			c0.185,4.5-2.281,8.741-6.282,10.802c-1.025,0.528-1.556,1.69-1.284,2.812c0.272,1.121,1.276,1.911,2.43,1.911h9.409
			c3.612,0,6.552,2.939,6.552,6.552V160.688z"/>
		<path fill="#846F75" d="M62.479,116.938h-2.655c2.293-3.025,3.539-6.808,3.378-10.729c-0.346-8.454-6.966-15.271-15.397-15.856
			c-4.652-0.324-9.096,1.245-12.496,4.417c-3.353,3.128-5.275,7.551-5.275,12.134c0,3.706,1.216,7.205,3.366,10.035h-2.628
			c-6.37,0-11.552,5.182-11.552,11.552v34.698c0,1.381,1.119,2.5,2.5,2.5H71.53c1.381,0,2.5-1.119,2.5-2.5V128.49
			C74.03,122.121,68.849,116.938,62.479,116.938z M69.03,160.688H24.219V128.49c0-3.613,2.939-6.552,6.552-6.552h9.409
			c1.154,0,2.158-0.79,2.43-1.911c0.271-1.121-0.259-2.283-1.285-2.812c-3.881-1.999-6.292-5.951-6.292-10.312
			c0-3.249,1.31-6.26,3.687-8.478c2.374-2.216,5.475-3.311,8.739-3.085c5.789,0.402,10.51,5.266,10.747,11.073
			c0.185,4.501-2.281,8.741-6.281,10.802c-1.026,0.529-1.557,1.69-1.285,2.812c0.271,1.122,1.275,1.911,2.43,1.911h9.41
			c3.612,0,6.552,2.939,6.552,6.552V160.688z"/>
	</g>
	<path fill="#65C1D6" d="M128,167.905c-6.676,0-13.233-1.716-19.029-4.971l-16.82,3.13c-0.812,0.152-1.649-0.11-2.232-0.698
		s-0.837-1.426-0.679-2.238l3.461-17.761c-2.393-5.146-3.605-10.648-3.605-16.367c0-21.453,17.453-38.905,38.905-38.905
		s38.905,17.453,38.905,38.905S149.452,167.905,128,167.905z M109.422,157.807c0.447,0,0.889,0.12,1.278,0.351
		c5.222,3.105,11.204,4.747,17.3,4.747c18.695,0,33.905-15.21,33.905-33.905S146.695,95.095,128,95.095S94.095,110.305,94.095,129
		c0,5.234,1.165,10.258,3.462,14.932c0.24,0.49,0.314,1.045,0.21,1.581l-2.916,14.963l14.114-2.626
		C109.116,157.821,109.27,157.807,109.422,157.807z"/>
	<path fill="#65C1D6" d="M123.872,142.717c-0.663,0-1.299-0.263-1.768-0.732l-10.908-10.908c-0.977-0.976-0.977-2.559,0-3.535
		c0.977-0.977,2.559-0.977,3.535,0l9.141,9.14l17.139-17.139c0.977-0.977,2.559-0.977,3.535,0c0.977,0.976,0.977,2.559,0,3.535
		l-18.906,18.907C125.171,142.454,124.535,142.717,123.872,142.717z"/>
</g>
</svg>
