<?xml version="1.0" encoding="utf-8"?>
<!-- Generator: Adobe Illustrator 24.0.0, SVG Export Plug-In . SVG Version: 6.00 Build 0)  -->
<svg version="1.1" id="Layer_1" xmlns="http://www.w3.org/2000/svg" xmlns:xlink="http://www.w3.org/1999/xlink" x="0px" y="0px"
	 viewBox="0 0 256 256" enable-background="new 0 0 256 256" xml:space="preserve">
<g>
	<path fill="#EBE7F2" d="M138.222,219.441c-0.724,0-1.448-0.087-2.154-0.264l-80.486-20.156c-1.339-0.335-2.153-1.693-1.818-3.033
		c0.336-1.339,1.693-2.149,3.033-1.818l80.486,20.156c0.836,0.21,1.732,0.133,2.521-0.215l95.71-42.247
		c1.264-0.56,2.739,0.015,3.297,1.277c0.558,1.263-0.015,2.739-1.277,3.297l-95.71,42.247
		C140.687,219.187,139.456,219.441,138.222,219.441z"/>
	<path fill="#EBE7F2" d="M47.531,209.974H18.245c-1.381,0-2.5-1.119-2.5-2.5s1.119-2.5,2.5-2.5h29.286c1.381,0,2.5,1.119,2.5,2.5
		S48.912,209.974,47.531,209.974z"/>
	<path fill="#65C1D6" d="M37.214,176.891c-4.639,0-8.413-3.774-8.413-8.413s3.774-8.413,8.413-8.413s8.412,3.774,8.412,8.413
		S41.853,176.891,37.214,176.891z M37.214,165.066c-1.882,0-3.413,1.531-3.413,3.413s1.531,3.413,3.413,3.413
		c1.881,0,3.412-1.531,3.412-3.413S39.096,165.066,37.214,165.066z"/>
	<path fill="#65C1D6" d="M131.525,118.868H85.621c-1.381,0-2.5-1.119-2.5-2.5v-22.19c-5.4,3.205-11.787,4.474-18.142,3.511
		c-12.123-1.837-21.547-11.644-22.918-23.848c-0.875-7.784,1.592-15.569,6.769-21.36c5.181-5.796,12.608-9.12,20.377-9.12
		c4.923,0,9.721,1.337,13.913,3.83V25.002c0-1.381,1.119-2.5,2.5-2.5h27.092c0.983,0,1.875,0.576,2.279,1.473
		c0.404,0.896,0.245,1.946-0.406,2.683c-4.462,5.051-6.36,11.527-5.343,18.237c1.475,9.733,9.66,17.597,19.462,18.699
		c6.465,0.726,12.669-1.236,17.469-5.527c4.737-4.234,7.453-10.303,7.453-16.65c0-5.424-1.991-10.665-5.607-14.758
		c-0.651-0.737-0.81-1.787-0.406-2.683c0.404-0.896,1.296-1.473,2.279-1.473h27.092c1.381,0,2.5,1.119,2.5,2.5v46.735
		c0,1.381-1.119,2.5-2.5,2.5s-2.5-1.119-2.5-2.5V27.502h-19.688c2.492,4.192,3.83,8.99,3.83,13.913
		c0,7.77-3.324,15.197-9.121,20.378c-5.792,5.176-13.577,7.646-21.36,6.768c-12.204-1.372-22.01-10.796-23.847-22.918
		c-0.963-6.356,0.306-12.741,3.511-18.141h-19.69v24.593c0,0.983-0.576,1.875-1.473,2.279c-0.896,0.405-1.945,0.245-2.683-0.406
		c-4.092-3.616-9.333-5.608-14.758-5.608c-6.348,0-12.416,2.716-16.649,7.452c-4.292,4.801-6.255,11.005-5.528,17.469
		c1.102,9.802,8.965,17.988,18.698,19.463c6.708,1.015,13.187-0.881,18.237-5.343c0.736-0.651,1.786-0.811,2.683-0.406
		c0.896,0.404,1.473,1.296,1.473,2.279v24.592h43.404c1.381,0,2.5,1.119,2.5,2.5S132.906,118.868,131.525,118.868z"/>
	<path fill="#65C1D6" d="M172.956,133.803c-2.015,0-3.909-0.785-5.334-2.209l-11.72-11.72c-1.425-1.425-2.21-3.319-2.21-5.335
		c0-2.016,0.785-3.911,2.21-5.336c1.424-1.424,3.318-2.209,5.335-2.209c2.016,0,3.911,0.785,5.335,2.21l6.384,6.383l14.445-14.445
		c1.424-1.425,3.318-2.21,5.334-2.21c2.017,0,3.911,0.785,5.335,2.21c1.425,1.424,2.21,3.319,2.21,5.335
		c0,2.016-0.785,3.91-2.21,5.335l-19.78,19.78C176.865,133.019,174.971,133.803,172.956,133.803z M161.237,111.993
		c-0.68,0-1.319,0.265-1.799,0.745c-0.481,0.481-0.746,1.121-0.746,1.801c0,0.68,0.265,1.319,0.746,1.799l11.719,11.72
		c0.962,0.961,2.637,0.961,3.6,0l19.779-19.78c0.481-0.481,0.746-1.12,0.746-1.8c0-0.68-0.265-1.319-0.746-1.8
		c-0.96-0.962-2.638-0.961-3.599-0.001l-16.213,16.213c-0.976,0.977-2.56,0.976-3.535,0l-8.152-8.152
		C162.556,112.258,161.917,111.993,161.237,111.993z"/>
	<g>
		<path fill="#846F75" d="M238.836,173.204c-3.691-9.004-13.518-13.725-22.852-10.979l-58.934,17.325
			c0.326-2.896,0.518-5.883,0.308-6.826c-1.043-6.313-5.904-11.432-12.381-13.039l-45.482-11.367
			c-3.361-0.829-6.822-0.58-10.01,0.713l-30.793,12.48v-9.08c0-2.89-2.352-5.242-5.242-5.242H20.986
			c-2.89,0-5.242,2.352-5.242,5.242v66.162c0,2.891,2.352,5.242,5.242,5.242h32.464c2.891,0,5.242-2.352,5.242-5.242v-2.333
			l77.144,19.045c1.247,0.307,2.543,0.459,3.845,0.459c2.275,0,4.563-0.464,6.61-1.369l82.711-36.71
			C238.43,193.5,242.75,182.747,238.836,173.204z M226.974,193.115l-82.708,36.709c-2.223,0.984-4.861,1.212-7.232,0.627
			c-0.599-0.074-80.266-19.959-80.839-19.883c-1.338-0.031-2.531,1.158-2.502,2.5c0,0,0,5.525,0,5.525
			c0,0.133-0.109,0.242-0.242,0.242H20.986c-0.133,0-0.242-0.109-0.242-0.242c0.239-0.243-0.46-66.455,0.241-66.403
			c0.001-0.001,32.465-0.001,32.465-0.001c0.127,0,0.242,0.115,0.242,0.242v12.758c-0.018,0.008,0.006,36.186-0.003,36.204
			c0.084,3.295,4.916,3.299,5,0c0,0,0-34.485,0-34.485l32.676-13.243c2.206-0.896,4.604-1.066,6.926-0.494l45.478,11.366
			c4.542,1.127,7.939,4.661,8.656,9.001c0.177,1.138-0.115,7.02-0.761,8.514c-1.787,4.133-6.205,4.963-11.156,4.136
			c-5.062-0.847-11.52-1.775-16.541-2.56c-3.265-0.432-4.025,4.344-0.778,4.939c4.997,0.779,11.467,1.711,16.495,2.552
			c6.137,1.14,12.117-0.734,15.838-5.909l61.872-18.189c6.868-2.02,14.099,1.454,16.815,8.079
			C237.09,182.123,233.912,190.036,226.974,193.115z"/>
		<path fill="#846F75" d="M176.986,153.498c20.474,0,37.13-16.656,37.13-37.13s-16.656-37.13-37.13-37.13s-37.13,16.656-37.13,37.13
			S156.513,153.498,176.986,153.498z M176.986,84.238c17.716,0,32.13,14.414,32.13,32.13s-14.414,32.13-32.13,32.13
			s-32.13-14.414-32.13-32.13S159.27,84.238,176.986,84.238z"/>
	</g>
</g>
</svg>
