<?xml version="1.0" encoding="utf-8"?>
<!-- Generator: Adobe Illustrator 24.0.0, SVG Export Plug-In . SVG Version: 6.00 Build 0)  -->
<svg version="1.1" id="Layer_1" xmlns="http://www.w3.org/2000/svg" xmlns:xlink="http://www.w3.org/1999/xlink" x="0px" y="0px"
	 viewBox="0 0 256 256" enable-background="new 0 0 256 256" xml:space="preserve">
<g>
	<g>
		<path fill="#846F75" d="M226.024,27.476h-22.823c-1.381,0-2.5,1.119-2.5,2.5s1.119,2.5,2.5,2.5h20.323v191.049H32.476V32.476
			h19.626c1.381,0,2.5-1.119,2.5-2.5s-1.119-2.5-2.5-2.5H29.976c-1.381,0-2.5,1.119-2.5,2.5v196.049c0,1.381,1.119,2.5,2.5,2.5
			h196.049c1.381,0,2.5-1.119,2.5-2.5V29.976C228.524,28.595,227.405,27.476,226.024,27.476z"/>
		<path fill="#846F75" d="M87.819,32.476h80.362c1.381,0,2.5-1.119,2.5-2.5s-1.119-2.5-2.5-2.5H87.819c-1.381,0-2.5,1.119-2.5,2.5
			S86.438,32.476,87.819,32.476z"/>
	</g>
	<path fill="#A58BC9" d="M70.309,64.647c-5.52,0-10.01-4.49-10.01-10.01V20.735c0-5.52,4.491-10.01,10.01-10.01
		s10.01,4.491,10.01,10.01v33.902C80.319,60.157,75.829,64.647,70.309,64.647z M70.309,15.725c-2.763,0-5.01,2.248-5.01,5.01v33.902
		c0,2.762,2.248,5.01,5.01,5.01c2.762,0,5.01-2.248,5.01-5.01V20.735C75.319,17.973,73.071,15.725,70.309,15.725z"/>
	<path fill="#A58BC9" d="M185.691,64.647c-5.52,0-10.01-4.49-10.01-10.01V20.735c0-5.52,4.49-10.01,10.01-10.01
		s10.01,4.491,10.01,10.01v33.902C195.701,60.157,191.21,64.647,185.691,64.647z M185.691,15.725c-2.762,0-5.01,2.248-5.01,5.01
		v33.902c0,2.762,2.248,5.01,5.01,5.01c2.763,0,5.01-2.248,5.01-5.01V20.735C190.701,17.973,188.454,15.725,185.691,15.725z"/>
	<path fill="#EBE7F2" d="M213.368,79.526H42.632c-1.381,0-2.5-1.119-2.5-2.5s1.119-2.5,2.5-2.5h170.736c1.381,0,2.5,1.119,2.5,2.5
		S214.749,79.526,213.368,79.526z"/>
	<path fill="#A58BC9" d="M87.092,90.38c-17.255,0-31.293,14.038-31.293,31.293s14.038,31.294,31.293,31.294
		s31.294-14.039,31.294-31.294S104.348,90.38,87.092,90.38z M107.139,138.661c-3.491-4.11-5.609-9.126-6.111-14.487h12.237
		C112.744,129.668,110.524,134.673,107.139,138.661z M60.921,124.174h12.237c-0.502,5.361-2.621,10.377-6.112,14.487
		C63.661,134.673,61.442,129.668,60.921,124.174z M67.046,104.687c3.491,4.11,5.609,9.126,6.111,14.487H60.921
		C61.442,113.679,63.661,108.675,67.046,104.687z M89.592,119.174V95.502c5.256,0.498,10.063,2.551,13.962,5.69
		c-4.502,5.191-7.01,11.519-7.524,17.981H89.592z M84.592,119.174h-6.438c-0.514-6.462-3.022-12.79-7.524-17.981
		c3.899-3.14,8.706-5.192,13.962-5.69V119.174z M78.154,124.174h6.438v23.672c-5.255-0.498-10.063-2.551-13.961-5.69
		C75.133,136.965,77.641,130.636,78.154,124.174z M89.592,124.174h6.438c0.513,6.463,3.022,12.791,7.524,17.982
		c-3.899,3.14-8.706,5.192-13.962,5.69V124.174z M101.028,119.174c0.503-5.361,2.621-10.377,6.111-14.487
		c3.385,3.988,5.604,8.992,6.125,14.487H101.028z"/>
	<path fill="#A58BC9" d="M168.549,90.38c-17.453,0-31.652,14.199-31.652,31.652s14.199,31.652,31.652,31.652
		s31.652-14.199,31.652-31.652S186.002,90.38,168.549,90.38z M192.813,111.026l-11.553,4.437l-10.211-7.419V95.501
		C180.745,96.408,188.943,102.53,192.813,111.026z M159.148,119.239l9.401-6.831l9.401,6.831l-3.591,11.052h-11.621L159.148,119.239
		z M166.049,95.501v12.542l-10.211,7.419l-11.553-4.436C148.155,102.53,156.353,96.408,166.049,95.501z M141.897,122.033
		c0-2.162,0.265-4.263,0.754-6.277l11.549,4.435l3.872,11.916l-8.557,8.557C144.807,135.854,141.897,129.278,141.897,122.033z
		 M153.344,143.904l8.613-8.613h13.183l8.613,8.613c-4.316,3.01-9.556,4.781-15.205,4.781
		C162.9,148.685,157.66,146.913,153.344,143.904z M187.583,140.663l-8.557-8.557l3.872-11.916l11.549-4.435
		c0.488,2.014,0.754,4.115,0.754,6.278C195.201,129.278,192.291,135.854,187.583,140.663z"/>
	<path fill="#A58BC9" d="M213.171,180.327h-11.646v-7.21c0-1.381-1.119-2.5-2.5-2.5h-12.427v-5.056c0-1.381-1.119-2.5-2.5-2.5
		h-15.162c-1.381,0-2.5,1.119-2.5,2.5v14.766H89.52v-14.766c0-1.381-1.119-2.5-2.5-2.5H71.857c-1.381,0-2.5,1.119-2.5,2.5v5.056
		H56.931c-1.381,0-2.5,1.119-2.5,2.5v7.21H42.829c-1.381,0-2.5,1.119-2.5,2.5v8.904c0,1.381,1.119,2.5,2.5,2.5h11.602v5.967
		c0,1.381,1.119,2.5,2.5,2.5h12.427v5.056c0,1.381,1.119,2.5,2.5,2.5H87.02c1.381,0,2.5-1.119,2.5-2.5V194.23h76.916v13.523
		c0,1.381,1.119,2.5,2.5,2.5h15.162c1.381,0,2.5-1.119,2.5-2.5v-5.056h12.427c1.381,0,2.5-1.119,2.5-2.5v-5.967h11.646
		c1.381,0,2.5-1.119,2.5-2.5v-8.904C215.671,181.446,214.552,180.327,213.171,180.327z M45.329,189.23v-3.904h9.102v3.904H45.329z
		 M59.431,197.698v-22.081h9.927v22.081H59.431z M84.52,205.254H74.357v-37.193H84.52V205.254z M89.52,189.23v-3.904h76.916v3.904
		H89.52z M181.598,205.254h-10.162v-37.193h10.162V205.254z M196.524,197.698h-9.927v-22.081h9.927V197.698z M210.671,189.23h-9.102
		v-3.904h9.102V189.23z"/>
</g>
</svg>
