<?xml version="1.0" encoding="utf-8"?>
<!-- Generator: Adobe Illustrator 24.0.0, SVG Export Plug-In . SVG Version: 6.00 Build 0)  -->
<svg version="1.1" id="Layer_1" xmlns="http://www.w3.org/2000/svg" xmlns:xlink="http://www.w3.org/1999/xlink" x="0px" y="0px"
	 viewBox="0 0 256 256" enable-background="new 0 0 256 256" xml:space="preserve">
<g>
	<path fill="#EBE7F2" d="M138.222,219.441c-0.724,0-1.448-0.087-2.154-0.264l-80.485-20.156c-1.339-0.335-2.153-1.693-1.818-3.033
		c0.336-1.339,1.696-2.151,3.033-1.818l80.485,20.156c0.839,0.211,1.733,0.133,2.521-0.215l95.71-42.247
		c1.26-0.558,2.737,0.014,3.297,1.277c0.558,1.263-0.015,2.739-1.277,3.297l-95.71,42.247
		C140.687,219.187,139.456,219.441,138.222,219.441z"/>
	<path fill="#EBE7F2" d="M47.531,209.974H18.245c-1.381,0-2.5-1.119-2.5-2.5s1.119-2.5,2.5-2.5h29.286c1.381,0,2.5,1.119,2.5,2.5
		S48.912,209.974,47.531,209.974z"/>
	<path fill="#ED9ABC" d="M37.214,176.891c-4.639,0-8.413-3.774-8.413-8.413s3.774-8.413,8.413-8.413s8.412,3.774,8.412,8.413
		S41.853,176.891,37.214,176.891z M37.214,165.066c-1.882,0-3.413,1.531-3.413,3.413s1.531,3.413,3.413,3.413
		c1.881,0,3.412-1.531,3.412-3.413S39.096,165.066,37.214,165.066z"/>
	<path fill="#846F75" d="M238.837,173.204c-3.691-9.003-13.516-13.726-22.853-10.979l-58.934,17.325
		c0.327-2.896,0.518-5.883,0.309-6.826c-1.043-6.313-5.904-11.432-12.381-13.039l-45.482-11.367
		c-3.361-0.828-6.822-0.581-10.01,0.713l-30.793,12.48v-9.08c0-2.89-2.352-5.242-5.242-5.242H20.986
		c-2.89,0-5.242,2.352-5.242,5.242v66.162c0,2.891,2.352,5.242,5.242,5.242h32.464c2.891,0,5.242-2.352,5.242-5.242v-2.333
		l77.143,19.045c1.247,0.307,2.544,0.459,3.846,0.459c2.274,0,4.562-0.464,6.61-1.369l82.711-36.71
		C238.431,193.5,242.75,182.747,238.837,173.204z M226.974,193.115l-82.707,36.709c-2.224,0.984-4.862,1.212-7.232,0.627
		c-0.599-0.074-80.267-19.959-80.84-19.883c-1.338-0.031-2.531,1.158-2.502,2.5c0,0,0,5.525,0,5.525
		c0,0.133-0.109,0.242-0.242,0.242H20.986c-0.133,0-0.242-0.109-0.242-0.242c0.239-0.243-0.46-66.455,0.241-66.403
		c0.001-0.001,32.465-0.001,32.465-0.001c0.127,0,0.242,0.115,0.242,0.242v12.758c-0.018,0.008,0.006,36.186-0.003,36.204
		c0.084,3.295,4.916,3.299,5,0c0,0,0-34.485,0-34.485l32.676-13.243c2.206-0.896,4.603-1.065,6.926-0.494l45.478,11.366
		c4.542,1.127,7.939,4.661,8.656,9.001c0.178,1.139-0.116,7.024-0.762,8.516c-1.789,4.131-6.2,4.96-11.155,4.134
		c-5.061-0.847-11.52-1.775-16.54-2.56c-3.267-0.427-4.024,4.343-0.778,4.939c4.997,0.779,11.467,1.711,16.494,2.552
		c6.137,1.14,12.117-0.733,15.838-5.909l61.872-18.189c6.873-2.02,14.1,1.454,16.815,8.079
		C237.09,182.123,233.912,190.036,226.974,193.115z"/>
	<path fill="#EBE7F2" d="M181.259,118.026c-1.381,0-2.5-1.119-2.5-2.5V68.894c0-1.381,1.119-2.5,2.5-2.5s2.5,1.119,2.5,2.5v46.632
		C183.759,116.907,182.64,118.026,181.259,118.026z"/>
	<path fill="#EBE7F2" d="M74.741,118.026c-1.381,0-2.5-1.119-2.5-2.5V68.894c0-1.381,1.119-2.5,2.5-2.5s2.5,1.119,2.5,2.5v46.632
		C77.241,116.907,76.122,118.026,74.741,118.026z"/>
	<path fill="#ED9ABC" d="M202.205,55.568h-5.253c3.612-4.052,5.625-9.427,5.396-15.023c-0.442-10.801-8.9-19.51-19.673-20.259
		c-5.957-0.414-11.625,1.591-15.969,5.644c-4.284,3.997-6.741,9.647-6.741,15.504c0,5.326,1.966,10.318,5.385,14.135h-5.224
		c-1.381,0-2.5,1.119-2.5,2.5s1.119,2.5,2.5,2.5h12.488c1.154,0,2.158-0.79,2.43-1.911c0.271-1.121-0.259-2.283-1.285-2.812
		c-5.424-2.794-8.794-8.316-8.794-14.412c0-4.541,1.83-8.749,5.151-11.848c3.32-3.097,7.657-4.631,12.213-4.312
		c8.091,0.562,14.69,7.36,15.022,15.476c0.258,6.291-3.188,12.216-8.779,15.096c-1.026,0.528-1.557,1.69-1.285,2.812
		c0.271,1.122,1.275,1.911,2.43,1.911h12.488c5.245,0,9.512,4.267,9.512,9.512v43.546h-40.768V80.894
		c0-9.485-7.717-17.201-17.201-17.201h-7.719c4.873-4.942,7.627-11.782,7.335-18.922c-0.529-12.934-10.656-23.363-23.556-24.259
		c-7.126-0.492-13.92,1.904-19.122,6.757c-5.13,4.786-8.072,11.553-8.072,18.565c0,6.821,2.692,13.184,7.326,17.858h-7.688
		c-9.485,0-17.201,7.716-17.201,17.201v32.732H44.283V70.08c0-5.245,4.268-9.512,9.513-9.512h12.487c1.154,0,2.158-0.79,2.43-1.911
		c0.272-1.121-0.259-2.283-1.285-2.812c-5.591-2.88-9.037-8.806-8.779-15.096c0.333-8.116,6.931-14.914,15.023-15.476
		c4.552-0.314,8.892,1.215,12.211,4.312c3.322,3.1,5.152,7.307,5.152,11.848c0,6.096-3.369,11.618-8.793,14.412
		c-1.025,0.528-1.557,1.69-1.285,2.812c0.272,1.122,1.276,1.911,2.43,1.911h12.488c1.381,0,2.5-1.119,2.5-2.5s-1.119-2.5-2.5-2.5
		h-5.223c3.418-3.817,5.384-8.809,5.384-14.135c0-5.856-2.457-11.507-6.741-15.504c-4.344-4.052-10.018-6.057-15.969-5.644
		c-10.772,0.749-19.229,9.458-19.672,20.259c-0.229,5.596,1.783,10.972,5.396,15.023h-5.252c-8.002,0-14.513,6.51-14.513,14.512
		v46.046c0,1.381,1.119,2.5,2.5,2.5H85.05v18.62c0,1.381,1.119,2.5,2.5,2.5h80.899c1.381,0,2.5-1.119,2.5-2.5v-18.62h43.268
		c1.381,0,2.5-1.119,2.5-2.5V70.08C216.717,62.078,210.207,55.568,202.205,55.568z M107.614,45.834
		c0-5.714,2.302-11.009,6.483-14.909c4.177-3.897,9.632-5.83,15.366-5.425c10.183,0.707,18.487,9.262,18.905,19.475
		c0.324,7.915-4.012,15.371-11.047,18.995c-0.065,0.034-9.321,6.5-9.321,6.5s-9.253-6.465-9.321-6.5
		C111.854,60.455,107.614,53.505,107.614,45.834z M133.211,117.879L128,122.952l-5.211-5.073L128,88.05L133.211,117.879z
		 M165.949,134.746H90.05V80.894c0-6.728,5.474-12.201,12.201-12.201h14.494l8.518,5.966l-7.627,43.661
		c-0.142,0.814,0.127,1.646,0.719,2.222l7.901,7.691c0.485,0.472,1.114,0.708,1.744,0.708s1.259-0.236,1.744-0.708l7.9-7.691
		c0.592-0.576,0.86-1.408,0.719-2.222l-7.627-43.661l8.518-5.966h14.493c6.728,0,12.201,5.474,12.201,12.201V134.746z"/>
</g>
</svg>
