<?xml version="1.0" encoding="utf-8"?>
<!-- Generator: Adobe Illustrator 24.0.0, SVG Export Plug-In . SVG Version: 6.00 Build 0)  -->
<svg version="1.1" id="Layer_1" xmlns="http://www.w3.org/2000/svg" xmlns:xlink="http://www.w3.org/1999/xlink" x="0px" y="0px"
	 viewBox="0 0 256 256" enable-background="new 0 0 256 256" xml:space="preserve">
<g>
	<path fill="#A58BC9" d="M70.309,64.647c-5.52,0-10.01-4.49-10.01-10.01V20.735c0-5.52,4.49-10.01,10.01-10.01
		s10.011,4.491,10.011,10.01v33.902C80.319,60.157,75.828,64.647,70.309,64.647z M70.309,15.725c-2.763,0-5.01,2.248-5.01,5.01
		v33.902c0,2.762,2.247,5.01,5.01,5.01s5.011-2.248,5.011-5.01V20.735C75.319,17.973,73.071,15.725,70.309,15.725z"/>
	<path fill="#A58BC9" d="M185.691,64.647c-5.52,0-10.011-4.49-10.011-10.01V20.735c0-5.52,4.491-10.01,10.011-10.01
		s10.01,4.491,10.01,10.01v33.902C195.701,60.157,191.211,64.647,185.691,64.647z M185.691,15.725c-2.763,0-5.011,2.248-5.011,5.01
		v33.902c0,2.762,2.248,5.01,5.011,5.01s5.01-2.248,5.01-5.01V20.735C190.701,17.973,188.454,15.725,185.691,15.725z"/>
	<path fill="#EBE7F2" d="M213.368,79.526H42.632c-1.381,0-2.5-1.119-2.5-2.5s1.119-2.5,2.5-2.5h170.736c1.381,0,2.5,1.119,2.5,2.5
		S214.749,79.526,213.368,79.526z"/>
	<path fill="#A58BC9" d="M165.697,208.729h-22.06c-1.381,0-2.5-1.119-2.5-2.5s1.119-2.5,2.5-2.5h19.56v-50.017
		c0-6.176-5.024-11.201-11.201-11.201h-14.242c-1.154,0-2.158-0.79-2.43-1.911c-0.271-1.121,0.259-2.283,1.285-2.812
		c6.497-3.347,10.502-10.233,10.203-17.544c-0.387-9.433-8.057-17.333-17.461-17.987c-5.3-0.366-10.334,1.411-14.192,5.011
		c-3.861,3.602-5.987,8.493-5.987,13.771c0,7.084,3.916,13.502,10.219,16.75c1.026,0.529,1.557,1.69,1.285,2.812
		c-0.271,1.122-1.275,1.911-2.43,1.911h-14.242c-6.177,0-11.201,5.024-11.201,11.201v50.017h19.56c1.381,0,2.5,1.119,2.5,2.5
		s-1.119,2.5-2.5,2.5h-22.06c-1.381,0-2.5-1.119-2.5-2.5v-52.517c0-8.933,7.268-16.201,16.201-16.201h6.762
		c-4.176-4.359-6.594-10.209-6.594-16.472c0-6.583,2.762-12.934,7.577-17.426c4.883-4.556,11.265-6.809,17.948-6.343
		c12.107,0.841,21.613,10.63,22.111,22.771c0.269,6.563-2.206,12.857-6.604,17.471h6.792c8.934,0,16.201,7.268,16.201,16.201v52.517
		C168.197,207.61,167.078,208.729,165.697,208.729z"/>
	<path fill="#A58BC9" d="M175.006,189.047h-9.309c-1.381,0-2.5-1.119-2.5-2.5s1.119-2.5,2.5-2.5h9.309c1.381,0,2.5,1.119,2.5,2.5
		S176.387,189.047,175.006,189.047z"/>
	<path fill="#A58BC9" d="M208.35,189.047h-13.344c-1.381,0-2.5-1.119-2.5-2.5s1.119-2.5,2.5-2.5h10.844v-40.413
		c0-4.794-3.9-8.695-8.694-8.695h-11.639c-1.154,0-2.158-0.79-2.43-1.911s0.259-2.283,1.285-2.812
		c5.151-2.653,8.327-8.113,8.09-13.91c-0.307-7.478-6.387-13.742-13.843-14.26c-4.203-0.294-8.194,1.12-11.252,3.972
		c-3.062,2.856-4.747,6.733-4.747,10.918c0,5.617,3.104,10.706,8.103,13.28c1.026,0.528,1.557,1.69,1.285,2.812
		c-0.271,1.122-1.275,1.911-2.43,1.911h-11.639c-1.381,0-2.5-1.119-2.5-2.5s1.119-2.5,2.5-2.5h4.492
		c-3.06-3.55-4.812-8.127-4.812-13.002c0-5.505,2.31-10.817,6.337-14.574c4.083-3.81,9.419-5.69,15.009-5.305
		c10.126,0.704,18.076,8.891,18.492,19.043c0.21,5.131-1.585,10.064-4.823,13.837h4.521c7.551,0,13.694,6.144,13.694,13.695v42.913
		C210.85,187.928,209.73,189.047,208.35,189.047z"/>
	<path fill="#A58BC9" d="M90.303,189.047h-9.309c-1.381,0-2.5-1.119-2.5-2.5s1.119-2.5,2.5-2.5h9.309c1.381,0,2.5,1.119,2.5,2.5
		S91.684,189.047,90.303,189.047z"/>
	<path fill="#A58BC9" d="M60.104,189.047H47.65c-1.381,0-2.5-1.119-2.5-2.5v-42.913c0-7.551,6.144-13.695,13.694-13.695h4.521
		c-3.238-3.773-5.033-8.707-4.823-13.837c0.416-10.153,8.366-18.34,18.491-19.044c5.611-0.383,10.928,1.495,15.01,5.305
		c4.027,3.757,6.337,9.069,6.337,14.574c0,4.875-1.752,9.453-4.812,13.002h4.492c1.381,0,2.5,1.119,2.5,2.5s-1.119,2.5-2.5,2.5
		H86.422c-1.154,0-2.158-0.79-2.43-1.911c-0.271-1.121,0.259-2.283,1.285-2.812c4.998-2.574,8.103-7.663,8.103-13.28
		c0-4.185-1.686-8.062-4.747-10.918c-3.059-2.854-7.053-4.267-11.253-3.972c-7.455,0.518-13.535,6.782-13.842,14.26
		c-0.237,5.796,2.938,11.256,8.09,13.91c1.026,0.528,1.557,1.69,1.285,2.812s-1.275,1.911-2.43,1.911H58.845
		c-4.794,0-8.694,3.9-8.694,8.695v40.413h9.954c1.381,0,2.5,1.119,2.5,2.5S61.485,189.047,60.104,189.047z"/>
	<g>
		<path fill="#846F75" d="M226.024,27.476h-22.823c-1.381,0-2.5,1.119-2.5,2.5s1.119,2.5,2.5,2.5h20.323v191.049H32.476V32.476
			h19.626c1.381,0,2.5-1.119,2.5-2.5s-1.119-2.5-2.5-2.5H29.976c-1.381,0-2.5,1.119-2.5,2.5v196.049c0,1.381,1.119,2.5,2.5,2.5
			h196.049c1.381,0,2.5-1.119,2.5-2.5V29.976C228.524,28.595,227.405,27.476,226.024,27.476z"/>
		<path fill="#846F75" d="M87.819,32.476h80.361c1.381,0,2.5-1.119,2.5-2.5s-1.119-2.5-2.5-2.5H87.819c-1.381,0-2.5,1.119-2.5,2.5
			S86.438,32.476,87.819,32.476z"/>
		<path fill="#846F75" d="M138.51,171.501h7.782c1.011,0,1.923-0.609,2.31-1.543c0.387-0.934,0.173-2.009-0.542-2.724
			l-18.292-18.292c-0.977-0.977-2.559-0.977-3.535,0l-18.292,18.292c-0.715,0.715-0.929,1.79-0.542,2.724
			c0.387,0.935,1.299,1.543,2.31,1.543h7.782v17.8c0,1.381,1.119,2.5,2.5,2.5h16.02c1.381,0,2.5-1.119,2.5-2.5V171.501z
			 M136.01,166.501c-1.381,0-2.5,1.119-2.5,2.5v17.8h-11.02v-17.8c0-1.381-1.119-2.5-2.5-2.5h-4.246L128,154.245l12.256,12.256
			H136.01z"/>
		<path fill="#846F75" d="M136.01,197.017h-16.02c-1.381,0-2.5,1.119-2.5,2.5v13.628c0,1.381,1.119,2.5,2.5,2.5h16.02
			c1.381,0,2.5-1.119,2.5-2.5v-13.628C138.51,198.136,137.391,197.017,136.01,197.017z M133.51,210.645h-11.02v-8.628h11.02V210.645
			z"/>
		<path fill="#846F75" d="M63.509,162.55l4.985-4.985v47.528c0,1.381,1.119,2.5,2.5,2.5s2.5-1.119,2.5-2.5v-47.527l4.984,4.984
			c0.488,0.488,1.128,0.732,1.768,0.732s1.279-0.244,1.768-0.732c0.977-0.976,0.977-2.559,0-3.535l-9.252-9.252
			c-0.469-0.469-1.104-0.732-1.768-0.732s-1.299,0.263-1.768,0.732l-9.253,9.252c-0.977,0.976-0.977,2.559,0,3.535
			C60.95,163.527,62.532,163.527,63.509,162.55z"/>
		<path fill="#846F75" d="M177.521,162.55l4.984-4.984v47.527c0,1.381,1.119,2.5,2.5,2.5s2.5-1.119,2.5-2.5v-47.528l4.985,4.985
			c0.488,0.488,1.128,0.732,1.768,0.732s1.279-0.244,1.768-0.732c0.977-0.976,0.977-2.559,0-3.535l-9.253-9.252
			c-0.938-0.938-2.598-0.938-3.535,0l-9.252,9.252c-0.977,0.976-0.977,2.559,0,3.535
			C174.963,163.527,176.545,163.527,177.521,162.55z"/>
	</g>
</g>
</svg>
