<?xml version="1.0" encoding="utf-8"?>
<!-- Generator: Adobe Illustrator 24.0.0, SVG Export Plug-In . SVG Version: 6.00 Build 0)  -->
<svg version="1.1" id="Layer_1" xmlns="http://www.w3.org/2000/svg" xmlns:xlink="http://www.w3.org/1999/xlink" x="0px" y="0px"
	 viewBox="0 0 256 256" enable-background="new 0 0 256 256" xml:space="preserve">
<g>
	<path fill="#A58BC9" d="M93.592,82.819H31.444c-1.381,0-2.5-1.119-2.5-2.5s1.119-2.5,2.5-2.5h62.148c1.381,0,2.5,1.119,2.5,2.5
		S94.973,82.819,93.592,82.819z"/>
	<path fill="#A58BC9" d="M93.592,97.867H31.444c-1.381,0-2.5-1.119-2.5-2.5s1.119-2.5,2.5-2.5h62.148c1.381,0,2.5,1.119,2.5,2.5
		S94.973,97.867,93.592,97.867z"/>
	<path fill="#A58BC9" d="M62.518,70.988c-9.376,0-17.004-7.628-17.004-17.004c0-1.381,1.119-2.5,2.5-2.5s2.5,1.119,2.5,2.5
		c0,6.619,5.385,12.004,12.004,12.004c6.619,0,12.003-5.385,12.003-12.004c0-1.381,1.119-2.5,2.5-2.5s2.5,1.119,2.5,2.5
		C79.521,63.36,71.894,70.988,62.518,70.988z"/>
	<path fill="#A58BC9" d="M162.408,205.235H130.5v-12.092c0-1.381-1.119-2.5-2.5-2.5s-2.5,1.119-2.5,2.5v12.092H93.592
		c-1.381,0-2.5,1.119-2.5,2.5s1.119,2.5,2.5,2.5h68.816c1.381,0,2.5-1.119,2.5-2.5S163.789,205.235,162.408,205.235z"/>
	<path fill="#A58BC9" d="M162.408,82.47H93.592c-1.381,0-2.5,1.119-2.5,2.5s1.119,2.5,2.5,2.5H125.5v12.312
		c0,1.381,1.119,2.5,2.5,2.5s2.5-1.119,2.5-2.5V87.47h31.908c1.381,0,2.5-1.119,2.5-2.5S163.789,82.47,162.408,82.47z"/>
	<path fill="#A58BC9" d="M72.605,178.894c-0.792-1.132-2.352-1.405-3.482-0.614l-6.605,4.626l-6.606-4.626
		c-1.13-0.792-2.689-0.518-3.482,0.614c-0.792,1.131-0.517,2.69,0.614,3.482l6.738,4.719l-5.796,33.178
		c-0.142,0.814,0.127,1.646,0.719,2.222l6.07,5.908c0.485,0.472,1.114,0.708,1.744,0.708s1.259-0.236,1.744-0.708l6.069-5.908
		c0.592-0.576,0.861-1.408,0.719-2.222l-5.796-33.178l6.737-4.719C73.123,181.583,73.397,180.024,72.605,178.894z M62.518,223.122
		l-3.38-3.29l3.38-19.346l3.379,19.346L62.518,223.122z"/>
	<path fill="#A58BC9" d="M213.52,207.495h-9.117c-1.381,0-2.5-1.119-2.5-2.5s1.119-2.5,2.5-2.5h9.117c1.381,0,2.5,1.119,2.5,2.5
		S214.9,207.495,213.52,207.495z"/>
	<path fill="#A58BC9" d="M202.696,178.121c-1.218-0.649-2.732-0.187-3.381,1.033l-5.833,10.963l-5.833-10.963
		c-0.648-1.219-2.163-1.682-3.381-1.033c-1.22,0.648-1.682,2.162-1.033,3.381l7.747,14.561v37.972c0,1.381,1.119,2.5,2.5,2.5
		s2.5-1.119,2.5-2.5v-37.972l7.747-14.561C204.378,180.283,203.916,178.769,202.696,178.121z"/>
	<path fill="#A58BC9" d="M203.57,52.55c-0.792-1.13-2.352-1.406-3.482-0.614l-6.605,4.626l-6.605-4.626
		c-1.131-0.792-2.69-0.517-3.482,0.614c-0.792,1.131-0.518,2.69,0.613,3.482l6.738,4.719l-5.796,33.178
		c-0.142,0.814,0.127,1.646,0.719,2.222l6.069,5.908c0.485,0.472,1.115,0.708,1.744,0.708s1.259-0.236,1.744-0.708l6.069-5.908
		c0.592-0.576,0.86-1.408,0.719-2.222l-5.796-33.178l6.738-4.719C204.088,55.24,204.362,53.681,203.57,52.55z M193.482,96.778
		l-3.38-3.29l3.38-19.346l3.38,19.346L193.482,96.778z"/>
	<path fill="#A58BC9" d="M123.731,164.782c-2.095,0-4.065-0.816-5.546-2.297l-12.414-12.414c-1.482-1.481-2.298-3.451-2.298-5.546
		s0.816-4.065,2.298-5.547c1.48-1.481,3.45-2.297,5.546-2.297s4.065,0.816,5.546,2.297l6.867,6.866l15.406-15.405
		c1.479-1.481,3.449-2.297,5.546-2.297c2.096,0,4.065,0.816,5.546,2.297c1.482,1.481,2.299,3.451,2.299,5.546
		s-0.816,4.065-2.299,5.547l-20.951,20.952C127.796,163.966,125.826,164.782,123.731,164.782z M111.317,141.681
		c-0.76,0-1.474,0.296-2.01,0.833c-0.538,0.538-0.833,1.251-0.833,2.011s0.296,1.474,0.833,2.011l12.414,12.414
		c1.074,1.073,2.947,1.073,4.021,0l20.952-20.952c0.537-0.538,0.834-1.252,0.834-2.011s-0.297-1.474-0.834-2.011
		c-1.074-1.074-2.948-1.074-4.021-0.001l-17.174,17.173c-0.976,0.977-2.559,0.976-3.535,0l-8.635-8.634
		C112.791,141.977,112.077,141.681,111.317,141.681z"/>
	<g>
		<path fill="#846F75" d="M82.298,177.828h-4.609c3.284-3.807,5.104-8.794,4.893-13.98c-0.419-10.231-8.43-18.481-18.635-19.19
			c-5.636-0.389-11.01,1.507-15.125,5.345c-4.058,3.786-6.385,9.139-6.385,14.686c0,4.93,1.778,9.557,4.88,13.139h-4.579
			c-7.606,0-13.794,6.188-13.794,13.793v43.291c0,1.381,1.119,2.5,2.5,2.5h62.148c1.381,0,2.5-1.119,2.5-2.5v-43.291
			C96.092,184.015,89.904,177.828,82.298,177.828z M91.092,232.412H33.944v-40.791c0-4.849,3.945-8.793,8.794-8.793h11.74
			c1.154,0,2.158-0.79,2.43-1.911c0.272-1.121-0.259-2.283-1.285-2.812c-5.049-2.601-8.186-7.742-8.186-13.417
			c0-4.228,1.703-8.145,4.796-11.03c3.089-2.883,7.129-4.306,11.368-4.013c7.533,0.523,13.676,6.851,13.985,14.406
			c0.24,5.856-2.968,11.372-8.173,14.053c-1.025,0.529-1.557,1.69-1.285,2.812c0.272,1.122,1.276,1.911,2.43,1.911h11.741
			c4.849,0,8.793,3.945,8.793,8.793V232.412z"/>
		<path fill="#846F75" d="M213.263,177.828h-4.608c3.283-3.807,5.104-8.794,4.892-13.98c-0.419-10.231-8.43-18.481-18.634-19.19
			c-5.646-0.392-11.011,1.506-15.125,5.345c-4.059,3.786-6.386,9.139-6.386,14.686c0,4.93,1.777,9.557,4.88,13.139h-4.579
			c-7.606,0-13.794,6.188-13.794,13.793v43.291c0,1.381,1.119,2.5,2.5,2.5h62.147c1.381,0,2.5-1.119,2.5-2.5v-43.291
			C227.056,184.015,220.868,177.828,213.263,177.828z M222.056,232.412h-57.147v-40.791c0-4.849,3.945-8.793,8.794-8.793h11.74
			c1.154,0,2.158-0.79,2.43-1.911c0.271-1.121-0.259-2.283-1.285-2.812c-5.049-2.601-8.186-7.742-8.186-13.417
			c0-4.228,1.703-8.145,4.796-11.03c3.091-2.883,7.124-4.306,11.368-4.013c7.532,0.523,13.675,6.851,13.984,14.407
			c0.24,5.855-2.968,11.372-8.172,14.053c-1.026,0.529-1.557,1.69-1.285,2.812c0.271,1.122,1.275,1.911,2.43,1.911h11.74
			c4.849,0,8.793,3.945,8.793,8.793V232.412z"/>
		<path fill="#846F75" d="M31.444,111.067h62.148c1.381,0,2.5-1.119,2.5-2.5v-43.29c0-7.606-6.188-13.793-13.793-13.793h-4.609
			c3.284-3.808,5.104-8.794,4.893-13.98c-0.419-10.231-8.43-18.481-18.635-19.19c-5.645-0.391-11.011,1.506-15.125,5.346
			c-4.058,3.786-6.385,9.139-6.385,14.686c0,4.93,1.777,9.557,4.88,13.139h-4.579c-7.606,0-13.794,6.188-13.794,13.793v43.29
			C28.944,109.948,30.063,111.067,31.444,111.067z M33.944,65.277c0-4.849,3.945-8.793,8.794-8.793h11.74
			c1.154,0,2.158-0.79,2.43-1.911c0.272-1.121-0.259-2.283-1.285-2.812c-5.05-2.601-8.187-7.742-8.187-13.417
			c0-4.228,1.703-8.145,4.796-11.03c3.09-2.883,7.13-4.308,11.368-4.014c7.533,0.523,13.676,6.852,13.985,14.406
			c0.24,5.856-2.968,11.373-8.173,14.054c-1.025,0.529-1.557,1.69-1.285,2.812c0.272,1.122,1.276,1.911,2.43,1.911h11.741
			c4.849,0,8.793,3.945,8.793,8.793v40.79H33.944V65.277z"/>
		<path fill="#846F75" d="M213.263,51.484h-4.608c3.283-3.808,5.104-8.794,4.892-13.98c-0.419-10.231-8.43-18.481-18.635-19.19
			c-5.635-0.394-11.01,1.506-15.125,5.346c-4.058,3.786-6.385,9.139-6.385,14.686c0,4.93,1.777,9.557,4.88,13.139h-4.579
			c-7.606,0-13.794,6.188-13.794,13.793v43.29c0,1.381,1.119,2.5,2.5,2.5h62.147c1.381,0,2.5-1.119,2.5-2.5v-43.29
			C227.056,57.671,220.868,51.484,213.263,51.484z M222.056,106.067h-57.147v-40.79c0-4.849,3.945-8.793,8.794-8.793h11.74
			c1.154,0,2.158-0.79,2.43-1.911c0.271-1.121-0.259-2.283-1.285-2.812c-5.049-2.601-8.186-7.742-8.186-13.417
			c0-4.228,1.703-8.145,4.796-11.03c3.09-2.882,7.123-4.307,11.367-4.013c7.533,0.523,13.676,6.852,13.985,14.407
			c0.24,5.856-2.968,11.373-8.172,14.053c-1.026,0.529-1.557,1.69-1.285,2.812c0.271,1.122,1.275,1.911,2.43,1.911h11.74
			c4.849,0,8.793,3.945,8.793,8.793V106.067z"/>
		<path fill="#846F75" d="M128,107.282c-21.604,0-39.181,17.576-39.181,39.181s17.576,39.181,39.181,39.181
			s39.181-17.576,39.181-39.181S149.604,107.282,128,107.282z M128,180.643c-18.847,0-34.181-15.333-34.181-34.181
			s15.333-34.181,34.181-34.181c18.848,0,34.181,15.333,34.181,34.181S146.848,180.643,128,180.643z"/>
	</g>
</g>
</svg>
