<?xml version="1.0" encoding="utf-8"?>
<!-- Generator: Adobe Illustrator 24.0.0, SVG Export Plug-In . SVG Version: 6.00 Build 0)  -->
<svg version="1.1" id="Layer_1" xmlns="http://www.w3.org/2000/svg" xmlns:xlink="http://www.w3.org/1999/xlink" x="0px" y="0px"
	 viewBox="0 0 256 256" enable-background="new 0 0 256 256" xml:space="preserve">
<g>
	<g>
		<path fill="#846F75" d="M226.024,27.476h-22.823c-1.381,0-2.5,1.119-2.5,2.5s1.119,2.5,2.5,2.5h20.323v191.049H32.476V32.476
			h19.626c1.381,0,2.5-1.119,2.5-2.5s-1.119-2.5-2.5-2.5H29.976c-1.381,0-2.5,1.119-2.5,2.5v196.049c0,1.381,1.119,2.5,2.5,2.5
			h196.049c1.381,0,2.5-1.119,2.5-2.5V29.976C228.524,28.595,227.405,27.476,226.024,27.476z"/>
		<path fill="#846F75" d="M87.819,32.476h80.362c1.381,0,2.5-1.119,2.5-2.5s-1.119-2.5-2.5-2.5H87.819c-1.381,0-2.5,1.119-2.5,2.5
			S86.438,32.476,87.819,32.476z"/>
	</g>
	<path fill="#65C1D6" d="M70.309,64.647c-5.52,0-10.01-4.49-10.01-10.01V20.735c0-5.52,4.491-10.01,10.01-10.01
		s10.01,4.491,10.01,10.01v33.902C80.319,60.157,75.829,64.647,70.309,64.647z M70.309,15.725c-2.763,0-5.01,2.248-5.01,5.01v33.902
		c0,2.762,2.248,5.01,5.01,5.01c2.762,0,5.01-2.248,5.01-5.01V20.735C75.319,17.973,73.071,15.725,70.309,15.725z"/>
	<path fill="#65C1D6" d="M185.691,64.647c-5.52,0-10.011-4.49-10.011-10.01V20.735c0-5.52,4.491-10.01,10.011-10.01
		s10.01,4.491,10.01,10.01v33.902C195.701,60.157,191.211,64.647,185.691,64.647z M185.691,15.725c-2.763,0-5.011,2.248-5.011,5.01
		v33.902c0,2.762,2.248,5.01,5.011,5.01s5.01-2.248,5.01-5.01V20.735C190.701,17.973,188.454,15.725,185.691,15.725z"/>
	<path fill="#EBE7F2" d="M213.368,79.526H42.632c-1.381,0-2.5-1.119-2.5-2.5s1.119-2.5,2.5-2.5h170.736c1.381,0,2.5,1.119,2.5,2.5
		S214.749,79.526,213.368,79.526z"/>
	<path fill="#65C1D6" d="M152.025,137.307h-6.808c4.406-4.62,6.886-10.923,6.616-17.496c-0.498-12.153-10.014-21.953-22.135-22.795
		c-6.694-0.464-13.081,1.791-17.969,6.35c-4.82,4.497-7.585,10.856-7.585,17.446c0,6.272,2.422,12.131,6.606,16.496h-6.777
		c-8.942,0-16.218,7.275-16.218,16.217v52.582c0,1.381,1.119,2.5,2.5,2.5h75.486c1.381,0,2.5-1.119,2.5-2.5v-52.582
		C168.243,144.582,160.968,137.307,152.025,137.307z M109.146,120.811c0-5.285,2.129-10.183,5.996-13.79
		c3.863-3.604,8.895-5.39,14.212-5.018c9.417,0.654,17.098,8.566,17.484,18.012c0.3,7.321-3.71,14.217-10.217,17.568
		c-0.065,0.033-8.621,6.01-8.621,6.01s-8.553-5.975-8.621-6.01C113.067,134.333,109.146,127.905,109.146,120.811z M128,161.174
		l4.683,26.803L128,192.534l-4.682-4.558L128,161.174z M163.243,203.605H92.757v-50.082c0-6.185,5.032-11.217,11.218-11.217h13.471
		l7.818,5.475l-7.099,40.635c-0.142,0.814,0.127,1.646,0.719,2.222l7.372,7.176c0.485,0.472,1.114,0.708,1.744,0.708
		s1.259-0.236,1.744-0.708l7.372-7.176c0.592-0.576,0.86-1.408,0.719-2.222l-7.098-40.635l7.818-5.475h13.471
		c6.186,0,11.218,5.032,11.218,11.217V203.605z"/>
	<path fill="#EBE7F2" d="M177.695,188.339c-1.381,0-2.5-1.119-2.5-2.5v-43.512c0-1.381,1.119-2.5,2.5-2.5s2.5,1.119,2.5,2.5v43.512
		C180.195,187.22,179.076,188.339,177.695,188.339z"/>
	<path fill="#65C1D6" d="M208.448,188.899h-42.705c-1.381,0-2.5-1.119-2.5-2.5s1.119-2.5,2.5-2.5h40.205v-40.465
		c0-4.802-3.907-8.708-8.709-8.708h-11.651c-1.154,0-2.158-0.79-2.43-1.911c-0.271-1.121,0.259-2.283,1.285-2.811
		c5.159-2.658,8.339-8.126,8.101-13.93c-0.307-7.489-6.396-13.762-13.862-14.281c-4.211-0.293-8.206,1.121-11.269,3.978
		c-3.065,2.86-4.754,6.743-4.754,10.934c0,5.625,3.109,10.721,8.114,13.299c1.026,0.528,1.557,1.69,1.285,2.812
		c-0.271,1.122-1.275,1.911-2.43,1.911h-11.652c-1.381,0-2.5-1.119-2.5-2.5s1.119-2.5,2.5-2.5h4.504
		c-3.065-3.554-4.821-8.139-4.821-13.021c0-5.511,2.312-10.829,6.343-14.589c4.088-3.813,9.419-5.695,15.025-5.311
		c10.138,0.705,18.097,8.9,18.513,19.064c0.211,5.138-1.587,10.079-4.833,13.857h4.532c7.56,0,13.709,6.149,13.709,13.708v42.965
		C210.948,187.78,209.829,188.899,208.448,188.899z"/>
	<path fill="#EBE7F2" d="M78.305,188.339c-1.381,0-2.5-1.119-2.5-2.5v-43.512c0-1.381,1.119-2.5,2.5-2.5s2.5,1.119,2.5,2.5v43.512
		C80.805,187.22,79.686,188.339,78.305,188.339z"/>
	<path fill="#65C1D6" d="M90.257,188.899H47.552c-1.381,0-2.5-1.119-2.5-2.5v-42.965c0-7.559,6.149-13.708,13.708-13.708h4.533
		c-3.245-3.778-5.043-8.719-4.833-13.857c0.417-10.164,8.375-18.359,18.512-19.064c5.602-0.389,10.938,1.497,15.026,5.311
		c4.031,3.761,6.343,9.079,6.343,14.589c0,4.883-1.755,9.467-4.821,13.021h4.504c1.381,0,2.5,1.119,2.5,2.5s-1.119,2.5-2.5,2.5
		H86.372c-1.154,0-2.158-0.79-2.43-1.911c-0.272-1.121,0.259-2.283,1.285-2.812c5.005-2.578,8.114-7.674,8.114-13.299
		c0-4.19-1.688-8.073-4.754-10.933c-3.063-2.858-7.07-4.27-11.269-3.979c-7.466,0.519-13.556,6.792-13.862,14.281
		c-0.238,5.805,2.942,11.272,8.102,13.93c1.025,0.528,1.557,1.69,1.285,2.812c-0.272,1.122-1.276,1.911-2.43,1.911H58.76
		c-4.802,0-8.708,3.907-8.708,8.708v40.465h40.205c1.381,0,2.5,1.119,2.5,2.5S91.638,188.899,90.257,188.899z"/>
</g>
</svg>
