<?xml version="1.0" encoding="utf-8"?>
<!-- Generator: Adobe Illustrator 24.0.0, SVG Export Plug-In . SVG Version: 6.00 Build 0)  -->
<svg version="1.1" id="Layer_1" xmlns="http://www.w3.org/2000/svg" xmlns:xlink="http://www.w3.org/1999/xlink" x="0px" y="0px"
	 viewBox="0 0 256 256" enable-background="new 0 0 256 256" xml:space="preserve">
<g>
	<path fill="#EBE7F2" d="M181.22,221.793c-1.008,0-1.958-0.614-2.337-1.613l-14.592-38.449c-0.49-1.291,0.159-2.735,1.45-3.225
		c1.29-0.491,2.733,0.159,3.224,1.45l14.592,38.449c0.49,1.291-0.159,2.735-1.45,3.225
		C181.814,221.741,181.515,221.793,181.22,221.793z"/>
	<path fill="#EBE7F2" d="M74.78,221.793c-0.314,0-0.633-0.059-0.941-0.185c-1.279-0.52-1.894-1.979-1.373-3.258l15.646-38.449
		c0.52-1.279,1.98-1.894,3.258-1.373c1.279,0.52,1.894,1.979,1.373,3.258l-15.646,38.449
		C76.702,221.206,75.767,221.793,74.78,221.793z"/>
	<path fill="#F9B087" d="M111.217,177.872c-0.744,0-1.49-0.076-2.239-0.246c-4.052-0.921-6.848-4.17-9.552-7.312
		c-1.879-2.184-3.654-4.246-5.559-5.165c-1.969-0.95-4.731-1.06-7.655-1.176c-4.097-0.163-8.333-0.332-11.514-2.871
		c-3.197-2.553-4.302-6.658-5.371-10.628c-0.757-2.815-1.473-5.474-2.824-7.166c-1.337-1.675-3.76-2.955-6.326-4.311
		c-3.648-1.927-7.421-3.92-9.21-7.629c-1.757-3.642-0.979-7.794-0.227-11.811c0.542-2.892,1.053-5.623,0.562-7.782
		c-0.461-2.03-2.064-4.203-3.762-6.503c-2.47-3.348-5.024-6.809-5.024-11.005s2.554-7.657,5.024-11.004
		c1.697-2.3,3.301-4.473,3.762-6.503c0.491-2.159-0.021-4.891-0.562-7.782c-0.752-4.016-1.53-8.169,0.227-11.811
		c1.79-3.71,5.563-5.703,9.211-7.63c2.565-1.355,4.988-2.635,6.326-4.31c1.351-1.692,2.067-4.351,2.824-7.166
		c1.069-3.97,2.173-8.075,5.371-10.628c3.181-2.54,7.417-2.708,11.514-2.871c2.924-0.116,5.687-0.226,7.655-1.176
		c1.905-0.919,3.68-2.982,5.559-5.166c2.704-3.142,5.499-6.39,9.551-7.312c3.898-0.887,7.748,0.787,11.472,2.404
		c2.723,1.183,5.295,2.301,7.55,2.301c2.255,0,4.827-1.118,7.55-2.301c3.724-1.617,7.573-3.292,11.472-2.404
		c4.053,0.921,6.849,4.17,9.553,7.312c1.879,2.184,3.653,4.246,5.559,5.166c1.969,0.95,4.73,1.06,7.655,1.176
		c4.097,0.163,8.333,0.332,11.514,2.871c3.197,2.553,4.303,6.658,5.371,10.628c0.758,2.815,1.473,5.474,2.823,7.166
		c1.338,1.675,3.761,2.955,6.326,4.31c3.648,1.927,7.421,3.92,9.211,7.629c1.757,3.642,0.979,7.794,0.227,11.811
		c-0.542,2.892-1.053,5.623-0.563,7.782c0.462,2.03,2.064,4.203,3.763,6.503c2.47,3.348,5.023,6.809,5.023,11.004
		c0,4.196-2.554,7.657-5.024,11.004c-1.697,2.301-3.3,4.474-3.762,6.503c-0.49,2.16,0.021,4.891,0.563,7.783
		c0.752,4.016,1.53,8.169-0.227,11.811c-1.79,3.709-5.563,5.702-9.211,7.629c-2.565,1.355-4.988,2.635-6.326,4.31
		c-1.351,1.692-2.066,4.351-2.824,7.167c-1.068,3.97-2.174,8.075-5.371,10.627c-3.18,2.54-7.417,2.708-11.514,2.871
		c-2.924,0.116-5.687,0.226-7.655,1.176c-1.904,0.919-3.68,2.981-5.559,5.165c-2.703,3.142-5.499,6.391-9.551,7.312
		c-3.899,0.884-7.748-0.787-11.472-2.405c-2.723-1.183-5.295-2.301-7.551-2.301c-2.255,0-4.827,1.118-7.55,2.301
		C117.441,176.528,114.35,177.872,111.217,177.872z M111.213,15.666c-0.391,0-0.767,0.038-1.127,0.12
		c-2.445,0.556-4.594,3.053-6.87,5.697c-2.13,2.476-4.333,5.036-7.176,6.407c-2.905,1.401-6.324,1.538-9.63,1.669
		c-3.442,0.137-6.694,0.266-8.593,1.782c-1.915,1.529-2.764,4.682-3.662,8.021c-0.858,3.186-1.745,6.48-3.746,8.987
		c-1.988,2.489-4.992,4.076-7.897,5.611c-3.069,1.621-5.967,3.152-7.043,5.381c-1.043,2.163-0.447,5.347,0.185,8.718
		c0.611,3.265,1.244,6.642,0.523,9.811c-0.693,3.049-2.687,5.751-4.614,8.364c-2.082,2.821-4.047,5.485-4.047,8.036
		s1.966,5.215,4.047,8.036c1.928,2.613,3.921,5.314,4.614,8.364c0.72,3.169,0.088,6.545-0.523,9.811
		c-0.631,3.371-1.228,6.555-0.185,8.717c1.075,2.229,3.974,3.76,7.042,5.381c2.905,1.535,5.91,3.122,7.897,5.612
		c2.001,2.505,2.888,5.8,3.746,8.986c0.898,3.338,1.747,6.491,3.662,8.02c1.898,1.516,5.15,1.646,8.593,1.782
		c3.306,0.131,6.724,0.268,9.629,1.669c2.843,1.372,5.046,3.932,7.177,6.407c2.275,2.644,4.424,5.142,6.87,5.697
		c2.3,0.522,5.249-0.758,8.371-2.115c3.072-1.334,6.249-2.715,9.543-2.715c3.295,0,6.472,1.38,9.544,2.715
		c3.12,1.356,6.067,2.64,8.37,2.114c2.445-0.556,4.595-3.053,6.869-5.697c2.131-2.476,4.333-5.036,7.177-6.407
		c2.904-1.401,6.322-1.537,9.629-1.668c3.442-0.137,6.694-0.266,8.592-1.782c1.916-1.529,2.765-4.682,3.663-8.02
		c0.857-3.187,1.744-6.481,3.746-8.987c1.987-2.489,4.991-4.076,7.896-5.611c3.069-1.621,5.968-3.152,7.043-5.381
		c1.043-2.162,0.447-5.346-0.185-8.717c-0.611-3.265-1.243-6.642-0.522-9.812c0.692-3.049,2.686-5.75,4.613-8.363
		c2.082-2.821,4.048-5.485,4.048-8.036c0-2.55-1.966-5.215-4.047-8.036c-1.929-2.613-3.922-5.314-4.614-8.364
		c-0.721-3.169-0.089-6.545,0.522-9.81c0.632-3.371,1.229-6.555,0.185-8.717c-1.075-2.229-3.974-3.76-7.042-5.381
		c-2.905-1.535-5.91-3.122-7.898-5.611c-2-2.506-2.887-5.8-3.744-8.986c-0.898-3.338-1.747-6.491-3.662-8.021
		c-1.899-1.516-5.15-1.646-8.594-1.782c-3.306-0.131-6.724-0.268-9.629-1.669c-2.843-1.372-5.046-3.931-7.176-6.407
		c-2.275-2.645-4.425-5.142-6.87-5.698c-2.299-0.524-5.249,0.758-8.371,2.114c-3.072,1.335-6.249,2.715-9.543,2.715
		c-3.294,0-6.471-1.38-9.543-2.715C115.825,16.756,113.315,15.666,111.213,15.666z"/>
	<g>
		<path fill="#846F75" d="M176.548,135.395V52.883c0-4.021-3.271-7.292-7.292-7.292H128c-1.381,0-2.5,1.119-2.5,2.5
			s1.119,2.5,2.5,2.5h41.256c1.264,0,2.292,1.028,2.292,2.292v38.756h-11.154c-0.983,0-1.875,0.576-2.279,1.473
			c-0.404,0.896-0.245,1.946,0.406,2.683c1.622,1.836,2.516,4.186,2.516,6.617c0,2.847-1.219,5.568-3.343,7.467
			c-2.153,1.925-4.937,2.804-7.841,2.479c-4.393-0.494-8.061-4.017-8.721-8.378c-0.456-3.012,0.395-5.918,2.396-8.184
			c0.65-0.737,0.81-1.787,0.405-2.683c-0.404-0.896-1.296-1.472-2.279-1.472H128c-1.381,0-2.5,1.119-2.5,2.5v9.176
			c-2.519-1.052-5.309-1.411-8.088-0.988c-6.663,1.009-11.843,6.398-12.598,13.104c-0.481,4.274,0.874,8.55,3.718,11.732
			c2.846,3.185,6.927,5.011,11.196,5.011c1.997,0,3.957-0.4,5.772-1.161v6.673H86.744c-1.264,0-2.292-1.028-2.292-2.292V94.139
			c0-1.381-1.119-2.5-2.5-2.5s-2.5,1.119-2.5,2.5v41.256c0,4.021,3.271,7.292,7.292,7.292h82.512
			C173.276,142.687,176.548,139.416,176.548,135.395z M129.027,124.253c-0.896-0.405-1.947-0.245-2.683,0.406
			c-1.836,1.622-4.186,2.516-6.617,2.516c-2.847,0-5.569-1.219-7.468-3.343c-1.924-2.153-2.804-4.938-2.478-7.841
			c0.494-4.393,4.018-8.06,8.378-8.72c3.013-0.456,5.919,0.396,8.184,2.396c0.736,0.651,1.788,0.811,2.683,0.406
			c0.896-0.404,1.473-1.296,1.473-2.279V96.639h6.676c-1.052,2.519-1.408,5.309-0.987,8.088c1.009,6.664,6.397,11.844,13.105,12.598
			c0.566,0.063,1.133,0.095,1.696,0.095c3.691,0,7.275-1.347,10.035-3.814c3.185-2.846,5.011-6.927,5.011-11.195
			c0-1.997-0.4-3.957-1.161-5.772h6.673v38.756c0,1.264-1.028,2.292-2.292,2.292H130.5v-11.154
			C130.5,125.55,129.924,124.658,129.027,124.253z"/>
		<path fill="#846F75" d="M116.244,182.389c-1.294-0.487-2.734,0.166-3.221,1.458l-20.351,53.978l-15.933-20.084
			c-0.573-0.722-1.495-1.07-2.404-0.906L49.108,221.4l21.438-56.862c0.487-1.292-0.166-2.734-1.458-3.221
			c-1.292-0.487-2.735,0.166-3.221,1.458l-22.995,60.99c-0.317,0.842-0.158,1.791,0.418,2.482c0.577,0.692,1.479,1.021,2.366,0.86
			l28.095-5.086l17.744,22.368c0.479,0.603,1.202,0.946,1.958,0.946c0.128,0,0.257-0.01,0.387-0.03
			c0.889-0.139,1.635-0.746,1.953-1.588l21.907-58.105C118.188,184.318,117.536,182.876,116.244,182.389z"/>
		<path fill="#846F75" d="M213.126,223.764l-22.994-60.99c-0.486-1.293-1.935-1.943-3.221-1.458
			c-1.292,0.487-1.944,1.929-1.457,3.221l21.438,56.862l-25.227-4.567c-0.909-0.164-1.831,0.184-2.404,0.906l-15.933,20.084
			l-20.418-54.154c-0.486-1.292-1.932-1.943-3.221-1.458c-1.292,0.487-1.944,1.929-1.457,3.221l21.974,58.282
			c0.317,0.843,1.063,1.449,1.953,1.588c0.129,0.02,0.258,0.03,0.386,0.03c0.756,0,1.48-0.343,1.959-0.946l17.744-22.368
			l28.094,5.086c0.888,0.159,1.79-0.168,2.366-0.86S213.444,224.606,213.126,223.764z"/>
	</g>
	<path fill="#F9B087" d="M128,96.639h-13.654c-0.983,0-1.875-0.576-2.279-1.473c-0.404-0.896-0.246-1.946,0.405-2.683
		c2.001-2.266,2.853-5.172,2.396-8.185c-0.661-4.36-4.328-7.883-8.721-8.377c-2.902-0.327-5.687,0.554-7.84,2.478
		c-2.125,1.899-3.343,4.621-3.343,7.467c0,2.431,0.894,4.781,2.516,6.617c0.651,0.737,0.81,1.787,0.406,2.683
		c-0.404,0.896-1.296,1.473-2.279,1.473H81.952c-1.381,0-2.5-1.119-2.5-2.5V52.883c0-4.021,3.271-7.292,7.292-7.292H128
		c1.381,0,2.5,1.119,2.5,2.5v9.176c2.52-1.053,5.307-1.408,8.09-0.988c6.663,1.01,11.843,6.4,12.597,13.107
		c0.48,4.273-0.875,8.549-3.72,11.73c-2.846,3.184-6.927,5.01-11.194,5.01c-1.997,0-3.957-0.4-5.772-1.161v9.173
		C130.5,95.52,129.381,96.639,128,96.639z M118.824,91.639h6.676V80.484c0-0.983,0.576-1.875,1.473-2.279
		c0.897-0.404,1.947-0.245,2.683,0.406c1.836,1.622,4.186,2.516,6.617,2.516c2.847,0,5.568-1.218,7.467-3.343
		c1.925-2.153,2.805-4.937,2.479-7.839c-0.493-4.393-4.017-8.061-8.378-8.722c-3.007-0.457-5.918,0.394-8.185,2.396
		c-0.736,0.65-1.787,0.809-2.683,0.406c-0.896-0.404-1.473-1.296-1.473-2.279V50.591H86.744c-1.264,0-2.292,1.028-2.292,2.292
		v38.756h6.673c-0.76-1.815-1.161-3.775-1.161-5.772c0-4.268,1.826-8.349,5.011-11.195c3.181-2.844,7.456-4.199,11.73-3.719
		c6.708,0.754,12.097,5.935,13.106,12.597C120.233,86.33,119.876,89.12,118.824,91.639z"/>
</g>
</svg>
