<?xml version="1.0" encoding="utf-8"?>
<!-- Generator: Adobe Illustrator 24.0.0, SVG Export Plug-In . SVG Version: 6.00 Build 0)  -->
<svg version="1.1" id="Layer_1" xmlns="http://www.w3.org/2000/svg" xmlns:xlink="http://www.w3.org/1999/xlink" x="0px" y="0px"
	 viewBox="0 0 256 256" enable-background="new 0 0 256 256" xml:space="preserve">
<g>
	<path fill="#ED9ABC" d="M162.408,207.998H130.5v-62.936c0-1.381-1.119-2.5-2.5-2.5s-2.5,1.119-2.5,2.5v62.936H93.592
		c-1.381,0-2.5,1.119-2.5,2.5s1.119,2.5,2.5,2.5h68.816c1.381,0,2.5-1.119,2.5-2.5S163.789,207.998,162.408,207.998z"/>
	<path fill="#ED9ABC" d="M72.605,181.656c-0.792-1.132-2.351-1.405-3.482-0.614l-6.605,4.626l-6.606-4.626
		c-1.13-0.792-2.69-0.517-3.482,0.614s-0.517,2.69,0.614,3.482l6.738,4.719l-5.796,33.178c-0.142,0.814,0.127,1.646,0.719,2.222
		l6.07,5.908c0.485,0.472,1.114,0.708,1.744,0.708s1.259-0.236,1.744-0.708l6.069-5.908c0.592-0.576,0.861-1.408,0.719-2.222
		l-5.796-33.178l6.737-4.719C73.123,184.346,73.397,182.787,72.605,181.656z M62.518,225.885l-3.38-3.29l3.38-19.346l3.379,19.346
		L62.518,225.885z"/>
	<path fill="#ED9ABC" d="M213.52,210.257h-9.117c-1.381,0-2.5-1.119-2.5-2.5s1.119-2.5,2.5-2.5h9.117c1.381,0,2.5,1.119,2.5,2.5
		S214.901,210.257,213.52,210.257z"/>
	<path fill="#ED9ABC" d="M202.696,180.883c-1.218-0.649-2.733-0.187-3.381,1.033l-5.833,10.963l-5.833-10.963
		c-0.649-1.219-2.165-1.683-3.381-1.033c-1.219,0.648-1.681,2.162-1.033,3.381l7.747,14.561v37.972c0,1.381,1.119,2.5,2.5,2.5
		s2.5-1.119,2.5-2.5v-37.972l7.747-14.561C204.377,183.045,203.915,181.532,202.696,180.883z"/>
	<g>
		<path fill="#846F75" d="M82.298,180.59h-4.609c3.284-3.807,5.104-8.794,4.893-13.98c-0.419-10.231-8.43-18.481-18.635-19.19
			c-5.636-0.389-11.011,1.507-15.125,5.345c-4.058,3.786-6.385,9.139-6.385,14.686c0,4.93,1.777,9.557,4.88,13.139h-4.579
			c-7.606,0-13.794,6.188-13.794,13.793v43.291c0,1.381,1.119,2.5,2.5,2.5h62.148c1.381,0,2.5-1.119,2.5-2.5v-43.291
			C96.092,186.778,89.904,180.59,82.298,180.59z M91.092,235.174H33.944v-40.791c0-4.849,3.945-8.793,8.794-8.793h11.74
			c1.154,0,2.158-0.79,2.43-1.911c0.272-1.121-0.259-2.283-1.285-2.812c-5.05-2.601-8.187-7.742-8.187-13.417
			c0-4.228,1.703-8.145,4.796-11.03c3.09-2.883,7.125-4.309,11.368-4.013c7.533,0.523,13.676,6.851,13.985,14.406
			c0.24,5.856-2.968,11.372-8.173,14.053c-1.025,0.529-1.557,1.69-1.285,2.812c0.272,1.122,1.276,1.911,2.43,1.911h11.741
			c4.849,0,8.793,3.945,8.793,8.793V235.174z"/>
		<path fill="#846F75" d="M213.262,180.59h-4.608c3.284-3.807,5.104-8.794,4.893-13.98c-0.419-10.231-8.431-18.481-18.635-19.19
			c-5.637-0.389-11.01,1.507-15.125,5.345c-4.058,3.786-6.385,9.139-6.385,14.686c0,4.93,1.777,9.557,4.88,13.139h-4.58
			c-7.606,0-13.793,6.188-13.793,13.793v43.291c0,1.381,1.119,2.5,2.5,2.5h62.148c1.381,0,2.5-1.119,2.5-2.5v-43.291
			C227.056,186.778,220.868,180.59,213.262,180.59z M222.056,235.174h-57.148v-40.791c0-4.849,3.945-8.793,8.793-8.793h11.741
			c1.154,0,2.158-0.79,2.43-1.911c0.272-1.121-0.259-2.283-1.285-2.812c-5.05-2.601-8.187-7.742-8.187-13.417
			c0-4.228,1.703-8.145,4.796-11.03c3.09-2.883,7.125-4.309,11.368-4.013c7.533,0.523,13.676,6.851,13.985,14.406
			c0.24,5.856-2.968,11.372-8.173,14.053c-1.025,0.529-1.557,1.69-1.285,2.812c0.272,1.122,1.276,1.911,2.43,1.911h11.74
			c4.849,0,8.794,3.945,8.794,8.793V235.174z"/>
		<path fill="#846F75" d="M186.354,129.25V29.168c0-4.584-3.729-8.313-8.313-8.313H128c-1.381,0-2.5,1.119-2.5,2.5
			s1.119,2.5,2.5,2.5h50.041c1.827,0,3.313,1.486,3.313,3.313v47.541h-14.062c-0.983,0-1.875,0.576-2.279,1.472
			c-0.404,0.896-0.246,1.946,0.405,2.683c2.054,2.325,3.185,5.3,3.185,8.378c0,3.604-1.542,7.05-4.232,9.455
			c-2.726,2.436-6.25,3.554-9.924,3.138c-5.563-0.625-10.208-5.088-11.045-10.611c-0.577-3.812,0.5-7.491,3.034-10.359
			c0.651-0.737,0.81-1.787,0.405-2.683c-0.404-0.896-1.296-1.472-2.279-1.472H128c-1.381,0-2.5,1.119-2.5,2.5v11.949
			c-3.153-1.49-6.716-2.027-10.263-1.491c-7.844,1.188-13.942,7.532-14.831,15.428c-0.566,5.033,1.029,10.069,4.378,13.816
			c3.352,3.75,8.157,5.901,13.183,5.901c2.624,0,5.193-0.587,7.533-1.695v9.446H77.959c-1.827,0-3.313-1.486-3.313-3.313V79.209
			c0-1.381-1.119-2.5-2.5-2.5s-2.5,1.119-2.5,2.5v50.041c0,4.583,3.729,8.313,8.313,8.313h100.082
			C182.625,137.563,186.354,133.833,186.354,129.25z M129.027,116.221c-0.896-0.405-1.946-0.245-2.683,0.406
			c-2.323,2.053-5.298,3.184-8.377,3.184c-3.604,0-7.051-1.543-9.455-4.233c-2.437-2.726-3.551-6.251-3.137-9.924
			c0.626-5.563,5.089-10.207,10.611-11.044c3.812-0.577,7.492,0.5,10.359,3.034c0.737,0.651,1.788,0.811,2.683,0.406
			c0.896-0.404,1.473-1.296,1.473-2.279V81.709h9.45c-1.491,3.154-2.029,6.716-1.492,10.264c1.188,7.844,7.533,13.943,15.43,14.831
			c0.667,0.075,1.334,0.112,1.999,0.112c4.347,0,8.566-1.586,11.816-4.491c3.75-3.352,5.9-8.156,5.9-13.182
			c0-2.624-0.587-5.193-1.696-7.534h9.447v47.541c0,1.827-1.486,3.313-3.313,3.313H130.5V118.5
			C130.5,117.517,129.924,116.625,129.027,116.221z"/>
	</g>
	<path fill="#ED9ABC" d="M128,81.709h-16.562c-0.983,0-1.875-0.576-2.279-1.473c-0.404-0.896-0.245-1.946,0.406-2.683
		c2.534-2.868,3.612-6.546,3.034-10.359c-0.837-5.523-5.482-9.985-11.045-10.611c-3.673-0.417-7.198,0.701-9.924,3.138
		c-2.689,2.404-4.232,5.85-4.232,9.454c0,3.079,1.131,6.054,3.185,8.378c0.651,0.737,0.81,1.787,0.406,2.683
		c-0.404,0.896-1.296,1.473-2.279,1.473H72.146c-1.381,0-2.5-1.119-2.5-2.5V29.168c0-4.584,3.729-8.313,8.313-8.313H128
		c1.381,0,2.5,1.119,2.5,2.5v11.95c3.154-1.491,6.718-2.03,10.264-1.491c7.844,1.189,13.943,7.534,14.831,15.431
		c0.565,5.033-1.031,10.068-4.379,13.814c-3.352,3.749-8.156,5.899-13.182,5.899c-2.624,0-5.193-0.587-7.534-1.696v11.947
		C130.5,80.59,129.381,81.709,128,81.709z M116.051,76.709h9.449V62.647c0-0.983,0.576-1.875,1.473-2.279
		c0.896-0.404,1.946-0.245,2.683,0.406c2.324,2.054,5.3,3.185,8.378,3.185c3.604,0,7.05-1.542,9.454-4.231
		c2.437-2.726,3.551-6.25,3.139-9.923c-0.625-5.563-5.088-10.209-10.611-11.046c-3.814-0.579-7.492,0.5-10.36,3.034
		c-0.737,0.65-1.788,0.81-2.683,0.406c-0.896-0.404-1.473-1.296-1.473-2.279V25.855H77.959c-1.827,0-3.313,1.486-3.313,3.313v47.541
		h9.447c-1.108-2.34-1.696-4.91-1.696-7.534c0-5.026,2.15-9.831,5.9-13.182c3.747-3.349,8.783-4.944,13.814-4.378
		c7.896,0.888,14.241,6.986,15.43,14.831C118.08,69.993,117.541,73.555,116.051,76.709z"/>
</g>
</svg>
