<?xml version="1.0" encoding="utf-8"?>
<!-- Generator: Adobe Illustrator 24.0.0, SVG Export Plug-In . SVG Version: 6.00 Build 0)  -->
<svg version="1.1" id="Layer_1" xmlns="http://www.w3.org/2000/svg" xmlns:xlink="http://www.w3.org/1999/xlink" x="0px" y="0px"
	 viewBox="0 0 256 256" enable-background="new 0 0 256 256" xml:space="preserve">
<g>
	<path fill="#F9B087" d="M226.024,228.524H29.976c-1.381,0-2.5-1.119-2.5-2.5v-37.748c0-1.381,1.119-2.5,2.5-2.5s2.5,1.119,2.5,2.5
		v35.248h191.049v-35.248c0-1.381,1.119-2.5,2.5-2.5s2.5,1.119,2.5,2.5v37.748C228.524,227.405,227.405,228.524,226.024,228.524z"/>
	<path fill="#F9B087" d="M226.024,101.829c-1.381,0-2.5-1.119-2.5-2.5V32.476h-62.366c-1.381,0-2.5-1.119-2.5-2.5s1.119-2.5,2.5-2.5
		h64.866c1.381,0,2.5,1.119,2.5,2.5v69.353C228.524,100.709,227.405,101.829,226.024,101.829z"/>
	<path fill="#F9B087" d="M29.976,101.83c-1.381,0-2.5-1.119-2.5-2.5V29.976c0-1.381,1.119-2.5,2.5-2.5h64.866
		c1.381,0,2.5,1.119,2.5,2.5s-1.119,2.5-2.5,2.5H32.476V99.33C32.476,100.71,31.356,101.83,29.976,101.83z"/>
	<path fill="#F9B087" d="M138.5,184.388H117.5c-1.381,0-2.5-1.119-2.5-2.5v-24.112h-10.98c-1.011,0-1.923-0.609-2.31-1.543
		c-0.387-0.934-0.173-2.009,0.542-2.724l23.979-23.979c0.976-0.977,2.56-0.977,3.535,0l23.979,23.979
		c0.715,0.715,0.929,1.79,0.542,2.724c-0.387,0.935-1.298,1.543-2.31,1.543H141v24.112C141,183.269,139.88,184.388,138.5,184.388z
		 M120,179.388H136v-24.112c0-1.381,1.119-2.5,2.5-2.5h7.444L128,134.832l-17.944,17.943h7.444c1.381,0,2.5,1.119,2.5,2.5V179.388z"
		/>
	<path fill="#F9B087" d="M138.5,215.645H117.5c-1.381,0-2.5-1.119-2.5-2.5v-17.866c0-1.381,1.119-2.5,2.5-2.5H138.5
		c1.381,0,2.5,1.119,2.5,2.5v17.866C141,214.526,139.88,215.645,138.5,215.645z M120,210.645H136v-12.866H120V210.645z"/>
	<path fill="#F9B087" d="M210.614,184.833h-14.609c-1.381,0-2.5-1.119-2.5-2.5v-16.014h-6.878c-1.011,0-1.923-0.609-2.31-1.543
		c-0.387-0.934-0.173-2.009,0.542-2.724l16.682-16.683c0.938-0.938,2.598-0.938,3.535,0l16.683,16.683
		c0.715,0.715,0.929,1.79,0.542,2.724c-0.387,0.935-1.298,1.543-2.31,1.543h-6.878v16.014
		C213.114,183.714,211.995,184.833,210.614,184.833z M198.505,179.833h9.609v-16.014c0-1.381,1.119-2.5,2.5-2.5h3.342
		l-10.647-10.647l-10.646,10.647h3.342c1.381,0,2.5,1.119,2.5,2.5V179.833z"/>
	<path fill="#F9B087" d="M210.614,206.579h-14.609c-1.381,0-2.5-1.119-2.5-2.5v-12.429c0-1.381,1.119-2.5,2.5-2.5h14.609
		c1.381,0,2.5,1.119,2.5,2.5v12.429C213.114,205.459,211.995,206.579,210.614,206.579z M198.505,201.579h9.609v-7.429h-9.609
		V201.579z"/>
	<path fill="#F9B087" d="M59.995,184.833H45.386c-1.381,0-2.5-1.119-2.5-2.5v-16.014h-6.878c-1.011,0-1.923-0.609-2.31-1.543
		c-0.387-0.934-0.173-2.009,0.542-2.724l16.683-16.683c0.938-0.938,2.598-0.938,3.535,0l16.682,16.683
		c0.715,0.715,0.929,1.79,0.542,2.724c-0.387,0.935-1.298,1.543-2.31,1.543h-6.878v16.014
		C62.495,183.714,61.376,184.833,59.995,184.833z M47.886,179.833h9.609v-16.014c0-1.381,1.119-2.5,2.5-2.5h3.342l-10.646-10.647
		l-10.647,10.647h3.342c1.381,0,2.5,1.119,2.5,2.5V179.833z"/>
	<path fill="#F9B087" d="M59.995,206.579H45.386c-1.381,0-2.5-1.119-2.5-2.5v-12.429c0-1.381,1.119-2.5,2.5-2.5h14.609
		c1.381,0,2.5,1.119,2.5,2.5v12.429C62.495,205.459,61.376,206.579,59.995,206.579z M47.886,201.579h9.609v-7.429h-9.609V201.579z"
		/>
	<g>
		<path fill="#846F75" d="M186.005,175.776h-6.087v-40.544c0-11.282-9.179-20.46-20.46-20.46h-10.798
			c6.45-5.985,10.145-14.618,9.775-23.649c-0.625-15.264-13.04-28.049-28.263-29.106c-8.555-0.596-16.704,2.285-22.946,8.108
			c-6.155,5.743-9.686,13.862-9.686,22.277c0,8.653,3.611,16.692,9.769,22.371H96.542c-11.282,0-20.46,9.179-20.46,20.46v40.544
			h-6.087c-1.381,0-2.5,1.119-2.5,2.5s1.119,2.5,2.5,2.5h6.087v23.302c0,1.381,1.119,2.5,2.5,2.5H107.5c1.381,0,2.5-1.119,2.5-2.5
			s-1.119-2.5-2.5-2.5H81.082v-66.346c0-8.525,6.936-15.46,15.46-15.46h18.671c1.154,0,2.158-0.79,2.43-1.911
			c0.272-1.121-0.259-2.283-1.285-2.812c-8.524-4.39-13.819-13.069-13.819-22.648c0-7.034,2.951-13.82,8.097-18.621
			c5.217-4.867,12.029-7.273,19.188-6.775c12.719,0.883,23.091,11.567,23.613,24.323c0.405,9.885-5.011,19.196-13.797,23.722
			c-1.025,0.528-1.557,1.69-1.285,2.812c0.272,1.122,1.276,1.911,2.43,1.911h18.671c8.525,0,15.46,6.936,15.46,15.46v66.346H148.5
			c-1.381,0-2.5,1.119-2.5,2.5s1.119,2.5,2.5,2.5h28.918c1.381,0,2.5-1.119,2.5-2.5v-23.302h6.087c1.381,0,2.5-1.119,2.5-2.5
			S187.386,175.776,186.005,175.776z"/>
		<path fill="#846F75" d="M218.657,104.846h-7.696c4.86-4.934,7.608-11.76,7.317-18.886c-0.529-12.913-10.64-23.326-23.519-24.221
			c-7.121-0.491-13.899,1.901-19.092,6.747c-5.123,4.779-8.06,11.535-8.06,18.537c0,6.807,2.685,13.156,7.308,17.823h-7.665
			c-1.381,0-2.5,1.119-2.5,2.5s1.119,2.5,2.5,2.5h15.256c1.154,0,2.158-0.79,2.43-1.911c0.272-1.121-0.259-2.283-1.285-2.812
			c-6.812-3.509-11.044-10.444-11.044-18.1c0-5.704,2.298-10.988,6.471-14.881c4.168-3.889,9.604-5.814,15.335-5.415
			c10.164,0.706,18.452,9.244,18.87,19.437c0.324,7.9-4.004,15.341-11.026,18.958c-1.025,0.529-1.557,1.69-1.285,2.812
			c0.272,1.122,1.276,1.911,2.43,1.911h15.256c6.713,0,12.175,5.462,12.175,12.176v53.754h-10.219c-1.381,0-2.5,1.119-2.5,2.5
			s1.119,2.5,2.5,2.5h12.719c1.381,0,2.5-1.119,2.5-2.5v-56.254C235.833,112.551,228.128,104.846,218.657,104.846z"/>
		<path fill="#846F75" d="M83.394,87.023c0,7.656-4.232,14.591-11.044,18.1c-1.025,0.528-1.557,1.69-1.285,2.812
			c0.272,1.122,1.276,1.911,2.43,1.911h15.256c1.381,0,2.5-1.119,2.5-2.5s-1.119-2.5-2.5-2.5h-7.665
			c4.623-4.667,7.308-11.016,7.308-17.823c0-7.002-2.938-13.758-8.06-18.537c-5.193-4.845-11.972-7.241-19.092-6.747
			c-12.879,0.895-22.99,11.308-23.519,24.221c-0.292,7.125,2.457,13.951,7.317,18.885h-7.696c-9.471,0-17.175,7.705-17.175,17.176
			v56.254c0,1.381,1.119,2.5,2.5,2.5h12.719c1.381,0,2.5-1.119,2.5-2.5s-1.119-2.5-2.5-2.5H25.167v-53.754
			c0-6.714,5.462-12.176,12.175-12.176h15.256c1.154,0,2.158-0.79,2.43-1.911c0.272-1.121-0.259-2.283-1.285-2.812
			c-7.021-3.617-11.35-11.059-11.026-18.958c0.417-10.193,8.706-18.731,18.87-19.438c5.719-0.402,11.167,1.525,15.335,5.415
			C81.096,76.035,83.394,81.32,83.394,87.023z"/>
		<path fill="#846F75" d="M105.829,36.915l3.34,0.861l-1.755,2.973c-1.075,1.826-0.78,4.148,0.719,5.647l3.447,3.448
			c1.499,1.498,3.821,1.793,5.649,0.716l2.97-1.753l0.861,3.342c0.53,2.052,2.381,3.485,4.501,3.485h4.875
			c2.118,0,3.969-1.432,4.502-3.487l0.861-3.34l2.972,1.754c1.827,1.075,4.148,0.78,5.647-0.719l3.447-3.447
			c1.499-1.499,1.794-3.821,0.718-5.649l-1.753-2.97l3.343-0.861c2.052-0.531,3.485-2.382,3.485-4.501v-4.875
			c0-2.119-1.433-3.97-3.485-4.501c-0.001,0-0.001,0-0.002,0l-3.34-0.861l1.755-2.973c1.075-1.826,0.779-4.147-0.719-5.647
			l-3.447-3.448c-1.498-1.498-3.819-1.792-5.649-0.716l-2.97,1.753L134.938,7.8c-0.532-2.051-2.383-3.483-4.501-3.483h-4.875
			c-2.12,0-3.971,1.433-4.501,3.487l-0.861,3.341l-2.973-1.755c-1.827-1.075-4.149-0.779-5.647,0.719l-3.448,3.447
			c-1.498,1.499-1.793,3.821-0.717,5.649l1.753,2.97l-3.344,0.862c-2.051,0.531-3.484,2.382-3.484,4.501v4.875
			C102.342,34.532,103.774,36.382,105.829,36.915z M107.342,27.81l6.294-1.622c0.761-0.196,1.385-0.738,1.686-1.464
			c0.301-0.726,0.243-1.551-0.157-2.228l-3.304-5.597l3.063-3.063l5.597,3.304c0.676,0.399,1.502,0.458,2.228,0.157
			c0.726-0.3,1.268-0.925,1.464-1.686l1.622-6.294h4.332l1.622,6.293c0.196,0.761,0.738,1.386,1.464,1.686
			c0.726,0.301,1.551,0.243,2.228-0.157l5.597-3.304l3.063,3.063l-3.304,5.597c-0.399,0.677-0.458,1.502-0.157,2.228
			c0.3,0.726,0.925,1.268,1.686,1.464l6.294,1.622v4.332l-6.294,1.622c-0.761,0.196-1.385,0.738-1.686,1.464
			c-0.301,0.726-0.243,1.551,0.157,2.228l3.304,5.597l-3.063,3.063l-5.597-3.304c-0.677-0.4-1.503-0.458-2.228-0.157
			c-0.726,0.3-1.269,0.925-1.464,1.686l-1.622,6.293h-4.332l-1.622-6.294c-0.196-0.761-0.738-1.385-1.464-1.686
			c-0.725-0.3-1.551-0.243-2.228,0.157l-5.597,3.304l-3.063-3.063l3.304-5.597c0.399-0.677,0.458-1.502,0.157-2.228
			c-0.301-0.726-0.925-1.269-1.686-1.464l-6.293-1.622V27.81z"/>
		<path fill="#846F75" d="M128,40.181c5.627,0,10.205-4.578,10.205-10.205S133.627,19.771,128,19.771s-10.205,4.578-10.205,10.205
			S122.373,40.181,128,40.181z M128,24.771c2.87,0,5.205,2.335,5.205,5.205s-2.335,5.205-5.205,5.205s-5.205-2.335-5.205-5.205
			S125.13,24.771,128,24.771z"/>
	</g>
</g>
</svg>
