<?xml version="1.0" encoding="utf-8"?>
<!-- Generator: Adobe Illustrator 24.0.0, SVG Export Plug-In . SVG Version: 6.00 Build 0)  -->
<svg version="1.1" id="Layer_1" xmlns="http://www.w3.org/2000/svg" xmlns:xlink="http://www.w3.org/1999/xlink" x="0px" y="0px"
	 viewBox="0 0 256 256" enable-background="new 0 0 256 256" xml:space="preserve">
<g>
	<path fill="#65C1D6" d="M105.454,168.735c-0.303,0-0.611-0.055-0.911-0.172l-52.99-20.742c-1.286-0.503-1.92-1.954-1.417-3.239
		c0.504-1.286,1.953-1.921,3.239-1.417l52.99,20.742c1.286,0.503,1.92,1.954,1.417,3.239
		C107.396,168.132,106.453,168.735,105.454,168.735z"/>
	<path fill="#65C1D6" d="M202.936,168.735c-0.303,0-0.611-0.055-0.911-0.172l-52.99-20.742c-1.286-0.503-1.92-1.954-1.417-3.239
		c0.503-1.286,1.953-1.921,3.239-1.417l52.99,20.742c1.286,0.503,1.92,1.954,1.417,3.239
		C204.878,168.132,203.935,168.735,202.936,168.735z"/>
	<g>
		<path fill="#846F75" d="M78.478,106.823c4.467,1.51,7.894,5.931,10.184,13.138c0.229,0.719,0.769,1.296,1.472,1.571
			c0.294,0.115,0.603,0.172,0.911,0.172c0.428,0,0.854-0.11,1.235-0.327c6.575-3.737,12.092-4.657,16.396-2.733
			c1.262,0.563,2.739-0.002,3.303-1.263c0.563-1.261-0.002-2.739-1.263-3.303c-5.193-2.32-11.333-1.791-18.279,1.568
			c-2.821-7.183-6.97-11.739-12.358-13.56c-1.308-0.443-2.727,0.259-3.169,1.567S77.169,106.381,78.478,106.823z"/>
		<path fill="#846F75" d="M118.382,138.058c-0.348-0.916-1.309-1.347-2.176-1.638c2.731-4.102,9.011-13.712,10.522-17.572
			l14.79-37.783c2.662-6.406-0.801-14.325-7.313-16.72c-1.742-0.57-5.68-2.601-7.547-2.363c-0.448-2.148-1.985-3.981-4.038-4.768
			c-1.907-0.622-7.479-3.3-9.269-3.157c-0.311-2.325-1.919-4.389-4.118-5.226c0,0-6.871-2.689-6.871-2.689
			c-2.638-1.082-5.882-0.172-7.59,2.089c-0.918-0.876-7.259-3.036-8.487-3.6c-3.264-1.355-7.295,0.408-8.515,3.724
			c0,0-3.828,9.779-3.828,9.779c-5.434,2.207-9.991,6.545-12.292,12.424l-4.425,11.303c-2.011,5.137-2.034,10.805-0.085,15.909
			l6.469,18.106c-1.173-0.245-2.385,0.377-2.836,1.53L16.281,231.069c-0.503,1.286,0.131,2.736,1.417,3.239
			c1.286,0.503,2.735-0.131,3.239-1.417l43.581-111.334l48.334,18.919l-35.461,90.593c-0.503,1.286,0.131,2.736,1.417,3.239
			c0.299,0.117,0.607,0.172,0.911,0.172c0.999,0,1.942-0.603,2.329-1.589l36.373-92.92
			C118.661,139.354,118.647,138.666,118.382,138.058z M112.527,59.226c0.414-0.205,0.95-0.221,1.4-0.044l6.871,2.69
			c0.905,0.33,1.245,1.45,0.797,2.275c-0.665,1.7-8.089,20.664-8.486,21.678c-2.296,5.713-10.887,3.508-10.098-2.616
			c4.926-0.979,9.272-4.355,11.235-9.368l1.28-3.271c0.503-1.286-0.131-2.736-1.417-3.239l-4.387-1.717l2.169-5.541
			C112.001,59.735,112.156,59.373,112.527,59.226z M98.504,51.689c0.315-0.807,1.23-1.208,2.036-0.89l6.871,2.689
			c0.792,0.291,1.215,1.255,0.89,2.036c-0.702,1.793-2.508,6.408-3.235,8.265l-9.797-3.835C96.13,57.752,97.646,53.88,98.504,51.689
			z M82.427,50.178c0.292-0.793,1.254-1.214,2.036-0.89c0,0,6.871,2.689,6.871,2.689c0.773,0.303,1.346,1.236,0.89,2.037
			c0,0-1.611,4.117-1.611,4.117c-3.49-1.42-7.191-1.89-10.711-1.502L82.427,50.178z M61.882,83.684l4.425-11.303
			c3.442-8.794,13.399-13.148,22.194-9.707l21.458,8.4c-1.736,5.733-7.989,8.97-13.612,6.735
			c-7.001-2.739-14.926,0.726-17.668,7.727l-2.035,5.198c-1.122,3.097,3.374,4.866,4.656,1.822c0,0,2.035-5.198,2.035-5.198
			c1.736-4.434,6.754-6.629,11.189-4.894c1.133,0.444,2.289,0.725,3.445,0.886c-0.538,8.916,10.066,14.113,16.788,8.454
			c1.239,2.161,3.453,4.354,6.144,4.761c2.705,0.016,3.472-3.831,0.912-4.829c-2.655-0.976-4.066-4.205-2.981-6.816
			c0,0,6.829-17.447,6.829-17.447c0.555-0.351,1.18-0.677,1.838-0.385c0,0,4.884,1.912,4.884,1.912
			c1.966,0.77,3.514,2.258,4.36,4.193c0.846,1.934,0.888,4.082,0.118,6.048l-14.79,37.783c-1.293,3.303-7.654,13.082-10.633,17.529
			l-41.676-16.313l-7.933-22.203C60.308,92.048,60.326,87.661,61.882,83.684z"/>
		<path fill="#846F75" d="M238.807,71.191c-1.381-3.158-3.909-5.589-7.119-6.845c-1.761-0.583-5.67-2.594-7.547-2.363
			c-0.448-2.148-1.985-3.981-4.038-4.768c-1.912-0.625-7.478-3.3-9.269-3.157c-0.311-2.325-1.919-4.389-4.118-5.226
			c0,0-6.871-2.689-6.871-2.689c-2.637-1.081-5.883-0.173-7.59,2.089c-0.918-0.876-7.259-3.036-8.487-3.6
			c-3.265-1.355-7.295,0.408-8.515,3.724c0,0-3.828,9.779-3.828,9.779c-5.434,2.207-9.99,6.545-12.291,12.424l-4.425,11.303
			c-2.01,5.137-2.034,10.805-0.086,15.909l6.469,18.106c-1.172-0.245-2.385,0.377-2.836,1.53l-44.492,113.663
			c-0.503,1.286,0.131,2.736,1.417,3.239c1.286,0.503,2.735-0.131,3.239-1.417L162,121.557l48.334,18.919l-35.462,90.593
			c-0.503,1.286,0.131,2.736,1.417,3.239c1.253,0.499,2.736-0.118,3.239-1.417c0,0,36.373-92.92,36.373-92.92
			c0.513-1.237-0.156-2.777-1.417-3.239c0,0-0.797-0.312-0.797-0.312c2.731-4.102,9.012-13.712,10.522-17.571L239,81.065
			C240.256,77.856,240.188,74.349,238.807,71.191z M210.008,59.226c0.414-0.204,0.949-0.221,1.4-0.044l6.871,2.69
			c0.905,0.33,1.245,1.45,0.797,2.275c-0.666,1.703-8.087,20.66-8.486,21.678c-2.296,5.713-10.888,3.508-10.098-2.616
			c4.925-0.979,9.272-4.354,11.234-9.368l1.281-3.271c0.514-1.24-0.156-2.775-1.417-3.239c0,0-4.387-1.717-4.387-1.717l2.169-5.54
			C209.483,59.735,209.638,59.372,210.008,59.226z M195.986,51.688c0.292-0.792,1.255-1.215,2.036-0.89c0,0,6.871,2.689,6.871,2.689
			c0.792,0.291,1.215,1.255,0.89,2.036c-0.703,1.794-2.508,6.408-3.235,8.265l-9.797-3.835
			C193.612,57.752,195.128,53.879,195.986,51.688z M179.909,50.178c0.292-0.792,1.254-1.215,2.036-0.89c0,0,6.871,2.689,6.871,2.689
			c0.772,0.303,1.347,1.236,0.89,2.037c0,0-1.611,4.117-1.611,4.117c-3.489-1.42-7.191-1.89-10.711-1.501L179.909,50.178z
			 M234.344,79.243l-14.79,37.784c-1.292,3.302-7.654,13.082-10.633,17.528l-41.675-16.313l-7.934-22.203
			c-1.522-3.99-1.504-8.377,0.052-12.354l4.425-11.303c3.443-8.794,13.398-13.148,22.194-9.707l21.458,8.399
			c-1.604,5.647-8.136,9.022-13.612,6.736c-6.771-2.812-15.137,0.847-17.668,7.727c0,0-2.035,5.198-2.035,5.198
			c-1.121,3.096,3.373,4.866,4.656,1.822c0,0,2.035-5.198,2.035-5.198c0.841-2.147,2.468-3.84,4.581-4.764
			c2.115-0.924,4.461-0.97,6.608-0.129c1.133,0.444,2.288,0.725,3.444,0.886c-0.572,8.824,10.033,14.158,16.792,8.459
			c1.24,2.159,3.452,4.349,6.142,4.756c2.705,0.016,3.472-3.831,0.912-4.829c-2.655-0.976-4.066-4.205-2.981-6.816
			c0,0,6.829-17.447,6.829-17.447c0.555-0.351,1.181-0.677,1.838-0.385c0,0,4.884,1.912,4.884,1.912
			C233.853,70.468,235.975,75.319,234.344,79.243z"/>
		<path fill="#846F75" d="M208.198,114.079c-5.194-2.32-11.333-1.791-18.279,1.568c-2.821-7.183-6.97-11.739-12.358-13.56
			c-1.309-0.443-2.727,0.259-3.169,1.567c-0.442,1.308,0.259,2.727,1.567,3.169c4.467,1.51,7.894,5.931,10.184,13.138
			c0.229,0.719,0.769,1.296,1.472,1.571c0.294,0.115,0.603,0.172,0.911,0.172c0.428,0,0.854-0.11,1.235-0.327
			c6.575-3.737,12.092-4.657,16.396-2.733c1.262,0.563,2.739-0.002,3.303-1.263C210.024,116.121,209.458,114.642,208.198,114.079z"
			/>
	</g>
	<path fill="#65C1D6" d="M29.976,180.131c-1.381,0-2.5-1.119-2.5-2.5V29.976c0-1.381,1.119-2.5,2.5-2.5h196.049
		c1.381,0,2.5,1.119,2.5,2.5v20.263c0,1.381-1.119,2.5-2.5,2.5s-2.5-1.119-2.5-2.5V32.476H32.476v145.156
		C32.476,179.012,31.356,180.131,29.976,180.131z"/>
	<path fill="#65C1D6" d="M226.024,228.524H193.84c-1.381,0-2.5-1.119-2.5-2.5s1.119-2.5,2.5-2.5h29.685v-86.733
		c0-1.381,1.119-2.5,2.5-2.5s2.5,1.119,2.5,2.5v89.233C228.524,227.405,227.405,228.524,226.024,228.524z"/>
</g>
</svg>
