<?xml version="1.0" encoding="utf-8"?>
<!-- Generator: Adobe Illustrator 24.0.0, SVG Export Plug-In . SVG Version: 6.00 Build 0)  -->
<svg version="1.1" id="Layer_1" xmlns="http://www.w3.org/2000/svg" xmlns:xlink="http://www.w3.org/1999/xlink" x="0px" y="0px"
	 viewBox="0 0 256 256" enable-background="new 0 0 256 256" xml:space="preserve">
<g>
	<path fill="#ED9ABC" d="M47.35,156.391c-1.381,0-2.5-1.119-2.5-2.5V39.741c0-1.381,1.119-2.5,2.5-2.5h161.3
		c1.381,0,2.5,1.119,2.5,2.5v21.275c0,1.381-1.119,2.5-2.5,2.5s-2.5-1.119-2.5-2.5V42.241H49.85v111.649
		C49.85,155.271,48.731,156.391,47.35,156.391z"/>
	<path fill="#ED9ABC" d="M208.65,156.391c-1.381,0-2.5-1.119-2.5-2.5v-46.618c0-1.381,1.119-2.5,2.5-2.5s2.5,1.119,2.5,2.5v46.618
		C211.15,155.271,210.031,156.391,208.65,156.391z"/>
	<path fill="#ED9ABC" d="M183.348,120.112c-0.722,0-1.437-0.311-1.932-0.911c-0.877-1.066-0.725-2.642,0.341-3.519
		c12.41-10.216,26.671-24.082,37.22-36.188l12.635-14.499c1.269-1.456,1.193-3.667-0.172-5.033
		c-1.366-1.365-3.577-1.442-5.033-0.173l-14.5,12.636c-9.996,8.71-21.806,21.317-35.104,37.471
		c-0.876,1.065-2.454,1.221-3.519,0.341c-1.066-0.877-1.219-2.452-0.341-3.519c13.472-16.366,25.477-29.172,35.679-38.063
		l14.5-12.636c3.429-2.988,8.638-2.81,11.854,0.407c3.217,3.217,3.396,8.424,0.407,11.854L222.748,82.78
		c-10.716,12.298-25.205,26.384-37.812,36.762C184.47,119.926,183.907,120.112,183.348,120.112z"/>
	<path fill="#ED9ABC" d="M161.016,140.223c-2.031,0-4.214-0.183-6.549-0.604c-14.589-2.634-15.359-3.846-15.534-5.933
		c-0.102-1.22,0.65-2.367,1.83-2.792c1.292-0.465,2.644-0.602,3.951-0.734c0.792-0.08,1.54-0.156,2.151-0.298
		c2.269-0.525,6.064-1.404,7.257-3.333c0.548-0.887,0.5-1.967,0.375-3.656c-0.081-1.102-0.173-2.351,0.011-3.647
		c0.47-3.323,2.04-6.464,4.418-8.842c2.95-2.95,6.873-4.575,11.045-4.575c4.172,0,8.095,1.625,11.045,4.575
		c2.95,2.949,4.575,6.872,4.575,11.045c0,4.15-1.608,8.054-4.529,10.998C180.29,133.269,173.543,140.223,161.016,140.223z
		 M151.197,133.907c1.202,0.242,2.579,0.506,4.158,0.791c14.398,2.6,21.721-5.318,22.025-5.656c0.029-0.032,0.069-0.075,0.1-0.105
		c2.006-2.006,3.11-4.673,3.11-7.509c0-2.837-1.104-5.504-3.11-7.51s-4.673-3.11-7.51-3.11c-2.836,0-5.503,1.104-7.51,3.11
		c-1.617,1.617-2.684,3.751-3.003,6.008c-0.108,0.765-0.043,1.646,0.025,2.578c0.143,1.935,0.321,4.343-1.108,6.653
		C156.768,131.757,153.886,133.087,151.197,133.907z"/>
	<path fill="#ED9ABC" d="M71.323,188.257c-0.793-1.131-2.353-1.403-3.482-0.613l-5.209,3.648l-5.208-3.648
		c-1.129-0.791-2.689-0.519-3.482,0.613c-0.792,1.131-0.518,2.69,0.613,3.482l5.341,3.741l-4.741,27.141
		c-0.142,0.814,0.127,1.646,0.719,2.222l5.015,4.882c0.485,0.473,1.114,0.709,1.744,0.709s1.259-0.236,1.744-0.709l5.015-4.882
		c0.592-0.576,0.861-1.407,0.719-2.222l-4.742-27.141l5.341-3.741C71.84,190.947,72.115,189.388,71.323,188.257z M62.632,224.444
		l-2.325-2.263l2.325-13.31l2.325,13.31L62.632,224.444z"/>
	<path fill="#ED9ABC" d="M136.691,188.257c-0.792-1.131-2.353-1.403-3.482-0.613L128,191.292l-5.209-3.648
		c-1.13-0.791-2.69-0.519-3.482,0.613c-0.792,1.131-0.517,2.69,0.614,3.482l5.341,3.741l-4.742,27.141
		c-0.142,0.814,0.127,1.646,0.719,2.222l5.015,4.882c0.485,0.473,1.114,0.709,1.744,0.709s1.258-0.236,1.744-0.709l5.015-4.882
		c0.592-0.576,0.861-1.407,0.719-2.222l-4.742-27.141l5.341-3.741C137.208,190.947,137.483,189.388,136.691,188.257z M128,224.444
		l-2.325-2.263l2.325-13.31l2.325,13.31L128,224.444z"/>
	<path fill="#ED9ABC" d="M202.058,188.257c-0.792-1.131-2.351-1.403-3.482-0.613l-5.208,3.648l-5.209-3.648
		c-1.13-0.791-2.689-0.519-3.482,0.613c-0.792,1.131-0.517,2.69,0.614,3.482l5.341,3.741l-4.742,27.141
		c-0.142,0.814,0.127,1.646,0.719,2.222l5.015,4.882c0.485,0.473,1.114,0.709,1.744,0.709s1.259-0.236,1.744-0.709l5.015-4.882
		c0.592-0.576,0.861-1.407,0.719-2.222l-4.741-27.141l5.341-3.741C202.576,190.947,202.85,189.388,202.058,188.257z
		 M193.368,224.444l-2.325-2.263l2.325-13.31l2.325,13.31L193.368,224.444z"/>
	<g>
		<path fill="#846F75" d="M130.709,76.259c0,6.166,5.016,11.183,11.182,11.183s11.182-5.017,11.182-11.183
			s-5.016-11.182-11.182-11.182S130.709,70.093,130.709,76.259z M148.073,76.259c0,3.409-2.773,6.183-6.182,6.183
			s-6.182-2.773-6.182-6.183c0-3.408,2.773-6.182,6.182-6.182S148.073,72.851,148.073,76.259z"/>
		<path fill="#846F75" d="M220.598,27.042H35.402c-4.19,0-7.6,3.409-7.6,7.6s3.409,7.6,7.6,7.6h185.196c4.19,0,7.6-3.409,7.6-7.6
			S224.789,27.042,220.598,27.042z M220.598,37.241H35.402c-1.434,0-2.6-1.166-2.6-2.6s1.166-2.6,2.6-2.6h185.196
			c1.434,0,2.6,1.166,2.6,2.6S222.032,37.241,220.598,37.241z"/>
		<path fill="#846F75" d="M183.867,86.24c1.381,0,2.5-1.119,2.5-2.5v-28.7c0-1.381-1.119-2.5-2.5-2.5H72.133
			c-1.381,0-2.5,1.119-2.5,2.5v93.551c0,1.381,1.119,2.5,2.5,2.5h111.733c1.381,0,2.5-1.119,2.5-2.5v-7.873
			c0-1.381-1.119-2.5-2.5-2.5s-2.5,1.119-2.5,2.5v5.373h-63.435l14.701-21.735c0.028-0.039,0.054-0.078,0.08-0.118l10.443-15.44
			l4.65,6.875c0.774,1.145,2.328,1.444,3.471,0.671c1.144-0.774,1.444-2.328,0.67-3.472l-6.721-9.937
			c-0.465-0.688-1.241-1.1-2.071-1.1s-1.606,0.412-2.071,1.1l-10.479,15.493l-23.415-34.62c-0.465-0.688-1.241-1.1-2.071-1.1
			s-1.606,0.412-2.071,1.1l-28.416,42.013V57.54h106.733v26.2C181.367,85.121,182.486,86.24,183.867,86.24z M105.12,89.671
			l22.468,33.219l-15.692,23.201H74.633v-11.345L105.12,89.671z"/>
		<path fill="#846F75" d="M78.976,187.191h-2.893c2.413-3.124,3.728-7.057,3.561-11.135c-0.355-8.675-7.148-15.67-15.801-16.271
			c-4.779-0.33-9.334,1.278-12.824,4.533c-3.441,3.21-5.414,7.748-5.414,12.451c0,3.857,1.284,7.496,3.549,10.422h-2.866
			c-6.524,0-11.832,5.308-11.832,11.832v35.769c0,1.381,1.119,2.5,2.5,2.5h51.35c1.381,0,2.5-1.119,2.5-2.5v-35.769
			C90.807,192.499,85.5,187.191,78.976,187.191z M85.807,232.292h-46.35v-33.269c0-3.768,3.064-6.832,6.832-6.832h9.701
			c1.154,0,2.158-0.79,2.43-1.911s-0.259-2.283-1.285-2.812c-4.027-2.073-6.528-6.174-6.528-10.699c0-3.371,1.358-6.494,3.825-8.796
			c2.464-2.299,5.68-3.444,9.066-3.2c6.006,0.417,10.905,5.464,11.151,11.488c0.191,4.67-2.367,9.069-6.518,11.207
			c-1.026,0.528-1.557,1.69-1.285,2.812s1.276,1.911,2.43,1.911h9.701c3.767,0,6.831,3.064,6.831,6.832V232.292z"/>
		<path fill="#846F75" d="M144.344,187.191h-2.893c2.413-3.124,3.728-7.057,3.562-11.135c-0.355-8.675-7.148-15.67-15.801-16.271
			c-4.782-0.33-9.335,1.278-12.824,4.533c-3.441,3.21-5.414,7.748-5.414,12.451c0,3.857,1.284,7.496,3.549,10.422h-2.866
			c-6.523,0-11.831,5.308-11.831,11.832v35.769c0,1.381,1.119,2.5,2.5,2.5h51.35c1.381,0,2.5-1.119,2.5-2.5v-35.769
			C156.175,192.499,150.867,187.191,144.344,187.191z M151.175,232.292h-46.35v-33.269c0-3.768,3.064-6.832,6.831-6.832h9.701
			c1.154,0,2.158-0.79,2.43-1.911s-0.259-2.283-1.285-2.812c-4.026-2.073-6.528-6.174-6.528-10.699c0-3.371,1.358-6.494,3.825-8.796
			c2.464-2.299,5.682-3.444,9.066-3.2c6.006,0.417,10.905,5.464,11.151,11.488c0.191,4.67-2.367,9.069-6.518,11.207
			c-1.026,0.528-1.557,1.69-1.285,2.812s1.276,1.911,2.43,1.911h9.701c3.767,0,6.831,3.064,6.831,6.832V232.292z"/>
		<path fill="#846F75" d="M209.711,187.191h-2.893c2.413-3.124,3.728-7.057,3.561-11.135c-0.355-8.675-7.148-15.67-15.801-16.271
			c-4.779-0.325-9.334,1.278-12.824,4.533c-3.441,3.21-5.414,7.748-5.414,12.451c0,3.857,1.284,7.496,3.549,10.422h-2.866
			c-6.523,0-11.831,5.308-11.831,11.832v35.769c0,1.381,1.119,2.5,2.5,2.5h51.35c1.381,0,2.5-1.119,2.5-2.5v-35.769
			C221.542,192.499,216.235,187.191,209.711,187.191z M216.542,232.292h-46.35v-33.269c0-3.768,3.064-6.832,6.831-6.832h9.701
			c1.154,0,2.158-0.79,2.43-1.911s-0.259-2.283-1.285-2.812c-4.027-2.074-6.528-6.174-6.528-10.699c0-3.371,1.358-6.494,3.825-8.796
			c2.464-2.298,5.684-3.439,9.066-3.2c6.006,0.417,10.905,5.464,11.151,11.488c0.191,4.67-2.367,9.069-6.518,11.207
			c-1.026,0.528-1.557,1.69-1.285,2.812s1.276,1.911,2.43,1.911h9.701c3.767,0,6.832,3.064,6.832,6.832V232.292z"/>
	</g>
</g>
</svg>
