<?xml version="1.0" encoding="utf-8"?>
<!-- Generator: Adobe Illustrator 24.0.0, SVG Export Plug-In . SVG Version: 6.00 Build 0)  -->
<svg version="1.1" id="Layer_1" xmlns="http://www.w3.org/2000/svg" xmlns:xlink="http://www.w3.org/1999/xlink" x="0px" y="0px"
	 viewBox="0 0 256 256" enable-background="new 0 0 256 256" xml:space="preserve">
<g>
	<path fill="#EBE7F2" d="M78.433,120.733c-1.381,0-2.5-1.119-2.5-2.5v-54.5c0-1.381,1.119-2.5,2.5-2.5s2.5,1.119,2.5,2.5v54.5
		C80.933,119.614,79.814,120.733,78.433,120.733z"/>
	<path fill="#F9B087" d="M162.023,49.799H93.977c-5.126,0-9.296-4.17-9.296-9.296V29.971c0-1.381,1.119-2.5,2.5-2.5h81.638
		c1.381,0,2.5,1.119,2.5,2.5v10.532C171.319,45.629,167.149,49.799,162.023,49.799z M89.681,32.471v8.032
		c0,2.369,1.927,4.296,4.296,4.296h68.046c2.369,0,4.296-1.927,4.296-4.296v-8.032H89.681z"/>
	<path fill="#F9B087" d="M158.24,32.471c-1.381,0-2.5-1.119-2.5-2.5v-5.874c0-4.136-3.364-7.5-7.5-7.5H107.76
		c-4.136,0-7.5,3.364-7.5,7.5v5.874c0,1.381-1.119,2.5-2.5,2.5s-2.5-1.119-2.5-2.5v-5.874c0-6.893,5.607-12.5,12.5-12.5h40.479
		c6.893,0,12.5,5.607,12.5,12.5v5.874C160.74,31.352,159.621,32.471,158.24,32.471z"/>
	<path fill="#F9B087" d="M154.026,210.546h-15.23c-1.381,0-2.5-1.119-2.5-2.5s1.119-2.5,2.5-2.5h12.73v-33.758
		c0-3.837-3.122-6.959-6.959-6.959h-9.833c-1.154,0-2.158-0.79-2.43-1.911c-0.272-1.121,0.259-2.283,1.285-2.812
		c4.22-2.173,6.82-6.646,6.626-11.393c-0.251-6.124-5.23-11.253-11.336-11.678c-3.437-0.237-6.711,0.916-9.216,3.253
		c-2.507,2.339-3.888,5.515-3.888,8.941c0,4.6,2.543,8.768,6.637,10.876c1.025,0.529,1.557,1.69,1.285,2.812
		c-0.272,1.122-1.276,1.911-2.43,1.911h-9.833c-3.837,0-6.959,3.122-6.959,6.959v33.758h12.73c1.381,0,2.5,1.119,2.5,2.5
		s-1.119,2.5-2.5,2.5h-15.23c-1.381,0-2.5-1.119-2.5-2.5v-36.258c0-6.594,5.365-11.959,11.959-11.959h2.976
		c-2.319-2.969-3.634-6.672-3.634-10.599c0-4.759,1.997-9.35,5.477-12.598c3.53-3.292,8.138-4.917,12.974-4.585
		c8.753,0.608,15.625,7.686,15.985,16.461c0.17,4.15-1.178,8.15-3.646,11.32h3.002c6.594,0,11.959,5.365,11.959,11.959v36.258
		C156.526,209.427,155.407,210.546,154.026,210.546z"/>
	<path fill="#F9B087" d="M160.454,196.958h-6.427c-1.381,0-2.5-1.119-2.5-2.5s1.119-2.5,2.5-2.5h6.427c1.381,0,2.5,1.119,2.5,2.5
		S161.834,196.958,160.454,196.958z"/>
	<path fill="#F9B087" d="M183.475,196.958h-9.213c-1.381,0-2.5-1.119-2.5-2.5s1.119-2.5,2.5-2.5h6.713v-27.127
		c0-2.883-2.346-5.229-5.229-5.229h-8.035c-1.154,0-2.158-0.79-2.43-1.911c-0.272-1.121,0.259-2.283,1.285-2.812
		c3.29-1.694,5.318-5.182,5.166-8.884c-0.195-4.775-4.077-8.774-8.837-9.105c-2.686-0.186-5.234,0.714-7.187,2.536
		c-1.955,1.824-3.032,4.3-3.032,6.972c0,3.587,1.983,6.836,5.175,8.48c1.227,0.632,1.71,2.14,1.078,3.368
		c-0.633,1.227-2.141,1.708-3.368,1.078c-4.863-2.505-7.885-7.458-7.885-12.926c0-4.015,1.684-7.888,4.621-10.628
		c2.977-2.778,6.859-4.151,10.944-3.869c7.386,0.514,13.184,6.484,13.487,13.889c0.13,3.186-0.799,6.267-2.537,8.811h1.554
		c5.64,0,10.229,4.589,10.229,10.229v29.627C185.975,195.838,184.855,196.958,183.475,196.958z"/>
	<path fill="#F9B087" d="M101.974,196.958h-6.427c-1.381,0-2.5-1.119-2.5-2.5s1.119-2.5,2.5-2.5h6.427c1.381,0,2.5,1.119,2.5,2.5
		S103.354,196.958,101.974,196.958z"/>
	<path fill="#F9B087" d="M81.124,196.958h-8.599c-1.381,0-2.5-1.119-2.5-2.5v-29.627c0-5.64,4.589-10.229,10.229-10.229h1.554
		c-1.737-2.544-2.667-5.625-2.537-8.812c0.303-7.404,6.101-13.375,13.487-13.888c4.081-0.285,7.967,1.09,10.944,3.869
		c2.937,2.74,4.621,6.613,4.621,10.628c0,5.467-3.021,10.42-7.885,12.926c-1.228,0.631-2.735,0.149-3.368-1.078
		c-0.632-1.228-0.149-2.735,1.078-3.368c3.192-1.644,5.175-4.894,5.175-8.48c0-2.672-1.077-5.148-3.032-6.972
		c-1.953-1.822-4.512-2.725-7.187-2.536c-4.76,0.331-8.642,4.33-8.837,9.104c-0.152,3.703,1.876,7.19,5.166,8.884
		c1.026,0.528,1.557,1.69,1.285,2.812c-0.272,1.122-1.276,1.911-2.43,1.911h-8.035c-2.883,0-5.229,2.346-5.229,5.229v27.127h6.099
		c1.381,0,2.5,1.119,2.5,2.5S82.505,196.958,81.124,196.958z"/>
	<g>
		<path fill="#846F75" d="M226.024,27.471H179.82c-1.381,0-2.5,1.119-2.5,2.5s1.119,2.5,2.5,2.5h43.705v191.054H32.476V32.471H76.18
			c1.381,0,2.5-1.119,2.5-2.5s-1.119-2.5-2.5-2.5H29.976c-1.381,0-2.5,1.119-2.5,2.5v196.054c0,1.381,1.119,2.5,2.5,2.5h196.049
			c1.381,0,2.5-1.119,2.5-2.5V29.971C228.524,28.59,227.405,27.471,226.024,27.471z"/>
		<path fill="#846F75" d="M88.642,209.762c1.381,0,2.5-1.119,2.5-2.5v-30.945l2.121,2.12c0.976,0.977,2.56,0.977,3.535,0
			c0.977-0.976,0.977-2.559,0-3.535l-6.388-6.388c-0.938-0.938-2.597-0.938-3.536,0l-6.388,6.388c-0.976,0.976-0.976,2.559,0,3.536
			c0.488,0.488,1.128,0.732,1.768,0.732s1.28-0.244,1.768-0.732l2.12-2.12v30.945C86.142,208.643,87.261,209.762,88.642,209.762z"/>
		<path fill="#846F75" d="M167.358,209.762c1.381,0,2.5-1.119,2.5-2.5v-30.945l2.12,2.12c0.488,0.488,1.128,0.732,1.768,0.732
			s1.28-0.244,1.768-0.732c0.977-0.977,0.977-2.56,0-3.536l-6.388-6.388c-0.469-0.469-1.105-0.732-1.768-0.732
			s-1.299,0.263-1.768,0.732l-6.388,6.388c-0.977,0.976-0.977,2.559,0,3.535c0.976,0.977,2.56,0.977,3.535,0l2.121-2.12v30.945
			C164.858,208.643,165.977,209.762,167.358,209.762z"/>
		<path fill="#846F75" d="M128,210.546c1.381,0,2.5-1.119,2.5-2.5v-23.185l2.121,2.12c0.488,0.488,1.128,0.732,1.768,0.732
			s1.28-0.244,1.768-0.732c0.977-0.976,0.977-2.559,0-3.535l-6.388-6.388c-0.976-0.977-2.56-0.977-3.535,0l-6.388,6.388
			c-0.977,0.976-0.977,2.559,0,3.535c0.976,0.977,2.56,0.977,3.535,0l2.121-2.12v23.185C125.5,209.427,126.619,210.546,128,210.546z
			"/>
		<path fill="#846F75" d="M205.252,118.233v-54.5c0-1.381-1.119-2.5-2.5-2.5H53.248c-1.381,0-2.5,1.119-2.5,2.5v54.5
			c0,1.381,1.119,2.5,2.5,2.5h149.504C204.133,120.733,205.252,119.614,205.252,118.233z M55.748,84.342h144.504v13.281H55.748
			V84.342z M200.252,66.233v13.109H55.748V66.233H200.252z M55.748,115.733v-13.109h144.504v13.109H55.748z"/>
	</g>
</g>
</svg>
