<?xml version="1.0" encoding="utf-8"?>
<!-- Generator: Adobe Illustrator 24.0.0, SVG Export Plug-In . SVG Version: 6.00 Build 0)  -->
<svg version="1.1" id="Layer_1" xmlns="http://www.w3.org/2000/svg" xmlns:xlink="http://www.w3.org/1999/xlink" x="0px" y="0px"
	 viewBox="0 0 256 256" enable-background="new 0 0 256 256" xml:space="preserve">
<g>
	<path fill="#EBE7F2" d="M179.813,117.561c-1.381,0-2.5-1.119-2.5-2.5V78.687H78.687v36.374c0,1.381-1.119,2.5-2.5,2.5
		s-2.5-1.119-2.5-2.5V76.187c0-1.381,1.119-2.5,2.5-2.5h103.627c1.381,0,2.5,1.119,2.5,2.5v38.874
		C182.313,116.442,181.194,117.561,179.813,117.561z"/>
	<path fill="#EBE7F2" d="M179.813,182.313H76.187c-1.381,0-2.5-1.119-2.5-2.5v-28.562c0-1.381,1.119-2.5,2.5-2.5s2.5,1.119,2.5,2.5
		v26.062h98.627v-26.062c0-1.381,1.119-2.5,2.5-2.5s2.5,1.119,2.5,2.5v28.562C182.313,181.194,181.194,182.313,179.813,182.313z"/>
	<g>
		<path fill="#ED9ABC" d="M160.454,148.751h-3.928v-20.169c0-6.594-5.365-11.959-11.959-11.959h-3.002
			c2.468-3.169,3.815-7.17,3.646-11.32c-0.36-8.776-7.232-15.853-15.986-16.461c-4.838-0.335-9.443,1.293-12.973,4.585
			c-3.481,3.247-5.478,7.839-5.478,12.597c0,3.927,1.314,7.629,3.634,10.599h-2.976c-6.594,0-11.959,5.365-11.959,11.959v20.169
			h-3.928c-1.381,0-2.5,1.119-2.5,2.5s1.119,2.5,2.5,2.5h3.928v11.089c0,1.381,1.119,2.5,2.5,2.5h15.23c1.381,0,2.5-1.119,2.5-2.5
			s-1.119-2.5-2.5-2.5h-12.73v-33.758c0-3.837,3.122-6.959,6.959-6.959h9.833c1.154,0,2.158-0.79,2.43-1.911
			c0.271-1.121-0.259-2.283-1.285-2.812c-4.093-2.108-6.636-6.276-6.636-10.876c0-3.427,1.381-6.602,3.888-8.941
			c2.505-2.337,5.774-3.49,9.217-3.253c6.105,0.424,11.085,5.553,11.336,11.677c0.194,4.748-2.406,9.22-6.625,11.393
			c-1.026,0.528-1.557,1.69-1.285,2.812c0.271,1.122,1.275,1.911,2.43,1.911h9.833c3.837,0,6.959,3.122,6.959,6.959v33.758h-12.73
			c-1.381,0-2.5,1.119-2.5,2.5s1.119,2.5,2.5,2.5h15.23c1.381,0,2.5-1.119,2.5-2.5v-11.089h3.928c1.381,0,2.5-1.119,2.5-2.5
			S161.835,148.751,160.454,148.751z"/>
		<path fill="#ED9ABC" d="M175.745,111.395h-1.554c1.737-2.544,2.667-5.625,2.537-8.812c-0.304-7.404-6.102-13.375-13.487-13.888
			c-4.073-0.283-7.968,1.091-10.945,3.87c-2.937,2.739-4.62,6.613-4.62,10.627c0,5.467,3.021,10.42,7.886,12.926
			c1.227,0.63,2.734,0.149,3.367-1.078c0.632-1.228,0.149-2.735-1.078-3.368c-3.191-1.644-5.175-4.894-5.175-8.48
			c0-2.672,1.076-5.147,3.031-6.971c1.953-1.822,4.507-2.724,7.188-2.537c4.761,0.331,8.643,4.33,8.838,9.104
			c0.151,3.702-1.877,7.189-5.166,8.885c-1.026,0.528-1.557,1.69-1.285,2.811c0.271,1.122,1.276,1.911,2.43,1.911h8.034
			c2.884,0,5.229,2.346,5.229,5.229v27.127h-6.713c-1.381,0-2.5,1.119-2.5,2.5s1.119,2.5,2.5,2.5h9.213c1.381,0,2.5-1.119,2.5-2.5
			v-29.627C185.975,115.984,181.386,111.395,175.745,111.395z"/>
		<path fill="#ED9ABC" d="M89.434,111.673c-3.289-1.695-5.317-5.183-5.166-8.884c0.195-4.775,4.077-8.774,8.837-9.105
			c2.688-0.187,5.235,0.715,7.188,2.537c1.955,1.824,3.031,4.299,3.031,6.971c0,3.587-1.983,6.836-5.175,8.48
			c-1.228,0.632-1.71,2.14-1.078,3.368c0.632,1.228,2.142,1.71,3.367,1.078c4.864-2.506,7.886-7.458,7.886-12.926
			c0-4.014-1.684-7.888-4.62-10.627c-2.978-2.779-6.86-4.154-10.946-3.87c-7.385,0.514-13.183,6.484-13.486,13.889
			c-0.13,3.186,0.8,6.267,2.537,8.811h-1.554c-5.641,0-10.229,4.589-10.229,10.229v29.627c0,1.381,1.119,2.5,2.5,2.5h8.599
			c1.381,0,2.5-1.119,2.5-2.5s-1.119-2.5-2.5-2.5h-6.099v-27.127c0-2.883,2.346-5.229,5.229-5.229h8.034
			c1.153,0,2.158-0.79,2.43-1.911C90.99,113.363,90.46,112.201,89.434,111.673z"/>
	</g>
	<g>
		<path fill="#846F75" d="M227.137,104.922c-0.001,0-0.002-0.001-0.003-0.001l-26.767-6.897l14.051-23.806
			c2.852-4.841,2.067-10.997-1.906-14.972l-15.758-15.759c-3.975-3.972-10.131-4.756-14.974-1.904l-23.805,14.051l-6.898-26.771
			c-1.408-5.438-6.316-9.237-11.935-9.237h-22.285c-5.618,0-10.526,3.798-11.936,9.24l-6.897,26.769L74.218,41.581
			c-4.843-2.851-10.998-2.066-14.971,1.906L43.488,59.246c-3.974,3.973-4.757,10.129-1.905,14.973l14.05,23.805l-26.771,6.898
			c-5.438,1.409-9.237,6.316-9.237,11.935v22.285c0,5.618,3.799,10.526,9.24,11.936l26.768,6.897l-14.051,23.807
			c-2.851,4.843-2.066,11,1.906,14.972l15.759,15.758c3.972,3.972,10.126,4.757,14.973,1.905l23.805-14.051l6.898,26.771
			c1.408,5.439,6.316,9.238,11.935,9.238h22.285c5.618,0,10.526-3.799,11.936-9.241l6.897-26.768l23.807,14.052
			c4.843,2.85,10.997,2.067,14.972-1.906l15.758-15.758c3.974-3.974,4.757-10.131,1.905-14.975l-14.05-23.804l26.77-6.898
			c5.439-1.408,9.238-6.316,9.238-11.935v-22.285C236.375,111.238,232.576,106.33,227.137,104.922z M231.375,139.142
			c0,3.34-2.259,6.257-5.489,7.094l-29.985,7.726c-0.761,0.196-1.385,0.738-1.686,1.464c-0.301,0.726-0.243,1.551,0.156,2.227
			l15.738,26.665c1.694,2.878,1.229,6.538-1.133,8.9l-15.758,15.758c-2.363,2.36-6.022,2.827-8.897,1.135l-26.667-15.74
			c-0.676-0.4-1.502-0.458-2.228-0.157c-0.726,0.3-1.268,0.925-1.464,1.686l-7.726,29.983c-0.838,3.234-3.755,5.492-7.095,5.492
			h-22.285c-3.34,0-6.257-2.258-7.094-5.489l-7.727-29.986c-0.196-0.761-0.738-1.385-1.464-1.686
			c-0.308-0.127-0.633-0.19-0.957-0.19c-0.441,0-0.881,0.117-1.271,0.347l-26.665,15.739c-2.879,1.694-6.537,1.228-8.898-1.133
			l-15.759-15.758c-2.361-2.362-2.827-6.022-1.134-8.898l15.739-26.667c0.399-0.676,0.457-1.501,0.156-2.227
			c-0.301-0.726-0.925-1.269-1.686-1.464l-29.983-7.725c-3.233-0.837-5.491-3.755-5.491-7.095v-22.285
			c0-3.34,2.258-6.258,5.488-7.094l29.986-7.727c0.761-0.196,1.385-0.738,1.686-1.464c0.301-0.726,0.243-1.551-0.156-2.227
			L45.891,71.68c-1.694-2.878-1.229-6.537,1.133-8.899l15.759-15.758c2.36-2.361,6.018-2.829,8.896-1.134l26.667,15.74
			c0.676,0.399,1.501,0.457,2.228,0.157c0.726-0.3,1.268-0.925,1.464-1.686l7.726-29.984c0.838-3.233,3.755-5.491,7.095-5.491
			h22.285c3.34,0,6.257,2.258,7.094,5.488l7.727,29.987c0.196,0.761,0.738,1.385,1.464,1.686c0.727,0.302,1.553,0.243,2.228-0.157
			l26.665-15.739c2.879-1.694,6.538-1.228,8.899,1.133l15.758,15.758c2.361,2.363,2.828,6.022,1.134,8.897l-15.739,26.667
			c-0.399,0.676-0.457,1.501-0.156,2.227c0.301,0.726,0.925,1.269,1.686,1.464l29.984,7.727c3.232,0.838,5.49,3.755,5.49,7.095
			V139.142z"/>
		<path fill="#846F75" d="M90.41,125.308c-0.977-0.977-2.559-0.976-3.535,0l-6.389,6.388c-0.977,0.977-0.977,2.559,0,3.536
			s2.559,0.976,3.535,0l2.121-2.121v30.946c0,1.381,1.119,2.5,2.5,2.5s2.5-1.119,2.5-2.5v-30.945l2.12,2.12
			c0.488,0.488,1.128,0.732,1.768,0.732s1.279-0.244,1.768-0.732c0.977-0.976,0.977-2.559,0-3.535L90.41,125.308z"/>
		<path fill="#846F75" d="M169.125,125.308c-0.977-0.976-2.559-0.976-3.535,0l-6.388,6.388c-0.977,0.976-0.977,2.559,0,3.535
			c0.488,0.488,1.128,0.732,1.768,0.732s1.279-0.244,1.768-0.732l2.12-2.12v30.945c0,1.381,1.119,2.5,2.5,2.5s2.5-1.119,2.5-2.5
			v-30.946l2.121,2.121c0.977,0.976,2.559,0.976,3.535,0s0.977-2.559,0-3.536L169.125,125.308z"/>
		<path fill="#846F75" d="M129.768,133.853c-0.977-0.977-2.559-0.977-3.535,0l-6.388,6.388c-0.977,0.976-0.977,2.559,0,3.535
			c0.977,0.977,2.559,0.977,3.535,0l2.12-2.12v23.185c0,1.381,1.119,2.5,2.5,2.5s2.5-1.119,2.5-2.5v-23.185l2.12,2.12
			c0.488,0.488,1.128,0.732,1.768,0.732s1.279-0.244,1.768-0.732c0.977-0.976,0.977-2.559,0-3.535L129.768,133.853z"/>
	</g>
</g>
</svg>
