<?xml version="1.0" encoding="utf-8"?>
<!-- Generator: Adobe Illustrator 24.0.0, SVG Export Plug-In . SVG Version: 6.00 Build 0)  -->
<svg version="1.1" id="Layer_1" xmlns="http://www.w3.org/2000/svg" xmlns:xlink="http://www.w3.org/1999/xlink" x="0px" y="0px"
	 viewBox="0 0 256 256" enable-background="new 0 0 256 256" xml:space="preserve">
<g>
	<path fill="#EBE7F2" d="M193.067,180.044c-1.381,0-2.5-1.119-2.5-2.5v-56.971c0-1.381,1.119-2.5,2.5-2.5s2.5,1.119,2.5,2.5v56.971
		C195.567,178.925,194.448,180.044,193.067,180.044z"/>
	<path fill="#EBE7F2" d="M62.933,180.044c-1.381,0-2.5-1.119-2.5-2.5v-56.971c0-1.381,1.119-2.5,2.5-2.5s2.5,1.119,2.5,2.5v56.971
		C65.433,178.925,64.313,180.044,62.933,180.044z"/>
	<path fill="#F9B087" d="M226.024,228.524H29.976c-1.381,0-2.5-1.119-2.5-2.5v-37.748c0-1.381,1.119-2.5,2.5-2.5s2.5,1.119,2.5,2.5
		v35.248h191.049v-35.248c0-1.381,1.119-2.5,2.5-2.5s2.5,1.119,2.5,2.5v37.748C228.524,227.405,227.405,228.524,226.024,228.524z"/>
	<path fill="#F9B087" d="M29.976,101.83c-1.381,0-2.5-1.119-2.5-2.5V29.976c0-1.381,1.119-2.5,2.5-2.5h196.049
		c1.381,0,2.5,1.119,2.5,2.5v69.353c0,1.381-1.119,2.5-2.5,2.5s-2.5-1.119-2.5-2.5V32.476H32.476V99.33
		C32.476,100.71,31.356,101.83,29.976,101.83z"/>
	<g>
		<path fill="#846F75" d="M218.657,104.846h-7.696c4.86-4.934,7.608-11.761,7.316-18.885c-0.528-12.914-10.639-23.326-23.519-24.221
			c-7.111-0.494-13.898,1.901-19.093,6.747c-5.122,4.779-8.06,11.535-8.06,18.537c0,6.807,2.685,13.156,7.308,17.823h-7.665
			c-1.381,0-2.5,1.119-2.5,2.5s1.119,2.5,2.5,2.5h15.257c1.154,0,2.158-0.79,2.43-1.911c0.271-1.121-0.259-2.283-1.285-2.812
			c-6.813-3.509-11.044-10.445-11.044-18.1c0-5.704,2.298-10.988,6.471-14.881c4.169-3.89,9.611-5.811,15.336-5.415
			c10.163,0.706,18.451,9.244,18.868,19.438c0.324,7.899-4.004,15.341-11.025,18.958c-1.026,0.529-1.557,1.69-1.285,2.812
			c0.271,1.122,1.275,1.911,2.43,1.911h15.257c6.714,0,12.176,5.462,12.176,12.176v53.754h-50.915v-40.544
			c0-11.282-9.179-20.46-20.461-20.46h-10.798c6.452-5.985,10.145-14.617,9.774-23.649c-0.625-15.264-13.039-28.049-28.263-29.107
			c-8.556-0.598-16.703,2.285-22.945,8.108c-6.155,5.743-9.686,13.862-9.686,22.277c0,8.653,3.611,16.692,9.77,22.371H96.543
			c-11.282,0-20.461,9.179-20.461,20.46v40.544H25.167v-53.754c0-6.714,5.462-12.176,12.176-12.176H52.6
			c1.154,0,2.158-0.79,2.43-1.911c0.271-1.121-0.259-2.283-1.285-2.812c-7.021-3.617-11.35-11.059-11.025-18.958
			c0.417-10.193,8.705-18.731,18.868-19.437c5.72-0.399,11.167,1.525,15.336,5.415c4.173,3.893,6.471,9.177,6.471,14.881
			c0,7.655-4.231,14.591-11.044,18.1c-1.026,0.528-1.557,1.69-1.285,2.812c0.271,1.122,1.275,1.911,2.43,1.911h15.257
			c1.381,0,2.5-1.119,2.5-2.5s-1.119-2.5-2.5-2.5h-7.665c4.623-4.667,7.308-11.016,7.308-17.823c0-7.002-2.938-13.758-8.06-18.537
			c-5.195-4.845-11.986-7.242-19.093-6.747c-12.88,0.895-22.99,11.308-23.519,24.221c-0.292,7.125,2.456,13.952,7.316,18.886h-7.696
			c-9.471,0-17.176,7.705-17.176,17.176v56.254c0,1.381,1.119,2.5,2.5,2.5h53.415v23.302c0,1.381,1.119,2.5,2.5,2.5h18.813
			c1.381,0,2.5-1.119,2.5-2.5s-1.119-2.5-2.5-2.5H81.082v-66.346c0-8.525,6.936-15.46,15.461-15.46h18.671
			c1.154,0,2.158-0.79,2.43-1.911c0.271-1.121-0.259-2.283-1.285-2.812c-8.523-4.391-13.818-13.069-13.818-22.648
			c0-7.034,2.951-13.82,8.097-18.621c5.217-4.867,12.033-7.271,19.188-6.775c12.719,0.883,23.091,11.567,23.612,24.323
			c0.406,9.885-5.01,19.196-13.796,23.722c-1.026,0.528-1.557,1.69-1.285,2.812c0.271,1.122,1.275,1.911,2.43,1.911h18.671
			c8.525,0,15.461,6.936,15.461,15.46v66.346h-15.677c-1.381,0-2.5,1.119-2.5,2.5s1.119,2.5,2.5,2.5h18.177
			c1.381,0,2.5-1.119,2.5-2.5v-23.302h53.415c1.381,0,2.5-1.119,2.5-2.5v-56.254C235.833,112.551,228.128,104.846,218.657,104.846z"
			/>
		<path fill="#846F75" d="M138.231,157.337c1.381,0,2.5-1.119,2.5-2.5s-1.119-2.5-2.5-2.5H130.5v-3.946c0-1.381-1.119-2.5-2.5-2.5
			s-2.5,1.119-2.5,2.5v3.946h-7.731c-1.381,0-2.5,1.119-2.5,2.5V175.3c0,1.381,1.119,2.5,2.5,2.5h17.963v15.463h-17.963
			c-1.381,0-2.5,1.119-2.5,2.5s1.119,2.5,2.5,2.5h7.731v3.946c0,1.381,1.119,2.5,2.5,2.5s2.5-1.119,2.5-2.5v-3.946h7.731
			c1.381,0,2.5-1.119,2.5-2.5V175.3c0-1.381-1.119-2.5-2.5-2.5h-17.963v-15.463H138.231z"/>
	</g>
	<path fill="#F9B087" d="M128,218.07c-23.796,0-43.155-19.359-43.155-43.155S104.204,131.76,128,131.76s43.155,19.359,43.155,43.155
		S151.796,218.07,128,218.07z M128,136.76c-21.039,0-38.155,17.116-38.155,38.155S106.961,213.07,128,213.07
		s38.155-17.116,38.155-38.155S149.039,136.76,128,136.76z"/>
</g>
</svg>
