<?xml version="1.0" encoding="utf-8"?>
<!-- Generator: Adobe Illustrator 24.0.0, SVG Export Plug-In . SVG Version: 6.00 Build 0)  -->
<svg version="1.1" id="Layer_1" xmlns="http://www.w3.org/2000/svg" xmlns:xlink="http://www.w3.org/1999/xlink" x="0px" y="0px"
	 viewBox="0 0 256 256" enable-background="new 0 0 256 256" xml:space="preserve">
<g>
	<g>
		<path fill="#846F75" d="M157.808,156.666c-1.063,0-2.135,0.202-3.137,0.6c-0.321-7.058-6.976-9.982-12.296-7.692
			c0.322-10.717-14.014-13.151-17.751-3.99c-5.788-3.373-13.809-0.298-14.125,7.808c0,0,0,41.372,0,41.372
			c-0.884-0.875-1.733-1.739-2.687-2.681c-3.762-4.231-10.862-6.032-15.514-1.975c-3.952,3.438-2.067,9.359,1.37,13.439
			c5.183,7.105,11.564,14.92,17.813,22.614c3.911,5.024,8.99,11.309,16.832,11c0,0,19.805,0,19.805,0
			c9.822,0,17.813-8.996,17.813-20.053l-0.001-52.443C165.767,159.411,161.723,156.666,157.808,156.666z M160.93,217.108
			c0,8.3-5.748,15.053-12.813,15.053l-19.887,0.001c-5.533,0.176-9.068-4.323-12.819-9.093c-6.226-7.672-12.601-15.47-17.771-22.561
			c-1.687-1.947-3.442-5.435-2.058-6.63c2.576-2.157,6.478-0.745,8.531,1.568c2.52,2.489,4.76,4.972,7.479,6.798
			c1.578,1.143,3.967-0.118,3.907-2.066c0,0-0.001-46.71-0.001-46.71c0.152-5.701,8.28-5.698,8.439-0.008c0,0,0,28.515,0,28.515
			c0,1.381,1.119,2.5,2.5,2.5s2.5-1.119,2.5-2.5c0-2.607,0.001-31.176-0.001-32.825c0.143-5.694,8.261-5.68,8.439-0.077
			c0,0,0,32.901,0,32.901c0.079,3.295,4.919,3.297,5,0c0,0,0-24.511,0-24.511c0.133-4.925,7.138-4.912,7.298-0.07
			c0,0,0,24.581,0,24.581c0,1.381,1.119,2.5,2.5,2.5s2.5-1.119,2.5-2.5v-17.175c0.045-4.226,6.229-4.166,6.256-0.059
			C160.93,164.742,160.93,217.108,160.93,217.108z"/>
		<path fill="#846F75" d="M98.192,99.334c1.063,0,2.135-0.202,3.137-0.6c0.321,7.058,6.976,9.982,12.296,7.692
			c-0.326,10.714,14.022,13.15,17.751,3.99c5.788,3.373,13.809,0.298,14.125-7.808c0,0,0-41.372,0-41.372
			c0.884,0.876,1.733,1.739,2.687,2.681c3.761,4.231,10.862,6.032,15.514,1.975c3.952-3.438,2.067-9.359-1.37-13.439
			c-5.183-7.105-11.564-14.92-17.813-22.614c-3.947-5.019-8.872-11.259-16.831-11h-19.805c-9.822,0-17.813,8.996-17.813,20.053
			l0.001,52.443C90.233,96.589,94.277,99.334,98.192,99.334z M95.07,38.892c0-8.3,5.748-15.053,12.813-15.053l19.887-0.001
			c5.526-0.167,9.068,4.323,12.819,9.093c6.226,7.672,12.601,15.47,17.771,22.561c1.687,1.947,3.442,5.435,2.058,6.63
			c-2.393,2.088-6.417,0.85-8.531-1.568c-2.521-2.489-4.76-4.972-7.479-6.798c-1.577-1.142-3.967,0.117-3.907,2.066
			c0,0,0.001,46.71,0.001,46.71c-0.152,5.701-8.28,5.698-8.439,0.008c0,0,0-28.515,0-28.515c0-1.381-1.119-2.5-2.5-2.5
			s-2.5,1.119-2.5,2.5c0.001,2.608-0.001,31.175,0.001,32.825c-0.142,5.693-8.262,5.68-8.439,0.077c0,0,0-32.901,0-32.901
			c-0.08-3.295-4.919-3.298-5,0c0,0,0,24.511,0,24.511c-0.133,4.924-7.138,4.912-7.298,0.07c0,0,0-24.581,0-24.581
			c0-1.381-1.119-2.5-2.5-2.5s-2.5,1.119-2.5,2.5v17.175c-0.044,4.225-6.229,4.167-6.256,0.059
			C95.07,91.258,95.07,38.892,95.07,38.892z"/>
		<path fill="#846F75" d="M89.559,154.67c7.058-0.321,9.982-6.976,7.692-12.296c10.717,0.322,13.15-14.014,3.99-17.751
			c3.372-5.788,0.298-13.809-7.808-14.125c0,0-41.372,0-41.372,0c0.876-0.883,1.739-1.733,2.681-2.687
			c4.231-3.762,6.031-10.862,1.975-15.514c-3.438-3.953-9.359-2.068-13.439,1.37c-7.103,5.181-14.92,11.564-22.615,17.813
			c-5.018,3.947-11.263,8.858-11,16.831v19.805c0,9.822,8.996,17.813,20.052,17.813l52.444-0.001
			C88.704,165.662,91.466,159.639,89.559,154.67z M64.849,149.673c-3.293,0.074-3.298,4.922,0,5c0,0,17.175,0,17.175,0
			c2.98,0.091,3.135,2.623,3.135,3.13c0.001,0.506-0.148,3.035-3.076,3.126H29.716c-8.3,0-15.052-5.748-15.052-12.813l-0.001-19.887
			c-0.182-5.525,4.323-9.068,9.092-12.819c7.674-6.226,15.473-12.603,22.562-17.771c1.739-1.381,4.874-3.533,6.63-2.058
			c2.087,2.394,0.849,6.417-1.568,8.531c-2.49,2.52-4.973,4.761-6.799,7.479c-1.143,1.577,0.118,3.967,2.066,3.907
			c0,0,46.71-0.001,46.71-0.001c3.127,0.096,4.236,2.333,4.237,4.221c0,1.885-1.109,4.119-4.229,4.219H64.849
			c-3.298,0.084-3.296,4.917,0,5c0,0,28.584,0,28.584,0l4.24-0.001c3.128,0.096,4.237,2.333,4.237,4.22
			c0,1.887-1.11,4.125-4.16,4.219H64.849c-1.381,0-2.5,1.119-2.5,2.5s1.119,2.5,2.5,2.5H89.36c4.925,0.134,4.911,7.138,0.07,7.298
			C89.429,149.673,64.849,149.673,64.849,149.673z"/>
		<path fill="#846F75" d="M226.284,90.07l-52.444,0.001c-6.544,0.268-9.307,6.289-7.399,11.258
			c-7.058,0.321-9.982,6.976-7.692,12.296c-10.717-0.322-13.15,14.014-3.99,17.751c-3.372,5.788-0.298,13.809,7.808,14.125
			c0,0,41.372,0,41.372,0c-0.874,0.886-1.74,1.731-2.681,2.687c-4.231,3.762-6.031,10.862-1.975,15.514
			c1.362,1.566,3.113,2.215,4.986,2.215c2.854,0,5.989-1.509,8.453-3.585c7.101-5.183,14.921-11.562,22.615-17.813
			c5.018-3.947,11.263-8.858,11-16.831v-19.805C246.336,98.061,237.341,90.07,226.284,90.07z M232.246,140.589
			c-7.674,6.226-15.473,12.603-22.562,17.771c-1.947,1.687-5.436,3.442-6.63,2.058c-2.087-2.394-0.849-6.417,1.568-8.531
			c2.491-2.518,4.972-4.762,6.799-7.479c1.144-1.574-0.119-3.97-2.066-3.907c0,0-46.71,0.001-46.71,0.001
			c-5.706-0.153-5.693-8.281-0.008-8.439c0,0,28.515,0,28.515,0c3.298-0.085,3.296-4.917,0-5c-2.7,0.001-31.108-0.001-32.824,0.001
			c-5.685-0.139-5.686-8.261-0.077-8.439c0,0,32.901,0,32.901,0c3.295-0.079,3.297-4.919,0-5c0,0-24.511,0-24.511,0
			c-4.917-0.127-4.916-7.141-0.07-7.298c0,0,24.581,0,24.581,0c3.293-0.075,3.298-4.922,0-5c0,0-17.175,0-17.175,0
			c-4.231-0.043-4.158-6.235-0.059-6.256c0,0,52.367,0,52.367,0c8.3,0,15.052,5.748,15.052,12.813l0.001,19.887
			C241.52,133.295,237.015,136.838,232.246,140.589z"/>
	</g>
	<path fill="#ED9ABC" d="M102.914,228.524H29.976c-1.381,0-2.5-1.119-2.5-2.5V173.43c0-1.381,1.119-2.5,2.5-2.5s2.5,1.119,2.5,2.5
		v50.095h70.438c1.381,0,2.5,1.119,2.5,2.5S104.294,228.524,102.914,228.524z"/>
	<path fill="#ED9ABC" d="M226.024,228.524h-54.121c-1.381,0-2.5-1.119-2.5-2.5s1.119-2.5,2.5-2.5h51.621v-62.66
		c0-1.381,1.119-2.5,2.5-2.5s2.5,1.119,2.5,2.5v65.16C228.524,227.405,227.405,228.524,226.024,228.524z"/>
	<path fill="#ED9ABC" d="M226.024,83.758c-1.381,0-2.5-1.119-2.5-2.5V32.476h-69.717c-1.381,0-2.5-1.119-2.5-2.5s1.119-2.5,2.5-2.5
		h72.217c1.381,0,2.5,1.119,2.5,2.5v51.282C228.524,82.639,227.405,83.758,226.024,83.758z"/>
	<path fill="#ED9ABC" d="M29.976,97.634c-1.381,0-2.5-1.119-2.5-2.5V29.976c0-1.381,1.119-2.5,2.5-2.5h54.369
		c1.381,0,2.5,1.119,2.5,2.5s-1.119,2.5-2.5,2.5H32.476v62.658C32.476,96.515,31.356,97.634,29.976,97.634z"/>
</g>
</svg>
