<?xml version="1.0" encoding="utf-8"?>
<!-- Generator: Adobe Illustrator 24.0.0, SVG Export Plug-In . SVG Version: 6.00 Build 0)  -->
<svg version="1.1" id="Layer_1" xmlns="http://www.w3.org/2000/svg" xmlns:xlink="http://www.w3.org/1999/xlink" x="0px" y="0px"
	 viewBox="0 0 256 256" enable-background="new 0 0 256 256" xml:space="preserve">
<g>
	<path fill="#EBE7F2" d="M76.655,80.579c-0.628,0-1.257-0.235-1.743-0.708c-0.989-0.963-1.012-2.545-0.049-3.536
		C88.94,61.859,107.812,53.887,128,53.887c20.188,0,39.059,7.972,53.136,22.447c0.963,0.99,0.94,2.573-0.049,3.535
		c-0.991,0.962-2.573,0.94-3.535-0.049c-13.128-13.5-30.727-20.934-49.552-20.934c-18.826,0-36.424,7.435-49.553,20.935
		C77.957,80.326,77.307,80.579,76.655,80.579z"/>
	<path fill="#EBE7F2" d="M64.929,164.444c-0.89,0-1.75-0.476-2.202-1.314c-5.783-10.722-8.84-22.87-8.84-35.13
		c0-12.26,3.057-24.407,8.84-35.13c0.654-1.217,2.173-1.668,3.387-1.014c1.216,0.655,1.669,2.172,1.014,3.387
		c-5.391,9.996-8.24,21.323-8.24,32.757c0,11.434,2.85,22.761,8.24,32.757c0.655,1.215,0.202,2.731-1.014,3.387
		C65.736,164.347,65.33,164.444,64.929,164.444z"/>
	<path fill="#EBE7F2" d="M128,202.113c-20.189,0-39.061-7.973-53.137-22.449c-0.963-0.99-0.94-2.572,0.049-3.535
		c0.99-0.962,2.571-0.941,3.535,0.05c13.127,13.5,30.726,20.935,49.553,20.935c18.826,0,36.425-7.435,49.554-20.935
		c0.963-0.99,2.545-1.011,3.535-0.049c0.989,0.963,1.012,2.545,0.049,3.536C167.06,194.14,148.188,202.113,128,202.113z"/>
	<path fill="#EBE7F2" d="M191.071,164.444c-0.401,0-0.808-0.097-1.185-0.3c-1.216-0.655-1.669-2.172-1.014-3.387
		c5.391-9.996,8.24-21.323,8.24-32.757c0-11.433-2.85-22.759-8.239-32.755c-0.655-1.215-0.202-2.731,1.014-3.387
		c1.214-0.654,2.732-0.201,3.387,1.014c5.782,10.723,8.839,22.87,8.839,35.128c0,12.26-3.057,24.408-8.84,35.13
		C192.821,163.968,191.961,164.444,191.071,164.444z"/>
	<path fill="#ED9ABC" d="M120.389,180.42c-1.381,0-2.5-1.119-2.5-2.5v-38.277c0-1.381,1.119-2.5,2.5-2.5s2.5,1.119,2.5,2.5v38.277
		C122.889,179.301,121.77,180.42,120.389,180.42z"/>
	<path fill="#ED9ABC" d="M135.611,180.42c-1.381,0-2.5-1.119-2.5-2.5v-38.277c0-1.381,1.119-2.5,2.5-2.5s2.5,1.119,2.5,2.5v38.277
		C138.111,179.301,136.992,180.42,135.611,180.42z"/>
	<path fill="#ED9ABC" d="M175.876,180.42c-1.381,0-2.5-1.119-2.5-2.5V78.08c0-1.381,1.119-2.5,2.5-2.5s2.5,1.119,2.5,2.5v99.841
		C178.376,179.301,177.257,180.42,175.876,180.42z"/>
	<path fill="#ED9ABC" d="M80.124,180.42c-1.381,0-2.5-1.119-2.5-2.5V78.08c0-1.381,1.119-2.5,2.5-2.5s2.5,1.119,2.5,2.5v99.841
		C82.624,179.301,81.505,180.42,80.124,180.42z"/>
	<path fill="#ED9ABC" d="M120.389,101.149c-1.381,0-2.5-1.119-2.5-2.5V78.08c0-1.381,1.119-2.5,2.5-2.5s2.5,1.119,2.5,2.5v20.569
		C122.889,100.03,121.77,101.149,120.389,101.149z"/>
	<path fill="#ED9ABC" d="M135.611,101.149c-1.381,0-2.5-1.119-2.5-2.5V78.08c0-1.381,1.119-2.5,2.5-2.5s2.5,1.119,2.5,2.5v20.569
		C138.111,100.03,136.992,101.149,135.611,101.149z"/>
	<path fill="#ED9ABC" d="M30.773,120.516c-0.084,0-0.17-0.004-0.255-0.013c-1.374-0.14-2.375-1.366-2.235-2.74
		c4.775-47.067,42.403-84.699,89.471-89.479c1.379-0.138,2.601,0.861,2.74,2.235s-0.861,2.6-2.234,2.74
		c-44.717,4.542-80.466,40.293-85.002,85.01C33.127,119.556,32.041,120.516,30.773,120.516z"/>
	<path fill="#ED9ABC" d="M118.017,227.729c-0.084,0-0.17-0.004-0.255-0.013c-47.071-4.777-84.702-42.409-89.479-89.48
		c-0.14-1.374,0.861-2.6,2.235-2.74c1.376-0.138,2.6,0.862,2.739,2.235c4.538,44.72,40.289,80.472,85.008,85.01
		c1.374,0.14,2.375,1.366,2.235,2.74C120.37,226.77,119.284,227.729,118.017,227.729z"/>
	<path fill="#ED9ABC" d="M137.99,227.729c-1.268,0-2.354-0.959-2.484-2.248c-0.14-1.374,0.861-2.6,2.234-2.74
		c44.713-4.541,80.462-40.29,85.002-85.002c0.14-1.374,1.358-2.372,2.74-2.235c1.373,0.14,2.374,1.366,2.234,2.74
		c-4.779,47.064-42.407,84.692-89.471,89.472C138.16,227.725,138.074,227.729,137.99,227.729z"/>
	<path fill="#ED9ABC" d="M225.226,120.508c-1.268,0-2.354-0.959-2.484-2.248c-4.54-44.712-40.288-80.461-85.001-85.002
		c-1.373-0.14-2.374-1.366-2.234-2.74s1.355-2.372,2.74-2.235c47.063,4.78,84.69,42.408,89.47,89.472
		c0.14,1.374-0.861,2.6-2.234,2.74C225.396,120.504,225.31,120.508,225.226,120.508z"/>
	<g>
		<path fill="#846F75" d="M181.072,75.58H74.928c-6.893,0-12.5,5.607-12.5,12.5v89.841c0,1.381,1.119,2.5,2.5,2.5h126.145
			c1.381,0,2.5-1.119,2.5-2.5V88.08C193.572,81.187,187.965,75.58,181.072,75.58z M74.928,80.58h106.145c4.136,0,7.5,3.364,7.5,7.5
			v25.839h-43.289v-15.27c0-1.381-1.119-2.5-2.5-2.5h-29.566c-1.381,0-2.5,1.119-2.5,2.5v15.27H67.428V88.08
			C67.428,83.944,70.792,80.58,74.928,80.58z M115.717,101.149h24.566v25.691c0,6.773-5.51,12.283-12.283,12.283
			s-12.283-5.51-12.283-12.283V101.149z M67.428,175.42v-56.502h43.289v7.921c0,9.53,7.753,17.283,17.283,17.283
			s17.283-7.753,17.283-17.283v-7.921h43.289v56.502H67.428z"/>
		<path fill="#846F75" d="M125.5,123.03v6.363c0,1.381,1.119,2.5,2.5,2.5s2.5-1.119,2.5-2.5v-6.363
			c2.957-1.036,5.083-3.854,5.083-7.159c0-4.181-3.401-7.583-7.583-7.583s-7.583,3.401-7.583,7.583
			C120.417,119.176,122.543,121.994,125.5,123.03z M128,113.288c1.424,0,2.583,1.159,2.583,2.583c0,1.424-1.159,2.583-2.583,2.583
			s-2.583-1.159-2.583-2.583C125.417,114.447,126.576,113.288,128,113.288z"/>
		<path fill="#846F75" d="M128,48.902c1.381,0,2.5-1.119,2.5-2.5V14.433c0-1.381-1.119-2.5-2.5-2.5s-2.5,1.119-2.5,2.5v31.969
			C125.5,47.783,126.619,48.902,128,48.902z"/>
		<path fill="#846F75" d="M128,207.098c-1.381,0-2.5,1.119-2.5,2.5v31.969c0,1.381,1.119,2.5,2.5,2.5s2.5-1.119,2.5-2.5v-31.969
			C130.5,208.217,129.381,207.098,128,207.098z"/>
		<path fill="#846F75" d="M241.567,125.5h-31.97c-1.381,0-2.5,1.119-2.5,2.5s1.119,2.5,2.5,2.5h31.97c1.381,0,2.5-1.119,2.5-2.5
			S242.948,125.5,241.567,125.5z"/>
		<path fill="#846F75" d="M46.402,125.5h-31.97c-1.381,0-2.5,1.119-2.5,2.5s1.119,2.5,2.5,2.5h31.97c1.381,0,2.5-1.119,2.5-2.5
			S47.783,125.5,46.402,125.5z"/>
	</g>
</g>
</svg>
