<?xml version="1.0" encoding="utf-8"?>
<!-- Generator: Adobe Illustrator 24.0.0, SVG Export Plug-In . SVG Version: 6.00 Build 0)  -->
<svg version="1.1" id="Layer_1" xmlns="http://www.w3.org/2000/svg" xmlns:xlink="http://www.w3.org/1999/xlink" x="0px" y="0px"
	 viewBox="0 0 256 256" enable-background="new 0 0 256 256" xml:space="preserve">
<g>
	<path fill="#EBE7F2" d="M135.364,214.266c-1.283,0-2.375-0.981-2.488-2.284c-0.119-1.375,0.899-2.587,2.274-2.706
		c41.738-3.623,74.433-39.323,74.433-81.275c0-44.985-36.598-81.584-81.583-81.584S46.417,83.015,46.417,128
		c0,41.952,32.695,77.652,74.433,81.275c1.375,0.119,2.394,1.331,2.274,2.706c-0.12,1.377-1.333,2.401-2.707,2.274
		c-21.498-1.865-41.421-11.666-56.101-27.595C49.549,170.638,41.417,149.805,41.417,128c0-47.742,38.841-86.584,86.583-86.584
		S214.583,80.258,214.583,128c0,21.805-8.132,42.638-22.899,58.661c-14.68,15.929-34.604,25.729-56.101,27.595
		C135.509,214.263,135.436,214.266,135.364,214.266z"/>
	<path fill="#A58BC9" d="M229.254,125.5h-66.096c-0.552-7.841-3.68-14.983-8.542-20.581l46.748-46.749
		c0.977-0.977,0.977-2.559,0-3.535c-0.976-0.977-2.56-0.977-3.535,0l-46.748,46.749c-5.599-4.861-12.74-7.989-20.581-8.541V26.746
		c0-1.381-1.119-2.5-2.5-2.5s-2.5,1.119-2.5,2.5v66.096c-7.841,0.552-14.983,3.68-20.581,8.541L58.17,54.635
		c-0.976-0.977-2.56-0.977-3.535,0c-0.977,0.977-0.977,2.559,0,3.535l46.748,46.749c-4.862,5.598-7.99,12.74-8.542,20.581H26.746
		c-1.381,0-2.5,1.119-2.5,2.5s1.119,2.5,2.5,2.5h66.095c0.402,5.73,2.184,11.236,5.222,16.11l-4.322,12.114L54.635,197.83
		c-0.977,0.977-0.977,2.559,0,3.535c0.488,0.488,1.128,0.732,1.768,0.732s1.28-0.244,1.768-0.732l39.291-39.291l11.809-4.214
		c4.906,3.085,10.453,4.893,16.229,5.298v25.167c0,1.381,1.119,2.5,2.5,2.5s2.5-1.119,2.5-2.5v-25.168
		c7.841-0.552,14.983-3.68,20.581-8.541l46.748,46.749c0.488,0.488,1.128,0.732,1.768,0.732s1.28-0.244,1.768-0.732
		c0.977-0.977,0.977-2.559,0-3.535l-46.748-46.749c4.862-5.598,7.99-12.74,8.542-20.581h66.096c1.381,0,2.5-1.119,2.5-2.5
		S230.635,125.5,229.254,125.5z M128,158.246c-6.096,0-11.972-1.807-16.994-5.224c-0.42-0.286-0.912-0.434-1.407-0.434
		c-0.283,0-0.567,0.048-0.84,0.146l-8.677,3.096l3.105-8.703c0.267-0.748,0.163-1.579-0.282-2.238
		c-3.371-4.996-5.152-10.836-5.152-16.889c0-16.678,13.568-30.246,30.247-30.246s30.247,13.568,30.247,30.246
		S144.678,158.246,128,158.246z"/>
	<g>
		<path fill="#846F75" d="M129.629,134.908h7.038c1.381,0,2.5-1.119,2.5-2.5v-19.075c0-1.381-1.119-2.5-2.5-2.5h-19.075
			c-1.381,0-2.5,1.119-2.5,2.5v9.537c0,1.381,1.119,2.5,2.5,2.5s2.5-1.119,2.5-2.5v-7.037h14.075v14.075h-7.038
			c-1.381,0-2.5,1.119-2.5,2.5v5.412c0,1.381,1.119,2.5,2.5,2.5s2.5-1.119,2.5-2.5V134.908z"/>
		<path fill="#846F75" d="M127.129,142.833c-1.381,0-2.5,1.119-2.5,2.5v2.206c0,1.381,1.119,2.5,2.5,2.5s2.5-1.119,2.5-2.5v-2.206
			C129.629,143.952,128.51,142.833,127.129,142.833z"/>
		<path fill="#846F75" d="M128,24.246C70.79,24.246,24.246,70.79,24.246,128c0,47.393,32.017,88.718,77.859,100.495
			c1.335,0.343,2.7-0.461,3.043-1.799c0.344-1.337-0.462-2.7-1.799-3.043C59.719,212.443,29.246,173.109,29.246,128
			c0-54.453,44.301-98.754,98.754-98.754S226.754,73.547,226.754,128c0,45.271-30.607,84.639-74.432,95.736
			c-1.338,0.339-2.149,1.699-1.81,3.037c0.287,1.133,1.304,1.888,2.421,1.888c0.203,0,0.41-0.025,0.616-0.077
			c46.045-11.66,78.205-53.021,78.205-100.584C231.754,70.79,185.21,24.246,128,24.246z"/>
		<path fill="#846F75" d="M130.236,195.911c-0.423-0.847-1.289-1.382-2.236-1.382s-1.813,0.535-2.236,1.382l-20.373,40.746
			c-0.388,0.775-0.346,1.695,0.109,2.433s1.26,1.186,2.126,1.186h40.746c0.866,0,1.671-0.448,2.126-1.186s0.497-1.657,0.109-2.433
			L130.236,195.911z M111.672,235.275L128,202.619l16.328,32.656H111.672z"/>
	</g>
</g>
</svg>
