<?xml version="1.0" encoding="utf-8"?>
<!-- Generator: Adobe Illustrator 24.0.0, SVG Export Plug-In . SVG Version: 6.00 Build 0)  -->
<svg version="1.1" id="Layer_1" xmlns="http://www.w3.org/2000/svg" xmlns:xlink="http://www.w3.org/1999/xlink" x="0px" y="0px"
	 viewBox="0 0 256 256" enable-background="new 0 0 256 256" xml:space="preserve">
<g>
	<path fill="#F9B087" d="M162.408,207.998H130.5v-45.546c0-1.381-1.119-2.5-2.5-2.5s-2.5,1.119-2.5,2.5v45.546H93.592
		c-1.381,0-2.5,1.119-2.5,2.5s1.119,2.5,2.5,2.5h68.816c1.381,0,2.5-1.119,2.5-2.5S163.789,207.998,162.408,207.998z"/>
	<path fill="#F9B087" d="M135.027,154.362h-14.055c-3.964,0-7.427-2.68-8.42-6.518l-4.044-15.695l-13.955,8.237
		c-3.419,2.011-7.764,1.458-10.564-1.343l-9.938-9.938c-2.804-2.803-3.357-7.147-1.346-10.563l8.237-13.957l-15.691-4.043
		c-3.84-0.994-6.521-4.457-6.521-8.421V78.067c0-3.964,2.681-7.427,6.518-8.421l15.694-4.044l-8.236-13.955
		c-2.013-3.417-1.46-7.761,1.345-10.565l9.938-9.938c2.803-2.803,7.146-3.355,10.562-1.345l13.958,8.239l4.043-15.692
		c0.994-3.84,4.457-6.521,8.421-6.521h14.055c3.963,0,7.425,2.68,8.42,6.517l4.044,15.696l13.955-8.237
		c3.418-2.014,7.761-1.46,10.564,1.343l9.938,9.938c2.804,2.804,3.356,7.147,1.345,10.563l-8.237,13.957l15.691,4.043
		c0.001,0,0.002,0,0.003,0c3.837,0.994,6.518,4.457,6.518,8.421v14.054c0,3.964-2.681,7.427-6.518,8.421l-15.694,4.043l8.236,13.955
		c2.013,3.418,1.46,7.762-1.344,10.565l-9.938,9.938c-2.803,2.802-7.146,3.356-10.563,1.345l-13.957-8.238l-4.043,15.692
		C142.452,151.683,138.99,154.362,135.027,154.362z M110.101,125.807c0.324,0,0.649,0.063,0.957,0.19
		c0.726,0.301,1.268,0.925,1.464,1.686l4.872,18.911c0.422,1.628,1.894,2.768,3.579,2.768h14.055c1.685,0,3.157-1.14,3.58-2.772
		l4.871-18.907c0.196-0.761,0.738-1.385,1.464-1.686c0.726-0.301,1.551-0.243,2.228,0.157l16.817,9.926
		c1.45,0.853,3.295,0.618,4.488-0.573l9.938-9.938c1.191-1.192,1.427-3.039,0.571-4.491l-9.925-16.815
		c-0.399-0.676-0.457-1.501-0.156-2.227c0.301-0.726,0.925-1.269,1.686-1.464L189.5,95.7c1.629-0.422,2.769-1.894,2.769-3.58V78.067
		c0-1.685-1.139-3.156-2.769-3.58l-18.91-4.873c-0.761-0.196-1.385-0.738-1.686-1.464c-0.301-0.726-0.243-1.551,0.156-2.227
		l9.926-16.817c0.854-1.45,0.619-3.296-0.572-4.488l-9.938-9.938c-1.192-1.191-3.038-1.425-4.49-0.571l-16.815,9.925
		c-0.676,0.4-1.501,0.458-2.228,0.157c-0.726-0.301-1.268-0.925-1.464-1.686l-4.872-18.911c-0.422-1.628-1.895-2.768-3.579-2.768
		h-14.055c-1.686,0-3.157,1.139-3.58,2.771l-4.871,18.908c-0.196,0.761-0.738,1.385-1.464,1.686c-0.728,0.3-1.552,0.243-2.228-0.157
		l-16.817-9.926c-1.452-0.854-3.297-0.618-4.488,0.573l-9.938,9.938c-1.192,1.192-1.428,3.039-0.572,4.49l9.925,16.815
		c0.399,0.676,0.457,1.501,0.156,2.227c-0.301,0.726-0.925,1.268-1.686,1.464L66.5,74.487c-1.629,0.422-2.769,1.894-2.769,3.58
		v14.054c0,1.686,1.14,3.158,2.771,3.58l18.907,4.872c0.761,0.196,1.385,0.738,1.686,1.464c0.301,0.726,0.243,1.551-0.156,2.227
		l-9.926,16.817c-0.854,1.45-0.619,3.297,0.573,4.489l9.938,9.938c1.191,1.191,3.037,1.426,4.491,0.571l16.814-9.924
		C109.22,125.924,109.659,125.807,110.101,125.807z"/>
	<path fill="#F9B087" d="M72.605,181.656c-0.792-1.13-2.352-1.406-3.482-0.614l-6.605,4.626l-6.605-4.626
		c-1.131-0.792-2.689-0.516-3.482,0.614c-0.792,1.131-0.518,2.69,0.613,3.482l6.738,4.719l-5.796,33.178
		c-0.142,0.814,0.127,1.646,0.719,2.222l6.069,5.908c0.485,0.472,1.115,0.708,1.744,0.708s1.259-0.236,1.744-0.708l6.069-5.908
		c0.592-0.576,0.86-1.408,0.719-2.222l-5.796-33.178l6.738-4.719C73.123,184.346,73.397,182.787,72.605,181.656z M62.518,225.885
		l-3.38-3.29l3.38-19.346l3.38,19.346L62.518,225.885z"/>
	<path fill="#F9B087" d="M213.52,210.257h-9.117c-1.381,0-2.5-1.119-2.5-2.5s1.119-2.5,2.5-2.5h9.117c1.381,0,2.5,1.119,2.5,2.5
		S214.9,210.257,213.52,210.257z"/>
	<path fill="#F9B087" d="M202.696,180.883c-1.219-0.648-2.732-0.187-3.381,1.033l-5.833,10.963l-5.833-10.963
		c-0.648-1.219-2.164-1.682-3.381-1.033c-1.22,0.648-1.682,2.162-1.033,3.381l7.747,14.561v37.972c0,1.381,1.119,2.5,2.5,2.5
		s2.5-1.119,2.5-2.5v-37.972l7.747-14.561C204.378,183.045,203.916,181.532,202.696,180.883z"/>
	<g>
		<path fill="#846F75" d="M143.061,51.761c-5.729,0-11.074,2.223-15.061,6.185c-3.986-3.962-9.331-6.185-15.061-6.185
			c-11.808,0-21.413,9.605-21.413,21.413c0,19.508,33.447,47.663,34.871,48.852c0.464,0.387,1.033,0.581,1.603,0.581
			s1.139-0.194,1.603-0.581c1.424-1.189,34.871-29.343,34.871-48.852C164.474,61.367,154.868,51.761,143.061,51.761z
			 M136.755,108.604l-18.283-19.487c-0.944-1.006-2.526-1.059-3.534-0.113c-1.007,0.945-1.057,2.527-0.112,3.534l18.339,19.547
			c-2.15,2.033-3.961,3.659-5.165,4.717c-6.622-5.82-31.474-28.662-31.474-43.629c0-9.05,7.363-16.413,16.413-16.413
			c4.491,0,8.672,1.787,11.749,4.955l-7.145,8.143c-3.311,3.773-3.064,9.45,0.56,12.923c1.756,1.683,4.036,2.598,6.455,2.599
			c0.002,0.002,0.003,0.005,0.006,0.008l16.841,18.423C139.815,105.513,138.246,107.122,136.755,108.604z M144.777,100.092
			L129.84,83.751c0.604-0.414,1.169-0.893,1.673-1.451l3.149-3.485l14.86,15.521C148.007,96.3,146.406,98.232,144.777,100.092z
			 M138.023,75.095l5.55-6.142c0.926-1.025,0.846-2.605-0.179-3.531c-1.023-0.926-2.605-0.845-3.53,0.179l-12.06,13.347
			c-0.796,0.881-1.888,1.39-3.074,1.432c-1.206,0.041-2.312-0.386-3.169-1.207c-1.687-1.617-1.801-4.259-0.261-6.015l8.578-9.776
			c0.022-0.025,0.036-0.054,0.057-0.08c0.016-0.02,0.038-0.035,0.054-0.056c3.136-4.121,7.899-6.485,13.071-6.485
			c9.05,0,16.413,7.363,16.413,16.413c0,5.101-2.889,11.116-6.956,17.06L138.023,75.095z"/>
		<path fill="#846F75" d="M82.298,180.59h-4.608c3.285-3.808,5.105-8.794,4.893-13.98c-0.419-10.231-8.43-18.481-18.635-19.19
			c-5.635-0.395-11.011,1.506-15.125,5.345c-4.059,3.786-6.386,9.139-6.386,14.686c0,4.93,1.777,9.557,4.88,13.139h-4.579
			c-7.605,0-13.793,6.188-13.793,13.793v43.291c0,1.381,1.119,2.5,2.5,2.5h62.147c1.381,0,2.5-1.119,2.5-2.5v-43.291
			C96.092,186.778,89.904,180.59,82.298,180.59z M91.092,235.174H33.944v-40.791c0-4.849,3.944-8.793,8.793-8.793h11.74
			c1.154,0,2.158-0.79,2.43-1.911c0.271-1.121-0.259-2.283-1.285-2.812c-5.049-2.601-8.186-7.742-8.186-13.417
			c0-4.228,1.703-8.145,4.796-11.03c3.09-2.883,7.123-4.308,11.369-4.013c7.532,0.523,13.675,6.851,13.984,14.407
			c0.24,5.855-2.968,11.372-8.173,14.053c-1.026,0.529-1.557,1.69-1.285,2.812c0.271,1.122,1.275,1.911,2.43,1.911h11.74
			c4.849,0,8.794,3.945,8.794,8.793V235.174z"/>
		<path fill="#846F75" d="M213.263,180.59h-4.608c3.283-3.807,5.104-8.794,4.892-13.98c-0.419-10.231-8.43-18.481-18.634-19.19
			c-5.642-0.393-11.011,1.506-15.125,5.345c-4.059,3.786-6.386,9.139-6.386,14.686c0,4.93,1.777,9.557,4.88,13.139h-4.579
			c-7.606,0-13.794,6.188-13.794,13.793v43.291c0,1.381,1.119,2.5,2.5,2.5h62.147c1.381,0,2.5-1.119,2.5-2.5v-43.291
			C227.056,186.778,220.868,180.59,213.263,180.59z M222.056,235.174h-57.147v-40.791c0-4.849,3.945-8.793,8.794-8.793h11.74
			c1.154,0,2.158-0.79,2.43-1.911c0.271-1.121-0.259-2.283-1.285-2.812c-5.049-2.601-8.186-7.742-8.186-13.417
			c0-4.228,1.703-8.145,4.796-11.03c3.09-2.882,7.122-4.307,11.368-4.013c7.532,0.523,13.675,6.851,13.984,14.407
			c0.24,5.855-2.968,11.372-8.172,14.053c-1.026,0.529-1.557,1.69-1.285,2.812c0.271,1.122,1.275,1.911,2.43,1.911h11.74
			c4.849,0,8.793,3.945,8.793,8.793V235.174z"/>
	</g>
</g>
</svg>
