<?xml version="1.0" encoding="utf-8"?>
<!-- Generator: Adobe Illustrator 24.0.0, SVG Export Plug-In . SVG Version: 6.00 Build 0)  -->
<svg version="1.1" id="Layer_1" xmlns="http://www.w3.org/2000/svg" xmlns:xlink="http://www.w3.org/1999/xlink" x="0px" y="0px"
	 viewBox="0 0 256 256" enable-background="new 0 0 256 256" xml:space="preserve">
<g>
	<path fill="#F9B087" d="M128,9.903c-12.638,0-22.919,10.282-22.919,22.92S115.362,55.742,128,55.742s22.919-10.281,22.919-22.919
		S140.638,9.903,128,9.903z M128,50.742c-2.513,0-5.229-3.527-6.716-8.997c2.114-0.388,4.382-0.594,6.716-0.594
		c2.335,0,4.603,0.205,6.716,0.593C133.229,47.215,130.514,50.742,128,50.742z M128,36.151c-2.63,0-5.207,0.237-7.632,0.686
		c-0.141-1.282-0.217-2.624-0.217-4.014c0-1.39,0.076-2.732,0.217-4.014c2.424,0.449,5,0.685,7.632,0.685
		c2.63,0,5.206-0.237,7.631-0.686c0.141,1.282,0.217,2.625,0.217,4.015c0,1.39-0.076,2.731-0.217,4.013
		C133.208,36.388,130.632,36.151,128,36.151z M110.081,32.823c0-2.482,0.508-4.848,1.424-7c1.206,0.653,2.536,1.226,3.962,1.715
		c-0.207,1.687-0.315,3.454-0.315,5.285s0.109,3.599,0.315,5.285c-1.426,0.488-2.756,1.062-3.962,1.714
		C110.588,37.671,110.081,35.305,110.081,32.823z M128,14.903c2.513,0,5.229,3.527,6.715,8.997
		c-2.114,0.388-4.382,0.594-6.715,0.594c-2.335,0-4.603-0.205-6.716-0.593C122.771,18.431,125.486,14.903,128,14.903z
		 M140.533,27.538c1.426-0.488,2.756-1.062,3.962-1.714c0.916,2.151,1.424,4.517,1.424,7c0,2.482-0.507,4.848-1.424,6.999
		c-1.206-0.653-2.536-1.226-3.962-1.715c0.207-1.686,0.315-3.454,0.315-5.284C140.849,30.992,140.74,29.224,140.533,27.538z
		 M141.909,21.538c-0.721,0.379-1.498,0.725-2.324,1.037c-0.452-1.697-1.017-3.264-1.679-4.677
		C139.417,18.904,140.767,20.133,141.909,21.538z M118.093,17.898c-0.662,1.413-1.227,2.981-1.679,4.677
		c-0.826-0.311-1.603-0.658-2.324-1.037C115.232,20.133,116.582,18.904,118.093,17.898z M114.091,44.109
		c0.721-0.38,1.498-0.726,2.324-1.037c0.452,1.696,1.017,3.264,1.678,4.676C116.583,46.742,115.233,45.513,114.091,44.109z
		 M137.907,47.748c0.662-1.413,1.227-2.981,1.679-4.678c0.826,0.312,1.603,0.658,2.324,1.037
		C140.768,45.513,139.418,46.742,137.907,47.748z"/>
	<path fill="#F9B087" d="M157.15,112.459c0-6.166-7.519-10.322-16.924-12.226C138.323,90.829,134.166,83.31,128,83.31
		c-6.166,0-10.323,7.52-12.227,16.923c-9.404,1.904-16.923,6.06-16.923,12.226s7.519,10.323,16.923,12.227
		c1.904,9.404,6.061,16.924,12.227,16.924s10.323-7.52,12.227-16.924C149.631,122.782,157.15,118.625,157.15,112.459z M128,88.31
		c2.263,0,5.202,4.093,6.941,11.109c-2.291-0.249-4.628-0.375-6.941-0.375s-4.65,0.126-6.941,0.375
		C122.798,92.402,125.737,88.31,128,88.31z M136.416,112.459c0,2.844-0.186,5.489-0.51,7.906c-2.418,0.324-5.063,0.51-7.906,0.51
		s-5.489-0.186-7.906-0.51c-0.324-2.417-0.51-5.063-0.51-7.906c0-2.843,0.186-5.488,0.51-7.905c2.418-0.324,5.063-0.51,7.906-0.51
		s5.489,0.186,7.906,0.51C136.23,106.971,136.416,109.616,136.416,112.459z M103.85,112.459c0-2.263,4.093-5.201,11.109-6.94
		c-0.249,2.291-0.375,4.627-0.375,6.94c0,2.313,0.126,4.65,0.375,6.941C107.943,117.661,103.85,114.722,103.85,112.459z
		 M128,136.609c-2.263,0-5.202-4.093-6.941-11.109c2.291,0.249,4.628,0.375,6.941,0.375s4.65-0.126,6.941-0.375
		C133.202,132.517,130.263,136.609,128,136.609z M141.041,119.4c0.249-2.291,0.375-4.628,0.375-6.941
		c0-2.313-0.126-4.649-0.375-6.94c7.016,1.739,11.109,4.677,11.109,6.94C152.15,114.722,148.057,117.661,141.041,119.4z"/>
	<g>
		<path fill="#846F75" d="M225.101,25.414h-66.956c-1.381,0-2.5,1.119-2.5,2.5s1.119,2.5,2.5,2.5h66.956
			c4.535,0,8.225,3.689,8.225,8.225v142.923c0,4.535-3.689,8.225-8.225,8.225H30.899c-4.535,0-8.225-3.689-8.225-8.225V38.639
			c0-4.535,3.689-8.225,8.225-8.225h66.681c1.381,0,2.5-1.119,2.5-2.5s-1.119-2.5-2.5-2.5H30.899
			c-7.292,0-13.225,5.933-13.225,13.225v142.923c0,7.292,5.933,13.225,13.225,13.225h194.201c7.292,0,13.225-5.933,13.225-13.225
			V38.639C238.325,31.347,232.393,25.414,225.101,25.414z"/>
		<path fill="#846F75" d="M169.635,219.809h-14.114v-17.522c0-1.381-1.119-2.5-2.5-2.5s-2.5,1.119-2.5,2.5v17.522h-45.041v-17.522
			c0-1.381-1.119-2.5-2.5-2.5s-2.5,1.119-2.5,2.5v17.522H86.365c-5.728,0-10.388,4.66-10.388,10.389s4.66,10.389,10.388,10.389
			h83.27c5.729,0,10.389-4.66,10.389-10.389S175.363,219.809,169.635,219.809z M169.635,235.586h-83.27
			c-2.971,0-5.388-2.417-5.388-5.389s2.417-5.389,5.388-5.389h83.27c2.972,0,5.389,2.417,5.389,5.389
			S172.606,235.586,169.635,235.586z"/>
		<path fill="#846F75" d="M98.85,112.459c0,16.073,13.077,29.15,29.15,29.15s29.15-13.077,29.15-29.15
			c0-15.231-11.743-27.771-26.65-29.043v-20.79c0-1.381-1.119-2.5-2.5-2.5s-2.5,1.119-2.5,2.5v20.79
			C110.593,84.688,98.85,97.228,98.85,112.459z M128,88.31c13.316,0,24.15,10.833,24.15,24.149s-10.834,24.15-24.15,24.15
			s-24.15-10.834-24.15-24.15S114.684,88.31,128,88.31z"/>
	</g>
	<path fill="#F9B087" d="M128,166.766c-1.381,0-2.5-1.119-2.5-2.5v-12.799c0-1.381,1.119-2.5,2.5-2.5s2.5,1.119,2.5,2.5v12.799
		C130.5,165.646,129.381,166.766,128,166.766z"/>
	<path fill="#F9B087" d="M181.159,113.606h-14.151c-1.381,0-2.5-1.119-2.5-2.5s1.119-2.5,2.5-2.5h14.151c1.381,0,2.5,1.119,2.5,2.5
		S182.54,113.606,181.159,113.606z"/>
	<path fill="#F9B087" d="M88.993,113.606H74.841c-1.381,0-2.5-1.119-2.5-2.5s1.119-2.5,2.5-2.5h14.152c1.381,0,2.5,1.119,2.5,2.5
		S90.374,113.606,88.993,113.606z"/>
	<path fill="#F9B087" d="M154.904,86.702c-0.64,0-1.279-0.244-1.768-0.732c-0.977-0.977-0.977-2.559,0-3.535l10.686-10.686
		c0.977-0.977,2.559-0.977,3.535,0s0.977,2.559,0,3.535L156.672,85.97C156.184,86.458,155.544,86.702,154.904,86.702z"/>
	<path fill="#F9B087" d="M90.411,151.195c-0.64,0-1.28-0.244-1.768-0.732c-0.977-0.977-0.977-2.56,0-3.535l8.936-8.936
		c0.976-0.977,2.56-0.977,3.535,0c0.977,0.977,0.977,2.56,0,3.535l-8.936,8.936C91.69,150.951,91.05,151.195,90.411,151.195z"/>
	<path fill="#F9B087" d="M165.59,151.195c-0.64,0-1.279-0.244-1.768-0.732l-9.341-9.341c-0.977-0.977-0.977-2.559,0-3.535
		s2.559-0.977,3.535,0l9.341,9.341c0.977,0.977,0.977,2.559,0,3.535C166.869,150.951,166.229,151.195,165.59,151.195z"/>
	<path fill="#F9B087" d="M101.096,86.702c-0.64,0-1.28-0.244-1.768-0.732L88.643,75.284c-0.977-0.977-0.977-2.56,0-3.535
		c0.976-0.977,2.56-0.977,3.535,0l10.685,10.686c0.977,0.977,0.977,2.56,0,3.535C102.375,86.458,101.735,86.702,101.096,86.702z"/>
	<path fill="#F9B087" d="M211.037,65.81h-1.589c-6.505,0-11.797-5.292-11.797-11.797v-1.589c0-1.381-1.119-2.5-2.5-2.5
		s-2.5,1.119-2.5,2.5v1.589c0,6.505-5.292,11.797-11.797,11.797h-1.589c-1.381,0-2.5,1.119-2.5,2.5s1.119,2.5,2.5,2.5h1.589
		c6.505,0,11.797,5.292,11.797,11.797v1.589c0,1.381,1.119,2.5,2.5,2.5s2.5-1.119,2.5-2.5v-1.589
		c0-6.505,5.292-11.797,11.797-11.797h1.589c1.381,0,2.5-1.119,2.5-2.5S212.418,65.81,211.037,65.81z M195.151,73.798
		c-1.378-2.228-3.261-4.111-5.489-5.489c2.228-1.377,4.111-3.261,5.489-5.489c1.378,2.228,3.261,4.111,5.489,5.489
		C198.412,69.687,196.529,71.57,195.151,73.798z"/>
	<path fill="#F9B087" d="M76.734,65.81h-1.589c-6.505,0-11.797-5.292-11.797-11.797v-1.589c0-1.381-1.119-2.5-2.5-2.5
		s-2.5,1.119-2.5,2.5v1.589c0,6.505-5.292,11.797-11.797,11.797h-1.589c-1.381,0-2.5,1.119-2.5,2.5s1.119,2.5,2.5,2.5h1.589
		c6.505,0,11.797,5.292,11.797,11.797v1.589c0,1.381,1.119,2.5,2.5,2.5s2.5-1.119,2.5-2.5v-1.589
		c0-6.505,5.292-11.797,11.797-11.797h1.589c1.381,0,2.5-1.119,2.5-2.5S78.115,65.81,76.734,65.81z M60.849,73.798
		c-1.378-2.228-3.261-4.111-5.489-5.489c2.228-1.377,4.111-3.261,5.489-5.489c1.378,2.228,3.261,4.111,5.489,5.489
		C64.109,69.687,62.226,71.57,60.849,73.798z"/>
	<path fill="#F9B087" d="M211.037,154.109h-1.589c-6.505,0-11.797-5.292-11.797-11.797v-1.589c0-1.381-1.119-2.5-2.5-2.5
		s-2.5,1.119-2.5,2.5v1.589c0,6.505-5.292,11.797-11.797,11.797h-1.589c-1.381,0-2.5,1.119-2.5,2.5s1.119,2.5,2.5,2.5h1.589
		c6.505,0,11.797,5.292,11.797,11.797v1.589c0,1.381,1.119,2.5,2.5,2.5s2.5-1.119,2.5-2.5v-1.589
		c0-6.505,5.292-11.797,11.797-11.797h1.589c1.381,0,2.5-1.119,2.5-2.5S212.418,154.109,211.037,154.109z M195.151,162.098
		c-1.378-2.228-3.261-4.111-5.489-5.489c2.228-1.377,4.111-3.261,5.489-5.489c1.378,2.228,3.261,4.111,5.489,5.489
		C198.412,157.987,196.529,159.87,195.151,162.098z"/>
	<path fill="#F9B087" d="M76.734,154.109h-1.589c-6.505,0-11.797-5.292-11.797-11.797v-1.589c0-1.381-1.119-2.5-2.5-2.5
		s-2.5,1.119-2.5,2.5v1.589c0,6.505-5.292,11.797-11.797,11.797h-1.589c-1.381,0-2.5,1.119-2.5,2.5s1.119,2.5,2.5,2.5h1.589
		c6.505,0,11.797,5.292,11.797,11.797v1.589c0,1.381,1.119,2.5,2.5,2.5s2.5-1.119,2.5-2.5v-1.589
		c0-6.505,5.292-11.797,11.797-11.797h1.589c1.381,0,2.5-1.119,2.5-2.5S78.115,154.109,76.734,154.109z M60.849,162.098
		c-1.378-2.228-3.261-4.111-5.489-5.489c2.228-1.377,4.111-3.261,5.489-5.489c1.378,2.228,3.261,4.111,5.489,5.489
		C64.109,157.987,62.226,159.87,60.849,162.098z"/>
</g>
</svg>
