<?xml version="1.0" encoding="utf-8"?>
<!-- Generator: Adobe Illustrator 24.0.0, SVG Export Plug-In . SVG Version: 6.00 Build 0)  -->
<svg version="1.1" id="Layer_1" xmlns="http://www.w3.org/2000/svg" xmlns:xlink="http://www.w3.org/1999/xlink" x="0px" y="0px"
	 viewBox="0 0 256 256" enable-background="new 0 0 256 256" xml:space="preserve">
<g>
	<path fill="#65C1D6" d="M102.152,72.21c-10.272-10.85-28.79-11.009-39.243-0.328c-17.603,17.072-5.336,47.636,19.458,47.585
		c6.456,0,12.745-2.264,17.709-6.377c1.063-0.88,1.211-2.456,0.33-3.52s-2.457-1.211-3.52-0.33c-3.425,2.837-7.62,4.601-12.02,5.088
		V92.715l15.266-15.266c3.135,3.903,5.013,8.856,5.013,14.24c0.082,3.295,4.917,3.298,5,0
		C110.145,84.109,107.092,77.228,102.152,72.21z M59.724,94.18h16.608l-11.739,11.739C61.952,102.628,60.205,98.591,59.724,94.18z
		 M64.599,77.451L76.322,89.18H59.726C60.211,84.772,61.959,80.739,64.599,77.451z M79.866,85.651l-11.73-11.736
		c3.289-2.638,7.322-4.384,11.73-4.868V85.651z M79.866,97.715v16.616c-4.412-0.484-8.45-2.233-11.74-4.876L79.866,97.715z
		 M84.866,69.048c4.408,0.483,8.441,2.229,11.729,4.867L84.866,85.645V69.048z"/>
	<path fill="#65C1D6" d="M144.285,111.659c-0.562,0-1.126-0.188-1.593-0.574c-1.063-0.88-1.213-2.456-0.332-3.52l33.376-40.341
		c0.475-0.574,1.181-0.906,1.926-0.906h20.444c1.381,0,2.5,1.119,2.5,2.5s-1.119,2.5-2.5,2.5h-19.268l-32.627,39.435
		C145.718,111.351,145.004,111.659,144.285,111.659z"/>
	<path fill="#EBE7F2" d="M128.827,134.825c-0.582,0-1.166-0.201-1.639-0.613c-1.042-0.905-1.153-2.484-0.247-3.526l14.075-16.196
		c0.906-1.043,2.486-1.152,3.526-0.247c1.042,0.905,1.153,2.484,0.247,3.526l-14.075,16.196
		C130.221,134.534,129.525,134.825,128.827,134.825z"/>
	<path fill="#65C1D6" d="M128,9.903c-12.638,0-22.919,10.282-22.919,22.92S115.362,55.742,128,55.742s22.919-10.281,22.919-22.919
		S140.638,9.903,128,9.903z M128,50.742c-2.514,0-5.229-3.527-6.715-8.997c2.114-0.389,4.382-0.594,6.715-0.594
		c2.335,0,4.603,0.205,6.716,0.593C133.229,47.215,130.514,50.742,128,50.742z M128,36.151c-2.63,0-5.206,0.237-7.632,0.686
		c-0.141-1.282-0.217-2.624-0.217-4.014c0-1.39,0.076-2.732,0.217-4.014c2.424,0.449,5,0.685,7.632,0.685
		c2.63,0,5.206-0.237,7.631-0.686c0.141,1.282,0.217,2.625,0.217,4.015c0,1.39-0.076,2.731-0.217,4.013
		C133.208,36.388,130.632,36.151,128,36.151z M110.081,32.823c0-2.482,0.507-4.848,1.424-7c1.206,0.653,2.536,1.226,3.962,1.714
		c-0.207,1.687-0.315,3.454-0.315,5.285s0.109,3.599,0.315,5.285c-1.426,0.488-2.756,1.062-3.962,1.714
		C110.588,37.671,110.081,35.305,110.081,32.823z M128,14.903c2.513,0,5.229,3.527,6.715,8.997
		c-2.114,0.388-4.382,0.594-6.715,0.594c-2.335,0-4.603-0.205-6.715-0.593C122.771,18.431,125.486,14.903,128,14.903z
		 M140.533,27.538c1.426-0.488,2.756-1.062,3.962-1.714c0.916,2.151,1.424,4.517,1.424,7c0,2.482-0.507,4.848-1.424,6.999
		c-1.206-0.653-2.536-1.226-3.962-1.715c0.207-1.686,0.315-3.454,0.315-5.284C140.849,30.992,140.74,29.224,140.533,27.538z
		 M141.909,21.538c-0.721,0.379-1.498,0.725-2.324,1.037c-0.452-1.697-1.016-3.264-1.678-4.677
		C139.417,18.904,140.767,20.133,141.909,21.538z M118.094,17.898c-0.662,1.413-1.227,2.981-1.679,4.677
		c-0.826-0.311-1.603-0.657-2.324-1.037C115.233,20.133,116.583,18.904,118.094,17.898z M114.091,44.109
		c0.721-0.38,1.498-0.726,2.324-1.037c0.452,1.696,1.017,3.264,1.678,4.677C116.583,46.742,115.233,45.513,114.091,44.109z
		 M137.907,47.748c0.662-1.413,1.226-2.981,1.679-4.678c0.826,0.312,1.603,0.658,2.324,1.037
		C140.768,45.513,139.417,46.742,137.907,47.748z"/>
	<g>
		<path fill="#846F75" d="M225.101,25.414h-66.956c-3.282,0.096-3.316,4.901,0,5c0,0,66.956,0,66.956,0
			c4.535,0,8.225,3.689,8.225,8.225v142.923c0,4.535-3.689,8.225-8.225,8.225h-36.523v-24.613l25.858-31.254
			c1.354-1.536,0.13-4.162-1.926-4.094c0,0-52.865,0-52.865,0c-0.969,0-1.85,0.56-2.262,1.436c-0.413,0.876-0.282,1.912,0.336,2.658
			l25.858,31.254v24.613h-47.063v-49.131l39.194-47.372c1.35-1.535,0.133-4.162-1.926-4.094c0,0-91.417,0-91.417,0
			c-0.969,0-1.85,0.56-2.262,1.436c-0.413,0.876-0.282,1.912,0.336,2.658l39.193,47.372v49.131H72.423v-24.613l25.858-31.254
			c1.354-1.536,0.13-4.162-1.926-4.094c0,0-52.865,0-52.865,0c-0.969,0-1.85,0.56-2.262,1.436c-0.413,0.876-0.282,1.912,0.336,2.658
			l25.858,31.254v24.613H30.899c-4.535,0-8.225-3.689-8.225-8.225V38.639c0-4.535,3.689-8.225,8.225-8.225h66.682
			c3.277-0.052,3.305-4.931,0-5c0,0-66.682,0-66.682,0c-7.292,0-13.225,5.933-13.225,13.225v142.923
			c0,7.292,5.933,13.225,13.225,13.225h194.201c7.292,0,13.225-5.933,13.225-13.225V38.639
			C238.325,31.347,232.393,25.414,225.101,25.414z M207.196,134.825l-21.119,25.526l-21.119-25.526H207.196z M91.042,134.825
			l-21.119,25.526l-21.119-25.526H91.042z M168.47,94.189l-10.686,12.915c-0.47-0.114-58.962,0-59.452-0.039L87.68,94.189H168.47z
			 M124.06,138.161l-21.59-26.096h51.21l-21.591,26.096c-0.371,0.448-0.574,1.012-0.574,1.594v50.031h-6.881v-50.031
			C124.634,139.173,124.431,138.609,124.06,138.161z"/>
		<path fill="#846F75" d="M169.635,219.809h-14.114v-17.522c0-1.381-1.119-2.5-2.5-2.5s-2.5,1.119-2.5,2.5v17.522h-45.041v-17.522
			c0-1.381-1.119-2.5-2.5-2.5s-2.5,1.119-2.5,2.5v17.522H86.365c-5.729,0-10.389,4.66-10.389,10.389s4.66,10.389,10.389,10.389
			h83.27c5.729,0,10.389-4.66,10.389-10.389S175.363,219.809,169.635,219.809z M169.635,235.586h-83.27
			c-2.972,0-5.389-2.417-5.389-5.389s2.417-5.389,5.389-5.389h83.27c2.972,0,5.389,2.417,5.389,5.389
			S172.606,235.586,169.635,235.586z"/>
	</g>
</g>
</svg>
