<?xml version="1.0" encoding="utf-8"?>
<!-- Generator: Adobe Illustrator 24.0.0, SVG Export Plug-In . SVG Version: 6.00 Build 0)  -->
<svg version="1.1" id="Layer_1" xmlns="http://www.w3.org/2000/svg" xmlns:xlink="http://www.w3.org/1999/xlink" x="0px" y="0px"
	 viewBox="0 0 256 256" enable-background="new 0 0 256 256" xml:space="preserve">
<g>
	<path fill="#EBE7F2" d="M118.694,240.297c-0.64,0-1.28-0.244-1.768-0.732c-0.977-0.977-0.977-2.559,0-3.535l26.335-26.336
		c0.976-0.977,2.56-0.977,3.535,0c0.977,0.977,0.977,2.559,0,3.535l-26.335,26.336C119.974,240.053,119.334,240.297,118.694,240.297
		z"/>
	<path fill="#EBE7F2" d="M110.389,231.991c-0.64,0-1.28-0.244-1.768-0.732c-0.977-0.977-0.977-2.559,0-3.535l26.335-26.336
		c0.976-0.977,2.56-0.977,3.535,0c0.977,0.977,0.977,2.559,0,3.535l-26.335,26.336C111.668,231.747,111.028,231.991,110.389,231.991
		z"/>
	<path fill="#65C1D6" d="M54.447,166.791c-10.795,0-19.578-8.782-19.578-19.578c0-10.795,8.783-19.577,19.578-19.577
		c10.795,0,19.578,8.782,19.578,19.577c0,1.381-1.119,2.5-2.5,2.5s-2.5-1.119-2.5-2.5c0-8.038-6.54-14.577-14.578-14.577
		c-8.039,0-14.578,6.539-14.578,14.577s6.54,14.578,14.578,14.578c1.381,0,2.5,1.119,2.5,2.5S55.828,166.791,54.447,166.791z"/>
	<path fill="#65C1D6" d="M201.553,166.791c-1.381,0-2.5-1.119-2.5-2.5s1.119-2.5,2.5-2.5c8.039,0,14.578-6.54,14.578-14.578
		s-6.54-14.577-14.578-14.577c-8.038,0-14.578,6.539-14.578,14.577c0,1.381-1.119,2.5-2.5,2.5s-2.5-1.119-2.5-2.5
		c0-10.795,8.783-19.577,19.578-19.577c10.795,0,19.578,8.782,19.578,19.577C221.131,158.009,212.349,166.791,201.553,166.791z"/>
	<path fill="#65C1D6" d="M160.314,143.573h-15.449c-1.381,0-2.5-1.119-2.5-2.5s1.119-2.5,2.5-2.5h12.949v-42.52
		c0-5.098-4.147-9.244-9.244-9.244h-12.209c-1.154,0-2.158-0.79-2.43-1.911s0.259-2.283,1.285-2.812
		c5.447-2.806,8.805-8.579,8.554-14.707c-0.324-7.907-6.753-14.53-14.636-15.078c-4.439-0.305-8.664,1.184-11.897,4.2
		c-3.236,3.021-5.019,7.12-5.019,11.544c0,5.939,3.283,11.319,8.567,14.041c1.026,0.528,1.557,1.69,1.285,2.812
		s-1.276,1.911-2.43,1.911H107.43c-5.097,0-9.244,4.146-9.244,9.244v42.52h12.949c1.381,0,2.5,1.119,2.5,2.5s-1.119,2.5-2.5,2.5
		H95.686c-1.381,0-2.5-1.119-2.5-2.5v-45.02c0-7.854,6.39-14.244,14.244-14.244h4.982c-3.3-3.729-5.195-8.585-5.195-13.764
		c0-5.741,2.409-11.281,6.608-15.199c4.258-3.974,9.809-5.94,15.655-5.533c10.561,0.734,18.852,9.273,19.286,19.861
		c0.223,5.443-1.718,10.674-5.208,14.635h5.012c7.854,0,14.244,6.39,14.244,14.244v45.02
		C162.814,142.454,161.695,143.573,160.314,143.573z"/>
	<path fill="#65C1D6" d="M196.878,122.6c-1.381,0-2.5-1.119-2.5-2.5V87.415c0-3.913-3.184-7.097-7.097-7.097h-9.976
		c-1.154,0-2.158-0.79-2.43-1.911s0.259-2.283,1.285-2.812c4.293-2.211,6.94-6.762,6.742-11.592
		c-0.255-6.231-5.322-11.451-11.534-11.883c-3.498-0.252-6.83,0.933-9.378,3.311c-2.551,2.38-3.956,5.611-3.956,9.098
		c0,4.682,2.587,8.922,6.752,11.066c1.026,0.528,1.557,1.69,1.285,2.812s-1.276,1.911-2.43,1.911h-9.977c-1.381,0-2.5-1.119-2.5-2.5
		s1.119-2.5,2.5-2.5h3.093c-2.376-3.016-3.725-6.787-3.725-10.789c0-4.817,2.021-9.466,5.545-12.754
		c3.574-3.334,8.238-4.984,13.136-4.643c8.862,0.616,15.819,7.781,16.184,16.666c0.173,4.228-1.209,8.301-3.737,11.52h3.12
		c6.67,0,12.097,5.427,12.097,12.097V120.1C199.378,121.48,198.259,122.6,196.878,122.6z"/>
	<path fill="#65C1D6" d="M59.122,122.6c-1.381,0-2.5-1.119-2.5-2.5V87.415c0-6.67,5.427-12.097,12.097-12.097h3.12
		c-2.528-3.219-3.91-7.292-3.737-11.52c0.364-8.885,7.322-16.05,16.184-16.666c4.895-0.343,9.562,1.309,13.136,4.643
		c3.524,3.288,5.545,7.937,5.545,12.754c0,4.002-1.349,7.773-3.725,10.789h3.093c1.381,0,2.5,1.119,2.5,2.5s-1.119,2.5-2.5,2.5
		h-9.977c-1.154,0-2.158-0.79-2.43-1.911s0.259-2.283,1.285-2.812c4.165-2.145,6.752-6.385,6.752-11.066
		c0-3.486-1.405-6.718-3.956-9.098c-2.548-2.378-5.879-3.559-9.378-3.311c-6.212,0.432-11.279,5.651-11.534,11.883
		c-0.198,4.83,2.448,9.381,6.742,11.592c1.025,0.528,1.557,1.69,1.285,2.812s-1.276,1.911-2.43,1.911h-9.976
		c-3.913,0-7.097,3.184-7.097,7.097V120.1C61.622,121.48,60.503,122.6,59.122,122.6z"/>
	<g>
		<path fill="#846F75" d="M242.643,6.803c-0.714-0.46-1.612-0.528-2.385-0.178c-74.489,33.617-150.027,33.617-224.517,0
			c-0.772-0.349-1.67-0.282-2.385,0.178c-0.713,0.461-1.144,1.252-1.144,2.101v177.158c0,0.849,0.431,1.64,1.144,2.1
			c0.713,0.462,1.611,0.527,2.385,0.179c9.778-4.412,19.789-8.326,29.752-11.632c1.311-0.436,2.021-1.85,1.585-3.16
			c-0.435-1.312-1.85-2.015-3.16-1.586c-8.932,2.964-17.898,6.407-26.706,10.254V12.749C53.981,28.822,91.233,36.968,128,36.968
			c36.766,0,74.019-8.146,110.787-24.219v169.467c-8.807-3.847-17.773-7.29-26.706-10.254c-1.309-0.434-2.725,0.274-3.16,1.586
			c-0.435,1.311,0.275,2.725,1.585,3.16c9.965,3.307,19.975,7.22,29.752,11.632c0.328,0.148,0.679,0.222,1.028,0.222
			c0.474,0,0.946-0.135,1.356-0.399c0.713-0.461,1.144-1.252,1.144-2.101V8.903C243.787,8.055,243.356,7.264,242.643,6.803z"/>
		<path fill="#846F75" d="M83.867,146.763c-0.938-0.938-2.598-0.938-3.535,0l-26.335,26.336c-0.977,0.977-0.977,2.559,0,3.535
			l72.23,72.23c0.469,0.469,1.104,0.732,1.768,0.732s1.299-0.264,1.768-0.732l26.335-26.336c0.977-0.977,0.977-2.559,0-3.535
			L83.867,146.763z M127.995,243.562L59.3,174.866l22.8-22.801l68.695,68.695L127.995,243.562z"/>
		<path fill="#846F75" d="M76.847,184.09c1.996,1.996,4.617,2.994,7.238,2.994s5.243-0.998,7.238-2.994
			c3.992-3.991,3.992-10.485,0-14.477c-3.991-3.992-10.485-3.992-14.477,0C72.855,173.604,72.855,180.099,76.847,184.09z
			 M80.382,173.148c1.021-1.021,2.362-1.531,3.703-1.531s2.682,0.511,3.703,1.531c2.042,2.042,2.042,5.364,0,7.406
			c-2.042,2.041-5.364,2.041-7.406,0C78.34,178.513,78.34,175.19,80.382,173.148z"/>
		<path fill="#846F75" d="M94.432,201.675c1.996,1.996,4.617,2.994,7.238,2.994c2.621-0.001,5.243-0.998,7.238-2.994
			c1.934-1.934,2.999-4.504,2.999-7.238s-1.065-5.305-2.999-7.238c-3.991-3.992-10.485-3.992-14.477,0
			C90.44,191.189,90.44,197.684,94.432,201.675z M97.967,190.733c1.021-1.021,2.362-1.531,3.703-1.531s2.682,0.511,3.703,1.531
			c0.989,0.989,1.534,2.305,1.534,3.703s-0.545,2.714-1.534,3.703c-2.042,2.041-5.364,2.041-7.406,0
			C95.925,196.098,95.925,192.775,97.967,190.733z"/>
		<path fill="#846F75" d="M175.668,146.763c-0.938-0.938-2.598-0.938-3.535,0l-39.741,39.741c-0.977,0.977-0.977,2.559,0,3.535
			c0.976,0.977,2.56,0.977,3.535,0l37.973-37.974l22.8,22.801l-37.725,37.725c-0.977,0.977-0.977,2.559,0,3.535
			c0.488,0.488,1.128,0.732,1.768,0.732s1.28-0.244,1.768-0.732l39.493-39.492c0.977-0.977,0.977-2.559,0-3.535L175.668,146.763z"/>
		<path fill="#846F75" d="M171.915,187.084c2.622,0,5.243-0.998,7.238-2.994c3.992-3.991,3.992-10.485,0-14.477
			c-3.991-3.992-10.485-3.992-14.477,0c-3.992,3.991-3.992,10.485,0,14.477C166.672,186.086,169.293,187.084,171.915,187.084z
			 M168.212,173.148c1.021-1.021,2.362-1.531,3.703-1.531s2.682,0.511,3.703,1.531c2.042,2.042,2.042,5.364,0,7.406
			c-2.042,2.041-5.364,2.041-7.406,0C166.17,178.513,166.17,175.19,168.212,173.148z"/>
		<path fill="#846F75" d="M147.092,187.198c-1.934,1.934-2.999,4.504-2.999,7.238s1.065,5.305,2.999,7.238
			c1.996,1.996,4.617,2.994,7.238,2.994s5.243-0.998,7.238-2.994c3.992-3.991,3.992-10.485,0-14.477
			C157.577,183.206,151.083,183.206,147.092,187.198z M158.033,198.14c-2.042,2.04-5.364,2.042-7.406,0
			c-0.989-0.989-1.534-2.305-1.534-3.703s0.545-2.714,1.534-3.703c1.021-1.021,2.362-1.531,3.703-1.531s2.682,0.511,3.703,1.531
			C160.075,192.775,160.075,196.098,158.033,198.14z"/>
		<path fill="#846F75" d="M137.366,111.66h6.314c1.011,0,1.923-0.609,2.31-1.543c0.387-0.935,0.173-2.01-0.542-2.725l-15.68-15.681
			c-0.938-0.938-2.598-0.938-3.535,0l-15.68,15.681c-0.715,0.715-0.929,1.79-0.542,2.725c0.387,0.934,1.298,1.543,2.31,1.543h6.314
			v34.901c0,1.381,1.119,2.5,2.5,2.5h13.731c1.381,0,2.5-1.119,2.5-2.5V111.66z M134.866,106.66c-1.381,0-2.5,1.119-2.5,2.5v34.901
			h-8.731V109.16c0-1.381-1.119-2.5-2.5-2.5h-2.779L128,97.015l9.645,9.646H134.866z"/>
		<path fill="#846F75" d="M134.866,152.818h-13.731c-1.381,0-2.5,1.119-2.5,2.5v11.684c0,1.381,1.119,2.5,2.5,2.5h13.731
			c1.381,0,2.5-1.119,2.5-2.5v-11.684C137.366,153.938,136.247,152.818,134.866,152.818z M132.366,164.502h-8.731v-6.684h8.731
			V164.502z"/>
		<path fill="#846F75" d="M79.133,132.6c1.381,0,2.5-1.119,2.5-2.5v-29.881l3.664,3.664c0.488,0.488,1.128,0.732,1.768,0.732
			s1.28-0.244,1.768-0.732c0.977-0.977,0.977-2.559,0-3.535L80.9,92.416c-0.976-0.977-2.56-0.977-3.535,0l-7.932,7.932
			c-0.977,0.977-0.977,2.559,0,3.535c0.976,0.977,2.56,0.977,3.535,0l3.664-3.664V130.1C76.633,131.48,77.752,132.6,79.133,132.6z"
			/>
		<path fill="#846F75" d="M176.867,132.6c1.381,0,2.5-1.119,2.5-2.5v-29.881l3.664,3.664c0.488,0.488,1.128,0.732,1.768,0.732
			s1.28-0.244,1.768-0.732c0.977-0.977,0.977-2.559,0-3.535l-7.932-7.932c-0.976-0.977-2.56-0.977-3.535,0l-7.932,7.932
			c-0.977,0.977-0.977,2.559,0,3.535c0.976,0.977,2.56,0.977,3.535,0l3.664-3.664V130.1C174.367,131.48,175.486,132.6,176.867,132.6
			z"/>
	</g>
</g>
</svg>
