<?xml version="1.0" encoding="utf-8"?>
<!-- Generator: Adobe Illustrator 24.0.0, SVG Export Plug-In . SVG Version: 6.00 Build 0)  -->
<svg version="1.1" id="Layer_1" xmlns="http://www.w3.org/2000/svg" xmlns:xlink="http://www.w3.org/1999/xlink" x="0px" y="0px"
	 viewBox="0 0 256 256" enable-background="new 0 0 256 256" xml:space="preserve">
<g>
	<path fill="#EBE7F2" d="M193.067,180.044c-1.381,0-2.5-1.119-2.5-2.5v-56.971c0-1.381,1.119-2.5,2.5-2.5s2.5,1.119,2.5,2.5v56.971
		C195.567,178.925,194.448,180.044,193.067,180.044z"/>
	<path fill="#EBE7F2" d="M62.933,180.044c-1.381,0-2.5-1.119-2.5-2.5v-56.971c0-1.381,1.119-2.5,2.5-2.5s2.5,1.119,2.5,2.5v56.971
		C65.433,178.925,64.313,180.044,62.933,180.044z"/>
	<path fill="#846F75" d="M218.657,104.846h-7.696c4.86-4.934,7.608-11.761,7.316-18.885c-0.528-12.914-10.639-23.326-23.519-24.221
		c-7.111-0.493-13.898,1.901-19.093,6.747c-5.122,4.779-8.06,11.535-8.06,18.537c0,6.807,2.685,13.156,7.308,17.823h-7.665
		c-1.381,0-2.5,1.119-2.5,2.5s1.119,2.5,2.5,2.5h15.257c1.154,0,2.158-0.79,2.43-1.911c0.271-1.121-0.259-2.283-1.285-2.812
		c-6.813-3.509-11.044-10.445-11.044-18.1c0-5.704,2.298-10.988,6.471-14.881c4.169-3.889,9.611-5.814,15.336-5.415
		c10.163,0.706,18.451,9.244,18.868,19.438c0.324,7.899-4.004,15.341-11.025,18.958c-1.026,0.529-1.557,1.69-1.285,2.812
		c0.271,1.122,1.275,1.911,2.43,1.911h15.257c6.714,0,12.176,5.462,12.176,12.176v53.754h-50.915v-40.544
		c0-11.282-9.179-20.46-20.461-20.46h-10.798c6.452-5.985,10.145-14.617,9.774-23.649c-0.625-15.264-13.039-28.049-28.263-29.107
		c-8.556-0.596-16.703,2.285-22.945,8.108c-6.155,5.743-9.686,13.862-9.686,22.277c0,8.653,3.611,16.692,9.77,22.371H96.543
		c-11.282,0-20.461,9.179-20.461,20.46v40.544H25.167v-53.754c0-6.714,5.462-12.176,12.176-12.176H52.6
		c1.154,0,2.158-0.79,2.43-1.911c0.271-1.121-0.259-2.283-1.285-2.812c-7.021-3.617-11.35-11.059-11.025-18.958
		c0.417-10.193,8.705-18.731,18.868-19.437c5.72-0.399,11.167,1.525,15.336,5.415c4.173,3.893,6.471,9.177,6.471,14.881
		c0,7.655-4.231,14.591-11.044,18.1c-1.026,0.528-1.557,1.69-1.285,2.812c0.271,1.122,1.275,1.911,2.43,1.911h15.257
		c1.381,0,2.5-1.119,2.5-2.5s-1.119-2.5-2.5-2.5h-7.665c4.623-4.667,7.308-11.016,7.308-17.823c0-7.002-2.938-13.758-8.06-18.537
		c-5.195-4.845-11.986-7.243-19.093-6.747c-12.88,0.895-22.99,11.308-23.519,24.221c-0.292,7.125,2.456,13.952,7.316,18.886h-7.696
		c-9.471,0-17.176,7.705-17.176,17.176v56.254c0,1.381,1.119,2.5,2.5,2.5h53.415v23.302c0,1.381,1.119,2.5,2.5,2.5h18.813
		c1.381,0,2.5-1.119,2.5-2.5s-1.119-2.5-2.5-2.5H81.082v-66.346c0-8.525,6.936-15.46,15.461-15.46h18.671
		c1.154,0,2.158-0.79,2.43-1.911c0.271-1.121-0.259-2.283-1.285-2.812c-8.523-4.391-13.818-13.069-13.818-22.648
		c0-7.034,2.951-13.82,8.097-18.621c5.217-4.867,12.033-7.27,19.188-6.775c12.719,0.883,23.091,11.567,23.612,24.323
		c0.406,9.885-5.01,19.196-13.796,23.722c-1.026,0.528-1.557,1.69-1.285,2.812c0.271,1.122,1.275,1.911,2.43,1.911h18.671
		c8.525,0,15.461,6.936,15.461,15.46v66.346h-15.677c-1.381,0-2.5,1.119-2.5,2.5s1.119,2.5,2.5,2.5h18.177
		c1.381,0,2.5-1.119,2.5-2.5v-23.302h53.415c1.381,0,2.5-1.119,2.5-2.5v-56.254C235.833,112.551,228.128,104.846,218.657,104.846z"
		/>
	<path fill="#A58BC9" d="M226.024,228.524H29.976c-1.381,0-2.5-1.119-2.5-2.5v-37.748c0-1.381,1.119-2.5,2.5-2.5s2.5,1.119,2.5,2.5
		v35.248h191.049v-35.248c0-1.381,1.119-2.5,2.5-2.5s2.5,1.119,2.5,2.5v37.748C228.524,227.405,227.405,228.524,226.024,228.524z"/>
	<path fill="#A58BC9" d="M29.976,101.83c-1.381,0-2.5-1.119-2.5-2.5V29.976c0-1.381,1.119-2.5,2.5-2.5h196.049
		c1.381,0,2.5,1.119,2.5,2.5v69.353c0,1.381-1.119,2.5-2.5,2.5s-2.5-1.119-2.5-2.5V32.476H32.476V99.33
		C32.476,100.71,31.356,101.83,29.976,101.83z"/>
	<g>
		<path fill="#A58BC9" d="M162.673,138.307h-9.027v-2.923c0-1.381-1.119-2.5-2.5-2.5h-46.291c-1.381,0-2.5,1.119-2.5,2.5v2.923
			h-9.027c-3.06,0-5.549,2.489-5.549,5.548v6.182c0,8.663,6.489,15.823,14.859,16.915c1.387,9.31,7.795,16.999,16.373,20.221v14.413
			h-9.615c-4.133,0-7.495,3.362-7.495,7.494s3.362,7.495,7.495,7.495h37.211c4.133,0,7.495-3.362,7.495-7.495
			s-3.362-7.494-7.495-7.494h-9.615v-14.413c8.578-3.222,14.986-10.911,16.373-20.221c8.37-1.093,14.859-8.253,14.859-16.915v-6.182
			C168.222,140.795,165.732,138.307,162.673,138.307z M92.778,150.037v-6.182c0-0.302,0.246-0.548,0.549-0.548h9.027v18.543
			C96.892,160.694,92.778,155.838,92.778,150.037z M149.101,209.08c0,1.375-1.119,2.495-2.495,2.495h-37.211
			c-1.376,0-2.495-1.119-2.495-2.495s1.119-2.494,2.495-2.494h37.211C147.981,206.586,149.101,207.705,149.101,209.08z
			 M131.99,201.586h-7.98v-13.095c1.301,0.204,2.633,0.312,3.99,0.312s2.689-0.108,3.99-0.312V201.586z M128,183.803
			c-11.384,0-20.646-9.261-20.646-20.645v-25.274h41.291v25.274C148.646,174.542,139.384,183.803,128,183.803z M163.222,150.037
			c0,5.801-4.113,10.658-9.576,11.813v-18.543h9.027c0.303,0,0.549,0.246,0.549,0.548V150.037z"/>
		<path fill="#A58BC9" d="M138.367,152.385h-4.747l-1.467-4.514c-0.587-1.805-2.256-3.018-4.153-3.018
			c-1.898,0-3.567,1.213-4.153,3.018l-1.467,4.514h-4.747c-1.897,0-3.566,1.213-4.152,3.018c-0.587,1.805,0.051,3.767,1.586,4.882
			l3.841,2.791l-1.468,4.515c-0.586,1.805,0.052,3.767,1.587,4.882c1.536,1.117,3.6,1.115,5.134,0l3.84-2.791l3.84,2.791
			c0.768,0.558,1.667,0.837,2.567,0.837c0.899,0,1.799-0.279,2.566-0.837c1.535-1.115,2.173-3.077,1.587-4.882l-1.468-4.515
			l3.84-2.79c1.536-1.115,2.174-3.077,1.587-4.882C141.934,153.598,140.265,152.385,138.367,152.385z M133.782,159.3
			c-1.535,1.116-2.173,3.079-1.587,4.882l1.007,3.099l-2.635-1.915c-0.768-0.558-1.668-0.837-2.567-0.837s-1.8,0.279-2.567,0.837
			l-2.635,1.915l1.007-3.098c0.586-1.804-0.052-3.767-1.587-4.883l-2.636-1.915h3.258c1.897,0,3.566-1.212,4.153-3.017l1.007-3.099
			l1.007,3.1c0.587,1.804,2.256,3.017,4.153,3.017h3.258L133.782,159.3z"/>
	</g>
</g>
</svg>
