<?xml version="1.0" encoding="utf-8"?>
<!-- Generator: Adobe Illustrator 24.0.0, SVG Export Plug-In . SVG Version: 6.00 Build 0)  -->
<svg version="1.1" id="Layer_1" xmlns="http://www.w3.org/2000/svg" xmlns:xlink="http://www.w3.org/1999/xlink" x="0px" y="0px"
	 viewBox="0 0 256 256" enable-background="new 0 0 256 256" xml:space="preserve">
<g>
	<path fill="#F9B087" d="M93.592,82.819H31.444c-1.381,0-2.5-1.119-2.5-2.5s1.119-2.5,2.5-2.5h62.148c1.381,0,2.5,1.119,2.5,2.5
		S94.973,82.819,93.592,82.819z"/>
	<path fill="#F9B087" d="M93.592,97.867H31.444c-1.381,0-2.5-1.119-2.5-2.5s1.119-2.5,2.5-2.5h62.148c1.381,0,2.5,1.119,2.5,2.5
		S94.973,97.867,93.592,97.867z"/>
	<path fill="#F9B087" d="M62.518,70.988c-9.376,0-17.004-7.628-17.004-17.004c0-1.381,1.119-2.5,2.5-2.5s2.5,1.119,2.5,2.5
		c0,6.619,5.385,12.004,12.004,12.004c6.619,0,12.003-5.385,12.003-12.004c0-1.381,1.119-2.5,2.5-2.5s2.5,1.119,2.5,2.5
		C79.521,63.36,71.894,70.988,62.518,70.988z"/>
	<path fill="#F9B087" d="M162.408,205.235H130.5v-12.092c0-1.381-1.119-2.5-2.5-2.5s-2.5,1.119-2.5,2.5v12.092H93.592
		c-1.381,0-2.5,1.119-2.5,2.5s1.119,2.5,2.5,2.5h68.816c1.381,0,2.5-1.119,2.5-2.5S163.789,205.235,162.408,205.235z"/>
	<path fill="#F9B087" d="M162.408,82.47H93.592c-1.381,0-2.5,1.119-2.5,2.5s1.119,2.5,2.5,2.5H125.5v9.62c0,1.381,1.119,2.5,2.5,2.5
		s2.5-1.119,2.5-2.5v-9.62h31.908c1.381,0,2.5-1.119,2.5-2.5S163.789,82.47,162.408,82.47z"/>
	<path fill="#F9B087" d="M72.605,178.894c-0.792-1.132-2.351-1.405-3.482-0.614l-6.605,4.626l-6.606-4.626
		c-1.13-0.792-2.69-0.518-3.482,0.614c-0.792,1.131-0.517,2.69,0.614,3.482l6.738,4.719l-5.796,33.178
		c-0.142,0.814,0.127,1.646,0.719,2.222l6.07,5.908c0.485,0.472,1.114,0.708,1.744,0.708s1.259-0.236,1.744-0.708l6.069-5.908
		c0.592-0.576,0.861-1.408,0.719-2.222l-5.796-33.178l6.737-4.719C73.123,181.583,73.397,180.024,72.605,178.894z M62.518,223.122
		l-3.38-3.29l3.38-19.346l3.379,19.346L62.518,223.122z"/>
	<path fill="#F9B087" d="M213.52,207.495h-9.117c-1.381,0-2.5-1.119-2.5-2.5s1.119-2.5,2.5-2.5h9.117c1.381,0,2.5,1.119,2.5,2.5
		S214.901,207.495,213.52,207.495z"/>
	<path fill="#F9B087" d="M202.696,178.121c-1.218-0.648-2.733-0.186-3.381,1.033l-5.833,10.963l-5.833-10.963
		c-0.649-1.22-2.165-1.682-3.381-1.033c-1.219,0.648-1.681,2.162-1.033,3.381l7.747,14.561v37.972c0,1.381,1.119,2.5,2.5,2.5
		s2.5-1.119,2.5-2.5v-37.972l7.747-14.561C204.377,180.283,203.915,178.769,202.696,178.121z"/>
	<path fill="#F9B087" d="M203.57,52.55c-0.792-1.131-2.352-1.404-3.482-0.614l-6.606,4.626l-6.605-4.626
		c-1.13-0.791-2.689-0.518-3.482,0.614c-0.792,1.131-0.517,2.689,0.614,3.482l6.737,4.719l-5.796,33.178
		c-0.142,0.814,0.127,1.646,0.719,2.222l6.069,5.908c0.485,0.472,1.114,0.708,1.744,0.708c0.629,0,1.258-0.236,1.744-0.708
		l6.07-5.908c0.592-0.576,0.861-1.408,0.719-2.222l-5.796-33.178l6.738-4.719C204.087,55.24,204.362,53.681,203.57,52.55z
		 M193.482,96.778l-3.379-3.29l3.379-19.346l3.38,19.346L193.482,96.778z"/>
	<g>
		<path fill="#846F75" d="M82.298,177.828h-4.609c3.284-3.807,5.104-8.794,4.893-13.98c-0.419-10.231-8.43-18.481-18.635-19.19
			c-5.636-0.391-11.011,1.506-15.125,5.345c-4.058,3.786-6.385,9.139-6.385,14.686c0,4.93,1.778,9.557,4.88,13.139h-4.579
			c-7.606,0-13.794,6.188-13.794,13.793v43.291c0,1.381,1.119,2.5,2.5,2.5h62.148c1.381,0,2.5-1.119,2.5-2.5v-43.291
			C96.092,184.015,89.904,177.828,82.298,177.828z M91.092,232.412H33.944v-40.791c0-4.849,3.945-8.793,8.794-8.793h11.74
			c1.154,0,2.158-0.79,2.43-1.911c0.272-1.121-0.259-2.283-1.285-2.812c-5.049-2.601-8.186-7.742-8.186-13.417
			c0-4.228,1.703-8.145,4.796-11.03c3.09-2.883,7.125-4.311,11.368-4.013c7.533,0.523,13.676,6.851,13.985,14.406
			c0.24,5.856-2.968,11.372-8.173,14.053c-1.025,0.529-1.557,1.69-1.285,2.812c0.272,1.122,1.276,1.911,2.43,1.911h11.741
			c4.849,0,8.793,3.945,8.793,8.793V232.412z"/>
		<path fill="#846F75" d="M213.262,177.828h-4.608c3.284-3.807,5.104-8.794,4.893-13.98c-0.419-10.231-8.431-18.481-18.635-19.19
			c-5.637-0.391-11.01,1.506-15.125,5.345c-4.058,3.786-6.385,9.139-6.385,14.686c0,4.93,1.778,9.557,4.88,13.139h-4.58
			c-7.606,0-13.793,6.188-13.793,13.793v43.291c0,1.381,1.119,2.5,2.5,2.5h62.148c1.381,0,2.5-1.119,2.5-2.5v-43.291
			C227.056,184.015,220.868,177.828,213.262,177.828z M222.056,232.412h-57.148v-40.791c0-4.849,3.945-8.793,8.793-8.793h11.741
			c1.154,0,2.158-0.79,2.43-1.911c0.272-1.121-0.259-2.283-1.285-2.812c-5.049-2.601-8.186-7.742-8.186-13.417
			c0-4.228,1.703-8.145,4.796-11.03c3.09-2.883,7.125-4.311,11.368-4.013c7.533,0.523,13.676,6.851,13.985,14.406
			c0.24,5.856-2.968,11.372-8.173,14.053c-1.025,0.529-1.557,1.69-1.285,2.812c0.272,1.122,1.276,1.911,2.43,1.911h11.74
			c4.849,0,8.794,3.945,8.794,8.793V232.412z"/>
		<path fill="#846F75" d="M31.444,111.067h62.148c1.381,0,2.5-1.119,2.5-2.5v-43.29c0-7.606-6.188-13.793-13.793-13.793h-4.609
			c3.284-3.808,5.104-8.794,4.893-13.98c-0.419-10.231-8.43-18.481-18.635-19.19c-5.645-0.396-11.011,1.507-15.125,5.346
			c-4.058,3.786-6.385,9.139-6.385,14.686c0,4.93,1.777,9.557,4.88,13.139h-4.579c-7.606,0-13.794,6.188-13.794,13.793v43.29
			C28.944,109.948,30.063,111.067,31.444,111.067z M33.944,65.277c0-4.849,3.945-8.793,8.794-8.793h11.74
			c1.154,0,2.158-0.79,2.43-1.911c0.272-1.121-0.259-2.283-1.285-2.812c-5.05-2.601-8.187-7.742-8.187-13.417
			c0-4.228,1.703-8.145,4.796-11.03c3.09-2.883,7.125-4.306,11.368-4.014c7.533,0.523,13.676,6.852,13.985,14.406
			c0.24,5.856-2.968,11.373-8.173,14.054c-1.025,0.529-1.557,1.69-1.285,2.812c0.272,1.122,1.276,1.911,2.43,1.911h11.741
			c4.849,0,8.793,3.945,8.793,8.793v40.79H33.944V65.277z"/>
		<path fill="#846F75" d="M213.262,51.484h-4.608c3.284-3.808,5.104-8.794,4.893-13.981c-0.419-10.23-8.431-18.48-18.635-19.19
			c-5.643-0.396-11.011,1.507-15.125,5.346c-4.058,3.786-6.385,9.139-6.385,14.686c0,4.93,1.777,9.557,4.88,13.139h-4.58
			c-7.606,0-13.793,6.188-13.793,13.793v43.29c0,1.381,1.119,2.5,2.5,2.5h62.148c1.381,0,2.5-1.119,2.5-2.5v-43.29
			C227.056,57.671,220.868,51.484,213.262,51.484z M222.056,106.067h-57.148v-40.79c0-4.849,3.945-8.793,8.793-8.793h11.741
			c1.154,0,2.158-0.79,2.43-1.911c0.272-1.121-0.259-2.283-1.285-2.812c-5.05-2.601-8.187-7.742-8.187-13.417
			c0-4.228,1.703-8.145,4.796-11.03c3.09-2.883,7.125-4.306,11.368-4.014c7.533,0.523,13.676,6.852,13.985,14.406
			c0.24,5.856-2.968,11.373-8.173,14.054c-1.025,0.529-1.557,1.69-1.285,2.812c0.272,1.122,1.276,1.911,2.43,1.911h11.74
			c4.849,0,8.794,3.945,8.794,8.793V106.067z"/>
		<path fill="#846F75" d="M160.787,164.323l-4.033-6.833l7.686-1.98c2.679-0.694,4.55-3.111,4.55-5.879v-8.102
			c0-2.768-1.871-5.185-4.55-5.879c-0.001,0-0.002-0.001-0.003-0.001l-7.683-1.98l4.034-6.834c1.404-2.384,1.018-5.417-0.939-7.375
			l-5.729-5.729c-1.957-1.957-4.99-2.343-7.377-0.938l-6.833,4.033l-1.981-7.686c-0.694-2.679-3.111-4.55-5.879-4.55h-8.102
			c-2.768,0-5.185,1.871-5.88,4.553l-1.98,7.683l-6.834-4.034c-2.386-1.405-5.418-1.019-7.375,0.939l-5.729,5.729
			c-1.958,1.958-2.344,4.99-0.938,7.377l4.033,6.833l-7.686,1.981c-2.679,0.694-4.55,3.111-4.55,5.879v8.102
			c0,2.768,1.871,5.185,4.554,5.88l7.683,1.979l-4.035,6.835c-1.404,2.386-1.018,5.419,0.94,7.375l5.729,5.729
			c1.957,1.958,4.991,2.344,7.377,0.938l6.833-4.033l1.98,7.686c0.694,2.68,3.112,4.551,5.879,4.551h8.102
			c2.768,0,5.186-1.872,5.88-4.554l1.98-7.683l6.834,4.034c2.386,1.404,5.418,1.019,7.375-0.939l5.729-5.729
			C161.806,169.744,162.193,166.711,160.787,164.323z M156.314,168.166l-5.729,5.729c-0.346,0.345-0.88,0.413-1.301,0.167
			l-9.695-5.722c-0.677-0.4-1.502-0.458-2.227-0.157c-0.726,0.3-1.269,0.925-1.464,1.686l-2.809,10.899
			c-0.123,0.474-0.55,0.804-1.039,0.804h-8.102c-0.489,0-0.916-0.331-1.038-0.802l-2.809-10.901
			c-0.196-0.761-0.738-1.385-1.464-1.686c-0.307-0.127-0.632-0.19-0.957-0.19c-0.441,0-0.881,0.117-1.271,0.347l-9.693,5.721
			c-0.422,0.248-0.956,0.18-1.303-0.166l-5.729-5.729c-0.346-0.346-0.414-0.881-0.167-1.301l5.722-9.695
			c0.399-0.676,0.458-1.501,0.157-2.227c-0.301-0.726-0.925-1.269-1.686-1.464l-10.898-2.808c-0.474-0.123-0.804-0.55-0.804-1.039
			v-8.102c0-0.489,0.331-0.916,0.801-1.038l10.901-2.809c0.761-0.196,1.385-0.738,1.686-1.464c0.301-0.726,0.243-1.551-0.157-2.227
			l-5.721-9.693c-0.248-0.421-0.18-0.957,0.166-1.303l5.729-5.729c0.346-0.345,0.882-0.412,1.301-0.167l9.695,5.722
			c0.676,0.399,1.501,0.457,2.227,0.157c0.726-0.301,1.269-0.925,1.464-1.686l2.808-10.898c0.123-0.474,0.55-0.804,1.039-0.804
			h8.102c0.489,0,0.916,0.331,1.038,0.801l2.809,10.901c0.196,0.761,0.738,1.385,1.464,1.686c0.726,0.301,1.552,0.244,2.227-0.157
			l9.693-5.721c0.422-0.248,0.957-0.18,1.303,0.166l5.729,5.729c0.346,0.346,0.415,0.882,0.168,1.301l-5.722,9.695
			c-0.399,0.676-0.458,1.501-0.157,2.227c0.301,0.726,0.925,1.269,1.686,1.464l10.898,2.808c0.474,0.123,0.804,0.55,0.804,1.039
			v8.102c0,0.489-0.331,0.916-0.801,1.038l-10.901,2.809c-0.761,0.196-1.385,0.738-1.686,1.464
			c-0.301,0.726-0.243,1.551,0.157,2.227l5.72,9.692C156.728,167.283,156.66,167.819,156.314,168.166z"/>
	</g>
	<path fill="#F9B087" d="M128,160.887c-8.44,0-15.307-6.867-15.307-15.307s6.867-15.307,15.307-15.307s15.307,6.867,15.307,15.307
		S136.44,160.887,128,160.887z M128,135.274c-5.683,0-10.307,4.624-10.307,10.307s4.624,10.307,10.307,10.307
		s10.307-4.624,10.307-10.307S133.683,135.274,128,135.274z"/>
</g>
</svg>
