<?xml version="1.0" encoding="utf-8"?>
<!-- Generator: Adobe Illustrator 24.0.0, SVG Export Plug-In . SVG Version: 6.00 Build 0)  -->
<svg version="1.1" id="Layer_1" xmlns="http://www.w3.org/2000/svg" xmlns:xlink="http://www.w3.org/1999/xlink" x="0px" y="0px"
	 viewBox="0 0 256 256" enable-background="new 0 0 256 256" xml:space="preserve">
<g>
	<path fill="#EBE7F2" d="M208.878,35.341H47.122c-1.381,0-2.5-1.119-2.5-2.5s1.119-2.5,2.5-2.5h161.756c1.381,0,2.5,1.119,2.5,2.5
		S210.259,35.341,208.878,35.341z"/>
	<path fill="#EBE7F2" d="M208.878,113.134H47.122c-1.381,0-2.5-1.119-2.5-2.5s1.119-2.5,2.5-2.5h161.756c1.381,0,2.5,1.119,2.5,2.5
		S210.259,113.134,208.878,113.134z"/>
	<path fill="#F9B087" d="M219.042,119.737h-7.665V23.708h7.665c1.381,0,2.5-1.119,2.5-2.5s-1.119-2.5-2.5-2.5H36.958
		c-1.381,0-2.5,1.119-2.5,2.5s1.119,2.5,2.5,2.5h7.665v96.029h-7.665c-1.381,0-2.5,1.119-2.5,2.5s1.119,2.5,2.5,2.5H125.5v11.163
		c-3.774,1.087-6.542,4.572-6.542,8.69c0,4.986,4.057,9.043,9.042,9.043s9.042-4.057,9.042-9.043c0-4.118-2.769-7.603-6.542-8.69
		v-11.163h88.542c1.381,0,2.5-1.119,2.5-2.5S220.423,119.737,219.042,119.737z M132.042,144.591c0,2.229-1.813,4.043-4.042,4.043
		s-4.042-1.813-4.042-4.043c0-2.229,1.813-4.042,4.042-4.042S132.042,142.362,132.042,144.591z M206.378,119.737H49.622V23.708
		h156.756V119.737z"/>
	<path fill="#F9B087" d="M71.323,188.257c-0.793-1.131-2.353-1.404-3.482-0.613l-5.209,3.648l-5.208-3.648
		c-1.129-0.791-2.689-0.518-3.482,0.613s-0.518,2.69,0.613,3.482l5.341,3.741l-4.741,27.141c-0.142,0.814,0.127,1.646,0.719,2.222
		l5.015,4.882c0.485,0.473,1.114,0.709,1.744,0.709s1.259-0.236,1.744-0.709l5.015-4.882c0.592-0.576,0.861-1.407,0.719-2.222
		l-4.742-27.141l5.341-3.741C71.84,190.947,72.115,189.388,71.323,188.257z M62.632,224.444l-2.325-2.263l2.325-13.31l2.325,13.31
		L62.632,224.444z"/>
	<path fill="#F9B087" d="M136.691,188.257c-0.792-1.131-2.353-1.404-3.482-0.613L128,191.292l-5.209-3.648
		c-1.13-0.791-2.69-0.518-3.482,0.613s-0.517,2.69,0.614,3.482l5.341,3.741l-4.742,27.141c-0.142,0.814,0.127,1.646,0.719,2.222
		l5.015,4.882c0.485,0.473,1.114,0.709,1.744,0.709s1.258-0.236,1.744-0.709l5.015-4.882c0.592-0.576,0.861-1.407,0.719-2.222
		l-4.742-27.141l5.341-3.741C137.208,190.947,137.483,189.388,136.691,188.257z M128,224.444l-2.325-2.263l2.325-13.31l2.325,13.31
		L128,224.444z"/>
	<path fill="#F9B087" d="M202.058,188.257c-0.792-1.131-2.351-1.404-3.482-0.613l-5.208,3.648l-5.209-3.648
		c-1.13-0.791-2.689-0.518-3.482,0.613c-0.792,1.131-0.517,2.69,0.614,3.482l5.341,3.741l-4.742,27.141
		c-0.142,0.814,0.127,1.646,0.719,2.222l5.015,4.882c0.485,0.473,1.114,0.709,1.744,0.709s1.259-0.236,1.744-0.709l5.015-4.882
		c0.592-0.576,0.861-1.407,0.719-2.222l-4.741-27.141l5.341-3.741C202.576,190.947,202.85,189.388,202.058,188.257z
		 M193.368,224.444l-2.325-2.263l2.325-13.31l2.325,13.31L193.368,224.444z"/>
	<g>
		<path fill="#846F75" d="M154.873,64.421c0-0.001-0.001-0.001-0.002-0.001L150.1,63.19l2.505-4.244
			c1.184-2.01,0.859-4.566-0.791-6.218l-4.199-4.198c-1.65-1.649-4.205-1.975-6.218-0.791l-4.243,2.505l-1.23-4.775
			c-0.585-2.257-2.623-3.834-4.955-3.834h-5.938c-2.332,0-4.37,1.577-4.956,3.838l-1.229,4.771l-4.245-2.506
			c-2.009-1.183-4.566-0.856-6.216,0.792l-4.199,4.198c-1.649,1.65-1.975,4.206-0.79,6.219l2.504,4.243l-4.773,1.23
			c-2.259,0.584-3.836,2.622-3.836,4.955v5.938c0,2.332,1.577,4.369,3.838,4.956l4.771,1.229l-2.506,4.246
			c-1.182,2.011-0.856,4.567,0.793,6.215l4.199,4.198c1.649,1.649,4.205,1.974,6.219,0.791l4.242-2.505l1.23,4.774
			c0.585,2.258,2.623,3.835,4.955,3.835h5.938c2.333,0,4.37-1.577,4.956-3.838l1.229-4.771l4.245,2.506
			c2.01,1.184,4.567,0.857,6.216-0.792l4.199-4.198c1.65-1.649,1.975-4.206,0.79-6.219l-2.504-4.242l4.775-1.23
			c2.258-0.586,3.834-2.623,3.834-4.955v-5.938C158.709,67.043,157.132,65.005,154.873,64.421z M153.709,75.313
			c0,0.054-0.037,0.102-0.086,0.114l-7.989,2.059c-0.761,0.196-1.385,0.738-1.686,1.464c-0.301,0.727-0.243,1.551,0.157,2.228
			l4.192,7.103c0.027,0.047,0.02,0.106-0.018,0.145l-4.199,4.198c-0.039,0.038-0.097,0.047-0.141,0.02l-7.105-4.194
			c-0.677-0.398-1.502-0.457-2.228-0.156c-0.726,0.301-1.269,0.925-1.464,1.686l-2.058,7.987c-0.014,0.053-0.061,0.089-0.115,0.089
			h-5.938c-0.054,0-0.102-0.036-0.114-0.086l-2.059-7.99c-0.196-0.761-0.738-1.385-1.464-1.686c-0.307-0.128-0.632-0.19-0.957-0.19
			c-0.441,0-0.881,0.117-1.271,0.347l-7.102,4.193c-0.046,0.026-0.106,0.019-0.145-0.019l-4.199-4.199
			c-0.038-0.038-0.045-0.098-0.02-0.142l4.194-7.104c0.399-0.676,0.458-1.501,0.157-2.228c-0.3-0.726-0.925-1.268-1.686-1.464
			l-7.985-2.058c-0.053-0.014-0.09-0.062-0.09-0.115v-5.938c0-0.054,0.037-0.102,0.086-0.114l7.989-2.06
			c0.761-0.196,1.385-0.738,1.686-1.465c0.301-0.726,0.243-1.551-0.157-2.227l-4.192-7.102c-0.028-0.047-0.02-0.107,0.018-0.146
			l4.199-4.198c0.039-0.038,0.098-0.046,0.142-0.02l7.105,4.194c0.676,0.397,1.501,0.455,2.228,0.156
			c0.726-0.301,1.269-0.925,1.464-1.686l2.058-7.986c0.014-0.053,0.061-0.09,0.115-0.09h5.938c0.054,0,0.102,0.037,0.114,0.086
			l2.059,7.99c0.196,0.761,0.738,1.385,1.464,1.686c0.727,0.304,1.551,0.242,2.228-0.156l7.103-4.193
			c0.047-0.026,0.105-0.019,0.144,0.019l4.198,4.197c0.039,0.039,0.047,0.099,0.021,0.144l-4.193,7.104
			c-0.399,0.677-0.458,1.501-0.157,2.228c0.3,0.726,0.925,1.268,1.686,1.464l7.987,2.059c0.052,0.014,0.088,0.062,0.088,0.115
			V75.313z"/>
		<path fill="#846F75" d="M128,60.459c-6.554,0-11.886,5.332-11.886,11.886S121.446,84.23,128,84.23s11.886-5.332,11.886-11.886
			S134.554,60.459,128,60.459z M128,79.23c-3.797,0-6.886-3.089-6.886-6.886s3.089-6.886,6.886-6.886s6.886,3.089,6.886,6.886
			S131.797,79.23,128,79.23z"/>
		<path fill="#846F75" d="M78.976,187.191h-2.893c2.413-3.124,3.728-7.057,3.561-11.135c-0.355-8.675-7.148-15.67-15.801-16.271
			c-4.779-0.33-9.334,1.278-12.824,4.533c-3.441,3.21-5.414,7.748-5.414,12.451c0,3.857,1.284,7.496,3.549,10.422h-2.866
			c-6.524,0-11.832,5.308-11.832,11.832v35.769c0,1.381,1.119,2.5,2.5,2.5h51.35c1.381,0,2.5-1.119,2.5-2.5v-35.769
			C90.807,192.499,85.5,187.191,78.976,187.191z M85.807,232.292h-46.35v-33.269c0-3.768,3.064-6.832,6.832-6.832h9.701
			c1.154,0,2.158-0.79,2.43-1.911s-0.259-2.283-1.285-2.812c-4.027-2.073-6.528-6.174-6.528-10.699c0-3.371,1.358-6.494,3.825-8.796
			c2.464-2.299,5.68-3.437,9.066-3.2c6.006,0.417,10.905,5.464,11.151,11.488c0.191,4.67-2.367,9.069-6.518,11.207
			c-1.026,0.528-1.557,1.69-1.285,2.812s1.276,1.911,2.43,1.911h9.701c3.767,0,6.831,3.064,6.831,6.832V232.292z"/>
		<path fill="#846F75" d="M144.344,187.191h-2.893c2.413-3.124,3.728-7.057,3.562-11.135c-0.355-8.675-7.148-15.67-15.801-16.271
			c-4.782-0.33-9.335,1.278-12.824,4.533c-3.441,3.21-5.414,7.748-5.414,12.451c0,3.857,1.284,7.496,3.549,10.422h-2.866
			c-6.523,0-11.831,5.308-11.831,11.832v35.769c0,1.381,1.119,2.5,2.5,2.5h51.35c1.381,0,2.5-1.119,2.5-2.5v-35.769
			C156.175,192.499,150.867,187.191,144.344,187.191z M151.175,232.292h-46.35v-33.269c0-3.768,3.064-6.832,6.831-6.832h9.701
			c1.154,0,2.158-0.79,2.43-1.911s-0.259-2.283-1.285-2.812c-4.026-2.073-6.528-6.174-6.528-10.699c0-3.371,1.358-6.494,3.825-8.796
			c2.464-2.299,5.682-3.437,9.066-3.2c6.006,0.417,10.905,5.464,11.151,11.488c0.191,4.67-2.367,9.069-6.518,11.207
			c-1.026,0.528-1.557,1.69-1.285,2.812s1.276,1.911,2.43,1.911h9.701c3.767,0,6.831,3.064,6.831,6.832V232.292z"/>
		<path fill="#846F75" d="M209.711,187.191h-2.893c2.413-3.124,3.728-7.057,3.561-11.135c-0.355-8.675-7.148-15.67-15.801-16.271
			c-4.779-0.326-9.334,1.278-12.824,4.533c-3.441,3.21-5.414,7.748-5.414,12.451c0,3.857,1.284,7.496,3.549,10.422h-2.866
			c-6.523,0-11.831,5.308-11.831,11.832v35.769c0,1.381,1.119,2.5,2.5,2.5h51.35c1.381,0,2.5-1.119,2.5-2.5v-35.769
			C221.542,192.499,216.235,187.191,209.711,187.191z M216.542,232.292h-46.35v-33.269c0-3.768,3.064-6.832,6.831-6.832h9.701
			c1.154,0,2.158-0.79,2.43-1.911s-0.259-2.283-1.285-2.812c-4.027-2.074-6.528-6.174-6.528-10.699c0-3.371,1.358-6.494,3.825-8.796
			c2.464-2.299,5.684-3.436,9.066-3.2c6.006,0.417,10.905,5.464,11.151,11.488c0.191,4.67-2.367,9.069-6.518,11.207
			c-1.026,0.528-1.557,1.69-1.285,2.812s1.276,1.911,2.43,1.911h9.701c3.767,0,6.832,3.064,6.832,6.832V232.292z"/>
	</g>
</g>
</svg>
