<?xml version="1.0" encoding="utf-8"?>
<!-- Generator: Adobe Illustrator 16.0.0, SVG Export Plug-In . SVG Version: 6.00 Build 0)  -->
<!DOCTYPE svg PUBLIC "-//W3C//DTD SVG 1.1//EN" "http://www.w3.org/Graphics/SVG/1.1/DTD/svg11.dtd">
<svg version="1.1" id="Layer_2" xmlns="http://www.w3.org/2000/svg" xmlns:xlink="http://www.w3.org/1999/xlink" x="0px" y="0px"
	 width="512px" height="512px" viewBox="0 0 512 512" enable-background="new 0 0 512 512" xml:space="preserve">
<g>
	<path fill="none" stroke="#007EC9" stroke-width="16" stroke-linecap="round" stroke-linejoin="round" stroke-miterlimit="10" d="
		M33.871,375.053l87.789-0.536c0,0,9.951-33.958,50.91-33.958c40.958,0,48.405,0,67.953,0c32.581,0,33.511,49.531,0,49.531
		c-17.686,0-47.474,0-47.474,0h48.345c0,0,23.743,0.261,23.743-22.34c0,0,73.48-26.995,94.248-37.234
		c37.75-15.502,46.93,23.127,25.421,35.373l-106.097,64.044c0,0,108.287-66.84,106.097-64.044
		c-27.698,35.357-94.671,104.362-144.284,104.362c-51.031,0-206.651,0-206.651,0"/>
	<path fill="none" stroke="#007EC9" stroke-width="16" stroke-linecap="round" stroke-linejoin="round" stroke-miterlimit="10" d="
		M188.192,88.129c28.591-25.032,61.557-46.38,89.151-46.38c51.031,0,118.862,0,118.862,0v95.734c0,0-9.951,33.958-50.909,33.958
		s-48.405,0-67.953,0c-32.581,0-33.511-49.531,0-49.531c17.686,0,47.474,0,47.474,0"/>
	<path fill="none" stroke="#00D704" stroke-width="16" stroke-linecap="round" stroke-linejoin="round" stroke-miterlimit="10" d="
		M311.785,121.911V107.61c0-10.282-8.335-18.617-18.617-18.617H86.594c-10.281,0-18.617,8.335-18.617,18.617v105.423
		c0,10.282,8.336,18.617,18.617,18.617h206.574c10.282,0,18.617-8.335,18.617-18.617v-41.592"/>
	
		<circle fill="none" stroke="#007EC9" stroke-width="16" stroke-linecap="round" stroke-linejoin="round" stroke-miterlimit="10" cx="189.881" cy="160.322" r="28.176"/>
	
		<polyline fill="none" stroke="#00D704" stroke-width="16" stroke-linecap="round" stroke-linejoin="round" stroke-miterlimit="10" points="
		287.556,121.911 287.556,110.766 92.205,110.766 92.205,209.878 287.556,209.878 287.556,171.428 	"/>
	<path fill="none" stroke="#007EC9" stroke-width="16" stroke-linecap="round" stroke-linejoin="round" stroke-miterlimit="10" d="
		M324.817,121.91c0,0-27.581,0-48.345,0c-31.749,0-33.451,49.518,0,49.518h48.345"/>
	<path fill="none" stroke="#00D704" stroke-width="16" stroke-linecap="round" stroke-linejoin="round" stroke-miterlimit="10" d="
		M478.121,41.749h-81.916v118.573c0,10.281,8.335,18.617,18.618,18.617h63.332"/>
	
		<circle fill="none" stroke="#00D704" stroke-width="16" stroke-linecap="round" stroke-linejoin="round" stroke-miterlimit="10" cx="437.18" cy="138.1" r="17.64"/>
</g>
</svg>
