<?xml version="1.0" encoding="utf-8"?>
<!-- Generator: Adobe Illustrator 16.0.0, SVG Export Plug-In . SVG Version: 6.00 Build 0)  -->
<!DOCTYPE svg PUBLIC "-//W3C//DTD SVG 1.1//EN" "http://www.w3.org/Graphics/SVG/1.1/DTD/svg11.dtd">
<svg version="1.1" id="Layer_2" xmlns="http://www.w3.org/2000/svg" xmlns:xlink="http://www.w3.org/1999/xlink" x="0px" y="0px"
	 width="512px" height="512px" viewBox="0 0 512 512" enable-background="new 0 0 512 512" xml:space="preserve">
<g>
	<path fill="none" stroke="#007EC9" stroke-width="16" stroke-linecap="round" stroke-linejoin="round" stroke-miterlimit="10" d="
		M324.107,325.892c41.75,7.211,119.394,34.031,119.394,133.785v30.388"/>
	<path fill="none" stroke="#007EC9" stroke-width="16" stroke-linecap="round" stroke-linejoin="round" stroke-miterlimit="10" d="
		M68.499,490.064v-30.388c0-99.513,77.269-126.443,119.091-133.731"/>
	<path fill="none" stroke="#007EC9" stroke-width="16" stroke-linecap="round" stroke-linejoin="round" stroke-miterlimit="10" d="
		M216.188,315.483c-22.715,3.585-28.681,10.068-28.681,10.068s-3.341,73.587,53.326,80.601c0,57.68,0,83.412,0,83.412"/>
	<path fill="none" stroke="#007EC9" stroke-width="16" stroke-linecap="round" stroke-linejoin="round" stroke-miterlimit="10" d="
		M270.833,489.564c0,0,0-25.732,0-83.412c56.667-7.014,53.326-80.601,53.326-80.601s-5.907-6.42-28.347-10.016"/>
	<path fill="none" stroke="#00D704" stroke-width="16" stroke-linecap="round" stroke-linejoin="round" stroke-miterlimit="10" d="
		M216.189,293.16c0,0,0,30.15,0,45.08c0,14.929,7.464,38.155,39.811,38.155s39.811-23.227,39.811-38.155c0-14.93,0-45.08,0-45.08"/>
	<path fill="none" stroke="#007EC9" stroke-width="16" stroke-linecap="round" stroke-linejoin="round" stroke-miterlimit="10" d="
		M150.369,157.802c0,0-32.278-8.025-32.278,25.236c0,25.521,32.278,25.521,32.278,25.521V157.802z"/>
	
		<path fill="#FFCD00" stroke="#000000" stroke-width="12" stroke-linecap="round" stroke-linejoin="round" stroke-miterlimit="10" d="
		M216.189,135.685"/>
	
		<path fill="#FFCD00" stroke="#000000" stroke-width="12" stroke-linecap="round" stroke-linejoin="round" stroke-miterlimit="10" d="
		M295.811,135.685"/>
	<path fill="none" stroke="#00D704" stroke-width="16" stroke-linecap="round" stroke-linejoin="round" stroke-miterlimit="10" d="
		M150.369,157.802c0,0-16.203-22.157-0.765-54.207c10.462,0,23.192,0,23.192,0S170.231,136.736,150.369,157.802z"/>
	<path fill="none" stroke="#007EC9" stroke-width="16" stroke-linecap="round" stroke-linejoin="round" stroke-miterlimit="10" d="
		M361.631,157.802c0,0,32.278-8.025,32.278,25.236c0,25.521-32.278,25.521-32.278,25.521V157.802z"/>
	<path fill="none" stroke="#00D704" stroke-width="16" stroke-linecap="round" stroke-linejoin="round" stroke-miterlimit="10" d="
		M361.631,157.802c-22.627-29.498-22.428-54.207-22.428-54.207H172.797c0,0,0.199,24.709-22.428,54.207
		c0,47.802-12.713,138.952,105.631,138.952S361.631,205.604,361.631,157.802z"/>
	<path fill="none" stroke="#00D704" stroke-width="16" stroke-linecap="round" stroke-linejoin="round" stroke-miterlimit="10" d="
		M361.631,157.802c0,0,16.203-22.157,0.765-54.207c-10.462,0-23.192,0-23.192,0S341.769,136.736,361.631,157.802z"/>
	
		<line fill="none" stroke="#007EC9" stroke-width="16" stroke-linecap="round" stroke-linejoin="round" stroke-miterlimit="10" x1="128.31" y1="489.564" x2="128.31" y2="424.627"/>
	
		<line fill="none" stroke="#007EC9" stroke-width="16" stroke-linecap="round" stroke-linejoin="round" stroke-miterlimit="10" x1="383.69" y1="489.564" x2="383.69" y2="424.627"/>
	<path fill="none" stroke="#007EC9" stroke-width="16" stroke-linecap="round" stroke-linejoin="round" stroke-miterlimit="10" d="
		M256,22.057c-100.357,0-106.396,81.538-106.396,81.538H256h106.396C362.396,103.595,356.357,22.057,256,22.057z"/>
</g>
</svg>
