<?xml version="1.0" encoding="utf-8"?>
<!-- Generator: Adobe Illustrator 16.0.0, SVG Export Plug-In . SVG Version: 6.00 Build 0)  -->
<!DOCTYPE svg PUBLIC "-//W3C//DTD SVG 1.1//EN" "http://www.w3.org/Graphics/SVG/1.1/DTD/svg11.dtd">
<svg version="1.1" id="Layer_2" xmlns="http://www.w3.org/2000/svg" xmlns:xlink="http://www.w3.org/1999/xlink" x="0px" y="0px"
	 width="512px" height="512px" viewBox="0 0 512 512" enable-background="new 0 0 512 512" xml:space="preserve">
<g>
	
		<rect x="54.138" y="390" fill="none" stroke="#00D704" stroke-width="16" stroke-linecap="round" stroke-linejoin="round" stroke-miterlimit="10" width="174.87" height="45"/>
	
		<rect x="282.741" y="390" fill="none" stroke="#00D704" stroke-width="16" stroke-linecap="round" stroke-linejoin="round" stroke-miterlimit="10" width="174.87" height="45"/>
	<path fill="none" stroke="#00D704" stroke-width="16" stroke-linecap="round" stroke-linejoin="round" stroke-miterlimit="10" d="
		M314.26,353.375c0,0,0-10.375,0-26.713c-24.089,0-40.89-29.297-40.89-57.292c0,0,0-147.208,0-167.604
		c0-28.809,45.093-25.391,45.093,0c0,14.767,0,59.288,0,59.288v-18.473c0,0,0-49.916,0-70.312c0-28.809,45.093-25.391,45.093,0
		c0,14.767,0,88.786,0,88.786v-30.843c0,0,0-49.916,0-70.312c0-28.809,45.093-25.391,45.093,0c0,14.767,0,86.782,0,86.782
		l0.177,15.269c0,0,0-55.45,0-75.847c0-28.809,45.093-25.391,45.093,0c0,14.767,0,86.782,0,86.782
		c-27.462,1.864-26.353,32.359-26.353,32.359s0,6.481,0,36.133c-24.548,0-38.76,32.227-38.76,32.227
		c15.794-34.66,38.76-32.227,38.76-32.227s0,6.833,0-36.133c0-42.966,45.225-31.25,45.225-31.25s0,48.81,0,93.75
		s-45.225,55.664-45.225,55.664v29.968H314.26z"/>
	<path fill="none" stroke="#007EC9" stroke-width="16" stroke-linecap="round" stroke-linejoin="round" stroke-miterlimit="10" d="
		M282.741,474.449V372.906c0-10.787,8.743-19.531,19.531-19.531H438.08c10.787,0,19.531,8.744,19.531,19.531v101.543"/>
	<path fill="none" stroke="#00D704" stroke-width="16" stroke-linecap="round" stroke-linejoin="round" stroke-miterlimit="10" d="
		M424.992,241.403c0,0-68.64-12.549-112.026,19.234"/>
	<path fill="none" stroke="#00D704" stroke-width="16" stroke-linecap="round" stroke-linejoin="round" stroke-miterlimit="10" d="
		M408.313,213.216c0,0-46.411-18.666-92.824-6.054"/>
	<path fill="none" stroke="#00D704" stroke-width="16" stroke-linecap="round" stroke-linejoin="round" stroke-miterlimit="10" d="
		M197.489,353.375c0,0,0-11.708,0-26.713c24.089,0,40.89-29.297,40.89-57.292c0,0,0-147.208,0-167.604
		c0-28.809-45.093-25.391-45.093,0c0,14.767,0,59.288,0,59.288v-18.473c0,0,0-49.916,0-70.312c0-28.809-45.093-25.391-45.093,0
		c0,14.767,0,88.786,0,88.786v-30.843c0,0,0-49.916,0-70.312c0-28.809-45.093-25.391-45.093,0c0,14.767,0,86.782,0,86.782
		l-0.177,15.269c0,0,0-55.45,0-75.847c0-28.809-45.092-25.391-45.092,0c0,14.767,0,86.782,0,86.782
		c27.461,1.864,26.352,32.359,26.352,32.359s0,6.481,0,36.133c24.548,0,38.76,32.227,38.76,32.227
		c-15.793-34.66-38.76-32.227-38.76-32.227s0,6.833,0-36.133c0-42.966-45.225-31.25-45.225-31.25s0,48.81,0,93.75
		s45.225,55.664,45.225,55.664v29.968H197.489z"/>
	<path fill="none" stroke="#007EC9" stroke-width="16" stroke-linecap="round" stroke-linejoin="round" stroke-miterlimit="10" d="
		M229.008,474.449V372.906c0-10.787-8.743-19.531-19.531-19.531H73.669c-10.786,0-19.531,8.744-19.531,19.531v101.543"/>
	<path fill="none" stroke="#00D704" stroke-width="16" stroke-linecap="round" stroke-linejoin="round" stroke-miterlimit="10" d="
		M86.757,241.403c0,0,68.64-12.549,112.026,19.234"/>
	<path fill="none" stroke="#00D704" stroke-width="16" stroke-linecap="round" stroke-linejoin="round" stroke-miterlimit="10" d="
		M103.436,213.216c0,0,46.412-18.666,92.824-6.054"/>
</g>
</svg>
