<?xml version="1.0" encoding="utf-8"?>
<!-- Generator: Adobe Illustrator 16.0.0, SVG Export Plug-In . SVG Version: 6.00 Build 0)  -->
<!DOCTYPE svg PUBLIC "-//W3C//DTD SVG 1.1//EN" "http://www.w3.org/Graphics/SVG/1.1/DTD/svg11.dtd">
<svg version="1.1" id="Layer_2" xmlns="http://www.w3.org/2000/svg" xmlns:xlink="http://www.w3.org/1999/xlink" x="0px" y="0px"
	 width="512px" height="512px" viewBox="0 0 512 512" enable-background="new 0 0 512 512" xml:space="preserve">
<g>
	<path fill="none" stroke="#00D704" stroke-width="16" stroke-linecap="round" stroke-linejoin="round" stroke-miterlimit="10" d="
		M451.179,430.596c5.709,5.709,5.709,14.966,0,20.675l-0.096,0.096c-5.709,5.71-14.966,5.71-20.675,0l-33.673-33.672
		c-5.709-5.71-5.709-14.966,0-20.675l0.097-0.096c5.709-5.709,14.965-5.709,20.674,0L451.179,430.596z"/>
	<g>
		
			<circle fill="none" stroke="#007EC9" stroke-width="16" stroke-linecap="round" stroke-linejoin="round" stroke-miterlimit="10" cx="290.055" cy="78.118" r="33.433"/>
		
			<circle fill="none" stroke="#007EC9" stroke-width="16" stroke-linecap="round" stroke-linejoin="round" stroke-miterlimit="10" cx="221.943" cy="433.777" r="33.433"/>
		
			<circle fill="none" stroke="#007EC9" stroke-width="16" stroke-linecap="round" stroke-linejoin="round" stroke-miterlimit="10" cx="433.829" cy="290.004" r="33.434"/>
		
			<circle fill="none" stroke="#007EC9" stroke-width="16" stroke-linecap="round" stroke-linejoin="round" stroke-miterlimit="10" cx="78.171" cy="221.891" r="33.434"/>
		
			<circle fill="none" stroke="#007EC9" stroke-width="16" stroke-linecap="round" stroke-linejoin="round" stroke-miterlimit="10" cx="154.336" cy="106.12" r="33.433"/>
		
			<circle fill="none" stroke="#007EC9" stroke-width="16" stroke-linecap="round" stroke-linejoin="round" stroke-miterlimit="10" cx="357.662" cy="405.772" r="33.433"/>
		<path fill="none" stroke="#007EC9" stroke-width="16" stroke-linecap="round" stroke-linejoin="round" stroke-miterlimit="10" d="
			M424.598,181.949c-15.28,10.368-36.07,6.387-46.438-8.893c-10.368-15.28-6.387-36.069,8.892-46.439
			c15.281-10.364,36.072-6.385,46.439,8.895C443.859,150.792,439.877,171.582,424.598,181.949z"/>
		
			<circle fill="none" stroke="#007EC9" stroke-width="16" stroke-linecap="round" stroke-linejoin="round" stroke-miterlimit="10" cx="106.174" cy="357.61" r="33.433"/>
		
			<circle fill="none" stroke="#007EC9" stroke-width="16" stroke-linecap="round" stroke-linejoin="round" stroke-miterlimit="10" cx="355.729" cy="104.891" r="33.433"/>
		
			<circle fill="none" stroke="#007EC9" stroke-width="16" stroke-linecap="round" stroke-linejoin="round" stroke-miterlimit="10" cx="156.248" cy="407.114" r="33.433"/>
		
			<circle fill="none" stroke="#007EC9" stroke-width="16" stroke-linecap="round" stroke-linejoin="round" stroke-miterlimit="10" cx="407.101" cy="355.745" r="33.434"/>
		
			<circle fill="none" stroke="#007EC9" stroke-width="16" stroke-linecap="round" stroke-linejoin="round" stroke-miterlimit="10" cx="104.877" cy="156.261" r="33.433"/>
		
			<circle fill="none" stroke="#007EC9" stroke-width="16" stroke-linecap="round" stroke-linejoin="round" stroke-miterlimit="10" cx="219.664" cy="78.622" r="33.434"/>
		
			<circle fill="none" stroke="#007EC9" stroke-width="16" stroke-linecap="round" stroke-linejoin="round" stroke-miterlimit="10" cx="292.313" cy="433.383" r="33.433"/>
		
			<circle fill="none" stroke="#007EC9" stroke-width="16" stroke-linecap="round" stroke-linejoin="round" stroke-miterlimit="10" cx="433.369" cy="219.679" r="33.434"/>
		
			<circle fill="none" stroke="#007EC9" stroke-width="16" stroke-linecap="round" stroke-linejoin="round" stroke-miterlimit="10" cx="78.609" cy="292.328" r="33.433"/>
	</g>
</g>
</svg>
