<?xml version="1.0" encoding="utf-8"?>
<!-- Generator: Adobe Illustrator 16.0.0, SVG Export Plug-In . SVG Version: 6.00 Build 0)  -->
<!DOCTYPE svg PUBLIC "-//W3C//DTD SVG 1.1//EN" "http://www.w3.org/Graphics/SVG/1.1/DTD/svg11.dtd">
<svg version="1.1" id="Layer_2" xmlns="http://www.w3.org/2000/svg" xmlns:xlink="http://www.w3.org/1999/xlink" x="0px" y="0px"
	 width="512px" height="512px" viewBox="0 0 512 512" enable-background="new 0 0 512 512" xml:space="preserve">
<path fill="none" stroke="#00D704" stroke-width="16" stroke-linecap="round" stroke-linejoin="round" stroke-miterlimit="10" d="
	M255.272,351.743h34.814v-94.729c0,0,0.211-46.959-35.087-46.959h0.392c-35.298,0-35.087,46.959-35.087,46.959v94.729h34.814
	H255.272z"/>
<path fill="none" stroke="#00D704" stroke-width="16" stroke-linecap="round" stroke-linejoin="round" stroke-miterlimit="10" d="
	M118.971,351.558h34.814v-94.729c0,0,0.211-46.959-35.087-46.959L118.971,351.558z"/>
<path fill="none" stroke="#00D704" stroke-width="16" stroke-linecap="round" stroke-linejoin="round" stroke-miterlimit="10" d="
	M394.083,351.558h-34.814v-94.729c0,0-0.211-46.959,35.087-46.959L394.083,351.558z"/>
<circle fill="none" stroke="#007EC9" stroke-width="16" stroke-linecap="round" stroke-linejoin="round" stroke-miterlimit="10" cx="255.392" cy="45.681" r="16.177"/>
<line fill="none" stroke="#007EC9" stroke-width="16" stroke-linecap="round" stroke-linejoin="round" stroke-miterlimit="10" x1="255.392" y1="80.879" x2="255.392" y2="61.858"/>
<path fill="none" stroke="#00D704" stroke-width="16" stroke-linecap="round" stroke-linejoin="round" stroke-miterlimit="10" d="
	M336.67,143.163c0,0-15.724-62.284-81.278-62.284s-81.278,62.284-81.278,62.284H336.67z"/>
<path fill="none" stroke="#00D704" stroke-width="16" stroke-linecap="round" stroke-linejoin="round" stroke-miterlimit="10" d="
	M174.113,418.634c0,0,15.724,62.284,81.278,62.284s81.278-62.284,81.278-62.284H174.113z"/>
<path fill="none" stroke="#007EC9" stroke-width="16" stroke-linecap="round" stroke-linejoin="round" stroke-miterlimit="10" d="
	M394.355,354.031c-0.001,22.09-17.907,39.996-39.998,39.998l-195.66-0.001c-22.092,0.001-39.998-17.905-39.997-39.997
	l-0.002-146.265c-0.002-22.092,17.907-40.001,39.999-39.998h195.658c22.091-0.001,39.999,17.908,39.999,39.999L394.355,354.031z"/>
<path fill="none" stroke="#007EC9" stroke-width="16" stroke-linecap="round" stroke-linejoin="round" stroke-miterlimit="10" d="
	M156.428,167.768v-7.38c0-9.513,7.711-17.225,17.225-17.225h163.479c9.514,0,17.225,7.711,17.225,17.225v7.38H156.428z"/>
<path fill="none" stroke="#007EC9" stroke-width="16" stroke-linecap="round" stroke-linejoin="round" stroke-miterlimit="10" d="
	M354.355,394.029v7.38c0,9.513-7.711,17.225-17.225,17.225H173.652c-9.514,0-17.225-7.711-17.225-17.225v-7.38H354.355z"/>
</svg>
