<?xml version="1.0" encoding="utf-8"?>
<!-- Generator: Adobe Illustrator 16.0.0, SVG Export Plug-In . SVG Version: 6.00 Build 0)  -->
<!DOCTYPE svg PUBLIC "-//W3C//DTD SVG 1.1//EN" "http://www.w3.org/Graphics/SVG/1.1/DTD/svg11.dtd">
<svg version="1.1" id="Layer_2" xmlns="http://www.w3.org/2000/svg" xmlns:xlink="http://www.w3.org/1999/xlink" x="0px" y="0px"
	 width="512px" height="512px" viewBox="0 0 512 512" enable-background="new 0 0 512 512" xml:space="preserve">
<path fill="none" stroke="#007EC9" stroke-width="16" stroke-linecap="round" stroke-linejoin="round" stroke-miterlimit="10" d="
	M230.212,373.726c-15.339-15.884-36.414-37.501-36.414-37.501c-66.427,61.781-77.441,126.264-77.441,126.264l54.476-18.566
	l33.532,36.463c15.17-37.808,36.273-65.489,51.635-82.316"/>
<path fill="none" stroke="#007EC9" stroke-width="16" stroke-linecap="round" stroke-linejoin="round" stroke-miterlimit="10" d="
	M319.234,336.225c66.427,61.781,77.441,126.264,77.441,126.264L342.2,443.922l-33.532,36.463
	c-26.64-66.395-71.58-101.559-71.58-101.559s28.376,12.873,45.732-5.101C298.16,357.841,319.234,336.225,319.234,336.225z"/>
<rect x="275.636" y="98.293" transform="matrix(0.7071 0.7071 -0.7071 0.7071 195.7701 -184.9762)" fill="none" stroke="#00D704" stroke-width="16" stroke-linecap="round" stroke-linejoin="round" stroke-miterlimit="10" width="91.065" height="91.063"/>
<rect x="146.852" y="98.293" transform="matrix(0.7071 0.7071 -0.7071 0.7071 158.0475 -93.9109)" fill="none" stroke="#00D704" stroke-width="16" stroke-linecap="round" stroke-linejoin="round" stroke-miterlimit="10" width="91.064" height="91.064"/>
<rect x="275.637" y="227.076" transform="matrix(0.7071 0.7071 -0.7071 0.7071 286.8283 -147.2549)" fill="none" stroke="#00D704" stroke-width="16" stroke-linecap="round" stroke-linejoin="round" stroke-miterlimit="10" width="91.063" height="91.065"/>
<rect x="146.852" y="227.077" transform="matrix(0.7071 0.7071 -0.7071 0.7071 249.1103 -56.1914)" fill="none" stroke="#00D704" stroke-width="16" stroke-linecap="round" stroke-linejoin="round" stroke-miterlimit="10" width="91.065" height="91.064"/>
<rect x="210.468" y="161.909" transform="matrix(0.7071 0.7071 -0.7071 0.7071 221.6649 -120.2616)" fill="none" stroke="#00D704" stroke-width="16" stroke-linecap="round" stroke-linejoin="round" stroke-miterlimit="10" width="91.065" height="91.064"/>
<path fill="none" stroke="#00D704" stroke-width="16" stroke-linecap="round" stroke-linejoin="round" stroke-miterlimit="10" d="
	M419.908,178.172c16.164,16.164,16.164,42.371,0,58.538l-134.64,134.637c-16.164,16.166-42.371,16.166-58.535-0.001L92.094,236.709
	c-16.167-16.166-16.167-42.375,0-58.539L226.73,43.534c16.165-16.166,42.374-16.166,58.538,0L419.908,178.172z"/>
</svg>
