<?xml version="1.0" encoding="utf-8"?>
<!-- Generator: Adobe Illustrator 16.0.0, SVG Export Plug-In . SVG Version: 6.00 Build 0)  -->
<!DOCTYPE svg PUBLIC "-//W3C//DTD SVG 1.1//EN" "http://www.w3.org/Graphics/SVG/1.1/DTD/svg11.dtd">
<svg version="1.1" id="Layer_2" xmlns="http://www.w3.org/2000/svg" xmlns:xlink="http://www.w3.org/1999/xlink" x="0px" y="0px"
	 width="512px" height="512px" viewBox="0 0 512 512" enable-background="new 0 0 512 512" xml:space="preserve">
<g>
	<g>
		<path fill="none" stroke="#00D704" stroke-width="16" stroke-linecap="round" stroke-linejoin="round" stroke-miterlimit="10" d="
			M92.389,275.333C42.371,178.179,224.046,5.87,315.237,82.892c23.431,19.79,23.844,58.178,9.716,98.52"/>
		<path fill="none" stroke="#007EC9" stroke-width="16" stroke-linecap="round" stroke-linejoin="round" stroke-miterlimit="10" d="
			M303.534,74.635c0,0-25.976,11.399-6.274,34.014c18.748,21.519,32.521-4.861,32.521-4.861S320.616,82.039,303.534,74.635z"/>
		<path fill="none" stroke="#007EC9" stroke-width="16" stroke-linecap="round" stroke-linejoin="round" stroke-miterlimit="10" d="
			M244.52,94.978c-1.852,13.953-17.533,24.137-32.639,23.59c-15.105-0.544-36.479,9.241-40.679,33.346"/>
		<path fill="none" stroke="#007EC9" stroke-width="16" stroke-linecap="round" stroke-linejoin="round" stroke-miterlimit="10" d="
			M196.944,204.397c1.009,14.041-12.288,27.185-27.19,29.704c-10.188,1.725-22.268,8.769-28.649,20.865"/>
	</g>
	<g>
		<path fill="none" stroke="#00D704" stroke-width="16" stroke-linecap="round" stroke-linejoin="round" stroke-miterlimit="10" d="
			M292.201,394.163c-71.207,58.545-214.391,88.236-249.074-8.721C8.889,289.731,156.996,231.985,233.691,245.441"/>
		<path fill="none" stroke="#007EC9" stroke-width="16" stroke-linecap="round" stroke-linejoin="round" stroke-miterlimit="10" d="
			M232.889,285.547c-12.131-9.016-42.443-13.393-59.576,4.076"/>
		<path fill="none" stroke="#007EC9" stroke-width="16" stroke-linecap="round" stroke-linejoin="round" stroke-miterlimit="10" d="
			M243.448,383.354c-5.731,12.855-23.659,18.173-37.987,13.366c-14.33-4.806-37.603-1.484-48.465,20.44"/>
		<path fill="none" stroke="#007EC9" stroke-width="16" stroke-linecap="round" stroke-linejoin="round" stroke-miterlimit="10" d="
			M164.744,347.45c-7.132,12.134-25.539,15.417-39.242,9.039c-13.705-6.375-37.203-5.673-50.445,14.9"/>
	</g>
	<g>
		<path fill="none" stroke="#00D704" stroke-width="16" stroke-linecap="round" stroke-linejoin="round" stroke-miterlimit="10" d="
			M263.645,188.974c74.48-60.723,286.738,134.312,181.674,234.416C340.256,523.495,160.777,272.842,263.645,188.974z"/>
		<path fill="none" stroke="#007EC9" stroke-width="16" stroke-linecap="round" stroke-linejoin="round" stroke-miterlimit="10" d="
			M253.373,198.953c0,0,6.414,27.632,32.273,12.439c24.607-14.458,1.218-32.86,1.218-32.86S263.799,183.531,253.373,198.953z"/>
		<path fill="none" stroke="#007EC9" stroke-width="16" stroke-linecap="round" stroke-linejoin="round" stroke-miterlimit="10" d="
			M262.484,260.706c13.373,4.393,20.49,21.685,17.168,36.428c-3.32,14.746,2.357,37.56,25.273,46.133"/>
		<path fill="none" stroke="#007EC9" stroke-width="16" stroke-linecap="round" stroke-linejoin="round" stroke-miterlimit="10" d="
			M362.148,241.139c14.074,0.024,26.207,14.252,27.627,29.299c1.42,15.049,13.896,34.972,38.343,36.007"/>
		<path fill="none" stroke="#007EC9" stroke-width="16" stroke-linecap="round" stroke-linejoin="round" stroke-miterlimit="10" d="
			M361.257,327.641c13.983,1.597,24.452,17.09,24.182,32.202c-0.269,15.113,9.905,36.307,34.082,40.064"/>
	</g>
</g>
</svg>
