<?xml version="1.0" encoding="utf-8"?>
<!-- Generator: Adobe Illustrator 16.0.0, SVG Export Plug-In . SVG Version: 6.00 Build 0)  -->
<!DOCTYPE svg PUBLIC "-//W3C//DTD SVG 1.1//EN" "http://www.w3.org/Graphics/SVG/1.1/DTD/svg11.dtd">
<svg version="1.1" id="Layer_2" xmlns="http://www.w3.org/2000/svg" xmlns:xlink="http://www.w3.org/1999/xlink" x="0px" y="0px"
	 width="512px" height="512px" viewBox="0 0 512 512" enable-background="new 0 0 512 512" xml:space="preserve">
<g>
	<path fill="none" stroke="#007EC9" stroke-width="16" stroke-linecap="round" stroke-linejoin="round" stroke-miterlimit="10" d="
		M468.668,218.048l-35.413-35.413l-0.001-50.076c0.001-29.641-24.028-53.668-53.668-53.668h-50.077L294.1,43.482
		c-20.957-20.959-54.939-20.959-75.897,0l-35.409,35.409h-50.078c-29.643-0.002-53.671,24.026-53.669,53.669l0,50.077l-35.41,35.409
		c-20.961,20.958-20.961,54.94,0.001,75.899l35.41,35.409l0,50.078c-0.001,29.642,24.025,53.668,53.665,53.667l50.082,0l35.41,35.41
		c20.959,20.96,54.938,20.96,75.895,0.001l35.41-35.41l50.078,0c29.641-0.002,53.667-24.03,53.668-53.668l-0.001-50.076
		l35.413-35.412C489.626,272.985,489.626,239.006,468.668,218.048z"/>
	<path fill="none" stroke="#00D704" stroke-width="16" stroke-linecap="round" stroke-linejoin="round" stroke-miterlimit="10" d="
		M436.709,223.755l-30.088-30.087v-42.545c0-25.183-20.414-45.598-45.597-45.598h-42.547l-30.085-30.083
		c-17.807-17.808-46.678-17.808-64.483,0l-30.084,30.083h-42.547c-25.185-0.001-45.6,20.413-45.598,45.599v42.546l-30.084,30.084
		c-17.81,17.806-17.81,46.678,0,64.485l30.084,30.084l0,42.547c0,25.184,20.413,45.597,45.595,45.597l42.551,0l30.084,30.084
		c17.807,17.809,46.675,17.809,64.481,0.001l30.085-30.085l42.548,0c25.184-0.001,45.596-20.416,45.598-45.597l-0.002-42.546
		l30.089-30.087C454.516,270.431,454.516,241.562,436.709,223.755z"/>
	<path fill="none" stroke="#007EC9" stroke-width="16" stroke-linecap="round" stroke-linejoin="round" stroke-miterlimit="10" d="
		M302.618,302.035c-45.798,0-82.923-37.125-82.923-82.922c0-25.987,11.955-49.18,30.666-64.381
		c7.285-5.92,9.373-17.215-10.922-14.185C182.891,148.604,139.413,197.225,139.413,256c0,64.411,52.215,116.626,116.626,116.626
		c50.166,0,92.928-31.675,109.39-76.115c3.799-10.254-7.124-14.936-16.46-8.63C335.737,296.817,319.786,302.035,302.618,302.035z"/>
	<path fill="none" stroke="#00D704" stroke-width="16" stroke-linecap="round" stroke-linejoin="round" stroke-miterlimit="10" d="
		M306.316,181.053c0,0,0.002-30.756,13.957-30.497c10.629,0.196,18.996,29.511,18.996,29.511s29.269-5.442,33.635,4.829
		c4.367,10.272-25.48,21.821-25.48,21.821s15.194,23.595,8.062,31.981c-7.876,9.258-29.787-15.615-29.787-15.615
		s-19.524,26.593-32.191,20.477c-9.915-4.789,6.813-33.912,6.813-33.912s-32.457-8.295-30.883-21.292
		C270.69,178.006,306.316,181.053,306.316,181.053z"/>
</g>
</svg>
