<?xml version="1.0" encoding="utf-8"?>
<!-- Generator: Adobe Illustrator 16.0.0, SVG Export Plug-In . SVG Version: 6.00 Build 0)  -->
<!DOCTYPE svg PUBLIC "-//W3C//DTD SVG 1.1//EN" "http://www.w3.org/Graphics/SVG/1.1/DTD/svg11.dtd">
<svg version="1.1" id="Layer_2" xmlns="http://www.w3.org/2000/svg" xmlns:xlink="http://www.w3.org/1999/xlink" x="0px" y="0px"
	 width="512px" height="512px" viewBox="0 0 512 512" enable-background="new 0 0 512 512" xml:space="preserve">
<g>
	<g>
		<path fill="none" stroke="#00D704" stroke-width="16" stroke-linecap="round" stroke-linejoin="round" stroke-miterlimit="10" d="
			M331.296,303.779l-20.753-26.503c0,0,43.605-53.892,12.486-93.635c-31.118-39.744-64.916-82.906-64.916-82.906l-28.496,25.18
			c0,0-49.869-63.688-60.095-76.747c-17.582-22.455-59.827,5.747-39.878,31.225c14.125,18.038,52.522,67.074,52.522,67.074
			l-10.73-13.381c0,0-49.867-63.686-60.093-76.746c-17.583-22.453-59.825,5.75-39.877,31.225
			c14.123,18.039,48.688,62.181,48.688,62.181l21.357,27.276c0,0-51.254-65.458-61.481-78.517
			c-17.579-22.452-59.825,5.75-39.877,31.225c14.124,18.036,48.689,62.181,48.689,62.181l12.792,16.338
			c0,0-28.507-35.99-38.732-49.051c-17.583-22.455-59.83,5.749-39.878,31.227c14.123,18.036,113.739,144.837,113.739,144.837
			c19.385,24.758,54.53,39.033,75.833,22.351l19.169,22.312"/>
	</g>
	
		<line fill="none" stroke="#00D704" stroke-width="16" stroke-linecap="round" stroke-linejoin="round" stroke-miterlimit="10" x1="229.618" y1="125.915" x2="277.287" y2="187.558"/>
</g>
<path fill="none" stroke="#00D704" stroke-width="16" stroke-linecap="round" stroke-linejoin="round" stroke-miterlimit="10" d="
	M169.523,49.168c0,0,15.428-9.616,26.549,3.863s48.923,59.296,48.923,59.296"/>
<path fill="none" stroke="#00D704" stroke-width="16" stroke-linecap="round" stroke-linejoin="round" stroke-miterlimit="10" d="
	M269.646,115.462l16.643-12.865c0,0,49.939,59.504,65.461,79.34s23.567,51.728-8.877,95.527
	c18.499,22.42,21.753,26.314,21.753,26.314"/>
<polyline fill="none" stroke="#007EC9" stroke-width="16" stroke-linecap="round" stroke-linejoin="round" stroke-miterlimit="10" points="
	344.056,319.724 364.626,303.779 494.213,465.71 "/>
<polyline fill="none" stroke="#007EC9" stroke-width="16" stroke-linecap="round" stroke-linejoin="round" stroke-miterlimit="10" points="
	279.626,471.006 217.715,391.817 331.296,303.779 460.884,465.71 "/>
</svg>
