<?xml version="1.0" encoding="utf-8"?>
<!-- Generator: Adobe Illustrator 16.0.0, SVG Export Plug-In . SVG Version: 6.00 Build 0)  -->
<!DOCTYPE svg PUBLIC "-//W3C//DTD SVG 1.1//EN" "http://www.w3.org/Graphics/SVG/1.1/DTD/svg11.dtd">
<svg version="1.1" id="Layer_2" xmlns="http://www.w3.org/2000/svg" xmlns:xlink="http://www.w3.org/1999/xlink" x="0px" y="0px"
	 width="512px" height="512px" viewBox="0 0 512 512" enable-background="new 0 0 512 512" xml:space="preserve">
<g>
	<g>
		<g>
			
				<line fill="none" stroke="#00D704" stroke-width="16" stroke-linecap="round" stroke-linejoin="round" stroke-miterlimit="10" x1="51.682" y1="486.906" x2="51.682" y2="447.133"/>
			
				<line fill="none" stroke="#00D704" stroke-width="16" stroke-linecap="round" stroke-linejoin="round" stroke-miterlimit="10" x1="119.812" y1="385.372" x2="119.812" y2="444.9"/>
			
				<line fill="none" stroke="#00D704" stroke-width="13.499" stroke-linecap="round" stroke-linejoin="round" stroke-miterlimit="10" x1="119.812" y1="285.055" x2="119.812" y2="350.75"/>
			
				<line fill="none" stroke="#00D704" stroke-width="16" stroke-linecap="round" stroke-linejoin="round" stroke-miterlimit="10" x1="174.24" y1="385.372" x2="115.356" y2="385.372"/>
			
				<path fill="none" stroke="#00D704" stroke-width="16" stroke-linecap="round" stroke-linejoin="round" stroke-miterlimit="10" d="
				M142.771,256.771"/>
			
				<path fill="none" stroke="#00D704" stroke-width="16" stroke-linecap="round" stroke-linejoin="round" stroke-miterlimit="10" d="
				M97.328,256.771c0,0-77.287,0-77.287,72.599v38.665c0,0,0.073,17.336,20.689,17.336c10.952,0,10.952,0,10.952,0v61.761H174.24"/>
			
				<path fill="none" stroke="#00D704" stroke-width="16" stroke-linecap="round" stroke-linejoin="round" stroke-miterlimit="10" d="
				M98.628,240.765c0,0,0,16.043,0,23.987c0,7.944,3.972,20.303,21.184,20.303s21.184-12.359,21.184-20.303
				c0-7.944,0-23.987,0-23.987"/>
			
				<path fill="none" stroke="#00D704" stroke-width="16" stroke-linecap="round" stroke-linejoin="round" stroke-miterlimit="10" d="
				M63.605,168.74c0,0-17.176-4.271-17.176,13.428c0,13.58,17.176,13.58,17.176,13.58V168.74z"/>
			
				<path fill="none" stroke="#00D704" stroke-width="16" stroke-linecap="round" stroke-linejoin="round" stroke-miterlimit="10" d="
				M63.605,168.74c0,0-8.622-11.79-0.407-28.844c5.567,0,12.341,0,12.341,0S74.174,157.531,63.605,168.74z"/>
			
				<path fill="none" stroke="#00D704" stroke-width="16" stroke-linecap="round" stroke-linejoin="round" stroke-miterlimit="10" d="
				M176.019,168.74c0,0,17.176-4.271,17.176,13.428c0,13.58-17.176,13.58-17.176,13.58V168.74z"/>
			
				<path fill="none" stroke="#00D704" stroke-width="16" stroke-linecap="round" stroke-linejoin="round" stroke-miterlimit="10" d="
				M176.019,168.74c-12.04-15.696-11.934-28.844-11.934-28.844H75.539c0,0,0.106,13.147-11.934,28.844
				c0,25.435-6.765,73.938,56.207,73.938S176.019,194.175,176.019,168.74z"/>
			
				<path fill="none" stroke="#00D704" stroke-width="16" stroke-linecap="round" stroke-linejoin="round" stroke-miterlimit="10" d="
				M176.019,168.74c0,0,8.622-11.79,0.407-28.844c-5.567,0-12.341,0-12.341,0S165.45,157.531,176.019,168.74z"/>
			
				<path fill="none" stroke="#00D704" stroke-width="16" stroke-linecap="round" stroke-linejoin="round" stroke-miterlimit="10" d="
				M115.356,350.842c0,0,29.664-2.452,29.664,17.83c0,19.124-29.664,16.699-29.664,16.699V350.842z"/>
			
				<polyline fill="none" stroke="#00D704" stroke-width="16" stroke-linecap="round" stroke-linejoin="round" stroke-miterlimit="10" points="
				56.357,310.72 56.357,350.842 115.356,350.842 115.356,385.372 51.682,385.372 			"/>
			
				<polygon fill="none" stroke="#00D704" stroke-width="16" stroke-linecap="round" stroke-linejoin="round" stroke-miterlimit="10" points="
				63.442,90.489 61.139,139.896 119.812,139.896 178.485,139.896 177.061,90.544 117.985,81.4 			"/>
		</g>
		<g>
			
				<line fill="none" stroke="#00D704" stroke-width="16" stroke-linecap="round" stroke-linejoin="round" stroke-miterlimit="10" x1="459.914" y1="486.906" x2="459.914" y2="447.133"/>
			
				<line fill="none" stroke="#00D704" stroke-width="16" stroke-linecap="round" stroke-linejoin="round" stroke-miterlimit="10" x1="391.784" y1="385.372" x2="391.784" y2="444.9"/>
			
				<line fill="none" stroke="#00D704" stroke-width="13.499" stroke-linecap="round" stroke-linejoin="round" stroke-miterlimit="10" x1="391.784" y1="285.055" x2="391.784" y2="350.75"/>
			
				<line fill="none" stroke="#00D704" stroke-width="16" stroke-linecap="round" stroke-linejoin="round" stroke-miterlimit="10" x1="337.356" y1="385.372" x2="396.24" y2="385.372"/>
			
				<path fill="none" stroke="#00D704" stroke-width="16" stroke-linecap="round" stroke-linejoin="round" stroke-miterlimit="10" d="
				M368.826,256.771"/>
			
				<path fill="none" stroke="#00D704" stroke-width="16" stroke-linecap="round" stroke-linejoin="round" stroke-miterlimit="10" d="
				M414.268,256.771c0,0,77.287,0,77.287,72.599v38.665c0,0-0.073,17.336-20.689,17.336c-10.952,0-10.952,0-10.952,0v61.761H337.356
				"/>
			
				<path fill="none" stroke="#00D704" stroke-width="16" stroke-linecap="round" stroke-linejoin="round" stroke-miterlimit="10" d="
				M412.968,240.765c0,0,0,16.043,0,23.987c0,7.944-3.972,20.303-21.184,20.303S370.6,272.696,370.6,264.752
				c0-7.944,0-23.987,0-23.987"/>
			
				<path fill="none" stroke="#00D704" stroke-width="16" stroke-linecap="round" stroke-linejoin="round" stroke-miterlimit="10" d="
				M447.991,168.74c0,0,17.176-4.271,17.176,13.428c0,13.58-17.176,13.58-17.176,13.58V168.74z"/>
			
				<path fill="none" stroke="#00D704" stroke-width="16" stroke-linecap="round" stroke-linejoin="round" stroke-miterlimit="10" d="
				M447.991,168.74c0,0,8.622-11.79,0.407-28.844c-5.567,0-12.341,0-12.341,0S437.422,157.531,447.991,168.74z"/>
			
				<path fill="none" stroke="#00D704" stroke-width="16" stroke-linecap="round" stroke-linejoin="round" stroke-miterlimit="10" d="
				M335.577,168.74c0,0-17.176-4.271-17.176,13.428c0,13.58,17.176,13.58,17.176,13.58V168.74z"/>
			
				<path fill="none" stroke="#00D704" stroke-width="16" stroke-linecap="round" stroke-linejoin="round" stroke-miterlimit="10" d="
				M335.577,168.74c12.04-15.696,11.934-28.844,11.934-28.844h88.546c0,0-0.106,13.147,11.934,28.844
				c0,25.435,6.765,73.938-56.207,73.938S335.577,194.175,335.577,168.74z"/>
			
				<path fill="none" stroke="#00D704" stroke-width="16" stroke-linecap="round" stroke-linejoin="round" stroke-miterlimit="10" d="
				M335.577,168.74c0,0-8.622-11.79-0.407-28.844c5.567,0,12.341,0,12.341,0S346.146,157.531,335.577,168.74z"/>
			
				<path fill="none" stroke="#00D704" stroke-width="16" stroke-linecap="round" stroke-linejoin="round" stroke-miterlimit="10" d="
				M396.24,350.842c0,0-29.664-2.452-29.664,17.83c0,19.124,29.664,16.699,29.664,16.699V350.842z"/>
			
				<polyline fill="none" stroke="#00D704" stroke-width="16" stroke-linecap="round" stroke-linejoin="round" stroke-miterlimit="10" points="
				455.239,310.72 455.239,350.842 396.24,350.842 396.24,385.372 459.914,385.372 			"/>
			
				<polygon fill="none" stroke="#00D704" stroke-width="16" stroke-linecap="round" stroke-linejoin="round" stroke-miterlimit="10" points="
				448.154,90.489 450.458,139.896 391.785,139.896 333.111,139.896 334.535,90.544 393.611,81.4 			"/>
		</g>
	</g>
	<g>
		
			<polyline fill="none" stroke="#007EC9" stroke-width="16" stroke-linecap="round" stroke-linejoin="round" stroke-miterlimit="10" points="
			174.24,486.906 174.24,439.764 336.307,439.764 336.307,486.906 		"/>
		
			<line fill="none" stroke="#007EC9" stroke-width="16" stroke-linecap="round" stroke-linejoin="round" stroke-miterlimit="10" x1="254.992" y1="366.56" x2="254.992" y2="437.118"/>
		
			<line fill="none" stroke="#007EC9" stroke-width="16" stroke-linecap="round" stroke-linejoin="round" stroke-miterlimit="10" x1="254.992" y1="247.658" x2="254.992" y2="325.523"/>
		
			<line fill="none" stroke="#007EC9" stroke-width="16" stroke-linecap="round" stroke-linejoin="round" stroke-miterlimit="10" x1="336.307" y1="366.56" x2="249.71" y2="366.56"/>
		<path fill="none" stroke="#007EC9" stroke-width="16" stroke-linecap="round" stroke-linejoin="round" stroke-miterlimit="10" d="
			M228.343,214.133c0,0-91.606,0-91.606,86.05v45.829c0,0,0.086,20.548,24.522,20.548c12.981,0,12.981,0,12.981,0v73.204h162.067
			V366.56c0,0,0,0,12.982,0c24.436,0,24.521-20.548,24.521-20.548v-45.829c0-86.05-91.606-86.05-91.606-86.05"/>
		<path fill="none" stroke="#007EC9" stroke-width="16" stroke-linecap="round" stroke-linejoin="round" stroke-miterlimit="10" d="
			M229.884,195.162c0,0,0,19.015,0,28.431c0,9.416,4.708,24.064,25.108,24.064s25.109-14.649,25.109-24.064
			c0-9.416,0-28.431,0-28.431"/>
		<path fill="none" stroke="#007EC9" stroke-width="16" stroke-linecap="round" stroke-linejoin="round" stroke-miterlimit="10" d="
			M188.372,109.792c0,0-20.358-5.062-20.358,15.917c0,16.096,20.358,16.096,20.358,16.096V109.792z"/>
		<path fill="none" stroke="#007EC9" stroke-width="16" stroke-linecap="round" stroke-linejoin="round" stroke-miterlimit="10" d="
			M188.372,109.792c0,0-10.219-13.974-0.482-34.188c6.598,0,14.627,0,14.627,0S200.898,96.506,188.372,109.792z"/>
		<path fill="none" stroke="#007EC9" stroke-width="16" stroke-linecap="round" stroke-linejoin="round" stroke-miterlimit="10" d="
			M321.613,109.792c0,0,20.358-5.062,20.358,15.917c0,16.096-20.358,16.096-20.358,16.096V109.792z"/>
		<path fill="none" stroke="#007EC9" stroke-width="16" stroke-linecap="round" stroke-linejoin="round" stroke-miterlimit="10" d="
			M321.613,109.792c-14.271-18.604-14.145-34.188-14.145-34.188H202.517c0,0,0.125,15.583-14.145,34.188
			c0,30.148-8.018,87.636,66.621,87.636S321.613,139.94,321.613,109.792z"/>
		<path fill="none" stroke="#007EC9" stroke-width="16" stroke-linecap="round" stroke-linejoin="round" stroke-miterlimit="10" d="
			M321.613,109.792c0,0,10.22-13.974,0.482-34.188c-6.598,0-14.627,0-14.627,0S309.086,96.506,321.613,109.792z"/>
		
			<polyline fill="none" stroke="#007EC9" stroke-width="16" stroke-linecap="round" stroke-linejoin="round" stroke-miterlimit="10" points="
			329.641,278.077 329.641,325.523 249.71,325.523 		"/>
		<path fill="none" stroke="#007EC9" stroke-width="16" stroke-linecap="round" stroke-linejoin="round" stroke-miterlimit="10" d="
			M249.71,325.633c0,0,35.16-2.906,35.16,21.134c0,22.667-35.16,19.793-35.16,19.793V325.633z"/>
		<path fill="none" stroke="#007EC9" stroke-width="16" stroke-linecap="round" stroke-linejoin="round" stroke-miterlimit="10" d="
			M254.992,24.179c-63.294,0-67.103,51.426-67.103,51.426h67.103h67.103C322.095,75.604,318.287,24.179,254.992,24.179z"/>
		
			<polyline fill="none" stroke="#007EC9" stroke-width="16" stroke-linecap="round" stroke-linejoin="round" stroke-miterlimit="10" points="
			179.781,278.077 179.781,325.633 249.71,325.633 249.71,366.56 174.24,366.56 		"/>
	</g>
</g>
</svg>
