<?xml version="1.0" encoding="utf-8"?>
<!-- Generator: Adobe Illustrator 16.0.0, SVG Export Plug-In . SVG Version: 6.00 Build 0)  -->
<!DOCTYPE svg PUBLIC "-//W3C//DTD SVG 1.1//EN" "http://www.w3.org/Graphics/SVG/1.1/DTD/svg11.dtd">
<svg version="1.1" id="Layer_2" xmlns="http://www.w3.org/2000/svg" xmlns:xlink="http://www.w3.org/1999/xlink" x="0px" y="0px"
	 width="512px" height="512px" viewBox="0 0 512 512" enable-background="new 0 0 512 512" xml:space="preserve">
<g>
	
		<polygon fill="none" stroke="#007EC9" stroke-width="16" stroke-linecap="round" stroke-linejoin="round" stroke-miterlimit="10" points="
		256.02,410.982 94.754,440.573 94.754,389.519 	"/>
	
		<polygon fill="none" stroke="#007EC9" stroke-width="16" stroke-linecap="round" stroke-linejoin="round" stroke-miterlimit="10" points="
		256.02,410.982 417.286,440.573 417.286,389.519 	"/>
	<path fill="none" stroke="#00D704" stroke-width="16" stroke-linecap="round" stroke-linejoin="round" stroke-miterlimit="10" d="
		M452.741,102.963l12.649-2.081c0,0,14.17-5.37,14.17,20.576c0,60.31,0,216.394,0,233.597c0,21.378-18.35,24.36-48.515,30.311
		c-30.165,5.95-175.036,25.616-175.036,25.616h0.01c0,0-144.872-19.666-175.036-25.616c-30.164-5.951-48.515-8.933-48.515-30.311
		c0-17.203,0-173.285,0-233.596c0-23.633,18.738-20.577,18.738-20.577l8.366,1.407"/>
	<g>
		<g>
			<g>
				
					<path fill="none" stroke="#007EC9" stroke-width="16" stroke-linecap="round" stroke-linejoin="round" stroke-miterlimit="10" d="
					M256.003,365.087L79.496,338.548c-14.302-1.554-23.181-10.579-23.18-27.67l-0.001-195.585
					c-0.001-17.09,23.757-47.921,43.158-44.311"/>
				
					<path fill="none" stroke="#007EC9" stroke-width="16" stroke-linecap="round" stroke-linejoin="round" stroke-miterlimit="10" d="
					M256.003,362.861c0.385,1.89-5.816-33.79-47.271-40.362c-45.956-7.286-101.185-15.014-108.98-17.106
					c-14.94-4.011-22.229-5.902-22.229-26.163L77.521,91.847c-0.001-15.276,10.316-23.391,27.658-20.164l101.075,15.671
					c0,0,49.748,6.91,49.748,49.909C256.001,171.695,256.003,362.861,256.003,362.861z"/>
				
					<path fill="none" stroke="#007EC9" stroke-width="16" stroke-linecap="round" stroke-linejoin="round" stroke-miterlimit="10" d="
					M80.641,295.395c0,0-14.557,23.673-15.174,37.9"/>
			</g>
		</g>
		<g>
			
				<path fill="none" stroke="#00D704" stroke-width="16" stroke-linecap="round" stroke-linejoin="round" stroke-miterlimit="10" d="
				M102.487,265.826c0,0,74.029,12.78,101.448,16.732c19.551,2.817,27.119,9.809,27.119,9.809"/>
			
				<path fill="none" stroke="#00D704" stroke-width="16" stroke-linecap="round" stroke-linejoin="round" stroke-miterlimit="10" d="
				M102.487,234.001c0,0,74.029,12.781,101.448,16.733c19.551,2.818,27.119,9.809,27.119,9.809"/>
			
				<path fill="none" stroke="#00D704" stroke-width="16" stroke-linecap="round" stroke-linejoin="round" stroke-miterlimit="10" d="
				M102.487,202.177c0,0,74.029,12.781,101.448,16.733c19.551,2.818,27.119,9.809,27.119,9.809"/>
			
				<path fill="none" stroke="#00D704" stroke-width="16" stroke-linecap="round" stroke-linejoin="round" stroke-miterlimit="10" d="
				M102.487,170.353c0,0,74.029,12.781,101.448,16.733c19.551,2.818,27.119,9.809,27.119,9.809"/>
			
				<path fill="none" stroke="#00D704" stroke-width="16" stroke-linecap="round" stroke-linejoin="round" stroke-miterlimit="10" d="
				M102.487,138.53c0,0,74.029,12.781,101.448,16.733c19.551,2.818,27.119,9.809,27.119,9.809"/>
			
				<path fill="none" stroke="#00D704" stroke-width="16" stroke-linecap="round" stroke-linejoin="round" stroke-miterlimit="10" d="
				M102.487,106.706c0,0,74.029,12.781,101.448,16.732c19.551,2.818,27.119,9.81,27.119,9.81"/>
		</g>
		<g>
			<g>
				
					<path fill="none" stroke="#007EC9" stroke-width="16" stroke-linecap="round" stroke-linejoin="round" stroke-miterlimit="10" d="
					M256.018,365.087l176.507-26.539c14.302-1.554,23.181-10.579,23.18-27.67l0.002-195.585
					c0.001-17.09-23.757-47.921-43.159-44.311"/>
				
					<path fill="none" stroke="#007EC9" stroke-width="16" stroke-linecap="round" stroke-linejoin="round" stroke-miterlimit="10" d="
					M256.018,362.861c-0.385,1.89,5.816-33.79,47.272-40.362c45.956-7.286,101.184-15.014,108.98-17.106
					c14.939-4.011,22.229-5.902,22.229-26.163L434.5,91.847c0.001-15.276-10.317-23.391-27.657-20.164L305.768,87.354
					c0,0-49.749,6.91-49.749,49.909C256.019,171.695,256.018,362.861,256.018,362.861z"/>
				
					<path fill="none" stroke="#007EC9" stroke-width="16" stroke-linecap="round" stroke-linejoin="round" stroke-miterlimit="10" d="
					M431.379,295.395c0,0,14.559,23.673,15.174,37.9"/>
			</g>
		</g>
		<g>
			
				<path fill="none" stroke="#00D704" stroke-width="16" stroke-linecap="round" stroke-linejoin="round" stroke-miterlimit="10" d="
				M409.534,265.826c0,0-74.028,12.78-101.448,16.732c-19.551,2.817-27.118,9.809-27.118,9.809"/>
			
				<path fill="none" stroke="#00D704" stroke-width="16" stroke-linecap="round" stroke-linejoin="round" stroke-miterlimit="10" d="
				M409.534,234.001c0,0-74.028,12.781-101.448,16.733c-19.551,2.818-27.118,9.809-27.118,9.809"/>
			
				<path fill="none" stroke="#00D704" stroke-width="16" stroke-linecap="round" stroke-linejoin="round" stroke-miterlimit="10" d="
				M409.534,202.177c0,0-74.028,12.781-101.448,16.733c-19.551,2.818-27.118,9.809-27.118,9.809"/>
			
				<path fill="none" stroke="#00D704" stroke-width="16" stroke-linecap="round" stroke-linejoin="round" stroke-miterlimit="10" d="
				M409.534,170.353c0,0-74.028,12.781-101.448,16.733c-19.551,2.818-27.118,9.809-27.118,9.809"/>
			
				<path fill="none" stroke="#00D704" stroke-width="16" stroke-linecap="round" stroke-linejoin="round" stroke-miterlimit="10" d="
				M409.534,138.53c0,0-74.028,12.781-101.448,16.733c-19.551,2.818-27.118,9.809-27.118,9.809"/>
			
				<path fill="none" stroke="#00D704" stroke-width="16" stroke-linecap="round" stroke-linejoin="round" stroke-miterlimit="10" d="
				M409.534,106.706c0,0-74.028,12.781-101.448,16.732c-19.551,2.818-27.118,9.81-27.118,9.81"/>
		</g>
	</g>
	
		<polyline fill="none" stroke="#00D704" stroke-width="16" stroke-linecap="round" stroke-linejoin="round" stroke-miterlimit="10" points="
		460.833,351.957 256.02,382.878 51.207,351.957 	"/>
</g>
</svg>
