<?xml version="1.0" encoding="utf-8"?>
<!-- Generator: Adobe Illustrator 16.0.0, SVG Export Plug-In . SVG Version: 6.00 Build 0)  -->
<!DOCTYPE svg PUBLIC "-//W3C//DTD SVG 1.1//EN" "http://www.w3.org/Graphics/SVG/1.1/DTD/svg11.dtd">
<svg version="1.1" id="Layer_2" xmlns="http://www.w3.org/2000/svg" xmlns:xlink="http://www.w3.org/1999/xlink" x="0px" y="0px"
	 width="512px" height="512px" viewBox="0 0 512 512" enable-background="new 0 0 512 512" xml:space="preserve">
<path fill="none" stroke="#007EC9" stroke-width="16" stroke-linecap="round" stroke-linejoin="round" stroke-miterlimit="10" d="
	M68.499,490.064v-30.388c0-17.055,2.27-31.978,6.241-45.035"/>
<g>
	<path fill="none" stroke="#007EC9" stroke-width="16" stroke-linecap="round" stroke-linejoin="round" stroke-miterlimit="10" d="
		M437.155,414.299c4.036,13.139,6.346,28.174,6.346,45.378v30.388"/>
	
		<line fill="none" stroke="#007EC9" stroke-width="16" stroke-linecap="round" stroke-linejoin="round" stroke-miterlimit="10" x1="128.31" y1="489.564" x2="128.31" y2="446.518"/>
	
		<line fill="none" stroke="#007EC9" stroke-width="16" stroke-linecap="round" stroke-linejoin="round" stroke-miterlimit="10" x1="383.69" y1="489.564" x2="383.69" y2="451.322"/>
	<path fill="none" stroke="#00D704" stroke-width="16" stroke-linecap="round" stroke-linejoin="round" stroke-miterlimit="10" d="
		M437.524,414.189c0,0-41.223-83.615-41.223-231.434c-6.534-107.32-59.463-160.699-139.895-160.699h-0.271
		c-80.432,0-133.36,53.379-139.895,160.699c0,147.818-41.223,231.434-41.223,231.434s32.585,49.847,181.253,49.877
		C404.939,464.036,437.524,414.189,437.524,414.189z M256.136,296.754c-118.344,0-105.631-120.938-105.631-167.839
		c0-2.851,211.262,0,211.262,0C361.767,175.815,374.479,296.754,256.136,296.754z"/>
	<path fill="none" stroke="#00D704" stroke-width="16" stroke-linecap="round" stroke-linejoin="round" stroke-miterlimit="10" d="
		M216.188,135.685"/>
	<path fill="none" stroke="#00D704" stroke-width="16" stroke-linecap="round" stroke-linejoin="round" stroke-miterlimit="10" d="
		M295.812,135.685"/>
	<path fill="none" stroke="#007EC9" stroke-width="16" stroke-linecap="round" stroke-linejoin="round" stroke-miterlimit="10" d="
		M150.369,128.915c0,46.9-12.713,167.839,105.631,167.839s105.631-120.938,105.631-167.839"/>
	<path fill="none" stroke="#00D704" stroke-width="16" stroke-linecap="round" stroke-linejoin="round" stroke-miterlimit="10" d="
		M256,46.771c-100.356,0-106.396,81.538-106.396,81.538H256h106.396C362.396,128.31,356.356,46.771,256,46.771z"/>
</g>
</svg>
