<?xml version="1.0" encoding="utf-8"?>
<!-- Generator: Adobe Illustrator 16.0.0, SVG Export Plug-In . SVG Version: 6.00 Build 0)  -->
<!DOCTYPE svg PUBLIC "-//W3C//DTD SVG 1.1//EN" "http://www.w3.org/Graphics/SVG/1.1/DTD/svg11.dtd">
<svg version="1.1" id="Layer_2" xmlns="http://www.w3.org/2000/svg" xmlns:xlink="http://www.w3.org/1999/xlink" x="0px" y="0px"
	 width="512px" height="512px" viewBox="0 0 512 512" enable-background="new 0 0 512 512" xml:space="preserve">
<g>
	<g>
		<g>
			
				<line fill="none" stroke="#00D704" stroke-width="16" stroke-linecap="round" stroke-linejoin="round" stroke-miterlimit="10" x1="89.112" y1="422.559" x2="201.633" y2="422.559"/>
			
				<line fill="none" stroke="#00D704" stroke-width="16" stroke-linecap="round" stroke-linejoin="round" stroke-miterlimit="10" x1="97.295" y1="393.259" x2="170.178" y2="393.259"/>
			
				<line fill="none" stroke="#00D704" stroke-width="16" stroke-linecap="round" stroke-linejoin="round" stroke-miterlimit="10" x1="99.965" y1="451.33" x2="236.959" y2="451.33"/>
			
				<line fill="none" stroke="#00D704" stroke-width="16" stroke-linecap="round" stroke-linejoin="round" stroke-miterlimit="10" x1="269.69" y1="422.559" x2="367.254" y2="422.559"/>
			
				<line fill="none" stroke="#00D704" stroke-width="16" stroke-linecap="round" stroke-linejoin="round" stroke-miterlimit="10" x1="301.423" y1="393.259" x2="374.306" y2="393.259"/>
			
				<line fill="none" stroke="#00D704" stroke-width="16" stroke-linecap="round" stroke-linejoin="round" stroke-miterlimit="10" x1="330.775" y1="451.33" x2="374.306" y2="451.33"/>
			
				<rect x="145.614" y="35.089" fill="none" stroke="#007EC9" stroke-width="16" stroke-linecap="round" stroke-linejoin="round" stroke-miterlimit="10" width="278.546" height="328.839"/>
			
				<path fill="none" stroke="#007EC9" stroke-width="16" stroke-linecap="round" stroke-linejoin="round" stroke-miterlimit="10" d="
				M367.679,420.542c0-31.132,25.238-56.368,56.37-56.368H145.86c-31.133,0-56.37,25.236-56.37,56.368s25.237,56.369,56.37,56.369
				h278.188C392.917,476.911,367.679,451.674,367.679,420.542z"/>
			
				<path fill="none" stroke="#007EC9" stroke-width="16" stroke-linecap="round" stroke-linejoin="round" stroke-miterlimit="10" d="
				M145.86,364.174c-31.133,0-56.37,25.236-56.37,56.368V91.457c0-31.131,25.237-56.368,56.37-56.368V364.174z"/>
		</g>
		<path fill="none" stroke="#007EC9" stroke-width="16" stroke-linecap="round" stroke-linejoin="round" stroke-miterlimit="10" d="
			M424.049,476.911c0,0-0.18-112.558,0-112.737s-0.18,0.18-0.18,0.18s-56.19,3.611-56.19,56.188
			C367.679,473.12,424.049,476.911,424.049,476.911z"/>
	</g>
	<path fill="none" stroke="#00D704" stroke-width="16" stroke-linecap="round" stroke-linejoin="round" stroke-miterlimit="10" d="
		M356.416,186.735l-11.92-11.921v-16.853c0-9.978-8.087-18.064-18.062-18.064h-16.856l-11.919-11.919
		c-7.053-7.055-18.491-7.055-25.546,0l-11.918,11.919H243.34c-9.978,0-18.064,8.087-18.064,18.064v16.854l-11.919,11.919
		c-7.055,7.054-7.055,18.491,0,25.545l11.919,11.919v16.856c0,9.977,8.087,18.064,18.062,18.062h16.858l11.918,11.919
		c7.054,7.055,18.491,7.055,25.544,0l11.919-11.917h16.856c9.977-0.002,18.062-8.089,18.064-18.064l-0.002-16.854l11.92-11.921
		C363.471,205.226,363.471,193.789,356.416,186.735z"/>
</g>
</svg>
