<?xml version="1.0" encoding="utf-8"?>
<!-- Generator: Adobe Illustrator 16.0.0, SVG Export Plug-In . SVG Version: 6.00 Build 0)  -->
<!DOCTYPE svg PUBLIC "-//W3C//DTD SVG 1.1//EN" "http://www.w3.org/Graphics/SVG/1.1/DTD/svg11.dtd">
<svg version="1.1" id="Layer_2" xmlns="http://www.w3.org/2000/svg" xmlns:xlink="http://www.w3.org/1999/xlink" x="0px" y="0px"
	 width="512px" height="512px" viewBox="0 0 512 512" enable-background="new 0 0 512 512" xml:space="preserve">
<g>
	<g>
		
			<line fill="none" stroke="#00D704" stroke-width="16" stroke-linecap="round" stroke-linejoin="round" stroke-miterlimit="10" x1="138.448" y1="461.677" x2="138.448" y2="482.684"/>
		
			<line fill="none" stroke="#00D704" stroke-width="16" stroke-linecap="round" stroke-linejoin="round" stroke-miterlimit="10" x1="176.849" y1="461.677" x2="176.849" y2="482.684"/>
		
			<line fill="none" stroke="#00D704" stroke-width="16" stroke-linecap="round" stroke-linejoin="round" stroke-miterlimit="10" x1="215.25" y1="461.677" x2="215.25" y2="482.684"/>
		
			<line fill="none" stroke="#00D704" stroke-width="16" stroke-linecap="round" stroke-linejoin="round" stroke-miterlimit="10" x1="292.053" y1="461.677" x2="292.053" y2="482.684"/>
		
			<line fill="none" stroke="#00D704" stroke-width="16" stroke-linecap="round" stroke-linejoin="round" stroke-miterlimit="10" x1="330.455" y1="461.677" x2="330.455" y2="482.684"/>
		
			<line fill="none" stroke="#00D704" stroke-width="16" stroke-linecap="round" stroke-linejoin="round" stroke-miterlimit="10" x1="253.652" y1="461.677" x2="253.652" y2="482.684"/>
		
			<line fill="none" stroke="#00D704" stroke-width="16" stroke-linecap="round" stroke-linejoin="round" stroke-miterlimit="10" x1="368.856" y1="461.677" x2="368.856" y2="482.684"/>
	</g>
	<g>
		
			<line fill="none" stroke="#00D704" stroke-width="16" stroke-linecap="round" stroke-linejoin="round" stroke-miterlimit="10" x1="138.448" y1="29.179" x2="138.448" y2="50.186"/>
		
			<line fill="none" stroke="#00D704" stroke-width="16" stroke-linecap="round" stroke-linejoin="round" stroke-miterlimit="10" x1="176.849" y1="29.179" x2="176.849" y2="50.186"/>
		
			<line fill="none" stroke="#00D704" stroke-width="16" stroke-linecap="round" stroke-linejoin="round" stroke-miterlimit="10" x1="215.25" y1="29.179" x2="215.25" y2="50.186"/>
		
			<line fill="none" stroke="#00D704" stroke-width="16" stroke-linecap="round" stroke-linejoin="round" stroke-miterlimit="10" x1="292.053" y1="29.179" x2="292.053" y2="50.186"/>
		
			<line fill="none" stroke="#00D704" stroke-width="16" stroke-linecap="round" stroke-linejoin="round" stroke-miterlimit="10" x1="330.455" y1="29.179" x2="330.455" y2="50.186"/>
		
			<line fill="none" stroke="#00D704" stroke-width="16" stroke-linecap="round" stroke-linejoin="round" stroke-miterlimit="10" x1="253.652" y1="29.179" x2="253.652" y2="50.186"/>
		
			<line fill="none" stroke="#00D704" stroke-width="16" stroke-linecap="round" stroke-linejoin="round" stroke-miterlimit="10" x1="368.856" y1="29.179" x2="368.856" y2="50.186"/>
	</g>
	<path fill="none" stroke="#00D704" stroke-width="16" stroke-linecap="round" stroke-linejoin="round" stroke-miterlimit="10" d="
		M366.519,410.272v-187.58c0,0,0,0-22.623,0c36.762-32.99,16.217-82.657-26.393-96.146c-37.54-11.883-63.155-35.818-63.155-35.818
		s-25.615,23.936-63.155,35.818c-42.61,13.488-63.155,63.155-26.393,96.146c-22.623,0-22.623,0-22.623,0v187.58H366.519z"/>
	<path fill="none" stroke="#007EC9" stroke-width="16" stroke-linecap="round" stroke-linejoin="round" stroke-miterlimit="10" d="
		M411.64,420.285c0,22.859-18.531,41.391-41.391,41.393l-231.801-0.001c-22.86,0.001-41.391-18.53-41.39-41.392L97.057,91.579
		c-0.002-22.863,18.53-41.396,41.392-41.394h231.798c22.86-0.001,41.393,18.532,41.393,41.393L411.64,420.285z"/>
</g>
</svg>
