<?xml version="1.0" encoding="utf-8"?>
<!-- Generator: Adobe Illustrator 16.0.0, SVG Export Plug-In . SVG Version: 6.00 Build 0)  -->
<!DOCTYPE svg PUBLIC "-//W3C//DTD SVG 1.1//EN" "http://www.w3.org/Graphics/SVG/1.1/DTD/svg11.dtd">
<svg version="1.1" id="Layer_2" xmlns="http://www.w3.org/2000/svg" xmlns:xlink="http://www.w3.org/1999/xlink" x="0px" y="0px"
	 width="512px" height="512px" viewBox="0 0 512 512" enable-background="new 0 0 512 512" xml:space="preserve">
<g>
	<g>
		<path fill="none" stroke="#007EC9" stroke-width="16" stroke-linecap="round" stroke-linejoin="round" stroke-miterlimit="10" d="
			M442.465,352.6c-12.467,59.249-35.62,99.056-62.123,99.056c-8.064,0-15.819-3.686-23.057-10.484"/>
		<path fill="none" stroke="#007EC9" stroke-width="16" stroke-linecap="round" stroke-linejoin="round" stroke-miterlimit="10" d="
			M337.038,411.405c-17.364-36.427-28.585-94.224-28.585-159.295c0-110.206,32.185-199.545,71.889-199.545
			s71.89,89.34,71.89,199.545c0,16.429-0.716,32.395-2.064,47.67"/>
		<path fill="none" stroke="#007EC9" stroke-width="16" stroke-linecap="round" stroke-linejoin="round" stroke-miterlimit="10" d="
			M357.285,441.171c7.237,6.798,14.992,10.484,23.057,10.484"/>
		<path fill="none" stroke="#007EC9" stroke-width="16" stroke-linecap="round" stroke-linejoin="round" stroke-miterlimit="10" d="
			M315.252,439.181l-198.551-38.057c-34.116-4.061-53.685-66.716-53.685-149.014c0-82.297,22.818-143.819,53.685-149.013
			l263.641-50.532c-39.704,0-71.889,89.34-71.889,199.545c0,65.072,11.221,122.87,28.585,159.296"/>
		<path fill="none" stroke="#007EC9" stroke-width="16" stroke-linecap="round" stroke-linejoin="round" stroke-miterlimit="10" d="
			M337.037,411.404c-17.364-36.427-28.584-94.223-28.584-159.294c0-110.206,32.185-199.545,71.889-199.545l-46.86,8.861
			c-37.94,0-68.695,85.373-68.695,190.684c0,98.731,27.029,179.936,61.672,189.7"/>
		<path fill="none" stroke="#007EC9" stroke-width="16" stroke-linecap="round" stroke-linejoin="round" stroke-miterlimit="10" d="
			M380.342,451.656c-8.064,0-15.819-3.686-23.057-10.484"/>
		<path fill="none" stroke="#007EC9" stroke-width="16" stroke-linecap="round" stroke-linejoin="round" stroke-miterlimit="10" d="
			M80.232,110.747c-27.602,3.574-51.104,63.509-51.104,141.851s20.373,136.437,51.104,141.85l34.859,6.592
			c-28.712-2.758-53.479-66.459-53.479-148.442c0-81.983,24.768-146.552,54.302-149.481L80.232,110.747z"/>
		
			<polyline fill="none" stroke="#00D704" stroke-width="16" stroke-linecap="round" stroke-linejoin="round" stroke-miterlimit="10" points="
			99.606,393.405 271.871,336.521 63.017,252.11 271.871,167.699 99.606,110.815 		"/>
	</g>
	<g>
		<path fill="none" stroke="#00D704" stroke-width="16" stroke-linecap="round" stroke-linejoin="round" stroke-miterlimit="10" d="
			M412.396,251.147l22.082-10.445l-11.363-11.599c4.066-8.29,4.464-18.285,0.209-27.28c-7.416-15.681-26.142-22.379-41.822-14.962
			c-15.68,7.417-22.38,26.143-14.961,41.823c4.389,9.279,12.739,15.41,22.073,17.334"/>
		<path fill="none" stroke="#00D704" stroke-width="16" stroke-linecap="round" stroke-linejoin="round" stroke-miterlimit="10" d="
			M412.396,251.147l12.062-5.706l57.964,122.535c3.09,6.533,0.299,14.335-6.235,17.425l-1.257,0.596
			c-6.534,3.091-14.336,0.299-17.426-6.234l-39.457-83.413"/>
	</g>
	<g>
		<path fill="none" stroke="#00D704" stroke-width="16" stroke-linecap="round" stroke-linejoin="round" stroke-miterlimit="10" d="
			M422.226,287.696c5.057-16.593-4.295-34.143-20.888-39.2c-16.593-5.057-34.145,4.296-39.2,20.888
			c-2.993,9.82-0.936,19.974,4.678,27.675l-9.219,12.669l23.369,7.121l23.365,7.122l-0.607-16.227
			C412.309,304.345,419.325,297.216,422.226,287.696z"/>
		<path fill="none" stroke="#00D704" stroke-width="16" stroke-linecap="round" stroke-linejoin="round" stroke-miterlimit="10" d="
			M393.729,320.739l-39.515,129.667c-2.107,6.913-9.417,10.81-16.332,8.702l-1.333-0.405c-6.912-2.106-10.809-9.419-8.702-16.333
			l39.514-129.665L393.729,320.739z"/>
	</g>
</g>
</svg>
