<?xml version="1.0" encoding="utf-8"?>
<!-- Generator: Adobe Illustrator 16.0.0, SVG Export Plug-In . SVG Version: 6.00 Build 0)  -->
<!DOCTYPE svg PUBLIC "-//W3C//DTD SVG 1.1//EN" "http://www.w3.org/Graphics/SVG/1.1/DTD/svg11.dtd">
<svg version="1.1" id="Layer_2" xmlns="http://www.w3.org/2000/svg" xmlns:xlink="http://www.w3.org/1999/xlink" x="0px" y="0px"
	 width="512px" height="512px" viewBox="0 0 512 512" enable-background="new 0 0 512 512" xml:space="preserve">
<g>
	
		<line fill="none" stroke="#00D704" stroke-width="16" stroke-linecap="round" stroke-linejoin="round" stroke-miterlimit="10" x1="219.619" y1="327.625" x2="219.619" y2="402.4"/>
	
		<line fill="none" stroke="#00D704" stroke-width="16" stroke-linecap="round" stroke-linejoin="round" stroke-miterlimit="10" x1="293.492" y1="402.4" x2="293.492" y2="327.625"/>
	<path fill="none" stroke="#007EC9" stroke-width="16" stroke-linecap="round" stroke-linejoin="round" stroke-miterlimit="10" d="
		M213.325,435.343c0,6.929,5.616,12.545,12.544,12.545h61.376c6.927,0,12.544-5.616,12.544-12.545v-21.952
		c0-6.928-5.617-12.544-12.544-12.544h-61.376c-6.928,0-12.544,5.616-12.544,12.544V435.343z"/>
	<path fill="none" stroke="#007EC9" stroke-width="16" stroke-linecap="round" stroke-linejoin="round" stroke-miterlimit="10" d="
		M242.203,371.135c-10.015,5.196-16.856,15.66-16.856,27.722"/>
	<path fill="none" stroke="#007EC9" stroke-width="16" stroke-linecap="round" stroke-linejoin="round" stroke-miterlimit="10" d="
		M287.766,398.856c0-12.063-6.844-22.526-16.859-27.722"/>
	<path fill="none" stroke="#00D704" stroke-width="16" stroke-linecap="round" stroke-linejoin="round" stroke-miterlimit="10" d="
		M242.208,376.201c0,6.023,6.425,10.906,14.348,10.906l0,0c7.924,0,14.349-4.883,14.349-10.906v-17.107
		c0-6.023-6.425-10.906-14.349-10.906l0,0c-7.923,0-14.348,4.883-14.348,10.906V376.201z"/>
	<path fill="none" stroke="#007EC9" stroke-width="16" stroke-linecap="round" stroke-linejoin="round" stroke-miterlimit="10" d="
		M82.849,196.292c-21.979-0.001-39.799,17.818-39.798,39.798L43.05,427.756c0,21.979,17.817,39.796,39.797,39.797l347.42-0.001
		c21.979,0.001,39.794-17.816,39.794-39.796l0.002-191.666c0.002-21.981-17.816-39.799-39.797-39.798"/>
	<path fill="none" stroke="#007EC9" stroke-width="16" stroke-linecap="round" stroke-linejoin="round" stroke-miterlimit="10" d="
		M43.051,270.46l-0.001,17.368c0,21.979,17.817,39.796,39.797,39.797l347.42-0.001c21.979,0.001,39.794-17.816,39.794-39.797
		l0.002-17.367"/>
	<path fill="none" stroke="#007EC9" stroke-width="16" stroke-linecap="round" stroke-linejoin="round" stroke-miterlimit="10" d="
		M187.977,196.292H82.849c-21.979-0.001-39.799,17.818-39.798,39.798l-0.001,17.368c0,21.979,17.817,39.795,39.797,39.796
		l347.42-0.001c21.979,0.001,39.794-17.815,39.794-39.796l0.002-17.367c0.002-21.981-17.816-39.799-39.797-39.798H325.135"/>
	<path fill="none" stroke="#007EC9" stroke-width="16" stroke-linecap="round" stroke-linejoin="round" stroke-miterlimit="10" d="
		M186.16,172.68c0,0,8.285-3.941-11.683,5.903c-36.295,14.905-45.12-22.235-24.441-34.01l37.94-22.301
		c0,0-40.046,24.989-37.94,22.301c8.672-11.068,21.346-25.565,36.144-40.086"/>
	<path fill="none" stroke="#007EC9" stroke-width="16" stroke-linecap="round" stroke-linejoin="round" stroke-miterlimit="10" d="
		M220.049,74.884c23.014-17.546,47.511-30.65,68.711-30.65c49.064,0,114.281,0,114.281,0v92.045c0,0-9.568,32.649-48.947,32.649
		c-39.38,0-46.54,0-65.334,0c-31.325,0-32.22-47.623,0-47.623c17.004,0,45.644,0,45.644,0h-46.481"/>
	<g>
		<path fill="none" stroke="#00D704" stroke-width="16" stroke-linecap="round" stroke-linejoin="round" stroke-miterlimit="10" d="
			M325.136,121.305V94.102c0-9.885-8.014-17.899-17.899-17.899H205.877c-9.887,0-17.9,8.015-17.9,17.899v156.125h137.159v-81.299"/>
		
			<circle fill="none" stroke="#00D704" stroke-width="16" stroke-linecap="round" stroke-linejoin="round" stroke-miterlimit="10" cx="256.557" cy="193.408" r="27.09"/>
		
			<polyline fill="none" stroke="#00D704" stroke-width="16" stroke-linecap="round" stroke-linejoin="round" stroke-miterlimit="10" points="
			304.203,119.91 304.203,99.497 208.91,99.497 208.91,250.234 304.203,250.234 304.203,168.928 		"/>
	</g>
	<path fill="none" stroke="#007EC9" stroke-width="16" stroke-linecap="round" stroke-linejoin="round" stroke-miterlimit="10" d="
		M334.403,121.305c0,0-26.518,0-46.481,0c-30.525,0-32.162,47.609,0,47.609h46.481"/>
	
		<line fill="none" stroke="#007EC9" stroke-width="16" stroke-linecap="round" stroke-linejoin="round" stroke-miterlimit="10" x1="346.042" y1="250.234" x2="169.614" y2="250.234"/>
	<path fill="none" stroke="#00D704" stroke-width="16" stroke-linecap="round" stroke-linejoin="round" stroke-miterlimit="10" d="
		M470.047,44.233h-67.006v114.003c0,9.886,8.014,17.9,17.899,17.9h49.139"/>
	
		<circle fill="none" stroke="#00D704" stroke-width="16" stroke-linecap="round" stroke-linejoin="round" stroke-miterlimit="10" cx="438.878" cy="136.871" r="16.96"/>
</g>
</svg>
