<?xml version="1.0" encoding="utf-8"?>
<!-- Generator: Adobe Illustrator 24.0.0, SVG Export Plug-In . SVG Version: 6.00 Build 0)  -->
<svg version="1.1" xmlns="http://www.w3.org/2000/svg" xmlns:xlink="http://www.w3.org/1999/xlink" x="0px" y="0px"
	 viewBox="0 0 256 256" enable-background="new 0 0 256 256" xml:space="preserve">
<g id="Layer_1">
</g>
<g id="Layer_2">
</g>
<g id="Layer_3">
</g>
<g id="Layer_4">
</g>
<g id="Layer_5">
</g>
<g id="Layer_6">
</g>
<g id="Layer_7">
</g>
<g id="Layer_8">
</g>
<g id="Layer_9">
</g>
<g id="Layer_10">
</g>
<g id="Layer_11">
</g>
<g id="Layer_12">
</g>
<g id="Layer_13">
</g>
<g id="Layer_14">
</g>
<g id="Layer_15">
</g>
<g id="Layer_16">
</g>
<g id="Layer_17">
</g>
<g id="Layer_18">
</g>
<g id="Layer_19">
</g>
<g id="Layer_20">
</g>
<g id="Layer_21">
</g>
<g id="Layer_22">
	<g>
		<g>
			<g>
				<rect x="119.976" y="176.749" fill="#5290DB" width="16.048" height="70.662"/>
			</g>
		</g>
		<g>
			<g>
				<path fill="#5290DB" d="M214.193,48.884H41.807c-4.432,0-8.024,3.592-8.024,8.024v0c0,4.431,3.592,8.024,8.024,8.024h172.385
					c4.432,0,8.024-3.592,8.024-8.024v0C222.217,52.476,218.624,48.884,214.193,48.884z"/>
			</g>
		</g>
		<g>
			<g>
				<rect x="43.741" y="64.932" fill="#F5C84C" width="168.518" height="111.818"/>
			</g>
		</g>
		<g>
			<g>
				<path fill="#FC657E" d="M96.708,99.474c-8.11,0-14.684,6.574-14.684,14.684v0c0,8.11,6.574,14.684,14.684,14.684h20.235V99.474
					H96.708z"/>
			</g>
		</g>
		<g>
			<g>
				<path fill="#FC657E" d="M151.596,82.602c-3.229,0-5.846,2.618-5.846,5.846v51.42c0,3.229,2.618,5.846,5.846,5.846
					s5.846-2.618,5.846-5.846v-51.42C157.442,85.22,154.824,82.602,151.596,82.602z"/>
			</g>
		</g>
		<g>
			<g>
				<path fill="#FFFFFF" d="M119.478,150.128l-7.21-21.286H98.06l8.673,25.603c0.925,2.732,3.489,4.57,6.373,4.57
					C117.711,159.015,120.956,154.491,119.478,150.128z"/>
			</g>
		</g>
		<g>
			<g>
				<path fill="#FFFFFF" d="M120.194,99.474h-3.252v29.368h3.252c10.811,0,17.316,3.386,25.555,9.139V90.335
					C137.511,96.088,131.006,99.474,120.194,99.474z"/>
			</g>
		</g>
		<g>
			<g>
				<path fill="#FFFFFF" d="M157.442,102.178v23.962c6.42-0.237,11.556-5.503,11.556-11.981v0
					C168.998,107.68,163.862,102.415,157.442,102.178z"/>
			</g>
		</g>
		<g>
			<g>
				<path fill="#70D6F9" d="M71.611,25.588h-7.321c-3.132,0-5.694,2.562-5.694,5.694c0,3.132,2.563,5.694,5.694,5.694h7.321
					c3.132,0,5.694-2.563,5.694-5.694C77.305,28.151,74.742,25.588,71.611,25.588z"/>
			</g>
		</g>
		<g>
			<g>
				<path fill="#70D6F9" d="M111.644,25.588h-7.321c-3.132,0-5.694,2.562-5.694,5.694c0,3.132,2.563,5.694,5.694,5.694h7.321
					c3.132,0,5.694-2.563,5.694-5.694C117.338,28.151,114.776,25.588,111.644,25.588z"/>
			</g>
		</g>
		<g>
			<g>
				<path fill="#70D6F9" d="M151.677,25.588h-7.321c-3.132,0-5.694,2.562-5.694,5.694c0,3.132,2.563,5.694,5.694,5.694h7.321
					c3.132,0,5.694-2.563,5.694-5.694C157.372,28.151,154.809,25.588,151.677,25.588z"/>
			</g>
		</g>
		<g>
			<g>
				<path fill="#70D6F9" d="M191.711,25.588h-7.321c-3.132,0-5.694,2.562-5.694,5.694c0,3.132,2.563,5.694,5.694,5.694h7.321
					c3.132,0,5.694-2.563,5.694-5.694C197.405,28.151,194.843,25.588,191.711,25.588z"/>
			</g>
		</g>
		<g>
			<g>
				<path fill="#70D6F9" d="M203.906,224.1h-2.4v-2.3c0-1.8-1.4-3.2-3.2-3.2c-1.7,0-3.2,1.4-3.2,3.1v2.4h-2.3
					c-1.8,0-3.2,1.4-3.2,3.2c-0.1,1.7,1.3,3.2,3.2,3.2h2.3v2.3c0,1.8,1.4,3.2,3.2,3.2c1.7,0,3.2-1.4,3.2-3.1v-2.4h2.3
					c1.8,0,3.2-1.4,3.2-3.2C207.006,225.6,205.606,224.1,203.906,224.1z"/>
			</g>
		</g>
		<g>
			<g>
				<path fill="#F5C84C" d="M167.206,249.2c-1.878,0-3.4,1.522-3.4,3.4s1.522,3.4,3.4,3.4c1.878,0,3.4-1.522,3.4-3.4
					S169.083,249.2,167.206,249.2z"/>
			</g>
		</g>
		<g>
			<g>
				<path fill="#FC657E" d="M74.15,210.175c-3.1-0.6-5.6-3-6.2-6.1c0-0.1-0.3-0.1-0.3,0c-0.6,3.1-3.1,5.5-6.2,6.1
					c-0.1,0-0.1,0.2,0,0.3c3.1,0.6,5.6,3,6.2,6.1c0,0.1,0.3,0.1,0.3,0c0.6-3.1,3.1-5.5,6.2-6.1
					C74.25,210.375,74.25,210.175,74.15,210.175z"/>
			</g>
		</g>
		<g>
			<g>
				<path fill="#87D147" d="M56.369,0c-1.878,0-3.4,1.522-3.4,3.4c0,1.878,1.522,3.4,3.4,3.4c1.878,0,3.4-1.522,3.4-3.4
					C59.769,1.522,58.246,0,56.369,0z"/>
			</g>
		</g>
		<g>
			<g>
				<path fill="#F5C84C" d="M40.146,21.057c-4.512-0.729-8.067-4.174-9.036-8.559c-0.003-0.2-0.403-0.194-0.4,0.006
					c-0.831,4.414-4.275,7.968-8.762,8.839c-0.2,0.003-0.195,0.303,0.006,0.4c4.512,0.729,8.067,4.174,9.036,8.559
					c0.003,0.2,0.403,0.194,0.4-0.006c0.831-4.414,4.275-7.968,8.762-8.839C40.351,21.354,40.346,21.054,40.146,21.057z"/>
			</g>
		</g>
		<g>
			<g>
				<g>
					<g>
						<path d="M214.193,46.384H41.807c-5.803,0-10.524,4.721-10.524,10.524s4.721,10.524,10.524,10.524h172.386
							c5.803,0,10.524-4.721,10.524-10.524S219.996,46.384,214.193,46.384z M214.193,62.432H41.807
							c-3.046,0-5.524-2.478-5.524-5.524s2.478-5.524,5.524-5.524h172.386c3.046,0,5.524,2.478,5.524,5.524
							S217.239,62.432,214.193,62.432z"/>
					</g>
				</g>
			</g>
		</g>
		<g>
			<g>
				<path d="M212.259,63.417c-1.381,0-2.5,1.119-2.5,2.5v109.958c0,1.381,1.119,2.5,2.5,2.5s2.5-1.119,2.5-2.5V65.917
					C214.759,64.537,213.64,63.417,212.259,63.417z"/>
			</g>
		</g>
		<g>
			<g>
				<path d="M43.741,63.563c-1.381,0-2.5,1.119-2.5,2.5v110.02c0,1.381,1.119,2.5,2.5,2.5s2.5-1.119,2.5-2.5V66.063
					C46.241,64.683,45.122,63.563,43.741,63.563z"/>
			</g>
		</g>
		<g>
			<g>
				<g>
					<path d="M119.976,175.476c-1.381,0-2.5,1.119-2.5,2.5v69.436c0,1.381,1.119,2.5,2.5,2.5s2.5-1.119,2.5-2.5v-69.436
						C122.476,176.595,121.357,175.476,119.976,175.476z"/>
				</g>
			</g>
			<g>
				<g>
					<path d="M136.024,175.476c-1.381,0-2.5,1.119-2.5,2.5v69.436c0,1.381,1.119,2.5,2.5,2.5s2.5-1.119,2.5-2.5v-69.436
						C138.524,176.595,137.405,175.476,136.024,175.476z"/>
				</g>
			</g>
		</g>
		<g>
			<g>
				<path d="M216.522,174.249H39.478c-1.381,0-2.5,1.119-2.5,2.5s1.119,2.5,2.5,2.5h177.045c1.381,0,2.5-1.119,2.5-2.5
					S217.903,174.249,216.522,174.249z"/>
			</g>
		</g>
		<g>
			<g>
				<g>
					<g>
						<path d="M71.61,23.088h-7.321c-4.519,0-8.194,3.676-8.194,8.194s3.676,8.194,8.194,8.194h7.321
							c4.519,0,8.195-3.676,8.195-8.194S76.129,23.088,71.61,23.088z M71.61,34.477h-7.321c-1.761,0-3.194-1.433-3.194-3.194
							s1.433-3.194,3.194-3.194h7.321c1.762,0,3.195,1.433,3.195,3.194S73.372,34.477,71.61,34.477z"/>
					</g>
				</g>
			</g>
		</g>
		<g>
			<g>
				<path d="M67.95,35.513c-1.381,0-2.5,1.119-2.5,2.5v9.318c0,1.381,1.119,2.5,2.5,2.5s2.5-1.119,2.5-2.5v-9.318
					C70.45,36.632,69.331,35.513,67.95,35.513z"/>
			</g>
		</g>
		<g>
			<g>
				<g>
					<g>
						<path d="M111.644,23.088h-7.321c-4.519,0-8.195,3.676-8.195,8.194s3.676,8.194,8.195,8.194h7.321
							c4.519,0,8.194-3.676,8.194-8.194S116.163,23.088,111.644,23.088z M111.644,34.477h-7.321c-1.762,0-3.195-1.433-3.195-3.194
							s1.433-3.194,3.195-3.194h7.321c1.761,0,3.194,1.433,3.194,3.194S113.405,34.477,111.644,34.477z"/>
					</g>
				</g>
			</g>
		</g>
		<g>
			<g>
				<path d="M107.983,35.513c-1.381,0-2.5,1.119-2.5,2.5v9.318c0,1.381,1.119,2.5,2.5,2.5s2.5-1.119,2.5-2.5v-9.318
					C110.483,36.632,109.364,35.513,107.983,35.513z"/>
			</g>
		</g>
		<g>
			<g>
				<g>
					<g>
						<path d="M151.677,23.088h-7.321c-4.519,0-8.194,3.676-8.194,8.194s3.676,8.194,8.194,8.194h7.321
							c4.519,0,8.195-3.676,8.195-8.194S156.196,23.088,151.677,23.088z M151.677,34.477h-7.321c-1.761,0-3.194-1.433-3.194-3.194
							s1.433-3.194,3.194-3.194h7.321c1.762,0,3.195,1.433,3.195,3.194S153.439,34.477,151.677,34.477z"/>
					</g>
				</g>
			</g>
		</g>
		<g>
			<g>
				<path d="M148.017,35.513c-1.381,0-2.5,1.119-2.5,2.5v9.318c0,1.381,1.119,2.5,2.5,2.5s2.5-1.119,2.5-2.5v-9.318
					C150.517,36.632,149.397,35.513,148.017,35.513z"/>
			</g>
		</g>
		<g>
			<g>
				<g>
					<g>
						<path d="M191.711,23.088h-7.321c-4.519,0-8.195,3.676-8.195,8.194s3.676,8.194,8.195,8.194h7.321
							c4.519,0,8.194-3.676,8.194-8.194S196.229,23.088,191.711,23.088z M191.711,34.477h-7.321c-1.762,0-3.195-1.433-3.195-3.194
							s1.433-3.194,3.195-3.194h7.321c1.761,0,3.194,1.433,3.194,3.194S193.472,34.477,191.711,34.477z"/>
					</g>
				</g>
			</g>
		</g>
		<g>
			<g>
				<path d="M188.05,35.513c-1.381,0-2.5,1.119-2.5,2.5v9.318c0,1.381,1.119,2.5,2.5,2.5s2.5-1.119,2.5-2.5v-9.318
					C190.55,36.632,189.431,35.513,188.05,35.513z"/>
			</g>
		</g>
		<g>
			<g>
				<path d="M100.287,91.133c-1.381,0-2.5,1.119-2.5,2.5v4.677c0,1.381,1.119,2.5,2.5,2.5s2.5-1.119,2.5-2.5v-4.677
					C102.787,92.252,101.667,91.133,100.287,91.133z"/>
			</g>
		</g>
		<g>
			<g>
				<path d="M121.705,195.314l-17.857-19.048c-0.945-1.008-2.527-1.058-3.534-0.114c-1.007,0.944-1.058,2.526-0.114,3.534
					l17.857,19.048c0.492,0.525,1.157,0.79,1.824,0.79c0.613,0,1.227-0.224,1.709-0.676
					C122.598,197.903,122.649,196.321,121.705,195.314z"/>
			</g>
		</g>
		<g>
			<g>
				<path d="M155.686,176.152c-1.008-0.944-2.589-0.894-3.534,0.114l-17.857,19.048c-0.944,1.007-0.894,2.589,0.114,3.534
					c0.482,0.452,1.097,0.676,1.709,0.676c0.667,0,1.332-0.265,1.824-0.79l17.857-19.048
					C156.744,178.679,156.693,177.097,155.686,176.152z"/>
			</g>
		</g>
		<g>
			<g>
				<g>
					<g>
						<path d="M116.942,96.974H96.708c-9.475,0-17.184,7.709-17.184,17.185c0,9.475,7.709,17.184,17.184,17.184h20.235
							c1.381,0,2.5-1.119,2.5-2.5V99.474C119.442,98.093,118.323,96.974,116.942,96.974z M114.442,126.343H96.708
							c-6.718,0-12.184-5.466-12.184-12.185c0-6.718,5.466-12.184,12.184-12.184h17.735V126.343z"/>
					</g>
				</g>
			</g>
		</g>
		<g>
			<g>
				<g>
					<g>
						<g>
							<path d="M151.596,80.103c-4.602,0-8.346,3.744-8.346,8.346v51.42c0,4.602,3.744,8.346,8.346,8.346s8.346-3.744,8.346-8.346
								v-51.42C159.942,83.847,156.198,80.103,151.596,80.103z M154.942,139.869c0,1.845-1.501,3.346-3.346,3.346
								s-3.346-1.501-3.346-3.346v-51.42c0-1.845,1.501-3.346,3.346-3.346s3.346,1.501,3.346,3.346V139.869z"/>
						</g>
					</g>
				</g>
			</g>
		</g>
		<g>
			<g>
				<path d="M121.846,149.326l-6.898-20.363c-0.443-1.308-1.862-2.011-3.17-1.565c-1.308,0.443-2.009,1.862-1.565,3.17l6.898,20.363
					c0.442,1.307,0.235,2.7-0.569,3.821c-0.804,1.121-2.057,1.764-3.437,1.764c-1.813,0-3.423-1.154-4.005-2.872l-8.263-24.394
					c-0.443-1.308-1.862-2.009-3.17-1.565c-1.308,0.443-2.009,1.862-1.565,3.17l8.263,24.394c1.27,3.749,4.782,6.268,8.74,6.268
					c3.011,0,5.745-1.403,7.5-3.851S122.812,152.179,121.846,149.326z"/>
			</g>
		</g>
		<g>
			<g>
				<path d="M147.345,89.231c-0.787-1.135-2.344-1.418-3.479-0.631c-8.016,5.554-13.878,8.375-23.671,8.375h-3.252
					c-1.381,0-2.5,1.119-2.5,2.5s1.119,2.5,2.5,2.5h3.252c11.052,0,17.847-3.256,26.519-9.264
					C147.848,91.923,148.131,90.366,147.345,89.231z"/>
			</g>
		</g>
		<g>
			<g>
				<path d="M146.631,135.55c-8.43-5.831-15.458-9.207-26.437-9.207h-3.252c-1.381,0-2.5,1.119-2.5,2.5s1.119,2.5,2.5,2.5h3.252
					c9.777,0,15.616,2.802,23.592,8.319c0.434,0.3,0.93,0.444,1.42,0.444c0.793,0,1.573-0.376,2.059-1.078
					C148.05,137.893,147.767,136.335,146.631,135.55z"/>
			</g>
		</g>
		<g>
			<g>
				<path d="M158.967,99.803c-1.367-0.184-2.627,0.772-2.814,2.14c-0.187,1.368,0.771,2.628,2.14,2.814
					c4.678,0.637,8.206,4.679,8.206,9.401c0,4.812-3.604,8.863-8.383,9.424c-1.372,0.161-2.353,1.403-2.192,2.774
					c0.149,1.272,1.229,2.209,2.48,2.209c0.097,0,0.195-0.005,0.294-0.017c7.298-0.856,12.801-7.042,12.801-14.39
					C171.498,106.947,166.111,100.776,158.967,99.803z"/>
			</g>
		</g>
	</g>
</g>
<g id="Layer_23">
</g>
<g id="Layer_24">
</g>
<g id="Layer_25">
</g>
<g id="Layer_26">
</g>
<g id="Layer_27">
</g>
<g id="Layer_28">
</g>
<g id="Layer_29">
</g>
<g id="Layer_30">
</g>
<g id="Layer_31">
</g>
<g id="Layer_32">
</g>
<g id="Layer_33">
</g>
<g id="Layer_34">
</g>
<g id="Layer_35">
</g>
<g id="Layer_36">
</g>
<g id="Layer_37">
</g>
<g id="Layer_38">
</g>
<g id="Layer_39">
</g>
<g id="Layer_40">
</g>
<g id="Layer_41">
</g>
<g id="Layer_42">
</g>
<g id="Layer_43">
</g>
<g id="Layer_44">
</g>
<g id="Layer_45">
</g>
<g id="Layer_46">
</g>
<g id="Layer_47">
</g>
<g id="Layer_48">
</g>
<g id="Layer_49">
</g>
<g id="Layer_50">
</g>
<g id="Layer_51">
</g>
<g id="Layer_52">
</g>
<g id="Layer_53">
</g>
<g id="Layer_54">
</g>
<g id="Layer_55">
</g>
<g id="Layer_56">
</g>
<g id="Layer_57">
</g>
<g id="Layer_58">
</g>
<g id="Layer_59">
</g>
<g id="Layer_60">
</g>
<g id="Layer_61">
</g>
<g id="Layer_62">
</g>
<g id="Layer_63">
</g>
<g id="Layer_64">
</g>
<g id="Layer_65">
</g>
<g id="Layer_66">
</g>
<g id="Layer_67">
</g>
<g id="Layer_68">
</g>
<g id="Layer_69">
</g>
<g id="Layer_70">
</g>
<g id="Layer_71">
</g>
<g id="Layer_72">
</g>
<g id="Layer_73">
</g>
<g id="Layer_74">
</g>
<g id="Layer_75">
</g>
<g id="Layer_76">
</g>
<g id="Layer_77">
</g>
<g id="Layer_78">
</g>
<g id="Layer_79">
</g>
<g id="Layer_80">
</g>
</svg>
