<?xml version="1.0" encoding="utf-8"?>
<!-- Generator: Adobe Illustrator 24.0.0, SVG Export Plug-In . SVG Version: 6.00 Build 0)  -->
<svg version="1.1" xmlns="http://www.w3.org/2000/svg" xmlns:xlink="http://www.w3.org/1999/xlink" x="0px" y="0px"
	 viewBox="0 0 256 256" enable-background="new 0 0 256 256" xml:space="preserve">
<g id="Layer_1">
</g>
<g id="Layer_2">
</g>
<g id="Layer_3">
</g>
<g id="Layer_4">
</g>
<g id="Layer_5">
</g>
<g id="Layer_6">
</g>
<g id="Layer_7">
</g>
<g id="Layer_8">
</g>
<g id="Layer_9">
</g>
<g id="Layer_10">
</g>
<g id="Layer_11">
</g>
<g id="Layer_12">
</g>
<g id="Layer_13">
</g>
<g id="Layer_14">
</g>
<g id="Layer_15">
</g>
<g id="Layer_16">
</g>
<g id="Layer_17">
</g>
<g id="Layer_18">
</g>
<g id="Layer_19">
</g>
<g id="Layer_20">
	<g>
		<g>
			<g>
				<circle fill="#F9D0B4" cx="99.306" cy="47.61" r="14.506"/>
			</g>
		</g>
		<g>
			<g>
				<circle fill="#F9D0B4" cx="155.695" cy="47.61" r="14.506"/>
			</g>
		</g>
		<g>
			<g>
				<path fill="#5290DB" d="M79.107,111.032c-2.413-0.439-4.898-0.669-7.438-0.669c-2.539,0-5.025,0.23-7.438,0.669
					c-9.573,1.744-16.944,9.088-19.088,18.355c6.93,1.07,12.244,7.03,12.276,14.252h27.383c0.034-7.592,5.9-13.794,13.349-14.382
					C95.971,120.052,88.634,112.768,79.107,111.032z"/>
			</g>
		</g>
		<g>
			<g>
				<circle fill="#F9D0B4" cx="71.112" cy="95.658" r="14.506"/>
			</g>
		</g>
		<g>
			<g>
				<path fill="#F5C84C" d="M135.496,111.032c-2.413-0.439-4.898-0.669-7.438-0.669c-2.539,0-5.025,0.23-7.438,0.669
					c-9.573,1.744-16.944,9.088-19.088,18.355c6.93,1.07,12.244,7.03,12.276,14.252h27.383c0.034-7.592,5.9-13.794,13.349-14.382
					C152.36,120.052,145.023,112.768,135.496,111.032z"/>
			</g>
		</g>
		<g>
			<g>
				<circle fill="#F9D0B4" cx="127.501" cy="95.658" r="14.506"/>
			</g>
		</g>
		<g>
			<g>
				<path fill="#F98FA6" d="M191.885,111.032c-2.413-0.439-4.898-0.669-7.438-0.669c-2.539,0-5.025,0.23-7.438,0.669
					c-9.573,1.744-16.944,9.088-19.088,18.355c6.93,1.07,12.244,7.03,12.276,14.252h27.383c0.034-7.592,5.9-13.794,13.349-14.382
					C208.749,120.052,201.412,112.768,191.885,111.032z"/>
			</g>
		</g>
		<g>
			<g>
				<circle fill="#F9D0B4" cx="183.89" cy="95.658" r="14.506"/>
			</g>
		</g>
		<g>
			<g>
				<path fill="#70D6F9" d="M70.275,178.804c-1.703-9.908-9.322-17.896-19.362-19.725c-2.412-0.44-4.898-0.669-7.438-0.669
					c-2.54,0-5.025,0.23-7.438,0.669c-10.484,1.91-18.349,10.529-19.573,21.045c-0.072,0.62-0.091,1.247-0.091,1.871v6.864
					c0,1.562,1.266,2.828,2.828,2.828h48.43c1.562,0,2.828-1.266,2.828-2.828v-7.498C70.459,180.506,70.419,179.648,70.275,178.804z
					"/>
			</g>
		</g>
		<g>
			<g>
				<circle fill="#F9D0B4" cx="42.917" cy="143.705" r="14.506"/>
			</g>
		</g>
		<g>
			<g>
				<path fill="#87D147" d="M126.663,178.804c-1.703-9.908-9.322-17.896-19.362-19.725c-2.412-0.44-4.898-0.669-7.438-0.669
					c-2.54,0-5.025,0.23-7.438,0.669c-10.484,1.91-18.349,10.529-19.573,21.045c-0.072,0.62-0.091,1.247-0.091,1.871v6.864
					c0,1.562,1.266,2.828,2.828,2.828h48.43c1.562,0,2.828-1.266,2.828-2.828v-7.498
					C126.848,180.506,126.808,179.648,126.663,178.804z"/>
			</g>
		</g>
		<g>
			<g>
				<circle fill="#F9D0B4" cx="99.306" cy="143.705" r="14.506"/>
			</g>
		</g>
		<g>
			<g>
				<path fill="#B598F9" d="M183.052,178.804c-1.703-9.908-9.322-17.896-19.362-19.725c-2.412-0.44-4.898-0.669-7.438-0.669
					c-2.54,0-5.025,0.23-7.438,0.669c-10.484,1.91-18.348,10.529-19.573,21.045c-0.072,0.62-0.091,1.247-0.091,1.871v6.864
					c0,1.562,1.266,2.828,2.828,2.828h48.43c1.562,0,2.828-1.266,2.828-2.828v-7.498
					C183.237,180.506,183.197,179.648,183.052,178.804z"/>
			</g>
		</g>
		<g>
			<g>
				<circle fill="#F9D0B4" cx="155.695" cy="143.705" r="14.506"/>
			</g>
		</g>
		<g>
			<g>
				<path fill="#FCA265" d="M239.441,178.804c-1.703-9.908-9.322-17.896-19.362-19.725c-2.412-0.44-4.898-0.669-7.438-0.669
					c-2.54,0-5.025,0.23-7.438,0.669c-10.484,1.91-18.348,10.529-19.573,21.045c-0.072,0.62-0.091,1.247-0.091,1.871v6.864
					c0,1.562,1.266,2.828,2.828,2.828h48.43c1.562,0,2.828-1.266,2.828-2.828v-7.498
					C239.626,180.506,239.586,179.648,239.441,178.804z"/>
			</g>
		</g>
		<g>
			<g>
				<circle fill="#F9D0B4" cx="212.084" cy="143.705" r="14.506"/>
			</g>
		</g>
		<g>
			<g>
				<path fill="#FCA265" d="M163.691,62.985c-2.412-0.439-4.898-0.669-7.438-0.669c-2.54,0-5.025,0.23-7.438,0.669
					c-9.573,1.744-16.944,9.088-19.088,18.355c6.93,1.07,12.244,7.03,12.276,14.252h27.383c0.034-7.592,5.9-13.794,13.349-14.382
					C180.555,72.005,173.218,64.721,163.691,62.985z"/>
			</g>
		</g>
		<g>
			<g>
				<path fill="#FC657E" d="M107.302,62.985c-2.412-0.439-4.898-0.669-7.438-0.669c-2.54,0-5.025,0.23-7.438,0.669
					c-9.573,1.744-16.944,9.088-19.088,18.355c6.93,1.07,12.244,7.03,12.276,14.252h27.383c0.034-7.592,5.9-13.794,13.349-14.382
					C124.166,72.005,116.829,64.721,107.302,62.985z"/>
			</g>
		</g>
		<g>
			<g>
				<path fill="#87D147" d="M38.906,213.496h-2.4v-2.3c0-1.8-1.4-3.2-3.2-3.2c-1.7,0-3.2,1.4-3.2,3.1v2.4h-2.3
					c-1.8,0-3.2,1.4-3.2,3.2c-0.1,1.7,1.3,3.2,3.2,3.2h2.3v2.3c0,1.8,1.4,3.2,3.2,3.2c1.7,0,3.2-1.4,3.2-3.1v-2.4h2.3
					c1.8,0,3.2-1.4,3.2-3.2C42.006,214.996,40.606,213.496,38.906,213.496z"/>
			</g>
		</g>
		<g>
			<g>
				<path fill="#FC657E" d="M252.6,127.896c-1.878,0-3.4,1.522-3.4,3.4c0,1.878,1.522,3.4,3.4,3.4s3.4-1.522,3.4-3.4
					C256,129.418,254.478,127.896,252.6,127.896z"/>
			</g>
		</g>
		<g>
			<g>
				<path fill="#70D6F9" d="M50.15,62.571c-3.1-0.6-5.6-3-6.2-6.1c0-0.1-0.3-0.1-0.3,0c-0.6,3.1-3.1,5.5-6.2,6.1
					c-0.1,0-0.1,0.2,0,0.3c3.1,0.6,5.6,3,6.2,6.1c0,0.1,0.3,0.1,0.3,0c0.6-3.1,3.1-5.5,6.2-6.1
					C50.25,62.771,50.25,62.571,50.15,62.571z"/>
			</g>
		</g>
		<g>
			<g>
				<path fill="#F5C84C" d="M3.4,202.396c-1.878,0-3.4,1.522-3.4,3.4c0,1.878,1.522,3.4,3.4,3.4s3.4-1.522,3.4-3.4
					C6.8,203.918,5.278,202.396,3.4,202.396z"/>
			</g>
		</g>
		<g>
			<g>
				<path fill="#F5C84C" d="M243.15,101.596c-4.5-0.8-8-4.3-8.9-8.7c0-0.2-0.4-0.2-0.4,0c-0.9,4.4-4.4,7.9-8.9,8.7
					c-0.2,0-0.2,0.3,0,0.4c4.5,0.8,8,4.3,8.9,8.7c0,0.2,0.4,0.2,0.4,0c0.9-4.4,4.4-7.9,8.9-8.7
					C243.35,101.896,243.35,101.596,243.15,101.596z"/>
			</g>
		</g>
		<g>
			<g>
				<g>
					<g>
						<path d="M99.307,30.604c-9.378,0-17.007,7.629-17.007,17.006c0,9.377,7.629,17.006,17.007,17.006
							c9.377,0,17.006-7.629,17.006-17.006C116.313,38.233,108.684,30.604,99.307,30.604z M99.307,59.617
							c-6.62,0-12.007-5.386-12.007-12.006s5.387-12.006,12.007-12.006s12.006,5.386,12.006,12.006S105.927,59.617,99.307,59.617z"
							/>
					</g>
				</g>
			</g>
		</g>
		<g>
			<g>
				<g>
					<g>
						<path d="M155.695,30.604c-9.377,0-17.006,7.629-17.006,17.006c0,9.377,7.629,17.006,17.006,17.006s17.006-7.629,17.006-17.006
							C172.701,38.233,165.072,30.604,155.695,30.604z M155.695,59.617c-6.62,0-12.006-5.386-12.006-12.006
							s5.386-12.006,12.006-12.006s12.006,5.386,12.006,12.006S162.315,59.617,155.695,59.617z"/>
					</g>
				</g>
			</g>
		</g>
		<g>
			<g>
				<path d="M83.458,141.14H58.5c-1.381,0-2.5,1.119-2.5,2.5s1.119,2.5,2.5,2.5h24.958c1.381,0,2.5-1.119,2.5-2.5
					S84.839,141.14,83.458,141.14z"/>
			</g>
		</g>
		<g>
			<g>
				<path d="M100.465,128.196c-2.584-10.077-10.791-17.78-20.909-19.624c-5.168-0.941-10.604-0.941-15.771,0
					c-10.056,1.832-18.252,9.472-20.882,19.464c-0.352,1.335,0.446,2.703,1.782,3.054c1.328,0.35,2.701-0.446,3.054-1.781
					c2.138-8.124,8.788-14.333,16.942-15.818c4.578-0.834,9.4-0.834,13.979,0c8.204,1.495,14.861,7.754,16.962,15.947
					c0.29,1.129,1.306,1.879,2.42,1.879c0.206,0,0.415-0.025,0.623-0.079C100.001,130.896,100.808,129.534,100.465,128.196z"/>
			</g>
		</g>
		<g>
			<g>
				<g>
					<g>
						<path d="M71.111,78.652c-9.377,0-17.006,7.629-17.006,17.006c0,9.377,7.629,17.006,17.006,17.006
							c9.378,0,17.007-7.629,17.007-17.006C88.118,86.281,80.489,78.652,71.111,78.652z M71.111,107.664
							c-6.62,0-12.006-5.386-12.006-12.006s5.386-12.006,12.006-12.006s12.007,5.386,12.007,12.006S77.731,107.664,71.111,107.664z"
							/>
					</g>
				</g>
			</g>
		</g>
		<g>
			<g>
				<path d="M140.333,141.14h-25.416c-1.381,0-2.5,1.119-2.5,2.5s1.119,2.5,2.5,2.5h25.416c1.381,0,2.5-1.119,2.5-2.5
					S141.714,141.14,140.333,141.14z"/>
			</g>
		</g>
		<g>
			<g>
				<path d="M156.792,127.958c-2.648-9.952-10.832-17.561-20.848-19.386c-5.168-0.941-10.604-0.941-15.771,0
					c-9.998,1.822-18.18,9.409-20.845,19.33c-0.358,1.333,0.432,2.705,1.766,3.063c1.329,0.357,2.704-0.432,3.063-1.766
					c2.167-8.065,8.806-14.231,16.913-15.708c4.578-0.834,9.4-0.834,13.979,0c8.121,1.479,14.759,7.663,16.912,15.753
					c0.298,1.119,1.309,1.857,2.414,1.857c0.213,0,0.43-0.027,0.645-0.084C156.354,130.662,157.147,129.293,156.792,127.958z"/>
			</g>
		</g>
		<g>
			<g>
				<g>
					<g>
						<path d="M127.501,78.652c-9.378,0-17.007,7.629-17.007,17.006c0,9.377,7.629,17.006,17.007,17.006
							c9.377,0,17.006-7.629,17.006-17.006C144.507,86.281,136.878,78.652,127.501,78.652z M127.501,107.664
							c-6.62,0-12.007-5.386-12.007-12.006s5.387-12.006,12.007-12.006s12.006,5.386,12.006,12.006S134.121,107.664,127.501,107.664
							z"/>
					</g>
				</g>
			</g>
		</g>
		<g>
			<g>
				<path d="M196.583,141.14h-25.166c-1.381,0-2.5,1.119-2.5,2.5s1.119,2.5,2.5,2.5h25.166c1.381,0,2.5-1.119,2.5-2.5
					S197.964,141.14,196.583,141.14z"/>
			</g>
		</g>
		<g>
			<g>
				<path d="M213.138,127.796c-2.692-9.865-10.859-17.411-20.805-19.223c-5.168-0.941-10.604-0.941-15.771,0
					c-10.166,1.852-18.388,9.594-20.947,19.722c-0.338,1.338,0.473,2.698,1.812,3.036c0.205,0.052,0.411,0.077,0.614,0.077
					c1.117,0,2.136-0.755,2.422-1.888c2.081-8.234,8.752-14.526,16.996-16.028c4.578-0.834,9.4-0.834,13.979,0
					c8.063,1.469,14.688,7.601,16.877,15.621c0.364,1.333,1.742,2.114,3.07,1.753C212.716,130.502,213.501,129.128,213.138,127.796z
					"/>
			</g>
		</g>
		<g>
			<g>
				<g>
					<g>
						<path d="M183.89,78.652c-9.377,0-17.006,7.629-17.006,17.006c0,9.377,7.629,17.006,17.006,17.006s17.006-7.629,17.006-17.006
							C200.896,86.281,193.267,78.652,183.89,78.652z M183.89,107.664c-6.62,0-12.006-5.386-12.006-12.006
							s5.386-12.006,12.006-12.006s12.006,5.386,12.006,12.006S190.51,107.664,183.89,107.664z"/>
					</g>
				</g>
			</g>
		</g>
		<g>
			<g>
				<g>
					<g>
						<path d="M72.738,178.381c-1.896-11.032-10.486-19.777-21.377-21.761c-5.171-0.942-10.604-0.941-15.771,0
							c-11.553,2.105-20.236,11.434-21.608,23.215c-0.074,0.638-0.107,1.305-0.107,2.16v6.864c0,2.938,2.39,5.328,5.327,5.328
							h48.431c2.938,0,5.327-2.39,5.327-5.328v-7.498C72.959,180.201,72.889,179.254,72.738,178.381z M67.959,188.859
							c0,0.181-0.146,0.328-0.327,0.328H19.201c-0.181,0-0.327-0.147-0.327-0.328v-6.864c0-0.655,0.022-1.142,0.074-1.582
							c1.115-9.582,8.164-17.167,17.538-18.875c2.289-0.417,4.641-0.628,6.989-0.628c2.348,0,4.699,0.211,6.989,0.628
							c8.834,1.609,15.805,8.718,17.346,17.689c0,0,0,0.001,0,0.002c0.102,0.585,0.148,1.263,0.148,2.131V188.859z"/>
					</g>
				</g>
			</g>
		</g>
		<g>
			<g>
				<g>
					<g>
						<path d="M42.917,126.699c-9.377,0-17.006,7.629-17.006,17.006c0,9.377,7.629,17.006,17.006,17.006
							c9.378,0,17.007-7.629,17.007-17.006C59.924,134.328,52.295,126.699,42.917,126.699z M42.917,155.711
							c-6.62,0-12.006-5.386-12.006-12.006s5.386-12.006,12.006-12.006s12.007,5.386,12.007,12.006S49.537,155.711,42.917,155.711z"
							/>
					</g>
				</g>
			</g>
		</g>
		<g>
			<g>
				<g>
					<g>
						<path d="M129.127,178.381c-1.896-11.032-10.486-19.777-21.377-21.761c-5.168-0.941-10.604-0.941-15.771,0
							c-11.553,2.105-20.236,11.434-21.608,23.215c-0.074,0.638-0.107,1.305-0.107,2.16v6.864c0,2.938,2.391,5.328,5.328,5.328
							h48.43c2.938,0,5.327-2.39,5.327-5.328v-7.498C129.348,180.201,129.277,179.254,129.127,178.381z M124.348,188.859
							c0,0.181-0.146,0.328-0.327,0.328h-48.43c-0.181,0-0.328-0.147-0.328-0.328v-6.864c0-0.655,0.022-1.142,0.074-1.582
							c1.115-9.582,8.164-17.167,17.538-18.875c2.289-0.417,4.641-0.628,6.989-0.628s4.7,0.211,6.989,0.628
							c8.834,1.609,15.805,8.718,17.346,17.689c0,0,0,0.001,0,0.002c0.102,0.585,0.148,1.263,0.148,2.131V188.859z"/>
					</g>
				</g>
			</g>
		</g>
		<g>
			<g>
				<g>
					<g>
						<path d="M99.307,126.699c-9.378,0-17.007,7.629-17.007,17.006c0,9.377,7.629,17.006,17.007,17.006
							c9.377,0,17.006-7.629,17.006-17.006C116.313,134.328,108.684,126.699,99.307,126.699z M99.307,155.711
							c-6.62,0-12.007-5.386-12.007-12.006s5.387-12.006,12.007-12.006s12.006,5.386,12.006,12.006S105.927,155.711,99.307,155.711z
							"/>
					</g>
				</g>
			</g>
		</g>
		<g>
			<g>
				<g>
					<g>
						<path d="M185.517,178.382L185.517,178.382c-1.896-11.033-10.487-19.778-21.378-21.762c-5.168-0.941-10.604-0.941-15.771,0
							c-11.553,2.105-20.236,11.435-21.608,23.219c-0.096,0.828-0.106,1.627-0.106,2.156v6.864c0,2.938,2.39,5.328,5.327,5.328
							h48.43c2.938,0,5.328-2.39,5.328-5.328v-7.498C185.737,180.206,185.667,179.259,185.517,178.382z M180.737,188.859
							c0,0.181-0.147,0.328-0.328,0.328h-48.43c-0.181,0-0.327-0.147-0.327-0.328v-6.864c0-0.654,0.022-1.143,0.073-1.582
							c1.115-9.581,8.164-17.167,17.538-18.875c2.289-0.417,4.641-0.628,6.989-0.628s4.7,0.211,6.989,0.628
							c8.834,1.609,15.805,8.718,17.347,17.689c0.102,0.591,0.148,1.269,0.148,2.133V188.859z"/>
					</g>
				</g>
			</g>
		</g>
		<g>
			<g>
				<g>
					<g>
						<path d="M155.695,126.699c-9.377,0-17.006,7.629-17.006,17.006c0,9.377,7.629,17.006,17.006,17.006
							s17.006-7.629,17.006-17.006C172.701,134.328,165.072,126.699,155.695,126.699z M155.695,155.711
							c-6.62,0-12.006-5.386-12.006-12.006s5.386-12.006,12.006-12.006s12.006,5.386,12.006,12.006S162.315,155.711,155.695,155.711
							z"/>
					</g>
				</g>
			</g>
		</g>
		<g>
			<g>
				<g>
					<g>
						<path d="M241.905,178.382L241.905,178.382c-1.896-11.033-10.487-19.778-21.377-21.762c-5.169-0.941-10.602-0.942-15.772,0
							c-11.553,2.105-20.236,11.435-21.607,23.215c-0.074,0.638-0.107,1.305-0.107,2.16v6.864c0,2.938,2.39,5.328,5.327,5.328h48.43
							c2.938,0,5.328-2.39,5.328-5.328v-7.498C242.126,180.206,242.056,179.259,241.905,178.382z M237.126,188.859
							c0,0.181-0.147,0.328-0.328,0.328h-48.43c-0.181,0-0.327-0.147-0.327-0.328v-6.864c0-0.655,0.022-1.142,0.074-1.582
							c1.115-9.582,8.162-17.167,17.537-18.875c2.29-0.417,4.642-0.628,6.989-0.628c2.349,0,4.7,0.211,6.99,0.628
							c8.833,1.609,15.804,8.718,17.346,17.689c0.102,0.591,0.148,1.269,0.148,2.133V188.859z"/>
					</g>
				</g>
			</g>
		</g>
		<g>
			<g>
				<g>
					<g>
						<path d="M212.084,126.699c-9.377,0-17.006,7.629-17.006,17.006c0,9.377,7.629,17.006,17.006,17.006
							s17.006-7.629,17.006-17.006C229.09,134.328,221.461,126.699,212.084,126.699z M212.084,155.711
							c-6.62,0-12.006-5.386-12.006-12.006s5.386-12.006,12.006-12.006s12.006,5.386,12.006,12.006S218.704,155.711,212.084,155.711
							z"/>
					</g>
				</g>
			</g>
		</g>
		<g>
			<g>
				<path d="M168.72,93.092h-25.813c-1.381,0-2.5,1.119-2.5,2.5s1.119,2.5,2.5,2.5h25.813c1.381,0,2.5-1.119,2.5-2.5
					S170.101,93.092,168.72,93.092z"/>
			</g>
		</g>
		<g>
			<g>
				<path d="M185.023,80.055c-2.609-10.027-10.808-17.693-20.885-19.529c-5.168-0.941-10.602-0.942-15.771,0
					c-10.107,1.841-18.316,9.53-20.914,19.588c-0.345,1.337,0.459,2.7,1.796,3.045c0.21,0.054,0.42,0.08,0.627,0.08
					c1.112,0,2.128-0.748,2.419-1.875c2.111-8.177,8.771-14.426,16.969-15.919c4.582-0.834,9.402-0.833,13.979,0
					c8.171,1.489,14.821,7.718,16.943,15.87c0.348,1.336,1.72,2.135,3.049,1.79C184.57,82.756,185.372,81.391,185.023,80.055z"/>
			</g>
		</g>
		<g>
			<g>
				<path d="M112.125,93.092H86.626c-1.381,0-2.5,1.119-2.5,2.5s1.119,2.5,2.5,2.5h25.499c1.381,0,2.5-1.119,2.5-2.5
					S113.506,93.092,112.125,93.092z"/>
			</g>
		</g>
		<g>
			<g>
				<path d="M128.65,80.115c-2.593-10.059-10.797-17.749-20.9-19.589c-5.168-0.941-10.604-0.941-15.771,0
					c-10.032,1.828-18.224,9.447-20.867,19.411c-0.354,1.334,0.44,2.703,1.774,3.058c1.332,0.356,2.704-0.44,3.058-1.775
					c2.15-8.101,8.796-14.292,16.932-15.774c4.578-0.834,9.4-0.834,13.979,0c8.191,1.493,14.847,7.741,16.955,15.918
					c0.291,1.128,1.306,1.876,2.419,1.876c0.207,0,0.417-0.026,0.626-0.08C128.19,82.815,128.995,81.452,128.65,80.115z"/>
			</g>
		</g>
	</g>
</g>
<g id="Layer_21">
</g>
<g id="Layer_22">
</g>
<g id="Layer_23">
</g>
<g id="Layer_24">
</g>
<g id="Layer_25">
</g>
<g id="Layer_26">
</g>
<g id="Layer_27">
</g>
<g id="Layer_28">
</g>
<g id="Layer_29">
</g>
<g id="Layer_30">
</g>
<g id="Layer_31">
</g>
<g id="Layer_32">
</g>
<g id="Layer_33">
</g>
<g id="Layer_34">
</g>
<g id="Layer_35">
</g>
<g id="Layer_36">
</g>
<g id="Layer_37">
</g>
<g id="Layer_38">
</g>
<g id="Layer_39">
</g>
<g id="Layer_40">
</g>
<g id="Layer_41">
</g>
<g id="Layer_42">
</g>
<g id="Layer_43">
</g>
<g id="Layer_44">
</g>
<g id="Layer_45">
</g>
<g id="Layer_46">
</g>
<g id="Layer_47">
</g>
<g id="Layer_48">
</g>
<g id="Layer_49">
</g>
<g id="Layer_50">
</g>
<g id="Layer_51">
</g>
<g id="Layer_52">
</g>
<g id="Layer_53">
</g>
<g id="Layer_54">
</g>
<g id="Layer_55">
</g>
<g id="Layer_56">
</g>
<g id="Layer_57">
</g>
<g id="Layer_58">
</g>
<g id="Layer_59">
</g>
<g id="Layer_60">
</g>
<g id="Layer_61">
</g>
<g id="Layer_62">
</g>
<g id="Layer_63">
</g>
<g id="Layer_64">
</g>
<g id="Layer_65">
</g>
<g id="Layer_66">
</g>
<g id="Layer_67">
</g>
<g id="Layer_68">
</g>
<g id="Layer_69">
</g>
<g id="Layer_70">
</g>
<g id="Layer_71">
</g>
<g id="Layer_72">
</g>
<g id="Layer_73">
</g>
<g id="Layer_74">
</g>
<g id="Layer_75">
</g>
<g id="Layer_76">
</g>
<g id="Layer_77">
</g>
<g id="Layer_78">
</g>
<g id="Layer_79">
</g>
<g id="Layer_80">
</g>
</svg>
