<?xml version="1.0" encoding="utf-8"?>
<!-- Generator: Adobe Illustrator 24.0.0, SVG Export Plug-In . SVG Version: 6.00 Build 0)  -->
<svg version="1.1" xmlns="http://www.w3.org/2000/svg" xmlns:xlink="http://www.w3.org/1999/xlink" x="0px" y="0px"
	 viewBox="0 0 256 256" enable-background="new 0 0 256 256" xml:space="preserve">
<g id="Layer_1">
</g>
<g id="Layer_2">
</g>
<g id="Layer_3">
</g>
<g id="Layer_4">
</g>
<g id="Layer_5">
</g>
<g id="Layer_6">
</g>
<g id="Layer_7">
</g>
<g id="Layer_8">
</g>
<g id="Layer_9">
</g>
<g id="Layer_10">
</g>
<g id="Layer_11">
</g>
<g id="Layer_12">
</g>
<g id="Layer_13">
</g>
<g id="Layer_14">
</g>
<g id="Layer_15">
</g>
<g id="Layer_16">
</g>
<g id="Layer_17">
</g>
<g id="Layer_18">
</g>
<g id="Layer_19">
</g>
<g id="Layer_20">
</g>
<g id="Layer_21">
</g>
<g id="Layer_22">
</g>
<g id="Layer_23">
</g>
<g id="Layer_24">
</g>
<g id="Layer_25">
</g>
<g id="Layer_26">
</g>
<g id="Layer_27">
</g>
<g id="Layer_28">
</g>
<g id="Layer_29">
</g>
<g id="Layer_30">
</g>
<g id="Layer_31">
</g>
<g id="Layer_32">
</g>
<g id="Layer_33">
</g>
<g id="Layer_34">
</g>
<g id="Layer_35">
</g>
<g id="Layer_36">
</g>
<g id="Layer_37">
</g>
<g id="Layer_38">
</g>
<g id="Layer_39">
</g>
<g id="Layer_40">
</g>
<g id="Layer_41">
</g>
<g id="Layer_42">
</g>
<g id="Layer_43">
</g>
<g id="Layer_44">
</g>
<g id="Layer_45">
</g>
<g id="Layer_46">
</g>
<g id="Layer_47">
</g>
<g id="Layer_48">
</g>
<g id="Layer_49">
</g>
<g id="Layer_50">
</g>
<g id="Layer_51">
</g>
<g id="Layer_52">
</g>
<g id="Layer_53">
</g>
<g id="Layer_54">
</g>
<g id="Layer_55">
</g>
<g id="Layer_56">
</g>
<g id="Layer_57">
</g>
<g id="Layer_58">
</g>
<g id="Layer_59">
</g>
<g id="Layer_60">
</g>
<g id="Layer_61">
</g>
<g id="Layer_62">
</g>
<g id="Layer_63">
</g>
<g id="Layer_64">
</g>
<g id="Layer_65">
</g>
<g id="Layer_66">
</g>
<g id="Layer_67">
</g>
<g id="Layer_68">
</g>
<g id="Layer_69">
</g>
<g id="Layer_70">
</g>
<g id="Layer_71">
</g>
<g id="Layer_72">
	<g>
		<g>
			<g>
				
					<ellipse transform="matrix(0.3827 -0.9239 0.9239 0.3827 54.9834 202.9487)" fill="#5290DB" cx="179.359" cy="60.33" rx="27.141" ry="27.141"/>
			</g>
		</g>
		<g>
			<g>
				
					<ellipse transform="matrix(0.3827 -0.9239 0.9239 0.3827 22.322 287.5811)" fill="#5290DB" cx="226.359" cy="127.087" rx="27.141" ry="27.141"/>
			</g>
		</g>
		<g>
			<g>
				
					<ellipse transform="matrix(0.3827 -0.9239 0.9239 0.3827 -68.3667 285.3686)" fill="#5290DB" cx="179.359" cy="193.843" rx="27.141" ry="27.141"/>
			</g>
		</g>
		<g>
			<g>
				<path fill="#FC657E" d="M184.996,66.908c-1.701-0.31-3.453-0.472-5.244-0.472s-3.543,0.162-5.244,0.472
					c-6.896,1.256-12.17,6.634-13.549,13.369c4.837,4.464,11.298,7.194,18.399,7.194c7.418,0,14.138-2.979,19.037-7.801
					C196.832,73.223,191.681,68.126,184.996,66.908z"/>
			</g>
		</g>
		<g>
			<g>
				
					<ellipse transform="matrix(0.3827 -0.9239 0.9239 0.3827 58.9203 200.3181)" fill="#F9D0B4" cx="179.359" cy="56.069" rx="10.227" ry="10.227"/>
			</g>
		</g>
		<g>
			<g>
				<path fill="#F5C84C" d="M231.996,133.665c-1.701-0.31-3.453-0.472-5.244-0.472s-3.543,0.162-5.244,0.472
					c-6.896,1.256-12.17,6.634-13.549,13.369c4.837,4.464,11.298,7.194,18.399,7.194c7.418,0,14.138-2.979,19.037-7.802
					C243.832,139.979,238.681,134.883,231.996,133.665z"/>
			</g>
		</g>
		<g>
			<g>
				
					<ellipse transform="matrix(0.3827 -0.9239 0.9239 0.3827 26.2589 284.9506)" fill="#F9D0B4" cx="226.359" cy="122.826" rx="10.227" ry="10.227"/>
			</g>
		</g>
		<g>
			<g>
				<path fill="#B2E26D" d="M184.996,200.421c-1.701-0.31-3.453-0.472-5.244-0.472s-3.543,0.162-5.244,0.472
					c-6.896,1.256-12.17,6.634-13.549,13.369c4.837,4.464,11.298,7.194,18.399,7.194c7.418,0,14.138-2.979,19.037-7.802
					C196.832,206.735,191.681,201.639,184.996,200.421z"/>
			</g>
		</g>
		<g>
			<g>
				
					<ellipse transform="matrix(0.3827 -0.9239 0.9239 0.3827 -64.4298 282.738)" fill="#F9D0B4" cx="179.359" cy="189.582" rx="10.227" ry="10.227"/>
			</g>
		</g>
		<g>
			<g>
				<path fill="#5B5D60" d="M127.778,77.778H8.722C5.838,77.778,3.5,80.116,3.5,83s2.338,5.222,5.222,5.222h119.057
					c2.884,0,5.222-2.338,5.222-5.222S130.662,77.778,127.778,77.778z"/>
			</g>
		</g>
		<g>
			<g>
				<path fill="#DAE6F1" d="M107.172,102.594c0-4.075,0.38-9.294-0.571-14.373h-80.17c-1.935,16.762,5.758,38.904,9.376,48.147
					c1.126,2.876,1.181,6.055,0.153,8.968l-0.706,1.999c-1.026,2.908-3.064,5.352-5.744,6.884c-2.568,1.468-4.432,3.916-5.448,6.693
					l-0.445,1.218c-1.977,5.404-5.355,10.138-9.589,14.035C6.942,182.688,2.5,192.037,2.5,202.428v10.945h101.205l0.124-6.104
					c0.321-14.651-8.09-24.476-15.032-30.983c-2.427-2.275-4.314-5.058-5.499-8.167l-0.948-2.49
					c-0.261-0.685-0.598-1.251-0.973-1.72c-2.298-2.871-3.549-6.435-3.07-10.085c0.233-1.777,2.055-2.886,3.764-2.343
					c2.393,0.76,4.48,1.377,6.305,1.868c5.595,1.504,11.781-0.646,15.227-6.142c0.69-1.101,1.132-2.34,1.43-3.604
					c0.213-0.902,0.417-1.739,0.621-2.444c0.193-0.666,0.092-1.376-0.293-1.953l-0.763-1.144c-0.614-0.921-0.492-2.147,0.29-2.93
					l2.814-1.604c0.435-0.436,0.68-1.026,0.68-1.642v-5.913c0-0.936,0.556-1.782,1.422-2.14c1.389-0.574,3.614-1.603,5.839-3.086
					C119.273,118.325,107.172,109.854,107.172,102.594z"/>
			</g>
		</g>
		<g>
			<g>
				<path fill="#5B5D60" d="M99.01,39.561c-2.13-7.311-9.869-11.428-17.122-9.108l-11.264,3.602c-2.682,0.858-5.565,0.858-8.247,0
					l-11.264-3.602c-7.253-2.319-14.992,1.797-17.122,9.108L22.853,77.778h87.294L99.01,39.561z"/>
			</g>
		</g>
		<g>
			<g>
				<polygon fill="#818182" points="106.277,64.5 26.723,64.5 22.853,77.778 110.147,77.778 				"/>
			</g>
		</g>
		<g>
			<g>
				<g>
					<g>
						<path d="M179.359,30.689c-16.344,0-29.641,13.297-29.641,29.641c0,16.345,13.297,29.642,29.641,29.642S209,76.675,209,60.33
							C209,43.986,195.703,30.689,179.359,30.689z M179.359,84.972c-13.587,0-24.641-11.054-24.641-24.642
							c0-13.587,11.054-24.641,24.641-24.641S204,46.743,204,60.33C204,73.918,192.946,84.972,179.359,84.972z"/>
					</g>
				</g>
			</g>
		</g>
		<g>
			<g>
				<g>
					<g>
						<path d="M226.359,97.445c-16.344,0-29.641,13.297-29.641,29.642c0,16.344,13.297,29.641,29.641,29.641
							S256,143.431,256,127.087C256,110.742,242.703,97.445,226.359,97.445z M226.359,151.728
							c-13.587,0-24.641-11.054-24.641-24.641c0-13.588,11.054-24.642,24.641-24.642S251,113.499,251,127.087
							C251,140.674,239.946,151.728,226.359,151.728z"/>
					</g>
				</g>
			</g>
		</g>
		<g>
			<g>
				<g>
					<g>
						<path d="M179.359,164.202c-16.344,0-29.641,13.297-29.641,29.642c0,16.344,13.297,29.641,29.641,29.641
							S209,210.188,209,193.844C209,177.499,195.703,164.202,179.359,164.202z M179.359,218.484
							c-13.587,0-24.641-11.054-24.641-24.641c0-13.588,11.054-24.642,24.641-24.642S204,180.256,204,193.844
							C204,207.431,192.946,218.484,179.359,218.484z"/>
					</g>
				</g>
			</g>
		</g>
		<g>
			<g>
				<path fill="#70D6F9" d="M108.906,244.1h-2.4v-2.3c0-1.8-1.4-3.2-3.2-3.2c-1.7,0-3.2,1.4-3.2,3.1v2.4h-2.3
					c-1.8,0-3.2,1.4-3.2,3.2c-0.1,1.7,1.3,3.2,3.2,3.2h2.3v2.3c0,1.8,1.4,3.2,3.2,3.2c1.7,0,3.2-1.4,3.2-3.1v-2.4h2.3
					c1.8,0,3.2-1.4,3.2-3.2C112.006,245.6,110.606,244.1,108.906,244.1z"/>
			</g>
		</g>
		<g>
			<g>
				<path fill="#FC657E" d="M77.206,11.5c-1.878,0-3.4,1.522-3.4,3.4c0,1.878,1.522,3.4,3.4,3.4c1.878,0,3.4-1.522,3.4-3.4
					C80.606,13.022,79.083,11.5,77.206,11.5z"/>
			</g>
		</g>
		<g>
			<g>
				<path fill="#87D147" d="M239.15,185.175c-3.1-0.6-5.6-3-6.2-6.1c0-0.1-0.3-0.1-0.3,0c-0.6,3.1-3.1,5.5-6.2,6.1
					c-0.1,0-0.1,0.2,0,0.3c3.1,0.6,5.6,3,6.2,6.1c0,0.1,0.3,0.1,0.3,0c0.6-3.1,3.1-5.5,6.2-6.1
					C239.25,185.375,239.25,185.175,239.15,185.175z"/>
			</g>
		</g>
		<g>
			<g>
				<path fill="#F5C84C" d="M136.369,226c-1.878,0-3.4,1.522-3.4,3.4c0,1.878,1.522,3.4,3.4,3.4c1.878,0,3.4-1.522,3.4-3.4
					C139.769,227.522,138.246,226,136.369,226z"/>
			</g>
		</g>
		<g>
			<g>
				<path fill="#F5C84C" d="M125.15,8.85c-4.5-0.8-8-4.3-8.9-8.7c0-0.2-0.4-0.2-0.4,0c-0.9,4.4-4.4,7.9-8.9,8.7
					c-0.2,0-0.2,0.3,0,0.4c4.5,0.8,8,4.3,8.9,8.7c0,0.2,0.4,0.2,0.4,0c0.9-4.4,4.4-7.9,8.9-8.7C125.35,9.15,125.35,8.85,125.15,8.85
					z"/>
			</g>
		</g>
		<g>
			<g>
				<path d="M142.994,130h-6.013c-1.381,0-2.5,1.119-2.5,2.5s1.119,2.5,2.5,2.5h6.013c1.381,0,2.5-1.119,2.5-2.5
					S144.375,130,142.994,130z"/>
			</g>
		</g>
		<g>
			<g>
				<path d="M139.198,109.003c-0.691-1.195-2.22-1.608-3.415-0.915l-5.207,3.007c-1.196,0.69-1.605,2.22-0.915,3.415
					c0.463,0.802,1.303,1.25,2.167,1.25c0.424,0,0.854-0.107,1.248-0.335l5.207-3.007
					C139.479,111.728,139.888,110.198,139.198,109.003z"/>
			</g>
		</g>
		<g>
			<g>
				<path d="M138.283,152.582l-5.207-3.007c-1.195-0.691-2.725-0.281-3.415,0.915c-0.69,1.195-0.281,2.725,0.915,3.415l5.207,3.007
					c0.394,0.228,0.823,0.335,1.248,0.335c0.864,0,1.705-0.448,2.167-1.25C139.888,154.802,139.479,153.272,138.283,152.582z"/>
			</g>
		</g>
		<g>
			<g>
				<path d="M200.644,78.388c-2.042-7.262-7.866-12.603-15.2-13.939c-3.734-0.679-7.648-0.679-11.384,0
					c-7.638,1.393-13.704,7.234-15.454,14.883c-0.308,1.346,0.534,2.687,1.879,2.995c0.188,0.042,0.375,0.063,0.56,0.063
					c1.14-0.001,2.169-0.785,2.435-1.943c1.304-5.697,5.808-10.046,11.476-11.078c3.144-0.571,6.448-0.573,9.592,0
					c5.439,0.99,9.763,4.966,11.283,10.373c0.374,1.329,1.753,2.107,3.083,1.729C200.243,81.098,201.018,79.717,200.644,78.388z"/>
			</g>
		</g>
		<g>
			<g>
				<g>
					<g>
						<path d="M179.359,43.342c-7.018,0-12.727,5.71-12.727,12.728s5.709,12.727,12.727,12.727s12.727-5.709,12.727-12.727
							S186.376,43.342,179.359,43.342z M179.359,63.796c-4.261,0-7.727-3.466-7.727-7.727s3.466-7.728,7.727-7.728
							s7.727,3.467,7.727,7.728S183.62,63.796,179.359,63.796z"/>
					</g>
				</g>
			</g>
		</g>
		<g>
			<g>
				<path d="M247.669,145.235c-1.987-7.2-7.963-12.707-15.224-14.029c-3.724-0.68-7.662-0.679-11.385-0.001
					c-7.712,1.405-13.793,7.314-15.492,15.054c-0.296,1.349,0.557,2.682,1.906,2.978c0.181,0.04,0.361,0.06,0.539,0.06
					c1.148-0.001,2.183-0.797,2.439-1.965c1.265-5.766,5.781-10.164,11.505-11.207c3.133-0.57,6.456-0.571,9.591,0.001
					c5.469,0.996,9.799,4.996,11.302,10.44c0.367,1.331,1.748,2.115,3.075,1.745C247.255,147.943,248.037,146.566,247.669,145.235z"
					/>
			</g>
		</g>
		<g>
			<g>
				<g>
					<g>
						<path d="M226.359,110.099c-7.018,0-12.727,5.709-12.727,12.727s5.709,12.728,12.727,12.728s12.727-5.71,12.727-12.728
							S233.376,110.099,226.359,110.099z M226.359,130.553c-4.261,0-7.727-3.467-7.727-7.728s3.466-7.727,7.727-7.727
							s7.727,3.466,7.727,7.727S230.62,130.553,226.359,130.553z"/>
					</g>
				</g>
			</g>
		</g>
		<g>
			<g>
				<path d="M200.704,212.121c-1.953-7.269-7.943-12.826-15.26-14.16c-3.734-0.68-7.648-0.681-11.384,0.001
					c-7.611,1.387-13.671,7.205-15.439,14.82c-0.313,1.345,0.525,2.688,1.87,3.001c0.19,0.044,0.38,0.065,0.567,0.065
					c1.137,0,2.165-0.781,2.433-1.936c1.317-5.673,5.817-10.003,11.465-11.032c3.144-0.572,6.448-0.571,9.592-0.001
					c5.427,0.989,9.873,5.126,11.327,10.538c0.358,1.333,1.727,2.127,3.063,1.766C200.271,214.825,201.062,213.454,200.704,212.121z
					"/>
			</g>
		</g>
		<g>
			<g>
				<g>
					<g>
						<path d="M179.359,176.854c-7.018,0-12.727,5.71-12.727,12.728s5.709,12.728,12.727,12.728s12.727-5.71,12.727-12.728
							S186.376,176.854,179.359,176.854z M179.359,197.31c-4.261,0-7.727-3.467-7.727-7.728s3.466-7.728,7.727-7.728
							s7.727,3.467,7.727,7.728S183.62,197.31,179.359,197.31z"/>
					</g>
				</g>
			</g>
		</g>
		<g>
			<g>
				<g>
					<g>
						<path d="M127.778,75.278H8.722C4.464,75.278,1,78.742,1,83s3.464,7.722,7.722,7.722h119.057c4.258,0,7.722-3.464,7.722-7.722
							S132.036,75.278,127.778,75.278z M127.778,85.722H8.722C7.221,85.722,6,84.501,6,83s1.221-2.722,2.722-2.722h119.057
							c1.501,0,2.722,1.221,2.722,2.722S129.279,85.722,127.778,85.722z"/>
					</g>
				</g>
			</g>
		</g>
		<g>
			<g>
				<g>
					<path d="M38.136,135.458c-3.27-8.351-10.724-29.521-9.343-45.726c0.117-1.375-0.903-2.586-2.279-2.703
						c-1.377-0.111-2.586,0.902-2.704,2.279c-1.47,17.252,6.272,39.295,9.669,47.972c0.906,2.315,0.95,4.882,0.123,7.226
						l-0.706,1.998c-0.827,2.343-2.47,4.313-4.627,5.546c-2.957,1.69-5.285,4.533-6.555,8.005l-0.445,1.217
						c-1.769,4.835-4.775,9.228-8.934,13.055C4.496,181.542,0,191.784,0,202.428v10.945c0,1.381,1.119,2.5,2.5,2.5
						s2.5-1.119,2.5-2.5v-10.945c0-9.249,3.908-18.151,10.721-24.422c4.752-4.373,8.198-9.425,10.244-15.016l0.445-1.217
						c0.866-2.365,2.407-4.277,4.341-5.383c3.198-1.829,5.635-4.75,6.86-8.223l0.706-1.998
						C39.544,142.695,39.479,138.891,38.136,135.458z"/>
				</g>
			</g>
			<g>
				<g>
					<path d="M114.785,112.006c-2.278-2.948-5.113-6.617-5.113-9.412c0-0.851,0.017-1.753,0.035-2.693
						c0.059-3.145,0.125-6.708-0.363-10.355c-0.184-1.368-1.437-2.341-2.81-2.146c-1.369,0.183-2.329,1.441-2.146,2.81
						c0.438,3.271,0.375,6.632,0.32,9.598c-0.019,0.974-0.036,1.906-0.036,2.787c0,4.502,3.414,8.919,6.157,12.469
						c0.956,1.237,2.32,3.002,2.814,4c-1.818,1.142-3.583,1.958-4.793,2.459c-1.803,0.744-2.967,2.491-2.967,4.449v5.716
						l-2.232,1.272c-0.193,0.11-0.372,0.246-0.529,0.403c-1.62,1.619-1.874,4.179-0.603,6.085l0.717,1.074
						c-0.208,0.728-0.418,1.584-0.636,2.505c-0.273,1.158-0.638,2.091-1.116,2.852c-2.739,4.369-7.629,6.353-12.46,5.056
						c-1.792-0.481-3.876-1.1-6.196-1.836c-1.54-0.489-3.203-0.272-4.566,0.595c-1.341,0.853-2.228,2.24-2.434,3.807
						c-0.542,4.145,0.735,8.396,3.598,11.972c0.239,0.299,0.437,0.65,0.588,1.049l0.948,2.488c1.302,3.418,3.42,6.564,6.125,9.102
						c6.789,6.363,14.542,15.422,14.242,29.107l-0.124,6.105c-0.028,1.381,1.068,2.522,2.449,2.55
						c0.018,0.001,0.035,0.001,0.052,0.001c1.357,0,2.471-1.086,2.499-2.449l0.124-6.102c0.347-15.836-8.863-26.339-15.821-32.86
						c-2.154-2.021-3.839-4.521-4.873-7.234l-0.948-2.487c-0.336-0.884-0.793-1.689-1.358-2.395
						c-2.004-2.503-2.908-5.414-2.543-8.197c0.004-0.037,0.019-0.148,0.159-0.237c0.064-0.041,0.196-0.105,0.37-0.048
						c2.425,0.77,4.522,1.391,6.412,1.898c6.89,1.854,14.122-1.053,17.993-7.228c0.773-1.231,1.344-2.657,1.746-4.358
						c0.203-0.857,0.396-1.653,0.589-2.321c0.4-1.379,0.177-2.851-0.613-4.037l-0.611-0.916l2.11-1.203
						c0.194-0.11,0.372-0.246,0.529-0.404c0.911-0.91,1.413-2.121,1.413-3.409v-5.794c1.553-0.648,3.842-1.729,6.148-3.265
						c0.958-0.639,1.559-1.555,1.738-2.646C119.177,117.688,117.239,115.181,114.785,112.006z"/>
				</g>
			</g>
		</g>
		<g>
			<g>
				<path d="M112.335,76.35L101.41,38.861c-1.221-4.189-4.015-7.624-7.867-9.674c-3.852-2.049-8.262-2.446-12.417-1.116
					l-11.265,3.602c-2.198,0.703-4.522,0.703-6.724,0l-11.264-3.602c-4.155-1.331-8.565-0.933-12.417,1.116
					c-3.852,2.05-6.646,5.484-7.867,9.674L20.687,76.272c-0.386,1.325,0.375,2.713,1.701,3.1c1.326,0.381,2.713-0.376,3.1-1.701
					L36.391,40.26c0.84-2.883,2.763-5.247,5.414-6.657c2.651-1.411,5.685-1.683,8.547-0.77l11.263,3.602
					c3.197,1.023,6.576,1.023,9.771,0l11.264-3.602c2.862-0.913,5.896-0.641,8.547,0.77c2.651,1.41,4.574,3.774,5.414,6.657
					l10.925,37.488c0.318,1.093,1.316,1.802,2.399,1.802c0.231,0,0.467-0.033,0.7-0.101
					C111.959,79.063,112.721,77.675,112.335,76.35z"/>
			</g>
		</g>
		<g>
			<g>
				<path d="M105,62H27.792c-1.381,0-2.5,1.119-2.5,2.5s1.119,2.5,2.5,2.5H105c1.381,0,2.5-1.119,2.5-2.5S106.38,62,105,62z"/>
			</g>
		</g>
	</g>
</g>
<g id="Layer_73">
</g>
<g id="Layer_74">
</g>
<g id="Layer_75">
</g>
<g id="Layer_76">
</g>
<g id="Layer_77">
</g>
<g id="Layer_78">
</g>
<g id="Layer_79">
</g>
<g id="Layer_80">
</g>
</svg>
