<?xml version="1.0" encoding="utf-8"?>
<!-- Generator: Adobe Illustrator 24.0.0, SVG Export Plug-In . SVG Version: 6.00 Build 0)  -->
<svg version="1.1" xmlns="http://www.w3.org/2000/svg" xmlns:xlink="http://www.w3.org/1999/xlink" x="0px" y="0px"
	 viewBox="0 0 256 256" enable-background="new 0 0 256 256" xml:space="preserve">
<g id="Layer_1">
</g>
<g id="Layer_2">
</g>
<g id="Layer_3">
</g>
<g id="Layer_4">
</g>
<g id="Layer_5">
</g>
<g id="Layer_6">
</g>
<g id="Layer_7">
</g>
<g id="Layer_8">
</g>
<g id="Layer_9">
</g>
<g id="Layer_10">
</g>
<g id="Layer_11">
</g>
<g id="Layer_12">
</g>
<g id="Layer_13">
</g>
<g id="Layer_14">
</g>
<g id="Layer_15">
</g>
<g id="Layer_16">
</g>
<g id="Layer_17">
</g>
<g id="Layer_18">
</g>
<g id="Layer_19">
</g>
<g id="Layer_20">
</g>
<g id="Layer_21">
</g>
<g id="Layer_22">
</g>
<g id="Layer_23">
</g>
<g id="Layer_24">
</g>
<g id="Layer_25">
</g>
<g id="Layer_26">
</g>
<g id="Layer_27">
</g>
<g id="Layer_28">
</g>
<g id="Layer_29">
</g>
<g id="Layer_30">
</g>
<g id="Layer_31">
</g>
<g id="Layer_32">
	<g>
		<g>
			<g>
				<path fill="#DAE6F1" d="M204.78,26.5H51.22c-3.435,0-6.22,2.785-6.22,6.22v214.56c0,3.435,2.785,6.22,6.22,6.22h153.56
					c3.435,0,6.22-2.785,6.22-6.22V32.72C211,29.285,208.215,26.5,204.78,26.5z"/>
			</g>
		</g>
		<g>
			<g>
				<path fill="#70D6F9" d="M190.087,61.716H65.913c-1.735,0-3.141,1.406-3.141,3.141v24.218c0,1.735,1.406,3.141,3.141,3.141
					h124.175c1.735,0,3.141-1.406,3.141-3.141V64.858C193.229,63.123,191.822,61.716,190.087,61.716z"/>
			</g>
		</g>
		<g>
			<g>
				<path fill="#F5C84C" d="M118.859,105.104H65.913c-1.735,0-3.141,1.406-3.141,3.141v33.548c0,1.735,1.406,3.141,3.141,3.141
					h52.946c1.735,0,3.141-1.406,3.141-3.141v-33.548C122,106.51,120.594,105.104,118.859,105.104z"/>
			</g>
		</g>
		<g>
			<g>
				<path fill="#5290DB" d="M204.78,26.5H51.22c-3.435,0-6.22,2.785-6.22,6.22V44.5h166V32.72C211,29.285,208.215,26.5,204.78,26.5z
					"/>
			</g>
		</g>
		<g>
			<g>
				<path fill="#FC657E" d="M51.22,26.5c-3.435,0-6.22,2.785-6.22,6.22V44.5h21.5v-18H51.22z"/>
			</g>
		</g>
		<g>
			<g>
				<path fill="#70D6F9" d="M238.503,190.1h-2.4v-2.3c0-1.8-1.4-3.2-3.2-3.2c-1.7,0-3.2,1.4-3.2,3.1v2.4h-2.3
					c-1.8,0-3.2,1.4-3.2,3.2c-0.1,1.7,1.3,3.2,3.2,3.2h2.3v2.3c0,1.8,1.4,3.2,3.2,3.2c1.7,0,3.2-1.4,3.2-3.1v-2.4h2.3
					c1.8,0,3.2-1.4,3.2-3.2C241.603,191.6,240.203,190.1,238.503,190.1z"/>
			</g>
		</g>
		<g>
			<g>
				<path fill="#F5C84C" d="M228.803,224.5c-1.878,0-3.4,1.522-3.4,3.4c0,1.878,1.522,3.4,3.4,3.4c1.878,0,3.4-1.522,3.4-3.4
					C232.203,226.022,230.68,224.5,228.803,224.5z"/>
			</g>
		</g>
		<g>
			<g>
				<path fill="#FC657E" d="M34.747,156.175c-3.1-0.6-5.6-3-6.2-6.1c0-0.1-0.3-0.1-0.3,0c-0.6,3.1-3.1,5.5-6.2,6.1
					c-0.1,0-0.1,0.2,0,0.3c3.1,0.6,5.6,3,6.2,6.1c0,0.1,0.3,0.1,0.3,0c0.6-3.1,3.1-5.5,6.2-6.1
					C34.847,156.375,34.847,156.175,34.747,156.175z"/>
			</g>
		</g>
		<g>
			<g>
				<path fill="#87D147" d="M54.966,0c-1.878,0-3.4,1.522-3.4,3.4c0,1.878,1.522,3.4,3.4,3.4c1.878,0,3.4-1.522,3.4-3.4
					C58.366,1.522,56.843,0,54.966,0z"/>
			</g>
		</g>
		<g>
			<g>
				<path fill="#F5C84C" d="M32.747,24.2c-4.5-0.8-8-4.3-8.9-8.7c0-0.2-0.4-0.2-0.4,0c-0.9,4.4-4.4,7.9-8.9,8.7
					c-0.2,0-0.2,0.3,0,0.4c4.5,0.8,8,4.3,8.9,8.7c0,0.2,0.4,0.2,0.4,0c0.9-4.4,4.4-7.9,8.9-8.7C32.947,24.5,32.947,24.2,32.747,24.2
					z"/>
			</g>
		</g>
		<g>
			<g>
				<g>
					<g>
						<path d="M204.78,24H51.22c-4.809,0-8.72,3.912-8.72,8.72v214.56c0,4.809,3.912,8.72,8.72,8.72h153.56
							c4.808,0,8.72-3.912,8.72-8.72V32.72C213.5,27.912,209.588,24,204.78,24z M208.5,247.28c0,2.051-1.668,3.72-3.72,3.72H51.22
							c-2.051,0-3.72-1.669-3.72-3.72V32.72c0-2.051,1.669-3.72,3.72-3.72h153.56c2.051,0,3.72,1.669,3.72,3.72V247.28z"/>
					</g>
				</g>
			</g>
		</g>
		<g>
			<g>
				<g>
					<g>
						<path d="M204.78,24H51.22c-4.808,0-8.72,3.912-8.72,8.72V44.5c0,1.381,1.119,2.5,2.5,2.5h166c1.381,0,2.5-1.119,2.5-2.5V32.72
							C213.5,27.912,209.588,24,204.78,24z M208.5,42h-161v-9.28c0-2.051,1.669-3.72,3.72-3.72h153.56c2.051,0,3.72,1.669,3.72,3.72
							V42z"/>
					</g>
				</g>
			</g>
		</g>
		<g>
			<g>
				<g>
					<g>
						<path d="M66.5,24H51.22c-4.808,0-8.72,3.912-8.72,8.72V44.5c0,1.381,1.119,2.5,2.5,2.5h21.5c1.381,0,2.5-1.119,2.5-2.5v-18
							C69,25.119,67.881,24,66.5,24z M64,42H47.5v-9.28c0-2.051,1.669-3.72,3.72-3.72H64V42z"/>
					</g>
				</g>
			</g>
		</g>
		<g>
			<g>
				<path d="M175.5,33h-95c-1.381,0-2.5,1.119-2.5,2.5s1.119,2.5,2.5,2.5h95c1.381,0,2.5-1.119,2.5-2.5S176.881,33,175.5,33z"/>
			</g>
		</g>
		<g>
			<g>
				<path d="M199.65,33h-11.4c-1.381,0-2.5,1.119-2.5,2.5s1.119,2.5,2.5,2.5h11.4c1.381,0,2.5-1.119,2.5-2.5S201.031,33,199.65,33z"
					/>
			</g>
		</g>
		<g>
			<g>
				<g>
					<g>
						<path d="M190.087,59.216H65.913c-3.11,0-5.641,2.531-5.641,5.641v24.218c0,3.11,2.531,5.641,5.641,5.641h124.175
							c3.11,0,5.641-2.531,5.641-5.641V64.857C195.729,61.747,193.198,59.216,190.087,59.216z M190.729,89.075
							c0,0.354-0.288,0.641-0.641,0.641H65.913c-0.354,0-0.641-0.288-0.641-0.641V64.857c0-0.354,0.288-0.641,0.641-0.641h124.175
							c0.354,0,0.641,0.288,0.641,0.641V89.075z"/>
					</g>
				</g>
			</g>
		</g>
		<g>
			<g>
				<g>
					<g>
						<path d="M118.859,102.604H65.913c-3.11,0-5.641,2.531-5.641,5.641v33.548c0,3.11,2.531,5.641,5.641,5.641h52.946
							c3.11,0,5.641-2.531,5.641-5.641v-33.548C124.5,105.134,121.969,102.604,118.859,102.604z M119.5,141.792
							c0,0.354-0.288,0.641-0.641,0.641H65.913c-0.354,0-0.641-0.288-0.641-0.641v-33.548c0-0.354,0.288-0.641,0.641-0.641h52.946
							c0.354,0,0.641,0.288,0.641,0.641V141.792z"/>
					</g>
				</g>
			</g>
		</g>
		<g>
			<g>
				<path d="M119.849,155.112h-55.03c-1.381,0-2.5,1.119-2.5,2.5s1.119,2.5,2.5,2.5h55.03c1.381,0,2.5-1.119,2.5-2.5
					S121.229,155.112,119.849,155.112z"/>
			</g>
		</g>
		<g>
			<g>
				<path d="M119.849,167.336h-55.03c-1.381,0-2.5,1.119-2.5,2.5s1.119,2.5,2.5,2.5h55.03c1.381,0,2.5-1.119,2.5-2.5
					S121.229,167.336,119.849,167.336z"/>
			</g>
		</g>
		<g>
			<g>
				<path d="M119.849,179.56h-55.03c-1.381,0-2.5,1.119-2.5,2.5s1.119,2.5,2.5,2.5h55.03c1.381,0,2.5-1.119,2.5-2.5
					S121.229,179.56,119.849,179.56z"/>
			</g>
		</g>
		<g>
			<g>
				<path d="M119.849,191.784h-55.03c-1.381,0-2.5,1.119-2.5,2.5s1.119,2.5,2.5,2.5h55.03c1.381,0,2.5-1.119,2.5-2.5
					S121.229,191.784,119.849,191.784z"/>
			</g>
		</g>
		<g>
			<g>
				<path d="M191.181,106.218h-55.03c-1.381,0-2.5,1.119-2.5,2.5s1.119,2.5,2.5,2.5h55.03c1.381,0,2.5-1.119,2.5-2.5
					S192.562,106.218,191.181,106.218z"/>
			</g>
		</g>
		<g>
			<g>
				<path d="M191.181,118.441h-55.03c-1.381,0-2.5,1.119-2.5,2.5s1.119,2.5,2.5,2.5h55.03c1.381,0,2.5-1.119,2.5-2.5
					S192.562,118.441,191.181,118.441z"/>
			</g>
		</g>
		<g>
			<g>
				<path d="M191.181,130.665h-55.03c-1.381,0-2.5,1.119-2.5,2.5s1.119,2.5,2.5,2.5h55.03c1.381,0,2.5-1.119,2.5-2.5
					S192.562,130.665,191.181,130.665z"/>
			</g>
		</g>
		<g>
			<g>
				<path d="M191.181,142.889h-55.03c-1.381,0-2.5,1.119-2.5,2.5s1.119,2.5,2.5,2.5h55.03c1.381,0,2.5-1.119,2.5-2.5
					S192.562,142.889,191.181,142.889z"/>
			</g>
		</g>
		<g>
			<g>
				<path d="M191.181,155.112h-55.03c-1.381,0-2.5,1.119-2.5,2.5s1.119,2.5,2.5,2.5h55.03c1.381,0,2.5-1.119,2.5-2.5
					S192.562,155.112,191.181,155.112z"/>
			</g>
		</g>
		<g>
			<g>
				<path d="M191.181,167.336h-55.03c-1.381,0-2.5,1.119-2.5,2.5s1.119,2.5,2.5,2.5h55.03c1.381,0,2.5-1.119,2.5-2.5
					S192.562,167.336,191.181,167.336z"/>
			</g>
		</g>
		<g>
			<g>
				<path d="M191.181,179.56h-55.03c-1.381,0-2.5,1.119-2.5,2.5s1.119,2.5,2.5,2.5h55.03c1.381,0,2.5-1.119,2.5-2.5
					S192.562,179.56,191.181,179.56z"/>
			</g>
		</g>
		<g>
			<g>
				<path d="M191.181,191.784h-55.03c-1.381,0-2.5,1.119-2.5,2.5s1.119,2.5,2.5,2.5h55.03c1.381,0,2.5-1.119,2.5-2.5
					S192.562,191.784,191.181,191.784z"/>
			</g>
		</g>
		<g>
			<g>
				<path d="M119.849,204.007h-55.03c-1.381,0-2.5,1.119-2.5,2.5s1.119,2.5,2.5,2.5h55.03c1.381,0,2.5-1.119,2.5-2.5
					S121.229,204.007,119.849,204.007z"/>
			</g>
		</g>
		<g>
			<g>
				<path d="M119.849,216.231h-55.03c-1.381,0-2.5,1.119-2.5,2.5s1.119,2.5,2.5,2.5h55.03c1.381,0,2.5-1.119,2.5-2.5
					S121.229,216.231,119.849,216.231z"/>
			</g>
		</g>
		<g>
			<g>
				<path d="M191.181,204.007h-55.03c-1.381,0-2.5,1.119-2.5,2.5s1.119,2.5,2.5,2.5h55.03c1.381,0,2.5-1.119,2.5-2.5
					S192.562,204.007,191.181,204.007z"/>
			</g>
		</g>
		<g>
			<g>
				<path d="M191.181,216.231h-55.03c-1.381,0-2.5,1.119-2.5,2.5s1.119,2.5,2.5,2.5h55.03c1.381,0,2.5-1.119,2.5-2.5
					S192.562,216.231,191.181,216.231z"/>
			</g>
		</g>
		<g>
			<g>
				<path d="M119.849,228.455h-55.03c-1.381,0-2.5,1.119-2.5,2.5s1.119,2.5,2.5,2.5h55.03c1.381,0,2.5-1.119,2.5-2.5
					S121.229,228.455,119.849,228.455z"/>
			</g>
		</g>
		<g>
			<g>
				<path d="M191.181,228.455h-55.03c-1.381,0-2.5,1.119-2.5,2.5s1.119,2.5,2.5,2.5h55.03c1.381,0,2.5-1.119,2.5-2.5
					S192.562,228.455,191.181,228.455z"/>
			</g>
		</g>
		<g>
			<g>
				<path fill="#70D6F9" d="M238.503,190.1h-2.4v-2.3c0-1.8-1.4-3.2-3.2-3.2c-1.7,0-3.2,1.4-3.2,3.1v2.4h-2.3
					c-1.8,0-3.2,1.4-3.2,3.2c-0.1,1.7,1.3,3.2,3.2,3.2h2.3v2.3c0,1.8,1.4,3.2,3.2,3.2c1.7,0,3.2-1.4,3.2-3.1v-2.4h2.3
					c1.8,0,3.2-1.4,3.2-3.2C241.603,191.6,240.203,190.1,238.503,190.1z"/>
			</g>
		</g>
		<g>
			<g>
				<path fill="#F5C84C" d="M228.803,224.5c-1.878,0-3.4,1.522-3.4,3.4c0,1.878,1.522,3.4,3.4,3.4c1.878,0,3.4-1.522,3.4-3.4
					C232.203,226.022,230.68,224.5,228.803,224.5z"/>
			</g>
		</g>
		<g>
			<g>
				<path fill="#FC657E" d="M34.747,156.175c-3.1-0.6-5.6-3-6.2-6.1c0-0.1-0.3-0.1-0.3,0c-0.6,3.1-3.1,5.5-6.2,6.1
					c-0.1,0-0.1,0.2,0,0.3c3.1,0.6,5.6,3,6.2,6.1c0,0.1,0.3,0.1,0.3,0c0.6-3.1,3.1-5.5,6.2-6.1
					C34.847,156.375,34.847,156.175,34.747,156.175z"/>
			</g>
		</g>
		<g>
			<g>
				<path fill="#87D147" d="M54.966,0c-1.878,0-3.4,1.522-3.4,3.4c0,1.878,1.522,3.4,3.4,3.4c1.878,0,3.4-1.522,3.4-3.4
					C58.366,1.522,56.843,0,54.966,0z"/>
			</g>
		</g>
		<g>
			<g>
				<path fill="#F5C84C" d="M32.747,24.2c-4.5-0.8-8-4.3-8.9-8.7c0-0.2-0.4-0.2-0.4,0c-0.9,4.4-4.4,7.9-8.9,8.7
					c-0.2,0-0.2,0.3,0,0.4c4.5,0.8,8,4.3,8.9,8.7c0,0.2,0.4,0.2,0.4,0c0.9-4.4,4.4-7.9,8.9-8.7C32.947,24.5,32.947,24.2,32.747,24.2
					z"/>
			</g>
		</g>
		<g>
			<g>
				<g>
					<g>
						<path d="M204.78,24H51.22c-4.809,0-8.72,3.912-8.72,8.72v214.56c0,4.809,3.912,8.72,8.72,8.72h153.56
							c4.808,0,8.72-3.912,8.72-8.72V32.72C213.5,27.912,209.588,24,204.78,24z M208.5,247.28c0,2.051-1.668,3.72-3.72,3.72H51.22
							c-2.051,0-3.72-1.669-3.72-3.72V32.72c0-2.051,1.669-3.72,3.72-3.72h153.56c2.051,0,3.72,1.669,3.72,3.72V247.28z"/>
					</g>
				</g>
			</g>
		</g>
		<g>
			<g>
				<path d="M210,42H46.5c-1.381,0-2.5,1.119-2.5,2.5s1.119,2.5,2.5,2.5H210c1.381,0,2.5-1.119,2.5-2.5S211.381,42,210,42z"/>
			</g>
		</g>
		<g>
			<g>
				<path d="M66.5,25.458c-1.381,0-2.5,1.119-2.5,2.5v15.604c0,1.381,1.119,2.5,2.5,2.5s2.5-1.119,2.5-2.5V27.958
					C69,26.578,67.881,25.458,66.5,25.458z"/>
			</g>
		</g>
		<g>
			<g>
				<path d="M175.5,33h-95c-1.381,0-2.5,1.119-2.5,2.5s1.119,2.5,2.5,2.5h95c1.381,0,2.5-1.119,2.5-2.5S176.881,33,175.5,33z"/>
			</g>
		</g>
		<g>
			<g>
				<path d="M199.65,33h-11.4c-1.381,0-2.5,1.119-2.5,2.5s1.119,2.5,2.5,2.5h11.4c1.381,0,2.5-1.119,2.5-2.5S201.031,33,199.65,33z"
					/>
			</g>
		</g>
		<g>
			<g>
				<g>
					<g>
						<path d="M190.087,59.216H65.913c-3.11,0-5.641,2.531-5.641,5.641v24.218c0,3.11,2.531,5.641,5.641,5.641h124.175
							c3.11,0,5.641-2.531,5.641-5.641V64.857C195.729,61.747,193.198,59.216,190.087,59.216z M190.729,89.075
							c0,0.354-0.288,0.641-0.641,0.641H65.913c-0.354,0-0.641-0.288-0.641-0.641V64.857c0-0.354,0.288-0.641,0.641-0.641h124.175
							c0.354,0,0.641,0.288,0.641,0.641V89.075z"/>
					</g>
				</g>
			</g>
		</g>
		<g>
			<g>
				<g>
					<g>
						<path d="M118.859,102.604H65.913c-3.11,0-5.641,2.531-5.641,5.641v33.548c0,3.11,2.531,5.641,5.641,5.641h52.946
							c3.11,0,5.641-2.531,5.641-5.641v-33.548C124.5,105.134,121.969,102.604,118.859,102.604z M119.5,141.792
							c0,0.354-0.288,0.641-0.641,0.641H65.913c-0.354,0-0.641-0.288-0.641-0.641v-33.548c0-0.354,0.288-0.641,0.641-0.641h52.946
							c0.354,0,0.641,0.288,0.641,0.641V141.792z"/>
					</g>
				</g>
			</g>
		</g>
		<g>
			<g>
				<path d="M119.849,155.112h-55.03c-1.381,0-2.5,1.119-2.5,2.5s1.119,2.5,2.5,2.5h55.03c1.381,0,2.5-1.119,2.5-2.5
					S121.229,155.112,119.849,155.112z"/>
			</g>
		</g>
		<g>
			<g>
				<path d="M119.849,167.336h-55.03c-1.381,0-2.5,1.119-2.5,2.5s1.119,2.5,2.5,2.5h55.03c1.381,0,2.5-1.119,2.5-2.5
					S121.229,167.336,119.849,167.336z"/>
			</g>
		</g>
		<g>
			<g>
				<path d="M119.849,179.56h-55.03c-1.381,0-2.5,1.119-2.5,2.5s1.119,2.5,2.5,2.5h55.03c1.381,0,2.5-1.119,2.5-2.5
					S121.229,179.56,119.849,179.56z"/>
			</g>
		</g>
		<g>
			<g>
				<path d="M119.849,191.784h-55.03c-1.381,0-2.5,1.119-2.5,2.5s1.119,2.5,2.5,2.5h55.03c1.381,0,2.5-1.119,2.5-2.5
					S121.229,191.784,119.849,191.784z"/>
			</g>
		</g>
		<g>
			<g>
				<path d="M191.181,106.218h-55.03c-1.381,0-2.5,1.119-2.5,2.5s1.119,2.5,2.5,2.5h55.03c1.381,0,2.5-1.119,2.5-2.5
					S192.562,106.218,191.181,106.218z"/>
			</g>
		</g>
		<g>
			<g>
				<path d="M191.181,118.441h-55.03c-1.381,0-2.5,1.119-2.5,2.5s1.119,2.5,2.5,2.5h55.03c1.381,0,2.5-1.119,2.5-2.5
					S192.562,118.441,191.181,118.441z"/>
			</g>
		</g>
		<g>
			<g>
				<path d="M191.181,130.665h-55.03c-1.381,0-2.5,1.119-2.5,2.5s1.119,2.5,2.5,2.5h55.03c1.381,0,2.5-1.119,2.5-2.5
					S192.562,130.665,191.181,130.665z"/>
			</g>
		</g>
		<g>
			<g>
				<path d="M191.181,142.889h-55.03c-1.381,0-2.5,1.119-2.5,2.5s1.119,2.5,2.5,2.5h55.03c1.381,0,2.5-1.119,2.5-2.5
					S192.562,142.889,191.181,142.889z"/>
			</g>
		</g>
		<g>
			<g>
				<path d="M191.181,155.112h-55.03c-1.381,0-2.5,1.119-2.5,2.5s1.119,2.5,2.5,2.5h55.03c1.381,0,2.5-1.119,2.5-2.5
					S192.562,155.112,191.181,155.112z"/>
			</g>
		</g>
		<g>
			<g>
				<path d="M191.181,167.336h-55.03c-1.381,0-2.5,1.119-2.5,2.5s1.119,2.5,2.5,2.5h55.03c1.381,0,2.5-1.119,2.5-2.5
					S192.562,167.336,191.181,167.336z"/>
			</g>
		</g>
		<g>
			<g>
				<path d="M191.181,179.56h-55.03c-1.381,0-2.5,1.119-2.5,2.5s1.119,2.5,2.5,2.5h55.03c1.381,0,2.5-1.119,2.5-2.5
					S192.562,179.56,191.181,179.56z"/>
			</g>
		</g>
		<g>
			<g>
				<path d="M191.181,191.784h-55.03c-1.381,0-2.5,1.119-2.5,2.5s1.119,2.5,2.5,2.5h55.03c1.381,0,2.5-1.119,2.5-2.5
					S192.562,191.784,191.181,191.784z"/>
			</g>
		</g>
		<g>
			<g>
				<path d="M119.849,204.007h-55.03c-1.381,0-2.5,1.119-2.5,2.5s1.119,2.5,2.5,2.5h55.03c1.381,0,2.5-1.119,2.5-2.5
					S121.229,204.007,119.849,204.007z"/>
			</g>
		</g>
		<g>
			<g>
				<path d="M119.849,216.231h-55.03c-1.381,0-2.5,1.119-2.5,2.5s1.119,2.5,2.5,2.5h55.03c1.381,0,2.5-1.119,2.5-2.5
					S121.229,216.231,119.849,216.231z"/>
			</g>
		</g>
		<g>
			<g>
				<path d="M191.181,204.007h-55.03c-1.381,0-2.5,1.119-2.5,2.5s1.119,2.5,2.5,2.5h55.03c1.381,0,2.5-1.119,2.5-2.5
					S192.562,204.007,191.181,204.007z"/>
			</g>
		</g>
		<g>
			<g>
				<path d="M191.181,216.231h-55.03c-1.381,0-2.5,1.119-2.5,2.5s1.119,2.5,2.5,2.5h55.03c1.381,0,2.5-1.119,2.5-2.5
					S192.562,216.231,191.181,216.231z"/>
			</g>
		</g>
		<g>
			<g>
				<path d="M119.849,228.455h-55.03c-1.381,0-2.5,1.119-2.5,2.5s1.119,2.5,2.5,2.5h55.03c1.381,0,2.5-1.119,2.5-2.5
					S121.229,228.455,119.849,228.455z"/>
			</g>
		</g>
		<g>
			<g>
				<path d="M191.181,228.455h-55.03c-1.381,0-2.5,1.119-2.5,2.5s1.119,2.5,2.5,2.5h55.03c1.381,0,2.5-1.119,2.5-2.5
					S192.562,228.455,191.181,228.455z"/>
			</g>
		</g>
	</g>
</g>
<g id="Layer_33">
</g>
<g id="Layer_34">
</g>
<g id="Layer_35">
</g>
<g id="Layer_36">
</g>
<g id="Layer_37">
</g>
<g id="Layer_38">
</g>
<g id="Layer_39">
</g>
<g id="Layer_40">
</g>
<g id="Layer_41">
</g>
<g id="Layer_42">
</g>
<g id="Layer_43">
</g>
<g id="Layer_44">
</g>
<g id="Layer_45">
</g>
<g id="Layer_46">
</g>
<g id="Layer_47">
</g>
<g id="Layer_48">
</g>
<g id="Layer_49">
</g>
<g id="Layer_50">
</g>
<g id="Layer_51">
</g>
<g id="Layer_52">
</g>
<g id="Layer_53">
</g>
<g id="Layer_54">
</g>
<g id="Layer_55">
</g>
<g id="Layer_56">
</g>
<g id="Layer_57">
</g>
<g id="Layer_58">
</g>
<g id="Layer_59">
</g>
<g id="Layer_60">
</g>
<g id="Layer_61">
</g>
<g id="Layer_62">
</g>
<g id="Layer_63">
</g>
<g id="Layer_64">
</g>
<g id="Layer_65">
</g>
<g id="Layer_66">
</g>
<g id="Layer_67">
</g>
<g id="Layer_68">
</g>
<g id="Layer_69">
</g>
<g id="Layer_70">
</g>
<g id="Layer_71">
</g>
<g id="Layer_72">
</g>
<g id="Layer_73">
</g>
<g id="Layer_74">
</g>
<g id="Layer_75">
</g>
<g id="Layer_76">
</g>
<g id="Layer_77">
</g>
<g id="Layer_78">
</g>
<g id="Layer_79">
</g>
<g id="Layer_80">
</g>
</svg>
