<?xml version="1.0" encoding="utf-8"?>
<!-- Generator: Adobe Illustrator 24.0.0, SVG Export Plug-In . SVG Version: 6.00 Build 0)  -->
<svg version="1.1" xmlns="http://www.w3.org/2000/svg" xmlns:xlink="http://www.w3.org/1999/xlink" x="0px" y="0px"
	 viewBox="0 0 256 256" enable-background="new 0 0 256 256" xml:space="preserve">
<g id="Layer_1">
</g>
<g id="Layer_2">
</g>
<g id="Layer_3">
</g>
<g id="Layer_4">
</g>
<g id="Layer_5">
</g>
<g id="Layer_6">
</g>
<g id="Layer_7">
</g>
<g id="Layer_8">
</g>
<g id="Layer_9">
</g>
<g id="Layer_10">
</g>
<g id="Layer_11">
</g>
<g id="Layer_12">
</g>
<g id="Layer_13">
</g>
<g id="Layer_14">
</g>
<g id="Layer_15">
</g>
<g id="Layer_16">
</g>
<g id="Layer_17">
</g>
<g id="Layer_18">
</g>
<g id="Layer_19">
</g>
<g id="Layer_20">
</g>
<g id="Layer_21">
</g>
<g id="Layer_22">
</g>
<g id="Layer_23">
</g>
<g id="Layer_24">
</g>
<g id="Layer_25">
</g>
<g id="Layer_26">
</g>
<g id="Layer_27">
</g>
<g id="Layer_28">
</g>
<g id="Layer_29">
</g>
<g id="Layer_30">
</g>
<g id="Layer_31">
</g>
<g id="Layer_32">
</g>
<g id="Layer_33">
</g>
<g id="Layer_34">
</g>
<g id="Layer_35">
</g>
<g id="Layer_36">
</g>
<g id="Layer_37">
</g>
<g id="Layer_38">
</g>
<g id="Layer_39">
</g>
<g id="Layer_40">
</g>
<g id="Layer_41">
</g>
<g id="Layer_42">
</g>
<g id="Layer_43">
</g>
<g id="Layer_44">
</g>
<g id="Layer_45">
</g>
<g id="Layer_46">
</g>
<g id="Layer_47">
</g>
<g id="Layer_48">
</g>
<g id="Layer_49">
</g>
<g id="Layer_50">
</g>
<g id="Layer_51">
</g>
<g id="Layer_52">
</g>
<g id="Layer_53">
</g>
<g id="Layer_54">
</g>
<g id="Layer_55">
</g>
<g id="Layer_56">
</g>
<g id="Layer_57">
</g>
<g id="Layer_58">
</g>
<g id="Layer_59">
</g>
<g id="Layer_60">
</g>
<g id="Layer_61">
</g>
<g id="Layer_62">
</g>
<g id="Layer_63">
</g>
<g id="Layer_64">
</g>
<g id="Layer_65">
</g>
<g id="Layer_66">
</g>
<g id="Layer_67">
</g>
<g id="Layer_68">
</g>
<g id="Layer_69">
</g>
<g id="Layer_70">
</g>
<g id="Layer_71">
	<g>
		<g>
			<g>
				<path fill="#70D6F9" d="M168.422,31.171l-13.011-14.169c-1.097-1.194-2.644-1.875-4.266-1.875h-44.422
					c-1.622,0-3.169,0.68-4.266,1.875L89.447,31.171c-1.895,2.063-2.041,5.187-0.348,7.418l35.221,46.433
					c2.318,3.055,6.912,3.055,9.229,0l35.221-46.433C170.464,36.357,170.317,33.234,168.422,31.171z"/>
			</g>
		</g>
		<g>
			<g>
				<path fill="#70D6F9" d="M221.906,82.1h-2.4v-2.3c0-1.8-1.4-3.2-3.2-3.2c-1.7,0-3.2,1.4-3.2,3.1v2.4h-2.3c-1.8,0-3.2,1.4-3.2,3.2
					c-0.1,1.7,1.3,3.2,3.2,3.2h2.3v2.3c0,1.8,1.4,3.2,3.2,3.2c1.7,0,3.2-1.4,3.2-3.1v-2.4h2.3c1.8,0,3.2-1.4,3.2-3.2
					C225.006,83.6,223.606,82.1,221.906,82.1z"/>
			</g>
		</g>
		<g>
			<g>
				<path fill="#F5C84C" d="M232.206,113.5c-1.878,0-3.4,1.522-3.4,3.4c0,1.878,1.522,3.4,3.4,3.4c1.878,0,3.4-1.522,3.4-3.4
					C235.606,115.022,234.083,113.5,232.206,113.5z"/>
			</g>
		</g>
		<g>
			<g>
				<path fill="#FC657E" d="M93.15,153.175c-3.1-0.6-5.6-3-6.2-6.1c0-0.1-0.3-0.1-0.3,0c-0.6,3.1-3.1,5.5-6.2,6.1
					c-0.1,0-0.1,0.2,0,0.3c3.1,0.6,5.6,3,6.2,6.1c0,0.1,0.3,0.1,0.3,0c0.6-3.1,3.1-5.5,6.2-6.1
					C93.25,153.375,93.25,153.175,93.15,153.175z"/>
			</g>
		</g>
		<g>
			<g>
				<path fill="#87D147" d="M53.369,0c-1.878,0-3.4,1.522-3.4,3.4c0,1.878,1.522,3.4,3.4,3.4c1.878,0,3.4-1.522,3.4-3.4
					C56.769,1.522,55.246,0,53.369,0z"/>
			</g>
		</g>
		<g>
			<g>
				<path fill="#F5C84C" d="M41.15,27.2c-4.5-0.8-8-4.3-8.9-8.7c0-0.2-0.4-0.2-0.4,0c-0.9,4.4-4.4,7.9-8.9,8.7c-0.2,0-0.2,0.3,0,0.4
					c4.5,0.8,8,4.3,8.9,8.7c0,0.2,0.4,0.2,0.4,0c0.9-4.4,4.4-7.9,8.9-8.7C41.35,27.5,41.35,27.2,41.15,27.2z"/>
			</g>
		</g>
		<g>
			<g>
				<path d="M128,97c-1.381,0-2.5,1.119-2.5,2.5v49.487c0,1.381,1.119,2.5,2.5,2.5s2.5-1.119,2.5-2.5V99.5
					C130.5,98.119,129.381,97,128,97z"/>
			</g>
		</g>
		<g>
			<g>
				<path d="M169.601,32.234H88.269c-1.381,0-2.5,1.119-2.5,2.5s1.119,2.5,2.5,2.5h81.332c1.381,0,2.5-1.119,2.5-2.5
					S170.981,32.234,169.601,32.234z"/>
			</g>
		</g>
		<g>
			<g>
				<g>
					<g>
						<path d="M170.264,29.48l-13.011-14.169c-1.565-1.706-3.792-2.684-6.107-2.684h-44.422c-2.316,0-4.542,0.978-6.107,2.684
							L87.605,29.48c-2.714,2.956-2.924,7.422-0.499,10.619l35.221,46.433c1.582,2.085,3.989,3.281,6.606,3.281
							s5.025-1.196,6.606-3.281L170.762,40.1C173.188,36.902,172.978,32.437,170.264,29.48z M166.779,37.078l-35.221,46.433
							c-0.628,0.828-1.584,1.303-2.623,1.303s-1.995-0.475-2.623-1.303L91.09,37.078c-0.963-1.27-0.88-3.043,0.198-4.217
							l13.011-14.169c0.622-0.677,1.505-1.064,2.425-1.064h44.422c0.919,0,1.803,0.388,2.425,1.064l13.011,14.169
							C167.659,34.035,167.742,35.809,166.779,37.078z"/>
					</g>
				</g>
			</g>
		</g>
		<g>
			<g>
				<path d="M130.318,85.385L114.43,34.832c-0.414-1.316-1.815-2.048-3.134-1.635c-1.317,0.414-2.049,1.817-1.635,3.135
					l15.888,50.553c0.335,1.067,1.321,1.751,2.384,1.751c0.248,0,0.5-0.038,0.75-0.116C130,88.105,130.732,86.702,130.318,85.385z"
					/>
			</g>
		</g>
		<g>
			<g>
				<path d="M146.574,33.197c-1.317-0.417-2.72,0.318-3.134,1.635l-15.888,50.553c-0.414,1.317,0.318,2.721,1.635,3.135
					c0.25,0.079,0.502,0.116,0.75,0.116c1.063,0,2.049-0.684,2.384-1.751l15.888-50.553
					C148.623,35.015,147.891,33.611,146.574,33.197z"/>
			</g>
		</g>
		<g>
			<g>
				<path d="M124.909,14.034c-1.17-0.734-2.712-0.383-3.447,0.786l-11.533,18.349c-0.735,1.169-0.383,2.712,0.786,3.446
					c0.414,0.26,0.874,0.384,1.328,0.384c0.831,0,1.644-0.414,2.119-1.17l11.533-18.349
					C126.43,16.312,126.078,14.769,124.909,14.034z"/>
			</g>
		</g>
		<g>
			<g>
				<path d="M147.941,33.169l-11.536-18.354c-0.735-1.169-2.278-1.521-3.447-0.786c-1.169,0.734-1.521,2.277-0.786,3.446
					l11.536,18.354c0.475,0.756,1.288,1.17,2.119,1.17c0.455,0,0.915-0.124,1.328-0.384
					C148.324,35.881,148.676,34.338,147.941,33.169z"/>
			</g>
		</g>
		<g>
			<g>
				<path d="M187.514,39.258h-6.738c-1.381,0-2.5,1.119-2.5,2.5s1.119,2.5,2.5,2.5h6.738c1.381,0,2.5-1.119,2.5-2.5
					S188.895,39.258,187.514,39.258z"/>
			</g>
		</g>
		<g>
			<g>
				<path d="M75.224,39.258h-6.738c-1.381,0-2.5,1.119-2.5,2.5s1.119,2.5,2.5,2.5h6.738c1.381,0,2.5-1.119,2.5-2.5
					S76.604,39.258,75.224,39.258z"/>
			</g>
		</g>
		<g>
			<g>
				<path d="M181.194,8.838c-0.69-1.195-2.22-1.608-3.415-0.915l-5.835,3.369c-1.196,0.69-1.605,2.22-0.915,3.415
					c0.463,0.802,1.303,1.25,2.167,1.25c0.424,0,0.854-0.107,1.248-0.335l5.835-3.369C181.475,11.563,181.884,10.033,181.194,8.838z
					"/>
			</g>
		</g>
		<g>
			<g>
				<path d="M84.972,68.808c-0.69-1.195-2.22-1.607-3.415-0.915l-5.835,3.369c-1.196,0.69-1.605,2.22-0.915,3.415
					c0.463,0.802,1.303,1.25,2.167,1.25c0.424,0,0.854-0.107,1.248-0.335l5.835-3.369C85.252,71.532,85.662,70.003,84.972,68.808z"
					/>
			</g>
		</g>
		<g>
			<g>
				<path d="M84.057,11.292l-5.835-3.369c-1.197-0.693-2.726-0.28-3.415,0.915c-0.69,1.195-0.281,2.725,0.915,3.415l5.835,3.369
					c0.394,0.228,0.824,0.335,1.248,0.335c0.864,0,1.705-0.448,2.167-1.25C85.662,13.512,85.252,11.982,84.057,11.292z"/>
			</g>
		</g>
		<g>
			<g>
				<path d="M180.279,71.262l-5.835-3.369c-1.196-0.692-2.726-0.28-3.415,0.915c-0.69,1.195-0.281,2.725,0.915,3.415l5.835,3.369
					c0.394,0.228,0.824,0.335,1.248,0.335c0.864,0,1.705-0.448,2.167-1.25C181.884,73.481,181.475,71.952,180.279,71.262z"/>
			</g>
		</g>
		<g>
			<g>
				<g>
					<path d="M210.83,124.362h-68.683c-0.05-4.935,0.019-16.949,0.087-24.841c0.012-1.381-1.098-2.51-2.479-2.521h-0.022
						c-1.371,0-2.487,1.105-2.5,2.479c-0.241,27.75-0.143,27.901,0.401,28.741c0.461,0.713,1.251,1.143,2.099,1.143h68.596v19.626
						c0,1.381,1.119,2.5,2.5,2.5s2.5-1.119,2.5-2.5v-22.126C213.33,125.481,212.211,124.362,210.83,124.362z"/>
				</g>
			</g>
			<g>
				<g>
					<path d="M116.266,97c-1.381,0-2.5,1.119-2.5,2.5v24.862H45.17c-1.381,0-2.5,1.119-2.5,2.5v22.126c0,1.381,1.119,2.5,2.5,2.5
						s2.5-1.119,2.5-2.5v-19.626h68.596c1.381,0,2.5-1.119,2.5-2.5V99.5C118.766,98.119,117.646,97,116.266,97z"/>
				</g>
			</g>
		</g>
		<g>
			<g>
				<path fill="#5290DB" d="M247.265,243.915l-11.339-2.854c-6.01-1.513-10.736-4.105-10.675-4.075
					c-2.471-1.218-4.036-3.734-4.036-6.489c0-0.322,0-3.509,0-3.408c-2.892,1.514-6.174,2.376-9.649,2.376h0
					c-3.475,0-6.756-0.863-9.649-2.376c0,0.351,0,3.525,0,3.408c0,2.751-1.561,5.269-4.028,6.485
					c-3.342,1.648-6.257,2.965-10.683,4.079l-11.339,2.854c-3.226,0.812-5.598,3.474-6.118,6.705
					c27.416,7.171,56.216,7.171,83.632,0C252.863,247.389,250.492,244.727,247.265,243.915z"/>
			</g>
		</g>
		<g>
			<g>
				<path fill="#F9D0B4" d="M229.519,183.472c-1.369-1.436-3.596-1.568-5.157-0.343c-2.468,1.937-6.739,4.332-12.771,4.332
					c-6.047,0-10.34-2.406-12.819-4.346c-1.56-1.221-3.782-1.084-5.149,0.35l-0.007,0.007c-1.921,2.014-2.992,4.69-2.992,7.473
					v17.577c0,11.519,9.425,20.944,20.944,20.944h0c11.519,0,20.944-9.425,20.944-20.944v-17.577
					C232.511,188.162,231.439,185.486,229.519,183.472z"/>
			</g>
		</g>
		<g>
			<g>
				<path fill="#F9D0B4" d="M233.855,192.56c-0.458,0-0.906,0.039-1.344,0.106v15.855c0,0.473-0.022,0.94-0.053,1.405
					c0.456,0.073,0.92,0.122,1.397,0.122c4.829,0,8.744-3.915,8.744-8.744C242.599,196.475,238.684,192.56,233.855,192.56z"/>
			</g>
		</g>
		<g>
			<g>
				<path fill="#F9D0B4" d="M190.624,208.521v-15.855c-0.438-0.068-0.886-0.106-1.344-0.106c-4.829,0-8.744,3.915-8.744,8.744
					c0,4.829,3.915,8.744,8.744,8.744c0.477,0,0.941-0.049,1.397-0.122v0C190.645,209.461,190.624,208.994,190.624,208.521z"/>
			</g>
		</g>
		<g>
			<g>
				<path fill="#FCE4BE" d="M232.433,174.695c-0.701,0-1.309-0.541-1.319-1.242c-0.161-11.67-13.487-13.863-26.759-11.571
					c-11.252,1.943-19.476,11.701-19.476,23.119v8.756c1.294-0.756,2.795-1.197,4.402-1.197c0.458,0,0.906,0.039,1.344,0.106v-1.722
					c0-2.783,1.071-5.459,2.992-7.473l0.007-0.007c1.367-1.434,3.589-1.57,5.149-0.35c2.479,1.94,6.772,4.346,12.819,4.346
					c6.032,0,10.303-2.395,12.771-4.332c1.561-1.226,3.788-1.093,5.157,0.343c1.921,2.014,2.992,4.69,2.992,7.473v1.722
					c0.438-0.068,0.886-0.106,1.344-0.106c1.626,0,3.143,0.452,4.448,1.225v-7.189C238.303,176.146,234.529,174.695,232.433,174.695
					z"/>
			</g>
		</g>
		<g>
			<g>
				<path fill="#70D6F9" d="M80.131,243.915l-11.339-2.854c-6.01-1.513-10.736-4.105-10.675-4.075
					c-2.471-1.218-4.036-3.734-4.036-6.489v-3.408c-2.892,1.514-6.174,2.376-9.649,2.376s-6.756-0.863-9.649-2.376v3.408
					c0,2.751-1.56,5.269-4.028,6.485c-3.342,1.648-6.258,2.965-10.683,4.079l-11.339,2.854c-3.281,0.826-5.677,3.565-6.141,6.871
					c44.602,11.29,77.92,0.703,83.678,0.001C85.809,247.481,83.412,244.741,80.131,243.915z"/>
			</g>
		</g>
		<g>
			<g>
				<path fill="#F9D0B4" d="M62.384,183.472c-1.37-1.436-3.596-1.568-5.157-0.343c-2.468,1.937-6.739,4.332-12.771,4.332
					c-6.047,0-10.34-2.406-12.819-4.346c-1.56-1.221-3.782-1.084-5.149,0.35l-0.007,0.007c-1.921,2.014-2.992,4.69-2.992,7.473
					v17.577c0,11.519,9.425,20.944,20.944,20.944h0c11.519,0,20.944-9.425,20.944-20.944v-17.577
					C65.376,188.162,64.305,185.486,62.384,183.472z"/>
			</g>
		</g>
		<g>
			<g>
				<path fill="#F9D0B4" d="M66.72,192.56c-0.458,0-0.906,0.039-1.344,0.106v15.855c0,0.473-0.022,0.94-0.053,1.405
					c0.456,0.073,0.92,0.122,1.397,0.122c4.829,0,8.744-3.915,8.744-8.744C75.464,196.475,71.55,192.56,66.72,192.56z"/>
			</g>
		</g>
		<g>
			<g>
				<path fill="#F9D0B4" d="M23.489,208.521v-15.855c-0.438-0.068-0.886-0.106-1.344-0.106c-4.829,0-8.744,3.915-8.744,8.744
					c0,4.829,3.915,8.744,8.744,8.744c0.477,0,0.941-0.049,1.397-0.122v0C23.511,209.461,23.489,208.994,23.489,208.521z"/>
			</g>
		</g>
		<g>
			<g>
				<path fill="#5B5D60" d="M65.298,174.695c-0.701,0-1.309-0.541-1.319-1.242c-0.161-11.67-13.487-13.863-26.759-11.571
					c-11.252,1.943-19.476,11.701-19.476,23.119v8.756c1.294-0.756,2.795-1.197,4.402-1.197c0.457,0,0.906,0.039,1.344,0.106v-1.722
					c0-2.783,1.071-5.459,2.992-7.473l0.007-0.007c1.367-1.434,3.589-1.57,5.149-0.35c2.479,1.94,6.772,4.346,12.819,4.346
					c6.032,0,10.303-2.395,12.771-4.332c1.561-1.226,3.788-1.093,5.157,0.343c1.921,2.014,2.992,4.69,2.992,7.473v1.722
					c0.438-0.068,0.886-0.106,1.344-0.106c1.626,0,3.143,0.452,4.448,1.225v-7.189C71.168,176.146,67.395,174.695,65.298,174.695z"
					/>
			</g>
		</g>
		<g>
			<g>
				<path fill="#F9D0B4" d="M148.751,193.838c-0.426,0-0.843,0.036-1.251,0.099v14.762c0,0.44-0.02,0.875-0.049,1.308
					c0.424,0.068,0.857,0.114,1.3,0.114c4.496,0,8.141-3.645,8.141-8.141C156.892,197.482,153.247,193.838,148.751,193.838z"/>
			</g>
		</g>
		<g>
			<g>
				<path fill="#F9D0B4" d="M146.3,191.46c-1.973-0.457-4.369-1.6-7.115-4.095c-0.543-0.494-1.381-0.453-1.858,0.104
					c-2.97,3.466-13.5,13.982-28.826,9.617v11.612c0,10.725,8.775,19.5,19.499,19.5c10.725,0,19.499-8.775,19.499-19.5v-15.753
					C147.499,192.229,146.998,191.622,146.3,191.46z"/>
			</g>
		</g>
		<g>
			<g>
				<path fill="#F9D0B4" d="M108.501,208.699v-11.612c-1.339-0.381-2.714-0.875-4.124-1.498c-0.909-0.402-1.971-0.217-2.696,0.463
					c-1.582,1.483-2.572,3.587-2.572,5.927c0,4.496,3.645,8.141,8.141,8.141c0.444,0,0.876-0.045,1.3-0.114
					C108.521,209.574,108.501,209.139,108.501,208.699z"/>
			</g>
		</g>
		<g>
			<g>
				<path fill="#FCA265" d="M128,164.947c-14.584,0-26.516,11.932-26.516,26.516v4.792c0.066-0.067,0.127-0.138,0.196-0.203
					c0.725-0.68,1.787-0.865,2.696-0.463c1.41,0.623,2.785,1.116,4.124,1.498c15.326,4.365,25.856-6.151,28.826-9.617
					c0.477-0.557,1.315-0.598,1.858-0.104c2.746,2.495,5.142,3.638,7.115,4.095c0.698,0.162,1.199,0.769,1.199,1.485v0.992
					c0.408-0.063,0.825-0.099,1.251-0.099c2.253,0,4.291,0.915,5.765,2.394v-4.769C154.516,176.879,142.583,164.947,128,164.947z"/>
			</g>
		</g>
		<g>
			<g>
				<path fill="#FC657E" d="M162.435,243.748l-3.876-0.979c-0.363-0.092-9.591-2.421-10.067-2.541
					c-1.165-0.293-2.296-0.709-3.373-1.24l-4.821-2.377c-3.407-1.68-2.997-5.221-3.024-5.321v-5.455
					c-2.762,1.505-5.923,2.363-9.275,2.363c-3.351,0-6.513-0.857-9.275-2.363v5.455c-0.027,0.1,0.361,3.652-3.024,5.321
					l-4.821,2.377c-1.078,0.531-2.208,0.947-3.373,1.24c-0.069,0.017-10.003,2.525-10.067,2.541l-3.876,0.979
					c-3.247,0.817-5.601,3.569-5.971,6.865c26.459,7.181,54.352,7.181,80.811,0C168.036,247.317,165.681,244.565,162.435,243.748z"
					/>
			</g>
		</g>
		<g>
			<g>
				<path fill="#FCA265" d="M155.313,221.05c3.724-5.841,1.965-11.528,0.323-14.74c-1.442,2.286-3.982,3.81-6.885,3.81
					c-0.444,0-0.876-0.045-1.3-0.114c-0.458,6.823-4.461,12.714-10.175,15.829v5.914c0,1.893,0.993,3.625,2.585,4.605
					c0.638,0.393-0.172-0.068,5.26,2.634c0.731,0.36,1.696,0.742,2.44,0.975c0.148,0.046,0.297,0.087,0.446,0.129
					c2.87-1.05,5.401-2.718,7.041-5.314c3.007-4.761,1.252-9.374,0.146-11.438C154.803,222.614,154.87,221.744,155.313,221.05z"/>
			</g>
		</g>
		<g>
			<g>
				<path fill="#FCA265" d="M108.55,210.006c-0.424,0.068-0.857,0.114-1.3,0.114c-2.902,0-5.443-1.523-6.884-3.81
					c-1.643,3.212-3.402,8.899,0.322,14.74c0.443,0.694,0.51,1.563,0.121,2.289c-1.107,2.064-2.861,6.678,0.145,11.438
					c1.64,2.596,4.172,4.264,7.041,5.314c0.149-0.042,0.298-0.083,0.446-0.129c0.744-0.233,1.709-0.614,2.44-0.975
					c5.784-2.877,4.67-2.27,5.26-2.634c1.591-0.98,2.585-2.712,2.585-4.605v-5.914C113.011,222.721,109.008,216.829,108.55,210.006z
					"/>
			</g>
		</g>
		<g>
			<g>
				<path fill="#6CADEF" d="M225.252,236.987c-0.495-0.244-0.942-0.552-1.358-0.892l-8.403,9.621c-0.659,0.754-0.582,1.9,0.173,2.56
					l5.469,4.777c0.755,0.659,1.901,0.582,2.56-0.173l10.691-12.241C229.129,239.112,225.195,236.959,225.252,236.987z"/>
			</g>
		</g>
		<g>
			<g>
				<path fill="#6CADEF" d="M207.644,245.716l-8.403-9.621c-0.417,0.34-0.864,0.648-1.358,0.892
					c-2.932,1.446-5.539,2.636-9.126,3.659l10.686,12.234c0.659,0.754,1.805,0.832,2.56,0.173l5.469-4.777
					C208.226,247.616,208.304,246.47,207.644,245.716z"/>
			</g>
		</g>
		<g>
			<g>
				<path fill="#F9D0B4" d="M221.216,230.498v-3.409c-2.893,1.514-6.174,2.376-9.649,2.376h0c-3.475,0-6.756-0.862-9.649-2.376
					v3.409c0,2.203-1.012,4.241-2.677,5.597l8.403,9.621c0.251,0.287,0.393,0.63,0.434,0.982h6.977
					c0.041-0.352,0.184-0.695,0.434-0.982l8.403-9.621C222.228,234.739,221.216,232.701,221.216,230.498z"/>
			</g>
		</g>
		<g>
			<g>
				<path fill="#9BE5F9" d="M58.117,236.987c-0.495-0.244-0.942-0.552-1.358-0.892l-8.403,9.621c-0.659,0.754-0.582,1.9,0.173,2.56
					l5.469,4.777c0.755,0.659,1.901,0.582,2.56-0.173l10.691-12.241C61.995,239.112,58.061,236.959,58.117,236.987z"/>
			</g>
		</g>
		<g>
			<g>
				<path fill="#9BE5F9" d="M40.51,245.716l-8.403-9.621c-0.417,0.34-0.864,0.648-1.358,0.892c-2.932,1.446-5.539,2.636-9.126,3.659
					l10.686,12.234c0.659,0.754,1.805,0.832,2.56,0.173l5.469-4.777C41.092,247.616,41.169,246.47,40.51,245.716z"/>
			</g>
		</g>
		<g>
			<g>
				<path fill="#F9D0B4" d="M54.082,230.498v-3.409c-2.893,1.514-6.174,2.376-9.649,2.376h0c-3.475,0-6.756-0.862-9.649-2.376v3.409
					c0,2.203-1.012,4.241-2.677,5.597l8.403,9.621c0.251,0.287,0.393,0.63,0.434,0.982h6.977c0.041-0.352,0.184-0.695,0.434-0.982
					l8.403-9.621C55.094,234.739,54.082,232.701,54.082,230.498z"/>
			</g>
		</g>
		<g>
			<g>
				<path fill="#F98FA6" d="M122.799,246.351l-8.443-9.076l-3.475,1.713c-1.078,0.531-2.208,0.947-3.373,1.24
					c-0.026,0.007-1.495,0.377-3.302,0.833l3.646,7.873c2.25,4.857,8.586,6.101,12.506,2.455l2.339-2.176
					C123.515,248.451,123.561,247.169,122.799,246.351z"/>
			</g>
		</g>
		<g>
			<g>
				<path fill="#F98FA6" d="M148.493,240.229c-1.165-0.293-2.296-0.709-3.373-1.24l-3.475-1.713l-8.443,9.076
					c-0.762,0.819-0.716,2.101,0.103,2.863l2.339,2.176c3.919,3.646,10.256,2.402,12.506-2.455l3.646-7.873
					C150.083,240.63,148.671,240.273,148.493,240.229z"/>
			</g>
		</g>
		<g>
			<g>
				<path fill="#F9D0B4" d="M140.299,236.611c-1.851-0.913-3.024-2.798-3.024-4.862v-5.914c-2.762,1.505-5.923,2.363-9.275,2.363
					c-3.351,0-6.513-0.857-9.275-2.363v5.914c0,2.064-1.172,3.949-3.024,4.862l-1.346,0.664l8.443,9.076
					c0.253,0.271,0.409,0.596,0.485,0.934h9.433c0.076-0.338,0.232-0.663,0.485-0.934l8.443-9.076L140.299,236.611z"/>
			</g>
		</g>
		<g>
			<g>
				<path d="M201.918,224.958c-1.381,0-2.5,1.119-2.5,2.5v3.039c0,1.816-1.012,3.444-2.642,4.247
					c-3.014,1.486-5.861,2.806-10.179,3.892l-11.339,2.854c-4.594,1.156-7.857,5.111-8.121,9.842
					c-0.077,1.378,0.979,2.558,2.357,2.635c0.047,0.003,0.095,0.004,0.142,0.004c1.317,0,2.419-1.029,2.494-2.361
					c0.141-2.533,1.889-4.65,4.349-5.27l11.338-2.854c4.794-1.206,7.896-2.642,11.17-4.257c3.35-1.65,5.431-4.996,5.431-8.731
					v-3.039C204.418,226.077,203.299,224.958,201.918,224.958z"/>
			</g>
		</g>
		<g>
			<g>
				<path d="M247.876,241.49l-11.339-2.854c-5.436-1.368-9.82-3.699-10.056-3.826c-0.041-0.023-0.082-0.045-0.124-0.065
					c-1.629-0.803-2.641-2.431-2.641-4.247v-2.903c0-1.381-1.119-2.5-2.5-2.5s-2.5,1.119-2.5,2.5v2.903
					c0,3.679,2.019,6.98,5.281,8.656c0.66,0.418,1.695,0.883,3.362,1.603c1.837,0.794,4.709,1.911,7.957,2.729l11.339,2.854
					c2.46,0.619,4.208,2.736,4.349,5.269c0.074,1.332,1.177,2.361,2.494,2.361c0.047,0,0.094-0.001,0.142-0.004
					c1.378-0.077,2.434-1.257,2.357-2.635C255.733,246.602,252.469,242.646,247.876,241.49z"/>
			</g>
		</g>
		<g>
			<g>
				<g>
					<g>
						<path d="M231.328,181.746c-2.259-2.368-5.918-2.618-8.51-0.584c-2.208,1.733-5.948,3.799-11.228,3.799
							c-5.293,0-9.055-2.074-11.278-3.815c-2.588-2.026-6.243-1.771-8.499,0.593c-0.01,0.01-0.02,0.021-0.031,0.032
							c-2.36,2.487-3.66,5.743-3.66,9.174v17.577c0,12.927,10.517,23.443,23.444,23.443s23.443-10.517,23.443-23.443v-17.577
							C235.011,187.503,233.703,184.236,231.328,181.746z M230.011,208.521c0,10.17-8.273,18.443-18.443,18.443
							s-18.444-8.273-18.444-18.443v-17.577c0-2.15,0.817-4.191,2.301-5.747c0.007-0.007,0.014-0.015,0.021-0.023
							c0.473-0.479,1.236-0.521,1.784-0.091c2.842,2.226,7.641,4.878,14.36,4.878c6.708,0,11.487-2.646,14.315-4.865
							c0.555-0.438,1.332-0.396,1.804,0.102c0,0,0,0,0,0c1.484,1.556,2.301,3.597,2.301,5.747V208.521z"/>
					</g>
				</g>
			</g>
		</g>
		<g>
			<g>
				<path d="M233.855,190.06c-1.381,0-2.5,1.119-2.5,2.5s1.119,2.5,2.5,2.5c3.443,0,6.244,2.801,6.244,6.244
					s-2.801,6.244-6.244,6.244c-1.381,0-2.5,1.119-2.5,2.5s1.119,2.5,2.5,2.5c6.2,0,11.244-5.044,11.244-11.244
					S240.055,190.06,233.855,190.06z"/>
			</g>
		</g>
		<g>
			<g>
				<path d="M189.28,207.548c-3.443,0-6.244-2.801-6.244-6.244s2.801-6.244,6.244-6.244c1.381,0,2.5-1.119,2.5-2.5
					s-1.119-2.5-2.5-2.5c-6.2,0-11.244,5.044-11.244,11.244s5.044,11.244,11.244,11.244c1.381,0,2.5-1.119,2.5-2.5
					S190.661,207.548,189.28,207.548z"/>
			</g>
		</g>
		<g>
			<g>
				<path d="M233.56,172.287c-0.31-3.784-1.918-6.976-4.693-9.278c-6.849-5.688-18.564-4.69-24.938-3.591
					c-12.488,2.156-21.551,12.915-21.551,25.583v8.291c0,1.381,1.119,2.5,2.5,2.5s2.5-1.119,2.5-2.5v-8.291
					c0-10.229,7.318-18.915,17.402-20.655c9.264-1.602,17.074-0.662,20.894,2.509c1.939,1.611,2.901,3.78,2.94,6.633
					c0.029,2.044,1.742,3.707,3.819,3.707c2.079,0,3.37,3.603,3.37,9.401v6.685c0,1.381,1.119,2.5,2.5,2.5s2.5-1.119,2.5-2.5v-6.685
					C240.803,175.283,236.369,172.753,233.56,172.287z"/>
			</g>
		</g>
		<g>
			<g>
				<path d="M34.784,225.021c-1.381,0-2.5,1.119-2.5,2.5v2.976c0,1.816-1.012,3.444-2.641,4.247
					c-3.016,1.487-5.863,2.807-10.18,3.892L8.125,241.49c-4.594,1.156-7.857,5.111-8.121,9.842
					c-0.077,1.378,0.979,2.558,2.357,2.635c0.047,0.003,0.095,0.004,0.142,0.004c1.317,0,2.419-1.029,2.494-2.361
					c0.141-2.533,1.889-4.65,4.349-5.27l11.338-2.854c4.793-1.206,7.895-2.642,11.17-4.257c3.35-1.65,5.43-4.996,5.43-8.731v-2.976
					C37.284,226.141,36.165,225.021,34.784,225.021z"/>
			</g>
		</g>
		<g>
			<g>
				<path d="M80.741,241.49l-11.339-2.854c-5.434-1.367-9.816-3.697-10.056-3.826c-0.041-0.023-0.082-0.045-0.124-0.065
					c-1.629-0.803-2.641-2.431-2.641-4.247V227.5c0-1.381-1.119-2.5-2.5-2.5s-2.5,1.119-2.5,2.5v2.997
					c0,3.679,2.019,6.98,5.281,8.656c0.659,0.418,1.694,0.883,3.362,1.603c1.837,0.794,4.709,1.911,7.958,2.729l11.339,2.854
					c2.46,0.619,4.208,2.736,4.349,5.269c0.074,1.332,1.177,2.361,2.494,2.361c0.047,0,0.094-0.001,0.142-0.004
					c1.378-0.077,2.434-1.257,2.357-2.635C88.599,246.602,85.335,242.646,80.741,241.49z"/>
			</g>
		</g>
		<g>
			<g>
				<g>
					<g>
						<path d="M64.193,181.746c-2.259-2.368-5.917-2.619-8.51-0.584c-2.208,1.733-5.948,3.799-11.228,3.799
							c-5.293,0-9.055-2.075-11.278-3.815c-2.589-2.026-6.243-1.771-8.506,0.601c-2.375,2.49-3.683,5.757-3.683,9.198v17.577
							c0,12.927,10.517,23.443,23.443,23.443s23.444-10.517,23.444-23.443v-17.577C67.876,187.503,66.568,184.236,64.193,181.746z
							 M62.876,208.521c0,10.17-8.274,18.443-18.444,18.443s-18.443-8.273-18.443-18.443v-17.577c0-2.15,0.817-4.191,2.308-5.755
							c0.255-0.268,0.598-0.403,0.948-0.403c0.296,0,0.597,0.098,0.851,0.297c2.843,2.226,7.642,4.878,14.36,4.878
							c6.708,0,11.487-2.646,14.315-4.865c0.558-0.438,1.332-0.394,1.804,0.101l0,0.001c1.484,1.556,2.301,3.597,2.301,5.747
							V208.521z"/>
					</g>
				</g>
			</g>
		</g>
		<g>
			<g>
				<path d="M66.72,190.06c-1.381,0-2.5,1.119-2.5,2.5s1.119,2.5,2.5,2.5c3.443,0,6.244,2.801,6.244,6.244s-2.801,6.244-6.244,6.244
					c-1.381,0-2.5,1.119-2.5,2.5s1.119,2.5,2.5,2.5c6.2,0,11.244-5.044,11.244-11.244S72.92,190.06,66.72,190.06z"/>
			</g>
		</g>
		<g>
			<g>
				<path d="M22.145,207.548c-3.443,0-6.244-2.801-6.244-6.244s2.801-6.244,6.244-6.244c1.381,0,2.5-1.119,2.5-2.5
					s-1.119-2.5-2.5-2.5c-6.2,0-11.244,5.044-11.244,11.244s5.044,11.244,11.244,11.244c1.381,0,2.5-1.119,2.5-2.5
					S23.526,207.548,22.145,207.548z"/>
			</g>
		</g>
		<g>
			<g>
				<path d="M66.425,172.287c-0.31-3.784-1.918-6.976-4.693-9.278c-6.849-5.688-18.565-4.69-24.938-3.591
					c-12.487,2.156-21.551,12.915-21.551,25.583v8.249c0,1.381,1.119,2.5,2.5,2.5s2.5-1.119,2.5-2.5v-8.249
					c0-10.229,7.318-18.915,17.401-20.655c9.264-1.602,17.075-0.662,20.894,2.509c1.939,1.611,2.901,3.78,2.94,6.633
					c0.029,2.044,1.742,3.707,3.819,3.707c2.079,0,3.37,3.603,3.37,9.401v6.446c0,1.381,1.119,2.5,2.5,2.5s2.5-1.119,2.5-2.5v-6.446
					C73.668,175.282,69.234,172.753,66.425,172.287z"/>
			</g>
		</g>
		<g>
			<g>
				<path d="M148.75,191.338c-1.381,0-2.5,1.119-2.5,2.5s1.119,2.5,2.5,2.5c3.11,0,5.641,2.53,5.641,5.641s-2.531,5.642-5.641,5.642
					c-1.381,0-2.5,1.119-2.5,2.5s1.119,2.5,2.5,2.5c5.868,0,10.641-4.773,10.641-10.642
					C159.392,196.111,154.618,191.338,148.75,191.338z"/>
			</g>
		</g>
		<g>
			<g>
				<g>
					<g>
						<path d="M146.864,189.024c-1.901-0.44-3.919-1.621-5.999-3.511c-0.759-0.69-1.787-1.058-2.8-0.985
							c-1.028,0.064-1.964,0.53-2.636,1.313c0,0.001-0.001,0.001-0.001,0.002c-2.636,3.076-12.314,12.803-26.243,8.839
							c-0.754-0.214-1.565-0.063-2.191,0.409c-0.626,0.473-0.994,1.211-0.994,1.995v11.613c0,12.13,9.869,21.999,22,21.999
							s22-9.869,22-21.999v-15.754C150,191.065,148.711,189.453,146.864,189.024z M145,208.699c0,9.373-7.626,16.999-17,16.999
							s-17-7.626-17-16.999v-8.48c13.881,2.403,23.68-6.188,27.412-10.213c2.182,1.815,4.391,3.056,6.587,3.697V208.699z"/>
					</g>
				</g>
			</g>
		</g>
		<g>
			<g>
				<path d="M109.185,194.682c-1.254-0.357-2.532-0.821-3.798-1.38c-1.828-0.806-3.954-0.442-5.417,0.927
					c-2.136,2.004-3.361,4.828-3.361,7.75c0,5.868,4.773,10.642,10.641,10.642c1.381,0,2.5-1.119,2.5-2.5s-1.119-2.5-2.5-2.5
					c-3.11,0-5.641-2.531-5.641-5.642c0-1.568,0.633-3.025,1.759-4.103c1.477,0.651,2.974,1.195,4.449,1.614
					c1.327,0.38,2.711-0.393,3.089-1.721C111.283,196.442,110.513,195.06,109.185,194.682z"/>
			</g>
		</g>
		<g>
			<g>
				<path d="M128,162.447c-16,0-29.016,13.017-29.016,29.016v4.49c0,1.381,1.119,2.5,2.5,2.5s2.5-1.119,2.5-2.5v-4.49
					c0-13.242,10.773-24.016,24.016-24.016s24.016,10.773,24.016,24.016v4.475c0,1.381,1.119,2.5,2.5,2.5s2.5-1.119,2.5-2.5v-4.475
					C157.016,175.464,144,162.447,128,162.447z"/>
			</g>
		</g>
		<g>
			<g>
				<path d="M118.725,223.766c-1.381,0-2.5,1.119-2.5,2.5v5.483c0,1.12-0.625,2.124-1.629,2.62l-4.821,2.377
					c-0.918,0.453-1.887,0.809-2.884,1.06c-0.142,0.036-9.876,2.493-10.063,2.54l-3.874,0.978c-4.479,1.127-7.66,4.982-7.917,9.594
					c-0.077,1.379,0.979,2.559,2.357,2.636c0.047,0.003,0.094,0.004,0.142,0.004c1.317,0,2.419-1.029,2.494-2.36
					c0.135-2.415,1.8-4.434,4.147-5.024l3.861-0.975c0.063-0.016,10.019-2.529,10.079-2.544c1.333-0.335,2.634-0.814,3.869-1.423
					l4.821-2.377c2.725-1.344,4.417-4.066,4.417-7.104v-5.483C121.225,224.885,120.106,223.766,118.725,223.766z"/>
			</g>
		</g>
		<g>
			<g>
				<path d="M163.047,241.324l-13.944-3.521c-0.991-0.249-1.959-0.604-2.877-1.058l-4.821-2.377c-1.005-0.496-1.629-1.5-1.629-2.62
					v-5.374c0-1.381-1.119-2.5-2.5-2.5s-2.5,1.119-2.5,2.5v5.374c0,3.038,1.693,5.761,4.418,7.104l4.821,2.377
					c1.234,0.608,2.536,1.087,3.867,1.422l13.945,3.521c2.345,0.59,4.01,2.608,4.145,5.023c0.074,1.331,1.177,2.36,2.494,2.36
					c0.047,0,0.094-0.001,0.142-0.004c1.378-0.077,2.434-1.257,2.357-2.636C170.705,246.306,167.523,242.45,163.047,241.324z"/>
			</g>
		</g>
		<g>
			<g>
				<path d="M158.117,205.69c-0.595-1.247-2.087-1.774-3.334-1.177c-1.246,0.596-1.772,2.088-1.177,3.333
					c1.4,2.928,2.467,7.361-0.401,11.859c-0.938,1.471-1.021,3.316-0.217,4.813c0.956,1.785,2.221,5.318-0.056,8.923
					c-1.152,1.825-3.014,3.24-5.532,4.206c-1.289,0.494-1.933,1.94-1.438,3.229c0.381,0.994,1.329,1.605,2.334,1.605
					c0.298,0,0.601-0.054,0.895-0.167c3.547-1.36,6.228-3.448,7.969-6.204c3.682-5.829,1.521-11.487,0.315-13.804
					C160.624,217.308,160.853,211.41,158.117,205.69z"/>
			</g>
		</g>
		<g>
			<g>
				<path d="M108.678,237.678c-2.559-0.967-4.447-2.393-5.611-4.235c-2.276-3.604-1.012-7.138-0.057-8.921
					c0.805-1.499,0.723-3.345-0.215-4.814c-2.9-4.548-1.785-9.029-0.34-11.988c0.606-1.24,0.092-2.737-1.148-3.344
					c-1.243-0.606-2.738-0.092-3.344,1.148c-2.821,5.774-2.621,11.73,0.562,16.785c-1.204,2.313-3.368,7.973,0.315,13.804
					c1.757,2.782,4.472,4.882,8.07,6.243c0.291,0.109,0.59,0.162,0.884,0.162c1.01,0,1.96-0.616,2.339-1.617
					C110.621,239.609,109.97,238.167,108.678,237.678z"/>
			</g>
		</g>
		<g>
			<g>
				<path d="M235.578,239.271c-1.04-0.908-2.62-0.801-3.527,0.238l-9.791,11.21l-4.436-3.875l7.558-8.653
					c0.908-1.04,0.802-2.619-0.238-3.527c-1.04-0.907-2.619-0.8-3.527,0.238l-8.009,9.17c-0.758,0.868-1.132,1.979-1.055,3.129
					s0.598,2.2,1.466,2.958l5.47,4.779c0.816,0.711,1.827,1.061,2.833,1.061c1.204,0,2.401-0.499,3.252-1.475l10.242-11.726
					C236.725,241.758,236.618,240.179,235.578,239.271z"/>
			</g>
		</g>
		<g>
			<g>
				<path d="M209.527,244.071l-7.708-8.825c-0.908-1.041-2.488-1.147-3.527-0.238c-1.04,0.908-1.146,2.487-0.238,3.527l7.257,8.309
					l-4.436,3.874l-9.575-10.961c-0.908-1.042-2.489-1.146-3.527-0.238c-1.04,0.908-1.146,2.487-0.238,3.527l10.024,11.477
					c0.852,0.976,2.049,1.476,3.253,1.476c1.007,0,2.018-0.35,2.835-1.063l5.47-4.777
					C210.908,248.593,211.092,245.862,209.527,244.071z"/>
			</g>
		</g>
		<g>
			<g>
				<path d="M214.344,244.198h-5.25c-1.381,0-2.5,1.119-2.5,2.5s1.119,2.5,2.5,2.5h5.25c1.381,0,2.5-1.119,2.5-2.5
					S215.725,244.198,214.344,244.198z"/>
			</g>
		</g>
		<g>
			<g>
				<path d="M68.118,239.644c-1.04-0.908-2.619-0.803-3.527,0.238l-9.465,10.836l-4.436-3.874l7.583-8.682
					c0.908-1.04,0.802-2.619-0.238-3.527c-1.04-0.908-2.619-0.802-3.527,0.238l-8.034,9.198c-1.564,1.791-1.38,4.521,0.412,6.087
					l5.47,4.778c0.816,0.712,1.827,1.062,2.834,1.062c1.204,0,2.401-0.499,3.252-1.475l9.916-11.353
					C69.264,242.131,69.158,240.552,68.118,239.644z"/>
			</g>
		</g>
		<g>
			<g>
				<path d="M42.393,244.071l-7.708-8.825c-0.908-1.041-2.488-1.147-3.527-0.238c-1.04,0.908-1.146,2.487-0.238,3.527l7.257,8.309
					l-4.436,3.875l-9.751-11.164c-0.908-1.041-2.488-1.147-3.527-0.238c-1.04,0.908-1.146,2.487-0.238,3.527l10.202,11.68
					c0.852,0.975,2.049,1.474,3.252,1.474c1.007,0,2.019-0.349,2.835-1.062l5.469-4.777c0.868-0.758,1.389-1.809,1.466-2.958
					S43.151,244.939,42.393,244.071z"/>
			</g>
		</g>
		<g>
			<g>
				<path d="M47.281,244.198h-5.5c-1.381,0-2.5,1.119-2.5,2.5s1.119,2.5,2.5,2.5h5.5c1.381,0,2.5-1.119,2.5-2.5
					S48.662,244.198,47.281,244.198z"/>
			</g>
		</g>
		<g>
			<g>
				<path d="M124.629,244.647l-7.702-8.278c-0.941-1.011-2.523-1.068-3.533-0.127c-1.011,0.94-1.068,2.522-0.128,3.533l7.379,7.931
					l-1.992,1.854c-1.274,1.187-2.987,1.679-4.694,1.338c-1.708-0.335-3.108-1.434-3.84-3.014l-3.276-7.074
					c-0.581-1.253-2.066-1.799-3.319-1.218c-1.253,0.58-1.798,2.066-1.218,3.319l3.276,7.074c1.413,3.051,4.115,5.171,7.414,5.819
					c0.683,0.134,1.366,0.199,2.042,0.199c2.588,0,5.07-0.968,7.021-2.784l2.34-2.176
					C126.225,249.344,126.329,246.475,124.629,244.647z"/>
			</g>
		</g>
		<g>
			<g>
				<path d="M152.343,239.879c-1.254-0.58-2.739-0.037-3.319,1.218l-3.144,6.787c-0.731,1.58-2.131,2.679-3.84,3.014
					c-1.708,0.341-3.419-0.151-4.694-1.338l-1.992-1.854l7.692-8.268c0.941-1.011,0.884-2.593-0.127-3.533
					c-1.011-0.94-2.593-0.885-3.533,0.127l-8.016,8.615c-1.699,1.827-1.596,4.696,0.231,6.396l2.338,2.176
					c1.952,1.816,4.433,2.784,7.022,2.784c0.676,0,1.359-0.065,2.042-0.199c3.299-0.648,6.001-2.769,7.414-5.819l3.144-6.787
					C154.141,241.945,153.596,240.459,152.343,239.879z"/>
			</g>
		</g>
		<g>
			<g>
				<path d="M132.063,244.785h-8.094c-1.381,0-2.5,1.119-2.5,2.5s1.119,2.5,2.5,2.5h8.094c1.381,0,2.5-1.119,2.5-2.5
					S133.444,244.785,132.063,244.785z"/>
			</g>
		</g>
	</g>
</g>
<g id="Layer_72">
</g>
<g id="Layer_73">
</g>
<g id="Layer_74">
</g>
<g id="Layer_75">
</g>
<g id="Layer_76">
</g>
<g id="Layer_77">
</g>
<g id="Layer_78">
</g>
<g id="Layer_79">
</g>
<g id="Layer_80">
</g>
</svg>
