<?xml version="1.0" encoding="utf-8"?>
<!-- Generator: Adobe Illustrator 24.0.0, SVG Export Plug-In . SVG Version: 6.00 Build 0)  -->
<svg version="1.1" xmlns="http://www.w3.org/2000/svg" xmlns:xlink="http://www.w3.org/1999/xlink" x="0px" y="0px"
	 viewBox="0 0 256 256" enable-background="new 0 0 256 256" xml:space="preserve">
<g id="Layer_1">
</g>
<g id="Layer_2">
</g>
<g id="Layer_3">
</g>
<g id="Layer_4">
</g>
<g id="Layer_5">
</g>
<g id="Layer_6">
</g>
<g id="Layer_7">
</g>
<g id="Layer_8">
</g>
<g id="Layer_9">
</g>
<g id="Layer_10">
</g>
<g id="Layer_11">
</g>
<g id="Layer_12">
</g>
<g id="Layer_13">
</g>
<g id="Layer_14">
</g>
<g id="Layer_15">
</g>
<g id="Layer_16">
</g>
<g id="Layer_17">
</g>
<g id="Layer_18">
</g>
<g id="Layer_19">
</g>
<g id="Layer_20">
</g>
<g id="Layer_21">
</g>
<g id="Layer_22">
</g>
<g id="Layer_23">
</g>
<g id="Layer_24">
</g>
<g id="Layer_25">
</g>
<g id="Layer_26">
</g>
<g id="Layer_27">
</g>
<g id="Layer_28">
</g>
<g id="Layer_29">
</g>
<g id="Layer_30">
</g>
<g id="Layer_31">
</g>
<g id="Layer_32">
</g>
<g id="Layer_33">
</g>
<g id="Layer_34">
</g>
<g id="Layer_35">
</g>
<g id="Layer_36">
</g>
<g id="Layer_37">
</g>
<g id="Layer_38">
</g>
<g id="Layer_39">
</g>
<g id="Layer_40">
	<g>
		<g>
			<g>
				<path fill="#70D6F9" d="M118.228,113.415H26.455c-2.071,0-3.749,1.678-3.749,3.749v15.056c0,2.07,1.679,3.749,3.749,3.749
					h114.244C131.379,130.547,123.617,122.756,118.228,113.415z"/>
			</g>
		</g>
		<g>
			<g>
				<path fill="#3CAADC" d="M140.699,135.97H26.893v94.612c0,2.43,1.97,4.4,4.401,4.4h126.454c2.43,0,4.4-1.97,4.4-4.4V143.58
					C154.429,142.386,147.192,139.748,140.699,135.97z"/>
			</g>
		</g>
		<g>
			<g>
				<rect x="81.913" y="135.97" fill="#EDB311" width="25.215" height="99.013"/>
			</g>
		</g>
		<g>
			<g>
				<rect x="78.554" y="113.415" fill="#F5C84C" width="31.932" height="22.555"/>
			</g>
		</g>
		<g>
			<g>
				<circle fill="#FCDD86" cx="171.647" cy="82.664" r="61.646"/>
			</g>
		</g>
		<g>
			<g>
				<circle fill="#F5C84C" cx="171.647" cy="82.664" r="41.646"/>
			</g>
		</g>
		<g>
			<g>
				<path fill="#70D6F9" d="M204.055,73.14l-10.431-11.36c-0.88-0.958-2.12-1.503-3.42-1.503h-35.615
					c-1.3,0-2.541,0.545-3.421,1.503l-10.431,11.36c-1.519,1.654-1.636,4.158-0.279,5.947l28.238,37.227
					c1.858,2.45,5.541,2.45,7.399,0l28.238-37.227C205.692,77.299,205.574,74.795,204.055,73.14z"/>
			</g>
		</g>
		<g>
			<g>
				<path fill="#70D6F9" d="M36.906,76.1h-2.4v-2.3c0-1.8-1.4-3.2-3.2-3.2c-1.7,0-3.2,1.4-3.2,3.1v2.4h-2.3c-1.8,0-3.2,1.4-3.2,3.2
					c-0.1,1.7,1.3,3.2,3.2,3.2h2.3v2.3c0,1.8,1.4,3.2,3.2,3.2c1.7,0,3.2-1.4,3.2-3.1v-2.4h2.3c1.8,0,3.2-1.4,3.2-3.2
					C40.006,77.6,38.606,76.1,36.906,76.1z"/>
			</g>
		</g>
		<g>
			<g>
				<path fill="#87D147" d="M252.6,113.5c-1.878,0-3.4,1.522-3.4,3.4c0,1.878,1.522,3.4,3.4,3.4s3.4-1.522,3.4-3.4
					C256,115.022,254.478,113.5,252.6,113.5z"/>
			</g>
		</g>
		<g>
			<g>
				<path fill="#FC657E" d="M108.15,30.175c-3.1-0.6-5.6-3-6.2-6.1c0-0.1-0.3-0.1-0.3,0c-0.6,3.1-3.1,5.5-6.2,6.1
					c-0.1,0-0.1,0.2,0,0.3c3.1,0.6,5.6,3,6.2,6.1c0,0.1,0.3,0.1,0.3,0c0.6-3.1,3.1-5.5,6.2-6.1
					C108.25,30.375,108.25,30.175,108.15,30.175z"/>
			</g>
		</g>
		<g>
			<g>
				<path fill="#F5C84C" d="M3.4,97C1.522,97,0,98.522,0,100.4c0,1.878,1.522,3.4,3.4,3.4s3.4-1.522,3.4-3.4
					C6.8,98.522,5.278,97,3.4,97z"/>
			</g>
		</g>
		<g>
			<g>
				<path fill="#F5C84C" d="M244.15,145.2c-4.5-0.8-8-4.3-8.9-8.7c0-0.2-0.4-0.2-0.4,0c-0.9,4.4-4.4,7.9-8.9,8.7
					c-0.2,0-0.2,0.3,0,0.4c4.5,0.8,8,4.3,8.9,8.7c0,0.2,0.4,0.2,0.4,0c0.9-4.4,4.4-7.9,8.9-8.7
					C244.35,145.5,244.35,145.2,244.15,145.2z"/>
			</g>
		</g>
		<g>
			<g>
				<path d="M140.576,133.47H26.455c-0.688,0-1.249-0.56-1.249-1.249v-15.057c0-0.688,0.561-1.249,1.249-1.249h91.604
					c1.381,0,2.5-1.119,2.5-2.5s-1.119-2.5-2.5-2.5H26.455c-3.445,0-6.249,2.803-6.249,6.249v15.057
					c0,3.445,2.804,6.249,6.249,6.249h114.121c1.381,0,2.5-1.119,2.5-2.5S141.957,133.47,140.576,133.47z"/>
			</g>
		</g>
		<g>
			<g>
				<path d="M162.147,141.417c-1.381,0-2.5,1.119-2.5,2.5v86.666c0,1.048-0.853,1.901-1.9,1.901H31.294
					c-1.049,0-1.901-0.853-1.901-1.901v-93.874c0-1.381-1.119-2.5-2.5-2.5s-2.5,1.119-2.5,2.5v93.874
					c0,3.805,3.096,6.901,6.901,6.901h126.453c3.805,0,6.9-3.096,6.9-6.901v-86.666
					C164.647,142.536,163.528,141.417,162.147,141.417z"/>
			</g>
		</g>
		<g>
			<g>
				<path d="M205,73.498h-65.207c-1.381,0-2.5,1.119-2.5,2.5s1.119,2.5,2.5,2.5H205c1.381,0,2.5-1.119,2.5-2.5
					S206.381,73.498,205,73.498z"/>
			</g>
		</g>
		<g>
			<g>
				<path d="M173.979,116.458l-12.738-40.53c-0.414-1.318-1.819-2.05-3.135-1.635c-1.316,0.414-2.049,1.817-1.635,3.134
					l12.738,40.53c0.335,1.068,1.321,1.751,2.384,1.751c0.249,0,0.501-0.037,0.751-0.116
					C173.66,119.178,174.393,117.774,173.979,116.458z"/>
			</g>
		</g>
		<g>
			<g>
				<path d="M186.688,74.292c-1.317-0.416-2.722,0.317-3.135,1.635l-12.737,40.53c-0.414,1.317,0.318,2.721,1.635,3.134
					c0.25,0.079,0.502,0.116,0.751,0.116c1.063,0,2.049-0.683,2.384-1.751l12.737-40.53
					C188.736,76.109,188.004,74.706,186.688,74.292z"/>
			</g>
		</g>
		<g>
			<g>
				<path d="M169.433,58.981c-1.169-0.735-2.712-0.383-3.446,0.786l-9.247,14.711c-0.735,1.169-0.383,2.712,0.786,3.447
					c0.413,0.26,0.873,0.384,1.328,0.384c0.831,0,1.644-0.415,2.118-1.17l9.247-14.711
					C170.954,61.259,170.602,59.716,169.433,58.981z"/>
			</g>
		</g>
		<g>
			<g>
				<path d="M188.054,74.478l-9.249-14.714c-0.734-1.169-2.277-1.52-3.446-0.786c-1.169,0.735-1.521,2.278-0.786,3.447l9.249,14.714
					c0.475,0.755,1.287,1.17,2.118,1.17c0.455,0,0.915-0.124,1.328-0.384C188.437,77.19,188.789,75.647,188.054,74.478z"/>
			</g>
		</g>
		<g>
			<g>
				<path d="M219.362,79.128h-5.402c-1.381,0-2.5,1.119-2.5,2.5s1.119,2.5,2.5,2.5h5.402c1.381,0,2.5-1.119,2.5-2.5
					S220.743,79.128,219.362,79.128z"/>
			</g>
		</g>
		<g>
			<g>
				<path d="M129.335,79.128h-5.402c-1.381,0-2.5,1.119-2.5,2.5s1.119,2.5,2.5,2.5h5.402c1.381,0,2.5-1.119,2.5-2.5
					S130.716,79.128,129.335,79.128z"/>
			</g>
		</g>
		<g>
			<g>
				<path d="M214.724,54.988c-0.691-1.197-2.222-1.604-3.415-0.915l-4.678,2.701c-1.196,0.69-1.605,2.22-0.915,3.415
					c0.463,0.802,1.304,1.25,2.167,1.25c0.425,0,0.854-0.108,1.248-0.335l4.678-2.701C215.005,57.712,215.414,56.183,214.724,54.988
					z"/>
			</g>
		</g>
		<g>
			<g>
				<path d="M137.579,103.067c-0.69-1.197-2.222-1.605-3.415-0.915l-4.679,2.701c-1.195,0.69-1.605,2.219-0.915,3.415
					c0.463,0.802,1.304,1.25,2.167,1.25c0.425,0,0.854-0.108,1.248-0.335l4.679-2.701
					C137.859,105.792,138.27,104.263,137.579,103.067z"/>
			</g>
		</g>
		<g>
			<g>
				<path d="M136.664,56.774l-4.679-2.701c-1.193-0.69-2.725-0.281-3.415,0.915c-0.69,1.196-0.28,2.725,0.915,3.415l4.679,2.701
					c0.394,0.228,0.823,0.335,1.248,0.335c0.863,0,1.704-0.449,2.167-1.25C138.27,58.993,137.859,57.464,136.664,56.774z"/>
			</g>
		</g>
		<g>
			<g>
				<path d="M213.809,104.854l-4.678-2.701c-1.193-0.69-2.725-0.282-3.415,0.915c-0.69,1.195-0.281,2.725,0.915,3.415l4.678,2.701
					c0.394,0.228,0.823,0.335,1.248,0.335c0.863,0,1.704-0.448,2.167-1.25C215.414,107.073,215.005,105.544,213.809,104.854z"/>
			</g>
		</g>
		<g>
			<g>
				<path d="M107.128,134.625c-1.381,0-2.5,1.119-2.5,2.5v97.063c0,1.381,1.119,2.5,2.5,2.5s2.5-1.119,2.5-2.5v-97.063
					C109.628,135.744,108.509,134.625,107.128,134.625z"/>
			</g>
		</g>
		<g>
			<g>
				<path d="M81.913,134.563c-1.381,0-2.5,1.119-2.5,2.5v96.896c0,1.381,1.119,2.5,2.5,2.5s2.5-1.119,2.5-2.5v-96.896
					C84.413,135.682,83.294,134.563,81.913,134.563z"/>
			</g>
		</g>
		<g>
			<g>
				<path d="M110.486,112.083c-1.381,0-2.5,1.119-2.5,2.5v20.105c0,1.381,1.119,2.5,2.5,2.5s2.5-1.119,2.5-2.5v-20.105
					C112.986,113.202,111.867,112.083,110.486,112.083z"/>
			</g>
		</g>
		<g>
			<g>
				<path d="M78.554,111.875c-1.381,0-2.5,1.119-2.5,2.5v20.313c0,1.381,1.119,2.5,2.5,2.5s2.5-1.119,2.5-2.5v-20.313
					C81.054,112.994,79.935,111.875,78.554,111.875z"/>
			</g>
		</g>
		<g>
			<g>
				<g>
					<g>
						<path d="M171.647,18.517c-35.37,0-64.146,28.776-64.146,64.146s28.776,64.146,64.146,64.146s64.146-28.776,64.146-64.146
							S207.018,18.517,171.647,18.517z M171.647,141.81c-32.613,0-59.146-26.533-59.146-59.146s26.533-59.146,59.146-59.146
							s59.146,26.533,59.146,59.146S204.261,141.81,171.647,141.81z"/>
					</g>
				</g>
			</g>
		</g>
		<g>
			<g>
				<g>
					<g>
						<path d="M205.897,71.45L195.466,60.09c-1.349-1.47-3.267-2.313-5.262-2.313H154.59c-1.994,0-3.912,0.842-5.263,2.312
							l-10.43,11.359c-2.34,2.546-2.521,6.395-0.431,9.149l28.238,37.227c1.363,1.796,3.438,2.827,5.691,2.827
							c2.255,0,4.329-1.03,5.692-2.827l28.237-37.226C208.416,77.845,208.236,73.997,205.897,71.45z M202.343,77.577l-28.238,37.227
							c-0.816,1.077-2.599,1.079-3.415,0L142.45,77.577c-0.627-0.827-0.572-1.981,0.13-2.745l10.43-11.359
							c0.405-0.441,0.981-0.694,1.58-0.694h35.614c0.599,0,1.174,0.253,1.578,0.694l10.432,11.36
							C202.916,75.596,202.971,76.75,202.343,77.577z"/>
					</g>
				</g>
			</g>
		</g>
	</g>
</g>
<g id="Layer_41">
</g>
<g id="Layer_42">
</g>
<g id="Layer_43">
</g>
<g id="Layer_44">
</g>
<g id="Layer_45">
</g>
<g id="Layer_46">
</g>
<g id="Layer_47">
</g>
<g id="Layer_48">
</g>
<g id="Layer_49">
</g>
<g id="Layer_50">
</g>
<g id="Layer_51">
</g>
<g id="Layer_52">
</g>
<g id="Layer_53">
</g>
<g id="Layer_54">
</g>
<g id="Layer_55">
</g>
<g id="Layer_56">
</g>
<g id="Layer_57">
</g>
<g id="Layer_58">
</g>
<g id="Layer_59">
</g>
<g id="Layer_60">
</g>
<g id="Layer_61">
</g>
<g id="Layer_62">
</g>
<g id="Layer_63">
</g>
<g id="Layer_64">
</g>
<g id="Layer_65">
</g>
<g id="Layer_66">
</g>
<g id="Layer_67">
</g>
<g id="Layer_68">
</g>
<g id="Layer_69">
</g>
<g id="Layer_70">
</g>
<g id="Layer_71">
</g>
<g id="Layer_72">
</g>
<g id="Layer_73">
</g>
<g id="Layer_74">
</g>
<g id="Layer_75">
</g>
<g id="Layer_76">
</g>
<g id="Layer_77">
</g>
<g id="Layer_78">
</g>
<g id="Layer_79">
</g>
<g id="Layer_80">
</g>
</svg>
