<?xml version="1.0" encoding="utf-8"?>
<!-- Generator: Adobe Illustrator 24.0.0, SVG Export Plug-In . SVG Version: 6.00 Build 0)  -->
<svg version="1.1" xmlns="http://www.w3.org/2000/svg" xmlns:xlink="http://www.w3.org/1999/xlink" x="0px" y="0px"
	 viewBox="0 0 256 256" enable-background="new 0 0 256 256" xml:space="preserve">
<g id="Layer_1">
</g>
<g id="Layer_2">
</g>
<g id="Layer_3">
</g>
<g id="Layer_4">
</g>
<g id="Layer_5">
</g>
<g id="Layer_6">
</g>
<g id="Layer_7">
</g>
<g id="Layer_8">
</g>
<g id="Layer_9">
</g>
<g id="Layer_10">
</g>
<g id="Layer_11">
</g>
<g id="Layer_12">
</g>
<g id="Layer_13">
</g>
<g id="Layer_14">
</g>
<g id="Layer_15">
</g>
<g id="Layer_16">
</g>
<g id="Layer_17">
</g>
<g id="Layer_18">
</g>
<g id="Layer_19">
</g>
<g id="Layer_20">
</g>
<g id="Layer_21">
</g>
<g id="Layer_22">
</g>
<g id="Layer_23">
</g>
<g id="Layer_24">
</g>
<g id="Layer_25">
</g>
<g id="Layer_26">
</g>
<g id="Layer_27">
</g>
<g id="Layer_28">
	<g>
		<g>
			<g>
				<path fill="#F9D0B4" d="M61.082,160.242l-26.365,9.901c-10.567,3.968-15.916,15.75-11.948,26.317l0,0
					c3.968,10.567,15.751,15.916,26.317,11.948l26.365-9.901L61.082,160.242z"/>
			</g>
		</g>
		<g>
			<g>
				<path fill="#F9D0B4" d="M133.615,193.058l-25.159-66.998c-1.58-4.207-6.271-6.337-10.478-4.757
					c-4.207,1.58-6.337,6.271-4.757,10.478l25.159,66.998c1.58,4.207,6.271,6.337,10.478,4.757S135.195,197.265,133.615,193.058z"/>
			</g>
		</g>
		<g>
			<g>
				<path fill="#F9D0B4" d="M89.169,225.001L69.36,200.795l-18.512,6.952l23.827,29.116c2.542,3.106,6.781,4.247,10.539,2.836
					C91.216,237.445,93.23,229.962,89.169,225.001z"/>
			</g>
		</g>
		<g>
			<g>
				<path fill="#F9D0B4" d="M94.145,134.239c-7.92,11.527-14.739,19.122-28.826,24.412l-4.237,1.591l14.369,38.265l4.237-1.591
					c14.087-5.29,24.219-4.061,37.769-0.595L94.145,134.239z"/>
			</g>
		</g>
		<g>
			<g>
				<path fill="#F9D0B4" d="M136.093,153.905L136.093,153.905c-3.17-8.441-12.438-12.789-20.919-9.956l11.724,31.221
					C135.147,171.719,139.262,162.346,136.093,153.905z"/>
			</g>
		</g>
		<g>
			<g>
				<path fill="#F9D0B4" d="M146.676,35.836c-2.019-0.368-4.1-0.56-6.225-0.56c-2.125,0-4.206,0.192-6.225,0.56
					c-8.012,1.46-14.182,7.607-15.977,15.363c5.801,0.896,10.248,5.884,10.275,11.929h22.92c0.028-6.354,4.938-11.546,11.173-12.038
					C160.791,43.386,154.649,37.289,146.676,35.836z"/>
			</g>
		</g>
		<g>
			<g>
				<circle fill="#F9D0B4" cx="139.983" cy="22.968" r="12.142"/>
			</g>
		</g>
		<g>
			<g>
				<path fill="#F9D0B4" d="M193.873,35.836c-2.019-0.368-4.1-0.56-6.225-0.56c-2.125,0-4.206,0.192-6.225,0.56
					c-8.012,1.46-14.182,7.607-15.977,15.363c5.801,0.896,10.248,5.884,10.275,11.929h22.92c0.028-6.354,4.938-11.546,11.173-12.038
					C207.988,43.386,201.847,37.289,193.873,35.836z"/>
			</g>
		</g>
		<g>
			<g>
				<circle fill="#F9D0B4" cx="187.181" cy="22.968" r="12.142"/>
			</g>
		</g>
		<g>
			<g>
				<path fill="#F9D0B4" d="M139.282,92.562c-1.425-8.293-7.802-14.979-16.206-16.51c-2.019-0.368-4.1-0.56-6.225-0.56
					s-4.206,0.192-6.225,0.56c-8.775,1.599-15.358,8.813-16.383,17.615c-0.06,0.519-0.076,1.043-0.076,1.566v5.745
					c0,1.307,1.06,2.367,2.367,2.367h40.536c1.307,0,2.367-1.06,2.367-2.367v-6.276C139.437,93.986,139.404,93.268,139.282,92.562z"
					/>
			</g>
		</g>
		<g>
			<g>
				
					<ellipse transform="matrix(0.9951 -0.0985 0.0985 0.9951 -5.6595 11.7756)" fill="#F9D0B4" cx="116.384" cy="63.184" rx="12.142" ry="12.142"/>
			</g>
		</g>
		<g>
			<g>
				<path fill="#F9D0B4" d="M186.48,92.562c-1.425-8.293-7.802-14.979-16.206-16.51c-2.019-0.368-4.1-0.56-6.225-0.56
					s-4.206,0.192-6.225,0.56c-8.775,1.599-15.358,8.813-16.383,17.615c-0.06,0.519-0.076,1.043-0.076,1.566v5.745
					c0,1.307,1.06,2.367,2.367,2.367h40.536c1.307,0,2.367-1.06,2.367-2.367v-6.276C186.635,93.986,186.602,93.268,186.48,92.562z"
					/>
			</g>
		</g>
		<g>
			<g>
				<circle fill="#F9D0B4" cx="163.582" cy="63.184" r="12.142"/>
			</g>
		</g>
		<g>
			<g>
				<path fill="#F9D0B4" d="M233.678,92.562c-1.425-8.293-7.802-14.979-16.206-16.51c-2.019-0.368-4.1-0.56-6.225-0.56
					c-2.126,0-4.206,0.192-6.225,0.56c-8.775,1.599-15.358,8.813-16.383,17.615c-0.06,0.519-0.076,1.043-0.076,1.566v5.745
					c0,1.307,1.06,2.367,2.367,2.367h40.536c1.307,0,2.367-1.06,2.367-2.367v-6.276C233.832,93.986,233.799,93.268,233.678,92.562z"
					/>
			</g>
		</g>
		<g>
			<g>
				
					<ellipse transform="matrix(0.1602 -0.9871 0.9871 0.1602 114.649 261.1212)" fill="#F9D0B4" cx="210.78" cy="63.184" rx="12.142" ry="12.142"/>
			</g>
		</g>
		<g>
			<g>
				<path fill="#FC657E" d="M61.082,160.242l-26.365,9.901c-10.567,3.968-15.916,15.75-11.948,26.317l0,0
					c3.968,10.567,15.751,15.916,26.317,11.948l26.365-9.901L61.082,160.242z"/>
			</g>
		</g>
		<g>
			<g>
				<path fill="#FC657E" d="M133.615,193.058l-25.159-66.998c-1.58-4.207-6.271-6.337-10.478-4.757
					c-4.207,1.58-6.337,6.271-4.757,10.478l25.159,66.998c1.58,4.207,6.271,6.337,10.478,4.757S135.195,197.265,133.615,193.058z"/>
			</g>
		</g>
		<g>
			<g>
				<path fill="#DAE6F1" d="M89.169,225.001L69.36,200.795l-18.512,6.952l23.827,29.116c2.542,3.106,6.781,4.247,10.539,2.836
					C91.216,237.445,93.23,229.962,89.169,225.001z"/>
			</g>
		</g>
		<g>
			<g>
				<path fill="#DAE6F1" d="M94.145,134.239c-7.92,11.527-14.739,19.122-28.826,24.412l-4.237,1.591l14.369,38.265l4.237-1.591
					c14.087-5.29,24.219-4.061,37.769-0.595L94.145,134.239z"/>
			</g>
		</g>
		<g>
			<g>
				<path fill="#DAE6F1" d="M136.093,153.905L136.093,153.905c-3.17-8.441-12.438-12.789-20.919-9.956l11.724,31.221
					C135.147,171.719,139.262,162.346,136.093,153.905z"/>
			</g>
		</g>
		<g>
			<g>
				<path fill="#5290DB" d="M146.676,35.836c-2.019-0.368-4.1-0.56-6.225-0.56c-2.125,0-4.206,0.192-6.225,0.56
					c-8.012,1.46-14.182,7.607-15.977,15.363c5.801,0.896,10.248,5.884,10.275,11.929h22.92c0.028-6.354,4.938-11.546,11.173-12.038
					C160.791,43.386,154.649,37.289,146.676,35.836z"/>
			</g>
		</g>
		<g>
			<g>
				<circle fill="#F9D0B4" cx="139.983" cy="22.968" r="12.142"/>
			</g>
		</g>
		<g>
			<g>
				<path fill="#F5C84C" d="M193.873,35.836c-2.019-0.368-4.1-0.56-6.225-0.56c-2.125,0-4.206,0.192-6.225,0.56
					c-8.012,1.46-14.182,7.607-15.977,15.363c5.801,0.896,10.248,5.884,10.275,11.929h22.92c0.028-6.354,4.938-11.546,11.173-12.038
					C207.988,43.386,201.847,37.289,193.873,35.836z"/>
			</g>
		</g>
		<g>
			<g>
				<circle fill="#F9D0B4" cx="187.181" cy="22.968" r="12.142"/>
			</g>
		</g>
		<g>
			<g>
				<path fill="#70D6F9" d="M139.282,92.562c-1.425-8.293-7.802-14.979-16.206-16.51c-2.019-0.368-4.1-0.56-6.225-0.56
					s-4.206,0.192-6.225,0.56c-8.775,1.599-15.358,8.813-16.383,17.615c-0.06,0.519-0.076,1.043-0.076,1.566v5.745
					c0,1.307,1.06,2.367,2.367,2.367h40.536c1.307,0,2.367-1.06,2.367-2.367v-6.276C139.437,93.986,139.404,93.268,139.282,92.562z"
					/>
			</g>
		</g>
		<g>
			<g>
				
					<ellipse transform="matrix(0.9951 -0.0985 0.0985 0.9951 -5.6595 11.7756)" fill="#F9D0B4" cx="116.384" cy="63.184" rx="12.142" ry="12.142"/>
			</g>
		</g>
		<g>
			<g>
				<path fill="#87D147" d="M186.48,92.562c-1.425-8.293-7.802-14.979-16.206-16.51c-2.019-0.368-4.1-0.56-6.225-0.56
					s-4.206,0.192-6.225,0.56c-8.775,1.599-15.358,8.813-16.383,17.615c-0.06,0.519-0.076,1.043-0.076,1.566v5.745
					c0,1.307,1.06,2.367,2.367,2.367h40.536c1.307,0,2.367-1.06,2.367-2.367v-6.276C186.635,93.986,186.602,93.268,186.48,92.562z"
					/>
			</g>
		</g>
		<g>
			<g>
				<circle fill="#F9D0B4" cx="163.582" cy="63.184" r="12.142"/>
			</g>
		</g>
		<g>
			<g>
				<path fill="#B598F9" d="M233.678,92.562c-1.425-8.293-7.802-14.979-16.206-16.51c-2.019-0.368-4.1-0.56-6.225-0.56
					c-2.126,0-4.206,0.192-6.225,0.56c-8.775,1.599-15.358,8.813-16.383,17.615c-0.06,0.519-0.076,1.043-0.076,1.566v5.745
					c0,1.307,1.06,2.367,2.367,2.367h40.536c1.307,0,2.367-1.06,2.367-2.367v-6.276C233.832,93.986,233.799,93.268,233.678,92.562z"
					/>
			</g>
		</g>
		<g>
			<g>
				
					<ellipse transform="matrix(0.1602 -0.9871 0.9871 0.1602 114.649 261.1212)" fill="#F9D0B4" cx="210.78" cy="63.184" rx="12.142" ry="12.142"/>
			</g>
		</g>
		<g>
			<g>
				<path fill="#87D147" d="M155.906,226.1h-2.4v-2.3c0-1.8-1.4-3.2-3.2-3.2c-1.7,0-3.2,1.4-3.2,3.1v2.4h-2.3
					c-1.8,0-3.2,1.4-3.2,3.2c-0.1,1.7,1.3,3.2,3.2,3.2h2.3v2.3c0,1.8,1.4,3.2,3.2,3.2c1.7,0,3.2-1.4,3.2-3.1v-2.4h2.3
					c1.8,0,3.2-1.4,3.2-3.2C159.006,227.6,157.606,226.1,155.906,226.1z"/>
			</g>
		</g>
		<g>
			<g>
				<path fill="#70D6F9" d="M102.206,0c-1.878,0-3.4,1.522-3.4,3.4c0,1.878,1.522,3.4,3.4,3.4c1.878,0,3.4-1.522,3.4-3.4
					C105.606,1.522,104.083,0,102.206,0z"/>
			</g>
		</g>
		<g>
			<g>
				<path fill="#FC657E" d="M42.15,123.175c-3.1-0.6-5.6-3-6.2-6.1c0-0.1-0.3-0.1-0.3,0c-0.6,3.1-3.1,5.5-6.2,6.1
					c-0.1,0-0.1,0.2,0,0.3c3.1,0.6,5.6,3,6.2,6.1c0,0.1,0.3,0.1,0.3,0c0.6-3.1,3.1-5.5,6.2-6.1
					C42.25,123.375,42.25,123.175,42.15,123.175z"/>
			</g>
		</g>
		<g>
			<g>
				<path fill="#F5C84C" d="M117.369,249.2c-1.878,0-3.4,1.522-3.4,3.4s1.522,3.4,3.4,3.4c1.878,0,3.4-1.522,3.4-3.4
					S119.246,249.2,117.369,249.2z"/>
			</g>
		</g>
		<g>
			<g>
				<path fill="#F5C84C" d="M87.15,28.2c-4.5-0.8-8-4.3-8.9-8.7c0-0.2-0.4-0.2-0.4,0c-0.9,4.4-4.4,7.9-8.9,8.7c-0.2,0-0.2,0.3,0,0.4
					c4.5,0.8,8,4.3,8.9,8.7c0,0.2,0.4,0.2,0.4,0c0.9-4.4,4.4-7.9,8.9-8.7C87.35,28.5,87.35,28.2,87.15,28.2z"/>
			</g>
		</g>
		<g>
			<g>
				<g>
					<g>
						<path d="M77.792,197.628l-14.37-38.266c-0.485-1.292-1.925-1.948-3.219-1.461l-26.365,9.9
							c-11.84,4.446-17.855,17.697-13.41,29.537c3.453,9.194,12.211,14.875,21.498,14.875c2.673,0,5.392-0.472,8.039-1.465
							l26.366-9.9c0.621-0.233,1.124-0.703,1.397-1.307C78.002,198.937,78.025,198.249,77.792,197.628z M48.207,206.067
							c-9.259,3.479-19.621-1.228-23.098-10.487c-3.477-9.259,1.228-19.621,10.487-23.098l24.025-9.021l12.612,33.585
							L48.207,206.067z"/>
					</g>
				</g>
			</g>
		</g>
		<g>
			<g>
				<g>
					<g>
						<g>
							<path d="M135.956,192.179l-25.16-66.998c-0.999-2.66-2.974-4.771-5.561-5.946c-2.588-1.175-5.477-1.272-8.136-0.272
								c-5.49,2.062-8.28,8.206-6.218,13.697l25.159,66.998c1.601,4.263,5.663,6.898,9.969,6.898c1.24,0,2.5-0.219,3.728-0.68
								C135.228,203.814,138.017,197.67,135.956,192.179z M127.979,201.195c-1.409,0.529-2.941,0.477-4.312-0.145
								c-1.371-0.623-2.417-1.742-2.947-3.151l-25.159-66.998c-1.092-2.91,0.386-6.166,3.295-7.259
								c0.645-0.242,1.315-0.363,1.984-0.363c0.793,0,1.584,0.17,2.328,0.507c1.371,0.623,2.417,1.742,2.947,3.151l25.159,66.998
								C132.367,196.847,130.889,200.103,127.979,201.195z"/>
						</g>
					</g>
				</g>
			</g>
		</g>
		<g>
			<g>
				<g>
					<g>
						<path d="M91.104,223.417l-19.81-24.207c-0.679-0.83-1.811-1.133-2.813-0.757l-18.512,6.952
							c-0.754,0.283-1.326,0.913-1.535,1.691c-0.209,0.778-0.031,1.609,0.479,2.233l23.828,29.116
							c2.301,2.812,5.694,4.352,9.181,4.352c1.396,0,2.809-0.247,4.171-0.759c3.624-1.36,6.28-4.285,7.286-8.023
							C94.385,230.277,93.556,226.414,91.104,223.417z M88.551,232.716c-0.582,2.163-2.118,3.854-4.215,4.642
							c-2.755,1.034-5.86,0.2-7.726-2.079l-21.62-26.418l13.57-5.096l18.674,22.819C88.653,228.318,89.133,230.553,88.551,232.716z"
							/>
					</g>
				</g>
			</g>
		</g>
		<g>
			<g>
				<g>
					<g>
						<path d="M119.797,195.442L96.485,133.36c-0.328-0.872-1.113-1.49-2.038-1.603c-0.927-0.116-1.835,0.298-2.363,1.066
							c-8.048,11.715-14.534,18.564-27.644,23.487l-4.237,1.591c-1.292,0.485-1.947,1.927-1.461,3.219l14.37,38.266
							c0.233,0.621,0.703,1.124,1.307,1.397c0.328,0.149,0.68,0.224,1.033,0.224c0.297,0,0.595-0.053,0.879-0.16l4.237-1.591
							c13.11-4.923,22.5-4.035,36.27-0.514c0.904,0.232,1.859-0.06,2.481-0.753C119.94,197.296,120.125,196.314,119.797,195.442z
							 M78.81,194.576l-1.896,0.712l-12.612-33.585l1.896-0.712c12.712-4.773,19.88-11.386,27.264-21.46l19.998,53.256
							C101.27,190.062,91.521,189.802,78.81,194.576z"/>
					</g>
				</g>
			</g>
		</g>
		<g>
			<g>
				<path d="M41.151,165.995l-2.289-6.094c-0.485-1.292-1.926-1.946-3.219-1.461c-1.292,0.485-1.947,1.927-1.461,3.219l2.289,6.094
					c0.376,1.003,1.329,1.622,2.341,1.622c0.292,0,0.589-0.051,0.878-0.16C40.982,168.729,41.636,167.288,41.151,165.995z"/>
			</g>
		</g>
		<g>
			<g>
				<g>
					<g>
						<g>
							<path d="M138.434,153.025c-3.646-9.706-14.21-14.735-24.052-11.448c-0.644,0.215-1.173,0.683-1.465,1.296
								c-0.292,0.613-0.322,1.318-0.083,1.954l11.724,31.221c0.239,0.636,0.726,1.147,1.349,1.416
								c0.316,0.137,0.654,0.205,0.991,0.205c0.328,0,0.656-0.064,0.965-0.194C137.435,173.472,142.078,162.732,138.434,153.025z
								 M128.243,171.642l-9.735-25.924c6.482-0.925,12.862,2.721,15.244,9.065C136.135,161.128,133.726,168.072,128.243,171.642z"
								/>
						</g>
					</g>
				</g>
			</g>
		</g>
		<g>
			<g>
				<path d="M166.467,168.784l-5.268-1.626c-1.315-0.407-2.72,0.332-3.126,1.651c-0.407,1.319,0.332,2.719,1.651,3.126l5.268,1.626
					c0.245,0.076,0.494,0.112,0.738,0.112c1.067,0,2.057-0.689,2.388-1.763C168.525,170.591,167.786,169.191,166.467,168.784z"/>
			</g>
		</g>
		<g>
			<g>
				<path d="M168.964,149.513c-0.307-1.346-1.642-2.189-2.993-1.882l-5.376,1.225c-1.346,0.307-2.188,1.647-1.882,2.993
					c0.265,1.159,1.295,1.945,2.436,1.945c0.184,0,0.37-0.021,0.558-0.063l5.376-1.225
					C168.428,152.2,169.271,150.859,168.964,149.513z"/>
			</g>
		</g>
		<g>
			<g>
				<path d="M156.32,187.351l-3.749-4.042c-0.938-1.011-2.52-1.073-3.533-0.133c-1.012,0.939-1.071,2.521-0.133,3.533l3.749,4.042
					c0.492,0.531,1.162,0.8,1.834,0.8c0.607,0,1.218-0.221,1.699-0.667C157.199,189.945,157.259,188.364,156.32,187.351z"/>
			</g>
		</g>
		<g>
			<g>
				<g>
					<g>
						<path d="M165.049,50.515c-2.086-8.807-9.122-15.534-17.925-17.138c-4.379-0.797-8.969-0.797-13.348,0
							c-8.86,1.615-15.912,8.389-17.964,17.259c-0.157,0.677-0.024,1.389,0.365,1.965s1.001,0.963,1.688,1.069
							c4.705,0.727,8.136,4.709,8.157,9.47c0.006,1.376,1.124,2.489,2.5,2.489h22.92c1.376,0,2.494-1.112,2.5-2.489
							c0.022-4.968,3.918-9.166,8.87-9.557c0.728-0.058,1.394-0.43,1.823-1.02S165.217,51.225,165.049,50.515z M149.171,60.629
							h-18.367c-0.9-5.17-4.492-9.429-9.412-11.198c2.183-5.76,7.183-10.023,13.281-11.135c3.787-0.689,7.768-0.689,11.555,0
							c5.992,1.092,10.935,5.245,13.168,10.871C154.153,50.746,150.146,55.214,149.171,60.629z"/>
					</g>
				</g>
			</g>
		</g>
		<g>
			<g>
				<g>
					<g>
						<path d="M139.983,8.326c-8.073,0-14.642,6.568-14.642,14.642c0,8.074,6.569,14.642,14.642,14.642s14.642-6.568,14.642-14.642
							C154.625,14.895,148.057,8.326,139.983,8.326z M139.983,32.61c-5.316,0-9.643-4.325-9.643-9.642
							c0-5.316,4.326-9.642,9.643-9.642s9.642,4.325,9.642,9.642C149.625,28.285,145.3,32.61,139.983,32.61z"/>
					</g>
				</g>
			</g>
		</g>
		<g>
			<g>
				<g>
					<g>
						<path d="M212.246,50.515c-2.086-8.807-9.122-15.534-17.925-17.138c-4.38-0.797-8.973-0.797-13.347,0
							c-8.86,1.614-15.912,8.389-17.965,17.259c-0.157,0.677-0.024,1.389,0.365,1.965s1.002,0.963,1.688,1.069
							c4.706,0.727,8.137,4.709,8.157,9.469c0.006,1.376,1.124,2.489,2.5,2.489h22.92c1.376,0,2.494-1.112,2.5-2.489
							c0.022-4.968,3.918-9.166,8.87-9.557c0.728-0.058,1.394-0.43,1.823-1.02S212.414,51.225,212.246,50.515z M196.368,60.629
							h-18.367c-0.899-5.17-4.49-9.43-9.412-11.199c2.184-5.76,7.184-10.023,13.282-11.134c3.785-0.689,7.767-0.689,11.554,0
							c5.992,1.091,10.935,5.245,13.168,10.871C201.351,50.746,197.343,55.214,196.368,60.629z"/>
					</g>
				</g>
			</g>
		</g>
		<g>
			<g>
				<g>
					<g>
						<path d="M187.181,8.326c-8.073,0-14.642,6.568-14.642,14.642c0,8.074,6.568,14.642,14.642,14.642s14.642-6.568,14.642-14.642
							C201.822,14.895,195.254,8.326,187.181,8.326z M187.181,32.61c-5.316,0-9.642-4.325-9.642-9.642
							c0-5.316,4.325-9.642,9.642-9.642s9.642,4.325,9.642,9.642C196.822,28.285,192.497,32.61,187.181,32.61z"/>
					</g>
				</g>
			</g>
		</g>
		<g>
			<g>
				<g>
					<g>
						<path d="M141.746,92.14C141.746,92.139,141.746,92.139,141.746,92.14c-1.615-9.402-8.938-16.855-18.222-18.547
							c-4.376-0.797-8.97-0.797-13.347,0c-9.847,1.794-17.249,9.745-18.417,19.784c-0.083,0.714-0.093,1.401-0.093,1.856v5.745
							c0,2.684,2.183,4.867,4.867,4.867h40.536c2.684,0,4.866-2.183,4.866-4.867v-6.276C141.937,93.71,141.876,92.896,141.746,92.14
							z M136.937,100.845H96.667v-5.612c0-0.531,0.018-0.925,0.06-1.277c0.913-7.84,6.678-14.047,14.347-15.444
							c3.788-0.689,7.77-0.689,11.555,0c7.226,1.317,12.929,7.133,14.19,14.474c0.081,0.471,0.118,1.016,0.118,1.717V100.845z"/>
					</g>
				</g>
			</g>
		</g>
		<g>
			<g>
				<g>
					<g>
						<path d="M116.384,48.542c-8.073,0-14.642,6.568-14.642,14.642c0,8.074,6.568,14.642,14.642,14.642s14.641-6.568,14.641-14.642
							C131.025,55.11,124.458,48.542,116.384,48.542z M116.384,72.826c-5.316,0-9.642-4.325-9.642-9.642
							c0-5.316,4.325-9.642,9.642-9.642s9.642,4.325,9.642,9.642C126.026,68.5,121.701,72.826,116.384,72.826z"/>
					</g>
				</g>
			</g>
		</g>
		<g>
			<g>
				<g>
					<g>
						<path d="M188.944,92.14C188.944,92.139,188.944,92.139,188.944,92.14c-1.616-9.402-8.939-16.855-18.222-18.547
							c-4.38-0.797-8.973-0.797-13.347,0c-9.848,1.794-17.249,9.745-18.418,19.784c-0.083,0.714-0.093,1.401-0.093,1.856v5.745
							c0,2.684,2.184,4.867,4.867,4.867h40.535c2.684,0,4.867-2.183,4.867-4.867v-6.276C189.135,93.71,189.074,92.896,188.944,92.14
							z M184.135,100.845h-40.27v-5.612c0-0.531,0.019-0.925,0.06-1.277c0.912-7.841,6.679-14.047,14.348-15.444
							c3.785-0.689,7.767-0.689,11.554,0c7.226,1.317,12.929,7.133,14.19,14.474c0.081,0.471,0.118,1.016,0.118,1.717V100.845z"/>
					</g>
				</g>
			</g>
		</g>
		<g>
			<g>
				<g>
					<g>
						<path d="M163.582,48.542c-8.073,0-14.642,6.568-14.642,14.642c0,8.074,6.568,14.642,14.642,14.642s14.642-6.568,14.642-14.642
							C178.224,55.11,171.655,48.542,163.582,48.542z M163.582,72.826c-5.316,0-9.642-4.325-9.642-9.642
							c0-5.316,4.325-9.642,9.642-9.642s9.642,4.325,9.642,9.642C173.224,68.5,168.898,72.826,163.582,72.826z"/>
					</g>
				</g>
			</g>
		</g>
		<g>
			<g>
				<g>
					<g>
						<path d="M236.142,92.14C236.142,92.139,236.142,92.139,236.142,92.14c-1.615-9.402-8.938-16.855-18.221-18.547
							c-4.379-0.797-8.969-0.797-13.348,0c-9.847,1.794-17.248,9.745-18.418,19.784c-0.081,0.699-0.092,1.359-0.092,1.856v5.745
							c0,2.684,2.183,4.867,4.866,4.867h40.536c2.684,0,4.866-2.183,4.866-4.867v-6.276C236.332,93.71,236.271,92.896,236.142,92.14
							z M231.332,100.845h-40.269v-5.612c0-0.537,0.018-0.931,0.059-1.277c0.913-7.841,6.679-14.047,14.348-15.444
							c3.787-0.689,7.768-0.689,11.555,0c7.227,1.317,12.929,7.133,14.189,14.474c0.081,0.471,0.118,1.016,0.118,1.717V100.845z"/>
					</g>
				</g>
			</g>
		</g>
		<g>
			<g>
				<g>
					<g>
						<path d="M210.78,48.542c-8.073,0-14.642,6.568-14.642,14.642c0,8.074,6.568,14.642,14.642,14.642s14.642-6.568,14.642-14.642
							C225.422,55.11,218.854,48.542,210.78,48.542z M210.78,72.826c-5.316,0-9.642-4.325-9.642-9.642
							c0-5.316,4.325-9.642,9.642-9.642s9.642,4.325,9.642,9.642C220.422,68.5,216.097,72.826,210.78,72.826z"/>
					</g>
				</g>
			</g>
		</g>
		<g>
			<g>
				<path fill="#87D147" d="M155.906,226.1h-2.4v-2.3c0-1.8-1.4-3.2-3.2-3.2c-1.7,0-3.2,1.4-3.2,3.1v2.4h-2.3
					c-1.8,0-3.2,1.4-3.2,3.2c-0.1,1.7,1.3,3.2,3.2,3.2h2.3v2.3c0,1.8,1.4,3.2,3.2,3.2c1.7,0,3.2-1.4,3.2-3.1v-2.4h2.3
					c1.8,0,3.2-1.4,3.2-3.2C159.006,227.6,157.606,226.1,155.906,226.1z"/>
			</g>
		</g>
		<g>
			<g>
				<path fill="#70D6F9" d="M102.206,0c-1.878,0-3.4,1.522-3.4,3.4c0,1.878,1.522,3.4,3.4,3.4c1.878,0,3.4-1.522,3.4-3.4
					C105.606,1.522,104.083,0,102.206,0z"/>
			</g>
		</g>
		<g>
			<g>
				<path fill="#FC657E" d="M42.15,123.175c-3.1-0.6-5.6-3-6.2-6.1c0-0.1-0.3-0.1-0.3,0c-0.6,3.1-3.1,5.5-6.2,6.1
					c-0.1,0-0.1,0.2,0,0.3c3.1,0.6,5.6,3,6.2,6.1c0,0.1,0.3,0.1,0.3,0c0.6-3.1,3.1-5.5,6.2-6.1
					C42.25,123.375,42.25,123.175,42.15,123.175z"/>
			</g>
		</g>
		<g>
			<g>
				<path fill="#F5C84C" d="M117.369,249.2c-1.878,0-3.4,1.522-3.4,3.4s1.522,3.4,3.4,3.4c1.878,0,3.4-1.522,3.4-3.4
					S119.246,249.2,117.369,249.2z"/>
			</g>
		</g>
		<g>
			<g>
				<path fill="#F5C84C" d="M87.15,28.2c-4.5-0.8-8-4.3-8.9-8.7c0-0.2-0.4-0.2-0.4,0c-0.9,4.4-4.4,7.9-8.9,8.7c-0.2,0-0.2,0.3,0,0.4
					c4.5,0.8,8,4.3,8.9,8.7c0,0.2,0.4,0.2,0.4,0c0.9-4.4,4.4-7.9,8.9-8.7C87.35,28.5,87.35,28.2,87.15,28.2z"/>
			</g>
		</g>
		<g>
			<g>
				<g>
					<g>
						<path d="M77.792,197.628l-14.37-38.266c-0.485-1.292-1.925-1.948-3.219-1.461l-26.365,9.9
							c-11.84,4.446-17.855,17.697-13.41,29.537c3.453,9.194,12.211,14.875,21.498,14.875c2.673,0,5.392-0.472,8.039-1.465
							l26.366-9.9c0.621-0.233,1.124-0.703,1.397-1.307C78.002,198.937,78.025,198.249,77.792,197.628z M48.207,206.067
							c-9.259,3.479-19.621-1.228-23.098-10.487c-3.477-9.259,1.228-19.621,10.487-23.098l24.025-9.021l12.612,33.585
							L48.207,206.067z"/>
					</g>
				</g>
			</g>
		</g>
		<g>
			<g>
				<g>
					<g>
						<g>
							<path d="M135.956,192.179l-25.16-66.998c-0.999-2.66-2.974-4.771-5.561-5.946c-2.588-1.175-5.477-1.272-8.136-0.272
								c-5.49,2.062-8.28,8.206-6.218,13.697l25.159,66.998c1.601,4.263,5.663,6.898,9.969,6.898c1.24,0,2.5-0.219,3.728-0.68
								C135.228,203.814,138.017,197.67,135.956,192.179z M127.979,201.195c-1.409,0.529-2.941,0.477-4.312-0.145
								c-1.371-0.623-2.417-1.742-2.947-3.151l-25.159-66.998c-1.092-2.91,0.386-6.166,3.295-7.259
								c0.645-0.242,1.315-0.363,1.984-0.363c0.793,0,1.584,0.17,2.328,0.507c1.371,0.623,2.417,1.742,2.947,3.151l25.159,66.998
								C132.367,196.847,130.889,200.103,127.979,201.195z"/>
						</g>
					</g>
				</g>
			</g>
		</g>
		<g>
			<g>
				<path d="M91.104,223.417l-19.264-23.54c-0.874-1.068-2.448-1.226-3.518-0.351c-1.068,0.875-1.226,2.449-0.351,3.518
					l19.264,23.54c1.418,1.733,1.898,3.968,1.316,6.131c-0.582,2.163-2.118,3.854-4.215,4.642c-2.755,1.034-5.86,0.2-7.726-2.079
					l-23.313-28.488c-0.874-1.068-2.449-1.226-3.518-0.351c-1.068,0.875-1.226,2.449-0.351,3.518l23.313,28.487
					c2.301,2.812,5.694,4.352,9.181,4.352c1.396,0,2.809-0.247,4.171-0.759c3.624-1.36,6.28-4.285,7.286-8.023
					C94.385,230.277,93.556,226.414,91.104,223.417z"/>
			</g>
		</g>
		<g>
			<g>
				<path d="M117.745,193.814c-14.275-3.626-24.708-4.58-38.935,0.762l-4.237,1.591c-1.292,0.485-1.947,1.927-1.461,3.219
					c0.376,1.003,1.329,1.622,2.341,1.622c0.292,0,0.589-0.051,0.878-0.16l4.237-1.591c13.064-4.905,22.355-4.05,35.946-0.597
					c1.337,0.341,2.699-0.469,3.039-1.807C119.892,195.514,119.083,194.154,117.745,193.814z"/>
			</g>
		</g>
		<g>
			<g>
				<path d="M95.235,132.663c-1.138-0.786-2.694-0.5-3.478,0.635c-7.894,11.423-14.287,18.119-27.317,23.012l-4.237,1.591
					c-1.292,0.485-1.947,1.927-1.461,3.219c0.376,1.003,1.329,1.622,2.341,1.622c0.292,0,0.589-0.051,0.878-0.16l4.237-1.591
					c14.19-5.328,21.376-12.844,29.672-24.85C96.655,135.005,96.371,133.448,95.235,132.663z"/>
			</g>
		</g>
		<g>
			<g>
				<path d="M41.151,165.995l-2.289-6.094c-0.485-1.292-1.926-1.946-3.219-1.461c-1.292,0.485-1.947,1.927-1.461,3.219l2.289,6.094
					c0.376,1.003,1.329,1.622,2.341,1.622c0.292,0,0.589-0.051,0.878-0.16C40.982,168.729,41.636,167.288,41.151,165.995z"/>
			</g>
		</g>
		<g>
			<g>
				<path d="M138.434,153.025c-3.442-9.164-13.191-14.257-22.68-11.851c-1.338,0.34-2.148,1.7-1.809,3.038
					c0.34,1.339,1.704,2.147,3.038,1.809c7.015-1.783,14.225,1.986,16.769,8.763c2.59,6.897-0.614,14.737-7.296,17.849
					c-1.252,0.583-1.794,2.07-1.211,3.321c0.424,0.91,1.326,1.445,2.268,1.445c0.354,0,0.712-0.075,1.054-0.234
					C137.602,172.958,141.936,162.354,138.434,153.025z"/>
			</g>
		</g>
		<g>
			<g>
				<path d="M166.467,168.784l-5.268-1.626c-1.315-0.407-2.72,0.332-3.126,1.651c-0.407,1.319,0.332,2.719,1.651,3.126l5.268,1.626
					c0.245,0.076,0.494,0.112,0.738,0.112c1.067,0,2.057-0.689,2.388-1.763C168.525,170.591,167.786,169.191,166.467,168.784z"/>
			</g>
		</g>
		<g>
			<g>
				<path d="M168.964,149.513c-0.307-1.346-1.642-2.189-2.993-1.882l-5.376,1.225c-1.346,0.307-2.188,1.647-1.882,2.993
					c0.265,1.159,1.295,1.945,2.436,1.945c0.184,0,0.37-0.021,0.558-0.063l5.376-1.225
					C168.428,152.2,169.271,150.859,168.964,149.513z"/>
			</g>
		</g>
		<g>
			<g>
				<path d="M156.32,187.351l-3.749-4.042c-0.938-1.011-2.52-1.073-3.533-0.133c-1.012,0.939-1.071,2.521-0.133,3.533l3.749,4.042
					c0.492,0.531,1.162,0.8,1.834,0.8c0.607,0,1.218-0.221,1.699-0.667C157.199,189.945,157.259,188.364,156.32,187.351z"/>
			</g>
		</g>
		<g>
			<g>
				<path d="M150.458,60.629H129.47c-1.381,0-2.5,1.119-2.5,2.5s1.119,2.5,2.5,2.5h20.988c1.381,0,2.5-1.119,2.5-2.5
					S151.839,60.629,150.458,60.629z"/>
			</g>
		</g>
		<g>
			<g>
				<path d="M164.966,50.177c-2.182-8.628-9.185-15.223-17.842-16.8c-4.379-0.797-8.969-0.797-13.348,0
					c-8.55,1.558-15.532,8.051-17.786,16.542c-0.354,1.334,0.44,2.704,1.775,3.058c1.337,0.353,2.704-0.441,3.058-1.775
					c1.759-6.627,7.195-11.693,13.85-12.906c3.787-0.689,7.768-0.689,11.555,0c6.735,1.228,12.188,6.372,13.891,13.107
					c0.286,1.133,1.305,1.888,2.422,1.888c0.203,0,0.409-0.025,0.615-0.077C164.493,52.875,165.304,51.516,164.966,50.177z"/>
			</g>
		</g>
		<g>
			<g>
				<g>
					<g>
						<path d="M139.983,8.326c-8.073,0-14.642,6.568-14.642,14.642c0,8.074,6.569,14.642,14.642,14.642s14.642-6.568,14.642-14.642
							C154.625,14.895,148.057,8.326,139.983,8.326z M139.983,32.61c-5.316,0-9.643-4.325-9.643-9.642
							c0-5.316,4.326-9.642,9.643-9.642s9.642,4.325,9.642,9.642C149.625,28.285,145.3,32.61,139.983,32.61z"/>
					</g>
				</g>
			</g>
		</g>
		<g>
			<g>
				<path d="M197.792,60.629h-21.25c-1.381,0-2.5,1.119-2.5,2.5s1.119,2.5,2.5,2.5h21.25c1.381,0,2.5-1.119,2.5-2.5
					S199.173,60.629,197.792,60.629z"/>
			</g>
		</g>
		<g>
			<g>
				<path d="M212.174,50.219c-2.17-8.651-9.178-15.262-17.853-16.842c-4.38-0.797-8.973-0.797-13.347,0
					c-8.655,1.577-15.662,8.166-17.85,16.786c-0.34,1.338,0.47,2.699,1.808,3.039c1.34,0.337,2.698-0.469,3.038-1.808
					c1.708-6.729,7.164-11.871,13.9-13.098c3.785-0.689,7.767-0.689,11.554,0c6.75,1.229,12.205,6.387,13.899,13.14
					c0.284,1.135,1.304,1.892,2.423,1.892c0.201,0,0.406-0.024,0.61-0.076C211.696,52.917,212.51,51.559,212.174,50.219z"/>
			</g>
		</g>
		<g>
			<g>
				<g>
					<g>
						<path d="M187.181,8.326c-8.073,0-14.642,6.568-14.642,14.642c0,8.074,6.568,14.642,14.642,14.642s14.642-6.568,14.642-14.642
							C201.822,14.895,195.254,8.326,187.181,8.326z M187.181,32.61c-5.316,0-9.642-4.325-9.642-9.642
							c0-5.316,4.325-9.642,9.642-9.642s9.642,4.325,9.642,9.642C196.822,28.285,192.497,32.61,187.181,32.61z"/>
					</g>
				</g>
			</g>
		</g>
		<g>
			<g>
				<g>
					<g>
						<path d="M141.746,92.14C141.746,92.139,141.746,92.139,141.746,92.14c-1.615-9.402-8.938-16.855-18.222-18.547
							c-4.376-0.797-8.97-0.797-13.347,0c-9.847,1.794-17.249,9.745-18.417,19.784c-0.083,0.714-0.093,1.401-0.093,1.856v5.745
							c0,2.684,2.183,4.867,4.867,4.867h40.536c2.684,0,4.866-2.183,4.866-4.867v-6.276C141.937,93.71,141.876,92.896,141.746,92.14
							z M136.937,100.845H96.667v-5.612c0-0.531,0.018-0.925,0.06-1.277c0.913-7.84,6.678-14.047,14.347-15.444
							c3.788-0.689,7.77-0.689,11.555,0c7.226,1.317,12.929,7.133,14.19,14.474c0.081,0.471,0.118,1.016,0.118,1.717V100.845z"/>
					</g>
				</g>
			</g>
		</g>
		<g>
			<g>
				<g>
					<g>
						<path d="M116.384,48.542c-8.073,0-14.642,6.568-14.642,14.642c0,8.074,6.568,14.642,14.642,14.642s14.641-6.568,14.641-14.642
							C131.025,55.11,124.458,48.542,116.384,48.542z M116.384,72.826c-5.316,0-9.642-4.325-9.642-9.642
							c0-5.316,4.325-9.642,9.642-9.642s9.642,4.325,9.642,9.642C126.026,68.5,121.701,72.826,116.384,72.826z"/>
					</g>
				</g>
			</g>
		</g>
		<g>
			<g>
				<g>
					<g>
						<path d="M188.944,92.14C188.944,92.139,188.944,92.139,188.944,92.14c-1.616-9.402-8.939-16.855-18.222-18.547
							c-4.38-0.797-8.973-0.797-13.347,0c-9.848,1.794-17.249,9.745-18.418,19.784c-0.083,0.714-0.093,1.401-0.093,1.856v5.745
							c0,2.684,2.184,4.867,4.867,4.867h40.535c2.684,0,4.867-2.183,4.867-4.867v-6.276C189.135,93.71,189.074,92.896,188.944,92.14
							z M184.135,100.845h-40.27v-5.612c0-0.531,0.019-0.925,0.06-1.277c0.912-7.841,6.679-14.047,14.348-15.444
							c3.785-0.689,7.767-0.689,11.554,0c7.226,1.317,12.929,7.133,14.19,14.474c0.081,0.471,0.118,1.016,0.118,1.717V100.845z"/>
					</g>
				</g>
			</g>
		</g>
		<g>
			<g>
				<g>
					<g>
						<path d="M163.582,48.542c-8.073,0-14.642,6.568-14.642,14.642c0,8.074,6.568,14.642,14.642,14.642s14.642-6.568,14.642-14.642
							C178.224,55.11,171.655,48.542,163.582,48.542z M163.582,72.826c-5.316,0-9.642-4.325-9.642-9.642
							c0-5.316,4.325-9.642,9.642-9.642s9.642,4.325,9.642,9.642C173.224,68.5,168.898,72.826,163.582,72.826z"/>
					</g>
				</g>
			</g>
		</g>
		<g>
			<g>
				<g>
					<g>
						<path d="M236.142,92.14C236.142,92.139,236.142,92.139,236.142,92.14c-1.615-9.402-8.938-16.855-18.221-18.547
							c-4.379-0.797-8.969-0.797-13.348,0c-9.847,1.794-17.248,9.745-18.418,19.784c-0.081,0.699-0.092,1.359-0.092,1.856v5.745
							c0,2.684,2.183,4.867,4.866,4.867h40.536c2.684,0,4.866-2.183,4.866-4.867v-6.276C236.332,93.71,236.271,92.896,236.142,92.14
							z M231.332,100.845h-40.269v-5.612c0-0.537,0.018-0.931,0.059-1.277c0.913-7.841,6.679-14.047,14.348-15.444
							c3.787-0.689,7.768-0.689,11.555,0c7.227,1.317,12.929,7.133,14.189,14.474c0.081,0.471,0.118,1.016,0.118,1.717V100.845z"/>
					</g>
				</g>
			</g>
		</g>
		<g>
			<g>
				<g>
					<g>
						<path d="M210.78,48.542c-8.073,0-14.642,6.568-14.642,14.642c0,8.074,6.568,14.642,14.642,14.642s14.642-6.568,14.642-14.642
							C225.422,55.11,218.854,48.542,210.78,48.542z M210.78,72.826c-5.316,0-9.642-4.325-9.642-9.642
							c0-5.316,4.325-9.642,9.642-9.642s9.642,4.325,9.642,9.642C220.422,68.5,216.097,72.826,210.78,72.826z"/>
					</g>
				</g>
			</g>
		</g>
	</g>
</g>
<g id="Layer_29">
</g>
<g id="Layer_30">
</g>
<g id="Layer_31">
</g>
<g id="Layer_32">
</g>
<g id="Layer_33">
</g>
<g id="Layer_34">
</g>
<g id="Layer_35">
</g>
<g id="Layer_36">
</g>
<g id="Layer_37">
</g>
<g id="Layer_38">
</g>
<g id="Layer_39">
</g>
<g id="Layer_40">
</g>
<g id="Layer_41">
</g>
<g id="Layer_42">
</g>
<g id="Layer_43">
</g>
<g id="Layer_44">
</g>
<g id="Layer_45">
</g>
<g id="Layer_46">
</g>
<g id="Layer_47">
</g>
<g id="Layer_48">
</g>
<g id="Layer_49">
</g>
<g id="Layer_50">
</g>
<g id="Layer_51">
</g>
<g id="Layer_52">
</g>
<g id="Layer_53">
</g>
<g id="Layer_54">
</g>
<g id="Layer_55">
</g>
<g id="Layer_56">
</g>
<g id="Layer_57">
</g>
<g id="Layer_58">
</g>
<g id="Layer_59">
</g>
<g id="Layer_60">
</g>
<g id="Layer_61">
</g>
<g id="Layer_62">
</g>
<g id="Layer_63">
</g>
<g id="Layer_64">
</g>
<g id="Layer_65">
</g>
<g id="Layer_66">
</g>
<g id="Layer_67">
</g>
<g id="Layer_68">
</g>
<g id="Layer_69">
</g>
<g id="Layer_70">
</g>
<g id="Layer_71">
</g>
<g id="Layer_72">
</g>
<g id="Layer_73">
</g>
<g id="Layer_74">
</g>
<g id="Layer_75">
</g>
<g id="Layer_76">
</g>
<g id="Layer_77">
</g>
<g id="Layer_78">
</g>
<g id="Layer_79">
</g>
<g id="Layer_80">
</g>
</svg>
