<?xml version="1.0" encoding="utf-8"?>
<!-- Generator: Adobe Illustrator 24.0.0, SVG Export Plug-In . SVG Version: 6.00 Build 0)  -->
<svg version="1.1" xmlns="http://www.w3.org/2000/svg" xmlns:xlink="http://www.w3.org/1999/xlink" x="0px" y="0px"
	 viewBox="0 0 256 256" enable-background="new 0 0 256 256" xml:space="preserve">
<g id="Layer_1">
</g>
<g id="Layer_2">
</g>
<g id="Layer_3">
</g>
<g id="Layer_4">
</g>
<g id="Layer_5">
</g>
<g id="Layer_6">
</g>
<g id="Layer_7">
</g>
<g id="Layer_8">
</g>
<g id="Layer_9">
</g>
<g id="Layer_10">
</g>
<g id="Layer_11">
</g>
<g id="Layer_12">
</g>
<g id="Layer_13">
</g>
<g id="Layer_14">
</g>
<g id="Layer_15">
</g>
<g id="Layer_16">
</g>
<g id="Layer_17">
</g>
<g id="Layer_18">
</g>
<g id="Layer_19">
</g>
<g id="Layer_20">
</g>
<g id="Layer_21">
</g>
<g id="Layer_22">
</g>
<g id="Layer_23">
</g>
<g id="Layer_24">
</g>
<g id="Layer_25">
</g>
<g id="Layer_26">
</g>
<g id="Layer_27">
</g>
<g id="Layer_28">
</g>
<g id="Layer_29">
</g>
<g id="Layer_30">
</g>
<g id="Layer_31">
</g>
<g id="Layer_32">
</g>
<g id="Layer_33">
</g>
<g id="Layer_34">
</g>
<g id="Layer_35">
</g>
<g id="Layer_36">
</g>
<g id="Layer_37">
</g>
<g id="Layer_38">
</g>
<g id="Layer_39">
</g>
<g id="Layer_40">
</g>
<g id="Layer_41">
</g>
<g id="Layer_42">
</g>
<g id="Layer_43">
</g>
<g id="Layer_44">
</g>
<g id="Layer_45">
</g>
<g id="Layer_46">
</g>
<g id="Layer_47">
</g>
<g id="Layer_48">
</g>
<g id="Layer_49">
</g>
<g id="Layer_50">
</g>
<g id="Layer_51">
</g>
<g id="Layer_52">
</g>
<g id="Layer_53">
</g>
<g id="Layer_54">
</g>
<g id="Layer_55">
</g>
<g id="Layer_56">
</g>
<g id="Layer_57">
</g>
<g id="Layer_58">
</g>
<g id="Layer_59">
</g>
<g id="Layer_60">
</g>
<g id="Layer_61">
</g>
<g id="Layer_62">
</g>
<g id="Layer_63">
</g>
<g id="Layer_64">
</g>
<g id="Layer_65">
	<g>
		<g>
			<g>
				<path fill="#FC657E" d="M30.15,164.175c-3.1-0.6-5.6-3-6.2-6.1c0-0.1-0.3-0.1-0.3,0c-0.6,3.1-3.1,5.5-6.2,6.1
					c-0.1,0-0.1,0.2,0,0.3c3.1,0.6,5.6,3,6.2,6.1c0,0.1,0.3,0.1,0.3,0c0.6-3.1,3.1-5.5,6.2-6.1
					C30.25,164.375,30.25,164.175,30.15,164.175z"/>
			</g>
		</g>
		<g>
			<g>
				<path fill="#F9D0B4" d="M122.408,89.171c-0.698,0.261-1.368,0.625-1.982,1.107c-4.665,3.662-12.737,8.188-24.139,8.188
					c-11.429,0-19.544-4.548-24.229-8.215c-2.948-2.307-7.148-2.049-9.731,0.661l-0.014,0.014c-3.63,3.807-5.655,8.865-5.655,14.125
					v33.222c0,21.772,17.813,39.585,39.585,39.585c21.772,0,39.585-17.813,39.585-39.585v-30.478
					C130.257,102.522,125.681,96.214,122.408,89.171z"/>
			</g>
		</g>
		<g>
			<g>
				<path fill="#F9D0B4" d="M154.268,119.813c-6.878-2.871-13.11-6.971-18.44-12.017v30.478c0,0.893-0.041,1.776-0.1,2.655
					c0.862,0.139,1.739,0.23,2.64,0.23c9.128,0,16.527-7.399,16.527-16.527C154.895,123.069,154.673,121.44,154.268,119.813z"/>
			</g>
		</g>
		<g>
			<g>
				<path fill="#F9D0B4" d="M56.658,138.273v-29.968c-0.829-0.129-1.676-0.201-2.54-0.201c-9.128,0-16.527,7.399-16.527,16.527
					s7.399,16.527,16.527,16.527c0.901,0,1.778-0.092,2.64-0.23v-0.001C56.698,140.049,56.658,139.166,56.658,138.273z"/>
			</g>
		</g>
		<g>
			<g>
				<path fill="#FCE4BE" d="M116.743,63.5c0-4.13,0.416-8.162,1.198-12.062c-9.552-3.522-22.451-3.542-35.331-1.318
					c-21.268,3.673-36.812,22.115-36.812,43.698v16.55c2.446-1.43,5.282-2.263,8.319-2.263c0.865,0,1.712,0.073,2.54,0.201v-3.254
					c0-5.26,2.025-10.318,5.655-14.125l0.014-0.014c2.583-2.709,6.783-2.968,9.731-0.661c4.685,3.667,12.8,8.215,24.229,8.215
					c11.401,0,19.474-4.526,24.139-8.188c0.614-0.482,1.285-0.847,1.982-1.107C118.781,81.366,116.743,72.673,116.743,63.5z"/>
			</g>
		</g>
		<g>
			<g>
				<path fill="#EDF4FC" d="M123.254,185.594c-1.224-1.069-3.083-0.943-4.151,0.281l-16.498,18.889
					c-1.069,1.224-0.943,3.083,0.281,4.151l8.87,7.747c1.224,1.069,3.083,0.944,4.152-0.28l8.175-9.36l2.249-14.018
					c0.218-1.36,1.323-2.321,2.596-2.456L123.254,185.594z"/>
			</g>
		</g>
		<g>
			<g>
				<path fill="#EDF4FC" d="M89.881,204.764l-16.498-18.889c-1.069-1.224-2.927-1.349-4.151-0.281l-5.672,4.954
					c1.272,0.135,2.378,1.095,2.596,2.456l2.249,14.018l8.175,9.36c1.069,1.224,2.928,1.35,4.151,0.28l8.87-7.747
					C90.824,207.846,90.95,205.988,89.881,204.764z"/>
			</g>
		</g>
		<g>
			<g>
				<path fill="#DAE6F1" d="M115.907,216.382c-1.069,1.224-2.927,1.349-4.151,0.28l-8.87-7.747c-1.224-1.069-1.349-2.928-0.28-4.151
					l14.623-16.742c-1.748-2.326-2.749-5.191-2.749-8.212v-6.442c-5.467,2.862-11.669,4.492-18.237,4.492
					c-6.568,0-12.77-1.63-18.237-4.492v6.442c0,3.021-1.001,5.886-2.749,8.212l14.623,16.742c1.069,1.224,0.943,3.083-0.28,4.151
					l-8.87,7.747c-1.224,1.069-3.083,0.943-4.151-0.28l-8.175-9.36l7.456,46.478h40.767l7.456-46.478L115.907,216.382z"/>
			</g>
		</g>
		<g>
			<g>
				<path fill="#F9D0B4" d="M117.228,188.021c-1.748-2.326-2.748-5.191-2.748-8.212v-6.442c-5.467,2.862-11.669,4.492-18.237,4.492
					h0c-6.568,0-12.77-1.63-18.237-4.492v6.442c0,3.021-1.001,5.886-2.749,8.212l14.623,16.742c0.611,0.699,0.819,1.605,0.667,2.453
					h11.39c-0.152-0.849,0.056-1.754,0.667-2.453L117.228,188.021z"/>
			</g>
		</g>
		<g>
			<g>
				<path fill="#3CAADC" d="M66.155,193.004c-0.287-1.791-2.112-2.898-3.833-2.324l-25.883,8.628
					c-8.771,2.924-15.034,10.69-16.033,19.881l-3.118,28.674c-0.327,3.01,2.03,5.638,5.058,5.638h53.514L66.155,193.004z"/>
			</g>
		</g>
		<g>
			<g>
				<path fill="#3CAADC" d="M175.198,247.862l-3.118-28.674c-0.999-9.191-7.263-16.958-16.033-19.881l-25.883-8.628
					c-1.721-0.574-3.546,0.533-3.833,2.324l-9.704,60.496h53.513C173.168,253.5,175.525,250.872,175.198,247.862z"/>
			</g>
		</g>
		<g>
			<g>
				<circle fill="#70D6F9" cx="177.743" cy="63.5" r="61"/>
			</g>
		</g>
		<g>
			<g>
				<polygon fill="#3A70BF" points="103.503,223.812 88.983,223.812 86.068,253.5 106.417,253.5 				"/>
			</g>
		</g>
		<g>
			<g>
				<path fill="#5290DB" d="M102.885,208.915c-0.524-0.458-0.834-1.063-0.948-1.698h-11.39c-0.114,0.635-0.423,1.24-0.948,1.698
					l-5.214,4.554l4.597,10.342h14.521l4.597-10.343L102.885,208.915z"/>
			</g>
		</g>
		<g>
			<g>
				<path fill="#70D6F9" d="M61.06,253.5h14.799l-9.704-60.496c-0.287-1.791-2.112-2.898-3.833-2.324l-8.676,2.892v40.293
					c0,2.738,1.547,5.241,3.996,6.465l4.806,2.403c1.983,0.991,2.734,3.44,1.647,5.373L61.06,253.5z"/>
			</g>
		</g>
		<g>
			<g>
				<path fill="#70D6F9" d="M130.164,190.68c-1.721-0.574-3.546,0.533-3.833,2.324l-9.704,60.496h14.799l-3.034-5.393
					c-1.087-1.933-0.336-4.382,1.647-5.373l4.806-2.403c2.449-1.224,3.996-3.727,3.996-6.465v-40.293L130.164,190.68z"/>
			</g>
		</g>
		<g>
			<g>
				<path fill="#EDF4FC" d="M215.478,53.5h-75.47c-2.632,0-4.765,2.133-4.765,4.765v48.973c10.986,10.677,25.97,17.262,42.5,17.262
					s31.514-6.585,42.5-17.262V58.265C220.243,55.633,218.109,53.5,215.478,53.5z"/>
			</g>
		</g>
		<g>
			<g>
				<path fill="#5290DB" d="M203.686,40.5H151.8c-1.809,0-3.276,1.467-3.276,3.276V53.5h58.438v-9.724
					C206.962,41.967,205.495,40.5,203.686,40.5z"/>
			</g>
		</g>
		<g>
			<g>
				<path fill="#5290DB" d="M177.743,27.958c-3.313,0-6,2.687-6,6V40.5h12v-6.542C183.743,30.645,181.056,27.958,177.743,27.958z"/>
			</g>
		</g>
		<g>
			<g>
				<path fill="#87D147" d="M63.906,22.1h-2.4v-2.3c0-1.8-1.4-3.2-3.2-3.2c-1.7,0-3.2,1.4-3.2,3.1v2.4h-2.3c-1.8,0-3.2,1.4-3.2,3.2
					c-0.1,1.7,1.3,3.2,3.2,3.2h2.3v2.3c0,1.8,1.4,3.2,3.2,3.2c1.7,0,3.2-1.4,3.2-3.1v-2.4h2.3c1.8,0,3.2-1.4,3.2-3.2
					C67.006,23.6,65.606,22.1,63.906,22.1z"/>
			</g>
		</g>
		<g>
			<g>
				<path fill="#F5C84C" d="M90.206,0c-1.878,0-3.4,1.522-3.4,3.4c0,1.878,1.522,3.4,3.4,3.4s3.4-1.522,3.4-3.4
					C93.606,1.522,92.083,0,90.206,0z"/>
			</g>
		</g>
		<g>
			<g>
				<path fill="#70D6F9" d="M195.369,207c-1.878,0-3.4,1.522-3.4,3.4c0,1.878,1.522,3.4,3.4,3.4s3.4-1.522,3.4-3.4
					C198.769,208.522,197.246,207,195.369,207z"/>
			</g>
		</g>
		<g>
			<g>
				<path fill="#F5C84C" d="M220.15,177.2c-4.5-0.8-8-4.3-8.9-8.7c0-0.2-0.4-0.2-0.4,0c-0.9,4.4-4.4,7.9-8.9,8.7
					c-0.2,0-0.2,0.3,0,0.4c4.5,0.8,8,4.3,8.9,8.7c0,0.2,0.4,0.2,0.4,0c0.9-4.4,4.4-7.9,8.9-8.7
					C220.35,177.5,220.35,177.2,220.15,177.2z"/>
			</g>
		</g>
		<g>
			<g>
				<path d="M135.828,105.875c-1.381,0-2.5,1.119-2.5,2.5v29.898c0,20.448-16.637,37.085-37.085,37.085
					s-37.085-16.637-37.085-37.085v-33.222c0-4.639,1.763-9.042,4.978-12.414c1.684-1.767,4.427-1.946,6.381-0.417
					c5.098,3.99,13.706,8.746,25.77,8.746c12.041,0,20.612-4.742,25.687-8.724c0.289-0.228,0.612-0.424,0.963-0.585
					c1.254-0.577,1.804-2.062,1.227-3.316c-0.577-1.254-2.059-1.804-3.316-1.227c-0.707,0.325-1.369,0.729-1.963,1.197
					c-4.45,3.492-11.983,7.654-22.597,7.654c-10.639,0-18.21-4.179-22.688-7.684c-3.989-3.123-9.613-2.732-13.095,0.919
					c-4.092,4.291-6.345,9.92-6.345,15.85v33.222c0,23.206,18.879,42.085,42.085,42.085s42.085-18.879,42.085-42.085v-29.898
					C138.328,106.994,137.209,105.875,135.828,105.875z"/>
			</g>
		</g>
		<g>
			<g>
				<path d="M152.225,230.275c-1.381,0-2.5,1.119-2.5,2.5v19.392c0,1.381,1.119,2.5,2.5,2.5s2.5-1.119,2.5-2.5v-19.392
					C154.725,231.395,153.605,230.275,152.225,230.275z"/>
			</g>
		</g>
		<g>
			<g>
				<path d="M40.262,230.275c-1.381,0-2.5,1.119-2.5,2.5v19.558c0,1.381,1.119,2.5,2.5,2.5s2.5-1.119,2.5-2.5v-19.558
					C42.762,231.395,41.643,230.275,40.262,230.275z"/>
			</g>
		</g>
		<g>
			<g>
				<path d="M156.771,119.526c-0.315-1.344-1.66-2.172-3.006-1.861c-1.344,0.316-2.178,1.662-1.861,3.006
					c0.326,1.386,0.491,2.719,0.491,3.961c0,7.734-6.293,14.026-14.027,14.026c-0.437,0-0.878-0.025-1.348-0.077
					c-1.388-0.143-2.607,0.841-2.759,2.212c-0.15,1.373,0.84,2.607,2.212,2.759c0.654,0.071,1.273,0.106,1.895,0.106
					c10.492,0,19.027-8.535,19.027-19.026C157.396,123.005,157.186,121.287,156.771,119.526z"/>
			</g>
		</g>
		<g>
			<g>
				<path d="M55.011,138.624c-0.295,0.021-0.593,0.034-0.894,0.034c-7.734,0-14.026-6.292-14.026-14.026s6.292-14.027,14.026-14.027
					c0.377,0,0.748,0.017,1.115,0.047c1.388,0.12,2.584-0.908,2.698-2.284s-0.908-2.584-2.284-2.698
					c-0.504-0.042-1.014-0.064-1.529-0.064c-10.491,0-19.026,8.535-19.026,19.027c0,10.491,8.535,19.026,19.026,19.026
					c0.426,0,0.847-0.017,1.263-0.048c1.377-0.103,2.411-1.301,2.309-2.678C57.586,139.554,56.376,138.521,55.011,138.624z"/>
			</g>
		</g>
		<g>
			<g>
				<path d="M117.989,48.803c-9.16-3.145-21.877-3.552-35.805-1.146c-22.532,3.892-38.887,23.306-38.887,46.162v16.202
					c0,1.381,1.119,2.5,2.5,2.5s2.5-1.119,2.5-2.5V93.818c0-20.417,14.609-37.759,34.738-41.234
					c13.114-2.266,24.951-1.929,33.33,0.947c1.307,0.451,2.729-0.247,3.176-1.553C119.99,50.673,119.295,49.251,117.989,48.803z"/>
			</g>
		</g>
		<g>
			<g>
				<path d="M130.25,188.385l-5.351-4.673c-1.096-0.956-2.497-1.416-3.947-1.332c-1.451,0.099-2.776,0.756-3.731,1.851
					l-16.498,18.888c-0.956,1.095-1.43,2.497-1.331,3.948c0.098,1.45,0.755,2.775,1.85,3.731l8.869,7.747
					c1.001,0.874,2.257,1.344,3.572,1.344c0.125,0,0.25-0.004,0.375-0.013c1.45-0.098,2.775-0.755,3.732-1.85l8.067-9.237
					c0.908-1.04,0.802-2.619-0.238-3.527c-1.038-0.908-2.619-0.802-3.527,0.238l-8.067,9.236c-0.1,0.115-0.22,0.146-0.304,0.151
					c-0.087,0.007-0.207-0.01-0.32-0.108l-8.87-7.747c-0.114-0.1-0.145-0.22-0.15-0.304c-0.006-0.083,0.009-0.206,0.108-0.32
					l16.499-18.89c0.099-0.113,0.219-0.144,0.302-0.149c0.08-0.01,0.207,0.009,0.321,0.108l5.351,4.673
					c1.038,0.907,2.618,0.801,3.527-0.238C131.396,190.872,131.29,189.293,130.25,188.385z"/>
			</g>
		</g>
		<g>
			<g>
				<path d="M91.764,203.119L75.266,184.23c-0.956-1.096-2.282-1.752-3.732-1.851c-1.45-0.085-2.852,0.376-3.946,1.332l-5.483,4.788
					c-1.04,0.908-1.146,2.487-0.238,3.527c0.908,1.039,2.488,1.147,3.527,0.238l5.484-4.788c0.112-0.1,0.234-0.117,0.319-0.108
					c0.084,0.006,0.204,0.036,0.304,0.15l16.498,18.889c0.16,0.184,0.142,0.464-0.042,0.624l-8.87,7.747
					c-0.114,0.1-0.238,0.116-0.321,0.108c-0.083-0.006-0.203-0.036-0.303-0.15l-8.009-9.169c-0.909-1.042-2.488-1.146-3.527-0.238
					c-1.04,0.908-1.146,2.487-0.238,3.527l8.009,9.169c0.956,1.095,2.281,1.752,3.731,1.85c0.125,0.009,0.25,0.013,0.375,0.013
					c1.315,0,2.571-0.47,3.572-1.344l8.87-7.747C93.505,208.825,93.738,205.38,91.764,203.119z"/>
			</g>
		</g>
		<g>
			<g>
				<path d="M78.006,171.469c-1.381,0-2.5,1.119-2.5,2.5v5.84c0,2.254-0.676,4.434-1.955,6.304c-0.779,1.14-0.487,2.695,0.652,3.475
					c0.432,0.295,0.923,0.437,1.409,0.437c0.797,0,1.581-0.381,2.065-1.089c1.851-2.704,2.828-5.86,2.828-9.126v-5.84
					C80.506,172.588,79.387,171.469,78.006,171.469z"/>
			</g>
		</g>
		<g>
			<g>
				<path d="M118.958,186.146c-1.295-1.877-1.979-4.068-1.979-6.337v-5.726c0-1.381-1.119-2.5-2.5-2.5s-2.5,1.119-2.5,2.5v5.726
					c0,3.287,0.989,6.46,2.861,9.175c0.485,0.703,1.267,1.081,2.061,1.081c0.489,0,0.983-0.144,1.417-0.441
					C119.455,188.839,119.741,187.282,118.958,186.146z"/>
			</g>
		</g>
		<g>
			<g>
				<path d="M116.627,251H75.859c-1.381,0-2.5,1.119-2.5,2.5s1.119,2.5,2.5,2.5h40.768c1.381,0,2.5-1.119,2.5-2.5
					S118.008,251,116.627,251z"/>
			</g>
		</g>
		<g>
			<g>
				<g>
					<g>
						<path d="M78.328,253.104l-9.704-60.497c-0.254-1.58-1.185-2.961-2.552-3.79s-3.021-1.016-4.541-0.51c0,0,0,0-0.001,0
							l-25.883,8.628c-9.668,3.224-16.626,11.852-17.728,21.982l-3.117,28.674c-0.233,2.139,0.457,4.284,1.895,5.887
							c1.437,1.603,3.496,2.521,5.648,2.521h53.514c0.732,0,1.428-0.321,1.902-0.878C78.237,254.564,78.443,253.827,78.328,253.104z
							 M22.346,251c-0.745,0-1.429-0.306-1.927-0.86c-0.497-0.554-0.727-1.267-0.646-2.007l3.117-28.674
							c0.891-8.194,6.519-15.173,14.339-17.779l25.883-8.628c0.155-0.057,0.288-0.008,0.368,0.041
							c0.079,0.048,0.18,0.141,0.206,0.307L72.927,251H22.346z"/>
					</g>
				</g>
			</g>
		</g>
		<g>
			<g>
				<g>
					<g>
						<path d="M177.684,247.592l-3.118-28.674c-1.102-10.131-8.06-18.76-17.728-21.982l-25.883-8.628c-0.001,0-0.001,0-0.001,0
							c-1.518-0.507-3.173-0.32-4.541,0.51s-2.298,2.211-2.551,3.791l-9.704,60.496c-0.115,0.723,0.091,1.46,0.566,2.018
							c0.475,0.557,1.17,0.878,1.902,0.878h53.513c2.152,0,4.211-0.919,5.648-2.521S177.916,249.731,177.684,247.592z
							 M172.066,250.141c-0.497,0.554-1.182,0.859-1.927,0.859h-50.58l9.24-57.601c0.026-0.166,0.127-0.259,0.206-0.307
							c0.081-0.049,0.211-0.095,0.367-0.041l25.883,8.628c7.82,2.606,13.448,9.585,14.339,17.779l3.118,28.674
							C172.793,248.873,172.563,249.586,172.066,250.141z"/>
					</g>
				</g>
			</g>
		</g>
		<g>
			<g>
				<g>
					<path d="M109.15,146.813c-1.057-0.887-2.634-0.75-3.521,0.309c-1.944,2.318-5.238,3.702-8.811,3.702s-6.865-1.384-8.809-3.702
						c-0.889-1.059-2.465-1.197-3.522-0.31c-1.058,0.887-1.196,2.464-0.31,3.522c2.882,3.438,7.607,5.489,12.641,5.489
						s9.759-2.052,12.641-5.489C110.347,149.277,110.208,147.7,109.15,146.813z"/>
				</g>
			</g>
			<g>
				<g>
					<path d="M114.677,121.14c-2.937,0-5.319,2.381-5.319,5.318c0,2.938,2.381,5.319,5.319,5.319c2.937,0,5.318-2.381,5.318-5.319
						C119.996,123.521,117.615,121.14,114.677,121.14z"/>
				</g>
			</g>
			<g>
				<g>
					<path d="M78.96,121.14c-2.937,0-5.318,2.381-5.318,5.318c0,2.938,2.381,5.319,5.318,5.319s5.318-2.381,5.318-5.319
						C84.278,123.521,81.897,121.14,78.96,121.14z"/>
				</g>
			</g>
		</g>
		<g>
			<g>
				<g>
					<g>
						<path d="M177.743,0c-35.014,0-63.5,28.486-63.5,63.5s28.486,63.5,63.5,63.5s63.5-28.486,63.5-63.5S212.757,0,177.743,0z
							 M177.743,122c-32.257,0-58.5-26.243-58.5-58.5S145.486,5,177.743,5s58.5,26.243,58.5,58.5S210,122,177.743,122z"/>
					</g>
				</g>
			</g>
		</g>
		<g>
			<g>
				<path d="M206.035,67.741H149.45c-1.381,0-2.5,1.119-2.5,2.5s1.119,2.5,2.5,2.5h56.585c1.381,0,2.5-1.119,2.5-2.5
					S207.416,67.741,206.035,67.741z"/>
			</g>
		</g>
		<g>
			<g>
				<path d="M206.035,78.285H149.45c-1.381,0-2.5,1.119-2.5,2.5s1.119,2.5,2.5,2.5h56.585c1.381,0,2.5-1.119,2.5-2.5
					S207.416,78.285,206.035,78.285z"/>
			</g>
		</g>
		<g>
			<g>
				<path d="M206.035,99.373H149.45c-1.381,0-2.5,1.119-2.5,2.5s1.119,2.5,2.5,2.5h56.585c1.381,0,2.5-1.119,2.5-2.5
					S207.416,99.373,206.035,99.373z"/>
			</g>
		</g>
		<g>
			<g>
				<path d="M191.035,109.917H164.45c-1.381,0-2.5,1.119-2.5,2.5s1.119,2.5,2.5,2.5h26.585c1.381,0,2.5-1.119,2.5-2.5
					S192.416,109.917,191.035,109.917z"/>
			</g>
		</g>
		<g>
			<g>
				<path d="M206.035,88.829H149.45c-1.381,0-2.5,1.119-2.5,2.5s1.119,2.5,2.5,2.5h56.585c1.381,0,2.5-1.119,2.5-2.5
					S207.416,88.829,206.035,88.829z"/>
			</g>
		</g>
		<g>
			<g>
				<path d="M177.743,12c-1.381,0-2.5,1.119-2.5,2.5v13c0,1.381,1.119,2.5,2.5,2.5s2.5-1.119,2.5-2.5v-13
					C180.243,13.119,179.124,12,177.743,12z"/>
			</g>
		</g>
		<g>
			<g>
				<path d="M105.991,223.567c-0.135-1.374-1.359-2.371-2.732-2.244c-1.374,0.135-2.379,1.358-2.244,2.732l2.793,28.45
					c0.127,1.291,1.215,2.256,2.485,2.256c0.082,0,0.164-0.004,0.247-0.012c1.374-0.135,2.379-1.358,2.244-2.732L105.991,223.567z"
					/>
			</g>
		</g>
		<g>
			<g>
				<path d="M89.227,221.323c-1.373-0.128-2.598,0.87-2.732,2.244l-2.793,28.45c-0.135,1.374,0.87,2.598,2.244,2.732
					c0.083,0.008,0.165,0.012,0.247,0.012c1.271,0,2.358-0.965,2.485-2.256l2.793-28.45
					C91.605,222.682,90.601,221.458,89.227,221.323z"/>
			</g>
		</g>
		<g>
			<g>
				<g>
					<path d="M108.737,212.036c-1.26-0.563-2.738,0.006-3.3,1.269l-3.56,8.007H90.607l-3.577-8.046
						c-0.561-1.263-2.041-1.828-3.3-1.269c-1.262,0.561-1.83,2.038-1.269,3.3l4.236,9.53c0.401,0.902,1.296,1.484,2.284,1.484
						h14.521c0.988,0,1.883-0.582,2.284-1.484l4.219-9.491C110.567,214.074,109.999,212.597,108.737,212.036z"/>
				</g>
			</g>
			<g>
				<g>
					<path d="M101,204.717h-9.5c-1.381,0-2.5,1.119-2.5,2.5s1.119,2.5,2.5,2.5h9.5c1.381,0,2.5-1.119,2.5-2.5
						S102.381,204.717,101,204.717z"/>
				</g>
			</g>
		</g>
		<g>
			<g>
				<path d="M66.813,244.335c-0.509-1.662-1.692-3.061-3.247-3.838l-4.806-2.403c-1.612-0.806-2.614-2.427-2.614-4.229v-39.573
					c0-1.381-1.119-2.5-2.5-2.5s-2.5,1.119-2.5,2.5v39.573c0,3.708,2.061,7.042,5.378,8.701l4.807,2.403
					c0.46,0.23,0.638,0.619,0.702,0.83s0.136,0.632-0.117,1.081l-2.738,4.869c-0.677,1.203-0.25,2.728,0.953,3.404
					c0.388,0.218,0.809,0.321,1.224,0.321c0.874,0,1.722-0.459,2.181-1.274l2.738-4.868
					C67.125,247.818,67.322,245.996,66.813,244.335z"/>
			</g>
		</g>
		<g>
			<g>
				<path d="M138.84,191.938c-1.381,0-2.5,1.119-2.5,2.5v39.428c0,1.802-1.002,3.423-2.614,4.229l-4.805,2.403
					c-1.555,0.776-2.738,2.175-3.247,3.836c-0.51,1.662-0.313,3.484,0.539,4.999l2.7,4.801c0.459,0.816,1.307,1.274,2.181,1.274
					c0.415,0,0.836-0.104,1.224-0.321c1.203-0.677,1.63-2.201,0.953-3.404l-2.7-4.801c-0.252-0.449-0.182-0.87-0.116-1.082
					c0.064-0.211,0.242-0.6,0.702-0.829l4.806-2.403c3.317-1.659,5.378-4.993,5.378-8.701v-39.428
					C141.34,193.057,140.221,191.938,138.84,191.938z"/>
			</g>
		</g>
		<g>
			<g>
				<path d="M215.478,51h-75.47c-4.006,0-7.265,3.259-7.265,7.265v48.454c0,1.381,1.119,2.5,2.5,2.5s2.5-1.119,2.5-2.5V58.265
					c0-1.249,1.016-2.265,2.265-2.265h75.47c1.249,0,2.266,1.016,2.266,2.265v48.485c0,1.381,1.119,2.5,2.5,2.5s2.5-1.119,2.5-2.5
					V58.265C222.743,54.259,219.483,51,215.478,51z"/>
			</g>
		</g>
		<g>
			<g>
				<path d="M203.686,38H151.8c-3.185,0-5.775,2.591-5.775,5.775v8.6c0,1.381,1.119,2.5,2.5,2.5s2.5-1.119,2.5-2.5v-8.6
					c0-0.428,0.348-0.775,0.775-0.775h51.886c0.428,0,0.776,0.348,0.776,0.775v8.558c0,1.381,1.119,2.5,2.5,2.5s2.5-1.119,2.5-2.5
					v-8.558C209.462,40.591,206.871,38,203.686,38z"/>
			</g>
		</g>
		<g>
			<g>
				<path d="M177.743,25.458c-4.687,0-8.5,3.813-8.5,8.5v5.167c0,1.381,1.119,2.5,2.5,2.5s2.5-1.119,2.5-2.5v-5.167
					c0-1.93,1.57-3.5,3.5-3.5s3.5,1.57,3.5,3.5v5.48c0,1.381,1.119,2.5,2.5,2.5s2.5-1.119,2.5-2.5v-5.48
					C186.243,29.271,182.43,25.458,177.743,25.458z"/>
			</g>
		</g>
	</g>
</g>
<g id="Layer_66">
</g>
<g id="Layer_67">
</g>
<g id="Layer_68">
</g>
<g id="Layer_69">
</g>
<g id="Layer_70">
</g>
<g id="Layer_71">
</g>
<g id="Layer_72">
</g>
<g id="Layer_73">
</g>
<g id="Layer_74">
</g>
<g id="Layer_75">
</g>
<g id="Layer_76">
</g>
<g id="Layer_77">
</g>
<g id="Layer_78">
</g>
<g id="Layer_79">
</g>
<g id="Layer_80">
</g>
</svg>
