<?xml version="1.0" encoding="utf-8"?>
<!-- Generator: Adobe Illustrator 24.0.0, SVG Export Plug-In . SVG Version: 6.00 Build 0)  -->
<svg version="1.1" xmlns="http://www.w3.org/2000/svg" xmlns:xlink="http://www.w3.org/1999/xlink" x="0px" y="0px"
	 viewBox="0 0 256 256" enable-background="new 0 0 256 256" xml:space="preserve">
<g id="Layer_1">
</g>
<g id="Layer_2">
</g>
<g id="Layer_3">
</g>
<g id="Layer_4">
</g>
<g id="Layer_5">
</g>
<g id="Layer_6">
</g>
<g id="Layer_7">
</g>
<g id="Layer_8">
</g>
<g id="Layer_9">
</g>
<g id="Layer_10">
</g>
<g id="Layer_11">
</g>
<g id="Layer_12">
</g>
<g id="Layer_13">
</g>
<g id="Layer_14">
</g>
<g id="Layer_15">
</g>
<g id="Layer_16">
</g>
<g id="Layer_17">
</g>
<g id="Layer_18">
</g>
<g id="Layer_19">
</g>
<g id="Layer_20">
</g>
<g id="Layer_21">
</g>
<g id="Layer_22">
</g>
<g id="Layer_23">
</g>
<g id="Layer_24">
</g>
<g id="Layer_25">
</g>
<g id="Layer_26">
</g>
<g id="Layer_27">
</g>
<g id="Layer_28">
</g>
<g id="Layer_29">
</g>
<g id="Layer_30">
</g>
<g id="Layer_31">
</g>
<g id="Layer_32">
</g>
<g id="Layer_33">
</g>
<g id="Layer_34">
</g>
<g id="Layer_35">
</g>
<g id="Layer_36">
</g>
<g id="Layer_37">
</g>
<g id="Layer_38">
</g>
<g id="Layer_39">
</g>
<g id="Layer_40">
</g>
<g id="Layer_41">
</g>
<g id="Layer_42">
</g>
<g id="Layer_43">
</g>
<g id="Layer_44">
</g>
<g id="Layer_45">
</g>
<g id="Layer_46">
</g>
<g id="Layer_47">
</g>
<g id="Layer_48">
</g>
<g id="Layer_49">
</g>
<g id="Layer_50">
</g>
<g id="Layer_51">
</g>
<g id="Layer_52">
</g>
<g id="Layer_53">
</g>
<g id="Layer_54">
</g>
<g id="Layer_55">
</g>
<g id="Layer_56">
</g>
<g id="Layer_57">
</g>
<g id="Layer_58">
</g>
<g id="Layer_59">
</g>
<g id="Layer_60">
</g>
<g id="Layer_61">
</g>
<g id="Layer_62">
</g>
<g id="Layer_63">
</g>
<g id="Layer_64">
</g>
<g id="Layer_65">
</g>
<g id="Layer_66">
	<g>
		<g>
			<g>
				<path fill="#FCE4BE" d="M146.548,154.63c7.039-11.04,3.715-21.788,0.61-27.859c-2.725,4.321-7.527,7.2-13.012,7.2
					c-0.839,0-1.656-0.085-2.458-0.215c-0.865,12.895-8.431,24.031-19.232,29.918v11.177c0,3.578,1.877,6.853,4.885,8.706
					c1.205,0.742-0.324-0.129,9.942,4.977c1.381,0.681,3.205,1.402,4.611,1.843c0.279,0.087,0.561,0.164,0.843,0.243
					c5.424-1.985,10.209-5.137,13.308-10.044c5.683-8.998,2.367-17.717,0.275-21.619
					C145.585,157.585,145.712,155.941,146.548,154.63z"/>
			</g>
		</g>
		<g>
			<g>
				<path fill="#FCE4BE" d="M58.163,133.756c-0.802,0.129-1.619,0.214-2.458,0.214c-5.486,0-10.288-2.879-13.012-7.2
					c-3.105,6.071-6.43,16.82,0.609,27.859c0.836,1.312,0.963,2.956,0.228,4.326c-2.092,3.903-5.408,12.621,0.275,21.619
					c3.1,4.908,7.885,8.06,13.308,10.044c0.281-0.08,0.564-0.156,0.843-0.243c1.406-0.44,3.23-1.162,4.611-1.843
					c10.933-5.438,8.826-4.29,9.942-4.977c3.008-1.853,4.885-5.127,4.885-8.706v-11.177
					C66.594,157.788,59.028,146.651,58.163,133.756z"/>
			</g>
		</g>
		<g>
			<g>
				<path fill="#F9D0B4" d="M149.477,117.473c-6.749-3.561-12.743-8.351-17.696-14.072v27.884c0,0.832-0.038,1.654-0.093,2.472
					c0.802,0.129,1.619,0.215,2.458,0.215c8.498,0,15.387-6.889,15.387-15.387C149.533,118.208,149.503,117.841,149.477,117.473z"/>
			</g>
		</g>
		<g>
			<g>
				<path fill="#F9D0B4" d="M58.07,131.285v-21.948c-2.531-0.721-5.13-1.654-7.795-2.831c-1.719-0.759-3.726-0.409-5.097,0.875
					c-2.989,2.803-4.861,6.781-4.861,11.203c0,8.498,6.889,15.387,15.387,15.387c0.839,0,1.656-0.085,2.458-0.214
					C58.108,132.938,58.07,132.116,58.07,131.285z"/>
			</g>
		</g>
		<g>
			<g>
				<path fill="#FCE4BE" d="M116.899,63.5c0-3.205,0.25-6.351,0.727-9.422c-6.827-3.498-14.54-5.487-22.7-5.487
					c-27.564,0-50.116,22.553-50.116,50.116v9.056c0.125-0.126,0.24-0.261,0.37-0.383c1.37-1.285,3.378-1.634,5.096-0.875
					c2.665,1.177,5.264,2.11,7.795,2.831c28.966,8.251,48.87-11.626,54.483-18.177c0.902-1.053,2.485-1.13,3.512-0.197
					c4.396,3.994,8.315,6.151,11.678,7.243C120.912,88.352,116.899,76.397,116.899,63.5z"/>
			</g>
		</g>
		<g>
			<g>
				<path fill="#DAE6F1" d="M104.41,208.99l-3.931-3.657c-1.377-1.281-1.455-3.436-0.174-4.813l16.27-17.488
					c-2.556-1.91-4.121-4.918-4.121-8.181v-11.177c-5.221,2.846-11.195,4.465-17.53,4.465c-6.334,0-12.309-1.62-17.53-4.465v11.177
					c0,3.263-1.565,6.271-4.121,8.181l16.271,17.488c1.281,1.377,1.203,3.531-0.174,4.813l-3.931,3.657
					c-3.085,2.87-7.057,3.916-10.801,3.401l3.959,41.109h32.655l3.959-41.109C111.467,212.906,107.495,211.859,104.41,208.99z"/>
			</g>
		</g>
		<g>
			<g>
				<path fill="#3CAADC" d="M71.897,183.915c-0.075,0.039-0.141,0.089-0.217,0.126l-9.112,4.493
					c-2.037,1.004-4.174,1.79-6.376,2.344c-0.13,0.033-18.907,4.773-19.026,4.803l-7.325,1.849
					c-6.414,1.615-11.032,7.211-11.4,13.815l-1.336,36.719c-0.108,2.97,2.27,5.436,5.242,5.436h56.251L71.897,183.915z"/>
			</g>
		</g>
		<g>
			<g>
				<path fill="#3CAADC" d="M171.41,211.345c-0.368-6.604-4.987-12.2-11.4-13.815l-7.325-1.849c-0.12-0.03-18.897-4.77-19.027-4.803
					c-2.202-0.554-4.339-1.34-6.376-2.344l-9.112-4.493c-0.076-0.037-0.142-0.087-0.216-0.126l-6.701,69.585h56.251
					c2.972,0,5.35-2.466,5.242-5.436L171.41,211.345z"/>
			</g>
		</g>
		<g>
			<g>
				<path fill="#EDF4FC" d="M89.545,200.52l-16.27-17.488c-0.434,0.325-0.888,0.626-1.378,0.883l2.742,28.477
					c3.744,0.515,7.717-0.532,10.801-3.401l3.931-3.657C90.748,204.052,90.826,201.897,89.545,200.52z"/>
			</g>
		</g>
		<g>
			<g>
				<path fill="#EDF4FC" d="M116.576,183.032l-16.27,17.488c-1.281,1.377-1.203,3.531,0.174,4.813l3.931,3.657
					c3.085,2.87,7.057,3.916,10.801,3.401l2.742-28.477C117.465,183.658,117.01,183.356,116.576,183.032z"/>
			</g>
		</g>
		<g>
			<g>
				<path fill="#F9D0B4" d="M127.743,98.205c-3.363-1.093-7.281-3.249-11.678-7.243c-1.027-0.933-2.609-0.856-3.512,0.197
					c-5.613,6.552-25.517,26.428-54.484,18.177v21.948c0,20.27,16.585,36.855,36.855,36.855c20.27,0,36.855-16.585,36.855-36.855
					v-27.884C130.345,101.744,128.995,100.012,127.743,98.205z"/>
			</g>
		</g>
		<g>
			<g>
				<path fill="#F9D0B4" d="M116.576,183.032c-2.556-1.91-4.121-4.918-4.121-8.181v-11.177c-5.221,2.846-11.195,4.465-17.53,4.465
					c-6.334,0-12.309-1.619-17.53-4.465v11.177c0,3.263-1.565,6.271-4.121,8.181l16.27,17.488c0.779,0.837,1.048,1.961,0.836,3.002
					h9.089c-0.212-1.041,0.057-2.165,0.836-3.002L116.576,183.032z"/>
			</g>
		</g>
		<g>
			<g>
				<circle fill="#70D6F9" cx="177.899" cy="63.5" r="61"/>
			</g>
		</g>
		<g>
			<g>
				<path fill="#EDF4FC" d="M215.634,53.5h-75.47c-2.632,0-4.765,2.133-4.765,4.765v48.973c10.986,10.677,25.97,17.262,42.5,17.262
					s31.514-6.585,42.5-17.262V58.265C220.399,55.633,218.266,53.5,215.634,53.5z"/>
			</g>
		</g>
		<g>
			<g>
				<path fill="#3A70BF" d="M203.842,40.5h-51.886c-1.809,0-3.276,1.467-3.276,3.276V53.5h58.438v-9.724
					C207.118,41.967,205.651,40.5,203.842,40.5z"/>
			</g>
		</g>
		<g>
			<g>
				<path fill="#5290DB" d="M177.899,27.958c-3.313,0-6,2.687-6,6V40.5h12v-6.542C183.899,30.645,181.212,27.958,177.899,27.958z"/>
			</g>
		</g>
		<g>
			<g>
				<path fill="#70D6F9" d="M60.172,253.5h18.426l-6.701-69.585c-0.075,0.039-0.141,0.089-0.217,0.126l-9.112,4.493
					c-2.037,1.004-4.174,1.79-6.376,2.344c-0.018,0.005-0.407,0.103-1.046,0.264l-1.948,35.706c-0.091,1.67,0.47,3.31,1.566,4.574
					l8.368,9.656c1.988,2.294,2.107,5.664,0.286,8.092L60.172,253.5z"/>
			</g>
		</g>
		<g>
			<g>
				<path fill="#70D6F9" d="M135.086,231.422c1.095-1.264,1.657-2.904,1.566-4.574l-1.948-35.706
					c-0.639-0.161-1.028-0.259-1.046-0.264c-2.202-0.554-4.339-1.34-6.376-2.344l-9.112-4.493c-0.076-0.037-0.142-0.087-0.216-0.126
					l-6.701,69.585h18.426l-3.247-4.329c-1.821-2.428-1.702-5.798,0.286-8.092L135.086,231.422z"/>
			</g>
		</g>
		<g>
			<g>
				<path d="M148.656,155.974c7.685-12.051,3.931-23.829,1.01-29.778c-0.608-1.238-2.104-1.749-3.346-1.142
					c-1.239,0.608-1.75,2.106-1.142,3.346c3.003,6.116,5.313,15.397-0.737,24.886c-1.339,2.101-1.463,4.726-0.324,6.852
					c2.037,3.801,4.722,11.335-0.185,19.104c-2.464,3.901-6.401,6.896-11.701,8.9c-1.292,0.488-1.942,1.931-1.454,3.223
					c0.378,1,1.329,1.616,2.339,1.616c0.294,0,0.593-0.053,0.884-0.163c6.339-2.396,11.103-6.066,14.16-10.906
					c6.494-10.283,2.418-20.305,0.365-24.136C148.233,157.233,148.283,156.56,148.656,155.974z"/>
			</g>
		</g>
		<g>
			<g>
				<path d="M57.53,188.106c-5.254-2.003-9.16-4.986-11.61-8.865c-4.906-7.769-2.222-15.304-0.185-19.104
					c1.139-2.126,1.015-4.751-0.324-6.851c-6.075-9.528-3.728-18.846-0.689-24.983c0.613-1.237,0.106-2.737-1.131-3.35
					c-1.24-0.614-2.737-0.106-3.35,1.131c-2.956,5.97-6.761,17.79,0.954,29.891c0.374,0.585,0.423,1.259,0.133,1.801
					c-2.053,3.831-6.128,13.854,0.365,24.136c3.041,4.814,7.77,8.47,14.057,10.867c0.293,0.111,0.594,0.165,0.89,0.165
					c1.007,0,1.957-0.613,2.336-1.61C59.467,190.043,58.82,188.599,57.53,188.106z"/>
			</g>
		</g>
		<g>
			<g>
				<path d="M149.533,116.084c-1.381,0-2.5,1.119-2.5,2.5c0,7.105-5.781,12.887-12.887,12.887c-0.283,0-0.562-0.012-0.839-0.033
					c-1.371-0.122-2.579,0.922-2.686,2.3c-0.106,1.376,0.923,2.578,2.3,2.685c0.404,0.031,0.813,0.049,1.225,0.049
					c9.863,0,17.887-8.024,17.887-17.887C152.033,117.203,150.914,116.084,149.533,116.084z"/>
			</g>
		</g>
		<g>
			<g>
				<path d="M49.266,108.793c2.688,1.187,5.42,2.179,8.12,2.947c1.325,0.38,2.711-0.391,3.089-1.72
					c0.378-1.328-0.392-2.711-1.72-3.089c-2.479-0.706-4.992-1.619-7.47-2.713c-2.639-1.166-5.707-0.639-7.816,1.338
					c-3.591,3.367-5.651,8.115-5.651,13.027c0,9.862,8.024,17.887,17.887,17.887c0.614,0,1.24-0.038,1.912-0.115
					c1.372-0.158,2.355-1.397,2.197-2.77c-0.158-1.372-1.396-2.373-2.77-2.197c-0.48,0.055-0.918,0.082-1.34,0.082
					c-7.106,0-12.887-5.781-12.887-12.887c0-3.587,1.446-6.918,4.071-9.38C47.531,108.601,48.464,108.439,49.266,108.793z"/>
			</g>
		</g>
		<g>
			<g>
				<path d="M118.35,51.642c-7.348-3.683-15.229-5.551-23.425-5.551c-29.013,0-52.616,23.604-52.616,52.616v8.731
					c0,1.381,1.119,2.5,2.5,2.5s2.5-1.119,2.5-2.5v-8.731c0-26.256,21.36-47.616,47.616-47.616c7.411,0,14.538,1.689,21.184,5.021
					c1.235,0.616,2.736,0.119,3.355-1.115C120.083,53.763,119.584,52.261,118.35,51.642z"/>
			</g>
		</g>
		<g>
			<g>
				<path d="M107.23,142.613c-1.058-0.887-2.634-0.748-3.522,0.31c-1.938,2.312-5.221,3.691-8.783,3.691
					c-3.562,0-6.846-1.38-8.784-3.691c-0.885-1.058-2.463-1.196-3.522-0.31c-1.058,0.888-1.196,2.464-0.309,3.522
					c2.876,3.431,7.592,5.479,12.615,5.479c5.023,0,9.739-2.048,12.615-5.479C108.427,145.077,108.289,143.5,107.23,142.613z"/>
			</g>
		</g>
		<g>
			<g>
				<ellipse transform="matrix(0.3827 -0.9239 0.9239 0.3827 -44.9948 178.3466)" cx="110.96" cy="122.843" rx="4.775" ry="4.775"/>
			</g>
		</g>
		<g>
			<g>
				<circle cx="78.891" cy="122.843" r="4.775"/>
			</g>
		</g>
		<g>
			<g>
				<path d="M118.072,181.028c-1.952-1.458-3.117-3.767-3.117-6.177v-10.508c0-1.381-1.119-2.5-2.5-2.5s-2.5,1.119-2.5,2.5v10.508
					c0,3.979,1.916,7.785,5.125,10.183c0.449,0.335,0.974,0.497,1.494,0.497c0.762,0,1.514-0.347,2.005-1.004
					C119.405,183.421,119.179,181.854,118.072,181.028z"/>
			</g>
		</g>
		<g>
			<g>
				<path d="M111.253,251H78.598c-1.381,0-2.5,1.119-2.5,2.5s1.119,2.5,2.5,2.5h32.655c1.381,0,2.5-1.119,2.5-2.5
					S112.634,251,111.253,251z"/>
			</g>
		</g>
		<g>
			<g>
				<path d="M77.396,161.688c-1.381,0-2.5,1.119-2.5,2.5v10.664c0,2.41-1.165,4.719-3.117,6.177
					c-1.106,0.826-1.333,2.393-0.507,3.499c0.491,0.657,1.243,1.004,2.005,1.004c0.521,0,1.045-0.162,1.494-0.497
					c3.209-2.396,5.125-6.203,5.125-10.183v-10.664C79.896,162.807,78.776,161.688,77.396,161.688z"/>
			</g>
		</g>
		<g>
			<g>
				<path d="M148.47,225.619c-1.381,0-2.5,1.119-2.5,2.5V252.5c0,1.381,1.119,2.5,2.5,2.5s2.5-1.119,2.5-2.5v-24.381
					C150.97,226.738,149.851,225.619,148.47,225.619z"/>
			</g>
		</g>
		<g>
			<g>
				<path d="M41.381,225.619c-1.381,0-2.5,1.119-2.5,2.5v24.214c0,1.381,1.119,2.5,2.5,2.5s2.5-1.119,2.5-2.5v-24.214
					C43.881,226.738,42.762,225.619,41.381,225.619z"/>
			</g>
		</g>
		<g>
			<g>
				<g>
					<g>
						<path d="M74.385,183.675c-0.08-0.828-0.566-1.563-1.297-1.959c-0.73-0.396-1.612-0.402-2.349-0.018
							c-0.078,0.041-0.154,0.085-0.236,0.136l-9.04,4.458c-1.877,0.925-3.855,1.652-5.88,2.161
							c-0.002,0.001-0.005,0.002-0.007,0.002c-0.159,0.041-9.3,2.348-14.851,3.749l-11.494,2.901
							c-7.515,1.892-12.854,8.362-13.288,16.148l-1.336,36.719c-0.077,2.121,0.692,4.131,2.166,5.658
							c1.473,1.527,3.453,2.369,5.575,2.369h56.251c0.705,0,1.377-0.298,1.851-0.819s0.706-1.219,0.638-1.92L74.385,183.675z
							 M22.347,251c-0.752,0-1.454-0.298-1.976-0.84c-0.522-0.542-0.795-1.254-0.768-2.006l1.334-36.67
							c0.309-5.542,4.132-10.175,9.516-11.53l11.496-2.902c5.495-1.387,14.508-3.662,14.854-3.749
							c2.367-0.596,4.679-1.445,6.872-2.526l6.083-3L75.845,251H22.347z"/>
					</g>
				</g>
			</g>
		</g>
		<g>
			<g>
				<g>
					<g>
						<path d="M173.906,211.205c-0.431-7.737-5.771-14.207-13.284-16.099l-7.325-1.85h-0.001c-0.12-0.03-18.818-4.75-19.028-4.804
							c-2.025-0.509-4.003-1.236-5.88-2.161l-9.038-4.457c-0.076-0.047-0.152-0.092-0.231-0.133
							c-0.737-0.389-1.619-0.382-2.353,0.012c-0.733,0.396-1.221,1.131-1.3,1.961l-6.701,69.586
							c-0.068,0.701,0.164,1.398,0.638,1.92s1.146,0.819,1.851,0.819h56.251c2.122,0,4.102-0.841,5.575-2.369
							c1.474-1.527,2.242-3.537,2.166-5.658L173.906,211.205z M169.48,250.16c-0.522,0.542-1.224,0.84-1.976,0.84h-53.499
							l6.088-63.224l6.083,3c2.193,1.081,4.505,1.931,6.864,2.524c0.13,0.033,18.913,4.773,19.033,4.804l7.326,1.851
							c5.382,1.354,9.205,5.987,9.512,11.48l1.336,36.719C170.275,248.906,170.002,249.619,169.48,250.16z"/>
					</g>
				</g>
			</g>
		</g>
		<g>
			<g>
				<path d="M91.375,198.817l-16.271-17.488c-0.87-0.936-2.305-1.064-3.327-0.3c-0.377,0.282-0.719,0.502-1.043,0.672
					c-1.222,0.642-1.693,2.153-1.051,3.376c0.603,1.149,1.976,1.636,3.153,1.154l14.878,15.992c0.222,0.238,0.247,0.509,0.241,0.648
					c-0.005,0.14-0.049,0.408-0.288,0.631l-3.931,3.656c-2.167,2.017-4.982,3.028-7.953,2.836c-1.373-0.078-2.566,0.958-2.653,2.337
					c-0.087,1.378,0.959,2.565,2.337,2.653c0.344,0.021,0.686,0.032,1.027,0.032c3.968,0,7.717-1.47,10.648-4.198l3.931-3.656
					c1.155-1.074,1.822-2.534,1.879-4.11C93.01,201.476,92.449,199.972,91.375,198.817z"/>
			</g>
		</g>
		<g>
			<g>
				<path d="M119.117,181.702c-0.326-0.172-0.668-0.392-1.044-0.673c-1.023-0.765-2.457-0.635-3.327,0.3l-16.27,17.488
					c-1.074,1.154-1.635,2.658-1.578,4.235c0.057,1.576,0.724,3.036,1.879,4.11l3.93,3.656c2.921,2.718,6.691,4.198,10.664,4.198
					c0.168,0,0.337-0.003,0.507-0.008c1.38-0.044,2.463-1.198,2.419-2.578c-0.043-1.379-1.207-2.452-2.578-2.42
					c-2.838,0.1-5.534-0.924-7.607-2.853l-3.93-3.656c-0.239-0.223-0.283-0.491-0.288-0.631c-0.005-0.14,0.02-0.41,0.242-0.648
					l14.878-15.992c1.176,0.483,2.549-0.005,3.152-1.153C120.809,183.855,120.339,182.344,119.117,181.702z"/>
			</g>
		</g>
		<g>
			<g>
				<path d="M131.781,101.25c-1.381,0-2.5,1.119-2.5,2.5v27.535c0,18.943-15.412,34.354-34.355,34.354
					c-18.943,0-34.355-15.411-34.355-34.354v-18.736c28.723,6.404,48.391-13.357,53.814-19.736c4.09,3.716,8.229,6.298,12.3,7.676
					c1.305,0.442,2.727-0.259,3.169-1.567c0.442-1.308-0.259-2.727-1.567-3.169c-3.417-1.155-6.962-3.39-10.541-6.641
					c-0.995-0.903-2.333-1.383-3.662-1.289c-1.339,0.083-2.557,0.691-3.43,1.71c-5.2,6.068-24.311,25.258-51.9,17.399
					c-0.755-0.215-1.565-0.063-2.191,0.409c-0.626,0.473-0.994,1.211-0.994,1.995v21.949c0,21.7,17.655,39.354,39.355,39.354
					c21.701,0,39.355-17.654,39.355-39.354V103.75C134.281,102.369,133.162,101.25,131.781,101.25z"/>
			</g>
		</g>
		<g>
			<g>
				<path d="M98.75,201.022h-7.687c-1.381,0-2.5,1.119-2.5,2.5s1.119,2.5,2.5,2.5h7.687c1.381,0,2.5-1.119,2.5-2.5
					S100.13,201.022,98.75,201.022z"/>
			</g>
		</g>
		<g>
			<g>
				<path d="M94.925,218.654c-1.381,0-2.5,1.119-2.5,2.5v31.159c0,1.381,1.119,2.5,2.5,2.5s2.5-1.119,2.5-2.5v-31.159
					C97.425,219.773,96.306,218.654,94.925,218.654z"/>
			</g>
		</g>
		<g>
			<g>
				<path fill="#87D147" d="M63.906,22.1h-2.4v-2.3c0-1.8-1.4-3.2-3.2-3.2c-1.7,0-3.2,1.4-3.2,3.1v2.4h-2.3c-1.8,0-3.2,1.4-3.2,3.2
					c-0.1,1.7,1.3,3.2,3.2,3.2h2.3v2.3c0,1.8,1.4,3.2,3.2,3.2c1.7,0,3.2-1.4,3.2-3.1v-2.4h2.3c1.8,0,3.2-1.4,3.2-3.2
					C67.006,23.6,65.606,22.1,63.906,22.1z"/>
			</g>
		</g>
		<g>
			<g>
				<path fill="#F5C84C" d="M90.206,0c-1.878,0-3.4,1.522-3.4,3.4c0,1.878,1.522,3.4,3.4,3.4s3.4-1.522,3.4-3.4
					C93.606,1.522,92.083,0,90.206,0z"/>
			</g>
		</g>
		<g>
			<g>
				<path fill="#FC657E" d="M30.15,164.175c-3.1-0.6-5.6-3-6.2-6.1c0-0.1-0.3-0.1-0.3,0c-0.6,3.1-3.1,5.5-6.2,6.1
					c-0.1,0-0.1,0.2,0,0.3c3.1,0.6,5.6,3,6.2,6.1c0,0.1,0.3,0.1,0.3,0c0.6-3.1,3.1-5.5,6.2-6.1
					C30.25,164.375,30.25,164.175,30.15,164.175z"/>
			</g>
		</g>
		<g>
			<g>
				<path fill="#70D6F9" d="M195.369,207c-1.878,0-3.4,1.522-3.4,3.4c0,1.878,1.522,3.4,3.4,3.4c1.878,0,3.4-1.522,3.4-3.4
					C198.769,208.522,197.246,207,195.369,207z"/>
			</g>
		</g>
		<g>
			<g>
				<path fill="#F5C84C" d="M220.15,177.2c-4.5-0.8-8-4.3-8.9-8.7c0-0.2-0.4-0.2-0.4,0c-0.9,4.4-4.4,7.9-8.9,8.7
					c-0.2,0-0.2,0.3,0,0.4c4.5,0.8,8,4.3,8.9,8.7c0,0.2,0.4,0.2,0.4,0c0.9-4.4,4.4-7.9,8.9-8.7
					C220.35,177.5,220.35,177.2,220.15,177.2z"/>
			</g>
		</g>
		<g>
			<g>
				<g>
					<g>
						<path d="M177.899,0c-35.014,0-63.5,28.486-63.5,63.5s28.486,63.5,63.5,63.5s63.5-28.486,63.5-63.5S212.913,0,177.899,0z
							 M177.899,122c-32.257,0-58.5-26.243-58.5-58.5S145.642,5,177.899,5s58.5,26.243,58.5,58.5S210.156,122,177.899,122z"/>
					</g>
				</g>
			</g>
		</g>
		<g>
			<g>
				<path d="M206.191,67.741h-56.585c-1.381,0-2.5,1.119-2.5,2.5s1.119,2.5,2.5,2.5h56.585c1.381,0,2.5-1.119,2.5-2.5
					S207.572,67.741,206.191,67.741z"/>
			</g>
		</g>
		<g>
			<g>
				<path d="M206.191,78.285h-56.585c-1.381,0-2.5,1.119-2.5,2.5s1.119,2.5,2.5,2.5h56.585c1.381,0,2.5-1.119,2.5-2.5
					S207.572,78.285,206.191,78.285z"/>
			</g>
		</g>
		<g>
			<g>
				<path d="M206.191,99.373h-56.585c-1.381,0-2.5,1.119-2.5,2.5s1.119,2.5,2.5,2.5h56.585c1.381,0,2.5-1.119,2.5-2.5
					S207.572,99.373,206.191,99.373z"/>
			</g>
		</g>
		<g>
			<g>
				<path d="M191.191,109.917h-26.585c-1.381,0-2.5,1.119-2.5,2.5s1.119,2.5,2.5,2.5h26.585c1.381,0,2.5-1.119,2.5-2.5
					S192.572,109.917,191.191,109.917z"/>
			</g>
		</g>
		<g>
			<g>
				<path d="M206.191,88.829h-56.585c-1.381,0-2.5,1.119-2.5,2.5s1.119,2.5,2.5,2.5h56.585c1.381,0,2.5-1.119,2.5-2.5
					S207.572,88.829,206.191,88.829z"/>
			</g>
		</g>
		<g>
			<g>
				<path d="M177.899,12c-1.381,0-2.5,1.119-2.5,2.5v13c0,1.381,1.119,2.5,2.5,2.5s2.5-1.119,2.5-2.5v-13
					C180.399,13.119,179.28,12,177.899,12z"/>
			</g>
		</g>
		<g>
			<g>
				<path d="M215.634,51h-75.47c-4.006,0-7.265,3.259-7.265,7.265v48.517c0,1.381,1.119,2.5,2.5,2.5s2.5-1.119,2.5-2.5V58.265
					c0-1.249,1.016-2.265,2.265-2.265h75.47c1.249,0,2.265,1.016,2.265,2.265v48.549c0,1.381,1.119,2.5,2.5,2.5s2.5-1.119,2.5-2.5
					V58.265C222.899,54.259,219.64,51,215.634,51z"/>
			</g>
		</g>
		<g>
			<g>
				<path d="M203.842,38h-51.886c-3.185,0-5.776,2.591-5.776,5.775v8.767c0,1.381,1.119,2.5,2.5,2.5s2.5-1.119,2.5-2.5v-8.767
					c0-0.428,0.348-0.775,0.776-0.775h51.886c0.428,0,0.776,0.348,0.776,0.775v8.912c0,1.381,1.119,2.5,2.5,2.5s2.5-1.119,2.5-2.5
					v-8.912C209.618,40.591,207.027,38,203.842,38z"/>
			</g>
		</g>
		<g>
			<g>
				<path d="M177.899,25.458c-4.687,0-8.5,3.813-8.5,8.5v5.292c0,1.381,1.119,2.5,2.5,2.5s2.5-1.119,2.5-2.5v-5.292
					c0-1.93,1.57-3.5,3.5-3.5s3.5,1.57,3.5,3.5v5.229c0,1.381,1.119,2.5,2.5,2.5s2.5-1.119,2.5-2.5v-5.229
					C186.399,29.271,182.586,25.458,177.899,25.458z"/>
			</g>
		</g>
		<g>
			<g>
				<path d="M65.022,239.44l-8.369-9.656c-0.674-0.777-1.015-1.772-0.958-2.801l1.905-34.932c0.075-1.378-0.981-2.557-2.36-2.632
					c-1.38-0.072-2.558,0.98-2.632,2.36l-1.905,34.931c-0.127,2.33,0.644,4.585,2.172,6.349l8.369,9.656
					c1.209,1.395,1.282,3.479,0.175,4.955l-2.916,3.887c-0.829,1.104-0.604,2.671,0.5,3.5c0.45,0.337,0.976,0.5,1.498,0.5
					c0.76,0,1.511-0.345,2.002-1l2.916-3.887C67.929,247.324,67.762,242.602,65.022,239.44z"/>
			</g>
		</g>
		<g>
			<g>
				<path d="M136.975,233.06c1.528-1.763,2.3-4.017,2.173-6.348l-1.903-34.892c-0.075-1.378-1.238-2.449-2.632-2.36
					c-1.378,0.075-2.435,1.254-2.36,2.632l1.903,34.892c0.056,1.028-0.285,2.023-0.959,2.801l-8.369,9.656
					c-2.739,3.161-2.906,7.884-0.396,11.23l2.947,3.93c0.491,0.655,1.242,1,2.002,1c0.522,0,1.048-0.163,1.498-0.5
					c1.104-0.828,1.329-2.396,0.5-3.5l-2.947-3.93c-1.107-1.477-1.034-3.561,0.175-4.955L136.975,233.06z"/>
			</g>
		</g>
	</g>
</g>
<g id="Layer_67">
</g>
<g id="Layer_68">
</g>
<g id="Layer_69">
</g>
<g id="Layer_70">
</g>
<g id="Layer_71">
</g>
<g id="Layer_72">
</g>
<g id="Layer_73">
</g>
<g id="Layer_74">
</g>
<g id="Layer_75">
</g>
<g id="Layer_76">
</g>
<g id="Layer_77">
</g>
<g id="Layer_78">
</g>
<g id="Layer_79">
</g>
<g id="Layer_80">
</g>
</svg>
