<?xml version="1.0" encoding="utf-8"?>
<!-- Generator: Adobe Illustrator 24.0.0, SVG Export Plug-In . SVG Version: 6.00 Build 0)  -->
<svg version="1.1" xmlns="http://www.w3.org/2000/svg" xmlns:xlink="http://www.w3.org/1999/xlink" x="0px" y="0px"
	 viewBox="0 0 256 256" enable-background="new 0 0 256 256" xml:space="preserve">
<g id="Layer_1">
</g>
<g id="Layer_2">
</g>
<g id="Layer_3">
</g>
<g id="Layer_4">
</g>
<g id="Layer_5">
</g>
<g id="Layer_6">
</g>
<g id="Layer_7">
</g>
<g id="Layer_8">
</g>
<g id="Layer_9">
</g>
<g id="Layer_10">
</g>
<g id="Layer_11">
</g>
<g id="Layer_12">
</g>
<g id="Layer_13">
</g>
<g id="Layer_14">
</g>
<g id="Layer_15">
</g>
<g id="Layer_16">
</g>
<g id="Layer_17">
</g>
<g id="Layer_18">
</g>
<g id="Layer_19">
</g>
<g id="Layer_20">
</g>
<g id="Layer_21">
</g>
<g id="Layer_22">
</g>
<g id="Layer_23">
</g>
<g id="Layer_24">
</g>
<g id="Layer_25">
</g>
<g id="Layer_26">
</g>
<g id="Layer_27">
</g>
<g id="Layer_28">
</g>
<g id="Layer_29">
</g>
<g id="Layer_30">
</g>
<g id="Layer_31">
</g>
<g id="Layer_32">
</g>
<g id="Layer_33">
</g>
<g id="Layer_34">
</g>
<g id="Layer_35">
</g>
<g id="Layer_36">
</g>
<g id="Layer_37">
</g>
<g id="Layer_38">
</g>
<g id="Layer_39">
</g>
<g id="Layer_40">
</g>
<g id="Layer_41">
</g>
<g id="Layer_42">
	<g>
		<g>
			<g>
				<path fill="#F9D0B4" d="M62.384,104.186c-1.37-1.436-3.596-1.568-5.157-0.343c-2.468,1.938-6.739,4.332-12.771,4.332
					c-6.047,0-10.34-2.406-12.819-4.346c-1.56-1.221-3.782-1.084-5.149,0.35l-0.007,0.008c-1.92,2.014-2.992,4.69-2.992,7.473
					v17.577c0,11.519,9.425,20.944,20.944,20.944c11.519,0,20.944-9.425,20.944-20.944v-17.577
					C65.376,108.875,64.305,106.199,62.384,104.186z"/>
			</g>
		</g>
		<g>
			<g>
				<path fill="#F9D0B4" d="M66.72,113.274c-0.458,0-0.906,0.039-1.344,0.106v15.855c0,0.472-0.022,0.94-0.053,1.405
					c0.456,0.073,0.92,0.122,1.397,0.122c4.829,0,8.744-3.915,8.744-8.744S71.55,113.274,66.72,113.274z"/>
			</g>
		</g>
		<g>
			<g>
				<path fill="#F9D0B4" d="M23.489,129.235V113.38c-0.438-0.068-0.886-0.106-1.344-0.106c-4.829,0-8.744,3.915-8.744,8.744
					s3.915,8.744,8.744,8.744c0.477,0,0.941-0.049,1.397-0.122v0C23.511,130.175,23.489,129.708,23.489,129.235z"/>
			</g>
		</g>
		<g>
			<g>
				<path fill="#5B5D60" d="M65.298,95.408c-0.701,0-1.309-0.541-1.319-1.242c-0.161-11.67-13.487-13.863-26.759-11.571
					c-11.252,1.943-19.476,11.701-19.476,23.119v8.756c1.294-0.756,2.795-1.197,4.402-1.197c0.458,0,0.906,0.038,1.344,0.106v-1.722
					c0-2.783,1.071-5.459,2.992-7.473l0.007-0.008c1.367-1.433,3.589-1.57,5.149-0.35c2.479,1.94,6.772,4.346,12.819,4.346
					c6.032,0,10.303-2.395,12.771-4.332c1.561-1.225,3.788-1.093,5.157,0.343c1.921,2.014,2.992,4.69,2.992,7.473v1.722
					c0.438-0.068,0.886-0.106,1.344-0.106c1.626,0,3.143,0.452,4.448,1.225v-7.189C71.168,96.86,67.395,95.408,65.298,95.408z"/>
			</g>
		</g>
		<g>
			<g>
				<path fill="#70D6F9" d="M80.131,164.629l-11.339-2.854c-6.01-1.513-10.736-4.105-10.675-4.074
					c-2.471-1.218-4.036-3.734-4.036-6.489v-3.408c-2.892,1.514-6.174,2.376-9.649,2.376s-6.756-0.863-9.649-2.376v3.408
					c0,2.751-1.56,5.269-4.028,6.485c-3.342,1.648-6.258,2.964-10.683,4.078l-11.339,2.854c-3.508,0.883-6.034,3.944-6.235,7.555h0
					c27.49,7.211,56.375,7.211,83.865,0h0C86.164,168.573,83.638,165.512,80.131,164.629z"/>
			</g>
		</g>
		<g>
			<g>
				<path fill="#5290DB" d="M247.265,164.629l-11.339-2.854c-6.01-1.513-10.736-4.105-10.675-4.074
					c-2.471-1.218-4.036-3.734-4.036-6.489v-3.408c-2.892,1.514-6.174,2.376-9.649,2.376h0c-3.475,0-6.756-0.863-9.649-2.376v3.408
					c0,2.751-1.56,5.269-4.028,6.485c-3.342,1.648-6.257,2.964-10.683,4.078l-11.339,2.854c-3.508,0.883-6.034,3.944-6.235,7.555h0
					c27.49,7.211,56.375,7.211,83.865,0h0C253.299,168.573,250.773,165.512,247.265,164.629z"/>
			</g>
		</g>
		<g>
			<g>
				<path fill="#F9D0B4" d="M229.519,104.186c-1.369-1.436-3.596-1.568-5.157-0.343c-2.468,1.938-6.739,4.332-12.771,4.332
					c-6.047,0-10.34-2.406-12.819-4.346c-1.56-1.221-3.782-1.084-5.149,0.35l-0.007,0.008c-1.921,2.014-2.992,4.69-2.992,7.473
					v17.577c0,11.519,9.425,20.944,20.944,20.944h0c11.519,0,20.944-9.425,20.944-20.944v-17.577
					C232.511,108.875,231.439,106.199,229.519,104.186z"/>
			</g>
		</g>
		<g>
			<g>
				<path fill="#F9D0B4" d="M233.855,113.274c-0.458,0-0.906,0.039-1.344,0.106v15.855c0,0.472-0.022,0.94-0.053,1.405
					c0.456,0.073,0.92,0.122,1.397,0.122c4.829,0,8.744-3.915,8.744-8.744S238.684,113.274,233.855,113.274z"/>
			</g>
		</g>
		<g>
			<g>
				<path fill="#F9D0B4" d="M190.624,129.235V113.38c-0.438-0.068-0.886-0.106-1.344-0.106c-4.829,0-8.744,3.915-8.744,8.744
					s3.915,8.744,8.744,8.744c0.477,0,0.941-0.049,1.397-0.122v0C190.645,130.175,190.624,129.708,190.624,129.235z"/>
			</g>
		</g>
		<g>
			<g>
				<path fill="#FCE4BE" d="M232.433,95.408c-0.701,0-1.309-0.541-1.319-1.242c-0.161-11.67-13.487-13.863-26.759-11.571
					c-11.252,1.943-19.476,11.701-19.476,23.119v8.756c1.294-0.756,2.795-1.197,4.402-1.197c0.458,0,0.906,0.038,1.344,0.106v-1.722
					c0-2.783,1.071-5.459,2.992-7.473l0.007-0.008c1.367-1.433,3.589-1.57,5.149-0.35c2.479,1.94,6.772,4.346,12.819,4.346
					c6.032,0,10.303-2.395,12.771-4.332c1.561-1.225,3.788-1.093,5.157,0.343c1.921,2.014,2.992,4.69,2.992,7.473v1.722
					c0.438-0.068,0.886-0.106,1.344-0.106c1.626,0,3.143,0.452,4.448,1.225v-7.189C238.303,96.86,234.529,95.408,232.433,95.408z"/>
			</g>
		</g>
		<g>
			<g>
				<path fill="#F9D0B4" d="M148.751,31.391c-0.426,0-0.843,0.036-1.251,0.099v14.762c0,0.44-0.02,0.875-0.049,1.308
					c0.424,0.068,0.857,0.114,1.3,0.114c4.496,0,8.141-3.645,8.141-8.141C156.892,35.035,153.247,31.391,148.751,31.391z"/>
			</g>
		</g>
		<g>
			<g>
				<path fill="#F9D0B4" d="M146.3,29.013c-1.973-0.457-4.369-1.6-7.115-4.095c-0.543-0.494-1.381-0.453-1.858,0.104
					c-2.97,3.466-13.5,13.983-28.826,9.617v11.612c0,10.725,8.775,19.499,19.499,19.499c10.725,0,19.499-8.775,19.499-19.499V30.498
					C147.499,29.782,146.998,29.174,146.3,29.013z"/>
			</g>
		</g>
		<g>
			<g>
				<path fill="#F9D0B4" d="M108.501,46.251V34.639c-1.339-0.382-2.714-0.875-4.124-1.498c-0.909-0.401-1.971-0.217-2.696,0.463
					c-1.582,1.483-2.572,3.587-2.572,5.927c0,4.496,3.645,8.141,8.141,8.141c0.444,0,0.876-0.045,1.3-0.114
					C108.521,47.126,108.501,46.691,108.501,46.251z"/>
			</g>
		</g>
		<g>
			<g>
				<path fill="#754E34" d="M128,2.5c-14.584,0-26.516,11.932-26.516,26.516v4.792c0.066-0.067,0.127-0.138,0.196-0.203
					c0.725-0.68,1.787-0.865,2.696-0.463c1.41,0.623,2.785,1.116,4.124,1.498c15.326,4.365,25.856-6.151,28.826-9.617
					c0.477-0.557,1.315-0.598,1.858-0.104c2.746,2.495,5.142,3.638,7.115,4.095c0.698,0.162,1.199,0.769,1.199,1.485v0.992
					c0.408-0.063,0.825-0.099,1.251-0.099c2.253,0,4.291,0.915,5.765,2.394v-4.769C154.516,14.432,142.583,2.5,128,2.5z"/>
			</g>
		</g>
		<g>
			<g>
				<path fill="#754E34" d="M155.313,58.603c3.724-5.841,1.965-11.528,0.323-14.74c-1.442,2.286-3.982,3.81-6.885,3.81
					c-0.444,0-0.876-0.045-1.3-0.114c-0.458,6.823-4.461,12.714-10.175,15.829v5.914c0,1.893,0.993,3.625,2.585,4.606
					c0.638,0.393-0.172-0.068,5.26,2.634c0.731,0.36,1.696,0.742,2.44,0.975c0.148,0.046,0.297,0.087,0.446,0.129
					c2.87-1.05,5.401-2.718,7.041-5.314c3.007-4.761,1.252-9.374,0.146-11.438C154.803,60.167,154.87,59.297,155.313,58.603z"/>
			</g>
		</g>
		<g>
			<g>
				<path fill="#754E34" d="M108.55,47.559c-0.424,0.068-0.857,0.114-1.3,0.114c-2.902,0-5.443-1.524-6.884-3.81
					c-1.643,3.212-3.402,8.899,0.322,14.74c0.443,0.694,0.51,1.564,0.121,2.289c-1.107,2.065-2.861,6.677,0.146,11.438
					c1.64,2.596,4.172,4.264,7.041,5.314c0.149-0.042,0.298-0.083,0.446-0.129c0.744-0.233,1.709-0.615,2.44-0.975
					c5.784-2.877,4.67-2.27,5.26-2.634c1.591-0.98,2.585-2.713,2.585-4.606v-5.914C113.011,60.274,109.008,54.382,108.55,47.559z"/>
			</g>
		</g>
		<g>
			<g>
				<path fill="#F9D0B4" d="M148.751,193.838c-0.426,0-0.843,0.036-1.251,0.099v14.762c0,0.44-0.02,0.875-0.049,1.308
					c0.424,0.068,0.857,0.114,1.3,0.114c4.496,0,8.141-3.645,8.141-8.141C156.892,197.483,153.247,193.838,148.751,193.838z"/>
			</g>
		</g>
		<g>
			<g>
				<path fill="#F9D0B4" d="M146.3,191.46c-1.973-0.457-4.369-1.6-7.115-4.095c-0.543-0.494-1.381-0.453-1.858,0.104
					c-2.97,3.466-13.5,13.983-28.826,9.617v11.612c0,10.725,8.775,19.499,19.499,19.499c10.725,0,19.499-8.775,19.499-19.499
					v-15.753C147.499,192.229,146.998,191.622,146.3,191.46z"/>
			</g>
		</g>
		<g>
			<g>
				<path fill="#F9D0B4" d="M108.501,208.699v-11.612c-1.339-0.382-2.714-0.875-4.124-1.498c-0.909-0.402-1.971-0.217-2.696,0.463
					c-1.582,1.483-2.572,3.587-2.572,5.927c0,4.496,3.645,8.141,8.141,8.141c0.444,0,0.876-0.045,1.3-0.113
					C108.521,209.574,108.501,209.139,108.501,208.699z"/>
			</g>
		</g>
		<g>
			<g>
				<path fill="#FCA265" d="M128,164.947c-14.584,0-26.516,11.932-26.516,26.516v4.792c0.066-0.067,0.127-0.138,0.196-0.203
					c0.725-0.68,1.787-0.865,2.696-0.463c1.41,0.623,2.785,1.116,4.124,1.498c15.326,4.365,25.856-6.151,28.826-9.617
					c0.477-0.557,1.315-0.598,1.858-0.104c2.746,2.495,5.142,3.638,7.115,4.095c0.698,0.162,1.199,0.769,1.199,1.485v0.992
					c0.408-0.063,0.825-0.099,1.251-0.099c2.253,0,4.291,0.915,5.765,2.394v-4.769C154.516,176.879,142.583,164.947,128,164.947z"/>
			</g>
		</g>
		<g>
			<g>
				<path fill="#FC657E" d="M162.435,243.748l-3.876-0.978c-0.363-0.092-9.591-2.421-10.067-2.541
					c-1.165-0.293-2.296-0.709-3.373-1.24l-4.821-2.377c-1.851-0.913-3.023-2.798-3.023-4.862v-5.914
					c-2.762,1.506-5.923,2.363-9.275,2.363c-3.351,0-6.513-0.857-9.275-2.363v5.914c0,2.064-1.172,3.949-3.024,4.862l-4.821,2.377
					c-1.078,0.531-2.208,0.947-3.373,1.24c-0.069,0.017-10.003,2.525-10.067,2.541l-3.876,0.978
					c-3.393,0.854-5.837,3.815-6.031,7.309h0c26.582,6.531,54.35,6.531,80.933,0h0C168.272,247.563,165.828,244.602,162.435,243.748
					z"/>
			</g>
		</g>
		<g>
			<g>
				<path fill="#F5C84C" d="M162.435,81.301l-3.876-0.978c-0.363-0.092-9.591-2.421-10.067-2.541
					c-1.165-0.293-2.296-0.709-3.373-1.24l-4.821-2.377c-1.851-0.913-3.023-2.798-3.023-4.862v-5.914
					c-2.762,1.506-5.923,2.363-9.275,2.363c-3.351,0-6.513-0.857-9.275-2.363v5.914c0,2.064-1.172,3.949-3.024,4.862l-4.821,2.377
					c-1.078,0.531-2.208,0.947-3.373,1.24c-0.069,0.017-10.003,2.525-10.067,2.541l-3.876,0.978
					c-3.393,0.854-5.837,3.815-6.031,7.309h0c26.582,6.531,54.35,6.531,80.933,0h0C168.272,85.116,165.828,82.155,162.435,81.301z"
					/>
			</g>
		</g>
		<g>
			<g>
				<path fill="#FCA265" d="M155.313,221.05c3.724-5.841,1.965-11.528,0.323-14.74c-1.442,2.286-3.982,3.81-6.885,3.81
					c-0.444,0-0.876-0.045-1.3-0.114c-0.458,6.823-4.461,12.714-10.175,15.829v5.914c0,1.893,0.993,3.625,2.585,4.606
					c0.638,0.393-0.172-0.068,5.26,2.634c0.731,0.36,1.696,0.742,2.44,0.975c0.148,0.046,0.297,0.087,0.446,0.129
					c2.87-1.05,5.401-2.718,7.041-5.314c3.007-4.761,1.252-9.374,0.146-11.438C154.803,222.614,154.87,221.744,155.313,221.05z"/>
			</g>
		</g>
		<g>
			<g>
				<path fill="#FCA265" d="M108.55,210.007c-0.424,0.068-0.857,0.114-1.3,0.114c-2.902,0-5.443-1.524-6.884-3.81
					c-1.643,3.212-3.402,8.899,0.322,14.74c0.443,0.694,0.51,1.563,0.121,2.289c-1.107,2.065-2.861,6.677,0.146,11.438
					c1.64,2.597,4.172,4.264,7.041,5.314c0.149-0.042,0.298-0.083,0.446-0.129c0.744-0.233,1.709-0.615,2.44-0.975
					c5.784-2.877,4.67-2.27,5.26-2.634c1.591-0.98,2.585-2.713,2.585-4.606v-5.914C113.011,222.721,109.008,216.829,108.55,210.007z
					"/>
			</g>
		</g>
		<g>
			<g>
				<path fill="#9BE5F9" d="M58.117,157.7c-0.495-0.244-0.942-0.552-1.358-0.892l-8.403,9.621c-0.659,0.755-0.582,1.901,0.173,2.56
					l5.469,4.777c0.755,0.659,1.901,0.582,2.56-0.173l10.691-12.24C61.995,159.826,58.061,157.673,58.117,157.7z"/>
			</g>
		</g>
		<g>
			<g>
				<path fill="#9BE5F9" d="M40.51,166.429l-8.403-9.621c-0.417,0.34-0.864,0.648-1.358,0.892c-2.932,1.446-5.539,2.636-9.126,3.659
					l10.686,12.234c0.659,0.755,1.805,0.832,2.56,0.173l5.469-4.777C41.092,168.33,41.169,167.184,40.51,166.429z"/>
			</g>
		</g>
		<g>
			<g>
				<path fill="#F9D0B4" d="M54.081,151.211v-3.409c-2.893,1.514-6.174,2.376-9.649,2.376h0c-3.475,0-6.756-0.862-9.649-2.376v3.409
					c0,2.203-1.012,4.241-2.677,5.597l8.403,9.621c0.251,0.287,0.393,0.631,0.434,0.982h6.977c0.041-0.352,0.184-0.695,0.434-0.982
					l8.403-9.621C55.094,155.452,54.081,153.414,54.081,151.211z"/>
			</g>
		</g>
		<g>
			<g>
				<path fill="#6CADEF" d="M225.252,157.7c-0.495-0.244-0.942-0.552-1.358-0.892l-8.403,9.621c-0.659,0.755-0.582,1.901,0.173,2.56
					l5.469,4.777c0.755,0.659,1.901,0.582,2.56-0.173l10.691-12.24C229.129,159.826,225.195,157.673,225.252,157.7z"/>
			</g>
		</g>
		<g>
			<g>
				<path fill="#6CADEF" d="M207.644,166.429l-8.403-9.621c-0.417,0.34-0.864,0.648-1.358,0.892
					c-2.932,1.446-5.539,2.636-9.126,3.659l10.686,12.234c0.659,0.755,1.805,0.832,2.56,0.173l5.469-4.777
					C208.226,168.33,208.304,167.184,207.644,166.429z"/>
			</g>
		</g>
		<g>
			<g>
				<path fill="#F9D0B4" d="M221.216,151.211v-3.409c-2.893,1.514-6.174,2.376-9.649,2.376h0c-3.475,0-6.756-0.862-9.649-2.376
					v3.409c0,2.203-1.012,4.241-2.677,5.597l8.403,9.621c0.251,0.287,0.393,0.631,0.434,0.982h6.977
					c0.041-0.352,0.184-0.695,0.434-0.982l8.403-9.621C222.228,155.452,221.216,153.414,221.216,151.211z"/>
			</g>
		</g>
		<g>
			<g>
				<path fill="#FCDD86" d="M122.799,83.903l-8.443-9.075l-3.475,1.713c-1.078,0.531-2.208,0.947-3.373,1.24
					c-0.026,0.007-1.495,0.377-3.302,0.833l3.646,7.872c2.25,4.857,8.586,6.101,12.506,2.455l2.339-2.176
					C123.515,86.004,123.561,84.722,122.799,83.903z"/>
			</g>
		</g>
		<g>
			<g>
				<path fill="#FCDD86" d="M148.493,77.781c-1.165-0.293-2.296-0.709-3.373-1.24l-3.475-1.713l-8.443,9.075
					c-0.762,0.819-0.716,2.101,0.103,2.863l2.339,2.176c3.919,3.646,10.256,2.402,12.506-2.455l3.646-7.872
					C150.083,78.182,148.671,77.826,148.493,77.781z"/>
			</g>
		</g>
		<g>
			<g>
				<path fill="#F9D0B4" d="M140.299,74.164c-1.851-0.913-3.024-2.798-3.024-4.862v-5.913c-2.762,1.506-5.923,2.363-9.275,2.363
					c-3.351,0-6.513-0.857-9.275-2.363v5.913c0,2.064-1.172,3.949-3.024,4.862l-1.346,0.664l8.443,9.075
					c0.253,0.272,0.409,0.596,0.485,0.934h9.433c0.076-0.338,0.232-0.663,0.485-0.934l8.443-9.075L140.299,74.164z"/>
			</g>
		</g>
		<g>
			<g>
				<path fill="#F98FA6" d="M122.799,246.35l-8.443-9.075l-3.475,1.713c-1.078,0.531-2.208,0.947-3.373,1.24
					c-0.026,0.007-1.495,0.377-3.302,0.833l3.646,7.872c2.25,4.857,8.586,6.101,12.506,2.455l2.339-2.176
					C123.515,248.451,123.561,247.169,122.799,246.35z"/>
			</g>
		</g>
		<g>
			<g>
				<path fill="#F98FA6" d="M148.493,240.229c-1.165-0.293-2.296-0.709-3.373-1.24l-3.475-1.713l-8.443,9.075
					c-0.762,0.819-0.716,2.101,0.103,2.863l2.339,2.176c3.919,3.646,10.256,2.402,12.506-2.455l3.646-7.872
					C150.083,240.63,148.671,240.273,148.493,240.229z"/>
			</g>
		</g>
		<g>
			<g>
				<path fill="#F9D0B4" d="M140.299,236.611c-1.851-0.913-3.024-2.798-3.024-4.862v-5.913c-2.762,1.506-5.923,2.363-9.275,2.363
					c-3.351,0-6.513-0.857-9.275-2.363v5.913c0,2.064-1.172,3.949-3.024,4.862l-1.346,0.664l8.443,9.075
					c0.253,0.272,0.409,0.596,0.485,0.934h9.433c0.076-0.338,0.232-0.663,0.485-0.934l8.443-9.075L140.299,236.611z"/>
			</g>
		</g>
		<g>
			<g>
				<path fill="#70D6F9" d="M37.906,225.1h-2.4v-2.3c0-1.8-1.4-3.2-3.2-3.2c-1.7,0-3.2,1.4-3.2,3.1v2.4h-2.3c-1.8,0-3.2,1.4-3.2,3.2
					c-0.1,1.7,1.3,3.2,3.2,3.2h2.3v2.3c0,1.8,1.4,3.2,3.2,3.2c1.7,0,3.2-1.4,3.2-3.1v-2.4h2.3c1.8,0,3.2-1.4,3.2-3.2
					C41.006,226.6,39.606,225.1,37.906,225.1z"/>
			</g>
		</g>
		<g>
			<g>
				<path fill="#F5C84C" d="M57.206,249.2c-1.878,0-3.4,1.522-3.4,3.4c0,1.878,1.522,3.4,3.4,3.4c1.878,0,3.4-1.522,3.4-3.4
					C60.606,250.722,59.083,249.2,57.206,249.2z"/>
			</g>
		</g>
		<g>
			<g>
				<path fill="#FC657E" d="M233.15,207.175c-3.1-0.6-5.6-3-6.2-6.1c0-0.1-0.3-0.1-0.3,0c-0.6,3.1-3.1,5.5-6.2,6.1
					c-0.1,0-0.1,0.2,0,0.3c3.1,0.6,5.6,3,6.2,6.1c0,0.1,0.3,0.1,0.3,0c0.6-3.1,3.1-5.5,6.2-6.1
					C233.25,207.375,233.25,207.175,233.15,207.175z"/>
			</g>
		</g>
		<g>
			<g>
				<path fill="#87D147" d="M176.369,0c-1.878,0-3.4,1.522-3.4,3.4c0,1.878,1.522,3.4,3.4,3.4c1.878,0,3.4-1.522,3.4-3.4
					C179.769,1.522,178.246,0,176.369,0z"/>
			</g>
		</g>
		<g>
			<g>
				<path fill="#F5C84C" d="M215.15,19.2c-4.5-0.8-8-4.3-8.9-8.7c0-0.2-0.4-0.2-0.4,0c-0.9,4.4-4.4,7.9-8.9,8.7
					c-0.2,0-0.2,0.3,0,0.4c4.5,0.8,8,4.3,8.9,8.7c0,0.2,0.4,0.2,0.4,0c0.9-4.4,4.4-7.9,8.9-8.7C215.35,19.5,215.35,19.2,215.15,19.2
					z"/>
			</g>
		</g>
		<g>
			<g>
				<path d="M34.784,146.208c-1.381,0-2.5,1.119-2.5,2.5v2.503c0,1.816-1.012,3.444-2.641,4.247
					c-3.015,1.486-5.861,2.805-10.18,3.893l-11.339,2.854c-4.594,1.156-7.857,5.111-8.121,9.84
					c-0.077,1.379,0.979,2.559,2.357,2.635c0.047,0.002,0.095,0.004,0.142,0.004c1.317,0,2.419-1.03,2.494-2.361
					c0.141-2.533,1.889-4.651,4.349-5.27l11.339-2.854c4.795-1.207,7.896-2.642,11.17-4.257c3.35-1.651,5.43-4.997,5.43-8.731
					v-2.503C37.284,147.327,36.165,146.208,34.784,146.208z"/>
			</g>
		</g>
		<g>
			<g>
				<path d="M80.741,162.205l-11.339-2.854c-5.435-1.368-9.818-3.699-10.056-3.828c-0.041-0.022-0.082-0.044-0.124-0.065
					c-1.629-0.803-2.641-2.431-2.641-4.247v-2.503c0-1.381-1.119-2.5-2.5-2.5s-2.5,1.119-2.5,2.5v2.503
					c0,3.679,2.019,6.98,5.281,8.656c0.659,0.417,1.695,0.883,3.362,1.603c1.837,0.793,4.709,1.911,7.958,2.729l11.339,2.854
					c2.46,0.619,4.208,2.737,4.349,5.27c0.074,1.331,1.177,2.361,2.494,2.361c0.047,0,0.094-0.001,0.142-0.004
					c1.378-0.077,2.434-1.256,2.357-2.635C88.598,167.315,85.335,163.361,80.741,162.205z"/>
			</g>
		</g>
		<g>
			<g>
				<g>
					<g>
						<path d="M64.194,102.461c-2.258-2.37-5.918-2.621-8.51-0.585c-2.208,1.733-5.948,3.799-11.228,3.799
							c-5.292,0-9.054-2.075-11.279-3.815c-2.59-2.026-6.243-1.771-8.506,0.601c-2.375,2.49-3.682,5.757-3.682,9.198v17.577
							c0,12.927,10.517,23.444,23.443,23.444s23.444-10.517,23.444-23.444v-17.577C67.876,108.217,66.569,104.951,64.194,102.461z
							 M62.876,129.235c0,10.17-8.274,18.444-18.444,18.444s-18.443-8.274-18.443-18.444v-17.577c0-2.15,0.817-4.192,2.308-5.755
							c0.255-0.268,0.598-0.403,0.947-0.403c0.296,0,0.597,0.098,0.852,0.297c2.843,2.225,7.643,4.878,14.36,4.878
							c6.708,0,11.487-2.646,14.314-4.866c0.556-0.438,1.331-0.395,1.804,0.101c0,0,0,0.001,0,0.001
							c1.484,1.556,2.301,3.597,2.301,5.748V129.235z"/>
					</g>
				</g>
			</g>
		</g>
		<g>
			<g>
				<path d="M66.72,110.773c-1.381,0-2.5,1.119-2.5,2.5s1.119,2.5,2.5,2.5c3.443,0,6.244,2.801,6.244,6.244
					s-2.801,6.244-6.244,6.244c-1.381,0-2.5,1.119-2.5,2.5s1.119,2.5,2.5,2.5c6.2,0,11.244-5.044,11.244-11.244
					S72.92,110.773,66.72,110.773z"/>
			</g>
		</g>
		<g>
			<g>
				<path d="M22.145,128.262c-3.443,0-6.244-2.801-6.244-6.244s2.801-6.244,6.244-6.244c1.381,0,2.5-1.119,2.5-2.5
					s-1.119-2.5-2.5-2.5c-6.2,0-11.244,5.044-11.244,11.244s5.044,11.244,11.244,11.244c1.381,0,2.5-1.119,2.5-2.5
					S23.526,128.262,22.145,128.262z"/>
			</g>
		</g>
		<g>
			<g>
				<path d="M66.425,93.001c-0.31-3.785-1.918-6.976-4.692-9.279c-6.85-5.689-18.566-4.692-24.938-3.59
					c-12.487,2.157-21.551,12.916-21.551,25.583v8.16c0,1.381,1.119,2.5,2.5,2.5s2.5-1.119,2.5-2.5v-8.16
					c0-10.228,7.318-18.915,17.401-20.656c9.262-1.598,17.074-0.662,20.894,2.51c1.939,1.61,2.901,3.78,2.94,6.632
					c0.029,2.044,1.742,3.708,3.819,3.708c2.079,0,3.37,3.602,3.37,9.401v6.794c0,1.381,1.119,2.5,2.5,2.5s2.5-1.119,2.5-2.5v-6.794
					C73.668,95.997,69.234,93.467,66.425,93.001z"/>
			</g>
		</g>
		<g>
			<g>
				<path d="M201.918,146.375c-1.381,0-2.5,1.119-2.5,2.5v2.336c0,1.816-1.012,3.444-2.642,4.247
					c-3.013,1.486-5.859,2.805-10.179,3.893l-11.339,2.854c-4.594,1.156-7.857,5.111-8.121,9.84
					c-0.077,1.379,0.979,2.559,2.357,2.635c0.047,0.002,0.095,0.004,0.142,0.004c1.317,0,2.419-1.03,2.494-2.361
					c0.141-2.533,1.889-4.651,4.349-5.27l11.339-2.854c4.796-1.208,7.896-2.642,11.17-4.257c3.35-1.651,5.43-4.997,5.43-8.731
					v-2.336C204.418,147.494,203.299,146.375,201.918,146.375z"/>
			</g>
		</g>
		<g>
			<g>
				<path d="M247.876,162.205l-11.339-2.854c-5.433-1.368-9.816-3.699-10.056-3.827c-0.041-0.023-0.082-0.045-0.124-0.065
					c-1.629-0.803-2.641-2.431-2.641-4.247v-2.336c0-1.381-1.119-2.5-2.5-2.5s-2.5,1.119-2.5,2.5v2.336
					c0,3.679,2.019,6.98,5.281,8.656c0.659,0.417,1.694,0.883,3.361,1.603c1.837,0.793,4.709,1.911,7.958,2.729l11.339,2.854
					c2.46,0.619,4.208,2.737,4.349,5.27c0.074,1.331,1.177,2.361,2.494,2.361c0.047,0,0.094-0.001,0.142-0.004
					c1.378-0.077,2.434-1.256,2.357-2.635C255.732,167.315,252.469,163.361,247.876,162.205z"/>
			</g>
		</g>
		<g>
			<g>
				<g>
					<g>
						<path d="M231.329,102.46c-2.259-2.368-5.917-2.621-8.51-0.584c-2.208,1.733-5.948,3.799-11.228,3.799
							c-5.292,0-9.054-2.075-11.278-3.815c-2.588-2.025-6.243-1.771-8.499,0.593c-0.009,0.01-0.02,0.021-0.031,0.033
							c-2.36,2.487-3.659,5.744-3.659,9.173v17.577c0,12.927,10.517,23.444,23.444,23.444s23.443-10.517,23.443-23.444v-17.577
							C235.011,108.218,233.703,104.951,231.329,102.46z M230.011,129.235c0,10.17-8.273,18.444-18.443,18.444
							s-18.444-8.274-18.444-18.444v-17.577c0-2.15,0.817-4.192,2.301-5.748c0.007-0.007,0.014-0.015,0.022-0.023
							c0.473-0.479,1.236-0.52,1.784-0.091c2.843,2.225,7.643,4.878,14.36,4.878c6.708,0,11.487-2.646,14.315-4.866
							c0.558-0.438,1.333-0.393,1.804,0.102c1.484,1.556,2.301,3.598,2.301,5.748V129.235z"/>
					</g>
				</g>
			</g>
		</g>
		<g>
			<g>
				<path d="M233.855,110.773c-1.381,0-2.5,1.119-2.5,2.5s1.119,2.5,2.5,2.5c3.443,0,6.244,2.801,6.244,6.244
					s-2.801,6.244-6.244,6.244c-1.381,0-2.5,1.119-2.5,2.5s1.119,2.5,2.5,2.5c6.2,0,11.244-5.044,11.244-11.244
					S240.055,110.773,233.855,110.773z"/>
			</g>
		</g>
		<g>
			<g>
				<path d="M189.28,128.262c-3.443,0-6.244-2.801-6.244-6.244s2.801-6.244,6.244-6.244c1.381,0,2.5-1.119,2.5-2.5
					s-1.119-2.5-2.5-2.5c-6.2,0-11.244,5.044-11.244,11.244s5.044,11.244,11.244,11.244c1.381,0,2.5-1.119,2.5-2.5
					S190.661,128.262,189.28,128.262z"/>
			</g>
		</g>
		<g>
			<g>
				<path d="M233.56,93.002c-0.31-3.785-1.918-6.976-4.692-9.28c-6.85-5.689-18.566-4.692-24.938-3.59
					c-12.488,2.157-21.551,12.916-21.551,25.583v8.035c0,1.381,1.119,2.5,2.5,2.5s2.5-1.119,2.5-2.5v-8.035
					c0-10.228,7.319-18.915,17.402-20.656c9.263-1.598,17.074-0.662,20.894,2.51c1.939,1.61,2.901,3.78,2.94,6.632
					c0.029,2.044,1.742,3.708,3.819,3.708c2.079,0,3.37,3.602,3.37,9.401v6.483c0,1.381,1.119,2.5,2.5,2.5s2.5-1.119,2.5-2.5v-6.483
					C240.803,95.998,236.369,93.468,233.56,93.002z"/>
			</g>
		</g>
		<g>
			<g>
				<path d="M148.75,28.891c-1.381,0-2.5,1.119-2.5,2.5s1.119,2.5,2.5,2.5c3.11,0,5.641,2.531,5.641,5.641s-2.531,5.641-5.641,5.641
					c-1.381,0-2.5,1.119-2.5,2.5s1.119,2.5,2.5,2.5c5.868,0,10.641-4.773,10.641-10.641S154.618,28.891,148.75,28.891z"/>
			</g>
		</g>
		<g>
			<g>
				<g>
					<g>
						<path d="M146.864,26.577c-1.901-0.44-3.919-1.621-5.998-3.509c-0.759-0.69-1.771-1.046-2.801-0.987
							c-1.029,0.064-1.965,0.531-2.636,1.314c0,0,0,0,0,0c-2.635,3.077-12.317,12.807-26.243,8.839
							c-0.754-0.215-1.564-0.063-2.191,0.409c-0.626,0.472-0.994,1.211-0.994,1.995v11.612c0,12.13,9.869,22,22,22s22-9.869,22-22
							V30.498C150,28.617,148.71,27.005,146.864,26.577z M145,46.251c0,9.374-7.626,17-17,17s-17-7.626-17-17v-8.479
							c13.88,2.396,23.68-6.188,27.412-10.213c2.182,1.815,4.391,3.054,6.587,3.696V46.251z"/>
					</g>
				</g>
			</g>
		</g>
		<g>
			<g>
				<path d="M109.186,32.235c-1.258-0.358-2.537-0.823-3.798-1.38c-1.83-0.807-3.955-0.445-5.417,0.926
					c-2.137,2.003-3.362,4.828-3.362,7.751c0,5.868,4.773,10.641,10.641,10.641c1.381,0,2.5-1.119,2.5-2.5s-1.119-2.5-2.5-2.5
					c-3.11,0-5.641-2.531-5.641-5.641c0-1.569,0.633-3.026,1.758-4.103c1.473,0.65,2.97,1.193,4.449,1.615
					c1.326,0.379,2.711-0.391,3.089-1.719C111.283,33.996,110.513,32.613,109.186,32.235z"/>
			</g>
		</g>
		<g>
			<g>
				<path d="M128,0c-16,0-29.016,13.016-29.016,29.016v4.611c0,1.381,1.119,2.5,2.5,2.5s2.5-1.119,2.5-2.5v-4.611
					C103.984,15.773,114.758,5,128,5s24.016,10.773,24.016,24.016v4.531c0,1.381,1.119,2.5,2.5,2.5s2.5-1.119,2.5-2.5v-4.531
					C157.016,13.016,144,0,128,0z"/>
			</g>
		</g>
		<g>
			<g>
				<path d="M118.725,61.297c-1.381,0-2.5,1.119-2.5,2.5v5.505c0,1.121-0.625,2.125-1.629,2.62l-4.821,2.377
					c-0.917,0.452-1.885,0.808-2.87,1.056c-0.069,0.017-10.017,2.528-10.077,2.543l-3.874,0.978
					c-4.478,1.127-7.66,4.983-7.917,9.594c-0.077,1.378,0.979,2.559,2.357,2.635c0.047,0.002,0.094,0.004,0.142,0.004
					c1.317,0,2.419-1.03,2.494-2.361c0.135-2.415,1.801-4.434,4.147-5.024l3.878-0.979c0.11-0.028,9.897-2.499,10.063-2.54
					c1.334-0.336,2.636-0.814,3.868-1.422l4.821-2.377c2.725-1.344,4.417-4.066,4.417-7.104v-5.505
					C121.225,62.416,120.106,61.297,118.725,61.297z"/>
			</g>
		</g>
		<g>
			<g>
				<path d="M163.047,78.877l-13.943-3.52c-0.994-0.25-1.962-0.606-2.878-1.058l-4.821-2.377c-1.005-0.496-1.629-1.5-1.629-2.62
					v-5.509c0-1.381-1.119-2.5-2.5-2.5s-2.5,1.119-2.5,2.5v5.509c0,3.038,1.693,5.76,4.418,7.104l4.821,2.377
					c1.232,0.607,2.534,1.086,3.867,1.422l13.944,3.52c2.345,0.59,4.011,2.609,4.146,5.024c0.074,1.331,1.177,2.361,2.494,2.361
					c0.047,0,0.094-0.001,0.142-0.004c1.378-0.077,2.434-1.257,2.357-2.635C170.705,83.859,167.523,80.003,163.047,78.877z"/>
			</g>
		</g>
		<g>
			<g>
				<path d="M158.22,43.462c-0.581-1.253-2.068-1.797-3.32-1.215c-1.252,0.582-1.796,2.068-1.215,3.32
					c1.34,2.888,2.345,7.26-0.48,11.691c-0.938,1.47-1.02,3.315-0.216,4.814c0.957,1.785,2.221,5.317-0.056,8.922
					c-1.149,1.819-3.003,3.231-5.511,4.198c-1.289,0.496-1.93,1.943-1.434,3.231c0.382,0.993,1.329,1.602,2.333,1.602
					c0.299,0,0.603-0.054,0.898-0.168c3.534-1.361,6.205-3.445,7.941-6.193c3.684-5.833,1.52-11.491,0.314-13.804
					C160.578,54.933,160.843,49.113,158.22,43.462z"/>
			</g>
		</g>
		<g>
			<g>
				<path d="M108.627,75.212c-2.533-0.967-4.403-2.386-5.56-4.216c-2.277-3.605-1.012-7.138-0.056-8.922
					c0.804-1.5,0.722-3.345-0.216-4.815c-2.932-4.598-1.77-9.124-0.279-12.111c0.617-1.235,0.115-2.736-1.121-3.353
					c-1.235-0.617-2.737-0.114-3.353,1.121c-1.686,3.377-3.855,10.059,0.482,16.946c-1.205,2.313-3.369,7.972,0.314,13.804
					c1.746,2.765,4.439,4.856,8.004,6.217c0.293,0.112,0.595,0.165,0.891,0.165c1.007,0,1.956-0.612,2.336-1.609
					C110.563,77.149,109.917,75.704,108.627,75.212z"/>
			</g>
		</g>
		<g>
			<g>
				<path d="M148.75,191.338c-1.381,0-2.5,1.119-2.5,2.5s1.119,2.5,2.5,2.5c3.11,0,5.641,2.531,5.641,5.641
					s-2.531,5.641-5.641,5.641c-1.381,0-2.5,1.119-2.5,2.5s1.119,2.5,2.5,2.5c5.868,0,10.641-4.773,10.641-10.641
					S154.618,191.338,148.75,191.338z"/>
			</g>
		</g>
		<g>
			<g>
				<g>
					<g>
						<path d="M146.864,189.024c-1.901-0.44-3.919-1.621-5.998-3.509c-0.76-0.691-1.777-1.053-2.802-0.987
							c-1.029,0.064-1.965,0.531-2.636,1.315c-2.636,3.077-12.316,12.807-26.242,8.839c-0.754-0.215-1.564-0.063-2.191,0.409
							c-0.626,0.472-0.994,1.211-0.994,1.995v11.612c0,12.13,9.869,22,22,22s22-9.869,22-22v-15.753
							C150,191.064,148.71,189.452,146.864,189.024z M145,208.699c0,9.374-7.626,17-17,17s-17-7.626-17-17v-8.479
							c13.88,2.394,23.68-6.189,27.412-10.213c2.182,1.815,4.391,3.054,6.587,3.696V208.699z"/>
					</g>
				</g>
			</g>
		</g>
		<g>
			<g>
				<path d="M109.186,194.682c-1.258-0.358-2.537-0.823-3.798-1.38c-1.83-0.808-3.955-0.445-5.417,0.926
					c-2.137,2.003-3.362,4.828-3.362,7.751c0,5.868,4.773,10.641,10.641,10.641c1.381,0,2.5-1.119,2.5-2.5s-1.119-2.5-2.5-2.5
					c-3.11,0-5.641-2.531-5.641-5.641c0-1.569,0.633-3.026,1.758-4.103c1.473,0.65,2.97,1.193,4.449,1.615
					c1.326,0.38,2.711-0.391,3.089-1.719C111.283,196.443,110.513,195.06,109.186,194.682z"/>
			</g>
		</g>
		<g>
			<g>
				<path d="M128,162.447c-16,0-29.016,13.016-29.016,29.016v4.696c0,1.381,1.119,2.5,2.5,2.5s2.5-1.119,2.5-2.5v-4.696
					c0-13.242,10.773-24.016,24.016-24.016s24.016,10.773,24.016,24.016v4.459c0,1.381,1.119,2.5,2.5,2.5s2.5-1.119,2.5-2.5v-4.459
					C157.016,175.463,144,162.447,128,162.447z"/>
			</g>
		</g>
		<g>
			<g>
				<path d="M118.725,223.969c-1.381,0-2.5,1.119-2.5,2.5v5.28c0,1.121-0.625,2.125-1.629,2.62l-4.821,2.377
					c-0.917,0.452-1.885,0.808-2.87,1.056c-0.069,0.017-10.017,2.528-10.077,2.543l-3.874,0.978
					c-4.478,1.127-7.66,4.983-7.917,9.594c-0.077,1.378,0.979,2.559,2.357,2.635c0.047,0.002,0.094,0.004,0.142,0.004
					c1.316,0,2.419-1.03,2.494-2.361c0.135-2.415,1.801-4.434,4.147-5.024l3.878-0.979c0.11-0.028,9.897-2.499,10.063-2.54
					c1.334-0.336,2.636-0.814,3.868-1.422l4.821-2.377c2.725-1.344,4.417-4.066,4.417-7.104v-5.28
					C121.225,225.088,120.106,223.969,118.725,223.969z"/>
			</g>
		</g>
		<g>
			<g>
				<path d="M163.047,241.324l-13.943-3.52c-0.994-0.25-1.962-0.606-2.878-1.058l-4.821-2.377c-1.005-0.496-1.629-1.5-1.629-2.62
					v-4.968c0-1.381-1.119-2.5-2.5-2.5s-2.5,1.119-2.5,2.5v4.968c0,3.038,1.693,5.76,4.418,7.104l4.821,2.377
					c1.232,0.607,2.534,1.086,3.867,1.422l13.944,3.52c2.345,0.59,4.011,2.609,4.146,5.024c0.074,1.331,1.177,2.361,2.494,2.361
					c0.047,0,0.094-0.001,0.142-0.004c1.378-0.077,2.434-1.257,2.357-2.635C170.705,246.307,167.523,242.451,163.047,241.324z"/>
			</g>
		</g>
		<g>
			<g>
				<path d="M158.057,205.565c-0.603-1.242-2.099-1.758-3.341-1.156c-1.242,0.604-1.759,2.1-1.156,3.341
					c1.434,2.951,2.537,7.42-0.355,11.955c-0.938,1.47-1.02,3.315-0.216,4.814c0.957,1.785,2.221,5.317-0.056,8.922
					c-1.133,1.795-2.953,3.194-5.409,4.158c-1.285,0.505-1.918,1.956-1.414,3.241c0.387,0.985,1.33,1.587,2.328,1.587
					c0.304,0,0.613-0.056,0.913-0.173c3.468-1.362,6.095-3.428,7.809-6.142c3.684-5.833,1.52-11.491,0.314-13.804
					C160.649,217.268,160.856,211.326,158.057,205.565z"/>
			</g>
		</g>
		<g>
			<g>
				<path d="M108.562,237.634c-2.499-0.966-4.348-2.376-5.494-4.191c-2.277-3.605-1.012-7.138-0.056-8.922
					c0.804-1.5,0.722-3.345-0.216-4.815c-2.843-4.459-1.813-8.857-0.447-11.762c0.587-1.25,0.05-2.739-1.199-3.326
					c-1.25-0.588-2.739-0.05-3.326,1.199c-2.67,5.68-2.419,11.533,0.703,16.492c-1.205,2.313-3.369,7.972,0.314,13.804
					c1.733,2.743,4.397,4.824,7.919,6.185c0.296,0.114,0.601,0.168,0.901,0.168c1.003,0,1.949-0.608,2.333-1.599
					C110.49,239.579,109.849,238.132,108.562,237.634z"/>
			</g>
		</g>
		<g>
			<g>
				<path d="M212.046,64.234c-11.079-14.582-25.797-26.083-42.563-33.26c-1.267-0.542-2.738,0.045-3.282,1.314
					c-0.543,1.27,0.045,2.739,1.314,3.282c15.971,6.837,29.993,17.794,40.549,31.688c0.492,0.647,1.238,0.988,1.993,0.988
					c0.527,0,1.059-0.166,1.511-0.509C212.667,66.902,212.881,65.333,212.046,64.234z"/>
			</g>
		</g>
		<g>
			<g>
				<path d="M214.037,46.988c-1.362-0.162-2.616,0.811-2.782,2.182l-1.908,15.785l-15.785-1.908
					c-1.365-0.16-2.616,0.811-2.782,2.182c-0.166,1.371,0.811,2.616,2.182,2.782l18.267,2.208c0.102,0.012,0.203,0.019,0.303,0.019
					c1.247,0,2.326-0.932,2.479-2.201l2.208-18.267C216.385,48.399,215.408,47.154,214.037,46.988z"/>
			</g>
		</g>
		<g>
			<g>
				<path d="M84.513,218.628c-15.972-6.837-29.993-17.795-40.549-31.688c-0.835-1.099-2.403-1.313-3.503-0.479
					c-1.099,0.835-1.313,2.404-0.478,3.503c11.079,14.581,25.796,26.082,42.563,33.26c0.321,0.137,0.654,0.202,0.983,0.202
					c0.97,0,1.893-0.568,2.299-1.517C86.371,220.641,85.783,219.171,84.513,218.628z"/>
			</g>
		</g>
		<g>
			<g>
				<path d="M59.066,186.188l-18.267-2.208c-1.364-0.163-2.616,0.812-2.782,2.182l-2.208,18.267
					c-0.166,1.371,0.811,2.616,2.182,2.782c0.102,0.012,0.203,0.019,0.303,0.019c1.247,0,2.326-0.932,2.479-2.201l1.908-15.785
					l15.785,1.908c1.364,0.162,2.616-0.811,2.782-2.182C61.414,187.599,60.437,186.353,59.066,186.188z"/>
			</g>
		</g>
		<g>
			<g>
				<path d="M214.096,184.615c-1.15-0.761-2.702-0.445-3.464,0.706c-9.587,14.489-22.878,26.322-38.437,34.219
					c-1.231,0.625-1.723,2.13-1.098,3.361c0.441,0.869,1.32,1.369,2.231,1.369c0.38,0,0.767-0.087,1.129-0.271
					c16.33-8.289,30.28-20.709,40.344-35.919C215.563,186.928,215.248,185.377,214.096,184.615z"/>
			</g>
		</g>
		<g>
			<g>
				<path d="M189.42,225.917l-15.188-4.703l4.704-15.188c0.408-1.319-0.33-2.719-1.648-3.128c-1.318-0.407-2.719,0.33-3.128,1.648
					l-5.443,17.577c-0.196,0.633-0.133,1.319,0.177,1.905c0.309,0.587,0.838,1.026,1.472,1.223l17.577,5.443
					c0.247,0.076,0.496,0.112,0.741,0.112c1.067,0,2.055-0.688,2.387-1.761C191.477,227.726,190.739,226.326,189.42,225.917z"/>
			</g>
		</g>
		<g>
			<g>
				<path d="M84.932,33.299c-0.625-1.231-2.129-1.724-3.36-1.098C65.242,40.49,51.291,52.91,41.228,68.12
					c-0.762,1.151-0.446,2.703,0.706,3.464C42.357,71.865,42.836,72,43.31,72c0.811,0,1.606-0.394,2.087-1.121
					c9.586-14.488,22.878-26.321,38.437-34.219C85.065,36.035,85.557,34.53,84.932,33.299z"/>
			</g>
		</g>
		<g>
			<g>
				<path d="M85.665,30.948l-17.576-5.443c-1.32-0.408-2.719,0.33-3.128,1.648c-0.408,1.319,0.33,2.719,1.648,3.128l15.188,4.703
					l-4.704,15.188c-0.408,1.319,0.33,2.719,1.648,3.128c0.247,0.076,0.496,0.112,0.741,0.112c1.067,0,2.055-0.688,2.387-1.761
					l5.443-17.577C87.722,32.757,86.984,31.357,85.665,30.948z"/>
			</g>
		</g>
		<g>
			<g>
				<path d="M68.324,160.122c-1.04-0.908-2.619-0.802-3.527,0.238l-9.671,11.072l-4.436-3.874l7.389-8.46
					c0.908-1.04,0.802-2.619-0.238-3.527s-2.619-0.801-3.527,0.238l-7.841,8.977c-1.564,1.792-1.38,4.522,0.412,6.087l5.47,4.777
					c0.792,0.692,1.788,1.064,2.831,1.064c0.099,0,0.198-0.003,0.297-0.01c1.15-0.078,2.201-0.599,2.958-1.466l10.122-11.588
					C69.47,162.609,69.364,161.03,68.324,160.122z"/>
			</g>
		</g>
		<g>
			<g>
				<path d="M42.393,164.785l-7.708-8.825c-0.908-1.041-2.487-1.147-3.527-0.238c-1.04,0.908-1.146,2.487-0.238,3.527l7.257,8.309
					l-4.436,3.875l-9.671-11.073c-0.909-1.041-2.489-1.147-3.527-0.238c-1.04,0.908-1.146,2.487-0.238,3.527l10.122,11.589
					c0.852,0.975,2.049,1.474,3.252,1.474c1.007,0,2.019-0.35,2.835-1.063l5.469-4.776
					C43.773,169.308,43.958,166.577,42.393,164.785z"/>
			</g>
		</g>
		<g>
			<g>
				<path d="M47.281,164.912h-5.312c-1.381,0-2.5,1.119-2.5,2.5s1.119,2.5,2.5,2.5h5.312c1.381,0,2.5-1.119,2.5-2.5
					S48.662,164.912,47.281,164.912z"/>
			</g>
		</g>
		<g>
			<g>
				<path d="M235.522,160.049c-1.04-0.908-2.619-0.802-3.527,0.238l-9.735,11.145l-4.436-3.875l7.561-8.657
					c0.908-1.04,0.802-2.619-0.238-3.527c-1.039-0.908-2.619-0.801-3.527,0.238l-8.013,9.173c-1.564,1.792-1.38,4.523,0.412,6.087
					l5.47,4.778c0.816,0.712,1.828,1.062,2.834,1.062c1.203,0,2.4-0.499,3.252-1.474l10.186-11.661
					C236.668,162.536,236.562,160.957,235.522,160.049z"/>
			</g>
		</g>
		<g>
			<g>
				<path d="M209.527,164.785l-7.708-8.825c-0.909-1.041-2.487-1.147-3.527-0.238c-1.04,0.908-1.146,2.488-0.238,3.527l7.257,8.309
					l-4.436,3.874l-9.705-11.11c-0.908-1.041-2.488-1.147-3.527-0.238c-1.04,0.908-1.146,2.488-0.238,3.527l10.155,11.626
					c0.758,0.869,1.809,1.39,2.959,1.467c0.1,0.007,0.199,0.01,0.297,0.01c1.042,0,2.039-0.373,2.832-1.065l5.47-4.777
					C210.908,169.307,211.092,166.576,209.527,164.785z"/>
			</g>
		</g>
		<g>
			<g>
				<path d="M214.292,164.912h-5.542c-1.381,0-2.5,1.119-2.5,2.5s1.119,2.5,2.5,2.5h5.542c1.381,0,2.5-1.119,2.5-2.5
					S215.673,164.912,214.292,164.912z"/>
			</g>
		</g>
		<g>
			<g>
				<path d="M124.629,82.201l-7.767-8.348c-0.941-1.012-2.523-1.067-3.533-0.128c-1.011,0.94-1.068,2.522-0.128,3.533l7.444,8.001
					l-1.992,1.853c-1.275,1.186-2.985,1.673-4.694,1.338c-1.708-0.335-3.108-1.434-3.84-3.014l-3.184-6.875
					c-0.581-1.253-2.066-1.798-3.319-1.218c-1.252,0.58-1.798,2.066-1.218,3.319l3.184,6.875c1.413,3.05,4.115,5.171,7.414,5.818
					c0.683,0.134,1.366,0.2,2.042,0.2c2.588,0,5.07-0.968,7.021-2.784l2.339-2.176c0.885-0.824,1.397-1.942,1.44-3.15
					C125.882,84.238,125.453,83.085,124.629,82.201z"/>
			</g>
		</g>
		<g>
			<g>
				<path d="M152.473,77.15c-1.254-0.581-2.739-0.036-3.319,1.218l-3.273,7.068c-0.731,1.58-2.131,2.678-3.84,3.014
					c-1.708,0.336-3.419-0.152-4.694-1.338l-1.992-1.853l7.444-8c0.941-1.011,0.884-2.593-0.127-3.533
					c-1.011-0.94-2.593-0.883-3.533,0.127l-7.767,8.348c-0.824,0.885-1.253,2.038-1.209,3.247c0.043,1.208,0.555,2.327,1.44,3.15
					l2.339,2.176c1.952,1.815,4.433,2.784,7.021,2.784c0.676,0,1.359-0.066,2.042-0.2c3.299-0.647,6.001-2.768,7.414-5.818
					l3.273-7.068C154.271,79.217,153.726,77.73,152.473,77.15z"/>
			</g>
		</g>
		<g>
			<g>
				<path d="M132.125,82.337h-8.312c-1.381,0-2.5,1.119-2.5,2.5s1.119,2.5,2.5,2.5h8.312c1.381,0,2.5-1.119,2.5-2.5
					S133.506,82.337,132.125,82.337z"/>
			</g>
		</g>
		<g>
			<g>
				<path d="M124.629,244.647l-7.746-8.325c-0.94-1.011-2.522-1.067-3.534-0.127c-1.011,0.941-1.068,2.522-0.127,3.534l7.423,7.978
					l-1.992,1.853c-1.275,1.185-2.985,1.672-4.694,1.338c-1.708-0.335-3.108-1.434-3.84-3.014l-3.177-6.859
					c-0.581-1.253-2.066-1.797-3.319-1.218c-1.253,0.58-1.798,2.066-1.218,3.319l3.177,6.859c1.413,3.05,4.115,5.171,7.414,5.818
					c0.683,0.134,1.366,0.2,2.042,0.2c2.588,0,5.07-0.968,7.021-2.784l2.339-2.176c0.885-0.824,1.397-1.942,1.44-3.15
					C125.882,246.685,125.453,245.532,124.629,244.647z"/>
			</g>
		</g>
		<g>
			<g>
				<path d="M152.459,239.627c-1.253-0.581-2.74-0.036-3.319,1.218l-3.26,7.039c-0.731,1.58-2.131,2.678-3.84,3.014
					c-1.708,0.335-3.419-0.152-4.694-1.338l-1.992-1.853l7.672-8.246c0.94-1.011,0.883-2.593-0.128-3.533
					c-1.01-0.939-2.593-0.884-3.533,0.128l-7.994,8.593c-0.824,0.885-1.253,2.038-1.209,3.247c0.043,1.208,0.555,2.327,1.44,3.15
					l2.339,2.176c1.952,1.815,4.433,2.784,7.021,2.784c0.676,0,1.359-0.066,2.042-0.2c3.299-0.647,6.001-2.768,7.414-5.818
					l3.26-7.039C154.257,241.693,153.712,240.207,152.459,239.627z"/>
			</g>
		</g>
		<g>
			<g>
				<path d="M131.917,244.785h-7.875c-1.381,0-2.5,1.119-2.5,2.5s1.119,2.5,2.5,2.5h7.875c1.381,0,2.5-1.119,2.5-2.5
					S133.298,244.785,131.917,244.785z"/>
			</g>
		</g>
	</g>
</g>
<g id="Layer_43">
</g>
<g id="Layer_44">
</g>
<g id="Layer_45">
</g>
<g id="Layer_46">
</g>
<g id="Layer_47">
</g>
<g id="Layer_48">
</g>
<g id="Layer_49">
</g>
<g id="Layer_50">
</g>
<g id="Layer_51">
</g>
<g id="Layer_52">
</g>
<g id="Layer_53">
</g>
<g id="Layer_54">
</g>
<g id="Layer_55">
</g>
<g id="Layer_56">
</g>
<g id="Layer_57">
</g>
<g id="Layer_58">
</g>
<g id="Layer_59">
</g>
<g id="Layer_60">
</g>
<g id="Layer_61">
</g>
<g id="Layer_62">
</g>
<g id="Layer_63">
</g>
<g id="Layer_64">
</g>
<g id="Layer_65">
</g>
<g id="Layer_66">
</g>
<g id="Layer_67">
</g>
<g id="Layer_68">
</g>
<g id="Layer_69">
</g>
<g id="Layer_70">
</g>
<g id="Layer_71">
</g>
<g id="Layer_72">
</g>
<g id="Layer_73">
</g>
<g id="Layer_74">
</g>
<g id="Layer_75">
</g>
<g id="Layer_76">
</g>
<g id="Layer_77">
</g>
<g id="Layer_78">
</g>
<g id="Layer_79">
</g>
<g id="Layer_80">
</g>
</svg>
