<?xml version="1.0" encoding="utf-8"?>
<!-- Generator: Adobe Illustrator 24.0.0, SVG Export Plug-In . SVG Version: 6.00 Build 0)  -->
<svg version="1.1" xmlns="http://www.w3.org/2000/svg" xmlns:xlink="http://www.w3.org/1999/xlink" x="0px" y="0px"
	 viewBox="0 0 256 256" enable-background="new 0 0 256 256" xml:space="preserve">
<g id="Layer_1">
</g>
<g id="Layer_2">
	<g>
		<g>
			<g>
				<path fill="#6CADEF" d="M94.996,155.608c0-5.243,0.712-12.628-2.529-18.654c-0.502-0.933-0.697-2-0.566-3.051v0
					c0.107-0.858,0.421-1.674,0.932-2.372c1.886-2.573,3.95-6.083,5.185-10.347c2.27-7.837-5.202-15.119-12.965-12.605
					c-6.399,2.072-14.685,3.623-23.207,2.119c-18.178-3.208-35.148,13.599-37.961,30.476c-2.497,14.981,4.723,35.791,8.046,44.282
					c0.995,2.542,1.043,5.351,0.135,7.925l-0.624,1.767c-0.907,2.569-2.707,4.729-5.076,6.083c-2.269,1.297-3.916,3.46-4.814,5.915
					l-0.394,1.076c-1.747,4.776-4.732,8.959-8.473,12.402C6.425,226.385,2.5,234.646,2.5,243.828v9.672h89.432l0.11-5.394
					c0.284-12.946-7.149-21.629-13.283-27.379c-2.145-2.011-3.813-4.47-4.859-7.217l-0.838-2.2c-0.23-0.605-0.528-1.106-0.86-1.52
					c-2.031-2.536-3.136-5.687-2.713-8.912c0.206-1.571,1.816-2.551,3.326-2.071c2.115,0.672,3.959,1.217,5.571,1.651
					c4.944,1.329,10.411-0.571,13.455-5.427c0.61-0.973,1-2.068,1.264-3.185c0.188-0.797,0.369-1.537,0.549-2.16
					c0.171-0.588,0.081-1.216-0.259-1.726l-0.674-1.011c-0.542-0.814-0.435-1.897,0.256-2.589l2.487-1.418
					c0.385-0.385,0.601-0.907,0.601-1.451v-5.225c0-0.827,0.492-1.575,1.256-1.891c1.228-0.507,3.194-1.417,5.16-2.727
					C105.689,169.509,94.996,162.024,94.996,155.608z"/>
			</g>
		</g>
		<g>
			<g>
				<path fill="#6CADEF" d="M243.313,220.622c-3.742-3.444-6.726-7.627-8.473-12.402l-0.394-1.076
					c-0.898-2.455-2.545-4.618-4.814-5.915c-2.368-1.354-4.169-3.514-5.076-6.083l-0.624-1.767c-0.909-2.574-0.86-5.383,0.135-7.925
					c3.324-8.491,10.543-29.301,8.046-44.282c-2.813-16.876-19.782-33.684-37.961-30.476c-8.521,1.504-16.807-0.047-23.207-2.119
					c-7.762-2.513-15.234,4.768-12.965,12.605c1.235,4.265,3.299,7.774,5.185,10.347c0.511,0.697,0.825,1.514,0.932,2.372v0
					c0.131,1.051-0.064,2.118-0.566,3.051c-3.241,6.026-2.529,13.411-2.529,18.654c0,6.416-10.693,13.901-7.485,16.04
					c1.966,1.311,3.932,2.22,5.16,2.727c0.765,0.316,1.256,1.064,1.256,1.891v5.225c0,0.544,0.216,1.066,0.601,1.451l2.487,1.418
					c0.692,0.692,0.799,1.775,0.256,2.589l-0.674,1.011c-0.34,0.51-0.429,1.137-0.259,1.726c0.181,0.623,0.361,1.363,0.549,2.16
					c0.264,1.117,0.654,2.212,1.264,3.185c3.044,4.857,8.511,6.757,13.455,5.427c1.613-0.434,3.457-0.979,5.571-1.651
					c1.51-0.48,3.12,0.5,3.326,2.071c0.423,3.225-0.682,6.375-2.713,8.912c-0.332,0.414-0.629,0.915-0.86,1.52l-0.838,2.2
					c-1.047,2.747-2.714,5.206-4.859,7.217c-6.134,5.75-13.567,14.432-13.283,27.379l0.11,5.394H253.5v-9.672
					C253.5,234.646,249.575,226.385,243.313,220.622z"/>
			</g>
		</g>
		<g>
			<g>
				<path fill="#70D6F9" d="M214.874,20.669h-59.749c-8.29,0-15.072,6.782-15.072,15.072v36.254c0,8.29,6.782,15.072,15.072,15.072
					h33.007c3.3,0,6.306,1.774,8.031,4.587c1.511,2.464,3.402,4.933,5.765,7.194c1.703,1.629,4.523,0.461,4.523-1.896v-5.075
					c0-2.657,2.154-4.811,4.811-4.811h3.612c8.29,0,15.072-6.782,15.072-15.072V35.741
					C229.946,27.451,223.164,20.669,214.874,20.669z"/>
			</g>
		</g>
		<g>
			<g>
				<path fill="#70D6F9" d="M100.874,20.669H41.126c-8.29,0-15.072,6.782-15.072,15.072v36.254c0,8.29,6.782,15.072,15.072,15.072
					h3.612c2.657,0,4.811,2.154,4.811,4.811v5.075c0,2.356,2.82,3.524,4.523,1.896c2.364-2.261,4.254-4.73,5.765-7.194
					c1.725-2.813,4.731-4.587,8.031-4.587h33.007c8.29,0,15.072-6.782,15.072-15.072V35.741
					C115.946,27.451,109.164,20.669,100.874,20.669z"/>
			</g>
		</g>
		<g>
			<g>
				<circle fill="#DAE6F1" cx="161.5" cy="53.833" r="5.5"/>
			</g>
		</g>
		<g>
			<g>
				<circle fill="#DAE6F1" cx="184.5" cy="53.833" r="5.5"/>
			</g>
		</g>
		<g>
			<g>
				<circle fill="#DAE6F1" cx="207.5" cy="53.833" r="5.5"/>
			</g>
		</g>
		<g>
			<g>
				<circle fill="#DAE6F1" cx="94.5" cy="53.833" r="5.5"/>
			</g>
		</g>
		<g>
			<g>
				<circle fill="#DAE6F1" cx="71.5" cy="53.833" r="5.5"/>
			</g>
		</g>
		<g>
			<g>
				<circle fill="#DAE6F1" cx="48.5" cy="53.833" r="5.5"/>
			</g>
		</g>
		<g>
			<g>
				<path fill="#F5C84C" d="M20.305,99.1h-0.1h-2.3v-2.3c0-1.8-1.4-3.2-3.2-3.2c-1.7,0-3.2,1.4-3.2,3.1v0.1v2.3h-2.3
					c-1.8,0-3.2,1.4-3.2,3.2c-0.1,1.7,1.3,3.2,3.2,3.2h2.3v2.3c0,1.8,1.4,3.2,3.2,3.2c1.7,0,3.2-1.4,3.2-3.1v-0.1v-2.3h2.3
					c1.8,0,3.2-1.4,3.2-3.2C23.405,100.6,22.005,99.1,20.305,99.1z"/>
			</g>
		</g>
		<g>
			<g>
				<path fill="#70D6F9" d="M113.206,249.2c-1.878,0-3.4,1.522-3.4,3.4c0,1.878,1.522,3.4,3.4,3.4c1.878,0,3.4-1.522,3.4-3.4
					C116.606,250.722,115.083,249.2,113.206,249.2z"/>
			</g>
		</g>
		<g>
			<g>
				<path fill="#87D147" d="M143.15,6.175c-3.1-0.6-5.6-3-6.2-6.1c0-0.1-0.3-0.1-0.3,0c-0.6,3.1-3.1,5.5-6.2,6.1
					c-0.1,0-0.1,0.2,0,0.3c3.1,0.6,5.6,3,6.2,6.1c0,0.1,0.3,0.1,0.3,0c0.6-3.1,3.1-5.5,6.2-6.1
					C143.25,6.375,143.25,6.175,143.15,6.175z"/>
			</g>
		</g>
		<g>
			<g>
				<path fill="#FC657E" d="M119.369,97c-1.878,0-3.4,1.522-3.4,3.4c0,1.878,1.522,3.4,3.4,3.4c1.878,0,3.4-1.522,3.4-3.4
					C122.769,98.522,121.246,97,119.369,97z"/>
			</g>
		</g>
		<g>
			<g>
				<path fill="#F5C84C" d="M144.15,223.2c-4.5-0.8-8-4.3-8.9-8.7c0-0.2-0.4-0.2-0.4,0c-0.9,4.4-4.4,7.9-8.9,8.7
					c-0.2,0-0.2,0.3,0,0.4c4.5,0.8,8,4.3,8.9,8.7c0,0.2,0.4,0.2,0.4,0c0.9-4.4,4.4-7.9,8.9-8.7
					C144.35,223.5,144.35,223.2,144.15,223.2z"/>
			</g>
		</g>
		<g>
			<g>
				<path d="M101.954,163.747c-1.986-2.57-4.458-5.768-4.458-8.139c0-0.75,0.015-1.546,0.031-2.376
					c0.098-5.23,0.219-11.74-2.859-17.463c-0.255-0.475-0.354-1.014-0.287-1.557c0.056-0.447,0.218-0.863,0.468-1.205
					c2.575-3.513,4.449-7.258,5.57-11.13c1.311-4.525,0.009-9.388-3.396-12.689c-3.446-3.34-8.209-4.457-12.739-2.99
					c-7.851,2.542-15.253,3.227-22.002,2.036c-7.963-1.405-16.406,0.691-23.776,5.903c-8.844,6.253-15.39,16.455-17.085,26.623
					c-2.605,15.634,4.855,37.101,8.184,45.604c0.776,1.981,0.813,4.177,0.106,6.182l-0.624,1.767
					c-0.708,2.005-2.114,3.69-3.959,4.745c-2.672,1.528-4.775,4.094-5.921,7.227l-0.394,1.076c-1.546,4.227-4.177,8.07-7.818,11.422
					C4.007,225.213,0,234.342,0,243.828v9.672c0,1.381,1.119,2.5,2.5,2.5s2.5-1.119,2.5-2.5v-9.672
					c0-8.092,3.419-15.88,9.381-21.367c4.234-3.897,7.305-8.4,9.127-13.383l0.394-1.076c0.741-2.025,2.058-3.661,3.707-4.604
					c2.887-1.649,5.086-4.285,6.193-7.421l0.624-1.768c1.106-3.136,1.048-6.569-0.165-9.667c-3.178-8.118-10.31-28.553-7.909-42.959
					c1.483-8.9,7.247-17.852,15.04-23.363c4.438-3.138,11.515-6.565,20.021-5.062c7.564,1.334,15.776,0.594,24.411-2.203
					c2.74-0.886,5.625-0.206,7.719,1.824c2.105,2.041,2.881,4.922,2.074,7.708c-0.958,3.308-2.573,6.526-4.8,9.565
					c-0.752,1.026-1.235,2.25-1.396,3.54c-0.198,1.58,0.094,3.151,0.844,4.545c2.458,4.57,2.35,10.354,2.263,15.001
					c-0.016,0.862-0.031,1.689-0.031,2.469c0,4.077,3.05,8.024,5.501,11.196c0.766,0.991,1.837,2.377,2.332,3.252
					c-1.507,0.924-2.954,1.591-3.963,2.008c-1.701,0.704-2.8,2.353-2.8,4.201v4.881l-1.826,1.041
					c-0.194,0.11-0.372,0.247-0.53,0.404c-1.529,1.529-1.769,3.944-0.569,5.743l0.559,0.838c-0.174,0.618-0.348,1.332-0.529,2.097
					c-0.234,0.991-0.544,1.786-0.949,2.432c-2.351,3.75-6.547,5.453-10.688,4.341c-1.591-0.428-3.429-0.973-5.463-1.619
					c-1.443-0.458-3.001-0.255-4.278,0.556c-1.258,0.8-2.091,2.102-2.284,3.572c-0.49,3.742,0.661,7.578,3.241,10.8
					c0.192,0.24,0.352,0.525,0.475,0.848l0.838,2.199c1.166,3.062,3.063,5.88,5.485,8.151c5.955,5.583,12.756,13.526,12.494,25.504
					l-0.11,5.395c-0.028,1.38,1.068,2.522,2.449,2.55c0.017,0,0.035,0,0.052,0c1.357,0,2.471-1.086,2.499-2.449l0.11-5.391
					c0.309-14.109-7.884-23.455-14.073-29.257c-1.872-1.755-3.335-3.927-4.233-6.283l-0.838-2.199
					c-0.308-0.809-0.727-1.546-1.244-2.193c-1.722-2.15-2.498-4.645-2.096-7.038c2.105,0.669,4.017,1.235,5.679,1.682
					c6.215,1.673,12.733-0.946,16.223-6.513c0.7-1.117,1.217-2.406,1.579-3.938c0.178-0.753,0.347-1.451,0.518-2.04
					c0.377-1.301,0.166-2.689-0.58-3.808l-0.367-0.55l1.594-0.909c0.194-0.11,0.372-0.247,0.53-0.404
					c0.86-0.859,1.333-2.003,1.333-3.219v-4.927c1.379-0.585,3.334-1.524,5.303-2.836c0.903-0.602,1.493-1.501,1.662-2.534
					C105.912,168.869,104.165,166.608,101.954,163.747z"/>
			</g>
		</g>
		<g>
			<g>
				<path d="M245.006,218.783c-3.642-3.352-6.272-7.195-7.819-11.422l-0.394-1.076c-1.146-3.132-3.249-5.699-5.921-7.227
					c-1.845-1.055-3.251-2.739-3.959-4.744l-0.624-1.767c-0.708-2.005-0.67-4.201,0.106-6.182c3.329-8.503,10.79-29.97,8.184-45.604
					c-1.695-10.168-8.241-20.37-17.085-26.623c-7.37-5.211-15.811-7.308-23.776-5.903c-6.748,1.191-14.151,0.507-22.002-2.036
					c-4.532-1.468-9.294-0.35-12.739,2.99c-3.406,3.301-4.708,8.164-3.396,12.689c1.121,3.872,2.995,7.617,5.57,11.13
					c0.25,0.341,0.412,0.757,0.467,1.204c0.068,0.543-0.031,1.082-0.286,1.557c-3.078,5.723-2.957,12.232-2.859,17.463
					c0.016,0.83,0.031,1.625,0.031,2.376c0,2.371-2.472,5.569-4.458,8.139c-2.211,2.861-3.958,5.122-3.577,7.447
					c0.169,1.032,0.759,1.932,1.662,2.534c1.969,1.312,3.924,2.251,5.303,2.836v4.927c0,1.216,0.474,2.359,1.333,3.219
					c0.158,0.158,0.336,0.294,0.53,0.404l1.594,0.909l-0.367,0.55c-0.746,1.118-0.957,2.506-0.58,3.808
					c0.171,0.588,0.34,1.287,0.518,2.039c0.362,1.533,0.878,2.822,1.579,3.938c3.49,5.568,10.01,8.187,16.222,6.514
					c1.663-0.447,3.574-1.013,5.77-1.669c0.312,2.38-0.464,4.875-2.186,7.025c-0.518,0.647-0.937,1.385-1.244,2.192l-0.839,2.2
					c-0.897,2.355-2.36,4.528-4.232,6.283c-6.189,5.802-14.382,15.148-14.073,29.253l0.11,5.395
					c0.028,1.363,1.142,2.449,2.499,2.449c0.017,0,0.035,0,0.052,0c1.38-0.028,2.477-1.17,2.449-2.55l-0.11-5.398
					c-0.263-11.974,6.539-19.918,12.494-25.5c2.422-2.271,4.319-5.089,5.485-8.15l0.839-2.201c0.123-0.321,0.282-0.606,0.475-0.847
					c2.58-3.222,3.731-7.058,3.24-10.8c-0.192-1.47-1.025-2.771-2.283-3.572c-1.277-0.812-2.836-1.014-4.278-0.557
					c-2.035,0.646-3.873,1.191-5.464,1.619c-4.142,1.111-8.337-0.59-10.688-4.341c-0.404-0.645-0.715-1.44-0.949-2.432
					c-0.181-0.765-0.355-1.479-0.529-2.096l0.559-0.838c1.2-1.799,0.96-4.215-0.569-5.744c-0.158-0.158-0.336-0.294-0.53-0.404
					l-1.826-1.041v-4.881c0-1.848-1.099-3.497-2.801-4.202c-1.009-0.417-2.456-1.084-3.962-2.007
					c0.494-0.875,1.566-2.262,2.332-3.252c2.451-3.172,5.501-7.119,5.501-11.196c0-0.78-0.015-1.607-0.031-2.469
					c-0.087-4.647-0.195-10.431,2.263-15.001c0.75-1.395,1.042-2.966,0.844-4.546c-0.161-1.29-0.644-2.513-1.396-3.539
					c-2.228-3.04-3.843-6.258-4.8-9.565c-0.807-2.786-0.032-5.667,2.074-7.708c2.093-2.029,4.979-2.71,7.719-1.824
					c8.634,2.796,16.846,3.537,24.411,2.203c8.505-1.501,15.583,1.924,20.021,5.062c7.793,5.511,13.557,14.463,15.04,23.363
					c2.401,14.406-4.731,34.842-7.909,42.959c-1.213,3.098-1.271,6.531-0.165,9.668l0.624,1.768c1.107,3.136,3.307,5.771,6.193,7.42
					c1.649,0.943,2.966,2.578,3.707,4.604l0.394,1.076c1.823,4.983,4.894,9.486,9.128,13.383c5.961,5.486,9.38,13.274,9.38,21.367
					v9.672c0,1.381,1.119,2.5,2.5,2.5s2.5-1.119,2.5-2.5v-9.672C256,234.342,251.993,225.213,245.006,218.783z"/>
			</g>
		</g>
		<g>
			<g>
				<g>
					<g>
						<path d="M214.875,18.169h-59.749c-9.689,0-17.572,7.883-17.572,17.572v36.254c0,9.689,7.883,17.572,17.572,17.572h33.008
							c2.391,0,4.596,1.269,5.899,3.394c1.765,2.878,3.84,5.466,6.169,7.694c0.99,0.947,2.283,1.447,3.596,1.447
							c0.686,0,1.378-0.137,2.035-0.417c1.924-0.822,3.12-2.635,3.12-4.732v-5.075c0-1.274,1.037-2.311,2.311-2.311h3.612
							c9.689,0,17.572-7.883,17.572-17.572V35.741C232.446,26.052,224.563,18.169,214.875,18.169z M227.446,71.995
							c0,6.932-5.64,12.572-12.572,12.572h-3.612c-4.031,0-7.311,3.279-7.311,7.311v5.075c0,0.063,0,0.099-0.084,0.134
							c-0.111,0.048-0.168-0.005-0.21-0.045c-2.018-1.93-3.822-4.183-5.362-6.694c-2.219-3.619-6.018-5.78-10.162-5.78h-33.008
							c-6.932,0-12.572-5.64-12.572-12.572V35.741c0-6.932,5.64-12.572,12.572-12.572h59.749c6.932,0,12.572,5.64,12.572,12.572
							V71.995z"/>
					</g>
				</g>
			</g>
		</g>
		<g>
			<g>
				<g>
					<g>
						<path d="M100.875,18.169H41.125c-9.689,0-17.572,7.883-17.572,17.572v36.254c0,9.689,7.883,17.572,17.572,17.572h3.612
							c1.274,0,2.311,1.037,2.311,2.311v5.075c0,2.097,1.195,3.91,3.12,4.732c0.657,0.28,1.348,0.417,2.035,0.417
							c1.313,0,2.606-0.5,3.596-1.447c2.329-2.228,4.404-4.816,6.169-7.694c1.303-2.125,3.508-3.394,5.899-3.394h33.008
							c9.689,0,17.572-7.883,17.572-17.572V35.741C118.446,26.052,110.563,18.169,100.875,18.169z M113.446,71.995
							c0,6.932-5.64,12.572-12.572,12.572H67.867c-4.144,0-7.943,2.161-10.162,5.78c-1.54,2.512-3.344,4.765-5.362,6.695
							c-0.042,0.04-0.099,0.093-0.21,0.045c-0.084-0.036-0.084-0.071-0.084-0.134v-5.075c0-4.031-3.279-7.311-7.311-7.311h-3.612
							c-6.932,0-12.572-5.64-12.572-12.572V35.741c0-6.932,5.64-12.572,12.572-12.572h59.749c6.932,0,12.572,5.64,12.572,12.572
							V71.995z"/>
					</g>
				</g>
			</g>
		</g>
		<g>
			<g>
				<g>
					<g>
						<path d="M161.5,45.833c-4.411,0-8,3.589-8,8s3.589,8,8,8s8-3.589,8-8S165.911,45.833,161.5,45.833z M161.5,56.833
							c-1.654,0-3-1.346-3-3s1.346-3,3-3s3,1.346,3,3S163.154,56.833,161.5,56.833z"/>
					</g>
				</g>
			</g>
		</g>
		<g>
			<g>
				<g>
					<g>
						<path d="M184.5,45.833c-4.411,0-8,3.589-8,8s3.589,8,8,8s8-3.589,8-8S188.911,45.833,184.5,45.833z M184.5,56.833
							c-1.654,0-3-1.346-3-3s1.346-3,3-3s3,1.346,3,3S186.154,56.833,184.5,56.833z"/>
					</g>
				</g>
			</g>
		</g>
		<g>
			<g>
				<g>
					<g>
						<path d="M207.5,45.833c-4.411,0-8,3.589-8,8s3.589,8,8,8s8-3.589,8-8S211.911,45.833,207.5,45.833z M207.5,56.833
							c-1.654,0-3-1.346-3-3s1.346-3,3-3s3,1.346,3,3S209.154,56.833,207.5,56.833z"/>
					</g>
				</g>
			</g>
		</g>
		<g>
			<g>
				<g>
					<g>
						<path d="M94.5,45.833c-4.411,0-8,3.589-8,8s3.589,8,8,8s8-3.589,8-8S98.911,45.833,94.5,45.833z M94.5,56.833
							c-1.654,0-3-1.346-3-3s1.346-3,3-3s3,1.346,3,3S96.154,56.833,94.5,56.833z"/>
					</g>
				</g>
			</g>
		</g>
		<g>
			<g>
				<g>
					<g>
						<path d="M71.5,45.833c-4.411,0-8,3.589-8,8s3.589,8,8,8s8-3.589,8-8S75.911,45.833,71.5,45.833z M71.5,56.833
							c-1.654,0-3-1.346-3-3s1.346-3,3-3s3,1.346,3,3S73.154,56.833,71.5,56.833z"/>
					</g>
				</g>
			</g>
		</g>
		<g>
			<g>
				<g>
					<g>
						<path d="M48.5,45.833c-4.411,0-8,3.589-8,8s3.589,8,8,8s8-3.589,8-8S52.911,45.833,48.5,45.833z M48.5,56.833
							c-1.654,0-3-1.346-3-3s1.346-3,3-3s3,1.346,3,3S50.154,56.833,48.5,56.833z"/>
					</g>
				</g>
			</g>
		</g>
	</g>
</g>
<g id="Layer_3">
</g>
<g id="Layer_4">
</g>
<g id="Layer_5">
</g>
<g id="Layer_6">
</g>
<g id="Layer_7">
</g>
<g id="Layer_8">
</g>
<g id="Layer_9">
</g>
<g id="Layer_10">
</g>
<g id="Layer_11">
</g>
<g id="Layer_12">
</g>
<g id="Layer_13">
</g>
<g id="Layer_14">
</g>
<g id="Layer_15">
</g>
<g id="Layer_16">
</g>
<g id="Layer_17">
</g>
<g id="Layer_18">
</g>
<g id="Layer_19">
</g>
<g id="Layer_20">
</g>
<g id="Layer_21">
</g>
<g id="Layer_22">
</g>
<g id="Layer_23">
</g>
<g id="Layer_24">
</g>
<g id="Layer_25">
</g>
<g id="Layer_26">
</g>
<g id="Layer_27">
</g>
<g id="Layer_28">
</g>
<g id="Layer_29">
</g>
<g id="Layer_30">
</g>
<g id="Layer_31">
</g>
<g id="Layer_32">
</g>
<g id="Layer_33">
</g>
<g id="Layer_34">
</g>
<g id="Layer_35">
</g>
<g id="Layer_36">
</g>
<g id="Layer_37">
</g>
<g id="Layer_38">
</g>
<g id="Layer_39">
</g>
<g id="Layer_40">
</g>
<g id="Layer_41">
</g>
<g id="Layer_42">
</g>
<g id="Layer_43">
</g>
<g id="Layer_44">
</g>
<g id="Layer_45">
</g>
<g id="Layer_46">
</g>
<g id="Layer_47">
</g>
<g id="Layer_48">
</g>
<g id="Layer_49">
</g>
<g id="Layer_50">
</g>
<g id="Layer_51">
</g>
<g id="Layer_52">
</g>
<g id="Layer_53">
</g>
<g id="Layer_54">
</g>
<g id="Layer_55">
</g>
<g id="Layer_56">
</g>
<g id="Layer_57">
</g>
<g id="Layer_58">
</g>
<g id="Layer_59">
</g>
<g id="Layer_60">
</g>
<g id="Layer_61">
</g>
<g id="Layer_62">
</g>
<g id="Layer_63">
</g>
<g id="Layer_64">
</g>
<g id="Layer_65">
</g>
<g id="Layer_66">
</g>
<g id="Layer_67">
</g>
<g id="Layer_68">
</g>
<g id="Layer_69">
</g>
<g id="Layer_70">
</g>
<g id="Layer_71">
</g>
<g id="Layer_72">
</g>
<g id="Layer_73">
</g>
<g id="Layer_74">
</g>
<g id="Layer_75">
</g>
<g id="Layer_76">
</g>
<g id="Layer_77">
</g>
<g id="Layer_78">
</g>
<g id="Layer_79">
</g>
<g id="Layer_80">
</g>
</svg>
