<?xml version="1.0" encoding="utf-8"?>
<!-- Generator: Adobe Illustrator 24.0.0, SVG Export Plug-In . SVG Version: 6.00 Build 0)  -->
<svg version="1.1" xmlns="http://www.w3.org/2000/svg" xmlns:xlink="http://www.w3.org/1999/xlink" x="0px" y="0px"
	 viewBox="0 0 256 256" enable-background="new 0 0 256 256" xml:space="preserve">
<g id="Layer_1">
</g>
<g id="Layer_2">
</g>
<g id="Layer_3">
</g>
<g id="Layer_4">
</g>
<g id="Layer_5">
</g>
<g id="Layer_6">
</g>
<g id="Layer_7">
</g>
<g id="Layer_8">
</g>
<g id="Layer_9">
</g>
<g id="Layer_10">
</g>
<g id="Layer_11">
</g>
<g id="Layer_12">
</g>
<g id="Layer_13">
</g>
<g id="Layer_14">
</g>
<g id="Layer_15">
</g>
<g id="Layer_16">
</g>
<g id="Layer_17">
</g>
<g id="Layer_18">
</g>
<g id="Layer_19">
</g>
<g id="Layer_20">
</g>
<g id="Layer_21">
</g>
<g id="Layer_22">
</g>
<g id="Layer_23">
</g>
<g id="Layer_24">
</g>
<g id="Layer_25">
</g>
<g id="Layer_26">
</g>
<g id="Layer_27">
</g>
<g id="Layer_28">
</g>
<g id="Layer_29">
</g>
<g id="Layer_30">
</g>
<g id="Layer_31">
</g>
<g id="Layer_32">
</g>
<g id="Layer_33">
</g>
<g id="Layer_34">
</g>
<g id="Layer_35">
</g>
<g id="Layer_36">
</g>
<g id="Layer_37">
</g>
<g id="Layer_38">
</g>
<g id="Layer_39">
</g>
<g id="Layer_40">
</g>
<g id="Layer_41">
</g>
<g id="Layer_42">
</g>
<g id="Layer_43">
</g>
<g id="Layer_44">
</g>
<g id="Layer_45">
</g>
<g id="Layer_46">
</g>
<g id="Layer_47">
</g>
<g id="Layer_48">
</g>
<g id="Layer_49">
</g>
<g id="Layer_50">
</g>
<g id="Layer_51">
</g>
<g id="Layer_52">
</g>
<g id="Layer_53">
</g>
<g id="Layer_54">
</g>
<g id="Layer_55">
</g>
<g id="Layer_56">
</g>
<g id="Layer_57">
</g>
<g id="Layer_58">
</g>
<g id="Layer_59">
</g>
<g id="Layer_60">
</g>
<g id="Layer_61">
</g>
<g id="Layer_62">
</g>
<g id="Layer_63">
</g>
<g id="Layer_64">
</g>
<g id="Layer_65">
</g>
<g id="Layer_66">
</g>
<g id="Layer_67">
	<g>
		<g>
			<g>
				<path fill="#F5C84C" d="M167.491,140.649H88.509c-6.763,0-12.265,5.502-12.265,12.264v33.306
					c0,30.25,19.263,57.039,47.933,66.66c2.481,0.832,5.193,0.822,7.646,0c28.669-9.621,47.932-36.409,47.932-66.66v-33.306
					C179.755,146.151,174.253,140.649,167.491,140.649z"/>
			</g>
		</g>
		<g>
			<g>
				<path fill="#70D6F9" d="M161.948,230.339l-10.921-2.749c-5.788-1.457-10.34-3.953-10.281-3.924
					c-2.38-1.174-3.887-3.596-3.887-6.25v-3.283c-2.786,1.458-5.946,2.289-9.293,2.289h0c-3.347,0-6.507-0.831-9.293-2.289v3.283
					c0,2.653-1.507,5.076-3.887,6.25c-3.216,1.585-6.022,2.852-10.281,3.924l-10.921,2.749c-0.376,0.095-0.736,0.224-1.087,0.369
					c8.193,10.031,19.179,17.843,32.078,22.172c2.481,0.832,5.193,0.822,7.646,0c12.77-4.285,23.666-11.983,31.832-21.868
					C163.117,230.732,162.555,230.491,161.948,230.339z"/>
			</g>
		</g>
		<g>
			<g>
				<path fill="#F9D0B4" d="M144.857,172.125c-1.319-1.383-3.464-1.51-4.967-0.33c-2.377,1.866-6.49,4.172-12.3,4.172
					c-5.824,0-9.959-2.318-12.346-4.186c-1.502-1.176-3.642-1.044-4.959,0.337l-0.007,0.007c-1.85,1.94-2.882,4.517-2.882,7.197
					v16.929c0,11.094,9.077,20.171,20.171,20.171h0c11.094,0,20.171-9.077,20.171-20.171v-16.929
					C147.738,176.642,146.706,174.065,144.857,172.125z"/>
			</g>
		</g>
		<g>
			<g>
				<path fill="#F9D0B4" d="M149.033,180.878c-0.441,0-0.872,0.037-1.294,0.103v15.27c0,0.455-0.021,0.905-0.051,1.353
					c0.439,0.071,0.886,0.117,1.345,0.117c4.651,0,8.422-3.771,8.422-8.422S153.684,180.878,149.033,180.878z"/>
			</g>
		</g>
		<g>
			<g>
				<path fill="#F9D0B4" d="M107.396,196.251v-15.27c-0.422-0.066-0.854-0.103-1.294-0.103c-4.651,0-8.422,3.771-8.422,8.422
					s3.77,8.422,8.422,8.422c0.459,0,0.906-0.047,1.345-0.117v0C107.417,197.156,107.396,196.706,107.396,196.251z"/>
			</g>
		</g>
		<g>
			<g>
				<path fill="#5B5D60" d="M147.663,163.672c-0.676,0-1.261-0.521-1.27-1.196c-0.155-11.24-12.99-13.351-25.772-11.144
					c-10.837,1.871-18.758,11.269-18.758,22.267v8.433c1.246-0.729,2.692-1.153,4.239-1.153c0.441,0,0.872,0.037,1.294,0.103v-1.658
					c0-2.68,1.032-5.257,2.882-7.197l0.007-0.007c1.316-1.381,3.457-1.512,4.959-0.337c2.387,1.868,6.522,4.186,12.346,4.186
					c5.81,0,9.923-2.306,12.3-4.172c1.503-1.18,3.648-1.053,4.967,0.33c1.85,1.94,2.882,4.517,2.882,7.197v1.658
					c0.422-0.066,0.854-0.103,1.294-0.103c1.566,0,3.028,0.436,4.284,1.18v-6.924C153.316,165.07,149.682,163.672,147.663,163.672z"
					/>
			</g>
		</g>
		<g>
			<g>
				<path fill="#9BE5F9" d="M140.747,223.666c-0.477-0.235-0.907-0.532-1.308-0.859l-8.093,9.266
					c-0.635,0.727-0.56,1.831,0.167,2.465l5.267,4.601c0.727,0.635,1.831,0.56,2.465-0.167l10.297-11.789
					C144.481,225.713,140.693,223.639,140.747,223.666z"/>
			</g>
		</g>
		<g>
			<g>
				<path fill="#9BE5F9" d="M123.789,232.073l-8.093-9.266c-0.401,0.327-0.832,0.624-1.308,0.859
					c-2.824,1.392-5.335,2.539-8.789,3.524l10.291,11.783c0.635,0.727,1.739,0.801,2.465,0.167l5.267-4.601
					C124.349,233.903,124.424,232.8,123.789,232.073z"/>
			</g>
		</g>
		<g>
			<g>
				<path fill="#F9D0B4" d="M136.86,217.416v-3.283c-2.786,1.458-5.946,2.289-9.293,2.289h0c-3.347,0-6.507-0.831-9.293-2.289v3.283
					c0,2.122-0.975,4.085-2.578,5.391l8.093,9.266c0.241,0.277,0.379,0.607,0.418,0.946h6.72c0.039-0.339,0.177-0.67,0.418-0.946
					l8.093-9.266C137.835,221.501,136.86,219.538,136.86,217.416z"/>
			</g>
		</g>
		<g>
			<g>
				<path fill="#5290DB" d="M113.52,23.403c-1.688-0.308-3.427-0.468-5.203-0.468c-1.776,0-3.515,0.161-5.203,0.468
					c-6.697,1.22-11.853,6.357-13.353,12.84c4.848,0.749,8.565,4.918,8.588,9.97h19.156c0.024-5.311,4.127-9.65,9.338-10.061
					C125.318,29.713,120.185,24.617,113.52,23.403z"/>
			</g>
		</g>
		<g>
			<g>
				<path fill="#F9D0B4" d="M107.927,2.5c-5.604,0-10.148,4.543-10.148,10.148s4.543,10.148,10.148,10.148
					c5.605,0,10.148-4.543,10.148-10.148S113.532,2.5,107.927,2.5z"/>
			</g>
		</g>
		<g>
			<g>
				<path fill="#F5C84C" d="M152.968,23.403c-1.688-0.308-3.427-0.468-5.203-0.468c-1.776,0-3.515,0.161-5.203,0.468
					c-6.697,1.22-11.853,6.357-13.353,12.84c4.848,0.749,8.565,4.918,8.588,9.97h19.156c0.024-5.311,4.127-9.65,9.338-10.061
					C164.765,29.713,159.632,24.617,152.968,23.403z"/>
			</g>
		</g>
		<g>
			<g>
				<path fill="#F9D0B4" d="M147.374,2.5c-5.604,0-10.148,4.543-10.148,10.148s4.543,10.148,10.148,10.148
					c5.605,0,10.148-4.543,10.148-10.148S152.979,2.5,147.374,2.5z"/>
			</g>
		</g>
		<g>
			<g>
				<path fill="#70D6F9" d="M107.341,70.814c-1.191-6.932-6.521-12.519-13.545-13.799c-1.688-0.307-3.427-0.468-5.203-0.468
					c-1.776,0-3.515,0.161-5.203,0.468c-7.334,1.336-12.836,7.366-13.692,14.722c-0.05,0.434-0.063,0.872-0.063,1.309v4.802
					c0,1.092,0.886,1.978,1.978,1.978h33.88c1.092,0,1.978-0.886,1.978-1.978v-5.245C107.47,72.004,107.443,71.404,107.341,70.814z"
					/>
			</g>
		</g>
		<g>
			<g>
				
					<ellipse transform="matrix(0.0985 -0.9951 0.9951 0.0985 33.4773 129.4755)" fill="#F9D0B4" cx="88.203" cy="46.26" rx="10.148" ry="10.148"/>
			</g>
		</g>
		<g>
			<g>
				<path fill="#87D147" d="M146.789,70.814c-1.191-6.932-6.521-12.519-13.545-13.799c-1.688-0.307-3.427-0.468-5.203-0.468
					s-3.515,0.161-5.203,0.468c-7.334,1.336-12.836,7.366-13.692,14.722c-0.05,0.434-0.063,0.872-0.063,1.309v4.802
					c0,1.092,0.886,1.978,1.978,1.978h33.88c1.093,0,1.978-0.886,1.978-1.978v-5.245C146.918,72.004,146.89,71.404,146.789,70.814z"
					/>
			</g>
		</g>
		<g>
			<g>
				
					<ellipse transform="matrix(0.9975 -0.0709 0.0709 0.9975 -2.9582 9.1655)" fill="#F9D0B4" cx="127.651" cy="46.26" rx="10.148" ry="10.148"/>
			</g>
		</g>
		<g>
			<g>
				<path fill="#B598F9" d="M186.236,70.814c-1.191-6.932-6.521-12.519-13.545-13.799c-1.688-0.307-3.427-0.468-5.203-0.468
					s-3.515,0.161-5.203,0.468c-7.334,1.336-12.836,7.366-13.692,14.722c-0.051,0.434-0.063,0.872-0.063,1.309v4.802
					c0,1.092,0.886,1.978,1.978,1.978h33.88c1.093,0,1.978-0.886,1.978-1.978v-5.245C186.365,72.004,186.337,71.404,186.236,70.814z
					"/>
			</g>
		</g>
		<g>
			<g>
				<circle fill="#F9D0B4" cx="167.098" cy="46.26" r="10.148"/>
			</g>
		</g>
		<g>
			<g>
				<path fill="#70D6F9" d="M212.906,198.1h-2.4v-2.3c0-1.8-1.4-3.2-3.2-3.2c-1.7,0-3.2,1.4-3.2,3.1v2.4h-2.3
					c-1.8,0-3.2,1.4-3.2,3.2c-0.1,1.7,1.3,3.2,3.2,3.2h2.3v2.3c0,1.8,1.4,3.2,3.2,3.2c1.7,0,3.2-1.4,3.2-3.1v-2.4h2.3
					c1.8,0,3.2-1.4,3.2-3.2C216.006,199.6,214.606,198.1,212.906,198.1z"/>
			</g>
		</g>
		<g>
			<g>
				<path fill="#F5C84C" d="M188.206,229.5c-1.878,0-3.4,1.522-3.4,3.4c0,1.878,1.522,3.4,3.4,3.4c1.878,0,3.4-1.522,3.4-3.4
					C191.606,231.022,190.083,229.5,188.206,229.5z"/>
			</g>
		</g>
		<g>
			<g>
				<path fill="#FC657E" d="M62.15,130.175c-3.1-0.6-5.6-3-6.2-6.1c0-0.1-0.3-0.1-0.3,0c-0.6,3.1-3.1,5.5-6.2,6.1
					c-0.1,0-0.1,0.2,0,0.3c3.1,0.6,5.6,3,6.2,6.1c0,0.1,0.3,0.1,0.3,0c0.6-3.1,3.1-5.5,6.2-6.1
					C62.25,130.375,62.25,130.175,62.15,130.175z"/>
			</g>
		</g>
		<g>
			<g>
				<path fill="#87D147" d="M76.369,0c-1.878,0-3.4,1.522-3.4,3.4c0,1.878,1.522,3.4,3.4,3.4c1.878,0,3.4-1.522,3.4-3.4
					C79.769,1.522,78.246,0,76.369,0z"/>
			</g>
		</g>
		<g>
			<g>
				<path fill="#F5C84C" d="M59.15,28.2c-4.5-0.8-8-4.3-8.9-8.7c0-0.2-0.4-0.2-0.4,0c-0.9,4.4-4.4,7.9-8.9,8.7c-0.2,0-0.2,0.3,0,0.4
					c4.5,0.8,8,4.3,8.9,8.7c0,0.2,0.4,0.2,0.4,0c0.9-4.4,4.4-7.9,8.9-8.7C59.35,28.5,59.35,28.2,59.15,28.2z"/>
			</g>
		</g>
		<g>
			<g>
				<path d="M171.492,102.586c-0.79-1.133-2.348-1.405-3.481-0.618l-29.05,20.291V91.057c0-1.381-1.119-2.5-2.5-2.5
					s-2.5,1.119-2.5,2.5v35.998c0,0.932,0.518,1.786,1.344,2.217c0.364,0.189,0.76,0.283,1.156,0.283
					c0.503,0,1.004-0.151,1.432-0.45l32.981-23.037C172.006,105.276,172.283,103.718,171.492,102.586z"/>
			</g>
		</g>
		<g>
			<g>
				<path d="M173.128,99.166L159.3,96.507c-1.353-0.253-2.667,0.626-2.927,1.983c-0.261,1.355,0.627,2.666,1.983,2.927l11.373,2.188
					l-2.191,11.395c-0.261,1.355,0.627,2.666,1.983,2.927c0.16,0.03,0.318,0.045,0.475,0.045c1.174,0,2.222-0.831,2.452-2.028
					l2.663-13.85C175.372,100.737,174.484,99.427,173.128,99.166z"/>
			</g>
		</g>
		<g>
			<g>
				<path d="M119.539,88.557c-1.381,0-2.5,1.119-2.5,2.5v31.202l-29.05-20.291c-1.132-0.79-2.691-0.515-3.481,0.618
					c-0.791,1.132-0.514,2.69,0.618,3.481l32.981,23.037c0.428,0.299,0.929,0.45,1.432,0.45c0.396,0,0.792-0.094,1.156-0.283
					c0.826-0.431,1.344-1.285,1.344-2.217V91.057C122.039,89.676,120.92,88.557,119.539,88.557z"/>
			</g>
		</g>
		<g>
			<g>
				<path d="M99.627,98.49c-0.261-1.357-1.568-2.237-2.927-1.983l-13.828,2.659c-1.356,0.261-2.244,1.571-1.983,2.927l2.663,13.85
					c0.23,1.197,1.277,2.029,2.452,2.028c0.157,0,0.315-0.015,0.475-0.045c1.356-0.261,2.244-1.571,1.983-2.927l-2.191-11.395
					l11.373-2.188C99,101.156,99.888,99.846,99.627,98.49z"/>
			</g>
		</g>
		<g>
			<g>
				<g>
					<g>
						<g>
							<path d="M167.491,138.149H88.509c-8.141,0-14.765,6.623-14.765,14.765v33.306c0,31.326,19.948,59.067,49.637,69.03h0
								c1.489,0.499,3.053,0.749,4.618,0.749c1.564,0,3.129-0.25,4.619-0.749c29.689-9.963,49.637-37.704,49.637-69.03v-33.306
								C182.255,144.772,175.632,138.149,167.491,138.149z M177.255,186.22c0,29.175-18.578,55.011-46.227,64.29
								c-1.953,0.654-4.104,0.654-6.056,0h0c-27.65-9.279-46.228-35.115-46.228-64.29v-33.306c0-5.384,4.38-9.765,9.765-9.765
								h78.981c5.384,0,9.765,4.381,9.765,9.765V186.22z"/>
						</g>
					</g>
				</g>
			</g>
		</g>
		<g>
			<g>
				<g>
					<g>
						<path d="M146.666,170.399L146.666,170.399c-2.208-2.316-5.787-2.561-8.32-0.571c-2.114,1.66-5.696,3.639-10.756,3.639
							c-5.071,0-8.675-1.987-10.805-3.654c-2.532-1.981-6.104-1.73-8.315,0.587c-2.304,2.416-3.572,5.584-3.572,8.923v16.929
							c0,12.501,10.17,22.671,22.671,22.671s22.671-10.17,22.671-22.671v-16.929C150.238,175.983,148.97,172.815,146.666,170.399z
							 M145.238,196.251c0,9.744-7.927,17.671-17.671,17.671s-17.671-7.927-17.671-17.671v-16.929c0-2.048,0.778-3.99,2.198-5.479
							c0.227-0.238,0.534-0.359,0.845-0.359c0.266,0,0.535,0.088,0.764,0.267c2.75,2.151,7.391,4.717,13.886,4.717
							c6.489,0,11.11-2.559,13.844-4.706c0.499-0.391,1.192-0.352,1.615,0.09c1.412,1.481,2.19,3.425,2.19,5.472V196.251z"/>
					</g>
				</g>
			</g>
		</g>
		<g>
			<g>
				<path d="M149.033,178.378c-1.381,0-2.5,1.119-2.5,2.5s1.119,2.5,2.5,2.5c3.265,0,5.921,2.656,5.921,5.922
					c0,3.265-2.656,5.921-5.921,5.921c-1.381,0-2.5,1.119-2.5,2.5s1.119,2.5,2.5,2.5c6.022,0,10.921-4.899,10.921-10.921
					C159.954,183.277,155.055,178.378,149.033,178.378z"/>
			</g>
		</g>
		<g>
			<g>
				<path d="M106.102,195.221c-3.265,0-5.922-2.656-5.922-5.921c0-3.266,2.657-5.922,5.922-5.922c1.381,0,2.5-1.119,2.5-2.5
					s-1.119-2.5-2.5-2.5c-6.022,0-10.922,4.899-10.922,10.922c0,6.021,4.899,10.921,10.922,10.921c1.381,0,2.5-1.119,2.5-2.5
					S107.483,195.221,106.102,195.221z"/>
			</g>
		</g>
		<g>
			<g>
				<path d="M148.834,161.274c-0.314-3.639-1.873-6.708-4.546-8.929c-6.625-5.503-17.938-4.54-24.093-3.479
					c-12.071,2.086-20.832,12.486-20.832,24.73v7.809c0,1.381,1.119,2.5,2.5,2.5s2.5-1.119,2.5-2.5v-7.809
					c0-9.805,7.017-18.133,16.683-19.803c8.896-1.539,16.39-0.641,20.048,2.397c1.846,1.533,2.762,3.6,2.799,6.317
					c0.028,2.02,1.719,3.662,3.771,3.662c1.945,0,3.153,3.434,3.153,8.962v6.158c0,1.381,1.119,2.5,2.5,2.5s2.5-1.119,2.5-2.5
					v-6.158C155.816,164.264,151.574,161.758,148.834,161.274z"/>
			</g>
		</g>
		<g>
			<g>
				<path d="M150.665,225.896c-1.04-0.908-2.619-0.801-3.527,0.238l-9.281,10.626l-4.133-3.61l7.153-8.19
					c0.908-1.04,0.802-2.619-0.238-3.527c-1.04-0.908-2.619-0.802-3.527,0.238l-7.649,8.758c-1.541,1.763-1.359,4.451,0.405,5.992
					l5.267,4.601c0.781,0.682,1.761,1.049,2.788,1.049c0.097,0,0.195-0.003,0.292-0.01c1.133-0.077,2.167-0.59,2.913-1.444
					l9.776-11.192C151.812,228.384,151.705,226.805,150.665,225.896z"/>
			</g>
		</g>
		<g>
			<g>
				<path d="M125.672,230.429l-7.42-8.496c-0.908-1.041-2.488-1.147-3.527-0.238c-1.04,0.908-1.146,2.487-0.238,3.527l6.925,7.929
					l-4.133,3.61l-9.232-10.569c-0.909-1.041-2.488-1.147-3.527-0.238c-1.04,0.908-1.146,2.487-0.238,3.527l9.726,11.135
					c0.746,0.855,1.781,1.368,2.913,1.445c0.098,0.007,0.195,0.01,0.292,0.01c1.026,0,2.007-0.367,2.788-1.049l5.268-4.601
					C127.031,234.88,127.212,232.191,125.672,230.429z"/>
			</g>
		</g>
		<g>
			<g>
				<path d="M130.083,230.519h-4.875c-1.381,0-2.5,1.119-2.5,2.5s1.119,2.5,2.5,2.5h4.875c1.381,0,2.5-1.119,2.5-2.5
					S131.464,230.519,130.083,230.519z"/>
			</g>
		</g>
		<g>
			<g>
				<path d="M116.375,43.714h-16.75c-1.381,0-2.5,1.119-2.5,2.5s1.119,2.5,2.5,2.5h16.75c1.381,0,2.5-1.119,2.5-2.5
					S117.756,43.714,116.375,43.714z"/>
			</g>
		</g>
		<g>
			<g>
				<path d="M129.073,34.794c-2.025-7.215-7.813-12.521-15.104-13.851c-3.702-0.675-7.603-0.673-11.303,0
					c-7.233,1.318-13.008,6.57-15.072,13.706c-0.384,1.326,0.38,2.712,1.707,3.096c1.329,0.386,2.712-0.381,3.096-1.707
					c1.534-5.301,5.812-9.2,11.166-10.176c3.11-0.566,6.398-0.567,9.51,0.001c5.396,0.982,9.683,4.923,11.188,10.282
					c0.31,1.104,1.313,1.825,2.405,1.825c0.224,0,0.451-0.03,0.677-0.094C128.671,37.504,129.447,36.123,129.073,34.794z"/>
			</g>
		</g>
		<g>
			<g>
				<g>
					<g>
						<path d="M107.927,0c-6.974,0-12.648,5.674-12.648,12.647c0,6.975,5.674,12.648,12.648,12.648
							c6.974,0,12.647-5.674,12.647-12.648C120.575,5.674,114.901,0,107.927,0z M107.927,20.296c-4.217,0-7.648-3.431-7.648-7.648
							c0-4.217,3.431-7.647,7.648-7.647c4.217,0,7.647,3.431,7.647,7.647C115.575,16.865,112.144,20.296,107.927,20.296z"/>
					</g>
				</g>
			</g>
		</g>
		<g>
			<g>
				<path d="M155.708,43.714h-16.895c-1.381,0-2.5,1.119-2.5,2.5s1.119,2.5,2.5,2.5h16.895c1.381,0,2.5-1.119,2.5-2.5
					S157.088,43.714,155.708,43.714z"/>
			</g>
		</g>
		<g>
			<g>
				<path d="M168.406,34.401c-2.125-7.004-7.869-12.161-14.99-13.457c-3.7-0.675-7.601-0.676-11.303-0.001
					C134.82,22.272,129.029,27.578,127,34.79c-0.374,1.329,0.401,2.71,1.73,3.083c0.226,0.064,0.454,0.095,0.678,0.095
					c1.092,0,2.095-0.722,2.405-1.824c1.507-5.357,5.796-9.297,11.196-10.28c3.112-0.568,6.4-0.568,9.51,0
					c5.27,0.959,9.523,4.787,11.101,9.989c0.401,1.321,1.799,2.068,3.118,1.667C168.061,37.118,168.807,35.723,168.406,34.401z"/>
			</g>
		</g>
		<g>
			<g>
				<g>
					<g>
						<path d="M147.375,0c-6.974,0-12.648,5.674-12.648,12.647c0,6.975,5.674,12.648,12.648,12.648s12.648-5.674,12.648-12.648
							C160.022,5.674,154.349,0,147.375,0z M147.375,20.296c-4.217,0-7.648-3.431-7.648-7.648c0-4.217,3.431-7.647,7.648-7.647
							s7.648,3.431,7.648,7.647C155.022,16.865,151.592,20.296,147.375,20.296z"/>
					</g>
				</g>
			</g>
		</g>
		<g>
			<g>
				<g>
					<g>
						<path d="M109.805,70.39c-1.38-8.026-7.633-14.39-15.56-15.834c-3.709-0.675-7.596-0.675-11.303,0
							c-8.409,1.532-14.729,8.32-15.728,16.894c-0.055,0.472-0.08,0.979-0.08,1.597v4.802c0,2.47,2.009,4.479,4.478,4.479h33.879
							c2.469,0,4.478-2.009,4.478-4.479v-5.245C109.97,71.747,109.918,71.044,109.805,70.39z M104.97,77.326H72.135v-4.28
							c0-0.427,0.015-0.741,0.047-1.02c0.742-6.372,5.426-11.416,11.657-12.552c3.118-0.566,6.391-0.567,9.51,0.001
							c5.87,1.069,10.503,5.796,11.528,11.762c0.063,0.367,0.093,0.801,0.093,1.365V77.326z"/>
					</g>
				</g>
			</g>
		</g>
		<g>
			<g>
				<g>
					<g>
						<path d="M88.203,33.612c-6.974,0-12.647,5.674-12.647,12.647s5.674,12.647,12.647,12.647c6.974,0,12.648-5.674,12.648-12.647
							S95.177,33.612,88.203,33.612z M88.203,53.907c-4.217,0-7.647-3.431-7.647-7.647s3.431-7.647,7.647-7.647
							c4.217,0,7.648,3.431,7.648,7.647S92.42,53.907,88.203,53.907z"/>
					</g>
				</g>
			</g>
		</g>
		<g>
			<g>
				<g>
					<g>
						<path d="M149.252,70.39c-1.38-8.026-7.633-14.39-15.56-15.833c-3.707-0.678-7.596-0.677-11.303-0.001
							c-8.409,1.532-14.729,8.32-15.728,16.894c-0.055,0.472-0.08,0.979-0.08,1.597v4.802c0,2.47,2.009,4.479,4.478,4.479h33.88
							c2.469,0,4.478-2.009,4.478-4.479v-5.245C149.418,71.749,149.365,71.046,149.252,70.39z M144.418,77.326h-32.836v-4.28
							c0-0.427,0.015-0.741,0.047-1.02c0.742-6.372,5.426-11.416,11.657-12.552c3.118-0.566,6.391-0.567,9.51,0.001
							c5.87,1.069,10.503,5.796,11.528,11.762c0.063,0.369,0.093,0.803,0.093,1.365V77.326z"/>
					</g>
				</g>
			</g>
		</g>
		<g>
			<g>
				<g>
					<g>
						<path d="M127.651,33.612c-6.974,0-12.648,5.674-12.648,12.647s5.674,12.647,12.648,12.647s12.648-5.674,12.648-12.647
							S134.625,33.612,127.651,33.612z M127.651,53.907c-4.217,0-7.648-3.431-7.648-7.647s3.431-7.647,7.648-7.647
							s7.648,3.431,7.648,7.647S131.868,53.907,127.651,53.907z"/>
					</g>
				</g>
			</g>
		</g>
		<g>
			<g>
				<g>
					<g>
						<path d="M188.7,70.39c-1.38-8.026-7.633-14.39-15.56-15.833c-3.706-0.677-7.593-0.676-11.303-0.001
							c-8.408,1.532-14.729,8.32-15.728,16.894c-0.055,0.475-0.08,0.968-0.08,1.597v4.802c0,2.47,2.009,4.479,4.478,4.479h33.88
							c2.469,0,4.478-2.009,4.478-4.479v-5.245C188.865,71.749,188.812,71.046,188.7,70.39z M183.865,77.326H151.03v-4.28
							c0-0.43,0.014-0.744,0.046-1.02c0.742-6.372,5.427-11.416,11.657-12.551c3.119-0.567,6.392-0.567,9.51,0
							c5.87,1.069,10.503,5.796,11.528,11.762c0.063,0.369,0.093,0.803,0.093,1.365V77.326z"/>
					</g>
				</g>
			</g>
		</g>
		<g>
			<g>
				<g>
					<g>
						<path d="M167.098,33.612c-6.974,0-12.648,5.674-12.648,12.647s5.674,12.647,12.648,12.647s12.648-5.674,12.648-12.647
							S174.072,33.612,167.098,33.612z M167.098,53.907c-4.217,0-7.648-3.431-7.648-7.647s3.431-7.647,7.648-7.647
							s7.648,3.431,7.648,7.647S171.315,53.907,167.098,53.907z"/>
					</g>
				</g>
			</g>
		</g>
		<g>
			<g>
				<path d="M118.274,212.25c-1.381,0-2.5,1.119-2.5,2.5v2.666c0,1.714-0.955,3.25-2.492,4.008
					c-2.899,1.429-5.636,2.697-9.786,3.741l-10.917,2.749c-0.3,0.075-0.594,0.166-0.88,0.27c-1.299,0.469-1.972,1.901-1.503,3.2
					c0.367,1.019,1.328,1.652,2.352,1.652c0.282,0,0.568-0.048,0.848-0.149c0.13-0.047,0.263-0.089,0.402-0.123l10.92-2.749
					c4.625-1.165,7.617-2.549,10.777-4.106c3.257-1.606,5.281-4.86,5.281-8.492v-2.666
					C120.774,213.369,119.655,212.25,118.274,212.25z"/>
			</g>
		</g>
		<g>
			<g>
				<path d="M164.33,228.557c-0.606-0.285-1.186-0.495-1.771-0.643l-10.92-2.749c-5.217-1.313-9.439-3.556-9.665-3.678
					c-0.04-0.021-0.08-0.043-0.121-0.063c-1.538-0.758-2.493-2.294-2.493-4.008v-2.666c0-1.381-1.119-2.5-2.5-2.5
					s-2.5,1.119-2.5,2.5v2.666c0,3.573,1.959,6.782,5.126,8.414c0.644,0.406,1.647,0.857,3.253,1.551
					c1.773,0.767,4.544,1.845,7.678,2.634l10.921,2.749c0.27,0.067,0.552,0.172,0.863,0.318c0.344,0.161,0.706,0.238,1.063,0.238
					c0.938,0,1.838-0.531,2.264-1.437C166.116,230.634,165.58,229.145,164.33,228.557z"/>
			</g>
		</g>
	</g>
</g>
<g id="Layer_68">
</g>
<g id="Layer_69">
</g>
<g id="Layer_70">
</g>
<g id="Layer_71">
</g>
<g id="Layer_72">
</g>
<g id="Layer_73">
</g>
<g id="Layer_74">
</g>
<g id="Layer_75">
</g>
<g id="Layer_76">
</g>
<g id="Layer_77">
</g>
<g id="Layer_78">
</g>
<g id="Layer_79">
</g>
<g id="Layer_80">
</g>
</svg>
