<?xml version="1.0" encoding="utf-8"?>
<!-- Generator: Adobe Illustrator 24.0.0, SVG Export Plug-In . SVG Version: 6.00 Build 0)  -->
<svg version="1.1" xmlns="http://www.w3.org/2000/svg" xmlns:xlink="http://www.w3.org/1999/xlink" x="0px" y="0px"
	 viewBox="0 0 256 256" enable-background="new 0 0 256 256" xml:space="preserve">
<g id="Layer_1">
</g>
<g id="Layer_2">
</g>
<g id="Layer_3">
</g>
<g id="Layer_4">
</g>
<g id="Layer_5">
</g>
<g id="Layer_6">
</g>
<g id="Layer_7">
</g>
<g id="Layer_8">
</g>
<g id="Layer_9">
</g>
<g id="Layer_10">
</g>
<g id="Layer_11">
</g>
<g id="Layer_12">
</g>
<g id="Layer_13">
</g>
<g id="Layer_14">
</g>
<g id="Layer_15">
</g>
<g id="Layer_16">
</g>
<g id="Layer_17">
</g>
<g id="Layer_18">
</g>
<g id="Layer_19">
</g>
<g id="Layer_20">
</g>
<g id="Layer_21">
</g>
<g id="Layer_22">
</g>
<g id="Layer_23">
</g>
<g id="Layer_24">
</g>
<g id="Layer_25">
</g>
<g id="Layer_26">
</g>
<g id="Layer_27">
</g>
<g id="Layer_28">
</g>
<g id="Layer_29">
</g>
<g id="Layer_30">
</g>
<g id="Layer_31">
</g>
<g id="Layer_32">
</g>
<g id="Layer_33">
</g>
<g id="Layer_34">
</g>
<g id="Layer_35">
</g>
<g id="Layer_36">
</g>
<g id="Layer_37">
</g>
<g id="Layer_38">
</g>
<g id="Layer_39">
</g>
<g id="Layer_40">
</g>
<g id="Layer_41">
</g>
<g id="Layer_42">
</g>
<g id="Layer_43">
</g>
<g id="Layer_44">
</g>
<g id="Layer_45">
</g>
<g id="Layer_46">
</g>
<g id="Layer_47">
</g>
<g id="Layer_48">
</g>
<g id="Layer_49">
</g>
<g id="Layer_50">
</g>
<g id="Layer_51">
</g>
<g id="Layer_52">
</g>
<g id="Layer_53">
</g>
<g id="Layer_54">
</g>
<g id="Layer_55">
</g>
<g id="Layer_56">
</g>
<g id="Layer_57">
</g>
<g id="Layer_58">
</g>
<g id="Layer_59">
</g>
<g id="Layer_60">
</g>
<g id="Layer_61">
</g>
<g id="Layer_62">
</g>
<g id="Layer_63">
</g>
<g id="Layer_64">
</g>
<g id="Layer_65">
</g>
<g id="Layer_66">
</g>
<g id="Layer_67">
</g>
<g id="Layer_68">
</g>
<g id="Layer_69">
</g>
<g id="Layer_70">
</g>
<g id="Layer_71">
</g>
<g id="Layer_72">
</g>
<g id="Layer_73">
</g>
<g id="Layer_74">
	<g>
		<g>
			<g>
				<path fill="#FC657E" d="M53.097,139.88l-26.661,10.012c-10.685,4.012-16.095,15.927-12.083,26.612l0,0
					c4.013,10.686,15.928,16.095,26.613,12.083l26.661-10.012L53.097,139.88z"/>
			</g>
		</g>
		<g>
			<g>
				<path fill="#FC657E" d="M126.444,173.065l-25.441-67.75c-1.597-4.254-6.342-6.408-10.596-4.81
					c-4.254,1.597-6.408,6.341-4.81,10.595l25.441,67.75c1.597,4.254,6.342,6.408,10.596,4.811
					C125.888,182.063,128.042,177.319,126.444,173.065z"/>
			</g>
		</g>
		<g>
			<g>
				<path fill="#DAE6F1" d="M81.5,205.367l-20.032-24.478l-18.72,7.03l24.095,29.443c2.571,3.142,6.858,4.295,10.658,2.868
					C83.569,217.951,85.605,210.384,81.5,205.367z"/>
			</g>
		</g>
		<g>
			<g>
				<path fill="#DAE6F1" d="M86.531,113.586c-8.009,11.657-14.904,19.336-29.149,24.686l-4.284,1.609l14.531,38.696l4.284-1.609
					c14.245-5.35,24.491-4.106,38.193-0.603L86.531,113.586z"/>
			</g>
		</g>
		<g>
			<g>
				<path fill="#DAE6F1" d="M128.95,133.473L128.95,133.473c-3.205-8.536-12.577-12.933-21.154-10.068l11.856,31.572
					C127.993,151.487,132.155,142.008,128.95,133.473z"/>
			</g>
		</g>
		<g>
			<g>
				<path fill="#F5C84C" d="M190.179,99.261h-11.788c-0.685,0-1.169-0.671-0.953-1.322l5.259-15.776
					c0.217-0.65-0.267-1.322-0.953-1.322h-16.18c-0.489,0-0.907,0.353-0.99,0.834l-4.919,28.692
					c-0.105,0.613,0.367,1.173,0.99,1.173h12.563c0.611,0,1.08,0.542,0.994,1.146l-2.601,18.207
					c-0.156,1.097,1.316,1.602,1.866,0.641l17.583-30.771C191.433,100.093,190.95,99.261,190.179,99.261z"/>
			</g>
		</g>
		<g>
			<g>
				<path fill="#F5C84C" d="M241.548,61.252h-16.695c-0.971,0-1.656-0.951-1.349-1.872l7.448-22.343
					c0.307-0.921-0.379-1.872-1.349-1.872h-22.915c-0.693,0-1.284,0.499-1.401,1.182l-6.966,40.635
					c-0.149,0.869,0.52,1.662,1.401,1.662h17.792c0.865,0,1.53,0.767,1.408,1.623l-3.684,25.785
					c-0.222,1.553,1.864,2.268,2.642,0.907l24.902-43.579C243.324,62.431,242.64,61.252,241.548,61.252z"/>
			</g>
		</g>
		<g>
			<g>
				<path fill="#87D147" d="M242.906,122.1h-2.4v-2.3c0-1.8-1.4-3.2-3.2-3.2c-1.7,0-3.2,1.4-3.2,3.1v2.4h-2.3
					c-1.8,0-3.2,1.4-3.2,3.2c-0.1,1.7,1.3,3.2,3.2,3.2h2.3v2.3c0,1.8,1.4,3.2,3.2,3.2c1.7,0,3.2-1.4,3.2-3.1v-2.4h2.3
					c1.8,0,3.2-1.4,3.2-3.2C246.006,123.6,244.606,122.1,242.906,122.1z"/>
			</g>
		</g>
		<g>
			<g>
				<path fill="#70D6F9" d="M151.15,55.175c-3.1-0.6-5.6-3-6.2-6.1c0-0.1-0.3-0.1-0.3,0c-0.6,3.1-3.1,5.5-6.2,6.1
					c-0.1,0-0.1,0.2,0,0.3c3.1,0.6,5.6,3,6.2,6.1c0,0.1,0.3,0.1,0.3,0c0.6-3.1,3.1-5.5,6.2-6.1
					C151.25,55.375,151.25,55.175,151.15,55.175z"/>
			</g>
		</g>
		<g>
			<g>
				<circle fill="#F5C84C" cx="252.6" cy="97.4" r="3.4"/>
			</g>
		</g>
		<g>
			<g>
				<path fill="#FC657E" d="M3.4,123.2c-1.878,0-3.4,1.522-3.4,3.4c0,1.877,1.522,3.4,3.4,3.4c1.878,0,3.4-1.522,3.4-3.4
					C6.8,124.722,5.278,123.2,3.4,123.2z"/>
			</g>
		</g>
		<g>
			<g>
				<path fill="#F5C84C" d="M38.15,97.85c-4.5-0.8-8-4.3-8.9-8.7c0-0.2-0.4-0.2-0.4,0c-0.9,4.4-4.4,7.9-8.9,8.7
					c-0.2,0-0.2,0.3,0,0.4c4.5,0.8,8,4.3,8.9,8.7c0,0.2,0.4,0.2,0.4,0c0.9-4.4,4.4-7.9,8.9-8.7C38.35,98.15,38.35,97.85,38.15,97.85
					z"/>
			</g>
		</g>
		<g>
			<g>
				<g>
					<g>
						<path d="M69.968,177.697l-14.53-38.695c-0.233-0.621-0.703-1.123-1.308-1.397c-0.603-0.274-1.292-0.298-1.912-0.064
							l-26.661,10.012c-11.959,4.491-18.035,17.874-13.545,29.833c3.487,9.285,12.335,15.023,21.714,15.023
							c2.7,0,5.445-0.476,8.119-1.479l26.661-10.012C69.799,180.432,70.453,178.99,69.968,177.697z M40.087,186.247
							c-4.543,1.707-9.479,1.541-13.896-0.465c-4.419-2.007-7.791-5.613-9.497-10.156s-1.541-9.478,0.465-13.896
							c2.007-4.419,5.613-7.791,10.156-9.497l24.32-9.133l12.772,34.014L40.087,186.247z"/>
					</g>
				</g>
			</g>
		</g>
		<g>
			<g>
				<g>
					<g>
						<g>
							<path d="M128.785,172.187l-25.441-67.75c-1.008-2.683-3-4.813-5.609-5.997c-2.608-1.185-5.524-1.281-8.206-0.275
								c-5.537,2.08-8.351,8.277-6.272,13.815l25.441,67.75c1.615,4.3,5.712,6.957,10.056,6.957c1.25,0,2.521-0.22,3.76-0.685
								C128.051,183.922,130.864,177.724,128.785,172.187z M120.755,181.32c-2.957,1.113-6.266-0.392-7.376-3.349l-25.441-67.75
								c-1.11-2.957,0.393-6.266,3.349-7.376c0.661-0.249,1.34-0.366,2.008-0.366c2.318,0,4.506,1.419,5.368,3.715l25.441,67.75
								C125.215,176.901,123.712,180.21,120.755,181.32z"/>
						</g>
					</g>
				</g>
			</g>
		</g>
		<g>
			<g>
				<path d="M83.435,203.784L64.396,180.52c-0.875-1.07-2.452-1.226-3.518-0.352c-1.068,0.874-1.227,2.449-0.352,3.518
					l19.039,23.265c1.44,1.761,1.927,4.03,1.336,6.227c-0.591,2.195-2.151,3.913-4.28,4.713c-2.796,1.052-5.949,0.204-7.844-2.11
					l-23.177-28.32c-0.875-1.07-2.452-1.226-3.518-0.352c-1.068,0.874-1.227,2.449-0.352,3.518l23.177,28.32
					c2.321,2.837,5.744,4.391,9.262,4.391c1.409,0,2.834-0.249,4.209-0.766c3.656-1.373,6.335-4.323,7.351-8.094
					C86.745,210.704,85.908,206.808,83.435,203.784z"/>
			</g>
		</g>
		<g>
			<g>
				<path d="M110.37,173.853c-14.42-3.663-24.961-4.625-39.337,0.773l-4.285,1.609c-1.293,0.486-1.947,1.927-1.462,3.22
					c0.377,1.003,1.329,1.622,2.341,1.622c0.292,0,0.59-0.052,0.879-0.16l4.285-1.609c13.216-4.963,22.609-4.098,36.349-0.609
					c1.332,0.342,2.698-0.469,3.038-1.808C112.518,175.553,111.709,174.192,110.37,173.853z"/>
			</g>
		</g>
		<g>
			<g>
				<path d="M87.643,111.978c-1.136-0.785-2.694-0.501-3.478,0.636c-7.999,11.579-14.473,18.365-27.663,23.318l-4.284,1.609
					c-1.293,0.485-1.947,1.927-1.461,3.219c0.376,1.003,1.328,1.622,2.34,1.622c0.292,0,0.59-0.052,0.879-0.161l4.284-1.608
					c14.349-5.389,21.62-12.999,30.019-25.157C89.063,114.319,88.778,112.762,87.643,111.978z"/>
			</g>
		</g>
		<g>
			<g>
				<path d="M32.916,145.709l-2.314-6.163c-0.485-1.293-1.928-1.945-3.22-1.462c-1.293,0.485-1.947,1.927-1.462,3.22l2.314,6.163
					c0.377,1.003,1.329,1.622,2.341,1.622c0.292,0,0.59-0.052,0.879-0.16C32.747,148.443,33.401,147.002,32.916,145.709z"/>
			</g>
		</g>
		<g>
			<g>
				<path d="M131.291,132.594c-3.509-9.34-13.78-14.542-23.386-11.838c-1.329,0.373-2.104,1.754-1.729,3.083
					c0.373,1.328,1.749,2.107,3.083,1.729c7.126-2.003,14.748,1.854,17.351,8.783c2.591,6.898-0.423,14.594-7.009,17.898
					c-1.234,0.619-1.732,2.121-1.113,3.355c0.438,0.874,1.32,1.38,2.236,1.38c0.377,0,0.76-0.086,1.119-0.267
					C130.721,152.265,134.782,141.893,131.291,132.594z"/>
			</g>
		</g>
		<g>
			<g>
				<path d="M150.803,124.212c-0.493-1.289-1.937-1.937-3.228-1.442l-6.456,2.469c-1.29,0.493-1.936,1.938-1.442,3.228
					c0.381,0.996,1.329,1.608,2.336,1.608c0.296,0,0.599-0.054,0.892-0.166l6.456-2.469
					C150.65,126.946,151.296,125.501,150.803,124.212z"/>
			</g>
		</g>
		<g>
			<g>
				<path d="M139.199,108.193c-1.072-0.872-2.646-0.707-3.517,0.364l-4.357,5.366c-0.871,1.072-0.707,2.646,0.364,3.517
					c0.464,0.377,1.021,0.56,1.574,0.56c0.728,0,1.448-0.315,1.942-0.924l4.357-5.366
					C140.435,110.638,140.271,109.063,139.199,108.193z"/>
			</g>
		</g>
		<g>
			<g>
				<path d="M121.14,100.123c-1.37-0.216-2.646,0.712-2.863,2.074l-1.091,6.825c-0.218,1.363,0.711,2.646,2.074,2.863
					c0.134,0.021,0.267,0.031,0.397,0.031c1.207,0,2.27-0.876,2.466-2.105l1.091-6.825
					C123.432,101.623,122.503,100.341,121.14,100.123z"/>
			</g>
		</g>
		<g>
			<g>
				<path d="M144.408,158.43l-5.366-4.357c-1.072-0.871-2.646-0.706-3.517,0.364c-0.871,1.072-0.707,2.646,0.364,3.517l5.366,4.357
					c0.464,0.377,1.021,0.56,1.574,0.56c0.728,0,1.448-0.315,1.942-0.924C145.644,160.874,145.479,159.3,144.408,158.43z"/>
			</g>
		</g>
		<g>
			<g>
				<path d="M150.769,141.023l-6.825-1.091c-1.369-0.218-2.646,0.711-2.863,2.074s0.711,2.646,2.074,2.863l6.825,1.091
					c0.134,0.021,0.267,0.031,0.397,0.031c1.207,0,2.27-0.876,2.466-2.105C153.061,142.523,152.132,141.241,150.769,141.023z"/>
			</g>
		</g>
		<g>
			<g>
				<g>
					<g>
						<path d="M193.211,98.507c-0.625-1.077-1.787-1.746-3.032-1.746h-9.712l4.603-13.807c0.354-1.066,0.175-2.246-0.482-3.158
							c-0.656-0.911-1.719-1.455-2.842-1.455h-16.181c-1.714,0-3.166,1.226-3.453,2.911l-4.919,28.691
							c-0.176,1.021,0.106,2.06,0.773,2.852c0.668,0.792,1.645,1.246,2.68,1.246h10.839l-2.357,16.5
							c-0.241,1.688,0.718,3.255,2.331,3.809c0.387,0.133,0.778,0.196,1.163,0.196c1.224,0,2.372-0.644,3.018-1.771l17.582-30.77
							C193.839,100.924,193.835,99.584,193.211,98.507z M175.185,123.49l1.494-10.452c0.143-1.005-0.157-2.022-0.823-2.79
							c-0.666-0.767-1.631-1.207-2.646-1.207H162.42l4.406-25.7h12.844l-4.603,13.807c-0.355,1.065-0.176,2.246,0.48,3.157
							c0.657,0.912,1.72,1.456,2.843,1.456h9.211L175.185,123.49z"/>
					</g>
				</g>
			</g>
		</g>
		<g>
			<g>
				<g>
					<g>
						<path d="M244.94,60.706c-0.699-1.205-1.999-1.954-3.393-1.954h-15.199l6.976-20.925c0.397-1.193,0.195-2.514-0.54-3.533
							c-0.735-1.021-1.925-1.629-3.182-1.629h-22.915c-1.916,0-3.541,1.37-3.865,3.259l-6.966,40.637
							c-0.195,1.142,0.121,2.304,0.868,3.189s1.839,1.394,2.997,1.394h16.55l-3.509,24.555c-0.271,1.891,0.803,3.645,2.609,4.265
							c0.433,0.148,0.871,0.22,1.302,0.22c1.369,0,2.655-0.722,3.377-1.983l24.901-43.579
							C245.644,63.411,245.64,61.911,244.94,60.706z M218.511,100.815l2.886-20.196c0.161-1.126-0.175-2.265-0.92-3.123
							c-0.746-0.859-1.825-1.353-2.963-1.353H201l6.597-38.479h20.511l-6.976,20.925c-0.397,1.193-0.195,2.514,0.54,3.534
							c0.735,1.02,1.924,1.628,3.181,1.628h14.837L218.511,100.815z"/>
					</g>
				</g>
			</g>
		</g>
	</g>
</g>
<g id="Layer_75">
</g>
<g id="Layer_76">
</g>
<g id="Layer_77">
</g>
<g id="Layer_78">
</g>
<g id="Layer_79">
</g>
<g id="Layer_80">
</g>
</svg>
