<?xml version="1.0" encoding="utf-8"?>
<!-- Generator: Adobe Illustrator 24.0.0, SVG Export Plug-In . SVG Version: 6.00 Build 0)  -->
<svg version="1.1" xmlns="http://www.w3.org/2000/svg" xmlns:xlink="http://www.w3.org/1999/xlink" x="0px" y="0px"
	 viewBox="0 0 256 256" enable-background="new 0 0 256 256" xml:space="preserve">
<g id="Layer_1">
</g>
<g id="Layer_2">
</g>
<g id="Layer_3">
</g>
<g id="Layer_4">
</g>
<g id="Layer_5">
</g>
<g id="Layer_6">
</g>
<g id="Layer_7">
</g>
<g id="Layer_8">
</g>
<g id="Layer_9">
</g>
<g id="Layer_10">
</g>
<g id="Layer_11">
</g>
<g id="Layer_12">
</g>
<g id="Layer_13">
</g>
<g id="Layer_14">
</g>
<g id="Layer_15">
</g>
<g id="Layer_16">
</g>
<g id="Layer_17">
</g>
<g id="Layer_18">
</g>
<g id="Layer_19">
</g>
<g id="Layer_20">
</g>
<g id="Layer_21">
</g>
<g id="Layer_22">
</g>
<g id="Layer_23">
</g>
<g id="Layer_24">
</g>
<g id="Layer_25">
</g>
<g id="Layer_26">
</g>
<g id="Layer_27">
</g>
<g id="Layer_28">
</g>
<g id="Layer_29">
</g>
<g id="Layer_30">
	<g>
		<g>
			<g>
				<path fill="#70D6F9" d="M115.595,206.155l-12.961-3.262c-6.87-1.729-12.272-4.692-12.202-4.657
					c-2.824-1.393-4.613-4.268-4.613-7.417v-3.896c-3.306,1.731-7.057,2.716-11.029,2.716h0c-3.972,0-7.723-0.986-11.029-2.716
					v3.896c0,3.151-1.794,6.028-4.621,7.422c-3.813,1.88-7.143,3.382-12.194,4.654l-12.961,3.262
					c-4.009,1.009-6.897,4.508-7.127,8.636l3.05,1.273c28.721,11.984,61.042,11.984,89.764,0l3.05-1.273
					C122.492,210.663,119.604,207.165,115.595,206.155z"/>
			</g>
		</g>
		<g>
			<g>
				<path fill="#F9D0B4" d="M95.31,137.065c-1.565-1.642-4.111-1.793-5.895-0.392c-2.821,2.215-7.703,4.952-14.598,4.952
					c-6.912,0-11.82-2.751-14.653-4.968c-1.783-1.395-4.323-1.239-5.885,0.4l-0.008,0.009c-2.195,2.302-3.42,5.361-3.42,8.542
					v20.092c0,13.167,10.773,23.94,23.94,23.94h0c13.167,0,23.94-10.773,23.94-23.94v-20.092
					C98.73,142.426,97.505,139.367,95.31,137.065z"/>
			</g>
		</g>
		<g>
			<g>
				<path fill="#F9D0B4" d="M100.266,147.453c-0.523,0-1.035,0.044-1.536,0.122v18.124c0,0.54-0.025,1.074-0.06,1.605
					c0.521,0.084,1.052,0.139,1.596,0.139c5.52,0,9.995-4.475,9.995-9.995C110.261,151.928,105.786,147.453,100.266,147.453z"/>
			</g>
		</g>
		<g>
			<g>
				<path fill="#F9D0B4" d="M50.85,165.698v-18.124c-0.501-0.078-1.013-0.122-1.536-0.122c-5.52,0-9.995,4.475-9.995,9.995
					c0,5.52,4.475,9.995,9.995,9.995c0.545,0,1.075-0.056,1.596-0.139v0C50.874,166.772,50.85,166.238,50.85,165.698z"/>
			</g>
		</g>
		<g>
			<g>
				<path fill="#5B5D60" d="M98.64,127.032c-0.802,0-1.497-0.618-1.508-1.42c-0.184-13.34-15.417-15.846-30.588-13.226
					c-12.862,2.221-22.263,13.375-22.263,26.427v10.009c1.479-0.865,3.194-1.369,5.031-1.369c0.523,0,1.035,0.044,1.536,0.122
					v-1.968c0-3.181,1.225-6.24,3.42-8.542l0.008-0.009c1.562-1.638,4.102-1.795,5.885-0.4c2.833,2.217,7.741,4.968,14.653,4.968
					c6.895,0,11.777-2.737,14.598-4.952c1.784-1.401,4.33-1.25,5.895,0.392c2.195,2.302,3.42,5.361,3.42,8.542v1.968
					c0.501-0.078,1.013-0.122,1.536-0.122c1.859,0,3.593,0.517,5.084,1.401v-8.218C105.35,128.691,101.037,127.032,98.64,127.032z"
					/>
			</g>
		</g>
		<g>
			<g>
				<path fill="#F9D0B4" d="M206.606,148.914c-0.487,0-0.964,0.041-1.43,0.113v16.874c0,0.503-0.023,1-0.056,1.495
					c0.485,0.078,0.979,0.13,1.486,0.13c5.14,0,9.306-4.166,9.306-9.306S211.745,148.914,206.606,148.914z"/>
			</g>
		</g>
		<g>
			<g>
				<path fill="#F9D0B4" d="M203.804,146.196c-2.255-0.523-4.994-1.829-8.133-4.681c-0.621-0.564-1.578-0.518-2.124,0.119
					c-3.395,3.962-15.432,15.983-32.95,10.993v13.274c0,12.259,10.03,22.289,22.289,22.289c12.259,0,22.289-10.03,22.289-22.289
					v-18.007C205.176,147.075,204.602,146.381,203.804,146.196z"/>
			</g>
		</g>
		<g>
			<g>
				<path fill="#F9D0B4" d="M160.597,165.901v-13.274c-1.531-0.436-3.102-1-4.714-1.712c-1.039-0.459-2.254-0.248-3.082,0.53
					c-1.808,1.695-2.94,4.101-2.94,6.775c0,5.139,4.166,9.306,9.306,9.306c0.507,0,1.001-0.052,1.486-0.13
					C160.62,166.901,160.597,166.404,160.597,165.901z"/>
			</g>
		</g>
		<g>
			<g>
				<path fill="#FCA265" d="M182.886,115.89c-16.67,0-30.309,13.639-30.309,30.309v5.477c0.076-0.076,0.145-0.158,0.224-0.231
					c0.829-0.777,2.043-0.988,3.082-0.53c1.612,0.712,3.184,1.276,4.714,1.712c17.518,4.99,29.556-7.031,32.95-10.993
					c0.546-0.637,1.503-0.683,2.124-0.119c3.139,2.852,5.878,4.159,8.133,4.681c0.798,0.185,1.371,0.879,1.371,1.698v1.134
					c0.467-0.072,0.943-0.113,1.43-0.113c2.575,0,4.905,1.046,6.59,2.736v-5.451C213.196,129.529,199.556,115.89,182.886,115.89z"/>
			</g>
		</g>
		<g>
			<g>
				<path fill="#FC657E" d="M222.248,205.964l-4.43-1.118c-0.415-0.105-10.963-2.767-11.507-2.905
					c-1.332-0.335-2.624-0.81-3.856-1.418l-5.51-2.717c-2.116-1.043-3.456-3.198-3.456-5.558v-6.759
					c-3.157,1.721-6.771,2.701-10.602,2.701c-3.831,0-7.444-0.979-10.602-2.701v6.76c0,2.359-1.34,4.514-3.456,5.558l-5.511,2.717
					c-1.232,0.607-2.524,1.083-3.856,1.418c-0.079,0.02-11.434,2.886-11.507,2.905l-4.43,1.118
					c-3.879,0.976-6.672,4.361-6.894,8.355c29.517,12.762,62.995,12.762,92.512,0C228.92,210.325,226.127,206.941,222.248,205.964z"
					/>
			</g>
		</g>
		<g>
			<g>
				<path fill="#FCA265" d="M214.107,180.02c4.257-6.677,2.247-13.177,0.369-16.849c-1.648,2.613-4.552,4.354-7.87,4.354
					c-0.507,0-1.001-0.052-1.486-0.13c-0.523,7.798-5.099,14.533-11.631,18.094v6.759c0,2.164,1.135,4.144,2.954,5.265
					c0.729,0.449-0.196-0.078,6.012,3.01c0.835,0.412,1.938,0.848,2.789,1.115c0.169,0.053,0.34,0.099,0.51,0.147
					c3.28-1.2,6.174-3.106,8.049-6.075c3.437-5.442,1.431-10.715,0.166-13.075C213.524,181.807,213.601,180.813,214.107,180.02z"/>
			</g>
		</g>
		<g>
			<g>
				<path fill="#FCA265" d="M160.654,167.396c-0.485,0.078-0.979,0.13-1.486,0.13c-3.318,0-6.222-1.741-7.87-4.355
					c-1.878,3.672-3.889,10.172,0.369,16.849c0.506,0.793,0.583,1.787,0.138,2.616c-1.265,2.36-3.271,7.633,0.166,13.075
					c1.875,2.968,4.769,4.874,8.049,6.075c0.17-0.048,0.341-0.094,0.51-0.147c0.85-0.266,1.953-0.703,2.789-1.115
					c6.612-3.289,5.338-2.595,6.012-3.01c1.819-1.12,2.954-3.101,2.954-5.265v-6.759
					C165.753,181.929,161.177,175.194,160.654,167.396z"/>
			</g>
		</g>
		<g>
			<g>
				<rect x="68.232" y="43.814" fill="#F5C84C" width="14.279" height="54.024"/>
			</g>
		</g>
		<g>
			<g>
				<rect x="42.602" y="68.741" fill="#70D6F9" width="14.279" height="29.097"/>
			</g>
		</g>
		<g>
			<g>
				<rect x="93.862" y="18.887" fill="#FC657E" width="14.279" height="78.95"/>
			</g>
		</g>
		<g>
			<g>
				<rect x="176.232" y="43.814" fill="#F5C84C" width="14.279" height="54.024"/>
			</g>
		</g>
		<g>
			<g>
				<rect x="150.602" y="68.741" fill="#70D6F9" width="14.279" height="29.097"/>
			</g>
		</g>
		<g>
			<g>
				<rect x="201.862" y="18.887" fill="#FC657E" width="14.279" height="78.95"/>
			</g>
		</g>
		<g>
			<g>
				<path fill="#9BE5F9" d="M90.432,198.236c-0.565-0.279-1.076-0.631-1.553-1.02l-9.605,10.997
					c-0.753,0.863-0.665,2.173,0.198,2.926l6.251,5.46c0.863,0.753,2.173,0.665,2.926-0.198l12.221-13.992
					C94.864,200.665,90.368,198.204,90.432,198.236z"/>
			</g>
		</g>
		<g>
			<g>
				<path fill="#9BE5F9" d="M70.306,208.214L60.7,197.216c-0.476,0.388-0.987,0.74-1.553,1.02
					c-3.352,1.653-6.332,3.013-10.431,4.182l12.214,13.984c0.753,0.863,2.063,0.951,2.926,0.198l6.251-5.46
					C70.97,210.386,71.059,209.076,70.306,208.214z"/>
			</g>
		</g>
		<g>
			<g>
				<path fill="#F9D0B4" d="M85.819,190.818v-3.896c-3.306,1.731-7.057,2.716-11.029,2.716h0c-3.972,0-7.723-0.986-11.029-2.716
					v3.896c0,2.518-1.157,4.848-3.06,6.398l9.605,10.997c0.286,0.328,0.45,0.721,0.496,1.123h7.975
					c0.047-0.402,0.21-0.795,0.496-1.123l9.605-10.997C86.976,195.666,85.819,193.336,85.819,190.818z"/>
			</g>
		</g>
		<g>
			<g>
				<path fill="#F98FA6" d="M176.941,208.939l-9.651-10.374l-3.972,1.958c-1.232,0.607-2.524,1.082-3.856,1.418
					c-0.03,0.008-1.709,0.432-3.775,0.953l4.167,8.999c2.572,5.552,9.815,6.974,14.295,2.807l2.673-2.487
					C177.759,211.341,177.812,209.875,176.941,208.939z"/>
			</g>
		</g>
		<g>
			<g>
				<path fill="#F98FA6" d="M206.311,201.942c-1.332-0.335-2.624-0.81-3.856-1.418l-3.972-1.958l-9.651,10.374
					c-0.871,0.936-0.818,2.402,0.118,3.273l2.673,2.487c4.48,4.168,11.723,2.745,14.295-2.807l4.168-8.999
					C208.128,202.4,206.515,201.993,206.311,201.942z"/>
			</g>
		</g>
		<g>
			<g>
				<path fill="#F9D0B4" d="M196.945,197.807c-2.116-1.043-3.456-3.198-3.456-5.558v-6.759c-3.157,1.721-6.771,2.701-10.602,2.701
					c-3.831,0-7.444-0.98-10.602-2.701v6.759c0,2.36-1.34,4.515-3.456,5.558l-1.539,0.759l9.651,10.374
					c0.289,0.311,0.467,0.682,0.554,1.068h10.783c0.087-0.386,0.265-0.757,0.554-1.068l9.651-10.374L196.945,197.807z"/>
			</g>
		</g>
		<g>
			<g>
				<path fill="#70D6F9" d="M162.906,244.1h-2.4v-2.3c0-1.8-1.4-3.2-3.2-3.2c-1.7,0-3.2,1.4-3.2,3.1v2.4h-2.3
					c-1.8,0-3.2,1.4-3.2,3.2c-0.1,1.7,1.3,3.2,3.2,3.2h2.3v2.3c0,1.8,1.4,3.2,3.2,3.2c1.7,0,3.2-1.4,3.2-3.1v-2.4h2.3
					c1.8,0,3.2-1.4,3.2-3.2C166.006,245.6,164.606,244.1,162.906,244.1z"/>
			</g>
		</g>
		<g>
			<g>
				<path fill="#87D147" d="M74.206,0c-1.878,0-3.4,1.522-3.4,3.4c0,1.878,1.522,3.4,3.4,3.4s3.4-1.522,3.4-3.4
					C77.606,1.522,76.083,0,74.206,0z"/>
			</g>
		</g>
		<g>
			<g>
				<path fill="#FC657E" d="M239.15,115.175c-3.1-0.6-5.6-3-6.2-6.1c0-0.1-0.3-0.1-0.3,0c-0.6,3.1-3.1,5.5-6.2,6.1
					c-0.1,0-0.1,0.2,0,0.3c3.1,0.6,5.6,3,6.2,6.1c0,0.1,0.3,0.1,0.3,0c0.6-3.1,3.1-5.5,6.2-6.1
					C239.25,115.375,239.25,115.175,239.15,115.175z"/>
			</g>
		</g>
		<g>
			<g>
				<path fill="#F5C84C" d="M122.369,235c-1.878,0-3.4,1.522-3.4,3.4c0,1.878,1.522,3.4,3.4,3.4s3.4-1.522,3.4-3.4
					C125.769,236.522,124.246,235,122.369,235z"/>
			</g>
		</g>
		<g>
			<g>
				<path fill="#F5C84C" d="M56.15,23.2c-4.5-0.8-8-4.3-8.9-8.7c0-0.2-0.4-0.2-0.4,0c-0.9,4.4-4.4,7.9-8.9,8.7c-0.2,0-0.2,0.3,0,0.4
					c4.5,0.8,8,4.3,8.9,8.7c0,0.2,0.4,0.2,0.4,0c0.9-4.4,4.4-7.9,8.9-8.7C56.35,23.5,56.35,23.2,56.15,23.2z"/>
			</g>
		</g>
		<g>
			<g>
				<path d="M63.761,185.333c-1.381,0-2.5,1.119-2.5,2.5v2.985c0,2.213-1.233,4.197-3.219,5.176
					c-3.465,1.708-6.737,3.225-11.707,4.475l-12.961,3.262c-5.098,1.283-8.72,5.672-9.013,10.921
					c-0.077,1.378,0.979,2.558,2.356,2.635c0.048,0.002,0.095,0.004,0.142,0.004c1.317,0,2.42-1.029,2.494-2.361
					c0.171-3.053,2.276-5.605,5.241-6.351l12.961-3.262c5.445-1.37,8.972-3.002,12.697-4.839c3.706-1.827,6.008-5.529,6.008-9.66
					v-2.985C66.261,186.452,65.142,185.333,63.761,185.333z"/>
			</g>
		</g>
		<g>
			<g>
				<path d="M116.205,203.731l-12.961-3.262c-6.272-1.579-11.313-4.264-11.581-4.409c-0.041-0.023-0.083-0.045-0.126-0.066
					c-1.985-0.979-3.219-2.962-3.219-5.176v-2.985c0-1.381-1.119-2.5-2.5-2.5s-2.5,1.119-2.5,2.5v2.985
					c0,4.094,2.26,7.765,5.906,9.609c0.706,0.437,1.851,0.966,3.757,1.79c2.089,0.902,5.353,2.172,9.042,3.101l12.961,3.262
					c2.965,0.747,5.071,3.298,5.241,6.351c0.074,1.332,1.177,2.361,2.494,2.361c0.047,0,0.094-0.001,0.141-0.004
					c1.379-0.077,2.435-1.256,2.357-2.635C124.926,209.403,121.304,205.014,116.205,203.731z"/>
			</g>
		</g>
		<g>
			<g>
				<g>
					<g>
						<path d="M97.119,135.339c-2.453-2.572-6.429-2.847-9.247-0.634c-2.569,2.016-6.919,4.419-13.056,4.419
							c-6.153,0-10.526-2.413-13.113-4.438c-2.815-2.203-6.785-1.926-9.243,0.652c-2.65,2.78-4.11,6.426-4.11,10.268v20.091
							c0,14.579,11.861,26.44,26.44,26.44s26.439-11.861,26.439-26.44v-20.091C101.229,141.766,99.77,138.119,97.119,135.339z
							 M96.229,165.698c0,11.822-9.618,21.44-21.439,21.44c-11.822,0-21.44-9.618-21.44-21.44v-20.091
							c0-2.55,0.97-4.972,2.737-6.826c0.361-0.379,0.848-0.572,1.342-0.572c0.416,0,0.837,0.137,1.193,0.416
							c3.205,2.509,8.616,5.5,16.194,5.5c7.564,0,12.953-2.983,16.143-5.485c0.781-0.615,1.875-0.548,2.541,0.15
							c1.76,1.846,2.729,4.267,2.729,6.817V165.698z"/>
					</g>
				</g>
			</g>
		</g>
		<g>
			<g>
				<path d="M100.266,144.953c-1.381,0-2.5,1.119-2.5,2.5s1.119,2.5,2.5,2.5c4.133,0,7.495,3.362,7.495,7.495
					s-3.362,7.495-7.495,7.495c-1.381,0-2.5,1.119-2.5,2.5s1.119,2.5,2.5,2.5c6.89,0,12.495-5.605,12.495-12.495
					S107.155,144.953,100.266,144.953z"/>
			</g>
		</g>
		<g>
			<g>
				<path d="M49.313,164.943c-4.133,0-7.495-3.362-7.495-7.495s3.362-7.495,7.495-7.495c1.381,0,2.5-1.119,2.5-2.5
					s-1.119-2.5-2.5-2.5c-6.89,0-12.495,5.605-12.495,12.495s5.605,12.495,12.495,12.495c1.381,0,2.5-1.119,2.5-2.5
					S50.694,164.943,49.313,164.943z"/>
			</g>
		</g>
		<g>
			<g>
				<path d="M99.595,124.587c-0.282-4.397-2.049-7.973-5.258-10.638c-7.72-6.409-20.992-5.274-28.218-4.026
					c-14.102,2.435-24.337,14.585-24.337,28.891v9.593c0,1.381,1.119,2.5,2.5,2.5s2.5-1.119,2.5-2.5v-9.593
					c0-11.865,8.49-21.944,20.188-23.964c10.851-1.872,19.66-0.8,24.172,2.946c2.303,1.912,3.444,4.48,3.49,7.85
					c0.029,2.143,1.827,3.886,4.008,3.886c2.636,0,4.21,4.151,4.21,11.104v7.646c0,1.381,1.119,2.5,2.5,2.5s2.5-1.119,2.5-2.5
					v-7.646C107.851,127.853,103.049,124.99,99.595,124.587z"/>
			</g>
		</g>
		<g>
			<g>
				<path d="M206.605,146.414c-1.381,0-2.5,1.119-2.5,2.5s1.119,2.5,2.5,2.5c3.753,0,6.807,3.053,6.807,6.806
					c0,3.752-3.054,6.806-6.807,6.806c-1.381,0-2.5,1.119-2.5,2.5s1.119,2.5,2.5,2.5c6.51,0,11.807-5.296,11.807-11.806
					S213.115,146.414,206.605,146.414z"/>
			</g>
		</g>
		<g>
			<g>
				<g>
					<g>
						<path d="M204.369,143.76c-2.234-0.518-4.595-1.896-7.017-4.097c-0.799-0.725-1.883-1.102-2.939-1.034
							c-1.078,0.067-2.06,0.557-2.763,1.377c-0.001,0-0.001,0.001-0.001,0.001c-2.545,2.97-10.766,11.302-22.794,11.3
							c-2.379,0-4.91-0.327-7.573-1.085c-0.751-0.215-1.564-0.064-2.19,0.409c-0.626,0.472-0.994,1.211-0.994,1.995v13.274
							c0,13.669,11.12,24.789,24.789,24.789s24.789-11.12,24.789-24.789v-18.007C207.676,145.91,206.315,144.21,204.369,143.76z
							 M202.676,165.901c0,10.912-8.877,19.789-19.789,19.789s-19.789-8.877-19.789-19.789v-10.12
							c16.222,3.013,27.585-7.265,31.66-11.741c2.624,2.235,5.282,3.728,7.918,4.449V165.901z"/>
					</g>
				</g>
			</g>
		</g>
		<g>
			<g>
				<path d="M161.282,150.223c-1.455-0.415-2.932-0.951-4.39-1.594c-1.959-0.867-4.236-0.476-5.802,0.992
					c-2.37,2.223-3.729,5.357-3.729,8.599c0,6.51,5.296,11.806,11.806,11.806c1.381,0,2.5-1.119,2.5-2.5s-1.119-2.5-2.5-2.5
					c-3.753,0-6.806-3.053-6.806-6.806c0-1.893,0.764-3.652,2.148-4.951c0.102-0.094,0.241-0.121,0.363-0.066
					c1.668,0.736,3.364,1.352,5.04,1.829c1.326,0.381,2.711-0.392,3.089-1.72S162.61,150.601,161.282,150.223z"/>
			</g>
		</g>
		<g>
			<g>
				<path d="M182.887,113.39c-18.091,0-32.81,14.718-32.81,32.809v5.27c0,1.381,1.119,2.5,2.5,2.5s2.5-1.119,2.5-2.5v-5.27
					c0-15.334,12.476-27.809,27.81-27.809s27.809,12.475,27.809,27.809v5.176c0,1.381,1.119,2.5,2.5,2.5s2.5-1.119,2.5-2.5v-5.176
					C215.695,128.108,200.978,113.39,182.887,113.39z"/>
			</g>
		</g>
		<g>
			<g>
				<path d="M172.285,183.542c-1.381,0-2.5,1.119-2.5,2.5v6.207c0,1.418-0.79,2.688-2.063,3.316l-5.511,2.717
					c-1.071,0.528-2.202,0.944-3.363,1.236l-2.375,0.6c-3.358,0.848-9.089,2.294-9.131,2.305l-4.428,1.118
					c-4.967,1.25-8.495,5.526-8.78,10.64c-0.077,1.378,0.979,2.559,2.356,2.635c0.048,0.002,0.095,0.004,0.142,0.004
					c1.317,0,2.42-1.03,2.494-2.361c0.163-2.917,2.176-5.356,5.011-6.07l4.435-1.12c0.124-0.031,5.793-1.462,9.125-2.303l2.375-0.6
					c1.5-0.377,2.963-0.916,4.351-1.6l5.511-2.717c2.992-1.476,4.852-4.464,4.852-7.8v-6.207
					C174.785,184.661,173.666,183.542,172.285,183.542z"/>
			</g>
		</g>
		<g>
			<g>
				<path d="M222.86,203.541l-15.938-4.023c-1.159-0.292-2.291-0.708-3.361-1.235l-5.511-2.717
					c-1.271-0.627-2.062-1.897-2.062-3.316v-6.207c0-1.381-1.119-2.5-2.5-2.5s-2.5,1.119-2.5,2.5v6.207
					c0,3.336,1.858,6.325,4.851,7.8l5.511,2.718c1.387,0.683,2.851,1.221,4.35,1.599l15.938,4.023
					c2.833,0.713,4.846,3.152,5.009,6.069c0.074,1.331,1.177,2.361,2.494,2.361c0.047,0,0.094-0.001,0.142-0.004
					c1.378-0.077,2.434-1.257,2.356-2.635C231.354,209.066,227.825,204.791,222.86,203.541z"/>
			</g>
		</g>
		<g>
			<g>
				<path d="M216.214,181.364c4.915-7.707,2.519-15.215,0.652-19.004c-0.61-1.239-2.108-1.748-3.348-1.138
					c-1.238,0.61-1.748,2.108-1.139,3.347c1.713,3.477,3.036,8.747-0.381,14.106c-1.002,1.571-1.092,3.541-0.233,5.142
					c1.13,2.109,2.622,6.285-0.078,10.559c-1.356,2.148-3.538,3.813-6.484,4.946c-1.289,0.496-1.932,1.942-1.436,3.231
					c0.382,0.994,1.329,1.603,2.334,1.603c0.298,0,0.602-0.054,0.896-0.167c3.974-1.528,6.974-3.864,8.917-6.943
					c4.205-6.657,1.581-13.121,0.262-15.577C216.176,181.458,216.18,181.417,216.214,181.364z"/>
			</g>
		</g>
		<g>
			<g>
				<path d="M160.518,199.302c-2.92-1.133-5.084-2.79-6.433-4.926c-2.701-4.276-1.208-8.45-0.076-10.56
					c0.857-1.601,0.767-3.57-0.234-5.141c-3.38-5.3-2.112-10.517-0.453-13.959c0.6-1.244,0.077-2.738-1.167-3.337
					c-1.243-0.601-2.737-0.077-3.337,1.167c-3.125,6.485-2.862,13.168,0.741,18.819c0.04,0.063,0.043,0.092,0.043,0.09
					c-1.324,2.469-3.95,8.931,0.256,15.591c1.934,3.061,4.911,5.388,8.852,6.917c0.297,0.115,0.603,0.17,0.903,0.17
					c1.002,0,1.947-0.606,2.332-1.596C162.443,201.25,161.805,199.801,160.518,199.302z"/>
			</g>
		</g>
		<g>
			<g>
				<g>
					<g>
						<path d="M82.512,41.314h-14.28c-1.381,0-2.5,1.119-2.5,2.5v54.023c0,1.381,1.119,2.5,2.5,2.5h14.28c1.381,0,2.5-1.119,2.5-2.5
							V43.814C85.012,42.433,83.893,41.314,82.512,41.314z M80.012,95.337h-9.28V46.314h9.28V95.337z"/>
					</g>
				</g>
			</g>
		</g>
		<g>
			<g>
				<g>
					<g>
						<path d="M56.882,66.241h-14.28c-1.381,0-2.5,1.119-2.5,2.5v29.097c0,1.381,1.119,2.5,2.5,2.5h14.28c1.381,0,2.5-1.119,2.5-2.5
							V68.741C59.382,67.36,58.263,66.241,56.882,66.241z M54.382,95.337h-9.28V71.241h9.28V95.337z"/>
					</g>
				</g>
			</g>
		</g>
		<g>
			<g>
				<g>
					<g>
						<path d="M108.142,16.387h-14.28c-1.381,0-2.5,1.119-2.5,2.5v78.95c0,1.381,1.119,2.5,2.5,2.5h14.28c1.381,0,2.5-1.119,2.5-2.5
							v-78.95C110.642,17.506,109.522,16.387,108.142,16.387z M105.642,95.337h-9.28v-73.95h9.28V95.337z"/>
					</g>
				</g>
			</g>
		</g>
		<g>
			<g>
				<g>
					<g>
						<path d="M190.512,41.314h-14.28c-1.381,0-2.5,1.119-2.5,2.5v54.023c0,1.381,1.119,2.5,2.5,2.5h14.28
							c1.381,0,2.5-1.119,2.5-2.5V43.814C193.012,42.433,191.893,41.314,190.512,41.314z M188.012,95.337h-9.28V46.314h9.28V95.337z
							"/>
					</g>
				</g>
			</g>
		</g>
		<g>
			<g>
				<g>
					<g>
						<path d="M164.882,66.241h-14.28c-1.381,0-2.5,1.119-2.5,2.5v29.097c0,1.381,1.119,2.5,2.5,2.5h14.28
							c1.381,0,2.5-1.119,2.5-2.5V68.741C167.382,67.36,166.263,66.241,164.882,66.241z M162.382,95.337h-9.28V71.241h9.28V95.337z"
							/>
					</g>
				</g>
			</g>
		</g>
		<g>
			<g>
				<g>
					<g>
						<path d="M216.142,16.387h-14.28c-1.381,0-2.5,1.119-2.5,2.5v78.95c0,1.381,1.119,2.5,2.5,2.5h14.28c1.381,0,2.5-1.119,2.5-2.5
							v-78.95C218.642,17.506,217.522,16.387,216.142,16.387z M213.642,95.337h-9.28v-73.95h9.28V95.337z"/>
					</g>
				</g>
			</g>
		</g>
		<g>
			<g>
				<path d="M101.794,201.352c-1.038-0.908-2.619-0.803-3.527,0.238l-11.221,12.846l-5.608-4.899l8.527-9.763
					c0.908-1.04,0.802-2.619-0.238-3.527c-1.038-0.908-2.619-0.803-3.527,0.238l-8.809,10.084c-0.804,0.92-1.201,2.098-1.118,3.317
					c0.082,1.219,0.635,2.333,1.555,3.136l6.251,5.461c0.841,0.734,1.896,1.128,3.002,1.128c0.104,0,0.21-0.003,0.315-0.011
					c1.219-0.082,2.333-0.634,3.136-1.554l11.501-13.167C102.94,203.839,102.834,202.26,101.794,201.352z"/>
			</g>
		</g>
		<g>
			<g>
				<path d="M72.188,206.569l-8.968-10.268c-0.908-1.04-2.488-1.146-3.527-0.238c-1.04,0.908-1.146,2.487-0.238,3.527l8.688,9.947
					l-5.609,4.899l-11.161-12.778c-0.909-1.041-2.488-1.146-3.527-0.238c-1.04,0.908-1.146,2.487-0.238,3.527l11.441,13.099
					c0.803,0.92,1.917,1.472,3.136,1.554c0.105,0.007,0.211,0.011,0.315,0.011c1.105,0,2.161-0.395,3.002-1.129l6.252-5.46
					C73.651,211.363,73.848,208.469,72.188,206.569z"/>
			</g>
		</g>
		<g>
			<g>
				<path d="M78,206.836h-6.167c-1.381,0-2.5,1.119-2.5,2.5s1.119,2.5,2.5,2.5H78c1.381,0,2.5-1.119,2.5-2.5
					S79.381,206.836,78,206.836z"/>
			</g>
		</g>
		<g>
			<g>
				<path d="M178.771,207.237l-8.918-9.586c-0.939-1.011-2.521-1.069-3.533-0.128c-1.011,0.94-1.067,2.522-0.127,3.533l8.792,9.451
					l-2.539,2.362c-1.543,1.435-3.614,2.023-5.678,1.619c-2.067-0.406-3.761-1.734-4.646-3.646l-3.854-8.322
					c-0.58-1.252-2.065-1.797-3.319-1.218c-1.253,0.58-1.798,2.066-1.218,3.319l3.854,8.322c1.566,3.381,4.562,5.732,8.219,6.45
					c0.757,0.149,1.515,0.222,2.264,0.222c2.869,0,5.62-1.073,7.784-3.086l2.674-2.487c0.941-0.876,1.485-2.067,1.532-3.353
					C180.104,209.405,179.647,208.178,178.771,207.237z"/>
			</g>
		</g>
		<g>
			<g>
				<path d="M210.703,201.561c-1.251-0.581-2.738-0.034-3.319,1.218l-3.734,8.063c-0.885,1.911-2.578,3.24-4.645,3.646
					c-2.063,0.407-4.137-0.184-5.679-1.618l-2.538-2.362l8.98-9.654c0.94-1.011,0.884-2.593-0.127-3.533
					c-1.012-0.941-2.594-0.882-3.533,0.128l-9.106,9.788c-0.876,0.942-1.333,2.168-1.287,3.454c0.047,1.286,0.591,2.477,1.532,3.352
					l2.673,2.488c2.164,2.013,4.915,3.086,7.785,3.086c0.749,0,1.507-0.073,2.264-0.222c3.656-0.718,6.651-3.069,8.218-6.45
					l3.734-8.063C212.501,203.627,211.956,202.141,210.703,201.561z"/>
			</g>
		</g>
		<g>
			<g>
				<path d="M187.208,207.507h-8.75c-1.381,0-2.5,1.119-2.5,2.5s1.119,2.5,2.5,2.5h8.75c1.381,0,2.5-1.119,2.5-2.5
					S188.589,207.507,187.208,207.507z"/>
			</g>
		</g>
	</g>
</g>
<g id="Layer_31">
</g>
<g id="Layer_32">
</g>
<g id="Layer_33">
</g>
<g id="Layer_34">
</g>
<g id="Layer_35">
</g>
<g id="Layer_36">
</g>
<g id="Layer_37">
</g>
<g id="Layer_38">
</g>
<g id="Layer_39">
</g>
<g id="Layer_40">
</g>
<g id="Layer_41">
</g>
<g id="Layer_42">
</g>
<g id="Layer_43">
</g>
<g id="Layer_44">
</g>
<g id="Layer_45">
</g>
<g id="Layer_46">
</g>
<g id="Layer_47">
</g>
<g id="Layer_48">
</g>
<g id="Layer_49">
</g>
<g id="Layer_50">
</g>
<g id="Layer_51">
</g>
<g id="Layer_52">
</g>
<g id="Layer_53">
</g>
<g id="Layer_54">
</g>
<g id="Layer_55">
</g>
<g id="Layer_56">
</g>
<g id="Layer_57">
</g>
<g id="Layer_58">
</g>
<g id="Layer_59">
</g>
<g id="Layer_60">
</g>
<g id="Layer_61">
</g>
<g id="Layer_62">
</g>
<g id="Layer_63">
</g>
<g id="Layer_64">
</g>
<g id="Layer_65">
</g>
<g id="Layer_66">
</g>
<g id="Layer_67">
</g>
<g id="Layer_68">
</g>
<g id="Layer_69">
</g>
<g id="Layer_70">
</g>
<g id="Layer_71">
</g>
<g id="Layer_72">
</g>
<g id="Layer_73">
</g>
<g id="Layer_74">
</g>
<g id="Layer_75">
</g>
<g id="Layer_76">
</g>
<g id="Layer_77">
</g>
<g id="Layer_78">
</g>
<g id="Layer_79">
</g>
<g id="Layer_80">
</g>
</svg>
