<?xml version="1.0" encoding="utf-8"?>
<!-- Generator: Adobe Illustrator 24.0.0, SVG Export Plug-In . SVG Version: 6.00 Build 0)  -->
<svg version="1.1" xmlns="http://www.w3.org/2000/svg" xmlns:xlink="http://www.w3.org/1999/xlink" x="0px" y="0px"
	 viewBox="0 0 256 256" enable-background="new 0 0 256 256" xml:space="preserve">
<g id="Layer_1">
</g>
<g id="Layer_2">
</g>
<g id="Layer_3">
</g>
<g id="Layer_4">
</g>
<g id="Layer_5">
</g>
<g id="Layer_6">
</g>
<g id="Layer_7">
</g>
<g id="Layer_8">
</g>
<g id="Layer_9">
</g>
<g id="Layer_10">
</g>
<g id="Layer_11">
</g>
<g id="Layer_12">
</g>
<g id="Layer_13">
</g>
<g id="Layer_14">
</g>
<g id="Layer_15">
</g>
<g id="Layer_16">
</g>
<g id="Layer_17">
</g>
<g id="Layer_18">
</g>
<g id="Layer_19">
</g>
<g id="Layer_20">
</g>
<g id="Layer_21">
</g>
<g id="Layer_22">
</g>
<g id="Layer_23">
</g>
<g id="Layer_24">
</g>
<g id="Layer_25">
</g>
<g id="Layer_26">
</g>
<g id="Layer_27">
</g>
<g id="Layer_28">
</g>
<g id="Layer_29">
</g>
<g id="Layer_30">
</g>
<g id="Layer_31">
</g>
<g id="Layer_32">
</g>
<g id="Layer_33">
</g>
<g id="Layer_34">
</g>
<g id="Layer_35">
</g>
<g id="Layer_36">
</g>
<g id="Layer_37">
</g>
<g id="Layer_38">
</g>
<g id="Layer_39">
</g>
<g id="Layer_40">
</g>
<g id="Layer_41">
</g>
<g id="Layer_42">
</g>
<g id="Layer_43">
</g>
<g id="Layer_44">
</g>
<g id="Layer_45">
</g>
<g id="Layer_46">
</g>
<g id="Layer_47">
</g>
<g id="Layer_48">
</g>
<g id="Layer_49">
</g>
<g id="Layer_50">
</g>
<g id="Layer_51">
</g>
<g id="Layer_52">
</g>
<g id="Layer_53">
</g>
<g id="Layer_54">
</g>
<g id="Layer_55">
</g>
<g id="Layer_56">
</g>
<g id="Layer_57">
</g>
<g id="Layer_58">
</g>
<g id="Layer_59">
</g>
<g id="Layer_60">
</g>
<g id="Layer_61">
</g>
<g id="Layer_62">
	<g>
		<g>
			<g>
				<path fill="#5290DB" d="M235.425,39.521h-64.347c-9.966,0-18.075,8.108-18.075,18.075v140.808
					c0,9.967,8.108,18.075,18.075,18.075h64.346c9.967,0,18.075-8.108,18.075-18.075V57.596
					C253.5,47.629,245.392,39.521,235.425,39.521z"/>
			</g>
		</g>
		<g>
			<g>
				<path fill="#EDF4FC" d="M243.416,57.596c0-4.395-3.596-7.99-7.99-7.99h-11.434c-3.723,0-7.107,2.074-8.887,5.344
					c-2.286,4.2-6.733,7.05-11.852,7.05c-5.119,0-9.566-2.851-11.852-7.05c-1.78-3.27-5.163-5.344-8.887-5.344h-11.434
					c-4.395,0-7.99,3.596-7.99,7.99v140.808c0,4.395,3.596,7.991,7.99,7.991h64.346c4.395,0,7.99-3.596,7.99-7.99L243.416,57.596z"
					/>
			</g>
		</g>
		<g>
			<g>
				<path fill="#87D147" d="M227.398,76.156h-48.291c-1.555,0-2.815,1.26-2.815,2.815v36.195c0,1.555,1.26,2.815,2.815,2.815h48.291
					c1.555,0,2.815-1.26,2.815-2.815V78.971C230.213,77.417,228.952,76.156,227.398,76.156z"/>
			</g>
		</g>
		<g>
			<g>
				<path fill="#70D6F9" d="M227.923,174.763H178.58c-1.264,0-2.289,1.025-2.289,2.289v10.378c0,1.264,1.025,2.289,2.289,2.289
					h49.343c1.264,0,2.289-1.025,2.289-2.289v-10.378C230.213,175.788,229.188,174.763,227.923,174.763z"/>
			</g>
		</g>
		<g>
			<g>
				<path fill="#F98FA6" d="M56.854,106.004c-2.09-0.381-4.244-0.58-6.444-0.58s-4.354,0.199-6.444,0.58
					c-8.294,1.511-14.681,7.874-16.539,15.904c6.005,0.927,10.609,6.091,10.637,12.349H61.79
					c0.029-6.578,5.112-11.952,11.566-12.461C71.466,113.819,65.109,107.508,56.854,106.004z"/>
			</g>
		</g>
		<g>
			<g>
				<path fill="#F9D0B4" d="M49.927,80.114c-6.941,0-12.569,5.627-12.569,12.569c0,6.942,5.627,12.569,12.569,12.569
					s12.569-5.627,12.569-12.569C62.495,85.741,56.868,80.114,49.927,80.114z"/>
			</g>
		</g>
		<g>
			<g>
				<path fill="#70D6F9" d="M49.201,164.724c-1.475-8.585-8.077-15.506-16.776-17.09c-2.09-0.381-4.244-0.58-6.444-0.58
					s-4.354,0.199-6.444,0.58c-9.084,1.655-15.898,9.123-16.959,18.234c-0.063,0.537-0.079,1.08-0.079,1.621v5.948
					c0,1.353,1.097,2.45,2.45,2.45h41.961c1.353,0,2.45-1.097,2.45-2.45v-6.497C49.361,166.198,49.327,165.455,49.201,164.724z"/>
			</g>
		</g>
		<g>
			<g>
				
					<ellipse transform="matrix(0.9871 -0.1602 0.1602 0.9871 -21.1852 5.8186)" fill="#F9D0B4" cx="25.498" cy="134.313" rx="12.569" ry="12.569"/>
			</g>
		</g>
		<g>
			<g>
				<path fill="#F5C84C" d="M98.059,164.724c-1.475-8.585-8.077-15.506-16.776-17.09c-2.09-0.381-4.244-0.58-6.444-0.58
					s-4.354,0.199-6.444,0.58c-9.084,1.655-15.898,9.123-16.959,18.234c-0.063,0.537-0.079,1.08-0.079,1.621v5.948
					c0,1.353,1.097,2.45,2.45,2.45h41.961c1.353,0,2.45-1.097,2.45-2.45v-6.497C98.219,166.198,98.184,165.455,98.059,164.724z"/>
			</g>
		</g>
		<g>
			<g>
				<circle fill="#F9D0B4" cx="74.355" cy="134.313" r="12.569"/>
			</g>
		</g>
		<g>
			<g>
				<path fill="#87D147" d="M121.906,206.1h-2.4v-2.3c0-1.8-1.4-3.2-3.2-3.2c-1.7,0-3.2,1.4-3.2,3.1v2.4h-2.3
					c-1.8,0-3.2,1.4-3.2,3.2c-0.1,1.7,1.3,3.2,3.2,3.2h2.3v2.3c0,1.8,1.4,3.2,3.2,3.2c1.7,0,3.2-1.4,3.2-3.1v-2.4h2.3
					c1.8,0,3.2-1.4,3.2-3.2C125.006,207.6,123.606,206.1,121.906,206.1z"/>
			</g>
		</g>
		<g>
			<g>
				<path fill="#F5C84C" d="M147.206,226.5c-1.878,0-3.4,1.522-3.4,3.4c0,1.878,1.522,3.4,3.4,3.4c1.878,0,3.4-1.522,3.4-3.4
					C150.606,228.022,149.083,226.5,147.206,226.5z"/>
			</g>
		</g>
		<g>
			<g>
				<path fill="#FC657E" d="M124.15,57.175c-3.1-0.6-5.6-3-6.2-6.1c0-0.1-0.3-0.1-0.3,0c-0.6,3.1-3.1,5.5-6.2,6.1
					c-0.1,0-0.1,0.2,0,0.3c3.1,0.6,5.6,3,6.2,6.1c0,0.1,0.3,0.1,0.3,0c0.6-3.1,3.1-5.5,6.2-6.1
					C124.25,57.375,124.25,57.175,124.15,57.175z"/>
			</g>
		</g>
		<g>
			<g>
				<path fill="#70D6F9" d="M38.369,32c-1.878,0-3.4,1.522-3.4,3.4c0,1.878,1.522,3.4,3.4,3.4c1.878,0,3.4-1.522,3.4-3.4
					C41.769,33.522,40.246,32,38.369,32z"/>
			</g>
		</g>
		<g>
			<g>
				<path fill="#F5C84C" d="M18.35,62.2c-4.5-0.8-8-4.3-8.9-8.7c0-0.2-0.4-0.2-0.4,0c-0.9,4.4-4.4,7.9-8.9,8.7c-0.2,0-0.2,0.3,0,0.4
					c4.5,0.8,8,4.3,8.9,8.7c0,0.2,0.4,0.2,0.4,0c0.9-4.4,4.4-7.9,8.9-8.7C18.55,62.5,18.55,62.2,18.35,62.2z"/>
			</g>
		</g>
		<g>
			<g>
				<path d="M60.833,131.756H39.188c-1.381,0-2.5,1.119-2.5,2.5s1.119,2.5,2.5,2.5h21.645c1.381,0,2.5-1.119,2.5-2.5
					S62.214,131.756,60.833,131.756z"/>
			</g>
		</g>
		<g>
			<g>
				<path d="M75.593,120.452c-2.363-8.678-9.542-15.314-18.291-16.908c-4.521-0.822-9.265-0.822-13.785,0
					c-8.731,1.591-15.705,7.931-18.2,16.546c-0.384,1.326,0.38,2.713,1.706,3.097c1.328,0.387,2.713-0.38,3.097-1.706
					c1.964-6.781,7.441-11.77,14.293-13.017c3.93-0.717,8.062-0.717,11.993,0c6.865,1.25,12.502,6.472,14.362,13.303
					c0.303,1.112,1.311,1.844,2.411,1.844c0.217,0,0.438-0.029,0.658-0.089C75.17,123.159,75.956,121.785,75.593,120.452z"/>
			</g>
		</g>
		<g>
			<g>
				<g>
					<g>
						<path d="M49.927,77.614c-8.309,0-15.069,6.76-15.069,15.068s6.76,15.068,15.069,15.068s15.069-6.76,15.069-15.068
							S58.236,77.614,49.927,77.614z M49.927,102.751c-5.552,0-10.069-4.517-10.069-10.068s4.517-10.068,10.069-10.068
							s10.069,4.517,10.069,10.068S55.479,102.751,49.927,102.751z"/>
					</g>
				</g>
			</g>
		</g>
		<g>
			<g>
				<g>
					<g>
						<path d="M51.665,164.299c-1.667-9.694-9.218-17.38-18.791-19.125c-4.521-0.822-9.265-0.822-13.785,0
							c-10.155,1.851-17.788,10.051-18.994,20.404C0.01,166.313,0,167.021,0,167.488v5.947c0,2.729,2.22,4.95,4.95,4.95h41.961
							c2.729,0,4.95-2.221,4.95-4.95v-6.496C51.861,165.916,51.799,165.077,51.665,164.299z M5,173.436v-5.947
							c0-0.554,0.019-0.965,0.062-1.332c0.949-8.154,6.946-14.609,14.923-16.063c1.965-0.358,3.982-0.54,5.996-0.54
							s4.031,0.182,5.996,0.54c7.517,1.369,13.448,7.419,14.76,15.054c0,0,0,0,0,0.001c0.084,0.49,0.124,1.06,0.124,1.791
							l0.05,6.446L5,173.436z"/>
					</g>
				</g>
			</g>
		</g>
		<g>
			<g>
				<g>
					<g>
						<path d="M25.498,119.244c-8.309,0-15.069,6.76-15.069,15.068c0,8.31,6.76,15.069,15.069,15.069
							c8.309,0,15.068-6.76,15.068-15.069C40.566,126.004,33.807,119.244,25.498,119.244z M25.498,144.382
							c-5.552,0-10.069-4.517-10.069-10.069c0-5.552,4.517-10.068,10.069-10.068s10.068,4.517,10.068,10.068
							C35.566,139.865,31.05,144.382,25.498,144.382z"/>
					</g>
				</g>
			</g>
		</g>
		<g>
			<g>
				<g>
					<g>
						<path d="M100.522,164.299c-1.667-9.694-9.218-17.38-18.791-19.125c-4.521-0.822-9.265-0.822-13.785,0
							c-10.155,1.851-17.788,10.051-18.994,20.404c-0.085,0.734-0.095,1.442-0.095,1.91v5.947c0,2.729,2.22,4.95,4.95,4.95h41.961
							c2.729,0,4.95-2.221,4.95-4.95v-6.496C100.719,165.916,100.656,165.077,100.522,164.299z M53.857,173.436v-5.947
							c0-0.554,0.019-0.965,0.062-1.332c0.949-8.154,6.946-14.609,14.923-16.063c1.965-0.358,3.982-0.54,5.996-0.54
							s4.031,0.182,5.996,0.54c7.517,1.369,13.448,7.419,14.76,15.054c0,0,0,0,0,0.001c0.084,0.49,0.124,1.06,0.124,1.791
							l0.05,6.446L53.857,173.436z"/>
					</g>
				</g>
			</g>
		</g>
		<g>
			<g>
				<g>
					<g>
						<path d="M74.355,119.244c-8.309,0-15.069,6.76-15.069,15.068c0,8.31,6.76,15.069,15.069,15.069s15.069-6.76,15.069-15.069
							C89.424,126.004,82.665,119.244,74.355,119.244z M74.355,144.382c-5.552,0-10.069-4.517-10.069-10.069
							c0-5.552,4.517-10.068,10.069-10.068s10.069,4.517,10.069,10.068C84.424,139.865,79.907,144.382,74.355,144.382z"/>
					</g>
				</g>
			</g>
		</g>
		<g>
			<g>
				<path d="M138.975,159.522l-9.519-9.164c-0.995-0.957-2.578-0.927-3.535,0.066c-0.958,0.995-0.928,2.578,0.067,3.535l7.717,7.431
					l-7.43,7.716c-0.958,0.995-0.928,2.577,0.067,3.535c0.485,0.467,1.11,0.699,1.733,0.699c0.656,0,1.311-0.257,1.801-0.766
					l9.164-9.518c0.46-0.478,0.711-1.119,0.699-1.781C139.728,160.613,139.453,159.982,138.975,159.522z"/>
			</g>
		</g>
		<g>
			<g>
				<path d="M133.889,159h-22.13c-1.381,0-2.5,1.119-2.5,2.5s1.119,2.5,2.5,2.5h22.13c1.381,0,2.5-1.119,2.5-2.5
					S135.27,159,133.889,159z"/>
			</g>
		</g>
		<g>
			<g>
				<path d="M138.975,126.022l-9.519-9.164c-0.995-0.957-2.578-0.927-3.535,0.066c-0.958,0.995-0.928,2.578,0.067,3.535l7.717,7.431
					l-7.43,7.716c-0.958,0.995-0.928,2.577,0.067,3.535c0.485,0.467,1.11,0.699,1.733,0.699c0.656,0,1.311-0.257,1.801-0.766
					l9.164-9.518c0.46-0.478,0.711-1.119,0.699-1.781C139.728,127.113,139.453,126.482,138.975,126.022z"/>
			</g>
		</g>
		<g>
			<g>
				<path d="M133.889,125.5h-22.13c-1.381,0-2.5,1.119-2.5,2.5s1.119,2.5,2.5,2.5h22.13c1.381,0,2.5-1.119,2.5-2.5
					S135.27,125.5,133.889,125.5z"/>
			</g>
		</g>
		<g>
			<g>
				<path d="M138.975,92.522l-9.519-9.164c-0.995-0.958-2.578-0.927-3.535,0.066c-0.958,0.995-0.928,2.578,0.067,3.535l7.717,7.431
					l-7.43,7.716c-0.958,0.995-0.928,2.577,0.067,3.535c0.485,0.467,1.11,0.699,1.733,0.699c0.656,0,1.311-0.257,1.801-0.766
					l9.164-9.518c0.46-0.478,0.711-1.119,0.699-1.781C139.728,93.613,139.453,92.982,138.975,92.522z"/>
			</g>
		</g>
		<g>
			<g>
				<path d="M133.889,92h-22.13c-1.381,0-2.5,1.119-2.5,2.5s1.119,2.5,2.5,2.5h22.13c1.381,0,2.5-1.119,2.5-2.5
					S135.27,92,133.889,92z"/>
			</g>
		</g>
		<g>
			<g>
				<path d="M229.196,161.307h-51.889c-1.381,0-2.5,1.119-2.5,2.5s1.119,2.5,2.5,2.5h51.889c1.381,0,2.5-1.119,2.5-2.5
					S230.577,161.307,229.196,161.307z"/>
			</g>
		</g>
		<g>
			<g>
				<path d="M229.196,150.351h-51.889c-1.381,0-2.5,1.119-2.5,2.5s1.119,2.5,2.5,2.5h51.889c1.381,0,2.5-1.119,2.5-2.5
					S230.577,150.351,229.196,150.351z"/>
			</g>
		</g>
		<g>
			<g>
				<path d="M229.196,128.438h-51.889c-1.381,0-2.5,1.119-2.5,2.5s1.119,2.5,2.5,2.5h51.889c1.381,0,2.5-1.119,2.5-2.5
					S230.577,128.438,229.196,128.438z"/>
			</g>
		</g>
		<g>
			<g>
				<path d="M229.196,139.395h-51.889c-1.381,0-2.5,1.119-2.5,2.5s1.119,2.5,2.5,2.5h51.889c1.381,0,2.5-1.119,2.5-2.5
					S230.577,139.395,229.196,139.395z"/>
			</g>
		</g>
		<g>
			<g>
				<g>
					<g>
						<path d="M235.425,37.021h-64.346c-11.345,0-20.575,9.229-20.575,20.574v140.809c0,11.345,9.23,20.574,20.575,20.574h64.346
							c11.345,0,20.575-9.229,20.575-20.574V57.596C256,46.251,246.77,37.021,235.425,37.021z M251,198.404
							c0,8.588-6.987,15.574-15.575,15.574h-64.346c-8.588,0-15.575-6.986-15.575-15.574V57.596c0-8.588,6.987-15.574,15.575-15.574
							h64.346c8.588,0,15.575,6.986,15.575,15.574V198.404z"/>
					</g>
				</g>
			</g>
		</g>
		<g>
			<g>
				<g>
					<g>
						<path d="M235.425,47.105h-11.435c-4.603,0-8.85,2.548-11.083,6.649c-1.929,3.544-5.629,5.745-9.656,5.745
							s-7.728-2.201-9.656-5.745c-2.233-4.102-6.479-6.649-11.083-6.649h-11.434c-5.784,0-10.49,4.706-10.49,10.49v140.809
							c0,5.784,4.706,10.49,10.49,10.49h64.347c5.784,0,10.49-4.706,10.49-10.49V57.596
							C245.916,51.812,241.209,47.105,235.425,47.105z M240.916,198.404c0,3.027-2.463,5.49-5.49,5.49h-64.347
							c-3.027,0-5.49-2.463-5.49-5.49V57.596c0-3.027,2.463-5.49,5.49-5.49h11.434c2.771,0,5.335,1.548,6.691,4.04
							c2.805,5.153,8.188,8.354,14.048,8.354s11.243-3.201,14.048-8.354c1.356-2.492,3.92-4.04,6.691-4.04h11.435
							c3.027,0,5.49,2.463,5.49,5.49V198.404z"/>
					</g>
				</g>
			</g>
		</g>
		<g>
			<g>
				<g>
					<g>
						<path d="M227.397,73.656h-48.291c-2.931,0-5.315,2.384-5.315,5.314v36.195c0,2.931,2.384,5.315,5.315,5.315h48.291
							c2.931,0,5.315-2.385,5.315-5.315V78.971C232.712,76.04,230.328,73.656,227.397,73.656z M227.712,115.166
							c0,0.174-0.141,0.315-0.315,0.315h-48.291c-0.174,0-0.315-0.142-0.315-0.315V78.971c0-0.174,0.142-0.314,0.315-0.314h48.291
							c0.174,0,0.315,0.141,0.315,0.314V115.166z"/>
					</g>
				</g>
			</g>
		</g>
		<g>
			<g>
				<g>
					<g>
						<path d="M227.923,172.263h-49.343c-2.641,0-4.789,2.148-4.789,4.789v10.378c0,2.642,2.148,4.79,4.789,4.79h49.343
							c2.641,0,4.789-2.148,4.789-4.79v-10.378C232.712,174.411,230.564,172.263,227.923,172.263z M227.712,187.22h-48.921v-9.957
							h48.921V187.22z"/>
					</g>
				</g>
			</g>
		</g>
	</g>
</g>
<g id="Layer_63">
</g>
<g id="Layer_64">
</g>
<g id="Layer_65">
</g>
<g id="Layer_66">
</g>
<g id="Layer_67">
</g>
<g id="Layer_68">
</g>
<g id="Layer_69">
</g>
<g id="Layer_70">
</g>
<g id="Layer_71">
</g>
<g id="Layer_72">
</g>
<g id="Layer_73">
</g>
<g id="Layer_74">
</g>
<g id="Layer_75">
</g>
<g id="Layer_76">
</g>
<g id="Layer_77">
</g>
<g id="Layer_78">
</g>
<g id="Layer_79">
</g>
<g id="Layer_80">
</g>
</svg>
