<?xml version="1.0" encoding="utf-8"?>
<!-- Generator: Adobe Illustrator 24.0.0, SVG Export Plug-In . SVG Version: 6.00 Build 0)  -->
<svg version="1.1" xmlns="http://www.w3.org/2000/svg" xmlns:xlink="http://www.w3.org/1999/xlink" x="0px" y="0px"
	 viewBox="0 0 256 256" enable-background="new 0 0 256 256" xml:space="preserve">
<g id="Layer_1">
</g>
<g id="Layer_2">
</g>
<g id="Layer_3">
</g>
<g id="Layer_4">
</g>
<g id="Layer_5">
</g>
<g id="Layer_6">
</g>
<g id="Layer_7">
</g>
<g id="Layer_8">
</g>
<g id="Layer_9">
</g>
<g id="Layer_10">
</g>
<g id="Layer_11">
</g>
<g id="Layer_12">
</g>
<g id="Layer_13">
</g>
<g id="Layer_14">
</g>
<g id="Layer_15">
</g>
<g id="Layer_16">
</g>
<g id="Layer_17">
</g>
<g id="Layer_18">
</g>
<g id="Layer_19">
</g>
<g id="Layer_20">
</g>
<g id="Layer_21">
</g>
<g id="Layer_22">
</g>
<g id="Layer_23">
</g>
<g id="Layer_24">
</g>
<g id="Layer_25">
</g>
<g id="Layer_26">
</g>
<g id="Layer_27">
</g>
<g id="Layer_28">
</g>
<g id="Layer_29">
</g>
<g id="Layer_30">
</g>
<g id="Layer_31">
</g>
<g id="Layer_32">
</g>
<g id="Layer_33">
</g>
<g id="Layer_34">
</g>
<g id="Layer_35">
</g>
<g id="Layer_36">
</g>
<g id="Layer_37">
</g>
<g id="Layer_38">
</g>
<g id="Layer_39">
</g>
<g id="Layer_40">
</g>
<g id="Layer_41">
</g>
<g id="Layer_42">
</g>
<g id="Layer_43">
</g>
<g id="Layer_44">
</g>
<g id="Layer_45">
	<g>
		<g>
			<g>
				<path fill="#F9D0B4" d="M122.559,74.109c-2.226-2.335-5.846-2.55-8.384-0.558c-4.012,3.149-10.955,7.042-20.761,7.042
					c-9.83,0-16.809-3.912-20.839-7.065c-2.536-1.984-6.148-1.762-8.37,0.568l-0.011,0.012c-3.122,3.274-4.864,7.624-4.864,12.148
					v28.573c0,18.725,15.321,34.046,34.046,34.046h0c18.725,0,34.046-15.321,34.046-34.046V86.257
					C127.423,81.733,125.681,77.383,122.559,74.109z"/>
			</g>
		</g>
		<g>
			<g>
				<path fill="#F9D0B4" d="M129.608,88.883c-0.744,0-1.472,0.063-2.185,0.173v25.774c0,0.768-0.035,1.528-0.086,2.283
					c0.741,0.119,1.496,0.198,2.271,0.198c7.85,0,14.214-6.364,14.214-14.214S137.458,88.883,129.608,88.883z"/>
			</g>
		</g>
		<g>
			<g>
				<path fill="#F9D0B4" d="M59.331,114.831V89.056c-0.713-0.111-1.441-0.173-2.185-0.173c-7.85,0-14.214,6.364-14.214,14.215
					s6.364,14.214,14.214,14.214c0.775,0,1.529-0.079,2.271-0.198v-0.001C59.366,116.357,59.331,115.598,59.331,114.831z"/>
			</g>
		</g>
		<g>
			<g>
				<path fill="#5B5D60" d="M127.296,59.841c-1.14,0-2.129-0.879-2.144-2.02c-0.261-18.971-21.925-22.535-43.5-18.81
					C63.36,42.171,49.991,58.033,49.991,76.595v14.234c2.103-1.229,4.543-1.946,7.155-1.946c0.744,0,1.472,0.063,2.185,0.173v-2.799
					c0-4.524,1.742-8.874,4.864-12.148l0.011-0.012c2.222-2.33,5.834-2.553,8.37-0.568c4.029,3.154,11.009,7.065,20.839,7.065
					c9.806,0,16.749-3.893,20.761-7.042c2.538-1.992,6.157-1.777,8.384,0.558c3.122,3.274,4.864,7.624,4.864,12.148v2.799
					c0.713-0.111,1.441-0.173,2.185-0.173c2.644,0,5.11,0.735,7.23,1.992V79.188C136.838,62.201,130.704,59.841,127.296,59.841z"/>
			</g>
		</g>
		<g>
			<g>
				<path fill="#DAE6F1" d="M110.29,182.009c-0.919,1.053-2.518,1.161-3.571,0.241l-7.629-6.663
					c-1.053-0.919-1.161-2.518-0.241-3.571l12.577-14.399c-1.503-2.001-2.364-4.465-2.364-7.063v-5.541
					c-4.702,2.461-10.036,3.863-15.685,3.863h0c-5.649,0-10.983-1.402-15.685-3.863v5.541c0,2.598-0.861,5.063-2.364,7.063
					l12.577,14.399c0.919,1.053,0.811,2.651-0.241,3.571l-7.629,6.663c-1.053,0.919-2.651,0.812-3.571-0.241l-7.031-8.05
					l4.392,27.379h39.104l4.392-27.379L110.29,182.009z"/>
			</g>
		</g>
		<g>
			<g>
				<path fill="#3A70BF" d="M48.91,214.814v-10.789c0-1.484,1.203-2.687,2.686-2.687h22.229l-6.326-39.436
					c-0.247-1.541-1.817-2.492-3.297-1.999l-22.261,7.42c-7.543,2.515-12.93,9.194-13.79,17.099l-6.669,61.336
					c-0.449,4.132,2.788,7.74,6.945,7.74H51.91v-36h-0.314C50.113,217.5,48.91,216.297,48.91,214.814z"/>
			</g>
		</g>
		<g>
			<g>
				<path fill="#3A70BF" d="M165.271,245.76l-6.668-61.336c-0.859-7.905-6.246-14.584-13.79-17.099l-22.262-7.42
					c-1.48-0.493-3.05,0.458-3.297,1.999l-6.326,39.436h21.307c1.576,0,2.854,1.278,2.854,2.854v10.621
					c0,1.484-1.203,2.686-2.686,2.686h-0.314v36h24.237C162.484,253.5,165.721,249.892,165.271,245.76z"/>
			</g>
		</g>
		<g>
			<g>
				<path fill="#70D6F9" d="M235.525,2.5h-71.258c-9.886,0-17.975,8.089-17.975,17.975v51.238c0,9.886,8.089,17.975,17.975,17.975
					h4.308c3.169,0,5.737,2.569,5.737,5.737v6.052c0,2.81,3.363,4.203,5.394,2.261c2.819-2.697,5.074-5.641,6.876-8.58
					c2.057-3.355,5.642-5.47,9.578-5.47h39.366c9.886,0,17.975-8.089,17.975-17.975V20.475C253.5,10.589,245.411,2.5,235.525,2.5z"
					/>
			</g>
		</g>
		<g>
			<g>
				<path fill="#DAE6F1" d="M172.419,41.524c-3.577,0-6.476,2.899-6.476,6.476s2.899,6.476,6.476,6.476
					c3.576,0,6.476-2.899,6.476-6.476S175.996,41.524,172.419,41.524z"/>
			</g>
		</g>
		<g>
			<g>
				<circle fill="#DAE6F1" cx="199.5" cy="48" r="6.476"/>
			</g>
		</g>
		<g>
			<g>
				<path fill="#DAE6F1" d="M226.581,41.524c-3.576,0-6.476,2.899-6.476,6.476s2.899,6.476,6.476,6.476
					c3.577,0,6.476-2.899,6.476-6.476S230.157,41.524,226.581,41.524z"/>
			</g>
		</g>
		<g>
			<g>
				<path fill="#F9D0B4" d="M111.426,157.617c-1.503-2.001-2.364-4.465-2.364-7.063v-5.541c-4.702,2.461-10.036,3.863-15.685,3.863
					h0c-5.649,0-10.983-1.402-15.685-3.863v5.541c0,2.598-0.861,5.063-2.364,7.063l12.577,14.399c0.526,0.602,0.704,1.38,0.574,2.11
					h9.797c-0.13-0.73,0.048-1.509,0.574-2.11L111.426,157.617z"/>
			</g>
		</g>
		<g>
			<g>
				<path fill="#5290DB" d="M67.499,161.903c-0.247-1.541-1.817-2.492-3.297-1.999l-7.462,2.487v34.655
					c0,1.63,0.649,3.154,1.74,4.292h15.345L67.499,161.903z"/>
			</g>
		</g>
		<g>
			<g>
				<path fill="#5290DB" d="M122.552,159.904c-1.48-0.493-3.05,0.458-3.297,1.999l-6.326,39.436h15.345
					c1.091-1.139,1.74-2.662,1.74-4.292v-34.655L122.552,159.904z"/>
			</g>
		</g>
		<g>
			<g>
				<path fill="#EDF4FC" d="M116.609,155.53c-1.053-0.919-2.651-0.812-3.571,0.241l-14.189,16.246
					c-0.919,1.053-0.811,2.651,0.241,3.571l7.629,6.663c1.053,0.919,2.651,0.812,3.571-0.241l7.031-8.05l1.934-12.056
					c0.188-1.17,1.138-1.996,2.233-2.112L116.609,155.53z"/>
			</g>
		</g>
		<g>
			<g>
				<path fill="#EDF4FC" d="M87.905,172.017l-14.19-16.246c-0.919-1.053-2.518-1.161-3.571-0.241l-4.879,4.261
					c1.094,0.116,2.045,0.942,2.233,2.112l1.934,12.057l7.031,8.05c0.919,1.053,2.518,1.161,3.571,0.241l7.629-6.663
					C88.717,174.668,88.825,173.069,87.905,172.017z"/>
			</g>
		</g>
		<g>
			<g>
				<polygon fill="#FC657E" points="99.621,188.4 87.133,188.4 85.863,201.338 100.892,201.338 				"/>
			</g>
		</g>
		<g>
			<g>
				<path fill="#F98FA6" d="M99.09,175.587c-0.451-0.394-0.717-0.914-0.815-1.46h-9.797c-0.098,0.546-0.364,1.067-0.815,1.46
					l-4.485,3.917l3.953,8.895h12.489l3.953-8.895L99.09,175.587z"/>
			</g>
		</g>
		<g>
			<g>
				<path fill="#70D6F9" d="M134.236,201.338h-82.64c-1.484,0-2.686,1.203-2.686,2.687v10.789c0,1.484,1.203,2.686,2.686,2.686
					h82.807c1.484,0,2.686-1.203,2.686-2.686v-10.621C137.09,202.616,135.812,201.338,134.236,201.338z"/>
			</g>
		</g>
		<g>
			<g>
				<rect x="51.91" y="217.5" fill="#3CAADC" width="82.18" height="36"/>
			</g>
		</g>
		<g>
			<g>
				<rect x="83.966" y="217.5" fill="#EDB311" width="18.068" height="36"/>
			</g>
		</g>
		<g>
			<g>
				<rect x="81.559" y="201.338" fill="#F5C84C" width="22.881" height="16.162"/>
			</g>
		</g>
		<g>
			<g>
				<g>
					<g>
						<path d="M124.369,72.384L124.369,72.384c-3.115-3.265-8.159-3.608-11.737-0.799c-3.782,2.969-10.187,6.509-19.217,6.509
							c-9.051,0-15.489-3.553-19.298-6.534c-3.573-2.796-8.612-2.448-11.732,0.824c-3.581,3.757-5.554,8.685-5.554,13.874v28.573
							c0,20.151,16.395,36.546,36.546,36.546s36.546-16.395,36.546-36.546V86.257C129.923,81.067,127.95,76.14,124.369,72.384z
							 M124.923,114.831c0,17.395-14.151,31.546-31.546,31.546s-31.546-14.151-31.546-31.546V86.257
							c0-3.898,1.482-7.601,4.184-10.435c0.722-0.756,1.691-1.142,2.672-1.142c0.82,0,1.649,0.269,2.349,0.817
							c4.428,3.465,11.904,7.597,22.38,7.597c10.458,0,17.901-4.12,22.304-7.576c1.541-1.21,3.705-1.075,5.031,0.316
							c2.691,2.822,4.173,6.524,4.173,10.423V114.831z"/>
					</g>
				</g>
			</g>
		</g>
		<g>
			<g>
				<path d="M129.608,86.383c-0.361,0-0.72,0.013-1.075,0.036c-1.377,0.092-2.42,1.284-2.327,2.661
					c0.092,1.378,1.299,2.408,2.661,2.328c0.244-0.017,0.491-0.025,0.741-0.025c6.459,0,11.714,5.255,11.714,11.715
					s-5.255,11.714-11.714,11.714c-0.315,0-0.627-0.017-0.935-0.045c-1.386-0.13-2.594,0.883-2.721,2.258
					c-0.128,1.375,0.883,2.593,2.258,2.72c0.46,0.043,0.926,0.067,1.397,0.067c9.216,0,16.714-7.498,16.714-16.714
					C146.322,93.881,138.824,86.383,129.608,86.383z"/>
			</g>
		</g>
		<g>
			<g>
				<path d="M60.979,116.975c-0.146-1.373-1.368-2.365-2.75-2.223c-0.383,0.041-0.736,0.061-1.082,0.061
					c-6.46,0-11.715-5.255-11.715-11.714s5.255-11.715,11.715-11.715c0.369,0,0.734,0.019,1.095,0.054
					c1.389,0.133,2.598-0.872,2.731-2.246s-0.871-2.597-2.245-2.731c-9.912-0.964-18.296,6.899-18.296,16.637
					c0,9.216,7.498,16.714,16.715,16.714c0.523,0,1.05-0.029,1.609-0.088C60.129,119.579,61.124,118.347,60.979,116.975z"/>
			</g>
		</g>
		<g>
			<g>
				<path d="M127.643,57.347c-0.19-6.376-2.592-11.522-7.142-15.3c-7.78-6.46-22.094-8.466-39.274-5.498
					c-19.548,3.375-33.735,20.217-33.735,40.046v13.843c0,1.381,1.119,2.5,2.5,2.5s2.5-1.119,2.5-2.5V76.595
					c0-17.389,12.443-32.159,29.587-35.12c15.735-2.716,28.575-1.107,35.229,4.418c3.526,2.928,5.275,6.841,5.346,11.962
					c0.034,2.473,2.117,4.485,4.644,4.485c4.476,0,7.043,6.14,7.043,16.847v11.188c0,1.381,1.119,2.5,2.5,2.5s2.5-1.119,2.5-2.5
					V79.188C139.339,60.66,132.17,57.495,127.643,57.347z"/>
			</g>
		</g>
		<g>
			<g>
				<path d="M113.241,155.863c-1.099-1.568-1.679-3.404-1.679-5.309v-5.033c0-1.381-1.119-2.5-2.5-2.5s-2.5,1.119-2.5,2.5v5.033
					c0,2.937,0.894,5.764,2.583,8.177c0.486,0.694,1.262,1.066,2.05,1.066c0.495,0,0.996-0.146,1.433-0.452
					C113.759,158.553,114.033,156.994,113.241,155.863z"/>
			</g>
		</g>
		<g>
			<g>
				<path d="M77.692,142.938c-1.381,0-2.5,1.119-2.5,2.5v5.117c0,1.932-0.596,3.79-1.724,5.372c-0.802,1.124-0.54,2.685,0.584,3.487
					c0.44,0.313,0.947,0.464,1.449,0.464c0.78,0,1.55-0.365,2.037-1.049c1.736-2.434,2.653-5.295,2.653-8.274v-5.117
					C80.192,144.057,79.073,142.938,77.692,142.938z"/>
			</g>
		</g>
		<g>
			<g>
				<path d="M76.202,200.369l-6.234-38.862c-0.234-1.46-1.094-2.737-2.358-3.504c-1.265-0.768-2.795-0.939-4.198-0.471l-22.261,7.42
					c-8.444,2.815-14.522,10.352-15.484,19.201l-6.669,61.336c-0.291,2.674,0.573,5.356,2.369,7.359
					c1.797,2.003,4.371,3.151,7.062,3.151H51.91c1.381,0,2.5-1.119,2.5-2.5s-1.119-2.5-2.5-2.5H28.428
					c-1.291,0-2.478-0.529-3.34-1.49c-0.861-0.961-1.26-2.197-1.12-3.48l6.669-61.336c0.751-6.912,5.499-12.799,12.096-14.998
					l22.298-7.397l6.234,38.862c0.219,1.363,1.506,2.291,2.864,2.072C75.493,203.014,76.421,201.732,76.202,200.369z"/>
			</g>
		</g>
		<g>
			<g>
				<path d="M167.757,245.49l-6.668-61.336c-0.962-8.849-7.04-16.386-15.484-19.201l-22.263-7.421
					c-1.401-0.467-2.933-0.297-4.197,0.471c-1.265,0.767-2.124,2.044-2.358,3.504l-6.147,38.324
					c-0.219,1.363,0.71,2.646,2.073,2.864c1.354,0.216,2.646-0.709,2.864-2.072l6.185-38.348l22.262,7.42
					c6.597,2.199,11.345,8.086,12.096,14.998l6.668,61.336c0.14,1.284-0.259,2.52-1.12,3.48c-0.862,0.96-2.048,1.49-3.339,1.49
					H134.09c-1.381,0-2.5,1.119-2.5,2.5s1.119,2.5,2.5,2.5h24.237c2.69,0,5.264-1.148,7.061-3.151
					C167.184,250.847,168.048,248.164,167.757,245.49z"/>
			</g>
		</g>
		<g>
			<g>
				<g>
					<path d="M104.703,121.906c-1.059-0.886-2.635-0.748-3.522,0.31c-1.605,1.916-4.338,3.059-7.309,3.059
						c-2.97,0-5.702-1.144-7.309-3.06c-0.889-1.059-2.467-1.196-3.522-0.309c-1.058,0.887-1.196,2.464-0.31,3.522
						c2.546,3.035,6.71,4.847,11.141,4.847c4.432,0,8.597-1.812,11.141-4.847C105.899,124.37,105.761,122.793,104.703,121.906z"/>
				</g>
			</g>
			<g>
				<g>
					<path d="M109.232,100.094c-2.526,0-4.574,2.048-4.574,4.574c0,2.526,2.048,4.574,4.574,4.574c2.526,0,4.574-2.048,4.574-4.574
						C113.806,102.143,111.758,100.094,109.232,100.094z"/>
				</g>
			</g>
			<g>
				<g>
					<circle cx="78.512" cy="104.669" r="4.574"/>
				</g>
			</g>
		</g>
		<g>
			<g>
				<path fill="#70D6F9" d="M65.906,16.1h-2.4v-2.3c0-1.8-1.4-3.2-3.2-3.2c-1.7,0-3.2,1.4-3.2,3.1v2.4h-2.3c-1.8,0-3.2,1.4-3.2,3.2
					c-0.1,1.7,1.3,3.2,3.2,3.2h2.3v2.3c0,1.8,1.4,3.2,3.2,3.2c1.7,0,3.2-1.4,3.2-3.1v-2.4h2.3c1.8,0,3.2-1.4,3.2-3.2
					C69.006,17.6,67.606,16.1,65.906,16.1z"/>
			</g>
		</g>
		<g>
			<g>
				<path fill="#87D147" d="M191.206,192.5c-1.878,0-3.4,1.522-3.4,3.4c0,1.878,1.522,3.4,3.4,3.4s3.4-1.522,3.4-3.4
					C194.606,194.022,193.083,192.5,191.206,192.5z"/>
			</g>
		</g>
		<g>
			<g>
				<path fill="#FC657E" d="M28.15,136.175c-3.1-0.6-5.6-3-6.2-6.1c0-0.1-0.3-0.1-0.3,0c-0.6,3.1-3.1,5.5-6.2,6.1
					c-0.1,0-0.1,0.2,0,0.3c3.1,0.6,5.6,3,6.2,6.1c0,0.1,0.3,0.1,0.3,0c0.6-3.1,3.1-5.5,6.2-6.1
					C28.25,136.375,28.25,136.175,28.15,136.175z"/>
			</g>
		</g>
		<g>
			<g>
				<path fill="#F5C84C" d="M93.369,0c-1.878,0-3.4,1.522-3.4,3.4c0,1.878,1.522,3.4,3.4,3.4s3.4-1.522,3.4-3.4
					C96.769,1.522,95.246,0,93.369,0z"/>
			</g>
		</g>
		<g>
			<g>
				<path fill="#F5C84C" d="M218.15,163.2c-4.5-0.8-8-4.3-8.9-8.7c0-0.2-0.4-0.2-0.4,0c-0.9,4.4-4.4,7.9-8.9,8.7
					c-0.2,0-0.2,0.3,0,0.4c4.5,0.8,8,4.3,8.9,8.7c0,0.2,0.4,0.2,0.4,0c0.9-4.4,4.4-7.9,8.9-8.7
					C218.35,163.5,218.35,163.2,218.15,163.2z"/>
			</g>
		</g>
		<g>
			<g>
				<g>
					<g>
						<path d="M235.524,0h-71.258c-11.29,0-20.476,9.185-20.476,20.476v51.238c0,11.29,9.186,20.475,20.476,20.475h4.308
							c1.785,0,3.237,1.452,3.237,3.237v6.052c0,2.305,1.313,4.297,3.428,5.201c0.723,0.309,1.482,0.459,2.237,0.459
							c1.444,0,2.867-0.55,3.956-1.592c2.748-2.627,5.197-5.683,7.279-9.08c1.643-2.678,4.427-4.277,7.447-4.277h39.365
							c11.29,0,20.476-9.185,20.476-20.475V20.476C256,9.185,246.814,0,235.524,0z M251,71.713c0,8.533-6.942,15.475-15.476,15.475
							h-39.365c-4.773,0-9.15,2.491-11.709,6.664c-1.858,3.031-4.036,5.749-6.474,8.08c-0.301,0.288-0.613,0.216-0.772,0.149
							c-0.261-0.111-0.393-0.314-0.393-0.603v-6.052c0-4.542-3.695-8.237-8.237-8.237h-4.308c-8.533,0-15.476-6.942-15.476-15.475
							V20.476c0-8.533,6.942-15.476,15.476-15.476h71.258C244.058,5,251,11.942,251,20.476V71.713z"/>
					</g>
				</g>
			</g>
		</g>
		<g>
			<g>
				<g>
					<g>
						<path d="M172.419,39.024c-4.949,0-8.976,4.026-8.976,8.976s4.026,8.976,8.976,8.976s8.977-4.026,8.977-8.976
							S177.368,39.024,172.419,39.024z M172.419,51.976c-2.192,0-3.976-1.783-3.976-3.976s1.783-3.976,3.976-3.976
							s3.977,1.783,3.977,3.976S174.611,51.976,172.419,51.976z"/>
					</g>
				</g>
			</g>
		</g>
		<g>
			<g>
				<g>
					<g>
						<path d="M199.5,39.024c-4.949,0-8.976,4.026-8.976,8.976s4.026,8.976,8.976,8.976s8.976-4.026,8.976-8.976
							S204.449,39.024,199.5,39.024z M199.5,51.976c-2.192,0-3.976-1.783-3.976-3.976s1.783-3.976,3.976-3.976
							s3.976,1.783,3.976,3.976S201.692,51.976,199.5,51.976z"/>
					</g>
				</g>
			</g>
		</g>
		<g>
			<g>
				<g>
					<g>
						<path d="M226.581,39.024c-4.949,0-8.977,4.026-8.977,8.976s4.027,8.976,8.977,8.976s8.976-4.026,8.976-8.976
							S231.53,39.024,226.581,39.024z M226.581,51.976c-2.192,0-3.977-1.783-3.977-3.976s1.784-3.976,3.977-3.976
							s3.976,1.783,3.976,3.976S228.773,51.976,226.581,51.976z"/>
					</g>
				</g>
			</g>
		</g>
		<g>
			<g>
				<path d="M60.175,199.489c-0.603-0.685-0.935-1.552-0.935-2.443v-33.962c0-1.381-1.119-2.5-2.5-2.5s-2.5,1.119-2.5,2.5v33.962
					c0,2.108,0.775,4.15,2.183,5.748c0.494,0.561,1.184,0.848,1.877,0.848c0.587,0,1.177-0.206,1.651-0.624
					C60.987,202.104,61.088,200.525,60.175,199.489z"/>
			</g>
		</g>
		<g>
			<g>
				<path d="M130.014,160.417c-1.381,0-2.5,1.119-2.5,2.5v34.128c0,0.901-0.339,1.777-0.954,2.465
					c-0.921,1.029-0.832,2.609,0.196,3.53c0.478,0.427,1.073,0.637,1.666,0.637c0.687,0,1.37-0.281,1.864-0.833
					c1.437-1.606,2.228-3.665,2.228-5.798v-34.128C132.514,161.537,131.395,160.417,130.014,160.417z"/>
			</g>
		</g>
		<g>
			<g>
				<path d="M122.976,157.771l-4.722-4.124c-1.013-0.884-2.31-1.323-3.648-1.23c-1.341,0.09-2.566,0.698-3.449,1.71l-14.191,16.246
					c-1.822,2.088-1.607,5.272,0.48,7.098l7.629,6.663c0.952,0.832,2.131,1.24,3.306,1.239c1.403,0,2.8-0.582,3.793-1.719
					l6.885-7.882c0.908-1.04,0.802-2.619-0.238-3.527c-1.039-0.909-2.619-0.802-3.527,0.238l-6.929,7.885l-7.632-6.707
					l14.233-16.249l4.722,4.124c1.037,0.908,2.618,0.801,3.527-0.238C124.122,160.258,124.016,158.679,122.976,157.771z"/>
			</g>
		</g>
		<g>
			<g>
				<path d="M89.788,170.372l-14.189-16.246c-0.885-1.012-2.109-1.619-3.45-1.709c-1.342-0.092-2.636,0.347-3.647,1.23l-4.626,4.04
					c-1.04,0.908-1.146,2.487-0.238,3.527c0.907,1.04,2.487,1.147,3.527,0.238l4.669-4.037l14.187,16.289l-7.672,6.66l-6.942-7.948
					c-0.909-1.041-2.489-1.146-3.527-0.238c-1.04,0.908-1.146,2.487-0.238,3.527l6.941,7.948c0.884,1.012,2.109,1.62,3.45,1.71
					c0.116,0.008,0.231,0.012,0.347,0.012c1.216,0,2.377-0.435,3.302-1.242l7.629-6.663
					C91.397,175.646,91.612,172.462,89.788,170.372z"/>
			</g>
		</g>
		<g>
			<g>
				<path d="M102.109,188.155c-0.135-1.375-1.358-2.38-2.732-2.243c-1.374,0.135-2.379,1.358-2.244,2.732l1.2,12.219
					c0.127,1.291,1.215,2.255,2.485,2.255c0.082,0,0.164-0.004,0.247-0.012c1.374-0.135,2.379-1.358,2.244-2.732L102.109,188.155z"
					/>
			</g>
		</g>
		<g>
			<g>
				<path d="M87.377,185.912c-1.375-0.137-2.598,0.869-2.732,2.244l-1.2,12.226c-0.135,1.374,0.87,2.597,2.244,2.732
					c0.083,0.008,0.165,0.012,0.247,0.012c1.271,0,2.358-0.965,2.485-2.256l1.2-12.226C89.756,187.27,88.751,186.047,87.377,185.912
					z"/>
			</g>
		</g>
		<g>
			<g>
				<g>
					<path d="M104.427,177.588c-1.259-0.559-2.739,0.006-3.3,1.269l-3.131,7.042h-9.238l-3.163-7.115
						c-0.562-1.262-2.04-1.828-3.3-1.269c-1.262,0.561-1.83,2.039-1.269,3.3l3.822,8.599c0.401,0.903,1.296,1.484,2.284,1.484
						h12.488c0.988,0,1.883-0.582,2.284-1.484l3.79-8.527C106.257,179.626,105.688,178.149,104.427,177.588z"/>
				</g>
			</g>
			<g>
				<g>
					<path d="M97.333,171.627h-7.5c-1.381,0-2.5,1.119-2.5,2.5s1.119,2.5,2.5,2.5h7.5c1.381,0,2.5-1.119,2.5-2.5
						S98.714,171.627,97.333,171.627z"/>
				</g>
			</g>
		</g>
		<g>
			<g>
				<g>
					<g>
						<path d="M134.236,198.838h-82.64c-2.859,0-5.187,2.327-5.187,5.187v10.789c0,2.859,2.327,5.186,5.187,5.186h82.808
							c2.859,0,5.186-2.327,5.186-5.186v-10.622C139.59,201.24,137.188,198.838,134.236,198.838z M134.59,214.814
							c0,0.103-0.083,0.186-0.186,0.186H51.597c-0.103,0-0.187-0.083-0.187-0.186v-10.789c0-0.103,0.084-0.187,0.187-0.187h82.64
							c0.195,0,0.354,0.159,0.354,0.354V214.814z"/>
					</g>
				</g>
			</g>
		</g>
		<g>
			<g>
				<path d="M134.09,215.656c-1.381,0-2.5,1.119-2.5,2.5V251H54.41v-32.667c0-1.381-1.119-2.5-2.5-2.5s-2.5,1.119-2.5,2.5V253.5
					c0,1.381,1.119,2.5,2.5,2.5h82.18c1.381,0,2.5-1.119,2.5-2.5v-35.344C136.59,216.775,135.471,215.656,134.09,215.656z"/>
			</g>
		</g>
		<g>
			<g>
				<path d="M102.034,216.375c-1.381,0-2.5,1.119-2.5,2.5v33.333c0,1.381,1.119,2.5,2.5,2.5s2.5-1.119,2.5-2.5v-33.333
					C104.534,217.495,103.415,216.375,102.034,216.375z"/>
			</g>
		</g>
		<g>
			<g>
				<path d="M83.966,216.5c-1.381,0-2.5,1.119-2.5,2.5v33.208c0,1.381,1.119,2.5,2.5,2.5s2.5-1.119,2.5-2.5V219
					C86.466,217.619,85.347,216.5,83.966,216.5z"/>
			</g>
		</g>
		<g>
			<g>
				<path d="M104.44,200.188c-1.381,0-2.5,1.119-2.5,2.5v13.563c0,1.381,1.119,2.5,2.5,2.5s2.5-1.119,2.5-2.5v-13.563
					C106.94,201.307,105.821,200.188,104.44,200.188z"/>
			</g>
		</g>
		<g>
			<g>
				<path d="M81.56,199.75c-1.381,0-2.5,1.119-2.5,2.5v14c0,1.381,1.119,2.5,2.5,2.5s2.5-1.119,2.5-2.5v-14
					C84.06,200.869,82.94,199.75,81.56,199.75z"/>
			</g>
		</g>
	</g>
</g>
<g id="Layer_46">
</g>
<g id="Layer_47">
</g>
<g id="Layer_48">
</g>
<g id="Layer_49">
</g>
<g id="Layer_50">
</g>
<g id="Layer_51">
</g>
<g id="Layer_52">
</g>
<g id="Layer_53">
</g>
<g id="Layer_54">
</g>
<g id="Layer_55">
</g>
<g id="Layer_56">
</g>
<g id="Layer_57">
</g>
<g id="Layer_58">
</g>
<g id="Layer_59">
</g>
<g id="Layer_60">
</g>
<g id="Layer_61">
</g>
<g id="Layer_62">
</g>
<g id="Layer_63">
</g>
<g id="Layer_64">
</g>
<g id="Layer_65">
</g>
<g id="Layer_66">
</g>
<g id="Layer_67">
</g>
<g id="Layer_68">
</g>
<g id="Layer_69">
</g>
<g id="Layer_70">
</g>
<g id="Layer_71">
</g>
<g id="Layer_72">
</g>
<g id="Layer_73">
</g>
<g id="Layer_74">
</g>
<g id="Layer_75">
</g>
<g id="Layer_76">
</g>
<g id="Layer_77">
</g>
<g id="Layer_78">
</g>
<g id="Layer_79">
</g>
<g id="Layer_80">
</g>
</svg>
