<?xml version="1.0" encoding="utf-8"?>
<!-- Generator: Adobe Illustrator 24.0.0, SVG Export Plug-In . SVG Version: 6.00 Build 0)  -->
<svg version="1.1" xmlns="http://www.w3.org/2000/svg" xmlns:xlink="http://www.w3.org/1999/xlink" x="0px" y="0px"
	 viewBox="0 0 256 256" enable-background="new 0 0 256 256" xml:space="preserve">
<g id="Layer_1">
</g>
<g id="Layer_2">
</g>
<g id="Layer_3">
</g>
<g id="Layer_4">
</g>
<g id="Layer_5">
</g>
<g id="Layer_6">
</g>
<g id="Layer_7">
</g>
<g id="Layer_8">
</g>
<g id="Layer_9">
</g>
<g id="Layer_10">
</g>
<g id="Layer_11">
</g>
<g id="Layer_12">
</g>
<g id="Layer_13">
</g>
<g id="Layer_14">
</g>
<g id="Layer_15">
</g>
<g id="Layer_16">
</g>
<g id="Layer_17">
</g>
<g id="Layer_18">
</g>
<g id="Layer_19">
</g>
<g id="Layer_20">
</g>
<g id="Layer_21">
</g>
<g id="Layer_22">
</g>
<g id="Layer_23">
</g>
<g id="Layer_24">
</g>
<g id="Layer_25">
</g>
<g id="Layer_26">
</g>
<g id="Layer_27">
</g>
<g id="Layer_28">
</g>
<g id="Layer_29">
</g>
<g id="Layer_30">
</g>
<g id="Layer_31">
</g>
<g id="Layer_32">
</g>
<g id="Layer_33">
</g>
<g id="Layer_34">
</g>
<g id="Layer_35">
</g>
<g id="Layer_36">
</g>
<g id="Layer_37">
</g>
<g id="Layer_38">
</g>
<g id="Layer_39">
</g>
<g id="Layer_40">
</g>
<g id="Layer_41">
</g>
<g id="Layer_42">
</g>
<g id="Layer_43">
</g>
<g id="Layer_44">
</g>
<g id="Layer_45">
</g>
<g id="Layer_46">
</g>
<g id="Layer_47">
</g>
<g id="Layer_48">
</g>
<g id="Layer_49">
</g>
<g id="Layer_50">
</g>
<g id="Layer_51">
</g>
<g id="Layer_52">
</g>
<g id="Layer_53">
</g>
<g id="Layer_54">
</g>
<g id="Layer_55">
</g>
<g id="Layer_56">
</g>
<g id="Layer_57">
</g>
<g id="Layer_58">
</g>
<g id="Layer_59">
</g>
<g id="Layer_60">
</g>
<g id="Layer_61">
</g>
<g id="Layer_62">
</g>
<g id="Layer_63">
</g>
<g id="Layer_64">
</g>
<g id="Layer_65">
</g>
<g id="Layer_66">
</g>
<g id="Layer_67">
</g>
<g id="Layer_68">
</g>
<g id="Layer_69">
</g>
<g id="Layer_70">
</g>
<g id="Layer_71">
</g>
<g id="Layer_72">
</g>
<g id="Layer_73">
</g>
<g id="Layer_74">
</g>
<g id="Layer_75">
</g>
<g id="Layer_76">
</g>
<g id="Layer_77">
</g>
<g id="Layer_78">
	<g>
		<g>
			<g>
				<circle fill="#B2E26D" cx="47.188" cy="170.99" r="17.51"/>
			</g>
		</g>
		<g>
			<g>
				<circle fill="#B2E26D" cx="47.188" cy="221.99" r="17.51"/>
			</g>
		</g>
		<g>
			<g>
				<circle fill="#FC657E" cx="156.188" cy="170.99" r="17.51"/>
			</g>
		</g>
		<g>
			<g>
				<circle fill="#FC657E" cx="156.188" cy="221.99" r="17.51"/>
			</g>
		</g>
		<g>
			<g>
				<path fill="#DAE6F1" d="M162.018,50.968c0-5.346,0.726-12.876-2.579-19.021c-0.512-0.951-0.711-2.04-0.577-3.111
					c0.109-0.875,0.429-1.707,0.95-2.418c1.923-2.624,4.028-6.202,5.287-10.55c2.315-7.991-5.304-15.416-13.219-12.853
					c-6.525,2.113-14.974,3.694-23.662,2.161c-18.535-3.271-35.838,13.866-38.706,31.073c-2.546,15.275,4.815,36.493,8.204,45.151
					c1.015,2.592,1.064,5.456,0.137,8.08l-0.636,1.802c-0.925,2.62-2.761,4.822-5.175,6.202c-2.314,1.323-3.993,3.528-4.909,6.031
					l-0.401,1.097c-1.781,4.869-4.825,9.134-8.64,12.646c-4.398,4.048-7.664,9.304-9.272,15.243h87.794
					c-2.686-6.48-7.183-11.413-11.154-15.136c-2.187-2.05-3.887-4.557-4.954-7.358l-0.855-2.243
					c-0.235-0.617-0.538-1.127-0.876-1.549c-2.071-2.586-3.197-5.798-2.766-9.087c0.21-1.602,1.852-2.601,3.391-2.112
					c2.156,0.685,4.036,1.241,5.681,1.683c5.041,1.355,10.615-0.582,13.719-5.534c0.622-0.992,1.02-2.108,1.289-3.248
					c0.192-0.813,0.376-1.567,0.56-2.203c0.174-0.6,0.083-1.24-0.264-1.759l-0.687-1.031c-0.553-0.83-0.444-1.935,0.261-2.64
					l2.536-1.446c0.392-0.392,0.613-0.924,0.613-1.479v-5.328c0-0.843,0.501-1.605,1.281-1.928c1.252-0.518,3.256-1.444,5.261-2.781
					C172.921,65.142,162.018,57.51,162.018,50.968z"/>
			</g>
		</g>
		<g>
			<g>
				<path fill="#70D6F9" d="M224.906,115.1h-2.4v-2.3c0-1.8-1.4-3.2-3.2-3.2c-1.7,0-3.2,1.4-3.2,3.1v2.4h-2.3
					c-1.8,0-3.2,1.4-3.2,3.2c-0.1,1.7,1.3,3.2,3.2,3.2h2.3v2.3c0,1.8,1.4,3.2,3.2,3.2c1.7,0,3.2-1.4,3.2-3.1v-2.4h2.3
					c1.8,0,3.2-1.4,3.2-3.2C228.006,116.6,226.606,115.1,224.906,115.1z"/>
			</g>
		</g>
		<g>
			<g>
				<path fill="#F5C84C" d="M198.206,135.5c-1.878,0-3.4,1.522-3.4,3.4c0,1.878,1.522,3.4,3.4,3.4c1.878,0,3.4-1.522,3.4-3.4
					C201.606,137.022,200.083,135.5,198.206,135.5z"/>
			</g>
		</g>
		<g>
			<g>
				<path fill="#87D147" d="M126.15,249.525c-3.1-0.6-5.6-3-6.2-6.1c0-0.1-0.3-0.1-0.3,0c-0.6,3.1-3.1,5.5-6.2,6.1
					c-0.1,0-0.1,0.2,0,0.3c3.1,0.6,5.6,3,6.2,6.1c0,0.1,0.3,0.1,0.3,0c0.6-3.1,3.1-5.5,6.2-6.1
					C126.25,249.725,126.25,249.525,126.15,249.525z"/>
			</g>
		</g>
		<g>
			<g>
				<path fill="#FC657E" d="M79.369,0c-1.878,0-3.4,1.522-3.4,3.4c0,1.878,1.522,3.4,3.4,3.4c1.878,0,3.4-1.522,3.4-3.4
					C82.769,1.522,81.246,0,79.369,0z"/>
			</g>
		</g>
		<g>
			<g>
				<path fill="#F5C84C" d="M63.15,26.2c-4.5-0.8-8-4.3-8.9-8.7c0-0.2-0.4-0.2-0.4,0c-0.9,4.4-4.4,7.9-8.9,8.7c-0.2,0-0.2,0.3,0,0.4
					c4.5,0.8,8,4.3,8.9,8.7c0,0.2,0.4,0.2,0.4,0c0.9-4.4,4.4-7.9,8.9-8.7C63.35,26.5,63.35,26.2,63.15,26.2z"/>
			</g>
		</g>
		<g>
			<g>
				<path d="M194.293,75.414h-5.417c-1.381,0-2.5,1.119-2.5,2.5s1.119,2.5,2.5,2.5h5.417c1.381,0,2.5-1.119,2.5-2.5
					S195.674,75.414,194.293,75.414z"/>
			</g>
		</g>
		<g>
			<g>
				<path d="M191.087,56.619c-0.69-1.196-2.222-1.605-3.415-0.915l-4.691,2.709c-1.196,0.69-1.605,2.22-0.915,3.415
					c0.463,0.802,1.304,1.25,2.167,1.25c0.425,0,0.854-0.107,1.248-0.335l4.691-2.709C191.368,59.344,191.777,57.814,191.087,56.619
					z"/>
			</g>
		</g>
		<g>
			<g>
				<path d="M190.172,95.793l-4.691-2.708c-1.193-0.689-2.724-0.281-3.415,0.915c-0.69,1.196-0.28,2.725,0.915,3.415l4.691,2.708
					c0.394,0.228,0.823,0.335,1.248,0.335c0.863,0,1.704-0.448,2.167-1.25C191.777,98.012,191.367,96.483,190.172,95.793z"/>
			</g>
		</g>
		<g>
			<g>
				<path d="M169.073,59.297c-2.029-2.626-4.556-5.895-4.556-8.328c0-0.766,0.016-1.578,0.031-2.424
					c0.1-5.328,0.224-11.958-2.909-17.782c-0.265-0.492-0.367-1.052-0.297-1.616c0.059-0.464,0.226-0.896,0.486-1.25
					c2.621-3.576,4.529-7.389,5.672-11.333c1.331-4.597,0.01-9.536-3.45-12.889c-3.501-3.395-8.339-4.528-12.939-3.038
					c-8.014,2.596-15.57,3.295-22.458,2.077c-8.104-1.429-16.701,0.704-24.206,6.011c-9.007,6.368-15.674,16.758-17.4,27.113
					c-2.654,15.929,4.95,37.807,8.342,46.474c0.795,2.031,0.833,4.281,0.108,6.337l-0.636,1.801
					c-0.725,2.056-2.167,3.783-4.059,4.864c-2.714,1.552-4.851,4.159-6.016,7.342l-0.401,1.097
					c-1.58,4.318-4.266,8.243-7.984,11.666c-4.831,4.445-8.286,10.126-9.993,16.429c-0.361,1.333,0.427,2.706,1.76,3.066
					c1.333,0.365,2.706-0.427,3.066-1.76c1.459-5.39,4.417-10.251,8.553-14.056c4.311-3.969,7.438-8.554,9.293-13.627l0.401-1.097
					c0.76-2.076,2.11-3.752,3.802-4.72c2.934-1.677,5.168-4.355,6.292-7.541l0.636-1.801c1.125-3.187,1.066-6.675-0.167-9.823
					c-3.242-8.281-10.517-29.129-8.067-43.829c1.515-9.087,7.398-18.228,15.355-23.854c4.532-3.205,11.76-6.706,20.45-5.169
					c7.703,1.359,16.069,0.604,24.867-2.243c2.812-0.914,5.771-0.212,7.92,1.87c2.159,2.094,2.955,5.05,2.127,7.908
					c-0.979,3.379-2.628,6.665-4.901,9.767c-0.763,1.039-1.252,2.279-1.415,3.587c-0.2,1.602,0.096,3.194,0.854,4.605
					c2.513,4.67,2.402,10.575,2.313,15.319c-0.017,0.879-0.032,1.722-0.032,2.518c0,4.141,3.104,8.158,5.6,11.386
					c0.793,1.027,1.907,2.469,2.404,3.363c-1.552,0.955-3.048,1.646-4.088,2.075c-1.717,0.71-2.825,2.373-2.825,4.238v5.005
					l-1.888,1.076c-0.193,0.11-0.371,0.246-0.528,0.404c-1.542,1.541-1.783,3.978-0.574,5.794l0.582,0.874
					c-0.179,0.634-0.357,1.369-0.545,2.158c-0.238,1.014-0.558,1.83-0.973,2.493c-2.408,3.843-6.704,5.587-10.953,4.447
					c-1.627-0.438-3.449-0.978-5.571-1.651c-1.456-0.461-3.031-0.259-4.32,0.563c-1.271,0.809-2.112,2.123-2.307,3.607
					c-0.499,3.802,0.671,7.699,3.292,10.972c0.199,0.25,0.366,0.546,0.493,0.879l0.854,2.244c1.188,3.115,3.116,5.982,5.58,8.292
					c3.259,3.055,7.897,7.857,10.555,14.269c0.399,0.963,1.329,1.544,2.311,1.544c0.319,0,0.644-0.062,0.956-0.191
					c1.275-0.528,1.881-1.991,1.353-3.267c-3.026-7.304-8.158-12.631-11.754-16.003c-1.913-1.793-3.409-4.015-4.328-6.424
					l-0.854-2.245c-0.313-0.818-0.736-1.564-1.261-2.221c-1.764-2.203-2.56-4.759-2.207-7.236c0.026-0.017,0.068-0.033,0.123-0.017
					c2.196,0.697,4.09,1.258,5.788,1.714c6.318,1.7,12.939-0.962,16.488-6.621c0.712-1.137,1.235-2.445,1.602-3.998
					c0.182-0.768,0.354-1.48,0.529-2.083c0.38-1.314,0.167-2.714-0.585-3.841l-0.403-0.605l1.672-0.953
					c0.192-0.11,0.369-0.245,0.526-0.402c0.856-0.854,1.348-2.038,1.348-3.248v-5.057c1.407-0.596,3.413-1.557,5.429-2.9
					c0.908-0.605,1.503-1.511,1.673-2.55C173.096,64.502,171.32,62.205,169.073,59.297z"/>
			</g>
		</g>
		<g>
			<g>
				<g>
					<g>
						<path d="M47.188,150.979c-11.033,0-20.01,8.977-20.01,20.011c0,11.033,8.977,20.01,20.01,20.01
							c11.034,0,20.01-8.977,20.01-20.01C67.198,159.956,58.222,150.979,47.188,150.979z M47.188,186
							c-8.276,0-15.01-6.733-15.01-15.01c0-8.277,6.733-15.011,15.01-15.011c8.277,0,15.01,6.733,15.01,15.011
							C62.198,179.267,55.465,186,47.188,186z"/>
					</g>
				</g>
			</g>
		</g>
		<g>
			<g>
				<path d="M56.108,166.505c-0.977-0.977-2.56-0.977-3.536,0l-6.112,6.111l-3.86-3.86c-0.976-0.977-2.56-0.977-3.535,0
					c-0.977,0.977-0.977,2.559,0,3.535l5.628,5.628c0.488,0.488,1.128,0.732,1.768,0.732s1.28-0.244,1.768-0.732l7.879-7.879
					C57.084,169.064,57.084,167.481,56.108,166.505z"/>
			</g>
		</g>
		<g>
			<g>
				<path d="M117.322,156.823h-38c-1.381,0-2.5,1.119-2.5,2.5s1.119,2.5,2.5,2.5h38c1.381,0,2.5-1.119,2.5-2.5
					S118.703,156.823,117.322,156.823z"/>
			</g>
		</g>
		<g>
			<g>
				<path d="M117.322,168.49h-38c-1.381,0-2.5,1.119-2.5,2.5s1.119,2.5,2.5,2.5h38c1.381,0,2.5-1.119,2.5-2.5
					S118.703,168.49,117.322,168.49z"/>
			</g>
		</g>
		<g>
			<g>
				<path d="M99.322,180.156h-20c-1.381,0-2.5,1.119-2.5,2.5s1.119,2.5,2.5,2.5h20c1.381,0,2.5-1.119,2.5-2.5
					S100.703,180.156,99.322,180.156z"/>
			</g>
		</g>
		<g>
			<g>
				<g>
					<g>
						<path d="M47.188,201.979c-11.033,0-20.01,8.977-20.01,20.011c0,11.033,8.977,20.01,20.01,20.01
							c11.034,0,20.01-8.977,20.01-20.01C67.198,210.956,58.222,201.979,47.188,201.979z M47.188,237
							c-8.276,0-15.01-6.733-15.01-15.01c0-8.277,6.733-15.011,15.01-15.011c8.277,0,15.01,6.733,15.01,15.011
							C62.198,230.267,55.465,237,47.188,237z"/>
					</g>
				</g>
			</g>
		</g>
		<g>
			<g>
				<path d="M56.108,217.505c-0.977-0.977-2.56-0.977-3.536,0l-6.112,6.111l-3.86-3.86c-0.976-0.977-2.56-0.977-3.535,0
					c-0.977,0.977-0.977,2.559,0,3.535l5.628,5.628c0.488,0.488,1.128,0.732,1.768,0.732s1.28-0.244,1.768-0.732l7.879-7.879
					C57.084,220.064,57.084,218.481,56.108,217.505z"/>
			</g>
		</g>
		<g>
			<g>
				<path d="M117.322,207.823h-38c-1.381,0-2.5,1.119-2.5,2.5s1.119,2.5,2.5,2.5h38c1.381,0,2.5-1.119,2.5-2.5
					S118.703,207.823,117.322,207.823z"/>
			</g>
		</g>
		<g>
			<g>
				<path d="M117.322,219.49h-38c-1.381,0-2.5,1.119-2.5,2.5s1.119,2.5,2.5,2.5h38c1.381,0,2.5-1.119,2.5-2.5
					S118.703,219.49,117.322,219.49z"/>
			</g>
		</g>
		<g>
			<g>
				<path d="M99.322,231.156h-20c-1.381,0-2.5,1.119-2.5,2.5s1.119,2.5,2.5,2.5h20c1.381,0,2.5-1.119,2.5-2.5
					S100.703,231.156,99.322,231.156z"/>
			</g>
		</g>
		<g>
			<g>
				<g>
					<g>
						<path d="M156.188,150.979c-11.034,0-20.011,8.977-20.011,20.011c0,11.033,8.977,20.01,20.011,20.01
							c11.033,0,20.01-8.977,20.01-20.01C176.198,159.956,167.222,150.979,156.188,150.979z M156.188,186
							c-8.277,0-15.011-6.733-15.011-15.01c0-8.277,6.733-15.011,15.011-15.011c8.276,0,15.01,6.733,15.01,15.011
							C171.198,179.267,164.465,186,156.188,186z"/>
					</g>
				</g>
			</g>
		</g>
		<g>
			<g>
				<path d="M163.474,163.704c-0.977-0.977-2.559-0.977-3.535,0l-11.036,11.036c-0.977,0.977-0.977,2.559,0,3.535
					c0.488,0.488,1.128,0.732,1.768,0.732s1.279-0.244,1.768-0.732l11.036-11.036C164.45,166.263,164.45,164.681,163.474,163.704z"
					/>
			</g>
		</g>
		<g>
			<g>
				<path d="M163.474,174.74l-11.036-11.036c-0.977-0.977-2.559-0.977-3.535,0s-0.977,2.559,0,3.535l11.036,11.036
					c0.488,0.488,1.128,0.732,1.768,0.732s1.279-0.244,1.768-0.732C164.45,177.299,164.45,175.717,163.474,174.74z"/>
			</g>
		</g>
		<g>
			<g>
				<path d="M226.322,156.823h-38c-1.381,0-2.5,1.119-2.5,2.5s1.119,2.5,2.5,2.5h38c1.381,0,2.5-1.119,2.5-2.5
					S227.703,156.823,226.322,156.823z"/>
			</g>
		</g>
		<g>
			<g>
				<path d="M226.322,168.49h-38c-1.381,0-2.5,1.119-2.5,2.5s1.119,2.5,2.5,2.5h38c1.381,0,2.5-1.119,2.5-2.5
					S227.703,168.49,226.322,168.49z"/>
			</g>
		</g>
		<g>
			<g>
				<path d="M208.322,180.156h-20c-1.381,0-2.5,1.119-2.5,2.5s1.119,2.5,2.5,2.5h20c1.381,0,2.5-1.119,2.5-2.5
					S209.703,180.156,208.322,180.156z"/>
			</g>
		</g>
		<g>
			<g>
				<path d="M226.322,207.823h-38c-1.381,0-2.5,1.119-2.5,2.5s1.119,2.5,2.5,2.5h38c1.381,0,2.5-1.119,2.5-2.5
					S227.703,207.823,226.322,207.823z"/>
			</g>
		</g>
		<g>
			<g>
				<path d="M226.322,219.49h-38c-1.381,0-2.5,1.119-2.5,2.5s1.119,2.5,2.5,2.5h38c1.381,0,2.5-1.119,2.5-2.5
					S227.703,219.49,226.322,219.49z"/>
			</g>
		</g>
		<g>
			<g>
				<path d="M208.322,231.156h-20c-1.381,0-2.5,1.119-2.5,2.5s1.119,2.5,2.5,2.5h20c1.381,0,2.5-1.119,2.5-2.5
					S209.703,231.156,208.322,231.156z"/>
			</g>
		</g>
		<g>
			<g>
				<g>
					<g>
						<path d="M156.188,201.979c-11.034,0-20.011,8.977-20.011,20.011c0,11.033,8.977,20.01,20.011,20.01
							c11.033,0,20.01-8.977,20.01-20.01C176.198,210.956,167.222,201.979,156.188,201.979z M156.188,237
							c-8.277,0-15.011-6.733-15.011-15.01c0-8.277,6.733-15.011,15.011-15.011c8.276,0,15.01,6.733,15.01,15.011
							C171.198,230.267,164.465,237,156.188,237z"/>
					</g>
				</g>
			</g>
		</g>
		<g>
			<g>
				<path d="M163.474,214.704c-0.977-0.977-2.559-0.977-3.535,0l-11.036,11.036c-0.977,0.977-0.977,2.559,0,3.535
					c0.488,0.488,1.128,0.732,1.768,0.732s1.279-0.244,1.768-0.732l11.036-11.036C164.45,217.263,164.45,215.681,163.474,214.704z"
					/>
			</g>
		</g>
		<g>
			<g>
				<path d="M163.474,225.74l-11.036-11.036c-0.977-0.977-2.559-0.977-3.535,0s-0.977,2.559,0,3.535l11.036,11.036
					c0.488,0.488,1.128,0.732,1.768,0.732s1.279-0.244,1.768-0.732C164.45,228.299,164.45,226.717,163.474,225.74z"/>
			</g>
		</g>
	</g>
</g>
<g id="Layer_79">
</g>
<g id="Layer_80">
</g>
</svg>
