<?xml version="1.0" encoding="utf-8"?>
<!-- Generator: Adobe Illustrator 24.0.0, SVG Export Plug-In . SVG Version: 6.00 Build 0)  -->
<svg version="1.1" xmlns="http://www.w3.org/2000/svg" xmlns:xlink="http://www.w3.org/1999/xlink" x="0px" y="0px"
	 viewBox="0 0 256 256" enable-background="new 0 0 256 256" xml:space="preserve">
<g id="Layer_1">
</g>
<g id="Layer_2">
</g>
<g id="Layer_3">
</g>
<g id="Layer_4">
</g>
<g id="Layer_5">
	<g>
		<g>
			<g>
				<path fill="#5290DB" d="M79.107,172.845c-2.413-0.439-4.898-0.669-7.438-0.669c-2.539,0-5.025,0.23-7.438,0.669
					c-9.573,1.744-16.944,9.088-19.088,18.355c6.93,1.07,12.244,7.03,12.276,14.252h27.383c0.034-7.592,5.9-13.794,13.349-14.382
					C95.971,181.865,88.634,174.581,79.107,172.845z"/>
			</g>
		</g>
		<g>
			<g>
				<circle fill="#F9D0B4" cx="71.112" cy="157.471" r="14.506"/>
			</g>
		</g>
		<g>
			<g>
				<path fill="#F5C84C" d="M135.496,172.845c-2.413-0.439-4.898-0.669-7.438-0.669c-2.539,0-5.025,0.23-7.438,0.669
					c-9.573,1.744-16.944,9.088-19.088,18.355c6.93,1.07,12.244,7.03,12.276,14.252h27.383c0.034-7.592,5.9-13.794,13.349-14.382
					C152.36,181.865,145.023,174.581,135.496,172.845z"/>
			</g>
		</g>
		<g>
			<g>
				<circle fill="#F9D0B4" cx="127.501" cy="157.471" r="14.506"/>
			</g>
		</g>
		<g>
			<g>
				<path fill="#F98FA6" d="M191.885,172.845c-2.413-0.439-4.898-0.669-7.438-0.669c-2.539,0-5.025,0.23-7.438,0.669
					c-9.573,1.744-16.944,9.088-19.088,18.355c6.93,1.07,12.244,7.03,12.276,14.252h27.383c0.034-7.592,5.9-13.794,13.349-14.382
					C208.749,181.865,201.412,174.581,191.885,172.845z"/>
			</g>
		</g>
		<g>
			<g>
				<circle fill="#F9D0B4" cx="183.89" cy="157.471" r="14.506"/>
			</g>
		</g>
		<g>
			<g>
				<path fill="#70D6F9" d="M70.275,240.618c-1.703-9.908-9.322-17.896-19.362-19.725c-2.412-0.439-4.898-0.669-7.438-0.669
					c-2.54,0-5.025,0.23-7.438,0.669c-10.484,1.91-18.349,10.529-19.573,21.045c-0.072,0.62-0.091,1.247-0.091,1.871v6.864
					c0,1.562,1.266,2.828,2.828,2.828h48.43c1.562,0,2.828-1.266,2.828-2.828v-7.498C70.459,242.319,70.419,241.461,70.275,240.618z
					"/>
			</g>
		</g>
		<g>
			<g>
				<circle fill="#F9D0B4" cx="42.917" cy="205.518" r="14.506"/>
			</g>
		</g>
		<g>
			<g>
				<path fill="#87D147" d="M126.663,240.618c-1.703-9.908-9.322-17.896-19.362-19.725c-2.412-0.439-4.898-0.669-7.438-0.669
					c-2.54,0-5.025,0.23-7.438,0.669c-10.484,1.91-18.349,10.529-19.573,21.045c-0.072,0.62-0.091,1.247-0.091,1.871v6.864
					c0,1.562,1.266,2.828,2.828,2.828h48.43c1.562,0,2.828-1.266,2.828-2.828v-7.498
					C126.848,242.319,126.808,241.461,126.663,240.618z"/>
			</g>
		</g>
		<g>
			<g>
				<circle fill="#F9D0B4" cx="99.306" cy="205.518" r="14.506"/>
			</g>
		</g>
		<g>
			<g>
				<path fill="#B598F9" d="M183.052,240.618c-1.703-9.908-9.322-17.896-19.362-19.725c-2.412-0.439-4.898-0.669-7.438-0.669
					c-2.54,0-5.025,0.23-7.438,0.669c-10.484,1.91-18.348,10.529-19.573,21.045c-0.072,0.62-0.091,1.247-0.091,1.871v6.864
					c0,1.562,1.266,2.828,2.828,2.828h48.43c1.562,0,2.828-1.266,2.828-2.828v-7.498
					C183.237,242.319,183.197,241.461,183.052,240.618z"/>
			</g>
		</g>
		<g>
			<g>
				<circle fill="#F9D0B4" cx="155.695" cy="205.518" r="14.506"/>
			</g>
		</g>
		<g>
			<g>
				<path fill="#FCA265" d="M239.441,240.618c-1.703-9.908-9.322-17.896-19.362-19.725c-2.412-0.439-4.898-0.669-7.438-0.669
					c-2.54,0-5.025,0.23-7.438,0.669c-10.484,1.91-18.348,10.529-19.573,21.045c-0.072,0.62-0.091,1.247-0.091,1.871v6.864
					c0,1.562,1.266,2.828,2.828,2.828h48.43c1.562,0,2.828-1.266,2.828-2.828v-7.498
					C239.626,242.319,239.586,241.461,239.441,240.618z"/>
			</g>
		</g>
		<g>
			<g>
				<circle fill="#F9D0B4" cx="212.084" cy="205.518" r="14.506"/>
			</g>
		</g>
		<g>
			<g>
				<path fill="#70D6F9" d="M168.278,102.142l-12.397-3.12c-6.571-1.654-11.738-4.488-11.671-4.455
					c-2.701-1.332-4.412-4.083-4.412-7.095v-3.727c-3.162,1.655-6.75,2.598-10.549,2.598s-7.387-0.943-10.549-2.598v3.726
					c0,3.012-1.711,5.763-4.412,7.095c-3.65,1.8-6.836,3.238-11.671,4.455l-12.397,3.12c-3.835,0.965-6.596,4.312-6.816,8.26v12.026
					h91.689v-12.026C174.875,106.454,172.113,103.108,168.278,102.142z"/>
			</g>
		</g>
		<g>
			<g>
				<path fill="#F9D0B4" d="M148.876,36.06c-1.497-1.57-3.932-1.715-5.638-0.375c-2.698,2.118-7.368,4.736-13.963,4.736
					c-6.611,0-11.305-2.631-14.015-4.752c-1.705-1.335-4.135-1.185-5.629,0.382l-0.008,0.008c-2.1,2.202-3.271,5.128-3.271,8.17
					v19.217c0,12.594,10.304,22.897,22.897,22.897s22.897-10.304,22.897-22.897V44.23C152.147,41.188,150.976,38.262,148.876,36.06z
					"/>
			</g>
		</g>
		<g>
			<g>
				<path fill="#F9D0B4" d="M153.616,45.996c-0.5,0-0.99,0.042-1.469,0.117c0,2.437,0,13.712,0,17.334
					c0,0.516-0.024,1.027-0.058,1.536c0.498,0.08,1.006,0.133,1.527,0.133c5.28,0,9.56-4.28,9.56-9.56
					S158.896,45.996,153.616,45.996z"/>
			</g>
		</g>
		<g>
			<g>
				<path fill="#F9D0B4" d="M106.352,63.447c0-2.372,0-12.618,0-17.334c-0.479-0.074-0.969-0.117-1.469-0.117
					c-5.28,0-9.56,4.28-9.56,9.56s4.28,9.56,9.56,9.56c0.521,0,1.029-0.053,1.527-0.133v0
					C106.376,64.474,106.352,63.963,106.352,63.447z"/>
			</g>
		</g>
		<g>
			<g>
				<path fill="#5B5D60" d="M152.062,26.464c-0.767,0-1.432-0.591-1.442-1.358c-0.176-12.759-14.746-15.156-29.256-12.65
					c-12.302,2.124-21.293,12.792-21.293,25.276v9.573c1.415-0.827,3.055-1.309,4.812-1.309c0.5,0,0.99,0.042,1.469,0.117V44.23
					c0-3.043,1.171-5.968,3.271-8.17l0.008-0.008c1.494-1.567,3.924-1.717,5.629-0.382c2.71,2.121,7.404,4.752,14.015,4.752
					c6.595,0,11.264-2.618,13.963-4.736c1.707-1.34,4.141-1.195,5.638,0.375c2.1,2.202,3.271,5.128,3.271,8.17v1.882
					c0.479-0.074,0.969-0.117,1.469-0.117c1.778,0,3.437,0.494,4.863,1.34c0-2.672,0-5.416,0-7.86
					C158.479,28.051,154.354,26.464,152.062,26.464z"/>
			</g>
		</g>
		<g>
			<g>
				<path fill="#9BE5F9" d="M125.013,104.463l-7.938-12.214c-0.728,0.959-1.666,1.766-2.787,2.318
					c-2.696,1.329-5.143,2.46-8.184,3.451l8.559,13.17c0.83,1.277,2.538,1.64,3.815,0.81l5.725-3.72
					C125.481,107.448,125.843,105.74,125.013,104.463z"/>
			</g>
		</g>
		<g>
			<g>
				<path fill="#9BE5F9" d="M144.211,94.567c-1.121-0.553-2.059-1.36-2.787-2.318l-7.938,12.214c-0.83,1.277-0.468,2.985,0.81,3.815
					l5.725,3.72c1.277,0.83,2.985,0.467,3.815-0.81l8.566-13.181C147.578,96.417,144.156,94.541,144.211,94.567z"/>
			</g>
		</g>
		<g>
			<g>
				<path fill="#F9D0B4" d="M139.799,87.473v-3.726c-3.162,1.655-6.75,2.598-10.549,2.598c-3.799,0-7.387-0.943-10.549-2.598v3.726
					c0,1.762-0.599,3.425-1.625,4.776l7.938,12.214c0.317,0.488,0.458,1.039,0.442,1.58h7.589c-0.016-0.541,0.124-1.092,0.442-1.58
					l7.939-12.215C140.397,90.897,139.799,89.235,139.799,87.473z"/>
			</g>
		</g>
		<g>
			<g>
				<path d="M83.75,202.953H58.5c-1.381,0-2.5,1.119-2.5,2.5s1.119,2.5,2.5,2.5h25.25c1.381,0,2.5-1.119,2.5-2.5
					S85.131,202.953,83.75,202.953z"/>
			</g>
		</g>
		<g>
			<g>
				<path d="M100.412,189.806c-2.64-9.97-10.826-17.593-20.856-19.42c-5.168-0.941-10.604-0.941-15.771,0
					c-9.972,1.817-18.148,9.381-20.83,19.271c-0.361,1.333,0.426,2.706,1.759,3.067c1.329,0.358,2.706-0.426,3.067-1.759
					c2.18-8.04,8.813-14.187,16.9-15.66c4.578-0.834,9.4-0.834,13.979,0c8.133,1.482,14.773,7.676,16.919,15.781
					c0.297,1.121,1.309,1.861,2.415,1.861c0.212,0,0.428-0.027,0.642-0.084C99.97,192.509,100.766,191.141,100.412,189.806z"/>
			</g>
		</g>
		<g>
			<g>
				<g>
					<g>
						<path d="M71.111,140.465c-9.377,0-17.006,7.629-17.006,17.006c0,9.377,7.629,17.006,17.006,17.006
							c9.378,0,17.007-7.629,17.007-17.006C88.118,148.094,80.489,140.465,71.111,140.465z M71.111,169.477
							c-6.62,0-12.006-5.386-12.006-12.006s5.386-12.006,12.006-12.006s12.007,5.386,12.007,12.006S77.731,169.477,71.111,169.477z"
							/>
					</g>
				</g>
			</g>
		</g>
		<g>
			<g>
				<path d="M140.167,202.953h-25.042c-1.381,0-2.5,1.119-2.5,2.5s1.119,2.5,2.5,2.5h25.042c1.381,0,2.5-1.119,2.5-2.5
					S141.548,202.953,140.167,202.953z"/>
			</g>
		</g>
		<g>
			<g>
				<path d="M156.801,189.802c-2.642-9.967-10.828-17.589-20.856-19.416c-5.168-0.941-10.604-0.941-15.771,0
					c-10.165,1.852-18.387,9.592-20.947,19.718c-0.338,1.338,0.473,2.698,1.811,3.037c0.206,0.052,0.412,0.077,0.615,0.077
					c1.117,0,2.136-0.755,2.422-1.888c2.081-8.232,8.753-14.523,16.996-16.025c4.578-0.834,9.4-0.834,13.979,0
					c8.131,1.481,14.772,7.675,16.919,15.778c0.354,1.334,1.723,2.13,3.058,1.776C156.358,192.505,157.154,191.137,156.801,189.802z
					"/>
			</g>
		</g>
		<g>
			<g>
				<g>
					<g>
						<path d="M127.501,140.465c-9.378,0-17.007,7.629-17.007,17.006c0,9.377,7.629,17.006,17.007,17.006
							c9.377,0,17.006-7.629,17.006-17.006C144.507,148.094,136.878,140.465,127.501,140.465z M127.501,169.477
							c-6.62,0-12.007-5.386-12.007-12.006s5.387-12.006,12.007-12.006s12.006,5.386,12.006,12.006S134.121,169.477,127.501,169.477
							z"/>
					</g>
				</g>
			</g>
		</g>
		<g>
			<g>
				<path d="M196.708,202.953h-25.396c-1.381,0-2.5,1.119-2.5,2.5s1.119,2.5,2.5,2.5h25.396c1.381,0,2.5-1.119,2.5-2.5
					S198.089,202.953,196.708,202.953z"/>
			</g>
		</g>
		<g>
			<g>
				<path d="M213.279,190.152c-2.545-10.153-10.767-17.912-20.946-19.767c-5.168-0.941-10.604-0.941-15.771,0
					c-9.891,1.802-18.046,9.291-20.776,19.079c-0.371,1.33,0.406,2.709,1.736,3.08c1.333,0.372,2.709-0.407,3.08-1.736
					c2.254-8.08,8.713-14.02,16.856-15.504c4.578-0.834,9.4-0.834,13.979,0c8.254,1.504,14.924,7.809,16.993,16.063
					c0.284,1.135,1.304,1.893,2.423,1.893c0.201,0,0.406-0.024,0.609-0.076C212.802,192.85,213.615,191.492,213.279,190.152z"/>
			</g>
		</g>
		<g>
			<g>
				<g>
					<g>
						<path d="M183.89,140.465c-9.377,0-17.006,7.629-17.006,17.006c0,9.377,7.629,17.006,17.006,17.006s17.006-7.629,17.006-17.006
							C200.896,148.094,193.267,140.465,183.89,140.465z M183.89,169.477c-6.62,0-12.006-5.386-12.006-12.006
							s5.386-12.006,12.006-12.006s12.006,5.386,12.006,12.006S190.51,169.477,183.89,169.477z"/>
					</g>
				</g>
			</g>
		</g>
		<g>
			<g>
				<path fill="#70D6F9" d="M224.906,133.1h-0.1h-2.3v-2.3c0-1.8-1.4-3.2-3.2-3.2c-1.7,0-3.2,1.4-3.2,3.1v0.1v2.3h-2.3
					c-1.8,0-3.2,1.4-3.2,3.2c-0.1,1.7,1.3,3.2,3.2,3.2h2.3v2.3c0,1.8,1.4,3.2,3.2,3.2c1.7,0,3.2-1.4,3.2-3.1v-0.1v-2.3h2.3
					c1.8,0,3.2-1.4,3.2-3.2C228.006,134.6,226.606,133.1,224.906,133.1z"/>
			</g>
		</g>
		<g>
			<g>
				<path fill="#F5C84C" d="M231.206,165.5c-1.878,0-3.4,1.522-3.4,3.4c0,1.878,1.522,3.4,3.4,3.4s3.4-1.522,3.4-3.4
					C234.606,167.022,233.083,165.5,231.206,165.5z"/>
			</g>
		</g>
		<g>
			<g>
				<path fill="#87D147" d="M49.15,127.175c-3.1-0.6-5.6-3-6.2-6.1c0-0.1-0.3-0.1-0.3,0c-0.6,3.1-3.1,5.5-6.2,6.1
					c-0.1,0-0.1,0.2,0,0.3c3.1,0.6,5.6,3,6.2,6.1c0,0.1,0.3,0.1,0.3,0c0.6-3.1,3.1-5.5,6.2-6.1
					C49.25,127.375,49.25,127.175,49.15,127.175z"/>
			</g>
		</g>
		<g>
			<g>
				<path fill="#FC657E" d="M89.369,0c-1.878,0-3.4,1.522-3.4,3.4c0,1.878,1.522,3.4,3.4,3.4s3.4-1.522,3.4-3.4
					C92.769,1.522,91.246,0,89.369,0z"/>
			</g>
		</g>
		<g>
			<g>
				<path fill="#F5C84C" d="M69.15,25.2c-4.5-0.8-8-4.3-8.9-8.7c0-0.2-0.4-0.2-0.4,0c-0.9,4.4-4.4,7.9-8.9,8.7c-0.2,0-0.2,0.3,0,0.4
					c4.5,0.8,8,4.3,8.9,8.7c0,0.2,0.4,0.2,0.4,0c0.9-4.4,4.4-7.9,8.9-8.7C69.35,25.5,69.35,25.2,69.15,25.2z"/>
			</g>
		</g>
		<g>
			<g>
				<g>
					<g>
						<path d="M72.738,240.194c-1.896-11.032-10.486-19.777-21.377-21.761c-5.171-0.941-10.604-0.941-15.771,0
							c-11.553,2.105-20.236,11.434-21.608,23.215c-0.074,0.638-0.107,1.305-0.107,2.16v6.864c0,2.938,2.39,5.328,5.327,5.328
							h48.431c2.938,0,5.327-2.39,5.327-5.328v-7.498C72.959,242.015,72.889,241.067,72.738,240.194z M67.959,250.672
							c0,0.181-0.146,0.328-0.327,0.328H19.201c-0.181,0-0.327-0.147-0.327-0.328v-6.864c0-0.655,0.022-1.142,0.074-1.582
							c1.115-9.582,8.164-17.167,17.538-18.875c2.289-0.417,4.641-0.628,6.989-0.628c2.348,0,4.699,0.211,6.989,0.628
							c8.834,1.609,15.805,8.718,17.346,17.689c0,0,0,0.001,0,0.002c0.102,0.585,0.148,1.263,0.148,2.131V250.672z"/>
					</g>
				</g>
			</g>
		</g>
		<g>
			<g>
				<g>
					<g>
						<path d="M42.917,188.512c-9.377,0-17.006,7.629-17.006,17.006c0,9.377,7.629,17.006,17.006,17.006
							c9.378,0,17.007-7.629,17.007-17.006C59.924,196.141,52.295,188.512,42.917,188.512z M42.917,217.524
							c-6.62,0-12.006-5.386-12.006-12.006s5.386-12.006,12.006-12.006s12.007,5.386,12.007,12.006S49.537,217.524,42.917,217.524z"
							/>
					</g>
				</g>
			</g>
		</g>
		<g>
			<g>
				<g>
					<g>
						<path d="M129.127,240.194c-1.896-11.032-10.486-19.777-21.377-21.761c-5.168-0.941-10.604-0.941-15.771,0
							c-11.553,2.105-20.236,11.434-21.608,23.215c-0.074,0.638-0.107,1.305-0.107,2.16v6.864c0,2.938,2.391,5.328,5.328,5.328
							h48.43c2.938,0,5.327-2.39,5.327-5.328v-7.498C129.348,242.015,129.277,241.067,129.127,240.194z M124.348,250.672
							c0,0.181-0.146,0.328-0.327,0.328h-48.43c-0.181,0-0.328-0.147-0.328-0.328v-6.864c0-0.655,0.022-1.142,0.074-1.582
							c1.115-9.582,8.164-17.167,17.538-18.875c2.289-0.417,4.641-0.628,6.989-0.628s4.7,0.211,6.989,0.628
							c8.834,1.609,15.805,8.718,17.346,17.689c0,0,0,0.001,0,0.002c0.102,0.585,0.148,1.263,0.148,2.131V250.672z"/>
					</g>
				</g>
			</g>
		</g>
		<g>
			<g>
				<g>
					<g>
						<path d="M99.307,188.512c-9.378,0-17.007,7.629-17.007,17.006c0,9.377,7.629,17.006,17.007,17.006
							c9.377,0,17.006-7.629,17.006-17.006C116.313,196.141,108.684,188.512,99.307,188.512z M99.307,217.524
							c-6.62,0-12.007-5.386-12.007-12.006s5.387-12.006,12.007-12.006s12.006,5.386,12.006,12.006S105.927,217.524,99.307,217.524z
							"/>
					</g>
				</g>
			</g>
		</g>
		<g>
			<g>
				<g>
					<g>
						<path d="M185.517,240.195L185.517,240.195c-1.896-11.033-10.487-19.778-21.378-21.762c-5.168-0.941-10.604-0.941-15.771,0
							c-11.553,2.105-20.236,11.435-21.608,23.219c-0.096,0.828-0.106,1.627-0.106,2.156v6.864c0,2.938,2.39,5.328,5.327,5.328
							h48.43c2.938,0,5.328-2.39,5.328-5.328v-7.498C185.737,242.02,185.667,241.073,185.517,240.195z M180.737,250.672
							c0,0.181-0.147,0.328-0.328,0.328h-48.43c-0.181,0-0.327-0.147-0.327-0.328v-6.864c0-0.654,0.022-1.143,0.073-1.582
							c1.115-9.581,8.164-17.167,17.538-18.875c2.289-0.417,4.641-0.628,6.989-0.628s4.7,0.211,6.989,0.628
							c8.833,1.609,15.804,8.718,17.347,17.688c0.102,0.592,0.148,1.27,0.148,2.134V250.672z"/>
					</g>
				</g>
			</g>
		</g>
		<g>
			<g>
				<g>
					<g>
						<path d="M155.695,188.512c-9.377,0-17.006,7.629-17.006,17.006c0,9.377,7.629,17.006,17.006,17.006
							s17.006-7.629,17.006-17.006C172.701,196.141,165.072,188.512,155.695,188.512z M155.695,217.524
							c-6.62,0-12.006-5.386-12.006-12.006s5.386-12.006,12.006-12.006s12.006,5.386,12.006,12.006S162.315,217.524,155.695,217.524
							z"/>
					</g>
				</g>
			</g>
		</g>
		<g>
			<g>
				<g>
					<g>
						<path d="M241.905,240.195L241.905,240.195c-1.896-11.033-10.487-19.778-21.377-21.762c-5.169-0.941-10.602-0.942-15.772,0
							c-11.553,2.105-20.236,11.435-21.607,23.215c-0.074,0.638-0.107,1.305-0.107,2.16v6.864c0,2.938,2.39,5.328,5.327,5.328h48.43
							c2.938,0,5.328-2.39,5.328-5.328v-7.498C242.126,242.02,242.056,241.073,241.905,240.195z M237.126,250.672
							c0,0.181-0.147,0.328-0.328,0.328h-48.43c-0.181,0-0.327-0.147-0.327-0.328v-6.864c0-0.655,0.022-1.142,0.074-1.582
							c1.115-9.582,8.162-17.167,17.537-18.875c2.29-0.417,4.642-0.628,6.989-0.628c2.349,0,4.7,0.211,6.99,0.628
							c8.832,1.609,15.803,8.718,17.346,17.688c0.102,0.592,0.148,1.27,0.148,2.134V250.672z"/>
					</g>
				</g>
			</g>
		</g>
		<g>
			<g>
				<g>
					<g>
						<path d="M212.084,188.512c-9.377,0-17.006,7.629-17.006,17.006c0,9.377,7.629,17.006,17.006,17.006
							s17.006-7.629,17.006-17.006C229.09,196.141,221.461,188.512,212.084,188.512z M212.084,217.524
							c-6.62,0-12.006-5.386-12.006-12.006s5.386-12.006,12.006-12.006s12.006,5.386,12.006,12.006S218.704,217.524,212.084,217.524
							z"/>
					</g>
				</g>
			</g>
		</g>
		<g>
			<g>
				<path d="M177.591,110.263c-0.283-5.068-3.78-9.306-8.702-10.545l-12.396-3.12c-5.983-1.506-10.797-4.07-11.051-4.207
					c-0.041-0.023-0.083-0.045-0.125-0.066c-1.861-0.917-3.018-2.777-3.018-4.853v-3.14c0-1.381-1.119-2.5-2.5-2.5
					s-2.5,1.119-2.5,2.5v3.14c0,3.948,2.175,7.49,5.686,9.276c0.691,0.433,1.799,0.938,3.622,1.726
					c2.001,0.864,5.129,2.081,8.665,2.971l12.396,3.12c2.768,0.697,4.74,3.067,4.927,5.911v11.951c0,1.381,1.119,2.5,2.5,2.5
					s2.5-1.119,2.5-2.5v-12.026C177.595,110.356,177.594,110.309,177.591,110.263z"/>
			</g>
		</g>
		<g>
			<g>
				<path d="M118.701,81.833c-1.381,0-2.5,1.119-2.5,2.5v3.14c0,2.075-1.156,3.935-3.018,4.853
					c-3.309,1.631-6.434,3.079-11.176,4.272l-12.396,3.12c-4.923,1.239-8.42,5.477-8.702,10.545
					c-0.003,0.046-0.004,0.093-0.004,0.139v12.026c0,1.381,1.119,2.5,2.5,2.5s2.5-1.119,2.5-2.5v-11.951
					c0.186-2.843,2.158-5.214,4.927-5.911l12.396-3.12c5.218-1.313,8.597-2.877,12.166-4.637c3.582-1.766,5.807-5.344,5.807-9.337
					v-3.14C121.201,82.952,120.082,81.833,118.701,81.833z"/>
			</g>
		</g>
		<g>
			<g>
				<g>
					<g>
						<path d="M150.686,34.335c-2.386-2.502-6.25-2.767-8.992-0.616c-2.442,1.917-6.579,4.203-12.418,4.203
							c-5.854,0-10.015-2.295-12.475-4.22c-2.735-2.141-6.596-1.872-8.987,0.634c-2.554,2.679-3.961,6.193-3.961,9.896v19.217
							c0,14.004,11.394,25.397,25.397,25.397s25.397-11.393,25.397-25.397V44.23C154.647,40.529,153.24,37.015,150.686,34.335z
							 M149.647,63.447c0,11.247-9.15,20.397-20.397,20.397s-20.397-9.15-20.397-20.397V44.23c0-2.411,0.916-4.7,2.587-6.453
							c0.325-0.34,0.762-0.514,1.205-0.514c0.374,0,0.754,0.124,1.074,0.375c3.08,2.41,8.278,5.283,15.557,5.283
							c7.268,0,12.443-2.866,15.505-5.27c0.705-0.553,1.688-0.495,2.286,0.134c1.664,1.745,2.581,4.034,2.581,6.445V63.447z"/>
					</g>
				</g>
			</g>
		</g>
		<g>
			<g>
				<path d="M153.616,43.496c-1.381,0-2.5,1.119-2.5,2.5s1.119,2.5,2.5,2.5c3.894,0,7.061,3.167,7.061,7.06s-3.167,7.06-7.061,7.06
					c-1.381,0-2.5,1.119-2.5,2.5s1.119,2.5,2.5,2.5c6.65,0,12.061-5.41,12.061-12.06S160.267,43.496,153.616,43.496z"/>
			</g>
		</g>
		<g>
			<g>
				<path d="M104.883,62.616c-3.893,0-7.06-3.167-7.06-7.06s3.167-7.06,7.06-7.06c1.381,0,2.5-1.119,2.5-2.5s-1.119-2.5-2.5-2.5
					c-6.649,0-12.06,5.41-12.06,12.06s5.41,12.06,12.06,12.06c1.381,0,2.5-1.119,2.5-2.5S106.264,62.616,104.883,62.616z"/>
			</g>
		</g>
		<g>
			<g>
				<path d="M153.077,24.028c-0.29-4.195-1.99-7.61-5.063-10.161c-7.416-6.16-20.146-5.072-27.076-3.875
					c-13.54,2.338-23.368,14.004-23.368,27.74v9.143c0,1.381,1.119,2.5,2.5,2.5s2.5-1.119,2.5-2.5v-9.143
					c0-11.295,8.083-20.89,19.22-22.813c10.346-1.786,18.741-0.768,23.031,2.794c2.176,1.808,3.255,4.237,3.299,7.424
					c0.027,2.11,1.795,3.826,3.941,3.826c2.453,0,3.918,3.93,3.918,10.512v7.42c0,1.381,1.119,2.5,2.5,2.5s2.5-1.119,2.5-2.5v-7.42
					C160.979,27.276,156.414,24.458,153.077,24.028z"/>
			</g>
		</g>
		<g>
			<g>
				<path d="M127.109,103.101l-7.617-11.72c-0.752-1.158-2.301-1.484-3.458-0.734c-1.158,0.752-1.486,2.301-0.733,3.458
					l7.617,11.721c0.077,0.119,0.043,0.279-0.076,0.356l-5.726,3.721c-0.118,0.077-0.279,0.043-0.355-0.076l-7.978-12.275
					c-0.753-1.158-2.301-1.486-3.459-0.734c-1.157,0.752-1.486,2.301-0.734,3.458l7.979,12.276c1.006,1.548,2.694,2.391,4.416,2.391
					c0.981,0,1.974-0.274,2.856-0.848l5.727-3.721C127.997,108.793,128.689,105.53,127.109,103.101z"/>
			</g>
		</g>
		<g>
			<g>
				<path d="M153.29,96.641c-1.155-0.751-2.705-0.424-3.459,0.734l-8.091,12.451c-0.078,0.119-0.239,0.153-0.357,0.076l-5.725-3.721
					c-0.06-0.039-0.097-0.093-0.112-0.163c-0.015-0.069-0.002-0.134,0.037-0.194l7.576-11.659c0.752-1.158,0.423-2.706-0.734-3.458
					c-1.156-0.75-2.705-0.424-3.459,0.734l-7.575,11.658c-0.766,1.178-1.027,2.583-0.735,3.957c0.292,1.374,1.101,2.552,2.278,3.317
					l5.726,3.721c0.882,0.573,1.874,0.847,2.855,0.847c1.722,0,3.411-0.843,4.418-2.391l8.092-12.452
					C154.776,98.942,154.447,97.394,153.29,96.641z"/>
			</g>
		</g>
		<g>
			<g>
				<path d="M132,103.543h-5.845c-1.381,0-2.5,1.119-2.5,2.5s1.119,2.5,2.5,2.5H132c1.381,0,2.5-1.119,2.5-2.5
					S133.381,103.543,132,103.543z"/>
			</g>
		</g>
	</g>
</g>
<g id="Layer_6">
</g>
<g id="Layer_7">
</g>
<g id="Layer_8">
</g>
<g id="Layer_9">
</g>
<g id="Layer_10">
</g>
<g id="Layer_11">
</g>
<g id="Layer_12">
</g>
<g id="Layer_13">
</g>
<g id="Layer_14">
</g>
<g id="Layer_15">
</g>
<g id="Layer_16">
</g>
<g id="Layer_17">
</g>
<g id="Layer_18">
</g>
<g id="Layer_19">
</g>
<g id="Layer_20">
</g>
<g id="Layer_21">
</g>
<g id="Layer_22">
</g>
<g id="Layer_23">
</g>
<g id="Layer_24">
</g>
<g id="Layer_25">
</g>
<g id="Layer_26">
</g>
<g id="Layer_27">
</g>
<g id="Layer_28">
</g>
<g id="Layer_29">
</g>
<g id="Layer_30">
</g>
<g id="Layer_31">
</g>
<g id="Layer_32">
</g>
<g id="Layer_33">
</g>
<g id="Layer_34">
</g>
<g id="Layer_35">
</g>
<g id="Layer_36">
</g>
<g id="Layer_37">
</g>
<g id="Layer_38">
</g>
<g id="Layer_39">
</g>
<g id="Layer_40">
</g>
<g id="Layer_41">
</g>
<g id="Layer_42">
</g>
<g id="Layer_43">
</g>
<g id="Layer_44">
</g>
<g id="Layer_45">
</g>
<g id="Layer_46">
</g>
<g id="Layer_47">
</g>
<g id="Layer_48">
</g>
<g id="Layer_49">
</g>
<g id="Layer_50">
</g>
<g id="Layer_51">
</g>
<g id="Layer_52">
</g>
<g id="Layer_53">
</g>
<g id="Layer_54">
</g>
<g id="Layer_55">
</g>
<g id="Layer_56">
</g>
<g id="Layer_57">
</g>
<g id="Layer_58">
</g>
<g id="Layer_59">
</g>
<g id="Layer_60">
</g>
<g id="Layer_61">
</g>
<g id="Layer_62">
</g>
<g id="Layer_63">
</g>
<g id="Layer_64">
</g>
<g id="Layer_65">
</g>
<g id="Layer_66">
</g>
<g id="Layer_67">
</g>
<g id="Layer_68">
</g>
<g id="Layer_69">
</g>
<g id="Layer_70">
</g>
<g id="Layer_71">
</g>
<g id="Layer_72">
</g>
<g id="Layer_73">
</g>
<g id="Layer_74">
</g>
<g id="Layer_75">
</g>
<g id="Layer_76">
</g>
<g id="Layer_77">
</g>
<g id="Layer_78">
</g>
<g id="Layer_79">
</g>
<g id="Layer_80">
</g>
</svg>
