<?xml version="1.0" encoding="utf-8"?>
<!-- Generator: Adobe Illustrator 24.0.0, SVG Export Plug-In . SVG Version: 6.00 Build 0)  -->
<svg version="1.1" xmlns="http://www.w3.org/2000/svg" xmlns:xlink="http://www.w3.org/1999/xlink" x="0px" y="0px"
	 viewBox="0 0 256 256" enable-background="new 0 0 256 256" xml:space="preserve">
<g id="Layer_1">
</g>
<g id="Layer_2">
</g>
<g id="Layer_3">
</g>
<g id="Layer_4">
</g>
<g id="Layer_5">
</g>
<g id="Layer_6">
	<g>
		<g>
			<g>
				<path fill="#5290DB" d="M82.172,69.784c-2.261-0.412-4.591-0.627-6.972-0.627c-2.38,0-4.71,0.215-6.971,0.627
					c-8.973,1.635-15.882,8.518-17.892,17.205c6.496,1.003,11.476,6.589,11.507,13.359h25.667
					c0.032-7.116,5.53-12.929,12.512-13.481C97.979,78.238,91.102,71.41,82.172,69.784z"/>
			</g>
		</g>
		<g>
			<g>
				<circle fill="#F9D0B4" cx="74.678" cy="55.373" r="13.597"/>
			</g>
		</g>
		<g>
			<g>
				<path fill="#F5C84C" d="M135.026,69.784c-2.261-0.412-4.591-0.627-6.971-0.627c-2.38,0-4.71,0.215-6.971,0.627
					c-8.973,1.635-15.882,8.518-17.892,17.205c6.496,1.003,11.477,6.589,11.507,13.359h25.667
					c0.032-7.116,5.53-12.929,12.512-13.481C150.833,78.238,143.956,71.41,135.026,69.784z"/>
			</g>
		</g>
		<g>
			<g>
				
					<ellipse transform="matrix(0.9732 -0.2298 0.2298 0.9732 -9.3105 30.7822)" fill="#F9D0B4" cx="127.532" cy="55.373" rx="13.597" ry="13.597"/>
			</g>
		</g>
		<g>
			<g>
				<path fill="#F98FA6" d="M187.881,69.784c-2.261-0.412-4.591-0.627-6.971-0.627c-2.38,0-4.71,0.215-6.971,0.627
					c-8.973,1.635-15.882,8.518-17.892,17.205c6.496,1.003,11.477,6.589,11.507,13.359h25.667
					c0.032-7.116,5.53-12.929,12.512-13.481C203.687,78.238,196.81,71.41,187.881,69.784z"/>
			</g>
		</g>
		<g>
			<g>
				
					<ellipse transform="matrix(0.9732 -0.2298 0.2298 0.9732 -7.8966 42.9256)" fill="#F9D0B4" cx="180.386" cy="55.373" rx="13.597" ry="13.597"/>
			</g>
		</g>
		<g>
			<g>
				<path fill="#70D6F9" d="M73.893,133.307c-1.596-9.287-8.737-16.774-18.148-18.488c-2.261-0.412-4.591-0.627-6.971-0.627
					c-2.38,0-4.71,0.215-6.971,0.627c-9.827,1.79-17.198,9.869-18.346,19.725c-0.068,0.581-0.085,1.169-0.085,1.754v6.434
					c0,1.464,1.187,2.65,2.65,2.65h45.394c1.464,0,2.65-1.187,2.65-2.65v-7.028C74.066,134.902,74.029,134.098,73.893,133.307z"/>
			</g>
		</g>
		<g>
			<g>
				
					<ellipse transform="matrix(0.9871 -0.1602 0.1602 0.9871 -15.4606 9.0255)" fill="#F9D0B4" cx="48.251" cy="100.408" rx="13.597" ry="13.597"/>
			</g>
		</g>
		<g>
			<g>
				<path fill="#87D147" d="M126.747,133.307c-1.596-9.287-8.737-16.774-18.148-18.488c-2.261-0.412-4.591-0.627-6.971-0.627
					c-2.38,0-4.71,0.215-6.971,0.627c-9.827,1.79-17.198,9.869-18.346,19.725c-0.068,0.581-0.085,1.169-0.085,1.754v6.434
					c0,1.464,1.187,2.65,2.65,2.65h38.901v-2.058c0-1.471,1.192-2.663,2.663-2.663h6.48v-4.957
					C126.92,134.902,126.883,134.098,126.747,133.307z"/>
			</g>
		</g>
		<g>
			<g>
				
					<ellipse transform="matrix(0.9871 -0.1602 0.1602 0.9871 -14.7781 17.4918)" fill="#F9D0B4" cx="101.105" cy="100.408" rx="13.597" ry="13.597"/>
			</g>
		</g>
		<g>
			<g>
				<path fill="#B598F9" d="M179.601,133.307c-1.596-9.287-8.738-16.774-18.148-18.488c-2.261-0.412-4.591-0.627-6.971-0.627
					c-2.38,0-4.71,0.215-6.971,0.627c-9.827,1.79-17.198,9.869-18.346,19.725c-0.068,0.581-0.085,1.169-0.085,1.754v4.363h5.565
					c1.471,0,2.663,1.192,2.663,2.663v2.058h39.816c1.464,0,2.65-1.187,2.65-2.65v-7.028
					C179.774,134.902,179.737,134.098,179.601,133.307z"/>
			</g>
		</g>
		<g>
			<g>
				<circle fill="#F9D0B4" cx="153.959" cy="100.408" r="13.597"/>
			</g>
		</g>
		<g>
			<g>
				<path fill="#FCA265" d="M232.456,133.307c-1.596-9.287-8.738-16.774-18.148-18.488c-2.261-0.412-4.591-0.627-6.971-0.627
					s-4.71,0.215-6.971,0.627c-9.827,1.79-17.198,9.869-18.346,19.725c-0.068,0.581-0.085,1.169-0.085,1.754v6.434
					c0,1.464,1.187,2.65,2.65,2.65h45.394c1.464,0,2.65-1.187,2.65-2.65v-7.028C232.629,134.902,232.591,134.098,232.456,133.307z"
					/>
			</g>
		</g>
		<g>
			<g>
				<circle fill="#F9D0B4" cx="206.813" cy="100.408" r="13.597"/>
			</g>
		</g>
		<g>
			<g>
				<g>
					<g>
						<path fill="#DAE6F1" d="M172.485,178.502h-12.188c-0.676-2.272-1.576-4.447-2.685-6.494l8.615-8.615
							c1.04-1.04,1.04-2.726,0-3.766l-10.044-10.044c-1.04-1.04-2.726-1.04-3.766,0l-8.615,8.615
							c-2.047-1.109-4.222-2.009-6.494-2.685v-12.188c0-1.471-1.192-2.663-2.663-2.663H120.44c-1.471,0-2.663,1.192-2.663,2.663
							v12.188c-2.272,0.676-4.447,1.576-6.494,2.685l-8.615-8.615c-1.04-1.04-2.726-1.04-3.766,0l-10.044,10.044
							c-1.04,1.04-1.04,2.726,0,3.766l8.615,8.615c-1.109,2.047-2.009,4.222-2.685,6.494H82.599c-1.471,0-2.663,1.192-2.663,2.663
							v14.205c0,1.471,1.192,2.663,2.663,2.663h12.188c0.676,2.272,1.576,4.447,2.685,6.494l-8.615,8.615
							c-1.04,1.04-1.04,2.726,0,3.766l10.044,10.044c1.04,1.04,2.726,1.04,3.766,0l8.615-8.615c2.047,1.109,4.222,2.009,6.494,2.685
							v12.188c0,1.471,1.192,2.663,2.663,2.663h14.204c1.471,0,2.663-1.192,2.663-2.663v-12.188
							c2.272-0.676,4.447-1.576,6.494-2.685l8.615,8.615c1.04,1.04,2.726,1.04,3.766,0l10.044-10.044c1.04-1.04,1.04-2.726,0-3.766
							l-8.615-8.615c1.109-2.047,2.009-4.222,2.685-6.494h12.188c1.471,0,2.663-1.192,2.663-2.663v-14.205
							C175.148,179.694,173.956,178.502,172.485,178.502z M127.542,206.272c-9.944,0-18.005-8.061-18.005-18.005
							c0-9.944,8.061-18.005,18.005-18.005s18.005,8.061,18.005,18.005C145.547,198.211,137.486,206.272,127.542,206.272z"/>
					</g>
				</g>
			</g>
		</g>
		<g>
			<g>
				<path fill="#70D6F9" d="M235.906,175.727h-2.4v-2.3c0-1.8-1.4-3.2-3.2-3.2c-1.7,0-3.2,1.4-3.2,3.1v2.4h-2.3
					c-1.8,0-3.2,1.4-3.2,3.2c-0.1,1.7,1.3,3.2,3.2,3.2h2.3v2.3c0,1.8,1.4,3.2,3.2,3.2c1.7,0,3.2-1.4,3.2-3.1v-2.4h2.3
					c1.8,0,3.2-1.4,3.2-3.2C239.006,177.227,237.606,175.727,235.906,175.727z"/>
			</g>
		</g>
		<g>
			<g>
				<path fill="#F5C84C" d="M252.6,153.127c-1.878,0-3.4,1.522-3.4,3.4c0,1.878,1.522,3.4,3.4,3.4c1.878,0,3.4-1.522,3.4-3.4
					C256,154.649,254.478,153.127,252.6,153.127z"/>
			</g>
		</g>
		<g>
			<g>
				<path fill="#FC657E" d="M162.15,23.802c-3.1-0.6-5.6-3-6.2-6.1c0-0.1-0.3-0.1-0.3,0c-0.6,3.1-3.1,5.5-6.2,6.1
					c-0.1,0-0.1,0.2,0,0.3c3.1,0.6,5.6,3,6.2,6.1c0,0.1,0.3,0.1,0.3,0c0.6-3.1,3.1-5.5,6.2-6.1
					C162.25,24.002,162.25,23.802,162.15,23.802z"/>
			</g>
		</g>
		<g>
			<g>
				<path fill="#87D147" d="M3.4,94.627c-1.878,0-3.4,1.522-3.4,3.4c0,1.878,1.522,3.4,3.4,3.4s3.4-1.522,3.4-3.4
					C6.8,96.149,5.278,94.627,3.4,94.627z"/>
			</g>
		</g>
		<g>
			<g>
				<path fill="#F5C84C" d="M32.15,66.827c-4.5-0.8-8-4.3-8.9-8.7c0-0.2-0.4-0.2-0.4,0c-0.9,4.4-4.4,7.9-8.9,8.7
					c-0.2,0-0.2,0.3,0,0.4c4.5,0.8,8,4.3,8.9,8.7c0,0.2,0.4,0.2,0.4,0c0.9-4.4,4.4-7.9,8.9-8.7
					C32.35,67.127,32.35,66.827,32.15,66.827z"/>
			</g>
		</g>
		<g>
			<g>
				<path d="M86.333,97.847H62.792c-1.381,0-2.5,1.119-2.5,2.5s1.119,2.5,2.5,2.5h23.541c1.381,0,2.5-1.119,2.5-2.5
					S87.714,97.847,86.333,97.847z"/>
			</g>
		</g>
		<g>
			<g>
				<path d="M102.306,85.69c-2.476-9.429-10.203-16.639-19.685-18.366c-4.864-0.887-9.975-0.887-14.839,0
					c-9.537,1.737-17.281,8.992-19.729,18.481c-0.345,1.337,0.459,2.701,1.796,3.045c0.209,0.054,0.419,0.08,0.626,0.08
					c1.113,0,2.128-0.749,2.419-1.876c1.962-7.609,8.157-13.422,15.783-14.812c4.274-0.779,8.774-0.779,13.046,0
					c7.58,1.381,13.761,7.158,15.746,14.717c0.351,1.336,1.72,2.137,3.053,1.783C101.858,88.393,102.656,87.026,102.306,85.69z"/>
			</g>
		</g>
		<g>
			<g>
				<g>
					<g>
						<path d="M74.678,39.276c-8.876,0-16.097,7.221-16.097,16.097S65.802,71.47,74.678,71.47s16.097-7.221,16.097-16.097
							S83.554,39.276,74.678,39.276z M74.678,66.47c-6.119,0-11.097-4.978-11.097-11.097c0-6.119,4.978-11.097,11.097-11.097
							s11.097,4.978,11.097,11.097C85.774,61.492,80.796,66.47,74.678,66.47z"/>
					</g>
				</g>
			</g>
		</g>
		<g>
			<g>
				<path d="M139.854,97.847h-24.312c-1.381,0-2.5,1.119-2.5,2.5s1.119,2.5,2.5,2.5h24.312c1.381,0,2.5-1.119,2.5-2.5
					S141.235,97.847,139.854,97.847z"/>
			</g>
		</g>
		<g>
			<g>
				<path d="M155.217,85.911c-2.417-9.546-10.166-16.842-19.742-18.586c-2.432-0.443-4.928-0.668-7.42-0.668
					c-2.491,0-4.988,0.225-7.419,0.668c-9.565,1.743-17.315,9.023-19.744,18.547c-0.341,1.338,0.467,2.699,1.805,3.04
					c1.334,0.339,2.699-0.466,3.04-1.805c1.947-7.636,8.147-13.471,15.796-14.864c4.274-0.779,8.774-0.779,13.046,0
					c7.656,1.395,13.854,7.241,15.792,14.894c0.287,1.133,1.304,1.887,2.421,1.887c0.203,0,0.41-0.025,0.615-0.077
					C154.746,88.609,155.556,87.249,155.217,85.911z"/>
			</g>
		</g>
		<g>
			<g>
				<g>
					<g>
						<path d="M127.532,39.276c-8.876,0-16.097,7.221-16.097,16.097s7.221,16.097,16.097,16.097s16.097-7.221,16.097-16.097
							S136.408,39.276,127.532,39.276z M127.532,66.47c-6.119,0-11.097-4.978-11.097-11.097c0-6.119,4.978-11.097,11.097-11.097
							c6.119,0,11.097,4.978,11.097,11.097C138.629,61.492,133.651,66.47,127.532,66.47z"/>
					</g>
				</g>
			</g>
		</g>
		<g>
			<g>
				<path d="M192.292,97.847H168.75c-1.381,0-2.5,1.119-2.5,2.5s1.119,2.5,2.5,2.5h23.542c1.381,0,2.5-1.119,2.5-2.5
					S193.673,97.847,192.292,97.847z"/>
			</g>
		</g>
		<g>
			<g>
				<path d="M208.004,85.652c-2.487-9.409-10.21-16.604-19.676-18.328c-2.432-0.443-4.928-0.668-7.419-0.668
					c-2.492,0-4.988,0.225-7.419,0.668c-9.582,1.746-17.336,9.041-19.754,18.586c-0.339,1.338,0.471,2.698,1.81,3.037
					c0.206,0.052,0.412,0.077,0.616,0.077c1.117,0,2.135-0.754,2.421-1.887c1.939-7.652,8.142-13.499,15.804-14.895
					c4.273-0.779,8.772-0.779,13.046,0c7.567,1.378,13.745,7.143,15.738,14.686c0.353,1.335,1.722,2.13,3.056,1.778
					C207.561,88.354,208.357,86.986,208.004,85.652z"/>
			</g>
		</g>
		<g>
			<g>
				<g>
					<g>
						<path d="M180.386,39.276c-8.876,0-16.097,7.221-16.097,16.097s7.221,16.097,16.097,16.097s16.097-7.221,16.097-16.097
							S189.262,39.276,180.386,39.276z M180.386,66.47c-6.119,0-11.097-4.978-11.097-11.097c0-6.119,4.978-11.097,11.097-11.097
							s11.097,4.978,11.097,11.097C191.483,61.492,186.505,66.47,180.386,66.47z"/>
					</g>
				</g>
			</g>
		</g>
		<g>
			<g>
				<g>
					<g>
						<path d="M76.357,132.884c-1.788-10.405-9.891-18.653-20.164-20.524c-4.865-0.887-9.976-0.886-14.839,0
							c-10.896,1.985-19.087,10.784-20.38,21.895c-0.071,0.603-0.102,1.233-0.102,2.044v6.434c0,2.84,2.31,5.15,5.15,5.15h45.394
							c2.84,0,5.15-2.311,5.15-5.15v-7.028C76.566,134.61,76.5,133.714,76.357,132.884z M71.566,142.732
							c0,0.083-0.067,0.15-0.15,0.15H26.021c-0.083,0-0.15-0.067-0.15-0.15v-6.434c0-0.609,0.021-1.061,0.068-1.465
							c1.038-8.912,7.592-15.966,16.311-17.555c2.137-0.39,4.332-0.587,6.523-0.587c2.191,0,4.386,0.197,6.523,0.587
							c8.216,1.497,14.699,8.108,16.132,16.452c0.093,0.543,0.137,1.17,0.137,1.973V142.732z"/>
					</g>
				</g>
			</g>
		</g>
		<g>
			<g>
				<g>
					<g>
						<path d="M48.251,84.312c-8.876,0-16.097,7.221-16.097,16.097s7.221,16.097,16.097,16.097s16.097-7.221,16.097-16.097
							S57.127,84.312,48.251,84.312z M48.251,111.505c-6.119,0-11.097-4.978-11.097-11.097c0-6.119,4.978-11.097,11.097-11.097
							c6.119,0,11.097,4.978,11.097,11.097C59.348,106.527,54.37,111.505,48.251,111.505z"/>
					</g>
				</g>
			</g>
		</g>
		<g>
			<g>
				<path d="M129.211,132.884c-1.788-10.405-9.891-18.653-20.164-20.525c-4.865-0.886-9.972-0.886-14.838,0
					c-10.897,1.985-19.087,10.785-20.381,21.897c-0.091,0.786-0.102,1.542-0.102,2.042v6.434c0,2.84,2.311,5.15,5.15,5.15h37.688
					c1.381,0,2.5-1.119,2.5-2.5s-1.119-2.5-2.5-2.5H78.876c-0.083,0-0.15-0.067-0.15-0.15v-6.434c0-0.606,0.021-1.059,0.068-1.465
					c1.038-8.912,7.592-15.967,16.311-17.555c4.276-0.778,8.771-0.778,13.046,0c8.216,1.497,14.699,8.109,16.132,16.454
					c0.094,0.542,0.137,1.168,0.137,1.972v3.859c0,1.381,1.119,2.5,2.5,2.5s2.5-1.119,2.5-2.5v-3.859
					C129.42,134.609,129.354,133.712,129.211,132.884z"/>
			</g>
		</g>
		<g>
			<g>
				<g>
					<g>
						<path d="M101.105,84.312c-8.876,0-16.097,7.221-16.097,16.097s7.221,16.097,16.097,16.097s16.097-7.221,16.097-16.097
							S109.981,84.312,101.105,84.312z M101.105,111.505c-6.119,0-11.097-4.978-11.097-11.097c0-6.119,4.978-11.097,11.097-11.097
							s11.097,4.978,11.097,11.097C112.202,106.527,107.224,111.505,101.105,111.505z"/>
					</g>
				</g>
			</g>
		</g>
		<g>
			<g>
				<path d="M182.065,132.884c-1.788-10.405-9.891-18.653-20.164-20.525c-4.865-0.886-9.973-0.886-14.839,0
					c-10.896,1.985-19.087,10.785-20.381,21.897c-0.091,0.786-0.102,1.542-0.102,2.042v3.452c0,1.381,1.119,2.5,2.5,2.5
					s2.5-1.119,2.5-2.5v-3.452c0-0.606,0.021-1.059,0.068-1.465c1.038-8.912,7.593-15.967,16.311-17.555
					c4.277-0.778,8.772-0.778,13.047,0c8.215,1.497,14.698,8.109,16.132,16.453c0.093,0.543,0.137,1.17,0.137,1.973v7.028
					c0,0.083-0.067,0.15-0.15,0.15H138.25c-1.381,0-2.5,1.119-2.5,2.5s1.119,2.5,2.5,2.5h38.874c2.84,0,5.15-2.311,5.15-5.15v-7.028
					C182.274,134.61,182.208,133.714,182.065,132.884z"/>
			</g>
		</g>
		<g>
			<g>
				<g>
					<g>
						<path d="M153.959,84.312c-8.876,0-16.097,7.221-16.097,16.097s7.221,16.097,16.097,16.097s16.097-7.221,16.097-16.097
							S162.835,84.312,153.959,84.312z M153.959,111.505c-6.119,0-11.097-4.978-11.097-11.097c0-6.119,4.978-11.097,11.097-11.097
							s11.097,4.978,11.097,11.097C165.056,106.527,160.078,111.505,153.959,111.505z"/>
					</g>
				</g>
			</g>
		</g>
		<g>
			<g>
				<g>
					<g>
						<path d="M234.919,132.884c-1.788-10.405-9.891-18.653-20.164-20.524c-4.865-0.887-9.976-0.886-14.839,0
							c-10.896,1.985-19.087,10.784-20.38,21.895c-0.071,0.603-0.102,1.233-0.102,2.044v6.434c0,2.84,2.31,5.15,5.15,5.15h45.394
							c2.84,0,5.15-2.311,5.15-5.15v-7.028C235.128,134.61,235.062,133.714,234.919,132.884z M230.128,142.732
							c0,0.083-0.067,0.15-0.15,0.15h-45.394c-0.083,0-0.15-0.067-0.15-0.15v-6.434c0-0.609,0.021-1.061,0.068-1.465
							c1.038-8.912,7.592-15.966,16.311-17.555c2.137-0.39,4.332-0.587,6.523-0.587c2.191,0,4.386,0.197,6.523,0.587
							c8.216,1.497,14.699,8.108,16.132,16.452c0.093,0.543,0.137,1.17,0.137,1.973V142.732z"/>
					</g>
				</g>
			</g>
		</g>
		<g>
			<g>
				<g>
					<g>
						<path d="M206.813,84.312c-8.876,0-16.097,7.221-16.097,16.097s7.221,16.097,16.097,16.097s16.097-7.221,16.097-16.097
							S215.689,84.312,206.813,84.312z M206.813,111.505c-6.119,0-11.097-4.978-11.097-11.097c0-6.119,4.978-11.097,11.097-11.097
							c6.119,0,11.097,4.978,11.097,11.097C217.91,106.527,212.932,111.505,206.813,111.505z"/>
					</g>
				</g>
			</g>
		</g>
		<g>
			<g>
				<g>
					<g>
						<path d="M127.542,167.763c-11.307,0-20.505,9.198-20.505,20.504c0,11.307,9.198,20.505,20.505,20.505
							c11.306,0,20.504-9.198,20.504-20.505C148.047,176.961,138.849,167.763,127.542,167.763z M127.542,203.772
							c-8.549,0-15.505-6.956-15.505-15.505s6.956-15.504,15.505-15.504s15.504,6.955,15.504,15.504
							S136.092,203.772,127.542,203.772z M172.485,176.002h-10.373c-0.424-1.198-0.908-2.37-1.45-3.509l7.332-7.333
							c2.013-2.013,2.013-5.289,0-7.301l-10.044-10.044c-2.013-2.014-5.289-2.013-7.301,0l-7.333,7.332
							c-1.139-0.542-2.311-1.026-3.509-1.45v-10.373c0-2.847-2.316-5.163-5.163-5.163H120.44c-2.847,0-5.163,2.316-5.163,5.163
							v10.373c-1.198,0.424-2.371,0.909-3.509,1.45l-7.333-7.332c-2.012-2.013-5.288-2.014-7.301,0L87.09,157.859
							c-2.013,2.013-2.013,5.289,0,7.301l7.332,7.333c-0.542,1.139-1.026,2.311-1.45,3.509H82.6c-2.847,0-5.163,2.316-5.163,5.163
							v14.205c0,2.847,2.316,5.163,5.163,5.163h10.373c0.424,1.198,0.908,2.37,1.45,3.509l-7.332,7.333
							c-2.013,2.013-2.013,5.289,0,7.301l10.044,10.044c2.013,2.014,5.289,2.014,7.301,0l7.333-7.332
							c1.138,0.541,2.311,1.026,3.509,1.45v10.373c0,2.847,2.316,5.163,5.163,5.163h14.205c2.847,0,5.163-2.316,5.163-5.163v-10.373
							c1.198-0.424,2.37-0.908,3.509-1.45l7.333,7.332c2.012,2.014,5.288,2.014,7.301,0l10.044-10.044
							c2.013-2.013,2.013-5.289,0-7.301l-7.332-7.333c0.542-1.139,1.026-2.311,1.45-3.509h10.373c2.847,0,5.163-2.316,5.163-5.163
							v-14.205C177.648,178.318,175.332,176.002,172.485,176.002z M172.648,195.37c0,0.09-0.073,0.163-0.163,0.163h-12.188
							c-1.106,0-2.081,0.727-2.396,1.787c-0.625,2.1-1.462,4.125-2.487,6.016c-0.527,0.973-0.353,2.177,0.43,2.959l8.615,8.615
							c0.063,0.064,0.063,0.167,0,0.231l-10.044,10.044c-0.064,0.064-0.168,0.063-0.231,0l-8.615-8.615
							c-0.782-0.782-1.984-0.958-2.959-0.43c-1.892,1.025-3.916,1.862-6.016,2.487c-1.06,0.315-1.787,1.29-1.787,2.396v12.188
							c0,0.09-0.073,0.163-0.163,0.163H120.44c-0.09,0-0.163-0.073-0.163-0.163v-12.188c0-1.106-0.727-2.081-1.787-2.396
							c-2.101-0.625-4.125-1.462-6.016-2.487c-0.375-0.204-0.784-0.302-1.19-0.302c-0.648,0-1.288,0.251-1.769,0.732l-8.615,8.615
							c-0.064,0.064-0.168,0.063-0.231,0L90.625,215.14c-0.063-0.064-0.063-0.167,0-0.231l8.615-8.615
							c0.783-0.782,0.958-1.986,0.43-2.959c-1.025-1.892-1.862-3.916-2.487-6.016c-0.315-1.06-1.29-1.787-2.396-1.787H82.6
							c-0.09,0-0.163-0.073-0.163-0.163v-14.205c0-0.09,0.073-0.163,0.163-0.163h12.188c1.106,0,2.081-0.727,2.396-1.787
							c0.625-2.1,1.462-4.125,2.487-6.016c0.527-0.973,0.353-2.177-0.43-2.959l-8.615-8.615c-0.063-0.064-0.063-0.167,0-0.231
							l10.044-10.044c0.063-0.063,0.167-0.064,0.231,0l8.615,8.615c0.783,0.782,1.986,0.959,2.959,0.43
							c1.891-1.025,3.916-1.862,6.016-2.487c1.06-0.315,1.787-1.29,1.787-2.396v-12.188c0-0.09,0.073-0.163,0.163-0.163h14.205
							c0.09,0,0.163,0.073,0.163,0.163v12.188c0,1.106,0.727,2.081,1.787,2.396c2.1,0.625,4.125,1.462,6.016,2.487
							c0.973,0.528,2.177,0.352,2.959-0.43l8.615-8.615c0.063-0.063,0.167-0.064,0.231,0l10.044,10.044
							c0.063,0.064,0.063,0.167,0,0.231l-8.615,8.615c-0.783,0.782-0.958,1.986-0.43,2.959c1.025,1.892,1.862,3.916,2.487,6.016
							c0.315,1.06,1.29,1.787,2.396,1.787h12.188c0.09,0,0.163,0.073,0.163,0.163V195.37z"/>
					</g>
				</g>
			</g>
		</g>
	</g>
</g>
<g id="Layer_7">
</g>
<g id="Layer_8">
</g>
<g id="Layer_9">
</g>
<g id="Layer_10">
</g>
<g id="Layer_11">
</g>
<g id="Layer_12">
</g>
<g id="Layer_13">
</g>
<g id="Layer_14">
</g>
<g id="Layer_15">
</g>
<g id="Layer_16">
</g>
<g id="Layer_17">
</g>
<g id="Layer_18">
</g>
<g id="Layer_19">
</g>
<g id="Layer_20">
</g>
<g id="Layer_21">
</g>
<g id="Layer_22">
</g>
<g id="Layer_23">
</g>
<g id="Layer_24">
</g>
<g id="Layer_25">
</g>
<g id="Layer_26">
</g>
<g id="Layer_27">
</g>
<g id="Layer_28">
</g>
<g id="Layer_29">
</g>
<g id="Layer_30">
</g>
<g id="Layer_31">
</g>
<g id="Layer_32">
</g>
<g id="Layer_33">
</g>
<g id="Layer_34">
</g>
<g id="Layer_35">
</g>
<g id="Layer_36">
</g>
<g id="Layer_37">
</g>
<g id="Layer_38">
</g>
<g id="Layer_39">
</g>
<g id="Layer_40">
</g>
<g id="Layer_41">
</g>
<g id="Layer_42">
</g>
<g id="Layer_43">
</g>
<g id="Layer_44">
</g>
<g id="Layer_45">
</g>
<g id="Layer_46">
</g>
<g id="Layer_47">
</g>
<g id="Layer_48">
</g>
<g id="Layer_49">
</g>
<g id="Layer_50">
</g>
<g id="Layer_51">
</g>
<g id="Layer_52">
</g>
<g id="Layer_53">
</g>
<g id="Layer_54">
</g>
<g id="Layer_55">
</g>
<g id="Layer_56">
</g>
<g id="Layer_57">
</g>
<g id="Layer_58">
</g>
<g id="Layer_59">
</g>
<g id="Layer_60">
</g>
<g id="Layer_61">
</g>
<g id="Layer_62">
</g>
<g id="Layer_63">
</g>
<g id="Layer_64">
</g>
<g id="Layer_65">
</g>
<g id="Layer_66">
</g>
<g id="Layer_67">
</g>
<g id="Layer_68">
</g>
<g id="Layer_69">
</g>
<g id="Layer_70">
</g>
<g id="Layer_71">
</g>
<g id="Layer_72">
</g>
<g id="Layer_73">
</g>
<g id="Layer_74">
</g>
<g id="Layer_75">
</g>
<g id="Layer_76">
</g>
<g id="Layer_77">
</g>
<g id="Layer_78">
</g>
<g id="Layer_79">
</g>
<g id="Layer_80">
</g>
</svg>
