<?xml version="1.0" encoding="utf-8"?>
<!-- Generator: Adobe Illustrator 24.0.0, SVG Export Plug-In . SVG Version: 6.00 Build 0)  -->
<svg version="1.1" xmlns="http://www.w3.org/2000/svg" xmlns:xlink="http://www.w3.org/1999/xlink" x="0px" y="0px"
	 viewBox="0 0 256 256" enable-background="new 0 0 256 256" xml:space="preserve">
<g id="Layer_1">
</g>
<g id="Layer_2">
</g>
<g id="Layer_3">
</g>
<g id="Layer_4">
</g>
<g id="Layer_5">
</g>
<g id="Layer_6">
</g>
<g id="Layer_7">
</g>
<g id="Layer_8">
</g>
<g id="Layer_9">
</g>
<g id="Layer_10">
</g>
<g id="Layer_11">
</g>
<g id="Layer_12">
</g>
<g id="Layer_13">
</g>
<g id="Layer_14">
</g>
<g id="Layer_15">
</g>
<g id="Layer_16">
</g>
<g id="Layer_17">
</g>
<g id="Layer_18">
</g>
<g id="Layer_19">
</g>
<g id="Layer_20">
</g>
<g id="Layer_21">
</g>
<g id="Layer_22">
</g>
<g id="Layer_23">
</g>
<g id="Layer_24">
</g>
<g id="Layer_25">
</g>
<g id="Layer_26">
</g>
<g id="Layer_27">
</g>
<g id="Layer_28">
</g>
<g id="Layer_29">
</g>
<g id="Layer_30">
</g>
<g id="Layer_31">
</g>
<g id="Layer_32">
</g>
<g id="Layer_33">
</g>
<g id="Layer_34">
</g>
<g id="Layer_35">
</g>
<g id="Layer_36">
	<g>
		<g>
			<g>
				<path fill="#F9D0B4" d="M156.733,38.352c-2.192-2.299-5.756-2.51-8.255-0.549c-3.951,3.101-10.787,6.934-20.442,6.934
					c-9.679,0-16.551-3.852-20.518-6.957c-2.497-1.954-6.053-1.735-8.241,0.56l-0.011,0.012c-3.074,3.224-4.789,7.507-4.789,11.961
					v28.134c0,18.437,15.085,33.522,33.522,33.522h0c18.437,0,33.522-15.085,33.522-33.522V50.313
					C161.522,45.859,159.807,41.576,156.733,38.352z"/>
			</g>
		</g>
		<g>
			<g>
				<path fill="#F9D0B4" d="M163.673,52.898c-0.732,0-1.45,0.062-2.151,0.171v25.378c0,0.756-0.035,1.504-0.084,2.248
					c0.73,0.118,1.473,0.195,2.236,0.195c7.73,0,13.996-6.266,13.996-13.996C177.669,59.165,171.403,52.898,163.673,52.898z"/>
			</g>
		</g>
		<g>
			<g>
				<path fill="#F9D0B4" d="M94.478,78.447V53.069c-0.702-0.109-1.419-0.171-2.151-0.171c-7.73,0-13.996,6.266-13.996,13.996
					c0,7.73,6.266,13.996,13.996,13.996c0.763,0,1.506-0.078,2.236-0.195v-0.001C94.512,79.95,94.478,79.203,94.478,78.447z"/>
			</g>
		</g>
		<g>
			<g>
				<path fill="#5B5D60" d="M161.397,24.304c-1.123,0-2.096-0.866-2.111-1.988c-0.257-18.68-21.588-22.188-42.831-18.52
					C98.445,6.905,85.281,22.523,85.281,40.8v14.015c2.071-1.211,4.473-1.917,7.045-1.917c0.732,0,1.449,0.062,2.151,0.171v-2.756
					c0-4.454,1.715-8.738,4.789-11.961l0.011-0.012c2.188-2.294,5.745-2.513,8.241-0.56c3.967,3.105,10.839,6.957,20.518,6.957
					c9.655,0,16.491-3.833,20.442-6.934c2.499-1.961,6.063-1.75,8.255,0.549c3.074,3.224,4.789,7.507,4.789,11.961v2.756
					c0.702-0.109,1.419-0.171,2.151-0.171c2.603,0,5.031,0.724,7.119,1.962V43.353C170.793,26.627,164.753,24.304,161.397,24.304z"
					/>
			</g>
		</g>
		<g>
			<g>
				<path fill="#DAE6F1" d="M144.652,144.592c-0.905,1.036-2.479,1.143-3.516,0.237l-7.511-6.561
					c-1.036-0.905-1.143-2.479-0.238-3.516l12.383-14.178c-1.48-1.97-2.328-4.396-2.328-6.954v-5.456
					c-4.63,2.424-9.882,3.804-15.444,3.804h0c-5.562,0-10.814-1.381-15.444-3.804v5.456c0,2.558-0.847,4.985-2.328,6.954
					l12.383,14.178c0.905,1.036,0.799,2.611-0.238,3.516l-7.511,6.561c-1.036,0.906-2.61,0.799-3.516-0.237l-6.923-7.926
					l8.487,52.911h30.176l8.487-52.911L144.652,144.592z"/>
			</g>
		</g>
		<g>
			<g>
				<path fill="#3A70BF" d="M102.52,124.795c-0.243-1.517-1.789-2.454-3.246-1.968l-21.919,7.307
					c-7.427,2.476-12.731,9.053-13.578,16.836l-4.027,37.037c-0.323,2.974,2.006,5.57,4.998,5.57h48.164L102.52,124.795z"/>
			</g>
		</g>
		<g>
			<g>
				<path fill="#3A70BF" d="M196.249,184.006l-4.027-37.038c-0.846-7.783-6.15-14.36-13.577-16.836l-21.919-7.307
					c-1.458-0.486-3.003,0.451-3.246,1.968l-10.392,64.782h48.164C194.243,189.577,196.573,186.98,196.249,184.006z"/>
			</g>
		</g>
		<g>
			<g>
				
					<ellipse transform="matrix(0.9871 -0.1602 0.1602 0.9871 -35.593 12.7844)" fill="#F5C84C" cx="61.5" cy="227.161" rx="26.339" ry="26.339"/>
			</g>
		</g>
		<g>
			<g>
				
					<ellipse transform="matrix(0.9871 -0.1602 0.1602 0.9871 -34.7343 23.4366)" fill="#70D6F9" cx="128" cy="227.161" rx="26.339" ry="26.339"/>
			</g>
		</g>
		<g>
			<g>
				<circle fill="#FC657E" cx="194.5" cy="227.161" r="26.339"/>
			</g>
		</g>
		<g>
			<g>
				<path fill="#EDF4FC" d="M150.875,118.52c-1.036-0.905-2.61-0.799-3.516,0.238l-13.971,15.996
					c-0.905,1.036-0.799,2.61,0.238,3.516l7.511,6.561c1.036,0.905,2.61,0.799,3.516-0.237l6.923-7.926l1.904-11.871
					c0.185-1.152,1.121-1.965,2.198-2.079L150.875,118.52z"/>
			</g>
		</g>
		<g>
			<g>
				<path fill="#EDF4FC" d="M122.612,134.753l-13.971-15.996c-0.905-1.036-2.479-1.143-3.516-0.238l-4.804,4.195
					c1.078,0.114,2.014,0.928,2.198,2.079l1.904,11.871l6.923,7.926c0.905,1.036,2.479,1.143,3.516,0.237l7.511-6.561
					C123.411,137.364,123.517,135.79,122.612,134.753z"/>
			</g>
		</g>
		<g>
			<g>
				<path fill="#F9D0B4" d="M145.771,120.575c-1.48-1.97-2.328-4.396-2.328-6.955v-5.456c-4.63,2.423-9.882,3.804-15.444,3.804h0
					c-5.562,0-10.814-1.38-15.444-3.804v5.456c0,2.558-0.847,4.985-2.328,6.955l12.383,14.178c0.518,0.593,0.693,1.359,0.565,2.078
					h9.646c-0.128-0.719,0.047-1.485,0.565-2.078L145.771,120.575z"/>
			</g>
		</g>
		<g>
			<g>
				<path fill="#5290DB" d="M102.52,124.795c-0.243-1.517-1.789-2.454-3.246-1.968l-7.347,2.449v34.122
					c0,2.319,1.31,4.438,3.384,5.475l4.07,2.035c1.68,0.84,2.315,2.914,1.395,4.55l-4.817,8.563
					c-0.886,1.574-1.031,3.459-0.396,5.151l1.652,4.406h15.698L102.52,124.795z"/>
			</g>
		</g>
		<g>
			<g>
				<path fill="#5290DB" d="M156.726,122.827c-1.457-0.486-3.003,0.451-3.246,1.968l-10.392,64.782h15.698l1.652-4.406
					c0.634-1.691,0.489-3.576-0.396-5.151l-4.817-8.563c-0.921-1.637-0.285-3.711,1.395-4.55l4.07-2.035
					c2.074-1.037,3.384-3.156,3.384-5.475v-34.122L156.726,122.827z"/>
			</g>
		</g>
		<g>
			<g>
				<polygon fill="#FC657E" points="134.148,150.884 121.852,150.884 118.054,189.577 137.946,189.577 				"/>
			</g>
		</g>
		<g>
			<g>
				<path fill="#F98FA6" d="M133.625,138.269c-0.444-0.388-0.706-0.9-0.802-1.438h-9.646c-0.096,0.538-0.358,1.05-0.802,1.438
					l-4.416,3.857l3.893,8.758h12.297l3.893-8.759L133.625,138.269z"/>
			</g>
		</g>
		<g>
			<g>
				<path fill="#87D147" d="M64.906,25.1h-2.4v-2.3c0-1.8-1.4-3.2-3.2-3.2c-1.7,0-3.2,1.4-3.2,3.1v2.4h-2.3c-1.8,0-3.2,1.4-3.2,3.2
					c-0.1,1.7,1.3,3.2,3.2,3.2h2.3v2.3c0,1.8,1.4,3.2,3.2,3.2c1.7,0,3.2-1.4,3.2-3.1v-2.4h2.3c1.8,0,3.2-1.4,3.2-3.2
					C68.006,26.6,66.606,25.1,64.906,25.1z"/>
			</g>
		</g>
		<g>
			<g>
				<path fill="#70D6F9" d="M215.206,170.5c-1.878,0-3.4,1.522-3.4,3.4c0,1.878,1.522,3.4,3.4,3.4c1.878,0,3.4-1.522,3.4-3.4
					C218.606,172.022,217.083,170.5,215.206,170.5z"/>
			</g>
		</g>
		<g>
			<g>
				<path fill="#FC657E" d="M204.15,84.175c-3.1-0.6-5.6-3-6.2-6.1c0-0.1-0.3-0.1-0.3,0c-0.6,3.1-3.1,5.5-6.2,6.1
					c-0.1,0-0.1,0.2,0,0.3c3.1,0.6,5.6,3,6.2,6.1c0,0.1,0.3,0.1,0.3,0c0.6-3.1,3.1-5.5,6.2-6.1
					C204.25,84.375,204.25,84.175,204.15,84.175z"/>
			</g>
		</g>
		<g>
			<g>
				<path fill="#F5C84C" d="M77.369,0c-1.878,0-3.4,1.522-3.4,3.4c0,1.878,1.522,3.4,3.4,3.4c1.878,0,3.4-1.522,3.4-3.4
					C80.769,1.522,79.246,0,77.369,0z"/>
			</g>
		</g>
		<g>
			<g>
				<path fill="#F5C84C" d="M233.15,142.2c-4.5-0.8-8-4.3-8.9-8.7c0-0.2-0.4-0.2-0.4,0c-0.9,4.4-4.4,7.9-8.9,8.7
					c-0.2,0-0.2,0.3,0,0.4c4.5,0.8,8,4.3,8.9,8.7c0,0.2,0.4,0.2,0.4,0c0.9-4.4,4.4-7.9,8.9-8.7
					C233.35,142.5,233.35,142.2,233.15,142.2z"/>
			</g>
		</g>
		<g>
			<g>
				<g>
					<g>
						<path d="M158.543,36.627c-3.077-3.228-8.067-3.568-11.608-0.791c-3.72,2.92-10.018,6.4-18.898,6.4
							c-8.899,0-15.232-3.494-18.978-6.425c-3.533-2.766-8.517-2.419-11.602,0.815c-3.534,3.706-5.48,8.566-5.48,13.687v28.133
							c0,19.863,16.16,36.022,36.022,36.022s36.022-16.16,36.022-36.022V50.313C164.022,45.193,162.076,40.333,158.543,36.627z
							 M159.022,78.447c0,17.106-13.917,31.022-31.022,31.022S96.978,95.553,96.978,78.447V50.313c0-3.83,1.456-7.465,4.109-10.248
							c0.703-0.737,1.646-1.113,2.603-1.113c0.799,0,1.607,0.263,2.289,0.796c4.365,3.416,11.735,7.488,22.059,7.488
							c10.308,0,17.645-4.061,21.985-7.467c1.502-1.179,3.61-1.047,4.902,0.308c2.643,2.772,4.099,6.407,4.099,10.236V78.447z"/>
					</g>
				</g>
			</g>
		</g>
		<g>
			<g>
				<path d="M175.407,155.975c-1.381,0-2.5,1.119-2.5,2.5v30.089c0,1.381,1.119,2.5,2.5,2.5s2.5-1.119,2.5-2.5v-30.089
					C177.907,157.094,176.788,155.975,175.407,155.975z"/>
			</g>
		</g>
		<g>
			<g>
				<path d="M80.593,155.975c-1.381,0-2.5,1.119-2.5,2.5v30.089c0,1.381,1.119,2.5,2.5,2.5s2.5-1.119,2.5-2.5v-30.089
					C83.093,157.094,81.974,155.975,80.593,155.975z"/>
			</g>
		</g>
		<g>
			<g>
				<path d="M163.673,50.398c-0.401,0-0.798,0.016-1.191,0.045c-1.377,0.104-2.409,1.304-2.306,2.68
					c0.104,1.377,1.307,2.409,2.68,2.306c0.27-0.021,0.542-0.031,0.817-0.031c6.339,0,11.496,5.157,11.496,11.496
					s-5.157,11.496-11.496,11.496c-0.304,0-0.604-0.016-0.902-0.043c-1.37-0.117-2.592,0.886-2.718,2.261s0.886,2.592,2.261,2.718
					c0.448,0.041,0.9,0.064,1.359,0.064c9.096,0,16.496-7.4,16.496-16.496C180.169,57.798,172.769,50.398,163.673,50.398z"/>
			</g>
		</g>
		<g>
			<g>
				<path d="M96.186,80.541c-0.15-1.372-1.377-2.366-2.757-2.214c-0.39,0.043-0.751,0.063-1.103,0.063
					c-6.339,0-11.496-5.157-11.496-11.496s5.157-11.496,11.496-11.496c0.266,0,0.528,0.01,0.789,0.029
					c1.377,0.098,2.574-0.938,2.672-2.315c0.099-1.377-0.938-2.573-2.315-2.672c-0.379-0.027-0.761-0.042-1.146-0.042
					c-9.096,0-16.496,7.4-16.496,16.496c0,9.096,7.4,16.496,16.496,16.496c0.535,0,1.073-0.03,1.646-0.093
					C95.345,83.147,96.336,81.913,96.186,80.541z"/>
			</g>
		</g>
		<g>
			<g>
				<path d="M161.775,21.811c-0.195-6.272-2.564-11.336-7.044-15.057c-7.669-6.369-21.776-8.346-38.702-5.422
					C96.764,4.659,82.781,21.257,82.781,40.8v13.716c0,1.381,1.119,2.5,2.5,2.5s2.5-1.119,2.5-2.5V40.8
					c0-17.103,12.238-31.629,29.099-34.542c15.484-2.672,28.115-1.091,34.657,4.342c3.463,2.876,5.18,6.719,5.249,11.749
					c0.033,2.456,2.102,4.455,4.611,4.455c4.382,0,6.896,6.032,6.896,16.549v10.866c0,1.381,1.119,2.5,2.5,2.5s2.5-1.119,2.5-2.5
					V43.353C173.292,25.126,166.25,21.972,161.775,21.811z"/>
			</g>
		</g>
		<g>
			<g>
				<path d="M147.56,118.781c-1.057-1.528-1.616-3.312-1.616-5.16v-4.871c0-1.381-1.119-2.5-2.5-2.5s-2.5,1.119-2.5,2.5v4.871
					c0,2.869,0.866,5.637,2.503,8.005c0.485,0.702,1.265,1.078,2.059,1.078c0.49,0,0.986-0.144,1.42-0.444
					C148.061,121.474,148.345,119.917,147.56,118.781z"/>
			</g>
		</g>
		<g>
			<g>
				<path d="M143.088,187.077h-30.176c-1.381,0-2.5,1.119-2.5,2.5s1.119,2.5,2.5,2.5h30.176c1.381,0,2.5-1.119,2.5-2.5
					S144.469,187.077,143.088,187.077z"/>
			</g>
		</g>
		<g>
			<g>
				<path d="M112.556,106.031c-1.381,0-2.5,1.119-2.5,2.5v5.09c0,1.792-0.528,3.531-1.527,5.031
					c-0.766,1.149-0.455,2.701,0.694,3.467c0.426,0.284,0.908,0.42,1.384,0.42c0.808,0,1.601-0.391,2.083-1.114
					c1.548-2.323,2.366-5.021,2.366-7.803v-5.09C115.056,107.15,113.937,106.031,112.556,106.031z"/>
			</g>
		</g>
		<g>
			<g>
				<g>
					<g>
						<path d="M115.38,189.181l-10.392-64.783c-0.232-1.449-1.086-2.716-2.341-3.477c-1.254-0.76-2.773-0.93-4.165-0.466
							l-21.919,7.307c-8.329,2.776-14.324,10.209-15.272,18.938l-4.026,37.037c-0.231,2.123,0.454,4.251,1.88,5.84
							c1.426,1.589,3.468,2.501,5.603,2.501h48.164c0.732,0,1.428-0.321,1.903-0.878C115.29,190.642,115.497,189.904,115.38,189.181
							z M64.749,187.077c-0.728,0-1.396-0.298-1.881-0.84c-0.485-0.541-0.709-1.237-0.631-1.961l4.026-37.037
							c0.738-6.791,5.402-12.574,11.883-14.734l21.908-7.303l9.925,61.875H64.749z"/>
					</g>
				</g>
			</g>
		</g>
		<g>
			<g>
				<g>
					<g>
						<path d="M198.734,183.736l-4.026-37.038c-0.949-8.728-6.944-16.161-15.272-18.937l-21.919-7.307
							c-1.391-0.464-2.91-0.294-4.165,0.466c-1.255,0.761-2.108,2.028-2.341,3.478l-10.392,64.782
							c-0.116,0.723,0.091,1.46,0.565,2.018c0.475,0.558,1.17,0.878,1.903,0.878h48.164c2.135,0,4.177-0.912,5.603-2.501
							C198.28,187.987,198.965,185.858,198.734,183.736z M193.133,186.237c-0.486,0.542-1.154,0.84-1.881,0.84H146.02l9.912-61.88
							l21.923,7.308c6.48,2.16,11.144,7.943,11.883,14.734l4.026,37.038C193.842,185,193.618,185.696,193.133,186.237z"/>
					</g>
				</g>
			</g>
		</g>
		<g>
			<g>
				<g>
					<path d="M139.176,85.384c-1.059-0.887-2.635-0.748-3.522,0.31c-1.574,1.877-4.252,2.998-7.167,2.998
						c-2.914,0-5.592-1.121-7.166-2.998c-0.887-1.057-2.462-1.197-3.522-0.31c-1.058,0.887-1.197,2.464-0.31,3.522
						c2.512,2.997,6.624,4.786,10.998,4.786c4.375,0,8.486-1.789,10.999-4.786C140.373,87.848,140.234,86.271,139.176,85.384z"/>
				</g>
			</g>
			<g>
				<g>
					<ellipse transform="matrix(0.9975 -0.0709 0.0709 0.9975 -4.4904 10.3525)" cx="143.611" cy="68.442" rx="4.504" ry="4.504"/>
				</g>
			</g>
			<g>
				<g>
					<circle cx="113.364" cy="68.442" r="4.504"/>
				</g>
			</g>
		</g>
		<g>
			<g>
				<g>
					<g>
						<path d="M61.5,198.321c-15.902,0-28.839,12.938-28.839,28.839S45.598,256,61.5,256s28.839-12.938,28.839-28.839
							S77.402,198.321,61.5,198.321z M61.5,251c-13.145,0-23.839-10.694-23.839-23.839s10.694-23.839,23.839-23.839
							s23.839,10.694,23.839,23.839S74.645,251,61.5,251z"/>
					</g>
				</g>
			</g>
		</g>
		<g>
			<g>
				<path d="M57.116,220.634c-1.04-2.564-3.496-4.221-6.258-4.221c-2.762,0-5.218,1.657-6.258,4.22
					c-0.519,1.279,0.097,2.737,1.376,3.256c0.308,0.125,0.626,0.184,0.939,0.184c0.988,0,1.923-0.589,2.317-1.561
					c0.271-0.668,0.909-1.1,1.625-1.1s1.354,0.432,1.624,1.1c0.519,1.278,1.975,1.895,3.256,1.377
					C57.018,223.372,57.634,221.914,57.116,220.634z"/>
			</g>
		</g>
		<g>
			<g>
				<path d="M78.4,220.633c-1.04-2.563-3.496-4.22-6.258-4.22c-2.762,0-5.218,1.657-6.258,4.221
					c-0.519,1.28,0.098,2.738,1.377,3.256c1.282,0.518,2.738-0.098,3.256-1.377c0.271-0.668,0.908-1.1,1.624-1.1
					s1.354,0.432,1.625,1.1c0.394,0.972,1.33,1.561,2.317,1.561c0.313,0,0.631-0.059,0.939-0.184
					C78.303,223.371,78.919,221.913,78.4,220.633z"/>
			</g>
		</g>
		<g>
			<g>
				<path d="M71.898,231.495c-1.278-0.518-2.737,0.098-3.256,1.377c-1.188,2.931-3.992,4.825-7.142,4.825s-5.954-1.894-7.142-4.825
					c-0.519-1.279-1.977-1.896-3.256-1.377s-1.896,1.977-1.377,3.256c1.958,4.827,6.58,7.946,11.776,7.946s9.818-3.119,11.776-7.946
					C73.794,233.472,73.178,232.014,71.898,231.495z"/>
			</g>
		</g>
		<g>
			<g>
				<g>
					<g>
						<path d="M128,198.321c-15.902,0-28.839,12.938-28.839,28.839S112.098,256,128,256s28.839-12.938,28.839-28.839
							S143.902,198.321,128,198.321z M128,251c-13.145,0-23.839-10.694-23.839-23.839s10.694-23.839,23.839-23.839
							s23.839,10.694,23.839,23.839S141.145,251,128,251z"/>
					</g>
				</g>
			</g>
		</g>
		<g>
			<g>
				<path d="M121.299,219.073h-7.882c-1.381,0-2.5,1.119-2.5,2.5s1.119,2.5,2.5,2.5h7.882c1.381,0,2.5-1.119,2.5-2.5
					S122.68,219.073,121.299,219.073z"/>
			</g>
		</g>
		<g>
			<g>
				<path d="M142.583,219.073h-7.882c-1.381,0-2.5,1.119-2.5,2.5s1.119,2.5,2.5,2.5h7.882c1.381,0,2.5-1.119,2.5-2.5
					S143.964,219.073,142.583,219.073z"/>
			</g>
		</g>
		<g>
			<g>
				<path d="M137.5,232.313c-19.793-0.326-19.851-0.261-20.822,0.828c-0.484,0.542-0.71,1.276-0.616,1.997
					c0.165,1.258,1.24,2.175,2.476,2.175c0.108,0,0.218-0.007,0.329-0.022c0.103-0.013,0.203-0.033,0.301-0.058
					c1.749-0.124,11.572-0.032,18.25,0.079c1.379,0.047,2.518-1.077,2.541-2.458C139.981,233.473,138.881,232.335,137.5,232.313z"/>
			</g>
		</g>
		<g>
			<g>
				<g>
					<g>
						<path d="M194.5,198.321c-15.902,0-28.839,12.938-28.839,28.839S178.598,256,194.5,256s28.839-12.938,28.839-28.839
							S210.402,198.321,194.5,198.321z M194.5,251c-13.145,0-23.839-10.694-23.839-23.839s10.694-23.839,23.839-23.839
							s23.839,10.694,23.839,23.839S207.645,251,194.5,251z"/>
					</g>
				</g>
			</g>
		</g>
		<g>
			<g>
				<path d="M188.738,218.596c-1.281-0.517-2.738,0.098-3.256,1.377c-0.271,0.668-0.908,1.1-1.624,1.1s-1.354-0.432-1.625-1.1
					c-0.519-1.28-1.976-1.896-3.256-1.376c-1.279,0.519-1.896,1.977-1.376,3.256c1.04,2.563,3.496,4.22,6.258,4.22
					c2.762,0,5.218-1.657,6.258-4.221C190.634,220.573,190.018,219.115,188.738,218.596z"/>
			</g>
		</g>
		<g>
			<g>
				<path d="M210.023,218.597c-1.281-0.52-2.738,0.098-3.256,1.376c-0.271,0.668-0.909,1.1-1.625,1.1s-1.354-0.432-1.624-1.1
					c-0.519-1.279-1.976-1.897-3.256-1.377c-1.279,0.519-1.896,1.977-1.377,3.256c1.04,2.564,3.496,4.221,6.258,4.221
					c2.762,0,5.218-1.657,6.258-4.22C211.919,220.574,211.303,219.116,210.023,218.597z"/>
			</g>
		</g>
		<g>
			<g>
				<path d="M205.074,235.328c-2.778-2.941-6.534-4.561-10.575-4.561c-4.038,0-7.792,1.618-10.569,4.556
					c-0.949,1.003-0.904,2.585,0.099,3.534c1.004,0.949,2.586,0.905,3.534-0.099c1.824-1.929,4.287-2.991,6.937-2.991
					c2.651,0,5.116,1.063,6.94,2.995c0.492,0.521,1.154,0.783,1.818,0.783c0.616,0,1.233-0.226,1.716-0.683
					C205.977,237.914,206.022,236.332,205.074,235.328z"/>
			</g>
		</g>
		<g>
			<g>
				<path d="M157.231,120.752l-4.711-4.115c-2.073-1.811-5.233-1.598-7.043,0.476l-13.971,15.996
					c-0.877,1.004-1.311,2.29-1.221,3.62c0.09,1.331,0.692,2.546,1.697,3.423l7.511,6.561c0.917,0.802,2.07,1.233,3.277,1.232
					c0.114,0,0.229-0.003,0.343-0.011c1.331-0.09,2.546-0.692,3.423-1.697l6.778-7.761c0.908-1.04,0.802-2.619-0.238-3.527
					c-1.04-0.908-2.618-0.801-3.527,0.238l-6.767,7.76l-7.511-6.549l13.959-15.995l4.712,4.115c1.041,0.909,2.62,0.802,3.527-0.238
					C158.377,123.24,158.271,121.661,157.231,120.752z"/>
			</g>
		</g>
		<g>
			<g>
				<path d="M124.495,133.109l-13.971-15.997c-0.877-1.004-2.093-1.606-3.423-1.696c-1.333-0.088-2.616,0.344-3.62,1.221
					l-4.703,4.108c-1.04,0.908-1.146,2.487-0.238,3.527c0.907,1.04,2.487,1.146,3.527,0.238l4.691-4.109l13.972,15.984l-7.5,6.562
					l-6.854-7.848c-0.909-1.04-2.487-1.147-3.527-0.238c-1.04,0.908-1.146,2.487-0.238,3.527l6.854,7.848
					c0.877,1.004,2.093,1.607,3.423,1.697c0.115,0.008,0.229,0.011,0.343,0.011c1.207,0,2.359-0.431,3.277-1.232l7.511-6.561
					c1.004-0.877,1.607-2.092,1.697-3.423C125.806,135.399,125.373,134.113,124.495,133.109z"/>
			</g>
		</g>
		<g>
			<g>
				<path d="M102.955,172.684c0.772-1.374,0.95-3.025,0.489-4.532c-0.462-1.506-1.535-2.775-2.945-3.479l-4.07-2.036
					c-1.235-0.617-2.002-1.858-2.002-3.239v-33.788c0-1.381-1.119-2.5-2.5-2.5s-2.5,1.119-2.5,2.5v33.788
					c0,3.287,1.827,6.242,4.766,7.711l4.069,2.035c0.263,0.131,0.364,0.353,0.4,0.473c0.037,0.121,0.078,0.36-0.066,0.616
					l-4.817,8.563c-1.25,2.223-1.453,4.867-0.558,7.254l1.469,3.917c0.376,1.003,1.329,1.623,2.341,1.623
					c0.292,0,0.588-0.051,0.877-0.16c1.292-0.485,1.948-1.926,1.463-3.219l-1.469-3.917c-0.376-1.003-0.291-2.113,0.234-3.047
					L102.955,172.684z"/>
			</g>
		</g>
		<g>
			<g>
				<path d="M164.073,123.344c-1.381,0-2.5,1.119-2.5,2.5v33.554c0,1.381-0.767,2.622-2.002,3.239l-4.069,2.035
					c-1.41,0.705-2.483,1.973-2.945,3.479c-0.461,1.507-0.284,3.159,0.489,4.532l4.816,8.563c0.525,0.934,0.61,2.044,0.234,3.047
					l-1.515,4.04c-0.485,1.293,0.17,2.734,1.463,3.219c0.29,0.108,0.586,0.16,0.877,0.16c1.012,0,1.965-0.619,2.341-1.623
					l1.515-4.04c0.896-2.387,0.692-5.031-0.558-7.254l-4.816-8.563c-0.144-0.255-0.104-0.495-0.066-0.616
					c0.037-0.12,0.138-0.342,0.4-0.473l4.069-2.035c2.94-1.469,4.767-4.424,4.767-7.711v-33.554
					C166.573,124.463,165.454,123.344,164.073,123.344z"/>
			</g>
		</g>
		<g>
			<g>
				<path d="M136.637,150.64c-0.135-1.374-1.356-2.375-2.732-2.244c-1.374,0.135-2.379,1.358-2.244,2.732l3.717,37.867
					c0.127,1.291,1.214,2.256,2.485,2.256c0.082,0,0.164-0.004,0.247-0.012c1.374-0.135,2.379-1.358,2.244-2.732L136.637,150.64z"/>
			</g>
		</g>
		<g>
			<g>
				<path d="M122.096,148.396c-1.378-0.131-2.598,0.87-2.732,2.244l-3.717,37.868c-0.135,1.374,0.87,2.597,2.244,2.732
					c0.083,0.008,0.166,0.012,0.247,0.012c1.271,0,2.358-0.965,2.485-2.256l3.717-37.868
					C124.475,149.754,123.47,148.531,122.096,148.396z"/>
			</g>
		</g>
		<g>
			<g>
				<g>
					<path d="M138.92,140.147c-1.263-0.56-2.739,0.008-3.3,1.27l-3.096,6.968h-9.048l-3.12-7.021c-0.561-1.261-2.038-1.83-3.3-1.27
						c-1.262,0.561-1.83,2.038-1.27,3.3l3.78,8.506c0.401,0.903,1.297,1.485,2.285,1.485h12.297c0.988,0,1.883-0.582,2.285-1.485
						l3.756-8.453C140.75,142.185,140.182,140.708,138.92,140.147z"/>
				</g>
			</g>
			<g>
				<g>
					<path d="M132,134.331h-8.083c-1.381,0-2.5,1.119-2.5,2.5s1.119,2.5,2.5,2.5H132c1.381,0,2.5-1.119,2.5-2.5
						S133.381,134.331,132,134.331z"/>
				</g>
			</g>
		</g>
	</g>
</g>
<g id="Layer_37">
</g>
<g id="Layer_38">
</g>
<g id="Layer_39">
</g>
<g id="Layer_40">
</g>
<g id="Layer_41">
</g>
<g id="Layer_42">
</g>
<g id="Layer_43">
</g>
<g id="Layer_44">
</g>
<g id="Layer_45">
</g>
<g id="Layer_46">
</g>
<g id="Layer_47">
</g>
<g id="Layer_48">
</g>
<g id="Layer_49">
</g>
<g id="Layer_50">
</g>
<g id="Layer_51">
</g>
<g id="Layer_52">
</g>
<g id="Layer_53">
</g>
<g id="Layer_54">
</g>
<g id="Layer_55">
</g>
<g id="Layer_56">
</g>
<g id="Layer_57">
</g>
<g id="Layer_58">
</g>
<g id="Layer_59">
</g>
<g id="Layer_60">
</g>
<g id="Layer_61">
</g>
<g id="Layer_62">
</g>
<g id="Layer_63">
</g>
<g id="Layer_64">
</g>
<g id="Layer_65">
</g>
<g id="Layer_66">
</g>
<g id="Layer_67">
</g>
<g id="Layer_68">
</g>
<g id="Layer_69">
</g>
<g id="Layer_70">
</g>
<g id="Layer_71">
</g>
<g id="Layer_72">
</g>
<g id="Layer_73">
</g>
<g id="Layer_74">
</g>
<g id="Layer_75">
</g>
<g id="Layer_76">
</g>
<g id="Layer_77">
</g>
<g id="Layer_78">
</g>
<g id="Layer_79">
</g>
<g id="Layer_80">
</g>
</svg>
