<?xml version="1.0" encoding="utf-8"?>
<!-- Generator: Adobe Illustrator 24.0.0, SVG Export Plug-In . SVG Version: 6.00 Build 0)  -->
<svg version="1.1" xmlns="http://www.w3.org/2000/svg" xmlns:xlink="http://www.w3.org/1999/xlink" x="0px" y="0px"
	 viewBox="0 0 256 256" enable-background="new 0 0 256 256" xml:space="preserve">
<g id="Layer_1">
</g>
<g id="Layer_2">
</g>
<g id="Layer_3">
</g>
<g id="Layer_4">
</g>
<g id="Layer_5">
</g>
<g id="Layer_6">
</g>
<g id="Layer_7">
</g>
<g id="Layer_8">
</g>
<g id="Layer_9">
</g>
<g id="Layer_10">
</g>
<g id="Layer_11">
</g>
<g id="Layer_12">
</g>
<g id="Layer_13">
</g>
<g id="Layer_14">
</g>
<g id="Layer_15">
</g>
<g id="Layer_16">
</g>
<g id="Layer_17">
</g>
<g id="Layer_18">
</g>
<g id="Layer_19">
</g>
<g id="Layer_20">
</g>
<g id="Layer_21">
</g>
<g id="Layer_22">
</g>
<g id="Layer_23">
</g>
<g id="Layer_24">
</g>
<g id="Layer_25">
</g>
<g id="Layer_26">
</g>
<g id="Layer_27">
</g>
<g id="Layer_28">
</g>
<g id="Layer_29">
</g>
<g id="Layer_30">
</g>
<g id="Layer_31">
</g>
<g id="Layer_32">
</g>
<g id="Layer_33">
</g>
<g id="Layer_34">
</g>
<g id="Layer_35">
</g>
<g id="Layer_36">
</g>
<g id="Layer_37">
</g>
<g id="Layer_38">
</g>
<g id="Layer_39">
</g>
<g id="Layer_40">
</g>
<g id="Layer_41">
</g>
<g id="Layer_42">
</g>
<g id="Layer_43">
</g>
<g id="Layer_44">
</g>
<g id="Layer_45">
</g>
<g id="Layer_46">
</g>
<g id="Layer_47">
</g>
<g id="Layer_48">
</g>
<g id="Layer_49">
</g>
<g id="Layer_50">
</g>
<g id="Layer_51">
</g>
<g id="Layer_52">
</g>
<g id="Layer_53">
</g>
<g id="Layer_54">
</g>
<g id="Layer_55">
</g>
<g id="Layer_56">
</g>
<g id="Layer_57">
</g>
<g id="Layer_58">
</g>
<g id="Layer_59">
</g>
<g id="Layer_60">
</g>
<g id="Layer_61">
</g>
<g id="Layer_62">
</g>
<g id="Layer_63">
</g>
<g id="Layer_64">
</g>
<g id="Layer_65">
</g>
<g id="Layer_66">
</g>
<g id="Layer_67">
</g>
<g id="Layer_68">
</g>
<g id="Layer_69">
</g>
<g id="Layer_70">
</g>
<g id="Layer_71">
</g>
<g id="Layer_72">
</g>
<g id="Layer_73">
</g>
<g id="Layer_74">
</g>
<g id="Layer_75">
</g>
<g id="Layer_76">
</g>
<g id="Layer_77">
</g>
<g id="Layer_78">
</g>
<g id="Layer_79">
</g>
<g id="Layer_80">
	<g>
		<g>
			<g>
				<path fill="#5B5D60" d="M146.548,154.63c7.039-11.04,3.715-21.788,0.61-27.859c-2.725,4.321-7.527,7.2-13.012,7.2
					c-0.839,0-1.656-0.085-2.458-0.214c-0.865,12.895-8.431,24.031-19.232,29.918v11.177c0,3.578,1.877,6.853,4.885,8.706
					c1.205,0.742-0.324-0.129,9.942,4.978c1.381,0.681,3.205,1.402,4.611,1.843c0.279,0.087,0.562,0.163,0.843,0.243
					c5.424-1.985,10.209-5.137,13.308-10.044c5.683-8.998,2.366-17.717,0.275-21.619
					C145.585,157.585,145.712,155.941,146.548,154.63z"/>
			</g>
		</g>
		<g>
			<g>
				<path fill="#5B5D60" d="M58.163,133.756c-0.802,0.129-1.619,0.214-2.458,0.214c-5.486,0-10.288-2.879-13.012-7.2
					c-3.105,6.071-6.43,16.819,0.61,27.859c0.836,1.312,0.963,2.956,0.228,4.327c-2.092,3.902-5.408,12.621,0.275,21.619
					c3.1,4.908,7.885,8.06,13.308,10.044c0.281-0.08,0.564-0.156,0.843-0.243c1.406-0.44,3.23-1.162,4.611-1.843
					c10.933-5.438,8.826-4.291,9.942-4.978c3.008-1.853,4.885-5.127,4.885-8.706v-11.177
					C66.594,157.788,59.028,146.651,58.163,133.756z"/>
			</g>
		</g>
		<g>
			<g>
				<path fill="#F9D0B4" d="M149.477,117.473c-6.749-3.562-12.743-8.351-17.696-14.072v27.884c0,0.832-0.038,1.654-0.093,2.472
					c0.802,0.129,1.619,0.214,2.458,0.214c8.498,0,15.387-6.889,15.387-15.387C149.533,118.208,149.503,117.841,149.477,117.473z"/>
			</g>
		</g>
		<g>
			<g>
				<path fill="#F9D0B4" d="M58.07,131.285v-21.949c-2.531-0.721-5.13-1.653-7.795-2.831c-1.719-0.759-3.726-0.409-5.096,0.875
					c-2.99,2.803-4.861,6.78-4.861,11.203c0,8.498,6.889,15.387,15.387,15.387c0.839,0,1.656-0.085,2.458-0.214
					C58.108,132.938,58.07,132.116,58.07,131.285z"/>
			</g>
		</g>
		<g>
			<g>
				<path fill="#5B5D60" d="M116.899,63.5c0-3.205,0.25-6.351,0.726-9.422c-6.827-3.498-14.54-5.487-22.7-5.487
					c-27.564,0-50.116,22.553-50.116,50.116v9.057c0.125-0.126,0.24-0.261,0.37-0.383c1.37-1.285,3.378-1.634,5.096-0.875
					c2.665,1.177,5.264,2.11,7.795,2.831c28.967,8.251,48.871-11.626,54.484-18.177c0.902-1.053,2.485-1.13,3.512-0.197
					c4.396,3.994,8.315,6.15,11.678,7.243C120.912,88.352,116.899,76.397,116.899,63.5z"/>
			</g>
		</g>
		<g>
			<g>
				<path fill="#DAE6F1" d="M104.41,208.99l-3.931-3.657c-1.377-1.281-1.455-3.436-0.174-4.813l16.27-17.488
					c-2.556-1.91-4.121-4.918-4.121-8.181v-11.177c-5.221,2.846-11.195,4.465-17.53,4.465c-6.334,0-12.309-1.62-17.53-4.465v11.177
					c0,3.263-1.565,6.271-4.121,8.181l16.271,17.488c1.281,1.376,1.203,3.532-0.174,4.813l-3.931,3.657
					c-3.085,2.87-7.057,3.916-10.801,3.401l3.959,41.109h32.655l3.959-41.109C111.468,212.906,107.495,211.859,104.41,208.99z"/>
			</g>
		</g>
		<g>
			<g>
				<path fill="#3A70BF" d="M71.897,183.915c-0.075,0.039-0.141,0.089-0.217,0.126l-9.112,4.493
					c-2.037,1.004-4.174,1.79-6.376,2.344c-0.13,0.033-18.906,4.772-19.026,4.803l-7.325,1.85
					c-6.414,1.614-11.032,7.211-11.4,13.814l-1.336,36.719c-0.108,2.97,2.27,5.436,5.242,5.436h56.251L71.897,183.915z"/>
			</g>
		</g>
		<g>
			<g>
				<path fill="#3A70BF" d="M171.41,211.345c-0.368-6.604-4.987-12.2-11.4-13.814l-7.325-1.85c-0.12-0.03-18.897-4.77-19.027-4.803
					c-2.202-0.554-4.339-1.34-6.376-2.344l-9.112-4.493c-0.076-0.037-0.142-0.087-0.217-0.126l-6.701,69.585h56.251
					c2.972,0,5.35-2.466,5.242-5.436L171.41,211.345z"/>
			</g>
		</g>
		<g>
			<g>
				<path fill="#EDF4FC" d="M89.545,200.52l-16.27-17.488c-0.434,0.325-0.888,0.626-1.378,0.883l2.742,28.477
					c3.744,0.515,7.717-0.532,10.801-3.401l3.931-3.657C90.748,204.052,90.826,201.897,89.545,200.52z"/>
			</g>
		</g>
		<g>
			<g>
				<path fill="#EDF4FC" d="M116.576,183.032l-16.27,17.488c-1.281,1.377-1.203,3.532,0.174,4.813l3.931,3.657
					c3.084,2.87,7.057,3.916,10.801,3.401l2.742-28.477C117.465,183.658,117.01,183.356,116.576,183.032z"/>
			</g>
		</g>
		<g>
			<g>
				<path fill="#F9D0B4" d="M127.743,98.205c-3.363-1.093-7.281-3.249-11.678-7.243c-1.026-0.933-2.609-0.856-3.512,0.197
					c-5.613,6.551-25.517,26.428-54.484,18.177v21.949c0,20.27,16.585,36.855,36.855,36.855s36.855-16.585,36.855-36.855v-27.884
					C130.345,101.744,128.995,100.012,127.743,98.205z"/>
			</g>
		</g>
		<g>
			<g>
				<path fill="#F9D0B4" d="M116.576,183.032c-2.556-1.91-4.121-4.918-4.121-8.181v-11.177c-5.221,2.846-11.195,4.465-17.53,4.465
					c-6.334,0-12.309-1.62-17.53-4.465v11.177c0,3.263-1.565,6.271-4.121,8.181l16.27,17.488c0.779,0.837,1.048,1.961,0.836,3.002
					h9.089c-0.213-1.041,0.057-2.165,0.836-3.002L116.576,183.032z"/>
			</g>
		</g>
		<g>
			<g>
				<circle fill="#B2E26D" cx="177.899" cy="63.5" r="61"/>
			</g>
		</g>
		<g>
			<g>
				<path fill="#5290DB" d="M60.172,253.5h18.426l-6.701-69.585c-0.075,0.039-0.141,0.089-0.217,0.126l-9.112,4.493
					c-2.037,1.004-4.174,1.79-6.376,2.344c-0.018,0.005-0.407,0.103-1.046,0.264l-1.948,35.706c-0.091,1.67,0.47,3.311,1.566,4.575
					l8.368,9.656c1.988,2.294,2.107,5.664,0.286,8.093L60.172,253.5z"/>
			</g>
		</g>
		<g>
			<g>
				<path fill="#5290DB" d="M135.086,231.422c1.095-1.264,1.657-2.904,1.566-4.575l-1.948-35.706
					c-0.639-0.161-1.028-0.259-1.046-0.264c-2.202-0.554-4.339-1.34-6.376-2.344l-9.112-4.493c-0.076-0.037-0.142-0.087-0.217-0.126
					l-6.701,69.585h18.426l-3.247-4.329c-1.821-2.429-1.702-5.799,0.286-8.093L135.086,231.422z"/>
			</g>
		</g>
		<g>
			<g>
				<path fill="#F9D0B4" d="M206.895,28.695l-4.734,4.604c-3.368,3.095-7.049,4.992-10.777,5.56l-5.636,1.032
					c-5.349,0.966-10.275,3.543-14.119,7.387c-3.586,3.586-3.15,3.15-6.343,6.343c-2.259,2.259-2.259,5.955,0,8.214
					s5.955,2.259,8.214,0l4.609-4.521l29.416,29.479l6.655-6.655c1.648-1.648,3.028-3.545,4.089-5.621l1.901-3.719
					c1.165-2.279,2.68-4.362,4.49-6.172l9.083-9.083L206.895,28.695z"/>
			</g>
		</g>
		<g>
			<g>
				<path fill="#F9D0B4" d="M207.295,86.566c-3.477-3.477-24.247-24.301-24.247-24.301l-4.94-4.951l-4.609,4.521
					c-2.24,2.24-5.894,2.258-8.158,0.055c-2.32-2.259-2.234-6.091,0.056-8.38c3.072-3.072,2.688-2.688,6.232-6.232
					c1.897-1.896,4.058-3.483,6.402-4.722c-2.407-1.271-5.007-2.176-7.716-2.665l-5.636-1.032c-3.729-0.567-7.41-2.465-10.777-5.56
					l-4.734-4.604L122.32,55.543l9.083,9.083c1.81,1.81,3.325,3.893,4.49,6.172l1.901,3.719c1.061,2.076,2.441,3.973,4.089,5.621
					c7.403,7.403,24.706,24.706,30.654,30.654l0,0c1.985,1.984,5.217,2.167,7.294,0.279c2.216-2.016,2.279-5.449,0.186-7.545
					l5.163,5.163c2.036,2.033,5.335,2.032,7.37-0.002c2.036-2.036,2.036-5.337,0-7.373c2.036,2.036,5.337,2.036,7.373,0
					c2.035-2.035,2.036-5.333,0.003-7.37c2.036,2.033,5.335,2.032,7.37-0.003C209.331,91.903,209.331,88.603,207.295,86.566z"/>
			</g>
		</g>
		<g>
			<g>
				<path fill="#70D6F9" d="M150.305,25.284l-9.783-9.974c-12.54,9.741-21.171,24.259-23.165,40.831l1.046,1.046
					c0.628,0.628,1.645,0.628,2.273,0l29.629-29.629C150.933,26.93,150.933,25.912,150.305,25.284z"/>
			</g>
		</g>
		<g>
			<g>
				<path fill="#5290DB" d="M215.209,15.258l-9.717,9.762c-0.628,0.628-0.628,1.646,0,2.273l29.629,29.629
					c0.628,0.628,1.646,0.628,2.273,0l1.016-1.017C236.361,39.403,227.726,24.952,215.209,15.258z"/>
			</g>
		</g>
		<g>
			<g>
				<path d="M148.655,155.975c7.663-12.015,3.946-23.765,1.049-29.699c-0.605-1.241-2.104-1.757-3.343-1.149
					c-1.241,0.605-1.756,2.103-1.149,3.343c2.978,6.1,5.261,15.357-0.772,24.817c-1.339,2.101-1.462,4.726-0.323,6.851
					c2.037,3.801,4.721,11.337-0.185,19.104c-2.468,3.906-6.411,6.902-11.72,8.906c-1.292,0.487-1.943,1.93-1.456,3.222
					c0.378,1.001,1.329,1.618,2.339,1.618c0.294,0,0.592-0.053,0.883-0.162c6.349-2.396,11.12-6.067,14.181-10.914
					c6.493-10.28,2.419-20.304,0.365-24.137C148.233,157.232,148.282,156.56,148.655,155.975z"/>
			</g>
		</g>
		<g>
			<g>
				<path d="M57.545,188.112c-5.262-2.004-9.174-4.988-11.625-8.871c-4.906-7.77-2.222-15.304-0.185-19.104
					c1.138-2.126,1.014-4.751-0.325-6.851c-6.039-9.471-3.745-18.737-0.758-24.844c0.606-1.24,0.093-2.737-1.147-3.345
					c-1.238-0.604-2.736-0.093-3.345,1.147c-2.905,5.94-6.636,17.701,1.034,29.729c0.374,0.586,0.424,1.26,0.134,1.802
					c-2.054,3.831-6.13,13.853,0.364,24.136c3.042,4.817,7.777,8.477,14.073,10.873c0.293,0.112,0.594,0.165,0.889,0.165
					c1.008,0,1.957-0.614,2.337-1.611C59.483,190.048,58.835,188.604,57.545,188.112z"/>
			</g>
		</g>
		<g>
			<g>
				<path d="M152.013,117.923c-0.079-1.378-1.268-2.436-2.638-2.354c-1.379,0.078-2.433,1.26-2.354,2.638
					c0.007,0.125,0.013,0.251,0.013,0.378c0,7.105-5.781,12.887-12.888,12.887c-0.361,0-0.744-0.021-1.138-0.06
					c-1.374-0.138-2.599,0.863-2.737,2.237c-0.139,1.373,0.863,2.6,2.237,2.737c0.559,0.057,1.11,0.085,1.638,0.085
					c9.863,0,17.888-8.024,17.888-17.887C152.033,118.361,152.025,118.142,152.013,117.923z"/>
			</g>
		</g>
		<g>
			<g>
				<path d="M58.755,106.932c-2.478-0.706-4.991-1.618-7.47-2.713c-2.64-1.167-5.708-0.64-7.816,1.338
					c-3.591,3.367-5.65,8.115-5.65,13.027c0,9.862,8.024,17.887,17.887,17.887c0.495,0,0.984-0.025,1.468-0.068
					c1.375-0.125,2.389-1.341,2.265-2.716c-0.125-1.375-1.338-2.376-2.716-2.265c-0.335,0.031-0.674,0.049-1.017,0.049
					c-7.105,0-12.887-5.781-12.887-12.887c0-3.587,1.445-6.918,4.07-9.38c0.644-0.603,1.574-0.763,2.377-0.411
					c2.688,1.188,5.421,2.179,8.12,2.947c1.327,0.381,2.712-0.392,3.089-1.72C60.853,108.692,60.083,107.31,58.755,106.932z"/>
			</g>
		</g>
		<g>
			<g>
				<path d="M118.481,51.709c-7.385-3.729-15.31-5.618-23.556-5.618c-29.014,0-52.617,23.604-52.617,52.616v8.814
					c0,1.381,1.119,2.5,2.5,2.5s2.5-1.119,2.5-2.5v-8.814c0-26.256,21.361-47.616,47.617-47.616c7.456,0,14.623,1.71,21.302,5.081
					c1.231,0.622,2.736,0.128,3.358-1.104S119.714,52.331,118.481,51.709z"/>
			</g>
		</g>
		<g>
			<g>
				<path d="M107.231,142.613c-1.058-0.885-2.632-0.749-3.522,0.31c-1.938,2.312-5.222,3.691-8.783,3.691
					c-3.563,0-6.847-1.38-8.784-3.691c-0.89-1.059-2.464-1.196-3.522-0.31c-1.058,0.888-1.196,2.465-0.31,3.522
					c2.877,3.431,7.594,5.479,12.616,5.479s9.738-2.048,12.615-5.479C108.428,145.078,108.289,143.501,107.231,142.613z"/>
			</g>
		</g>
		<g>
			<g>
				<path d="M110.96,118.068c-2.637,0-4.775,2.138-4.775,4.775c0,2.638,2.138,4.775,4.775,4.775s4.775-2.138,4.775-4.775
					C115.735,120.206,113.597,118.068,110.96,118.068z"/>
			</g>
		</g>
		<g>
			<g>
				<path d="M78.891,118.068c-2.637,0-4.775,2.138-4.775,4.775c0,2.638,2.138,4.775,4.775,4.775c2.637,0,4.775-2.138,4.775-4.775
					C83.666,120.206,81.528,118.068,78.891,118.068z"/>
			</g>
		</g>
		<g>
			<g>
				<path d="M77.396,161.721c-1.381,0-2.5,1.119-2.5,2.5v10.631c0,2.409-1.165,4.719-3.117,6.177
					c-1.106,0.826-1.333,2.393-0.507,3.499c0.491,0.657,1.243,1.004,2.005,1.004c0.521,0,1.045-0.162,1.494-0.497
					c3.209-2.397,5.125-6.204,5.125-10.183v-10.631C79.896,162.84,78.776,161.721,77.396,161.721z"/>
			</g>
		</g>
		<g>
			<g>
				<path d="M118.072,181.028c-1.952-1.458-3.117-3.768-3.117-6.177v-10.6c0-1.381-1.119-2.5-2.5-2.5s-2.5,1.119-2.5,2.5v10.6
					c0,3.979,1.916,7.785,5.125,10.183c0.449,0.335,0.974,0.497,1.494,0.497c0.762,0,1.514-0.347,2.005-1.004
					C119.405,183.421,119.179,181.854,118.072,181.028z"/>
			</g>
		</g>
		<g>
			<g>
				<path d="M111.253,251H78.598c-1.381,0-2.5,1.119-2.5,2.5s1.119,2.5,2.5,2.5h32.655c1.381,0,2.5-1.119,2.5-2.5
					S112.634,251,111.253,251z"/>
			</g>
		</g>
		<g>
			<g>
				<path d="M148.47,225.619c-1.381,0-2.5,1.119-2.5,2.5V252.5c0,1.381,1.119,2.5,2.5,2.5s2.5-1.119,2.5-2.5v-24.381
					C150.97,226.738,149.851,225.619,148.47,225.619z"/>
			</g>
		</g>
		<g>
			<g>
				<path d="M41.381,225.619c-1.381,0-2.5,1.119-2.5,2.5v24.214c0,1.381,1.119,2.5,2.5,2.5s2.5-1.119,2.5-2.5v-24.214
					C43.881,226.738,42.762,225.619,41.381,225.619z"/>
			</g>
		</g>
		<g>
			<g>
				<g>
					<g>
						<path d="M74.386,183.675c-0.079-0.827-0.564-1.561-1.295-1.957c-0.728-0.396-1.608-0.404-2.346-0.022
							c-0.081,0.042-0.159,0.088-0.244,0.14l-9.038,4.457c-1.876,0.925-3.854,1.652-5.88,2.161
							c-0.002,0.001-0.006,0.002-0.008,0.002c-0.228,0.059-18.9,4.771-19.021,4.802l-7.323,1.849
							c-7.516,1.893-12.854,8.362-13.288,16.148l-1.336,36.719c-0.077,2.122,0.692,4.131,2.166,5.659
							c1.473,1.527,3.452,2.368,5.574,2.368h56.251c0.705,0,1.377-0.298,1.851-0.819s0.705-1.219,0.638-1.92L74.386,183.675z
							 M22.347,251c-0.752,0-1.453-0.298-1.976-0.84c-0.522-0.541-0.796-1.254-0.769-2.006l1.334-36.67
							c0.309-5.542,4.133-10.175,9.517-11.53l7.324-1.85c0.118-0.029,18.528-4.676,19.024-4.802c2.368-0.596,4.68-1.445,6.872-2.526
							l6.084-3L75.846,251H22.347z"/>
					</g>
				</g>
			</g>
		</g>
		<g>
			<g>
				<g>
					<g>
						<path d="M173.906,211.205c-0.432-7.737-5.771-14.208-13.284-16.099l-7.324-1.85c-0.116-0.029-3.264-0.823-6.966-1.758
							c-5.375-1.356-11.922-3.01-12.064-3.046c-2.023-0.509-4.002-1.236-5.88-2.161l-9.036-4.456
							c-0.076-0.047-0.153-0.093-0.233-0.134c-0.738-0.39-1.62-0.383-2.352,0.012c-0.733,0.396-1.221,1.131-1.301,1.961
							l-6.701,69.586c-0.067,0.701,0.164,1.398,0.638,1.92s1.146,0.819,1.851,0.819h56.251c2.122,0,4.103-0.842,5.576-2.37
							c1.473-1.527,2.242-3.537,2.164-5.657L173.906,211.205z M169.48,250.16c-0.522,0.541-1.225,0.84-1.977,0.84h-53.499
							l6.089-63.223l6.083,2.999c2.194,1.081,4.506,1.932,6.862,2.523c0.077,0.02,6.665,1.683,12.069,3.047l6.961,1.757
							c0.001,0.001,0.002,0.001,0.003,0.001l7.327,1.851c5.382,1.354,9.206,5.987,9.513,11.48l1.336,36.719
							C170.275,248.906,170.003,249.618,169.48,250.16z"/>
					</g>
				</g>
			</g>
		</g>
		<g>
			<g>
				<path d="M91.375,198.817l-16.271-17.488c-0.869-0.935-2.302-1.062-3.325-0.301c-0.379,0.283-0.721,0.503-1.045,0.673
					c-1.223,0.642-1.693,2.153-1.052,3.376c0.604,1.149,1.975,1.637,3.154,1.154l14.878,15.993c0.222,0.237,0.247,0.508,0.241,0.647
					c-0.005,0.14-0.049,0.408-0.288,0.631l-3.931,3.656c-2.201,2.049-5.079,3.047-8.075,2.827c-1.382-0.108-2.576,0.93-2.68,2.307
					c-0.103,1.377,0.93,2.577,2.307,2.68c0.406,0.03,0.81,0.045,1.212,0.045c3.966,0,7.708-1.467,10.643-4.198l3.931-3.656
					c1.154-1.074,1.822-2.534,1.879-4.11C93.01,201.476,92.449,199.972,91.375,198.817z"/>
			</g>
		</g>
		<g>
			<g>
				<path d="M119.116,181.701c-0.324-0.17-0.666-0.39-1.045-0.673c-1.023-0.762-2.456-0.635-3.325,0.301l-16.271,17.487
					c-1.074,1.155-1.635,2.659-1.578,4.236c0.057,1.576,0.725,3.036,1.879,4.11l3.931,3.656c2.937,2.732,6.677,4.199,10.645,4.199
					c0.414,0,0.831-0.017,1.249-0.049c1.377-0.105,2.407-1.308,2.301-2.684c-0.105-1.377-1.339-2.436-2.684-2.301
					c-3.027,0.228-5.896-0.772-8.104-2.826l-3.931-3.656c-0.239-0.223-0.283-0.491-0.288-0.631c-0.006-0.14,0.02-0.41,0.241-0.648
					l14.878-15.992c1.181,0.484,2.551-0.004,3.154-1.154C120.81,183.854,120.339,182.343,119.116,181.701z"/>
			</g>
		</g>
		<g>
			<g>
				<path d="M131.78,101.109c-1.381,0-2.5,1.119-2.5,2.5v27.676c0,18.943-15.411,34.354-34.354,34.354S60.57,150.229,60.57,131.285
					v-18.736c3.92,0.874,7.669,1.261,11.238,1.261c22.585-0.002,37.894-15.488,42.576-20.997c4.077,3.704,8.204,6.283,12.267,7.664
					c1.308,0.447,2.728-0.256,3.172-1.563c0.444-1.308-0.255-2.728-1.563-3.172c-3.41-1.159-6.947-3.39-10.514-6.631
					c-0.994-0.902-2.319-1.384-3.662-1.289c-1.339,0.083-2.557,0.691-3.43,1.71c-5.199,6.068-24.304,25.256-51.9,17.399
					c-0.751-0.215-1.565-0.063-2.19,0.409c-0.626,0.473-0.994,1.211-0.994,1.995v21.949c0,21.7,17.655,39.354,39.355,39.354
					s39.354-17.654,39.354-39.354v-27.676C134.28,102.229,133.161,101.109,131.78,101.109z"/>
			</g>
		</g>
		<g>
			<g>
				<path d="M98.333,201.022h-6.875c-1.381,0-2.5,1.119-2.5,2.5s1.119,2.5,2.5,2.5h6.875c1.381,0,2.5-1.119,2.5-2.5
					S99.714,201.022,98.333,201.022z"/>
			</g>
		</g>
		<g>
			<g>
				<path d="M94.926,218.654c-1.381,0-2.5,1.119-2.5,2.5v31.159c0,1.381,1.119,2.5,2.5,2.5s2.5-1.119,2.5-2.5v-31.159
					C97.426,219.773,96.307,218.654,94.926,218.654z"/>
			</g>
		</g>
		<g>
			<g>
				<path d="M186.947,106.92l-23.673-23.673c-0.977-0.977-2.559-0.977-3.535,0s-0.977,2.559,0,3.535l23.673,23.673
					c0.488,0.488,1.128,0.732,1.768,0.732s1.279-0.244,1.768-0.732C187.924,109.479,187.924,107.896,186.947,106.92z"/>
			</g>
		</g>
		<g>
			<g>
				<path d="M203.813,57.074c-0.369-1.33-1.743-2.108-3.078-1.738c-10.111,2.807-17.662-2.793-17.971-3.027
					c-0.981-0.757-2.372-0.679-3.263,0.183l-3.131,3.025c-0.993,0.96-1.02,2.542-0.061,3.535c0.96,0.994,2.544,1.02,3.535,0.061
					l1.704-1.647c2.487,1.44,7.318,3.657,13.495,3.656c2.189,0,4.548-0.278,7.03-0.969
					C203.405,59.783,204.184,58.405,203.813,57.074z"/>
			</g>
		</g>
		<g>
			<g>
				<path d="M201.693,92.175L178.02,68.501c-0.977-0.977-2.559-0.977-3.535,0s-0.977,2.559,0,3.535l23.674,23.674
					c0.488,0.488,1.128,0.732,1.768,0.732s1.279-0.244,1.768-0.732C202.67,94.733,202.67,93.151,201.693,92.175z"/>
			</g>
		</g>
		<g>
			<g>
				<path d="M194.317,99.544l-23.671-23.67c-0.977-0.977-2.559-0.977-3.535,0s-0.977,2.56,0,3.535l23.671,23.67
					c0.488,0.488,1.128,0.732,1.768,0.732s1.279-0.244,1.768-0.732C195.294,102.103,195.294,100.52,194.317,99.544z"/>
			</g>
		</g>
		<g>
			<g>
				<g>
					<g>
						<path d="M177.898,0c-35.014,0-63.5,28.486-63.5,63.5s28.486,63.5,63.5,63.5s63.5-28.486,63.5-63.5S212.912,0,177.898,0z
							 M177.898,122c-32.257,0-58.5-26.243-58.5-58.5S145.642,5,177.898,5s58.5,26.243,58.5,58.5S210.155,122,177.898,122z"/>
					</g>
				</g>
			</g>
		</g>
		<g>
			<g>
				<path fill="#70D6F9" d="M63.906,22.1h-2.4v-2.3c0-1.8-1.4-3.2-3.2-3.2c-1.7,0-3.2,1.4-3.2,3.1v2.4h-2.3c-1.8,0-3.2,1.4-3.2,3.2
					c-0.1,1.7,1.3,3.2,3.2,3.2h2.3v2.3c0,1.8,1.4,3.2,3.2,3.2c1.7,0,3.2-1.4,3.2-3.1v-2.4h2.3c1.8,0,3.2-1.4,3.2-3.2
					C67.006,23.6,65.606,22.1,63.906,22.1z"/>
			</g>
		</g>
		<g>
			<g>
				<circle fill="#F5C84C" cx="90.206" cy="3.4" r="3.4"/>
			</g>
		</g>
		<g>
			<g>
				<path fill="#87D147" d="M30.15,164.175c-3.1-0.6-5.6-3-6.2-6.1c0-0.1-0.3-0.1-0.3,0c-0.6,3.1-3.1,5.5-6.2,6.1
					c-0.1,0-0.1,0.2,0,0.3c3.1,0.6,5.6,3,6.2,6.1c0,0.1,0.3,0.1,0.3,0c0.6-3.1,3.1-5.5,6.2-6.1
					C30.25,164.375,30.25,164.175,30.15,164.175z"/>
			</g>
		</g>
		<g>
			<g>
				<circle fill="#FC657E" cx="195.369" cy="210.4" r="3.4"/>
			</g>
		</g>
		<g>
			<g>
				<path fill="#F5C84C" d="M220.15,177.2c-4.5-0.8-8-4.3-8.9-8.7c0-0.2-0.4-0.2-0.4,0c-0.9,4.4-4.4,7.9-8.9,8.7
					c-0.2,0-0.2,0.3,0,0.4c4.5,0.8,8,4.3,8.9,8.7c0,0.2,0.4,0.2,0.4,0c0.9-4.4,4.4-7.9,8.9-8.7
					C220.35,177.5,220.35,177.2,220.15,177.2z"/>
			</g>
		</g>
		<g>
			<g>
				<path d="M65.023,239.44l-8.37-9.656c-0.674-0.777-1.015-1.771-0.958-2.801l1.915-35.117c0.075-1.378-0.981-2.557-2.36-2.632
					c-1.379-0.107-2.558,0.98-2.632,2.36l-1.915,35.115c-0.128,2.331,0.644,4.586,2.172,6.35l8.369,9.655
					c1.209,1.396,1.282,3.479,0.175,4.956l-3.081,4.108c-0.828,1.104-0.604,2.672,0.5,3.5c0.45,0.337,0.977,0.5,1.498,0.5
					c0.76,0,1.511-0.346,2.002-1l3.081-4.108C67.928,247.325,67.762,242.603,65.023,239.44z"/>
			</g>
		</g>
		<g>
			<g>
				<path d="M136.975,233.06c1.529-1.764,2.301-4.019,2.173-6.348l-1.91-35.032c-0.074-1.379-1.252-2.44-2.632-2.36
					c-1.379,0.075-2.436,1.254-2.36,2.632l1.91,35.034c0.057,1.027-0.284,2.021-0.959,2.799l-8.367,9.656
					c-2.74,3.161-2.907,7.884-0.397,11.23l3.063,4.084c0.491,0.655,1.242,1,2.002,1c0.521,0,1.049-0.163,1.498-0.5
					c1.104-0.829,1.328-2.396,0.5-3.5l-3.063-4.084c-1.107-1.477-1.033-3.561,0.176-4.955L136.975,233.06z"/>
			</g>
		</g>
		<g>
			<g>
				<path d="M209.294,85.027l-29.416-29.479c-0.97-0.971-2.54-0.979-3.52-0.02l-4.627,4.537c-1.292,1.29-3.389,1.288-4.679,0
					c-1.289-1.29-1.289-3.388,0-4.678l6.344-6.344c3.5-3.5,7.925-5.814,12.801-6.695l5.562-1.02c4.2-0.639,8.382-2.779,12.144-6.238
					l3.842-3.734c0.99-0.963,1.013-2.546,0.051-3.535c-0.963-0.992-2.547-1.013-3.535-0.051l-3.791,3.687
					c-2.977,2.735-6.248,4.44-9.536,4.941l-5.63,1.031c-5.878,1.062-11.218,3.854-15.441,8.079l-6.344,6.344
					c-3.239,3.239-3.239,8.509,0,11.748c3.239,3.24,8.51,3.238,11.731,0.018l2.84-2.784l27.666,27.724
					c0.488,0.489,1.129,0.734,1.77,0.734c0.639,0,1.278-0.243,1.766-0.73C210.268,87.587,210.27,86.005,209.294,85.027z"/>
			</g>
		</g>
		<g>
			<g>
				<path d="M234.941,54.344c-0.977-0.977-2.559-0.977-3.535,0l-8.516,8.515c-1.998,2-3.663,4.288-4.948,6.802l-1.9,3.719
					c-0.942,1.846-2.164,3.524-3.63,4.991l-6.655,6.655c-0.977,0.977-0.977,2.559,0,3.535c0.488,0.488,1.128,0.732,1.768,0.732
					s1.279-0.244,1.768-0.732l6.655-6.655c1.837-1.837,3.367-3.939,4.548-6.251l1.899-3.719c1.047-2.048,2.404-3.912,4.032-5.542
					l8.515-8.515C235.918,56.902,235.918,55.32,234.941,54.344z"/>
			</g>
		</g>
		<g>
			<g>
				<path d="M178.943,40.212c-2.58-1.331-5.334-2.267-8.178-2.78l-5.711-1.045c-3.213-0.488-6.484-2.193-9.41-4.88l-3.838-3.732
					c-0.991-0.963-2.572-0.94-3.535,0.049c-0.963,0.99-0.94,2.573,0.049,3.535l3.89,3.781c3.712,3.411,7.894,5.552,12.019,6.178
					l5.643,1.033c2.36,0.427,4.642,1.202,6.781,2.305c0.366,0.189,0.758,0.279,1.144,0.279c0.906,0,1.78-0.494,2.224-1.355
					C180.652,42.353,180.171,40.845,178.943,40.212z"/>
			</g>
		</g>
		<g>
			<g>
				<path d="M209.063,84.799c-0.977-0.977-2.559-0.977-3.535,0s-0.977,2.559,0,3.535c1.058,1.059,1.058,2.779,0,3.838
					c-1.056,1.056-2.775,1.061-3.835,0.001c-0.977-0.975-2.558-0.975-3.534,0.002c-0.976,0.976-0.977,2.557-0.002,3.533
					c1.056,1.059,1.056,2.779-0.001,3.836c-1.059,1.059-2.781,1.059-3.838,0c-0.977-0.975-2.56-0.976-3.536,0.001
					c-0.487,0.488-0.731,1.128-0.731,1.769c0,0.64,0.244,1.279,0.732,1.768c0.513,0.512,0.795,1.192,0.795,1.918
					c0,0.725-0.282,1.405-0.795,1.918c-1.057,1.058-2.776,1.058-3.835,0.003l-5.162-5.162c-0.977-0.977-2.559-0.976-3.535-0.001
					c-0.976,0.976-0.977,2.559-0.001,3.535c0.528,0.529,0.81,1.233,0.792,1.982c-0.019,0.748-0.335,1.439-0.893,1.945
					c-1.053,0.957-2.776,0.869-3.844-0.196L143.65,78.37c-1.466-1.467-2.688-3.146-3.631-4.991l-1.901-3.719
					c-1.286-2.518-2.951-4.807-4.948-6.802l-8.203-8.204c-0.977-0.977-2.559-0.977-3.535,0c-0.977,0.976-0.977,2.559,0,3.535
					l8.203,8.205c1.627,1.625,2.983,3.49,4.032,5.541l1.9,3.719c1.181,2.312,2.711,4.414,4.548,6.251l30.654,30.654
					c1.556,1.554,3.586,2.339,5.605,2.339c1.846,0,3.683-0.655,5.138-1.979c0.794-0.722,1.415-1.577,1.844-2.52l0.057,0.057
					c3.008,3.004,7.9,3.002,10.904-0.003c1.379-1.379,2.172-3.188,2.253-5.125c1.862-0.08,3.701-0.83,5.12-2.249
					c1.42-1.419,2.169-3.26,2.248-5.124c1.864-0.079,3.704-0.828,5.124-2.248C212.07,92.7,212.07,87.807,209.063,84.799z"/>
			</g>
		</g>
		<g>
			<g>
				<g>
					<g>
						<path d="M152.09,23.533l-8.755-8.926c-0.969-0.986-2.55-1-3.536-0.034c-0.985,0.967-1.001,2.55-0.034,3.536l8.147,8.306
							l-28.373,28.373l-0.112-0.112c-0.977-0.977-2.559-0.977-3.535,0s-0.977,2.559,0,3.535l0.743,0.743
							c0.801,0.801,1.853,1.201,2.904,1.201s2.104-0.4,2.904-1.201l29.63-29.63C153.675,27.724,153.674,25.118,152.09,23.533z"/>
					</g>
				</g>
			</g>
		</g>
		<g>
			<g>
				<g>
					<g>
						<path d="M240.089,54.23c-0.977-0.978-2.559-0.978-3.535-0.002l-0.295,0.294L207.89,26.155l8.429-8.469
							c0.975-0.979,0.971-2.562-0.008-3.535c-0.979-0.976-2.562-0.97-3.535,0.008l-9.051,9.093c-1.602,1.602-1.602,4.207,0,5.809
							l29.63,29.629c0.775,0.776,1.808,1.203,2.904,1.203c1.098,0,2.129-0.428,2.902-1.202l0.926-0.925
							C241.064,56.79,241.064,55.207,240.089,54.23z"/>
					</g>
				</g>
			</g>
		</g>
	</g>
</g>
</svg>
