<?xml version="1.0" encoding="utf-8"?>
<!-- Generator: Adobe Illustrator 24.0.0, SVG Export Plug-In . SVG Version: 6.00 Build 0)  -->
<svg version="1.1" xmlns="http://www.w3.org/2000/svg" xmlns:xlink="http://www.w3.org/1999/xlink" x="0px" y="0px"
	 viewBox="0 0 256 256" enable-background="new 0 0 256 256" xml:space="preserve">
<g id="Layer_1">
</g>
<g id="Layer_2">
</g>
<g id="Layer_3">
</g>
<g id="Layer_4">
</g>
<g id="Layer_5">
</g>
<g id="Layer_6">
</g>
<g id="Layer_7">
</g>
<g id="Layer_8">
</g>
<g id="Layer_9">
</g>
<g id="Layer_10">
</g>
<g id="Layer_11">
</g>
<g id="Layer_12">
</g>
<g id="Layer_13">
</g>
<g id="Layer_14">
</g>
<g id="Layer_15">
</g>
<g id="Layer_16">
</g>
<g id="Layer_17">
</g>
<g id="Layer_18">
</g>
<g id="Layer_19">
</g>
<g id="Layer_20">
</g>
<g id="Layer_21">
</g>
<g id="Layer_22">
</g>
<g id="Layer_23">
</g>
<g id="Layer_24">
</g>
<g id="Layer_25">
</g>
<g id="Layer_26">
</g>
<g id="Layer_27">
</g>
<g id="Layer_28">
</g>
<g id="Layer_29">
</g>
<g id="Layer_30">
</g>
<g id="Layer_31">
</g>
<g id="Layer_32">
</g>
<g id="Layer_33">
</g>
<g id="Layer_34">
</g>
<g id="Layer_35">
</g>
<g id="Layer_36">
</g>
<g id="Layer_37">
</g>
<g id="Layer_38">
</g>
<g id="Layer_39">
</g>
<g id="Layer_40">
</g>
<g id="Layer_41">
</g>
<g id="Layer_42">
</g>
<g id="Layer_43">
</g>
<g id="Layer_44">
</g>
<g id="Layer_45">
</g>
<g id="Layer_46">
</g>
<g id="Layer_47">
</g>
<g id="Layer_48">
</g>
<g id="Layer_49">
</g>
<g id="Layer_50">
</g>
<g id="Layer_51">
</g>
<g id="Layer_52">
</g>
<g id="Layer_53">
</g>
<g id="Layer_54">
</g>
<g id="Layer_55">
</g>
<g id="Layer_56">
</g>
<g id="Layer_57">
</g>
<g id="Layer_58">
</g>
<g id="Layer_59">
</g>
<g id="Layer_60">
</g>
<g id="Layer_61">
</g>
<g id="Layer_62">
</g>
<g id="Layer_63">
</g>
<g id="Layer_64">
</g>
<g id="Layer_65">
</g>
<g id="Layer_66">
</g>
<g id="Layer_67">
</g>
<g id="Layer_68">
</g>
<g id="Layer_69">
</g>
<g id="Layer_70">
</g>
<g id="Layer_71">
</g>
<g id="Layer_72">
</g>
<g id="Layer_73">
</g>
<g id="Layer_74">
</g>
<g id="Layer_75">
</g>
<g id="Layer_76">
</g>
<g id="Layer_77">
</g>
<g id="Layer_78">
</g>
<g id="Layer_79">
	<g>
		<g>
			<g>
				<path fill="#F9D0B4" d="M122.408,89.171c-0.698,0.261-1.368,0.625-1.982,1.107c-4.665,3.662-12.737,8.188-24.139,8.188
					c-11.429,0-19.544-4.548-24.229-8.215c-2.948-2.307-7.148-2.048-9.731,0.661l-0.014,0.014c-3.63,3.807-5.655,8.865-5.655,14.125
					v33.222c0,21.771,17.813,39.585,39.585,39.585c21.772,0,39.585-17.813,39.585-39.585v-30.478
					C130.257,102.521,125.681,96.214,122.408,89.171z"/>
			</g>
		</g>
		<g>
			<g>
				<path fill="#F9D0B4" d="M154.268,119.813c-6.878-2.871-13.11-6.972-18.44-12.017v30.478c0,0.893-0.041,1.776-0.1,2.655
					c0.862,0.139,1.739,0.23,2.64,0.23c9.128,0,16.527-7.399,16.527-16.527C154.895,123.069,154.673,121.44,154.268,119.813z"/>
			</g>
		</g>
		<g>
			<g>
				<path fill="#F9D0B4" d="M56.658,138.273v-29.968c-0.829-0.128-1.676-0.201-2.54-0.201c-9.128,0-16.527,7.399-16.527,16.527
					c0,9.127,7.399,16.527,16.527,16.527c0.901,0,1.778-0.092,2.64-0.23v0C56.699,140.049,56.658,139.166,56.658,138.273z"/>
			</g>
		</g>
		<g>
			<g>
				<path fill="#5B5D60" d="M116.743,63.5c0-4.13,0.416-8.162,1.198-12.062c-9.552-3.522-22.451-3.542-35.331-1.318
					c-21.268,3.673-36.812,22.115-36.812,43.698v16.549c2.446-1.43,5.282-2.263,8.319-2.263c0.865,0,1.712,0.073,2.54,0.201v-3.254
					c0-5.26,2.025-10.318,5.655-14.125l0.014-0.014c2.583-2.709,6.783-2.968,9.731-0.661c4.685,3.667,12.8,8.215,24.229,8.215
					c11.401,0,19.474-4.526,24.139-8.188c0.614-0.482,1.285-0.847,1.982-1.107C118.781,81.366,116.743,72.673,116.743,63.5z"/>
			</g>
		</g>
		<g>
			<g>
				<path fill="#EDF4FC" d="M123.254,185.594c-1.224-1.069-3.083-0.943-4.151,0.28l-16.498,18.889
					c-1.069,1.224-0.943,3.083,0.281,4.151l8.87,7.747c1.224,1.069,3.083,0.943,4.151-0.28l8.175-9.36l2.249-14.018
					c0.218-1.36,1.323-2.321,2.596-2.456L123.254,185.594z"/>
			</g>
		</g>
		<g>
			<g>
				<path fill="#EDF4FC" d="M89.881,204.764l-16.498-18.889c-1.069-1.224-2.928-1.349-4.151-0.28l-5.672,4.954
					c1.273,0.135,2.378,1.096,2.596,2.456l2.249,14.018l8.175,9.36c1.069,1.224,2.928,1.35,4.151,0.28l8.87-7.747
					C90.824,207.846,90.95,205.987,89.881,204.764z"/>
			</g>
		</g>
		<g>
			<g>
				<path fill="#DAE6F1" d="M115.907,216.382c-1.069,1.224-2.927,1.35-4.151,0.28l-8.87-7.747c-1.224-1.069-1.349-2.928-0.28-4.151
					l14.623-16.742c-1.748-2.326-2.749-5.191-2.749-8.212v-6.442c-5.467,2.862-11.669,4.492-18.237,4.492
					c-6.568,0-12.77-1.63-18.237-4.492v6.442c0,3.021-1.001,5.886-2.749,8.212l14.623,16.742c1.069,1.224,0.943,3.083-0.28,4.151
					l-8.87,7.747c-1.224,1.069-3.083,0.943-4.151-0.28l-8.175-9.36l7.456,46.478h40.767l7.456-46.478L115.907,216.382z"/>
			</g>
		</g>
		<g>
			<g>
				<path fill="#F9D0B4" d="M117.228,188.021c-1.748-2.326-2.748-5.191-2.748-8.212v-6.442c-5.467,2.862-11.669,4.492-18.237,4.492
					h0c-6.568,0-12.77-1.63-18.237-4.492v6.442c0,3.021-1.001,5.886-2.749,8.212l14.623,16.742c0.611,0.7,0.819,1.605,0.667,2.453
					h11.39c-0.152-0.848,0.056-1.753,0.667-2.453L117.228,188.021z"/>
			</g>
		</g>
		<g>
			<g>
				<path fill="#3A70BF" d="M66.155,193.004c-0.287-1.792-2.112-2.898-3.833-2.324l-25.883,8.628
					c-8.771,2.924-15.034,10.69-16.033,19.881l-3.118,28.674c-0.327,3.01,2.03,5.638,5.058,5.638h53.513L66.155,193.004z"/>
			</g>
		</g>
		<g>
			<g>
				<path fill="#3A70BF" d="M175.198,247.862l-3.118-28.674c-0.999-9.191-7.263-16.957-16.033-19.881l-25.883-8.628
					c-1.721-0.574-3.546,0.533-3.833,2.324l-9.704,60.496h53.513C173.168,253.5,175.525,250.872,175.198,247.862z"/>
			</g>
		</g>
		<g>
			<g>
				<circle fill="#B2E26D" cx="177.743" cy="63.5" r="61"/>
			</g>
		</g>
		<g>
			<g>
				<polygon fill="#FC657E" points="103.503,223.812 88.983,223.812 86.068,253.5 106.417,253.5 				"/>
			</g>
		</g>
		<g>
			<g>
				<path fill="#F98FA6" d="M102.885,208.915c-0.524-0.458-0.834-1.063-0.948-1.698h-11.39c-0.114,0.636-0.423,1.24-0.947,1.698
					l-5.214,4.554l4.597,10.343h14.521l4.597-10.343L102.885,208.915z"/>
			</g>
		</g>
		<g>
			<g>
				<path fill="#5290DB" d="M61.06,253.5h14.799l-9.704-60.496c-0.287-1.791-2.112-2.898-3.833-2.324l-8.676,2.892v40.293
					c0,2.738,1.547,5.241,3.996,6.465l4.806,2.403c1.983,0.991,2.734,3.44,1.647,5.373L61.06,253.5z"/>
			</g>
		</g>
		<g>
			<g>
				<path fill="#5290DB" d="M130.164,190.68c-1.721-0.574-3.546,0.533-3.833,2.324l-9.704,60.496h14.799l-3.034-5.394
					c-1.087-1.933-0.336-4.382,1.647-5.373l4.806-2.403c2.449-1.225,3.996-3.728,3.996-6.465v-40.293L130.164,190.68z"/>
			</g>
		</g>
		<g>
			<g>
				<path fill="#F9D0B4" d="M206.739,28.695l-4.734,4.604c-3.368,3.095-7.048,4.992-10.777,5.56l-5.636,1.032
					c-5.349,0.966-10.275,3.543-14.119,7.387c-3.586,3.586-3.15,3.15-6.343,6.343c-2.259,2.259-2.259,5.955,0,8.214
					s5.955,2.259,8.214,0l4.609-4.521l29.416,29.479l6.655-6.655c1.649-1.648,3.028-3.545,4.089-5.621l1.901-3.719
					c1.165-2.279,2.68-4.362,4.49-6.172l9.083-9.083L206.739,28.695z"/>
			</g>
		</g>
		<g>
			<g>
				<path fill="#F9D0B4" d="M207.139,86.566c-3.477-3.477-24.247-24.301-24.247-24.301l-4.94-4.951l-4.609,4.521
					c-2.24,2.24-5.894,2.258-8.158,0.055c-2.32-2.259-2.234-6.091,0.055-8.38c3.072-3.072,2.688-2.688,6.232-6.232
					c1.897-1.896,4.058-3.483,6.403-4.722c-2.407-1.271-5.007-2.176-7.716-2.665l-5.636-1.032c-3.729-0.567-7.41-2.465-10.777-5.56
					l-4.735-4.604l-26.847,26.848l9.083,9.083c1.81,1.81,3.325,3.893,4.49,6.172l1.901,3.719c1.061,2.076,2.441,3.973,4.089,5.621
					c7.403,7.403,24.706,24.706,30.654,30.654l0,0c1.985,1.984,5.217,2.167,7.294,0.279c2.216-2.016,2.279-5.449,0.186-7.545
					l5.163,5.163c2.036,2.033,5.335,2.032,7.37-0.002c2.036-2.036,2.036-5.337,0-7.373c2.036,2.036,5.337,2.036,7.373,0
					c2.035-2.035,2.036-5.333,0.003-7.37c2.036,2.033,5.335,2.032,7.37-0.003h0C209.175,91.903,209.175,88.603,207.139,86.566z"/>
			</g>
		</g>
		<g>
			<g>
				<path fill="#70D6F9" d="M150.149,25.284l-9.783-9.974c-12.54,9.741-21.171,24.259-23.165,40.831l1.046,1.046
					c0.628,0.628,1.645,0.628,2.273,0l29.63-29.629C150.777,26.93,150.777,25.912,150.149,25.284z"/>
			</g>
		</g>
		<g>
			<g>
				<path fill="#5290DB" d="M215.053,15.258l-9.717,9.762c-0.628,0.628-0.628,1.646,0,2.273l29.63,29.629
					c0.628,0.628,1.645,0.628,2.273,0l1.016-1.017C236.204,39.403,227.57,24.952,215.053,15.258z"/>
			</g>
		</g>
		<g>
			<g>
				<path fill="#70D6F9" d="M63.906,22.1h-2.4v-2.3c0-1.8-1.4-3.2-3.2-3.2c-1.7,0-3.2,1.4-3.2,3.1v2.4h-2.3c-1.8,0-3.2,1.4-3.2,3.2
					c-0.1,1.7,1.3,3.2,3.2,3.2h2.3v2.3c0,1.8,1.4,3.2,3.2,3.2c1.7,0,3.2-1.4,3.2-3.1v-2.4h2.3c1.8,0,3.2-1.4,3.2-3.2
					C67.006,23.6,65.606,22.1,63.906,22.1z"/>
			</g>
		</g>
		<g>
			<g>
				<path fill="#F5C84C" d="M90.206,0c-1.878,0-3.4,1.522-3.4,3.4c0,1.878,1.522,3.4,3.4,3.4c1.878,0,3.4-1.522,3.4-3.4
					C93.606,1.522,92.083,0,90.206,0z"/>
			</g>
		</g>
		<g>
			<g>
				<path fill="#87D147" d="M30.15,164.175c-3.1-0.6-5.6-3-6.2-6.1c0-0.1-0.3-0.1-0.3,0c-0.6,3.1-3.1,5.5-6.2,6.1
					c-0.1,0-0.1,0.2,0,0.3c3.1,0.6,5.6,3,6.2,6.1c0,0.1,0.3,0.1,0.3,0c0.6-3.1,3.1-5.5,6.2-6.1
					C30.25,164.375,30.25,164.175,30.15,164.175z"/>
			</g>
		</g>
		<g>
			<g>
				<circle fill="#FC657E" cx="195.369" cy="210.4" r="3.4"/>
			</g>
		</g>
		<g>
			<g>
				<path fill="#F5C84C" d="M220.15,177.2c-4.5-0.8-8-4.3-8.9-8.7c0-0.2-0.4-0.2-0.4,0c-0.9,4.4-4.4,7.9-8.9,8.7
					c-0.2,0-0.2,0.3,0,0.4c4.5,0.8,8,4.3,8.9,8.7c0,0.2,0.4,0.2,0.4,0c0.9-4.4,4.4-7.9,8.9-8.7
					C220.35,177.5,220.35,177.2,220.15,177.2z"/>
			</g>
		</g>
		<g>
			<g>
				<path d="M135.828,105.786c-1.381,0-2.5,1.119-2.5,2.5v29.987c0,20.448-16.637,37.085-37.085,37.085
					s-37.085-16.637-37.085-37.085v-33.222c0-4.639,1.763-9.042,4.978-12.414c1.683-1.767,4.426-1.946,6.381-0.417
					c5.098,3.99,13.706,8.746,25.77,8.746c12.041,0,20.612-4.742,25.685-8.723c0.246-0.192,0.511-0.361,0.789-0.501
					c1.233-0.621,1.729-2.124,1.109-3.357c-0.621-1.234-2.125-1.729-3.357-1.109c-0.575,0.29-1.124,0.639-1.629,1.036
					c-4.45,3.492-11.983,7.654-22.597,7.654c-10.639,0-18.21-4.179-22.688-7.684c-3.99-3.123-9.613-2.731-13.095,0.919
					c-4.092,4.291-6.345,9.92-6.345,15.85v33.222c0,23.206,18.879,42.085,42.085,42.085s42.085-18.879,42.085-42.085v-29.987
					C138.328,106.905,137.209,105.786,135.828,105.786z"/>
			</g>
		</g>
		<g>
			<g>
				<path d="M152.225,230.275c-1.381,0-2.5,1.119-2.5,2.5v19.392c0,1.381,1.119,2.5,2.5,2.5s2.5-1.119,2.5-2.5v-19.392
					C154.725,231.395,153.605,230.275,152.225,230.275z"/>
			</g>
		</g>
		<g>
			<g>
				<path d="M40.262,230.275c-1.381,0-2.5,1.119-2.5,2.5v19.558c0,1.381,1.119,2.5,2.5,2.5s2.5-1.119,2.5-2.5v-19.558
					C42.762,231.395,41.643,230.275,40.262,230.275z"/>
			</g>
		</g>
		<g>
			<g>
				<path d="M156.834,119.799c-0.302-1.346-1.634-2.193-2.987-1.892c-1.347,0.303-2.193,1.64-1.892,2.987
					c0.292,1.302,0.44,2.56,0.44,3.737c0,7.734-6.293,14.026-14.027,14.026c-0.357,0-0.711-0.018-1.061-0.048
					c-1.372-0.126-2.589,0.896-2.709,2.271c-0.121,1.375,0.896,2.588,2.271,2.709c0.494,0.044,0.992,0.067,1.498,0.067
					c10.492,0,19.027-8.535,19.027-19.026C157.396,123.086,157.207,121.46,156.834,119.799z"/>
			</g>
		</g>
		<g>
			<g>
				<path d="M54.117,110.604c0.534,0,1.082,0.033,1.629,0.1c1.374,0.156,2.615-0.813,2.781-2.184
					c0.165-1.37-0.813-2.615-2.184-2.781c-0.743-0.089-1.493-0.135-2.227-0.135c-10.491,0-19.026,8.535-19.026,19.027
					c0,10.491,8.535,19.026,19.026,19.026c0.669,0,1.343-0.041,2.061-0.126c1.371-0.161,2.353-1.403,2.19-2.774
					c-0.161-1.372-1.418-2.353-2.774-2.19c-0.522,0.061-1.005,0.091-1.477,0.091c-7.734,0-14.026-6.292-14.026-14.026
					S46.383,110.604,54.117,110.604z"/>
			</g>
		</g>
		<g>
			<g>
				<path d="M118.013,48.811c-9.162-3.151-21.886-3.563-35.828-1.154c-22.532,3.892-38.887,23.306-38.887,46.162v16.123
					c0,1.381,1.119,2.5,2.5,2.5s2.5-1.119,2.5-2.5V93.818c0-20.417,14.609-37.759,34.738-41.234
					c13.124-2.267,24.971-1.927,33.35,0.955c1.31,0.451,2.729-0.245,3.178-1.551S119.318,49.26,118.013,48.811z"/>
			</g>
		</g>
		<g>
			<g>
				<path d="M130.447,188.558l-5.548-4.846c-1.095-0.956-2.495-1.425-3.947-1.332c-1.451,0.099-2.776,0.756-3.731,1.851
					l-16.498,18.888c-0.956,1.095-1.43,2.497-1.331,3.948c0.098,1.45,0.755,2.775,1.85,3.731l8.869,7.747
					c1.001,0.874,2.257,1.344,3.572,1.344c0.125,0,0.25-0.004,0.375-0.013c1.45-0.098,2.775-0.755,3.732-1.85l8.103-9.277
					c0.908-1.04,0.802-2.619-0.238-3.527c-1.039-0.908-2.619-0.802-3.527,0.238l-8.103,9.276c-0.1,0.115-0.22,0.146-0.304,0.151
					c-0.085,0.007-0.206-0.009-0.32-0.108l-8.87-7.747c-0.114-0.1-0.145-0.22-0.15-0.304c-0.006-0.083,0.009-0.206,0.108-0.32
					l16.499-18.89c0.099-0.113,0.219-0.144,0.302-0.149c0.083-0.014,0.207,0.008,0.321,0.108l5.548,4.846
					c1.037,0.907,2.618,0.803,3.527-0.238C131.594,191.045,131.487,189.466,130.447,188.558z"/>
			</g>
		</g>
		<g>
			<g>
				<path d="M91.764,203.119L75.266,184.23c-0.956-1.096-2.282-1.752-3.732-1.851c-1.449-0.094-2.852,0.376-3.946,1.332
					l-5.472,4.778c-1.04,0.908-1.146,2.487-0.238,3.527c0.907,1.039,2.488,1.146,3.527,0.238l5.473-4.778
					c0.112-0.1,0.229-0.12,0.32-0.108c0.083,0.006,0.203,0.036,0.303,0.15l16.498,18.889c0.16,0.184,0.142,0.464-0.042,0.624
					l-8.87,7.747c-0.114,0.1-0.24,0.117-0.321,0.108c-0.083-0.006-0.203-0.036-0.303-0.15l-8.03-9.193
					c-0.909-1.042-2.488-1.146-3.527-0.238c-1.04,0.908-1.146,2.487-0.238,3.527l8.03,9.193c0.956,1.095,2.281,1.752,3.731,1.85
					c0.125,0.009,0.25,0.013,0.375,0.013c1.315,0,2.571-0.47,3.572-1.344l8.87-7.747C93.505,208.825,93.738,205.38,91.764,203.119z"
					/>
			</g>
		</g>
		<g>
			<g>
				<path d="M78.006,171.231c-1.381,0-2.5,1.119-2.5,2.5v6.077c0,2.216-0.655,4.365-1.896,6.216c-0.769,1.147-0.461,2.7,0.686,3.469
					c0.428,0.286,0.911,0.423,1.39,0.423c0.806,0,1.597-0.389,2.079-1.108c1.793-2.678,2.741-5.789,2.741-8.999v-6.077
					C80.506,172.351,79.387,171.231,78.006,171.231z"/>
			</g>
		</g>
		<g>
			<g>
				<path d="M118.903,186.066c-1.259-1.86-1.924-4.024-1.924-6.258v-5.968c0-1.381-1.119-2.5-2.5-2.5s-2.5,1.119-2.5,2.5v5.968
					c0,3.235,0.962,6.368,2.781,9.059c0.483,0.715,1.271,1.1,2.073,1.1c0.482,0,0.97-0.139,1.398-0.429
					C119.376,188.764,119.677,187.21,118.903,186.066z"/>
			</g>
		</g>
		<g>
			<g>
				<path d="M116.627,251H75.859c-1.381,0-2.5,1.119-2.5,2.5s1.119,2.5,2.5,2.5h40.768c1.381,0,2.5-1.119,2.5-2.5
					S118.008,251,116.627,251z"/>
			</g>
		</g>
		<g>
			<g>
				<g>
					<g>
						<path d="M78.328,253.104l-9.704-60.497c-0.254-1.58-1.185-2.961-2.552-3.79c-1.367-0.83-3.022-1.017-4.541-0.51
							c0,0,0,0-0.001,0l-25.883,8.628c-9.668,3.224-16.626,11.852-17.728,21.982l-3.117,28.674
							c-0.233,2.139,0.457,4.284,1.895,5.887c1.437,1.603,3.496,2.521,5.648,2.521h53.514c0.732,0,1.428-0.321,1.902-0.878
							C78.237,254.564,78.443,253.827,78.328,253.104z M22.346,251c-0.745,0-1.429-0.306-1.927-0.86
							c-0.497-0.554-0.727-1.267-0.646-2.007l3.117-28.674c0.891-8.194,6.519-15.173,14.339-17.779l25.883-8.628
							c0.157-0.057,0.288-0.008,0.368,0.041c0.079,0.048,0.18,0.141,0.206,0.307L72.927,251H22.346z"/>
					</g>
				</g>
			</g>
		</g>
		<g>
			<g>
				<g>
					<g>
						<path d="M177.684,247.592l-3.118-28.674c-1.102-10.131-8.06-18.76-17.728-21.982l-25.883-8.628c-0.001,0-0.001,0-0.001,0
							c-1.518-0.507-3.173-0.32-4.541,0.51s-2.298,2.211-2.551,3.791l-9.704,60.496c-0.115,0.723,0.091,1.46,0.566,2.018
							c0.475,0.557,1.17,0.878,1.902,0.878h53.513c2.152,0,4.211-0.919,5.648-2.521S177.916,249.731,177.684,247.592z
							 M172.066,250.141c-0.497,0.554-1.182,0.859-1.927,0.859h-50.58l9.24-57.601c0.026-0.166,0.127-0.259,0.206-0.307
							c0.08-0.049,0.212-0.095,0.367-0.041l25.883,8.628c7.82,2.606,13.448,9.585,14.339,17.779l3.118,28.674
							C172.793,248.873,172.563,249.586,172.066,250.141z"/>
					</g>
				</g>
			</g>
		</g>
		<g>
			<g>
				<g>
					<path d="M109.15,146.813c-1.058-0.888-2.634-0.751-3.521,0.309c-1.944,2.318-5.238,3.702-8.811,3.702s-6.865-1.384-8.809-3.702
						c-0.89-1.06-2.464-1.197-3.522-0.31c-1.058,0.887-1.196,2.464-0.31,3.522c2.882,3.438,7.607,5.489,12.641,5.489
						s9.759-2.052,12.641-5.489C110.347,149.277,110.208,147.7,109.15,146.813z"/>
				</g>
			</g>
			<g>
				<g>
					<ellipse transform="matrix(0.9975 -0.0709 0.0709 0.9975 -8.6759 8.4474)" cx="114.677" cy="126.458" rx="5.318" ry="5.318"/>
				</g>
			</g>
			<g>
				<g>
					<ellipse transform="matrix(0.9975 -0.0709 0.0709 0.9975 -8.7658 5.9155)" cx="78.96" cy="126.458" rx="5.318" ry="5.318"/>
				</g>
			</g>
		</g>
		<g>
			<g>
				<path d="M186.791,106.92l-23.673-23.673c-0.977-0.977-2.559-0.977-3.535,0s-0.977,2.559,0,3.535l23.673,23.673
					c0.488,0.488,1.128,0.732,1.768,0.732s1.279-0.244,1.768-0.732C187.768,109.479,187.768,107.896,186.791,106.92z"/>
			</g>
		</g>
		<g>
			<g>
				<path d="M203.657,57.074c-0.369-1.33-1.743-2.108-3.078-1.738c-10.109,2.807-17.662-2.793-17.971-3.027
					c-0.981-0.757-2.372-0.679-3.263,0.183l-3.131,3.025c-0.993,0.96-1.02,2.542-0.061,3.535c0.959,0.994,2.543,1.02,3.535,0.061
					l1.705-1.647c2.486,1.44,7.318,3.657,13.495,3.656c2.188,0,4.547-0.278,7.029-0.969
					C203.249,59.783,204.027,58.404,203.657,57.074z"/>
			</g>
		</g>
		<g>
			<g>
				<path d="M201.537,92.175l-23.674-23.674c-0.977-0.977-2.559-0.977-3.535,0s-0.977,2.559,0,3.535l23.674,23.674
					c0.488,0.488,1.128,0.732,1.768,0.732s1.279-0.244,1.768-0.732C202.514,94.733,202.514,93.151,201.537,92.175z"/>
			</g>
		</g>
		<g>
			<g>
				<path d="M194.161,99.544l-23.67-23.67c-0.977-0.977-2.559-0.977-3.535,0s-0.977,2.559,0,3.535l23.67,23.67
					c0.488,0.488,1.128,0.732,1.768,0.732s1.279-0.244,1.768-0.732C195.138,102.103,195.138,100.521,194.161,99.544z"/>
			</g>
		</g>
		<g>
			<g>
				<g>
					<g>
						<path d="M177.743,0c-35.014,0-63.5,28.486-63.5,63.5s28.486,63.5,63.5,63.5s63.5-28.486,63.5-63.5S212.757,0,177.743,0z
							 M177.743,122c-32.257,0-58.5-26.243-58.5-58.5S145.486,5,177.743,5s58.5,26.243,58.5,58.5S210,122,177.743,122z"/>
					</g>
				</g>
			</g>
		</g>
		<g>
			<g>
				<path d="M105.991,223.567c-0.126-1.28-1.202-2.256-2.488-2.256H88.982c-1.286,0-2.362,0.976-2.488,2.256l-2.798,28.501
					c-0.135,1.374,0.87,2.598,2.244,2.732c0.083,0.008,0.165,0.012,0.247,0.012c1.271,0,2.358-0.965,2.485-2.256l2.576-26.245h9.987
					l2.571,26.194c0.135,1.374,1.362,2.371,2.732,2.244c1.374-0.135,2.379-1.358,2.244-2.732L105.991,223.567z"/>
			</g>
		</g>
		<g>
			<g>
				<g>
					<path d="M91.267,222.796l-4.433-9.974c-0.562-1.262-2.039-1.831-3.3-1.269c-1.262,0.561-1.83,2.038-1.269,3.3l4.433,9.974
						c0.414,0.932,1.327,1.485,2.285,1.485c0.34,0,0.685-0.069,1.015-0.217C91.26,225.535,91.828,224.058,91.267,222.796z"/>
				</g>
			</g>
			<g>
				<g>
					<path d="M100.75,204.717h-8.687c-1.381,0-2.5,1.119-2.5,2.5s1.119,2.5,2.5,2.5h8.687c1.381,0,2.5-1.119,2.5-2.5
						S102.131,204.717,100.75,204.717z"/>
				</g>
			</g>
			<g>
				<g>
					<path d="M108.871,211.734c-1.26-0.563-2.738,0.006-3.3,1.269l-4.353,9.793c-0.562,1.262,0.007,2.739,1.269,3.3
						c0.33,0.147,0.675,0.217,1.015,0.217c0.957,0,1.871-0.554,2.285-1.485l4.353-9.793
						C110.701,213.772,110.133,212.295,108.871,211.734z"/>
				</g>
			</g>
		</g>
		<g>
			<g>
				<path d="M66.812,244.335c-0.509-1.662-1.692-3.061-3.247-3.838l-4.806-2.403c-1.612-0.806-2.614-2.427-2.614-4.229v-39.524
					c0-1.381-1.119-2.5-2.5-2.5s-2.5,1.119-2.5,2.5v39.524c0,3.708,2.061,7.042,5.378,8.701l4.807,2.403
					c0.46,0.23,0.638,0.619,0.702,0.83s0.136,0.632-0.117,1.081l-2.809,4.994c-0.677,1.203-0.25,2.728,0.953,3.404
					c0.388,0.218,0.809,0.321,1.224,0.321c0.874,0,1.722-0.459,2.181-1.274l2.809-4.993
					C67.125,247.818,67.322,245.996,66.812,244.335z"/>
			</g>
		</g>
		<g>
			<g>
				<path d="M138.84,191.649c-1.381,0-2.5,1.119-2.5,2.5v39.716c0,1.802-1.002,3.423-2.614,4.229l-4.805,2.403
					c-1.555,0.776-2.738,2.175-3.247,3.836c-0.51,1.662-0.313,3.484,0.539,4.999l2.772,4.929c0.459,0.816,1.308,1.274,2.181,1.274
					c0.415,0,0.836-0.104,1.224-0.321c1.203-0.677,1.63-2.201,0.953-3.404l-2.772-4.929c-0.252-0.449-0.182-0.87-0.116-1.082
					c0.064-0.211,0.242-0.6,0.702-0.829l4.806-2.403c3.317-1.659,5.378-4.993,5.378-8.701v-39.716
					C141.34,192.769,140.221,191.649,138.84,191.649z"/>
			</g>
		</g>
		<g>
			<g>
				<path d="M234.444,54.685c-0.977-0.977-2.559-0.977-3.535,0l-8.173,8.174c-1.998,1.998-3.663,4.286-4.948,6.802l-1.902,3.719
					c-0.942,1.846-2.164,3.524-3.63,4.991l-4.886,4.886l-27.648-27.707c-0.969-0.971-2.539-0.979-3.52-0.02l-4.627,4.537
					c-1.24,1.24-3.438,1.24-4.678,0c-0.62-0.62-0.962-1.451-0.962-2.339s0.342-1.719,0.962-2.339l6.343-6.344
					c3.5-3.5,7.925-5.814,12.801-6.695l5.563-1.02c4.199-0.639,8.381-2.779,12.145-6.239l3.963-3.854
					c0.989-0.962,1.012-2.545,0.049-3.535s-2.545-1.013-3.535-0.049l-3.911,3.805c-2.978,2.735-6.249,4.44-9.536,4.941l-5.631,1.031
					c-5.878,1.062-11.218,3.854-15.441,8.079l-6.343,6.344c-3.239,3.239-3.239,8.509,0,11.748c1.564,1.564,3.65,2.427,5.874,2.427
					s4.31-0.862,5.856-2.409l2.84-2.784l27.666,27.724c0.469,0.47,1.104,0.734,1.769,0.734h0.001c0.663,0,1.299-0.264,1.768-0.732
					l6.655-6.655c1.837-1.837,3.367-3.939,4.547-6.251l1.901-3.719c1.048-2.05,2.404-3.914,4.032-5.542l8.173-8.174
					C235.421,57.243,235.421,55.66,234.444,54.685z"/>
			</g>
		</g>
		<g>
			<g>
				<path d="M178.671,40.152c-2.548-1.3-5.262-2.216-8.062-2.721l-5.71-1.045c-3.213-0.488-6.485-2.193-9.411-4.88l-3.963-3.854
					c-0.991-0.963-2.572-0.94-3.535,0.049c-0.963,0.99-0.94,2.573,0.049,3.535l4.015,3.902c3.712,3.411,7.894,5.552,12.02,6.178
					l5.642,1.033c2.324,0.42,4.573,1.179,6.685,2.255c0.363,0.186,0.752,0.274,1.134,0.274c0.91,0,1.787-0.499,2.229-1.365
					C180.39,42.285,179.901,40.779,178.671,40.152z"/>
			</g>
		</g>
		<g>
			<g>
				<path d="M208.906,84.799c-0.977-0.977-2.559-0.977-3.535,0s-0.977,2.559,0,3.535c1.058,1.059,1.058,2.779-0.001,3.838
					c-1.055,1.057-2.771,1.058-3.83,0.005c-0.001,0-0.001-0.001-0.002-0.001c0-0.001-0.001-0.002-0.002-0.002
					c-0.977-0.977-2.558-0.976-3.534,0.001c-0.976,0.976-0.977,2.558-0.002,3.534c1.057,1.058,1.057,2.778-0.001,3.835
					c-1.059,1.059-2.781,1.059-3.838,0c-0.977-0.975-2.56-0.976-3.536,0.001c-0.487,0.488-0.731,1.128-0.731,1.769
					c0,0.64,0.244,1.279,0.732,1.768c0.513,0.512,0.795,1.192,0.795,1.917c0,0.726-0.282,1.406-0.795,1.919
					c-1.057,1.058-2.776,1.058-3.835,0.003l-5.162-5.162c-0.977-0.977-2.559-0.976-3.535-0.001
					c-0.976,0.976-0.977,2.559-0.001,3.535c0.528,0.529,0.81,1.233,0.792,1.982c-0.019,0.748-0.335,1.439-0.893,1.945
					c-1.053,0.957-2.776,0.869-3.844-0.196L143.494,78.37c-1.466-1.467-2.688-3.146-3.63-4.991l-1.901-3.719
					c-1.285-2.516-2.95-4.804-4.948-6.802l-8.397-8.396c-0.977-0.977-2.559-0.977-3.535,0s-0.977,2.56,0,3.535l8.397,8.396
					c1.628,1.628,2.984,3.492,4.031,5.542l1.9,3.719c1.181,2.312,2.711,4.414,4.548,6.251l30.655,30.653
					c1.555,1.555,3.585,2.341,5.605,2.341c1.845,0,3.682-0.656,5.137-1.98c0.794-0.722,1.415-1.577,1.844-2.52l0.057,0.057
					c3.008,3.004,7.9,3.002,10.904-0.003c1.379-1.379,2.172-3.188,2.253-5.125c1.862-0.08,3.701-0.83,5.12-2.248
					c1.42-1.42,2.17-3.261,2.249-5.124c1.863-0.079,3.704-0.829,5.123-2.249C211.914,92.7,211.914,87.806,208.906,84.799z"/>
			</g>
		</g>
		<g>
			<g>
				<g>
					<g>
						<path d="M151.935,23.533l-9.045-9.221c-0.969-0.986-2.55-0.999-3.536-0.034c-0.985,0.968-1.001,2.55-0.034,3.536l8.437,8.6
							l-28.373,28.374c-0.979-0.955-2.547-0.946-3.515,0.023c-0.976,0.978-0.974,2.561,0.003,3.536l0.606,0.605
							c0.776,0.776,1.808,1.204,2.905,1.204c1.097,0,2.129-0.427,2.904-1.203l29.63-29.63
							C153.518,27.725,153.518,25.119,151.935,23.533z"/>
					</g>
				</g>
			</g>
		</g>
		<g>
			<g>
				<path d="M239.831,54.327c-0.978-0.976-2.56-0.976-3.535,0.002l-0.193,0.193l-28.369-28.367l8.528-8.568
					c0.975-0.979,0.971-2.562-0.008-3.535c-0.979-0.976-2.562-0.972-3.535,0.008l-9.152,9.193c-1.598,1.601-1.598,4.206,0.002,5.808
					l29.63,29.629c0.801,0.801,1.853,1.201,2.904,1.201s2.104-0.4,2.905-1.202l0.825-0.826
					C240.809,56.886,240.808,55.303,239.831,54.327z"/>
			</g>
		</g>
	</g>
</g>
<g id="Layer_80">
</g>
</svg>
