<?xml version="1.0" encoding="utf-8"?>
<!-- Generator: Adobe Illustrator 24.0.0, SVG Export Plug-In . SVG Version: 6.00 Build 0)  -->
<svg version="1.1" xmlns="http://www.w3.org/2000/svg" xmlns:xlink="http://www.w3.org/1999/xlink" x="0px" y="0px"
	 viewBox="0 0 256 256" enable-background="new 0 0 256 256" xml:space="preserve">
<g id="Layer_1">
</g>
<g id="Layer_2">
</g>
<g id="Layer_3">
</g>
<g id="Layer_4">
</g>
<g id="Layer_5">
</g>
<g id="Layer_6">
</g>
<g id="Layer_7">
</g>
<g id="Layer_8">
</g>
<g id="Layer_9">
</g>
<g id="Layer_10">
</g>
<g id="Layer_11">
</g>
<g id="Layer_12">
</g>
<g id="Layer_13">
</g>
<g id="Layer_14">
</g>
<g id="Layer_15">
</g>
<g id="Layer_16">
</g>
<g id="Layer_17">
</g>
<g id="Layer_18">
</g>
<g id="Layer_19">
</g>
<g id="Layer_20">
</g>
<g id="Layer_21">
</g>
<g id="Layer_22">
</g>
<g id="Layer_23">
</g>
<g id="Layer_24">
</g>
<g id="Layer_25">
</g>
<g id="Layer_26">
</g>
<g id="Layer_27">
</g>
<g id="Layer_28">
</g>
<g id="Layer_29">
</g>
<g id="Layer_30">
</g>
<g id="Layer_31">
	<g>
		<g>
			<g>
				<path fill="#5290DB" d="M109.631,92.469c-2.141-0.39-4.347-0.594-6.601-0.594c-2.254,0-4.46,0.204-6.601,0.594
					c-8.496,1.548-15.038,8.065-16.94,16.29c6.151,0.95,10.866,6.239,10.895,12.648h24.302c0.03-6.737,5.236-12.242,11.846-12.764
					C124.597,100.474,118.086,94.01,109.631,92.469z"/>
			</g>
		</g>
		<g>
			<g>
				
					<ellipse transform="matrix(0.9239 -0.3827 0.3827 0.9239 -22.36 45.2387)" fill="#F9D0B4" cx="102.535" cy="78.825" rx="12.874" ry="12.874"/>
			</g>
		</g>
		<g>
			<g>
				<path fill="#F5C84C" d="M159.675,92.469c-2.141-0.39-4.347-0.594-6.601-0.594c-2.254,0-4.46,0.204-6.601,0.594
					c-8.496,1.548-15.038,8.065-16.94,16.29c6.151,0.95,10.866,6.239,10.895,12.648h24.302c0.03-6.737,5.236-12.242,11.847-12.764
					C174.641,100.474,168.13,94.01,159.675,92.469z"/>
			</g>
		</g>
		<g>
			<g>
				<circle fill="#F9D0B4" cx="152.579" cy="78.825" r="12.874"/>
			</g>
		</g>
		<g>
			<g>
				<path fill="#70D6F9" d="M101.792,152.616c-1.511-8.793-8.273-15.882-17.183-17.505c-2.141-0.39-4.347-0.594-6.601-0.594
					s-4.46,0.204-6.601,0.594c-9.304,1.695-16.284,9.344-17.37,18.677c-0.064,0.55-0.081,1.106-0.081,1.66v6.092
					c0,1.386,1.123,2.509,2.509,2.509h42.981c1.386,0,2.509-1.124,2.509-2.509v-6.654
					C101.956,154.126,101.92,153.364,101.792,152.616z"/>
			</g>
		</g>
		<g>
			<g>
				
					<ellipse transform="matrix(0.9951 -0.0985 0.0985 0.9951 -11.5917 8.229)" fill="#F9D0B4" cx="77.513" cy="121.466" rx="12.874" ry="12.874"/>
			</g>
		</g>
		<g>
			<g>
				<path fill="#87D147" d="M151.836,152.616c-1.511-8.793-8.273-15.882-17.183-17.505c-2.141-0.39-4.347-0.594-6.601-0.594
					c-2.254,0-4.46,0.204-6.601,0.594c-9.304,1.695-16.284,9.344-17.37,18.677c-0.064,0.55-0.081,1.106-0.081,1.66v6.092
					c0,1.386,1.124,2.509,2.509,2.509h42.981c1.386,0,2.509-1.124,2.509-2.509v-6.654C152,154.126,151.965,153.364,151.836,152.616z
					"/>
			</g>
		</g>
		<g>
			<g>
				
					<ellipse transform="matrix(0.1602 -0.9871 0.9871 0.1602 -12.7729 227.9193)" fill="#F9D0B4" cx="127.557" cy="121.466" rx="12.874" ry="12.874"/>
			</g>
		</g>
		<g>
			<g>
				<path fill="#B598F9" d="M201.88,152.616c-1.511-8.793-8.273-15.882-17.183-17.505c-2.141-0.39-4.347-0.594-6.601-0.594
					c-2.254,0-4.46,0.204-6.601,0.594c-9.304,1.695-16.284,9.344-17.37,18.677c-0.064,0.55-0.081,1.106-0.081,1.66v6.092
					c0,1.386,1.124,2.509,2.509,2.509h42.981c1.386,0,2.51-1.124,2.51-2.509v-6.654C202.044,154.126,202.009,153.364,201.88,152.616
					z"/>
			</g>
		</g>
		<g>
			<g>
				<circle fill="#F9D0B4" cx="177.601" cy="121.466" r="12.874"/>
			</g>
		</g>
		<g>
			<g>
				<g>
					<g>
						<path fill="#FC657E" d="M128,22C69.551,22,22,69.551,22,128s47.551,106,106,106s106-47.551,106-106S186.449,22,128,22z
							 M128,221.5c-51.639,0-93.5-41.861-93.5-93.5S76.361,34.5,128,34.5s93.5,41.861,93.5,93.5S179.639,221.5,128,221.5z"/>
					</g>
				</g>
			</g>
		</g>
		<g>
			<g>
				<path d="M113.531,118.908H91.5c-1.381,0-2.5,1.119-2.5,2.5s1.119,2.5,2.5,2.5h22.031c1.381,0,2.5-1.119,2.5-2.5
					S114.912,118.908,113.531,118.908z"/>
			</g>
		</g>
		<g>
			<g>
				<path d="M128.906,107.823c-2.269-9.15-9.659-16.142-18.827-17.813c-4.623-0.843-9.475-0.843-14.098,0
					c-9.064,1.651-16.434,8.543-18.773,17.558c-0.347,1.336,0.456,2.701,1.792,3.048c1.335,0.35,2.701-0.455,3.048-1.792
					c1.853-7.137,7.673-12.591,14.83-13.895c4.034-0.734,8.273-0.734,12.305,0c7.237,1.318,13.074,6.852,14.87,14.097
					c0.282,1.138,1.303,1.899,2.425,1.899c0.199,0,0.401-0.024,0.604-0.074C128.421,110.519,129.238,109.163,128.906,107.823z"/>
			</g>
		</g>
		<g>
			<g>
				<g>
					<g>
						<path d="M102.535,63.451c-8.477,0-15.374,6.897-15.374,15.374s6.896,15.374,15.374,15.374s15.374-6.896,15.374-15.374
							S111.012,63.451,102.535,63.451z M102.535,89.199c-5.72,0-10.374-4.653-10.374-10.374s4.653-10.374,10.374-10.374
							s10.374,4.654,10.374,10.374S108.255,89.199,102.535,89.199z"/>
					</g>
				</g>
			</g>
		</g>
		<g>
			<g>
				<path d="M164,118.908h-22.781c-1.381,0-2.5,1.119-2.5,2.5s1.119,2.5,2.5,2.5H164c1.381,0,2.5-1.119,2.5-2.5
					S165.381,118.908,164,118.908z"/>
			</g>
		</g>
		<g>
			<g>
				<path d="M178.898,107.617c-2.325-9.042-9.695-15.953-18.775-17.607c-4.623-0.842-9.476-0.842-14.097,0
					c-9.053,1.649-16.419,8.529-18.767,17.529c-0.349,1.336,0.452,2.701,1.788,3.05c1.338,0.35,2.701-0.453,3.05-1.788
					c1.859-7.125,7.678-12.57,14.825-13.872c4.032-0.734,8.271-0.734,12.305,0c7.167,1.306,12.988,6.775,14.829,13.933
					c0.291,1.128,1.306,1.878,2.419,1.878c0.206,0,0.416-0.025,0.625-0.079C178.437,110.317,179.242,108.955,178.898,107.617z"/>
			</g>
		</g>
		<g>
			<g>
				<g>
					<g>
						<path d="M152.579,63.451c-8.477,0-15.374,6.897-15.374,15.374s6.897,15.374,15.374,15.374s15.374-6.896,15.374-15.374
							S161.056,63.451,152.579,63.451z M152.579,89.199c-5.72,0-10.374-4.653-10.374-10.374s4.654-10.374,10.374-10.374
							s10.374,4.654,10.374,10.374S158.299,89.199,152.579,89.199z"/>
					</g>
				</g>
			</g>
		</g>
		<g>
			<g>
				<g>
					<g>
						<path d="M104.256,152.193L104.256,152.193c-1.703-9.907-9.418-17.76-19.199-19.542c-4.625-0.842-9.472-0.842-14.098,0
							c-10.375,1.891-18.173,10.268-19.406,20.848c-0.087,0.75-0.097,1.472-0.097,1.949v6.092c0,2.762,2.248,5.009,5.01,5.009h42.98
							c2.762,0,5.009-2.247,5.009-5.009v-6.654C104.456,153.842,104.392,152.986,104.256,152.193z M99.446,161.549l-42.99-0.009
							v-6.092c0-0.569,0.02-0.992,0.064-1.372c0.976-8.379,7.139-15.013,15.335-16.506c2.018-0.367,4.088-0.553,6.153-0.553
							c2.065,0,4.136,0.186,6.153,0.553c7.724,1.407,13.819,7.624,15.167,15.47c0.087,0.507,0.127,1.093,0.127,1.846L99.446,161.549
							z"/>
					</g>
				</g>
			</g>
		</g>
		<g>
			<g>
				<g>
					<g>
						<path d="M77.513,106.092c-8.477,0-15.374,6.897-15.374,15.374s6.896,15.374,15.374,15.374s15.374-6.896,15.374-15.374
							S85.99,106.092,77.513,106.092z M77.513,131.84c-5.72,0-10.374-4.653-10.374-10.374s4.653-10.374,10.374-10.374
							s10.374,4.654,10.374,10.374S83.233,131.84,77.513,131.84z"/>
					</g>
				</g>
			</g>
		</g>
		<g>
			<g>
				<g>
					<g>
						<path d="M154.3,152.193L154.3,152.193c-1.703-9.907-9.418-17.76-19.199-19.542c-4.625-0.842-9.472-0.842-14.098,0
							c-10.375,1.891-18.173,10.268-19.405,20.845c-0.067,0.576-0.098,1.178-0.098,1.952v6.092c0,2.762,2.247,5.009,5.009,5.009
							h42.98c2.762,0,5.009-2.247,5.009-5.009v-6.654C154.5,153.842,154.436,152.986,154.3,152.193z M149.49,161.549l-42.99-0.009
							v-6.092c0-0.572,0.02-0.994,0.064-1.372c0.976-8.379,7.138-15.013,15.334-16.506c2.018-0.367,4.088-0.553,6.153-0.553
							c2.065,0,4.135,0.186,6.152,0.553c7.724,1.407,13.819,7.624,15.167,15.47c0.087,0.507,0.127,1.093,0.127,1.846L149.49,161.549
							z"/>
					</g>
				</g>
			</g>
		</g>
		<g>
			<g>
				<g>
					<g>
						<path d="M127.557,106.092c-8.477,0-15.374,6.897-15.374,15.374s6.897,15.374,15.374,15.374s15.374-6.896,15.374-15.374
							S136.034,106.092,127.557,106.092z M127.557,131.84c-5.72,0-10.374-4.653-10.374-10.374s4.654-10.374,10.374-10.374
							s10.374,4.654,10.374,10.374S133.277,131.84,127.557,131.84z"/>
					</g>
				</g>
			</g>
		</g>
		<g>
			<g>
				<g>
					<g>
						<path d="M204.344,152.192c-1.703-9.906-9.418-17.759-19.199-19.541c-4.625-0.842-9.472-0.842-14.098,0
							c-10.375,1.891-18.173,10.268-19.405,20.848c-0.087,0.75-0.097,1.472-0.097,1.949v6.092c0,2.762,2.247,5.009,5.009,5.009
							h42.98c2.762,0,5.01-2.247,5.01-5.009v-6.654C204.544,153.841,204.48,152.985,204.344,152.192z M199.534,161.549l-42.99-0.009
							v-6.092c0-0.569,0.02-0.992,0.064-1.372c0.976-8.379,7.138-15.013,15.334-16.506c2.018-0.367,4.088-0.553,6.153-0.553
							c2.065,0,4.135,0.186,6.152,0.553c7.724,1.407,13.819,7.624,15.167,15.47v0.001c0.087,0.506,0.128,1.092,0.128,1.845
							L199.534,161.549z"/>
					</g>
				</g>
			</g>
		</g>
		<g>
			<g>
				<g>
					<g>
						<path d="M177.601,106.092c-8.477,0-15.374,6.897-15.374,15.374s6.897,15.374,15.374,15.374s15.374-6.896,15.374-15.374
							S186.078,106.092,177.601,106.092z M177.601,131.84c-5.72,0-10.374-4.653-10.374-10.374s4.654-10.374,10.374-10.374
							s10.374,4.654,10.374,10.374S183.321,131.84,177.601,131.84z"/>
					</g>
				</g>
			</g>
		</g>
		<g>
			<g>
				<g>
					<g>
						<path d="M128,19.5C68.173,19.5,19.5,68.173,19.5,128S68.173,236.5,128,236.5S236.5,187.827,236.5,128S187.827,19.5,128,19.5z
							 M128,231.5c-57.07,0-103.5-46.43-103.5-103.5S70.93,24.5,128,24.5S231.5,70.93,231.5,128S185.07,231.5,128,231.5z M128,32
							c-52.935,0-96,43.065-96,96s43.065,96,96,96s96-43.065,96-96S180.935,32,128,32z M128,219c-50.178,0-91-40.822-91-91
							s40.822-91,91-91s91,40.822,91,91S178.178,219,128,219z"/>
					</g>
				</g>
			</g>
		</g>
		<g>
			<g>
				<path d="M128,8c-1.381,0-2.5,1.119-2.5,2.5v35c0,1.381,1.119,2.5,2.5,2.5s2.5-1.119,2.5-2.5v-35C130.5,9.119,129.381,8,128,8z"
					/>
			</g>
		</g>
		<g>
			<g>
				<path d="M128,208c-1.381,0-2.5,1.119-2.5,2.5v35c0,1.381,1.119,2.5,2.5,2.5s2.5-1.119,2.5-2.5v-35
					C130.5,209.119,129.381,208,128,208z"/>
			</g>
		</g>
		<g>
			<g>
				<path d="M45.5,125.5h-35c-1.381,0-2.5,1.119-2.5,2.5s1.119,2.5,2.5,2.5h35c1.381,0,2.5-1.119,2.5-2.5S46.881,125.5,45.5,125.5z"
					/>
			</g>
		</g>
		<g>
			<g>
				<path d="M245.5,125.5h-35c-1.381,0-2.5,1.119-2.5,2.5s1.119,2.5,2.5,2.5h35c1.381,0,2.5-1.119,2.5-2.5
					S246.881,125.5,245.5,125.5z"/>
			</g>
		</g>
		<g>
			<g>
				<path fill="#70D6F9" d="M48.906,227.1h-2.4v-2.3c0-1.8-1.4-3.2-3.2-3.2c-1.7,0-3.2,1.4-3.2,3.1v2.4h-2.3c-1.8,0-3.2,1.4-3.2,3.2
					c-0.1,1.7,1.3,3.2,3.2,3.2h2.3v2.3c0,1.8,1.4,3.2,3.2,3.2c1.7,0,3.2-1.4,3.2-3.1v-2.4h2.3c1.8,0,3.2-1.4,3.2-3.2
					C52.006,228.6,50.606,227.1,48.906,227.1z"/>
			</g>
		</g>
		<g>
			<g>
				<circle fill="#F5C84C" cx="77.206" cy="252.6" r="3.4"/>
			</g>
		</g>
		<g>
			<g>
				<path fill="#87D147" d="M216.15,223.175c-3.1-0.6-5.6-3-6.2-6.1c0-0.1-0.3-0.1-0.3,0c-0.6,3.1-3.1,5.5-6.2,6.1
					c-0.1,0-0.1,0.2,0,0.3c3.1,0.6,5.6,3,6.2,6.1c0,0.1,0.3,0.1,0.3,0c0.6-3.1,3.1-5.5,6.2-6.1
					C216.25,223.375,216.25,223.175,216.15,223.175z"/>
			</g>
		</g>
		<g>
			<g>
				<path fill="#FC657E" d="M168.369,0c-1.878,0-3.4,1.522-3.4,3.4c0,1.878,1.522,3.4,3.4,3.4c1.878,0,3.4-1.522,3.4-3.4
					C171.769,1.522,170.246,0,168.369,0z"/>
			</g>
		</g>
		<g>
			<g>
				<path fill="#F5C84C" d="M211.15,19.2c-4.5-0.8-8-4.3-8.9-8.7c0-0.2-0.4-0.2-0.4,0c-0.9,4.4-4.4,7.9-8.9,8.7
					c-0.2,0-0.2,0.3,0,0.4c4.5,0.8,8,4.3,8.9,8.7c0,0.2,0.4,0.2,0.4,0c0.9-4.4,4.4-7.9,8.9-8.7C211.35,19.5,211.35,19.2,211.15,19.2
					z"/>
			</g>
		</g>
	</g>
</g>
<g id="Layer_32">
</g>
<g id="Layer_33">
</g>
<g id="Layer_34">
</g>
<g id="Layer_35">
</g>
<g id="Layer_36">
</g>
<g id="Layer_37">
</g>
<g id="Layer_38">
</g>
<g id="Layer_39">
</g>
<g id="Layer_40">
</g>
<g id="Layer_41">
</g>
<g id="Layer_42">
</g>
<g id="Layer_43">
</g>
<g id="Layer_44">
</g>
<g id="Layer_45">
</g>
<g id="Layer_46">
</g>
<g id="Layer_47">
</g>
<g id="Layer_48">
</g>
<g id="Layer_49">
</g>
<g id="Layer_50">
</g>
<g id="Layer_51">
</g>
<g id="Layer_52">
</g>
<g id="Layer_53">
</g>
<g id="Layer_54">
</g>
<g id="Layer_55">
</g>
<g id="Layer_56">
</g>
<g id="Layer_57">
</g>
<g id="Layer_58">
</g>
<g id="Layer_59">
</g>
<g id="Layer_60">
</g>
<g id="Layer_61">
</g>
<g id="Layer_62">
</g>
<g id="Layer_63">
</g>
<g id="Layer_64">
</g>
<g id="Layer_65">
</g>
<g id="Layer_66">
</g>
<g id="Layer_67">
</g>
<g id="Layer_68">
</g>
<g id="Layer_69">
</g>
<g id="Layer_70">
</g>
<g id="Layer_71">
</g>
<g id="Layer_72">
</g>
<g id="Layer_73">
</g>
<g id="Layer_74">
</g>
<g id="Layer_75">
</g>
<g id="Layer_76">
</g>
<g id="Layer_77">
</g>
<g id="Layer_78">
</g>
<g id="Layer_79">
</g>
<g id="Layer_80">
</g>
</svg>
