<?xml version="1.0" encoding="utf-8"?>
<!-- Generator: Adobe Illustrator 24.0.0, SVG Export Plug-In . SVG Version: 6.00 Build 0)  -->
<svg version="1.1" xmlns="http://www.w3.org/2000/svg" xmlns:xlink="http://www.w3.org/1999/xlink" x="0px" y="0px"
	 viewBox="0 0 256 256" enable-background="new 0 0 256 256" xml:space="preserve">
<g id="Layer_1">
</g>
<g id="Layer_2">
</g>
<g id="Layer_3">
</g>
<g id="Layer_4">
</g>
<g id="Layer_5">
</g>
<g id="Layer_6">
</g>
<g id="Layer_7">
</g>
<g id="Layer_8">
</g>
<g id="Layer_9">
</g>
<g id="Layer_10">
</g>
<g id="Layer_11">
</g>
<g id="Layer_12">
</g>
<g id="Layer_13">
</g>
<g id="Layer_14">
</g>
<g id="Layer_15">
</g>
<g id="Layer_16">
</g>
<g id="Layer_17">
</g>
<g id="Layer_18">
</g>
<g id="Layer_19">
</g>
<g id="Layer_20">
</g>
<g id="Layer_21">
</g>
<g id="Layer_22">
</g>
<g id="Layer_23">
</g>
<g id="Layer_24">
</g>
<g id="Layer_25">
</g>
<g id="Layer_26">
</g>
<g id="Layer_27">
</g>
<g id="Layer_28">
</g>
<g id="Layer_29">
</g>
<g id="Layer_30">
</g>
<g id="Layer_31">
</g>
<g id="Layer_32">
</g>
<g id="Layer_33">
</g>
<g id="Layer_34">
</g>
<g id="Layer_35">
</g>
<g id="Layer_36">
</g>
<g id="Layer_37">
</g>
<g id="Layer_38">
</g>
<g id="Layer_39">
</g>
<g id="Layer_40">
</g>
<g id="Layer_41">
</g>
<g id="Layer_42">
</g>
<g id="Layer_43">
</g>
<g id="Layer_44">
</g>
<g id="Layer_45">
</g>
<g id="Layer_46">
</g>
<g id="Layer_47">
	<g>
		<g>
			<g>
				<path fill="#70D6F9" d="M215.14,64.629l-16.265,23.667c-1.963,2.856-6.18,2.856-8.143,0l-22.614-32.905
					c-6.204-9.027-7.501-19.117-5.2-28.047c-10.97-3.675-22.711-5.669-34.919-5.669c-24.493,0-47.111,8.018-65.381,21.567
					c21.896,4.967,33.51,31.264,19.34,51.882l-22.727,33.07c-1.963,2.856-6.18,2.856-8.143,0L28.476,95.289
					c-0.985-1.433-1.844-2.894-2.587-4.372c-5.006,12.569-7.762,26.278-7.762,40.632c0,60.681,49.192,109.873,109.873,109.873
					s109.873-49.192,109.873-109.873C237.873,106.363,229.393,83.161,215.14,64.629z"/>
			</g>
		</g>
		<g>
			<g>
				<path fill="#FC657E" d="M53.518,42.434c-25.506,1.149-40.527,30.323-25.042,52.855l22.614,32.905
					c1.963,2.856,6.18,2.856,8.143,0l22.727-33.07C97.986,71.804,81.037,41.195,53.518,42.434z"/>
			</g>
		</g>
		<g>
			<g>
				<path fill="#FC657E" d="M193.161,2.537c-25.506,1.149-40.527,30.323-25.042,52.855l22.614,32.905
					c1.963,2.856,6.18,2.856,8.143,0l22.727-33.07C237.629,31.906,220.679,1.297,193.161,2.537z"/>
			</g>
		</g>
		<g>
			<g>
				<path fill="#FC657E" d="M166.912,145.329c-25.506,1.149-40.527,30.323-25.042,52.855l22.614,32.906
					c1.963,2.856,6.18,2.856,8.143,0l22.727-33.07C211.38,174.698,194.431,144.089,166.912,145.329z"/>
			</g>
		</g>
		<g>
			<g>
				
					<ellipse transform="matrix(0.9975 -0.0709 0.0709 0.9975 -5.217 4.1022)" fill="#5290DB" cx="55.187" cy="75.552" rx="19.944" ry="19.944"/>
			</g>
		</g>
		<g>
			<g>
				
					<ellipse transform="matrix(0.0985 -0.9951 0.9951 0.0985 140.1514 226.0227)" fill="#5290DB" cx="194.83" cy="35.654" rx="19.944" ry="19.944"/>
			</g>
		</g>
		<g>
			<g>
				<circle fill="#5290DB" cx="168.581" cy="178.447" r="19.944"/>
			</g>
		</g>
		<g>
			<g>
				<path fill="#F5C84C" d="M59.33,80.386c-1.25-0.228-2.538-0.347-3.853-0.347c-1.316,0-2.603,0.119-3.853,0.347
					c-5.067,0.923-8.943,4.875-9.956,9.824c3.554,3.28,8.302,5.286,13.521,5.286c5.451,0,10.389-2.189,13.989-5.733
					C68.027,85.026,64.242,81.281,59.33,80.386z"/>
			</g>
		</g>
		<g>
			<g>
				<path fill="#F9D0B4" d="M55.187,64.905c-4.151,0-7.515,3.365-7.515,7.515s3.365,7.515,7.515,7.515
					c4.151,0,7.515-3.365,7.515-7.515S59.338,64.905,55.187,64.905z"/>
			</g>
		</g>
		<g>
			<g>
				<path fill="#FCA265" d="M198.972,40.488c-1.25-0.228-2.538-0.347-3.853-0.347s-2.603,0.119-3.853,0.347
					c-5.067,0.923-8.943,4.875-9.956,9.824c3.554,3.28,8.302,5.286,13.521,5.286c5.451,0,10.389-2.189,13.989-5.733
					C207.67,45.128,203.885,41.383,198.972,40.488z"/>
			</g>
		</g>
		<g>
			<g>
				<path fill="#F9D0B4" d="M194.83,25.008c-4.151,0-7.515,3.365-7.515,7.515s3.365,7.515,7.515,7.515
					c4.151,0,7.515-3.365,7.515-7.515S198.981,25.008,194.83,25.008z"/>
			</g>
		</g>
		<g>
			<g>
				<path fill="#87D147" d="M172.724,183.28c-1.25-0.228-2.538-0.347-3.853-0.347s-2.603,0.119-3.853,0.347
					c-5.067,0.923-8.943,4.875-9.956,9.824c3.554,3.28,8.302,5.286,13.521,5.286c5.451,0,10.389-2.189,13.989-5.733
					C181.421,187.92,177.636,184.175,172.724,183.28z"/>
			</g>
		</g>
		<g>
			<g>
				<circle fill="#F9D0B4" cx="168.581" cy="175.315" r="7.515"/>
			</g>
		</g>
		<g>
			<g>
				<path d="M163.285,24.832c-11.356-3.753-23.228-5.656-35.285-5.656c-24.145,0-47.157,7.546-66.551,21.823
					c-1.112,0.818-1.35,2.383-0.531,3.495c0.49,0.666,1.248,1.018,2.015,1.018c0.515,0,1.034-0.158,1.48-0.487
					C82.942,31.385,104.93,24.176,128,24.176c11.523,0,22.867,1.818,33.716,5.403c1.311,0.434,2.725-0.278,3.158-1.589
					C165.308,26.679,164.596,25.265,163.285,24.832z"/>
			</g>
		</g>
		<g>
			<g>
				<path d="M217.494,63.592c-0.835-1.1-2.404-1.313-3.503-0.477c-1.099,0.835-1.313,2.404-0.477,3.503
					c14.3,18.804,21.859,41.256,21.859,64.93c0,59.206-48.167,107.373-107.373,107.373S20.627,190.754,20.627,131.549
					c0-13.613,2.517-26.883,7.479-39.442c0.507-1.284-0.123-2.737-1.406-3.244s-2.737,0.122-3.244,1.406
					c-5.195,13.147-7.829,27.036-7.829,41.28c0,61.963,50.41,112.373,112.373,112.373s112.373-50.41,112.373-112.373
					C240.373,106.772,232.461,83.273,217.494,63.592z"/>
			</g>
		</g>
		<g>
			<g>
				<path d="M197.833,90.723c-0.323-1.343-1.67-2.169-3.014-1.848c-1.343,0.322-2.17,1.672-1.848,3.014
					c3.035,12.652,4.574,25.996,4.574,39.66c0,10.19-0.866,20.285-2.573,30.006c-0.239,1.36,0.67,2.656,2.03,2.895
					c0.146,0.025,0.292,0.038,0.436,0.038c1.191,0,2.246-0.854,2.459-2.068c1.757-10.006,2.648-20.392,2.648-30.871
					C202.544,117.493,200.959,103.756,197.833,90.723z"/>
			</g>
		</g>
		<g>
			<g>
				<path d="M104.864,236.408C77.396,220.82,58.748,179.131,58.459,132.67c-0.009-1.375-1.126-2.484-2.5-2.484h-0.016
					c-1.38,0.009-2.493,1.135-2.484,2.516c0.299,48.19,19.966,91.614,48.937,108.055c0.39,0.221,0.813,0.326,1.231,0.326
					c0.871,0,1.716-0.456,2.177-1.267C106.486,238.615,106.065,237.089,104.864,236.408z"/>
			</g>
		</g>
		<g>
			<g>
				<path d="M105.546,23.415c-0.687-1.197-2.215-1.612-3.413-0.923C92.129,28.235,83.2,37.089,75.591,48.807
					c-0.752,1.158-0.423,2.706,0.735,3.458c0.42,0.273,0.892,0.404,1.359,0.404c0.818,0,1.62-0.401,2.099-1.139
					c7.071-10.89,15.66-19.432,24.838-24.702C105.82,26.14,106.233,24.612,105.546,23.415z"/>
			</g>
		</g>
		<g>
			<g>
				<path d="M135.143,176.654c-2.364-0.092-4.768-0.138-7.143-0.138c-31.775,0-61.429,8.044-83.499,22.649
					c-1.151,0.762-1.467,2.313-0.705,3.465c0.481,0.727,1.276,1.121,2.087,1.121c0.474,0,0.953-0.135,1.377-0.416
					c21.261-14.07,49.935-21.819,80.739-21.819c2.311,0,4.649,0.045,6.949,0.134c1.377,0.058,2.541-1.022,2.595-2.401
					S136.522,176.707,135.143,176.654z"/>
			</g>
		</g>
		<g>
			<g>
				<path d="M211.935,199.456c-3.63-2.428-7.553-4.72-11.662-6.812c-1.229-0.627-2.735-0.138-3.362,1.093
					c-0.627,1.23-0.137,2.735,1.093,3.362c3.932,2.003,7.684,4.194,11.15,6.513c0.427,0.286,0.91,0.422,1.388,0.422
					c0.807,0,1.598-0.39,2.081-1.11C213.391,201.776,213.083,200.224,211.935,199.456z"/>
			</g>
		</g>
		<g>
			<g>
				<path d="M183.681,74.88c-0.441-1.309-1.863-2.01-3.167-1.57c-16.042,5.411-34.201,8.271-52.513,8.271
					c-13.087,0-25.901-1.416-38.086-4.209c-1.344-0.307-2.687,0.533-2.996,1.878c-0.308,1.346,0.533,2.687,1.878,2.996
					c12.55,2.876,25.74,4.335,39.203,4.335c18.85,0,37.561-2.951,54.111-8.534C183.419,77.607,184.122,76.188,183.681,74.88z"/>
			</g>
		</g>
		<g>
			<g>
				<path d="M121.957,239.198c-11.852-13.49-20.13-57.757-20.13-107.649c0-49.164,8.134-93.262,19.78-107.24
					c0.884-1.061,0.74-2.637-0.321-3.521c-1.061-0.884-2.636-0.74-3.521,0.321c-12.523,15.031-20.938,59.414-20.938,110.44
					c0,51.812,8.589,96.399,21.374,110.949c0.494,0.563,1.185,0.85,1.879,0.85c0.586,0,1.174-0.205,1.649-0.622
					C122.767,241.815,122.869,240.235,121.957,239.198z"/>
			</g>
		</g>
		<g>
			<g>
				<path d="M138.233,21.107c-0.883-1.061-2.46-1.205-3.521-0.32c-1.061,0.884-1.204,2.46-0.32,3.521
					c11.646,13.976,19.78,58.074,19.78,107.24c0,5.197-0.09,10.422-0.267,15.531c-0.048,1.38,1.032,2.537,2.412,2.585
					c0.029,0.001,0.059,0.001,0.088,0.001c1.341,0,2.45-1.063,2.497-2.414c0.179-5.167,0.27-10.45,0.27-15.704
					C159.173,80.52,150.758,36.137,138.233,21.107z"/>
			</g>
		</g>
		<g>
			<g>
				<path d="M149.563,206.558c-1.344-0.317-2.689,0.519-3.005,1.862c-3.482,14.831-7.832,25.498-12.578,30.848
					c-0.917,1.033-0.822,2.613,0.211,3.529c0.476,0.422,1.068,0.63,1.658,0.63c0.69,0,1.377-0.284,1.871-0.841
					c5.294-5.968,10.034-17.387,13.705-33.023C151.742,208.218,150.908,206.873,149.563,206.558z"/>
			</g>
		</g>
		<g>
			<g>
				<path d="M234.981,129.049H21.019c-1.381,0-2.5,1.119-2.5,2.5s1.119,2.5,2.5,2.5h213.963c1.381,0,2.5-1.119,2.5-2.5
					S236.362,129.049,234.981,129.049z"/>
			</g>
		</g>
		<g>
			<g>
				<path fill="#70D6F9" d="M74.906,5.5h-2.4V3.2c0-1.8-1.4-3.2-3.2-3.2c-1.7,0-3.2,1.4-3.2,3.1v2.4h-2.3c-1.8,0-3.2,1.4-3.2,3.2
					c-0.1,1.7,1.3,3.2,3.2,3.2h2.3v2.3c0,1.8,1.4,3.2,3.2,3.2c1.7,0,3.2-1.4,3.2-3.1v-2.4h2.3c1.8,0,3.2-1.4,3.2-3.2
					C78.006,7,76.606,5.5,74.906,5.5z"/>
			</g>
		</g>
		<g>
			<g>
				<path fill="#87D147" d="M250.15,69.175c-3.1-0.6-5.6-3-6.2-6.1c0-0.1-0.3-0.1-0.3,0c-0.6,3.1-3.1,5.5-6.2,6.1
					c-0.1,0-0.1,0.2,0,0.3c3.1,0.6,5.6,3,6.2,6.1c0,0.1,0.3,0.1,0.3,0c0.6-3.1,3.1-5.5,6.2-6.1
					C250.25,69.375,250.25,69.175,250.15,69.175z"/>
			</g>
		</g>
		<g>
			<g>
				<path fill="#FC657E" d="M187.369,249.2c-1.878,0-3.4,1.522-3.4,3.4c0,1.878,1.522,3.4,3.4,3.4c1.878,0,3.4-1.522,3.4-3.4
					C190.769,250.722,189.246,249.2,187.369,249.2z"/>
			</g>
		</g>
		<g>
			<g>
				<path fill="#F5C84C" d="M32.369,22c-1.878,0-3.4,1.522-3.4,3.4c0,1.878,1.522,3.4,3.4,3.4c1.878,0,3.4-1.522,3.4-3.4
					C35.769,23.522,34.246,22,32.369,22z"/>
			</g>
		</g>
		<g>
			<g>
				<path fill="#F5C84C" d="M230.15,234.2c-4.5-0.8-8-4.3-8.9-8.7c0-0.2-0.4-0.2-0.4,0c-0.9,4.4-4.4,7.9-8.9,8.7
					c-0.2,0-0.2,0.3,0,0.4c4.5,0.8,8,4.3,8.9,8.7c0,0.2,0.4,0.2,0.4,0c0.9-4.4,4.4-7.9,8.9-8.7
					C230.35,234.5,230.35,234.2,230.15,234.2z"/>
			</g>
		</g>
		<g>
			<g>
				<g>
					<g>
						<path d="M86.125,58.122c-6.568-11.83-19.114-18.796-32.719-18.185C40.487,40.519,29.308,47.833,23.5,59.501
							c-5.958,11.97-4.868,25.877,2.916,37.204l22.614,32.905c1.388,2.021,3.68,3.227,6.131,3.227h0
							c2.451,0,4.743-1.206,6.132-3.226l22.727-33.07C92.016,84.905,92.823,70.184,86.125,58.122z M79.899,93.708l-22.727,33.07
							c-0.462,0.673-1.195,1.058-2.011,1.058h0c-0.815,0-1.548-0.385-2.01-1.058L30.536,93.873
							c-6.74-9.807-7.697-21.824-2.561-32.144C32.962,51.71,42.553,45.431,53.63,44.932c0.503-0.023,1.002-0.034,1.5-0.034
							c11.264,0,21.139,5.773,26.624,15.651C87.611,71.099,86.918,83.495,79.899,93.708z"/>
					</g>
				</g>
			</g>
		</g>
		<g>
			<g>
				<g>
					<g>
						<path d="M225.768,18.224c-6.568-11.83-19.114-18.805-32.719-18.185c-12.918,0.582-24.098,7.896-29.906,19.564
							c-5.958,11.97-4.868,25.877,2.916,37.204l22.614,32.905c1.389,2.02,3.681,3.226,6.132,3.226s4.743-1.206,6.132-3.226
							l22.727-33.07C231.659,45.007,232.465,30.286,225.768,18.224z M219.542,53.811l-22.727,33.07
							c-0.462,0.673-1.195,1.058-2.011,1.058s-1.549-0.385-2.011-1.058l-22.614-32.905c-6.74-9.807-7.697-21.823-2.561-32.144
							c4.987-10.019,14.578-16.298,25.655-16.797c11.887-0.538,22.396,5.302,28.124,15.617
							C227.254,31.201,226.561,43.597,219.542,53.811z"/>
					</g>
				</g>
			</g>
		</g>
		<g>
			<g>
				<g>
					<g>
						<path d="M199.519,161.016c-6.568-11.83-19.11-18.8-32.719-18.185c-12.918,0.582-24.099,7.896-29.907,19.565
							c-5.958,11.97-4.867,25.877,2.916,37.203l22.614,32.905c1.388,2.021,3.68,3.227,6.132,3.227c2.451,0,4.743-1.206,6.131-3.226
							l22.727-33.07C205.41,187.8,206.217,173.079,199.519,161.016z M193.292,196.603l-22.727,33.07
							c-0.462,0.672-1.195,1.058-2.01,1.058c-0.816,0-1.549-0.385-2.011-1.058l-22.614-32.905
							c-6.74-9.807-7.697-21.823-2.561-32.143c4.987-10.02,14.578-16.299,25.655-16.798c0.503-0.023,1.002-0.034,1.5-0.034
							c11.264,0,21.14,5.773,26.624,15.651C201.005,173.993,200.312,186.39,193.292,196.603z"/>
					</g>
				</g>
			</g>
		</g>
		<g>
			<g>
				<g>
					<g>
						<path d="M55.187,53.108c-12.376,0-22.444,10.068-22.444,22.444c0,12.376,10.068,22.444,22.444,22.444
							c12.376,0,22.444-10.068,22.444-22.444C77.632,63.176,67.563,53.108,55.187,53.108z M55.187,92.996
							c-9.619,0-17.444-7.826-17.444-17.444s7.826-17.444,17.444-17.444c9.619,0,17.444,7.825,17.444,17.444
							S64.806,92.996,55.187,92.996z"/>
					</g>
				</g>
			</g>
		</g>
		<g>
			<g>
				<g>
					<g>
						<path d="M194.83,13.21c-12.376,0-22.444,10.068-22.444,22.444c0,12.375,10.068,22.444,22.444,22.444
							s22.444-10.068,22.444-22.444C217.274,23.278,207.206,13.21,194.83,13.21z M194.83,53.098
							c-9.619,0-17.444-7.825-17.444-17.444s7.826-17.444,17.444-17.444s17.444,7.826,17.444,17.444S204.449,53.098,194.83,53.098z"
							/>
					</g>
				</g>
			</g>
		</g>
		<g>
			<g>
				<g>
					<g>
						<path d="M168.582,156.002c-12.376,0-22.444,10.068-22.444,22.444c0,12.375,10.068,22.444,22.444,22.444
							c12.375,0,22.444-10.068,22.444-22.444C191.025,166.071,180.957,156.002,168.582,156.002z M168.582,195.891
							c-9.619,0-17.444-7.825-17.444-17.444s7.826-17.444,17.444-17.444s17.444,7.826,17.444,17.444S178.2,195.891,168.582,195.891z
							"/>
					</g>
				</g>
			</g>
		</g>
		<g>
			<g>
				<path d="M71.411,88.45c-1.618-5.479-6.076-9.512-11.634-10.524c-2.821-0.514-5.779-0.514-8.603,0
					c-5.788,1.055-10.434,5.468-11.836,11.243c-0.326,1.341,0.498,2.693,1.839,3.019c0.198,0.048,0.396,0.071,0.592,0.071
					c1.127,0,2.15-0.767,2.427-1.911c0.937-3.857,4.028-6.803,7.874-7.504c2.232-0.406,4.579-0.406,6.811,0
					c3.69,0.672,6.654,3.363,7.735,7.021c0.391,1.324,1.778,2.08,3.105,1.689C71.046,91.165,71.802,89.774,71.411,88.45z"/>
			</g>
		</g>
		<g>
			<g>
				<g>
					<g>
						<path d="M55.187,62.405c-5.522,0-10.015,4.493-10.015,10.015s4.493,10.016,10.015,10.016c5.522,0,10.015-4.493,10.015-10.016
							S60.71,62.405,55.187,62.405z M55.187,77.436c-2.765,0-5.015-2.25-5.015-5.016c0-2.765,2.25-5.015,5.015-5.015
							c2.765,0,5.015,2.25,5.015,5.015C60.203,75.186,57.953,77.436,55.187,77.436z"/>
					</g>
				</g>
			</g>
		</g>
		<g>
			<g>
				<path d="M211.126,48.806c-1.53-5.53-6.125-9.761-11.707-10.777c-2.821-0.514-5.779-0.514-8.603,0
					c-5.685,1.036-10.308,5.355-11.776,11.005c-0.348,1.336,0.454,2.701,1.791,3.048c0.211,0.055,0.422,0.081,0.631,0.081
					c1.111,0,2.125-0.746,2.417-1.872c0.981-3.773,4.056-6.655,7.833-7.344c2.232-0.406,4.579-0.406,6.811,0
					c3.764,0.686,6.746,3.441,7.783,7.191c0.368,1.331,1.743,2.11,3.076,1.743C210.714,51.514,211.495,50.136,211.126,48.806z"/>
			</g>
		</g>
		<g>
			<g>
				<g>
					<g>
						<path d="M194.83,22.507c-5.522,0-10.015,4.493-10.015,10.016s4.493,10.015,10.015,10.015s10.015-4.493,10.015-10.015
							S200.353,22.507,194.83,22.507z M194.83,37.538c-2.765,0-5.015-2.25-5.015-5.015c0-2.766,2.25-5.016,5.015-5.016
							s5.015,2.25,5.015,5.016C199.845,35.288,197.595,37.538,194.83,37.538z"/>
					</g>
				</g>
			</g>
		</g>
		<g>
			<g>
				<path d="M184.871,191.574c-1.56-5.603-6.042-9.723-11.699-10.753c-2.822-0.514-5.779-0.514-8.603,0
					c-5.773,1.052-10.416,5.452-11.829,11.209c-0.329,1.341,0.492,2.695,1.833,3.024c0.2,0.049,0.4,0.072,0.598,0.072
					c1.125,0,2.146-0.764,2.426-1.905c0.943-3.846,4.032-6.782,7.868-7.481c2.232-0.406,4.578-0.406,6.811,0
					c3.756,0.684,6.736,3.434,7.778,7.175c0.37,1.331,1.749,2.107,3.079,1.738C184.463,194.282,185.241,192.904,184.871,191.574z"/>
			</g>
		</g>
		<g>
			<g>
				<g>
					<g>
						<path d="M168.582,165.3c-5.522,0-10.015,4.493-10.015,10.016s4.493,10.015,10.015,10.015s10.015-4.493,10.015-10.015
							S174.104,165.3,168.582,165.3z M168.582,180.331c-2.765,0-5.015-2.25-5.015-5.015c0-2.766,2.25-5.016,5.015-5.016
							s5.015,2.25,5.015,5.016C173.597,178.081,171.347,180.331,168.582,180.331z"/>
					</g>
				</g>
			</g>
		</g>
	</g>
</g>
<g id="Layer_48">
</g>
<g id="Layer_49">
</g>
<g id="Layer_50">
</g>
<g id="Layer_51">
</g>
<g id="Layer_52">
</g>
<g id="Layer_53">
</g>
<g id="Layer_54">
</g>
<g id="Layer_55">
</g>
<g id="Layer_56">
</g>
<g id="Layer_57">
</g>
<g id="Layer_58">
</g>
<g id="Layer_59">
</g>
<g id="Layer_60">
</g>
<g id="Layer_61">
</g>
<g id="Layer_62">
</g>
<g id="Layer_63">
</g>
<g id="Layer_64">
</g>
<g id="Layer_65">
</g>
<g id="Layer_66">
</g>
<g id="Layer_67">
</g>
<g id="Layer_68">
</g>
<g id="Layer_69">
</g>
<g id="Layer_70">
</g>
<g id="Layer_71">
</g>
<g id="Layer_72">
</g>
<g id="Layer_73">
</g>
<g id="Layer_74">
</g>
<g id="Layer_75">
</g>
<g id="Layer_76">
</g>
<g id="Layer_77">
</g>
<g id="Layer_78">
</g>
<g id="Layer_79">
</g>
<g id="Layer_80">
</g>
</svg>
