<?xml version="1.0" encoding="utf-8"?>
<!-- Generator: Adobe Illustrator 24.0.0, SVG Export Plug-In . SVG Version: 6.00 Build 0)  -->
<svg version="1.1" xmlns="http://www.w3.org/2000/svg" xmlns:xlink="http://www.w3.org/1999/xlink" x="0px" y="0px"
	 viewBox="0 0 256 256" enable-background="new 0 0 256 256" xml:space="preserve">
<g id="Layer_1">
</g>
<g id="Layer_2">
</g>
<g id="Layer_3">
</g>
<g id="Layer_4">
</g>
<g id="Layer_5">
</g>
<g id="Layer_6">
</g>
<g id="Layer_7">
</g>
<g id="Layer_8">
</g>
<g id="Layer_9">
</g>
<g id="Layer_10">
</g>
<g id="Layer_11">
</g>
<g id="Layer_12">
</g>
<g id="Layer_13">
</g>
<g id="Layer_14">
</g>
<g id="Layer_15">
</g>
<g id="Layer_16">
</g>
<g id="Layer_17">
</g>
<g id="Layer_18">
</g>
<g id="Layer_19">
</g>
<g id="Layer_20">
</g>
<g id="Layer_21">
</g>
<g id="Layer_22">
</g>
<g id="Layer_23">
</g>
<g id="Layer_24">
</g>
<g id="Layer_25">
</g>
<g id="Layer_26">
</g>
<g id="Layer_27">
	<g>
		<g>
			<g>
				<path fill="#5290DB" d="M112.872,76.542H48.525c-9.966,0-18.075,8.108-18.075,18.075v140.808
					c0,9.967,8.108,18.075,18.075,18.075h64.346c9.967,0,18.075-8.108,18.075-18.075V94.617
					C130.947,84.651,122.839,76.542,112.872,76.542z"/>
			</g>
		</g>
		<g>
			<g>
				<path fill="#DAE6F1" d="M233.125,16.085h-78.213c-3.34,0-6.048,2.708-6.048,6.048v109.233c0,3.34,2.708,6.048,6.048,6.048
					h63.518l20.743-20.743V22.133C239.174,18.793,236.466,16.085,233.125,16.085z"/>
			</g>
		</g>
		<g>
			<g>
				<path fill="#DAE6F1" d="M234.727,158.5h-81.416c-2.456,0-4.446,1.991-4.446,4.446v8.107c0,2.456,1.991,4.446,4.446,4.446h81.416
					c2.456,0,4.446-1.991,4.446-4.446v-8.107C239.174,160.491,237.183,158.5,234.727,158.5z"/>
			</g>
		</g>
		<g>
			<g>
				<path fill="#DAE6F1" d="M120.863,94.617c0-4.395-3.596-7.99-7.99-7.99h-11.434c-3.723,0-7.107,2.074-8.887,5.344
					c-2.286,4.2-6.733,7.05-11.852,7.05c-5.119,0-9.566-2.85-11.852-7.05c-1.78-3.27-5.163-5.344-8.887-5.344H48.526
					c-4.395,0-7.99,3.596-7.99,7.99v140.808c0,4.395,3.596,7.991,7.99,7.991h64.346c4.395,0,7.99-3.596,7.99-7.99L120.863,94.617z"
					/>
			</g>
		</g>
		<g>
			<g>
				<path fill="#87D147" d="M104.845,113.177H56.553c-1.555,0-2.815,1.26-2.815,2.815v36.195c0,1.555,1.26,2.815,2.815,2.815h48.291
					c1.555,0,2.815-1.26,2.815-2.815v-36.195C107.66,114.438,106.399,113.177,104.845,113.177z"/>
			</g>
		</g>
		<g>
			<g>
				<path fill="#70D6F9" d="M105.371,211.784H56.027c-1.264,0-2.289,1.025-2.289,2.289v10.378c0,1.264,1.025,2.289,2.289,2.289
					h49.343c1.264,0,2.289-1.025,2.289-2.289v-10.378C107.66,212.809,106.635,211.784,105.371,211.784z"/>
			</g>
		</g>
		<g>
			<g>
				<path fill="#C7D7E5" d="M223.827,116.672c-2.98,0-5.396,2.416-5.396,5.396v15.347l20.743-20.743H223.827z"/>
			</g>
		</g>
		<g>
			<g>
				<path fill="#FC657E" d="M234.727,158.5h-13.14v17h13.14c2.456,0,4.446-1.991,4.446-4.446v-8.107
					C239.174,160.491,237.183,158.5,234.727,158.5z"/>
			</g>
		</g>
		<g>
			<g>
				<path fill="#70D6F9" d="M190.857,226.1h-2.4v-2.3c0-1.8-1.4-3.2-3.2-3.2c-1.7,0-3.2,1.4-3.2,3.1v2.4h-2.3
					c-1.8,0-3.2,1.4-3.2,3.2c-0.1,1.7,1.3,3.2,3.2,3.2h2.3v2.3c0,1.8,1.4,3.2,3.2,3.2c1.7,0,3.2-1.4,3.2-3.1v-2.4h2.3
					c1.8,0,3.2-1.4,3.2-3.2C193.956,227.6,192.557,226.1,190.857,226.1z"/>
			</g>
		</g>
		<g>
			<g>
				<path fill="#87D147" d="M129.156,0c-1.878,0-3.4,1.522-3.4,3.4c0,1.878,1.522,3.4,3.4,3.4c1.878,0,3.4-1.522,3.4-3.4
					C132.557,1.522,131.034,0,129.156,0z"/>
			</g>
		</g>
		<g>
			<g>
				<path fill="#FC657E" d="M27.101,67.175c-3.1-0.6-5.6-3-6.2-6.1c0-0.1-0.3-0.1-0.3,0c-0.6,3.1-3.1,5.5-6.2,6.1
					c-0.1,0-0.1,0.2,0,0.3c3.1,0.6,5.6,3,6.2,6.1c0,0.1,0.3,0.1,0.3,0c0.6-3.1,3.1-5.5,6.2-6.1
					C27.201,67.375,27.201,67.175,27.101,67.175z"/>
			</g>
		</g>
		<g>
			<g>
				<path fill="#F5C84C" d="M155.319,249.2c-1.878,0-3.4,1.522-3.4,3.4s1.522,3.4,3.4,3.4c1.878,0,3.4-1.522,3.4-3.4
					S157.197,249.2,155.319,249.2z"/>
			</g>
		</g>
		<g>
			<g>
				<path fill="#F5C84C" d="M106.101,23.2c-4.5-0.8-8-4.3-8.9-8.7c0-0.2-0.4-0.2-0.4,0c-0.9,4.4-4.4,7.9-8.9,8.7
					c-0.2,0-0.2,0.3,0,0.4c4.5,0.8,8,4.3,8.9,8.7c0,0.2,0.4,0.2,0.4,0c0.9-4.4,4.4-7.9,8.9-8.7
					C106.301,23.5,106.301,23.2,106.101,23.2z"/>
			</g>
		</g>
		<g>
			<g>
				<path d="M106.643,197.088H54.755c-1.381,0-2.5,1.119-2.5,2.5s1.119,2.5,2.5,2.5h51.888c1.381,0,2.5-1.119,2.5-2.5
					S108.024,197.088,106.643,197.088z"/>
			</g>
		</g>
		<g>
			<g>
				<path d="M106.643,186.516H54.755c-1.381,0-2.5,1.119-2.5,2.5s1.119,2.5,2.5,2.5h51.888c1.381,0,2.5-1.119,2.5-2.5
					S108.024,186.516,106.643,186.516z"/>
			</g>
		</g>
		<g>
			<g>
				<path d="M106.643,165.371H54.755c-1.381,0-2.5,1.119-2.5,2.5s1.119,2.5,2.5,2.5h51.888c1.381,0,2.5-1.119,2.5-2.5
					S108.024,165.371,106.643,165.371z"/>
			</g>
		</g>
		<g>
			<g>
				<path d="M106.643,175.943H54.755c-1.381,0-2.5,1.119-2.5,2.5s1.119,2.5,2.5,2.5h51.888c1.381,0,2.5-1.119,2.5-2.5
					S108.024,175.943,106.643,175.943z"/>
			</g>
		</g>
		<g>
			<g>
				<g>
					<g>
						<path d="M112.872,74.042H48.525c-11.345,0-20.575,9.23-20.575,20.575v140.808c0,11.345,9.23,20.575,20.575,20.575h64.346
							c11.345,0,20.575-9.23,20.575-20.575V94.617C133.447,83.272,124.217,74.042,112.872,74.042z M128.447,235.425
							c0,8.588-6.987,15.575-15.575,15.575H48.526c-8.588,0-15.575-6.987-15.575-15.575V94.617c0-8.588,6.987-15.575,15.575-15.575
							h64.347c8.588,0,15.575,6.987,15.575,15.575V235.425z"/>
					</g>
				</g>
			</g>
		</g>
		<g>
			<g>
				<g>
					<g>
						<path d="M233.125,13.585h-78.212c-4.713,0-8.548,3.835-8.548,8.548v109.233c0,4.713,3.835,8.548,8.548,8.548h63.518
							c0.663,0,1.299-0.263,1.768-0.732l20.743-20.743c0.469-0.469,0.732-1.104,0.732-1.768V22.133
							C241.674,17.42,237.839,13.585,233.125,13.585z M236.674,115.636l-19.279,19.279h-62.482c-1.957,0-3.548-1.592-3.548-3.548
							V22.133c0-1.957,1.592-3.548,3.548-3.548h78.212c1.957,0,3.548,1.592,3.548,3.548V115.636z"/>
					</g>
				</g>
			</g>
		</g>
		<g>
			<g>
				<path d="M225.219,90.583h-62.674c-1.381,0-2.5,1.119-2.5,2.5s1.119,2.5,2.5,2.5h62.674c1.381,0,2.5-1.119,2.5-2.5
					S226.6,90.583,225.219,90.583z"/>
			</g>
		</g>
		<g>
			<g>
				<path d="M225.219,68.722h-62.674c-1.381,0-2.5,1.119-2.5,2.5s1.119,2.5,2.5,2.5h62.674c1.381,0,2.5-1.119,2.5-2.5
					S226.6,68.722,225.219,68.722z"/>
			</g>
		</g>
		<g>
			<g>
				<path d="M225.219,101.513h-62.674c-1.381,0-2.5,1.119-2.5,2.5s1.119,2.5,2.5,2.5h62.674c1.381,0,2.5-1.119,2.5-2.5
					S226.6,101.513,225.219,101.513z"/>
			</g>
		</g>
		<g>
			<g>
				<path d="M203.382,112.443h-40.837c-1.381,0-2.5,1.119-2.5,2.5s1.119,2.5,2.5,2.5h40.837c1.381,0,2.5-1.119,2.5-2.5
					S204.763,112.443,203.382,112.443z"/>
			</g>
		</g>
		<g>
			<g>
				<path d="M225.219,46.861h-62.674c-1.381,0-2.5,1.119-2.5,2.5s1.119,2.5,2.5,2.5h62.674c1.381,0,2.5-1.119,2.5-2.5
					S226.6,46.861,225.219,46.861z"/>
			</g>
		</g>
		<g>
			<g>
				<path d="M225.219,79.652h-62.674c-1.381,0-2.5,1.119-2.5,2.5s1.119,2.5,2.5,2.5h62.674c1.381,0,2.5-1.119,2.5-2.5
					S226.6,79.652,225.219,79.652z"/>
			</g>
		</g>
		<g>
			<g>
				<path d="M225.219,35.931h-62.674c-1.381,0-2.5,1.119-2.5,2.5s1.119,2.5,2.5,2.5h62.674c1.381,0,2.5-1.119,2.5-2.5
					S226.6,35.931,225.219,35.931z"/>
			</g>
		</g>
		<g>
			<g>
				<path d="M225.219,57.792h-62.674c-1.381,0-2.5,1.119-2.5,2.5s1.119,2.5,2.5,2.5h62.674c1.381,0,2.5-1.119,2.5-2.5
					S226.6,57.792,225.219,57.792z"/>
			</g>
		</g>
		<g>
			<g>
				<g>
					<g>
						<path d="M234.728,156h-81.417c-3.83,0-6.946,3.116-6.946,6.946v8.107c0,3.83,3.116,6.946,6.946,6.946h81.417
							c3.83,0,6.946-3.116,6.946-6.946v-8.107C241.674,159.116,238.558,156,234.728,156z M236.674,171.054
							c0,1.073-0.873,1.946-1.946,1.946h-81.417c-1.073,0-1.946-0.873-1.946-1.946v-8.107c0-1.073,0.873-1.946,1.946-1.946h81.417
							c1.073,0,1.946,0.873,1.946,1.946V171.054z"/>
					</g>
				</g>
			</g>
		</g>
		<g>
			<g>
				<g>
					<g>
						<path d="M112.872,84.126h-11.434c-4.604,0-8.851,2.548-11.083,6.649c-1.929,3.544-5.629,5.745-9.657,5.745
							c-4.027,0-7.728-2.201-9.656-5.745c-2.232-4.102-6.479-6.65-11.083-6.65H48.526c-5.785,0-10.491,4.706-10.491,10.491v140.808
							c0,5.784,4.706,10.49,10.491,10.49h64.346c5.785,0,10.491-4.706,10.491-10.49V94.617
							C123.363,88.833,118.657,84.126,112.872,84.126z M118.363,235.425c0,3.027-2.463,5.49-5.491,5.49H48.526
							c-3.027,0-5.491-2.463-5.491-5.49V94.617c0-3.028,2.463-5.491,5.491-5.491H59.96c2.771,0,5.335,1.548,6.691,4.04
							c2.805,5.153,8.188,8.354,14.048,8.354c5.86,0,11.243-3.201,14.048-8.355c1.356-2.492,3.92-4.04,6.691-4.04h11.434
							c3.028,0,5.491,2.463,5.491,5.491V235.425z"/>
					</g>
				</g>
			</g>
		</g>
		<g>
			<g>
				<g>
					<g>
						<path d="M104.845,110.677H56.553c-2.931,0-5.315,2.384-5.315,5.315v36.195c0,2.931,2.384,5.315,5.315,5.315h48.292
							c2.931,0,5.315-2.384,5.315-5.315v-36.195C110.16,113.062,107.775,110.677,104.845,110.677z M105.16,152.188
							c0,0.174-0.141,0.315-0.315,0.315H56.553c-0.174,0-0.315-0.141-0.315-0.315v-36.195c0-0.174,0.141-0.315,0.315-0.315h48.292
							c0.174,0,0.315,0.141,0.315,0.315V152.188z"/>
					</g>
				</g>
			</g>
		</g>
		<g>
			<g>
				<g>
					<g>
						<path d="M105.371,209.284H56.027c-2.641,0-4.789,2.148-4.789,4.789v10.378c0,2.641,2.148,4.789,4.789,4.789h49.343
							c2.641,0,4.789-2.148,4.789-4.789v-10.378C110.16,211.433,108.011,209.284,105.371,209.284z M105.16,224.24H56.238v-9.956
							h48.921V224.24z"/>
					</g>
				</g>
			</g>
		</g>
		<g>
			<g>
				<path d="M238.187,114.172h-14.361c-4.354,0-7.896,3.542-7.896,7.896v14.183c0,1.381,1.119,2.5,2.5,2.5s2.5-1.119,2.5-2.5
					v-14.183c0-1.597,1.299-2.896,2.896-2.896h14.361c1.381,0,2.5-1.119,2.5-2.5S239.568,114.172,238.187,114.172z"/>
			</g>
		</g>
		<g>
			<g>
				<path d="M221.587,157.375c-1.381,0-2.5,1.119-2.5,2.5v14.75c0,1.381,1.119,2.5,2.5,2.5s2.5-1.119,2.5-2.5v-14.75
					C224.087,158.494,222.968,157.375,221.587,157.375z"/>
			</g>
		</g>
	</g>
</g>
<g id="Layer_28">
</g>
<g id="Layer_29">
</g>
<g id="Layer_30">
</g>
<g id="Layer_31">
</g>
<g id="Layer_32">
</g>
<g id="Layer_33">
</g>
<g id="Layer_34">
</g>
<g id="Layer_35">
</g>
<g id="Layer_36">
</g>
<g id="Layer_37">
</g>
<g id="Layer_38">
</g>
<g id="Layer_39">
</g>
<g id="Layer_40">
</g>
<g id="Layer_41">
</g>
<g id="Layer_42">
</g>
<g id="Layer_43">
</g>
<g id="Layer_44">
</g>
<g id="Layer_45">
</g>
<g id="Layer_46">
</g>
<g id="Layer_47">
</g>
<g id="Layer_48">
</g>
<g id="Layer_49">
</g>
<g id="Layer_50">
</g>
<g id="Layer_51">
</g>
<g id="Layer_52">
</g>
<g id="Layer_53">
</g>
<g id="Layer_54">
</g>
<g id="Layer_55">
</g>
<g id="Layer_56">
</g>
<g id="Layer_57">
</g>
<g id="Layer_58">
</g>
<g id="Layer_59">
</g>
<g id="Layer_60">
</g>
<g id="Layer_61">
</g>
<g id="Layer_62">
</g>
<g id="Layer_63">
</g>
<g id="Layer_64">
</g>
<g id="Layer_65">
</g>
<g id="Layer_66">
</g>
<g id="Layer_67">
</g>
<g id="Layer_68">
</g>
<g id="Layer_69">
</g>
<g id="Layer_70">
</g>
<g id="Layer_71">
</g>
<g id="Layer_72">
</g>
<g id="Layer_73">
</g>
<g id="Layer_74">
</g>
<g id="Layer_75">
</g>
<g id="Layer_76">
</g>
<g id="Layer_77">
</g>
<g id="Layer_78">
</g>
<g id="Layer_79">
</g>
<g id="Layer_80">
</g>
</svg>
