<?xml version="1.0" encoding="utf-8"?>
<!-- Generator: Adobe Illustrator 24.0.0, SVG Export Plug-In . SVG Version: 6.00 Build 0)  -->
<svg version="1.1" xmlns="http://www.w3.org/2000/svg" xmlns:xlink="http://www.w3.org/1999/xlink" x="0px" y="0px"
	 viewBox="0 0 256 256" enable-background="new 0 0 256 256" xml:space="preserve">
<g id="Layer_1">
</g>
<g id="Layer_2">
</g>
<g id="Layer_3">
</g>
<g id="Layer_4">
</g>
<g id="Layer_5">
</g>
<g id="Layer_6">
</g>
<g id="Layer_7">
</g>
<g id="Layer_8">
</g>
<g id="Layer_9">
</g>
<g id="Layer_10">
</g>
<g id="Layer_11">
</g>
<g id="Layer_12">
	<g>
		<g>
			<g>
				<path fill="#5290DB" d="M126.899,62.885V52.051H74.965c-9.966,0-18.075,8.108-18.075,18.075v161.808
					c0,9.967,8.108,18.075,18.075,18.075h72.346c9.967,0,18.075-8.108,18.075-18.075V120.987
					C142.179,111.178,126.899,88.406,126.899,62.885z"/>
			</g>
		</g>
		<g>
			<g>
				<path fill="#DAE6F1" d="M155.302,115.591c-17.284-11.364-28.194-30.742-28.391-52.116c-1.621,0.93-2.992,2.299-3.92,4.005
					c-2.286,4.2-6.733,7.05-11.852,7.05c-5.119,0-9.566-2.851-11.852-7.05c-1.78-3.27-5.163-5.344-8.887-5.344H74.965
					c-4.395,0-7.99,3.596-7.99,7.99v161.808c0,4.395,3.596,7.991,7.99,7.991h72.346c4.395,0,7.99-3.596,7.99-7.99L155.302,115.591z"
					/>
			</g>
		</g>
		<g>
			<g>
				<path fill="#87D147" d="M132.408,88.686H82.993c-1.555,0-2.815,1.26-2.815,2.815v36.195c0,1.555,1.26,2.815,2.815,2.815h56.291
					c1.555,0,2.815-1.26,2.815-2.815v-23.722C138.158,99.38,134.891,94.232,132.408,88.686z"/>
			</g>
		</g>
		<g>
			<g>
				<path fill="#70D6F9" d="M139.81,211.293H82.467c-1.264,0-2.289,1.025-2.289,2.289v10.378c0,1.264,1.025,2.289,2.289,2.289
					h57.343c1.264,0,2.289-1.025,2.289-2.289v-10.378C142.099,212.317,141.074,211.293,139.81,211.293z"/>
			</g>
		</g>
		<g>
			<g>
				<path fill="#70D6F9" d="M208.78,21.992h-70.875c-6.069,0-11.006,4.937-11.006,11.006v29.888
					c0,27.146,17.286,51.185,43.013,59.818c2.226,0.747,4.661,0.738,6.862,0c25.727-8.633,43.013-32.673,43.013-59.818V32.997
					C219.786,26.928,214.849,21.992,208.78,21.992z"/>
			</g>
		</g>
		<g>
			<g>
				<path fill="#3CAADC" d="M208.78,32.737h-70.875c-0.143,0-0.26,0.116-0.26,0.26v29.888c0,22.523,14.341,42.468,35.686,49.631
					c21.369-7.163,35.71-27.108,35.71-49.631V32.997C209.041,32.854,208.924,32.737,208.78,32.737z"/>
			</g>
		</g>
		<g>
			<g>
				<path fill="#DAE6F1" d="M191.353,57.587c-2.088-2.087-5.473-2.087-7.561,0l-12.025,12.026l-7.377-7.377
					c-2.088-2.087-5.474-2.087-7.561,0c-2.088,2.088-2.088,5.473,0,7.561l11.157,11.157c1.044,1.044,2.412,1.566,3.78,1.566
					c1.368,0,2.736-0.522,3.78-1.566l15.806-15.806C193.441,63.06,193.441,59.675,191.353,57.587z"/>
			</g>
		</g>
		<g>
			<g>
				<path fill="#87D147" d="M212.244,218.1h-2.4v-2.3c0-1.8-1.4-3.2-3.2-3.2c-1.7,0-3.2,1.4-3.2,3.1v2.4h-2.3
					c-1.8,0-3.2,1.4-3.2,3.2c-0.1,1.7,1.3,3.2,3.2,3.2h2.3v2.3c0,1.8,1.4,3.2,3.2,3.2c1.7,0,3.2-1.4,3.2-3.1v-2.4h2.3
					c1.8,0,3.2-1.4,3.2-3.2C215.344,219.6,213.944,218.1,212.244,218.1z"/>
			</g>
		</g>
		<g>
			<g>
				<path fill="#70D6F9" d="M117.544,0c-1.878,0-3.4,1.522-3.4,3.4c0,1.878,1.522,3.4,3.4,3.4c1.878,0,3.4-1.522,3.4-3.4
					C120.944,1.522,119.422,0,117.544,0z"/>
			</g>
		</g>
		<g>
			<g>
				<path fill="#FC657E" d="M46.489,140.175c-3.1-0.6-5.6-3-6.2-6.1c0-0.1-0.3-0.1-0.3,0c-0.6,3.1-3.1,5.5-6.2,6.1
					c-0.1,0-0.1,0.2,0,0.3c3.1,0.6,5.6,3,6.2,6.1c0,0.1,0.3,0.1,0.3,0c0.6-3.1,3.1-5.5,6.2-6.1
					C46.589,140.375,46.589,140.175,46.489,140.175z"/>
			</g>
		</g>
		<g>
			<g>
				<path fill="#F5C84C" d="M187.707,249.2c-1.878,0-3.4,1.522-3.4,3.4s1.522,3.4,3.4,3.4c1.878,0,3.4-1.522,3.4-3.4
					S189.585,249.2,187.707,249.2z"/>
			</g>
		</g>
		<g>
			<g>
				<path fill="#F5C84C" d="M99.489,22.2c-4.5-0.8-8-4.3-8.9-8.7c0-0.2-0.4-0.2-0.4,0c-0.9,4.4-4.4,7.9-8.9,8.7
					c-0.2,0-0.2,0.3,0,0.4c4.5,0.8,8,4.3,8.9,8.7c0,0.2,0.4,0.2,0.4,0c0.9-4.4,4.4-7.9,8.9-8.7C99.689,22.5,99.689,22.2,99.489,22.2
					z"/>
			</g>
		</g>
		<g>
			<g>
				<path d="M141.083,174.435H81.194c-1.381,0-2.5,1.119-2.5,2.5s1.119,2.5,2.5,2.5h59.889c1.381,0,2.5-1.119,2.5-2.5
					S142.463,174.435,141.083,174.435z"/>
			</g>
		</g>
		<g>
			<g>
				<path d="M141.083,163.497H81.194c-1.381,0-2.5,1.119-2.5,2.5s1.119,2.5,2.5,2.5h59.889c1.381,0,2.5-1.119,2.5-2.5
					S142.463,163.497,141.083,163.497z"/>
			</g>
		</g>
		<g>
			<g>
				<path d="M141.083,185.374H81.194c-1.381,0-2.5,1.119-2.5,2.5s1.119,2.5,2.5,2.5h59.889c1.381,0,2.5-1.119,2.5-2.5
					S142.463,185.374,141.083,185.374z"/>
			</g>
		</g>
		<g>
			<g>
				<path d="M141.083,196.313H81.194c-1.381,0-2.5,1.119-2.5,2.5s1.119,2.5,2.5,2.5h59.889c1.381,0,2.5-1.119,2.5-2.5
					S142.463,196.313,141.083,196.313z"/>
			</g>
		</g>
		<g>
			<g>
				<path d="M141.083,141.619H81.194c-1.381,0-2.5,1.119-2.5,2.5s1.119,2.5,2.5,2.5h59.889c1.381,0,2.5-1.119,2.5-2.5
					S142.463,141.619,141.083,141.619z"/>
			</g>
		</g>
		<g>
			<g>
				<path d="M141.083,152.558H81.194c-1.381,0-2.5,1.119-2.5,2.5s1.119,2.5,2.5,2.5h59.889c1.381,0,2.5-1.119,2.5-2.5
					S142.463,152.558,141.083,152.558z"/>
			</g>
		</g>
		<g>
			<g>
				<path d="M165.386,119.042c-1.381,0-2.5,1.119-2.5,2.5v110.392c0,8.588-6.987,15.575-15.575,15.575H74.965
					c-8.588,0-15.575-6.987-15.575-15.575V70.126c0-8.588,6.987-15.575,15.575-15.575h51.16c1.381,0,2.5-1.119,2.5-2.5
					s-1.119-2.5-2.5-2.5h-51.16c-11.345,0-20.575,9.23-20.575,20.575v161.808c0,11.345,9.23,20.575,20.575,20.575h72.346
					c11.345,0,20.575-9.23,20.575-20.575V121.542C167.886,120.161,166.767,119.042,165.386,119.042z"/>
			</g>
		</g>
		<g>
			<g>
				<path d="M155.302,113.593c-1.381,0-2.5,1.119-2.5,2.5v115.84c0,3.027-2.463,5.49-5.49,5.49H74.965
					c-3.027,0-5.49-2.463-5.49-5.49V70.125c0-3.028,2.463-5.491,5.49-5.491h15.434c2.771,0,5.335,1.548,6.691,4.04
					c2.805,5.153,8.188,8.354,14.048,8.354s11.243-3.201,14.048-8.355c0.658-1.209,1.632-2.226,2.816-2.941
					c1.182-0.714,1.562-2.25,0.848-3.433c-0.714-1.183-2.25-1.562-3.433-0.848c-1.943,1.173-3.541,2.844-4.623,4.831
					c-1.929,3.544-5.628,5.745-9.656,5.745s-7.728-2.201-9.656-5.745c-2.233-4.102-6.479-6.649-11.083-6.649H74.965
					c-5.784,0-10.49,4.706-10.49,10.491v161.808c0,5.784,4.706,10.49,10.49,10.49h72.347c5.784,0,10.49-4.706,10.49-10.49v-115.84
					C157.802,114.712,156.683,113.593,155.302,113.593z"/>
			</g>
		</g>
		<g>
			<g>
				<g>
					<g>
						<path d="M143.996,102.347c-3.792-4.422-6.924-9.362-9.306-14.683c-0.403-0.899-1.296-1.479-2.282-1.479H82.993
							c-2.931,0-5.315,2.384-5.315,5.315v36.195c0,2.931,2.384,5.315,5.315,5.315h56.291c2.931,0,5.315-2.384,5.315-5.315v-23.722
							C144.599,103.377,144.385,102.8,143.996,102.347z M139.599,127.696c0,0.174-0.141,0.315-0.315,0.315H82.993
							c-0.174,0-0.315-0.141-0.315-0.315V91.5c0-0.174,0.141-0.315,0.315-0.315h47.818c2.35,4.918,5.299,9.517,8.788,13.704V127.696
							z"/>
					</g>
				</g>
			</g>
		</g>
		<g>
			<g>
				<g>
					<g>
						<path d="M139.81,208.792H82.467c-2.641,0-4.789,2.148-4.789,4.789v10.378c0,2.641,2.148,4.789,4.789,4.789h57.343
							c2.641,0,4.789-2.148,4.789-4.789v-10.378C144.599,210.941,142.45,208.792,139.81,208.792z M139.599,223.749H82.678v-9.957
							h56.921V223.749z"/>
					</g>
				</g>
			</g>
		</g>
		<g>
			<g>
				<g>
					<g>
						<g>
							<path d="M208.78,19.492h-70.875c-7.447,0-13.506,6.059-13.506,13.505v29.888c0,28.221,17.971,53.213,44.718,62.188h0
								c1.362,0.457,2.793,0.686,4.225,0.686s2.864-0.229,4.227-0.686c26.747-8.976,44.718-33.967,44.718-62.188V32.997
								C222.287,25.55,216.228,19.492,208.78,19.492z M217.287,62.885c0,26.07-16.601,49.157-41.308,57.448
								c-1.701,0.569-3.572,0.569-5.272,0h0c-24.708-8.291-41.309-31.378-41.309-57.448V32.997c0-4.69,3.816-8.505,8.506-8.505
								h70.875c4.69,0,8.506,3.815,8.506,8.505V62.885z"/>
						</g>
					</g>
				</g>
			</g>
		</g>
		<g>
			<g>
				<g>
					<g>
						<path d="M208.78,30.237h-70.875c-1.522,0-2.76,1.238-2.76,2.76v29.888c0,23.599,15.026,44.496,37.391,52.001
							c0.258,0.086,0.527,0.13,0.795,0.13s0.537-0.043,0.794-0.129c22.379-7.501,37.416-28.399,37.416-52.001V32.997
							C211.541,31.475,210.302,30.237,208.78,30.237z M206.541,62.885c0,21.17-13.309,39.946-33.209,46.987
							c-19.885-7.045-33.187-25.821-33.187-46.987V35.237h66.396V62.885z"/>
					</g>
				</g>
			</g>
		</g>
		<g>
			<g>
				<g>
					<g>
						<g>
							<path d="M193.121,55.819c-3.06-3.058-8.037-3.058-11.096,0l-10.258,10.257l-5.609-5.609c-3.061-3.059-8.038-3.058-11.096,0
								c-3.06,3.059-3.06,8.037,0,11.096l11.158,11.158c1.483,1.481,3.453,2.297,5.547,2.297c2.095,0,4.065-0.816,5.548-2.298
								l15.806-15.806C196.18,63.856,196.18,58.878,193.121,55.819z M189.586,63.38l-15.805,15.805
								c-1.077,1.076-2.95,1.075-4.026,0.001l-11.157-11.157c-1.11-1.11-1.11-2.916,0-4.026c0.555-0.555,1.283-0.832,2.012-0.832
								c0.729,0,1.458,0.277,2.013,0.832L170,71.38c0.976,0.977,2.56,0.977,3.535,0l12.025-12.025c1.109-1.109,2.916-1.109,4.026,0
								C190.695,60.465,190.695,62.271,189.586,63.38z"/>
						</g>
					</g>
				</g>
			</g>
		</g>
	</g>
</g>
<g id="Layer_13">
</g>
<g id="Layer_14">
</g>
<g id="Layer_15">
</g>
<g id="Layer_16">
</g>
<g id="Layer_17">
</g>
<g id="Layer_18">
</g>
<g id="Layer_19">
</g>
<g id="Layer_20">
</g>
<g id="Layer_21">
</g>
<g id="Layer_22">
</g>
<g id="Layer_23">
</g>
<g id="Layer_24">
</g>
<g id="Layer_25">
</g>
<g id="Layer_26">
</g>
<g id="Layer_27">
</g>
<g id="Layer_28">
</g>
<g id="Layer_29">
</g>
<g id="Layer_30">
</g>
<g id="Layer_31">
</g>
<g id="Layer_32">
</g>
<g id="Layer_33">
</g>
<g id="Layer_34">
</g>
<g id="Layer_35">
</g>
<g id="Layer_36">
</g>
<g id="Layer_37">
</g>
<g id="Layer_38">
</g>
<g id="Layer_39">
</g>
<g id="Layer_40">
</g>
<g id="Layer_41">
</g>
<g id="Layer_42">
</g>
<g id="Layer_43">
</g>
<g id="Layer_44">
</g>
<g id="Layer_45">
</g>
<g id="Layer_46">
</g>
<g id="Layer_47">
</g>
<g id="Layer_48">
</g>
<g id="Layer_49">
</g>
<g id="Layer_50">
</g>
<g id="Layer_51">
</g>
<g id="Layer_52">
</g>
<g id="Layer_53">
</g>
<g id="Layer_54">
</g>
<g id="Layer_55">
</g>
<g id="Layer_56">
</g>
<g id="Layer_57">
</g>
<g id="Layer_58">
</g>
<g id="Layer_59">
</g>
<g id="Layer_60">
</g>
<g id="Layer_61">
</g>
<g id="Layer_62">
</g>
<g id="Layer_63">
</g>
<g id="Layer_64">
</g>
<g id="Layer_65">
</g>
<g id="Layer_66">
</g>
<g id="Layer_67">
</g>
<g id="Layer_68">
</g>
<g id="Layer_69">
</g>
<g id="Layer_70">
</g>
<g id="Layer_71">
</g>
<g id="Layer_72">
</g>
<g id="Layer_73">
</g>
<g id="Layer_74">
</g>
<g id="Layer_75">
</g>
<g id="Layer_76">
</g>
<g id="Layer_77">
</g>
<g id="Layer_78">
</g>
<g id="Layer_79">
</g>
<g id="Layer_80">
</g>
</svg>
