<?xml version="1.0" encoding="utf-8"?>
<!-- Generator: Adobe Illustrator 24.0.0, SVG Export Plug-In . SVG Version: 6.00 Build 0)  -->
<svg version="1.1" xmlns="http://www.w3.org/2000/svg" xmlns:xlink="http://www.w3.org/1999/xlink" x="0px" y="0px"
	 viewBox="0 0 256 256" enable-background="new 0 0 256 256" xml:space="preserve">
<g id="Layer_1">
</g>
<g id="Layer_2">
</g>
<g id="Layer_3">
</g>
<g id="Layer_4">
</g>
<g id="Layer_5">
</g>
<g id="Layer_6">
</g>
<g id="Layer_7">
</g>
<g id="Layer_8">
</g>
<g id="Layer_9">
</g>
<g id="Layer_10">
</g>
<g id="Layer_11">
</g>
<g id="Layer_12">
</g>
<g id="Layer_13">
</g>
<g id="Layer_14">
</g>
<g id="Layer_15">
</g>
<g id="Layer_16">
</g>
<g id="Layer_17">
	<g>
		<g>
			<g>
				<path fill="#DAE6F1" d="M204.78,26.5H51.22c-3.435,0-6.22,2.785-6.22,6.22v214.56c0,3.435,2.785,6.22,6.22,6.22h153.56
					c3.435,0,6.22-2.785,6.22-6.22V32.72C211,29.285,208.215,26.5,204.78,26.5z"/>
			</g>
		</g>
		<g>
			<g>
				<path fill="#F5C84C" d="M175.881,79.414H80.119c-7.548,0-13.723,6.175-13.723,13.723v66.56c0,7.547,6.175,13.723,13.723,13.723
					h52.175c4.458,0,8.592,2.318,10.909,6.126c2.098,3.449,4.737,6.909,8.053,10.071c2.311,2.204,6.146,0.545,6.146-2.648v-6.956
					c0-3.641,2.952-6.593,6.593-6.593h11.886c7.548,0,13.723-6.175,13.723-13.723v-66.56
					C189.604,85.589,183.428,79.414,175.881,79.414z"/>
			</g>
		</g>
		<g>
			<g>
				<path fill="#FC657E" d="M99.541,109.547c-7.189,0-13.017,5.828-13.017,13.016v0c0,7.189,5.828,13.017,13.017,13.017h17.937
					v-26.033H99.541z"/>
			</g>
		</g>
		<g>
			<g>
				<path fill="#FC657E" d="M148.196,94.591c-2.862,0-5.182,2.32-5.182,5.182v45.581c0,2.862,2.32,5.182,5.182,5.182
					s5.182-2.32,5.182-5.182V99.773C153.378,96.912,151.058,94.591,148.196,94.591z"/>
			</g>
		</g>
		<g>
			<g>
				<path fill="#DAE6F1" d="M119.725,154.449l-6.392-18.869h-12.594l7.688,22.696c0.82,2.421,3.092,4.051,5.649,4.051
					C118.159,162.327,121.035,158.317,119.725,154.449z"/>
			</g>
		</g>
		<g>
			<g>
				<path fill="#DAE6F1" d="M120.36,109.547h-2.883v26.033h2.883c9.584,0,15.35,3.001,22.653,8.101v-42.236
					C135.711,106.546,129.944,109.547,120.36,109.547z"/>
			</g>
		</g>
		<g>
			<g>
				<path fill="#DAE6F1" d="M153.378,111.944v21.241c5.691-0.21,10.244-4.878,10.244-10.62v0
					C163.622,116.821,159.07,112.154,153.378,111.944z"/>
			</g>
		</g>
		<g>
			<g>
				<path fill="#5290DB" d="M204.78,26.5H51.22c-3.435,0-6.22,2.785-6.22,6.22V44.5h166V32.72C211,29.285,208.215,26.5,204.78,26.5z
					"/>
			</g>
		</g>
		<g>
			<g>
				<path fill="#FC657E" d="M51.22,26.5c-3.435,0-6.22,2.785-6.22,6.22V44.5h21.5v-18H51.22z"/>
			</g>
		</g>
		<g>
			<g>
				<path fill="#70D6F9" d="M238.503,190.1h-2.4v-2.3c0-1.8-1.4-3.2-3.2-3.2c-1.7,0-3.2,1.4-3.2,3.1v2.4h-2.3
					c-1.8,0-3.2,1.4-3.2,3.2c-0.1,1.7,1.3,3.2,3.2,3.2h2.3v2.3c0,1.8,1.4,3.2,3.2,3.2c1.7,0,3.2-1.4,3.2-3.1v-2.4h2.3
					c1.8,0,3.2-1.4,3.2-3.2C241.603,191.6,240.203,190.1,238.503,190.1z"/>
			</g>
		</g>
		<g>
			<g>
				<path fill="#F5C84C" d="M228.803,224.5c-1.878,0-3.4,1.522-3.4,3.4c0,1.878,1.522,3.4,3.4,3.4c1.878,0,3.4-1.522,3.4-3.4
					C232.203,226.022,230.68,224.5,228.803,224.5z"/>
			</g>
		</g>
		<g>
			<g>
				<path fill="#87D147" d="M34.747,156.175c-3.1-0.6-5.6-3-6.2-6.1c0-0.1-0.3-0.1-0.3,0c-0.6,3.1-3.1,5.5-6.2,6.1
					c-0.1,0-0.1,0.2,0,0.3c3.1,0.6,5.6,3,6.2,6.1c0,0.1,0.3,0.1,0.3,0c0.6-3.1,3.1-5.5,6.2-6.1
					C34.847,156.375,34.847,156.175,34.747,156.175z"/>
			</g>
		</g>
		<g>
			<g>
				<path fill="#FC657E" d="M54.966,0c-1.878,0-3.4,1.522-3.4,3.4c0,1.878,1.522,3.4,3.4,3.4c1.878,0,3.4-1.522,3.4-3.4
					C58.366,1.522,56.843,0,54.966,0z"/>
			</g>
		</g>
		<g>
			<g>
				<path fill="#F5C84C" d="M32.747,24.2c-4.5-0.8-8-4.3-8.9-8.7c0-0.2-0.4-0.2-0.4,0c-0.9,4.4-4.4,7.9-8.9,8.7
					c-0.2,0-0.2,0.3,0,0.4c4.5,0.8,8,4.3,8.9,8.7c0,0.2,0.4,0.2,0.4,0c0.9-4.4,4.4-7.9,8.9-8.7C32.947,24.5,32.947,24.2,32.747,24.2
					z"/>
			</g>
		</g>
		<g>
			<g>
				<g>
					<g>
						<path d="M204.78,24H51.22c-4.809,0-8.72,3.912-8.72,8.72v214.56c0,4.809,3.912,8.72,8.72,8.72h153.56
							c4.808,0,8.72-3.912,8.72-8.72V32.72C213.5,27.912,209.588,24,204.78,24z M208.5,247.28c0,2.051-1.668,3.72-3.72,3.72H51.22
							c-2.051,0-3.72-1.669-3.72-3.72V32.72c0-2.051,1.669-3.72,3.72-3.72h153.56c2.051,0,3.72,1.669,3.72,3.72V247.28z"/>
					</g>
				</g>
			</g>
		</g>
		<g>
			<g>
				<path d="M210,42H46.417c-1.381,0-2.5,1.119-2.5,2.5s1.119,2.5,2.5,2.5H210c1.381,0,2.5-1.119,2.5-2.5S211.38,42,210,42z"/>
			</g>
		</g>
		<g>
			<g>
				<path d="M66.5,25.438c-1.381,0-2.5,1.119-2.5,2.5v15.625c0,1.381,1.119,2.5,2.5,2.5s2.5-1.119,2.5-2.5V27.938
					C69,26.558,67.881,25.438,66.5,25.438z"/>
			</g>
		</g>
		<g>
			<g>
				<path d="M175.5,33h-95c-1.381,0-2.5,1.119-2.5,2.5s1.119,2.5,2.5,2.5h95c1.381,0,2.5-1.119,2.5-2.5S176.881,33,175.5,33z"/>
			</g>
		</g>
		<g>
			<g>
				<path d="M199.65,33h-11.4c-1.381,0-2.5,1.119-2.5,2.5s1.119,2.5,2.5,2.5h11.4c1.381,0,2.5-1.119,2.5-2.5S201.031,33,199.65,33z"
					/>
			</g>
		</g>
		<g>
			<g>
				<path d="M102.713,101.869c-1.381,0-2.5,1.119-2.5,2.5v4.146c0,1.381,1.119,2.5,2.5,2.5s2.5-1.119,2.5-2.5v-4.146
					C105.213,102.988,104.094,101.869,102.713,101.869z"/>
			</g>
		</g>
		<g>
			<g>
				<g>
					<g>
						<path d="M175.881,76.914H80.119c-8.945,0-16.223,7.277-16.223,16.223v66.56c0,8.945,7.277,16.223,16.223,16.223h52.175
							c3.563,0,6.924,1.887,8.773,4.926c2.413,3.967,5.261,7.527,8.463,10.581c1.173,1.119,2.661,1.703,4.19,1.703
							c0.818,0,1.649-0.167,2.449-0.51c2.302-0.985,3.732-3.151,3.732-5.65v-6.956c0-2.257,1.836-4.093,4.093-4.093h11.886
							c8.945,0,16.223-7.277,16.223-16.223v-66.56C192.104,84.191,184.826,76.914,175.881,76.914z M187.104,159.697
							c0,6.188-5.035,11.223-11.223,11.223h-11.886c-5.014,0-9.093,4.079-9.093,9.093v6.956c0,0.681-0.49,0.964-0.7,1.054
							c-0.257,0.11-0.757,0.228-1.221-0.215c-2.885-2.751-5.457-5.967-7.642-9.561c-2.75-4.52-7.748-7.327-13.044-7.327H80.119
							c-6.188,0-11.223-5.035-11.223-11.223v-66.56c0-6.188,5.035-11.223,11.223-11.223h95.762c6.188,0,11.223,5.035,11.223,11.223
							V159.697z"/>
					</g>
				</g>
			</g>
		</g>
		<g>
			<g>
				<g>
					<g>
						<path d="M117.478,107.047H99.541c-8.556,0-15.517,6.961-15.517,15.517s6.961,15.517,15.517,15.517h17.938
							c1.381,0,2.5-1.119,2.5-2.5v-26.033C119.978,108.167,118.859,107.047,117.478,107.047z M114.978,133.081H99.541
							c-5.799,0-10.517-4.718-10.517-10.517s4.718-10.517,10.517-10.517h15.438V133.081z"/>
					</g>
				</g>
			</g>
		</g>
		<g>
			<g>
				<g>
					<g>
						<g>
							<path d="M148.196,92.091c-4.236,0-7.682,3.446-7.682,7.682v45.581c0,4.236,3.446,7.683,7.682,7.683
								c4.236,0,7.683-3.446,7.683-7.683V99.773C155.878,95.538,152.432,92.091,148.196,92.091z M150.878,145.354
								c0,1.479-1.204,2.683-2.683,2.683s-2.682-1.204-2.682-2.683V99.773c0-1.479,1.203-2.682,2.682-2.682s2.683,1.203,2.683,2.682
								V145.354z"/>
						</g>
					</g>
				</g>
			</g>
		</g>
		<g>
			<g>
				<path d="M122.093,153.647l-6.04-17.83c-0.442-1.308-1.861-2.008-3.17-1.565c-1.308,0.443-2.009,1.862-1.565,3.17l6.04,17.83
					c0.363,1.071,0.193,2.211-0.466,3.13c-0.659,0.918-1.685,1.445-2.815,1.445c-1.486,0-2.804-0.946-3.281-2.353l-7.221-21.317
					c-0.443-1.308-1.862-2.009-3.17-1.565c-1.308,0.443-2.009,1.862-1.565,3.17l7.221,21.317c1.165,3.438,4.386,5.749,8.017,5.749
					c2.762,0,5.269-1.287,6.878-3.532C122.564,159.051,122.979,156.263,122.093,153.647z"/>
			</g>
		</g>
		<g>
			<g>
				<path d="M144.228,141.481c-7.833-5.448-13.957-8.4-23.867-8.4h-2.882c-1.381,0-2.5,1.119-2.5,2.5s1.119,2.5,2.5,2.5h2.882
					c8.641,0,13.855,2.527,21.013,7.505c0.435,0.303,0.933,0.448,1.425,0.448c0.791,0,1.569-0.374,2.055-1.073
					C145.641,143.827,145.361,142.269,144.228,141.481z"/>
			</g>
		</g>
		<g>
			<g>
				<path d="M144.903,100.131c-0.79-1.134-2.349-1.412-3.48-0.624c-7.183,5.001-12.413,7.54-21.063,7.54h-2.882
					c-1.381,0-2.5,1.119-2.5,2.5s1.119,2.5,2.5,2.5h2.882c9.921,0,16.061-2.965,23.919-8.437
					C145.413,102.822,145.692,101.264,144.903,100.131z"/>
			</g>
		</g>
		<g>
			<g>
				<path d="M155.208,109.625c-1.364-0.233-2.653,0.683-2.885,2.043s0.682,2.653,2.043,2.885c3.915,0.669,6.756,4.038,6.756,8.011
					c0,4.138-3.101,7.61-7.212,8.075c-1.372,0.156-2.358,1.394-2.203,2.766c0.145,1.276,1.227,2.219,2.481,2.219
					c0.094,0,0.188-0.005,0.284-0.016c6.642-0.752,11.65-6.359,11.65-13.044C166.122,116.147,161.532,110.705,155.208,109.625z"/>
			</g>
		</g>
	</g>
</g>
<g id="Layer_18">
</g>
<g id="Layer_19">
</g>
<g id="Layer_20">
</g>
<g id="Layer_21">
</g>
<g id="Layer_22">
</g>
<g id="Layer_23">
</g>
<g id="Layer_24">
</g>
<g id="Layer_25">
</g>
<g id="Layer_26">
</g>
<g id="Layer_27">
</g>
<g id="Layer_28">
</g>
<g id="Layer_29">
</g>
<g id="Layer_30">
</g>
<g id="Layer_31">
</g>
<g id="Layer_32">
</g>
<g id="Layer_33">
</g>
<g id="Layer_34">
</g>
<g id="Layer_35">
</g>
<g id="Layer_36">
</g>
<g id="Layer_37">
</g>
<g id="Layer_38">
</g>
<g id="Layer_39">
</g>
<g id="Layer_40">
</g>
<g id="Layer_41">
</g>
<g id="Layer_42">
</g>
<g id="Layer_43">
</g>
<g id="Layer_44">
</g>
<g id="Layer_45">
</g>
<g id="Layer_46">
</g>
<g id="Layer_47">
</g>
<g id="Layer_48">
</g>
<g id="Layer_49">
</g>
<g id="Layer_50">
</g>
<g id="Layer_51">
</g>
<g id="Layer_52">
</g>
<g id="Layer_53">
</g>
<g id="Layer_54">
</g>
<g id="Layer_55">
</g>
<g id="Layer_56">
</g>
<g id="Layer_57">
</g>
<g id="Layer_58">
</g>
<g id="Layer_59">
</g>
<g id="Layer_60">
</g>
<g id="Layer_61">
</g>
<g id="Layer_62">
</g>
<g id="Layer_63">
</g>
<g id="Layer_64">
</g>
<g id="Layer_65">
</g>
<g id="Layer_66">
</g>
<g id="Layer_67">
</g>
<g id="Layer_68">
</g>
<g id="Layer_69">
</g>
<g id="Layer_70">
</g>
<g id="Layer_71">
</g>
<g id="Layer_72">
</g>
<g id="Layer_73">
</g>
<g id="Layer_74">
</g>
<g id="Layer_75">
</g>
<g id="Layer_76">
</g>
<g id="Layer_77">
</g>
<g id="Layer_78">
</g>
<g id="Layer_79">
</g>
<g id="Layer_80">
</g>
</svg>
