<?xml version="1.0" encoding="utf-8"?>
<!-- Generator: Adobe Illustrator 24.0.0, SVG Export Plug-In . SVG Version: 6.00 Build 0)  -->
<svg version="1.1" xmlns="http://www.w3.org/2000/svg" xmlns:xlink="http://www.w3.org/1999/xlink" x="0px" y="0px"
	 viewBox="0 0 256 256" enable-background="new 0 0 256 256" xml:space="preserve">
<g id="Layer_1">
</g>
<g id="Layer_2">
</g>
<g id="Layer_3">
	<g>
		<g>
			<g>
				<circle fill="#70D6F9" cx="128" cy="128" r="67.639"/>
			</g>
		</g>
		<g>
			<g>
				<circle fill="#70D6F9" cx="128" cy="17.5" r="8.5"/>
			</g>
		</g>
		<g>
			<g>
				<circle fill="#70D6F9" cx="128" cy="238.5" r="8.5"/>
			</g>
		</g>
		<g>
			<g>
				<circle fill="#FCDD86" cx="49.865" cy="49.865" r="8.5"/>
			</g>
		</g>
		<g>
			<g>
				<circle fill="#FCDD86" cx="206.135" cy="206.135" r="8.5"/>
			</g>
		</g>
		<g>
			<g>
				<circle fill="#70D6F9" cx="17.5" cy="128" r="8.5"/>
			</g>
		</g>
		<g>
			<g>
				<circle fill="#70D6F9" cx="238.5" cy="128" r="8.5"/>
			</g>
		</g>
		<g>
			<g>
				<circle fill="#FCDD86" cx="49.865" cy="206.135" r="8.5"/>
			</g>
		</g>
		<g>
			<g>
				<circle fill="#FCDD86" cx="206.135" cy="49.865" r="8.5"/>
			</g>
		</g>
		<g>
			<g>
				<path fill="#70D6F9" d="M67.906,235.1h-0.1h-2.3v-2.3c0-1.8-1.4-3.2-3.2-3.2c-1.7,0-3.2,1.4-3.2,3.1v0.1v2.3h-2.3
					c-1.8,0-3.2,1.4-3.2,3.2c-0.1,1.7,1.3,3.2,3.2,3.2h2.3v2.3c0,1.8,1.4,3.2,3.2,3.2c1.7,0,3.2-1.4,3.2-3.1v-0.1v-2.3h2.3
					c1.8,0,3.2-1.4,3.2-3.2C71.006,236.6,69.606,235.1,67.906,235.1z"/>
			</g>
		</g>
		<g>
			<g>
				<path fill="#F5C84C" d="M91.206,249.2c-1.878,0-3.4,1.522-3.4,3.4c0,1.878,1.522,3.4,3.4,3.4c1.878,0,3.4-1.522,3.4-3.4
					C94.606,250.722,93.083,249.2,91.206,249.2z"/>
			</g>
		</g>
		<g>
			<g>
				<path fill="#FC657E" d="M233.15,171.175c-3.1-0.6-5.6-3-6.2-6.1c0-0.1-0.3-0.1-0.3,0c-0.6,3.1-3.1,5.5-6.2,6.1
					c-0.1,0-0.1,0.2,0,0.3c3.1,0.6,5.6,3,6.2,6.1c0,0.1,0.3,0.1,0.3,0c0.6-3.1,3.1-5.5,6.2-6.1
					C233.25,171.375,233.25,171.175,233.15,171.175z"/>
			</g>
		</g>
		<g>
			<g>
				<path fill="#87D147" d="M159.369,0c-1.878,0-3.4,1.522-3.4,3.4c0,1.878,1.522,3.4,3.4,3.4c1.878,0,3.4-1.522,3.4-3.4
					C162.769,1.522,161.246,0,159.369,0z"/>
			</g>
		</g>
		<g>
			<g>
				<path fill="#F5C84C" d="M199.15,20.2c-4.5-0.8-8-4.3-8.9-8.7c0-0.2-0.4-0.2-0.4,0c-0.9,4.4-4.4,7.9-8.9,8.7
					c-0.2,0-0.2,0.3,0,0.4c4.5,0.8,8,4.3,8.9,8.7c0,0.2,0.4,0.2,0.4,0c0.9-4.4,4.4-7.9,8.9-8.7C199.35,20.5,199.35,20.2,199.15,20.2
					z"/>
			</g>
		</g>
		<g>
			<g>
				<g>
					<g>
						<path d="M128,57.861c-38.675,0-70.139,31.464-70.139,70.139S89.325,198.139,128,198.139s70.139-31.464,70.139-70.139
							S166.675,57.861,128,57.861z M128,193.139c-35.918,0-65.139-29.221-65.139-65.139S92.082,62.861,128,62.861
							S193.139,92.082,193.139,128S163.918,193.139,128,193.139z"/>
					</g>
				</g>
			</g>
		</g>
		<g>
			<g>
				<path d="M144.172,59.898c-1.202-0.678-2.727-0.256-3.406,0.947c-0.679,1.202-0.255,2.727,0.947,3.406
					c16.83,9.508,28.138,35.126,28.138,63.748c0,28.576-11.283,54.18-28.078,63.714c-1.2,0.682-1.621,2.208-0.939,3.409
					c0.46,0.811,1.306,1.266,2.176,1.266c0.419,0,0.843-0.105,1.232-0.326c18.309-10.394,30.609-37.746,30.609-68.063
					C174.851,97.633,162.521,70.265,144.172,59.898z"/>
			</g>
		</g>
		<g>
			<g>
				<path d="M114.232,191.717C97.435,182.185,86.149,156.579,86.149,128c0-28.467,11.228-54.039,27.938-63.634
					c1.198-0.688,1.611-2.215,0.923-3.413c-0.687-1.197-2.216-1.612-3.413-0.923C93.385,70.487,81.149,97.802,81.149,128
					c0,30.32,12.303,57.674,30.615,68.065c0.39,0.221,0.813,0.326,1.231,0.326c0.871,0,1.716-0.456,2.177-1.267
					C115.854,193.924,115.433,192.398,114.232,191.717z"/>
			</g>
		</g>
		<g>
			<g>
				<path d="M180.205,169.005c-13.769-9.211-32.309-14.284-52.205-14.284c-19.748,0-38.191,5.008-51.933,14.103
					c-1.151,0.762-1.467,2.313-0.705,3.465c0.762,1.15,2.312,1.466,3.465,0.705c12.932-8.559,30.396-13.272,49.173-13.272
					c18.643,0,36.658,4.899,49.426,13.44c0.427,0.286,0.909,0.422,1.388,0.422c0.806,0,1.598-0.39,2.08-1.11
					C181.661,171.326,181.354,169.773,180.205,169.005z"/>
			</g>
		</g>
		<g>
			<g>
				<path d="M180.615,83.728c-0.762-1.152-2.313-1.468-3.464-0.707C164.22,91.57,146.765,96.279,128,96.279
					c-18.776,0-36.238-4.713-49.17-13.271c-1.151-0.761-2.702-0.446-3.464,0.706c-0.762,1.151-0.446,2.702,0.706,3.464
					c13.741,9.093,32.183,14.101,51.929,14.101c19.734,0,38.169-5.003,51.909-14.087C181.061,86.43,181.377,84.879,180.615,83.728z"
					/>
			</g>
		</g>
		<g>
			<g>
				<path d="M125.002,193.635c-7.156-8.144-12.153-35.134-12.153-65.635c0-30.061,4.916-56.956,11.954-65.403
					c0.884-1.061,0.74-2.637-0.321-3.521c-1.061-0.884-2.637-0.74-3.521,0.321c-7.843,9.413-13.112,36.982-13.112,68.603
					c0,32.113,5.384,59.816,13.397,68.936c0.494,0.562,1.185,0.85,1.879,0.85c0.586,0,1.174-0.205,1.649-0.622
					C125.812,196.252,125.914,194.673,125.002,193.635z"/>
			</g>
		</g>
		<g>
			<g>
				<path d="M135.038,59.396c-0.886-1.061-2.461-1.204-3.521-0.32c-1.061,0.884-1.204,2.46-0.32,3.521
					c7.039,8.446,11.955,35.34,11.955,65.403c0,30.58-5.012,57.586-12.188,65.675c-0.916,1.033-0.822,2.613,0.211,3.529
					c0.477,0.422,1.068,0.63,1.658,0.63c0.69,0,1.377-0.284,1.871-0.841c8.044-9.067,13.448-36.793,13.448-68.994
					C148.151,96.377,142.882,68.807,135.038,59.396z"/>
			</g>
		</g>
		<g>
			<g>
				<path d="M193.859,125.5H62.141c-1.381,0-2.5,1.119-2.5,2.5s1.119,2.5,2.5,2.5h131.718c1.381,0,2.5-1.119,2.5-2.5
					S195.24,125.5,193.859,125.5z"/>
			</g>
		</g>
		<g>
			<g>
				<g>
					<g>
						<path d="M128,6.5c-6.065,0-11,4.935-11,11s4.935,11,11,11s11-4.935,11-11S134.065,6.5,128,6.5z M128,23.5
							c-3.309,0-6-2.691-6-6s2.691-6,6-6s6,2.691,6,6S131.309,23.5,128,23.5z"/>
					</g>
				</g>
			</g>
		</g>
		<g>
			<g>
				<path d="M128,24.5c-1.381,0-2.5,1.119-2.5,2.5v22c0,1.381,1.119,2.5,2.5,2.5s2.5-1.119,2.5-2.5V27
					C130.5,25.619,129.381,24.5,128,24.5z"/>
			</g>
		</g>
		<g>
			<g>
				<g>
					<g>
						<path d="M128,227.5c-6.065,0-11,4.935-11,11s4.935,11,11,11s11-4.935,11-11S134.065,227.5,128,227.5z M128,244.5
							c-3.309,0-6-2.691-6-6s2.691-6,6-6s6,2.691,6,6S131.309,244.5,128,244.5z"/>
					</g>
				</g>
			</g>
		</g>
		<g>
			<g>
				<path d="M128,204.5c-1.381,0-2.5,1.119-2.5,2.5v22c0,1.381,1.119,2.5,2.5,2.5s2.5-1.119,2.5-2.5v-22
					C130.5,205.619,129.381,204.5,128,204.5z"/>
			</g>
		</g>
		<g>
			<g>
				<g>
					<g>
						<path d="M57.643,42.087c-2.078-2.078-4.84-3.222-7.778-3.222c-2.938,0-5.701,1.144-7.778,3.222
							c-2.078,2.078-3.222,4.84-3.222,7.778c0,2.938,1.144,5.701,3.222,7.778c2.144,2.145,4.961,3.217,7.778,3.217
							s5.634-1.072,7.778-3.217C61.932,53.354,61.932,46.375,57.643,42.087z M54.107,54.107c-2.34,2.339-6.146,2.339-8.485,0
							c-1.133-1.133-1.757-2.64-1.757-4.242s0.624-3.109,1.758-4.243c1.133-1.133,2.64-1.757,4.242-1.757s3.109,0.624,4.242,1.757h0
							C56.447,47.961,56.447,51.768,54.107,54.107z"/>
					</g>
				</g>
			</g>
		</g>
		<g>
			<g>
				<path d="M73.906,70.371L58.35,54.814c-0.976-0.977-2.56-0.977-3.535,0c-0.977,0.976-0.977,2.559,0,3.535l15.557,15.557
					c0.488,0.488,1.128,0.732,1.768,0.732s1.28-0.244,1.768-0.732C74.883,72.93,74.883,71.347,73.906,70.371z"/>
			</g>
		</g>
		<g>
			<g>
				<g>
					<g>
						<path d="M213.913,198.357c-4.288-4.288-11.266-4.29-15.556,0c-4.289,4.289-4.289,11.267,0,15.556
							c2.077,2.078,4.84,3.222,7.778,3.222c2.938,0,5.7-1.144,7.777-3.222C218.202,209.625,218.202,202.646,213.913,198.357z
							 M210.378,210.378c-1.134,1.133-2.64,1.757-4.242,1.757c-1.604,0-3.109-0.624-4.243-1.757
							c-1.133-1.133-1.757-2.64-1.757-4.243s0.624-3.109,1.757-4.243c1.17-1.169,2.706-1.754,4.243-1.754
							c1.536,0,3.072,0.585,4.242,1.754C212.717,204.232,212.717,208.039,210.378,210.378z"/>
					</g>
				</g>
			</g>
		</g>
		<g>
			<g>
				<path d="M201.186,197.65l-15.557-15.557c-0.977-0.977-2.559-0.977-3.535,0c-0.977,0.976-0.977,2.559,0,3.535l15.557,15.557
					c0.488,0.488,1.128,0.732,1.768,0.732s1.279-0.244,1.768-0.732C202.162,200.209,202.162,198.626,201.186,197.65z"/>
			</g>
		</g>
		<g>
			<g>
				<g>
					<g>
						<path d="M17.5,117c-6.065,0-11,4.935-11,11s4.935,11,11,11s11-4.935,11-11S23.565,117,17.5,117z M17.5,134
							c-3.309,0-6-2.691-6-6s2.691-6,6-6s6,2.691,6,6S20.809,134,17.5,134z"/>
					</g>
				</g>
			</g>
		</g>
		<g>
			<g>
				<path d="M49,125.5H27c-1.381,0-2.5,1.119-2.5,2.5s1.119,2.5,2.5,2.5h22c1.381,0,2.5-1.119,2.5-2.5S50.381,125.5,49,125.5z"/>
			</g>
		</g>
		<g>
			<g>
				<g>
					<g>
						<path d="M238.5,117c-6.065,0-11,4.935-11,11s4.935,11,11,11s11-4.935,11-11S244.565,117,238.5,117z M238.5,134
							c-3.309,0-6-2.691-6-6s2.691-6,6-6s6,2.691,6,6S241.809,134,238.5,134z"/>
					</g>
				</g>
			</g>
		</g>
		<g>
			<g>
				<path d="M229,125.5h-22c-1.381,0-2.5,1.119-2.5,2.5s1.119,2.5,2.5,2.5h22c1.381,0,2.5-1.119,2.5-2.5S230.381,125.5,229,125.5z"
					/>
			</g>
		</g>
		<g>
			<g>
				<g>
					<g>
						<path d="M57.643,198.357c-4.288-4.289-11.268-4.289-15.556,0c-2.078,2.078-3.222,4.84-3.222,7.778
							c0,2.938,1.144,5.701,3.222,7.778c2.078,2.078,4.84,3.222,7.778,3.222c2.938,0,5.701-1.144,7.778-3.222
							C61.932,209.625,61.932,202.646,57.643,198.357z M54.107,210.378c-1.133,1.133-2.64,1.757-4.242,1.757
							s-3.109-0.624-4.243-1.758c-1.133-1.133-1.757-2.64-1.757-4.242s0.624-3.109,1.757-4.242v0
							c1.17-1.169,2.706-1.754,4.243-1.754s3.073,0.585,4.243,1.754C56.447,204.232,56.447,208.039,54.107,210.378z"/>
					</g>
				</g>
			</g>
		</g>
		<g>
			<g>
				<path d="M73.906,182.094c-0.976-0.977-2.56-0.977-3.535,0L54.814,197.65c-0.977,0.976-0.977,2.559,0,3.535
					c0.488,0.488,1.128,0.732,1.768,0.732s1.28-0.244,1.768-0.732l15.557-15.557C74.883,184.653,74.883,183.07,73.906,182.094z"/>
			</g>
		</g>
		<g>
			<g>
				<g>
					<g>
						<path d="M213.913,42.087c-2.077-2.078-4.84-3.222-7.777-3.222c-2.938,0-5.701,1.144-7.778,3.222
							c-4.289,4.289-4.289,11.267,0,15.556c2.145,2.145,4.961,3.217,7.777,3.217c2.817,0,5.634-1.072,7.778-3.217
							C218.202,53.354,218.202,46.375,213.913,42.087z M210.378,54.107c-2.341,2.339-6.146,2.338-8.485,0
							c-1.133-1.133-1.757-2.64-1.757-4.243s0.624-3.109,1.757-4.243c1.134-1.133,2.64-1.757,4.243-1.757
							c1.603,0,3.108,0.624,4.242,1.757C212.717,47.961,212.717,51.768,210.378,54.107z"/>
					</g>
				</g>
			</g>
		</g>
		<g>
			<g>
				<path d="M201.186,54.814c-0.977-0.977-2.559-0.977-3.535,0l-15.557,15.557c-0.977,0.976-0.977,2.559,0,3.535
					c0.488,0.488,1.128,0.732,1.768,0.732s1.279-0.244,1.768-0.732l15.557-15.557C202.162,57.374,202.162,55.791,201.186,54.814z"/>
			</g>
		</g>
	</g>
</g>
<g id="Layer_4">
</g>
<g id="Layer_5">
</g>
<g id="Layer_6">
</g>
<g id="Layer_7">
</g>
<g id="Layer_8">
</g>
<g id="Layer_9">
</g>
<g id="Layer_10">
</g>
<g id="Layer_11">
</g>
<g id="Layer_12">
</g>
<g id="Layer_13">
</g>
<g id="Layer_14">
</g>
<g id="Layer_15">
</g>
<g id="Layer_16">
</g>
<g id="Layer_17">
</g>
<g id="Layer_18">
</g>
<g id="Layer_19">
</g>
<g id="Layer_20">
</g>
<g id="Layer_21">
</g>
<g id="Layer_22">
</g>
<g id="Layer_23">
</g>
<g id="Layer_24">
</g>
<g id="Layer_25">
</g>
<g id="Layer_26">
</g>
<g id="Layer_27">
</g>
<g id="Layer_28">
</g>
<g id="Layer_29">
</g>
<g id="Layer_30">
</g>
<g id="Layer_31">
</g>
<g id="Layer_32">
</g>
<g id="Layer_33">
</g>
<g id="Layer_34">
</g>
<g id="Layer_35">
</g>
<g id="Layer_36">
</g>
<g id="Layer_37">
</g>
<g id="Layer_38">
</g>
<g id="Layer_39">
</g>
<g id="Layer_40">
</g>
<g id="Layer_41">
</g>
<g id="Layer_42">
</g>
<g id="Layer_43">
</g>
<g id="Layer_44">
</g>
<g id="Layer_45">
</g>
<g id="Layer_46">
</g>
<g id="Layer_47">
</g>
<g id="Layer_48">
</g>
<g id="Layer_49">
</g>
<g id="Layer_50">
</g>
<g id="Layer_51">
</g>
<g id="Layer_52">
</g>
<g id="Layer_53">
</g>
<g id="Layer_54">
</g>
<g id="Layer_55">
</g>
<g id="Layer_56">
</g>
<g id="Layer_57">
</g>
<g id="Layer_58">
</g>
<g id="Layer_59">
</g>
<g id="Layer_60">
</g>
<g id="Layer_61">
</g>
<g id="Layer_62">
</g>
<g id="Layer_63">
</g>
<g id="Layer_64">
</g>
<g id="Layer_65">
</g>
<g id="Layer_66">
</g>
<g id="Layer_67">
</g>
<g id="Layer_68">
</g>
<g id="Layer_69">
</g>
<g id="Layer_70">
</g>
<g id="Layer_71">
</g>
<g id="Layer_72">
</g>
<g id="Layer_73">
</g>
<g id="Layer_74">
</g>
<g id="Layer_75">
</g>
<g id="Layer_76">
</g>
<g id="Layer_77">
</g>
<g id="Layer_78">
</g>
<g id="Layer_79">
</g>
<g id="Layer_80">
</g>
</svg>
