<?xml version="1.0" encoding="utf-8"?>
<!-- Generator: Adobe Illustrator 24.0.0, SVG Export Plug-In . SVG Version: 6.00 Build 0)  -->
<svg version="1.1" xmlns="http://www.w3.org/2000/svg" xmlns:xlink="http://www.w3.org/1999/xlink" x="0px" y="0px"
	 viewBox="0 0 256 256" enable-background="new 0 0 256 256" xml:space="preserve">
<g id="Layer_1">
</g>
<g id="Layer_2">
</g>
<g id="Layer_3">
</g>
<g id="Layer_4">
</g>
<g id="Layer_5">
</g>
<g id="Layer_6">
</g>
<g id="Layer_7">
</g>
<g id="Layer_8">
</g>
<g id="Layer_9">
</g>
<g id="Layer_10">
</g>
<g id="Layer_11">
</g>
<g id="Layer_12">
</g>
<g id="Layer_13">
</g>
<g id="Layer_14">
	<g>
		<g>
			<g>
				<path fill="#EDF4FC" d="M13.481,161H7.519c-2.76,0-5.019,2.258-5.019,5.019v27.963c0,2.76,2.258,5.019,5.019,5.019h5.963
					c2.76,0,5.019-2.258,5.019-5.019v-27.963C18.5,163.258,16.242,161,13.481,161z"/>
			</g>
		</g>
		<g>
			<g>
				<path fill="#F9D0B4" d="M54.098,164.848h-12.45c2.042-6.043,5.041-11.191,4.235-15.338c-0.925-4.757-6.871-6.343-7.749-1.849
					c-0.861,4.41-7.551,12.787-7.551,12.787c-1.837,1.837-1.96,3.941-12.224,4.437c0.085,0.366,0.141,0.742,0.141,1.132v27.963
					c0,0.555-0.113,1.079-0.281,1.579h2.802c2.061,0,4.109,0.323,6.069,0.957l3.199,1.035c1.786,0.578,3.651,0.872,5.528,0.872
					h18.281c2.318,0,4.197-1.879,4.197-4.197v-25.182C58.295,166.728,56.416,164.848,54.098,164.848z"/>
			</g>
		</g>
		<g>
			<g>
				<path fill="#EDF4FC" d="M248.481,154h-5.963c-2.76,0-5.019,2.258-5.019,5.019v27.963c0,2.76,2.258,5.019,5.019,5.019h5.963
					c2.76,0,5.019-2.258,5.019-5.019v-27.963C253.5,156.258,251.242,154,248.481,154z"/>
			</g>
		</g>
		<g>
			<g>
				<path fill="#F9D0B4" d="M237.5,159.018c0-0.555,0.113-1.079,0.281-1.579h-2.802c-2.061,0-4.109-0.323-6.069-0.957l-3.199-1.035
					c-1.786-0.578-3.651-0.872-5.528-0.872h-18.281c-2.318,0-4.197,1.879-4.197,4.197v25.182c0,2.318,1.879,4.197,4.197,4.197h12.45
					c-2.042,6.043-5.041,11.191-4.235,15.338c0.925,4.757,6.871,6.343,7.749,1.849c0.861-4.41,7.551-12.787,7.551-12.787
					c1.837-1.837,1.96-3.941,12.224-4.437c-0.085-0.366-0.141-0.742-0.141-1.132V159.018z"/>
			</g>
		</g>
		<g>
			<g>
				<path fill="#F9D0B4" d="M153.728,34.602c-1.963-2.058-5.154-2.248-7.391-0.492c-3.538,2.777-9.658,6.209-18.304,6.209
					c-8.666,0-14.82-3.449-18.372-6.229c-2.235-1.749-5.42-1.553-7.379,0.501l-0.01,0.011c-2.753,2.886-4.288,6.722-4.288,10.71
					v25.191c0,16.509,13.507,30.016,30.016,30.016c16.509,0,30.016-13.507,30.016-30.016V45.312
					C158.016,41.324,156.481,37.489,153.728,34.602z"/>
			</g>
		</g>
		<g>
			<g>
				<path fill="#F9D0B4" d="M159.942,47.627c-0.656,0-1.298,0.055-1.926,0.153v22.723c0,0.677-0.031,1.347-0.076,2.013
					c0.653,0.105,1.319,0.175,2.002,0.175c6.921,0,12.532-5.611,12.532-12.532S166.864,47.627,159.942,47.627z"/>
			</g>
		</g>
		<g>
			<g>
				<path fill="#F9D0B4" d="M97.984,70.503V47.78c-0.628-0.097-1.271-0.153-1.926-0.153c-6.921,0-12.532,5.611-12.532,12.532
					s5.611,12.532,12.532,12.532c0.683,0,1.348-0.07,2.002-0.175v-0.001C98.015,71.85,97.984,71.18,97.984,70.503z"/>
			</g>
		</g>
		<g>
			<g>
				<path fill="#5B5D60" d="M157.904,22.023c-1.005,0-1.877-0.775-1.89-1.78c-0.23-16.726-19.33-19.868-38.351-16.583
					C101.536,6.444,89.75,20.429,89.75,36.794v12.549c1.854-1.084,4.005-1.716,6.308-1.716c0.656,0,1.298,0.055,1.926,0.153v-2.468
					c0-3.988,1.535-7.824,4.288-10.71l0.01-0.011c1.959-2.054,5.144-2.25,7.379-0.501c3.552,2.78,9.706,6.229,18.372,6.229
					c8.645,0,14.766-3.432,18.304-6.209c2.237-1.756,5.428-1.567,7.391,0.492c2.753,2.886,4.288,6.722,4.288,10.71v2.468
					c0.628-0.098,1.271-0.153,1.926-0.153c2.331,0,4.505,0.648,6.375,1.756V39.08C166.317,24.103,160.909,22.023,157.904,22.023z"/>
			</g>
		</g>
		<g>
			<g>
				<path fill="#DAE6F1" d="M142.911,129.731c-0.811,0.928-2.22,1.023-3.148,0.213l-6.726-5.874
					c-0.928-0.811-1.023-2.22-0.213-3.148l11.088-12.695c-1.325-1.764-2.084-3.936-2.084-6.227v-4.885
					c-4.145,2.17-8.848,3.406-13.828,3.406h0c-4.98,0-9.683-1.236-13.828-3.406v4.885c0,2.291-0.759,4.463-2.084,6.227
					l11.088,12.695c0.81,0.928,0.715,2.338-0.213,3.148l-6.726,5.874c-0.928,0.811-2.337,0.715-3.148-0.213l-6.199-7.097
					l3.872,24.138h34.475l3.872-24.139L142.911,129.731z"/>
			</g>
		</g>
		<g>
			<g>
				<path fill="#3A70BF" d="M105.185,112.004c-0.218-1.358-1.602-2.197-2.907-1.762l-19.626,6.542
					c-6.651,2.217-11.4,8.106-12.157,15.075l-1.1,10.114c-0.279,2.562,1.729,4.799,4.306,4.799h37.061L105.185,112.004z"/>
			</g>
		</g>
		<g>
			<g>
				<path fill="#3A70BF" d="M186.605,141.972l-1.099-10.114c-0.758-6.969-5.507-12.858-12.157-15.075l-19.626-6.542
					c-1.305-0.435-2.689,0.404-2.907,1.762l-5.577,34.768h37.061C184.876,146.772,186.883,144.535,186.605,141.972z"/>
			</g>
		</g>
		<g>
			<g>
				<path fill="#5290DB" d="M105.185,112.004c-0.218-1.358-1.602-2.197-2.907-1.762l-6.579,2.193v30.553
					c0,1.437,0.572,2.78,1.534,3.784h13.529L105.185,112.004z"/>
			</g>
		</g>
		<g>
			<g>
				<path fill="#5290DB" d="M153.721,110.242c-1.305-0.435-2.689,0.404-2.907,1.762l-5.577,34.768h13.529
					c0.962-1.004,1.534-2.347,1.534-3.784v-30.553L153.721,110.242z"/>
			</g>
		</g>
		<g>
			<g>
				<path fill="#EDF4FC" d="M148.482,106.385c-0.928-0.811-2.337-0.715-3.148,0.213l-12.51,14.323
					c-0.811,0.928-0.715,2.337,0.213,3.148l6.726,5.874c0.928,0.811,2.337,0.715,3.148-0.213l6.199-7.097l1.705-10.629
					c0.166-1.031,1.004-1.76,1.969-1.862L148.482,106.385z"/>
			</g>
		</g>
		<g>
			<g>
				<path fill="#EDF4FC" d="M123.176,120.921l-12.51-14.323c-0.811-0.928-2.22-1.023-3.148-0.213l-4.301,3.757
					c0.965,0.102,1.803,0.831,1.969,1.862l1.705,10.629l6.199,7.097c0.811,0.928,2.22,1.023,3.148,0.213l6.726-5.874
					C123.891,123.258,123.986,121.849,123.176,120.921z"/>
			</g>
		</g>
		<g>
			<g>
				<polygon fill="#FC657E" points="133.505,135.364 122.495,135.364 121.375,146.772 134.625,146.772 				"/>
			</g>
		</g>
		<g>
			<g>
				<path fill="#F98FA6" d="M133.037,124.069c-0.397-0.347-0.632-0.806-0.718-1.288h-8.637c-0.086,0.482-0.321,0.94-0.718,1.288
					l-3.954,3.453l3.485,7.842h11.01l3.486-7.842L133.037,124.069z"/>
			</g>
		</g>
		<g>
			<g>
				<path fill="#F9D0B4" d="M143.913,108.226c-1.325-1.764-2.084-3.936-2.084-6.227v-4.885c-4.145,2.17-8.848,3.406-13.828,3.406h0
					c-4.98,0-9.683-1.236-13.828-3.406v4.885c0,2.291-0.759,4.463-2.084,6.227l11.088,12.695c0.463,0.531,0.621,1.217,0.506,1.86
					h8.637c-0.115-0.643,0.042-1.33,0.506-1.86L143.913,108.226z"/>
			</g>
		</g>
		<g>
			<g>
				<g>
					<path d="M155.538,32.877C155.538,32.877,155.538,32.877,155.538,32.877c-2.851-2.989-7.471-3.304-10.745-0.733
						c-3.298,2.589-8.883,5.675-16.76,5.675c-7.894,0-13.51-3.099-16.831-5.698c-3.271-2.56-7.884-2.239-10.74,0.755
						c-3.21,3.367-4.978,7.784-4.978,12.436v25.191c0,17.93,14.587,32.516,32.516,32.516s32.516-14.586,32.516-32.516V45.313
						C160.516,40.661,158.748,36.244,155.538,32.877z M155.516,70.503c0,15.172-12.344,27.516-27.516,27.516
						s-27.516-12.344-27.516-27.516V45.313c0-3.361,1.277-6.553,3.607-8.996c0.577-0.605,1.354-0.915,2.141-0.915
						c0.659,0,1.325,0.217,1.888,0.657c3.941,3.084,10.595,6.76,19.913,6.76c9.306,0,15.93-3.667,19.848-6.742
						c1.24-0.974,2.976-0.864,4.038,0.25c2.319,2.433,3.597,5.624,3.597,8.985V70.503z"/>
				</g>
			</g>
		</g>
		<g>
			<g>
				<path d="M159.942,45.127c-0.415,0-0.824,0.018-1.229,0.052c-1.376,0.116-2.397,1.325-2.281,2.701s1.332,2.395,2.701,2.281
					c0.267-0.022,0.537-0.035,0.81-0.035c5.532,0,10.032,4.5,10.032,10.032s-4.5,10.032-10.032,10.032
					c-0.305,0-0.604-0.018-0.899-0.049c-1.384-0.138-2.603,0.856-2.744,2.229c-0.143,1.374,0.854,2.603,2.229,2.745
					c0.488,0.05,0.951,0.075,1.415,0.075c8.289,0,15.032-6.743,15.032-15.032S168.231,45.127,159.942,45.127z"/>
			</g>
		</g>
		<g>
			<g>
				<path d="M96.058,50.127c0.338,0,0.671,0.019,1,0.053c1.383,0.14,2.603-0.856,2.744-2.229c0.143-1.373-0.854-2.602-2.229-2.745
					c-8.926-0.919-16.548,6.165-16.548,14.953c0,8.289,6.743,15.032,15.032,15.032c0.381,0,0.757-0.017,1.129-0.048
					c1.376-0.115,2.398-1.324,2.283-2.7s-1.348-2.397-2.699-2.283c-0.235,0.02-0.473,0.031-0.713,0.031
					c-5.532,0-10.032-4.5-10.032-10.032S90.525,50.127,96.058,50.127z"/>
			</g>
		</g>
		<g>
			<g>
				<path d="M158.495,19.541c-0.229-5.583-2.379-10.1-6.394-13.434c-9.481-7.874-25.912-6.458-34.864-4.911
					c-17.376,3-29.988,17.971-29.988,35.598v12.01c0,1.381,1.119,2.5,2.5,2.5s2.5-1.119,2.5-2.5v-12.01
					c0-15.187,10.867-28.085,25.84-30.671c13.783-2.379,25.02-0.985,30.819,3.831c3.038,2.523,4.545,5.9,4.605,10.323
					c0.032,2.341,2.002,4.246,4.391,4.246c3.758,0,5.913,5.306,5.913,14.557v9.933c0,1.381,1.119,2.5,2.5,2.5s2.5-1.119,2.5-2.5
					V39.08C168.817,22.862,162.606,19.793,158.495,19.541z"/>
			</g>
		</g>
		<g>
			<g>
				<path d="M114.172,94.947c-1.381,0-2.5,1.119-2.5,2.5v4.551c0,1.615-0.492,3.173-1.424,4.506
					c-0.791,1.131-0.515,2.69,0.616,3.481c0.437,0.305,0.936,0.451,1.431,0.451c0.788,0,1.564-0.372,2.051-1.068
					c1.521-2.177,2.326-4.726,2.326-7.371v-4.551C116.672,96.066,115.553,94.947,114.172,94.947z"/>
			</g>
		</g>
		<g>
			<g>
				<path d="M145.784,106.549c-0.953-1.342-1.456-2.916-1.456-4.551v-4.333c0-1.381-1.119-2.5-2.5-2.5s-2.5,1.119-2.5,2.5v4.333
					c0,2.678,0.822,5.252,2.378,7.444c0.488,0.687,1.259,1.053,2.041,1.053c0.501,0,1.006-0.149,1.445-0.461
					C146.318,109.235,146.583,107.675,145.784,106.549z"/>
			</g>
		</g>
		<g>
			<g>
				<g>
					<path d="M113.231,146.375l-5.577-34.767c-0.221-1.374-1.028-2.575-2.218-3.296c-1.189-0.72-2.63-0.882-3.948-0.442
						c0,0,0,0-0.001,0l-19.626,6.542c-7.554,2.518-12.991,9.26-13.852,17.176l-1.1,10.113c-0.21,1.926,0.412,3.858,1.705,5.3
						c1.294,1.442,3.147,2.27,5.086,2.27h37.062c0.732,0,1.428-0.321,1.902-0.878C113.141,147.836,113.347,147.099,113.231,146.375z
						 M73.701,144.271c-0.711,0-1.159-0.381-1.363-0.608c-0.204-0.228-0.534-0.714-0.457-1.421l1.1-10.114
						c0.65-5.979,4.757-11.071,10.463-12.973l19.324-6.441l5.063,31.558H73.701z"/>
				</g>
			</g>
		</g>
		<g>
			<g>
				<g>
					<path d="M189.09,141.702l-1.1-10.114c-0.859-7.916-6.297-14.658-13.852-17.176l-19.627-6.542
						c-1.32-0.44-2.758-0.278-3.948,0.442c-1.189,0.721-1.997,1.922-2.218,3.295l-5.577,34.768c-0.115,0.723,0.091,1.46,0.566,2.018
						c0.475,0.558,1.17,0.878,1.902,0.878h37.062c1.938,0,3.792-0.828,5.086-2.27C188.678,145.559,189.3,143.627,189.09,141.702z
						 M184.119,142.243c0.077,0.706-0.253,1.192-0.457,1.42c-0.204,0.227-0.652,0.608-1.363,0.608H148.17l5.063-31.558l19.324,6.441
						c5.707,1.902,9.813,6.995,10.463,12.973L184.119,142.243C184.119,142.243,184.119,142.243,184.119,142.243z"/>
				</g>
			</g>
		</g>
		<g>
			<g>
				<path d="M138.176,76.515c-1.059-0.886-2.634-0.748-3.522,0.31c-1.36,1.622-3.684,2.591-6.217,2.591s-4.856-0.969-6.217-2.591
					c-0.889-1.059-2.464-1.196-3.522-0.31c-1.058,0.887-1.196,2.464-0.31,3.522c2.299,2.742,6.056,4.379,10.049,4.379
					s7.75-1.637,10.049-4.379C139.372,78.979,139.233,77.402,138.176,76.515z"/>
			</g>
		</g>
		<g>
			<g>
				<path d="M141.978,57.512c-2.227,0-4.033,1.806-4.033,4.033c0,2.227,1.806,4.033,4.033,4.033c2.227,0,4.033-1.806,4.033-4.033
					C146.011,59.317,144.205,57.512,141.978,57.512z"/>
			</g>
		</g>
		<g>
			<g>
				<circle cx="114.895" cy="61.545" r="4.033"/>
			</g>
		</g>
		<g>
			<g>
				<path d="M98.998,144.999c-0.515-0.558-0.798-1.272-0.798-2.012v-29.933c0-1.381-1.119-2.5-2.5-2.5s-2.5,1.119-2.5,2.5v29.933
					c0,2,0.754,3.918,2.124,5.402c0.492,0.534,1.164,0.805,1.838,0.805c0.605,0,1.214-0.219,1.694-0.663
					C99.871,147.595,99.935,146.013,98.998,144.999z"/>
			</g>
		</g>
		<g>
			<g>
				<path d="M160.3,110.59c-1.381,0-2.5,1.119-2.5,2.5v29.897c0,0.713-0.267,1.409-0.75,1.958c-0.912,1.036-0.812,2.616,0.225,3.528
					c0.476,0.418,1.064,0.624,1.651,0.624c0.693,0,1.384-0.287,1.878-0.848c1.287-1.462,1.996-3.331,1.996-5.262V113.09
					C162.8,111.709,161.681,110.59,160.3,110.59z"/>
			</g>
		</g>
		<g>
			<g>
				<path d="M154.196,108.057l-4.07-3.555c-1.966-1.716-4.96-1.513-6.675,0.452l-12.51,14.322c-1.716,1.964-1.514,4.959,0.451,6.676
					l6.726,5.875c0.869,0.759,1.961,1.168,3.105,1.168c0.108,0,0.217-0.003,0.326-0.011c1.261-0.085,2.413-0.657,3.244-1.608
					l6.086-6.969c0.908-1.04,0.802-2.619-0.238-3.527c-1.039-0.908-2.619-0.803-3.527,0.238l-5.909,6.767l-6.321-5.521
					l12.156-13.918l3.867,3.378c1.038,0.908,2.618,0.802,3.527-0.238C155.343,110.545,155.236,108.965,154.196,108.057z"/>
			</g>
		</g>
		<g>
			<g>
				<path d="M125.059,119.276l-12.51-14.323c-1.715-1.964-4.71-2.167-6.676-0.451l-4.209,3.676c-1.04,0.908-1.146,2.487-0.238,3.527
					c0.907,1.04,2.488,1.147,3.527,0.238l4.007-3.5l12.156,13.918l-6.32,5.521l-5.973-6.837c-0.909-1.041-2.489-1.146-3.527-0.238
					c-1.04,0.908-1.146,2.488-0.238,3.527l6.148,7.039c0.831,0.953,1.983,1.524,3.244,1.61c0.109,0.007,0.218,0.011,0.326,0.011
					c1.145,0,2.236-0.409,3.105-1.168l6.726-5.875C126.572,124.235,126.774,121.24,125.059,119.276z"/>
			</g>
		</g>
		<g>
			<g>
				<path d="M135.993,135.12c-0.126-1.28-1.202-2.256-2.488-2.256h-11.01c-1.286,0-2.362,0.976-2.488,2.256l-1.028,10.473
					c-0.135,1.374,0.87,2.597,2.244,2.732c1.368,0.126,2.598-0.87,2.732-2.244l0.807-8.217h6.477l0.827,8.424
					c0.127,1.292,1.215,2.256,2.485,2.256c0.082,0,0.164-0.004,0.247-0.012c1.374-0.135,2.379-1.358,2.244-2.732L135.993,135.12z"/>
			</g>
		</g>
		<g>
			<g>
				<g>
					<path d="M131.305,120.281h-6.715c-1.381,0-2.5,1.119-2.5,2.5s1.119,2.5,2.5,2.5h6.715c1.381,0,2.5-1.119,2.5-2.5
						S132.686,120.281,131.305,120.281z"/>
				</g>
			</g>
			<g>
				<g>
					<path d="M137.888,125.503c-1.261-0.56-2.738,0.007-3.3,1.27l-3.367,7.576c-0.562,1.262,0.007,2.739,1.269,3.3
						c0.33,0.146,0.675,0.216,1.015,0.216c0.957,0,1.871-0.554,2.285-1.485l3.367-7.576
						C139.718,127.542,139.149,126.064,137.888,125.503z"/>
				</g>
			</g>
			<g>
				<g>
					<path d="M124.779,134.349l-3.306-7.437c-0.561-1.263-2.039-1.828-3.3-1.269c-1.262,0.561-1.83,2.039-1.269,3.3l3.306,7.437
						c0.414,0.932,1.328,1.485,2.285,1.485c0.34,0,0.685-0.069,1.015-0.216C124.772,137.088,125.341,135.61,124.779,134.349z"/>
				</g>
			</g>
		</g>
		<g>
			<g>
				<path d="M145.237,144.271h-34.475c-1.381,0-2.5,1.119-2.5,2.5s1.119,2.5,2.5,2.5h34.475c1.381,0,2.5-1.119,2.5-2.5
					S146.618,144.271,145.237,144.271z"/>
			</g>
		</g>
		<g>
			<g>
				<path fill="#F9D0B4" d="M110.676,185.992c-2.019-0.368-4.1-0.56-6.225-0.56c-2.125,0-4.206,0.192-6.225,0.56
					c-8.012,1.46-14.182,7.607-15.977,15.363c5.801,0.896,10.248,5.884,10.275,11.929h22.92c0.028-6.354,4.938-11.546,11.173-12.038
					C124.791,193.541,118.649,187.444,110.676,185.992z"/>
			</g>
		</g>
		<g>
			<g>
				<circle fill="#F9D0B4" cx="103.983" cy="173.123" r="12.142"/>
			</g>
		</g>
		<g>
			<g>
				<path fill="#F9D0B4" d="M157.873,185.992c-2.019-0.368-4.1-0.56-6.225-0.56s-4.206,0.192-6.225,0.56
					c-8.012,1.46-14.182,7.607-15.977,15.363c5.801,0.896,10.248,5.884,10.275,11.929h22.92c0.028-6.354,4.938-11.546,11.173-12.038
					C171.988,193.541,165.847,187.444,157.873,185.992z"/>
			</g>
		</g>
		<g>
			<g>
				
					<ellipse transform="matrix(0.9571 -0.2898 0.2898 0.9571 -43.6814 51.2381)" fill="#F9D0B4" cx="151.181" cy="173.123" rx="12.142" ry="12.142"/>
			</g>
		</g>
		<g>
			<g>
				<path fill="#F9D0B4" d="M103.282,242.717c-1.425-8.293-7.802-14.979-16.206-16.51c-2.019-0.368-4.1-0.56-6.225-0.56
					s-4.206,0.192-6.225,0.56c-8.775,1.599-15.358,8.813-16.383,17.614c-0.06,0.519-0.076,1.043-0.076,1.566v5.745
					c0,1.307,1.06,2.367,2.367,2.367h40.536c1.307,0,2.367-1.06,2.367-2.367v-6.276
					C103.437,244.141,103.404,243.423,103.282,242.717z"/>
			</g>
		</g>
		<g>
			<g>
				
					<ellipse transform="matrix(0.9871 -0.1602 0.1602 0.9871 -33.1351 15.6309)" fill="#F9D0B4" cx="80.384" cy="213.339" rx="12.142" ry="12.142"/>
			</g>
		</g>
		<g>
			<g>
				<path fill="#F9D0B4" d="M150.48,242.717c-1.425-8.293-7.802-14.979-16.206-16.51c-2.019-0.368-4.1-0.56-6.225-0.56
					s-4.206,0.192-6.225,0.56c-8.775,1.599-15.358,8.813-16.383,17.614c-0.06,0.519-0.076,1.043-0.076,1.566v5.745
					c0,1.307,1.06,2.367,2.367,2.367h40.536c1.307,0,2.367-1.06,2.367-2.367v-6.276C150.635,244.141,150.602,243.423,150.48,242.717
					z"/>
			</g>
		</g>
		<g>
			<g>
				<circle fill="#F9D0B4" cx="127.582" cy="213.339" r="12.142"/>
			</g>
		</g>
		<g>
			<g>
				<path fill="#F9D0B4" d="M197.678,242.717c-1.425-8.293-7.802-14.979-16.206-16.51c-2.019-0.368-4.1-0.56-6.225-0.56
					s-4.206,0.192-6.225,0.56c-8.775,1.599-15.358,8.813-16.382,17.614c-0.06,0.519-0.076,1.043-0.076,1.566v5.745
					c0,1.307,1.06,2.367,2.367,2.367h40.536c1.307,0,2.367-1.06,2.367-2.367v-6.276
					C197.833,244.141,197.799,243.423,197.678,242.717z"/>
			</g>
		</g>
		<g>
			<g>
				<path fill="#F9D0B4" d="M174.78,201.197c-6.706,0-12.142,5.436-12.142,12.142c0,6.706,5.436,12.142,12.142,12.142
					c6.706,0,12.142-5.436,12.142-12.142C186.922,206.633,181.486,201.197,174.78,201.197z"/>
			</g>
		</g>
		<g>
			<g>
				<path fill="#5290DB" d="M110.676,185.992c-2.019-0.368-4.1-0.56-6.225-0.56c-2.125,0-4.206,0.192-6.225,0.56
					c-8.012,1.46-14.182,7.607-15.977,15.363c5.801,0.896,10.248,5.884,10.275,11.929h22.92c0.028-6.354,4.938-11.546,11.173-12.038
					C124.791,193.541,118.649,187.444,110.676,185.992z"/>
			</g>
		</g>
		<g>
			<g>
				<circle fill="#F9D0B4" cx="103.983" cy="173.123" r="12.142"/>
			</g>
		</g>
		<g>
			<g>
				<path fill="#F5C84C" d="M157.873,185.992c-2.019-0.368-4.1-0.56-6.225-0.56s-4.206,0.192-6.225,0.56
					c-8.012,1.46-14.182,7.607-15.977,15.363c5.801,0.896,10.248,5.884,10.275,11.929h22.92c0.028-6.354,4.938-11.546,11.173-12.038
					C171.988,193.541,165.847,187.444,157.873,185.992z"/>
			</g>
		</g>
		<g>
			<g>
				
					<ellipse transform="matrix(0.9571 -0.2898 0.2898 0.9571 -43.6814 51.2381)" fill="#F9D0B4" cx="151.181" cy="173.123" rx="12.142" ry="12.142"/>
			</g>
		</g>
		<g>
			<g>
				<path fill="#70D6F9" d="M103.282,242.717c-1.425-8.293-7.802-14.979-16.206-16.51c-2.019-0.368-4.1-0.56-6.225-0.56
					s-4.206,0.192-6.225,0.56c-8.775,1.599-15.358,8.813-16.383,17.614c-0.06,0.519-0.076,1.043-0.076,1.566v5.745
					c0,1.307,1.06,2.367,2.367,2.367h40.536c1.307,0,2.367-1.06,2.367-2.367v-6.276
					C103.437,244.141,103.404,243.423,103.282,242.717z"/>
			</g>
		</g>
		<g>
			<g>
				
					<ellipse transform="matrix(0.9871 -0.1602 0.1602 0.9871 -33.1351 15.6309)" fill="#F9D0B4" cx="80.384" cy="213.339" rx="12.142" ry="12.142"/>
			</g>
		</g>
		<g>
			<g>
				<path fill="#87D147" d="M150.48,242.717c-1.425-8.293-7.802-14.979-16.206-16.51c-2.019-0.368-4.1-0.56-6.225-0.56
					s-4.206,0.192-6.225,0.56c-8.775,1.599-15.358,8.813-16.383,17.614c-0.06,0.519-0.076,1.043-0.076,1.566v5.745
					c0,1.307,1.06,2.367,2.367,2.367h40.536c1.307,0,2.367-1.06,2.367-2.367v-6.276C150.635,244.141,150.602,243.423,150.48,242.717
					z"/>
			</g>
		</g>
		<g>
			<g>
				<circle fill="#F9D0B4" cx="127.582" cy="213.339" r="12.142"/>
			</g>
		</g>
		<g>
			<g>
				<path fill="#B598F9" d="M197.678,242.717c-1.425-8.293-7.802-14.979-16.206-16.51c-2.019-0.368-4.1-0.56-6.225-0.56
					s-4.206,0.192-6.225,0.56c-8.775,1.599-15.358,8.813-16.382,17.614c-0.06,0.519-0.076,1.043-0.076,1.566v5.745
					c0,1.307,1.06,2.367,2.367,2.367h40.536c1.307,0,2.367-1.06,2.367-2.367v-6.276
					C197.833,244.141,197.799,243.423,197.678,242.717z"/>
			</g>
		</g>
		<g>
			<g>
				<path fill="#F9D0B4" d="M174.78,201.197c-6.706,0-12.142,5.436-12.142,12.142c0,6.706,5.436,12.142,12.142,12.142
					c6.706,0,12.142-5.436,12.142-12.142C186.922,206.633,181.486,201.197,174.78,201.197z"/>
			</g>
		</g>
		<g>
			<g>
				<g>
					<path d="M129.049,200.67c-2.086-8.807-9.122-15.534-17.925-17.138c-4.379-0.797-8.969-0.797-13.348,0
						c-8.859,1.614-15.911,8.389-17.964,17.259c-0.157,0.677-0.024,1.389,0.365,1.965s1.002,0.963,1.688,1.069
						c4.705,0.727,8.136,4.709,8.157,9.47c0.006,1.376,1.124,2.489,2.5,2.489h22.92c1.376,0,2.494-1.112,2.5-2.489
						c0.022-4.968,3.918-9.166,8.869-9.557c0.729-0.058,1.395-0.43,1.824-1.02S129.217,201.38,129.049,200.67z M113.171,210.784
						H94.804c-0.9-5.17-4.491-9.429-9.412-11.198c2.184-5.761,7.184-10.024,13.281-11.135c3.787-0.689,7.768-0.689,11.555,0
						c5.992,1.092,10.935,5.245,13.168,10.871C118.153,200.901,114.146,205.369,113.171,210.784z"/>
				</g>
			</g>
		</g>
		<g>
			<g>
				<g>
					<path d="M103.983,158.481c-8.073,0-14.642,6.568-14.642,14.642c0,8.074,6.568,14.642,14.642,14.642s14.642-6.568,14.642-14.642
						C118.625,165.05,112.057,158.481,103.983,158.481z M103.983,182.765c-5.316,0-9.642-4.325-9.642-9.642
						c0-5.316,4.325-9.642,9.642-9.642s9.642,4.325,9.642,9.642C113.625,178.44,109.3,182.765,103.983,182.765z"/>
				</g>
			</g>
		</g>
		<g>
			<g>
				<g>
					<path d="M176.246,200.67c-2.086-8.807-9.122-15.534-17.925-17.138c-4.38-0.797-8.973-0.797-13.347,0
						c-8.86,1.614-15.912,8.389-17.965,17.259c-0.157,0.677-0.024,1.389,0.365,1.965s1.002,0.963,1.688,1.069
						c4.706,0.727,8.137,4.709,8.157,9.469c0.006,1.376,1.124,2.489,2.5,2.489h22.92c1.376,0,2.494-1.112,2.5-2.489
						c0.022-4.968,3.918-9.166,8.869-9.557c0.729-0.058,1.395-0.43,1.824-1.02S176.414,201.38,176.246,200.67z M160.368,210.784
						h-18.367c-0.899-5.17-4.49-9.43-9.412-11.199c2.184-5.76,7.184-10.023,13.282-11.134c3.785-0.689,7.767-0.689,11.554,0
						c5.992,1.091,10.935,5.245,13.168,10.871C165.351,200.901,161.343,205.369,160.368,210.784z"/>
				</g>
			</g>
		</g>
		<g>
			<g>
				<g>
					<path d="M151.181,158.481c-8.073,0-14.642,6.568-14.642,14.642c0,8.074,6.568,14.642,14.642,14.642s14.642-6.568,14.642-14.642
						C165.822,165.05,159.254,158.481,151.181,158.481z M151.181,182.765c-5.316,0-9.642-4.325-9.642-9.642
						c0-5.316,4.325-9.642,9.642-9.642s9.642,4.325,9.642,9.642C160.822,178.44,156.497,182.765,151.181,182.765z"/>
				</g>
			</g>
		</g>
		<g>
			<g>
				<g>
					<path d="M105.746,242.295C105.746,242.294,105.746,242.294,105.746,242.295c-1.615-9.402-8.938-16.855-18.222-18.547
						c-4.375-0.797-8.968-0.797-13.347,0c-9.847,1.794-17.248,9.745-18.418,19.784c-0.081,0.699-0.092,1.359-0.092,1.855v5.746
						c0,2.684,2.183,4.867,4.866,4.867h40.536c2.684,0,4.866-2.183,4.866-4.867v-6.276
						C105.937,243.866,105.876,243.052,105.746,242.295z M100.937,251H60.668v-5.612c0-0.537,0.018-0.93,0.059-1.276
						c0.913-7.841,6.679-14.047,14.348-15.444c3.787-0.689,7.769-0.689,11.554,0c7.227,1.317,12.93,7.133,14.19,14.474
						c0.081,0.471,0.118,1.016,0.118,1.717V251z"/>
				</g>
			</g>
		</g>
		<g>
			<g>
				<g>
					<path d="M80.385,198.697c-8.074,0-14.643,6.568-14.643,14.642c0,8.074,6.568,14.642,14.643,14.642
						c8.073,0,14.642-6.568,14.642-14.642C95.026,205.266,88.458,198.697,80.385,198.697z M80.385,222.981
						c-5.317,0-9.643-4.325-9.643-9.642c0-5.316,4.325-9.642,9.643-9.642c5.316,0,9.642,4.325,9.642,9.642
						C90.026,218.656,85.701,222.981,80.385,222.981z"/>
				</g>
			</g>
		</g>
		<g>
			<g>
				<g>
					<path d="M152.944,242.295C152.944,242.294,152.944,242.294,152.944,242.295c-1.616-9.402-8.939-16.855-18.222-18.547
						c-4.38-0.797-8.973-0.797-13.347,0c-9.848,1.794-17.249,9.745-18.418,19.784c-0.083,0.714-0.093,1.401-0.093,1.855v5.746
						c0,2.684,2.184,4.867,4.867,4.867h40.535c2.684,0,4.867-2.183,4.867-4.867v-6.276
						C153.135,243.866,153.074,243.052,152.944,242.295z M148.135,251h-40.27v-5.612c0-0.531,0.019-0.924,0.06-1.276
						c0.912-7.841,6.679-14.047,14.348-15.444c3.785-0.689,7.767-0.689,11.554,0c7.226,1.317,12.929,7.133,14.19,14.474
						c0.081,0.471,0.118,1.016,0.118,1.717V251z"/>
				</g>
			</g>
		</g>
		<g>
			<g>
				<g>
					<path d="M127.582,198.697c-8.073,0-14.642,6.568-14.642,14.642c0,8.074,6.568,14.642,14.642,14.642s14.642-6.568,14.642-14.642
						C142.224,205.266,135.655,198.697,127.582,198.697z M127.582,222.981c-5.316,0-9.642-4.325-9.642-9.642
						c0-5.316,4.325-9.642,9.642-9.642s9.642,4.325,9.642,9.642C137.224,218.656,132.898,222.981,127.582,222.981z"/>
				</g>
			</g>
		</g>
		<g>
			<g>
				<g>
					<path d="M200.142,242.295C200.142,242.294,200.142,242.294,200.142,242.295c-1.615-9.402-8.938-16.855-18.221-18.547
						c-4.379-0.797-8.969-0.797-13.348,0c-9.847,1.794-17.248,9.745-18.418,19.784c-0.081,0.699-0.092,1.359-0.092,1.855v5.746
						c0,2.684,2.183,4.867,4.866,4.867h40.536c2.684,0,4.866-2.183,4.866-4.867v-6.276
						C200.332,243.866,200.271,243.052,200.142,242.295z M195.332,251h-40.269v-5.612c0-0.537,0.018-0.93,0.059-1.276
						c0.913-7.841,6.679-14.047,14.348-15.444c3.787-0.689,7.768-0.689,11.555,0c7.227,1.317,12.929,7.133,14.189,14.474
						c0.081,0.471,0.118,1.016,0.118,1.717V251z"/>
				</g>
			</g>
		</g>
		<g>
			<g>
				<g>
					<path d="M174.78,198.697c-8.073,0-14.642,6.568-14.642,14.642c0,8.074,6.568,14.642,14.642,14.642s14.642-6.568,14.642-14.642
						C189.422,205.266,182.854,198.697,174.78,198.697z M174.78,222.981c-5.316,0-9.642-4.325-9.642-9.642
						c0-5.316,4.325-9.642,9.642-9.642s9.642,4.325,9.642,9.642C184.422,218.656,180.097,222.981,174.78,222.981z"/>
				</g>
			</g>
		</g>
		<g>
			<g>
				<path d="M114.458,210.784H93.47c-1.381,0-2.5,1.119-2.5,2.5s1.119,2.5,2.5,2.5h20.988c1.381,0,2.5-1.119,2.5-2.5
					S115.839,210.784,114.458,210.784z"/>
			</g>
		</g>
		<g>
			<g>
				<path d="M128.966,200.333c-2.182-8.629-9.186-15.223-17.842-16.8c-4.379-0.797-8.969-0.797-13.348,0
					c-8.55,1.558-15.531,8.051-17.785,16.542c-0.354,1.334,0.44,2.704,1.774,3.058c1.332,0.352,2.703-0.44,3.058-1.775
					c1.76-6.627,7.195-11.693,13.85-12.906c3.787-0.689,7.768-0.689,11.555,0c6.735,1.227,12.188,6.372,13.891,13.107
					c0.286,1.133,1.305,1.888,2.422,1.888c0.203,0,0.409-0.025,0.615-0.077C128.493,203.031,129.304,201.671,128.966,200.333z"/>
			</g>
		</g>
		<g>
			<g>
				<g>
					<path d="M103.983,158.481c-8.073,0-14.642,6.568-14.642,14.642c0,8.074,6.568,14.642,14.642,14.642s14.642-6.568,14.642-14.642
						C118.625,165.05,112.057,158.481,103.983,158.481z M103.983,182.765c-5.316,0-9.642-4.325-9.642-9.642
						c0-5.316,4.325-9.642,9.642-9.642s9.642,4.325,9.642,9.642C113.625,178.44,109.3,182.765,103.983,182.765z"/>
				</g>
			</g>
		</g>
		<g>
			<g>
				<path d="M161.792,210.784h-21.25c-1.381,0-2.5,1.119-2.5,2.5s1.119,2.5,2.5,2.5h21.25c1.381,0,2.5-1.119,2.5-2.5
					S163.173,210.784,161.792,210.784z"/>
			</g>
		</g>
		<g>
			<g>
				<path d="M176.174,200.374c-2.17-8.65-9.178-15.261-17.853-16.842c-4.38-0.797-8.973-0.797-13.347,0
					c-8.655,1.577-15.662,8.166-17.85,16.786c-0.34,1.338,0.47,2.699,1.808,3.039c1.338,0.339,2.698-0.469,3.038-1.808
					c1.708-6.729,7.164-11.871,13.9-13.098c3.785-0.689,7.767-0.689,11.554,0c6.75,1.229,12.205,6.387,13.899,13.14
					c0.285,1.135,1.304,1.892,2.423,1.892c0.201,0,0.406-0.024,0.61-0.076C175.696,203.071,176.51,201.713,176.174,200.374z"/>
			</g>
		</g>
		<g>
			<g>
				<g>
					<path d="M151.181,158.481c-8.073,0-14.642,6.568-14.642,14.642c0,8.074,6.568,14.642,14.642,14.642s14.642-6.568,14.642-14.642
						C165.822,165.05,159.254,158.481,151.181,158.481z M151.181,182.765c-5.316,0-9.642-4.325-9.642-9.642
						c0-5.316,4.325-9.642,9.642-9.642s9.642,4.325,9.642,9.642C160.822,178.44,156.497,182.765,151.181,182.765z"/>
				</g>
			</g>
		</g>
		<g>
			<g>
				<g>
					<path d="M105.746,242.295C105.746,242.294,105.746,242.294,105.746,242.295c-1.615-9.402-8.938-16.855-18.222-18.547
						c-4.375-0.797-8.968-0.797-13.347,0c-9.847,1.794-17.248,9.745-18.418,19.784c-0.081,0.699-0.092,1.359-0.092,1.855v5.746
						c0,2.684,2.183,4.867,4.866,4.867h40.536c2.684,0,4.866-2.183,4.866-4.867v-6.276
						C105.937,243.866,105.876,243.052,105.746,242.295z M100.937,251H60.668v-5.612c0-0.537,0.018-0.93,0.059-1.276
						c0.913-7.841,6.679-14.047,14.348-15.444c3.787-0.689,7.769-0.689,11.554,0c7.227,1.317,12.93,7.133,14.19,14.474
						c0.081,0.471,0.118,1.016,0.118,1.717V251z"/>
				</g>
			</g>
		</g>
		<g>
			<g>
				<g>
					<path d="M80.385,198.697c-8.074,0-14.643,6.568-14.643,14.642c0,8.074,6.568,14.642,14.643,14.642
						c8.073,0,14.642-6.568,14.642-14.642C95.026,205.266,88.458,198.697,80.385,198.697z M80.385,222.981
						c-5.317,0-9.643-4.325-9.643-9.642c0-5.316,4.325-9.642,9.643-9.642c5.316,0,9.642,4.325,9.642,9.642
						C90.026,218.656,85.701,222.981,80.385,222.981z"/>
				</g>
			</g>
		</g>
		<g>
			<g>
				<g>
					<path d="M152.944,242.295C152.944,242.294,152.944,242.294,152.944,242.295c-1.616-9.402-8.939-16.855-18.222-18.547
						c-4.38-0.797-8.973-0.797-13.347,0c-9.848,1.794-17.249,9.745-18.418,19.784c-0.083,0.714-0.093,1.401-0.093,1.855v5.746
						c0,2.684,2.184,4.867,4.867,4.867h40.535c2.684,0,4.867-2.183,4.867-4.867v-6.276
						C153.135,243.866,153.074,243.052,152.944,242.295z M148.135,251h-40.27v-5.612c0-0.531,0.019-0.924,0.06-1.276
						c0.912-7.841,6.679-14.047,14.348-15.444c3.785-0.689,7.767-0.689,11.554,0c7.226,1.317,12.929,7.133,14.19,14.474
						c0.081,0.471,0.118,1.016,0.118,1.717V251z"/>
				</g>
			</g>
		</g>
		<g>
			<g>
				<g>
					<path d="M127.582,198.697c-8.073,0-14.642,6.568-14.642,14.642c0,8.074,6.568,14.642,14.642,14.642s14.642-6.568,14.642-14.642
						C142.224,205.266,135.655,198.697,127.582,198.697z M127.582,222.981c-5.316,0-9.642-4.325-9.642-9.642
						c0-5.316,4.325-9.642,9.642-9.642s9.642,4.325,9.642,9.642C137.224,218.656,132.898,222.981,127.582,222.981z"/>
				</g>
			</g>
		</g>
		<g>
			<g>
				<g>
					<path d="M200.142,242.295C200.142,242.294,200.142,242.294,200.142,242.295c-1.615-9.402-8.938-16.855-18.221-18.547
						c-4.379-0.797-8.969-0.797-13.348,0c-9.847,1.794-17.248,9.745-18.418,19.784c-0.081,0.699-0.092,1.359-0.092,1.855v5.746
						c0,2.684,2.183,4.867,4.866,4.867h40.536c2.684,0,4.866-2.183,4.866-4.867v-6.276
						C200.332,243.866,200.271,243.052,200.142,242.295z M195.332,251h-40.269v-5.612c0-0.537,0.018-0.93,0.059-1.276
						c0.913-7.841,6.679-14.047,14.348-15.444c3.787-0.689,7.768-0.689,11.555,0c7.227,1.317,12.929,7.133,14.189,14.474
						c0.081,0.471,0.118,1.016,0.118,1.717V251z"/>
				</g>
			</g>
		</g>
		<g>
			<g>
				<g>
					<path d="M174.78,198.697c-8.073,0-14.642,6.568-14.642,14.642c0,8.074,6.568,14.642,14.642,14.642s14.642-6.568,14.642-14.642
						C189.422,205.266,182.854,198.697,174.78,198.697z M174.78,222.981c-5.316,0-9.642-4.325-9.642-9.642
						c0-5.316,4.325-9.642,9.642-9.642s9.642,4.325,9.642,9.642C184.422,218.656,180.097,222.981,174.78,222.981z"/>
				</g>
			</g>
		</g>
		<g>
			<g>
				<path d="M200.18,98.584l-5.739-5.74c-0.977-0.977-2.559-0.976-3.535,0c-0.977,0.977-0.977,2.56,0,3.536l5.739,5.74
					c0.488,0.488,1.128,0.732,1.768,0.732s1.279-0.244,1.768-0.732C201.156,101.143,201.156,99.56,200.18,98.584z"/>
			</g>
		</g>
		<g>
			<g>
				<path d="M209.327,71.5h-8.117c-1.381,0-2.5,1.119-2.5,2.5s1.119,2.5,2.5,2.5h8.117c1.381,0,2.5-1.119,2.5-2.5
					S210.708,71.5,209.327,71.5z"/>
			</g>
		</g>
		<g>
			<g>
				<path d="M200.18,45.88c-0.977-0.976-2.559-0.976-3.535,0l-5.739,5.74c-0.977,0.976-0.977,2.559,0,3.536
					c0.488,0.488,1.128,0.732,1.768,0.732s1.279-0.244,1.768-0.732l5.739-5.74C201.156,48.44,201.156,46.857,200.18,45.88z"/>
			</g>
		</g>
		<g>
			<g>
				<path d="M65.095,92.844c-0.977-0.976-2.559-0.976-3.535,0l-5.739,5.74c-0.977,0.976-0.977,2.559,0,3.536
					c0.488,0.488,1.128,0.732,1.768,0.732s1.279-0.244,1.768-0.732l5.739-5.74C66.071,95.403,66.071,93.82,65.095,92.844z"/>
			</g>
		</g>
		<g>
			<g>
				<path d="M54.79,71.5h-8.117c-1.381,0-2.5,1.119-2.5,2.5s1.119,2.5,2.5,2.5h8.117c1.381,0,2.5-1.119,2.5-2.5
					S56.171,71.5,54.79,71.5z"/>
			</g>
		</g>
		<g>
			<g>
				<path d="M65.095,51.621l-5.739-5.74c-0.977-0.977-2.559-0.976-3.535,0c-0.977,0.977-0.977,2.56,0,3.536l5.739,5.74
					c0.488,0.488,1.128,0.732,1.768,0.732c0.64,0,1.279-0.244,1.768-0.732C66.071,54.18,66.071,52.597,65.095,51.621z"/>
			</g>
		</g>
		<g>
			<g>
				<path fill="#87D147" d="M25.692,97.1h-2.4v-2.3c0-1.8-1.4-3.2-3.2-3.2c-1.7,0-3.2,1.4-3.2,3.1v2.4h-2.3c-1.8,0-3.2,1.4-3.2,3.2
					c-0.1,1.7,1.3,3.2,3.2,3.2h2.3v2.3c0,1.8,1.4,3.2,3.2,3.2c1.7,0,3.2-1.4,3.2-3.1v-2.4h2.3c1.8,0,3.2-1.4,3.2-3.2
					C28.792,98.6,27.392,97.1,25.692,97.1z"/>
			</g>
		</g>
		<g>
			<g>
				<path fill="#70D6F9" d="M230.538,122.175c-3.1-0.6-5.6-3-6.2-6.1c0-0.1-0.3-0.1-0.3,0c-0.6,3.1-3.1,5.5-6.2,6.1
					c-0.1,0-0.1,0.2,0,0.3c3.1,0.6,5.6,3,6.2,6.1c0,0.1,0.3,0.1,0.3,0c0.6-3.1,3.1-5.5,6.2-6.1
					C230.638,122.375,230.638,122.175,230.538,122.175z"/>
			</g>
		</g>
		<g>
			<g>
				<path fill="#F5C84C" d="M31.756,127c-1.878,0-3.4,1.522-3.4,3.4c0,1.878,1.522,3.4,3.4,3.4c1.878,0,3.4-1.522,3.4-3.4
					C35.156,128.522,33.634,127,31.756,127z"/>
			</g>
		</g>
		<g>
			<g>
				<path fill="#FC657E" d="M186.756,0c-1.878,0-3.4,1.522-3.4,3.4c0,1.878,1.522,3.4,3.4,3.4c1.878,0,3.4-1.522,3.4-3.4
					C190.156,1.522,188.634,0,186.756,0z"/>
			</g>
		</g>
		<g>
			<g>
				<path fill="#F5C84C" d="M221.538,23.2c-4.5-0.8-8-4.3-8.9-8.7c0-0.2-0.4-0.2-0.4,0c-0.9,4.4-4.4,7.9-8.9,8.7
					c-0.2,0-0.2,0.3,0,0.4c4.5,0.8,8,4.3,8.9,8.7c0,0.2,0.4,0.2,0.4,0c0.9-4.4,4.4-7.9,8.9-8.7
					C221.738,23.5,221.738,23.2,221.538,23.2z"/>
			</g>
		</g>
		<g>
			<g>
				<path d="M13.481,158.5H7.519c-1.381,0-2.5,1.119-2.5,2.5s1.119,2.5,2.5,2.5h5.963c1.389,0,2.519,1.13,2.519,2.519v27.963
					c0,1.389-1.13,2.519-2.519,2.519H7.519c-1.381,0-2.5,1.119-2.5,2.5s1.119,2.5,2.5,2.5h5.963c4.146,0,7.519-3.373,7.519-7.519
					v-27.963C21,161.873,17.627,158.5,13.481,158.5z"/>
			</g>
		</g>
		<g>
			<g>
				<path d="M54.098,162.349h-8.861c0.187-0.475,0.374-0.944,0.559-1.409c1.679-4.213,3.265-8.192,2.542-11.906
					c-0.724-3.724-3.847-6.533-7.263-6.534c-0.001,0-0.002,0-0.002,0c-2.72,0-4.836,1.838-5.392,4.683
					c-0.534,2.738-4.525,8.524-6.973,11.607c-0.271,0.28-0.515,0.564-0.756,0.849c-1.004,1.185-1.952,2.303-9.051,2.715
					c-1.379,0.08-2.431,1.262-2.352,2.64c0.08,1.377,1.252,2.43,2.641,2.351c8.576-0.497,10.622-2.167,12.576-4.474
					c0.186-0.219,0.37-0.44,0.584-0.655c0.066-0.066,0.128-0.135,0.186-0.208c0.725-0.907,7.101-8.998,8.053-13.868
					c0.123-0.635,0.304-0.641,0.478-0.641h0.006c0.785,0,2.041,0.865,2.356,2.488c0.442,2.272-0.818,5.437-2.278,9.101
					c-0.63,1.581-1.281,3.215-1.87,4.959c-0.258,0.763-0.133,1.604,0.337,2.258s1.226,1.042,2.031,1.042h12.449
					c0.936,0,1.697,0.761,1.697,1.697v25.182c0,0.936-0.762,1.697-1.697,1.697h-18.28c-1.617,0-3.219-0.252-4.759-0.75l-3.199-1.036
					c-2.213-0.715-4.514-1.078-6.838-1.078H18.75c-1.381,0-2.5,1.119-2.5,2.5s1.119,2.5,2.5,2.5h2.271
					c1.802,0,3.584,0.281,5.299,0.835l3.199,1.036c2.038,0.659,4.157,0.993,6.298,0.993h18.28c3.693,0,6.697-3.004,6.697-6.697
					v-25.182C60.795,165.353,57.791,162.349,54.098,162.349z"/>
			</g>
		</g>
		<g>
			<g>
				<path d="M248.481,189.5h-5.963c-1.389,0-2.519-1.13-2.519-2.519v-27.963c0-1.389,1.13-2.519,2.519-2.519h5.963
					c1.381,0,2.5-1.119,2.5-2.5s-1.119-2.5-2.5-2.5h-5.963c-4.146,0-7.519,3.373-7.519,7.519v27.963
					c0,4.146,3.373,7.519,7.519,7.519h5.963c1.381,0,2.5-1.119,2.5-2.5S249.862,189.5,248.481,189.5z"/>
			</g>
		</g>
		<g>
			<g>
				<path d="M236.714,185.66c-8.48,0.503-10.597,2.244-12.48,4.468c-0.187,0.219-0.37,0.44-0.585,0.655
					c-0.065,0.065-0.127,0.135-0.185,0.207c-0.725,0.907-7.101,8.998-8.052,13.868c-0.124,0.642-0.297,0.66-0.484,0.642
					c-0.785,0-2.041-0.865-2.356-2.488c-0.442-2.272,0.818-5.437,2.278-9.101c0.63-1.581,1.281-3.215,1.87-4.959
					c0.258-0.763,0.133-1.604-0.337-2.258s-1.226-1.042-2.031-1.042h-12.449c-0.936,0-1.697-0.761-1.697-1.697v-25.183
					c0-0.936,0.761-1.697,1.696-1.697h18.281c1.617,0,3.219,0.252,4.759,0.75l3.199,1.036c2.213,0.715,4.514,1.078,6.838,1.078
					h2.104c1.381,0,2.5-1.119,2.5-2.5s-1.119-2.5-2.5-2.5h-2.104c-1.802,0-3.584-0.281-5.299-0.835l-3.2-1.036
					c-2.038-0.659-4.157-0.993-6.297-0.993h-18.281c-3.692,0-6.696,3.004-6.696,6.697v25.183c0,3.692,3.004,6.697,6.697,6.697h8.861
					c-0.187,0.475-0.374,0.944-0.559,1.409c-1.679,4.213-3.265,8.192-2.542,11.906c0.724,3.723,3.846,6.532,7.263,6.534h0.003
					c2.719,0,4.835-1.838,5.392-4.683c0.534-2.738,4.524-8.524,6.972-11.607c0.271-0.28,0.515-0.564,0.756-0.849
					c0.999-1.179,1.942-2.293,8.963-2.709c1.378-0.082,2.429-1.265,2.348-2.644C239.276,186.629,238.108,185.575,236.714,185.66z"/>
			</g>
		</g>
	</g>
</g>
<g id="Layer_15">
</g>
<g id="Layer_16">
</g>
<g id="Layer_17">
</g>
<g id="Layer_18">
</g>
<g id="Layer_19">
</g>
<g id="Layer_20">
</g>
<g id="Layer_21">
</g>
<g id="Layer_22">
</g>
<g id="Layer_23">
</g>
<g id="Layer_24">
</g>
<g id="Layer_25">
</g>
<g id="Layer_26">
</g>
<g id="Layer_27">
</g>
<g id="Layer_28">
</g>
<g id="Layer_29">
</g>
<g id="Layer_30">
</g>
<g id="Layer_31">
</g>
<g id="Layer_32">
</g>
<g id="Layer_33">
</g>
<g id="Layer_34">
</g>
<g id="Layer_35">
</g>
<g id="Layer_36">
</g>
<g id="Layer_37">
</g>
<g id="Layer_38">
</g>
<g id="Layer_39">
</g>
<g id="Layer_40">
</g>
<g id="Layer_41">
</g>
<g id="Layer_42">
</g>
<g id="Layer_43">
</g>
<g id="Layer_44">
</g>
<g id="Layer_45">
</g>
<g id="Layer_46">
</g>
<g id="Layer_47">
</g>
<g id="Layer_48">
</g>
<g id="Layer_49">
</g>
<g id="Layer_50">
</g>
<g id="Layer_51">
</g>
<g id="Layer_52">
</g>
<g id="Layer_53">
</g>
<g id="Layer_54">
</g>
<g id="Layer_55">
</g>
<g id="Layer_56">
</g>
<g id="Layer_57">
</g>
<g id="Layer_58">
</g>
<g id="Layer_59">
</g>
<g id="Layer_60">
</g>
<g id="Layer_61">
</g>
<g id="Layer_62">
</g>
<g id="Layer_63">
</g>
<g id="Layer_64">
</g>
<g id="Layer_65">
</g>
<g id="Layer_66">
</g>
<g id="Layer_67">
</g>
<g id="Layer_68">
</g>
<g id="Layer_69">
</g>
<g id="Layer_70">
</g>
<g id="Layer_71">
</g>
<g id="Layer_72">
</g>
<g id="Layer_73">
</g>
<g id="Layer_74">
</g>
<g id="Layer_75">
</g>
<g id="Layer_76">
</g>
<g id="Layer_77">
</g>
<g id="Layer_78">
</g>
<g id="Layer_79">
</g>
<g id="Layer_80">
</g>
</svg>
