<?xml version="1.0" encoding="utf-8"?>
<!-- Generator: Adobe Illustrator 24.0.0, SVG Export Plug-In . SVG Version: 6.00 Build 0)  -->
<svg version="1.1" xmlns="http://www.w3.org/2000/svg" xmlns:xlink="http://www.w3.org/1999/xlink" x="0px" y="0px"
	 viewBox="0 0 256 256" enable-background="new 0 0 256 256" xml:space="preserve">
<g id="Layer_1">
</g>
<g id="Layer_2">
</g>
<g id="Layer_3">
</g>
<g id="Layer_4">
	<g>
		<g>
			<g>
				<path fill="#9BE5F9" d="M166.873,60H51.252c-3.418,0-6.189,2.771-6.189,6.189v172.621c0,3.418,2.771,6.189,6.189,6.189h96.497
					l25.314-25.314V66.189C173.062,62.771,170.291,60,166.873,60z"/>
			</g>
		</g>
		<g>
			<g>
				<path fill="#5290DB" d="M212.873,11H97.252c-3.418,0-6.189,2.771-6.189,6.189V60h75.81c3.418,0,6.189,2.771,6.189,6.189V196
					h20.686l25.314-25.314V17.189C219.062,13.771,216.291,11,212.873,11z"/>
			</g>
		</g>
		<g>
			<g>
				<path fill="#FCDD86" d="M100.335,129H62.79c-1.506,0-2.728,1.221-2.728,2.728v37.204c0,1.694,1.374,3.068,3.068,3.068h36.864
					c1.694,0,3.068-1.374,3.068-3.068v-37.204C103.062,130.221,101.841,129,100.335,129z"/>
			</g>
		</g>
		<g>
			<g>
				<path fill="#EDF4FC" d="M155.335,75H62.79c-1.506,0-2.728,1.221-2.728,2.728v16.545c0,1.506,1.221,2.728,2.728,2.728h92.545
					c1.506,0,2.728-1.221,2.728-2.728V77.728C158.062,76.221,156.841,75,155.335,75z"/>
			</g>
		</g>
		<g>
			<g>
				<path fill="#CBEFF7" d="M153.938,219.686c-3.418,0-6.189,2.771-6.189,6.189V245l25.314-25.314H153.938z"/>
			</g>
		</g>
		<g>
			<g>
				<path fill="#EDF4FC" d="M201.335,26H108.79c-1.506,0-2.728,1.221-2.728,2.728v16.545c0,1.506,1.221,2.728,2.728,2.728h92.545
					c1.506,0,2.728-1.221,2.728-2.728V28.728C204.062,27.221,202.841,26,201.335,26z"/>
			</g>
		</g>
		<g>
			<g>
				<path fill="#6CADEF" d="M199.938,170.686c-3.418,0-6.189,2.771-6.189,6.189V196l25.314-25.314H199.938z"/>
			</g>
		</g>
		<g>
			<g>
				<path fill="#70D6F9" d="M217.968,229.1h-0.1h-2.3v-2.3c0-1.8-1.4-3.2-3.2-3.2c-1.7,0-3.2,1.4-3.2,3.1v0.1v2.3h-2.3
					c-1.8,0-3.2,1.4-3.2,3.2c-0.1,1.7,1.3,3.2,3.2,3.2h2.3v2.3c0,1.8,1.4,3.2,3.2,3.2c1.7,0,3.2-1.4,3.2-3.1v-0.1v-2.3h2.3
					c1.8,0,3.2-1.4,3.2-3.2C221.068,230.6,219.668,229.1,217.968,229.1z"/>
			</g>
		</g>
		<g>
			<g>
				<path fill="#FC657E" d="M74.268,0c-1.878,0-3.4,1.522-3.4,3.4c0,1.878,1.522,3.4,3.4,3.4s3.4-1.522,3.4-3.4
					C77.668,1.522,76.146,0,74.268,0z"/>
			</g>
		</g>
		<g>
			<g>
				<path fill="#87D147" d="M33.213,155.175c-3.1-0.6-5.6-3-6.2-6.1c0-0.1-0.3-0.1-0.3,0c-0.6,3.1-3.1,5.5-6.2,6.1
					c-0.1,0-0.1,0.2,0,0.3c3.1,0.6,5.6,3,6.2,6.1c0,0.1,0.3,0.1,0.3,0c0.6-3.1,3.1-5.5,6.2-6.1
					C33.313,155.375,33.313,155.175,33.213,155.175z"/>
			</g>
		</g>
		<g>
			<g>
				<path fill="#F5C84C" d="M181.431,249.2c-1.878,0-3.4,1.522-3.4,3.4c0,1.878,1.522,3.4,3.4,3.4c1.878,0,3.4-1.522,3.4-3.4
					C184.831,250.722,183.309,249.2,181.431,249.2z"/>
			</g>
		</g>
		<g>
			<g>
				<path fill="#F5C84C" d="M63.213,28.2c-4.5-0.8-8-4.3-8.9-8.7c0-0.2-0.4-0.2-0.4,0c-0.9,4.4-4.4,7.9-8.9,8.7
					c-0.2,0-0.2,0.3,0,0.4c4.5,0.8,8,4.3,8.9,8.7c0,0.2,0.4,0.2,0.4,0c0.9-4.4,4.4-7.9,8.9-8.7C63.413,28.5,63.413,28.2,63.213,28.2
					z"/>
			</g>
		</g>
		<g>
			<g>
				<g>
					<g>
						<path d="M166.873,57.5H51.252c-4.791,0-8.689,3.898-8.689,8.689v172.621c0,4.792,3.898,8.689,8.689,8.689h96.497
							c0.663,0,1.299-0.263,1.768-0.732l25.313-25.313c0.469-0.469,0.732-1.104,0.732-1.768V66.189
							C175.563,61.398,171.664,57.5,166.873,57.5z M170.563,218.651L146.714,242.5H51.252c-2.034,0-3.689-1.655-3.689-3.689V66.189
							c0-2.034,1.655-3.689,3.689-3.689h115.621c2.034,0,3.689,1.655,3.689,3.689V218.651z"/>
					</g>
				</g>
			</g>
		</g>
		<g>
			<g>
				<path d="M119.063,105h-20c-1.381,0-2.5,1.119-2.5,2.5s1.119,2.5,2.5,2.5h20c1.381,0,2.5-1.119,2.5-2.5S120.443,105,119.063,105z
					"/>
			</g>
		</g>
		<g>
			<g>
				<path d="M111.862,114h-5.6c-1.381,0-2.5,1.119-2.5,2.5s1.119,2.5,2.5,2.5h5.6c1.381,0,2.5-1.119,2.5-2.5
					S113.243,114,111.862,114z"/>
			</g>
		</g>
		<g>
			<g>
				<path d="M155.063,128.025h-39c-1.381,0-2.5,1.119-2.5,2.5s1.119,2.5,2.5,2.5h39c1.381,0,2.5-1.119,2.5-2.5
					S156.443,128.025,155.063,128.025z"/>
			</g>
		</g>
		<g>
			<g>
				<path d="M155.063,138.575h-39c-1.381,0-2.5,1.119-2.5,2.5s1.119,2.5,2.5,2.5h39c1.381,0,2.5-1.119,2.5-2.5
					S156.443,138.575,155.063,138.575z"/>
			</g>
		</g>
		<g>
			<g>
				<path d="M155.063,149.125h-39c-1.381,0-2.5,1.119-2.5,2.5s1.119,2.5,2.5,2.5h39c1.381,0,2.5-1.119,2.5-2.5
					S156.443,149.125,155.063,149.125z"/>
			</g>
		</g>
		<g>
			<g>
				<path d="M155.063,159.675h-39c-1.381,0-2.5,1.119-2.5,2.5s1.119,2.5,2.5,2.5h39c1.381,0,2.5-1.119,2.5-2.5
					S156.443,159.675,155.063,159.675z"/>
			</g>
		</g>
		<g>
			<g>
				<path d="M155.063,170.225h-39c-1.381,0-2.5,1.119-2.5,2.5s1.119,2.5,2.5,2.5h39c1.381,0,2.5-1.119,2.5-2.5
					S156.443,170.225,155.063,170.225z"/>
			</g>
		</g>
		<g>
			<g>
				<path d="M155.063,180.775h-39c-1.381,0-2.5,1.119-2.5,2.5s1.119,2.5,2.5,2.5h39c1.381,0,2.5-1.119,2.5-2.5
					S156.443,180.775,155.063,180.775z"/>
			</g>
		</g>
		<g>
			<g>
				<path d="M155.063,191.325h-39c-1.381,0-2.5,1.119-2.5,2.5s1.119,2.5,2.5,2.5h39c1.381,0,2.5-1.119,2.5-2.5
					S156.443,191.325,155.063,191.325z"/>
			</g>
		</g>
		<g>
			<g>
				<path d="M155.063,201.875h-39c-1.381,0-2.5,1.119-2.5,2.5s1.119,2.5,2.5,2.5h39c1.381,0,2.5-1.119,2.5-2.5
					S156.443,201.875,155.063,201.875z"/>
			</g>
		</g>
		<g>
			<g>
				<path d="M136.563,212.425h-20.5c-1.381,0-2.5,1.119-2.5,2.5s1.119,2.5,2.5,2.5h20.5c1.381,0,2.5-1.119,2.5-2.5
					S137.943,212.425,136.563,212.425z"/>
			</g>
		</g>
		<g>
			<g>
				<path d="M136.563,222.975h-20.5c-1.381,0-2.5,1.119-2.5,2.5s1.119,2.5,2.5,2.5h20.5c1.381,0,2.5-1.119,2.5-2.5
					S137.943,222.975,136.563,222.975z"/>
			</g>
		</g>
		<g>
			<g>
				<path d="M102.062,180.775h-39c-1.381,0-2.5,1.119-2.5,2.5s1.119,2.5,2.5,2.5h39c1.381,0,2.5-1.119,2.5-2.5
					S103.443,180.775,102.062,180.775z"/>
			</g>
		</g>
		<g>
			<g>
				<path d="M102.062,191.325h-39c-1.381,0-2.5,1.119-2.5,2.5s1.119,2.5,2.5,2.5h39c1.381,0,2.5-1.119,2.5-2.5
					S103.443,191.325,102.062,191.325z"/>
			</g>
		</g>
		<g>
			<g>
				<path d="M102.062,201.875h-39c-1.381,0-2.5,1.119-2.5,2.5s1.119,2.5,2.5,2.5h39c1.381,0,2.5-1.119,2.5-2.5
					S103.443,201.875,102.062,201.875z"/>
			</g>
		</g>
		<g>
			<g>
				<path d="M102.062,212.425h-39c-1.381,0-2.5,1.119-2.5,2.5s1.119,2.5,2.5,2.5h39c1.381,0,2.5-1.119,2.5-2.5
					S103.443,212.425,102.062,212.425z"/>
			</g>
		</g>
		<g>
			<g>
				<path d="M102.062,222.975h-39c-1.381,0-2.5,1.119-2.5,2.5s1.119,2.5,2.5,2.5h39c1.381,0,2.5-1.119,2.5-2.5
					S103.443,222.975,102.062,222.975z"/>
			</g>
		</g>
		<g>
			<g>
				<path d="M212.873,8.5H97.252c-4.791,0-8.689,3.898-8.689,8.689v41.716c0,1.381,1.119,2.5,2.5,2.5c1.381,0,2.5-1.119,2.5-2.5
					V17.189c0-2.034,1.655-3.689,3.689-3.689h115.621c2.034,0,3.689,1.655,3.689,3.689v152.461L192.714,193.5h-18.172
					c-1.381,0-2.5,1.119-2.5,2.5s1.119,2.5,2.5,2.5h19.207c0.663,0,1.299-0.263,1.768-0.732l25.313-25.313
					c0.469-0.469,0.732-1.104,0.732-1.768V17.189C221.563,12.398,217.664,8.5,212.873,8.5z"/>
			</g>
		</g>
		<g>
			<g>
				<path d="M201.063,79.025h-27c-1.381,0-2.5,1.119-2.5,2.5s1.119,2.5,2.5,2.5h27c1.381,0,2.5-1.119,2.5-2.5
					S202.443,79.025,201.063,79.025z"/>
			</g>
		</g>
		<g>
			<g>
				<path d="M201.063,89.575h-27c-1.381,0-2.5,1.119-2.5,2.5s1.119,2.5,2.5,2.5h27c1.381,0,2.5-1.119,2.5-2.5
					S202.443,89.575,201.063,89.575z"/>
			</g>
		</g>
		<g>
			<g>
				<path d="M201.063,100.125h-27c-1.381,0-2.5,1.119-2.5,2.5s1.119,2.5,2.5,2.5h27c1.381,0,2.5-1.119,2.5-2.5
					S202.443,100.125,201.063,100.125z"/>
			</g>
		</g>
		<g>
			<g>
				<path d="M201.063,110.675h-27c-1.381,0-2.5,1.119-2.5,2.5s1.119,2.5,2.5,2.5h27c1.381,0,2.5-1.119,2.5-2.5
					S202.443,110.675,201.063,110.675z"/>
			</g>
		</g>
		<g>
			<g>
				<path d="M201.063,121.225h-27c-1.381,0-2.5,1.119-2.5,2.5s1.119,2.5,2.5,2.5h27c1.381,0,2.5-1.119,2.5-2.5
					S202.443,121.225,201.063,121.225z"/>
			</g>
		</g>
		<g>
			<g>
				<path d="M201.063,131.775h-27c-1.381,0-2.5,1.119-2.5,2.5s1.119,2.5,2.5,2.5h27c1.381,0,2.5-1.119,2.5-2.5
					S202.443,131.775,201.063,131.775z"/>
			</g>
		</g>
		<g>
			<g>
				<path d="M201.063,142.325h-27c-1.381,0-2.5,1.119-2.5,2.5s1.119,2.5,2.5,2.5h27c1.381,0,2.5-1.119,2.5-2.5
					S202.443,142.325,201.063,142.325z"/>
			</g>
		</g>
		<g>
			<g>
				<path d="M201.063,152.875h-27c-1.381,0-2.5,1.119-2.5,2.5s1.119,2.5,2.5,2.5h27c1.381,0,2.5-1.119,2.5-2.5
					S202.443,152.875,201.063,152.875z"/>
			</g>
		</g>
		<g>
			<g>
				<path d="M182.563,163.425h-8.5c-1.381,0-2.5,1.119-2.5,2.5s1.119,2.5,2.5,2.5h8.5c1.381,0,2.5-1.119,2.5-2.5
					S183.943,163.425,182.563,163.425z"/>
			</g>
		</g>
		<g>
			<g>
				<path d="M182.563,173.975h-8.5c-1.381,0-2.5,1.119-2.5,2.5s1.119,2.5,2.5,2.5h8.5c1.381,0,2.5-1.119,2.5-2.5
					S183.943,173.975,182.563,173.975z"/>
			</g>
		</g>
		<g>
			<g>
				<g>
					<g>
						<path d="M100.335,126.5H62.79c-2.883,0-5.228,2.345-5.228,5.228v37.205c0,3.07,2.497,5.568,5.567,5.568h36.864
							c3.07,0,5.568-2.498,5.568-5.568v-37.205C105.562,128.845,103.218,126.5,100.335,126.5z M100.562,168.932
							c0,0.313-0.255,0.568-0.568,0.568H63.13c-0.313,0-0.567-0.255-0.567-0.568v-37.205c0-0.125,0.103-0.228,0.228-0.228h37.545
							c0.125,0,0.228,0.102,0.228,0.228V168.932z"/>
					</g>
				</g>
			</g>
		</g>
		<g>
			<g>
				<g>
					<g>
						<path d="M155.335,72.5H62.79c-2.883,0-5.228,2.345-5.228,5.228v16.545c0,2.882,2.345,5.228,5.228,5.228h92.545
							c2.883,0,5.228-2.345,5.228-5.228V77.728C160.563,74.845,158.218,72.5,155.335,72.5z M155.563,94.272
							c0,0.125-0.103,0.228-0.228,0.228H62.79c-0.125,0-0.228-0.102-0.228-0.228V77.728c0-0.125,0.103-0.228,0.228-0.228h92.545
							c0.125,0,0.228,0.102,0.228,0.228V94.272z"/>
					</g>
				</g>
			</g>
		</g>
		<g>
			<g>
				<path d="M172.417,217.187l-18.479,0c-4.791,0-8.689,3.898-8.689,8.689v18.292c0,1.381,1.119,2.5,2.5,2.5s2.5-1.119,2.5-2.5
					v-18.292c0-2.034,1.655-3.689,3.689-3.689l18.479,0c1.381,0,2.5-1.119,2.5-2.5S173.798,217.187,172.417,217.187z"/>
			</g>
		</g>
		<g>
			<g>
				<g>
					<g>
						<path d="M201.335,23.5H108.79c-2.883,0-5.228,2.345-5.228,5.228v16.545c0,2.882,2.345,5.228,5.228,5.228h92.545
							c2.883,0,5.228-2.345,5.228-5.228V28.728C206.563,25.845,204.218,23.5,201.335,23.5z M201.563,45.272
							c0,0.125-0.103,0.228-0.228,0.228H108.79c-0.125,0-0.228-0.102-0.228-0.228V28.728c0-0.125,0.103-0.228,0.228-0.228h92.545
							c0.125,0,0.228,0.102,0.228,0.228V45.272z"/>
					</g>
				</g>
			</g>
		</g>
		<g>
			<g>
				<path d="M218.577,168.187l-18.639,0c-4.791,0-8.689,3.898-8.689,8.689v18.667c0,1.381,1.119,2.5,2.5,2.5s2.5-1.119,2.5-2.5
					v-18.667c0-2.034,1.655-3.689,3.689-3.689l18.639,0c1.381,0,2.5-1.119,2.5-2.5S219.958,168.187,218.577,168.187z"/>
			</g>
		</g>
	</g>
</g>
<g id="Layer_5">
</g>
<g id="Layer_6">
</g>
<g id="Layer_7">
</g>
<g id="Layer_8">
</g>
<g id="Layer_9">
</g>
<g id="Layer_10">
</g>
<g id="Layer_11">
</g>
<g id="Layer_12">
</g>
<g id="Layer_13">
</g>
<g id="Layer_14">
</g>
<g id="Layer_15">
</g>
<g id="Layer_16">
</g>
<g id="Layer_17">
</g>
<g id="Layer_18">
</g>
<g id="Layer_19">
</g>
<g id="Layer_20">
</g>
<g id="Layer_21">
</g>
<g id="Layer_22">
</g>
<g id="Layer_23">
</g>
<g id="Layer_24">
</g>
<g id="Layer_25">
</g>
<g id="Layer_26">
</g>
<g id="Layer_27">
</g>
<g id="Layer_28">
</g>
<g id="Layer_29">
</g>
<g id="Layer_30">
</g>
<g id="Layer_31">
</g>
<g id="Layer_32">
</g>
<g id="Layer_33">
</g>
<g id="Layer_34">
</g>
<g id="Layer_35">
</g>
<g id="Layer_36">
</g>
<g id="Layer_37">
</g>
<g id="Layer_38">
</g>
<g id="Layer_39">
</g>
<g id="Layer_40">
</g>
<g id="Layer_41">
</g>
<g id="Layer_42">
</g>
<g id="Layer_43">
</g>
<g id="Layer_44">
</g>
<g id="Layer_45">
</g>
<g id="Layer_46">
</g>
<g id="Layer_47">
</g>
<g id="Layer_48">
</g>
<g id="Layer_49">
</g>
<g id="Layer_50">
</g>
<g id="Layer_51">
</g>
<g id="Layer_52">
</g>
<g id="Layer_53">
</g>
<g id="Layer_54">
</g>
<g id="Layer_55">
</g>
<g id="Layer_56">
</g>
<g id="Layer_57">
</g>
<g id="Layer_58">
</g>
<g id="Layer_59">
</g>
<g id="Layer_60">
</g>
<g id="Layer_61">
</g>
<g id="Layer_62">
</g>
<g id="Layer_63">
</g>
<g id="Layer_64">
</g>
<g id="Layer_65">
</g>
<g id="Layer_66">
</g>
<g id="Layer_67">
</g>
<g id="Layer_68">
</g>
<g id="Layer_69">
</g>
<g id="Layer_70">
</g>
<g id="Layer_71">
</g>
<g id="Layer_72">
</g>
<g id="Layer_73">
</g>
<g id="Layer_74">
</g>
<g id="Layer_75">
</g>
<g id="Layer_76">
</g>
<g id="Layer_77">
</g>
<g id="Layer_78">
</g>
<g id="Layer_79">
</g>
<g id="Layer_80">
</g>
</svg>
