<?xml version="1.0" encoding="utf-8"?>
<!-- Generator: Adobe Illustrator 24.0.0, SVG Export Plug-In . SVG Version: 6.00 Build 0)  -->
<svg version="1.1" xmlns="http://www.w3.org/2000/svg" xmlns:xlink="http://www.w3.org/1999/xlink" x="0px" y="0px"
	 viewBox="0 0 256 256" enable-background="new 0 0 256 256" xml:space="preserve">
<g id="Layer_1">
</g>
<g id="Layer_2">
</g>
<g id="Layer_3">
</g>
<g id="Layer_4">
</g>
<g id="Layer_5">
</g>
<g id="Layer_6">
</g>
<g id="Layer_7">
</g>
<g id="Layer_8">
</g>
<g id="Layer_9">
</g>
<g id="Layer_10">
</g>
<g id="Layer_11">
</g>
<g id="Layer_12">
</g>
<g id="Layer_13">
</g>
<g id="Layer_14">
</g>
<g id="Layer_15">
</g>
<g id="Layer_16">
</g>
<g id="Layer_17">
</g>
<g id="Layer_18">
</g>
<g id="Layer_19">
</g>
<g id="Layer_20">
</g>
<g id="Layer_21">
</g>
<g id="Layer_22">
</g>
<g id="Layer_23">
</g>
<g id="Layer_24">
</g>
<g id="Layer_25">
</g>
<g id="Layer_26">
</g>
<g id="Layer_27">
</g>
<g id="Layer_28">
</g>
<g id="Layer_29">
</g>
<g id="Layer_30">
</g>
<g id="Layer_31">
</g>
<g id="Layer_32">
</g>
<g id="Layer_33">
</g>
<g id="Layer_34">
</g>
<g id="Layer_35">
</g>
<g id="Layer_36">
</g>
<g id="Layer_37">
</g>
<g id="Layer_38">
</g>
<g id="Layer_39">
</g>
<g id="Layer_40">
</g>
<g id="Layer_41">
</g>
<g id="Layer_42">
</g>
<g id="Layer_43">
</g>
<g id="Layer_44">
</g>
<g id="Layer_45">
</g>
<g id="Layer_46">
</g>
<g id="Layer_47">
</g>
<g id="Layer_48">
</g>
<g id="Layer_49">
</g>
<g id="Layer_50">
</g>
<g id="Layer_51">
</g>
<g id="Layer_52">
</g>
<g id="Layer_53">
</g>
<g id="Layer_54">
</g>
<g id="Layer_55">
</g>
<g id="Layer_56">
</g>
<g id="Layer_57">
</g>
<g id="Layer_58">
	<g>
		<g>
			<g>
				<path fill="#70D6F9" d="M107.172,99.507c0-5.933,0.805-14.291-2.862-21.11c-0.568-1.056-0.789-2.263-0.64-3.453v0
					c0.121-0.971,0.476-1.895,1.055-2.684c2.134-2.912,4.47-6.884,5.868-11.709c2.569-8.869-5.887-17.109-14.671-14.265
					c-7.242,2.345-16.619,4.1-26.261,2.398c-20.571-3.63-39.775,15.39-42.958,34.488c-2.825,16.953,5.344,40.502,9.106,50.111
					c1.126,2.877,1.181,6.055,0.153,8.968l-0.706,1.999c-1.026,2.908-3.064,5.352-5.744,6.884c-2.568,1.468-4.432,3.916-5.448,6.694
					l-0.445,1.218c-1.977,5.404-5.355,10.138-9.589,14.035C6.942,179.602,2.5,188.95,2.5,199.341v10.945h101.205l0.124-6.104
					c0.321-14.651-8.09-24.476-15.032-30.983c-2.427-2.275-4.314-5.058-5.499-8.167l-0.948-2.49
					c-0.261-0.685-0.598-1.251-0.973-1.72c-2.298-2.87-3.549-6.435-3.07-10.085c0.233-1.778,2.055-2.887,3.764-2.344
					c2.393,0.76,4.48,1.377,6.305,1.868c5.595,1.505,11.781-0.646,15.227-6.142c0.69-1.101,1.132-2.34,1.43-3.604
					c0.213-0.902,0.417-1.739,0.621-2.444c0.193-0.666,0.092-1.376-0.293-1.953l-0.763-1.144c-0.614-0.921-0.492-2.147,0.29-2.93
					l2.814-1.604c0.435-0.436,0.68-1.026,0.68-1.642v-5.913c0-0.936,0.556-1.782,1.422-2.14c1.389-0.574,3.614-1.603,5.839-3.086
					C119.273,115.239,107.172,106.768,107.172,99.507z"/>
			</g>
		</g>
		<g>
			<g>
				<path fill="#F9D0B4" d="M245.37,74.947l-0.521-1.23c0,0-10.246,4.657-17.697-2.794c-7.451-7.451-43.776-27.011-64.268,9.314
					c-17.302,30.672,20.845,59.683,29.773,95.445c5.95,23.831,37.808,29.157,50.521,8.141c0.573-0.948,1.131-1.945,1.67-2.994
					C259.534,147.099,259.722,108.819,245.37,74.947z"/>
			</g>
		</g>
		<g>
			<g>
				<path d="M245.991,178.605c-1.228-0.63-2.734-0.147-3.366,1.081c-0.503,0.979-1.036,1.935-1.584,2.842
					c-5.299,8.759-14.873,13.252-24.957,11.731c-10.392-1.567-18.438-8.916-20.999-19.177
					c-3.397-13.611-10.787-26.053-17.934-38.084c-11.948-20.116-22.268-37.489-12.089-55.534
					c6.546-11.604,15.316-18.233,26.067-19.703c15.66-2.146,30.588,7.261,34.255,10.929c8.576,8.578,20.017,3.521,20.498,3.303
					c1.254-0.57,1.807-2.045,1.241-3.301c-0.564-1.255-2.045-1.814-3.302-1.255c-0.356,0.158-8.799,3.817-14.902-2.282
					c-4.851-4.853-21.276-14.698-38.468-12.348c-12.382,1.692-22.39,9.162-29.745,22.2c-11.601,20.566-0.066,39.985,12.146,60.545
					c6.963,11.722,14.162,23.842,17.381,36.741c3.06,12.257,12.679,21.035,25.104,22.91c1.565,0.235,3.118,0.352,4.652,0.352
					c10.356-0.001,19.787-5.277,25.329-14.44c0.607-1.005,1.197-2.063,1.753-3.144C247.703,180.744,247.22,179.236,245.991,178.605z
					"/>
			</g>
		</g>
		<g>
			<g>
				<path d="M221.017,77.059c-3.182-3.184-14.22-9.425-25.316-9.425c-10.595,0-18.856,5.517-25.258,16.865
					c-8.016,14.208-0.653,28.008,12.021,49.347l0.109,0.185c1.868,3.146,3.799,6.399,5.645,9.653
					c0.46,0.812,1.307,1.267,2.177,1.267c0.418,0,0.842-0.104,1.231-0.325c1.201-0.682,1.622-2.207,0.941-3.408
					c-1.87-3.297-3.814-6.572-5.695-9.739l-0.109-0.185c-12.892-21.704-18.274-33.153-11.965-44.337
					c5.511-9.771,12.153-14.322,20.902-14.322c9.713,0,19.516,5.694,21.781,7.961c14.401,14.388,10.436,19.692,4.434,27.723
					c-5.174,6.919-14.05,10.111-22.608,8.138c-1.354-0.313-2.688,0.528-2.998,1.873c-0.311,1.346,0.528,2.688,1.873,2.998
					c10.491,2.42,21.379-1.51,27.737-10.015C233.274,101.472,237.228,93.255,221.017,77.059z"/>
			</g>
		</g>
		<g>
			<g>
				<path d="M234.288,158.55c-5.888-2.826-9.312-5.854-9.9-8.756c-0.36-1.775,0.351-3.688,2.111-5.684
					c1.931-2.188,2.828-5.113,2.463-8.025c-0.365-2.918-1.963-5.538-4.382-7.188c-10.327-7.043-22.071,0.622-22.565,0.952
					c-1.148,0.766-1.459,2.318-0.693,3.467c0.766,1.149,2.319,1.46,3.467,0.693c0.093-0.063,9.396-6.149,16.976-0.981
					c1.234,0.842,2.05,2.183,2.237,3.679c0.187,1.489-0.27,2.981-1.252,4.095c-2.813,3.188-3.94,6.642-3.262,9.986
					c0.938,4.625,5.072,8.639,12.637,12.27c0.35,0.167,0.718,0.247,1.08,0.247c0.932,0,1.826-0.523,2.256-1.419
					C236.058,160.641,235.532,159.147,234.288,158.55z"/>
			</g>
		</g>
		<g>
			<g>
				<path d="M218.216,95.555c-0.291-1.351-1.618-2.207-2.971-1.918c-0.457,0.099-11.25,2.542-16.26,13.996
					c-0.553,1.266,0.024,2.739,1.289,3.293c0.326,0.143,0.666,0.21,1.001,0.21c0.963,0,1.881-0.561,2.292-1.499
					c3.946-9.026,12.346-11.024,12.738-11.113C217.651,98.229,218.506,96.902,218.216,95.555z"/>
			</g>
		</g>
		<g>
			<g>
				<path d="M114.785,108.918c-2.278-2.947-5.113-6.616-5.113-9.41c0-0.852,0.017-1.754,0.035-2.695
					c0.11-5.881,0.247-13.199-3.195-19.6c-0.322-0.598-0.446-1.275-0.361-1.958c0.07-0.561,0.274-1.085,0.591-1.517
					c2.891-3.944,4.994-8.147,6.252-12.492c1.45-5.005,0.01-10.382-3.757-14.032c-3.811-3.693-9.076-4.928-14.085-3.307
					c-8.936,2.894-17.366,3.672-25.057,2.314c-8.925-1.575-18.391,0.778-26.66,6.626C33.496,59.875,26.14,71.337,24.236,82.76
					c-2.936,17.614,5.487,41.837,9.244,51.434c0.906,2.315,0.95,4.882,0.123,7.225l-0.706,2c-0.827,2.343-2.471,4.313-4.627,5.546
					c-2.958,1.69-5.285,4.533-6.555,8.005l-0.445,1.217c-1.769,4.834-4.774,9.226-8.934,13.054C4.496,178.455,0,188.697,0,199.341
					v10.945c0,1.381,1.119,2.5,2.5,2.5s2.5-1.119,2.5-2.5v-10.945c0-9.249,3.908-18.151,10.721-24.422
					c4.752-4.374,8.199-9.425,10.244-15.016l0.445-1.218c0.865-2.364,2.406-4.275,4.34-5.382c3.198-1.828,5.634-4.748,6.861-8.222
					l0.706-2c1.227-3.474,1.162-7.278-0.182-10.711c-3.606-9.211-11.699-32.403-8.968-48.789
					c1.693-10.154,8.266-20.367,17.154-26.652c5.073-3.588,13.164-7.499,22.904-5.784c8.504,1.502,17.745,0.666,27.467-2.481
					c3.216-1.043,6.607-0.242,9.065,2.141c2.472,2.396,3.382,5.778,2.434,9.051c-1.095,3.78-2.939,7.457-5.482,10.927
					c-0.818,1.116-1.343,2.447-1.52,3.853c-0.214,1.72,0.104,3.431,0.919,4.947c2.822,5.247,2.699,11.84,2.6,17.137
					c-0.019,0.974-0.036,1.908-0.036,2.789c0,4.501,3.414,8.918,6.156,12.468c0.957,1.237,2.32,3.002,2.814,4
					c-1.818,1.142-3.583,1.958-4.793,2.459c-1.803,0.744-2.967,2.491-2.967,4.45v5.715l-2.232,1.272
					c-0.193,0.11-0.372,0.246-0.529,0.403c-1.621,1.62-1.875,4.179-0.603,6.085l0.717,1.074c-0.208,0.728-0.418,1.584-0.636,2.505
					c-0.273,1.158-0.638,2.091-1.116,2.852c-2.739,4.37-7.63,6.349-12.459,5.056c-1.797-0.483-3.882-1.101-6.196-1.837
					c-1.539-0.488-3.203-0.272-4.565,0.595c-1.342,0.854-2.229,2.241-2.435,3.808c-0.542,4.145,0.735,8.396,3.6,11.976
					c0.238,0.296,0.435,0.647,0.586,1.044l0.948,2.489c1.301,3.417,3.419,6.564,6.125,9.102
					c6.789,6.363,14.542,15.422,14.242,29.108l-0.124,6.104c-0.028,1.381,1.068,2.522,2.449,2.55
					c0.018,0.001,0.035,0.001,0.052,0.001c1.357,0,2.471-1.086,2.499-2.449l0.124-6.101c0.347-15.837-8.863-26.34-15.821-32.861
					c-2.155-2.021-3.84-4.522-4.872-7.233l-0.949-2.491c-0.338-0.885-0.795-1.69-1.357-2.391c-2.004-2.504-2.908-5.416-2.543-8.198
					c0.004-0.037,0.019-0.148,0.159-0.237c0.065-0.042,0.198-0.104,0.368-0.049c2.42,0.769,4.518,1.391,6.413,1.899
					c6.89,1.856,14.123-1.05,17.993-7.228c0.773-1.231,1.344-2.657,1.746-4.358c0.203-0.857,0.396-1.653,0.589-2.321
					c0.4-1.379,0.177-2.851-0.613-4.037l-0.611-0.916l2.111-1.203c0.194-0.11,0.373-0.247,0.53-0.405
					c0.91-0.911,1.411-2.121,1.411-3.408v-5.794c1.553-0.648,3.842-1.729,6.148-3.265c0.958-0.64,1.559-1.555,1.738-2.646
					C119.177,114.602,117.239,112.094,114.785,108.918z"/>
			</g>
		</g>
		<g>
			<g>
				<path d="M142.994,126.913h-6.013c-1.381,0-2.5,1.119-2.5,2.5s1.119,2.5,2.5,2.5h6.013c1.381,0,2.5-1.119,2.5-2.5
					S144.375,126.913,142.994,126.913z"/>
			</g>
		</g>
		<g>
			<g>
				<path d="M139.197,105.916c-0.69-1.196-2.222-1.604-3.415-0.915l-5.207,3.007c-1.196,0.69-1.605,2.22-0.915,3.415
					c0.463,0.802,1.304,1.25,2.167,1.25c0.425,0,0.854-0.107,1.248-0.335l5.207-3.007
					C139.479,108.641,139.888,107.111,139.197,105.916z"/>
			</g>
		</g>
		<g>
			<g>
				<path d="M138.282,149.495l-5.207-3.007c-1.194-0.69-2.725-0.281-3.415,0.915c-0.69,1.195-0.281,2.725,0.915,3.415l5.207,3.007
					c0.394,0.228,0.823,0.335,1.248,0.335c0.863,0,1.704-0.448,2.167-1.25C139.888,151.715,139.479,150.186,138.282,149.495z"/>
			</g>
		</g>
		<g>
			<g>
				<path fill="#70D6F9" d="M198.906,213.1h-2.4v-2.3c0-1.8-1.4-3.2-3.2-3.2c-1.7,0-3.2,1.4-3.2,3.1v2.4h-2.3
					c-1.8,0-3.2,1.4-3.2,3.2c-0.1,1.7,1.3,3.2,3.2,3.2h2.3v2.3c0,1.8,1.4,3.2,3.2,3.2c1.7,0,3.2-1.4,3.2-3.1v-2.4h2.3
					c1.8,0,3.2-1.4,3.2-3.2C202.006,214.6,200.606,213.1,198.906,213.1z"/>
			</g>
		</g>
		<g>
			<g>
				<path fill="#F5C84C" d="M163.206,228.5c-1.878,0-3.4,1.522-3.4,3.4c0,1.878,1.522,3.4,3.4,3.4c1.878,0,3.4-1.522,3.4-3.4
					C166.606,230.022,165.083,228.5,163.206,228.5z"/>
			</g>
		</g>
		<g>
			<g>
				<path fill="#FC657E" d="M163.15,50.175c-3.1-0.6-5.6-3-6.2-6.1c0-0.1-0.3-0.1-0.3,0c-0.6,3.1-3.1,5.5-6.2,6.1
					c-0.1,0-0.1,0.2,0,0.3c3.1,0.6,5.6,3,6.2,6.1c0,0.1,0.3,0.1,0.3,0c0.6-3.1,3.1-5.5,6.2-6.1
					C163.25,50.375,163.25,50.175,163.15,50.175z"/>
			</g>
		</g>
		<g>
			<g>
				<path fill="#87D147" d="M106.369,8c-1.878,0-3.4,1.522-3.4,3.4c0,1.878,1.522,3.4,3.4,3.4c1.878,0,3.4-1.522,3.4-3.4
					C109.769,9.522,108.246,8,106.369,8z"/>
			</g>
		</g>
		<g>
			<g>
				<path fill="#F5C84C" d="M78.15,20.2c-4.5-0.8-8-4.3-8.9-8.7c0-0.2-0.4-0.2-0.4,0c-0.9,4.4-4.4,7.9-8.9,8.7c-0.2,0-0.2,0.3,0,0.4
					c4.5,0.8,8,4.3,8.9,8.7c0,0.2,0.4,0.2,0.4,0c0.9-4.4,4.4-7.9,8.9-8.7C78.35,20.5,78.35,20.2,78.15,20.2z"/>
			</g>
		</g>
	</g>
</g>
<g id="Layer_59">
</g>
<g id="Layer_60">
</g>
<g id="Layer_61">
</g>
<g id="Layer_62">
</g>
<g id="Layer_63">
</g>
<g id="Layer_64">
</g>
<g id="Layer_65">
</g>
<g id="Layer_66">
</g>
<g id="Layer_67">
</g>
<g id="Layer_68">
</g>
<g id="Layer_69">
</g>
<g id="Layer_70">
</g>
<g id="Layer_71">
</g>
<g id="Layer_72">
</g>
<g id="Layer_73">
</g>
<g id="Layer_74">
</g>
<g id="Layer_75">
</g>
<g id="Layer_76">
</g>
<g id="Layer_77">
</g>
<g id="Layer_78">
</g>
<g id="Layer_79">
</g>
<g id="Layer_80">
</g>
</svg>
