<?xml version="1.0" encoding="utf-8"?>
<!-- Generator: Adobe Illustrator 24.0.0, SVG Export Plug-In . SVG Version: 6.00 Build 0)  -->
<svg version="1.1" xmlns="http://www.w3.org/2000/svg" xmlns:xlink="http://www.w3.org/1999/xlink" x="0px" y="0px"
	 viewBox="0 0 256 256" enable-background="new 0 0 256 256" xml:space="preserve">
<g id="Layer_1">
</g>
<g id="Layer_2">
</g>
<g id="Layer_3">
</g>
<g id="Layer_4">
</g>
<g id="Layer_5">
</g>
<g id="Layer_6">
</g>
<g id="Layer_7">
</g>
<g id="Layer_8">
</g>
<g id="Layer_9">
</g>
<g id="Layer_10">
</g>
<g id="Layer_11">
</g>
<g id="Layer_12">
</g>
<g id="Layer_13">
</g>
<g id="Layer_14">
</g>
<g id="Layer_15">
</g>
<g id="Layer_16">
</g>
<g id="Layer_17">
</g>
<g id="Layer_18">
</g>
<g id="Layer_19">
</g>
<g id="Layer_20">
</g>
<g id="Layer_21">
</g>
<g id="Layer_22">
</g>
<g id="Layer_23">
</g>
<g id="Layer_24">
</g>
<g id="Layer_25">
</g>
<g id="Layer_26">
</g>
<g id="Layer_27">
</g>
<g id="Layer_28">
</g>
<g id="Layer_29">
</g>
<g id="Layer_30">
</g>
<g id="Layer_31">
</g>
<g id="Layer_32">
</g>
<g id="Layer_33">
</g>
<g id="Layer_34">
</g>
<g id="Layer_35">
</g>
<g id="Layer_36">
</g>
<g id="Layer_37">
</g>
<g id="Layer_38">
</g>
<g id="Layer_39">
</g>
<g id="Layer_40">
</g>
<g id="Layer_41">
</g>
<g id="Layer_42">
</g>
<g id="Layer_43">
</g>
<g id="Layer_44">
</g>
<g id="Layer_45">
</g>
<g id="Layer_46">
</g>
<g id="Layer_47">
</g>
<g id="Layer_48">
</g>
<g id="Layer_49">
</g>
<g id="Layer_50">
	<g>
		<g>
			<g>
				<path fill="#FC657E" d="M93.345,89.773L39.207,121.03c-15.449,8.919-20.742,28.673-11.823,44.122l0,0
					c8.919,15.449,28.674,20.742,44.123,11.823l54.138-31.257L93.345,89.773z"/>
			</g>
		</g>
		<g>
			<g>
				<path fill="#FC657E" d="M217.953,122.77l-58.58-101.464c-2.495-4.321-8.02-5.801-12.34-3.307
					c-4.32,2.494-5.801,8.019-3.307,12.34l58.581,101.465c2.495,4.321,8.02,5.801,12.34,3.306
					C218.967,132.615,220.448,127.091,217.953,122.77z"/>
			</g>
		</g>
		<g>
			<g>
				<path fill="#F98FA6" d="M56.173,98.214c-1.981-3.43-6.367-4.606-9.797-2.625c-3.43,1.98-4.606,6.367-2.625,9.797l5.638,9.765
					l12.422-7.172L56.173,98.214z"/>
			</g>
		</g>
		<g>
			<g>
				<path fill="#DAE6F1" d="M203.574,63.43L203.574,63.43c-5.328-9.228-16.144-13.307-25.944-10.501l22.065,38.218
					C207.026,84.063,208.902,72.657,203.574,63.43z"/>
			</g>
		</g>
		<g>
			<g>
				<polygon fill="#DAE6F1" points="100.968,159.966 76.368,174.168 129.534,220.854 154.134,206.651 				"/>
			</g>
		</g>
		<g>
			<g>
				<path fill="#6CADEF" d="M161.654,219.676l-7.52-13.025l-24.605,14.206l-0.407,7.714c-0.422,7.996,8.189,13.275,15.123,9.271
					l14.837-8.566C162.443,227.336,163.595,223.038,161.654,219.676z"/>
			</g>
		</g>
		<g>
			<g>
				<path fill="#DAE6F1" d="M146.014,34.301c-9.234,21.078-25.017,39.507-46.475,51.896l-6.194,3.576l32.3,55.945l6.194-3.576
					c21.458-12.389,45.309-16.843,68.18-14.3L146.014,34.301z"/>
			</g>
		</g>
		<g>
			<g>
				<polygon fill="#F98FA6" points="100.968,159.966 76.368,174.168 86.64,183.188 111.24,168.986 				"/>
			</g>
		</g>
		<g>
			<g>
				<path fill="#70D6F9" d="M242.906,148.1h-2.4v-2.3c0-1.8-1.4-3.2-3.2-3.2c-1.7,0-3.2,1.4-3.2,3.1v2.4h-2.3
					c-1.8,0-3.2,1.4-3.2,3.2c-0.1,1.7,1.3,3.2,3.2,3.2h2.3v2.3c0,1.8,1.4,3.2,3.2,3.2c1.7,0,3.2-1.4,3.2-3.1v-2.4h2.3
					c1.8,0,3.2-1.4,3.2-3.2C246.006,149.6,244.606,148.1,242.906,148.1z"/>
			</g>
		</g>
		<g>
			<g>
				<path fill="#F5C84C" d="M252.6,117.5c-1.878,0-3.4,1.522-3.4,3.4c0,1.878,1.522,3.4,3.4,3.4s3.4-1.522,3.4-3.4
					C256,119.022,254.478,117.5,252.6,117.5z"/>
			</g>
		</g>
		<g>
			<g>
				<path fill="#87D147" d="M83.15,206.175c-3.1-0.6-5.6-3-6.2-6.1c0-0.1-0.3-0.1-0.3,0c-0.6,3.1-3.1,5.5-6.2,6.1
					c-0.1,0-0.1,0.2,0,0.3c3.1,0.6,5.6,3,6.2,6.1c0,0.1,0.3,0.1,0.3,0c0.6-3.1,3.1-5.5,6.2-6.1
					C83.25,206.375,83.25,206.175,83.15,206.175z"/>
			</g>
		</g>
		<g>
			<g>
				<path fill="#FC657E" d="M3.4,116c-1.878,0-3.4,1.522-3.4,3.4c0,1.878,1.522,3.4,3.4,3.4s3.4-1.522,3.4-3.4
					C6.8,117.522,5.278,116,3.4,116z"/>
			</g>
		</g>
		<g>
			<g>
				<path fill="#F5C84C" d="M28.15,89.2c-4.5-0.8-8-4.3-8.9-8.7c0-0.2-0.4-0.2-0.4,0c-0.9,4.4-4.4,7.9-8.9,8.7c-0.2,0-0.2,0.3,0,0.4
					c4.5,0.8,8,4.3,8.9,8.7c0,0.2,0.4,0.2,0.4,0c0.9-4.4,4.4-7.9,8.9-8.7C28.35,89.5,28.35,89.2,28.15,89.2z"/>
			</g>
		</g>
		<g>
			<g>
				<g>
					<g>
						<path d="M127.81,144.469l-32.3-55.945c-0.331-0.574-0.878-0.993-1.518-1.165c-0.641-0.17-1.322-0.082-1.897,0.25
							l-54.138,31.256c-16.618,9.594-22.332,30.919-12.738,47.538c6.438,11.152,18.16,17.393,30.196,17.393
							c5.899,0,11.876-1.5,17.342-4.655l54.138-31.256C128.09,147.193,128.5,145.665,127.81,144.469z M70.257,174.81
							c-14.231,8.215-32.491,3.322-40.708-10.908c-8.216-14.23-3.322-32.492,10.908-40.708L92.43,93.188l29.8,51.615L70.257,174.81z
							"/>
					</g>
				</g>
			</g>
		</g>
		<g>
			<g>
				<g>
					<g>
						<g>
							<path d="M220.118,121.52l-58.58-101.464c-1.54-2.668-4.027-4.576-7.003-5.374c-2.977-0.798-6.083-0.388-8.752,1.152
								c-5.507,3.18-7.401,10.248-4.222,15.755l58.58,101.464c2.135,3.696,6.02,5.765,10.009,5.765c1.955,0,3.936-0.497,5.747-1.543
								c2.668-1.54,4.576-4.027,5.373-7.003C222.068,127.296,221.659,124.188,220.118,121.52z M216.441,128.978
								c-0.452,1.686-1.532,3.094-3.044,3.967c-3.119,1.8-7.124,0.729-8.926-2.392l-58.58-101.464
								c-1.801-3.12-0.728-7.124,2.392-8.925c1.007-0.581,2.124-0.878,3.256-0.878c0.567,0,1.139,0.075,1.702,0.226
								c1.686,0.452,3.095,1.533,3.967,3.044l58.58,101.464C216.661,125.532,216.893,127.292,216.441,128.978z"/>
						</g>
					</g>
				</g>
			</g>
		</g>
		<g>
			<g>
				<path d="M63.389,105.712l-5.051-8.748c-1.292-2.237-3.378-3.838-5.873-4.506c-2.496-0.668-5.102-0.325-7.339,0.966
					c-4.618,2.666-6.207,8.593-3.54,13.212l4.975,8.616c0.463,0.802,1.304,1.25,2.167,1.25c0.425,0,0.854-0.108,1.248-0.335
					c1.195-0.69,1.605-2.219,0.915-3.415l-4.975-8.616c-1.288-2.231-0.521-5.094,1.71-6.382c1.08-0.624,2.339-0.791,3.545-0.467
					c1.205,0.323,2.213,1.096,2.837,2.177l5.051,8.748c0.69,1.197,2.221,1.605,3.415,0.915
					C63.669,108.437,64.079,106.908,63.389,105.712z"/>
			</g>
		</g>
		<g>
			<g>
				<path d="M59.131,135.366l-4.965-8.6c-0.691-1.197-2.222-1.605-3.415-0.915c-1.195,0.69-1.605,2.219-0.915,3.415l4.965,8.6
					c0.463,0.802,1.304,1.25,2.167,1.25c0.425,0,0.854-0.108,1.248-0.335C59.411,138.091,59.821,136.562,59.131,135.366z"/>
			</g>
		</g>
		<g>
			<g>
				<path d="M69.184,129.563l-4.966-8.6c-0.69-1.197-2.222-1.604-3.415-0.915c-1.195,0.69-1.605,2.219-0.915,3.415l4.966,8.6
					c0.463,0.802,1.304,1.25,2.167,1.25c0.425,0,0.854-0.108,1.248-0.335C69.465,132.287,69.874,130.758,69.184,129.563z"/>
			</g>
		</g>
		<g>
			<g>
				<path d="M79.235,123.759l-4.965-8.6c-0.69-1.197-2.222-1.604-3.415-0.915c-1.195,0.69-1.605,2.219-0.915,3.415l4.965,8.6
					c0.463,0.802,1.304,1.25,2.167,1.25c0.425,0,0.854-0.108,1.248-0.335C79.516,126.483,79.926,124.955,79.235,123.759z"/>
			</g>
		</g>
		<g>
			<g>
				<path d="M89.288,117.955l-4.966-8.6c-0.691-1.197-2.222-1.604-3.415-0.915c-1.196,0.69-1.605,2.219-0.915,3.415l4.966,8.6
					c0.463,0.802,1.304,1.25,2.167,1.25c0.425,0,0.854-0.108,1.248-0.335C89.568,120.68,89.979,119.151,89.288,117.955z"/>
			</g>
		</g>
		<g>
			<g>
				<path d="M205.739,62.179c-5.557-9.625-16.978-14.528-27.773-11.923c-1.343,0.324-2.168,1.674-1.845,3.016
					c0.324,1.343,1.681,2.17,3.017,1.844c8.655-2.089,17.814,1.845,22.271,9.563c4.52,7.83,3.268,17.808-3.045,24.267
					c-0.965,0.987-0.946,2.57,0.041,3.536c0.486,0.475,1.116,0.712,1.747,0.712c0.649,0,1.298-0.251,1.788-0.752
					C209.813,84.387,211.375,71.942,205.739,62.179z"/>
			</g>
		</g>
		<g>
			<g>
				<path d="M155.783,204.773l-52.056-45.71c-1.036-0.911-2.617-0.809-3.528,0.229c-0.911,1.037-0.809,2.617,0.229,3.528
					l49.436,43.41l-20.027,11.563l-51.053-44.829c-1.037-0.911-2.616-0.809-3.528,0.229c-0.911,1.037-0.809,2.617,0.229,3.528
					l52.399,46.012c0.468,0.411,1.057,0.622,1.65,0.622c0.429,0,0.859-0.11,1.249-0.335l24.6-14.203
					c0.698-0.403,1.158-1.117,1.238-1.919C156.701,206.095,156.389,205.305,155.783,204.773z"/>
			</g>
		</g>
		<g>
			<g>
				<path d="M163.819,218.426l-7.521-13.025c-0.69-1.197-2.223-1.604-3.415-0.915c-1.195,0.69-1.605,2.219-0.915,3.415l7.521,13.024
					c1.248,2.163,0.504,4.938-1.658,6.186l-14.836,8.566c-2.451,1.415-5.354,1.376-7.765-0.103s-3.762-4.047-3.612-6.872
					l0.407-7.714c0.073-1.379-0.985-2.556-2.364-2.628c-1.379-0.071-2.556,0.986-2.628,2.365l-0.407,7.714
					c-0.248,4.685,1.992,8.946,5.991,11.398c2.049,1.256,4.311,1.886,6.577,1.886c2.157,0,4.318-0.571,6.301-1.715l14.836-8.566
					C164.881,228.815,166.446,222.977,163.819,218.426z"/>
			</g>
		</g>
		<g>
			<g>
				<path d="M146.823,32.48c-1.262-0.56-2.739,0.009-3.299,1.271c-9.424,21.249-25.065,38.635-45.235,50.28l-6.194,3.577
					c-1.195,0.69-1.605,2.219-0.915,3.415c0.463,0.802,1.304,1.25,2.167,1.25c0.425,0,0.854-0.108,1.248-0.335l6.194-3.577
					c21.093-12.177,37.45-30.36,47.306-52.583C148.654,34.517,148.085,33.04,146.823,32.48z"/>
			</g>
		</g>
		<g>
			<g>
				<path d="M199.537,125.275c-24.086-2.517-47.929,2.567-68.947,14.702l-6.195,3.577c-1.195,0.69-1.605,2.219-0.915,3.415
					c0.463,0.802,1.304,1.25,2.167,1.25c0.425,0,0.854-0.108,1.248-0.335l6.195-3.577c20.097-11.604,42.895-16.465,65.928-14.059
					c1.385,0.147,2.604-0.853,2.746-2.227C201.907,126.648,200.91,125.418,199.537,125.275z"/>
			</g>
		</g>
		<g>
			<g>
				<path d="M228.24,49.189c-0.69-1.197-2.222-1.605-3.415-0.915l-8.601,4.965c-1.195,0.69-1.605,2.219-0.915,3.415
					c0.463,0.802,1.304,1.25,2.167,1.25c0.425,0,0.854-0.108,1.248-0.335l8.601-4.965C228.521,51.914,228.931,50.385,228.24,49.189z
					"/>
			</g>
		</g>
		<g>
			<g>
				<path d="M208.545,29.494c-1.193-0.689-2.725-0.282-3.415,0.915l-4.966,8.6c-0.69,1.196-0.281,2.725,0.915,3.415
					c0.394,0.228,0.823,0.335,1.248,0.335c0.863,0,1.704-0.448,2.167-1.25l4.966-8.6C210.15,31.713,209.74,30.184,208.545,29.494z"
					/>
			</g>
		</g>
		<g>
			<g>
				<path d="M181.641,22.285c-1.381,0-2.5,1.119-2.5,2.5v9.931c0,1.381,1.119,2.5,2.5,2.5s2.5-1.119,2.5-2.5v-9.931
					C184.141,23.404,183.021,22.285,181.641,22.285z"/>
			</g>
		</g>
		<g>
			<g>
				<path d="M227.325,99.582l-8.601-4.965c-1.192-0.69-2.725-0.281-3.415,0.915c-0.69,1.196-0.28,2.725,0.915,3.415l8.601,4.965
					c0.394,0.228,0.823,0.335,1.248,0.335c0.863,0,1.704-0.449,2.167-1.25C228.931,101.801,228.521,100.272,227.325,99.582z"/>
			</g>
		</g>
		<g>
			<g>
				<path d="M232.949,73.593h-9.931c-1.381,0-2.5,1.119-2.5,2.5s1.119,2.5,2.5,2.5h9.931c1.381,0,2.5-1.119,2.5-2.5
					S234.33,73.593,232.949,73.593z"/>
			</g>
		</g>
		<g>
			<g>
				<path d="M112.682,168.153c-0.69-1.197-2.223-1.605-3.415-0.915l-22.822,13.176c-1.195,0.69-1.605,2.219-0.915,3.415
					c0.463,0.802,1.304,1.25,2.167,1.25c0.425,0,0.854-0.108,1.248-0.335l22.822-13.176
					C112.962,170.878,113.372,169.349,112.682,168.153z"/>
			</g>
		</g>
	</g>
</g>
<g id="Layer_51">
</g>
<g id="Layer_52">
</g>
<g id="Layer_53">
</g>
<g id="Layer_54">
</g>
<g id="Layer_55">
</g>
<g id="Layer_56">
</g>
<g id="Layer_57">
</g>
<g id="Layer_58">
</g>
<g id="Layer_59">
</g>
<g id="Layer_60">
</g>
<g id="Layer_61">
</g>
<g id="Layer_62">
</g>
<g id="Layer_63">
</g>
<g id="Layer_64">
</g>
<g id="Layer_65">
</g>
<g id="Layer_66">
</g>
<g id="Layer_67">
</g>
<g id="Layer_68">
</g>
<g id="Layer_69">
</g>
<g id="Layer_70">
</g>
<g id="Layer_71">
</g>
<g id="Layer_72">
</g>
<g id="Layer_73">
</g>
<g id="Layer_74">
</g>
<g id="Layer_75">
</g>
<g id="Layer_76">
</g>
<g id="Layer_77">
</g>
<g id="Layer_78">
</g>
<g id="Layer_79">
</g>
<g id="Layer_80">
</g>
</svg>
