<?xml version="1.0" encoding="utf-8"?>
<!-- Generator: Adobe Illustrator 24.0.0, SVG Export Plug-In . SVG Version: 6.00 Build 0)  -->
<svg version="1.1" xmlns="http://www.w3.org/2000/svg" xmlns:xlink="http://www.w3.org/1999/xlink" x="0px" y="0px"
	 viewBox="0 0 256 256" enable-background="new 0 0 256 256" xml:space="preserve">
<g id="Layer_1">
</g>
<g id="Layer_2">
</g>
<g id="Layer_3">
</g>
<g id="Layer_4">
</g>
<g id="Layer_5">
</g>
<g id="Layer_6">
</g>
<g id="Layer_7">
</g>
<g id="Layer_8">
</g>
<g id="Layer_9">
</g>
<g id="Layer_10">
</g>
<g id="Layer_11">
</g>
<g id="Layer_12">
</g>
<g id="Layer_13">
</g>
<g id="Layer_14">
</g>
<g id="Layer_15">
</g>
<g id="Layer_16">
</g>
<g id="Layer_17">
</g>
<g id="Layer_18">
</g>
<g id="Layer_19">
</g>
<g id="Layer_20">
</g>
<g id="Layer_21">
</g>
<g id="Layer_22">
</g>
<g id="Layer_23">
</g>
<g id="Layer_24">
</g>
<g id="Layer_25">
</g>
<g id="Layer_26">
</g>
<g id="Layer_27">
</g>
<g id="Layer_28">
</g>
<g id="Layer_29">
</g>
<g id="Layer_30">
</g>
<g id="Layer_31">
</g>
<g id="Layer_32">
</g>
<g id="Layer_33">
</g>
<g id="Layer_34">
</g>
<g id="Layer_35">
</g>
<g id="Layer_36">
</g>
<g id="Layer_37">
</g>
<g id="Layer_38">
</g>
<g id="Layer_39">
</g>
<g id="Layer_40">
</g>
<g id="Layer_41">
</g>
<g id="Layer_42">
</g>
<g id="Layer_43">
</g>
<g id="Layer_44">
</g>
<g id="Layer_45">
</g>
<g id="Layer_46">
</g>
<g id="Layer_47">
</g>
<g id="Layer_48">
</g>
<g id="Layer_49">
</g>
<g id="Layer_50">
</g>
<g id="Layer_51">
</g>
<g id="Layer_52">
</g>
<g id="Layer_53">
</g>
<g id="Layer_54">
</g>
<g id="Layer_55">
</g>
<g id="Layer_56">
</g>
<g id="Layer_57">
</g>
<g id="Layer_58">
</g>
<g id="Layer_59">
</g>
<g id="Layer_60">
</g>
<g id="Layer_61">
</g>
<g id="Layer_62">
</g>
<g id="Layer_63">
</g>
<g id="Layer_64">
</g>
<g id="Layer_65">
</g>
<g id="Layer_66">
</g>
<g id="Layer_67">
</g>
<g id="Layer_68">
</g>
<g id="Layer_69">
</g>
<g id="Layer_70">
</g>
<g id="Layer_71">
</g>
<g id="Layer_72">
</g>
<g id="Layer_73">
	<g>
		<g>
			<g>
				<circle fill="#6CADEF" cx="38.56" cy="166.266" r="28.018"/>
			</g>
		</g>
		<g>
			<g>
				<circle fill="#5290DB" cx="79.852" cy="222.667" r="22.002"/>
			</g>
		</g>
		<g>
			<g>
				<path fill="#A57453" d="M46.544,14.845c-3.707-1.475-7.911,0.329-9.389,4.035c-1.478,3.707,0.329,7.911,4.035,9.389
					l67.301,26.838L128,47.327L46.544,14.845z"/>
			</g>
		</g>
		<g>
			<g>
				<path fill="#A57453" d="M181.919,68.829l-34.411-13.722L128,62.887l48.692,19.417c3.201,1.276,7.064,0.184,8.95-3.178
					C187.788,75.301,185.993,70.453,181.919,68.829z"/>
			</g>
		</g>
		<g>
			<g>
				<path fill="#C18E6B" d="M218.845,18.88c-1.479-3.707-5.684-5.51-9.388-4.035L73.951,68.881
					c-3.822,1.524-5.917,6.125-3.522,10.371c1.749,3.101,5.571,4.37,8.878,3.051l135.502-54.034
					C218.516,26.791,220.323,22.587,218.845,18.88z"/>
			</g>
		</g>
		<g>
			<g>
				<circle fill="#6CADEF" cx="217.44" cy="166.266" r="28.018"/>
			</g>
		</g>
		<g>
			<g>
				<circle fill="#5290DB" cx="176.148" cy="222.667" r="22.002"/>
			</g>
		</g>
		<g>
			<g>
				<path fill="#FC657E" d="M44.379,173.057c-1.756-0.32-3.565-0.487-5.413-0.487c-1.848,0-3.657,0.167-5.413,0.487
					c-7.118,1.297-12.563,6.849-13.987,13.801c4.993,4.608,11.663,7.427,18.994,7.427c7.657,0,14.594-3.075,19.652-8.054
					C56.597,179.575,51.281,174.314,44.379,173.057z"/>
			</g>
		</g>
		<g>
			<g>
				<circle fill="#F9D0B4" cx="38.56" cy="161.867" r="10.558"/>
			</g>
		</g>
		<g>
			<g>
				<path fill="#B2E26D" d="M84.422,228c-1.379-0.251-2.799-0.382-4.251-0.382c-1.451,0-2.872,0.131-4.251,0.382
					c-5.59,1.019-9.866,5.378-10.984,10.838c3.921,3.619,9.159,5.832,14.916,5.832c6.013,0,11.461-2.415,15.432-6.325
					C94.017,233.118,89.842,228.987,84.422,228z"/>
			</g>
		</g>
		<g>
			<g>
				<path fill="#F9D0B4" d="M79.852,210.922c-4.579,0-8.291,3.712-8.291,8.291c0,4.579,3.712,8.291,8.291,8.291
					s8.291-3.712,8.291-8.291C88.143,214.634,84.431,210.922,79.852,210.922z"/>
			</g>
		</g>
		<g>
			<g>
				<path fill="#F5C84C" d="M222.447,173.057c-1.756-0.32-3.565-0.487-5.413-0.487c-1.848,0-3.657,0.167-5.413,0.487
					c-6.902,1.257-12.218,6.518-13.833,13.174c5.057,4.979,11.994,8.054,19.652,8.054c7.331,0,14-2.818,18.994-7.427
					C235.01,179.905,229.565,174.354,222.447,173.057z"/>
			</g>
		</g>
		<g>
			<g>
				<circle fill="#F9D0B4" cx="217.44" cy="161.867" r="10.558"/>
			</g>
		</g>
		<g>
			<g>
				<path fill="#70D6F9" d="M180.08,228c-1.379-0.251-2.799-0.382-4.251-0.382c-1.451,0-2.872,0.131-4.251,0.382
					c-5.42,0.987-9.595,5.119-10.863,10.345c3.972,3.91,9.419,6.325,15.432,6.325c5.757,0,10.995-2.213,14.916-5.832
					C189.946,233.378,185.67,229.018,180.08,228z"/>
			</g>
		</g>
		<g>
			<g>
				<path fill="#F9D0B4" d="M176.148,210.922c-4.579,0-8.291,3.712-8.291,8.291c0,4.579,3.712,8.291,8.291,8.291
					s8.291-3.712,8.291-8.291C184.439,214.634,180.727,210.922,176.148,210.922z"/>
			</g>
		</g>
		<g>
			<g>
				<path fill="#70D6F9" d="M147.906,12.1h-2.4V9.8c0-1.8-1.4-3.2-3.2-3.2c-1.7,0-3.2,1.4-3.2,3.1v2.4h-2.3c-1.8,0-3.2,1.4-3.2,3.2
					c-0.1,1.7,1.3,3.2,3.2,3.2h2.3v2.3c0,1.8,1.4,3.2,3.2,3.2c1.7,0,3.2-1.4,3.2-3.1v-2.4h2.3c1.8,0,3.2-1.4,3.2-3.2
					C151.006,13.6,149.606,12.1,147.906,12.1z"/>
			</g>
		</g>
		<g>
			<g>
				<path fill="#F5C84C" d="M241.15,100.175c-3.1-0.6-5.6-3-6.2-6.1c0-0.1-0.3-0.1-0.3,0c-0.6,3.1-3.1,5.5-6.2,6.1
					c-0.1,0-0.1,0.2,0,0.3c3.1,0.6,5.6,3,6.2,6.1c0,0.1,0.3,0.1,0.3,0c0.6-3.1,3.1-5.5,6.2-6.1
					C241.25,100.375,241.25,100.175,241.15,100.175z"/>
			</g>
		</g>
		<g>
			<g>
				<path fill="#87D147" d="M105.369,0c-1.878,0-3.4,1.522-3.4,3.4c0,1.878,1.522,3.4,3.4,3.4c1.878,0,3.4-1.522,3.4-3.4
					C108.769,1.522,107.246,0,105.369,0z"/>
			</g>
		</g>
		<g>
			<g>
				<path fill="#F5C84C" d="M52.206,249.2c-1.878,0-3.4,1.522-3.4,3.4c0,1.877,1.522,3.4,3.4,3.4c1.878,0,3.4-1.522,3.4-3.4
					C55.606,250.722,54.083,249.2,52.206,249.2z"/>
			</g>
		</g>
		<g>
			<g>
				<path fill="#FC657E" d="M39.15,223.85c-4.5-0.8-8-4.3-8.9-8.7c0-0.2-0.4-0.2-0.4,0c-0.9,4.4-4.4,7.9-8.9,8.7
					c-0.2,0-0.2,0.3,0,0.4c4.5,0.8,8,4.3,8.9,8.7c0,0.2,0.4,0.2,0.4,0c0.9-4.4,4.4-7.9,8.9-8.7
					C39.35,224.15,39.35,223.85,39.15,223.85z"/>
			</g>
		</g>
		<g>
			<g>
				<g>
					<g>
						<path d="M38.56,135.748c-16.828,0-30.518,13.69-30.518,30.518c0,16.828,13.69,30.519,30.518,30.519
							s30.518-13.69,30.518-30.519C69.078,149.438,55.388,135.748,38.56,135.748z M38.56,191.784
							c-14.071,0-25.518-11.447-25.518-25.519c0-14.07,11.447-25.518,25.518-25.518s25.518,11.447,25.518,25.518
							C64.078,180.337,52.631,191.784,38.56,191.784z"/>
					</g>
				</g>
			</g>
		</g>
		<g>
			<g>
				<g>
					<g>
						<path d="M79.852,198.164c-13.511,0-24.502,10.992-24.502,24.503s10.992,24.502,24.502,24.502s24.502-10.991,24.502-24.502
							S93.363,198.164,79.852,198.164z M79.852,242.169c-10.754,0-19.502-8.749-19.502-19.502c0-10.754,8.749-19.503,19.502-19.503
							s19.502,8.749,19.502,19.503C99.354,233.42,90.606,242.169,79.852,242.169z"/>
					</g>
				</g>
			</g>
		</g>
		<g>
			<g>
				<path d="M211.366,32.522L204.14,13.94c-0.5-1.286-1.947-1.923-3.236-1.424c-1.287,0.501-1.924,1.949-1.424,3.236l7.227,18.582
					c0.385,0.989,1.33,1.595,2.331,1.595c0.301,0,0.607-0.056,0.905-0.171C211.229,35.258,211.866,33.81,211.366,32.522z"/>
			</g>
		</g>
		<g>
			<g>
				<path d="M128.08,44.668L47.468,12.521c-4.983-1.981-10.651,0.456-12.635,5.434c-1.986,4.98,0.45,10.649,5.432,12.637
					l66.401,26.479c0.304,0.121,0.617,0.179,0.925,0.179c0.993,0,1.933-0.596,2.323-1.575c0.511-1.282-0.114-2.736-1.396-3.248
					l-66.4-26.479c-2.42-0.966-3.604-3.72-2.639-6.141c0.964-2.419,3.72-3.604,6.14-2.64l80.61,32.146
					c1.285,0.51,2.737-0.114,3.248-1.396C129.987,46.634,129.362,45.18,128.08,44.668z"/>
			</g>
		</g>
		<g>
			<g>
				<path d="M55.097,12.517c-1.288-0.504-2.736,0.137-3.236,1.424l-7.226,18.582c-0.5,1.287,0.137,2.736,1.424,3.236
					c0.298,0.116,0.604,0.171,0.906,0.171c1.001,0,1.946-0.605,2.331-1.595l7.226-18.582C57.021,14.466,56.383,13.017,55.097,12.517
					z"/>
			</g>
		</g>
		<g>
			<g>
				<path d="M188.493,72.383c-0.949-2.682-3.008-4.823-5.648-5.876l-33.636-13.413c-1.284-0.513-2.736,0.114-3.248,1.396
					s0.113,2.736,1.396,3.248l33.636,13.413c1.303,0.52,2.318,1.576,2.786,2.899c0.46,1.299,0.347,2.667-0.318,3.852
					c-1.327,2.367-3.941,2.838-5.843,2.079l-48.241-19.237c-1.283-0.514-2.738,0.114-3.249,1.396
					c-0.511,1.282,0.114,2.736,1.396,3.248l48.242,19.237c1.199,0.479,2.433,0.707,3.644,0.707c3.406,0,6.632-1.811,8.412-4.983
					C189.182,77.926,189.427,75.021,188.493,72.383z"/>
			</g>
		</g>
		<g>
			<g>
				<g>
					<g>
						<path d="M221.167,17.954c-1.986-4.977-7.657-7.412-12.637-5.432L73.025,66.559c-2.612,1.042-4.643,3.152-5.572,5.79
							c-0.939,2.665-0.656,5.553,0.799,8.131c1.729,3.065,4.986,4.839,8.377,4.839c1.206,0,2.428-0.224,3.604-0.693l135.502-54.033
							c2.413-0.963,4.308-2.808,5.333-5.194C222.095,23.011,222.129,20.367,221.167,17.954z M216.475,23.424
							c-0.498,1.159-1.419,2.056-2.591,2.523L78.381,79.98c-2.174,0.869-4.655,0.026-5.774-1.957
							c-0.942-1.671-0.758-3.104-0.438-4.014c0.45-1.276,1.438-2.3,2.709-2.807l135.504-54.035c0.571-0.229,1.162-0.336,1.743-0.336
							c1.879,0,3.661,1.128,4.398,2.976C216.99,20.979,216.974,22.264,216.475,23.424z"/>
					</g>
				</g>
			</g>
		</g>
		<g>
			<g>
				<path d="M176.954,62.086c-1.276-0.524-2.738,0.083-3.264,1.359l-7.226,17.55c-0.525,1.277,0.083,2.738,1.359,3.264
					c0.312,0.129,0.634,0.189,0.951,0.189c0.983,0,1.915-0.584,2.313-1.549l7.226-17.55
					C178.839,64.072,178.23,62.611,176.954,62.086z"/>
			</g>
		</g>
		<g>
			<g>
				<path d="M89.536,80.995l-7.226-17.55c-0.525-1.276-1.987-1.884-3.263-1.359c-1.277,0.525-1.886,1.986-1.36,3.264l7.226,17.55
					c0.397,0.965,1.33,1.549,2.313,1.549c0.317,0,0.64-0.062,0.951-0.189C89.453,83.733,90.062,82.272,89.536,80.995z"/>
			</g>
		</g>
		<g>
			<g>
				<path d="M38.706,24.734c-1.381,0-2.5,1.119-2.5,2.5v109.736c0,1.381,1.119,2.5,2.5,2.5s2.5-1.119,2.5-2.5V27.234
					C41.206,25.854,40.086,24.734,38.706,24.734z"/>
			</g>
		</g>
		<g>
			<g>
				<path d="M79.998,80.479c-1.381,0-2.5,1.119-2.5,2.5v116.747c0,1.381,1.119,2.5,2.5,2.5s2.5-1.119,2.5-2.5V82.979
					C82.498,81.599,81.379,80.479,79.998,80.479z"/>
			</g>
		</g>
		<g>
			<g>
				<g>
					<g>
						<path d="M217.439,135.748c-16.827,0-30.518,13.69-30.518,30.518c0,16.828,13.69,30.519,30.518,30.519
							c16.828,0,30.519-13.69,30.519-30.519C247.958,149.438,234.268,135.748,217.439,135.748z M217.439,191.784
							c-14.07,0-25.518-11.447-25.518-25.519c0-14.07,11.447-25.518,25.518-25.518c14.071,0,25.519,11.447,25.519,25.518
							C242.958,180.337,231.511,191.784,217.439,191.784z"/>
					</g>
				</g>
			</g>
		</g>
		<g>
			<g>
				<g>
					<g>
						<path d="M176.147,198.164c-13.511,0-24.502,10.992-24.502,24.503s10.991,24.502,24.502,24.502s24.503-10.991,24.503-24.502
							S189.658,198.164,176.147,198.164z M176.147,242.169c-10.753,0-19.502-8.749-19.502-19.502
							c0-10.754,8.749-19.503,19.502-19.503c10.754,0,19.503,8.749,19.503,19.503C195.65,233.42,186.901,242.169,176.147,242.169z"
							/>
					</g>
				</g>
			</g>
		</g>
		<g>
			<g>
				<path d="M217.294,24.734c-1.381,0-2.5,1.119-2.5,2.5v109.736c0,1.381,1.119,2.5,2.5,2.5s2.5-1.119,2.5-2.5V27.234
					C219.794,25.854,218.675,24.734,217.294,24.734z"/>
			</g>
		</g>
		<g>
			<g>
				<path d="M176.002,80.479c-1.381,0-2.5,1.119-2.5,2.5v116.747c0,1.381,1.119,2.5,2.5,2.5s2.5-1.119,2.5-2.5V82.979
					C178.502,81.599,177.383,80.479,176.002,80.479z"/>
			</g>
		</g>
		<g>
			<g>
				<path d="M60.587,185.424c-1.935-7.615-8.122-13.436-15.759-14.826c-3.841-0.701-7.883-0.7-11.723-0.001
					C25.24,172.03,19,178.048,17.209,185.929c-0.306,1.346,0.538,2.686,1.884,2.991c0.187,0.043,0.373,0.063,0.557,0.063
					c1.141-0.001,2.172-0.787,2.436-1.947c1.346-5.925,6.023-10.446,11.917-11.521c3.25-0.592,6.678-0.593,9.929,0.001
					c5.72,1.041,10.355,5.414,11.811,11.14c0.34,1.337,1.702,2.149,3.039,1.807C60.119,188.123,60.928,186.763,60.587,185.424z"/>
			</g>
		</g>
		<g>
			<g>
				<g>
					<g>
						<path d="M38.56,148.81c-7.2,0-13.058,5.857-13.058,13.058s5.857,13.058,13.058,13.058s13.058-5.857,13.058-13.058
							S45.76,148.81,38.56,148.81z M38.56,169.925c-4.443,0-8.058-3.614-8.058-8.058s3.615-8.058,8.058-8.058
							s8.058,3.614,8.058,8.058S43.003,169.925,38.56,169.925z"/>
					</g>
				</g>
			</g>
		</g>
		<g>
			<g>
				<path d="M97.648,237.494c-1.595-6.139-6.611-10.831-12.777-11.953c-3.076-0.563-6.327-0.562-9.398-0.001
					c-6.385,1.163-11.452,6.045-12.908,12.438c-0.307,1.347,0.536,2.687,1.882,2.993c0.187,0.043,0.374,0.063,0.558,0.063
					c1.141,0,2.171-0.786,2.435-1.945c1.011-4.439,4.516-7.827,8.931-8.631c2.483-0.453,5.116-0.454,7.604,0.001
					c4.26,0.775,7.728,4.03,8.835,8.292c0.347,1.336,1.715,2.138,3.048,1.791C97.194,240.195,97.996,238.831,97.648,237.494z"/>
			</g>
		</g>
		<g>
			<g>
				<g>
					<g>
						<path d="M79.852,208.422c-5.95,0-10.791,4.841-10.791,10.791c0,5.949,4.841,10.79,10.791,10.79
							c5.95,0,10.791-4.841,10.791-10.79C90.643,213.263,85.802,208.422,79.852,208.422z M79.852,225.003
							c-3.193,0-5.791-2.598-5.791-5.79c0-3.193,2.598-5.791,5.791-5.791c3.193,0,5.791,2.598,5.791,5.791
							C85.643,222.405,83.045,225.003,79.852,225.003z"/>
					</g>
				</g>
			</g>
		</g>
		<g>
			<g>
				<path d="M238.742,185.722c-1.851-7.771-8.071-13.708-15.847-15.124c-3.84-0.701-7.883-0.7-11.723-0.001
					c-7.59,1.384-13.765,7.159-15.73,14.715c-0.349,1.337,0.453,2.701,1.789,3.049c1.339,0.354,2.702-0.452,3.049-1.789
					c1.479-5.681,6.105-10.02,11.789-11.056c3.25-0.592,6.68-0.593,9.93,0.001c5.825,1.061,10.488,5.521,11.88,11.363
					c0.273,1.148,1.299,1.922,2.43,1.922c0.191,0,0.387-0.022,0.581-0.069C238.233,188.413,239.062,187.064,238.742,185.722z"/>
			</g>
		</g>
		<g>
			<g>
				<g>
					<g>
						<path d="M217.439,148.81c-7.199,0-13.057,5.857-13.057,13.058s5.857,13.058,13.057,13.058c7.2,0,13.058-5.857,13.058-13.058
							S224.64,148.81,217.439,148.81z M217.439,169.925c-4.442,0-8.057-3.614-8.057-8.058s3.614-8.058,8.057-8.058
							c4.443,0,8.058,3.614,8.058,8.058S221.883,169.925,217.439,169.925z"/>
					</g>
				</g>
			</g>
		</g>
		<g>
			<g>
				<path d="M193.41,237.867c-1.49-6.334-6.547-11.173-12.881-12.326c-3.076-0.563-6.325-0.562-9.399-0.001
					c-6.123,1.116-11.129,5.768-12.751,11.85c-0.355,1.334,0.438,2.704,1.771,3.061c1.33,0.356,2.704-0.437,3.061-1.771
					c1.126-4.223,4.586-7.448,8.816-8.22c2.484-0.453,5.118-0.454,7.604,0.001c4.379,0.797,7.877,4.154,8.911,8.552
					c0.271,1.151,1.298,1.929,2.432,1.929c0.189,0,0.382-0.022,0.574-0.067C192.893,240.557,193.727,239.211,193.41,237.867z"/>
			</g>
		</g>
		<g>
			<g>
				<g>
					<g>
						<path d="M176.147,208.422c-5.949,0-10.79,4.841-10.79,10.791c0,5.949,4.841,10.79,10.79,10.79
							c5.95,0,10.791-4.841,10.791-10.79C186.938,213.263,182.098,208.422,176.147,208.422z M176.147,225.003
							c-3.192,0-5.79-2.598-5.79-5.79c0-3.193,2.598-5.791,5.79-5.791c3.193,0,5.791,2.598,5.791,5.791
							C181.938,222.405,179.341,225.003,176.147,225.003z"/>
					</g>
				</g>
			</g>
		</g>
	</g>
</g>
<g id="Layer_74">
</g>
<g id="Layer_75">
</g>
<g id="Layer_76">
</g>
<g id="Layer_77">
</g>
<g id="Layer_78">
</g>
<g id="Layer_79">
</g>
<g id="Layer_80">
</g>
</svg>
