<?xml version="1.0" encoding="utf-8"?>
<!-- Generator: Adobe Illustrator 24.0.0, SVG Export Plug-In . SVG Version: 6.00 Build 0)  -->
<svg version="1.1" xmlns="http://www.w3.org/2000/svg" xmlns:xlink="http://www.w3.org/1999/xlink" x="0px" y="0px"
	 viewBox="0 0 256 256" enable-background="new 0 0 256 256" xml:space="preserve">
<g id="Layer_1">
</g>
<g id="Layer_2">
</g>
<g id="Layer_3">
</g>
<g id="Layer_4">
</g>
<g id="Layer_5">
</g>
<g id="Layer_6">
</g>
<g id="Layer_7">
</g>
<g id="Layer_8">
</g>
<g id="Layer_9">
</g>
<g id="Layer_10">
</g>
<g id="Layer_11">
</g>
<g id="Layer_12">
</g>
<g id="Layer_13">
</g>
<g id="Layer_14">
</g>
<g id="Layer_15">
</g>
<g id="Layer_16">
</g>
<g id="Layer_17">
</g>
<g id="Layer_18">
</g>
<g id="Layer_19">
</g>
<g id="Layer_20">
</g>
<g id="Layer_21">
</g>
<g id="Layer_22">
</g>
<g id="Layer_23">
</g>
<g id="Layer_24">
</g>
<g id="Layer_25">
</g>
<g id="Layer_26">
</g>
<g id="Layer_27">
</g>
<g id="Layer_28">
</g>
<g id="Layer_29">
</g>
<g id="Layer_30">
</g>
<g id="Layer_31">
</g>
<g id="Layer_32">
</g>
<g id="Layer_33">
</g>
<g id="Layer_34">
</g>
<g id="Layer_35">
</g>
<g id="Layer_36">
</g>
<g id="Layer_37">
</g>
<g id="Layer_38">
</g>
<g id="Layer_39">
</g>
<g id="Layer_40">
</g>
<g id="Layer_41">
</g>
<g id="Layer_42">
</g>
<g id="Layer_43">
</g>
<g id="Layer_44">
</g>
<g id="Layer_45">
</g>
<g id="Layer_46">
</g>
<g id="Layer_47">
</g>
<g id="Layer_48">
</g>
<g id="Layer_49">
</g>
<g id="Layer_50">
</g>
<g id="Layer_51">
</g>
<g id="Layer_52">
</g>
<g id="Layer_53">
</g>
<g id="Layer_54">
</g>
<g id="Layer_55">
</g>
<g id="Layer_56">
</g>
<g id="Layer_57">
	<g>
		<g>
			<g>
				<path fill="#5290DB" d="M79.435,184.819l-8.254-8.254c-2.688-2.688-7.046-2.688-9.734,0L19.782,218.23
					c-4.967,4.967-4.967,13.02,0,17.987c4.967,4.967,13.02,4.967,17.987,0l41.665-41.666
					C82.123,191.864,82.123,187.506,79.435,184.819z"/>
			</g>
		</g>
		<g>
			<g>
				<path fill="#C7D7E5" d="M91.731,164.269c-1.603-1.603-3.106-3.268-4.558-4.961l-16.67,16.67
					c0.234,0.181,0.463,0.372,0.678,0.587l8.254,8.254c0.215,0.215,0.406,0.444,0.587,0.678l16.67-16.67
					C94.999,167.375,93.335,165.872,91.731,164.269z"/>
			</g>
		</g>
		<g>
			<g>
				
					<rect x="53.406" y="183.145" transform="matrix(0.7071 -0.7071 0.7071 0.7071 -120.8832 99.8899)" fill="#6CADEF" width="13.461" height="25.438"/>
			</g>
		</g>
		<g>
			<g>
				<circle fill="#DAE6F1" cx="153.123" cy="102.877" r="86.82"/>
			</g>
		</g>
		<g>
			<g>
				<path fill="#70D6F9" d="M204.981,51.019c-28.593-28.595-75.121-28.595-103.717,0c-28.595,28.594-28.595,75.123,0,103.718
					c28.592,28.593,75.122,28.596,103.717,0C233.576,126.142,233.576,79.614,204.981,51.019z"/>
			</g>
		</g>
		<g>
			<g>
				<path fill="#F5C84C" d="M129.478,112.152h-15.211c-1.202,0-2.177,0.975-2.177,2.177v27.167c0,1.202,0.975,2.177,2.177,2.177
					h15.211c1.202,0,2.177-0.975,2.177-2.177v-27.167C131.655,113.127,130.68,112.152,129.478,112.152z"/>
			</g>
		</g>
		<g>
			<g>
				<path fill="#FCA265" d="M160.728,94.489h-15.211c-1.202,0-2.177,0.975-2.177,2.177v44.831c0,1.202,0.975,2.177,2.177,2.177
					h15.211c1.202,0,2.177-0.975,2.177-2.177V96.666C162.905,95.464,161.93,94.489,160.728,94.489z"/>
			</g>
		</g>
		<g>
			<g>
				<path fill="#FC657E" d="M191.978,76.826h-15.211c-1.202,0-2.177,0.975-2.177,2.177v62.494c0,1.202,0.975,2.177,2.177,2.177
					h15.211c1.202,0,2.177-0.975,2.177-2.177V79.003C194.155,77.801,193.18,76.826,191.978,76.826z"/>
			</g>
		</g>
		<g>
			<g>
				<path fill="#70D6F9" d="M100.906,225.1h-2.4v-2.3c0-1.8-1.4-3.2-3.2-3.2c-1.7,0-3.2,1.4-3.2,3.1v2.4h-2.3
					c-1.8,0-3.2,1.4-3.2,3.2c-0.1,1.7,1.3,3.2,3.2,3.2h2.3v2.3c0,1.8,1.4,3.2,3.2,3.2c1.7,0,3.2-1.4,3.2-3.1v-2.4h2.3
					c1.8,0,3.2-1.4,3.2-3.2C104.006,226.6,102.606,225.1,100.906,225.1z"/>
			</g>
		</g>
		<g>
			<g>
				<path fill="#FC657E" d="M49.15,116.525c-3.1-0.6-5.6-3-6.2-6.1c0-0.1-0.3-0.1-0.3,0c-0.6,3.1-3.1,5.5-6.2,6.1
					c-0.1,0-0.1,0.2,0,0.3c3.1,0.6,5.6,3,6.2,6.1c0,0.1,0.3,0.1,0.3,0c0.6-3.1,3.1-5.5,6.2-6.1
					C49.25,116.725,49.25,116.525,49.15,116.525z"/>
			</g>
		</g>
		<g>
			<g>
				<g>
					<g>
						<path d="M81.203,183.051L81.203,183.051l-8.254-8.253c-1.772-1.772-4.128-2.749-6.635-2.749c-2.506,0-4.862,0.977-6.634,2.749
							l-41.666,41.665c-5.934,5.934-5.934,15.589,0,21.522c2.967,2.967,6.864,4.45,10.761,4.45c3.897,0,7.794-1.483,10.761-4.45
							l41.666-41.665C84.861,192.662,84.861,186.709,81.203,183.051z M77.667,192.785L36.002,234.45
							c-3.985,3.983-10.467,3.983-14.452,0c-3.984-3.984-3.984-10.468,0-14.452l41.666-41.665c0.828-0.828,1.928-1.284,3.099-1.284
							c1.171,0,2.271,0.456,3.099,1.284l8.253,8.253C79.376,188.295,79.376,191.076,77.667,192.785z"/>
					</g>
				</g>
			</g>
		</g>
		<g>
			<g>
				<path d="M88.3,158.182c-0.976-0.977-2.56-0.977-3.535,0L69.296,173.65c-0.977,0.977-0.977,2.559,0,3.535
					c0.488,0.488,1.128,0.732,1.768,0.732s1.28-0.244,1.768-0.732L88.3,161.717C89.277,160.74,89.277,159.158,88.3,158.182z"/>
			</g>
		</g>
		<g>
			<g>
				<path d="M97.631,167.888c-0.976-0.977-2.56-0.977-3.535,0l-15.438,15.438c-0.977,0.977-0.977,2.559,0,3.535
					c0.488,0.488,1.128,0.732,1.768,0.732s1.28-0.244,1.768-0.732l15.438-15.438C98.607,170.446,98.607,168.864,97.631,167.888z"/>
			</g>
		</g>
		<g>
			<g>
				<path fill="#87D147" d="M200.206,0c-1.878,0-3.4,1.522-3.4,3.4c0,1.878,1.522,3.4,3.4,3.4c1.878,0,3.4-1.522,3.4-3.4
					C203.606,1.522,202.083,0,200.206,0z"/>
			</g>
		</g>
		<g>
			<g>
				<path fill="#F5C84C" d="M69.206,249.2c-1.878,0-3.4,1.522-3.4,3.4c0,1.878,1.522,3.4,3.4,3.4c1.878,0,3.4-1.522,3.4-3.4
					C72.606,250.722,71.083,249.2,69.206,249.2z"/>
			</g>
		</g>
		<g>
			<g>
				<path fill="#F5C84C" d="M239.15,20.2c-4.5-0.8-8-4.3-8.9-8.7c0-0.2-0.4-0.2-0.4,0c-0.9,4.4-4.4,7.9-8.9,8.7
					c-0.2,0-0.2,0.3,0,0.4c4.5,0.8,8,4.3,8.9,8.7c0,0.2,0.4,0.2,0.4,0c0.9-4.4,4.4-7.9,8.9-8.7C239.35,20.5,239.35,20.2,239.15,20.2
					z"/>
			</g>
		</g>
		<g>
			<g>
				<path d="M171.972,50.853l-12.977-2.487c-1.359-0.261-2.667,0.628-2.926,1.984c-0.26,1.356,0.628,2.666,1.984,2.926l10.521,2.017
					l-2.017,10.521c-0.26,1.356,0.629,2.666,1.985,2.926c0.159,0.03,0.317,0.045,0.474,0.045c1.175,0,2.223-0.832,2.452-2.029
					l2.487-12.977C174.217,52.422,173.328,51.112,171.972,50.853z"/>
			</g>
		</g>
		<g>
			<g>
				<path d="M170.502,54.169c-0.754-1.156-2.3-1.484-3.459-0.73l-45.668,29.732c-1.157,0.753-1.484,2.302-0.731,3.459
					c0.479,0.735,1.28,1.136,2.098,1.136c0.467,0,0.94-0.131,1.362-0.405l45.668-29.732
					C170.928,56.875,171.255,55.326,170.502,54.169z"/>
			</g>
		</g>
		<g>
			<g>
				<path d="M74.691,197.365l-16.185-16.185c-0.976-0.977-2.56-0.977-3.535,0c-0.977,0.977-0.977,2.559,0,3.535L71.156,200.9
					c0.488,0.488,1.128,0.732,1.768,0.732s1.28-0.244,1.768-0.732C75.668,199.924,75.668,198.342,74.691,197.365z"/>
			</g>
		</g>
		<g>
			<g>
				<path d="M65.115,206.825l-16.159-16.158c-0.976-0.977-2.56-0.977-3.535,0c-0.977,0.977-0.977,2.559,0,3.535L61.58,210.36
					c0.488,0.488,1.128,0.732,1.768,0.732s1.28-0.244,1.768-0.732C66.091,209.384,66.091,207.802,65.115,206.825z"/>
			</g>
		</g>
		<g>
			<g>
				<g>
					<g>
						<path d="M216.281,39.719c-34.826-34.826-91.492-34.827-126.317,0c-16.871,16.87-26.162,39.301-26.162,63.159
							c0,23.857,9.291,46.288,26.162,63.158c17.413,17.413,40.286,26.12,63.159,26.12s45.746-8.707,63.159-26.12
							c16.871-16.87,26.162-39.301,26.162-63.158C242.443,79.02,233.152,56.589,216.281,39.719z M212.746,162.501
							c-32.877,32.877-86.37,32.877-119.247,0c-15.926-15.926-24.697-37.101-24.697-59.623c0-22.523,8.771-43.698,24.697-59.624
							c16.438-16.438,38.031-24.657,59.624-24.657s43.185,8.219,59.624,24.657c15.926,15.926,24.697,37.101,24.697,59.624
							C237.443,125.4,228.672,146.575,212.746,162.501z"/>
					</g>
				</g>
			</g>
		</g>
		<g>
			<g>
				<g>
					<g>
						<path d="M206.749,49.251c-14.301-14.303-33.346-22.18-53.625-22.18c-20.28,0-39.325,7.877-53.627,22.18
							c-14.302,14.302-22.179,33.347-22.179,53.626s7.876,39.325,22.179,53.627c14.301,14.302,33.345,22.178,53.625,22.179
							c0.001,0,0,0,0.002,0c20.279,0,39.324-7.877,53.625-22.179c14.302-14.302,22.179-33.347,22.179-53.626
							S221.051,63.553,206.749,49.251z M203.213,152.969c-13.357,13.357-31.147,20.714-50.092,20.714
							c-18.944-0.001-36.733-7.357-50.09-20.714c-13.357-13.358-20.714-31.147-20.714-50.092s7.356-36.733,20.714-50.091
							c13.358-13.357,31.147-20.715,50.092-20.715c18.944,0,36.733,7.357,50.089,20.715h0
							c13.357,13.358,20.714,31.147,20.714,50.092S216.571,139.611,203.213,152.969z"/>
					</g>
				</g>
			</g>
		</g>
		<g>
			<g>
				<g>
					<g>
						<path d="M129.478,109.652h-15.211c-2.579,0-4.677,2.098-4.677,4.677v27.168c0,2.579,2.098,4.677,4.677,4.677h15.211
							c2.579,0,4.677-2.098,4.677-4.677v-27.168C134.155,111.75,132.057,109.652,129.478,109.652z M129.155,141.174H114.59v-26.521
							h14.565V141.174z"/>
					</g>
				</g>
			</g>
		</g>
		<g>
			<g>
				<g>
					<g>
						<path d="M160.728,91.989h-15.211c-2.579,0-4.677,2.098-4.677,4.677v44.831c0,2.579,2.098,4.677,4.677,4.677h15.211
							c2.579,0,4.677-2.098,4.677-4.677V96.666C165.405,94.087,163.307,91.989,160.728,91.989z M160.405,141.174H145.84V96.989
							h14.565V141.174z"/>
					</g>
				</g>
			</g>
		</g>
		<g>
			<g>
				<g>
					<g>
						<path d="M191.978,74.326h-15.211c-2.579,0-4.677,2.098-4.677,4.677v62.494c0,2.579,2.098,4.677,4.677,4.677h15.211
							c2.579,0,4.677-2.098,4.677-4.677V79.003C196.655,76.424,194.557,74.326,191.978,74.326z M191.655,141.174H177.09V79.326
							h14.565V141.174z"/>
					</g>
				</g>
			</g>
		</g>
	</g>
</g>
<g id="Layer_58">
</g>
<g id="Layer_59">
</g>
<g id="Layer_60">
</g>
<g id="Layer_61">
</g>
<g id="Layer_62">
</g>
<g id="Layer_63">
</g>
<g id="Layer_64">
</g>
<g id="Layer_65">
</g>
<g id="Layer_66">
</g>
<g id="Layer_67">
</g>
<g id="Layer_68">
</g>
<g id="Layer_69">
</g>
<g id="Layer_70">
</g>
<g id="Layer_71">
</g>
<g id="Layer_72">
</g>
<g id="Layer_73">
</g>
<g id="Layer_74">
</g>
<g id="Layer_75">
</g>
<g id="Layer_76">
</g>
<g id="Layer_77">
</g>
<g id="Layer_78">
</g>
<g id="Layer_79">
</g>
<g id="Layer_80">
</g>
</svg>
