<?xml version="1.0" encoding="utf-8"?>
<!-- Generator: Adobe Illustrator 24.0.0, SVG Export Plug-In . SVG Version: 6.00 Build 0)  -->
<svg version="1.1" xmlns="http://www.w3.org/2000/svg" xmlns:xlink="http://www.w3.org/1999/xlink" x="0px" y="0px"
	 viewBox="0 0 256 256" enable-background="new 0 0 256 256" xml:space="preserve">
<g id="Layer_1">
</g>
<g id="Layer_2">
</g>
<g id="Layer_3">
</g>
<g id="Layer_4">
</g>
<g id="Layer_5">
</g>
<g id="Layer_6">
</g>
<g id="Layer_7">
</g>
<g id="Layer_8">
</g>
<g id="Layer_9">
</g>
<g id="Layer_10">
</g>
<g id="Layer_11">
</g>
<g id="Layer_12">
</g>
<g id="Layer_13">
</g>
<g id="Layer_14">
</g>
<g id="Layer_15">
</g>
<g id="Layer_16">
</g>
<g id="Layer_17">
</g>
<g id="Layer_18">
</g>
<g id="Layer_19">
</g>
<g id="Layer_20">
</g>
<g id="Layer_21">
</g>
<g id="Layer_22">
</g>
<g id="Layer_23">
</g>
<g id="Layer_24">
	<g>
		<g>
			<g>
				<path fill="#70D6F9" d="M106.983,163.142l-12.397-3.12c-6.571-1.654-11.738-4.488-11.671-4.455
					c-2.701-1.332-4.412-4.083-4.412-7.095v-3.727c-3.162,1.655-6.75,2.598-10.549,2.598h0c-3.799,0-7.387-0.943-10.549-2.598v3.726
					c0,3.012-1.711,5.763-4.412,7.095c-3.65,1.8-6.836,3.238-11.671,4.455l-12.397,3.12c-3.835,0.965-6.596,4.312-6.816,8.26v12.026
					h91.689v-12.026C113.579,167.454,110.818,164.108,106.983,163.142z"/>
			</g>
		</g>
		<g>
			<g>
				<path fill="#F9D0B4" d="M87.581,97.06c-1.497-1.57-3.932-1.715-5.638-0.375c-2.698,2.118-7.368,4.736-13.963,4.736
					c-6.611,0-11.305-2.631-14.015-4.752c-1.705-1.335-4.135-1.185-5.629,0.382l-0.008,0.008c-2.1,2.202-3.271,5.128-3.271,8.17
					v19.217c0,12.594,10.304,22.897,22.897,22.897c12.594,0,22.897-10.304,22.897-22.897V105.23
					C90.852,102.188,89.681,99.262,87.581,97.06z"/>
			</g>
		</g>
		<g>
			<g>
				<path fill="#F9D0B4" d="M92.321,106.996c-0.5,0-0.99,0.042-1.469,0.117v17.334c0,0.516-0.024,1.027-0.058,1.536
					c0.498,0.08,1.006,0.133,1.527,0.133c5.28,0,9.56-4.28,9.56-9.56C101.881,111.276,97.601,106.996,92.321,106.996z"/>
			</g>
		</g>
		<g>
			<g>
				<path fill="#F9D0B4" d="M45.057,124.447v-17.334c-0.479-0.074-0.969-0.117-1.469-0.117c-5.28,0-9.56,4.28-9.56,9.56
					c0,5.28,4.28,9.56,9.56,9.56c0.521,0,1.029-0.053,1.527-0.133v0C45.081,125.474,45.057,124.963,45.057,124.447z"/>
			</g>
		</g>
		<g>
			<g>
				<path fill="#5B5D60" d="M90.767,87.464c-0.767,0-1.432-0.591-1.442-1.358c-0.176-12.759-14.746-15.156-29.256-12.65
					C47.767,75.58,38.776,86.248,38.776,98.732v9.573c1.415-0.827,3.055-1.309,4.812-1.309c0.5,0,0.99,0.042,1.469,0.117v-1.882
					c0-3.043,1.171-5.968,3.271-8.17l0.008-0.008c1.494-1.567,3.924-1.717,5.629-0.382c2.71,2.121,7.404,4.752,14.015,4.752
					c6.595,0,11.264-2.618,13.963-4.736c1.707-1.34,4.141-1.195,5.638,0.375c2.1,2.202,3.271,5.128,3.271,8.17v1.882
					c0.479-0.074,0.969-0.117,1.469-0.117c1.778,0,3.437,0.494,4.863,1.34v-7.86C97.184,89.051,93.059,87.464,90.767,87.464z"/>
			</g>
		</g>
		<g>
			<g>
				<g>
					<g>
						<path fill="#F5C84C" d="M175.705,153.422c-24.344,0-44.078,19.734-44.078,44.078s19.735,44.078,44.078,44.078
							c24.344,0,44.078-19.734,44.078-44.078S200.049,153.422,175.705,153.422z M175.705,222.203
							c-13.621,0-24.703-11.082-24.703-24.703s11.082-24.703,24.703-24.703c13.621,0,24.703,11.082,24.703,24.703
							S189.326,222.203,175.705,222.203z"/>
					</g>
				</g>
			</g>
		</g>
		<g>
			<g>
				<rect x="159.538" y="69.734" fill="#FCA265" width="13" height="50.737"/>
			</g>
		</g>
		<g>
			<g>
				<rect x="188.872" y="77.5" fill="#F5C84C" width="13" height="42.971"/>
			</g>
		</g>
		<g>
			<g>
				<rect x="218.205" y="47.203" fill="#87D147" width="13" height="73.268"/>
			</g>
		</g>
		<g>
			<g>
				<rect x="130.205" y="77.5" fill="#FC657E" width="13" height="42.971"/>
			</g>
		</g>
		<g>
			<g>
				<path fill="#9BE5F9" d="M63.718,165.463l-7.937-12.214c-0.728,0.959-1.666,1.766-2.787,2.318
					c-2.696,1.329-5.143,2.46-8.184,3.451l8.559,13.17c0.83,1.277,2.538,1.64,3.815,0.81l5.725-3.72
					C64.186,168.448,64.548,166.74,63.718,165.463z"/>
			</g>
		</g>
		<g>
			<g>
				<path fill="#9BE5F9" d="M82.916,155.567c-1.121-0.553-2.059-1.36-2.787-2.318l-7.937,12.214c-0.83,1.277-0.467,2.985,0.81,3.815
					l5.725,3.72c1.277,0.83,2.985,0.467,3.815-0.81l8.566-13.181C86.283,157.417,82.861,155.54,82.916,155.567z"/>
			</g>
		</g>
		<g>
			<g>
				<path fill="#F9D0B4" d="M78.503,148.473v-3.726c-3.162,1.655-6.75,2.598-10.549,2.598h0c-3.799,0-7.387-0.943-10.549-2.598
					v3.726c0,1.762-0.599,3.425-1.625,4.776l7.937,12.214c0.317,0.488,0.458,1.039,0.442,1.58h7.589
					c-0.016-0.541,0.124-1.092,0.442-1.58l7.939-12.215C79.102,151.897,78.503,150.235,78.503,148.473z"/>
			</g>
		</g>
		<g>
			<g>
				<path fill="#FC657E" d="M131.627,197.5h19.375c0-13.621,11.082-24.703,24.703-24.703v-19.375
					C151.361,153.422,131.627,173.156,131.627,197.5z"/>
			</g>
		</g>
		<g>
			<g>
				<path fill="#70D6F9" d="M175.705,153.422v19.375c8.54,0,16.081,4.357,20.519,10.964l16.108-10.786
					C204.422,161.184,190.971,153.422,175.705,153.422z"/>
			</g>
		</g>
		<g>
			<g>
				<path fill="#70D6F9" d="M241.906,161.1h-2.4v-2.3c0-1.8-1.4-3.2-3.2-3.2c-1.7,0-3.2,1.4-3.2,3.1v2.4h-2.3
					c-1.8,0-3.2,1.4-3.2,3.2c-0.1,1.7,1.3,3.2,3.2,3.2h2.3v2.3c0,1.8,1.4,3.2,3.2,3.2c1.7,0,3.2-1.4,3.2-3.1v-2.4h2.3
					c1.8,0,3.2-1.4,3.2-3.2C245.006,162.6,243.606,161.1,241.906,161.1z"/>
			</g>
		</g>
		<g>
			<g>
				<path fill="#87D147" d="M252.6,127.5c-1.878,0-3.4,1.522-3.4,3.4c0,1.878,1.522,3.4,3.4,3.4s3.4-1.522,3.4-3.4
					C256,129.022,254.478,127.5,252.6,127.5z"/>
			</g>
		</g>
		<g>
			<g>
				<path fill="#F5C84C" d="M103.15,210.175c-3.1-0.6-5.6-3-6.2-6.1c0-0.1-0.3-0.1-0.3,0c-0.6,3.1-3.1,5.5-6.2,6.1
					c-0.1,0-0.1,0.2,0,0.3c3.1,0.6,5.6,3,6.2,6.1c0,0.1,0.3,0.1,0.3,0c0.6-3.1,3.1-5.5,6.2-6.1
					C103.25,210.375,103.25,210.175,103.15,210.175z"/>
			</g>
		</g>
		<g>
			<g>
				<path fill="#FC657E" d="M3.4,96C1.522,96,0,97.522,0,99.4c0,1.878,1.522,3.4,3.4,3.4c1.878,0,3.4-1.522,3.4-3.4
					C6.8,97.522,5.278,96,3.4,96z"/>
			</g>
		</g>
		<g>
			<g>
				<path fill="#F5C84C" d="M31.15,64.2c-4.5-0.8-8-4.3-8.9-8.7c0-0.2-0.4-0.2-0.4,0c-0.9,4.4-4.4,7.9-8.9,8.7c-0.2,0-0.2,0.3,0,0.4
					c4.5,0.8,8,4.3,8.9,8.7c0,0.2,0.4,0.2,0.4,0c0.9-4.4,4.4-7.9,8.9-8.7C31.35,64.5,31.35,64.2,31.15,64.2z"/>
			</g>
		</g>
		<g>
			<g>
				<path d="M116.295,171.263c-0.282-5.068-3.778-9.306-8.701-10.545l-12.397-3.12c-5.978-1.505-10.809-4.076-11.054-4.208
					c-0.04-0.022-0.081-0.043-0.122-0.064c-1.86-0.917-3.017-2.777-3.017-4.853v-3.284c0-1.381-1.119-2.5-2.5-2.5
					s-2.5,1.119-2.5,2.5v3.284c0,3.95,2.176,7.492,5.688,9.278c0.692,0.433,1.8,0.938,3.62,1.724
					c2.001,0.864,5.128,2.082,8.664,2.972l12.397,3.12c2.768,0.697,4.74,3.068,4.926,5.911v11.951c0,1.381,1.119,2.5,2.5,2.5
					s2.5-1.119,2.5-2.5v-12.026C116.299,171.356,116.298,171.31,116.295,171.263z"/>
			</g>
		</g>
		<g>
			<g>
				<path d="M57.406,142.641c-1.381,0-2.5,1.119-2.5,2.5v3.332c0,2.075-1.156,3.935-3.018,4.853
					c-3.309,1.631-6.434,3.079-11.176,4.272l-12.396,3.12c-4.923,1.239-8.42,5.477-8.702,10.546
					c-0.003,0.046-0.004,0.092-0.004,0.139v12.026c0,1.381,1.119,2.5,2.5,2.5s2.5-1.119,2.5-2.5v-11.951
					c0.186-2.843,2.158-5.214,4.927-5.911l12.396-3.12c5.218-1.313,8.597-2.877,12.166-4.637c3.582-1.766,5.807-5.344,5.807-9.337
					v-3.332C59.906,143.76,58.787,142.641,57.406,142.641z"/>
			</g>
		</g>
		<g>
			<g>
				<g>
					<g>
						<path d="M89.391,95.335c-2.386-2.501-6.25-2.767-8.992-0.616c-2.442,1.917-6.579,4.203-12.419,4.203
							c-5.853,0-10.014-2.295-12.474-4.22c-2.737-2.142-6.598-1.874-8.987,0.634c-2.554,2.679-3.961,6.193-3.961,9.896v19.217
							c0,14.004,11.394,25.397,25.397,25.397s25.397-11.393,25.397-25.397V105.23C93.353,101.529,91.945,98.015,89.391,95.335z
							 M88.353,124.447c0,11.247-9.15,20.397-20.397,20.397s-20.397-9.15-20.397-20.397V105.23c0-2.411,0.916-4.7,2.588-6.453
							c0.324-0.34,0.761-0.514,1.204-0.514c0.374,0,0.754,0.124,1.074,0.375c3.08,2.41,8.278,5.283,15.556,5.283
							c7.268,0,12.444-2.866,15.506-5.27c0.705-0.553,1.688-0.495,2.286,0.134c1.664,1.745,2.581,4.034,2.581,6.445V124.447z"/>
					</g>
				</g>
			</g>
		</g>
		<g>
			<g>
				<path d="M92.321,104.496c-1.381,0-2.5,1.119-2.5,2.5s1.119,2.5,2.5,2.5c3.893,0,7.06,3.167,7.06,7.06s-3.167,7.06-7.06,7.06
					c-1.381,0-2.5,1.119-2.5,2.5s1.119,2.5,2.5,2.5c6.649,0,12.06-5.41,12.06-12.06S98.971,104.496,92.321,104.496z"/>
			</g>
		</g>
		<g>
			<g>
				<path d="M43.588,123.616c-3.893,0-7.06-3.167-7.06-7.06s3.167-7.06,7.06-7.06c1.381,0,2.5-1.119,2.5-2.5s-1.119-2.5-2.5-2.5
					c-6.649,0-12.06,5.41-12.06,12.06s5.41,12.06,12.06,12.06c1.381,0,2.5-1.119,2.5-2.5S44.969,123.616,43.588,123.616z"/>
			</g>
		</g>
		<g>
			<g>
				<path d="M91.781,85.028c-0.29-4.195-1.989-7.61-5.062-10.161c-7.417-6.16-20.147-5.072-27.076-3.875
					c-13.54,2.338-23.368,14.004-23.368,27.74v9.189c0,1.381,1.119,2.5,2.5,2.5s2.5-1.119,2.5-2.5v-9.189
					c0-11.295,8.083-20.89,19.22-22.813c10.346-1.785,18.741-0.768,23.03,2.794c2.177,1.808,3.255,4.237,3.299,7.428
					c0.029,2.108,1.798,3.823,3.942,3.823c2.453,0,3.918,3.93,3.918,10.512v7.43c0,1.381,1.119,2.5,2.5,2.5s2.5-1.119,2.5-2.5v-7.43
					C99.685,88.275,95.118,85.457,91.781,85.028z"/>
			</g>
		</g>
		<g>
			<g>
				<g>
					<g>
						<path d="M175.705,150.922c-25.684,0-46.578,20.895-46.578,46.578s20.895,46.578,46.578,46.578s46.578-20.895,46.578-46.578
							S201.389,150.922,175.705,150.922z M175.705,239.078c-22.926,0-41.578-18.652-41.578-41.578s18.652-41.578,41.578-41.578
							s41.578,18.652,41.578,41.578S198.631,239.078,175.705,239.078z M175.705,170.297c-15,0-27.203,12.203-27.203,27.203
							s12.203,27.203,27.203,27.203s27.203-12.203,27.203-27.203S190.705,170.297,175.705,170.297z M175.705,219.703
							c-12.243,0-22.203-9.96-22.203-22.203s9.96-22.203,22.203-22.203s22.203,9.96,22.203,22.203S187.948,219.703,175.705,219.703z
							"/>
					</g>
				</g>
			</g>
		</g>
		<g>
			<g>
				<g>
					<g>
						<path d="M172.538,67.234h-13c-1.381,0-2.5,1.119-2.5,2.5v50.737c0,1.381,1.119,2.5,2.5,2.5h13c1.381,0,2.5-1.119,2.5-2.5
							V69.734C175.038,68.354,173.919,67.234,172.538,67.234z M170.038,117.971h-8V72.234h8V117.971z"/>
					</g>
				</g>
			</g>
		</g>
		<g>
			<g>
				<g>
					<g>
						<path d="M201.872,75h-13c-1.381,0-2.5,1.119-2.5,2.5v42.971c0,1.381,1.119,2.5,2.5,2.5h13c1.381,0,2.5-1.119,2.5-2.5V77.5
							C204.372,76.119,203.253,75,201.872,75z M199.372,117.971h-8V80h8V117.971z"/>
					</g>
				</g>
			</g>
		</g>
		<g>
			<g>
				<g>
					<g>
						<path d="M231.205,44.703h-13c-1.381,0-2.5,1.119-2.5,2.5v73.268c0,1.381,1.119,2.5,2.5,2.5h13c1.381,0,2.5-1.119,2.5-2.5
							V47.203C233.705,45.822,232.586,44.703,231.205,44.703z M228.705,117.971h-8V49.703h8V117.971z"/>
					</g>
				</g>
			</g>
		</g>
		<g>
			<g>
				<g>
					<g>
						<path d="M143.205,75h-13c-1.381,0-2.5,1.119-2.5,2.5v42.971c0,1.381,1.119,2.5,2.5,2.5h13c1.381,0,2.5-1.119,2.5-2.5V77.5
							C145.705,76.119,144.586,75,143.205,75z M140.705,117.971h-8V80h8V117.971z"/>
					</g>
				</g>
			</g>
		</g>
		<g>
			<g>
				<path d="M227.338,20.245c-1.081-0.857-2.651-0.678-3.513,0.403l-29.395,37.016l-27.753-7.347c-0.42-0.111-0.859-0.111-1.279,0
					l-29.333,7.766c-1.335,0.353-2.131,1.722-1.777,3.056c0.297,1.121,1.309,1.861,2.415,1.861c0.212,0,0.428-0.027,0.642-0.084
					l28.693-7.596l28.694,7.596c0.958,0.254,1.98-0.084,2.598-0.862l30.411-38.297C228.6,22.677,228.419,21.104,227.338,20.245z"/>
			</g>
		</g>
		<g>
			<g>
				<path d="M231.181,18.045c-0.066-0.66-0.392-1.266-0.905-1.686c-0.513-0.419-1.167-0.62-1.832-0.552l-17.031,1.709
					c-1.373,0.138-2.375,1.363-2.237,2.737s1.358,2.383,2.737,2.238l14.543-1.459l1.462,14.57c0.129,1.289,1.216,2.25,2.484,2.25
					c0.083,0,0.168-0.004,0.252-0.013c1.374-0.138,2.376-1.363,2.238-2.737L231.181,18.045z"/>
			</g>
		</g>
		<g>
			<g>
				<path d="M65.815,164.101l-7.471-11.496c-0.753-1.158-2.302-1.486-3.459-0.734s-1.486,2.301-0.734,3.458l7.471,11.495
					c0.077,0.12,0.043,0.28-0.076,0.357l-5.725,3.721c-0.117,0.077-0.278,0.044-0.356-0.076l-7.821-12.036
					c-0.753-1.158-2.301-1.486-3.459-0.734c-1.157,0.752-1.486,2.301-0.734,3.458l7.822,12.036c1.006,1.548,2.694,2.391,4.417,2.391
					c0.981,0,1.974-0.274,2.856-0.848l5.725-3.721C66.701,169.795,67.394,166.532,65.815,164.101z"/>
			</g>
		</g>
		<g>
			<g>
				<path d="M92.119,157.45c-1.155-0.75-2.705-0.424-3.459,0.734l-8.215,12.642c-0.079,0.119-0.239,0.153-0.357,0.076l-5.725-3.721
					c-0.06-0.039-0.097-0.093-0.112-0.163c-0.015-0.069-0.002-0.134,0.037-0.194l7.729-11.892c0.752-1.158,0.423-2.706-0.734-3.458
					c-1.155-0.751-2.705-0.424-3.459,0.734L70.096,164.1c-0.766,1.178-1.027,2.583-0.735,3.957c0.291,1.374,1.101,2.552,2.278,3.317
					l5.726,3.721c0.882,0.573,1.874,0.847,2.855,0.847c1.722,0,3.411-0.843,4.418-2.391l8.216-12.643
					C93.605,159.751,93.276,158.203,92.119,157.45z"/>
			</g>
		</g>
		<g>
			<g>
				<path d="M70.906,164.543H65.25c-1.381,0-2.5,1.119-2.5,2.5s1.119,2.5,2.5,2.5h5.656c1.381,0,2.5-1.119,2.5-2.5
					S72.287,164.543,70.906,164.543z"/>
			</g>
		</g>
		<g>
			<g>
				<path d="M149.958,195h-17.021c-1.381,0-2.5,1.119-2.5,2.5s1.119,2.5,2.5,2.5h17.021c1.381,0,2.5-1.119,2.5-2.5
					S151.339,195,149.958,195z"/>
			</g>
		</g>
		<g>
			<g>
				<path d="M175.705,152.438c-1.381,0-2.5,1.119-2.5,2.5v16.729c0,1.381,1.119,2.5,2.5,2.5s2.5-1.119,2.5-2.5v-16.729
					C178.205,153.558,177.086,152.438,175.705,152.438z"/>
			</g>
		</g>
		<g>
			<g>
				<path d="M213.743,172.03c-0.77-1.148-2.322-1.454-3.468-0.686l-14.893,9.972c-1.147,0.768-1.455,2.321-0.687,3.468
					c0.482,0.72,1.273,1.109,2.079,1.109c0.479,0,0.962-0.137,1.389-0.423l14.893-9.972
					C214.204,174.73,214.512,173.178,213.743,172.03z"/>
			</g>
		</g>
	</g>
</g>
<g id="Layer_25">
</g>
<g id="Layer_26">
</g>
<g id="Layer_27">
</g>
<g id="Layer_28">
</g>
<g id="Layer_29">
</g>
<g id="Layer_30">
</g>
<g id="Layer_31">
</g>
<g id="Layer_32">
</g>
<g id="Layer_33">
</g>
<g id="Layer_34">
</g>
<g id="Layer_35">
</g>
<g id="Layer_36">
</g>
<g id="Layer_37">
</g>
<g id="Layer_38">
</g>
<g id="Layer_39">
</g>
<g id="Layer_40">
</g>
<g id="Layer_41">
</g>
<g id="Layer_42">
</g>
<g id="Layer_43">
</g>
<g id="Layer_44">
</g>
<g id="Layer_45">
</g>
<g id="Layer_46">
</g>
<g id="Layer_47">
</g>
<g id="Layer_48">
</g>
<g id="Layer_49">
</g>
<g id="Layer_50">
</g>
<g id="Layer_51">
</g>
<g id="Layer_52">
</g>
<g id="Layer_53">
</g>
<g id="Layer_54">
</g>
<g id="Layer_55">
</g>
<g id="Layer_56">
</g>
<g id="Layer_57">
</g>
<g id="Layer_58">
</g>
<g id="Layer_59">
</g>
<g id="Layer_60">
</g>
<g id="Layer_61">
</g>
<g id="Layer_62">
</g>
<g id="Layer_63">
</g>
<g id="Layer_64">
</g>
<g id="Layer_65">
</g>
<g id="Layer_66">
</g>
<g id="Layer_67">
</g>
<g id="Layer_68">
</g>
<g id="Layer_69">
</g>
<g id="Layer_70">
</g>
<g id="Layer_71">
</g>
<g id="Layer_72">
</g>
<g id="Layer_73">
</g>
<g id="Layer_74">
</g>
<g id="Layer_75">
</g>
<g id="Layer_76">
</g>
<g id="Layer_77">
</g>
<g id="Layer_78">
</g>
<g id="Layer_79">
</g>
<g id="Layer_80">
</g>
</svg>
