<?xml version="1.0" encoding="utf-8"?>
<!-- Generator: Adobe Illustrator 24.0.0, SVG Export Plug-In . SVG Version: 6.00 Build 0)  -->
<svg version="1.1" xmlns="http://www.w3.org/2000/svg" xmlns:xlink="http://www.w3.org/1999/xlink" x="0px" y="0px"
	 viewBox="0 0 256 256" enable-background="new 0 0 256 256" xml:space="preserve">
<g id="Layer_1">
</g>
<g id="Layer_2">
</g>
<g id="Layer_3">
</g>
<g id="Layer_4">
</g>
<g id="Layer_5">
</g>
<g id="Layer_6">
</g>
<g id="Layer_7">
</g>
<g id="Layer_8">
</g>
<g id="Layer_9">
</g>
<g id="Layer_10">
</g>
<g id="Layer_11">
</g>
<g id="Layer_12">
</g>
<g id="Layer_13">
</g>
<g id="Layer_14">
</g>
<g id="Layer_15">
</g>
<g id="Layer_16">
</g>
<g id="Layer_17">
</g>
<g id="Layer_18">
</g>
<g id="Layer_19">
</g>
<g id="Layer_20">
</g>
<g id="Layer_21">
</g>
<g id="Layer_22">
</g>
<g id="Layer_23">
</g>
<g id="Layer_24">
</g>
<g id="Layer_25">
</g>
<g id="Layer_26">
</g>
<g id="Layer_27">
</g>
<g id="Layer_28">
</g>
<g id="Layer_29">
</g>
<g id="Layer_30">
</g>
<g id="Layer_31">
</g>
<g id="Layer_32">
</g>
<g id="Layer_33">
</g>
<g id="Layer_34">
</g>
<g id="Layer_35">
</g>
<g id="Layer_36">
</g>
<g id="Layer_37">
</g>
<g id="Layer_38">
</g>
<g id="Layer_39">
</g>
<g id="Layer_40">
</g>
<g id="Layer_41">
</g>
<g id="Layer_42">
</g>
<g id="Layer_43">
</g>
<g id="Layer_44">
</g>
<g id="Layer_45">
</g>
<g id="Layer_46">
</g>
<g id="Layer_47">
</g>
<g id="Layer_48">
</g>
<g id="Layer_49">
</g>
<g id="Layer_50">
</g>
<g id="Layer_51">
</g>
<g id="Layer_52">
</g>
<g id="Layer_53">
</g>
<g id="Layer_54">
</g>
<g id="Layer_55">
</g>
<g id="Layer_56">
</g>
<g id="Layer_57">
</g>
<g id="Layer_58">
</g>
<g id="Layer_59">
</g>
<g id="Layer_60">
</g>
<g id="Layer_61">
</g>
<g id="Layer_62">
</g>
<g id="Layer_63">
</g>
<g id="Layer_64">
</g>
<g id="Layer_65">
</g>
<g id="Layer_66">
</g>
<g id="Layer_67">
</g>
<g id="Layer_68">
</g>
<g id="Layer_69">
</g>
<g id="Layer_70">
</g>
<g id="Layer_71">
</g>
<g id="Layer_72">
</g>
<g id="Layer_73">
</g>
<g id="Layer_74">
</g>
<g id="Layer_75">
</g>
<g id="Layer_76">
</g>
<g id="Layer_77">
	<g>
		<g>
			<g>
				<path fill="#F5C84C" d="M220.723,30.411h-82.446c-11.439,0-20.797,9.359-20.797,20.797v59.282
					c0,11.438,9.359,20.797,20.797,20.797h45.546c4.554,0,8.701,2.447,11.081,6.329c2.085,3.401,4.694,6.807,7.955,9.927
					c2.349,2.247,6.241,0.635,6.241-2.616v-7.002c0-3.666,2.972-6.638,6.638-6.638h4.984c11.439,0,20.797-9.359,20.797-20.797
					V51.208C241.52,39.77,232.162,30.411,220.723,30.411z"/>
			</g>
		</g>
		<g>
			<g>
				<path fill="#70D6F9" d="M138.277,131.288c-11.439,0-20.797-9.359-20.797-20.797v-3.08H35.277
					c-11.439,0-20.797,9.359-20.797,20.797v59.282c0,11.438,9.359,20.797,20.797,20.797h4.984c3.666,0,6.638,2.972,6.638,6.638
					v7.002c0,3.251,3.891,4.863,6.241,2.616c3.262-3.12,5.87-6.526,7.955-9.927c2.38-3.882,6.528-6.329,11.081-6.329h45.546
					c11.439,0,20.797-9.359,20.797-20.797v-56.203H138.277z"/>
			</g>
		</g>
		<g>
			<g>
				<g>
					<g>
						<path d="M220.723,27.911h-82.446c-12.846,0-23.297,10.451-23.297,23.297v59.282c0,12.847,10.451,23.298,23.297,23.298h45.546
							c3.632,0,6.978,1.92,8.95,5.136c2.392,3.901,5.204,7.41,8.358,10.427c1.199,1.146,2.718,1.746,4.276,1.746
							c0.825,0,1.661-0.168,2.465-0.512c2.299-0.982,3.728-3.149,3.728-5.656v-7.003c0-2.281,1.856-4.138,4.138-4.138h4.984
							c12.846,0,23.297-10.451,23.297-23.298V51.208C244.021,38.362,233.569,27.911,220.723,27.911z M239.021,110.49
							c0,10.09-8.208,18.298-18.297,18.298h-4.984c-5.039,0-9.138,4.1-9.138,9.138v7.003c0,0.664-0.434,0.948-0.692,1.059
							c-0.221,0.092-0.791,0.256-1.321-0.25c-2.844-2.72-5.385-5.892-7.552-9.427c-2.888-4.71-7.827-7.522-13.212-7.522h-45.546
							c-10.089,0-18.297-8.208-18.297-18.298V51.208c0-10.089,8.208-18.297,18.297-18.297h82.446
							c10.089,0,18.297,8.208,18.297,18.297V110.49z"/>
					</g>
				</g>
			</g>
		</g>
		<g>
			<g>
				<path fill="#70D6F9" d="M33.906,71.1h-2.4v-2.3c0-1.8-1.4-3.2-3.2-3.2c-1.7,0-3.2,1.4-3.2,3.1v2.4h-2.3c-1.8,0-3.2,1.4-3.2,3.2
					c-0.1,1.7,1.3,3.2,3.2,3.2h2.3v2.3c0,1.8,1.4,3.2,3.2,3.2c1.7,0,3.2-1.4,3.2-3.1v-2.4h2.3c1.8,0,3.2-1.4,3.2-3.2
					C37.006,72.6,35.606,71.1,33.906,71.1z"/>
			</g>
		</g>
		<g>
			<g>
				<path fill="#FC657E" d="M162.15,214.175c-3.1-0.6-5.6-3-6.2-6.1c0-0.1-0.3-0.1-0.3,0c-0.6,3.1-3.1,5.5-6.2,6.1
					c-0.1,0-0.1,0.2,0,0.3c3.1,0.6,5.6,3,6.2,6.1c0,0.1,0.3,0.1,0.3,0c0.6-3.1,3.1-5.5,6.2-6.1
					C162.25,214.375,162.25,214.175,162.15,214.175z"/>
			</g>
		</g>
		<g>
			<g>
				<path fill="#87D147" d="M252.6,138.2c-1.878,0-3.4,1.522-3.4,3.4c0,1.877,1.522,3.4,3.4,3.4c1.878,0,3.4-1.522,3.4-3.4
					C256,139.722,254.478,138.2,252.6,138.2z"/>
			</g>
		</g>
		<g>
			<g>
				<path fill="#F5C84C" d="M3.4,96.2c-1.878,0-3.4,1.522-3.4,3.4c0,1.877,1.522,3.4,3.4,3.4c1.878,0,3.4-1.522,3.4-3.4
					C6.8,97.722,5.278,96.2,3.4,96.2z"/>
			</g>
		</g>
		<g>
			<g>
				<path fill="#F5C84C" d="M243.15,165.85c-4.5-0.8-8-4.3-8.9-8.7c0-0.2-0.4-0.2-0.4,0c-0.9,4.4-4.4,7.9-8.9,8.7
					c-0.2,0-0.2,0.3,0,0.4c4.5,0.8,8,4.3,8.9,8.7c0,0.2,0.4,0.2,0.4,0c0.9-4.4,4.4-7.9,8.9-8.7
					C243.35,166.15,243.35,165.85,243.15,165.85z"/>
			</g>
		</g>
		<g>
			<g>
				<path d="M199.049,169.522l-9.518-9.164c-0.995-0.957-2.577-0.927-3.535,0.066c-0.958,0.995-0.928,2.578,0.067,3.535l7.717,7.431
					l-7.43,7.716c-0.958,0.995-0.928,2.577,0.067,3.535c0.485,0.467,1.11,0.699,1.733,0.699c0.656,0,1.311-0.257,1.801-0.766
					l9.164-9.518c0.46-0.478,0.711-1.119,0.699-1.781C199.802,170.613,199.526,169.982,199.049,169.522z"/>
			</g>
		</g>
		<g>
			<g>
				<path d="M194.5,169h-39c-1.381,0-2.5,1.119-2.5,2.5s1.119,2.5,2.5,2.5h39c1.381,0,2.5-1.119,2.5-2.5S195.881,169,194.5,169z"/>
			</g>
		</g>
		<g>
			<g>
				<path d="M62.22,73.391l7.717-7.431c0.995-0.957,1.025-2.54,0.067-3.535c-0.957-0.994-2.54-1.024-3.535-0.066l-9.518,9.164
					c-0.478,0.46-0.753,1.091-0.766,1.754c-0.013,0.662,0.239,1.304,0.699,1.781l9.164,9.518c0.491,0.51,1.146,0.766,1.801,0.766
					c0.624,0,1.249-0.232,1.733-0.699c0.995-0.958,1.025-2.54,0.067-3.535L62.22,73.391z"/>
			</g>
		</g>
		<g>
			<g>
				<path d="M100.5,71h-39c-1.381,0-2.5,1.119-2.5,2.5s1.119,2.5,2.5,2.5h39c1.381,0,2.5-1.119,2.5-2.5S101.881,71,100.5,71z"/>
			</g>
		</g>
		<g>
			<g>
				<path d="M138.521,129.937c-1.381,0-2.5,1.119-2.5,2.5v55.054c0,10.09-8.208,18.298-18.297,18.298H72.177
					c-5.385,0-10.325,2.813-13.212,7.522c-2.167,3.533-4.708,6.705-7.552,9.428c-0.532,0.507-1.102,0.343-1.321,0.248
					c-0.258-0.11-0.692-0.395-0.692-1.058v-7.003c0-5.038-4.1-9.138-9.138-9.138h-4.984c-10.089,0-18.297-8.208-18.297-18.298
					v-59.281c0-10.09,8.208-18.298,18.297-18.298h81.098c1.381,0,2.5-1.119,2.5-2.5s-1.119-2.5-2.5-2.5H35.277
					c-12.846,0-23.297,10.451-23.297,23.298v59.281c0,12.847,10.451,23.298,23.297,23.298h4.984c2.282,0,4.138,1.856,4.138,4.138
					v7.003c0,2.506,1.428,4.673,3.727,5.655c0.805,0.345,1.641,0.513,2.467,0.513c1.557,0,3.076-0.599,4.275-1.746
					c3.155-3.02,5.968-6.527,8.358-10.427c1.972-3.216,5.317-5.136,8.95-5.136h45.546c12.846,0,23.297-10.451,23.297-23.298v-55.054
					C141.021,131.056,139.901,129.937,138.521,129.937z"/>
			</g>
		</g>
		<g>
			<g>
				<path d="M180.478,55.935h-41.804c-1.381,0-2.5,1.119-2.5,2.5s1.119,2.5,2.5,2.5h41.804c1.381,0,2.5-1.119,2.5-2.5
					S181.858,55.935,180.478,55.935z"/>
			</g>
		</g>
		<g>
			<g>
				<path d="M222.281,68.229h-83.607c-1.381,0-2.5,1.119-2.5,2.5s1.119,2.5,2.5,2.5h83.607c1.381,0,2.5-1.119,2.5-2.5
					S223.662,68.229,222.281,68.229z"/>
			</g>
		</g>
		<g>
			<g>
				<path d="M222.281,80.521h-83.607c-1.381,0-2.5,1.119-2.5,2.5s1.119,2.5,2.5,2.5h83.607c1.381,0,2.5-1.119,2.5-2.5
					S223.662,80.521,222.281,80.521z"/>
			</g>
		</g>
		<g>
			<g>
				<path d="M222.281,92.815h-83.607c-1.381,0-2.5,1.119-2.5,2.5s1.119,2.5,2.5,2.5h83.607c1.381,0,2.5-1.119,2.5-2.5
					S223.662,92.815,222.281,92.815z"/>
			</g>
		</g>
		<g>
			<g>
				<path d="M222.281,105.108h-83.607c-1.381,0-2.5,1.119-2.5,2.5s1.119,2.5,2.5,2.5h83.607c1.381,0,2.5-1.119,2.5-2.5
					S223.662,105.108,222.281,105.108z"/>
			</g>
		</g>
		<g>
			<g>
				<path d="M77.478,132.936H35.674c-1.381,0-2.5,1.119-2.5,2.5s1.119,2.5,2.5,2.5h41.804c1.381,0,2.5-1.119,2.5-2.5
					S78.858,132.936,77.478,132.936z"/>
			</g>
		</g>
		<g>
			<g>
				<path d="M119.281,145.229H35.674c-1.381,0-2.5,1.119-2.5,2.5s1.119,2.5,2.5,2.5h83.607c1.381,0,2.5-1.119,2.5-2.5
					S120.662,145.229,119.281,145.229z"/>
			</g>
		</g>
		<g>
			<g>
				<path d="M119.281,157.521H35.674c-1.381,0-2.5,1.119-2.5,2.5s1.119,2.5,2.5,2.5h83.607c1.381,0,2.5-1.119,2.5-2.5
					S120.662,157.521,119.281,157.521z"/>
			</g>
		</g>
		<g>
			<g>
				<path d="M119.281,169.815H35.674c-1.381,0-2.5,1.119-2.5,2.5s1.119,2.5,2.5,2.5h83.607c1.381,0,2.5-1.119,2.5-2.5
					S120.662,169.815,119.281,169.815z"/>
			</g>
		</g>
		<g>
			<g>
				<path d="M119.281,182.108H35.674c-1.381,0-2.5,1.119-2.5,2.5s1.119,2.5,2.5,2.5h83.607c1.381,0,2.5-1.119,2.5-2.5
					S120.662,182.108,119.281,182.108z"/>
			</g>
		</g>
	</g>
</g>
<g id="Layer_78">
</g>
<g id="Layer_79">
</g>
<g id="Layer_80">
</g>
</svg>
