<?xml version="1.0" encoding="utf-8"?>
<!-- Generator: Adobe Illustrator 24.0.0, SVG Export Plug-In . SVG Version: 6.00 Build 0)  -->
<svg version="1.1" xmlns="http://www.w3.org/2000/svg" xmlns:xlink="http://www.w3.org/1999/xlink" x="0px" y="0px"
	 viewBox="0 0 256 256" enable-background="new 0 0 256 256" xml:space="preserve">
<g id="Layer_1">
</g>
<g id="Layer_2">
</g>
<g id="Layer_3">
</g>
<g id="Layer_4">
</g>
<g id="Layer_5">
</g>
<g id="Layer_6">
</g>
<g id="Layer_7">
</g>
<g id="Layer_8">
</g>
<g id="Layer_9">
</g>
<g id="Layer_10">
</g>
<g id="Layer_11">
</g>
<g id="Layer_12">
</g>
<g id="Layer_13">
</g>
<g id="Layer_14">
</g>
<g id="Layer_15">
</g>
<g id="Layer_16">
</g>
<g id="Layer_17">
</g>
<g id="Layer_18">
	<g>
		<g>
			<g>
				<path fill="#70D6F9" d="M227.456,48.5H28.544C21.645,48.5,16,54.145,16,61.044v133.912c0,6.899,5.645,12.544,12.544,12.544
					h198.912c6.899,0,12.544-5.645,12.544-12.544V61.044C240,54.145,234.355,48.5,227.456,48.5z"/>
			</g>
		</g>
		<g>
			<g>
				<path fill="#9BE5F9" d="M147.524,139.552l-9.949,6.84c-5.768,3.965-13.382,3.965-19.15,0l-9.949-6.84l-90.458,62.19
					c2.24,3.455,6.124,5.759,10.525,5.759h198.912c4.402,0,8.285-2.303,10.525-5.759L147.524,139.552z"/>
			</g>
		</g>
		<g>
			<g>
				<path fill="#CBEFF7" d="M227.456,48.5H28.544C21.645,48.5,16,54.145,16,61.044v14.931l102.425,70.417
					c5.768,3.965,13.382,3.965,19.15,0L240,75.974V61.044C240,54.145,234.355,48.5,227.456,48.5z"/>
			</g>
		</g>
		<g>
			<g>
				<path fill="#87D147" d="M48.906,229.925h-2.4v-2.3c0-1.8-1.4-3.2-3.2-3.2c-1.7,0-3.2,1.4-3.2,3.1v2.4h-2.3
					c-1.8,0-3.2,1.4-3.2,3.2c-0.1,1.7,1.3,3.2,3.2,3.2h2.3v2.3c0,1.8,1.4,3.2,3.2,3.2c1.7,0,3.2-1.4,3.2-3.1v-2.4h2.3
					c1.8,0,3.2-1.4,3.2-3.2C52.006,231.425,50.606,229.925,48.906,229.925z"/>
			</g>
		</g>
		<g>
			<g>
				<path fill="#F5C84C" d="M3.4,219.325c-1.878,0-3.4,1.522-3.4,3.4c0,1.878,1.522,3.4,3.4,3.4c1.878,0,3.4-1.522,3.4-3.4
					C6.8,220.847,5.278,219.325,3.4,219.325z"/>
			</g>
		</g>
		<g>
			<g>
				<path fill="#FC657E" d="M113.15,30c-3.1-0.6-5.6-3-6.2-6.1c0-0.1-0.3-0.1-0.3,0c-0.6,3.1-3.1,5.5-6.2,6.1c-0.1,0-0.1,0.2,0,0.3
					c3.1,0.6,5.6,3,6.2,6.1c0,0.1,0.3,0.1,0.3,0c0.6-3.1,3.1-5.5,6.2-6.1C113.25,30.2,113.25,30,113.15,30z"/>
			</g>
		</g>
		<g>
			<g>
				<path fill="#70D6F9" d="M252.6,39.825c-1.878,0-3.4,1.522-3.4,3.4c0,1.878,1.522,3.4,3.4,3.4c1.878,0,3.4-1.522,3.4-3.4
					C256,41.347,254.478,39.825,252.6,39.825z"/>
			</g>
		</g>
		<g>
			<g>
				<path fill="#F5C84C" d="M220.15,23.025c-4.5-0.8-8-4.3-8.9-8.7c0-0.2-0.4-0.2-0.4,0c-0.9,4.4-4.4,7.9-8.9,8.7
					c-0.2,0-0.2,0.3,0,0.4c4.5,0.8,8,4.3,8.9,8.7c0,0.2,0.4,0.2,0.4,0c0.9-4.4,4.4-7.9,8.9-8.7
					C220.35,23.325,220.35,23.025,220.15,23.025z"/>
			</g>
		</g>
		<g>
			<g>
				<g>
					<g>
						<path d="M227.456,46H28.544C20.249,46,13.5,52.749,13.5,61.044v133.912c0,8.295,6.749,15.044,15.044,15.044h198.912
							c8.295,0,15.044-6.749,15.044-15.044V61.044C242.5,52.749,235.751,46,227.456,46z M237.5,194.956
							c0,5.538-4.506,10.044-10.044,10.044H28.544c-5.538,0-10.044-4.506-10.044-10.044V61.044C18.5,55.506,23.006,51,28.544,51
							h198.912c5.538,0,10.044,4.506,10.044,10.044V194.956z"/>
					</g>
				</g>
			</g>
		</g>
		<g>
			<g>
				<path d="M238.969,199.387l-88.974-61.17c-1.138-0.781-2.693-0.495-3.477,0.644c-0.782,1.138-0.493,2.694,0.645,3.477
					l88.974,61.17c0.433,0.297,0.926,0.44,1.414,0.44c0.795,0,1.577-0.378,2.063-1.083
					C240.396,201.726,240.106,200.169,238.969,199.387z"/>
			</g>
		</g>
		<g>
			<g>
				<path d="M109.59,138.786c-0.782-1.138-2.339-1.427-3.477-0.644l-89.149,61.291c-1.138,0.782-1.426,2.338-0.644,3.477
					c0.485,0.705,1.267,1.083,2.063,1.083c0.488,0,0.981-0.143,1.414-0.44l89.149-61.291
					C110.084,141.48,110.372,139.923,109.59,138.786z"/>
			</g>
		</g>
		<g>
			<g>
				<path d="M241.838,74.711c-0.784-1.138-2.341-1.426-3.477-0.644l-102.202,70.264c-4.881,3.355-11.438,3.355-16.317,0
					L17.697,74.107c-1.139-0.782-2.694-0.493-3.477,0.644c-0.782,1.138-0.494,2.694,0.644,3.477l102.145,70.225
					c3.288,2.26,7.139,3.39,10.991,3.39c3.852,0,7.705-1.13,10.991-3.39l102.202-70.264
					C242.331,77.405,242.62,75.849,241.838,74.711z"/>
			</g>
		</g>
	</g>
</g>
<g id="Layer_19">
</g>
<g id="Layer_20">
</g>
<g id="Layer_21">
</g>
<g id="Layer_22">
</g>
<g id="Layer_23">
</g>
<g id="Layer_24">
</g>
<g id="Layer_25">
</g>
<g id="Layer_26">
</g>
<g id="Layer_27">
</g>
<g id="Layer_28">
</g>
<g id="Layer_29">
</g>
<g id="Layer_30">
</g>
<g id="Layer_31">
</g>
<g id="Layer_32">
</g>
<g id="Layer_33">
</g>
<g id="Layer_34">
</g>
<g id="Layer_35">
</g>
<g id="Layer_36">
</g>
<g id="Layer_37">
</g>
<g id="Layer_38">
</g>
<g id="Layer_39">
</g>
<g id="Layer_40">
</g>
<g id="Layer_41">
</g>
<g id="Layer_42">
</g>
<g id="Layer_43">
</g>
<g id="Layer_44">
</g>
<g id="Layer_45">
</g>
<g id="Layer_46">
</g>
<g id="Layer_47">
</g>
<g id="Layer_48">
</g>
<g id="Layer_49">
</g>
<g id="Layer_50">
</g>
<g id="Layer_51">
</g>
<g id="Layer_52">
</g>
<g id="Layer_53">
</g>
<g id="Layer_54">
</g>
<g id="Layer_55">
</g>
<g id="Layer_56">
</g>
<g id="Layer_57">
</g>
<g id="Layer_58">
</g>
<g id="Layer_59">
</g>
<g id="Layer_60">
</g>
<g id="Layer_61">
</g>
<g id="Layer_62">
</g>
<g id="Layer_63">
</g>
<g id="Layer_64">
</g>
<g id="Layer_65">
</g>
<g id="Layer_66">
</g>
<g id="Layer_67">
</g>
<g id="Layer_68">
</g>
<g id="Layer_69">
</g>
<g id="Layer_70">
</g>
<g id="Layer_71">
</g>
<g id="Layer_72">
</g>
<g id="Layer_73">
</g>
<g id="Layer_74">
</g>
<g id="Layer_75">
</g>
<g id="Layer_76">
</g>
<g id="Layer_77">
</g>
<g id="Layer_78">
</g>
<g id="Layer_79">
</g>
<g id="Layer_80">
</g>
</svg>
