<?xml version="1.0" encoding="utf-8"?>
<!-- Generator: Adobe Illustrator 24.0.0, SVG Export Plug-In . SVG Version: 6.00 Build 0)  -->
<svg version="1.1" xmlns="http://www.w3.org/2000/svg" xmlns:xlink="http://www.w3.org/1999/xlink" x="0px" y="0px"
	 viewBox="0 0 256 256" enable-background="new 0 0 256 256" xml:space="preserve">
<g id="Layer_1">
</g>
<g id="Layer_2">
</g>
<g id="Layer_3">
</g>
<g id="Layer_4">
</g>
<g id="Layer_5">
</g>
<g id="Layer_6">
</g>
<g id="Layer_7">
</g>
<g id="Layer_8">
</g>
<g id="Layer_9">
</g>
<g id="Layer_10">
</g>
<g id="Layer_11">
</g>
<g id="Layer_12">
</g>
<g id="Layer_13">
</g>
<g id="Layer_14">
</g>
<g id="Layer_15">
</g>
<g id="Layer_16">
</g>
<g id="Layer_17">
</g>
<g id="Layer_18">
</g>
<g id="Layer_19">
</g>
<g id="Layer_20">
</g>
<g id="Layer_21">
</g>
<g id="Layer_22">
</g>
<g id="Layer_23">
</g>
<g id="Layer_24">
</g>
<g id="Layer_25">
</g>
<g id="Layer_26">
</g>
<g id="Layer_27">
</g>
<g id="Layer_28">
</g>
<g id="Layer_29">
</g>
<g id="Layer_30">
</g>
<g id="Layer_31">
</g>
<g id="Layer_32">
</g>
<g id="Layer_33">
</g>
<g id="Layer_34">
</g>
<g id="Layer_35">
</g>
<g id="Layer_36">
</g>
<g id="Layer_37">
</g>
<g id="Layer_38">
</g>
<g id="Layer_39">
</g>
<g id="Layer_40">
</g>
<g id="Layer_41">
</g>
<g id="Layer_42">
</g>
<g id="Layer_43">
</g>
<g id="Layer_44">
</g>
<g id="Layer_45">
</g>
<g id="Layer_46">
</g>
<g id="Layer_47">
</g>
<g id="Layer_48">
</g>
<g id="Layer_49">
</g>
<g id="Layer_50">
</g>
<g id="Layer_51">
	<g>
		<g>
			<g>
				<path fill="#6CADEF" d="M166.159,85.5H89.841C87.168,85.5,85,87.667,85,90.341v11.317c0,2.674,2.168,4.841,4.841,4.841h76.317
					c2.674,0,4.841-2.167,4.841-4.841V90.341C171,87.667,168.832,85.5,166.159,85.5z"/>
			</g>
		</g>
		<g>
			<g>
				<path fill="#6CADEF" d="M166.159,232.5H89.841c-2.674,0-4.841,2.167-4.841,4.841v11.317c0,2.674,2.168,4.841,4.841,4.841h76.317
					c2.674,0,4.841-2.167,4.841-4.841v-11.317C171,234.667,168.832,232.5,166.159,232.5z"/>
			</g>
		</g>
		<g>
			<g>
				<path fill="#FCDD86" d="M128,2.733L128,2.733c-20.829,0-37.714,16.885-37.714,37.714V85.5h75.429V40.447
					C165.714,19.618,148.829,2.733,128,2.733z"/>
			</g>
		</g>
		<g>
			<g>
				<path fill="#6CADEF" d="M90.286,106.5v33.053c0,20.829,16.885,37.714,37.714,37.714h0c20.829,0,37.714-16.885,37.714-37.714
					V106.5H90.286z"/>
			</g>
		</g>
		<g>
			<g>
				<rect x="90.286" y="106.5" fill="#5290DB" width="75.429" height="13"/>
			</g>
		</g>
		<g>
			<g>
				<path fill="#DAE6F1" d="M85,90.341c0-0.058,0.015-0.111,0.017-0.168H71.486v11.654h13.531C85.015,101.77,85,101.716,85,101.659
					V90.341z"/>
			</g>
		</g>
		<g>
			<g>
				<path fill="#DAE6F1" d="M170.983,90.173c0.002,0.057,0.017,0.111,0.017,0.168v11.317c0,0.058-0.015,0.111-0.017,0.168h13.531
					V90.173H170.983z"/>
			</g>
		</g>
		<g>
			<g>
				<path fill="#DAE6F1" d="M50.677,90.173c-3.218,0-5.827,2.609-5.827,5.827c0,3.218,2.609,5.827,5.827,5.827h7.778V90.173H50.677z
					"/>
			</g>
		</g>
		<g>
			<g>
				<path fill="#DAE6F1" d="M205.323,90.173h-7.778v11.654h7.778c3.218,0,5.827-2.609,5.827-5.827
					C211.15,92.782,208.541,90.173,205.323,90.173z"/>
			</g>
		</g>
		<g>
			<g>
				<path fill="#DAE6F1" d="M71.486,140.722V82.516c0-3.599-2.917-6.516-6.516-6.516s-6.516,2.917-6.516,6.516v58.206
					c0,34.779,25.662,63.676,59.045,68.753V199.5c0-1.105,0.173-2.169,0.489-3.17C91.589,191.589,71.486,168.467,71.486,140.722z"/>
			</g>
		</g>
		<g>
			<g>
				<path fill="#DAE6F1" d="M191.03,76c-3.599,0-6.516,2.917-6.516,6.516v58.206c0,27.745-20.102,50.867-46.503,55.608
					c0.316,1,0.489,2.065,0.489,3.17v9.975c33.383-5.077,59.045-33.973,59.045-68.753V82.516C197.545,78.917,194.628,76,191.03,76z"
					/>
			</g>
		</g>
		<g>
			<g>
				<path fill="#6CADEF" d="M128,189c-5.799,0-10.5,4.701-10.5,10.5v20.083c3.163-1.575,6.727-2.465,10.5-2.465
					s7.337,0.89,10.5,2.465V199.5C138.5,193.701,133.799,189,128,189z"/>
			</g>
		</g>
		<g>
			<g>
				<path fill="#5290DB" d="M128,217.118c-10.143,0-18.788,6.4-22.124,15.382h44.249C146.788,223.519,138.143,217.118,128,217.118z"
					/>
			</g>
		</g>
		<g>
			<g>
				<path fill="#70D6F9" d="M44.906,167.1h-2.4v-2.3c0-1.8-1.4-3.2-3.2-3.2c-1.7,0-3.2,1.4-3.2,3.1v2.4h-2.3c-1.8,0-3.2,1.4-3.2,3.2
					c-0.1,1.7,1.3,3.2,3.2,3.2h2.3v2.3c0,1.8,1.4,3.2,3.2,3.2c1.7,0,3.2-1.4,3.2-3.1v-2.4h2.3c1.8,0,3.2-1.4,3.2-3.2
					C48.006,168.6,46.606,167.1,44.906,167.1z"/>
			</g>
		</g>
		<g>
			<g>
				<path fill="#F5C84C" d="M55.206,200.5c-1.878,0-3.4,1.522-3.4,3.4c0,1.878,1.522,3.4,3.4,3.4s3.4-1.522,3.4-3.4
					C58.606,202.022,57.083,200.5,55.206,200.5z"/>
			</g>
		</g>
		<g>
			<g>
				<path fill="#FC657E" d="M217.15,177.175c-3.1-0.6-5.6-3-6.2-6.1c0-0.1-0.3-0.1-0.3,0c-0.6,3.1-3.1,5.5-6.2,6.1
					c-0.1,0-0.1,0.2,0,0.3c3.1,0.6,5.6,3,6.2,6.1c0,0.1,0.3,0.1,0.3,0c0.6-3.1,3.1-5.5,6.2-6.1
					C217.25,177.375,217.25,177.175,217.15,177.175z"/>
			</g>
		</g>
		<g>
			<g>
				<path fill="#87D147" d="M174.369,0c-1.878,0-3.4,1.522-3.4,3.4c0,1.878,1.522,3.4,3.4,3.4c1.878,0,3.4-1.522,3.4-3.4
					C177.769,1.522,176.246,0,174.369,0z"/>
			</g>
		</g>
		<g>
			<g>
				<path fill="#F5C84C" d="M203.15,30.2c-4.5-0.8-8-4.3-8.9-8.7c0-0.2-0.4-0.2-0.4,0c-0.9,4.4-4.4,7.9-8.9,8.7
					c-0.2,0-0.2,0.3,0,0.4c4.5,0.8,8,4.3,8.9,8.7c0,0.2,0.4,0.2,0.4,0c0.9-4.4,4.4-7.9,8.9-8.7C203.35,30.5,203.35,30.2,203.15,30.2
					z"/>
			</g>
		</g>
		<g>
			<g>
				<g>
					<g>
						<path d="M166.159,83H89.841c-4.048,0-7.341,3.294-7.341,7.342v11.316c0,4.048,3.293,7.342,7.341,7.342h76.317
							c4.048,0,7.341-3.294,7.341-7.342V90.342C173.5,86.294,170.207,83,166.159,83z M168.5,101.658c0,1.291-1.05,2.342-2.341,2.342
							H89.841c-1.291,0-2.341-1.051-2.341-2.342V90.342c0-1.291,1.05-2.342,2.341-2.342h76.317c1.291,0,2.341,1.051,2.341,2.342
							V101.658z"/>
					</g>
				</g>
			</g>
		</g>
		<g>
			<g>
				<g>
					<g>
						<path d="M166.159,230H89.841c-4.048,0-7.341,3.294-7.341,7.342v11.316c0,4.048,3.293,7.342,7.341,7.342h76.317
							c4.048,0,7.341-3.294,7.341-7.342v-11.316C173.5,233.294,170.207,230,166.159,230z M168.5,248.658
							c0,1.291-1.05,2.342-2.341,2.342H89.841c-1.291,0-2.341-1.051-2.341-2.342v-11.316c0-1.291,1.05-2.342,2.341-2.342h76.317
							c1.291,0,2.341,1.051,2.341,2.342V248.658z"/>
					</g>
				</g>
			</g>
		</g>
		<g>
			<g>
				<path d="M128,0.232c-22.174,0-40.214,18.04-40.214,40.215v43.928c0,1.381,1.119,2.5,2.5,2.5s2.5-1.119,2.5-2.5V40.447
					c0-19.418,15.797-35.215,35.214-35.215s35.214,15.797,35.214,35.215v43.97c0,1.381,1.119,2.5,2.5,2.5s2.5-1.119,2.5-2.5v-43.97
					C168.214,18.272,150.174,0.232,128,0.232z"/>
			</g>
		</g>
		<g>
			<g>
				<path d="M165.714,105c-1.381,0-2.5,1.119-2.5,2.5v32.053c0,19.418-15.797,35.215-35.214,35.215s-35.214-15.797-35.214-35.215
					v-32.136c0-1.381-1.119-2.5-2.5-2.5s-2.5,1.119-2.5,2.5v32.136c0,22.175,18.04,40.215,40.214,40.215s40.214-18.04,40.214-40.215
					V107.5C168.214,106.119,167.095,105,165.714,105z"/>
			</g>
		</g>
		<g>
			<g>
				<path d="M164.625,117H91.833c-1.381,0-2.5,1.119-2.5,2.5s1.119,2.5,2.5,2.5h72.792c1.381,0,2.5-1.119,2.5-2.5
					S166.006,117,164.625,117z"/>
			</g>
		</g>
		<g>
			<g>
				<path d="M83.813,99.327H72.688c-1.381,0-2.5,1.119-2.5,2.5s1.119,2.5,2.5,2.5h11.125c1.381,0,2.5-1.119,2.5-2.5
					S85.194,99.327,83.813,99.327z"/>
			</g>
		</g>
		<g>
			<g>
				<path d="M84,87.673H72.688c-1.381,0-2.5,1.119-2.5,2.5s1.119,2.5,2.5,2.5H84c1.381,0,2.5-1.119,2.5-2.5S85.381,87.673,84,87.673
					z"/>
			</g>
		</g>
		<g>
			<g>
				<path d="M183.313,99.327h-11.5c-1.381,0-2.5,1.119-2.5,2.5s1.119,2.5,2.5,2.5h11.5c1.381,0,2.5-1.119,2.5-2.5
					S184.694,99.327,183.313,99.327z"/>
			</g>
		</g>
		<g>
			<g>
				<path d="M183.563,87.673h-11.75c-1.381,0-2.5,1.119-2.5,2.5s1.119,2.5,2.5,2.5h11.75c1.381,0,2.5-1.119,2.5-2.5
					S184.944,87.673,183.563,87.673z"/>
			</g>
		</g>
		<g>
			<g>
				<path d="M57.313,99.327h-6.636c-1.834,0-3.327-1.492-3.327-3.327s1.493-3.327,3.327-3.327h6.698c1.381,0,2.5-1.119,2.5-2.5
					s-1.119-2.5-2.5-2.5h-6.698c-4.592,0-8.327,3.735-8.327,8.327s3.735,8.327,8.327,8.327h6.636c1.381,0,2.5-1.119,2.5-2.5
					S58.694,99.327,57.313,99.327z"/>
			</g>
		</g>
		<g>
			<g>
				<path d="M205.323,87.673h-6.073c-1.381,0-2.5,1.119-2.5,2.5s1.119,2.5,2.5,2.5h6.073c1.834,0,3.327,1.492,3.327,3.327
					s-1.493,3.327-3.327,3.327h-6.448c-1.381,0-2.5,1.119-2.5,2.5s1.119,2.5,2.5,2.5h6.448c4.592,0,8.327-3.735,8.327-8.327
					S209.915,87.673,205.323,87.673z"/>
			</g>
		</g>
		<g>
			<g>
				<path d="M116.686,198.63c1.354,0.263,2.668-0.62,2.932-1.976c0.265-1.355-0.62-2.668-1.975-2.933
					c-25.296-4.934-43.657-27.224-43.657-53V82.516c0-4.972-4.044-9.016-9.016-9.016c-4.972,0-9.016,4.044-9.016,9.016v58.206
					c0,17.158,6.158,33.791,17.34,46.833c11.059,12.899,26.315,21.513,42.959,24.254c0.138,0.022,0.274,0.033,0.409,0.033
					c1.202,0,2.262-0.869,2.464-2.094c0.224-1.362-0.698-2.648-2.061-2.873c-15.485-2.551-29.682-10.567-39.976-22.574
					c-10.405-12.137-16.136-27.613-16.136-43.579V82.516c0-2.214,1.802-4.016,4.016-4.016s4.016,1.802,4.016,4.016v58.206
					C68.986,168.885,89.047,193.238,116.686,198.63z"/>
			</g>
		</g>
		<g>
			<g>
				<path d="M191.029,73.5c-4.971,0-9.016,4.044-9.016,9.016v58.206c0,25.685-18.283,47.959-43.474,52.964
					c-1.354,0.27-2.234,1.585-1.965,2.939s1.585,2.231,2.939,1.965c27.523-5.469,47.499-29.806,47.499-57.868V82.516
					c0-2.214,1.801-4.016,4.016-4.016s4.016,1.802,4.016,4.016v58.206c0,32.84-23.484,60.643-55.84,66.108
					c-1.361,0.229-2.278,1.52-2.048,2.881c0.206,1.221,1.264,2.084,2.462,2.084c0.138,0,0.278-0.011,0.419-0.035
					c16.577-2.8,31.763-11.435,42.76-24.313c11.122-13.024,17.248-29.619,17.248-46.726V82.516
					C200.045,77.544,196.001,73.5,191.029,73.5z"/>
			</g>
		</g>
		<g>
			<g>
				<path d="M128,186.5c-7.168,0-13,5.832-13,13v19.604c0,1.381,1.119,2.5,2.5,2.5s2.5-1.119,2.5-2.5V199.5c0-4.411,3.589-8,8-8
					s8,3.589,8,8v19.458c0,1.381,1.119,2.5,2.5,2.5s2.5-1.119,2.5-2.5V199.5C141,192.332,135.168,186.5,128,186.5z"/>
			</g>
		</g>
		<g>
			<g>
				<path d="M152.262,231.094c-3.972-10.009-13.495-16.476-24.262-16.476c-10.72,0-20.228,6.429-24.223,16.377
					c-0.515,1.281,0.107,2.737,1.388,3.252c1.282,0.511,2.737-0.108,3.251-1.389c3.23-8.043,10.917-13.24,19.583-13.24
					c8.705,0,16.404,5.229,19.615,13.319c0.389,0.981,1.33,1.579,2.325,1.579c0.307,0,0.619-0.058,0.921-0.177
					C152.144,233.83,152.771,232.377,152.262,231.094z"/>
			</g>
		</g>
		<g>
			<g>
				<path d="M120.87,27.5H93.13c-1.381,0-2.5,1.119-2.5,2.5s1.119,2.5,2.5,2.5h27.739c1.381,0,2.5-1.119,2.5-2.5
					S122.25,27.5,120.87,27.5z"/>
			</g>
		</g>
		<g>
			<g>
				<path d="M120.87,38.375H91.13c-1.381,0-2.5,1.119-2.5,2.5s1.119,2.5,2.5,2.5h29.739c1.381,0,2.5-1.119,2.5-2.5
					S122.25,38.375,120.87,38.375z"/>
			</g>
		</g>
		<g>
			<g>
				<path d="M120.87,49.25H91.13c-1.381,0-2.5,1.119-2.5,2.5s1.119,2.5,2.5,2.5h29.739c1.381,0,2.5-1.119,2.5-2.5
					S122.25,49.25,120.87,49.25z"/>
			</g>
		</g>
		<g>
			<g>
				<path d="M120.87,60.125H91.13c-1.381,0-2.5,1.119-2.5,2.5s1.119,2.5,2.5,2.5h29.739c1.381,0,2.5-1.119,2.5-2.5
					S122.25,60.125,120.87,60.125z"/>
			</g>
		</g>
		<g>
			<g>
				<path d="M120.87,71H91.13c-1.381,0-2.5,1.119-2.5,2.5s1.119,2.5,2.5,2.5h29.739c1.381,0,2.5-1.119,2.5-2.5S122.25,71,120.87,71z
					"/>
			</g>
		</g>
		<g>
			<g>
				<path d="M162.87,27.5H135.13c-1.381,0-2.5,1.119-2.5,2.5s1.119,2.5,2.5,2.5h27.739c1.381,0,2.5-1.119,2.5-2.5
					S164.25,27.5,162.87,27.5z"/>
			</g>
		</g>
		<g>
			<g>
				<path d="M164.87,38.375H135.13c-1.381,0-2.5,1.119-2.5,2.5s1.119,2.5,2.5,2.5h29.739c1.381,0,2.5-1.119,2.5-2.5
					S166.25,38.375,164.87,38.375z"/>
			</g>
		</g>
		<g>
			<g>
				<path d="M164.87,49.25H135.13c-1.381,0-2.5,1.119-2.5,2.5s1.119,2.5,2.5,2.5h29.739c1.381,0,2.5-1.119,2.5-2.5
					S166.25,49.25,164.87,49.25z"/>
			</g>
		</g>
		<g>
			<g>
				<path d="M164.87,60.125H135.13c-1.381,0-2.5,1.119-2.5,2.5s1.119,2.5,2.5,2.5h29.739c1.381,0,2.5-1.119,2.5-2.5
					S166.25,60.125,164.87,60.125z"/>
			</g>
		</g>
		<g>
			<g>
				<path d="M164.87,71H135.13c-1.381,0-2.5,1.119-2.5,2.5s1.119,2.5,2.5,2.5h29.739c1.381,0,2.5-1.119,2.5-2.5S166.25,71,164.87,71
					z"/>
			</g>
		</g>
	</g>
</g>
<g id="Layer_52">
</g>
<g id="Layer_53">
</g>
<g id="Layer_54">
</g>
<g id="Layer_55">
</g>
<g id="Layer_56">
</g>
<g id="Layer_57">
</g>
<g id="Layer_58">
</g>
<g id="Layer_59">
</g>
<g id="Layer_60">
</g>
<g id="Layer_61">
</g>
<g id="Layer_62">
</g>
<g id="Layer_63">
</g>
<g id="Layer_64">
</g>
<g id="Layer_65">
</g>
<g id="Layer_66">
</g>
<g id="Layer_67">
</g>
<g id="Layer_68">
</g>
<g id="Layer_69">
</g>
<g id="Layer_70">
</g>
<g id="Layer_71">
</g>
<g id="Layer_72">
</g>
<g id="Layer_73">
</g>
<g id="Layer_74">
</g>
<g id="Layer_75">
</g>
<g id="Layer_76">
</g>
<g id="Layer_77">
</g>
<g id="Layer_78">
</g>
<g id="Layer_79">
</g>
<g id="Layer_80">
</g>
</svg>
