<?xml version="1.0" encoding="utf-8"?>
<!-- Generator: Adobe Illustrator 24.0.0, SVG Export Plug-In . SVG Version: 6.00 Build 0)  -->
<svg version="1.1" xmlns="http://www.w3.org/2000/svg" xmlns:xlink="http://www.w3.org/1999/xlink" x="0px" y="0px"
	 viewBox="0 0 256 256" enable-background="new 0 0 256 256" xml:space="preserve">
<g id="Layer_1">
</g>
<g id="Layer_2">
</g>
<g id="Layer_3">
</g>
<g id="Layer_4">
</g>
<g id="Layer_5">
</g>
<g id="Layer_6">
</g>
<g id="Layer_7">
</g>
<g id="Layer_8">
</g>
<g id="Layer_9">
</g>
<g id="Layer_10">
</g>
<g id="Layer_11">
</g>
<g id="Layer_12">
</g>
<g id="Layer_13">
</g>
<g id="Layer_14">
</g>
<g id="Layer_15">
</g>
<g id="Layer_16">
</g>
<g id="Layer_17">
</g>
<g id="Layer_18">
</g>
<g id="Layer_19">
</g>
<g id="Layer_20">
</g>
<g id="Layer_21">
</g>
<g id="Layer_22">
</g>
<g id="Layer_23">
</g>
<g id="Layer_24">
</g>
<g id="Layer_25">
</g>
<g id="Layer_26">
</g>
<g id="Layer_27">
</g>
<g id="Layer_28">
</g>
<g id="Layer_29">
</g>
<g id="Layer_30">
</g>
<g id="Layer_31">
</g>
<g id="Layer_32">
</g>
<g id="Layer_33">
</g>
<g id="Layer_34">
</g>
<g id="Layer_35">
</g>
<g id="Layer_36">
</g>
<g id="Layer_37">
</g>
<g id="Layer_38">
</g>
<g id="Layer_39">
</g>
<g id="Layer_40">
</g>
<g id="Layer_41">
</g>
<g id="Layer_42">
</g>
<g id="Layer_43">
</g>
<g id="Layer_44">
	<g>
		<g>
			<g>
				<circle fill="#70D6F9" cx="128" cy="17.5" r="8.5"/>
			</g>
		</g>
		<g>
			<g>
				<circle fill="#FCA265" cx="128" cy="238.5" r="8.5"/>
			</g>
		</g>
		<g>
			<g>
				<circle fill="#FC657E" cx="49.865" cy="49.865" r="8.5"/>
			</g>
		</g>
		<g>
			<g>
				<circle fill="#F5C84C" cx="206.135" cy="206.135" r="8.5"/>
			</g>
		</g>
		<g>
			<g>
				<circle fill="#F98FA6" cx="17.5" cy="128" r="8.5"/>
			</g>
		</g>
		<g>
			<g>
				<circle fill="#B2E26D" cx="238.5" cy="128" r="8.5"/>
			</g>
		</g>
		<g>
			<g>
				<circle fill="#6CADEF" cx="49.865" cy="206.135" r="8.5"/>
			</g>
		</g>
		<g>
			<g>
				<circle fill="#B598F9" cx="206.135" cy="49.865" r="8.5"/>
			</g>
		</g>
		<g>
			<g>
				<path fill="#70D6F9" d="M168.314,155.142l-12.397-3.12c-6.571-1.654-11.738-4.488-11.671-4.455
					c-2.701-1.332-4.412-4.083-4.412-7.094v-3.727c-3.162,1.655-6.75,2.598-10.549,2.598s-7.387-0.943-10.549-2.598v3.726
					c0,3.012-1.711,5.763-4.412,7.095c-3.65,1.8-6.836,3.238-11.671,4.455l-12.397,3.12c-3.835,0.965-6.596,4.312-6.816,8.26v12.026
					h91.689v-12.026C174.91,159.454,172.149,156.107,168.314,155.142z"/>
			</g>
		</g>
		<g>
			<g>
				<path fill="#F9D0B4" d="M148.912,89.06c-1.497-1.57-3.932-1.715-5.638-0.375c-2.699,2.118-7.368,4.736-13.963,4.736
					c-6.611,0-11.305-2.631-14.015-4.752c-1.705-1.334-4.135-1.185-5.629,0.382l-0.008,0.008c-2.1,2.202-3.271,5.128-3.271,8.17
					v19.217c0,12.594,10.304,22.897,22.897,22.897h0c12.594,0,22.897-10.304,22.897-22.897V97.23
					C152.183,94.188,151.011,91.262,148.912,89.06z"/>
			</g>
		</g>
		<g>
			<g>
				<path fill="#F9D0B4" d="M153.652,98.996c-0.5,0-0.99,0.042-1.469,0.116v17.334c0,0.516-0.023,1.027-0.058,1.535
					c0.499,0.08,1.006,0.133,1.527,0.133c5.28,0,9.56-4.28,9.56-9.56S158.932,98.996,153.652,98.996z"/>
			</g>
		</g>
		<g>
			<g>
				<path fill="#F9D0B4" d="M106.388,116.447V99.113c-0.479-0.074-0.969-0.116-1.469-0.116c-5.28,0-9.56,4.28-9.56,9.56
					s4.28,9.56,9.56,9.56c0.521,0,1.029-0.053,1.527-0.133v0C106.412,117.474,106.388,116.963,106.388,116.447z"/>
			</g>
		</g>
		<g>
			<g>
				<path fill="#5B5D60" d="M152.097,79.464c-0.767,0-1.432-0.591-1.442-1.358C150.48,65.347,135.91,62.95,121.4,65.456
					c-12.302,2.124-21.293,12.792-21.293,25.276v9.573c1.415-0.827,3.055-1.309,4.812-1.309c0.5,0,0.99,0.042,1.469,0.116V97.23
					c0-3.042,1.171-5.968,3.271-8.17l0.008-0.008c1.494-1.567,3.924-1.717,5.629-0.382c2.71,2.121,7.404,4.752,14.015,4.752
					c6.595,0,11.264-2.618,13.963-4.736c1.707-1.34,4.141-1.195,5.638,0.375c2.1,2.202,3.271,5.128,3.271,8.17v1.882
					c0.479-0.074,0.969-0.116,1.469-0.116c1.778,0,3.437,0.494,4.863,1.34v-7.86C158.515,81.051,154.389,79.464,152.097,79.464z"/>
			</g>
		</g>
		<g>
			<g>
				<path fill="#9BE5F9" d="M125.049,157.463l-7.938-12.214c-0.728,0.959-1.666,1.766-2.787,2.318
					c-2.696,1.329-5.143,2.46-8.184,3.452l8.559,13.17c0.83,1.277,2.538,1.64,3.815,0.81l5.725-3.72
					C125.517,160.448,125.879,158.74,125.049,157.463z"/>
			</g>
		</g>
		<g>
			<g>
				<path fill="#9BE5F9" d="M144.246,147.567c-1.121-0.553-2.059-1.36-2.787-2.318l-7.938,12.214
					c-0.83,1.277-0.467,2.985,0.81,3.815l5.725,3.72c1.277,0.83,2.985,0.468,3.815-0.81l8.566-13.181
					C147.614,149.417,144.192,147.541,144.246,147.567z"/>
			</g>
		</g>
		<g>
			<g>
				<path fill="#F9D0B4" d="M139.834,140.473v-3.727c-3.162,1.655-6.75,2.598-10.549,2.598h0c-3.799,0-7.386-0.943-10.549-2.598
					v3.726c0,1.762-0.598,3.425-1.625,4.776l7.938,12.214c0.317,0.489,0.458,1.039,0.442,1.581h7.589
					c-0.016-0.541,0.124-1.092,0.442-1.581l7.939-12.215C140.433,143.897,139.834,142.235,139.834,140.473z"/>
			</g>
		</g>
		<g>
			<g>
				<path d="M177.626,163.264c-0.282-5.069-3.779-9.307-8.702-10.546l-12.396-3.12c-5.978-1.505-10.809-4.076-11.054-4.208
					c-0.04-0.022-0.081-0.043-0.122-0.064c-1.861-0.918-3.018-2.777-3.018-4.853v-3.181c0-1.381-1.119-2.5-2.5-2.5
					s-2.5,1.119-2.5,2.5v3.181c0,3.949,2.176,7.492,5.688,9.278c0.692,0.433,1.799,0.938,3.62,1.724
					c2.001,0.864,5.128,2.082,8.664,2.972l12.396,3.12c2.769,0.697,4.741,3.068,4.927,5.911v11.951c0,1.381,1.119,2.5,2.5,2.5
					s2.5-1.119,2.5-2.5v-12.026C177.63,163.356,177.629,163.31,177.626,163.264z"/>
			</g>
		</g>
		<g>
			<g>
				<path d="M118.736,134.813c-1.381,0-2.5,1.119-2.5,2.5v3.159c0,2.076-1.156,3.935-3.018,4.853
					c-3.308,1.631-6.431,3.078-11.175,4.272l-12.397,3.12c-4.922,1.239-8.419,5.477-8.702,10.545
					c-0.003,0.046-0.004,0.093-0.004,0.14v12.026c0,1.381,1.119,2.5,2.5,2.5s2.5-1.119,2.5-2.5v-11.951
					c0.187-2.843,2.159-5.214,4.927-5.911l12.397-3.12c5.22-1.314,8.598-2.877,12.165-4.637c3.582-1.766,5.807-5.343,5.807-9.337
					v-3.159C121.236,135.933,120.117,134.813,118.736,134.813z"/>
			</g>
		</g>
		<g>
			<g>
				<g>
					<g>
						<path d="M150.722,87.335c-2.386-2.501-6.251-2.766-8.992-0.616c-2.442,1.917-6.579,4.203-12.419,4.203
							c-5.853,0-10.014-2.295-12.474-4.22c-2.737-2.142-6.598-1.874-8.987,0.634c-2.555,2.68-3.962,6.194-3.962,9.896v19.217
							c0,14.004,11.394,25.397,25.397,25.397s25.397-11.393,25.397-25.397V97.23C154.683,93.528,153.275,90.014,150.722,87.335z
							 M149.683,116.447c0,11.247-9.15,20.397-20.397,20.397s-20.397-9.15-20.397-20.397V97.23c0-2.411,0.917-4.7,2.589-6.453
							c0.324-0.34,0.761-0.514,1.204-0.514c0.374,0,0.754,0.124,1.074,0.375c3.08,2.41,8.278,5.283,15.556,5.283
							c7.268,0,12.444-2.866,15.506-5.27c0.705-0.552,1.688-0.495,2.286,0.134c1.664,1.745,2.58,4.034,2.58,6.445V116.447z"/>
					</g>
				</g>
			</g>
		</g>
		<g>
			<g>
				<path d="M153.652,96.496c-1.381,0-2.5,1.119-2.5,2.5s1.119,2.5,2.5,2.5c3.893,0,7.06,3.167,7.06,7.06s-3.167,7.06-7.06,7.06
					c-1.381,0-2.5,1.119-2.5,2.5s1.119,2.5,2.5,2.5c6.649,0,12.06-5.41,12.06-12.06S160.302,96.496,153.652,96.496z"/>
			</g>
		</g>
		<g>
			<g>
				<path d="M104.919,115.616c-3.894,0-7.061-3.167-7.061-7.06s3.167-7.06,7.061-7.06c1.381,0,2.5-1.119,2.5-2.5s-1.119-2.5-2.5-2.5
					c-6.65,0-12.061,5.41-12.061,12.06s5.41,12.06,12.061,12.06c1.381,0,2.5-1.119,2.5-2.5S106.3,115.616,104.919,115.616z"/>
			</g>
		</g>
		<g>
			<g>
				<path d="M153.112,77.028c-0.29-4.195-1.99-7.61-5.062-10.161c-7.416-6.159-20.147-5.072-27.077-3.875
					c-13.54,2.338-23.367,14.004-23.367,27.74v8.956c0,1.381,1.119,2.5,2.5,2.5s2.5-1.119,2.5-2.5v-8.956
					c0-11.295,8.082-20.89,19.219-22.813c10.346-1.786,18.741-0.767,23.031,2.794c2.176,1.807,3.255,4.237,3.299,7.428
					c0.029,2.108,1.798,3.823,3.942,3.823c2.453,0,3.917,3.93,3.917,10.512v7.305c0,1.381,1.119,2.5,2.5,2.5s2.5-1.119,2.5-2.5
					v-7.305C161.015,80.275,156.449,77.457,153.112,77.028z"/>
			</g>
		</g>
		<g>
			<g>
				<path d="M127.146,156.101l-7.481-11.513c-0.753-1.158-2.301-1.486-3.459-0.734c-1.157,0.752-1.486,2.301-0.734,3.458
					l7.482,11.514c0.038,0.059,0.051,0.124,0.036,0.193c-0.016,0.069-0.053,0.124-0.112,0.163l-5.724,3.72
					c-0.12,0.077-0.281,0.044-0.357-0.075l-8.062-12.405c-0.753-1.157-2.301-1.486-3.459-0.734
					c-1.157,0.752-1.486,2.301-0.734,3.458l8.063,12.406c1.006,1.547,2.694,2.39,4.417,2.39c0.981,0,1.974-0.274,2.856-0.847
					l5.725-3.721c1.178-0.765,1.986-1.943,2.278-3.317C128.172,158.683,127.91,157.278,127.146,156.101z"/>
			</g>
		</g>
		<g>
			<g>
				<path d="M153.35,149.604c-1.156-0.75-2.704-0.424-3.459,0.734l-8.116,12.49c-0.038,0.059-0.093,0.096-0.162,0.11
					c-0.068,0.015-0.135,0.003-0.193-0.036l-5.725-3.72c-0.12-0.078-0.153-0.238-0.076-0.357l7.609-11.708
					c0.752-1.158,0.424-2.706-0.734-3.458c-1.156-0.75-2.704-0.424-3.459,0.734l-7.609,11.709c-1.578,2.43-0.886,5.692,1.544,7.272
					l5.726,3.721c0.863,0.561,1.849,0.851,2.854,0.851c0.366,0,0.735-0.038,1.102-0.116c1.374-0.292,2.553-1.101,3.317-2.278
					l8.116-12.489C154.836,151.905,154.507,150.356,153.35,149.604z"/>
			</g>
		</g>
		<g>
			<g>
				<path d="M132.125,156.543h-5.542c-1.381,0-2.5,1.119-2.5,2.5s1.119,2.5,2.5,2.5h5.542c1.381,0,2.5-1.119,2.5-2.5
					S133.506,156.543,132.125,156.543z"/>
			</g>
		</g>
		<g>
			<g>
				<path fill="#70D6F9" d="M67.906,235.1h-2.4v-2.3c0-1.8-1.4-3.2-3.2-3.2c-1.7,0-3.2,1.4-3.2,3.1v2.4h-2.3c-1.8,0-3.2,1.4-3.2,3.2
					c-0.1,1.7,1.3,3.2,3.2,3.2h2.3v2.3c0,1.8,1.4,3.2,3.2,3.2c1.7,0,3.2-1.4,3.2-3.1v-2.4h2.3c1.8,0,3.2-1.4,3.2-3.2
					C71.006,236.6,69.606,235.1,67.906,235.1z"/>
			</g>
		</g>
		<g>
			<g>
				<path fill="#F5C84C" d="M91.206,249.2c-1.878,0-3.4,1.522-3.4,3.4c0,1.878,1.522,3.4,3.4,3.4c1.878,0,3.4-1.522,3.4-3.4
					C94.606,250.722,93.083,249.2,91.206,249.2z"/>
			</g>
		</g>
		<g>
			<g>
				<path fill="#FC657E" d="M233.15,171.175c-3.1-0.6-5.6-3-6.2-6.1c0-0.1-0.3-0.1-0.3,0c-0.6,3.1-3.1,5.5-6.2,6.1
					c-0.1,0-0.1,0.2,0,0.3c3.1,0.6,5.6,3,6.2,6.1c0,0.1,0.3,0.1,0.3,0c0.6-3.1,3.1-5.5,6.2-6.1
					C233.25,171.375,233.25,171.175,233.15,171.175z"/>
			</g>
		</g>
		<g>
			<g>
				<path fill="#87D147" d="M159.369,0c-1.878,0-3.4,1.522-3.4,3.4c0,1.878,1.522,3.4,3.4,3.4s3.4-1.522,3.4-3.4
					C162.769,1.522,161.246,0,159.369,0z"/>
			</g>
		</g>
		<g>
			<g>
				<path fill="#F5C84C" d="M199.15,20.2c-4.5-0.8-8-4.3-8.9-8.7c0-0.2-0.4-0.2-0.4,0c-0.9,4.4-4.4,7.9-8.9,8.7
					c-0.2,0-0.2,0.3,0,0.4c4.5,0.8,8,4.3,8.9,8.7c0,0.2,0.4,0.2,0.4,0c0.9-4.4,4.4-7.9,8.9-8.7C199.35,20.5,199.35,20.2,199.15,20.2
					z"/>
			</g>
		</g>
		<g>
			<g>
				<g>
					<g>
						<path d="M128,6.5c-6.065,0-11,4.935-11,11s4.935,11,11,11s11-4.935,11-11S134.065,6.5,128,6.5z M128,23.5
							c-3.309,0-6-2.691-6-6s2.691-6,6-6s6,2.691,6,6S131.309,23.5,128,23.5z"/>
					</g>
				</g>
			</g>
		</g>
		<g>
			<g>
				<path d="M128,24.5c-1.381,0-2.5,1.119-2.5,2.5v22c0,1.381,1.119,2.5,2.5,2.5s2.5-1.119,2.5-2.5V27
					C130.5,25.619,129.381,24.5,128,24.5z"/>
			</g>
		</g>
		<g>
			<g>
				<g>
					<g>
						<path d="M128,227.5c-6.065,0-11,4.935-11,11s4.935,11,11,11s11-4.935,11-11S134.065,227.5,128,227.5z M128,244.5
							c-3.309,0-6-2.691-6-6s2.691-6,6-6s6,2.691,6,6S131.309,244.5,128,244.5z"/>
					</g>
				</g>
			</g>
		</g>
		<g>
			<g>
				<path d="M128,204.5c-1.381,0-2.5,1.119-2.5,2.5v22c0,1.381,1.119,2.5,2.5,2.5s2.5-1.119,2.5-2.5v-22
					C130.5,205.619,129.381,204.5,128,204.5z"/>
			</g>
		</g>
		<g>
			<g>
				<g>
					<g>
						<path d="M57.643,42.087c-2.077-2.078-4.84-3.222-7.778-3.222c-2.938,0-5.7,1.144-7.777,3.222
							c-4.289,4.289-4.289,11.267,0,15.556c2.145,2.145,4.961,3.217,7.778,3.217c2.816,0,5.633-1.072,7.777-3.217
							C61.932,53.354,61.932,46.375,57.643,42.087z M54.107,54.107c-2.34,2.337-6.146,2.339-8.485,0
							c-2.339-2.339-2.339-6.146,0-8.485c1.134-1.133,2.64-1.757,4.242-1.757c1.604,0,3.109,0.624,4.243,1.757
							c1.133,1.133,1.757,2.64,1.757,4.243S55.24,52.974,54.107,54.107z"/>
					</g>
				</g>
			</g>
		</g>
		<g>
			<g>
				<path d="M73.906,70.371L58.35,54.814c-0.977-0.977-2.559-0.977-3.535,0c-0.977,0.976-0.977,2.559,0,3.535l15.557,15.557
					c0.488,0.488,1.128,0.732,1.768,0.732s1.279-0.244,1.768-0.732C74.883,72.93,74.883,71.347,73.906,70.371z"/>
			</g>
		</g>
		<g>
			<g>
				<g>
					<g>
						<path d="M213.913,198.357c-4.288-4.288-11.266-4.29-15.556,0c-4.289,4.289-4.289,11.267,0,15.556
							c2.077,2.078,4.84,3.222,7.778,3.222c2.938,0,5.7-1.144,7.777-3.222C218.202,209.625,218.202,202.646,213.913,198.357z
							 M210.378,210.378c-1.134,1.133-2.64,1.757-4.242,1.757c-1.604,0-3.109-0.624-4.243-1.757
							c-1.133-1.133-1.757-2.64-1.757-4.243s0.624-3.109,1.757-4.243c1.17-1.169,2.706-1.754,4.243-1.754
							c1.536,0,3.072,0.585,4.242,1.754C212.717,204.232,212.717,208.039,210.378,210.378z"/>
					</g>
				</g>
			</g>
		</g>
		<g>
			<g>
				<path d="M201.186,197.65l-15.557-15.557c-0.977-0.977-2.559-0.977-3.535,0c-0.977,0.976-0.977,2.559,0,3.535l15.557,15.557
					c0.488,0.488,1.128,0.732,1.768,0.732s1.279-0.244,1.768-0.732C202.162,200.209,202.162,198.626,201.186,197.65z"/>
			</g>
		</g>
		<g>
			<g>
				<g>
					<g>
						<path d="M17.5,117c-6.065,0-11,4.935-11,11s4.935,11,11,11s11-4.935,11-11S23.565,117,17.5,117z M17.5,134
							c-3.309,0-6-2.691-6-6s2.691-6,6-6s6,2.691,6,6S20.809,134,17.5,134z"/>
					</g>
				</g>
			</g>
		</g>
		<g>
			<g>
				<path d="M49,125.5H27c-1.381,0-2.5,1.119-2.5,2.5s1.119,2.5,2.5,2.5h22c1.381,0,2.5-1.119,2.5-2.5S50.381,125.5,49,125.5z"/>
			</g>
		</g>
		<g>
			<g>
				<g>
					<g>
						<path d="M238.5,117c-6.065,0-11,4.935-11,11s4.935,11,11,11s11-4.935,11-11S244.565,117,238.5,117z M238.5,134
							c-3.309,0-6-2.691-6-6s2.691-6,6-6s6,2.691,6,6S241.809,134,238.5,134z"/>
					</g>
				</g>
			</g>
		</g>
		<g>
			<g>
				<path d="M229,125.5h-22c-1.381,0-2.5,1.119-2.5,2.5s1.119,2.5,2.5,2.5h22c1.381,0,2.5-1.119,2.5-2.5S230.381,125.5,229,125.5z"
					/>
			</g>
		</g>
		<g>
			<g>
				<g>
					<g>
						<path d="M57.643,198.357c-4.289-4.29-11.267-4.288-15.556,0c-4.289,4.289-4.289,11.267,0,15.556
							c2.077,2.078,4.84,3.222,7.777,3.222c2.938,0,5.701-1.144,7.778-3.222C61.932,209.625,61.932,202.646,57.643,198.357z
							 M54.107,210.378c-1.134,1.133-2.64,1.757-4.243,1.757c-1.603,0-3.108-0.624-4.242-1.757c-2.339-2.339-2.339-6.146,0-8.485
							c1.17-1.169,2.706-1.754,4.242-1.754c1.537,0,3.073,0.585,4.243,1.754c1.133,1.133,1.757,2.64,1.757,4.243
							S55.24,209.245,54.107,210.378z"/>
					</g>
				</g>
			</g>
		</g>
		<g>
			<g>
				<path d="M73.906,182.094c-0.977-0.977-2.559-0.977-3.535,0L54.814,197.65c-0.977,0.976-0.977,2.559,0,3.535
					c0.488,0.488,1.128,0.732,1.768,0.732s1.279-0.244,1.768-0.732l15.557-15.557C74.883,184.653,74.883,183.07,73.906,182.094z"/>
			</g>
		</g>
		<g>
			<g>
				<g>
					<g>
						<path d="M213.913,42.087c-2.077-2.078-4.84-3.222-7.777-3.222c-2.938,0-5.701,1.144-7.778,3.222
							c-4.289,4.289-4.289,11.267,0,15.556c2.145,2.145,4.961,3.217,7.777,3.217c2.817,0,5.634-1.072,7.778-3.217
							C218.202,53.354,218.202,46.375,213.913,42.087z M210.378,54.107c-2.341,2.339-6.146,2.337-8.485,0
							c-1.133-1.133-1.757-2.64-1.757-4.243s0.624-3.109,1.757-4.243c1.134-1.133,2.64-1.757,4.243-1.757
							c1.603,0,3.108,0.624,4.242,1.757C212.717,47.961,212.717,51.768,210.378,54.107z"/>
					</g>
				</g>
			</g>
		</g>
		<g>
			<g>
				<path d="M201.186,54.814c-0.977-0.977-2.559-0.977-3.535,0l-15.557,15.557c-0.977,0.976-0.977,2.559,0,3.535
					c0.488,0.488,1.128,0.732,1.768,0.732s1.279-0.244,1.768-0.732l15.557-15.557C202.162,57.374,202.162,55.791,201.186,54.814z"/>
			</g>
		</g>
	</g>
</g>
<g id="Layer_45">
</g>
<g id="Layer_46">
</g>
<g id="Layer_47">
</g>
<g id="Layer_48">
</g>
<g id="Layer_49">
</g>
<g id="Layer_50">
</g>
<g id="Layer_51">
</g>
<g id="Layer_52">
</g>
<g id="Layer_53">
</g>
<g id="Layer_54">
</g>
<g id="Layer_55">
</g>
<g id="Layer_56">
</g>
<g id="Layer_57">
</g>
<g id="Layer_58">
</g>
<g id="Layer_59">
</g>
<g id="Layer_60">
</g>
<g id="Layer_61">
</g>
<g id="Layer_62">
</g>
<g id="Layer_63">
</g>
<g id="Layer_64">
</g>
<g id="Layer_65">
</g>
<g id="Layer_66">
</g>
<g id="Layer_67">
</g>
<g id="Layer_68">
</g>
<g id="Layer_69">
</g>
<g id="Layer_70">
</g>
<g id="Layer_71">
</g>
<g id="Layer_72">
</g>
<g id="Layer_73">
</g>
<g id="Layer_74">
</g>
<g id="Layer_75">
</g>
<g id="Layer_76">
</g>
<g id="Layer_77">
</g>
<g id="Layer_78">
</g>
<g id="Layer_79">
</g>
<g id="Layer_80">
</g>
</svg>
