<?xml version="1.0" encoding="utf-8"?>
<!-- Generator: Adobe Illustrator 24.0.0, SVG Export Plug-In . SVG Version: 6.00 Build 0)  -->
<svg version="1.1" xmlns="http://www.w3.org/2000/svg" xmlns:xlink="http://www.w3.org/1999/xlink" x="0px" y="0px"
	 viewBox="0 0 256 256" enable-background="new 0 0 256 256" xml:space="preserve">
<g id="Layer_1">
</g>
<g id="Layer_2">
</g>
<g id="Layer_3">
</g>
<g id="Layer_4">
</g>
<g id="Layer_5">
</g>
<g id="Layer_6">
</g>
<g id="Layer_7">
</g>
<g id="Layer_8">
</g>
<g id="Layer_9">
</g>
<g id="Layer_10">
	<g>
		<g>
			<g>
				<path fill="#DAE6F1" d="M204.78,26.5H51.22c-3.435,0-6.22,2.785-6.22,6.22v214.56c0,3.435,2.785,6.22,6.22,6.22h153.56
					c3.435,0,6.22-2.785,6.22-6.22V32.72C211,29.285,208.215,26.5,204.78,26.5z"/>
			</g>
		</g>
		<g>
			<g>
				<path fill="#5290DB" d="M204.78,26.5H51.22c-3.435,0-6.22,2.785-6.22,6.22V44.5h166V32.72C211,29.285,208.215,26.5,204.78,26.5z
					"/>
			</g>
		</g>
		<g>
			<g>
				<path fill="#FC657E" d="M51.22,26.5c-3.435,0-6.22,2.785-6.22,6.22V44.5h21.5v-18H51.22z"/>
			</g>
		</g>
		<g>
			<g>
				<path fill="#FC657E" d="M177.618,59.547H78.382c-4.135,0-7.519,3.383-7.519,7.519v66.521c0,4.135,3.383,7.519,7.519,7.519
					h99.236c4.135,0,7.519-3.383,7.519-7.519V67.066C185.137,62.931,181.754,59.547,177.618,59.547z"/>
			</g>
		</g>
		<g>
			<g>
				<path fill="#FCDD86" d="M177.618,155.547H78.382c-4.135,0-7.519,3.383-7.519,7.519v66.521c0,4.135,3.383,7.519,7.519,7.519
					h99.236c4.135,0,7.519-3.383,7.519-7.519v-66.521C185.137,158.931,181.754,155.547,177.618,155.547z"/>
			</g>
		</g>
		<g>
			<g>
				<path fill="#FCA265" d="M169.817,168.047H86.183c-1.558,0-2.821,1.263-2.821,2.821v14.812c0,1.558,1.263,2.821,2.821,2.821
					h83.633c1.558,0,2.821-1.263,2.821-2.821v-14.812C172.637,169.31,171.374,168.047,169.817,168.047z"/>
			</g>
		</g>
		<g>
			<g>
				<circle fill="#DAE6F1" cx="128" cy="93.595" r="21.862"/>
			</g>
		</g>
		<g>
			<g>
				<path fill="#FC657E" d="M135.817,91.539l-10.212-6.691c-1.635-1.071-3.806,0.102-3.806,2.056v13.383
					c0,1.955,2.171,3.128,3.806,2.056l10.212-6.691C137.298,94.681,137.298,92.51,135.817,91.539z"/>
			</g>
		</g>
		<g>
			<g>
				<path fill="#70D6F9" d="M238.503,190.1h-2.4v-2.3c0-1.8-1.4-3.2-3.2-3.2c-1.7,0-3.2,1.4-3.2,3.1v2.4h-2.3
					c-1.8,0-3.2,1.4-3.2,3.2c-0.1,1.7,1.3,3.2,3.2,3.2h2.3v2.3c0,1.8,1.4,3.2,3.2,3.2c1.7,0,3.2-1.4,3.2-3.1v-2.4h2.3
					c1.8,0,3.2-1.4,3.2-3.2C241.603,191.6,240.203,190.1,238.503,190.1z"/>
			</g>
		</g>
		<g>
			<g>
				<path fill="#F5C84C" d="M228.803,224.5c-1.878,0-3.4,1.522-3.4,3.4c0,1.878,1.522,3.4,3.4,3.4c1.878,0,3.4-1.522,3.4-3.4
					C232.203,226.022,230.68,224.5,228.803,224.5z"/>
			</g>
		</g>
		<g>
			<g>
				<path fill="#FC657E" d="M34.747,156.175c-3.1-0.6-5.6-3-6.2-6.1c0-0.1-0.3-0.1-0.3,0c-0.6,3.1-3.1,5.5-6.2,6.1
					c-0.1,0-0.1,0.2,0,0.3c3.1,0.6,5.6,3,6.2,6.1c0,0.1,0.3,0.1,0.3,0c0.6-3.1,3.1-5.5,6.2-6.1
					C34.847,156.375,34.847,156.175,34.747,156.175z"/>
			</g>
		</g>
		<g>
			<g>
				<path fill="#87D147" d="M54.966,0c-1.878,0-3.4,1.522-3.4,3.4c0,1.878,1.522,3.4,3.4,3.4c1.878,0,3.4-1.522,3.4-3.4
					C58.365,1.522,56.843,0,54.966,0z"/>
			</g>
		</g>
		<g>
			<g>
				<path fill="#F5C84C" d="M32.747,24.2c-4.5-0.8-8-4.3-8.9-8.7c0-0.2-0.4-0.2-0.4,0c-0.9,4.4-4.4,7.9-8.9,8.7
					c-0.2,0-0.2,0.3,0,0.4c4.5,0.8,8,4.3,8.9,8.7c0,0.2,0.4,0.2,0.4,0c0.9-4.4,4.4-7.9,8.9-8.7C32.947,24.5,32.947,24.2,32.747,24.2
					z"/>
			</g>
		</g>
		<g>
			<g>
				<g>
					<g>
						<path d="M204.78,24H51.22c-4.808,0-8.72,3.912-8.72,8.72v214.56c0,4.809,3.912,8.72,8.72,8.72H204.78
							c4.808,0,8.72-3.912,8.72-8.72V32.72C213.5,27.912,209.588,24,204.78,24z M208.5,247.28c0,2.051-1.669,3.72-3.72,3.72H51.22
							c-2.051,0-3.72-1.669-3.72-3.72V32.72c0-2.051,1.669-3.72,3.72-3.72H204.78c2.051,0,3.72,1.669,3.72,3.72V247.28z"/>
					</g>
				</g>
			</g>
		</g>
		<g>
			<g>
				<path d="M175.5,33h-95c-1.381,0-2.5,1.119-2.5,2.5s1.119,2.5,2.5,2.5h95c1.381,0,2.5-1.119,2.5-2.5S176.881,33,175.5,33z"/>
			</g>
		</g>
		<g>
			<g>
				<path d="M199.65,33h-11.4c-1.381,0-2.5,1.119-2.5,2.5s1.119,2.5,2.5,2.5h11.4c1.381,0,2.5-1.119,2.5-2.5S201.031,33,199.65,33z"
					/>
			</g>
		</g>
		<g>
			<g>
				<path d="M174.662,125H81.339c-1.381,0-2.5,1.119-2.5,2.5s1.119,2.5,2.5,2.5h93.323c1.381,0,2.5-1.119,2.5-2.5
					S176.043,125,174.662,125z"/>
			</g>
		</g>
		<g>
			<g>
				<path d="M121.667,199H88.333c-1.381,0-2.5,1.119-2.5,2.5s1.119,2.5,2.5,2.5h33.334c1.381,0,2.5-1.119,2.5-2.5
					S123.048,199,121.667,199z"/>
			</g>
		</g>
		<g>
			<g>
				<path d="M121.667,210H88.333c-1.381,0-2.5,1.119-2.5,2.5s1.119,2.5,2.5,2.5h33.334c1.381,0,2.5-1.119,2.5-2.5
					S123.048,210,121.667,210z"/>
			</g>
		</g>
		<g>
			<g>
				<path d="M121.667,221H88.333c-1.381,0-2.5,1.119-2.5,2.5s1.119,2.5,2.5,2.5h33.334c1.381,0,2.5-1.119,2.5-2.5
					S123.048,221,121.667,221z"/>
			</g>
		</g>
		<g>
			<g>
				<path d="M167.667,199h-33.334c-1.381,0-2.5,1.119-2.5,2.5s1.119,2.5,2.5,2.5h33.334c1.381,0,2.5-1.119,2.5-2.5
					S169.048,199,167.667,199z"/>
			</g>
		</g>
		<g>
			<g>
				<path d="M167.667,210h-33.334c-1.381,0-2.5,1.119-2.5,2.5s1.119,2.5,2.5,2.5h33.334c1.381,0,2.5-1.119,2.5-2.5
					S169.048,210,167.667,210z"/>
			</g>
		</g>
		<g>
			<g>
				<path d="M167.667,221h-33.334c-1.381,0-2.5,1.119-2.5,2.5s1.119,2.5,2.5,2.5h33.334c1.381,0,2.5-1.119,2.5-2.5
					S169.048,221,167.667,221z"/>
			</g>
		</g>
		<g>
			<g>
				<path d="M210.25,42H46.438c-1.381,0-2.5,1.119-2.5,2.5s1.119,2.5,2.5,2.5H210.25c1.381,0,2.5-1.119,2.5-2.5
					S211.631,42,210.25,42z"/>
			</g>
		</g>
		<g>
			<g>
				<path d="M66.5,25.438c-1.381,0-2.5,1.119-2.5,2.5v15.125c0,1.381,1.119,2.5,2.5,2.5s2.5-1.119,2.5-2.5V27.938
					C69,26.557,67.881,25.438,66.5,25.438z"/>
			</g>
		</g>
		<g>
			<g>
				<g>
					<g>
						<path d="M177.618,57.047H78.382c-5.524,0-10.019,4.495-10.019,10.019v66.521c0,5.524,4.494,10.019,10.019,10.019h99.236
							c5.524,0,10.019-4.494,10.019-10.019V67.066C187.637,61.542,183.143,57.047,177.618,57.047z M182.637,133.587
							c0,2.767-2.251,5.019-5.019,5.019H78.382c-2.768,0-5.019-2.251-5.019-5.019V67.066c0-2.768,2.251-5.019,5.019-5.019h99.236
							c2.768,0,5.019,2.251,5.019,5.019V133.587z"/>
					</g>
				</g>
			</g>
		</g>
		<g>
			<g>
				<g>
					<g>
						<path d="M177.618,153.047H78.382c-5.524,0-10.019,4.495-10.019,10.019v66.521c0,5.524,4.494,10.019,10.019,10.019h99.236
							c5.524,0,10.019-4.494,10.019-10.019v-66.521C187.637,157.542,183.143,153.047,177.618,153.047z M182.637,229.587
							c0,2.767-2.251,5.019-5.019,5.019H78.382c-2.768,0-5.019-2.251-5.019-5.019v-66.521c0-2.768,2.251-5.019,5.019-5.019h99.236
							c2.768,0,5.019,2.251,5.019,5.019V229.587z"/>
					</g>
				</g>
			</g>
		</g>
		<g>
			<g>
				<g>
					<g>
						<path d="M169.816,165.547H86.184c-2.934,0-5.32,2.387-5.32,5.321v14.812c0,2.934,2.387,5.32,5.32,5.32h83.633
							c2.934,0,5.32-2.387,5.32-5.32v-14.812C175.137,167.934,172.75,165.547,169.816,165.547z M170.137,185.68
							c0,0.177-0.144,0.32-0.32,0.32H86.184c-0.177,0-0.32-0.144-0.32-0.32v-14.812c0-0.177,0.144-0.321,0.32-0.321h83.633
							c0.177,0,0.32,0.144,0.32,0.321V185.68z"/>
					</g>
				</g>
			</g>
		</g>
		<g>
			<g>
				<g>
					<g>
						<path d="M128,69.233c-13.434,0-24.362,10.929-24.362,24.362c0,13.433,10.929,24.362,24.362,24.362
							s24.362-10.929,24.362-24.362C152.362,80.162,141.434,69.233,128,69.233z M128,112.958c-10.677,0-19.362-8.686-19.362-19.362
							S117.323,74.233,128,74.233s19.362,8.686,19.362,19.362S138.677,112.958,128,112.958z"/>
					</g>
				</g>
			</g>
		</g>
		<g>
			<g>
				<g>
					<g>
						<path d="M137.188,89.448l-10.212-6.691c-1.527-1-3.472-1.083-5.075-0.214c-1.604,0.867-2.602,2.539-2.602,4.362v13.382
							c0,1.824,0.997,3.495,2.602,4.362c0.738,0.399,1.549,0.597,2.357,0.597c0.948,0,1.895-0.272,2.718-0.812l10.212-6.691
							c1.403-0.919,2.241-2.47,2.241-4.147C139.429,91.918,138.591,90.367,137.188,89.448z M124.299,100.287V86.98l10.148,6.581
							L124.299,100.287z"/>
					</g>
				</g>
			</g>
		</g>
	</g>
</g>
<g id="Layer_11">
</g>
<g id="Layer_12">
</g>
<g id="Layer_13">
</g>
<g id="Layer_14">
</g>
<g id="Layer_15">
</g>
<g id="Layer_16">
</g>
<g id="Layer_17">
</g>
<g id="Layer_18">
</g>
<g id="Layer_19">
</g>
<g id="Layer_20">
</g>
<g id="Layer_21">
</g>
<g id="Layer_22">
</g>
<g id="Layer_23">
</g>
<g id="Layer_24">
</g>
<g id="Layer_25">
</g>
<g id="Layer_26">
</g>
<g id="Layer_27">
</g>
<g id="Layer_28">
</g>
<g id="Layer_29">
</g>
<g id="Layer_30">
</g>
<g id="Layer_31">
</g>
<g id="Layer_32">
</g>
<g id="Layer_33">
</g>
<g id="Layer_34">
</g>
<g id="Layer_35">
</g>
<g id="Layer_36">
</g>
<g id="Layer_37">
</g>
<g id="Layer_38">
</g>
<g id="Layer_39">
</g>
<g id="Layer_40">
</g>
<g id="Layer_41">
</g>
<g id="Layer_42">
</g>
<g id="Layer_43">
</g>
<g id="Layer_44">
</g>
<g id="Layer_45">
</g>
<g id="Layer_46">
</g>
<g id="Layer_47">
</g>
<g id="Layer_48">
</g>
<g id="Layer_49">
</g>
<g id="Layer_50">
</g>
<g id="Layer_51">
</g>
<g id="Layer_52">
</g>
<g id="Layer_53">
</g>
<g id="Layer_54">
</g>
<g id="Layer_55">
</g>
<g id="Layer_56">
</g>
<g id="Layer_57">
</g>
<g id="Layer_58">
</g>
<g id="Layer_59">
</g>
<g id="Layer_60">
</g>
<g id="Layer_61">
</g>
<g id="Layer_62">
</g>
<g id="Layer_63">
</g>
<g id="Layer_64">
</g>
<g id="Layer_65">
</g>
<g id="Layer_66">
</g>
<g id="Layer_67">
</g>
<g id="Layer_68">
</g>
<g id="Layer_69">
</g>
<g id="Layer_70">
</g>
<g id="Layer_71">
</g>
<g id="Layer_72">
</g>
<g id="Layer_73">
</g>
<g id="Layer_74">
</g>
<g id="Layer_75">
</g>
<g id="Layer_76">
</g>
<g id="Layer_77">
</g>
<g id="Layer_78">
</g>
<g id="Layer_79">
</g>
<g id="Layer_80">
</g>
</svg>
