<?xml version="1.0" encoding="utf-8"?>
<!-- Generator: Adobe Illustrator 24.0.0, SVG Export Plug-In . SVG Version: 6.00 Build 0)  -->
<svg version="1.1" xmlns="http://www.w3.org/2000/svg" xmlns:xlink="http://www.w3.org/1999/xlink" x="0px" y="0px"
	 viewBox="0 0 256 256" enable-background="new 0 0 256 256" xml:space="preserve">
<g id="Layer_1">
</g>
<g id="Layer_2">
</g>
<g id="Layer_3">
</g>
<g id="Layer_4">
</g>
<g id="Layer_5">
</g>
<g id="Layer_6">
</g>
<g id="Layer_7">
</g>
<g id="Layer_8">
</g>
<g id="Layer_9">
</g>
<g id="Layer_10">
</g>
<g id="Layer_11">
</g>
<g id="Layer_12">
</g>
<g id="Layer_13">
</g>
<g id="Layer_14">
</g>
<g id="Layer_15">
</g>
<g id="Layer_16">
</g>
<g id="Layer_17">
</g>
<g id="Layer_18">
</g>
<g id="Layer_19">
</g>
<g id="Layer_20">
</g>
<g id="Layer_21">
</g>
<g id="Layer_22">
</g>
<g id="Layer_23">
</g>
<g id="Layer_24">
</g>
<g id="Layer_25">
	<g>
		<g>
			<g>
				<path fill="#C7D7E5" d="M241.415,31.483h-22.898v149.365c0,8.123,6.647,15.021,14.769,14.869
					c7.875-0.148,14.214-6.578,14.214-14.489V37.568C247.5,34.207,244.776,31.483,241.415,31.483z"/>
			</g>
		</g>
		<g>
			<g>
				<path fill="#DAE6F1" d="M218.517,180.848V8.585c0-3.361-2.724-6.085-6.085-6.085H90.667c-3.361,0-6.085,2.724-6.085,6.085
					v67.957h6.34c9.967,0,18.075,8.108,18.075,18.075v101.102h124.289v-0.003C225.164,195.869,218.517,188.971,218.517,180.848z"/>
			</g>
		</g>
		<g>
			<g>
				<path fill="#5290DB" d="M90.921,76.542H26.575c-9.966,0-18.075,8.108-18.075,18.075v140.808c0,9.967,8.108,18.075,18.075,18.075
					h64.346c9.967,0,18.075-8.108,18.075-18.075V94.617C108.996,84.651,100.888,76.542,90.921,76.542z"/>
			</g>
		</g>
		<g>
			<g>
				<path fill="#DAE6F1" d="M98.912,94.617c0-4.395-3.596-7.99-7.99-7.99H79.487c-3.723,0-7.107,2.074-8.887,5.344
					c-2.286,4.2-6.733,7.05-11.852,7.05c-5.119,0-9.566-2.851-11.852-7.05c-1.78-3.27-5.163-5.344-8.887-5.344H26.575
					c-4.395,0-7.99,3.596-7.99,7.99v140.808c0,4.395,3.596,7.991,7.99,7.991h64.346c4.395,0,7.99-3.596,7.99-7.99L98.912,94.617z"/>
			</g>
		</g>
		<g>
			<g>
				<path fill="#FC657E" d="M202.968,15.235H100.131c-1.555,0-2.815,1.26-2.815,2.815v30.166c0,1.555,1.26,2.815,2.815,2.815
					h102.836c1.555,0,2.815-1.26,2.815-2.815V18.05C205.783,16.495,204.522,15.235,202.968,15.235z"/>
			</g>
		</g>
		<g>
			<g>
				<path fill="#F5C84C" d="M202.968,66.177h-42.291c-1.555,0-2.815,1.26-2.815,2.815v38.195c0,1.555,1.26,2.815,2.815,2.815h42.291
					c1.555,0,2.815-1.26,2.815-2.815V68.992C205.783,67.438,204.522,66.177,202.968,66.177z"/>
			</g>
		</g>
		<g>
			<g>
				<path fill="#87D147" d="M82.894,113.177H34.603c-1.555,0-2.815,1.26-2.815,2.815v36.195c0,1.555,1.26,2.815,2.815,2.815h48.291
					c1.555,0,2.815-1.26,2.815-2.815v-36.195C85.709,114.438,84.448,113.177,82.894,113.177z"/>
			</g>
		</g>
		<g>
			<g>
				<path fill="#70D6F9" d="M83.42,211.784H34.077c-1.264,0-2.289,1.025-2.289,2.289v10.378c0,1.264,1.025,2.289,2.289,2.289H83.42
					c1.264,0,2.289-1.025,2.289-2.289v-10.378C85.709,212.809,84.684,211.784,83.42,211.784z"/>
			</g>
		</g>
		<g>
			<g>
				<path fill="#70D6F9" d="M180.906,244.1h-2.4v-2.3c0-1.8-1.4-3.2-3.2-3.2c-1.7,0-3.2,1.4-3.2,3.1v2.4h-2.3
					c-1.8,0-3.2,1.4-3.2,3.2c-0.1,1.7,1.3,3.2,3.2,3.2h2.3v2.3c0,1.8,1.4,3.2,3.2,3.2c1.7,0,3.2-1.4,3.2-3.1v-2.4h2.3
					c1.8,0,3.2-1.4,3.2-3.2C184.006,245.6,182.606,244.1,180.906,244.1z"/>
			</g>
		</g>
		<g>
			<g>
				<path fill="#F5C84C" d="M209.206,215.5c-1.878,0-3.4,1.522-3.4,3.4c0,1.878,1.522,3.4,3.4,3.4s3.4-1.522,3.4-3.4
					C212.606,217.022,211.083,215.5,209.206,215.5z"/>
			</g>
		</g>
		<g>
			<g>
				<path fill="#FC657E" d="M138.15,233.175c-3.1-0.6-5.6-3-6.2-6.1c0-0.1-0.3-0.1-0.3,0c-0.6,3.1-3.1,5.5-6.2,6.1
					c-0.1,0-0.1,0.2,0,0.3c3.1,0.6,5.6,3,6.2,6.1c0,0.1,0.3,0.1,0.3,0c0.6-3.1,3.1-5.5,6.2-6.1
					C138.25,233.375,138.25,233.175,138.15,233.175z"/>
			</g>
		</g>
		<g>
			<g>
				<path fill="#87D147" d="M22.369,42c-1.878,0-3.4,1.522-3.4,3.4c0,1.878,1.522,3.4,3.4,3.4s3.4-1.522,3.4-3.4
					C25.769,43.522,24.246,42,22.369,42z"/>
			</g>
		</g>
		<g>
			<g>
				<path fill="#F5C84C" d="M59.15,18.2c-4.5-0.8-8-4.3-8.9-8.7c0-0.2-0.4-0.2-0.4,0c-0.9,4.4-4.4,7.9-8.9,8.7c-0.2,0-0.2,0.3,0,0.4
					c4.5,0.8,8,4.3,8.9,8.7c0,0.2,0.4,0.2,0.4,0c0.9-4.4,4.4-7.9,8.9-8.7C59.35,18.5,59.35,18.2,59.15,18.2z"/>
			</g>
		</g>
		<g>
			<g>
				<path d="M241.415,28.983h-21.54c-1.381,0-2.5,1.119-2.5,2.5s1.119,2.5,2.5,2.5h21.54c1.977,0,3.585,1.608,3.585,3.585v143.659
					c0,6.489-5.276,11.868-11.762,11.989c-1.381,0.026-2.479,1.166-2.453,2.546c0.026,1.364,1.14,2.453,2.499,2.453
					c0.016,0,0.032,0,0.048,0c9.19-0.172,16.668-7.793,16.668-16.988V37.568C250,32.834,246.148,28.983,241.415,28.983z"/>
			</g>
		</g>
		<g>
			<g>
				<path d="M235.036,193.932c-0.468-0.459-1.097-0.716-1.751-0.716c-0.079,0-0.157,0.002-0.236,0.002h-0.053
					c-3.044-0.007-5.948-1.219-8.202-3.431c-2.399-2.355-3.776-5.614-3.776-8.94V8.585c0-4.734-3.852-8.585-8.586-8.585H90.666
					c-4.733,0-8.585,3.852-8.585,8.585v66.998c0,1.381,1.119,2.5,2.5,2.5s2.5-1.119,2.5-2.5V8.585C87.081,6.608,88.689,5,90.666,5
					h121.766c1.978,0,3.586,1.608,3.586,3.585v172.262c0,4.595,1.869,9.093,5.136,12.371H110.5c-1.381,0-2.5,1.119-2.5,2.5
					s1.119,2.5,2.5,2.5h122.785c1.381,0,2.5-1.122,2.5-2.502C235.785,195.045,235.516,194.402,235.036,193.932z"/>
			</g>
		</g>
		<g>
			<g>
				<path d="M204.767,151.328h-45.889c-1.381,0-2.5,1.119-2.5,2.5s1.119,2.5,2.5,2.5h45.889c1.381,0,2.5-1.119,2.5-2.5
					S206.147,151.328,204.767,151.328z"/>
			</g>
		</g>
		<g>
			<g>
				<path d="M204.767,162.284h-45.889c-1.381,0-2.5,1.119-2.5,2.5s1.119,2.5,2.5,2.5h45.889c1.381,0,2.5-1.119,2.5-2.5
					S206.147,162.284,204.767,162.284z"/>
			</g>
		</g>
		<g>
			<g>
				<path d="M204.767,140.372h-45.889c-1.381,0-2.5,1.119-2.5,2.5s1.119,2.5,2.5,2.5h45.889c1.381,0,2.5-1.119,2.5-2.5
					S206.147,140.372,204.767,140.372z"/>
			</g>
		</g>
		<g>
			<g>
				<path d="M204.767,118.459h-45.889c-1.381,0-2.5,1.119-2.5,2.5s1.119,2.5,2.5,2.5h45.889c1.381,0,2.5-1.119,2.5-2.5
					S206.147,118.459,204.767,118.459z"/>
			</g>
		</g>
		<g>
			<g>
				<path d="M204.767,129.415h-45.889c-1.381,0-2.5,1.119-2.5,2.5s1.119,2.5,2.5,2.5h45.889c1.381,0,2.5-1.119,2.5-2.5
					S206.147,129.415,204.767,129.415z"/>
			</g>
		</g>
		<g>
			<g>
				<path d="M204.767,173.24h-45.889c-1.381,0-2.5,1.119-2.5,2.5s1.119,2.5,2.5,2.5h45.889c1.381,0,2.5-1.119,2.5-2.5
					S206.147,173.24,204.767,173.24z"/>
			</g>
		</g>
		<g>
			<g>
				<path d="M144.222,63.677H98.333c-1.381,0-2.5,1.119-2.5,2.5s1.119,2.5,2.5,2.5h45.889c1.381,0,2.5-1.119,2.5-2.5
					S145.603,63.677,144.222,63.677z"/>
			</g>
		</g>
		<g>
			<g>
				<path d="M144.222,74.634h-29.889c-1.381,0-2.5,1.119-2.5,2.5s1.119,2.5,2.5,2.5h29.889c1.381,0,2.5-1.119,2.5-2.5
					S145.603,74.634,144.222,74.634z"/>
			</g>
		</g>
		<g>
			<g>
				<path d="M144.222,96.546h-24.889c-1.381,0-2.5,1.119-2.5,2.5s1.119,2.5,2.5,2.5h24.889c1.381,0,2.5-1.119,2.5-2.5
					S145.603,96.546,144.222,96.546z"/>
			</g>
		</g>
		<g>
			<g>
				<path d="M144.222,151.328h-24.889c-1.381,0-2.5,1.119-2.5,2.5s1.119,2.5,2.5,2.5h24.889c1.381,0,2.5-1.119,2.5-2.5
					S145.603,151.328,144.222,151.328z"/>
			</g>
		</g>
		<g>
			<g>
				<path d="M144.222,162.284h-24.889c-1.381,0-2.5,1.119-2.5,2.5s1.119,2.5,2.5,2.5h24.889c1.381,0,2.5-1.119,2.5-2.5
					S145.603,162.284,144.222,162.284z"/>
			</g>
		</g>
		<g>
			<g>
				<path d="M144.222,140.372h-24.889c-1.381,0-2.5,1.119-2.5,2.5s1.119,2.5,2.5,2.5h24.889c1.381,0,2.5-1.119,2.5-2.5
					S145.603,140.372,144.222,140.372z"/>
			</g>
		</g>
		<g>
			<g>
				<path d="M144.222,118.459h-24.889c-1.381,0-2.5,1.119-2.5,2.5s1.119,2.5,2.5,2.5h24.889c1.381,0,2.5-1.119,2.5-2.5
					S145.603,118.459,144.222,118.459z"/>
			</g>
		</g>
		<g>
			<g>
				<path d="M144.222,85.59h-24.889c-1.381,0-2.5,1.119-2.5,2.5s1.119,2.5,2.5,2.5h24.889c1.381,0,2.5-1.119,2.5-2.5
					S145.603,85.59,144.222,85.59z"/>
			</g>
		</g>
		<g>
			<g>
				<path d="M144.222,107.502h-24.889c-1.381,0-2.5,1.119-2.5,2.5s1.119,2.5,2.5,2.5h24.889c1.381,0,2.5-1.119,2.5-2.5
					S145.603,107.502,144.222,107.502z"/>
			</g>
		</g>
		<g>
			<g>
				<path d="M144.222,129.415h-24.889c-1.381,0-2.5,1.119-2.5,2.5s1.119,2.5,2.5,2.5h24.889c1.381,0,2.5-1.119,2.5-2.5
					S145.603,129.415,144.222,129.415z"/>
			</g>
		</g>
		<g>
			<g>
				<path d="M144.222,173.24h-24.889c-1.381,0-2.5,1.119-2.5,2.5s1.119,2.5,2.5,2.5h24.889c1.381,0,2.5-1.119,2.5-2.5
					S145.603,173.24,144.222,173.24z"/>
			</g>
		</g>
		<g>
			<g>
				<path d="M84.692,198.328H32.804c-1.381,0-2.5,1.119-2.5,2.5s1.119,2.5,2.5,2.5h51.889c1.381,0,2.5-1.119,2.5-2.5
					S86.073,198.328,84.692,198.328z"/>
			</g>
		</g>
		<g>
			<g>
				<path d="M84.692,187.372H32.804c-1.381,0-2.5,1.119-2.5,2.5s1.119,2.5,2.5,2.5h51.889c1.381,0,2.5-1.119,2.5-2.5
					S86.073,187.372,84.692,187.372z"/>
			</g>
		</g>
		<g>
			<g>
				<path d="M84.692,165.459H32.804c-1.381,0-2.5,1.119-2.5,2.5s1.119,2.5,2.5,2.5h51.889c1.381,0,2.5-1.119,2.5-2.5
					S86.073,165.459,84.692,165.459z"/>
			</g>
		</g>
		<g>
			<g>
				<path d="M84.692,176.415H32.804c-1.381,0-2.5,1.119-2.5,2.5s1.119,2.5,2.5,2.5h51.889c1.381,0,2.5-1.119,2.5-2.5
					S86.073,176.415,84.692,176.415z"/>
			</g>
		</g>
		<g>
			<g>
				<g>
					<g>
						<path d="M90.921,74.042H26.574C15.229,74.042,6,83.272,6,94.617v140.808C6,246.77,15.23,256,26.575,256h64.346
							c11.345,0,20.575-9.23,20.575-20.575V94.617C111.496,83.272,102.266,74.042,90.921,74.042z M106.496,235.425
							c0,8.588-6.987,15.575-15.575,15.575H26.575C17.987,251,11,244.013,11,235.425V94.617c0-8.588,6.986-15.575,15.574-15.575
							h64.347c8.588,0,15.575,6.987,15.575,15.575V235.425z"/>
					</g>
				</g>
			</g>
		</g>
		<g>
			<g>
				<g>
					<g>
						<path d="M90.921,84.126H79.487c-4.604,0-8.852,2.548-11.082,6.649c-1.93,3.543-5.63,5.745-9.657,5.745
							s-7.728-2.202-9.656-5.745c-2.231-4.102-6.479-6.65-11.083-6.65H26.575c-5.785,0-10.491,4.706-10.491,10.491v140.808
							c0,5.784,4.706,10.49,10.491,10.49h64.347c5.784,0,10.49-4.706,10.49-10.49V94.617
							C101.412,88.833,96.706,84.126,90.921,84.126z M96.412,235.425c0,3.027-2.463,5.49-5.49,5.49H26.575
							c-3.028,0-5.491-2.463-5.491-5.49V94.617c0-3.028,2.463-5.491,5.491-5.491h11.434c2.771,0,5.335,1.548,6.691,4.04
							c2.805,5.153,8.188,8.354,14.048,8.354s11.243-3.201,14.049-8.355c1.355-2.492,3.919-4.04,6.69-4.04h11.434
							c3.028,0,5.491,2.463,5.491,5.491V235.425z"/>
					</g>
				</g>
			</g>
		</g>
		<g>
			<g>
				<g>
					<g>
						<path d="M202.968,12.735H100.132c-2.931,0-5.315,2.384-5.315,5.315v30.166c0,2.931,2.385,5.315,5.315,5.315h102.836
							c2.931,0,5.314-2.384,5.314-5.315V18.05C208.282,15.119,205.898,12.735,202.968,12.735z M203.282,48.215
							c0,0.174-0.141,0.315-0.314,0.315H100.132c-0.174,0-0.315-0.141-0.315-0.315V18.05c0-0.174,0.142-0.315,0.315-0.315h102.836
							c0.174,0,0.314,0.141,0.314,0.315V48.215z"/>
					</g>
				</g>
			</g>
		</g>
		<g>
			<g>
				<g>
					<g>
						<path d="M202.968,63.677h-42.291c-2.931,0-5.315,2.384-5.315,5.315v38.195c0,2.931,2.385,5.315,5.315,5.315h42.291
							c2.931,0,5.314-2.384,5.314-5.315V68.992C208.282,66.062,205.898,63.677,202.968,63.677z M203.282,107.188
							c0,0.174-0.141,0.315-0.314,0.315h-42.291c-0.174,0-0.315-0.141-0.315-0.315V68.992c0-0.174,0.142-0.315,0.315-0.315h42.291
							c0.174,0,0.314,0.141,0.314,0.315V107.188z"/>
					</g>
				</g>
			</g>
		</g>
		<g>
			<g>
				<g>
					<g>
						<path d="M82.894,110.677H34.603c-2.931,0-5.315,2.384-5.315,5.315v36.195c0,2.931,2.385,5.315,5.315,5.315h48.291
							c2.931,0,5.315-2.384,5.315-5.315v-36.195C88.209,113.062,85.824,110.677,82.894,110.677z M83.209,152.188
							c0,0.174-0.142,0.315-0.315,0.315H34.603c-0.174,0-0.315-0.141-0.315-0.315v-36.195c0-0.174,0.142-0.315,0.315-0.315h48.291
							c0.174,0,0.315,0.141,0.315,0.315V152.188z"/>
					</g>
				</g>
			</g>
		</g>
		<g>
			<g>
				<g>
					<g>
						<path d="M83.42,209.284H34.076c-2.641,0-4.789,2.148-4.789,4.789v10.378c0,2.641,2.148,4.789,4.789,4.789H83.42
							c2.641,0,4.789-2.148,4.789-4.789v-10.378C88.209,211.433,86.061,209.284,83.42,209.284z M83.209,224.24H34.287v-9.956h48.922
							V224.24z"/>
					</g>
				</g>
			</g>
		</g>
	</g>
</g>
<g id="Layer_26">
</g>
<g id="Layer_27">
</g>
<g id="Layer_28">
</g>
<g id="Layer_29">
</g>
<g id="Layer_30">
</g>
<g id="Layer_31">
</g>
<g id="Layer_32">
</g>
<g id="Layer_33">
</g>
<g id="Layer_34">
</g>
<g id="Layer_35">
</g>
<g id="Layer_36">
</g>
<g id="Layer_37">
</g>
<g id="Layer_38">
</g>
<g id="Layer_39">
</g>
<g id="Layer_40">
</g>
<g id="Layer_41">
</g>
<g id="Layer_42">
</g>
<g id="Layer_43">
</g>
<g id="Layer_44">
</g>
<g id="Layer_45">
</g>
<g id="Layer_46">
</g>
<g id="Layer_47">
</g>
<g id="Layer_48">
</g>
<g id="Layer_49">
</g>
<g id="Layer_50">
</g>
<g id="Layer_51">
</g>
<g id="Layer_52">
</g>
<g id="Layer_53">
</g>
<g id="Layer_54">
</g>
<g id="Layer_55">
</g>
<g id="Layer_56">
</g>
<g id="Layer_57">
</g>
<g id="Layer_58">
</g>
<g id="Layer_59">
</g>
<g id="Layer_60">
</g>
<g id="Layer_61">
</g>
<g id="Layer_62">
</g>
<g id="Layer_63">
</g>
<g id="Layer_64">
</g>
<g id="Layer_65">
</g>
<g id="Layer_66">
</g>
<g id="Layer_67">
</g>
<g id="Layer_68">
</g>
<g id="Layer_69">
</g>
<g id="Layer_70">
</g>
<g id="Layer_71">
</g>
<g id="Layer_72">
</g>
<g id="Layer_73">
</g>
<g id="Layer_74">
</g>
<g id="Layer_75">
</g>
<g id="Layer_76">
</g>
<g id="Layer_77">
</g>
<g id="Layer_78">
</g>
<g id="Layer_79">
</g>
<g id="Layer_80">
</g>
</svg>
