<?xml version="1.0" encoding="utf-8"?>
<!-- Generator: Adobe Illustrator 24.0.0, SVG Export Plug-In . SVG Version: 6.00 Build 0)  -->
<svg version="1.1" xmlns="http://www.w3.org/2000/svg" xmlns:xlink="http://www.w3.org/1999/xlink" x="0px" y="0px"
	 viewBox="0 0 256 256" enable-background="new 0 0 256 256" xml:space="preserve">
<g id="Layer_1">
</g>
<g id="Layer_2">
</g>
<g id="Layer_3">
</g>
<g id="Layer_4">
</g>
<g id="Layer_5">
</g>
<g id="Layer_6">
</g>
<g id="Layer_7">
</g>
<g id="Layer_8">
</g>
<g id="Layer_9">
</g>
<g id="Layer_10">
</g>
<g id="Layer_11">
</g>
<g id="Layer_12">
</g>
<g id="Layer_13">
</g>
<g id="Layer_14">
</g>
<g id="Layer_15">
</g>
<g id="Layer_16">
</g>
<g id="Layer_17">
</g>
<g id="Layer_18">
</g>
<g id="Layer_19">
</g>
<g id="Layer_20">
</g>
<g id="Layer_21">
</g>
<g id="Layer_22">
</g>
<g id="Layer_23">
</g>
<g id="Layer_24">
</g>
<g id="Layer_25">
</g>
<g id="Layer_26">
</g>
<g id="Layer_27">
</g>
<g id="Layer_28">
</g>
<g id="Layer_29">
</g>
<g id="Layer_30">
</g>
<g id="Layer_31">
</g>
<g id="Layer_32">
</g>
<g id="Layer_33">
</g>
<g id="Layer_34">
</g>
<g id="Layer_35">
</g>
<g id="Layer_36">
</g>
<g id="Layer_37">
</g>
<g id="Layer_38">
</g>
<g id="Layer_39">
</g>
<g id="Layer_40">
</g>
<g id="Layer_41">
</g>
<g id="Layer_42">
</g>
<g id="Layer_43">
</g>
<g id="Layer_44">
</g>
<g id="Layer_45">
</g>
<g id="Layer_46">
</g>
<g id="Layer_47">
</g>
<g id="Layer_48">
</g>
<g id="Layer_49">
</g>
<g id="Layer_50">
</g>
<g id="Layer_51">
</g>
<g id="Layer_52">
</g>
<g id="Layer_53">
</g>
<g id="Layer_54">
</g>
<g id="Layer_55">
</g>
<g id="Layer_56">
</g>
<g id="Layer_57">
</g>
<g id="Layer_58">
</g>
<g id="Layer_59">
</g>
<g id="Layer_60">
</g>
<g id="Layer_61">
</g>
<g id="Layer_62">
</g>
<g id="Layer_63">
</g>
<g id="Layer_64">
</g>
<g id="Layer_65">
</g>
<g id="Layer_66">
</g>
<g id="Layer_67">
</g>
<g id="Layer_68">
</g>
<g id="Layer_69">
</g>
<g id="Layer_70">
</g>
<g id="Layer_71">
</g>
<g id="Layer_72">
</g>
<g id="Layer_73">
</g>
<g id="Layer_74">
</g>
<g id="Layer_75">
	<g>
		<g>
			<g>
				<path fill="#DAE6F1" d="M192.142,2.5H63.858c-4.742,0-8.587,3.845-8.587,8.587v117.618l57.013,39.196l8.009-5.507
					c4.643-3.191,10.772-3.191,15.415,0l8.009,5.507l57.013-39.196V11.087C200.729,6.345,196.884,2.5,192.142,2.5z"/>
			</g>
		</g>
		<g>
			<g>
				<path fill="#FCA265" d="M183.087,17H72.913c-1.735,0-3.141,1.406-3.141,3.141v24.218c0,1.735,1.406,3.141,3.141,3.141h110.175
					c1.735,0,3.141-1.406,3.141-3.141V20.141C186.229,18.406,184.822,17,183.087,17z"/>
			</g>
		</g>
		<g>
			<g>
				<path fill="#F5C84C" d="M118.859,60.387H72.913c-1.735,0-3.141,1.406-3.141,3.141v33.548c0,1.735,1.406,3.141,3.141,3.141
					h45.946c1.735,0,3.141-1.406,3.141-3.141V63.528C122,61.793,120.594,60.387,118.859,60.387z"/>
			</g>
		</g>
		<g>
			<g>
				<path fill="#70D6F9" d="M208.06,94.606h-7.331v34.099l-57.013,39.196l-8.009-5.507c-4.643-3.191-10.772-3.191-15.415,0
					l-8.009,5.507l-57.013-39.196V94.606H47.94c-5.554,0-10.097,4.544-10.097,10.097V212.5c0,5.554,4.544,10.098,10.097,10.098
					H208.06c5.554,0,10.097-4.544,10.097-10.098V104.703C218.158,99.15,213.614,94.606,208.06,94.606z"/>
			</g>
		</g>
		<g>
			<g>
				<path fill="#3CAADC" d="M47.94,94.606c-5.554,0-10.097,4.543-10.097,10.097v12.02l17.429,11.982V94.606H47.94z"/>
			</g>
		</g>
		<g>
			<g>
				<path fill="#3CAADC" d="M208.06,94.606h-7.331v34.099l17.429-11.982v-12.02C218.158,99.149,213.614,94.606,208.06,94.606z"/>
			</g>
		</g>
		<g>
			<g>
				<path fill="#9BE5F9" d="M135.708,162.395c-4.643-3.192-10.773-3.192-15.415,0l-80.825,55.567
					c1.803,2.782,4.929,4.636,8.473,4.636H208.06c3.543,0,6.669-1.854,8.473-4.636L135.708,162.395z"/>
			</g>
		</g>
		<g>
			<g>
				<circle fill="#F5C84C" cx="216.206" cy="19.9" r="3.4"/>
			</g>
		</g>
		<g>
			<g>
				<path fill="#70D6F9" d="M229.215,49.1h-2.4v-2.3c0-1.8-1.4-3.2-3.2-3.2c-1.7,0-3.2,1.4-3.2,3.1v2.4h-2.3c-1.8,0-3.2,1.4-3.2,3.2
					c-0.1,1.7,1.3,3.2,3.2,3.2h2.3v2.3c0,1.8,1.4,3.2,3.2,3.2c1.7,0,3.2-1.4,3.2-3.1v-2.4h2.3c1.8,0,3.2-1.4,3.2-3.2
					C232.315,50.6,230.915,49.1,229.215,49.1z"/>
			</g>
		</g>
		<g>
			<g>
				<path fill="#FC657E" d="M36.46,73.175c-3.1-0.6-5.6-3-6.2-6.1c0-0.1-0.3-0.1-0.3,0c-0.6,3.1-3.1,5.5-6.2,6.1
					c-0.1,0-0.1,0.2,0,0.3c3.1,0.6,5.6,3,6.2,6.1c0,0.1,0.3,0.1,0.3,0c0.6-3.1,3.1-5.5,6.2-6.1
					C36.56,73.375,36.56,73.175,36.46,73.175z"/>
			</g>
		</g>
		<g>
			<g>
				<circle fill="#87D147" cx="105.369" cy="252.6" r="3.4"/>
			</g>
		</g>
		<g>
			<g>
				<path fill="#F5C84C" d="M82.15,240.2c-4.5-0.8-8-4.3-8.9-8.7c0-0.2-0.4-0.2-0.4,0c-0.9,4.4-4.4,7.9-8.9,8.7
					c-0.2,0-0.2,0.3,0,0.4c4.5,0.8,8,4.3,8.9,8.7c0,0.2,0.4,0.2,0.4,0c0.9-4.4,4.4-7.9,8.9-8.7C82.35,240.5,82.35,240.2,82.15,240.2
					z"/>
			</g>
		</g>
		<g>
			<g>
				<path d="M192.142,0H63.858c-6.113,0-11.087,4.974-11.087,11.087v117.618c0,0.823,0.405,1.594,1.084,2.061l56.67,38.961
					c1.137,0.781,2.692,0.494,3.477-0.645c0.782-1.138,0.493-2.694-0.645-3.477L57.771,127.39V11.087C57.771,7.73,60.502,5,63.858,5
					h128.283c3.356,0,6.087,2.73,6.087,6.087V127.39l-55.661,38.268c-1.138,0.782-1.427,2.339-0.645,3.477
					c0.485,0.705,1.268,1.084,2.063,1.084c0.488,0,0.981-0.143,1.414-0.439l56.745-39.013c0.679-0.467,1.084-1.237,1.084-2.061
					V11.087C203.229,4.974,198.255,0,192.142,0z"/>
			</g>
		</g>
		<g>
			<g>
				<path d="M119.849,110.396h-48.03c-1.381,0-2.5,1.119-2.5,2.5s1.119,2.5,2.5,2.5h48.03c1.381,0,2.5-1.119,2.5-2.5
					S121.229,110.396,119.849,110.396z"/>
			</g>
		</g>
		<g>
			<g>
				<path d="M119.849,122.62h-48.03c-1.381,0-2.5,1.119-2.5,2.5s1.119,2.5,2.5,2.5h48.03c1.381,0,2.5-1.119,2.5-2.5
					S121.229,122.62,119.849,122.62z"/>
			</g>
		</g>
		<g>
			<g>
				<path d="M119.849,134.844h-48.03c-1.381,0-2.5,1.119-2.5,2.5s1.119,2.5,2.5,2.5h48.03c1.381,0,2.5-1.119,2.5-2.5
					S121.229,134.844,119.849,134.844z"/>
			</g>
		</g>
		<g>
			<g>
				<path d="M119.849,147.067H86c-1.381,0-2.5,1.119-2.5,2.5s1.119,2.5,2.5,2.5h33.849c1.381,0,2.5-1.119,2.5-2.5
					S121.229,147.067,119.849,147.067z"/>
			</g>
		</g>
		<g>
			<g>
				<g>
					<path d="M184.182,61.501h-48.03c-1.381,0-2.5,1.119-2.5,2.5s1.119,2.5,2.5,2.5h48.03c1.381,0,2.5-1.119,2.5-2.5
						S185.563,61.501,184.182,61.501z"/>
				</g>
			</g>
			<g>
				<g>
					<path d="M184.182,73.725h-48.03c-1.381,0-2.5,1.119-2.5,2.5s1.119,2.5,2.5,2.5h48.03c1.381,0,2.5-1.119,2.5-2.5
						S185.563,73.725,184.182,73.725z"/>
				</g>
			</g>
			<g>
				<g>
					<path d="M184.182,85.948h-48.03c-1.381,0-2.5,1.119-2.5,2.5s1.119,2.5,2.5,2.5h48.03c1.381,0,2.5-1.119,2.5-2.5
						S185.563,85.948,184.182,85.948z"/>
				</g>
			</g>
			<g>
				<g>
					<path d="M184.182,98.173h-48.03c-1.381,0-2.5,1.119-2.5,2.5s1.119,2.5,2.5,2.5h48.03c1.381,0,2.5-1.119,2.5-2.5
						S185.563,98.173,184.182,98.173z"/>
				</g>
			</g>
			<g>
				<g>
					<path d="M184.182,110.396h-48.03c-1.381,0-2.5,1.119-2.5,2.5s1.119,2.5,2.5,2.5h48.03c1.381,0,2.5-1.119,2.5-2.5
						S185.563,110.396,184.182,110.396z"/>
				</g>
			</g>
			<g>
				<g>
					<path d="M184.182,122.62h-48.03c-1.381,0-2.5,1.119-2.5,2.5s1.119,2.5,2.5,2.5h48.03c1.381,0,2.5-1.119,2.5-2.5
						S185.563,122.62,184.182,122.62z"/>
				</g>
			</g>
			<g>
				<g>
					<path d="M184.182,134.844h-48.03c-1.381,0-2.5,1.119-2.5,2.5s1.119,2.5,2.5,2.5h48.03c1.381,0,2.5-1.119,2.5-2.5
						S185.563,134.844,184.182,134.844z"/>
				</g>
			</g>
			<g>
				<g>
					<path d="M169.833,147.067h-33.682c-1.381,0-2.5,1.119-2.5,2.5s1.119,2.5,2.5,2.5h33.682c1.381,0,2.5-1.119,2.5-2.5
						S171.214,147.067,169.833,147.067z"/>
				</g>
			</g>
		</g>
		<g>
			<g>
				<g>
					<g>
						<path d="M183.088,14.5H72.912c-3.11,0-5.641,2.53-5.641,5.641v24.219c0,3.11,2.53,5.641,5.641,5.641h110.176
							c3.11,0,5.641-2.53,5.641-5.641V20.141C188.729,17.03,186.198,14.5,183.088,14.5z M183.729,44.359
							c0,0.354-0.287,0.641-0.641,0.641H72.912c-0.354,0-0.641-0.287-0.641-0.641V20.141c0-0.354,0.287-0.641,0.641-0.641h110.176
							c0.354,0,0.641,0.287,0.641,0.641V44.359z"/>
					</g>
				</g>
			</g>
		</g>
		<g>
			<g>
				<g>
					<g>
						<path d="M118.859,57.887H72.912c-3.11,0-5.641,2.531-5.641,5.642v33.548c0,3.11,2.53,5.641,5.641,5.641h45.947
							c3.11,0,5.641-2.53,5.641-5.641V63.528C124.5,60.418,121.97,57.887,118.859,57.887z M119.5,97.076
							c0,0.354-0.287,0.641-0.641,0.641H72.912c-0.354,0-0.641-0.287-0.641-0.641V63.528c0-0.354,0.287-0.642,0.641-0.642h45.947
							c0.354,0,0.641,0.288,0.641,0.642V97.076z"/>
					</g>
				</g>
			</g>
		</g>
		<g>
			<g>
				<path d="M208.061,92.105h-5.686c-1.381,0-2.5,1.119-2.5,2.5s1.119,2.5,2.5,2.5h5.686c4.189,0,7.598,3.408,7.598,7.598V212.5
					c0,4.189-3.408,7.598-7.598,7.598H47.939c-4.189,0-7.598-3.408-7.598-7.598V104.703c0-4.189,3.408-7.598,7.598-7.598h5.999
					c1.381,0,2.5-1.119,2.5-2.5s-1.119-2.5-2.5-2.5h-5.999c-6.946,0-12.598,5.651-12.598,12.598V212.5
					c0,6.946,5.651,12.598,12.598,12.598h160.121c6.946,0,12.598-5.651,12.598-12.598V104.703
					C220.658,97.757,215.007,92.105,208.061,92.105z"/>
			</g>
		</g>
		<g>
			<g>
				<path d="M56.688,126.645l-17.176-11.809c-1.138-0.78-2.693-0.494-3.477,0.645c-0.782,1.138-0.493,2.694,0.645,3.477
					l17.176,11.809c0.433,0.297,0.926,0.439,1.414,0.439c0.795,0,1.577-0.379,2.063-1.084
					C58.114,128.983,57.825,127.427,56.688,126.645z"/>
			</g>
		</g>
		<g>
			<g>
				<path d="M219.812,115.586c-0.784-1.139-2.34-1.426-3.477-0.645l-17.022,11.703c-1.138,0.782-1.427,2.339-0.645,3.477
					c0.485,0.705,1.268,1.084,2.063,1.084c0.488,0,0.981-0.143,1.414-0.439l17.022-11.703
					C220.305,118.28,220.594,116.724,219.812,115.586z"/>
			</g>
		</g>
		<g>
			<g>
				<path d="M217.552,215.629l-80.428-55.295c-5.456-3.75-12.79-3.75-18.248,0l-79.85,54.896c-1.138,0.782-1.427,2.339-0.645,3.477
					s2.339,1.424,3.477,0.645l79.85-54.896c3.764-2.588,8.82-2.586,12.584,0l80.428,55.295c0.433,0.297,0.926,0.439,1.414,0.439
					c0.795,0,1.577-0.379,2.063-1.084C218.979,217.968,218.689,216.411,217.552,215.629z"/>
			</g>
		</g>
	</g>
</g>
<g id="Layer_76">
</g>
<g id="Layer_77">
</g>
<g id="Layer_78">
</g>
<g id="Layer_79">
</g>
<g id="Layer_80">
</g>
</svg>
