<?xml version="1.0" encoding="utf-8"?>
<!-- Generator: Adobe Illustrator 24.0.0, SVG Export Plug-In . SVG Version: 6.00 Build 0)  -->
<svg version="1.1" xmlns="http://www.w3.org/2000/svg" xmlns:xlink="http://www.w3.org/1999/xlink" x="0px" y="0px"
	 viewBox="0 0 256 256" enable-background="new 0 0 256 256" xml:space="preserve">
<g id="Layer_1">
</g>
<g id="Layer_2">
</g>
<g id="Layer_3">
</g>
<g id="Layer_4">
</g>
<g id="Layer_5">
</g>
<g id="Layer_6">
</g>
<g id="Layer_7">
</g>
<g id="Layer_8">
</g>
<g id="Layer_9">
</g>
<g id="Layer_10">
</g>
<g id="Layer_11">
</g>
<g id="Layer_12">
</g>
<g id="Layer_13">
</g>
<g id="Layer_14">
</g>
<g id="Layer_15">
	<g>
		<g>
			<g>
				<path fill="#C7D7E5" d="M217.459,66.5h-26.071v170.068c0,9.249,7.568,17.103,16.815,16.929
					c8.967-0.168,16.185-7.49,16.185-16.497V73.429C224.387,69.602,221.285,66.5,217.459,66.5z"/>
			</g>
		</g>
		<g>
			<g>
				<path fill="#DAE6F1" d="M191.387,236.568V40.429c0-3.827-3.102-6.929-6.929-6.929H45.816c-3.827,0-6.929,3.102-6.929,6.929
					v194.935c0,10.017,8.12,18.137,18.137,18.137h151.179v-0.003C198.956,253.67,191.387,245.816,191.387,236.568z"/>
			</g>
		</g>
		<g>
			<g>
				<path fill="#FC657E" d="M173.683,48H56.593c-1.77,0-3.205,1.435-3.205,3.205v25.09c0,1.77,1.435,3.205,3.205,3.205h117.09
					c1.77,0,3.205-1.435,3.205-3.205v-25.09C176.888,49.435,175.453,48,173.683,48z"/>
			</g>
		</g>
		<g>
			<g>
				<path fill="#B2E26D" d="M104.94,197.473h-47.28c-2.359,0-4.272,1.912-4.272,4.272v27.375c0,2.359,1.913,4.272,4.272,4.272h47.28
					c2.359,0,4.272-1.912,4.272-4.272v-27.375C109.212,199.385,107.299,197.473,104.94,197.473z"/>
			</g>
		</g>
		<g>
			<g>
				<path fill="#F5C84C" d="M172.616,137.609h-46.542c-2.359,0-4.272,1.913-4.272,4.272v27.375c0,2.359,1.912,4.272,4.272,4.272
					h46.542c2.359,0,4.272-1.913,4.272-4.272v-27.375C176.888,139.521,174.975,137.609,172.616,137.609z"/>
			</g>
		</g>
		<g>
			<g>
				<path fill="#70D6F9" d="M173.683,106H56.593c-1.77,0-3.205,1.435-3.205,3.205v10.09c0,1.77,1.435,3.205,3.205,3.205h117.09
					c1.77,0,3.205-1.435,3.205-3.205v-10.09C176.888,107.435,175.453,106,173.683,106z"/>
			</g>
		</g>
		<g>
			<g>
				<path d="M109.212,135.109H56.593c-1.381,0-2.5,1.119-2.5,2.5s1.119,2.5,2.5,2.5h52.619c1.381,0,2.5-1.119,2.5-2.5
					S110.593,135.109,109.212,135.109z"/>
			</g>
		</g>
		<g>
			<g>
				<path d="M109.212,147.082H56.593c-1.381,0-2.5,1.119-2.5,2.5s1.119,2.5,2.5,2.5h52.619c1.381,0,2.5-1.119,2.5-2.5
					S110.593,147.082,109.212,147.082z"/>
			</g>
		</g>
		<g>
			<g>
				<path d="M109.212,159.055H56.593c-1.381,0-2.5,1.119-2.5,2.5s1.119,2.5,2.5,2.5h52.619c1.381,0,2.5-1.119,2.5-2.5
					S110.593,159.055,109.212,159.055z"/>
			</g>
		</g>
		<g>
			<g>
				<path d="M109.212,183H56.593c-1.381,0-2.5,1.119-2.5,2.5s1.119,2.5,2.5,2.5h52.619c1.381,0,2.5-1.119,2.5-2.5
					S110.593,183,109.212,183z"/>
			</g>
		</g>
		<g>
			<g>
				<path d="M109.212,171.027H56.593c-1.381,0-2.5,1.119-2.5,2.5s1.119,2.5,2.5,2.5h52.619c1.381,0,2.5-1.119,2.5-2.5
					S110.593,171.027,109.212,171.027z"/>
			</g>
		</g>
		<g>
			<g>
				<path d="M174.421,194.973h-52.619c-1.381,0-2.5,1.119-2.5,2.5s1.119,2.5,2.5,2.5h52.619c1.381,0,2.5-1.119,2.5-2.5
					S175.802,194.973,174.421,194.973z"/>
			</g>
		</g>
		<g>
			<g>
				<path d="M174.421,183h-52.619c-1.381,0-2.5,1.119-2.5,2.5s1.119,2.5,2.5,2.5h52.619c1.381,0,2.5-1.119,2.5-2.5
					S175.802,183,174.421,183z"/>
			</g>
		</g>
		<g>
			<g>
				<path d="M174.421,206.945h-52.619c-1.381,0-2.5,1.119-2.5,2.5s1.119,2.5,2.5,2.5h52.619c1.381,0,2.5-1.119,2.5-2.5
					S175.802,206.945,174.421,206.945z"/>
			</g>
		</g>
		<g>
			<g>
				<path d="M174.421,218.918h-52.619c-1.381,0-2.5,1.119-2.5,2.5s1.119,2.5,2.5,2.5h52.619c1.381,0,2.5-1.119,2.5-2.5
					S175.802,218.918,174.421,218.918z"/>
			</g>
		</g>
		<g>
			<g>
				<path d="M174.421,230.891h-52.619c-1.381,0-2.5,1.119-2.5,2.5s1.119,2.5,2.5,2.5h52.619c1.381,0,2.5-1.119,2.5-2.5
					S175.802,230.891,174.421,230.891z"/>
			</g>
		</g>
		<g>
			<g>
				<path fill="#87D147" d="M22.692,138.1h-2.4v-2.3c0-1.8-1.4-3.2-3.2-3.2c-1.7,0-3.2,1.4-3.2,3.1v2.4h-2.3c-1.8,0-3.2,1.4-3.2,3.2
					c-0.1,1.7,1.3,3.2,3.2,3.2h2.3v2.3c0,1.8,1.4,3.2,3.2,3.2c1.7,0,3.2-1.4,3.2-3.1v-2.4h2.3c1.8,0,3.2-1.4,3.2-3.2
					C25.792,139.6,24.392,138.1,22.692,138.1z"/>
			</g>
		</g>
		<g>
			<g>
				<path fill="#70D6F9" d="M247.538,93.175c-3.1-0.6-5.6-3-6.2-6.1c0-0.1-0.3-0.1-0.3,0c-0.6,3.1-3.1,5.5-6.2,6.1
					c-0.1,0-0.1,0.2,0,0.3c3.1,0.6,5.6,3,6.2,6.1c0,0.1,0.3,0.1,0.3,0c0.6-3.1,3.1-5.5,6.2-6.1
					C247.638,93.375,247.638,93.175,247.538,93.175z"/>
			</g>
		</g>
		<g>
			<g>
				<path fill="#F5C84C" d="M23.756,170c-1.878,0-3.4,1.522-3.4,3.4c0,1.878,1.522,3.4,3.4,3.4c1.878,0,3.4-1.522,3.4-3.4
					C27.156,171.522,25.634,170,23.756,170z"/>
			</g>
		</g>
		<g>
			<g>
				<path fill="#FC657E" d="M166.756,0c-1.878,0-3.4,1.522-3.4,3.4c0,1.878,1.522,3.4,3.4,3.4c1.878,0,3.4-1.522,3.4-3.4
					C170.156,1.522,168.634,0,166.756,0z"/>
			</g>
		</g>
		<g>
			<g>
				<path fill="#F5C84C" d="M210.538,19.2c-4.5-0.8-8-4.3-8.9-8.7c0-0.2-0.4-0.2-0.4,0c-0.9,4.4-4.4,7.9-8.9,8.7
					c-0.2,0-0.2,0.3,0,0.4c4.5,0.8,8,4.3,8.9,8.7c0,0.2,0.4,0.2,0.4,0c0.9-4.4,4.4-7.9,8.9-8.7
					C210.738,19.5,210.738,19.2,210.538,19.2z"/>
			</g>
		</g>
		<g>
			<g>
				<path d="M217.459,64h-24.834c-1.381,0-2.5,1.119-2.5,2.5s1.119,2.5,2.5,2.5h24.834c2.442,0,4.429,1.987,4.429,4.429V237
					c0,7.577-6.16,13.855-13.731,13.998c-1.381,0.026-2.479,1.166-2.453,2.546c0.026,1.364,1.14,2.453,2.499,2.453
					c0.016,0,0.032,0,0.048,0c10.276-0.192,18.638-8.714,18.638-18.997V73.429C226.888,68.229,222.658,64,217.459,64z"/>
			</g>
		</g>
		<g>
			<g>
				<g>
					<g>
						<path d="M209.954,251.713c-0.479-0.471-1.12-0.747-1.798-0.715c-3.651,0.063-7.165-1.354-9.865-4.004
							c-2.798-2.747-4.403-6.547-4.403-10.426V40.429c0-5.199-4.229-9.429-9.429-9.429H45.816c-5.199,0-9.429,4.229-9.429,9.429
							v194.935c0,11.379,9.258,20.637,20.637,20.637h151.179c1.381,0,2.5-1.122,2.5-2.503
							C210.703,252.826,210.434,252.183,209.954,251.713z M57.024,251c-8.622,0-15.637-7.015-15.637-15.637V40.429
							c0-2.442,1.986-4.429,4.429-4.429h138.643c2.442,0,4.429,1.987,4.429,4.429v196.139c0,5.213,2.151,10.314,5.901,13.995
							c0.151,0.149,0.305,0.295,0.461,0.438H57.024z"/>
					</g>
				</g>
			</g>
		</g>
		<g>
			<g>
				<path d="M173.683,90.25H56.593c-1.381,0-2.5,1.119-2.5,2.5s1.119,2.5,2.5,2.5h117.09c1.381,0,2.5-1.119,2.5-2.5
					S175.063,90.25,173.683,90.25z"/>
			</g>
		</g>
		<g>
			<g>
				<g>
					<g>
						<path d="M173.683,45.5H56.593c-3.146,0-5.705,2.559-5.705,5.705v25.09c0,3.146,2.56,5.705,5.705,5.705h117.09
							c3.146,0,5.705-2.559,5.705-5.705v-25.09C179.388,48.059,176.828,45.5,173.683,45.5z M174.388,76.295
							c0,0.389-0.316,0.705-0.705,0.705H56.593c-0.389,0-0.705-0.316-0.705-0.705v-25.09c0-0.389,0.316-0.705,0.705-0.705h117.09
							c0.389,0,0.705,0.316,0.705,0.705V76.295z"/>
					</g>
				</g>
			</g>
		</g>
		<g>
			<g>
				<g>
					<g>
						<path d="M104.939,194.973h-47.28c-3.733,0-6.771,3.038-6.771,6.772v27.375c0,3.734,3.038,6.772,6.771,6.772h47.28
							c3.734,0,6.772-3.038,6.772-6.772v-27.375C111.712,198.011,108.674,194.973,104.939,194.973z M106.712,229.119
							c0,0.977-0.795,1.772-1.772,1.772h-47.28c-0.977,0-1.771-0.795-1.771-1.772v-27.375c0-0.977,0.795-1.772,1.771-1.772h47.28
							c0.978,0,1.772,0.795,1.772,1.772V229.119z"/>
					</g>
				</g>
			</g>
		</g>
		<g>
			<g>
				<g>
					<g>
						<path d="M172.616,135.109h-46.543c-3.733,0-6.771,3.038-6.771,6.772v27.375c0,3.734,3.038,6.772,6.771,6.772h46.543
							c3.733,0,6.771-3.038,6.771-6.772v-27.375C179.388,138.147,176.35,135.109,172.616,135.109z M174.388,169.255
							c0,0.977-0.795,1.772-1.771,1.772h-46.543c-0.977,0-1.771-0.795-1.771-1.772v-27.375c0-0.977,0.795-1.772,1.771-1.772h46.543
							c0.977,0,1.771,0.795,1.771,1.772V169.255z"/>
					</g>
				</g>
			</g>
		</g>
		<g>
			<g>
				<g>
					<g>
						<path d="M173.683,103.5H56.593c-3.146,0-5.705,2.559-5.705,5.705v10.09c0,3.146,2.56,5.705,5.705,5.705h117.09
							c3.146,0,5.705-2.559,5.705-5.705v-10.09C179.388,106.059,176.828,103.5,173.683,103.5z M174.388,119.295
							c0,0.389-0.316,0.705-0.705,0.705H56.593c-0.389,0-0.705-0.316-0.705-0.705v-10.09c0-0.389,0.316-0.705,0.705-0.705h117.09
							c0.389,0,0.705,0.316,0.705,0.705V119.295z"/>
					</g>
				</g>
			</g>
		</g>
	</g>
</g>
<g id="Layer_16">
</g>
<g id="Layer_17">
</g>
<g id="Layer_18">
</g>
<g id="Layer_19">
</g>
<g id="Layer_20">
</g>
<g id="Layer_21">
</g>
<g id="Layer_22">
</g>
<g id="Layer_23">
</g>
<g id="Layer_24">
</g>
<g id="Layer_25">
</g>
<g id="Layer_26">
</g>
<g id="Layer_27">
</g>
<g id="Layer_28">
</g>
<g id="Layer_29">
</g>
<g id="Layer_30">
</g>
<g id="Layer_31">
</g>
<g id="Layer_32">
</g>
<g id="Layer_33">
</g>
<g id="Layer_34">
</g>
<g id="Layer_35">
</g>
<g id="Layer_36">
</g>
<g id="Layer_37">
</g>
<g id="Layer_38">
</g>
<g id="Layer_39">
</g>
<g id="Layer_40">
</g>
<g id="Layer_41">
</g>
<g id="Layer_42">
</g>
<g id="Layer_43">
</g>
<g id="Layer_44">
</g>
<g id="Layer_45">
</g>
<g id="Layer_46">
</g>
<g id="Layer_47">
</g>
<g id="Layer_48">
</g>
<g id="Layer_49">
</g>
<g id="Layer_50">
</g>
<g id="Layer_51">
</g>
<g id="Layer_52">
</g>
<g id="Layer_53">
</g>
<g id="Layer_54">
</g>
<g id="Layer_55">
</g>
<g id="Layer_56">
</g>
<g id="Layer_57">
</g>
<g id="Layer_58">
</g>
<g id="Layer_59">
</g>
<g id="Layer_60">
</g>
<g id="Layer_61">
</g>
<g id="Layer_62">
</g>
<g id="Layer_63">
</g>
<g id="Layer_64">
</g>
<g id="Layer_65">
</g>
<g id="Layer_66">
</g>
<g id="Layer_67">
</g>
<g id="Layer_68">
</g>
<g id="Layer_69">
</g>
<g id="Layer_70">
</g>
<g id="Layer_71">
</g>
<g id="Layer_72">
</g>
<g id="Layer_73">
</g>
<g id="Layer_74">
</g>
<g id="Layer_75">
</g>
<g id="Layer_76">
</g>
<g id="Layer_77">
</g>
<g id="Layer_78">
</g>
<g id="Layer_79">
</g>
<g id="Layer_80">
</g>
</svg>
