<?xml version="1.0" encoding="utf-8"?>
<!-- Generator: Adobe Illustrator 24.0.0, SVG Export Plug-In . SVG Version: 6.00 Build 0)  -->
<svg version="1.1" xmlns="http://www.w3.org/2000/svg" xmlns:xlink="http://www.w3.org/1999/xlink" x="0px" y="0px"
	 viewBox="0 0 256 256" enable-background="new 0 0 256 256" xml:space="preserve">
<g id="Layer_1">
</g>
<g id="Layer_2">
</g>
<g id="Layer_3">
</g>
<g id="Layer_4">
</g>
<g id="Layer_5">
</g>
<g id="Layer_6">
</g>
<g id="Layer_7">
</g>
<g id="Layer_8">
</g>
<g id="Layer_9">
</g>
<g id="Layer_10">
</g>
<g id="Layer_11">
</g>
<g id="Layer_12">
</g>
<g id="Layer_13">
</g>
<g id="Layer_14">
</g>
<g id="Layer_15">
</g>
<g id="Layer_16">
</g>
<g id="Layer_17">
</g>
<g id="Layer_18">
</g>
<g id="Layer_19">
</g>
<g id="Layer_20">
</g>
<g id="Layer_21">
</g>
<g id="Layer_22">
</g>
<g id="Layer_23">
	<g>
		<g>
			<g>
				<path fill="#5290DB" d="M247.265,243.915l-11.339-2.854c-6.01-1.513-10.736-4.105-10.675-4.074
					c-2.471-1.218-4.036-3.734-4.036-6.489c0-0.322,0-3.509,0-3.408c-2.892,1.514-6.174,2.376-9.649,2.376h0
					c-3.475,0-6.756-0.862-9.649-2.376c0,0.351,0,3.526,0,3.408c0,2.751-1.561,5.269-4.028,6.485
					c-3.342,1.648-6.257,2.964-10.683,4.078l-11.339,2.854c-3.226,0.812-5.598,3.474-6.118,6.705
					c27.416,7.171,56.216,7.171,83.632,0C252.863,247.389,250.492,244.727,247.265,243.915z"/>
			</g>
		</g>
		<g>
			<g>
				<path fill="#F9D0B4" d="M229.519,183.472c-1.369-1.436-3.596-1.568-5.157-0.343c-2.468,1.937-6.739,4.332-12.771,4.332
					c-6.047,0-10.34-2.406-12.819-4.346c-1.56-1.221-3.782-1.084-5.149,0.35l-0.007,0.008c-1.921,2.014-2.992,4.69-2.992,7.473
					v17.577c0,11.519,9.425,20.944,20.944,20.944h0c11.519,0,20.944-9.425,20.944-20.944v-17.577
					C232.511,188.162,231.439,185.486,229.519,183.472z"/>
			</g>
		</g>
		<g>
			<g>
				<path fill="#F9D0B4" d="M233.855,192.56c-0.458,0-0.906,0.039-1.344,0.107v15.855c0,0.472-0.022,0.94-0.053,1.405
					c0.456,0.073,0.92,0.122,1.397,0.122c4.829,0,8.744-3.915,8.744-8.744S238.684,192.56,233.855,192.56z"/>
			</g>
		</g>
		<g>
			<g>
				<path fill="#F9D0B4" d="M190.624,208.522v-15.855c-0.438-0.068-0.886-0.107-1.344-0.107c-4.829,0-8.744,3.915-8.744,8.744
					s3.915,8.744,8.744,8.744c0.477,0,0.941-0.049,1.397-0.122v0C190.645,209.461,190.624,208.994,190.624,208.522z"/>
			</g>
		</g>
		<g>
			<g>
				<path fill="#FCE4BE" d="M232.433,174.695c-0.701,0-1.309-0.541-1.319-1.242c-0.161-11.67-13.487-13.863-26.759-11.571
					c-11.252,1.943-19.476,11.701-19.476,23.119v8.756c1.294-0.756,2.795-1.197,4.402-1.197c0.458,0,0.906,0.039,1.344,0.107v-1.722
					c0-2.783,1.071-5.459,2.992-7.473l0.007-0.008c1.367-1.433,3.589-1.57,5.149-0.35c2.479,1.94,6.772,4.346,12.819,4.346
					c6.032,0,10.303-2.395,12.771-4.332c1.561-1.225,3.788-1.093,5.157,0.343c1.921,2.014,2.992,4.69,2.992,7.473v1.722
					c0.438-0.068,0.886-0.107,1.344-0.107c1.626,0,3.143,0.452,4.448,1.225v-7.189C238.303,176.146,234.529,174.695,232.433,174.695
					z"/>
			</g>
		</g>
		<g>
			<g>
				<path fill="#70D6F9" d="M163.698,85.342l-11.339-2.854c-6.01-1.513-10.736-4.105-10.675-4.074
					c-2.471-1.218-4.036-3.734-4.036-6.489v-3.408c-2.893,1.514-6.174,2.376-9.649,2.376h0c-3.475,0-6.756-0.862-9.649-2.376v3.408
					c0,2.751-1.561,5.269-4.028,6.485c-3.342,1.648-6.257,2.964-10.683,4.078l-11.339,2.854c-3.508,0.883-6.034,3.944-6.235,7.555h0
					c26.994,10.366,56.871,10.366,83.865,0h0C169.732,89.286,167.206,86.225,163.698,85.342z"/>
			</g>
		</g>
		<g>
			<g>
				<path fill="#F9D0B4" d="M145.952,24.899c-1.37-1.436-3.596-1.568-5.157-0.343c-2.468,1.937-6.739,4.332-12.771,4.332
					c-6.047,0-10.34-2.406-12.819-4.346c-1.56-1.221-3.782-1.084-5.149,0.35l-0.007,0.008c-1.921,2.014-2.992,4.69-2.992,7.473
					v17.577c0,11.519,9.425,20.944,20.944,20.944c11.519,0,20.944-9.425,20.944-20.944V32.372
					C148.944,29.589,147.872,26.913,145.952,24.899z"/>
			</g>
		</g>
		<g>
			<g>
				<path fill="#F9D0B4" d="M150.288,33.987c-0.458,0-0.906,0.039-1.344,0.107v15.855c0,0.472-0.022,0.94-0.053,1.405
					c0.456,0.073,0.92,0.122,1.397,0.122c4.829,0,8.744-3.915,8.744-8.744S155.117,33.987,150.288,33.987z"/>
			</g>
		</g>
		<g>
			<g>
				<path fill="#F9D0B4" d="M107.056,49.949V34.094c-0.438-0.068-0.886-0.107-1.344-0.107c-4.829,0-8.744,3.915-8.744,8.744
					s3.915,8.744,8.744,8.744c0.477,0,0.941-0.049,1.397-0.122v0C107.078,50.889,107.056,50.421,107.056,49.949z"/>
			</g>
		</g>
		<g>
			<g>
				<path fill="#5B5D60" d="M148.865,16.122c-0.701,0-1.309-0.541-1.319-1.242c-0.161-11.67-13.487-13.863-26.759-11.571
					c-11.252,1.943-19.476,11.701-19.476,23.119v8.756c1.294-0.756,2.795-1.197,4.402-1.197c0.458,0,0.906,0.039,1.344,0.107v-1.722
					c0-2.783,1.071-5.459,2.992-7.473l0.007-0.008c1.367-1.433,3.589-1.57,5.149-0.35c2.479,1.94,6.772,4.346,12.819,4.346
					c6.032,0,10.303-2.395,12.771-4.332c1.561-1.225,3.788-1.093,5.157,0.343c1.92,2.014,2.992,4.69,2.992,7.473v1.722
					c0.438-0.068,0.886-0.107,1.344-0.107c1.626,0,3.143,0.452,4.448,1.225v-7.189C154.735,17.574,150.962,16.122,148.865,16.122z"
					/>
			</g>
		</g>
		<g>
			<g>
				<path fill="#F5C84C" d="M80.131,243.915l-11.339-2.854c-6.01-1.513-10.736-4.105-10.675-4.074
					c-2.471-1.218-4.036-3.734-4.036-6.489v-3.408c-2.892,1.514-6.174,2.376-9.649,2.376s-6.756-0.862-9.649-2.376v3.408
					c0,2.751-1.56,5.269-4.028,6.485c-3.342,1.648-6.258,2.964-10.683,4.078l-11.339,2.854c-3.281,0.826-5.677,3.566-6.141,6.871
					c44.602,11.29,77.92,0.703,83.678,0.001C85.809,247.481,83.412,244.741,80.131,243.915z"/>
			</g>
		</g>
		<g>
			<g>
				<path fill="#F9D0B4" d="M62.384,183.472c-1.37-1.436-3.596-1.568-5.157-0.343c-2.468,1.937-6.739,4.332-12.771,4.332
					c-6.047,0-10.34-2.406-12.819-4.346c-1.56-1.221-3.782-1.084-5.149,0.35l-0.007,0.008c-1.92,2.014-2.992,4.69-2.992,7.473
					v17.577c0,11.519,9.425,20.944,20.944,20.944c11.519,0,20.944-9.425,20.944-20.944v-17.577
					C65.376,188.162,64.305,185.486,62.384,183.472z"/>
			</g>
		</g>
		<g>
			<g>
				<path fill="#F9D0B4" d="M66.72,192.56c-0.458,0-0.906,0.039-1.344,0.107v15.855c0,0.472-0.022,0.94-0.053,1.405
					c0.456,0.073,0.92,0.122,1.397,0.122c4.829,0,8.744-3.915,8.744-8.744S71.55,192.56,66.72,192.56z"/>
			</g>
		</g>
		<g>
			<g>
				<path fill="#F9D0B4" d="M23.489,208.522v-15.855c-0.438-0.068-0.886-0.107-1.344-0.107c-4.829,0-8.744,3.915-8.744,8.744
					s3.915,8.744,8.744,8.744c0.477,0,0.941-0.049,1.397-0.122v0C23.511,209.461,23.489,208.994,23.489,208.522z"/>
			</g>
		</g>
		<g>
			<g>
				<path fill="#754E34" d="M65.298,174.695c-0.701,0-1.309-0.541-1.319-1.242c-0.161-11.67-13.487-13.863-26.759-11.571
					c-11.252,1.943-19.476,11.701-19.476,23.119v8.756c1.294-0.756,2.795-1.197,4.402-1.197c0.458,0,0.906,0.039,1.344,0.107v-1.722
					c0-2.783,1.071-5.459,2.992-7.473l0.007-0.008c1.367-1.433,3.589-1.57,5.149-0.35c2.479,1.94,6.772,4.346,12.819,4.346
					c6.032,0,10.303-2.395,12.771-4.332c1.561-1.225,3.788-1.093,5.157,0.343c1.921,2.014,2.992,4.69,2.992,7.473v1.722
					c0.438-0.068,0.886-0.107,1.344-0.107c1.626,0,3.143,0.452,4.448,1.225v-7.189C71.168,176.146,67.395,174.695,65.298,174.695z"
					/>
			</g>
		</g>
		<g>
			<g>
				<path fill="#F9D0B4" d="M148.751,193.838c-0.426,0-0.843,0.036-1.251,0.099v14.762c0,0.44-0.02,0.875-0.049,1.308
					c0.424,0.068,0.857,0.113,1.3,0.113c4.496,0,8.141-3.645,8.141-8.141C156.892,197.483,153.247,193.838,148.751,193.838z"/>
			</g>
		</g>
		<g>
			<g>
				<path fill="#F9D0B4" d="M146.3,191.46c-1.973-0.457-4.369-1.6-7.115-4.095c-0.543-0.493-1.381-0.453-1.858,0.104
					c-2.97,3.466-13.5,13.983-28.826,9.617v11.612c0,10.725,8.775,19.499,19.499,19.499c10.725,0,19.499-8.775,19.499-19.499
					v-15.753C147.499,192.229,146.998,191.622,146.3,191.46z"/>
			</g>
		</g>
		<g>
			<g>
				<path fill="#F9D0B4" d="M108.501,208.699v-11.612c-1.339-0.381-2.714-0.875-4.124-1.498c-0.909-0.401-1.971-0.217-2.696,0.463
					c-1.582,1.483-2.572,3.587-2.572,5.927c0,4.496,3.645,8.141,8.141,8.141c0.444,0,0.876-0.045,1.3-0.113
					C108.521,209.574,108.501,209.139,108.501,208.699z"/>
			</g>
		</g>
		<g>
			<g>
				<path fill="#FCA265" d="M128,164.947c-14.584,0-26.516,11.932-26.516,26.516v4.792c0.066-0.067,0.127-0.138,0.196-0.202
					c0.725-0.68,1.787-0.865,2.696-0.463c1.41,0.623,2.785,1.116,4.124,1.498c15.326,4.365,25.856-6.151,28.826-9.617
					c0.477-0.557,1.315-0.598,1.858-0.104c2.746,2.495,5.142,3.638,7.115,4.095c0.698,0.162,1.199,0.769,1.199,1.485v0.992
					c0.408-0.063,0.825-0.099,1.251-0.099c2.253,0,4.291,0.915,5.765,2.394v-4.769C154.516,176.879,142.583,164.947,128,164.947z"/>
			</g>
		</g>
		<g>
			<g>
				<path fill="#FC657E" d="M162.435,243.748l-3.876-0.978c-0.363-0.092-9.591-2.421-10.067-2.541
					c-1.165-0.293-2.296-0.709-3.373-1.24l-4.821-2.377c-3.407-1.68-2.997-5.221-3.024-5.321v-5.454
					c-2.762,1.505-5.923,2.362-9.275,2.362c-3.351,0-6.513-0.857-9.275-2.362v5.454c-0.027,0.1,0.36,3.652-3.024,5.321l-4.821,2.377
					c-1.078,0.531-2.208,0.947-3.373,1.24c-0.069,0.017-10.003,2.525-10.067,2.541l-3.876,0.978
					c-3.247,0.817-5.601,3.57-5.971,6.866c26.459,7.181,54.352,7.181,80.811,0C168.036,247.318,165.681,244.565,162.435,243.748z"/>
			</g>
		</g>
		<g>
			<g>
				<path fill="#FCA265" d="M155.313,221.05c3.724-5.841,1.965-11.528,0.323-14.74c-1.442,2.286-3.982,3.81-6.885,3.81
					c-0.444,0-0.876-0.045-1.3-0.113c-0.458,6.822-4.461,12.714-10.175,15.829v5.913c0,1.893,0.993,3.626,2.585,4.606
					c0.638,0.393-0.172-0.068,5.26,2.633c0.731,0.36,1.696,0.742,2.44,0.975c0.148,0.046,0.297,0.087,0.446,0.129
					c2.87-1.05,5.401-2.718,7.041-5.314c3.007-4.761,1.252-9.374,0.146-11.438C154.803,222.614,154.87,221.744,155.313,221.05z"/>
			</g>
		</g>
		<g>
			<g>
				<path fill="#FCA265" d="M108.55,210.007c-0.424,0.068-0.857,0.113-1.3,0.113c-2.902,0-5.443-1.523-6.884-3.81
					c-1.643,3.212-3.402,8.899,0.322,14.74c0.443,0.694,0.51,1.564,0.121,2.289c-1.107,2.065-2.861,6.678,0.146,11.438
					c1.64,2.597,4.172,4.264,7.041,5.314c0.149-0.042,0.298-0.082,0.446-0.129c0.744-0.233,1.709-0.615,2.44-0.975
					c5.784-2.877,4.67-2.27,5.26-2.633c1.591-0.98,2.585-2.713,2.585-4.606v-5.913C113.011,222.721,109.008,216.829,108.55,210.007z
					"/>
			</g>
		</g>
		<g>
			<g>
				<path fill="#9BE5F9" d="M141.684,78.414c-0.495-0.244-0.942-0.552-1.358-0.892l-8.403,9.621
					c-0.659,0.755-0.582,1.901,0.173,2.56l5.469,4.777c0.755,0.659,1.901,0.582,2.56-0.173l10.691-12.24
					C145.562,80.54,141.628,78.386,141.684,78.414z"/>
			</g>
		</g>
		<g>
			<g>
				<path fill="#9BE5F9" d="M124.077,87.143l-8.403-9.621c-0.417,0.34-0.864,0.648-1.358,0.892
					c-2.932,1.446-5.539,2.636-9.126,3.659l10.686,12.234c0.659,0.755,1.805,0.832,2.56,0.173l5.469-4.777
					C124.659,89.044,124.736,87.898,124.077,87.143z"/>
			</g>
		</g>
		<g>
			<g>
				<path fill="#F9D0B4" d="M137.649,71.925v-3.409c-2.893,1.514-6.174,2.376-9.649,2.376h0c-3.475,0-6.756-0.862-9.649-2.376v3.409
					c0,2.203-1.012,4.241-2.677,5.597l8.403,9.621c0.251,0.287,0.393,0.631,0.434,0.982h6.977c0.041-0.352,0.184-0.695,0.434-0.982
					l8.403-9.621C138.661,76.166,137.649,74.128,137.649,71.925z"/>
			</g>
		</g>
		<g>
			<g>
				<path fill="#6CADEF" d="M225.252,236.987c-0.495-0.244-0.942-0.552-1.358-0.892l-8.403,9.621
					c-0.659,0.755-0.582,1.901,0.173,2.56l5.469,4.777c0.755,0.659,1.901,0.582,2.56-0.173l10.691-12.24
					C229.129,239.112,225.195,236.959,225.252,236.987z"/>
			</g>
		</g>
		<g>
			<g>
				<path fill="#6CADEF" d="M207.644,245.716l-8.403-9.621c-0.417,0.34-0.864,0.648-1.358,0.892
					c-2.932,1.446-5.539,2.636-9.126,3.659l10.686,12.234c0.659,0.755,1.805,0.832,2.56,0.173l5.469-4.777
					C208.226,247.616,208.304,246.47,207.644,245.716z"/>
			</g>
		</g>
		<g>
			<g>
				<path fill="#F9D0B4" d="M221.216,230.497v-3.409c-2.893,1.514-6.174,2.376-9.649,2.376h0c-3.475,0-6.756-0.862-9.649-2.376
					v3.409c0,2.203-1.012,4.241-2.677,5.597l8.403,9.621c0.251,0.287,0.393,0.631,0.434,0.982h6.977
					c0.041-0.352,0.184-0.695,0.434-0.982l8.403-9.621C222.228,234.739,221.216,232.701,221.216,230.497z"/>
			</g>
		</g>
		<g>
			<g>
				<path fill="#FCDD86" d="M58.117,236.987c-0.495-0.244-0.942-0.552-1.358-0.892l-8.403,9.621
					c-0.659,0.755-0.582,1.901,0.173,2.56l5.469,4.777c0.755,0.659,1.901,0.582,2.56-0.173l10.691-12.24
					C61.995,239.112,58.061,236.959,58.117,236.987z"/>
			</g>
		</g>
		<g>
			<g>
				<path fill="#FCDD86" d="M40.51,245.716l-8.403-9.621c-0.417,0.34-0.864,0.648-1.358,0.892c-2.932,1.446-5.539,2.636-9.126,3.659
					l10.686,12.234c0.659,0.755,1.805,0.832,2.56,0.173l5.469-4.777C41.092,247.616,41.169,246.47,40.51,245.716z"/>
			</g>
		</g>
		<g>
			<g>
				<path fill="#F9D0B4" d="M54.081,230.497v-3.409c-2.893,1.514-6.174,2.376-9.649,2.376h0c-3.475,0-6.756-0.862-9.649-2.376v3.409
					c0,2.203-1.012,4.241-2.677,5.597l8.403,9.621c0.251,0.287,0.393,0.631,0.434,0.982h6.977c0.041-0.352,0.184-0.695,0.434-0.982
					l8.403-9.621C55.094,234.739,54.081,232.701,54.081,230.497z"/>
			</g>
		</g>
		<g>
			<g>
				<path fill="#F98FA6" d="M122.799,246.35l-8.443-9.075l-3.475,1.713c-1.078,0.531-2.208,0.947-3.373,1.24
					c-0.026,0.007-1.495,0.377-3.302,0.833l3.646,7.872c2.25,4.857,8.586,6.101,12.506,2.455l2.339-2.176
					C123.515,248.451,123.561,247.169,122.799,246.35z"/>
			</g>
		</g>
		<g>
			<g>
				<path fill="#F98FA6" d="M148.493,240.229c-1.165-0.293-2.296-0.709-3.373-1.24l-3.475-1.713l-8.443,9.075
					c-0.762,0.819-0.716,2.101,0.103,2.863l2.339,2.176c3.919,3.646,10.256,2.402,12.506-2.455l3.646-7.872
					C150.083,240.63,148.671,240.273,148.493,240.229z"/>
			</g>
		</g>
		<g>
			<g>
				<path fill="#F9D0B4" d="M140.299,236.611c-1.851-0.913-3.024-2.798-3.024-4.862v-5.913c-2.762,1.506-5.923,2.363-9.275,2.363
					c-3.351,0-6.513-0.857-9.275-2.363v5.913c0,2.064-1.172,3.949-3.024,4.862l-1.346,0.664l8.443,9.075
					c0.253,0.272,0.409,0.596,0.485,0.934h9.433c0.076-0.338,0.232-0.663,0.485-0.934l8.443-9.075L140.299,236.611z"/>
			</g>
		</g>
		<g>
			<g>
				<path fill="#70D6F9" d="M213.906,83.1h-2.4v-2.3c0-1.8-1.4-3.2-3.2-3.2c-1.7,0-3.2,1.4-3.2,3.1v2.4h-2.3c-1.8,0-3.2,1.4-3.2,3.2
					c-0.1,1.7,1.3,3.2,3.2,3.2h2.3v2.3c0,1.8,1.4,3.2,3.2,3.2c1.7,0,3.2-1.4,3.2-3.1v-2.4h2.3c1.8,0,3.2-1.4,3.2-3.2
					C217.006,84.6,215.606,83.1,213.906,83.1z"/>
			</g>
		</g>
		<g>
			<g>
				<path fill="#F5C84C" d="M226.206,105.5c-1.878,0-3.4,1.522-3.4,3.4c0,1.878,1.522,3.4,3.4,3.4c1.878,0,3.4-1.522,3.4-3.4
					C229.606,107.022,228.083,105.5,226.206,105.5z"/>
			</g>
		</g>
		<g>
			<g>
				<path fill="#FC657E" d="M30.15,112.175c-3.1-0.6-5.6-3-6.2-6.1c0-0.1-0.3-0.1-0.3,0c-0.6,3.1-3.1,5.5-6.2,6.1
					c-0.1,0-0.1,0.2,0,0.3c3.1,0.6,5.6,3,6.2,6.1c0,0.1,0.3,0.1,0.3,0c0.6-3.1,3.1-5.5,6.2-6.1
					C30.25,112.375,30.25,112.175,30.15,112.175z"/>
			</g>
		</g>
		<g>
			<g>
				<path fill="#87D147" d="M85.369,0c-1.878,0-3.4,1.522-3.4,3.4c0,1.878,1.522,3.4,3.4,3.4c1.878,0,3.4-1.522,3.4-3.4
					C88.769,1.522,87.246,0,85.369,0z"/>
			</g>
		</g>
		<g>
			<g>
				<path fill="#F5C84C" d="M71.15,27.2c-4.5-0.8-8-4.3-8.9-8.7c0-0.2-0.4-0.2-0.4,0c-0.9,4.4-4.4,7.9-8.9,8.7c-0.2,0-0.2,0.3,0,0.4
					c4.5,0.8,8,4.3,8.9,8.7c0,0.2,0.4,0.2,0.4,0c0.9-4.4,4.4-7.9,8.9-8.7C71.35,27.5,71.35,27.2,71.15,27.2z"/>
			</g>
		</g>
		<g>
			<g>
				<path d="M201.919,224.958c-1.381,0-2.5,1.119-2.5,2.5v3.039c0,1.816-1.013,3.443-2.642,4.247
					c-3.016,1.487-5.863,2.806-10.18,3.893l-11.339,2.854c-4.594,1.156-7.856,5.11-8.12,9.84c-0.077,1.379,0.979,2.559,2.357,2.635
					c0.047,0.002,0.094,0.004,0.141,0.004c1.317,0,2.42-1.03,2.494-2.361c0.142-2.533,1.889-4.651,4.349-5.27l11.339-2.854
					c4.793-1.206,7.895-2.642,11.17-4.257c3.35-1.651,5.431-4.998,5.431-8.731v-3.039
					C204.419,226.078,203.3,224.958,201.919,224.958z"/>
			</g>
		</g>
		<g>
			<g>
				<path d="M247.876,241.491l-11.339-2.854c-5.434-1.368-9.816-3.698-10.056-3.827c-0.041-0.023-0.082-0.045-0.124-0.065
					c-1.63-0.803-2.642-2.431-2.642-4.247v-2.903c0-1.381-1.119-2.5-2.5-2.5s-2.5,1.119-2.5,2.5v2.903
					c0,3.678,2.019,6.979,5.28,8.656c0.659,0.418,1.694,0.883,3.362,1.604c1.838,0.794,4.71,1.912,7.958,2.729l11.339,2.854
					c2.46,0.619,4.207,2.737,4.349,5.27c0.074,1.331,1.177,2.361,2.494,2.361c0.047,0,0.094-0.001,0.141-0.004
					c1.379-0.077,2.435-1.256,2.357-2.635C255.732,246.602,252.47,242.647,247.876,241.491z"/>
			</g>
		</g>
		<g>
			<g>
				<g>
					<g>
						<path d="M231.328,181.746c-2.26-2.368-5.918-2.619-8.511-0.584c-2.207,1.733-5.947,3.799-11.227,3.799
							c-5.293,0-9.055-2.075-11.278-3.815c-2.576-2.015-6.205-1.775-8.462,0.555c-0.016,0.015-0.03,0.03-0.045,0.045
							c-2.374,2.491-3.682,5.757-3.682,9.198v17.577c0,12.927,10.517,23.444,23.443,23.444s23.443-10.517,23.443-23.444v-17.577
							C235.011,187.503,233.703,184.237,231.328,181.746z M230.011,208.521c0,10.17-8.273,18.444-18.443,18.444
							s-18.443-8.274-18.443-18.444v-17.577c0-2.137,0.808-4.167,2.273-5.72c0.012-0.012,0.023-0.024,0.035-0.036
							c0.472-0.495,1.245-0.539,1.798-0.105c2.843,2.225,7.642,4.877,14.36,4.877c6.707,0,11.486-2.646,14.314-4.865
							c0.556-0.438,1.331-0.395,1.804,0.101v0c1.484,1.556,2.302,3.597,2.302,5.748V208.521z"/>
					</g>
				</g>
			</g>
		</g>
		<g>
			<g>
				<path d="M233.854,190.06c-1.381,0-2.5,1.119-2.5,2.5s1.119,2.5,2.5,2.5c3.443,0,6.244,2.801,6.244,6.244
					s-2.801,6.244-6.244,6.244c-1.381,0-2.5,1.119-2.5,2.5s1.119,2.5,2.5,2.5c6.2,0,11.244-5.044,11.244-11.244
					S240.055,190.06,233.854,190.06z"/>
			</g>
		</g>
		<g>
			<g>
				<path d="M189.279,207.548c-3.443,0-6.244-2.801-6.244-6.244s2.801-6.244,6.244-6.244c1.381,0,2.5-1.119,2.5-2.5
					s-1.119-2.5-2.5-2.5c-6.2,0-11.244,5.044-11.244,11.244s5.044,11.244,11.244,11.244c1.381,0,2.5-1.119,2.5-2.5
					S190.66,207.548,189.279,207.548z"/>
			</g>
		</g>
		<g>
			<g>
				<path d="M233.56,172.288c-0.31-3.784-1.919-6.976-4.692-9.279c-6.851-5.688-18.563-4.69-24.938-3.59
					c-12.487,2.156-21.551,12.915-21.551,25.583v8.27c0,1.381,1.119,2.5,2.5,2.5s2.5-1.119,2.5-2.5v-8.27
					c0-10.228,7.318-18.915,17.402-20.656c9.265-1.599,17.074-0.662,20.893,2.51c1.939,1.611,2.901,3.78,2.94,6.632
					c0.028,2.044,1.742,3.708,3.819,3.708c2.079,0,3.37,3.603,3.37,9.401v6.654c0,1.381,1.119,2.5,2.5,2.5s2.5-1.119,2.5-2.5v-6.654
					C240.803,175.283,236.368,172.753,233.56,172.288z"/>
			</g>
		</g>
		<g>
			<g>
				<path d="M118.351,66.354c-1.381,0-2.5,1.119-2.5,2.5v3.071c0,1.816-1.012,3.444-2.641,4.247
					c-3.016,1.487-5.864,2.806-10.18,3.892l-11.339,2.854c-4.594,1.157-7.857,5.112-8.12,9.841
					c-0.077,1.379,0.979,2.559,2.357,2.635c0.047,0.002,0.095,0.004,0.142,0.004c1.317,0,2.419-1.03,2.494-2.361
					c0.141-2.533,1.889-4.651,4.349-5.271l11.339-2.854c4.792-1.206,7.894-2.641,11.17-4.256c3.349-1.651,5.43-4.997,5.43-8.731
					v-3.071C120.851,67.473,119.732,66.354,118.351,66.354z"/>
			</g>
		</g>
		<g>
			<g>
				<path d="M164.309,82.918l-11.339-2.854c-5.436-1.368-9.819-3.7-10.056-3.827c-0.041-0.022-0.082-0.044-0.124-0.065
					c-1.63-0.803-2.642-2.431-2.642-4.247v-2.757c0-1.381-1.119-2.5-2.5-2.5s-2.5,1.119-2.5,2.5v2.757
					c0,3.679,2.019,6.98,5.28,8.656c0.66,0.417,1.695,0.883,3.362,1.603c1.838,0.793,4.71,1.911,7.958,2.729l11.339,2.854
					c2.46,0.62,4.207,2.737,4.349,5.27c0.074,1.331,1.177,2.361,2.494,2.361c0.047,0,0.094-0.001,0.141-0.004
					c1.379-0.077,2.435-1.256,2.357-2.635C172.165,88.029,168.902,84.075,164.309,82.918z"/>
			</g>
		</g>
		<g>
			<g>
				<g>
					<g>
						<path d="M147.762,23.174L147.762,23.174c-2.261-2.37-5.918-2.62-8.511-0.585c-2.208,1.733-5.948,3.799-11.228,3.799
							c-5.292,0-9.054-2.075-11.278-3.815c-2.589-2.026-6.243-1.771-8.506,0.601c-2.375,2.491-3.683,5.757-3.683,9.198v17.577
							c0,12.927,10.517,23.443,23.444,23.443s23.443-10.517,23.443-23.443V32.372C151.443,28.931,150.136,25.665,147.762,23.174z
							 M146.443,49.949c0,10.17-8.273,18.443-18.443,18.443s-18.444-8.273-18.444-18.443V32.372c0-2.15,0.817-4.191,2.309-5.755
							c0.255-0.268,0.598-0.404,0.947-0.404c0.296,0,0.597,0.098,0.852,0.297c2.843,2.225,7.643,4.877,14.359,4.877
							c6.708,0,11.487-2.646,14.316-4.866c0.557-0.437,1.334-0.392,1.804,0.102c1.483,1.556,2.301,3.597,2.301,5.748V49.949z"/>
					</g>
				</g>
			</g>
		</g>
		<g>
			<g>
				<path d="M150.288,31.487c-0.275,0-0.547,0.011-0.816,0.031c-1.376,0.104-2.408,1.304-2.305,2.681
					c0.104,1.377,1.299,2.412,2.682,2.305c0.145-0.011,0.291-0.017,0.439-0.017c3.442,0,6.243,2.801,6.243,6.244
					s-2.801,6.244-6.243,6.244c-0.185,0-0.365-0.011-0.545-0.029c-1.37-0.144-2.601,0.859-2.741,2.232s0.859,2.601,2.233,2.741
					c0.346,0.036,0.696,0.056,1.053,0.056c6.199,0,11.243-5.044,11.243-11.244S156.487,31.487,150.288,31.487z"/>
			</g>
		</g>
		<g>
			<g>
				<path d="M106.193,48.953c-0.158,0.014-0.318,0.023-0.481,0.023c-3.443,0-6.244-2.801-6.244-6.244s2.801-6.244,6.244-6.244
					c0.165,0,0.327,0.007,0.489,0.021c1.377,0.12,2.584-0.908,2.698-2.285c0.114-1.376-0.909-2.584-2.285-2.698
					c-0.297-0.025-0.598-0.038-0.902-0.038c-6.2,0-11.244,5.044-11.244,11.244s5.044,11.244,11.244,11.244
					c0.314,0,0.625-0.016,0.931-0.043c1.375-0.124,2.389-1.339,2.265-2.715C108.785,49.843,107.578,48.832,106.193,48.953z"/>
			</g>
		</g>
		<g>
			<g>
				<g>
					<g>
						<path d="M149.993,13.715c-0.31-3.785-1.919-6.976-4.693-9.28c-6.85-5.688-18.564-4.691-24.938-3.59
							c-12.487,2.156-21.551,12.915-21.551,25.583v8.43c0,1.381,1.119,2.5,2.5,2.5s2.5-1.119,2.5-2.5v-8.43
							c0-10.228,7.318-18.915,17.401-20.656c9.264-1.6,17.074-0.661,20.893,2.51c1.94,1.611,2.902,3.78,2.941,6.629
							c0.025,2.046,1.738,3.711,3.818,3.711c2.079,0,3.37,3.603,3.37,9.401v6.664c0,1.381,1.119,2.5,2.5,2.5s2.5-1.119,2.5-2.5
							v-6.664C157.235,16.711,152.802,14.181,149.993,13.715z"/>
					</g>
				</g>
			</g>
		</g>
		<g>
			<g>
				<path d="M34.784,225.021c-1.381,0-2.5,1.119-2.5,2.5v2.976c0,1.816-1.012,3.444-2.641,4.247
					c-3.016,1.487-5.863,2.806-10.18,3.893l-11.339,2.854c-4.594,1.156-7.857,5.111-8.121,9.84
					c-0.077,1.379,0.979,2.559,2.357,2.635c0.047,0.002,0.095,0.004,0.142,0.004c1.317,0,2.419-1.03,2.494-2.361
					c0.141-2.533,1.889-4.651,4.349-5.27l11.339-2.854c4.792-1.206,7.894-2.642,11.17-4.257c3.35-1.651,5.43-4.997,5.43-8.731
					v-2.976C37.284,226.141,36.165,225.021,34.784,225.021z"/>
			</g>
		</g>
		<g>
			<g>
				<path d="M80.741,241.491l-11.339-2.854c-5.435-1.368-9.819-3.7-10.056-3.827c-0.041-0.023-0.082-0.045-0.124-0.065
					c-1.629-0.803-2.641-2.431-2.641-4.247V227.5c0-1.381-1.119-2.5-2.5-2.5s-2.5,1.119-2.5,2.5v2.997
					c0,3.679,2.019,6.979,5.28,8.656c0.659,0.417,1.694,0.883,3.362,1.603c1.837,0.794,4.709,1.912,7.958,2.729l11.339,2.854
					c2.46,0.619,4.208,2.737,4.349,5.27c0.074,1.331,1.177,2.361,2.494,2.361c0.047,0,0.094-0.001,0.142-0.004
					c1.378-0.077,2.434-1.256,2.357-2.635C88.598,246.602,85.335,242.647,80.741,241.491z"/>
			</g>
		</g>
		<g>
			<g>
				<g>
					<g>
						<path d="M64.193,181.746c-2.259-2.369-5.917-2.619-8.51-0.584c-2.208,1.733-5.949,3.799-11.228,3.799
							c-5.292,0-9.055-2.075-11.278-3.815c-2.59-2.027-6.243-1.771-8.506,0.601c-2.375,2.49-3.682,5.757-3.682,9.198v17.577
							c0,12.927,10.517,23.444,23.443,23.444s23.444-10.517,23.444-23.444v-17.577C67.876,187.503,66.568,184.237,64.193,181.746z
							 M62.876,208.521c0,10.17-8.274,18.444-18.444,18.444s-18.443-8.274-18.443-18.444v-17.577c0-2.15,0.817-4.192,2.309-5.755
							c0.254-0.267,0.598-0.403,0.947-0.403c0.296,0,0.597,0.098,0.852,0.297c2.843,2.225,7.643,4.877,14.36,4.877
							c6.707,0,11.486-2.646,14.315-4.866c0.555-0.438,1.332-0.394,1.804,0.102l0,0c1.484,1.556,2.301,3.597,2.301,5.748V208.521z"
							/>
					</g>
				</g>
			</g>
		</g>
		<g>
			<g>
				<path d="M66.72,190.06c-1.381,0-2.5,1.119-2.5,2.5s1.119,2.5,2.5,2.5c3.443,0,6.244,2.801,6.244,6.244s-2.801,6.244-6.244,6.244
					c-1.381,0-2.5,1.119-2.5,2.5s1.119,2.5,2.5,2.5c6.2,0,11.244-5.044,11.244-11.244S72.92,190.06,66.72,190.06z"/>
			</g>
		</g>
		<g>
			<g>
				<path d="M22.145,207.548c-3.443,0-6.244-2.801-6.244-6.244s2.801-6.244,6.244-6.244c1.381,0,2.5-1.119,2.5-2.5
					s-1.119-2.5-2.5-2.5c-6.2,0-11.244,5.044-11.244,11.244s5.044,11.244,11.244,11.244c1.381,0,2.5-1.119,2.5-2.5
					S23.526,207.548,22.145,207.548z"/>
			</g>
		</g>
		<g>
			<g>
				<path d="M66.425,172.288c-0.31-3.785-1.918-6.976-4.693-9.279c-6.85-5.688-18.565-4.69-24.938-3.59
					c-12.487,2.156-21.551,12.915-21.551,25.583v8.27c0,1.381,1.119,2.5,2.5,2.5s2.5-1.119,2.5-2.5v-8.27
					c0-10.228,7.318-18.915,17.401-20.656c9.265-1.599,17.075-0.662,20.893,2.51c1.94,1.611,2.902,3.78,2.941,6.632
					c0.029,2.044,1.742,3.708,3.819,3.708c2.079,0,3.37,3.603,3.37,9.401v6.278c0,1.381,1.119,2.5,2.5,2.5s2.5-1.119,2.5-2.5v-6.278
					C73.668,175.283,69.234,172.753,66.425,172.288z"/>
			</g>
		</g>
		<g>
			<g>
				<path d="M148.751,191.338c-1.381,0-2.5,1.119-2.5,2.5s1.119,2.5,2.5,2.5c3.11,0,5.641,2.531,5.641,5.641
					s-2.53,5.641-5.641,5.641c-1.381,0-2.5,1.119-2.5,2.5s1.119,2.5,2.5,2.5c5.867,0,10.641-4.773,10.641-10.641
					S154.618,191.338,148.751,191.338z"/>
			</g>
		</g>
		<g>
			<g>
				<g>
					<g>
						<path d="M146.864,189.024c-1.902-0.44-3.92-1.622-5.998-3.509c-0.76-0.691-1.783-1.053-2.802-0.987
							c-1.029,0.064-1.965,0.531-2.636,1.315c-2.637,3.077-12.318,12.807-26.243,8.839c-0.754-0.215-1.565-0.063-2.191,0.409
							c-0.626,0.472-0.994,1.211-0.994,1.995v11.612c0,12.13,9.869,22,22,22c12.13,0,21.999-9.869,21.999-22v-15.753
							C149.999,191.064,148.71,189.452,146.864,189.024z M144.999,208.699c0,9.374-7.626,17-16.999,17c-9.374,0-17-7.626-17-17
							v-8.479c13.881,2.392,23.68-6.188,27.413-10.213c2.181,1.814,4.39,3.054,6.586,3.696V208.699z"/>
					</g>
				</g>
			</g>
		</g>
		<g>
			<g>
				<path d="M109.186,194.682c-1.258-0.358-2.537-0.823-3.798-1.38c-1.829-0.808-3.955-0.445-5.417,0.926
					c-2.137,2.003-3.362,4.828-3.362,7.751c0,5.868,4.773,10.641,10.641,10.641c1.381,0,2.5-1.119,2.5-2.5s-1.119-2.5-2.5-2.5
					c-3.11,0-5.641-2.531-5.641-5.641c0-1.569,0.633-3.026,1.758-4.103c1.473,0.65,2.97,1.193,4.449,1.615
					c1.327,0.379,2.711-0.392,3.089-1.719C111.283,196.443,110.513,195.06,109.186,194.682z"/>
			</g>
		</g>
		<g>
			<g>
				<path d="M128,162.447c-16,0-29.016,13.016-29.016,29.016v4.49c0,1.381,1.119,2.5,2.5,2.5s2.5-1.119,2.5-2.5v-4.49
					c0-13.242,10.773-24.016,24.016-24.016s24.016,10.773,24.016,24.016v4.475c0,1.381,1.119,2.5,2.5,2.5s2.5-1.119,2.5-2.5v-4.475
					C157.016,175.463,143.999,162.447,128,162.447z"/>
			</g>
		</g>
		<g>
			<g>
				<path d="M118.725,223.766c-1.381,0-2.5,1.119-2.5,2.5v5.483c0,1.121-0.625,2.125-1.629,2.62l-4.821,2.377
					c-0.917,0.452-1.885,0.808-2.87,1.056c-0.069,0.017-10.017,2.528-10.077,2.543l-3.874,0.978
					c-4.478,1.127-7.66,4.983-7.917,9.594c-0.077,1.378,0.979,2.559,2.357,2.635c0.047,0.002,0.094,0.004,0.142,0.004
					c1.316,0,2.419-1.03,2.494-2.361c0.135-2.415,1.801-4.434,4.147-5.024l3.878-0.979c0.11-0.028,9.897-2.499,10.063-2.54
					c1.334-0.336,2.636-0.814,3.868-1.422l4.821-2.377c2.725-1.344,4.417-4.066,4.417-7.104v-5.483
					C121.225,224.885,120.106,223.766,118.725,223.766z"/>
			</g>
		</g>
		<g>
			<g>
				<path d="M163.047,241.324l-13.943-3.52c-0.993-0.25-1.962-0.606-2.879-1.058l-4.82-2.377c-1.005-0.496-1.63-1.5-1.63-2.62
					v-5.375c0-1.381-1.119-2.5-2.5-2.5s-2.5,1.119-2.5,2.5v5.375c0,3.038,1.693,5.76,4.419,7.104l4.82,2.377
					c1.233,0.607,2.535,1.086,3.867,1.421l13.943,3.52c2.346,0.59,4.012,2.609,4.146,5.024c0.074,1.331,1.177,2.36,2.494,2.36
					c0.047,0,0.094-0.001,0.142-0.004c1.379-0.077,2.434-1.257,2.356-2.636C170.705,246.306,167.523,242.451,163.047,241.324z"/>
			</g>
		</g>
		<g>
			<g>
				<path d="M158.117,205.69c-0.596-1.246-2.088-1.774-3.334-1.177c-1.246,0.595-1.772,2.088-1.178,3.333
					c1.4,2.928,2.467,7.363-0.401,11.86c-0.937,1.47-1.02,3.314-0.216,4.815c0.957,1.784,2.222,5.315-0.057,8.922
					c-1.151,1.825-3.013,3.24-5.531,4.206c-1.289,0.495-1.934,1.94-1.438,3.229c0.382,0.995,1.329,1.605,2.335,1.605
					c0.297,0,0.601-0.053,0.895-0.167c3.547-1.361,6.228-3.448,7.968-6.204c3.686-5.835,1.52-11.494,0.315-13.804
					C160.623,217.31,160.852,211.412,158.117,205.69z"/>
			</g>
		</g>
		<g>
			<g>
				<path d="M108.679,237.679c-2.56-0.968-4.448-2.394-5.611-4.236c-2.277-3.605-1.012-7.138-0.056-8.922
					c0.804-1.5,0.722-3.345-0.216-4.815c-2.9-4.547-1.785-9.029-0.34-11.987c0.606-1.241,0.092-2.738-1.148-3.344
					c-1.242-0.607-2.738-0.092-3.344,1.148c-2.821,5.774-2.621,11.731,0.562,16.785c-1.205,2.313-3.369,7.972,0.314,13.804
					c1.757,2.781,4.472,4.881,8.069,6.243c0.292,0.11,0.59,0.162,0.884,0.162c1.01,0,1.96-0.616,2.339-1.616
					C110.621,239.61,109.97,238.167,108.679,237.679z"/>
			</g>
		</g>
		<g>
			<g>
				<path d="M128,103c-1.381,0-2.5,1.119-2.5,2.5v43.488c0,1.381,1.119,2.5,2.5,2.5s2.5-1.119,2.5-2.5V105.5
					C130.5,104.119,129.381,103,128,103z"/>
			</g>
		</g>
		<g>
			<g>
				<path d="M210.83,124.362H45.17c-1.381,0-2.5,1.119-2.5,2.5v22.125c0,1.381,1.119,2.5,2.5,2.5s2.5-1.119,2.5-2.5v-19.625h160.66
					v19.625c0,1.381,1.119,2.5,2.5,2.5s2.5-1.119,2.5-2.5v-22.125C213.33,125.481,212.211,124.362,210.83,124.362z"/>
			</g>
		</g>
		<g>
			<g>
				<path d="M151.948,80.77c-1.038-0.908-2.619-0.803-3.527,0.238l-9.729,11.138l-4.436-3.875l7.592-8.692
					c0.908-1.04,0.802-2.619-0.238-3.527c-1.039-0.908-2.619-0.803-3.527,0.238l-8.043,9.208c-1.565,1.792-1.38,4.523,0.411,6.087
					l5.47,4.778c0.816,0.712,1.827,1.062,2.835,1.062c1.203,0,2.4-0.5,3.252-1.475l10.179-11.654
					C153.095,83.257,152.988,81.678,151.948,80.77z"/>
			</g>
		</g>
		<g>
			<g>
				<path d="M125.96,85.499l-7.705-8.821c-0.908-1.04-2.487-1.147-3.527-0.238c-1.04,0.908-1.146,2.487-0.238,3.527l7.253,8.305
					l-4.436,3.874l-9.733-11.144c-0.908-1.04-2.488-1.147-3.527-0.238c-1.04,0.908-1.146,2.487-0.238,3.527l10.184,11.66
					c0.852,0.975,2.049,1.475,3.252,1.475c1.007,0,2.019-0.35,2.835-1.063l5.47-4.777C127.34,90.021,127.524,87.29,125.96,85.499z"
					/>
			</g>
		</g>
		<g>
			<g>
				<path d="M130.875,85.625H125.5c-1.381,0-2.5,1.119-2.5,2.5s1.119,2.5,2.5,2.5h5.375c1.381,0,2.5-1.119,2.5-2.5
					S132.256,85.625,130.875,85.625z"/>
			</g>
		</g>
		<g>
			<g>
				<path d="M235.578,239.27c-1.038-0.908-2.619-0.803-3.527,0.238l-9.791,11.21l-4.436-3.875l7.558-8.653
					c0.908-1.04,0.802-2.619-0.238-3.527c-1.039-0.908-2.62-0.802-3.527,0.238l-8.009,9.169c-0.758,0.868-1.133,1.979-1.056,3.129
					c0.078,1.15,0.599,2.201,1.467,2.958l5.469,4.777c0.816,0.713,1.828,1.063,2.835,1.063c1.203,0,2.4-0.499,3.252-1.474
					l10.242-11.727C236.725,241.757,236.618,240.178,235.578,239.27z"/>
			</g>
		</g>
		<g>
			<g>
				<path d="M209.527,244.071l-7.708-8.826c-0.908-1.04-2.488-1.146-3.527-0.238c-1.04,0.908-1.146,2.487-0.238,3.527l7.257,8.309
					l-4.437,3.875l-9.573-10.961c-0.908-1.04-2.487-1.146-3.527-0.238s-1.146,2.487-0.238,3.527l10.024,11.479
					c0.759,0.868,1.809,1.388,2.958,1.466c0.1,0.007,0.199,0.01,0.298,0.01c1.043,0,2.039-0.373,2.831-1.065l5.471-4.778
					C210.908,248.592,211.092,245.861,209.527,244.071z"/>
			</g>
		</g>
		<g>
			<g>
				<path d="M214.344,244.198h-5.25c-1.381,0-2.5,1.119-2.5,2.5s1.119,2.5,2.5,2.5h5.25c1.381,0,2.5-1.119,2.5-2.5
					S215.725,244.198,214.344,244.198z"/>
			</g>
		</g>
		<g>
			<g>
				<path d="M68.118,239.644c-1.04-0.908-2.619-0.801-3.527,0.238l-9.465,10.836l-4.436-3.875l7.583-8.682
					c0.908-1.04,0.802-2.619-0.238-3.527s-2.619-0.801-3.527,0.238l-8.034,9.198c-0.758,0.868-1.133,1.979-1.055,3.129
					s0.598,2.2,1.466,2.958l5.469,4.777c0.793,0.692,1.789,1.065,2.832,1.065c0.099,0,0.198-0.003,0.297-0.01
					c1.15-0.078,2.201-0.599,2.958-1.466l9.916-11.353C69.264,242.131,69.158,240.552,68.118,239.644z"/>
			</g>
		</g>
		<g>
			<g>
				<path d="M42.393,244.071l-7.708-8.826c-0.908-1.041-2.488-1.147-3.527-0.238c-1.04,0.908-1.146,2.487-0.238,3.527l7.257,8.309
					l-4.436,3.875l-9.751-11.164c-0.908-1.04-2.487-1.147-3.527-0.238c-1.04,0.908-1.146,2.487-0.238,3.527l10.202,11.681
					c0.852,0.975,2.049,1.474,3.252,1.474c1.007,0,2.019-0.35,2.835-1.063l5.469-4.776c0.868-0.758,1.389-1.809,1.466-2.959
					C43.525,246.05,43.15,244.938,42.393,244.071z"/>
			</g>
		</g>
		<g>
			<g>
				<path d="M47.281,244.198h-5.5c-1.381,0-2.5,1.119-2.5,2.5s1.119,2.5,2.5,2.5h5.5c1.381,0,2.5-1.119,2.5-2.5
					S48.662,244.198,47.281,244.198z"/>
			</g>
		</g>
		<g>
			<g>
				<path d="M124.629,244.648l-7.702-8.278c-0.941-1.012-2.523-1.067-3.533-0.128c-1.011,0.94-1.068,2.522-0.128,3.533l7.379,7.931
					l-1.992,1.853c-1.275,1.186-2.987,1.672-4.694,1.338c-1.708-0.335-3.108-1.434-3.84-3.014l-3.276-7.074
					c-0.581-1.253-2.066-1.797-3.319-1.218c-1.253,0.58-1.798,2.066-1.218,3.319l3.276,7.074c1.413,3.05,4.115,5.171,7.414,5.818
					c0.683,0.134,1.366,0.2,2.042,0.2c2.588,0,5.07-0.968,7.021-2.784l2.339-2.176c0.885-0.824,1.397-1.942,1.44-3.15
					C125.882,246.685,125.453,245.532,124.629,244.648z"/>
			</g>
		</g>
		<g>
			<g>
				<path d="M152.343,239.879c-1.256-0.581-2.738-0.034-3.319,1.218l-3.143,6.787c-0.731,1.58-2.132,2.678-3.84,3.014
					c-1.714,0.334-3.42-0.153-4.694-1.338l-1.992-1.853l7.692-8.268c0.94-1.011,0.884-2.593-0.127-3.533
					c-1.012-0.942-2.595-0.883-3.533,0.127l-8.016,8.616c-1.7,1.827-1.597,4.697,0.23,6.396l2.339,2.176
					c1.952,1.815,4.434,2.784,7.022,2.784c0.675,0,1.358-0.066,2.041-0.2c3.299-0.647,6.001-2.768,7.414-5.819l3.143-6.787
					C154.141,241.945,153.596,240.459,152.343,239.879z"/>
			</g>
		</g>
		<g>
			<g>
				<path d="M132.062,244.785h-8.093c-1.381,0-2.5,1.119-2.5,2.5s1.119,2.5,2.5,2.5h8.093c1.381,0,2.5-1.119,2.5-2.5
					S133.443,244.785,132.062,244.785z"/>
			</g>
		</g>
	</g>
</g>
<g id="Layer_24">
</g>
<g id="Layer_25">
</g>
<g id="Layer_26">
</g>
<g id="Layer_27">
</g>
<g id="Layer_28">
</g>
<g id="Layer_29">
</g>
<g id="Layer_30">
</g>
<g id="Layer_31">
</g>
<g id="Layer_32">
</g>
<g id="Layer_33">
</g>
<g id="Layer_34">
</g>
<g id="Layer_35">
</g>
<g id="Layer_36">
</g>
<g id="Layer_37">
</g>
<g id="Layer_38">
</g>
<g id="Layer_39">
</g>
<g id="Layer_40">
</g>
<g id="Layer_41">
</g>
<g id="Layer_42">
</g>
<g id="Layer_43">
</g>
<g id="Layer_44">
</g>
<g id="Layer_45">
</g>
<g id="Layer_46">
</g>
<g id="Layer_47">
</g>
<g id="Layer_48">
</g>
<g id="Layer_49">
</g>
<g id="Layer_50">
</g>
<g id="Layer_51">
</g>
<g id="Layer_52">
</g>
<g id="Layer_53">
</g>
<g id="Layer_54">
</g>
<g id="Layer_55">
</g>
<g id="Layer_56">
</g>
<g id="Layer_57">
</g>
<g id="Layer_58">
</g>
<g id="Layer_59">
</g>
<g id="Layer_60">
</g>
<g id="Layer_61">
</g>
<g id="Layer_62">
</g>
<g id="Layer_63">
</g>
<g id="Layer_64">
</g>
<g id="Layer_65">
</g>
<g id="Layer_66">
</g>
<g id="Layer_67">
</g>
<g id="Layer_68">
</g>
<g id="Layer_69">
</g>
<g id="Layer_70">
</g>
<g id="Layer_71">
</g>
<g id="Layer_72">
</g>
<g id="Layer_73">
</g>
<g id="Layer_74">
</g>
<g id="Layer_75">
</g>
<g id="Layer_76">
</g>
<g id="Layer_77">
</g>
<g id="Layer_78">
</g>
<g id="Layer_79">
</g>
<g id="Layer_80">
</g>
</svg>
