<?xml version="1.0" encoding="utf-8"?>
<!-- Generator: Adobe Illustrator 24.0.0, SVG Export Plug-In . SVG Version: 6.00 Build 0)  -->
<svg version="1.1" xmlns="http://www.w3.org/2000/svg" xmlns:xlink="http://www.w3.org/1999/xlink" x="0px" y="0px"
	 viewBox="0 0 256 256" enable-background="new 0 0 256 256" xml:space="preserve">
<g id="Layer_1">
</g>
<g id="Layer_2">
</g>
<g id="Layer_3">
</g>
<g id="Layer_4">
</g>
<g id="Layer_5">
</g>
<g id="Layer_6">
</g>
<g id="Layer_7">
</g>
<g id="Layer_8">
</g>
<g id="Layer_9">
</g>
<g id="Layer_10">
</g>
<g id="Layer_11">
</g>
<g id="Layer_12">
</g>
<g id="Layer_13">
</g>
<g id="Layer_14">
</g>
<g id="Layer_15">
</g>
<g id="Layer_16">
</g>
<g id="Layer_17">
</g>
<g id="Layer_18">
</g>
<g id="Layer_19">
</g>
<g id="Layer_20">
</g>
<g id="Layer_21">
</g>
<g id="Layer_22">
</g>
<g id="Layer_23">
</g>
<g id="Layer_24">
</g>
<g id="Layer_25">
</g>
<g id="Layer_26">
</g>
<g id="Layer_27">
</g>
<g id="Layer_28">
</g>
<g id="Layer_29">
</g>
<g id="Layer_30">
</g>
<g id="Layer_31">
</g>
<g id="Layer_32">
</g>
<g id="Layer_33">
</g>
<g id="Layer_34">
</g>
<g id="Layer_35">
</g>
<g id="Layer_36">
</g>
<g id="Layer_37">
</g>
<g id="Layer_38">
</g>
<g id="Layer_39">
</g>
<g id="Layer_40">
</g>
<g id="Layer_41">
</g>
<g id="Layer_42">
</g>
<g id="Layer_43">
</g>
<g id="Layer_44">
</g>
<g id="Layer_45">
</g>
<g id="Layer_46">
</g>
<g id="Layer_47">
</g>
<g id="Layer_48">
</g>
<g id="Layer_49">
</g>
<g id="Layer_50">
</g>
<g id="Layer_51">
</g>
<g id="Layer_52">
</g>
<g id="Layer_53">
</g>
<g id="Layer_54">
</g>
<g id="Layer_55">
</g>
<g id="Layer_56">
</g>
<g id="Layer_57">
</g>
<g id="Layer_58">
</g>
<g id="Layer_59">
</g>
<g id="Layer_60">
	<g>
		<g>
			<g>
				<path fill="#FC657E" d="M61.082,160.242l-26.365,9.9c-10.567,3.968-15.916,15.75-11.948,26.317l0,0
					c3.968,10.567,15.751,15.916,26.317,11.948l26.365-9.901L61.082,160.242z"/>
			</g>
		</g>
		<g>
			<g>
				<path fill="#FC657E" d="M133.615,193.058l-25.159-66.998c-1.58-4.207-6.271-6.336-10.478-4.757
					c-4.207,1.58-6.337,6.271-4.757,10.478l25.159,66.998c1.58,4.207,6.271,6.337,10.478,4.757
					C133.065,201.956,135.195,197.265,133.615,193.058z"/>
			</g>
		</g>
		<g>
			<g>
				<path fill="#DAE6F1" d="M89.169,225.001L69.36,200.794l-18.512,6.952l23.828,29.116c2.542,3.106,6.781,4.247,10.539,2.836
					C91.216,237.445,93.229,229.962,89.169,225.001z"/>
			</g>
		</g>
		<g>
			<g>
				<path fill="#DAE6F1" d="M94.145,134.239c-7.92,11.527-14.739,19.122-28.825,24.412l-4.237,1.591l14.369,38.265l4.237-1.591
					c14.087-5.29,24.219-4.061,37.769-0.595L94.145,134.239z"/>
			</g>
		</g>
		<g>
			<g>
				<path fill="#DAE6F1" d="M136.093,153.905L136.093,153.905c-3.17-8.441-12.438-12.789-20.919-9.957l11.724,31.221
					C135.147,171.719,139.262,162.346,136.093,153.905z"/>
			</g>
		</g>
		<g>
			<g>
				<path fill="#F5C84C" d="M214.296,15.703h-80.933c-11.229,0-20.416,9.187-20.416,20.416v58.194
					c0,11.229,9.187,20.416,20.416,20.416h4.893c3.599,0,6.516,2.917,6.516,6.516v6.874c0,3.191,3.82,4.774,6.126,2.568
					c3.202-3.063,5.763-6.407,7.81-9.745c2.336-3.811,6.408-6.213,10.878-6.213h44.711c11.229,0,20.416-9.187,20.416-20.416V36.119
					C234.712,24.891,225.525,15.703,214.296,15.703z"/>
			</g>
		</g>
		<g>
			<g>
				<path fill="#70D6F9" d="M155.906,226.1h-2.4v-2.3c0-1.8-1.4-3.2-3.2-3.2c-1.7,0-3.2,1.4-3.2,3.1v2.4h-2.3
					c-1.8,0-3.2,1.4-3.2,3.2c-0.1,1.7,1.3,3.2,3.2,3.2h2.3v2.3c0,1.8,1.4,3.2,3.2,3.2c1.7,0,3.2-1.4,3.2-3.1v-2.4h2.3
					c1.8,0,3.2-1.4,3.2-3.2C159.006,227.6,157.606,226.1,155.906,226.1z"/>
			</g>
		</g>
		<g>
			<g>
				<path fill="#FC657E" d="M102.206,0c-1.878,0-3.4,1.522-3.4,3.4c0,1.878,1.522,3.4,3.4,3.4s3.4-1.522,3.4-3.4
					C105.606,1.522,104.083,0,102.206,0z"/>
			</g>
		</g>
		<g>
			<g>
				<path fill="#B2E26D" d="M42.15,123.175c-3.1-0.6-5.6-3-6.2-6.1c0-0.1-0.3-0.1-0.3,0c-0.6,3.1-3.1,5.5-6.2,6.1
					c-0.1,0-0.1,0.2,0,0.3c3.1,0.6,5.6,3,6.2,6.1c0,0.1,0.3,0.1,0.3,0c0.6-3.1,3.1-5.5,6.2-6.1
					C42.25,123.375,42.25,123.175,42.15,123.175z"/>
			</g>
		</g>
		<g>
			<g>
				<path fill="#F5C84C" d="M117.369,249.2c-1.878,0-3.4,1.522-3.4,3.4c0,1.878,1.522,3.4,3.4,3.4s3.4-1.522,3.4-3.4
					C120.769,250.722,119.246,249.2,117.369,249.2z"/>
			</g>
		</g>
		<g>
			<g>
				<path fill="#F5C84C" d="M87.15,28.2c-4.5-0.8-8-4.3-8.9-8.7c0-0.2-0.4-0.2-0.4,0c-0.9,4.4-4.4,7.9-8.9,8.7c-0.2,0-0.2,0.3,0,0.4
					c4.5,0.8,8,4.3,8.9,8.7c0,0.2,0.4,0.2,0.4,0c0.9-4.4,4.4-7.9,8.9-8.7C87.35,28.5,87.35,28.2,87.15,28.2z"/>
			</g>
		</g>
		<g>
			<g>
				<g>
					<g>
						<path d="M77.792,197.628l-14.369-38.266c-0.233-0.621-0.704-1.123-1.308-1.397s-1.291-0.298-1.912-0.064l-26.365,9.901
							c-11.84,4.446-17.855,17.696-13.41,29.537c3.452,9.193,12.212,14.875,21.498,14.875c2.674,0,5.392-0.472,8.039-1.465
							l26.365-9.901C77.623,200.362,78.277,198.921,77.792,197.628z M48.207,206.067c-4.484,1.685-9.359,1.521-13.721-0.459
							c-4.363-1.981-7.693-5.543-9.377-10.028c-1.685-4.485-1.521-9.357,0.459-13.721c1.981-4.362,5.542-7.692,10.027-9.376
							l24.024-9.022l12.611,33.584L48.207,206.067z"/>
					</g>
				</g>
			</g>
		</g>
		<g>
			<g>
				<g>
					<g>
						<g>
							<path d="M135.956,192.179l-25.159-66.997c-0.999-2.659-2.974-4.771-5.561-5.946c-2.586-1.174-5.476-1.271-8.137-0.273
								c-5.491,2.063-8.28,8.208-6.219,13.698l25.159,66.998c1.601,4.263,5.663,6.897,9.97,6.897c1.24,0,2.5-0.219,3.728-0.679
								c0,0,0,0,0-0.001C135.228,203.814,138.017,197.67,135.956,192.179z M127.979,201.195c-2.91,1.093-6.167-0.386-7.259-3.295
								l-25.158-66.998c-0.53-1.409-0.479-2.941,0.144-4.313c0.623-1.371,1.742-2.417,3.151-2.946c0.65-0.244,1.317-0.36,1.975-0.36
								c2.282,0,4.436,1.396,5.283,3.656l25.159,66.997C132.367,196.846,130.889,200.103,127.979,201.195z"/>
						</g>
					</g>
				</g>
			</g>
		</g>
		<g>
			<g>
				<path d="M91.104,223.418L72.006,200.08c-0.875-1.07-2.452-1.226-3.518-0.352c-1.068,0.874-1.227,2.449-0.352,3.518
					l19.099,23.338c1.418,1.733,1.897,3.968,1.315,6.131s-2.118,3.855-4.215,4.643c-2.757,1.039-5.861,0.199-7.727-2.078
					l-23.048-28.164c-0.875-1.07-2.452-1.225-3.518-0.352c-1.068,0.874-1.227,2.449-0.352,3.518l23.048,28.165
					c2.302,2.812,5.695,4.352,9.183,4.352c1.396,0,2.809-0.248,4.171-0.759c3.624-1.361,6.279-4.286,7.285-8.025
					C94.385,230.275,93.556,226.413,91.104,223.418z"/>
			</g>
		</g>
		<g>
			<g>
				<path d="M117.706,193.805c-14.255-3.619-24.677-4.567-38.896,0.771l-4.237,1.591c-1.292,0.485-1.947,1.927-1.462,3.22
					c0.377,1.003,1.329,1.622,2.341,1.622c0.292,0,0.589-0.052,0.879-0.16l4.237-1.591c13.06-4.904,22.338-4.053,35.908-0.606
					c1.331,0.342,2.698-0.469,3.038-1.808C119.854,195.505,119.044,194.145,117.706,193.805z"/>
			</g>
		</g>
		<g>
			<g>
				<path d="M95.259,132.627c-1.135-0.785-2.694-0.501-3.478,0.636c-7.905,11.444-14.304,18.151-27.341,23.047l-4.237,1.591
					c-1.292,0.485-1.947,1.927-1.462,3.22c0.377,1.003,1.329,1.622,2.341,1.622c0.292,0,0.589-0.052,0.879-0.16l4.237-1.591
					c14.196-5.332,21.39-12.86,29.696-24.887C96.68,134.969,96.395,133.411,95.259,132.627z"/>
			</g>
		</g>
		<g>
			<g>
				<path d="M41.151,165.995l-2.288-6.094c-0.485-1.292-1.925-1.944-3.22-1.462c-1.293,0.485-1.947,1.927-1.462,3.22l2.288,6.094
					c0.377,1.003,1.329,1.622,2.341,1.622c0.292,0,0.589-0.052,0.879-0.16C40.982,168.729,41.637,167.288,41.151,165.995z"/>
			</g>
		</g>
		<g>
			<g>
				<path d="M138.434,153.025c-3.494-9.305-13.366-14.372-22.964-11.776c-1.333,0.359-2.122,1.731-1.762,3.064
					c0.359,1.334,1.735,2.125,3.064,1.762c7.099-1.911,14.396,1.828,16.979,8.709c2.567,6.836-0.587,14.651-7.181,17.793
					c-1.246,0.594-1.775,2.086-1.182,3.332c0.429,0.899,1.324,1.426,2.259,1.426c0.36,0,0.727-0.079,1.073-0.244
					C137.64,172.843,141.905,162.272,138.434,153.025z"/>
			</g>
		</g>
		<g>
			<g>
				<path d="M166.467,168.784l-5.268-1.627c-1.317-0.409-2.718,0.331-3.126,1.651c-0.407,1.318,0.332,2.719,1.651,3.126l5.268,1.627
					c0.245,0.076,0.494,0.112,0.738,0.112c1.067,0,2.056-0.689,2.388-1.764C168.525,170.592,167.786,169.191,166.467,168.784z"/>
			</g>
		</g>
		<g>
			<g>
				<path d="M168.964,149.514c-0.306-1.346-1.637-2.191-2.993-1.882l-5.376,1.225c-1.346,0.307-2.188,1.646-1.882,2.993
					c0.264,1.159,1.294,1.945,2.436,1.945c0.184,0,0.37-0.021,0.558-0.063l5.376-1.225
					C168.428,152.2,169.271,150.86,168.964,149.514z"/>
			</g>
		</g>
		<g>
			<g>
				<path d="M156.32,187.352l-3.749-4.043c-0.938-1.011-2.52-1.073-3.533-0.133c-1.012,0.938-1.071,2.521-0.133,3.533l3.749,4.043
					c0.492,0.531,1.162,0.8,1.834,0.8c0.607,0,1.218-0.221,1.699-0.667C157.199,189.946,157.259,188.364,156.32,187.352z"/>
			</g>
		</g>
		<g>
			<g>
				<g>
					<g>
						<path d="M214.296,13.203h-80.933c-12.636,0-22.916,10.28-22.916,22.916v58.194c0,12.636,10.28,22.916,22.916,22.916h4.893
							c2.214,0,4.016,1.802,4.016,4.017v6.874c0,2.479,1.412,4.622,3.687,5.594c0.796,0.341,1.623,0.507,2.439,0.507
							c1.54,0,3.043-0.593,4.229-1.727c3.101-2.966,5.863-6.413,8.213-10.245c1.927-3.144,5.196-5.02,8.746-5.02h44.71
							c12.636,0,22.916-10.28,22.916-22.916V36.119C237.212,23.483,226.932,13.203,214.296,13.203z M232.212,94.313
							c0,9.879-8.037,17.916-17.916,17.916h-44.71c-5.303,0-10.166,2.769-13.01,7.406c-2.124,3.466-4.616,6.576-7.405,9.245
							c-0.502,0.479-1.04,0.323-1.248,0.235c-0.243-0.104-0.651-0.371-0.651-0.996v-6.874c0-4.972-4.044-9.017-9.016-9.017h-4.893
							c-9.879,0-17.916-8.037-17.916-17.916V36.119c0-9.879,8.037-17.916,17.916-17.916h80.933c9.879,0,17.916,8.037,17.916,17.916
							V94.313z"/>
					</g>
				</g>
			</g>
		</g>
		<g>
			<g>
				<g>
					<g>
						<path d="M144.672,62.329h-5.685c-2.539,0-4.605-2.066-4.605-4.605s2.066-4.605,4.605-4.605h5.685
							c2.539,0,4.604,2.066,4.604,4.605c0,1.381,1.119,2.5,2.5,2.5s2.5-1.119,2.5-2.5c0-5.297-4.309-9.605-9.604-9.605h-5.685
							c-5.297,0-9.605,4.309-9.605,9.605s4.309,9.605,9.605,9.605h5.685c2.539,0,4.604,2.066,4.604,4.605v2.842
							c0,2.539-2.065,4.605-4.604,4.605h-5.685c-2.539,0-4.605-2.066-4.605-4.605c0-1.381-1.119-2.5-2.5-2.5s-2.5,1.119-2.5,2.5
							c0,5.297,4.309,9.605,9.605,9.605h5.685c5.296,0,9.604-4.309,9.604-9.605v-2.842
							C154.276,66.638,149.968,62.329,144.672,62.329z"/>
					</g>
				</g>
				<g>
					<g>
						<path d="M141.829,45.276c-1.381,0-2.5,1.119-2.5,2.5v36.947c0,1.381,1.119,2.5,2.5,2.5s2.5-1.119,2.5-2.5V47.776
							C144.329,46.396,143.21,45.276,141.829,45.276z"/>
					</g>
				</g>
			</g>
			<g>
				<g>
					<g>
						<path d="M176.672,62.329h-5.685c-2.539,0-4.605-2.066-4.605-4.605s2.066-4.605,4.605-4.605h5.685
							c2.539,0,4.604,2.066,4.604,4.605c0,1.381,1.119,2.5,2.5,2.5s2.5-1.119,2.5-2.5c0-5.297-4.309-9.605-9.604-9.605h-5.685
							c-5.297,0-9.605,4.309-9.605,9.605s4.309,9.605,9.605,9.605h5.685c2.539,0,4.604,2.066,4.604,4.605v2.842
							c0,2.539-2.065,4.605-4.604,4.605h-5.685c-2.539,0-4.605-2.066-4.605-4.605c0-1.381-1.119-2.5-2.5-2.5s-2.5,1.119-2.5,2.5
							c0,5.297,4.309,9.605,9.605,9.605h5.685c5.296,0,9.604-4.309,9.604-9.605v-2.842
							C186.276,66.638,181.968,62.329,176.672,62.329z"/>
					</g>
				</g>
				<g>
					<g>
						<path d="M173.829,45.276c-1.381,0-2.5,1.119-2.5,2.5v36.947c0,1.381,1.119,2.5,2.5,2.5s2.5-1.119,2.5-2.5V47.776
							C176.329,46.396,175.21,45.276,173.829,45.276z"/>
					</g>
				</g>
			</g>
			<g>
				<g>
					<g>
						<path d="M208.672,62.329h-5.685c-2.539,0-4.605-2.066-4.605-4.605s2.066-4.605,4.605-4.605h5.685
							c2.539,0,4.604,2.066,4.604,4.605c0,1.381,1.119,2.5,2.5,2.5s2.5-1.119,2.5-2.5c0-5.297-4.309-9.605-9.604-9.605h-5.685
							c-5.297,0-9.605,4.309-9.605,9.605s4.309,9.605,9.605,9.605h5.685c2.539,0,4.604,2.066,4.604,4.605v2.842
							c0,2.539-2.065,4.605-4.604,4.605h-5.685c-2.539,0-4.605-2.066-4.605-4.605c0-1.381-1.119-2.5-2.5-2.5s-2.5,1.119-2.5,2.5
							c0,5.297,4.309,9.605,9.605,9.605h5.685c5.296,0,9.604-4.309,9.604-9.605v-2.842
							C218.276,66.638,213.968,62.329,208.672,62.329z"/>
					</g>
				</g>
				<g>
					<g>
						<path d="M205.829,45.276c-1.381,0-2.5,1.119-2.5,2.5v36.947c0,1.381,1.119,2.5,2.5,2.5s2.5-1.119,2.5-2.5V47.776
							C208.329,46.396,207.21,45.276,205.829,45.276z"/>
					</g>
				</g>
			</g>
		</g>
	</g>
</g>
<g id="Layer_61">
</g>
<g id="Layer_62">
</g>
<g id="Layer_63">
</g>
<g id="Layer_64">
</g>
<g id="Layer_65">
</g>
<g id="Layer_66">
</g>
<g id="Layer_67">
</g>
<g id="Layer_68">
</g>
<g id="Layer_69">
</g>
<g id="Layer_70">
</g>
<g id="Layer_71">
</g>
<g id="Layer_72">
</g>
<g id="Layer_73">
</g>
<g id="Layer_74">
</g>
<g id="Layer_75">
</g>
<g id="Layer_76">
</g>
<g id="Layer_77">
</g>
<g id="Layer_78">
</g>
<g id="Layer_79">
</g>
<g id="Layer_80">
</g>
</svg>
