<?xml version="1.0" encoding="utf-8"?>
<!-- Generator: Adobe Illustrator 24.0.0, SVG Export Plug-In . SVG Version: 6.00 Build 0)  -->
<svg version="1.1" xmlns="http://www.w3.org/2000/svg" xmlns:xlink="http://www.w3.org/1999/xlink" x="0px" y="0px"
	 viewBox="0 0 256 256" enable-background="new 0 0 256 256" xml:space="preserve">
<g id="Layer_1">
</g>
<g id="Layer_2">
</g>
<g id="Layer_3">
</g>
<g id="Layer_4">
</g>
<g id="Layer_5">
</g>
<g id="Layer_6">
</g>
<g id="Layer_7">
</g>
<g id="Layer_8">
</g>
<g id="Layer_9">
</g>
<g id="Layer_10">
</g>
<g id="Layer_11">
</g>
<g id="Layer_12">
</g>
<g id="Layer_13">
</g>
<g id="Layer_14">
</g>
<g id="Layer_15">
</g>
<g id="Layer_16">
</g>
<g id="Layer_17">
</g>
<g id="Layer_18">
</g>
<g id="Layer_19">
</g>
<g id="Layer_20">
</g>
<g id="Layer_21">
</g>
<g id="Layer_22">
</g>
<g id="Layer_23">
</g>
<g id="Layer_24">
</g>
<g id="Layer_25">
</g>
<g id="Layer_26">
</g>
<g id="Layer_27">
</g>
<g id="Layer_28">
</g>
<g id="Layer_29">
</g>
<g id="Layer_30">
</g>
<g id="Layer_31">
</g>
<g id="Layer_32">
</g>
<g id="Layer_33">
</g>
<g id="Layer_34">
</g>
<g id="Layer_35">
</g>
<g id="Layer_36">
</g>
<g id="Layer_37">
</g>
<g id="Layer_38">
</g>
<g id="Layer_39">
</g>
<g id="Layer_40">
</g>
<g id="Layer_41">
	<g>
		<g>
			<g>
				<path fill="#DAE6F1" d="M146.959,173.358c-1.031,1.18-2.823,1.301-4.003,0.27l-8.552-7.469
					c-0.505-0.441-0.804-1.024-0.914-1.637h-10.982c-0.11,0.613-0.408,1.196-0.914,1.637l-8.552,7.469
					c-1.18,1.031-2.972,0.91-4.003-0.27l-7.882-9.024l14.303,89.167h25.076l14.303-89.167L146.959,173.358z"/>
			</g>
		</g>
		<g>
			<g>
				<path fill="#3A70BF" d="M98.991,150.818c-0.277-1.727-2.036-2.794-3.696-2.241l-24.956,8.319
					c-8.456,2.819-14.495,10.306-15.458,19.168l-7.476,68.759c-0.504,4.633,3.125,8.677,7.785,8.677h60.272L98.991,150.818z"/>
			</g>
		</g>
		<g>
			<g>
				
					<ellipse transform="matrix(0.9975 -0.0709 0.0709 0.9975 -5.0293 9.2637)" fill="#FCDD86" cx="128" cy="75.489" rx="59.946" ry="59.946"/>
			</g>
		</g>
		<g>
			<g>
				<circle fill="#F5C84C" cx="128" cy="75.489" r="39.946"/>
			</g>
		</g>
		<g>
			<g>
				<path fill="#EDF4FC" d="M154.043,143.674c-1.18-1.031-2.972-0.91-4.003,0.271l-15.907,18.212c-1.031,1.18-0.91,2.972,0.27,4.003
					l8.552,7.469c1.18,1.031,2.972,0.91,4.003-0.27l7.882-9.024l2.168-13.516c0.21-1.311,1.276-2.237,2.503-2.367L154.043,143.674z"
					/>
			</g>
		</g>
		<g>
			<g>
				<path fill="#EDF4FC" d="M121.866,162.156l-15.907-18.212c-1.031-1.18-2.823-1.301-4.003-0.271l-5.469,4.777
					c1.227,0.13,2.293,1.056,2.503,2.367l2.168,13.516l7.882,9.024c1.031,1.18,2.823,1.301,4.003,0.27l8.552-7.469
					C122.775,165.128,122.896,163.336,121.866,162.156z"/>
			</g>
		</g>
		<g>
			<g>
				<polygon fill="#FC657E" points="135,180.521 121,180.521 114.454,247.214 115.462,253.5 140.538,253.5 141.546,247.214 				"/>
			</g>
		</g>
		<g>
			<g>
				<path fill="#F98FA6" d="M134.405,166.159c-0.505-0.441-0.804-1.024-0.914-1.637h-10.982c-0.11,0.613-0.408,1.196-0.914,1.637
					l-5.027,4.391l4.432,9.972h14l4.432-9.972L134.405,166.159z"/>
			</g>
		</g>
		<g>
			<g>
				<path fill="#5290DB" d="M98.991,150.818c-0.277-1.727-2.036-2.794-3.696-2.241l-8.365,2.788v38.849
					c0,2.64,1.492,5.053,3.853,6.234l4.633,2.317c1.912,0.956,2.636,3.317,1.588,5.181l-5.484,9.749
					c-1.008,1.792-1.173,3.938-0.451,5.864l12.728,33.941h11.665L98.991,150.818z"/>
			</g>
		</g>
		<g>
			<g>
				<path fill="#70D6F9" d="M159.514,66.229l-10.143-11.046c-0.855-0.931-2.062-1.461-3.326-1.461h-34.632
					c-1.264,0-2.471,0.53-3.326,1.461L97.943,66.229c-1.477,1.608-1.591,4.043-0.272,5.783l27.46,36.2
					c1.807,2.382,5.388,2.382,7.195,0l27.46-36.2C161.106,70.272,160.991,67.837,159.514,66.229z"/>
			</g>
		</g>
		<g>
			<g>
				<path fill="#F9D0B4" d="M148.233,146.014c-1.685-2.243-2.65-5.005-2.65-7.918v-5.287c-5.561,1.704-11.464,2.626-17.583,2.626
					s-12.022-0.922-17.583-2.626v5.287c0,2.913-0.965,5.675-2.65,7.918l14.099,16.142c0.589,0.675,0.789,1.547,0.643,2.365h10.982
					c-0.146-0.818,0.054-1.691,0.643-2.365L148.233,146.014z"/>
			</g>
		</g>
		<g>
			<g>
				<path fill="#70D6F9" d="M216.906,137.1h-2.4v-2.3c0-1.8-1.4-3.2-3.2-3.2c-1.7,0-3.2,1.4-3.2,3.1v2.4h-2.3
					c-1.8,0-3.2,1.4-3.2,3.2c-0.1,1.7,1.3,3.2,3.2,3.2h2.3v2.3c0,1.8,1.4,3.2,3.2,3.2c1.7,0,3.2-1.4,3.2-3.1v-2.4h2.3
					c1.8,0,3.2-1.4,3.2-3.2C220.006,138.6,218.606,137.1,216.906,137.1z"/>
			</g>
		</g>
		<g>
			<g>
				<path fill="#F5C84C" d="M220.206,170.5c-1.878,0-3.4,1.522-3.4,3.4c0,1.878,1.522,3.4,3.4,3.4c1.878,0,3.4-1.522,3.4-3.4
					C223.606,172.022,222.083,170.5,220.206,170.5z"/>
			</g>
		</g>
		<g>
			<g>
				<path fill="#FC657E" d="M47.15,148.175c-3.1-0.6-5.6-3-6.2-6.1c0-0.1-0.3-0.1-0.3,0c-0.6,3.1-3.1,5.5-6.2,6.1
					c-0.1,0-0.1,0.2,0,0.3c3.1,0.6,5.6,3,6.2,6.1c0,0.1,0.3,0.1,0.3,0c0.6-3.1,3.1-5.5,6.2-6.1
					C47.25,148.375,47.25,148.175,47.15,148.175z"/>
			</g>
		</g>
		<g>
			<g>
				<path fill="#87D147" d="M88.369,0c-1.878,0-3.4,1.522-3.4,3.4c0,1.878,1.522,3.4,3.4,3.4c1.878,0,3.4-1.522,3.4-3.4
					C91.769,1.522,90.246,0,88.369,0z"/>
			</g>
		</g>
		<g>
			<g>
				<path fill="#F5C84C" d="M63.15,27.2c-4.5-0.8-8-4.3-8.9-8.7c0-0.2-0.4-0.2-0.4,0c-0.9,4.4-4.4,7.9-8.9,8.7c-0.2,0-0.2,0.3,0,0.4
					c4.5,0.8,8,4.3,8.9,8.7c0,0.2,0.4,0.2,0.4,0c0.9-4.4,4.4-7.9,8.9-8.7C63.35,27.5,63.35,27.2,63.15,27.2z"/>
			</g>
		</g>
		<g>
			<g>
				<path d="M181.975,186.664c-1.381,0-2.5,1.119-2.5,2.5v63.404c0,1.381,1.119,2.5,2.5,2.5s2.5-1.119,2.5-2.5v-63.404
					C184.475,187.783,183.355,186.664,181.975,186.664z"/>
			</g>
		</g>
		<g>
			<g>
				<path d="M74.025,186.664c-1.381,0-2.5,1.119-2.5,2.5v63.404c0,1.381,1.119,2.5,2.5,2.5s2.5-1.119,2.5-2.5v-63.404
					C76.525,187.783,75.406,186.664,74.025,186.664z"/>
			</g>
		</g>
		<g>
			<g>
				<g>
					<g>
						<path d="M117.93,253.104l-16.471-102.682v0c-0.249-1.549-1.161-2.904-2.503-3.717c-1.34-0.812-2.963-0.995-4.452-0.499
							l-24.956,8.318c-9.354,3.118-16.087,11.467-17.153,21.27l-7.476,68.759c-0.317,2.913,0.624,5.834,2.581,8.016
							c1.957,2.181,4.76,3.432,7.69,3.432h60.271c0.732,0,1.428-0.321,1.903-0.878C117.839,254.564,118.046,253.827,117.93,253.104z
							 M55.19,251c-1.534,0-2.944-0.629-3.968-1.771s-1.498-2.611-1.332-4.136l7.476-68.759c0.855-7.865,6.258-14.564,13.764-17.066
							l24.956-8.318c0.037-0.012,0.073-0.019,0.108-0.019c0.059,0,0.116,0.017,0.17,0.05c0.088,0.054,0.141,0.132,0.158,0.234v0
							L112.529,251H55.19z"/>
					</g>
				</g>
			</g>
		</g>
		<g>
			<g>
				<path d="M160.433,66.507H97.024c-1.381,0-2.5,1.119-2.5,2.5s1.119,2.5,2.5,2.5h63.409c1.381,0,2.5-1.119,2.5-2.5
					S161.814,66.507,160.433,66.507z"/>
			</g>
		</g>
		<g>
			<g>
				<path d="M130.333,108.33l-12.387-39.412c-0.414-1.317-1.814-2.05-3.134-1.635c-1.317,0.414-2.049,1.817-1.635,3.134
					l12.387,39.412c0.335,1.068,1.321,1.751,2.384,1.751c0.248,0,0.5-0.037,0.75-0.116
					C130.015,111.051,130.747,109.647,130.333,108.33z"/>
			</g>
		</g>
		<g>
			<g>
				<path d="M142.646,67.283c-1.317-0.414-2.72,0.318-3.134,1.635l-12.387,39.412c-0.414,1.317,0.318,2.721,1.635,3.134
					c0.25,0.079,0.502,0.116,0.75,0.116c1.063,0,2.049-0.683,2.384-1.751l12.387-39.412C144.695,69.1,143.963,67.696,142.646,67.283
					z"/>
			</g>
		</g>
		<g>
			<g>
				<path d="M125.883,52.401c-1.169-0.734-2.712-0.382-3.447,0.786l-8.992,14.305c-0.735,1.169-0.383,2.712,0.786,3.447
					c0.414,0.26,0.874,0.384,1.328,0.384c0.831,0,1.644-0.415,2.119-1.17l8.992-14.305
					C127.404,54.679,127.052,53.136,125.883,52.401z"/>
			</g>
		</g>
		<g>
			<g>
				<path d="M144.013,67.492l-8.994-14.308c-0.735-1.168-2.278-1.521-3.447-0.786c-1.169,0.735-1.521,2.278-0.786,3.447
					l8.994,14.308c0.475,0.755,1.288,1.17,2.119,1.17c0.455,0,0.915-0.124,1.328-0.384
					C144.396,70.205,144.748,68.661,144.013,67.492z"/>
			</g>
		</g>
		<g>
			<g>
				<path d="M174.399,71.982h-5.253c-1.381,0-2.5,1.119-2.5,2.5s1.119,2.5,2.5,2.5h5.253c1.381,0,2.5-1.119,2.5-2.5
					S175.78,71.982,174.399,71.982z"/>
			</g>
		</g>
		<g>
			<g>
				<path d="M86.854,71.982h-5.253c-1.381,0-2.5,1.119-2.5,2.5s1.119,2.5,2.5,2.5h5.253c1.381,0,2.5-1.119,2.5-2.5
					S88.235,71.982,86.854,71.982z"/>
			</g>
		</g>
		<g>
			<g>
				<path d="M169.948,48.542c-0.69-1.196-2.22-1.607-3.415-0.915l-4.549,2.626c-1.196,0.69-1.605,2.219-0.915,3.415
					c0.463,0.802,1.303,1.25,2.167,1.25c0.424,0,0.854-0.108,1.248-0.335l4.549-2.626C170.229,51.267,170.639,49.738,169.948,48.542
					z"/>
			</g>
		</g>
		<g>
			<g>
				<path d="M94.931,95.295c-0.69-1.196-2.22-1.608-3.415-0.915l-4.549,2.626c-1.196,0.69-1.605,2.219-0.915,3.415
					c0.463,0.802,1.303,1.25,2.167,1.25c0.424,0,0.854-0.108,1.248-0.335l4.549-2.626C95.212,98.02,95.622,96.491,94.931,95.295z"/>
			</g>
		</g>
		<g>
			<g>
				<path d="M94.016,50.253l-4.549-2.626c-1.196-0.692-2.725-0.28-3.415,0.915c-0.69,1.196-0.281,2.725,0.915,3.415l4.549,2.626
					c0.394,0.228,0.824,0.335,1.248,0.335c0.864,0,1.705-0.449,2.167-1.25C95.622,52.473,95.212,50.944,94.016,50.253z"/>
			</g>
		</g>
		<g>
			<g>
				<path d="M169.033,97.007l-4.549-2.626c-1.197-0.693-2.726-0.28-3.415,0.915c-0.69,1.196-0.281,2.725,0.915,3.415l4.549,2.626
					c0.394,0.228,0.824,0.335,1.248,0.335c0.864,0,1.705-0.449,2.167-1.25C170.639,99.226,170.229,97.697,169.033,97.007z"/>
			</g>
		</g>
		<g>
			<g>
				<g>
					<g>
						<path d="M128,13.043c-34.433,0-62.446,28.013-62.446,62.446c0,34.433,28.013,62.446,62.446,62.446
							s62.446-28.013,62.446-62.446C190.446,41.056,162.433,13.043,128,13.043z M128,132.935c-31.676,0-57.446-25.771-57.446-57.446
							S96.324,18.043,128,18.043s57.446,25.77,57.446,57.446S159.676,132.935,128,132.935z"/>
					</g>
				</g>
			</g>
		</g>
		<g>
			<g>
				<path d="M160.815,146.269l-5.127-4.478c-1.073-0.938-2.443-1.4-3.871-1.305c-1.422,0.096-2.722,0.74-3.659,1.814l-15.907,18.211
					c-1.936,2.216-1.708,5.595,0.509,7.53l8.552,7.469c1.01,0.882,2.261,1.315,3.507,1.315c1.488,0,2.969-0.617,4.023-1.823
					l7.737-8.858c0.908-1.04,0.802-2.619-0.238-3.527c-1.04-0.908-2.619-0.801-3.527,0.238l-7.737,8.858
					c-0.121,0.141-0.334,0.155-0.476,0.032l-8.552-7.469c-0.07-0.061-0.108-0.139-0.115-0.231c-0.006-0.093,0.021-0.175,0.083-0.245
					l15.907-18.212c0.061-0.069,0.138-0.108,0.23-0.114c0.062-0.006,0.157,0.006,0.244,0.083l5.127,4.478
					c1.041,0.909,2.62,0.802,3.527-0.238C161.961,148.756,161.855,147.177,160.815,146.269z"/>
			</g>
		</g>
		<g>
			<g>
				<path d="M123.749,160.511L107.842,142.3c-1.936-2.217-5.314-2.445-7.53-0.509l-5.273,4.605c-1.04,0.908-1.146,2.487-0.238,3.527
					c0.908,1.04,2.486,1.146,3.527,0.238l5.273-4.605c0.14-0.122,0.353-0.109,0.476,0.032l15.906,18.211
					c0.122,0.14,0.108,0.353-0.032,0.476l-8.552,7.469c-0.086,0.076-0.175,0.09-0.245,0.083c-0.063-0.004-0.155-0.028-0.23-0.114
					l-7.718-8.836c-0.908-1.041-2.488-1.147-3.527-0.238c-1.04,0.908-1.146,2.487-0.238,3.527l7.718,8.836
					c0.938,1.074,2.237,1.718,3.66,1.813c0.123,0.008,0.245,0.013,0.367,0.013c1.29,0,2.522-0.461,3.503-1.318l8.552-7.469
					C125.456,166.106,125.685,162.728,123.749,160.511z"/>
			</g>
		</g>
		<g>
			<g>
				<path d="M137.488,180.277c-0.135-1.374-1.357-2.374-2.732-2.244c-1.374,0.135-2.379,1.358-2.244,2.732l6.546,66.693
					c0.127,1.291,1.214,2.256,2.485,2.256c0.082,0,0.164-0.004,0.247-0.012c1.374-0.135,2.379-1.358,2.244-2.732L137.488,180.277z"
					/>
			</g>
		</g>
		<g>
			<g>
				<path d="M140.538,251h-25.076c-1.381,0-2.5,1.119-2.5,2.5s1.119,2.5,2.5,2.5h25.076c1.381,0,2.5-1.119,2.5-2.5
					S141.919,251,140.538,251z"/>
			</g>
		</g>
		<g>
			<g>
				<path d="M121.244,178.033c-1.376-0.13-2.598,0.87-2.732,2.244l-6.546,66.692c-0.135,1.374,0.87,2.597,2.244,2.732
					c0.083,0.008,0.166,0.012,0.247,0.012c1.271,0,2.358-0.965,2.485-2.256l6.546-66.692
					C123.623,179.392,122.618,178.168,121.244,178.033z"/>
			</g>
		</g>
		<g>
			<g>
				<g>
					<path d="M132.469,162.021h-8.844c-1.381,0-2.5,1.119-2.5,2.5s1.119,2.5,2.5,2.5h8.844c1.381,0,2.5-1.119,2.5-2.5
						S133.85,162.021,132.469,162.021z"/>
				</g>
			</g>
			<g>
				<g>
					<path d="M140.188,168.848c-1.26-0.56-2.739,0.007-3.3,1.27l-3.513,7.904h-10.751l-3.53-7.944c-0.56-1.262-2.038-1.829-3.3-1.27
						c-1.262,0.561-1.83,2.038-1.27,3.3l4.19,9.429c0.401,0.903,1.297,1.485,2.285,1.485h14c0.988,0,1.883-0.582,2.285-1.485
						l4.173-9.389C142.018,170.886,141.45,169.409,140.188,168.848z"/>
				</g>
			</g>
		</g>
		<g>
			<g>
				<path d="M105.787,251.688L93.41,218.681c-0.464-1.238-0.359-2.608,0.289-3.761l5.484-9.749c0.833-1.482,1.025-3.264,0.527-4.889
					c-0.498-1.625-1.656-2.994-3.176-3.753l-4.634-2.317c-1.524-0.762-2.471-2.294-2.471-3.998v-38.058c0-1.381-1.119-2.5-2.5-2.5
					s-2.5,1.119-2.5,2.5v38.058c0,3.61,2.006,6.855,5.234,8.47L94.298,201c0.414,0.207,0.574,0.557,0.632,0.747
					c0.058,0.19,0.122,0.569-0.104,0.973l-5.484,9.749c-1.374,2.441-1.597,5.345-0.613,7.968l12.377,33.007
					c0.376,1.003,1.329,1.623,2.341,1.623c0.292,0,0.588-0.051,0.877-0.16C105.617,254.422,106.272,252.981,105.787,251.688z"/>
			</g>
		</g>
		<g>
			<g>
				<g>
					<g>
						<path d="M161.355,64.538l-10.144-11.047c-1.325-1.442-3.208-2.27-5.167-2.27h-34.632c-1.959,0-3.843,0.828-5.167,2.271
							L96.102,64.538c-2.297,2.501-2.474,6.28-0.422,8.985l27.459,36.2c1.338,1.764,3.375,2.776,5.59,2.776
							c2.214,0,4.251-1.012,5.589-2.776l27.46-36.2C163.83,70.817,163.652,67.038,161.355,64.538z M157.794,70.501l-27.46,36.2
							c-0.769,1.015-2.442,1.014-3.211,0l-27.459-36.2c-0.589-0.777-0.539-1.863,0.121-2.582l10.144-11.046
							c0.381-0.415,0.922-0.652,1.485-0.652h34.632c0.563,0,1.104,0.238,1.485,0.652l10.143,11.046
							C158.333,68.638,158.384,69.724,157.794,70.501z"/>
					</g>
				</g>
			</g>
		</g>
		<g>
			<g>
				<path d="M149.984,144.169c-1.244-1.799-1.901-3.898-1.901-6.073v-4.471c0-1.381-1.119-2.5-2.5-2.5s-2.5,1.119-2.5,2.5v4.471
					c0,3.195,0.964,6.278,2.789,8.917c0.485,0.702,1.265,1.078,2.059,1.078c0.49,0,0.985-0.144,1.419-0.444
					C150.485,146.862,150.77,145.305,149.984,144.169z"/>
			</g>
		</g>
		<g>
			<g>
				<path d="M110.417,131.188c-1.381,0-2.5,1.119-2.5,2.5v4.408c0,2.221-0.684,4.358-1.977,6.18
					c-0.799,1.126-0.534,2.687,0.591,3.486c0.439,0.312,0.945,0.461,1.445,0.461c0.782,0,1.553-0.366,2.041-1.053
					c1.897-2.672,2.899-5.81,2.899-9.074v-4.408C112.917,132.307,111.798,131.188,110.417,131.188z"/>
			</g>
		</g>
		<g>
			<g>
				<path fill="#3A70BF" d="M208.595,244.823l-7.476-68.759c-0.963-8.862-7.002-16.349-15.458-19.168l-24.956-8.319
					c-1.659-0.553-3.419,0.514-3.696,2.241L140.538,253.5h60.272C205.47,253.5,209.098,249.455,208.595,244.823z"/>
			</g>
		</g>
		<g>
			<g>
				<path fill="#5290DB" d="M160.705,148.577c-1.659-0.553-3.419,0.514-3.696,2.241L140.538,253.5h11.665l12.728-33.941
					c0.722-1.926,0.557-4.072-0.451-5.864l-5.484-9.749c-1.048-1.864-0.325-4.225,1.588-5.181l4.633-2.317
					c2.361-1.181,3.853-3.594,3.853-6.234v-38.849L160.705,148.577z"/>
			</g>
		</g>
		<g>
			<g>
				<g>
					<g>
						<path d="M211.08,244.553l-7.476-68.759c-1.065-9.803-7.799-18.152-17.153-21.27l-24.955-8.318
							c-1.488-0.496-3.111-0.315-4.452,0.499c-1.342,0.813-2.254,2.168-2.503,3.717v0L138.07,253.104
							c-0.116,0.723,0.091,1.46,0.565,2.018c0.475,0.558,1.17,0.878,1.903,0.878h60.271c2.931,0,5.733-1.251,7.69-3.432
							C210.457,250.387,211.397,247.465,211.08,244.553z M204.778,249.229c-1.024,1.142-2.434,1.771-3.968,1.771h-57.338
							l16.006-99.786c0.017-0.102,0.069-0.181,0.158-0.234c0.088-0.054,0.18-0.064,0.279-0.031l24.956,8.318
							c7.506,2.502,12.909,9.201,13.764,17.067l7.476,68.759C206.275,246.618,205.802,248.087,204.778,249.229z"/>
					</g>
				</g>
			</g>
		</g>
		<g>
			<g>
				<path d="M169.07,150.063c-1.381,0-2.5,1.119-2.5,2.5v37.651c0,1.704-0.947,3.236-2.471,3.998l-4.634,2.317
					c-1.52,0.76-2.678,2.128-3.176,3.753c-0.499,1.625-0.306,3.407,0.527,4.889l5.484,9.749c0.648,1.152,0.753,2.523,0.289,3.761
					l-12.393,33.049c-0.485,1.293,0.17,2.734,1.463,3.219c0.29,0.108,0.586,0.16,0.877,0.16c1.012,0,1.965-0.619,2.341-1.623
					l12.393-33.049c0.983-2.623,0.76-5.527-0.613-7.968l-5.483-9.749c-0.227-0.403-0.163-0.782-0.105-0.973
					c0.058-0.19,0.218-0.54,0.632-0.747l4.634-2.317c3.229-1.615,5.234-4.86,5.234-8.47v-37.651
					C171.57,151.182,170.451,150.063,169.07,150.063z"/>
			</g>
		</g>
	</g>
</g>
<g id="Layer_42">
</g>
<g id="Layer_43">
</g>
<g id="Layer_44">
</g>
<g id="Layer_45">
</g>
<g id="Layer_46">
</g>
<g id="Layer_47">
</g>
<g id="Layer_48">
</g>
<g id="Layer_49">
</g>
<g id="Layer_50">
</g>
<g id="Layer_51">
</g>
<g id="Layer_52">
</g>
<g id="Layer_53">
</g>
<g id="Layer_54">
</g>
<g id="Layer_55">
</g>
<g id="Layer_56">
</g>
<g id="Layer_57">
</g>
<g id="Layer_58">
</g>
<g id="Layer_59">
</g>
<g id="Layer_60">
</g>
<g id="Layer_61">
</g>
<g id="Layer_62">
</g>
<g id="Layer_63">
</g>
<g id="Layer_64">
</g>
<g id="Layer_65">
</g>
<g id="Layer_66">
</g>
<g id="Layer_67">
</g>
<g id="Layer_68">
</g>
<g id="Layer_69">
</g>
<g id="Layer_70">
</g>
<g id="Layer_71">
</g>
<g id="Layer_72">
</g>
<g id="Layer_73">
</g>
<g id="Layer_74">
</g>
<g id="Layer_75">
</g>
<g id="Layer_76">
</g>
<g id="Layer_77">
</g>
<g id="Layer_78">
</g>
<g id="Layer_79">
</g>
<g id="Layer_80">
</g>
</svg>
