<?xml version="1.0" encoding="utf-8"?>
<!-- Generator: Adobe Illustrator 24.0.0, SVG Export Plug-In . SVG Version: 6.00 Build 0)  -->
<svg version="1.1" xmlns="http://www.w3.org/2000/svg" xmlns:xlink="http://www.w3.org/1999/xlink" x="0px" y="0px"
	 viewBox="0 0 256 256" enable-background="new 0 0 256 256" xml:space="preserve">
<g id="Layer_1">
</g>
<g id="Layer_2">
</g>
<g id="Layer_3">
</g>
<g id="Layer_4">
</g>
<g id="Layer_5">
</g>
<g id="Layer_6">
</g>
<g id="Layer_7">
</g>
<g id="Layer_8">
</g>
<g id="Layer_9">
</g>
<g id="Layer_10">
</g>
<g id="Layer_11">
</g>
<g id="Layer_12">
</g>
<g id="Layer_13">
</g>
<g id="Layer_14">
</g>
<g id="Layer_15">
</g>
<g id="Layer_16">
</g>
<g id="Layer_17">
</g>
<g id="Layer_18">
</g>
<g id="Layer_19">
</g>
<g id="Layer_20">
</g>
<g id="Layer_21">
</g>
<g id="Layer_22">
</g>
<g id="Layer_23">
</g>
<g id="Layer_24">
</g>
<g id="Layer_25">
</g>
<g id="Layer_26">
</g>
<g id="Layer_27">
</g>
<g id="Layer_28">
</g>
<g id="Layer_29">
</g>
<g id="Layer_30">
</g>
<g id="Layer_31">
</g>
<g id="Layer_32">
</g>
<g id="Layer_33">
</g>
<g id="Layer_34">
</g>
<g id="Layer_35">
</g>
<g id="Layer_36">
</g>
<g id="Layer_37">
</g>
<g id="Layer_38">
</g>
<g id="Layer_39">
</g>
<g id="Layer_40">
</g>
<g id="Layer_41">
</g>
<g id="Layer_42">
</g>
<g id="Layer_43">
</g>
<g id="Layer_44">
</g>
<g id="Layer_45">
</g>
<g id="Layer_46">
</g>
<g id="Layer_47">
</g>
<g id="Layer_48">
</g>
<g id="Layer_49">
</g>
<g id="Layer_50">
</g>
<g id="Layer_51">
</g>
<g id="Layer_52">
</g>
<g id="Layer_53">
</g>
<g id="Layer_54">
</g>
<g id="Layer_55">
</g>
<g id="Layer_56">
</g>
<g id="Layer_57">
</g>
<g id="Layer_58">
</g>
<g id="Layer_59">
	<g>
		<g>
			<g>
				<path fill="#F9D0B4" d="M141.285,124.727c-2.253-2.363-5.917-2.581-8.485-0.564c-4.061,3.188-11.088,7.128-21.013,7.128
					c-9.949,0-17.013-3.959-21.091-7.151c-2.566-2.008-6.222-1.783-8.471,0.575l-0.012,0.012c-3.16,3.314-4.923,7.717-4.923,12.295
					v28.92c0,18.952,15.507,34.459,34.459,34.459c18.953,0,34.459-15.507,34.459-34.459v-28.92
					C146.207,132.444,144.444,128.041,141.285,124.727z"/>
			</g>
		</g>
		<g>
			<g>
				<path fill="#F9D0B4" d="M148.419,139.68c-0.753,0-1.49,0.063-2.211,0.176v26.087c0,0.777-0.035,1.546-0.087,2.311
					c0.75,0.121,1.514,0.2,2.298,0.2c7.946,0,14.387-6.441,14.387-14.387C162.805,146.121,156.364,139.68,148.419,139.68z"/>
			</g>
		</g>
		<g>
			<g>
				<path fill="#F9D0B4" d="M77.289,165.942v-26.087c-0.721-0.112-1.458-0.176-2.211-0.176c-7.946,0-14.387,6.441-14.387,14.387
					c0,7.946,6.441,14.387,14.387,14.387c0.784,0,1.548-0.08,2.298-0.2v-0.001C77.325,167.488,77.289,166.719,77.289,165.942z"/>
			</g>
		</g>
		<g>
			<g>
				<path fill="#5B5D60" d="M146.079,110.286c-1.154,0-2.154-0.89-2.17-2.044c-0.264-19.202-22.191-22.809-44.028-19.038
					c-18.514,3.197-32.045,19.251-32.045,38.039v14.406c2.129-1.244,4.598-1.97,7.242-1.97c0.753,0,1.49,0.063,2.211,0.176v-2.833
					c0-4.579,1.763-8.982,4.923-12.295l0.012-0.012c2.249-2.358,5.905-2.583,8.471-0.575c4.078,3.192,11.142,7.151,21.091,7.151
					c9.925,0,16.952-3.94,21.013-7.128c2.568-2.016,6.232-1.799,8.485,0.564c3.16,3.314,4.923,7.717,4.923,12.295v2.833
					c0.721-0.112,1.458-0.176,2.211-0.176c2.676,0,5.172,0.744,7.318,2.016v-11.829
					C155.737,112.674,149.528,110.286,146.079,110.286z"/>
			</g>
		</g>
		<g>
			<g>
				<path fill="#DAE6F1" d="M128.866,233.936c-0.931,1.066-2.549,1.175-3.614,0.244l-7.721-6.744
					c-1.065-0.931-1.175-2.549-0.244-3.614l12.729-14.574c-1.521-2.025-2.393-4.519-2.393-7.149v-5.608
					c-4.759,2.491-10.158,3.91-15.875,3.91h0c-5.717,0-11.116-1.419-15.875-3.91v5.608c0,2.63-0.871,5.124-2.393,7.149l12.73,14.574
					c0.93,1.065,0.821,2.683-0.244,3.614l-7.721,6.744c-1.065,0.931-2.683,0.822-3.614-0.244l-7.117-8.148l4.445,27.711h39.578
					l4.445-27.712L128.866,233.936z"/>
			</g>
		</g>
		<g>
			<g>
				<path fill="#3A70BF" d="M85.556,213.586c-0.25-1.559-1.839-2.522-3.337-2.023l-22.532,7.51
					c-7.635,2.545-13.087,9.305-13.957,17.306l-1.262,11.611c-0.32,2.941,1.984,5.51,4.943,5.51h42.547L85.556,213.586z"/>
			</g>
		</g>
		<g>
			<g>
				<path fill="#3A70BF" d="M179.028,247.99l-1.262-11.611c-0.87-8.001-6.322-14.761-13.957-17.306l-22.532-7.51
					c-1.498-0.5-3.087,0.464-3.337,2.023l-6.403,39.914h42.547C177.043,253.5,179.348,250.932,179.028,247.99z"/>
			</g>
		</g>
		<g>
			<g>
				<path fill="#5290DB" d="M186.077,192.296l-7.665-6.968c-2.634-2.395-6.713-2.199-9.108,0.433
					c-2.396,2.635-2.202,6.713,0.433,9.108l7.665,6.968c2.635,2.396,6.713,2.201,9.108-0.434
					C188.906,198.769,188.712,194.691,186.077,192.296z"/>
			</g>
		</g>
		<g>
			<g>
				<path fill="#5290DB" d="M54.192,185.761c-2.395-2.633-6.474-2.828-9.108-0.433l-7.665,6.968
					c-2.635,2.395-2.829,6.473-0.433,9.108c2.395,2.635,6.473,2.829,9.108,0.434l7.665-6.968
					C56.393,192.475,56.588,188.396,54.192,185.761z"/>
			</g>
		</g>
		<g>
			<g>
				<path fill="#FC657E" d="M227.818,80.737c-3.294-0.332-6.237,2.073-6.568,5.371l-0.605,6.028l-31.862-40.123
					c-1.481-1.866-3.927-2.677-6.233-2.068l-32.358,8.566L116.266,16.52c-2.083-2.578-5.86-2.98-8.438-0.896
					c-2.578,2.082-2.979,5.86-0.896,8.438l36.369,45.016c1.487,1.84,3.919,2.635,6.202,2.029l32.324-8.557l30.016,37.799
					l-7.101-0.712c-3.313-0.338-6.239,2.074-6.569,5.37c-0.331,3.298,2.073,6.238,5.37,6.569l20.97,2.104
					c3.284,0.336,6.24-2.069,6.569-5.371l2.107-21.003C233.521,84.009,231.116,81.067,227.818,80.737z"/>
			</g>
		</g>
		<g>
			<g>
				<path fill="#5290DB" d="M85.556,213.586c-0.25-1.559-1.839-2.522-3.337-2.023l-7.552,2.517v35.075
					c0,1.65,0.657,3.192,1.761,4.345h15.531L85.556,213.586z"/>
			</g>
		</g>
		<g>
			<g>
				<path fill="#5290DB" d="M141.277,211.563c-1.498-0.5-3.087,0.464-3.337,2.023l-6.403,39.914h15.531
					c1.104-1.153,1.761-2.695,1.761-4.345V214.08L141.277,211.563z"/>
			</g>
		</g>
		<g>
			<g>
				<path fill="#EDF4FC" d="M135.262,207.135c-1.065-0.93-2.683-0.821-3.614,0.244l-14.362,16.443
					c-0.931,1.065-0.821,2.684,0.244,3.614l7.721,6.744c1.065,0.931,2.683,0.821,3.614-0.244l7.117-8.148l1.957-12.203
					c0.19-1.184,1.152-2.02,2.26-2.137L135.262,207.135z"/>
			</g>
		</g>
		<g>
			<g>
				<path fill="#EDF4FC" d="M106.21,223.823L91.848,207.38c-0.931-1.065-2.549-1.175-3.614-0.244l-4.938,4.313
					c1.108,0.117,2.07,0.954,2.26,2.137l1.957,12.203l7.117,8.148c0.93,1.065,2.549,1.175,3.614,0.244l7.721-6.744
					C107.031,226.506,107.14,224.888,106.21,223.823z"/>
			</g>
		</g>
		<g>
			<g>
				<polygon fill="#FC657E" points="118.068,240.404 105.428,240.404 104.143,253.5 119.354,253.5 				"/>
			</g>
		</g>
		<g>
			<g>
				<path fill="#F98FA6" d="M117.531,227.437c-0.456-0.398-0.726-0.925-0.825-1.478h-9.915c-0.099,0.553-0.369,1.08-0.825,1.478
					l-4.539,3.965l4.001,9.003h12.64l4.001-9.003L117.531,227.437z"/>
			</g>
		</g>
		<g>
			<g>
				<path fill="#F9D0B4" d="M130.016,209.248c-1.521-2.025-2.393-4.519-2.393-7.149v-5.608c-4.759,2.491-10.158,3.91-15.875,3.91h0
					c-5.717,0-11.116-1.419-15.875-3.91v5.608c0,2.63-0.871,5.124-2.393,7.149l12.73,14.574c0.532,0.609,0.713,1.397,0.581,2.136
					h9.915c-0.132-0.739,0.049-1.527,0.581-2.136L130.016,209.248z"/>
			</g>
		</g>
		<g>
			<g>
				<path fill="#70D6F9" d="M224.906,150.1h-2.4v-2.3c0-1.8-1.4-3.2-3.2-3.2c-1.7,0-3.2,1.4-3.2,3.1v2.4h-2.3
					c-1.8,0-3.2,1.4-3.2,3.2c-0.1,1.7,1.3,3.2,3.2,3.2h2.3v2.3c0,1.8,1.4,3.2,3.2,3.2c1.7,0,3.2-1.4,3.2-3.1v-2.4h2.3
					c1.8,0,3.2-1.4,3.2-3.2C228.006,151.6,226.606,150.1,224.906,150.1z"/>
			</g>
		</g>
		<g>
			<g>
				<path fill="#FC657E" d="M206.206,181.5c-1.878,0-3.4,1.522-3.4,3.4c0,1.878,1.522,3.4,3.4,3.4s3.4-1.522,3.4-3.4
					C209.606,183.022,208.083,181.5,206.206,181.5z"/>
			</g>
		</g>
		<g>
			<g>
				<path fill="#87D147" d="M34.15,144.175c-3.1-0.6-5.6-3-6.2-6.1c0-0.1-0.3-0.1-0.3,0c-0.6,3.1-3.1,5.5-6.2,6.1
					c-0.1,0-0.1,0.2,0,0.3c3.1,0.6,5.6,3,6.2,6.1c0,0.1,0.3,0.1,0.3,0c0.6-3.1,3.1-5.5,6.2-6.1
					C34.25,144.375,34.25,144.175,34.15,144.175z"/>
			</g>
		</g>
		<g>
			<g>
				<path fill="#F5C84C" d="M84.369,0c-1.878,0-3.4,1.522-3.4,3.4c0,1.878,1.522,3.4,3.4,3.4c1.878,0,3.4-1.522,3.4-3.4
					C87.769,1.522,86.246,0,84.369,0z"/>
			</g>
		</g>
		<g>
			<g>
				<path fill="#FC657E" d="M65.15,28.2c-4.5-0.8-8-4.3-8.9-8.7c0-0.2-0.4-0.2-0.4,0c-0.9,4.4-4.4,7.9-8.9,8.7c-0.2,0-0.2,0.3,0,0.4
					c4.5,0.8,8,4.3,8.9,8.7c0,0.2,0.4,0.2,0.4,0c0.9-4.4,4.4-7.9,8.9-8.7C65.35,28.5,65.35,28.2,65.15,28.2z"/>
			</g>
		</g>
		<g>
			<g>
				<g>
					<g>
						<path d="M143.094,123.001c-3.141-3.294-8.229-3.638-11.839-0.805c-3.831,3.008-10.319,6.594-19.469,6.594
							c-9.167,0-15.691-3.6-19.551-6.619c-3.604-2.82-8.686-2.469-11.833,0.83c-3.62,3.797-5.613,8.776-5.613,14.021v28.92
							c0,20.379,16.58,36.959,36.959,36.959s36.959-16.58,36.959-36.959v-28.92C148.707,131.777,146.714,126.798,143.094,123.001z
							 M143.707,165.942c0,17.622-14.337,31.959-31.959,31.959s-31.959-14.337-31.959-31.959v-28.92
							c0-3.954,1.503-7.708,4.244-10.582c0.735-0.772,1.724-1.166,2.725-1.166c0.837,0,1.682,0.275,2.396,0.834
							c4.479,3.505,12.041,7.682,22.632,7.682c10.577,0,18.104-4.166,22.557-7.66c1.572-1.236,3.781-1.098,5.132,0.322
							c2.729,2.862,4.232,6.616,4.232,10.57V165.942z"/>
					</g>
				</g>
			</g>
		</g>
		<g>
			<g>
				<path d="M148.419,137.18c-0.467,0-0.929,0.021-1.386,0.06c-1.375,0.119-2.395,1.33-2.276,2.706
					c0.119,1.376,1.338,2.399,2.706,2.276c0.314-0.027,0.634-0.042,0.956-0.042c6.555,0,11.887,5.333,11.887,11.888
					s-5.332,11.887-11.887,11.887c-0.341,0-0.692-0.019-1.072-0.059c-1.368-0.142-2.602,0.857-2.743,2.231
					c-0.141,1.373,0.858,2.602,2.231,2.743c0.552,0.057,1.07,0.084,1.584,0.084c9.312,0,16.887-7.575,16.887-16.887
					S157.73,137.18,148.419,137.18z"/>
			</g>
		</g>
		<g>
			<g>
				<path d="M75.078,142.18c0.381,0,0.781,0.021,1.188,0.063c1.367,0.135,2.602-0.858,2.743-2.231
					c0.141-1.373-0.858-2.602-2.231-2.743c-0.576-0.059-1.147-0.089-1.699-0.089c-9.312,0-16.888,7.576-16.888,16.888
					s7.576,16.887,16.888,16.887c0.426,0,0.849-0.02,1.266-0.055c1.376-0.115,2.397-1.324,2.282-2.7
					c-0.115-1.377-1.35-2.404-2.7-2.282c-0.28,0.023-0.563,0.037-0.848,0.037c-6.555,0-11.888-5.332-11.888-11.887
					S68.523,142.18,75.078,142.18z"/>
			</g>
		</g>
		<g>
			<g>
				<path d="M146.399,107.791c-0.186-6.457-2.612-11.668-7.218-15.491c-7.868-6.535-22.347-8.56-39.727-5.56
					c-19.77,3.415-34.119,20.448-34.119,40.503v13.788c0,1.381,1.119,2.5,2.5,2.5s2.5-1.119,2.5-2.5v-13.788
					c0-17.615,12.604-32.576,29.971-35.575c15.934-2.752,28.94-1.12,35.681,4.478c3.577,2.971,5.35,6.938,5.421,12.131
					c0.034,2.486,2.129,4.51,4.671,4.51c4.549,0,7.157,6.226,7.157,17.081v11.404c0,1.381,1.119,2.5,2.5,2.5s2.5-1.119,2.5-2.5
					v-11.404C158.236,111.1,150.968,107.928,146.399,107.791z"/>
			</g>
		</g>
		<g>
			<g>
				<path d="M95.873,194.375c-1.381,0-2.5,1.119-2.5,2.5v5.225c0,1.931-0.588,3.793-1.701,5.385
					c-0.791,1.132-0.515,2.69,0.616,3.481c0.437,0.305,0.936,0.451,1.431,0.451c0.788,0,1.564-0.372,2.051-1.067
					c1.703-2.437,2.604-5.289,2.604-8.25v-5.225C98.373,195.494,97.254,194.375,95.873,194.375z"/>
			</g>
		</g>
		<g>
			<g>
				<path d="M131.862,207.537c-1.138-1.603-1.739-3.482-1.739-5.438v-4.975c0-1.381-1.119-2.5-2.5-2.5s-2.5,1.119-2.5,2.5v4.975
					c0,2.998,0.92,5.879,2.661,8.332c0.488,0.687,1.259,1.053,2.041,1.053c0.501,0,1.006-0.149,1.445-0.461
					C132.396,210.224,132.661,208.663,131.862,207.537z"/>
			</g>
		</g>
		<g>
			<g>
				<path d="M131.537,251H91.959c-1.381,0-2.5,1.119-2.5,2.5s1.119,2.5,2.5,2.5h39.578c1.381,0,2.5-1.119,2.5-2.5
					S132.918,251,131.537,251z"/>
			</g>
		</g>
		<g>
			<g>
				<g>
					<g>
						<path d="M94.428,253.104l-6.403-39.916c-0.236-1.469-1.102-2.754-2.373-3.524c-1.272-0.771-2.813-0.942-4.222-0.474
							c0,0,0,0-0.001,0l-22.532,7.511c-8.535,2.846-14.679,10.464-15.651,19.408l-1.262,11.61c-0.229,2.106,0.451,4.22,1.866,5.797
							c1.415,1.578,3.442,2.483,5.563,2.483h42.547c0.732,0,1.428-0.321,1.902-0.878C94.337,254.564,94.543,253.827,94.428,253.104z
							 M49.412,251c-0.712,0-1.365-0.292-1.841-0.821c-0.475-0.53-0.694-1.211-0.617-1.918l1.262-11.61
							c0.762-7.008,5.575-12.977,12.263-15.205l22.532-7.511l-0.791-2.372l0.868,2.419L89.026,251H49.412z"/>
					</g>
				</g>
			</g>
		</g>
		<g>
			<g>
				<g>
					<g>
						<path d="M181.513,247.72l-1.262-11.61c-0.973-8.944-7.116-16.563-15.651-19.408l-22.533-7.511
							c-1.41-0.469-2.95-0.297-4.222,0.474s-2.137,2.056-2.374,3.526l-6.402,39.914c-0.115,0.723,0.091,1.46,0.566,2.018
							c0.475,0.557,1.17,0.878,1.902,0.878h42.548c2.119,0,4.146-0.905,5.562-2.482C181.062,251.939,181.742,249.827,181.513,247.72
							z M175.925,250.179c-0.476,0.529-1.129,0.821-1.84,0.821h-39.609l6.01-37.065l22.532,7.511
							c6.688,2.229,11.501,8.197,12.263,15.205l1.262,11.61C176.619,248.968,176.399,249.649,175.925,250.179z"/>
					</g>
				</g>
			</g>
		</g>
		<g>
			<g>
				<path d="M123.501,177.438c-2.568-3.065-6.774-4.895-11.252-4.895c-4.476,0-8.682,1.829-11.252,4.894
					c-0.887,1.058-0.748,2.635,0.31,3.522c1.06,0.887,2.635,0.75,3.522-0.31c1.631-1.945,4.404-3.106,7.42-3.106
					c3.017,0,5.79,1.161,7.42,3.105c0.494,0.591,1.203,0.895,1.917,0.895c0.566,0,1.137-0.191,1.604-0.584
					C124.249,180.073,124.388,178.496,123.501,177.438z"/>
			</g>
		</g>
		<g>
			<g>
				<ellipse transform="matrix(0.0985 -0.9951 0.9951 0.0985 -39.6971 267.4929)" cx="127.795" cy="155.657" rx="4.63" ry="4.63"/>
			</g>
		</g>
		<g>
			<g>
				<ellipse transform="matrix(0.0985 -0.9951 0.9951 0.0985 -67.7257 236.5519)" cx="96.703" cy="155.657" rx="4.63" ry="4.63"/>
			</g>
		</g>
		<g>
			<g>
				<path d="M191.668,202.714l-2.684-2.439c-1.021-0.929-2.603-0.854-3.531,0.168s-0.854,2.603,0.168,3.531l2.684,2.439
					c4.393,3.993,6.911,9.688,6.911,15.624V253.5c0,1.381,1.119,2.5,2.5,2.5s2.5-1.119,2.5-2.5v-31.463
					C200.216,214.695,197.101,207.652,191.668,202.714z"/>
			</g>
		</g>
		<g>
			<g>
				<g>
					<g>
						<g>
							<path d="M187.759,190.446l-7.665-6.968c-3.649-3.318-9.32-3.049-12.639,0.601c-1.608,1.769-2.432,4.058-2.318,6.445
								c0.114,2.388,1.15,4.587,2.919,6.194l7.665,6.968c1.711,1.557,3.866,2.323,6.015,2.323c2.435,0,4.862-0.985,6.625-2.924
								c1.608-1.769,2.431-4.058,2.317-6.445C190.563,194.253,189.527,192.053,187.759,190.446z M184.661,199.723
								c-1.466,1.607-3.968,1.729-5.577,0.265l-7.665-6.968c-0.78-0.709-1.237-1.68-1.287-2.732
								c-0.051-1.054,0.313-2.063,1.022-2.844c0.709-0.779,1.68-1.236,2.733-1.287c0.064-0.003,0.128-0.004,0.192-0.004
								c0.983,0,1.918,0.36,2.65,1.025l7.665,6.968c0.78,0.709,1.237,1.68,1.288,2.733
								C185.733,197.932,185.37,198.942,184.661,199.723z"/>
						</g>
					</g>
				</g>
			</g>
		</g>
		<g>
			<g>
				<path d="M38.043,200.442c-0.929-1.022-2.51-1.099-3.531-0.168l-2.684,2.439c-5.433,4.938-8.548,11.981-8.548,19.323V253.5
					c0,1.381,1.119,2.5,2.5,2.5s2.5-1.119,2.5-2.5v-31.463c0-5.936,2.519-11.631,6.911-15.624l2.684-2.439
					C38.896,203.045,38.972,201.464,38.043,200.442z"/>
			</g>
		</g>
		<g>
			<g>
				<g>
					<g>
						<g>
							<path d="M56.041,184.08c-3.318-3.65-8.988-3.92-12.639-0.602l-7.665,6.968c-1.769,1.606-2.805,3.807-2.919,6.194
								c-0.113,2.388,0.709,4.677,2.317,6.445c1.764,1.939,4.189,2.924,6.624,2.924c2.149,0,4.305-0.768,6.016-2.323l7.665-6.968
								c1.769-1.607,2.805-3.807,2.919-6.194C58.473,188.137,57.649,185.848,56.041,184.08z M52.077,193.02l-7.665,6.968
								c-1.61,1.464-4.111,1.346-5.577-0.265c-0.709-0.78-1.072-1.791-1.022-2.844c0.051-1.054,0.508-2.024,1.288-2.733l7.665-6.968
								c0.732-0.665,1.667-1.025,2.65-1.025c0.064,0,0.128,0.001,0.192,0.004c1.054,0.051,2.024,0.508,2.733,1.288
								c0.71,0.779,1.073,1.789,1.022,2.843C53.314,191.34,52.857,192.311,52.077,193.02z"/>
						</g>
					</g>
				</g>
			</g>
		</g>
		<g>
			<g>
				<g>
					<g>
						<path d="M233.8,81.326c-1.437-1.757-3.472-2.85-5.73-3.076c-2.254-0.228-4.47,0.438-6.229,1.876
							c-1.732,1.416-2.818,3.413-3.067,5.632l-28.032-35.3c-2.097-2.642-5.565-3.791-8.831-2.931l-30.792,8.152L118.21,14.948
							c-1.427-1.767-3.456-2.871-5.714-3.111c-2.252-0.237-4.474,0.414-6.238,1.841c-1.767,1.427-2.872,3.456-3.112,5.714
							c-0.239,2.259,0.414,4.475,1.842,6.24l36.369,45.016c2.104,2.604,5.558,3.733,8.786,2.875l30.743-8.139l25.321,31.887
							l-1.211-0.122c-2.265-0.231-4.474,0.433-6.229,1.866c-1.76,1.437-2.854,3.476-3.081,5.741
							c-0.469,4.664,2.944,8.839,7.607,9.307l20.965,2.104c0.294,0.03,0.587,0.045,0.878,0.045c1.945,0,3.817-0.665,5.349-1.915
							c1.764-1.439,2.859-3.478,3.085-5.738l2.107-21.003C235.903,85.296,235.237,83.084,233.8,81.326z M230.702,87.056
							l-2.107,21.004c-0.094,0.932-0.545,1.771-1.271,2.363c-0.725,0.592-1.63,0.869-2.561,0.77l-20.97-2.104
							c-1.92-0.193-3.325-1.912-3.133-3.833c0.094-0.936,0.544-1.776,1.269-2.367c0.626-0.511,1.395-0.783,2.198-0.783
							c0.121,0,0.243,0.006,0.366,0.019l7.102,0.712c0.99,0.104,1.962-0.407,2.443-1.289s0.389-1.966-0.236-2.753l-30.017-37.799
							c-0.618-0.778-1.64-1.115-2.598-0.862l-32.325,8.558c-1.334,0.353-2.751-0.113-3.617-1.185l-36.369-45.016
							c-0.588-0.728-0.856-1.64-0.758-2.569s0.554-1.765,1.282-2.353c0.727-0.589,1.641-0.853,2.567-0.759
							c0.93,0.1,1.766,0.555,2.354,1.282l33.926,41.991c0.62,0.767,1.632,1.097,2.584,0.846l32.356-8.566
							c1.344-0.355,2.774,0.118,3.638,1.206l31.862,40.123c0.634,0.797,1.685,1.131,2.662,0.844
							c0.977-0.286,1.682-1.137,1.783-2.149l0.604-6.026c0.094-0.931,0.544-1.77,1.269-2.361c0.724-0.592,1.632-0.865,2.562-0.772
							c0.001,0,0.001,0,0.002,0c0.931,0.094,1.769,0.543,2.36,1.267C230.521,85.215,230.795,86.126,230.702,87.056z"/>
					</g>
				</g>
			</g>
		</g>
		<g>
			<g>
				<path d="M78.182,251.716c-0.654-0.709-1.015-1.618-1.015-2.561v-34.363c0-1.381-1.119-2.5-2.5-2.5s-2.5,1.119-2.5,2.5v34.363
					c0,2.202,0.831,4.316,2.341,5.951c0.492,0.534,1.164,0.805,1.838,0.805c0.606,0,1.214-0.22,1.694-0.663
					C79.055,254.312,79.118,252.73,78.182,251.716z"/>
			</g>
		</g>
		<g>
			<g>
				<path d="M148.829,212.333c-1.381,0-2.5,1.119-2.5,2.5v34.322c0,0.909-0.339,1.795-0.953,2.493
					c-0.912,1.037-0.811,2.616,0.226,3.528c0.476,0.418,1.063,0.623,1.65,0.623c0.693,0,1.384-0.287,1.878-0.849
					c1.418-1.612,2.199-3.671,2.199-5.796v-34.322C151.329,213.452,150.21,212.333,148.829,212.333z"/>
			</g>
		</g>
		<g>
			<g>
				<path d="M141.579,209.334l-4.673-4.081c-1.019-0.89-2.333-1.328-3.67-1.238c-1.349,0.092-2.581,0.702-3.471,1.721
					l-14.362,16.442c-0.89,1.019-1.329,2.321-1.238,3.671c0.092,1.349,0.702,2.581,1.721,3.471l7.722,6.744
					c0.93,0.813,2.099,1.25,3.322,1.25c0.115,0,0.232-0.004,0.349-0.012c1.349-0.092,2.581-0.702,3.471-1.721l6.987-8.001
					c0.908-1.04,0.802-2.619-0.238-3.527c-1.038-0.908-2.619-0.802-3.527,0.238l-7.074,8.007l-7.728-6.831l14.448-16.448
					l4.673,4.081c1.037,0.907,2.618,0.801,3.527-0.238C142.726,211.821,142.619,210.242,141.579,209.334z"/>
			</g>
		</g>
		<g>
			<g>
				<path d="M108.093,222.178l-14.361-16.442c-0.89-1.019-2.122-1.629-3.471-1.721c-1.36-0.092-2.654,0.35-3.671,1.238l-4.832,4.22
					c-1.04,0.908-1.146,2.487-0.238,3.527c0.908,1.039,2.488,1.147,3.527,0.238l4.919-4.214l14.355,16.529l-7.808,6.738l-7.06-8.082
					c-0.908-1.041-2.489-1.146-3.527-0.238c-1.04,0.908-1.146,2.487-0.238,3.527l7.059,8.081c0.889,1.019,2.122,1.63,3.471,1.722
					c0.117,0.008,0.233,0.012,0.349,0.012c1.224,0,2.393-0.438,3.322-1.25l7.722-6.744c1.019-0.89,1.629-2.122,1.721-3.471
					C109.422,224.499,108.982,223.196,108.093,222.178z"/>
			</g>
		</g>
		<g>
			<g>
				<path d="M120.557,240.16c-0.126-1.28-1.202-2.256-2.488-2.256h-12.641c-1.286,0-2.362,0.976-2.488,2.256l-1.18,12.022
					c-0.135,1.374,0.87,2.598,2.244,2.732c1.366,0.133,2.597-0.869,2.732-2.244l0.958-9.767h8.107l0.981,10.005
					c0.127,1.291,1.215,2.256,2.485,2.256c0.082,0,0.164-0.004,0.247-0.012c1.374-0.135,2.379-1.358,2.244-2.732L120.557,240.16z"/>
			</g>
		</g>
		<g>
			<g>
				<g>
					<path d="M115.542,223.458h-7.709c-1.381,0-2.5,1.119-2.5,2.5s1.119,2.5,2.5,2.5h7.709c1.381,0,2.5-1.119,2.5-2.5
						S116.923,223.458,115.542,223.458z"/>
				</g>
			</g>
			<g>
				<g>
					<path d="M122.949,229.422c-1.261-0.563-2.739,0.006-3.3,1.269l-3.865,8.698c-0.562,1.262,0.007,2.739,1.269,3.3
						c0.33,0.147,0.675,0.217,1.015,0.217c0.957,0,1.871-0.554,2.285-1.485l3.865-8.698
						C124.779,231.46,124.211,229.982,122.949,229.422z"/>
				</g>
			</g>
			<g>
				<g>
					<path d="M107.712,239.389l-3.795-8.538c-0.561-1.263-2.041-1.831-3.3-1.269c-1.262,0.561-1.83,2.038-1.269,3.3l3.795,8.538
						c0.414,0.932,1.328,1.485,2.285,1.485c0.34,0,0.685-0.069,1.015-0.217C107.705,242.128,108.273,240.65,107.712,239.389z"/>
				</g>
			</g>
		</g>
	</g>
</g>
<g id="Layer_60">
</g>
<g id="Layer_61">
</g>
<g id="Layer_62">
</g>
<g id="Layer_63">
</g>
<g id="Layer_64">
</g>
<g id="Layer_65">
</g>
<g id="Layer_66">
</g>
<g id="Layer_67">
</g>
<g id="Layer_68">
</g>
<g id="Layer_69">
</g>
<g id="Layer_70">
</g>
<g id="Layer_71">
</g>
<g id="Layer_72">
</g>
<g id="Layer_73">
</g>
<g id="Layer_74">
</g>
<g id="Layer_75">
</g>
<g id="Layer_76">
</g>
<g id="Layer_77">
</g>
<g id="Layer_78">
</g>
<g id="Layer_79">
</g>
<g id="Layer_80">
</g>
</svg>
