<?xml version="1.0" encoding="utf-8"?>
<!-- Generator: Adobe Illustrator 24.0.0, SVG Export Plug-In . SVG Version: 6.00 Build 0)  -->
<svg version="1.1" xmlns="http://www.w3.org/2000/svg" xmlns:xlink="http://www.w3.org/1999/xlink" x="0px" y="0px"
	 viewBox="0 0 256 256" enable-background="new 0 0 256 256" xml:space="preserve">
<g id="Layer_1">
</g>
<g id="Layer_2">
</g>
<g id="Layer_3">
</g>
<g id="Layer_4">
</g>
<g id="Layer_5">
</g>
<g id="Layer_6">
</g>
<g id="Layer_7">
</g>
<g id="Layer_8">
</g>
<g id="Layer_9">
</g>
<g id="Layer_10">
</g>
<g id="Layer_11">
</g>
<g id="Layer_12">
</g>
<g id="Layer_13">
</g>
<g id="Layer_14">
</g>
<g id="Layer_15">
</g>
<g id="Layer_16">
</g>
<g id="Layer_17">
</g>
<g id="Layer_18">
</g>
<g id="Layer_19">
</g>
<g id="Layer_20">
</g>
<g id="Layer_21">
</g>
<g id="Layer_22">
</g>
<g id="Layer_23">
</g>
<g id="Layer_24">
</g>
<g id="Layer_25">
</g>
<g id="Layer_26">
</g>
<g id="Layer_27">
</g>
<g id="Layer_28">
</g>
<g id="Layer_29">
</g>
<g id="Layer_30">
</g>
<g id="Layer_31">
</g>
<g id="Layer_32">
</g>
<g id="Layer_33">
</g>
<g id="Layer_34">
</g>
<g id="Layer_35">
</g>
<g id="Layer_36">
</g>
<g id="Layer_37">
</g>
<g id="Layer_38">
</g>
<g id="Layer_39">
</g>
<g id="Layer_40">
</g>
<g id="Layer_41">
</g>
<g id="Layer_42">
</g>
<g id="Layer_43">
</g>
<g id="Layer_44">
</g>
<g id="Layer_45">
</g>
<g id="Layer_46">
</g>
<g id="Layer_47">
</g>
<g id="Layer_48">
</g>
<g id="Layer_49">
</g>
<g id="Layer_50">
</g>
<g id="Layer_51">
</g>
<g id="Layer_52">
	<g>
		<g>
			<g>
				<path fill="#DAE6F1" d="M150.019,96.5c-6.635,3.295-14.108,5.157-22.019,5.157s-15.384-1.862-22.019-5.157H43v157h170v-157
					H150.019z"/>
			</g>
		</g>
		<g>
			<g>
				<path fill="#6CADEF" d="M217.663,78.5h-47.719c-4.849,7.681-11.743,13.937-19.925,18h67.644c2.119,0,3.837-1.718,3.837-3.837
					V82.337C221.5,80.218,219.782,78.5,217.663,78.5z"/>
			</g>
		</g>
		<g>
			<g>
				<path fill="#6CADEF" d="M86.056,78.5H38.337c-2.119,0-3.837,1.718-3.837,3.837v10.326c0,2.119,1.718,3.837,3.837,3.837h67.644
					C97.799,92.437,90.905,86.181,86.056,78.5z"/>
			</g>
		</g>
		<g>
			<g>
				<circle fill="#70D6F9" cx="128" cy="52.079" r="49.579"/>
			</g>
		</g>
		<g>
			<g>
				<path fill="#FC657E" d="M115.59,40.553l-16.387,6.154c-6.568,2.466-9.893,9.79-7.426,16.357l0,0
					c2.466,6.568,9.79,9.893,16.358,7.426l16.387-6.154L115.59,40.553z"/>
			</g>
		</g>
		<g>
			<g>
				<path fill="#FC657E" d="M157.673,61.95l-15.637-41.643c-0.982-2.615-3.898-3.938-6.512-2.957
					c-2.615,0.982-3.939,3.898-2.957,6.512l15.637,41.642c0.982,2.615,3.898,3.938,6.512,2.957
					C157.331,67.48,158.654,64.564,157.673,61.95z"/>
			</g>
		</g>
		<g>
			<g>
				<path fill="#DAE6F1" d="M133.048,80.804l-12.313-15.045l-11.506,4.321l14.81,18.097c1.58,1.931,4.215,2.64,6.551,1.763
					C134.32,88.538,135.571,83.887,133.048,80.804z"/>
			</g>
		</g>
		<g>
			<g>
				<path fill="#DAE6F1" d="M159.213,37.614L159.213,37.614c-1.97-5.247-7.731-7.949-13.002-6.188l7.287,19.405
					C158.625,48.687,161.183,42.86,159.213,37.614z"/>
			</g>
		</g>
		<g>
			<g>
				<path fill="#DAE6F1" d="M133.926,27.483c-4.1,5.466-8.277,9.292-15.702,12.081l-2.633,0.989l8.931,23.784l2.633-0.989
					c7.426-2.788,13.088-2.657,19.773-1.241L133.926,27.483z"/>
			</g>
		</g>
		<g>
			<g>
				<path fill="#70D6F9" d="M79.014,112.209H62.986c-1.768,0-3.202,1.434-3.202,3.202v27.866c0,1.768,1.433,3.202,3.202,3.202
					h16.027c1.768,0,3.202-1.433,3.202-3.202v-27.866C82.215,113.643,80.782,112.209,79.014,112.209z"/>
			</g>
		</g>
		<g>
			<g>
				<path fill="#70D6F9" d="M117.014,112.209h-16.027c-1.768,0-3.202,1.434-3.202,3.202v27.866c0,1.768,1.433,3.202,3.202,3.202
					h16.027c1.768,0,3.202-1.433,3.202-3.202v-27.866C120.215,113.643,118.782,112.209,117.014,112.209z"/>
			</g>
		</g>
		<g>
			<g>
				<path fill="#70D6F9" d="M155.014,112.209h-16.027c-1.768,0-3.202,1.434-3.202,3.202v27.866c0,1.768,1.433,3.202,3.202,3.202
					h16.027c1.768,0,3.202-1.433,3.202-3.202v-27.866C158.215,113.643,156.782,112.209,155.014,112.209z"/>
			</g>
		</g>
		<g>
			<g>
				<path fill="#70D6F9" d="M193.014,112.209h-16.027c-1.768,0-3.202,1.434-3.202,3.202v27.866c0,1.768,1.433,3.202,3.202,3.202
					h16.027c1.768,0,3.202-1.433,3.202-3.202v-27.866C196.215,113.643,194.782,112.209,193.014,112.209z"/>
			</g>
		</g>
		<g>
			<g>
				<path fill="#70D6F9" d="M79.014,158.209H62.986c-1.768,0-3.202,1.434-3.202,3.202v27.866c0,1.768,1.433,3.202,3.202,3.202
					h16.027c1.768,0,3.202-1.433,3.202-3.202v-27.866C82.215,159.643,80.782,158.209,79.014,158.209z"/>
			</g>
		</g>
		<g>
			<g>
				<path fill="#70D6F9" d="M117.014,158.209h-16.027c-1.768,0-3.202,1.434-3.202,3.202v27.866c0,1.768,1.433,3.202,3.202,3.202
					h16.027c1.768,0,3.202-1.433,3.202-3.202v-27.866C120.215,159.643,118.782,158.209,117.014,158.209z"/>
			</g>
		</g>
		<g>
			<g>
				<path fill="#70D6F9" d="M155.014,158.209h-16.027c-1.768,0-3.202,1.434-3.202,3.202v27.866c0,1.768,1.433,3.202,3.202,3.202
					h16.027c1.768,0,3.202-1.433,3.202-3.202v-27.866C158.215,159.643,156.782,158.209,155.014,158.209z"/>
			</g>
		</g>
		<g>
			<g>
				<path fill="#70D6F9" d="M193.014,158.209h-16.027c-1.768,0-3.202,1.434-3.202,3.202v27.866c0,1.768,1.433,3.202,3.202,3.202
					h16.027c1.768,0,3.202-1.433,3.202-3.202v-27.866C196.215,159.643,194.782,158.209,193.014,158.209z"/>
			</g>
		</g>
		<g>
			<g>
				<path fill="#70D6F9" d="M79.014,204.209H62.986c-1.768,0-3.202,1.434-3.202,3.202v27.866c0,1.768,1.433,3.202,3.202,3.202
					h16.027c1.768,0,3.202-1.433,3.202-3.202v-27.866C82.215,205.643,80.782,204.209,79.014,204.209z"/>
			</g>
		</g>
		<g>
			<g>
				<path fill="#70D6F9" d="M193.014,204.209h-16.027c-1.768,0-3.202,1.434-3.202,3.202v27.866c0,1.768,1.433,3.202,3.202,3.202
					h16.027c1.768,0,3.202-1.433,3.202-3.202v-27.866C196.215,205.643,194.782,204.209,193.014,204.209z"/>
			</g>
		</g>
		<g>
			<g>
				<path fill="#70D6F9" d="M151.519,204.209h-47.039c-2.141,0-3.876,1.735-3.876,3.876V253.5h54.79v-45.415
					C155.395,205.945,153.66,204.209,151.519,204.209z"/>
			</g>
		</g>
		<g>
			<g>
				<path fill="#70D6F9" d="M28.493,116.1h-2.4v-2.3c0-1.8-1.4-3.2-3.2-3.2c-1.7,0-3.2,1.4-3.2,3.1v2.4h-2.3c-1.8,0-3.2,1.4-3.2,3.2
					c-0.1,1.7,1.3,3.2,3.2,3.2h2.3v2.3c0,1.8,1.4,3.2,3.2,3.2c1.7,0,3.2-1.4,3.2-3.1v-2.4h2.3c1.8,0,3.2-1.4,3.2-3.2
					C31.593,117.6,30.193,116.1,28.493,116.1z"/>
			</g>
		</g>
		<g>
			<g>
				<path fill="#87D147" d="M241.737,215.175c-3.1-0.6-5.6-3-6.2-6.1c0-0.1-0.3-0.1-0.3,0c-0.6,3.1-3.1,5.5-6.2,6.1
					c-0.1,0-0.1,0.2,0,0.3c3.1,0.6,5.6,3,6.2,6.1c0,0.1,0.3,0.1,0.3,0c0.6-3.1,3.1-5.5,6.2-6.1
					C241.837,215.375,241.837,215.175,241.737,215.175z"/>
			</g>
		</g>
		<g>
			<g>
				<path fill="#FC657E" d="M182.369,0c-1.878,0-3.4,1.522-3.4,3.4c0,1.878,1.522,3.4,3.4,3.4c1.878,0,3.4-1.522,3.4-3.4
					C185.769,1.522,184.246,0,182.369,0z"/>
			</g>
		</g>
		<g>
			<g>
				<path fill="#F5C84C" d="M26.369,148c-1.878,0-3.4,1.522-3.4,3.4c0,1.878,1.522,3.4,3.4,3.4c1.878,0,3.4-1.522,3.4-3.4
					C29.769,149.522,28.246,148,26.369,148z"/>
			</g>
		</g>
		<g>
			<g>
				<path fill="#F5C84C" d="M213.15,27.2c-4.5-0.8-8-4.3-8.9-8.7c0-0.2-0.4-0.2-0.4,0c-0.9,4.4-4.4,7.9-8.9,8.7
					c-0.2,0-0.2,0.3,0,0.4c4.5,0.8,8,4.3,8.9,8.7c0,0.2,0.4,0.2,0.4,0c0.9-4.4,4.4-7.9,8.9-8.7C213.35,27.5,213.35,27.2,213.15,27.2
					z"/>
			</g>
		</g>
		<g>
			<g>
				<path d="M104.087,43.796l-1.422-3.787c-0.485-1.292-1.925-1.945-3.219-1.462c-1.292,0.486-1.947,1.928-1.461,3.22l1.422,3.787
					c0.376,1.003,1.329,1.622,2.341,1.622c0.292,0,0.589-0.052,0.878-0.16C103.918,46.529,104.573,45.088,104.087,43.796z"/>
			</g>
		</g>
		<g>
			<g>
				<g>
					<path d="M213,95.125c-1.381,0-2.5,1.119-2.5,2.5V252.75c0,1.381,1.119,2.5,2.5,2.5s2.5-1.119,2.5-2.5V97.625
						C215.5,96.244,214.381,95.125,213,95.125z"/>
				</g>
			</g>
			<g>
				<g>
					<path d="M43,95.125c-1.381,0-2.5,1.119-2.5,2.5v154.563c0,1.381,1.119,2.5,2.5,2.5s2.5-1.119,2.5-2.5V97.625
						C45.5,96.244,44.381,95.125,43,95.125z"/>
				</g>
			</g>
		</g>
		<g>
			<g>
				<path d="M217.663,76h-47.081c-1.381,0-2.5,1.119-2.5,2.5s1.119,2.5,2.5,2.5h47.081C218.4,81,219,81.6,219,82.337v10.326
					C219,93.4,218.4,94,217.663,94h-67.397c-1.381,0-2.5,1.119-2.5,2.5s1.119,2.5,2.5,2.5h67.397c3.494,0,6.337-2.843,6.337-6.337
					V82.337C224,78.843,221.157,76,217.663,76z"/>
			</g>
		</g>
		<g>
			<g>
				<path d="M105.816,94H38.337C37.6,94,37,93.4,37,92.663V82.337C37,81.6,37.6,81,38.337,81h47.597c1.381,0,2.5-1.119,2.5-2.5
					s-1.119-2.5-2.5-2.5H38.337C34.843,76,32,78.843,32,82.337v10.326C32,96.157,34.843,99,38.337,99h67.479
					c1.381,0,2.5-1.119,2.5-2.5S107.197,94,105.816,94z"/>
			</g>
		</g>
		<g>
			<g>
				<path d="M220,251H36c-1.381,0-2.5,1.119-2.5,2.5s1.119,2.5,2.5,2.5h184c1.381,0,2.5-1.119,2.5-2.5S221.381,251,220,251z"/>
			</g>
		</g>
		<g>
			<g>
				<path d="M80.346,126.844H61.654c-1.381,0-2.5,1.119-2.5,2.5s1.119,2.5,2.5,2.5h18.692c1.381,0,2.5-1.119,2.5-2.5
					S81.727,126.844,80.346,126.844z"/>
			</g>
		</g>
		<g>
			<g>
				<path d="M118.346,126.844H99.654c-1.381,0-2.5,1.119-2.5,2.5s1.119,2.5,2.5,2.5h18.692c1.381,0,2.5-1.119,2.5-2.5
					S119.727,126.844,118.346,126.844z"/>
			</g>
		</g>
		<g>
			<g>
				<path d="M156.346,126.844h-18.692c-1.381,0-2.5,1.119-2.5,2.5s1.119,2.5,2.5,2.5h18.692c1.381,0,2.5-1.119,2.5-2.5
					S157.727,126.844,156.346,126.844z"/>
			</g>
		</g>
		<g>
			<g>
				<path d="M194.346,126.844h-18.692c-1.381,0-2.5,1.119-2.5,2.5s1.119,2.5,2.5,2.5h18.692c1.381,0,2.5-1.119,2.5-2.5
					S195.727,126.844,194.346,126.844z"/>
			</g>
		</g>
		<g>
			<g>
				<path d="M80.346,172.844H61.654c-1.381,0-2.5,1.119-2.5,2.5s1.119,2.5,2.5,2.5h18.692c1.381,0,2.5-1.119,2.5-2.5
					S81.727,172.844,80.346,172.844z"/>
			</g>
		</g>
		<g>
			<g>
				<path d="M118.346,172.844H99.654c-1.381,0-2.5,1.119-2.5,2.5s1.119,2.5,2.5,2.5h18.692c1.381,0,2.5-1.119,2.5-2.5
					S119.727,172.844,118.346,172.844z"/>
			</g>
		</g>
		<g>
			<g>
				<path d="M156.346,172.844h-18.692c-1.381,0-2.5,1.119-2.5,2.5s1.119,2.5,2.5,2.5h18.692c1.381,0,2.5-1.119,2.5-2.5
					S157.727,172.844,156.346,172.844z"/>
			</g>
		</g>
		<g>
			<g>
				<path d="M194.346,172.844h-18.692c-1.381,0-2.5,1.119-2.5,2.5s1.119,2.5,2.5,2.5h18.692c1.381,0,2.5-1.119,2.5-2.5
					S195.727,172.844,194.346,172.844z"/>
			</g>
		</g>
		<g>
			<g>
				<path d="M80.346,218.844H61.654c-1.381,0-2.5,1.119-2.5,2.5s1.119,2.5,2.5,2.5h18.692c1.381,0,2.5-1.119,2.5-2.5
					S81.727,218.844,80.346,218.844z"/>
			</g>
		</g>
		<g>
			<g>
				<path d="M194.346,218.844h-18.692c-1.381,0-2.5,1.119-2.5,2.5s1.119,2.5,2.5,2.5h18.692c1.381,0,2.5-1.119,2.5-2.5
					S195.727,218.844,194.346,218.844z"/>
			</g>
		</g>
		<g>
			<g>
				<path d="M128,203c-1.381,0-2.5,1.119-2.5,2.5v47c0,1.381,1.119,2.5,2.5,2.5s2.5-1.119,2.5-2.5v-47
					C130.5,204.119,129.381,203,128,203z"/>
			</g>
		</g>
		<g>
			<g>
				<g>
					<g>
						<path d="M128,0C99.284,0,75.921,23.362,75.921,52.079c0,28.716,23.362,52.078,52.079,52.078s52.079-23.362,52.079-52.078
							C180.079,23.362,156.716,0,128,0z M128,99.157c-25.959,0-47.079-21.119-47.079-47.078C80.921,26.119,102.041,5,128,5
							s47.079,21.119,47.079,47.079C175.079,78.038,153.959,99.157,128,99.157z"/>
					</g>
				</g>
			</g>
		</g>
		<g>
			<g>
				<g>
					<g>
						<path d="M126.861,63.458l-8.931-23.784c-0.485-1.292-1.925-1.946-3.219-1.462l-16.387,6.153
							c-7.848,2.948-11.834,11.73-8.888,19.578c1.428,3.802,4.25,6.819,7.947,8.498c2.006,0.911,4.139,1.368,6.277,1.368
							c1.804,0,3.613-0.325,5.352-0.979l16.387-6.153c0.621-0.233,1.124-0.703,1.397-1.308
							C127.071,64.767,127.095,64.079,126.861,63.458z M107.255,68.149c-2.551,0.958-5.323,0.866-7.804-0.261
							s-4.376-3.152-5.334-5.704c-1.978-5.267,0.698-11.16,5.965-13.138l14.047-5.274l7.173,19.103L107.255,68.149z"/>
					</g>
				</g>
			</g>
		</g>
		<g>
			<g>
				<g>
					<g>
						<g>
							<path d="M160.013,61.07l-15.638-41.642c-1.464-3.901-5.83-5.883-9.731-4.419c-3.901,1.465-5.883,5.83-4.419,9.732
								l15.638,41.643c0.709,1.89,2.113,3.39,3.951,4.225c0.997,0.452,2.057,0.68,3.121,0.68c0.897,0,1.796-0.162,2.661-0.487
								C159.496,69.338,161.478,64.973,160.013,61.07z M153.837,66.121C153.837,66.121,153.837,66.122,153.837,66.121
								c-0.638,0.241-1.333,0.218-1.956-0.064c-0.622-0.283-1.097-0.79-1.337-1.43l-15.637-41.642
								c-0.496-1.321,0.175-2.799,1.495-3.294c0.295-0.111,0.598-0.163,0.896-0.163c1.036,0,2.013,0.633,2.397,1.658l15.637,41.641
								C155.828,64.148,155.157,65.626,153.837,66.121z"/>
						</g>
					</g>
				</g>
			</g>
		</g>
		<g>
			<g>
				<path d="M134.982,79.221l-11.633-14.215c-0.874-1.069-2.448-1.226-3.518-0.352c-1.068,0.874-1.226,2.449-0.351,3.518
					l11.633,14.215c0.686,0.839,0.918,1.92,0.637,2.966c-0.281,1.047-1.025,1.865-2.039,2.246c-1.334,0.501-2.836,0.097-3.737-1.005
					l-14.154-17.297c-0.874-1.069-2.449-1.226-3.518-0.352c-1.069,0.874-1.226,2.449-0.352,3.518l14.154,17.297
					c1.613,1.972,3.993,3.052,6.439,3.052c0.979,0,1.97-0.173,2.926-0.532c2.542-0.954,4.404-3.006,5.109-5.628
					C137.283,84.03,136.702,81.321,134.982,79.221z"/>
			</g>
		</g>
		<g>
			<g>
				<path d="M161.553,36.735c-2.223-5.921-8.563-9.392-14.745-8.061c-1.35,0.289-2.21,1.618-1.92,2.968
					c0.289,1.351,1.616,2.213,2.968,1.921c3.781-0.812,7.656,1.31,9.017,4.93c1.426,3.798-0.241,8.021-3.877,9.821
					c-1.237,0.612-1.744,2.112-1.131,3.35c0.436,0.881,1.322,1.392,2.242,1.392c0.373,0,0.751-0.084,1.107-0.261
					C161.16,49.851,163.886,42.946,161.553,36.735z"/>
			</g>
		</g>
		<g>
			<g>
				<path d="M146.7,59.508c-7.616-1.522-13.534-1.088-20.424,1.499l-2.634,0.989c-1.292,0.486-1.947,1.928-1.461,3.22
					c0.377,1.003,1.329,1.622,2.341,1.622c0.292,0,0.589-0.052,0.878-0.16l2.634-0.989c6.941-2.607,12.09-2.395,17.687-1.278
					c1.351,0.272,2.67-0.607,2.941-1.961C148.932,61.095,148.054,59.778,146.7,59.508z"/>
			</g>
		</g>
		<g>
			<g>
				<path d="M135.05,26.021c-1.096-0.84-2.666-0.632-3.505,0.464c-3.49,4.556-7.241,8.125-14.2,10.738l-2.634,0.988
					c-1.292,0.485-1.947,1.927-1.462,3.219c0.376,1.004,1.329,1.623,2.341,1.623c0.292,0,0.588-0.052,0.878-0.16l2.634-0.988
					c6.908-2.595,11.663-6.182,16.411-12.379C136.354,28.431,136.146,26.861,135.05,26.021z"/>
			</g>
		</g>
		<g>
			<g>
				<g>
					<g>
						<path d="M79.014,109.71H62.986c-3.144,0-5.702,2.558-5.702,5.701v27.866c0,3.144,2.558,5.701,5.702,5.701h16.027
							c3.144,0,5.702-2.558,5.702-5.701v-27.866C84.715,112.268,82.158,109.71,79.014,109.71z M79.715,143.277
							c0,0.387-0.315,0.701-0.702,0.701H62.986c-0.387,0-0.702-0.314-0.702-0.701v-27.866c0-0.387,0.315-0.701,0.702-0.701h16.027
							c0.387,0,0.702,0.314,0.702,0.701V143.277z"/>
					</g>
				</g>
			</g>
		</g>
		<g>
			<g>
				<g>
					<g>
						<path d="M117.014,109.71h-16.027c-3.144,0-5.702,2.558-5.702,5.701v27.866c0,3.144,2.558,5.701,5.702,5.701h16.027
							c3.144,0,5.702-2.558,5.702-5.701v-27.866C122.715,112.268,120.158,109.71,117.014,109.71z M117.715,143.277
							c0,0.387-0.315,0.701-0.702,0.701h-16.027c-0.387,0-0.702-0.314-0.702-0.701v-27.866c0-0.387,0.315-0.701,0.702-0.701h16.027
							c0.387,0,0.702,0.314,0.702,0.701V143.277z"/>
					</g>
				</g>
			</g>
		</g>
		<g>
			<g>
				<g>
					<g>
						<path d="M155.014,109.71h-16.027c-3.144,0-5.702,2.558-5.702,5.701v27.866c0,3.144,2.558,5.701,5.702,5.701h16.027
							c3.144,0,5.702-2.558,5.702-5.701v-27.866C160.715,112.268,158.158,109.71,155.014,109.71z M155.715,143.277
							c0,0.387-0.315,0.701-0.702,0.701h-16.027c-0.387,0-0.702-0.314-0.702-0.701v-27.866c0-0.387,0.315-0.701,0.702-0.701h16.027
							c0.387,0,0.702,0.314,0.702,0.701V143.277z"/>
					</g>
				</g>
			</g>
		</g>
		<g>
			<g>
				<g>
					<g>
						<path d="M193.014,109.71h-16.027c-3.144,0-5.702,2.558-5.702,5.701v27.866c0,3.144,2.558,5.701,5.702,5.701h16.027
							c3.144,0,5.702-2.558,5.702-5.701v-27.866C198.715,112.268,196.158,109.71,193.014,109.71z M193.715,143.277
							c0,0.387-0.315,0.701-0.702,0.701h-16.027c-0.387,0-0.702-0.314-0.702-0.701v-27.866c0-0.387,0.315-0.701,0.702-0.701h16.027
							c0.387,0,0.702,0.314,0.702,0.701V143.277z"/>
					</g>
				</g>
			</g>
		</g>
		<g>
			<g>
				<g>
					<g>
						<path d="M79.014,155.71H62.986c-3.144,0-5.702,2.558-5.702,5.701v27.866c0,3.144,2.558,5.701,5.702,5.701h16.027
							c3.144,0,5.702-2.558,5.702-5.701v-27.866C84.715,158.268,82.158,155.71,79.014,155.71z M79.715,189.277
							c0,0.387-0.315,0.701-0.702,0.701H62.986c-0.387,0-0.702-0.314-0.702-0.701v-27.866c0-0.387,0.315-0.701,0.702-0.701h16.027
							c0.387,0,0.702,0.314,0.702,0.701V189.277z"/>
					</g>
				</g>
			</g>
		</g>
		<g>
			<g>
				<g>
					<g>
						<path d="M117.014,155.71h-16.027c-3.144,0-5.702,2.558-5.702,5.701v27.866c0,3.144,2.558,5.701,5.702,5.701h16.027
							c3.144,0,5.702-2.558,5.702-5.701v-27.866C122.715,158.268,120.158,155.71,117.014,155.71z M117.715,189.277
							c0,0.387-0.315,0.701-0.702,0.701h-16.027c-0.387,0-0.702-0.314-0.702-0.701v-27.866c0-0.387,0.315-0.701,0.702-0.701h16.027
							c0.387,0,0.702,0.314,0.702,0.701V189.277z"/>
					</g>
				</g>
			</g>
		</g>
		<g>
			<g>
				<g>
					<g>
						<path d="M155.014,155.71h-16.027c-3.144,0-5.702,2.558-5.702,5.701v27.866c0,3.144,2.558,5.701,5.702,5.701h16.027
							c3.144,0,5.702-2.558,5.702-5.701v-27.866C160.715,158.268,158.158,155.71,155.014,155.71z M155.715,189.277
							c0,0.387-0.315,0.701-0.702,0.701h-16.027c-0.387,0-0.702-0.314-0.702-0.701v-27.866c0-0.387,0.315-0.701,0.702-0.701h16.027
							c0.387,0,0.702,0.314,0.702,0.701V189.277z"/>
					</g>
				</g>
			</g>
		</g>
		<g>
			<g>
				<g>
					<g>
						<path d="M193.014,155.71h-16.027c-3.144,0-5.702,2.558-5.702,5.701v27.866c0,3.144,2.558,5.701,5.702,5.701h16.027
							c3.144,0,5.702-2.558,5.702-5.701v-27.866C198.715,158.268,196.158,155.71,193.014,155.71z M193.715,189.277
							c0,0.387-0.315,0.701-0.702,0.701h-16.027c-0.387,0-0.702-0.314-0.702-0.701v-27.866c0-0.387,0.315-0.701,0.702-0.701h16.027
							c0.387,0,0.702,0.314,0.702,0.701V189.277z"/>
					</g>
				</g>
			</g>
		</g>
		<g>
			<g>
				<g>
					<g>
						<path d="M79.014,201.71H62.986c-3.144,0-5.702,2.558-5.702,5.701v27.866c0,3.144,2.558,5.701,5.702,5.701h16.027
							c3.144,0,5.702-2.558,5.702-5.701v-27.866C84.715,204.268,82.158,201.71,79.014,201.71z M79.715,235.277
							c0,0.387-0.315,0.701-0.702,0.701H62.986c-0.387,0-0.702-0.314-0.702-0.701v-27.866c0-0.387,0.315-0.701,0.702-0.701h16.027
							c0.387,0,0.702,0.314,0.702,0.701V235.277z"/>
					</g>
				</g>
			</g>
		</g>
		<g>
			<g>
				<g>
					<g>
						<path d="M193.014,201.71h-16.027c-3.144,0-5.702,2.558-5.702,5.701v27.866c0,3.144,2.558,5.701,5.702,5.701h16.027
							c3.144,0,5.702-2.558,5.702-5.701v-27.866C198.715,204.268,196.158,201.71,193.014,201.71z M193.715,235.277
							c0,0.387-0.315,0.701-0.702,0.701h-16.027c-0.387,0-0.702-0.314-0.702-0.701v-27.866c0-0.387,0.315-0.701,0.702-0.701h16.027
							c0.387,0,0.702,0.314,0.702,0.701V235.277z"/>
					</g>
				</g>
			</g>
		</g>
		<g>
			<g>
				<path d="M151.52,201.709H104.48c-3.516,0-6.375,2.86-6.375,6.377V252.5c0,1.381,1.119,2.5,2.5,2.5s2.5-1.119,2.5-2.5v-44.414
					c0-0.759,0.617-1.377,1.375-1.377h47.039c0.758,0,1.375,0.618,1.375,1.377V252.5c0,1.381,1.119,2.5,2.5,2.5s2.5-1.119,2.5-2.5
					v-44.414C157.895,204.569,155.035,201.709,151.52,201.709z"/>
			</g>
		</g>
	</g>
</g>
<g id="Layer_53">
</g>
<g id="Layer_54">
</g>
<g id="Layer_55">
</g>
<g id="Layer_56">
</g>
<g id="Layer_57">
</g>
<g id="Layer_58">
</g>
<g id="Layer_59">
</g>
<g id="Layer_60">
</g>
<g id="Layer_61">
</g>
<g id="Layer_62">
</g>
<g id="Layer_63">
</g>
<g id="Layer_64">
</g>
<g id="Layer_65">
</g>
<g id="Layer_66">
</g>
<g id="Layer_67">
</g>
<g id="Layer_68">
</g>
<g id="Layer_69">
</g>
<g id="Layer_70">
</g>
<g id="Layer_71">
</g>
<g id="Layer_72">
</g>
<g id="Layer_73">
</g>
<g id="Layer_74">
</g>
<g id="Layer_75">
</g>
<g id="Layer_76">
</g>
<g id="Layer_77">
</g>
<g id="Layer_78">
</g>
<g id="Layer_79">
</g>
<g id="Layer_80">
</g>
</svg>
