<?xml version="1.0" encoding="utf-8"?>
<!-- Generator: Adobe Illustrator 24.0.0, SVG Export Plug-In . SVG Version: 6.00 Build 0)  -->
<svg version="1.1" xmlns="http://www.w3.org/2000/svg" xmlns:xlink="http://www.w3.org/1999/xlink" x="0px" y="0px"
	 viewBox="0 0 256 256" enable-background="new 0 0 256 256" xml:space="preserve">
<g id="Layer_1">
</g>
<g id="Layer_2">
</g>
<g id="Layer_3">
</g>
<g id="Layer_4">
</g>
<g id="Layer_5">
</g>
<g id="Layer_6">
</g>
<g id="Layer_7">
</g>
<g id="Layer_8">
</g>
<g id="Layer_9">
</g>
<g id="Layer_10">
</g>
<g id="Layer_11">
</g>
<g id="Layer_12">
</g>
<g id="Layer_13">
</g>
<g id="Layer_14">
</g>
<g id="Layer_15">
</g>
<g id="Layer_16">
</g>
<g id="Layer_17">
</g>
<g id="Layer_18">
</g>
<g id="Layer_19">
</g>
<g id="Layer_20">
</g>
<g id="Layer_21">
</g>
<g id="Layer_22">
</g>
<g id="Layer_23">
</g>
<g id="Layer_24">
</g>
<g id="Layer_25">
</g>
<g id="Layer_26">
</g>
<g id="Layer_27">
</g>
<g id="Layer_28">
</g>
<g id="Layer_29">
</g>
<g id="Layer_30">
</g>
<g id="Layer_31">
</g>
<g id="Layer_32">
</g>
<g id="Layer_33">
</g>
<g id="Layer_34">
</g>
<g id="Layer_35">
</g>
<g id="Layer_36">
</g>
<g id="Layer_37">
</g>
<g id="Layer_38">
</g>
<g id="Layer_39">
</g>
<g id="Layer_40">
</g>
<g id="Layer_41">
</g>
<g id="Layer_42">
</g>
<g id="Layer_43">
</g>
<g id="Layer_44">
</g>
<g id="Layer_45">
</g>
<g id="Layer_46">
</g>
<g id="Layer_47">
</g>
<g id="Layer_48">
</g>
<g id="Layer_49">
</g>
<g id="Layer_50">
</g>
<g id="Layer_51">
</g>
<g id="Layer_52">
</g>
<g id="Layer_53">
</g>
<g id="Layer_54">
</g>
<g id="Layer_55">
</g>
<g id="Layer_56">
</g>
<g id="Layer_57">
</g>
<g id="Layer_58">
</g>
<g id="Layer_59">
</g>
<g id="Layer_60">
</g>
<g id="Layer_61">
</g>
<g id="Layer_62">
</g>
<g id="Layer_63">
</g>
<g id="Layer_64">
	<g>
		<g>
			<g>
				<path fill="#5B5D60" d="M132.919,127.325c7.039-11.04,3.715-21.788,0.61-27.859c-2.725,4.321-7.527,7.2-13.012,7.2
					c-0.839,0-1.656-0.085-2.458-0.215c-0.865,12.895-8.431,24.031-19.232,29.918v11.177c0,3.578,1.877,6.853,4.885,8.706
					c1.205,0.742-0.324-0.129,9.942,4.977c1.381,0.681,3.205,1.402,4.611,1.843c0.279,0.087,0.561,0.164,0.843,0.243
					c5.424-1.985,10.209-5.137,13.308-10.044c5.683-8.998,2.367-17.717,0.275-21.619
					C131.955,130.28,132.082,128.636,132.919,127.325z"/>
			</g>
		</g>
		<g>
			<g>
				<path fill="#5B5D60" d="M44.533,106.451c-0.802,0.129-1.619,0.214-2.458,0.214c-5.486,0-10.288-2.879-13.012-7.2
					c-3.105,6.071-6.43,16.82,0.609,27.859c0.836,1.312,0.963,2.956,0.228,4.326c-2.092,3.903-5.408,12.621,0.275,21.619
					c3.1,4.908,7.885,8.06,13.309,10.044c0.281-0.08,0.564-0.156,0.843-0.243c1.406-0.44,3.23-1.162,4.611-1.843
					c10.933-5.438,8.826-4.291,9.942-4.977c3.008-1.853,4.885-5.127,4.885-8.706v-11.177
					C52.965,130.482,45.399,119.346,44.533,106.451z"/>
			</g>
		</g>
		<g>
			<g>
				<path fill="#F9D0B4" d="M120.516,75.891c-0.805,0-1.594,0.068-2.365,0.188v27.901c0,0.832-0.038,1.654-0.093,2.472
					c0.802,0.129,1.619,0.215,2.458,0.215c8.498,0,15.387-6.889,15.387-15.387C135.903,82.78,129.014,75.891,120.516,75.891z"/>
			</g>
		</g>
		<g>
			<g>
				<path fill="#F9D0B4" d="M44.44,103.979V82.031c-2.531-0.721-5.13-1.654-7.795-2.831c-1.719-0.759-3.726-0.409-5.097,0.875
					c-2.989,2.803-4.861,6.781-4.861,11.203c0,8.498,6.889,15.387,15.387,15.387c0.839,0,1.656-0.085,2.458-0.214
					C44.478,105.633,44.44,104.811,44.44,103.979z"/>
			</g>
		</g>
		<g>
			<g>
				<path fill="#5B5D60" d="M81.296,21.286c-27.564,0-50.116,22.553-50.116,50.116v9.056c0.125-0.126,0.24-0.261,0.37-0.383
					c1.37-1.285,3.378-1.634,5.097-0.875c2.665,1.177,5.264,2.11,7.795,2.831c28.966,8.251,48.87-11.626,54.483-18.177
					c0.902-1.053,2.485-1.13,3.512-0.197c5.191,4.716,9.719,6.876,13.448,7.74c1.319,0.306,2.267,1.454,2.267,2.807v1.875
					c0.771-0.119,1.56-0.188,2.365-0.188c4.257,0,8.11,1.73,10.896,4.524v-9.013C131.412,43.838,108.86,21.286,81.296,21.286z"/>
			</g>
		</g>
		<g>
			<g>
				<path fill="#DAE6F1" d="M90.781,181.685l-3.931-3.657c-1.377-1.281-1.455-3.436-0.174-4.813l16.27-17.488
					c-2.556-1.91-4.121-4.918-4.121-8.181v-11.177c-5.221,2.846-11.195,4.465-17.53,4.465c-6.334,0-12.309-1.62-17.53-4.465v11.177
					c0,3.263-1.565,6.271-4.121,8.181l16.271,17.488c1.281,1.377,1.203,3.531-0.174,4.813l-3.931,3.657
					c-3.085,2.87-7.057,3.916-10.801,3.401l6.588,68.414h27.396l6.588-68.414C97.838,185.6,93.865,184.554,90.781,181.685z"/>
			</g>
		</g>
		<g>
			<g>
				<path fill="#3A70BF" d="M58.267,156.609c-0.075,0.039-0.141,0.089-0.217,0.126l-9.112,4.493
					c-2.037,1.004-4.174,1.79-6.376,2.344c-0.13,0.033-18.907,4.773-19.026,4.803l-7.325,1.849
					c-6.414,1.615-11.032,7.211-11.4,13.815l-2.307,63.404c-0.12,3.309,2.529,6.057,5.84,6.057h59.253L58.267,156.609z"/>
			</g>
		</g>
		<g>
			<g>
				<path fill="#3A70BF" d="M138.363,248.664v-80.463c-3.385-0.855-18.219-4.599-18.335-4.628c-2.202-0.554-4.339-1.34-6.376-2.344
					l-9.112-4.493c-0.076-0.037-0.142-0.087-0.216-0.126l-9.33,96.891h48.205C140.528,253.5,138.363,251.335,138.363,248.664z"/>
			</g>
		</g>
		<g>
			<g>
				<path fill="#EDF4FC" d="M75.915,173.215l-16.27-17.488c-0.434,0.325-0.888,0.626-1.378,0.883l2.742,28.477
					c3.744,0.515,7.717-0.532,10.801-3.401l3.931-3.657C77.118,176.746,77.196,174.592,75.915,173.215z"/>
			</g>
		</g>
		<g>
			<g>
				<path fill="#EDF4FC" d="M102.947,155.727l-16.27,17.488c-1.281,1.377-1.203,3.531,0.174,4.813l3.931,3.657
					c3.085,2.87,7.057,3.916,10.801,3.401l2.742-28.477C103.835,156.353,103.381,156.051,102.947,155.727z"/>
			</g>
		</g>
		<g>
			<g>
				<path fill="#F9D0B4" d="M115.884,71.397c-3.729-0.864-8.257-3.024-13.448-7.74c-1.027-0.933-2.609-0.856-3.512,0.197
					c-5.613,6.552-25.517,26.428-54.484,18.177v21.948c0,20.27,16.585,36.855,36.855,36.855c20.27,0,36.855-16.585,36.855-36.855
					V74.204C118.151,72.85,117.203,71.702,115.884,71.397z"/>
			</g>
		</g>
		<g>
			<g>
				<path fill="#F9D0B4" d="M102.947,155.727c-2.556-1.91-4.121-4.918-4.121-8.181v-11.177c-5.221,2.846-11.195,4.465-17.53,4.465
					c-6.334,0-12.309-1.62-17.53-4.465v11.177c0,3.263-1.565,6.271-4.121,8.181l16.27,17.488c0.779,0.837,1.048,1.961,0.836,3.002
					h9.089c-0.212-1.041,0.057-2.165,0.836-3.002L102.947,155.727z"/>
			</g>
		</g>
		<g>
			<g>
				<path fill="#EDF4FC" d="M193.981,156.498h-50.782c-2.671,0-4.836,2.165-4.836,4.835v87.331c0,2.671,2.165,4.836,4.836,4.836
					h62.531c2.671,0,4.836-2.165,4.836-4.836v-75.583L193.981,156.498z"/>
			</g>
		</g>
		<g>
			<g>
				<path fill="#5290DB" d="M58.267,156.609c-0.075,0.039-0.141,0.089-0.217,0.126l-9.112,4.493
					c-2.037,1.004-4.174,1.79-6.376,2.344c-0.018,0.005-0.407,0.103-1.046,0.264l-1.948,35.706c-0.091,1.67,0.47,3.31,1.566,4.574
					l8.368,9.656c1.988,2.294,2.107,5.664,0.286,8.092l-4.211,5.615c-1.256,1.674-1.621,3.854-0.979,5.846l6.497,20.173h16.502
					L58.267,156.609z"/>
			</g>
		</g>
		<g>
			<g>
				<path fill="#5290DB" d="M121.456,204.117c1.095-1.264,1.657-2.904,1.566-4.574l-1.948-35.706
					c-0.639-0.161-1.028-0.26-1.046-0.264c-2.202-0.554-4.339-1.34-6.376-2.344l-9.112-4.493c-0.076-0.037-0.142-0.087-0.216-0.126
					l-9.33,96.891h16.502l6.497-20.173c0.641-1.992,0.277-4.172-0.979-5.846l-4.212-5.615c-1.821-2.428-1.702-5.798,0.286-8.092
					L121.456,204.117z"/>
			</g>
		</g>
		<g>
			<g>
				<path fill="#DAE6F1" d="M193.981,156.498v12.27c0,2.383,1.932,4.314,4.314,4.314h12.27L193.981,156.498z"/>
			</g>
		</g>
		<g>
			<g>
				<path d="M135.027,128.669c7.641-11.985,3.957-23.709,1.081-29.631c-0.604-1.242-2.098-1.76-3.341-1.157
					c-1.242,0.604-1.76,2.1-1.157,3.341c2.956,6.087,5.217,15.323-0.799,24.759c-1.341,2.101-1.465,4.727-0.324,6.852
					c2.036,3.801,4.721,11.335-0.186,19.104c-2.438,3.858-6.314,6.83-11.525,8.834c-1.288,0.495-1.932,1.941-1.436,3.23
					c0.382,0.993,1.329,1.604,2.334,1.604c0.298,0,0.602-0.054,0.896-0.168c6.237-2.397,10.934-6.042,13.957-10.83
					c6.495-10.282,2.419-20.304,0.365-24.136C134.604,129.929,134.652,129.256,135.027,128.669z"/>
			</g>
		</g>
		<g>
			<g>
				<path d="M43.978,160.831c-5.292-2.004-9.225-4.997-11.688-8.896c-4.905-7.769-2.221-15.303-0.184-19.104
					c1.138-2.126,1.014-4.751-0.324-6.851c-6.066-9.513-3.733-18.815-0.709-24.944c0.61-1.238,0.103-2.737-1.136-3.349
					c-1.238-0.608-2.737-0.103-3.349,1.136c-2.941,5.961-6.726,17.765,0.977,29.845c0.374,0.586,0.424,1.26,0.134,1.802
					c-2.054,3.831-6.13,13.853,0.364,24.135c3.056,4.838,7.814,8.505,14.146,10.901c0.291,0.11,0.59,0.163,0.885,0.163
					c1.009,0,1.96-0.616,2.338-1.616C45.92,162.763,45.27,161.319,43.978,160.831z"/>
			</g>
		</g>
		<g>
			<g>
				<path d="M120.516,73.391c-0.464,0-0.923,0.02-1.378,0.056c-1.376,0.111-2.402,1.316-2.292,2.692
					c0.111,1.378,1.317,2.391,2.692,2.292c0.322-0.026,0.648-0.04,0.978-0.04c7.106,0,12.888,5.781,12.888,12.888
					s-5.781,12.888-12.888,12.888c-0.361,0-0.719-0.021-1.072-0.055c-1.37-0.116-2.595,0.879-2.726,2.253
					c-0.13,1.374,0.878,2.595,2.253,2.726c0.543,0.051,1.048,0.076,1.545,0.076c9.863,0,17.888-8.024,17.888-17.888
					S130.379,73.391,120.516,73.391z"/>
			</g>
		</g>
		<g>
			<g>
				<path d="M45.125,79.627c-2.476-0.705-4.988-1.618-7.47-2.714c-2.639-1.163-5.707-0.64-7.816,1.339
					c-3.591,3.367-5.65,8.115-5.65,13.026c0,9.863,8.024,17.888,17.887,17.888c0.55,0,1.111-0.03,1.716-0.094
					c1.374-0.143,2.371-1.371,2.229-2.744c-0.142-1.373-1.379-2.378-2.744-2.229c-0.433,0.045-0.825,0.066-1.2,0.066
					c-7.105,0-12.887-5.781-12.887-12.888c0-3.587,1.445-6.917,4.07-9.379c0.645-0.604,1.577-0.765,2.377-0.412
					c2.691,1.188,5.423,2.181,8.12,2.948c1.327,0.38,2.712-0.392,3.089-1.72C47.223,81.389,46.453,80.005,45.125,79.627z"/>
			</g>
		</g>
		<g>
			<g>
				<path d="M81.296,18.786c-29.013,0-52.616,23.604-52.616,52.616v8.832c0,1.381,1.119,2.5,2.5,2.5s2.5-1.119,2.5-2.5v-8.832
					c0-26.256,21.36-47.616,47.616-47.616s47.616,21.36,47.616,47.616v8.64c0,1.381,1.119,2.5,2.5,2.5s2.5-1.119,2.5-2.5v-8.64
					C133.912,42.39,110.309,18.786,81.296,18.786z"/>
			</g>
		</g>
		<g>
			<g>
				<path d="M93.601,115.308c-1.056-0.886-2.635-0.747-3.521,0.311c-1.937,2.311-5.22,3.69-8.783,3.69s-6.847-1.38-8.783-3.69
					c-0.886-1.059-2.463-1.197-3.521-0.311s-1.197,2.464-0.311,3.521c2.875,3.432,7.591,5.479,12.615,5.479s9.74-2.048,12.615-5.479
					C94.798,117.771,94.659,116.194,93.601,115.308z"/>
			</g>
		</g>
		<g>
			<g>
				<ellipse transform="matrix(0.3827 -0.9239 0.9239 0.3827 -28.1819 148.8985)" cx="97.33" cy="95.538" rx="4.775" ry="4.775"/>
			</g>
		</g>
		<g>
			<g>
				<circle cx="65.261" cy="95.538" r="4.775"/>
			</g>
		</g>
		<g>
			<g>
				<path d="M63.766,134.625c-1.381,0-2.5,1.119-2.5,2.5v10.421c0,2.409-1.165,4.719-3.118,6.178
					c-1.105,0.827-1.332,2.394-0.506,3.5c0.491,0.656,1.243,1.003,2.005,1.003c0.521,0,1.046-0.162,1.495-0.497
					c3.208-2.398,5.124-6.205,5.124-10.184v-10.421C66.266,135.744,65.146,134.625,63.766,134.625z"/>
			</g>
		</g>
		<g>
			<g>
				<path d="M104.443,153.724c-1.952-1.458-3.117-3.768-3.117-6.178v-10.421c0-1.381-1.119-2.5-2.5-2.5s-2.5,1.119-2.5,2.5v10.421
					c0,3.979,1.915,7.785,5.123,10.184c0.449,0.335,0.975,0.497,1.495,0.497c0.762,0,1.514-0.347,2.005-1.003
					C105.775,156.117,105.549,154.551,104.443,153.724z"/>
			</g>
		</g>
		<g>
			<g>
				<path d="M94.994,251H67.598c-1.381,0-2.5,1.119-2.5,2.5s1.119,2.5,2.5,2.5h27.396c1.381,0,2.5-1.119,2.5-2.5
					S96.375,251,94.994,251z"/>
			</g>
		</g>
		<g>
			<g>
				<path d="M27.751,198.314c-1.381,0-2.5,1.119-2.5,2.5v50.702c0,1.381,1.119,2.5,2.5,2.5s2.5-1.119,2.5-2.5v-50.702
					C30.251,199.434,29.132,198.314,27.751,198.314z"/>
			</g>
		</g>
		<g>
			<g>
				<g>
					<g>
						<path d="M60.756,156.37c-0.079-0.827-0.564-1.561-1.295-1.957c-0.728-0.396-1.608-0.404-2.346-0.022
							c-0.081,0.042-0.159,0.088-0.246,0.141l-9.037,4.455c-1.87,0.924-3.849,1.651-5.88,2.163
							c-0.363,0.091-11.327,2.858-16.444,4.15l-9.907,2.501c-7.517,1.893-12.855,8.363-13.287,16.148l-2.308,63.403
							c-0.083,2.285,0.745,4.45,2.332,6.096S6.058,256,8.344,256h59.254c0.705,0,1.377-0.298,1.851-0.819s0.705-1.219,0.638-1.92
							L60.756,156.37z M8.344,251c-0.916,0-1.771-0.363-2.406-1.022c-0.637-0.66-0.969-1.527-0.936-2.443l2.306-63.355
							c0.308-5.541,4.132-10.174,9.515-11.53l9.909-2.501c5.154-1.301,16.243-4.101,16.437-4.148c0.001,0,0.004-0.001,0.005-0.002
							c2.373-0.598,4.686-1.447,6.871-2.526l6.084-2.999L64.846,251H8.344z"/>
					</g>
				</g>
			</g>
		</g>
		<g>
			<g>
				<path d="M143.199,251H97.746l8.718-90.528l6.083,2.999c2.194,1.081,4.506,1.932,6.865,2.524
					c0.092,0.023,9.451,2.386,15.006,3.788l2.408,0.608c1.343,0.339,2.698-0.473,3.036-1.812s-0.474-2.698-1.812-3.036l-2.409-0.608
					c-5.538-1.397-14.858-3.751-15.004-3.788c-2.023-0.509-4.002-1.236-5.88-2.161l-9.038-4.456
					c-0.075-0.047-0.152-0.092-0.231-0.133c-0.738-0.391-1.621-0.383-2.352,0.012c-0.733,0.396-1.221,1.131-1.301,1.961
					l-9.33,96.891c-0.067,0.701,0.164,1.398,0.638,1.92S94.289,256,94.994,256h48.205c1.381,0,2.5-1.119,2.5-2.5
					S144.58,251,143.199,251z"/>
			</g>
		</g>
		<g>
			<g>
				<path d="M104.35,157.889c0.94-1.011,0.884-2.593-0.127-3.533c-1.013-0.942-2.595-0.884-3.533,0.127l-15.845,17.03
					c-2.217,2.384-2.081,6.128,0.302,8.345l3.932,3.658c2.939,2.733,6.672,4.197,10.634,4.197c0.467,0,0.938-0.021,1.411-0.062
					c1.375-0.119,2.394-1.331,2.273-2.707c-0.118-1.375-1.309-2.402-2.707-2.273c-3.055,0.263-5.969-0.735-8.206-2.816l-3.931-3.657
					c-0.365-0.34-0.386-0.914-0.047-1.279L104.35,157.889z"/>
			</g>
		</g>
		<g>
			<g>
				<g>
					<g>
						<path d="M116.448,68.961c-3.97-0.92-8.118-3.327-12.331-7.155c-0.994-0.901-2.33-1.371-3.66-1.289
							c-1.339,0.083-2.558,0.69-3.432,1.71c-5.2,6.068-24.315,25.255-51.9,17.4c-0.75-0.215-1.564-0.063-2.19,0.409
							s-0.994,1.211-0.994,1.995v21.948c0,21.7,17.655,39.355,39.355,39.355s39.355-17.655,39.355-39.355V74.204
							C120.651,71.69,118.923,69.534,116.448,68.961z M115.651,103.979c0,18.943-15.412,34.355-34.355,34.355
							S46.94,122.923,46.94,103.979V85.244c28.646,6.381,48.292-13.256,53.84-19.715c4.844,4.396,9.736,7.189,14.539,8.303
							c0.165,0.038,0.332,0.168,0.332,0.372V103.979z"/>
					</g>
				</g>
			</g>
		</g>
		<g>
			<g>
				<path d="M85.125,173.717h-7.75c-1.381,0-2.5,1.119-2.5,2.5s1.119,2.5,2.5,2.5h7.75c1.381,0,2.5-1.119,2.5-2.5
					S86.506,173.717,85.125,173.717z"/>
			</g>
		</g>
		<g>
			<g>
				<path d="M81.296,191.349c-1.381,0-2.5,1.119-2.5,2.5v56.008c0,1.381,1.119,2.5,2.5,2.5s2.5-1.119,2.5-2.5v-56.008
					C83.796,192.468,82.677,191.349,81.296,191.349z"/>
			</g>
		</g>
		<g>
			<g>
				<g>
					<g>
						<path d="M212.333,171.313l-16.584-16.584c-0.469-0.469-1.104-0.732-1.768-0.732h-50.782c-4.045,0-7.336,3.291-7.336,7.336
							v87.331c0,4.045,3.291,7.336,7.336,7.336h62.53c4.045,0,7.336-3.291,7.336-7.336v-75.583
							C213.065,172.418,212.802,171.782,212.333,171.313z M208.065,248.664c0,1.288-1.048,2.336-2.336,2.336h-62.53
							c-1.288,0-2.336-1.048-2.336-2.336v-87.331c0-1.288,1.048-2.336,2.336-2.336h49.747l15.119,15.119V248.664z"/>
					</g>
				</g>
			</g>
		</g>
		<g>
			<g>
				<path d="M197.408,203.981h-37.107c-1.381,0-2.5,1.119-2.5,2.5s1.119,2.5,2.5,2.5h37.107c1.381,0,2.5-1.119,2.5-2.5
					S198.789,203.981,197.408,203.981z"/>
			</g>
		</g>
		<g>
			<g>
				<path d="M197.408,182.709h-37.107c-1.381,0-2.5,1.119-2.5,2.5s1.119,2.5,2.5,2.5h37.107c1.381,0,2.5-1.119,2.5-2.5
					S198.789,182.709,197.408,182.709z"/>
			</g>
		</g>
		<g>
			<g>
				<path d="M181.95,172.072h-21.649c-1.381,0-2.5,1.119-2.5,2.5s1.119,2.5,2.5,2.5h21.649c1.381,0,2.5-1.119,2.5-2.5
					S183.331,172.072,181.95,172.072z"/>
			</g>
		</g>
		<g>
			<g>
				<path d="M197.408,225.255h-37.107c-1.381,0-2.5,1.119-2.5,2.5s1.119,2.5,2.5,2.5h37.107c1.381,0,2.5-1.119,2.5-2.5
					S198.789,225.255,197.408,225.255z"/>
			</g>
		</g>
		<g>
			<g>
				<path d="M197.408,193.346h-37.107c-1.381,0-2.5,1.119-2.5,2.5s1.119,2.5,2.5,2.5h37.107c1.381,0,2.5-1.119,2.5-2.5
					S198.789,193.346,197.408,193.346z"/>
			</g>
		</g>
		<g>
			<g>
				<path d="M197.408,235.892h-37.107c-1.381,0-2.5,1.119-2.5,2.5s1.119,2.5,2.5,2.5h37.107c1.381,0,2.5-1.119,2.5-2.5
					S198.789,235.892,197.408,235.892z"/>
			</g>
		</g>
		<g>
			<g>
				<path d="M197.408,214.618h-37.107c-1.381,0-2.5,1.119-2.5,2.5s1.119,2.5,2.5,2.5h37.107c1.381,0,2.5-1.119,2.5-2.5
					S198.789,214.618,197.408,214.618z"/>
			</g>
		</g>
		<g>
			<g>
				<path d="M150.965,203.981h-1.292c-1.381,0-2.5,1.119-2.5,2.5s1.119,2.5,2.5,2.5h1.292c1.381,0,2.5-1.119,2.5-2.5
					S152.346,203.981,150.965,203.981z"/>
			</g>
		</g>
		<g>
			<g>
				<path d="M150.965,182.709h-1.292c-1.381,0-2.5,1.119-2.5,2.5s1.119,2.5,2.5,2.5h1.292c1.381,0,2.5-1.119,2.5-2.5
					S152.346,182.709,150.965,182.709z"/>
			</g>
		</g>
		<g>
			<g>
				<path d="M150.965,172.072h-1.292c-1.381,0-2.5,1.119-2.5,2.5s1.119,2.5,2.5,2.5h1.292c1.381,0,2.5-1.119,2.5-2.5
					S152.346,172.072,150.965,172.072z"/>
			</g>
		</g>
		<g>
			<g>
				<path d="M150.965,225.255h-1.292c-1.381,0-2.5,1.119-2.5,2.5s1.119,2.5,2.5,2.5h1.292c1.381,0,2.5-1.119,2.5-2.5
					S152.346,225.255,150.965,225.255z"/>
			</g>
		</g>
		<g>
			<g>
				<path d="M150.965,193.346h-1.292c-1.381,0-2.5,1.119-2.5,2.5s1.119,2.5,2.5,2.5h1.292c1.381,0,2.5-1.119,2.5-2.5
					S152.346,193.346,150.965,193.346z"/>
			</g>
		</g>
		<g>
			<g>
				<path d="M150.965,235.892h-1.292c-1.381,0-2.5,1.119-2.5,2.5s1.119,2.5,2.5,2.5h1.292c1.381,0,2.5-1.119,2.5-2.5
					S152.346,235.892,150.965,235.892z"/>
			</g>
		</g>
		<g>
			<g>
				<path d="M150.965,214.618h-1.292c-1.381,0-2.5,1.119-2.5,2.5s1.119,2.5,2.5,2.5h1.292c1.381,0,2.5-1.119,2.5-2.5
					S152.346,214.618,150.965,214.618z"/>
			</g>
		</g>
		<g>
			<g>
				<path fill="#87D147" d="M252.9,167.1h-2.4v-2.3c0-1.8-1.4-3.2-3.2-3.2c-1.7,0-3.2,1.4-3.2,3.1v2.4h-2.3c-1.8,0-3.2,1.4-3.2,3.2
					c-0.1,1.7,1.3,3.2,3.2,3.2h2.3v2.3c0,1.8,1.4,3.2,3.2,3.2c1.7,0,3.2-1.4,3.2-3.1v-2.4h2.3c1.8,0,3.2-1.4,3.2-3.2
					C256,168.6,254.6,167.1,252.9,167.1z"/>
			</g>
		</g>
		<g>
			<g>
				<path fill="#F5C84C" d="M234.206,197.5c-1.878,0-3.4,1.522-3.4,3.4c0,1.878,1.522,3.4,3.4,3.4s3.4-1.522,3.4-3.4
					C237.606,199.022,236.083,197.5,234.206,197.5z"/>
			</g>
		</g>
		<g>
			<g>
				<path fill="#70D6F9" d="M169.15,67.175c-3.1-0.6-5.6-3-6.2-6.1c0-0.1-0.3-0.1-0.3,0c-0.6,3.1-3.1,5.5-6.2,6.1
					c-0.1,0-0.1,0.2,0,0.3c3.1,0.6,5.6,3,6.2,6.1c0,0.1,0.3,0.1,0.3,0c0.6-3.1,3.1-5.5,6.2-6.1
					C169.25,67.375,169.25,67.175,169.15,67.175z"/>
			</g>
		</g>
		<g>
			<g>
				<path fill="#FC657E" d="M28.369,10c-1.878,0-3.4,1.522-3.4,3.4c0,1.878,1.522,3.4,3.4,3.4c1.878,0,3.4-1.522,3.4-3.4
					C31.769,11.522,30.246,10,28.369,10z"/>
			</g>
		</g>
		<g>
			<g>
				<path fill="#F5C84C" d="M18.35,39.2c-4.5-0.8-8-4.3-8.9-8.7c0-0.2-0.4-0.2-0.4,0c-0.9,4.4-4.4,7.9-8.9,8.7c-0.2,0-0.2,0.3,0,0.4
					c4.5,0.8,8,4.3,8.9,8.7c0,0.2,0.4,0.2,0.4,0c0.9-4.4,4.4-7.9,8.9-8.7C18.55,39.5,18.55,39.2,18.35,39.2z"/>
			</g>
		</g>
		<g>
			<g>
				<path d="M46.979,232.56c-0.393-1.217-0.168-2.556,0.6-3.579l4.21-5.614c2.512-3.346,2.346-8.068-0.395-11.23l-8.369-9.655
					c-0.674-0.778-1.015-1.773-0.959-2.802l1.899-34.828c0.075-1.378-0.981-2.557-2.36-2.632c-1.375-0.1-2.557,0.98-2.632,2.36
					l-1.899,34.828c-0.127,2.33,0.645,4.584,2.172,6.348l8.37,9.656c1.208,1.395,1.282,3.478,0.174,4.954l-4.211,5.615
					c-1.74,2.32-2.248,5.354-1.359,8.112l6.214,19.294c0.342,1.06,1.323,1.734,2.379,1.734c0.254,0,0.513-0.039,0.768-0.121
					c1.314-0.424,2.036-1.832,1.613-3.146L46.979,232.56z"/>
			</g>
		</g>
		<g>
			<g>
				<path d="M123.345,205.755c1.528-1.763,2.301-4.018,2.174-6.348l-1.904-34.91c-0.074-1.379-1.257-2.439-2.632-2.36
					c-1.379,0.075-2.436,1.254-2.36,2.632l1.904,34.91c0.056,1.028-0.285,2.023-0.96,2.801l-8.367,9.656
					c-2.74,3.161-2.907,7.884-0.397,11.229l4.211,5.614c0.768,1.024,0.992,2.363,0.6,3.58l-6.205,19.271
					c-0.423,1.314,0.3,2.723,1.613,3.146c0.255,0.082,0.513,0.121,0.768,0.121c1.056,0,2.037-0.675,2.379-1.734l6.205-19.271
					c0.889-2.759,0.381-5.791-1.358-8.112l-4.212-5.615c-1.107-1.477-1.033-3.56,0.176-4.954L123.345,205.755z"/>
			</g>
		</g>
		<g>
			<g>
				<path d="M209.833,170.581h-11.538c-1,0-1.813-0.813-1.813-1.813v-11.08c0-1.381-1.119-2.5-2.5-2.5s-2.5,1.119-2.5,2.5v11.08
					c0,3.757,3.057,6.813,6.813,6.813h11.538c1.381,0,2.5-1.119,2.5-2.5S211.214,170.581,209.833,170.581z"/>
			</g>
		</g>
		<g>
			<g>
				<circle fill="#5290DB" cx="191.415" cy="25.228" r="22.728"/>
			</g>
		</g>
		<g>
			<g>
				<circle fill="#5290DB" cx="230.772" cy="71.129" r="22.728"/>
			</g>
		</g>
		<g>
			<g>
				<circle fill="#5290DB" cx="191.415" cy="117.031" r="22.728"/>
			</g>
		</g>
		<g>
			<g>
				<path fill="#FC657E" d="M196.135,30.736c-1.424-0.26-2.892-0.395-4.391-0.395s-2.967,0.135-4.391,0.395
					c-5.774,1.052-10.191,5.555-11.346,11.195c4.05,3.738,9.461,6.024,15.408,6.024c6.212,0,11.839-2.494,15.941-6.533
					C206.046,36.024,201.734,31.756,196.135,30.736z"/>
			</g>
		</g>
		<g>
			<g>
				<path fill="#F9D0B4" d="M191.415,13.095c-4.73,0-8.564,3.834-8.564,8.564s3.834,8.564,8.564,8.564
					c4.73,0,8.564-3.834,8.564-8.564S196.145,13.095,191.415,13.095z"/>
			</g>
		</g>
		<g>
			<g>
				<path fill="#F5C84C" d="M235.493,76.638c-1.424-0.26-2.892-0.395-4.391-0.395s-2.967,0.135-4.391,0.395
					c-5.774,1.052-10.191,5.555-11.346,11.195c4.051,3.738,9.461,6.024,15.408,6.024c6.212,0,11.839-2.494,15.941-6.533
					C245.404,81.925,241.091,77.657,235.493,76.638z"/>
			</g>
		</g>
		<g>
			<g>
				<circle fill="#F9D0B4" cx="230.772" cy="67.561" r="8.564"/>
			</g>
		</g>
		<g>
			<g>
				<path fill="#B2E26D" d="M196.135,122.539c-1.424-0.26-2.892-0.395-4.391-0.395s-2.967,0.135-4.391,0.395
					c-5.774,1.052-10.191,5.555-11.346,11.195c4.05,3.738,9.461,6.024,15.408,6.024c6.212,0,11.839-2.494,15.941-6.533
					C206.046,127.826,201.734,123.559,196.135,122.539z"/>
			</g>
		</g>
		<g>
			<g>
				<path fill="#F9D0B4" d="M191.415,104.898c-4.73,0-8.564,3.834-8.564,8.564c0,4.73,3.834,8.564,8.564,8.564
					c4.73,0,8.564-3.834,8.564-8.564C199.979,108.732,196.145,104.898,191.415,104.898z"/>
			</g>
		</g>
		<g>
			<g>
				<g>
					<g>
						<path d="M191.415,0c-13.911,0-25.229,11.317-25.229,25.228c0,13.911,11.317,25.229,25.229,25.229
							c13.91,0,25.228-11.317,25.228-25.229C216.643,11.317,205.325,0,191.415,0z M191.415,45.456
							c-11.154,0-20.229-9.074-20.229-20.229C171.187,14.074,180.261,5,191.415,5c11.153,0,20.228,9.074,20.228,20.228
							C211.643,36.382,202.568,45.456,191.415,45.456z"/>
					</g>
				</g>
			</g>
		</g>
		<g>
			<g>
				<g>
					<g>
						<path d="M230.772,45.901c-13.911,0-25.229,11.317-25.229,25.228c0,13.911,11.317,25.229,25.229,25.229
							c13.91,0,25.228-11.317,25.228-25.229C256,57.219,244.683,45.901,230.772,45.901z M230.772,91.357
							c-11.154,0-20.229-9.074-20.229-20.229c0-11.153,9.074-20.228,20.229-20.228c11.153,0,20.228,9.074,20.228,20.228
							C251,82.283,241.926,91.357,230.772,91.357z"/>
					</g>
				</g>
			</g>
		</g>
		<g>
			<g>
				<g>
					<g>
						<path d="M191.415,91.803c-13.911,0-25.229,11.317-25.229,25.228c0,13.911,11.317,25.229,25.229,25.229
							c13.91,0,25.228-11.317,25.228-25.229C216.643,103.12,205.325,91.803,191.415,91.803z M191.415,137.259
							c-11.154,0-20.229-9.074-20.229-20.229c0-11.153,9.074-20.228,20.229-20.228c11.153,0,20.228,9.074,20.228,20.228
							C211.643,128.185,202.568,137.259,191.415,137.259z"/>
					</g>
				</g>
			</g>
		</g>
		<g>
			<g>
				<path d="M209.658,40.338c-1.7-6.189-6.833-10.924-13.075-12.061c-3.172-0.58-6.506-0.579-9.678-0.001
					c-6.413,1.168-11.589,6.052-13.187,12.442c-0.334,1.34,0.48,2.697,1.819,3.032c0.204,0.051,0.407,0.075,0.608,0.075
					c1.12,0,2.14-0.759,2.424-1.895c1.122-4.49,4.745-7.919,9.231-8.736c2.582-0.471,5.303-0.472,7.885,0.001
					c4.364,0.795,7.956,4.118,9.149,8.466c0.367,1.332,1.737,2.113,3.073,1.749C209.24,43.045,210.023,41.669,209.658,40.338z"/>
			</g>
		</g>
		<g>
			<g>
				<g>
					<g>
						<path d="M191.415,10.596c-6.101,0-11.064,4.963-11.064,11.063s4.964,11.064,11.064,11.064s11.063-4.964,11.063-11.064
							S197.516,10.596,191.415,10.596z M191.415,27.724c-3.344,0-6.064-2.721-6.064-6.064s2.721-6.063,6.064-6.063
							s6.063,2.72,6.063,6.063S194.759,27.724,191.415,27.724z"/>
					</g>
				</g>
			</g>
		</g>
		<g>
			<g>
				<path d="M248.899,85.84c-1.827-6.069-6.793-10.538-12.959-11.661c-3.172-0.58-6.506-0.579-9.678-0.001
					c-6.316,1.151-11.47,5.947-13.128,12.219c-0.353,1.334,0.443,2.703,1.778,3.056c0.214,0.057,0.429,0.084,0.641,0.084
					c1.106,0,2.118-0.741,2.415-1.862c1.165-4.405,4.772-7.771,9.19-8.577c2.582-0.471,5.303-0.472,7.885,0.001
					c4.31,0.785,7.785,3.921,9.068,8.184c0.397,1.322,1.792,2.072,3.114,1.673C248.549,88.557,249.298,87.162,248.899,85.84z"/>
			</g>
		</g>
		<g>
			<g>
				<g>
					<g>
						<path d="M230.772,56.497c-6.101,0-11.064,4.963-11.064,11.063s4.964,11.064,11.064,11.064s11.063-4.964,11.063-11.064
							S236.873,56.497,230.772,56.497z M230.772,73.625c-3.344,0-6.064-2.721-6.064-6.064s2.721-6.063,6.064-6.063
							s6.063,2.72,6.063,6.063S234.116,73.625,230.772,73.625z"/>
					</g>
				</g>
			</g>
		</g>
		<g>
			<g>
				<path d="M209.642,132.084c-1.74-6.254-6.744-10.854-13.059-12.004c-3.172-0.58-6.506-0.579-9.678-0.001
					c-6.433,1.173-11.612,6.073-13.196,12.485c-0.331,1.34,0.486,2.695,1.827,3.026c0.201,0.05,0.403,0.074,0.602,0.074
					c1.123,0,2.144-0.763,2.425-1.901c1.113-4.505,4.74-7.945,9.239-8.766c2.582-0.471,5.303-0.472,7.885,0.001
					c4.414,0.804,7.916,4.032,9.139,8.425c0.37,1.33,1.749,2.108,3.078,1.738C209.234,134.792,210.012,133.414,209.642,132.084z"/>
			</g>
		</g>
		<g>
			<g>
				<g>
					<g>
						<path d="M191.415,102.398c-6.101,0-11.064,4.963-11.064,11.063s4.964,11.064,11.064,11.064s11.063-4.964,11.063-11.064
							S197.516,102.398,191.415,102.398z M191.415,119.526c-3.344,0-6.064-2.721-6.064-6.064s2.721-6.063,6.064-6.063
							s6.063,2.72,6.063,6.063S194.759,119.526,191.415,119.526z"/>
					</g>
				</g>
			</g>
		</g>
		<g>
			<g>
				<path d="M77.745,171.512l-16.271-17.488c-0.87-0.937-2.305-1.063-3.327-0.299c-0.379,0.283-0.719,0.502-1.038,0.669
					c-1.224,0.641-1.697,2.15-1.058,3.374c0.604,1.151,1.979,1.639,3.155,1.159l14.878,15.991c0.34,0.365,0.318,0.939-0.047,1.279
					l-3.931,3.657c-2.214,2.06-5.095,3.061-8.127,2.823c-1.38-0.096-2.581,0.918-2.689,2.295c-0.109,1.376,0.918,2.58,2.295,2.689
					c0.431,0.034,0.86,0.051,1.287,0.051c3.965,0,7.703-1.466,10.641-4.198l3.931-3.657c1.154-1.074,1.822-2.534,1.879-4.11
					S78.82,172.667,77.745,171.512z"/>
			</g>
		</g>
	</g>
</g>
<g id="Layer_65">
</g>
<g id="Layer_66">
</g>
<g id="Layer_67">
</g>
<g id="Layer_68">
</g>
<g id="Layer_69">
</g>
<g id="Layer_70">
</g>
<g id="Layer_71">
</g>
<g id="Layer_72">
</g>
<g id="Layer_73">
</g>
<g id="Layer_74">
</g>
<g id="Layer_75">
</g>
<g id="Layer_76">
</g>
<g id="Layer_77">
</g>
<g id="Layer_78">
</g>
<g id="Layer_79">
</g>
<g id="Layer_80">
</g>
</svg>
