<?xml version="1.0" encoding="utf-8"?>
<!-- Generator: Adobe Illustrator 24.0.0, SVG Export Plug-In . SVG Version: 6.00 Build 0)  -->
<svg version="1.1" xmlns="http://www.w3.org/2000/svg" xmlns:xlink="http://www.w3.org/1999/xlink" x="0px" y="0px"
	 viewBox="0 0 256 256" enable-background="new 0 0 256 256" xml:space="preserve">
<g id="Layer_1">
</g>
<g id="Layer_2">
</g>
<g id="Layer_3">
</g>
<g id="Layer_4">
</g>
<g id="Layer_5">
</g>
<g id="Layer_6">
</g>
<g id="Layer_7">
</g>
<g id="Layer_8">
</g>
<g id="Layer_9">
</g>
<g id="Layer_10">
</g>
<g id="Layer_11">
</g>
<g id="Layer_12">
</g>
<g id="Layer_13">
</g>
<g id="Layer_14">
</g>
<g id="Layer_15">
</g>
<g id="Layer_16">
</g>
<g id="Layer_17">
</g>
<g id="Layer_18">
</g>
<g id="Layer_19">
</g>
<g id="Layer_20">
</g>
<g id="Layer_21">
</g>
<g id="Layer_22">
</g>
<g id="Layer_23">
</g>
<g id="Layer_24">
</g>
<g id="Layer_25">
</g>
<g id="Layer_26">
</g>
<g id="Layer_27">
</g>
<g id="Layer_28">
</g>
<g id="Layer_29">
</g>
<g id="Layer_30">
</g>
<g id="Layer_31">
</g>
<g id="Layer_32">
</g>
<g id="Layer_33">
</g>
<g id="Layer_34">
</g>
<g id="Layer_35">
</g>
<g id="Layer_36">
</g>
<g id="Layer_37">
</g>
<g id="Layer_38">
</g>
<g id="Layer_39">
</g>
<g id="Layer_40">
</g>
<g id="Layer_41">
</g>
<g id="Layer_42">
</g>
<g id="Layer_43">
</g>
<g id="Layer_44">
</g>
<g id="Layer_45">
</g>
<g id="Layer_46">
</g>
<g id="Layer_47">
</g>
<g id="Layer_48">
</g>
<g id="Layer_49">
</g>
<g id="Layer_50">
</g>
<g id="Layer_51">
</g>
<g id="Layer_52">
</g>
<g id="Layer_53">
</g>
<g id="Layer_54">
</g>
<g id="Layer_55">
</g>
<g id="Layer_56">
</g>
<g id="Layer_57">
</g>
<g id="Layer_58">
</g>
<g id="Layer_59">
</g>
<g id="Layer_60">
</g>
<g id="Layer_61">
</g>
<g id="Layer_62">
</g>
<g id="Layer_63">
	<g>
		<g>
			<g>
				<path fill="#F9D0B4" d="M118.699,59.927c-2.588-2.715-6.797-2.964-9.748-0.648c-4.665,3.662-12.737,8.188-24.139,8.188
					c-11.429,0-19.544-4.548-24.229-8.215c-2.948-2.307-7.148-2.049-9.731,0.661l-0.013,0.014c-3.63,3.807-5.655,8.865-5.655,14.125
					v33.222c0,21.772,17.813,39.585,39.585,39.585h0c21.772,0,39.585-17.813,39.585-39.585V74.052
					C124.354,68.792,122.329,63.734,118.699,59.927z"/>
			</g>
		</g>
		<g>
			<g>
				<path fill="#F9D0B4" d="M126.895,77.104c-0.865,0-1.712,0.073-2.54,0.201v29.968c0,0.893-0.041,1.776-0.1,2.655
					c0.862,0.139,1.739,0.23,2.64,0.23c9.128,0,16.527-7.399,16.527-16.527S136.022,77.104,126.895,77.104z"/>
			</g>
		</g>
		<g>
			<g>
				<path fill="#F9D0B4" d="M45.184,107.273V77.306c-0.829-0.129-1.675-0.201-2.54-0.201c-9.128,0-16.527,7.399-16.527,16.527
					s7.399,16.527,16.527,16.527c0.901,0,1.778-0.092,2.64-0.23v-0.001C45.225,109.049,45.184,108.166,45.184,107.273z"/>
			</g>
		</g>
		<g>
			<g>
				<path fill="#5B5D60" d="M124.207,43.338c-1.326,0-2.475-1.022-2.493-2.348c-0.304-22.058-25.492-26.201-50.577-21.87
					c-21.268,3.673-36.812,22.115-36.812,43.698v16.55c2.446-1.43,5.282-2.263,8.319-2.263c0.865,0,1.712,0.073,2.54,0.201v-3.254
					c0-5.26,2.025-10.318,5.655-14.125l0.013-0.014c2.583-2.709,6.783-2.968,9.731-0.661c4.685,3.667,12.8,8.215,24.229,8.215
					c11.401,0,19.474-4.526,24.139-8.188c2.95-2.316,7.159-2.066,9.748,0.648c3.63,3.807,5.655,8.865,5.655,14.125v3.254
					c0.829-0.129,1.676-0.201,2.54-0.201c3.074,0,5.941,0.854,8.407,2.316V65.833C135.301,46.081,128.169,43.338,124.207,43.338z"/>
			</g>
		</g>
		<g>
			<g>
				<path fill="#DAE6F1" d="M104.433,185.382c-1.069,1.224-2.928,1.349-4.151,0.28l-8.87-7.747c-1.224-1.069-1.349-2.928-0.28-4.151
					l14.623-16.742c-1.748-2.326-2.748-5.191-2.748-8.212v-6.442c-5.467,2.862-11.669,4.492-18.237,4.492s-12.77-1.63-18.237-4.492
					v6.442c0,3.021-1.001,5.886-2.748,8.212l14.623,16.742c1.069,1.224,0.943,3.083-0.281,4.151l-8.87,7.747
					c-1.224,1.069-3.083,0.943-4.151-0.28l-8.175-9.36L69.358,253.5h30.822l12.428-77.478L104.433,185.382z"/>
			</g>
		</g>
		<g>
			<g>
				<path fill="#3A70BF" d="M54.681,162.004c-0.287-1.791-2.112-2.898-3.833-2.324l-25.883,8.628
					c-8.771,2.924-15.034,10.69-16.033,19.881l-6.397,58.836c-0.376,3.457,2.332,6.476,5.81,6.476h61.014L54.681,162.004z"/>
			</g>
		</g>
		<g>
			<g>
				<path fill="#3A70BF" d="M138.363,248.664v-82.427l-19.673-6.558c-1.721-0.574-3.546,0.533-3.833,2.324L100.18,253.5h43.019
					C140.528,253.5,138.363,251.335,138.363,248.664z"/>
			</g>
		</g>
		<g>
			<g>
				
					<ellipse transform="matrix(0.3827 -0.9239 0.9239 0.3827 94.856 192.4177)" fill="#5290DB" cx="191.415" cy="25.228" rx="22.728" ry="22.728"/>
			</g>
		</g>
		<g>
			<g>
				<circle fill="#5290DB" cx="230.772" cy="71.129" r="22.728"/>
			</g>
		</g>
		<g>
			<g>
				
					<ellipse transform="matrix(0.3827 -0.9239 0.9239 0.3827 10.0414 249.089)" fill="#5290DB" cx="191.415" cy="117.031" rx="22.728" ry="22.728"/>
			</g>
		</g>
		<g>
			<g>
				<path fill="#EDF4FC" d="M193.981,156.498h-50.782c-2.671,0-4.836,2.165-4.836,4.835v87.331c0,2.671,2.165,4.836,4.836,4.836
					h62.53c2.671,0,4.836-2.165,4.836-4.836v-75.583L193.981,156.498z"/>
			</g>
		</g>
		<g>
			<g>
				<path fill="#EDF4FC" d="M111.781,154.594c-1.224-1.069-3.083-0.943-4.151,0.281l-16.498,18.889
					c-1.069,1.224-0.943,3.083,0.28,4.151l8.87,7.747c1.224,1.069,3.083,0.944,4.152-0.28l8.175-9.36l2.249-14.018
					c0.218-1.36,1.324-2.321,2.596-2.456L111.781,154.594z"/>
			</g>
		</g>
		<g>
			<g>
				<path fill="#EDF4FC" d="M78.407,173.764l-16.498-18.889c-1.069-1.224-2.928-1.349-4.151-0.281l-5.672,4.954
					c1.273,0.135,2.378,1.095,2.596,2.456l2.249,14.018l8.175,9.36c1.069,1.224,2.928,1.35,4.151,0.28l8.87-7.747
					C79.35,176.846,79.476,174.988,78.407,173.764z"/>
			</g>
		</g>
		<g>
			<g>
				<path fill="#5290DB" d="M54.681,162.004c-0.287-1.791-2.112-2.898-3.833-2.324l-8.676,2.892v40.293
					c0,2.738,1.547,5.241,3.996,6.465l4.806,2.403c1.983,0.991,2.734,3.44,1.647,5.373l-5.688,10.112
					c-1.046,1.859-1.217,4.085-0.468,6.082l7.575,20.2h15.319L54.681,162.004z"/>
			</g>
		</g>
		<g>
			<g>
				<path fill="#5290DB" d="M118.69,159.68c-1.721-0.574-3.546,0.533-3.833,2.324L100.18,253.5h15.318l7.575-20.2
					c0.749-1.997,0.578-4.223-0.468-6.082l-5.688-10.112c-1.087-1.933-0.337-4.382,1.647-5.373l4.806-2.403
					c2.449-1.224,3.996-3.727,3.996-6.465v-40.293L118.69,159.68z"/>
			</g>
		</g>
		<g>
			<g>
				<path fill="#F9D0B4" d="M105.755,157.021c-1.748-2.326-2.748-5.191-2.748-8.212v-6.442c-5.467,2.862-11.669,4.492-18.237,4.492
					h0c-6.568,0-12.77-1.63-18.237-4.492v6.442c0,3.021-1.001,5.886-2.749,8.212l14.623,16.742c0.611,0.699,0.819,1.605,0.667,2.453
					h11.39c-0.152-0.849,0.056-1.754,0.667-2.453L105.755,157.021z"/>
			</g>
		</g>
		<g>
			<g>
				<polygon fill="#FC657E" points="92.029,192.812 77.509,192.812 71.552,253.5 97.987,253.5 				"/>
			</g>
		</g>
		<g>
			<g>
				<path fill="#F98FA6" d="M91.412,177.915c-0.524-0.458-0.834-1.063-0.947-1.698h-11.39c-0.114,0.635-0.423,1.24-0.947,1.698
					l-5.214,4.554l4.597,10.342h14.521l4.597-10.343L91.412,177.915z"/>
			</g>
		</g>
		<g>
			<g>
				<path fill="#FC657E" d="M196.135,30.736c-1.424-0.26-2.892-0.395-4.391-0.395s-2.967,0.135-4.391,0.395
					c-5.774,1.052-10.191,5.555-11.346,11.195c4.05,3.738,9.461,6.024,15.408,6.024c6.212,0,11.839-2.494,15.941-6.533
					C206.046,36.024,201.734,31.756,196.135,30.736z"/>
			</g>
		</g>
		<g>
			<g>
				
					<ellipse transform="matrix(0.9975 -0.0709 0.0709 0.9975 -1.0539 13.6238)" fill="#F9D0B4" cx="191.415" cy="21.659" rx="8.564" ry="8.564"/>
			</g>
		</g>
		<g>
			<g>
				<path fill="#F5C84C" d="M235.493,76.638c-1.424-0.26-2.892-0.395-4.391-0.395c-1.499,0-2.967,0.135-4.391,0.395
					c-5.774,1.052-10.191,5.555-11.346,11.195c4.051,3.738,9.461,6.024,15.408,6.024c6.212,0,11.839-2.494,15.941-6.533
					C245.404,81.925,241.091,77.657,235.493,76.638z"/>
			</g>
		</g>
		<g>
			<g>
				<circle fill="#F9D0B4" cx="230.772" cy="67.561" r="8.564"/>
			</g>
		</g>
		<g>
			<g>
				<path fill="#B2E26D" d="M196.135,122.539c-1.424-0.26-2.892-0.395-4.391-0.395s-2.967,0.135-4.391,0.395
					c-5.774,1.052-10.191,5.555-11.346,11.195c4.05,3.738,9.461,6.024,15.408,6.024c6.212,0,11.839-2.494,15.941-6.533
					C206.046,127.826,201.734,123.559,196.135,122.539z"/>
			</g>
		</g>
		<g>
			<g>
				<path fill="#F9D0B4" d="M191.415,104.898c-4.73,0-8.564,3.834-8.564,8.564c0,4.73,3.834,8.564,8.564,8.564
					c4.73,0,8.564-3.834,8.564-8.564C199.979,108.732,196.145,104.898,191.415,104.898z"/>
			</g>
		</g>
		<g>
			<g>
				<path fill="#DAE6F1" d="M193.981,156.498v12.27c0,2.383,1.931,4.314,4.314,4.314h12.27L193.981,156.498z"/>
			</g>
		</g>
		<g>
			<g>
				<path fill="#87D147" d="M252.9,167.1h-2.4v-2.3c0-1.8-1.4-3.2-3.2-3.2c-1.7,0-3.2,1.4-3.2,3.1v2.4h-2.3c-1.8,0-3.2,1.4-3.2,3.2
					c-0.1,1.7,1.3,3.2,3.2,3.2h2.3v2.3c0,1.8,1.4,3.2,3.2,3.2c1.7,0,3.2-1.4,3.2-3.1v-2.4h2.3c1.8,0,3.2-1.4,3.2-3.2
					C256,168.6,254.6,167.1,252.9,167.1z"/>
			</g>
		</g>
		<g>
			<g>
				<path fill="#F5C84C" d="M234.206,197.5c-1.878,0-3.4,1.522-3.4,3.4c0,1.878,1.522,3.4,3.4,3.4c1.878,0,3.4-1.522,3.4-3.4
					C237.606,199.022,236.083,197.5,234.206,197.5z"/>
			</g>
		</g>
		<g>
			<g>
				<path fill="#70D6F9" d="M169.15,67.175c-3.1-0.6-5.6-3-6.2-6.1c0-0.1-0.3-0.1-0.3,0c-0.6,3.1-3.1,5.5-6.2,6.1
					c-0.1,0-0.1,0.2,0,0.3c3.1,0.6,5.6,3,6.2,6.1c0,0.1,0.3,0.1,0.3,0c0.6-3.1,3.1-5.5,6.2-6.1
					C169.25,67.375,169.25,67.175,169.15,67.175z"/>
			</g>
		</g>
		<g>
			<g>
				<path fill="#FC657E" d="M28.369,10c-1.878,0-3.4,1.522-3.4,3.4c0,1.878,1.522,3.4,3.4,3.4c1.878,0,3.4-1.522,3.4-3.4
					C31.769,11.522,30.246,10,28.369,10z"/>
			</g>
		</g>
		<g>
			<g>
				<path fill="#F5C84C" d="M18.35,39.2c-4.5-0.8-8-4.3-8.9-8.7c0-0.2-0.4-0.2-0.4,0c-0.9,4.4-4.4,7.9-8.9,8.7c-0.2,0-0.2,0.3,0,0.4
					c4.5,0.8,8,4.3,8.9,8.7c0,0.2,0.4,0.2,0.4,0c0.9-4.4,4.4-7.9,8.9-8.7C18.55,39.5,18.55,39.2,18.35,39.2z"/>
			</g>
		</g>
		<g>
			<g>
				<g>
					<g>
						<path d="M120.508,58.201c-3.473-3.641-9.104-4.023-13.1-0.89c-4.449,3.492-11.98,7.655-22.595,7.655
							c-10.638,0-18.21-4.179-22.688-7.684c-3.989-3.122-9.612-2.733-13.094,0.918c-4.092,4.291-6.346,9.92-6.346,15.851v33.222
							c0,23.206,18.879,42.085,42.085,42.085c23.206,0,42.085-18.879,42.085-42.085V74.052
							C126.854,68.122,124.601,62.493,120.508,58.201z M121.854,107.273c0,20.448-16.636,37.085-37.085,37.085
							c-20.449,0-37.085-16.637-37.085-37.085V74.052c0-4.64,1.763-9.043,4.978-12.413c0.919-0.964,2.152-1.455,3.4-1.455
							c1.041,0,2.093,0.342,2.981,1.037c5.098,3.99,13.707,8.746,25.77,8.746c12.043,0,20.614-4.743,25.682-8.722
							c1.957-1.537,4.707-1.362,6.395,0.407c3.201,3.357,4.964,7.761,4.964,12.399V107.273z"/>
					</g>
				</g>
			</g>
		</g>
		<g>
			<g>
				<path d="M28.788,199.275c-1.381,0-2.5,1.119-2.5,2.5v50.121c0,1.381,1.119,2.5,2.5,2.5s2.5-1.119,2.5-2.5v-50.121
					C31.288,200.395,30.169,199.275,28.788,199.275z"/>
			</g>
		</g>
		<g>
			<g>
				<path d="M126.895,74.604c-0.42,0-0.838,0.015-1.251,0.043c-1.377,0.094-2.418,1.287-2.324,2.665
					c0.095,1.377,1.299,2.426,2.665,2.323c0.301-0.021,0.604-0.031,0.911-0.031c7.734,0,14.027,6.293,14.027,14.027
					s-6.293,14.026-14.027,14.026c-0.374,0-0.743-0.019-1.107-0.052c-1.378-0.145-2.592,0.888-2.717,2.263s0.888,2.591,2.263,2.716
					c0.53,0.049,1.056,0.073,1.562,0.073c10.492,0,19.027-8.535,19.027-19.026C145.922,83.14,137.387,74.604,126.895,74.604z"/>
			</g>
		</g>
		<g>
			<g>
				<path d="M43.751,107.606c-0.365,0.033-0.734,0.052-1.107,0.052c-7.734,0-14.027-6.292-14.027-14.026s6.292-14.027,14.027-14.027
					c0.426,0,0.864,0.021,1.304,0.063c1.382,0.131,2.596-0.875,2.728-2.249c0.132-1.374-0.875-2.596-2.249-2.728
					c-0.598-0.058-1.198-0.087-1.783-0.087c-10.491,0-19.027,8.535-19.027,19.027c0,10.491,8.536,19.026,19.027,19.026
					c0.506,0,1.031-0.024,1.562-0.073c1.375-0.125,2.388-1.341,2.263-2.716S45.129,107.464,43.751,107.606z"/>
			</g>
		</g>
		<g>
			<g>
				<path d="M124.211,40.826c-0.133-7.466-2.879-13.476-8.165-17.865c-8.954-7.436-25.477-9.731-45.335-6.305
					c-22.532,3.892-38.886,23.305-38.886,46.161v15.996c0,1.381,1.119,2.5,2.5,2.5s2.5-1.119,2.5-2.5V62.817
					c0-20.416,14.609-37.758,34.737-41.233c18.414-3.182,33.463-1.276,41.29,5.224c4.139,3.438,6.28,8.221,6.362,14.218
					c0.038,2.653,2.277,4.813,4.993,4.813c5.462,0,8.595,7.287,8.595,19.994v13.146c0,1.381,1.119,2.5,2.5,2.5s2.5-1.119,2.5-2.5
					V65.832C137.802,44.147,129.332,40.856,124.211,40.826z"/>
			</g>
		</g>
		<g>
			<g>
				<path d="M66.532,140.563c-1.381,0-2.5,1.119-2.5,2.5v5.746c0,2.221-0.658,4.373-1.902,6.225c-0.77,1.146-0.465,2.699,0.681,3.47
					c0.428,0.287,0.913,0.425,1.392,0.425c0.805,0,1.595-0.388,2.078-1.105c1.8-2.679,2.751-5.796,2.751-9.014v-5.746
					C69.032,141.682,67.913,140.563,66.532,140.563z"/>
			</g>
		</g>
		<g>
			<g>
				<path d="M107.465,155.118c-1.281-1.871-1.958-4.053-1.958-6.31v-5.59c0-1.381-1.119-2.5-2.5-2.5s-2.5,1.119-2.5,2.5v5.59
					c0,3.27,0.979,6.428,2.833,9.134c0.485,0.708,1.268,1.088,2.065,1.088c0.486,0,0.978-0.142,1.41-0.438
					C107.954,157.813,108.245,156.257,107.465,155.118z"/>
			</g>
		</g>
		<g>
			<g>
				<path d="M100.18,251H69.358c-1.381,0-2.5,1.119-2.5,2.5s1.119,2.5,2.5,2.5h30.822c1.381,0,2.5-1.119,2.5-2.5
					S101.561,251,100.18,251z"/>
			</g>
		</g>
		<g>
			<g>
				<g>
					<g>
						<path d="M71.827,253.104l-14.677-91.496c-0.253-1.58-1.183-2.961-2.551-3.791s-3.023-1.014-4.541-0.51h0l-25.884,8.628
							c-9.668,3.224-16.626,11.852-17.728,21.982l-6.397,58.837c-0.255,2.353,0.504,4.712,2.085,6.474S5.979,256,8.345,256h61.014
							c0.732,0,1.428-0.321,1.903-0.878C71.736,254.564,71.943,253.827,71.827,253.104z M8.345,251c-0.962,0-1.846-0.395-2.489-1.11
							c-0.643-0.717-0.94-1.639-0.836-2.595l6.397-58.836c0.891-8.194,6.519-15.173,14.338-17.779l25.884-8.628h0
							c0.162-0.053,0.289-0.007,0.368,0.041c0.079,0.049,0.18,0.141,0.207,0.307L66.425,251H8.345z"/>
					</g>
				</g>
			</g>
		</g>
		<g>
			<g>
				<path d="M143.199,251h-40.086l14.212-88.601c0.027-0.166,0.127-0.259,0.207-0.307c0.079-0.049,0.206-0.098,0.367-0.041
					l18.756,6.253c1.313,0.434,2.726-0.272,3.163-1.581c0.437-1.311-0.271-2.726-1.581-3.163l-18.757-6.252
					c-1.518-0.509-3.172-0.321-4.541,0.508c-1.369,0.83-2.299,2.212-2.552,3.792l-14.677,91.496
					c-0.116,0.723,0.091,1.46,0.565,2.018c0.475,0.557,1.17,0.878,1.903,0.878h43.019c1.381,0,2.5-1.119,2.5-2.5
					S144.58,251,143.199,251z"/>
			</g>
		</g>
		<g>
			<g>
				<g>
					<path d="M97.676,115.813c-1.059-0.887-2.635-0.748-3.522,0.31c-1.943,2.318-5.236,3.702-8.809,3.702
						c-3.572,0-6.866-1.384-8.81-3.702c-0.885-1.058-2.463-1.196-3.522-0.31c-1.058,0.888-1.196,2.464-0.309,3.522
						c2.882,3.438,7.607,5.489,12.641,5.489c5.034,0,9.759-2.052,12.641-5.489C98.873,118.276,98.734,116.699,97.676,115.813z"/>
				</g>
			</g>
			<g>
				<g>
					<path d="M103.204,90.14c-2.937,0-5.318,2.381-5.318,5.318c0,2.938,2.381,5.319,5.318,5.319s5.318-2.381,5.318-5.319
						C108.522,92.521,106.141,90.14,103.204,90.14z"/>
				</g>
			</g>
			<g>
				<g>
					<path d="M67.486,90.14c-2.937,0-5.318,2.381-5.318,5.318c0,2.938,2.381,5.319,5.318,5.319s5.318-2.381,5.318-5.319
						C72.805,92.521,70.423,90.14,67.486,90.14z"/>
				</g>
			</g>
		</g>
		<g>
			<g>
				<g>
					<g>
						<path d="M191.415,0c-13.911,0-25.229,11.317-25.229,25.228c0,13.911,11.317,25.229,25.229,25.229
							c13.91,0,25.228-11.317,25.228-25.229C216.643,11.317,205.325,0,191.415,0z M191.415,45.456
							c-11.154,0-20.229-9.074-20.229-20.229C171.187,14.074,180.261,5,191.415,5c11.153,0,20.228,9.074,20.228,20.228
							C211.643,36.382,202.568,45.456,191.415,45.456z"/>
					</g>
				</g>
			</g>
		</g>
		<g>
			<g>
				<g>
					<g>
						<path d="M230.772,45.901c-13.911,0-25.229,11.317-25.229,25.228c0,13.911,11.317,25.229,25.229,25.229
							c13.91,0,25.228-11.317,25.228-25.229C256,57.219,244.683,45.901,230.772,45.901z M230.772,91.357
							c-11.154,0-20.229-9.074-20.229-20.229c0-11.153,9.074-20.228,20.229-20.228c11.153,0,20.228,9.074,20.228,20.228
							C251,82.283,241.926,91.357,230.772,91.357z"/>
					</g>
				</g>
			</g>
		</g>
		<g>
			<g>
				<g>
					<g>
						<path d="M191.415,91.803c-13.911,0-25.229,11.317-25.229,25.228c0,13.911,11.317,25.229,25.229,25.229
							c13.91,0,25.228-11.317,25.228-25.229C216.643,103.12,205.325,91.803,191.415,91.803z M191.415,137.259
							c-11.154,0-20.229-9.074-20.229-20.229c0-11.153,9.074-20.228,20.229-20.228c11.153,0,20.228,9.074,20.228,20.228
							C211.643,128.185,202.568,137.259,191.415,137.259z"/>
					</g>
				</g>
			</g>
		</g>
		<g>
			<g>
				<g>
					<g>
						<path d="M212.333,171.313l-16.584-16.584c-0.469-0.469-1.104-0.732-1.768-0.732h-50.782c-4.045,0-7.336,3.291-7.336,7.336
							v87.331c0,4.045,3.291,7.336,7.336,7.336h62.53c4.045,0,7.336-3.291,7.336-7.336v-75.583
							C213.065,172.418,212.802,171.782,212.333,171.313z M208.065,248.664c0,1.288-1.048,2.336-2.336,2.336h-62.53
							c-1.288,0-2.336-1.048-2.336-2.336v-87.331c0-1.288,1.048-2.336,2.336-2.336h49.747l15.119,15.119V248.664z"/>
					</g>
				</g>
			</g>
		</g>
		<g>
			<g>
				<path d="M197.408,203.981h-37.107c-1.381,0-2.5,1.119-2.5,2.5s1.119,2.5,2.5,2.5h37.107c1.381,0,2.5-1.119,2.5-2.5
					S198.789,203.981,197.408,203.981z"/>
			</g>
		</g>
		<g>
			<g>
				<path d="M197.408,182.709h-37.107c-1.381,0-2.5,1.119-2.5,2.5s1.119,2.5,2.5,2.5h37.107c1.381,0,2.5-1.119,2.5-2.5
					S198.789,182.709,197.408,182.709z"/>
			</g>
		</g>
		<g>
			<g>
				<path d="M181.95,172.072h-21.649c-1.381,0-2.5,1.119-2.5,2.5s1.119,2.5,2.5,2.5h21.649c1.381,0,2.5-1.119,2.5-2.5
					S183.331,172.072,181.95,172.072z"/>
			</g>
		</g>
		<g>
			<g>
				<path d="M197.408,225.255h-37.107c-1.381,0-2.5,1.119-2.5,2.5s1.119,2.5,2.5,2.5h37.107c1.381,0,2.5-1.119,2.5-2.5
					S198.789,225.255,197.408,225.255z"/>
			</g>
		</g>
		<g>
			<g>
				<path d="M197.408,193.346h-37.107c-1.381,0-2.5,1.119-2.5,2.5s1.119,2.5,2.5,2.5h37.107c1.381,0,2.5-1.119,2.5-2.5
					S198.789,193.346,197.408,193.346z"/>
			</g>
		</g>
		<g>
			<g>
				<path d="M197.408,235.892h-37.107c-1.381,0-2.5,1.119-2.5,2.5s1.119,2.5,2.5,2.5h37.107c1.381,0,2.5-1.119,2.5-2.5
					S198.789,235.892,197.408,235.892z"/>
			</g>
		</g>
		<g>
			<g>
				<path d="M197.408,214.618h-37.107c-1.381,0-2.5,1.119-2.5,2.5s1.119,2.5,2.5,2.5h37.107c1.381,0,2.5-1.119,2.5-2.5
					S198.789,214.618,197.408,214.618z"/>
			</g>
		</g>
		<g>
			<g>
				<path d="M150.965,203.981h-1.292c-1.381,0-2.5,1.119-2.5,2.5s1.119,2.5,2.5,2.5h1.292c1.381,0,2.5-1.119,2.5-2.5
					S152.346,203.981,150.965,203.981z"/>
			</g>
		</g>
		<g>
			<g>
				<path d="M150.965,182.709h-1.292c-1.381,0-2.5,1.119-2.5,2.5s1.119,2.5,2.5,2.5h1.292c1.381,0,2.5-1.119,2.5-2.5
					S152.346,182.709,150.965,182.709z"/>
			</g>
		</g>
		<g>
			<g>
				<path d="M150.965,172.072h-1.292c-1.381,0-2.5,1.119-2.5,2.5s1.119,2.5,2.5,2.5h1.292c1.381,0,2.5-1.119,2.5-2.5
					S152.346,172.072,150.965,172.072z"/>
			</g>
		</g>
		<g>
			<g>
				<path d="M150.965,225.255h-1.292c-1.381,0-2.5,1.119-2.5,2.5s1.119,2.5,2.5,2.5h1.292c1.381,0,2.5-1.119,2.5-2.5
					S152.346,225.255,150.965,225.255z"/>
			</g>
		</g>
		<g>
			<g>
				<path d="M150.965,193.346h-1.292c-1.381,0-2.5,1.119-2.5,2.5s1.119,2.5,2.5,2.5h1.292c1.381,0,2.5-1.119,2.5-2.5
					S152.346,193.346,150.965,193.346z"/>
			</g>
		</g>
		<g>
			<g>
				<path d="M150.965,235.892h-1.292c-1.381,0-2.5,1.119-2.5,2.5s1.119,2.5,2.5,2.5h1.292c1.381,0,2.5-1.119,2.5-2.5
					S152.346,235.892,150.965,235.892z"/>
			</g>
		</g>
		<g>
			<g>
				<path d="M150.965,214.618h-1.292c-1.381,0-2.5,1.119-2.5,2.5s1.119,2.5,2.5,2.5h1.292c1.381,0,2.5-1.119,2.5-2.5
					S152.346,214.618,150.965,214.618z"/>
			</g>
		</g>
		<g>
			<g>
				<path d="M118.843,157.443l-5.417-4.731c-1.095-0.957-2.501-1.419-3.947-1.332c-1.451,0.099-2.777,0.756-3.732,1.851
					l-16.498,18.889c-0.957,1.095-1.429,2.496-1.331,3.947c0.098,1.45,0.755,2.776,1.85,3.731l8.87,7.747
					c1.03,0.899,2.306,1.341,3.577,1.341c1.518,0,3.028-0.629,4.103-1.859l8.038-9.203c0.908-1.04,0.802-2.619-0.238-3.527
					s-2.619-0.8-3.527,0.238l-8.037,9.202c-0.161,0.185-0.441,0.204-0.625,0.043l-8.87-7.748c-0.114-0.099-0.145-0.219-0.15-0.303
					c-0.006-0.083,0.008-0.206,0.108-0.32l16.499-18.89c0.1-0.113,0.219-0.144,0.303-0.149c0.088-0.004,0.207,0.009,0.321,0.108
					l5.418,4.731c1.041,0.909,2.62,0.801,3.527-0.238C119.99,159.931,119.883,158.352,118.843,157.443z"/>
			</g>
		</g>
		<g>
			<g>
				<path d="M80.29,172.119l-16.498-18.888c-0.956-1.096-2.282-1.753-3.733-1.852c-1.449-0.089-2.852,0.375-3.946,1.332
					l-5.487,4.792c-1.04,0.908-1.146,2.487-0.238,3.527c0.908,1.038,2.486,1.146,3.527,0.238l5.488-4.792
					c0.114-0.1,0.234-0.121,0.32-0.108c0.083,0.006,0.203,0.036,0.303,0.15l16.498,18.889c0.1,0.114,0.114,0.237,0.108,0.32
					c-0.005,0.084-0.036,0.204-0.15,0.304l-8.87,7.747c-0.184,0.16-0.464,0.141-0.625-0.042l-8.091-9.264
					c-0.908-1.042-2.488-1.147-3.527-0.238c-1.04,0.908-1.146,2.487-0.238,3.527l8.092,9.265c1.075,1.229,2.584,1.858,4.102,1.858
					c1.271,0,2.547-0.441,3.577-1.341l8.869-7.746c1.095-0.956,1.752-2.282,1.851-3.732
					C81.719,174.615,81.247,173.214,80.29,172.119z"/>
			</g>
		</g>
		<g>
			<g>
				<path d="M56.045,251.729l-7.24-19.307c-0.491-1.31-0.379-2.76,0.306-3.979l5.688-10.111c0.853-1.515,1.049-3.336,0.54-4.998
					c-0.509-1.661-1.693-3.06-3.247-3.837l-4.806-2.403c-1.612-0.806-2.614-2.427-2.614-4.229v-39.24c0-1.381-1.119-2.5-2.5-2.5
					s-2.5,1.119-2.5,2.5v39.24c0,3.708,2.061,7.042,5.378,8.701l4.806,2.403c0.46,0.23,0.638,0.619,0.703,0.83
					c0.064,0.211,0.136,0.632-0.117,1.081l-5.688,10.111c-1.411,2.508-1.641,5.491-0.63,8.186l7.24,19.307
					c0.376,1.004,1.329,1.623,2.341,1.623c0.292,0,0.588-0.052,0.877-0.16C55.875,254.463,56.53,253.021,56.045,251.729z"/>
			</g>
		</g>
		<g>
			<g>
				<path d="M127.367,160.875c-1.381,0-2.5,1.119-2.5,2.5v39.49c0,1.802-1.002,3.423-2.614,4.229l-4.805,2.403
					c-1.555,0.777-2.738,2.176-3.248,3.837c-0.509,1.662-0.313,3.483,0.54,4.998l5.688,10.111c0.686,1.219,0.797,2.669,0.306,3.979
					l-7.325,19.532c-0.485,1.293,0.17,2.734,1.463,3.219c0.289,0.108,0.586,0.16,0.877,0.16c1.012,0,1.965-0.619,2.341-1.623
					l7.325-19.532c1.01-2.694,0.781-5.678-0.63-8.186l-5.688-10.111c-0.252-0.449-0.181-0.87-0.117-1.081
					c0.065-0.211,0.242-0.6,0.703-0.83l4.806-2.403c3.317-1.659,5.378-4.993,5.378-8.701v-39.49
					C129.867,161.994,128.748,160.875,127.367,160.875z"/>
			</g>
		</g>
		<g>
			<g>
				<path d="M94.518,192.567c-0.126-1.28-1.202-2.256-2.488-2.256H77.509c-1.286,0-2.362,0.976-2.488,2.256l-5.833,59.432
					c-0.135,1.374,0.87,2.598,2.244,2.732c1.374,0.124,2.597-0.871,2.732-2.244l5.612-57.176h9.987l5.612,57.178
					c0.127,1.291,1.214,2.256,2.485,2.256c0.082,0,0.164-0.004,0.247-0.012c1.374-0.135,2.379-1.358,2.244-2.732L94.518,192.567z"/>
			</g>
		</g>
		<g>
			<g>
				<g>
					<path d="M97.474,180.563c-1.261-0.563-2.74,0.007-3.3,1.269l-4.429,9.965c-0.561,1.262,0.007,2.739,1.269,3.3
						c0.33,0.147,0.675,0.217,1.014,0.217c0.958,0,1.872-0.554,2.286-1.485l4.429-9.965
						C99.304,182.601,98.736,181.123,97.474,180.563z"/>
				</g>
			</g>
			<g>
				<g>
					<path d="M79.793,191.796l-4.243-9.548c-0.561-1.261-2.039-1.832-3.3-1.269c-1.262,0.561-1.83,2.038-1.27,3.3l4.243,9.548
						c0.414,0.932,1.328,1.485,2.286,1.485c0.339,0,0.684-0.069,1.014-0.217C79.786,194.535,80.354,193.058,79.793,191.796z"/>
				</g>
			</g>
			<g>
				<g>
					<path d="M89.563,173.717h-9.479c-1.381,0-2.5,1.119-2.5,2.5s1.119,2.5,2.5,2.5h9.479c1.381,0,2.5-1.119,2.5-2.5
						S90.944,173.717,89.563,173.717z"/>
				</g>
			</g>
		</g>
		<g>
			<g>
				<path d="M209.658,40.338c-1.7-6.189-6.833-10.924-13.075-12.061c-3.172-0.58-6.506-0.579-9.678-0.001
					c-6.413,1.168-11.589,6.052-13.187,12.442c-0.334,1.34,0.48,2.697,1.819,3.032c0.204,0.051,0.407,0.075,0.608,0.075
					c1.12,0,2.14-0.759,2.424-1.895c1.122-4.49,4.745-7.919,9.231-8.736c2.582-0.471,5.303-0.472,7.885,0.001
					c4.364,0.795,7.956,4.118,9.149,8.466c0.367,1.332,1.74,2.113,3.073,1.749C209.24,43.045,210.023,41.669,209.658,40.338z"/>
			</g>
		</g>
		<g>
			<g>
				<g>
					<g>
						<path d="M191.415,10.596c-6.101,0-11.064,4.963-11.064,11.063s4.964,11.064,11.064,11.064s11.063-4.964,11.063-11.064
							S197.516,10.596,191.415,10.596z M191.415,27.724c-3.344,0-6.064-2.721-6.064-6.064s2.721-6.063,6.064-6.063
							s6.063,2.72,6.063,6.063S194.759,27.724,191.415,27.724z"/>
					</g>
				</g>
			</g>
		</g>
		<g>
			<g>
				<path d="M248.899,85.84c-1.827-6.069-6.793-10.538-12.959-11.661c-3.172-0.58-6.506-0.579-9.678-0.001
					c-6.316,1.151-11.47,5.947-13.128,12.219c-0.353,1.334,0.443,2.703,1.778,3.056c0.214,0.057,0.429,0.084,0.641,0.084
					c1.106,0,2.118-0.741,2.415-1.862c1.165-4.405,4.772-7.771,9.19-8.577c2.582-0.471,5.303-0.472,7.885,0.001
					c4.31,0.785,7.785,3.921,9.068,8.184c0.397,1.322,1.792,2.072,3.114,1.673C248.549,88.557,249.298,87.162,248.899,85.84z"/>
			</g>
		</g>
		<g>
			<g>
				<g>
					<g>
						<path d="M230.772,56.497c-6.101,0-11.064,4.963-11.064,11.063s4.964,11.064,11.064,11.064s11.063-4.964,11.063-11.064
							S236.873,56.497,230.772,56.497z M230.772,73.625c-3.344,0-6.064-2.721-6.064-6.064s2.721-6.063,6.064-6.063
							s6.063,2.72,6.063,6.063S234.116,73.625,230.772,73.625z"/>
					</g>
				</g>
			</g>
		</g>
		<g>
			<g>
				<path d="M209.642,132.084c-1.74-6.254-6.744-10.854-13.059-12.004c-3.172-0.58-6.506-0.579-9.678-0.001
					c-6.433,1.173-11.612,6.073-13.196,12.485c-0.331,1.34,0.486,2.695,1.827,3.026c0.201,0.05,0.403,0.074,0.602,0.074
					c1.123,0,2.144-0.763,2.425-1.901c1.113-4.505,4.74-7.945,9.239-8.766c2.582-0.471,5.303-0.472,7.885,0.001
					c4.414,0.804,7.916,4.032,9.139,8.425c0.369,1.33,1.749,2.108,3.078,1.738C209.234,134.792,210.012,133.414,209.642,132.084z"/>
			</g>
		</g>
		<g>
			<g>
				<g>
					<g>
						<path d="M191.415,102.398c-6.101,0-11.064,4.963-11.064,11.063s4.964,11.064,11.064,11.064s11.063-4.964,11.063-11.064
							S197.516,102.398,191.415,102.398z M191.415,119.526c-3.344,0-6.064-2.721-6.064-6.064s2.721-6.063,6.064-6.063
							s6.063,2.72,6.063,6.063S194.759,119.526,191.415,119.526z"/>
					</g>
				</g>
			</g>
		</g>
		<g>
			<g>
				<path d="M209.125,170.581h-10.83c-1,0-1.813-0.813-1.813-1.813v-10.643c0-1.381-1.119-2.5-2.5-2.5s-2.5,1.119-2.5,2.5v10.643
					c0,3.757,3.057,6.813,6.813,6.813h10.83c1.381,0,2.5-1.119,2.5-2.5S210.506,170.581,209.125,170.581z"/>
			</g>
		</g>
	</g>
</g>
<g id="Layer_64">
</g>
<g id="Layer_65">
</g>
<g id="Layer_66">
</g>
<g id="Layer_67">
</g>
<g id="Layer_68">
</g>
<g id="Layer_69">
</g>
<g id="Layer_70">
</g>
<g id="Layer_71">
</g>
<g id="Layer_72">
</g>
<g id="Layer_73">
</g>
<g id="Layer_74">
</g>
<g id="Layer_75">
</g>
<g id="Layer_76">
</g>
<g id="Layer_77">
</g>
<g id="Layer_78">
</g>
<g id="Layer_79">
</g>
<g id="Layer_80">
</g>
</svg>
