<?xml version="1.0" encoding="utf-8"?>
<!-- Generator: Adobe Illustrator 24.0.0, SVG Export Plug-In . SVG Version: 6.00 Build 0)  -->
<svg version="1.1" xmlns="http://www.w3.org/2000/svg" xmlns:xlink="http://www.w3.org/1999/xlink" x="0px" y="0px"
	 viewBox="0 0 256 256" enable-background="new 0 0 256 256" xml:space="preserve">
<g id="Layer_1">
</g>
<g id="Layer_2">
</g>
<g id="Layer_3">
</g>
<g id="Layer_4">
</g>
<g id="Layer_5">
</g>
<g id="Layer_6">
</g>
<g id="Layer_7">
</g>
<g id="Layer_8">
</g>
<g id="Layer_9">
</g>
<g id="Layer_10">
</g>
<g id="Layer_11">
</g>
<g id="Layer_12">
</g>
<g id="Layer_13">
</g>
<g id="Layer_14">
</g>
<g id="Layer_15">
</g>
<g id="Layer_16">
</g>
<g id="Layer_17">
</g>
<g id="Layer_18">
</g>
<g id="Layer_19">
</g>
<g id="Layer_20">
</g>
<g id="Layer_21">
</g>
<g id="Layer_22">
</g>
<g id="Layer_23">
</g>
<g id="Layer_24">
</g>
<g id="Layer_25">
</g>
<g id="Layer_26">
</g>
<g id="Layer_27">
</g>
<g id="Layer_28">
</g>
<g id="Layer_29">
</g>
<g id="Layer_30">
</g>
<g id="Layer_31">
</g>
<g id="Layer_32">
</g>
<g id="Layer_33">
</g>
<g id="Layer_34">
</g>
<g id="Layer_35">
</g>
<g id="Layer_36">
</g>
<g id="Layer_37">
</g>
<g id="Layer_38">
</g>
<g id="Layer_39">
</g>
<g id="Layer_40">
</g>
<g id="Layer_41">
</g>
<g id="Layer_42">
</g>
<g id="Layer_43">
</g>
<g id="Layer_44">
</g>
<g id="Layer_45">
</g>
<g id="Layer_46">
</g>
<g id="Layer_47">
</g>
<g id="Layer_48">
</g>
<g id="Layer_49">
</g>
<g id="Layer_50">
</g>
<g id="Layer_51">
</g>
<g id="Layer_52">
</g>
<g id="Layer_53">
</g>
<g id="Layer_54">
	<g>
		<g>
			<g>
				<path fill="#70D6F9" d="M151.861,189.561h-47.721c-2.38,0-4.31,1.93-4.31,4.31v16.973c0,2.381,1.93,4.31,4.31,4.31h47.721
					c2.38,0,4.31-1.93,4.31-4.31v-16.973C156.171,191.491,154.241,189.561,151.861,189.561z"/>
			</g>
		</g>
		<g>
			<g>
				<path fill="#5290DB" d="M128,162.845c-7.825,0-14.228,6.403-14.228,14.228v12.488h28.455v-12.488
					C142.228,169.248,135.825,162.845,128,162.845z"/>
			</g>
		</g>
		<g>
			<g>
				<path fill="#DAE6F1" d="M119.9,225.306v24.003c0,2.314,1.876,4.19,4.19,4.19h7.82c2.314,0,4.19-1.876,4.19-4.19v-24.003H119.9z"
					/>
			</g>
		</g>
		<g>
			<g>
				<path fill="#DAE6F1" d="M112.809,215.155v4.01c0,3.392,2.75,6.142,6.142,6.142h18.097c3.392,0,6.142-2.75,6.142-6.142v-4.01
					H112.809z"/>
			</g>
		</g>
		<g>
			<g>
				<path fill="#FC657E" d="M81.861,189.561H34.139c-2.38,0-4.31,1.93-4.31,4.31v16.973c0,2.381,1.93,4.31,4.31,4.31h47.721
					c2.38,0,4.31-1.93,4.31-4.31v-16.973C86.171,191.491,84.241,189.561,81.861,189.561z"/>
			</g>
		</g>
		<g>
			<g>
				<path fill="#5290DB" d="M58,162.845c-7.825,0-14.228,6.403-14.228,14.228v12.488h28.455v-12.488
					C72.228,169.248,65.825,162.845,58,162.845z"/>
			</g>
		</g>
		<g>
			<g>
				<path fill="#DAE6F1" d="M49.9,225.306v24.003c0,2.314,1.876,4.19,4.19,4.19h7.82c2.314,0,4.19-1.876,4.19-4.19v-24.003H49.9z"/>
			</g>
		</g>
		<g>
			<g>
				<path fill="#DAE6F1" d="M42.809,215.155v4.01c0,3.392,2.75,6.142,6.142,6.142h18.097c3.392,0,6.142-2.75,6.142-6.142v-4.01
					H42.809z"/>
			</g>
		</g>
		<g>
			<g>
				<path fill="#F5C84C" d="M221.861,189.561h-47.721c-2.38,0-4.31,1.93-4.31,4.31v16.973c0,2.381,1.93,4.31,4.31,4.31h47.721
					c2.38,0,4.31-1.93,4.31-4.31v-16.973C226.171,191.491,224.241,189.561,221.861,189.561z"/>
			</g>
		</g>
		<g>
			<g>
				<path fill="#5290DB" d="M198,162.845c-7.825,0-14.228,6.403-14.228,14.228v12.488h28.455v-12.488
					C212.228,169.248,205.825,162.845,198,162.845z"/>
			</g>
		</g>
		<g>
			<g>
				<path fill="#DAE6F1" d="M189.9,225.306v24.003c0,2.314,1.876,4.19,4.19,4.19h7.82c2.314,0,4.19-1.876,4.19-4.19v-24.003H189.9z"
					/>
			</g>
		</g>
		<g>
			<g>
				<path fill="#DAE6F1" d="M182.809,215.155v4.01c0,3.392,2.75,6.142,6.142,6.142h18.097c3.392,0,6.142-2.75,6.142-6.142v-4.01
					H182.809z"/>
			</g>
		</g>
		<g>
			<g>
				<path fill="#70D6F9" d="M167.218,138.24l-12.457-3.135c-6.603-1.662-11.795-4.51-11.727-4.476
					c-2.714-1.338-4.433-4.102-4.433-7.129v-3.744c-3.178,1.663-6.782,2.611-10.6,2.611h0c-3.817,0-7.422-0.948-10.6-2.611v3.744
					c0,3.022-1.714,5.788-4.425,7.125c-3.672,1.811-6.874,3.257-11.736,4.481l-12.457,3.135c-3.853,0.97-6.628,4.333-6.849,8.3h0
					c29.789,10.644,62.344,10.644,92.133,0C173.846,142.572,171.071,139.21,167.218,138.24z"/>
			</g>
		</g>
		<g>
			<g>
				<path fill="#F9D0B4" d="M147.721,71.838c-1.504-1.578-3.951-1.723-5.666-0.377c-2.712,2.128-7.403,4.759-14.03,4.759
					c-6.643,0-11.36-2.644-14.083-4.775c-1.714-1.341-4.155-1.19-5.656,0.384l-0.008,0.008c-2.11,2.213-3.287,5.153-3.287,8.21
					v19.31c0,12.655,10.354,23.008,23.008,23.008c12.655,0,23.008-10.354,23.008-23.008v-19.31
					C151.008,76.99,149.831,74.05,147.721,71.838z"/>
			</g>
		</g>
		<g>
			<g>
				<path fill="#F9D0B4" d="M152.485,81.822c-0.503,0-0.995,0.042-1.477,0.117v17.418c0,0.519-0.024,1.032-0.058,1.543
					c0.501,0.081,1.011,0.134,1.534,0.134c5.305,0,9.606-4.301,9.606-9.606C162.091,86.123,157.79,81.822,152.485,81.822z"/>
			</g>
		</g>
		<g>
			<g>
				<path fill="#F9D0B4" d="M104.992,99.357V81.939c-0.482-0.075-0.974-0.117-1.477-0.117c-5.305,0-9.606,4.301-9.606,9.606
					c0,5.305,4.301,9.606,9.606,9.606c0.524,0,1.034-0.053,1.534-0.134v0C105.015,100.389,104.992,99.876,104.992,99.357z"/>
			</g>
		</g>
		<g>
			<g>
				<path fill="#5B5D60" d="M150.922,62.195c-0.771,0-1.438-0.594-1.449-1.365c-0.176-12.821-14.817-15.229-29.397-12.711
					C107.714,50.254,98.68,60.973,98.68,73.518v9.619c1.421-0.831,3.07-1.315,4.836-1.315c0.503,0,0.995,0.042,1.477,0.117v-1.892
					c0-3.057,1.177-5.997,3.287-8.21l0.008-0.008c1.502-1.574,3.943-1.725,5.656-0.384c2.723,2.131,7.44,4.775,14.083,4.775
					c6.627,0,11.319-2.631,14.03-4.759c1.715-1.346,4.161-1.201,5.666,0.377c2.11,2.213,3.287,5.153,3.287,8.21v1.892
					c0.482-0.075,0.974-0.117,1.477-0.117c1.787,0,3.453,0.497,4.886,1.346V75.27C157.371,63.79,153.226,62.195,150.922,62.195z"/>
			</g>
		</g>
		<g>
			<g>
				<path fill="#70D6F9" d="M239.791,2.5h-54.346c-7.54,0-13.709,6.169-13.709,13.709v39.077c0,7.54,6.169,13.709,13.709,13.709
					h3.286c2.417,0,4.375,1.959,4.375,4.375v4.616c0,2.143,2.565,3.206,4.114,1.724c2.15-2.057,3.87-4.302,5.244-6.544
					c1.569-2.559,4.303-4.172,7.304-4.172h30.023c7.54,0,13.709-6.169,13.709-13.709V16.209C253.5,8.669,247.331,2.5,239.791,2.5z"
					/>
			</g>
		</g>
		<g>
			<g>
				<path fill="#70D6F9" d="M70.556,2.5H16.209C8.669,2.5,2.5,8.669,2.5,16.209v39.077c0,7.54,6.169,13.709,13.709,13.709h30.023
					c3.002,0,5.736,1.613,7.304,4.172c1.374,2.242,3.094,4.487,5.244,6.544c1.549,1.481,4.114,0.419,4.114-1.724v-4.616
					c0-2.417,1.959-4.375,4.376-4.375h3.286c7.54,0,13.709-6.169,13.709-13.709V16.209C84.265,8.669,78.096,2.5,70.556,2.5z"/>
			</g>
		</g>
		<g>
			<g>
				<path fill="#DAE6F1" d="M192.036,30.143c-2.959,0-5.357,2.398-5.357,5.357s2.398,5.357,5.357,5.357
					c2.959,0,5.357-2.398,5.357-5.357S194.994,30.143,192.036,30.143z"/>
			</g>
		</g>
		<g>
			<g>
				<circle fill="#DAE6F1" cx="213" cy="35.5" r="5.357"/>
			</g>
		</g>
		<g>
			<g>
				<path fill="#DAE6F1" d="M233.964,30.143c-2.959,0-5.357,2.398-5.357,5.357s2.398,5.357,5.357,5.357
					c2.959,0,5.357-2.398,5.357-5.357S236.923,30.143,233.964,30.143z"/>
			</g>
		</g>
		<g>
			<g>
				
					<ellipse transform="matrix(0.3827 -0.9239 0.9239 0.3827 6.6885 81.0101)" fill="#DAE6F1" cx="63.964" cy="35.5" rx="5.357" ry="5.357"/>
			</g>
		</g>
		<g>
			<g>
				<circle fill="#DAE6F1" cx="43" cy="35.5" r="5.357"/>
			</g>
		</g>
		<g>
			<g>
				
					<ellipse transform="matrix(0.9871 -0.1602 0.1602 0.9871 -5.4019 3.9881)" fill="#DAE6F1" cx="22.036" cy="35.5" rx="5.357" ry="5.357"/>
			</g>
		</g>
		<g>
			<g>
				<path fill="#9BE5F9" d="M143.033,130.628c-0.544-0.268-1.034-0.607-1.492-0.98l-9.232,10.569
					c-0.724,0.829-0.639,2.088,0.19,2.812l6.008,5.248c0.829,0.724,2.088,0.639,2.812-0.19l11.745-13.447
					C147.293,132.963,142.972,130.598,143.033,130.628z"/>
			</g>
		</g>
		<g>
			<g>
				<path fill="#9BE5F9" d="M123.69,140.218l-9.232-10.569c-0.458,0.373-0.949,0.712-1.492,0.98
					c-3.222,1.588-6.085,2.896-10.025,4.019l11.739,13.44c0.724,0.829,1.983,0.914,2.812,0.19l6.008-5.248
					C124.329,142.306,124.414,141.047,123.69,140.218z"/>
			</g>
		</g>
		<g>
			<g>
				<path fill="#F9D0B4" d="M138.6,123.499v-3.745c-3.178,1.663-6.783,2.611-10.6,2.611h0c-3.817,0-7.422-0.947-10.6-2.611v3.745
					c0,2.42-1.112,4.659-2.941,6.149l9.232,10.569c0.275,0.315,0.432,0.693,0.477,1.079h7.665c0.045-0.386,0.202-0.764,0.477-1.079
					l9.232-10.569C139.712,128.159,138.6,125.92,138.6,123.499z"/>
			</g>
		</g>
		<g>
			<g>
				<path fill="#87D147" d="M115.737,19.175c-3.1-0.6-5.6-3-6.2-6.1c0-0.1-0.3-0.1-0.3,0c-0.6,3.1-3.1,5.5-6.2,6.1
					c-0.1,0-0.1,0.2,0,0.3c3.1,0.6,5.6,3,6.2,6.1c0,0.1,0.3,0.1,0.3,0c0.6-3.1,3.1-5.5,6.2-6.1
					C115.837,19.375,115.837,19.175,115.737,19.175z"/>
			</g>
		</g>
		<g>
			<g>
				<path fill="#F5C84C" d="M37.369,129c-1.878,0-3.4,1.522-3.4,3.4c0,1.878,1.522,3.4,3.4,3.4c1.878,0,3.4-1.522,3.4-3.4
					C40.769,130.522,39.246,129,37.369,129z"/>
			</g>
		</g>
		<g>
			<g>
				<path fill="#FC657E" d="M194.369,136.2c-1.878,0-3.4,1.522-3.4,3.4c0,1.878,1.522,3.4,3.4,3.4s3.4-1.522,3.4-3.4
					C197.769,137.722,196.246,136.2,194.369,136.2z"/>
			</g>
		</g>
		<g>
			<g>
				<path fill="#70D6F9" d="M27.249,158.1h-2.4v-2.3c0-1.8-1.4-3.2-3.2-3.2c-1.7,0-3.2,1.4-3.2,3.1v2.4h-2.3c-1.8,0-3.2,1.4-3.2,3.2
					c-0.1,1.7,1.3,3.2,3.2,3.2h2.3v2.3c0,1.8,1.4,3.2,3.2,3.2c1.7,0,3.2-1.4,3.2-3.1v-2.4h2.3c1.8,0,3.2-1.4,3.2-3.2
					C30.349,159.6,28.949,158.1,27.249,158.1z"/>
			</g>
		</g>
		<g>
			<g>
				<path fill="#F5C84C" d="M216.906,113.2c-4.5-0.8-8-4.3-8.9-8.7c0-0.2-0.4-0.2-0.4,0c-0.9,4.4-4.4,7.9-8.9,8.7
					c-0.2,0-0.2,0.3,0,0.4c4.5,0.8,8,4.3,8.9,8.7c0,0.2,0.4,0.2,0.4,0c0.9-4.4,4.4-7.9,8.9-8.7
					C217.106,113.5,217.106,113.2,216.906,113.2z"/>
			</g>
		</g>
		<g>
			<g>
				<g>
					<g>
						<path d="M151.86,187.061H104.14c-3.755,0-6.811,3.056-6.811,6.811v16.973c0,3.755,3.056,6.811,6.811,6.811h47.721
							c3.755,0,6.811-3.056,6.811-6.811v-16.973C158.671,190.116,155.615,187.061,151.86,187.061z M153.671,210.844
							c0,0.998-0.813,1.811-1.811,1.811H104.14c-0.998,0-1.811-0.813-1.811-1.811v-16.973c0-0.998,0.813-1.811,1.811-1.811h47.721
							c0.998,0,1.811,0.813,1.811,1.811V210.844z"/>
					</g>
				</g>
			</g>
		</g>
		<g>
			<g>
				<path d="M128,160.346c-9.224,0-16.728,7.504-16.728,16.728v11.052c0,1.381,1.119,2.5,2.5,2.5s2.5-1.119,2.5-2.5v-11.052
					c0-6.467,5.261-11.728,11.728-11.728s11.728,5.261,11.728,11.728v11.239c0,1.381,1.119,2.5,2.5,2.5s2.5-1.119,2.5-2.5v-11.239
					C144.728,167.85,137.224,160.346,128,160.346z"/>
			</g>
		</g>
		<g>
			<g>
				<path d="M142.5,200h-29c-1.381,0-2.5,1.119-2.5,2.5s1.119,2.5,2.5,2.5h29c1.381,0,2.5-1.119,2.5-2.5S143.881,200,142.5,200z"/>
			</g>
		</g>
		<g>
			<g>
				<path d="M136.1,224c-1.381,0-2.5,1.119-2.5,2.5v22.81c0,0.932-0.758,1.69-1.689,1.69h-7.82c-0.932,0-1.689-0.759-1.689-1.69
					v-22.746c0-1.381-1.119-2.5-2.5-2.5s-2.5,1.119-2.5,2.5v22.746c0,3.689,3.001,6.69,6.689,6.69h7.82
					c3.688,0,6.689-3.001,6.689-6.69V226.5C138.6,225.119,137.48,224,136.1,224z"/>
			</g>
		</g>
		<g>
			<g>
				<path d="M143.191,213.688c-1.381,0-2.5,1.119-2.5,2.5v2.976c0,2.009-1.634,3.643-3.643,3.643h-18.098
					c-2.009,0-3.643-1.634-3.643-3.643v-2.852c0-1.381-1.119-2.5-2.5-2.5s-2.5,1.119-2.5,2.5v2.852c0,4.766,3.877,8.643,8.643,8.643
					h18.098c4.766,0,8.643-3.877,8.643-8.643v-2.976C145.691,214.808,144.572,213.688,143.191,213.688z"/>
			</g>
		</g>
		<g>
			<g>
				<g>
					<g>
						<path d="M81.86,187.061H34.14c-3.755,0-6.811,3.056-6.811,6.811v16.973c0,3.755,3.056,6.811,6.811,6.811H81.86
							c3.755,0,6.811-3.056,6.811-6.811v-16.973C88.671,190.116,85.615,187.061,81.86,187.061z M83.671,210.844
							c0,0.998-0.813,1.811-1.811,1.811H34.14c-0.998,0-1.811-0.813-1.811-1.811v-16.973c0-0.998,0.813-1.811,1.811-1.811H81.86
							c0.998,0,1.811,0.813,1.811,1.811V210.844z"/>
					</g>
				</g>
			</g>
		</g>
		<g>
			<g>
				<path d="M58,160.346c-9.224,0-16.728,7.504-16.728,16.728v11.239c0,1.381,1.119,2.5,2.5,2.5s2.5-1.119,2.5-2.5v-11.239
					c0-6.467,5.261-11.728,11.728-11.728s11.728,5.261,11.728,11.728v11.302c0,1.381,1.119,2.5,2.5,2.5s2.5-1.119,2.5-2.5v-11.302
					C74.728,167.85,67.224,160.346,58,160.346z"/>
			</g>
		</g>
		<g>
			<g>
				<path d="M72.5,200h-29c-1.381,0-2.5,1.119-2.5,2.5s1.119,2.5,2.5,2.5h29c1.381,0,2.5-1.119,2.5-2.5S73.881,200,72.5,200z"/>
			</g>
		</g>
		<g>
			<g>
				<path d="M66.1,224.063c-1.381,0-2.5,1.119-2.5,2.5v22.746c0,0.932-0.758,1.69-1.689,1.69h-7.82c-0.932,0-1.689-0.759-1.689-1.69
					v-22.746c0-1.381-1.119-2.5-2.5-2.5s-2.5,1.119-2.5,2.5v22.746c0,3.689,3.001,6.69,6.689,6.69h7.82
					c3.688,0,6.689-3.001,6.689-6.69v-22.746C68.6,225.183,67.48,224.063,66.1,224.063z"/>
			</g>
		</g>
		<g>
			<g>
				<path d="M73.191,214.25c-1.381,0-2.5,1.119-2.5,2.5v2.414c0,2.009-1.634,3.643-3.643,3.643H48.951
					c-2.009,0-3.643-1.634-3.643-3.643v-2.622c0-1.381-1.119-2.5-2.5-2.5s-2.5,1.119-2.5,2.5v2.622c0,4.766,3.877,8.643,8.643,8.643
					h18.098c4.766,0,8.643-3.877,8.643-8.643v-2.414C75.691,215.369,74.572,214.25,73.191,214.25z"/>
			</g>
		</g>
		<g>
			<g>
				<g>
					<g>
						<path d="M221.86,187.061H174.14c-3.755,0-6.811,3.056-6.811,6.811v16.973c0,3.755,3.056,6.811,6.811,6.811h47.721
							c3.755,0,6.811-3.056,6.811-6.811v-16.973C228.671,190.116,225.615,187.061,221.86,187.061z M223.671,210.844
							c0,0.998-0.813,1.811-1.811,1.811H174.14c-0.998,0-1.811-0.813-1.811-1.811v-16.973c0-0.998,0.813-1.811,1.811-1.811h47.721
							c0.998,0,1.811,0.813,1.811,1.811V210.844z"/>
					</g>
				</g>
			</g>
		</g>
		<g>
			<g>
				<path d="M198,160.346c-9.224,0-16.728,7.504-16.728,16.728v11.094c0,1.381,1.119,2.5,2.5,2.5s2.5-1.119,2.5-2.5v-11.094
					c0-6.467,5.261-11.728,11.728-11.728s11.728,5.261,11.728,11.728v11.094c0,1.381,1.119,2.5,2.5,2.5s2.5-1.119,2.5-2.5v-11.094
					C214.728,167.85,207.224,160.346,198,160.346z"/>
			</g>
		</g>
		<g>
			<g>
				<path d="M212.5,200h-29c-1.381,0-2.5,1.119-2.5,2.5s1.119,2.5,2.5,2.5h29c1.381,0,2.5-1.119,2.5-2.5S213.881,200,212.5,200z"/>
			</g>
		</g>
		<g>
			<g>
				<path d="M206.1,224.333c-1.381,0-2.5,1.119-2.5,2.5v22.477c0,0.932-0.758,1.69-1.689,1.69h-7.82
					c-0.932,0-1.689-0.759-1.689-1.69v-22.393c0-1.381-1.119-2.5-2.5-2.5s-2.5,1.119-2.5,2.5v22.393c0,3.689,3.001,6.69,6.689,6.69
					h7.82c3.688,0,6.689-3.001,6.689-6.69v-22.477C208.6,225.452,207.48,224.333,206.1,224.333z"/>
			</g>
		</g>
		<g>
			<g>
				<path d="M213.191,213.917c-1.381,0-2.5,1.119-2.5,2.5v2.747c0,2.009-1.634,3.643-3.643,3.643h-18.098
					c-2.009,0-3.643-1.634-3.643-3.643v-2.747c0-1.381-1.119-2.5-2.5-2.5s-2.5,1.119-2.5,2.5v2.747c0,4.766,3.877,8.643,8.643,8.643
					h18.098c4.766,0,8.643-3.877,8.643-8.643v-2.747C215.691,215.036,214.572,213.917,213.191,213.917z"/>
			</g>
		</g>
		<g>
			<g>
				<path d="M117.4,118.125c-1.381,0-2.5,1.119-2.5,2.5v2.874c0,2.091-1.164,3.963-3.039,4.887
					c-3.326,1.64-6.467,3.095-11.232,4.294l-12.457,3.136c-4.941,1.244-8.451,5.499-8.734,10.586
					c-0.077,1.378,0.979,2.559,2.357,2.635c0.047,0.003,0.094,0.004,0.141,0.004c1.317,0,2.42-1.03,2.494-2.361
					c0.161-2.891,2.155-5.308,4.963-6.015l12.457-3.135c5.241-1.319,8.637-2.891,12.223-4.659c3.595-1.771,5.828-5.362,5.828-9.371
					v-2.874C119.9,119.244,118.781,118.125,117.4,118.125z"/>
			</g>
		</g>
		<g>
			<g>
				<path d="M167.828,135.814l-12.457-3.135c-6.013-1.513-10.85-4.089-11.107-4.228c-0.041-0.023-0.083-0.046-0.125-0.066
					c-1.875-0.924-3.039-2.796-3.039-4.887v-2.874c0-1.381-1.119-2.5-2.5-2.5s-2.5,1.119-2.5,2.5v2.874
					c0,3.964,2.184,7.52,5.708,9.312c0.693,0.434,1.806,0.941,3.638,1.732c2.011,0.869,5.152,2.092,8.705,2.986l12.457,3.134
					c2.808,0.708,4.802,3.125,4.963,6.016c0.074,1.332,1.177,2.361,2.494,2.361c0.047,0,0.094-0.001,0.141-0.004
					c1.379-0.076,2.435-1.257,2.357-2.635C176.279,141.314,172.77,137.06,167.828,135.814z"/>
			</g>
		</g>
		<g>
			<g>
				<g>
					<g>
						<path d="M149.531,70.112c-2.396-2.511-6.273-2.775-9.019-0.618c-2.457,1.928-6.617,4.226-12.487,4.226
							c-5.884,0-10.068-2.308-12.542-4.243c-2.743-2.146-6.615-1.879-9.015,0.636c-2.564,2.69-3.978,6.219-3.978,9.936v19.31
							c0,14.065,11.443,25.508,25.509,25.508s25.509-11.442,25.509-25.508v-19.31C153.509,76.331,152.096,72.803,149.531,70.112z
							 M148.509,99.357c0,11.308-9.2,20.508-20.509,20.508s-20.509-9.2-20.509-20.508v-19.31c0-2.426,0.922-4.729,2.604-6.493
							c0.329-0.345,0.771-0.52,1.22-0.52c0.379,0,0.763,0.125,1.088,0.379c3.093,2.421,8.314,5.306,15.623,5.306
							c7.298,0,12.497-2.878,15.574-5.293c0.713-0.559,1.706-0.501,2.313,0.137c1.675,1.756,2.597,4.059,2.597,6.484V99.357z"/>
					</g>
				</g>
			</g>
		</g>
		<g>
			<g>
				<path d="M152.484,79.322c-1.381,0-2.5,1.119-2.5,2.5s1.119,2.5,2.5,2.5c3.919,0,7.106,3.188,7.106,7.105
					c0,3.919-3.188,7.106-7.106,7.106c-1.381,0-2.5,1.119-2.5,2.5s1.119,2.5,2.5,2.5c6.676,0,12.106-5.431,12.106-12.106
					C164.591,84.753,159.16,79.322,152.484,79.322z"/>
			</g>
		</g>
		<g>
			<g>
				<path d="M103.516,98.534c-3.919,0-7.106-3.188-7.106-7.106c0-3.918,3.188-7.105,7.106-7.105l0.25,0.004
					c1.389,0.054,2.529-1.05,2.567-2.431c0.038-1.38-1.05-2.529-2.431-2.567c-0.129-0.004-0.257-0.006-0.387-0.006
					c-6.676,0-12.106,5.431-12.106,12.105c0,6.676,5.431,12.106,12.106,12.106c1.381,0,2.5-1.119,2.5-2.5
					S104.896,98.534,103.516,98.534z"/>
			</g>
		</g>
		<g>
			<g>
				<path d="M151.931,59.759c-0.289-4.217-1.996-7.649-5.083-10.212c-7.448-6.188-20.237-5.094-27.197-3.892
					c-13.6,2.349-23.471,14.066-23.471,27.862v9.274c0,1.381,1.119,2.5,2.5,2.5s2.5-1.119,2.5-2.5v-9.274
					c0-11.355,8.126-21.001,19.322-22.935c10.398-1.797,18.838-0.771,23.151,2.811c2.19,1.818,3.276,4.263,3.32,7.473
					c0.029,2.111,1.801,3.829,3.949,3.829c2.473,0,3.948,3.953,3.948,10.575v7.386c0,1.381,1.119,2.5,2.5,2.5s2.5-1.119,2.5-2.5
					v-7.386C159.871,63.008,155.28,60.185,151.931,59.759z"/>
			</g>
		</g>
		<g>
			<g>
				<g>
					<g>
						<path d="M239.791,0h-54.347c-8.938,0-16.209,7.271-16.209,16.209v39.077c0,8.938,7.271,16.21,16.209,16.21h3.285
							c1.034,0,1.876,0.841,1.876,1.875v4.616c0,1.999,1.14,3.729,2.975,4.513c0.626,0.268,1.285,0.397,1.94,0.397
							c1.251,0,2.483-0.477,3.428-1.379c2.131-2.04,4.031-4.409,5.646-7.044c1.145-1.865,3.078-2.979,5.174-2.979h30.023
							c8.938,0,16.209-7.271,16.209-16.21V16.209C256,7.271,248.729,0,239.791,0z M251,55.286c0,6.182-5.028,11.21-11.209,11.21
							h-30.023c-3.848,0-7.375,2.006-9.436,5.365c-1.375,2.242-2.982,4.255-4.727,5.98v-4.471c0-3.791-3.085-6.875-6.876-6.875
							h-3.285c-6.181,0-11.209-5.028-11.209-11.21V16.209c0-6.181,5.028-11.209,11.209-11.209h54.347
							C245.972,5,251,10.028,251,16.209V55.286z"/>
					</g>
				</g>
			</g>
		</g>
		<g>
			<g>
				<g>
					<g>
						<path d="M70.556,0H16.209C7.271,0,0,7.271,0,16.209v39.077c0,8.938,7.271,16.21,16.209,16.21h30.023
							c2.096,0,4.029,1.113,5.174,2.979c1.614,2.635,3.515,5.004,5.646,7.044c0.944,0.903,2.177,1.379,3.428,1.379
							c0.654,0,1.314-0.13,1.94-0.397c1.835-0.784,2.975-2.514,2.975-4.513v-4.616c0-1.034,0.842-1.875,1.876-1.875h3.285
							c8.938,0,16.209-7.271,16.209-16.21V16.209C86.765,7.271,79.493,0,70.556,0z M81.765,55.286c0,6.182-5.028,11.21-11.209,11.21
							h-3.285c-3.791,0-6.876,3.084-6.876,6.875v4.424c-1.775-1.718-3.365-3.713-4.727-5.934c-2.061-3.359-5.588-5.365-9.436-5.365
							H16.209C10.028,66.496,5,61.468,5,55.286V16.209C5,10.028,10.028,5,16.209,5h54.347c6.181,0,11.209,5.028,11.209,11.209
							V55.286z"/>
					</g>
				</g>
			</g>
		</g>
		<g>
			<g>
				<g>
					<g>
						<path d="M192.036,27.643c-4.333,0-7.857,3.524-7.857,7.857s3.524,7.857,7.857,7.857c4.332,0,7.856-3.524,7.856-7.857
							S196.368,27.643,192.036,27.643z M192.036,38.357c-1.575,0-2.857-1.282-2.857-2.857s1.282-2.857,2.857-2.857
							s2.856,1.282,2.856,2.857S193.611,38.357,192.036,38.357z"/>
					</g>
				</g>
			</g>
		</g>
		<g>
			<g>
				<g>
					<g>
						<path d="M213,27.643c-4.333,0-7.857,3.524-7.857,7.857s3.524,7.857,7.857,7.857s7.857-3.524,7.857-7.857
							S217.333,27.643,213,27.643z M213,38.357c-1.575,0-2.857-1.282-2.857-2.857s1.282-2.857,2.857-2.857s2.857,1.282,2.857,2.857
							S214.575,38.357,213,38.357z"/>
					</g>
				</g>
			</g>
		</g>
		<g>
			<g>
				<g>
					<g>
						<path d="M233.964,27.643c-4.332,0-7.856,3.524-7.856,7.857s3.524,7.857,7.856,7.857c4.333,0,7.857-3.524,7.857-7.857
							S238.297,27.643,233.964,27.643z M233.964,38.357c-1.575,0-2.856-1.282-2.856-2.857s1.281-2.857,2.856-2.857
							s2.857,1.282,2.857,2.857S235.539,38.357,233.964,38.357z"/>
					</g>
				</g>
			</g>
		</g>
		<g>
			<g>
				<g>
					<g>
						<path d="M63.964,27.643c-4.332,0-7.856,3.524-7.856,7.857s3.524,7.857,7.856,7.857c4.333,0,7.857-3.524,7.857-7.857
							S68.297,27.643,63.964,27.643z M63.964,38.357c-1.575,0-2.856-1.282-2.856-2.857s1.281-2.857,2.856-2.857
							s2.857,1.282,2.857,2.857S65.539,38.357,63.964,38.357z"/>
					</g>
				</g>
			</g>
		</g>
		<g>
			<g>
				<g>
					<g>
						<path d="M43,27.643c-4.333,0-7.857,3.524-7.857,7.857s3.524,7.857,7.857,7.857s7.857-3.524,7.857-7.857
							S47.333,27.643,43,27.643z M43,38.357c-1.575,0-2.857-1.282-2.857-2.857s1.282-2.857,2.857-2.857s2.857,1.282,2.857,2.857
							S44.575,38.357,43,38.357z"/>
					</g>
				</g>
			</g>
		</g>
		<g>
			<g>
				<g>
					<g>
						<path d="M22.036,27.643c-4.333,0-7.857,3.524-7.857,7.857s3.524,7.857,7.857,7.857c4.332,0,7.856-3.524,7.856-7.857
							S26.368,27.643,22.036,27.643z M22.036,38.357c-1.575,0-2.857-1.282-2.857-2.857s1.282-2.857,2.857-2.857
							s2.856,1.282,2.856,2.857S23.611,38.357,22.036,38.357z"/>
					</g>
				</g>
			</g>
		</g>
		<g>
			<g>
				<path d="M154.072,133.487c-1.039-0.909-2.619-0.803-3.527,0.238l-10.775,12.336l-5.243-4.581l8.368-9.581
					c0.908-1.04,0.802-2.619-0.238-3.527c-1.039-0.908-2.619-0.802-3.527,0.238l-8.703,9.964c-1.628,1.865-1.436,4.709,0.43,6.339
					l6.009,5.249c0.85,0.742,1.903,1.106,2.952,1.105c1.253,0,2.499-0.52,3.386-1.535l11.108-12.718
					C155.219,135.975,155.112,134.396,154.072,133.487z"/>
			</g>
		</g>
		<g>
			<g>
				<path d="M125.573,138.573l-8.702-9.963c-0.909-1.041-2.489-1.146-3.527-0.238c-1.04,0.908-1.146,2.487-0.238,3.527l8.368,9.581
					l-5.243,4.581l-10.698-12.248c-0.907-1.04-2.488-1.146-3.527-0.238c-1.04,0.908-1.146,2.487-0.238,3.527l11.03,12.629
					c0.789,0.904,1.884,1.447,3.081,1.528c0.104,0.007,0.207,0.011,0.31,0.011c1.086,0,2.123-0.388,2.949-1.109l6.009-5.248
					C127.01,143.283,127.202,140.439,125.573,138.573z"/>
			</g>
		</g>
		<g>
			<g>
				<path d="M130.938,138.797h-5.718c-1.381,0-2.5,1.119-2.5,2.5s1.119,2.5,2.5,2.5h5.718c1.381,0,2.5-1.119,2.5-2.5
					S132.318,138.797,130.938,138.797z"/>
			</g>
		</g>
	</g>
</g>
<g id="Layer_55">
</g>
<g id="Layer_56">
</g>
<g id="Layer_57">
</g>
<g id="Layer_58">
</g>
<g id="Layer_59">
</g>
<g id="Layer_60">
</g>
<g id="Layer_61">
</g>
<g id="Layer_62">
</g>
<g id="Layer_63">
</g>
<g id="Layer_64">
</g>
<g id="Layer_65">
</g>
<g id="Layer_66">
</g>
<g id="Layer_67">
</g>
<g id="Layer_68">
</g>
<g id="Layer_69">
</g>
<g id="Layer_70">
</g>
<g id="Layer_71">
</g>
<g id="Layer_72">
</g>
<g id="Layer_73">
</g>
<g id="Layer_74">
</g>
<g id="Layer_75">
</g>
<g id="Layer_76">
</g>
<g id="Layer_77">
</g>
<g id="Layer_78">
</g>
<g id="Layer_79">
</g>
<g id="Layer_80">
</g>
</svg>
