<?xml version="1.0" encoding="utf-8"?>
<!-- Generator: Adobe Illustrator 24.0.0, SVG Export Plug-In . SVG Version: 6.00 Build 0)  -->
<svg version="1.1" xmlns="http://www.w3.org/2000/svg" xmlns:xlink="http://www.w3.org/1999/xlink" x="0px" y="0px"
	 viewBox="0 0 256 256" enable-background="new 0 0 256 256" xml:space="preserve">
<g id="Layer_1">
</g>
<g id="Layer_2">
</g>
<g id="Layer_3">
</g>
<g id="Layer_4">
</g>
<g id="Layer_5">
</g>
<g id="Layer_6">
</g>
<g id="Layer_7">
</g>
<g id="Layer_8">
</g>
<g id="Layer_9">
</g>
<g id="Layer_10">
</g>
<g id="Layer_11">
</g>
<g id="Layer_12">
</g>
<g id="Layer_13">
</g>
<g id="Layer_14">
</g>
<g id="Layer_15">
</g>
<g id="Layer_16">
</g>
<g id="Layer_17">
</g>
<g id="Layer_18">
</g>
<g id="Layer_19">
</g>
<g id="Layer_20">
</g>
<g id="Layer_21">
</g>
<g id="Layer_22">
</g>
<g id="Layer_23">
</g>
<g id="Layer_24">
</g>
<g id="Layer_25">
</g>
<g id="Layer_26">
</g>
<g id="Layer_27">
</g>
<g id="Layer_28">
</g>
<g id="Layer_29">
</g>
<g id="Layer_30">
</g>
<g id="Layer_31">
</g>
<g id="Layer_32">
</g>
<g id="Layer_33">
</g>
<g id="Layer_34">
</g>
<g id="Layer_35">
</g>
<g id="Layer_36">
</g>
<g id="Layer_37">
</g>
<g id="Layer_38">
</g>
<g id="Layer_39">
</g>
<g id="Layer_40">
</g>
<g id="Layer_41">
</g>
<g id="Layer_42">
</g>
<g id="Layer_43">
</g>
<g id="Layer_44">
</g>
<g id="Layer_45">
</g>
<g id="Layer_46">
</g>
<g id="Layer_47">
</g>
<g id="Layer_48">
</g>
<g id="Layer_49">
</g>
<g id="Layer_50">
</g>
<g id="Layer_51">
</g>
<g id="Layer_52">
</g>
<g id="Layer_53">
</g>
<g id="Layer_54">
</g>
<g id="Layer_55">
</g>
<g id="Layer_56">
</g>
<g id="Layer_57">
</g>
<g id="Layer_58">
</g>
<g id="Layer_59">
</g>
<g id="Layer_60">
</g>
<g id="Layer_61">
</g>
<g id="Layer_62">
</g>
<g id="Layer_63">
</g>
<g id="Layer_64">
</g>
<g id="Layer_65">
</g>
<g id="Layer_66">
</g>
<g id="Layer_67">
</g>
<g id="Layer_68">
</g>
<g id="Layer_69">
</g>
<g id="Layer_70">
</g>
<g id="Layer_71">
</g>
<g id="Layer_72">
</g>
<g id="Layer_73">
</g>
<g id="Layer_74">
</g>
<g id="Layer_75">
</g>
<g id="Layer_76">
	<g>
		<g>
			<g>
				<path fill="#70D6F9" d="M197.5,37.275h-87c-6.6,0-12,5.4-12,12v145c0,6.6,5.4,12,12,12h87c6.6,0,12-5.4,12-12v-145
					C209.5,42.675,204.1,37.275,197.5,37.275z"/>
			</g>
		</g>
		<g>
			<g>
				<path fill="#F5C84C" d="M128.5,206.275v10.616c0,1.593,1.291,2.884,2.884,2.884h8.232c1.593,0,2.884-1.291,2.884-2.884v-10.616
					H128.5z"/>
			</g>
		</g>
		<g>
			<g>
				<path fill="#5290DB" d="M240.609,57.775h-14.218c-1.597,0-2.891,1.294-2.891,2.891v114.109h20V60.666
					C243.5,59.069,242.206,57.775,240.609,57.775z"/>
			</g>
		</g>
		<g>
			<g>
				<path fill="#DAE6F1" d="M223.5,174.775l7.077,24.771c0.84,2.939,5.005,2.939,5.845,0l7.077-24.771H223.5z"/>
			</g>
		</g>
		<g>
			<g>
				<path fill="#DAE6F1" d="M235.957,40.775h-4.915c-2.112,0-3.824,1.712-3.824,3.824v13.176h12.563V44.599
					C239.781,42.487,238.069,40.775,235.957,40.775z"/>
			</g>
		</g>
		<g>
			<g>
				<path fill="#70D6F9" d="M240.609,57.775h-14.218c-1.597,0-2.891,1.294-2.891,2.891v16.109h20V60.666
					C243.5,59.069,242.206,57.775,240.609,57.775z"/>
			</g>
		</g>
		<g>
			<g>
				<path fill="#3CAADC" d="M110.5,37.275c-6.6,0-12,5.4-12,12v145c0,6.6,5.4,12,12,12h8v-169H110.5z"/>
			</g>
		</g>
		<g>
			<g>
				<path fill="#DAE6F1" d="M192.026,56.275h-56.052c-2.264,0-4.099,1.835-4.099,4.099v24.802c0,2.264,1.835,4.099,4.099,4.099
					h56.052c2.264,0,4.099-1.835,4.099-4.099V60.374C196.125,58.11,194.29,56.275,192.026,56.275z"/>
			</g>
		</g>
		<g>
			<g>
				<path fill="#5290DB" d="M227.214,187.775l3.363,11.771c0.84,2.939,5.005,2.939,5.845,0l3.363-11.771H227.214z"/>
			</g>
		</g>
		<g>
			<g>
				<path fill="#FC657E" d="M70.44,63.025H11.56c-4.983,0-9.06,4.077-9.06,9.06v112.88c0,4.983,4.077,9.06,9.06,9.06h58.88
					c4.983,0,9.06-4.077,9.06-9.06V72.085C79.5,67.102,75.423,63.025,70.44,63.025z"/>
			</g>
		</g>
		<g>
			<g>
				<path fill="#DAE6F1" d="M2.5,154.712v30.252c0,4.983,4.077,9.06,9.06,9.06h58.88c4.983,0,9.06-4.077,9.06-9.06v-30.252H2.5z"/>
			</g>
		</g>
		<g>
			<g>
				<path fill="#DAE6F1" d="M70.44,63.025H67.5v70.07c0,1.825,1.479,3.305,3.305,3.305H79.5V72.085
					C79.5,67.102,75.423,63.025,70.44,63.025z"/>
			</g>
		</g>
		<g>
			<g>
				<path fill="#5290DB" d="M35.572,102.837c-7.732,0-14-6.268-14-14v40c0-7.732,6.268-14,14-14s14,6.268,14,14v-40
					C49.572,96.569,43.304,102.837,35.572,102.837z"/>
			</g>
		</g>
		<g>
			<g>
				<circle fill="#6CADEF" cx="35.572" cy="88.837" r="14"/>
			</g>
		</g>
		<g>
			<g>
				<circle fill="#6CADEF" cx="35.572" cy="128.837" r="14"/>
			</g>
		</g>
		<g>
			<g>
				<circle fill="#DAE6F1" cx="35.572" cy="88.837" r="5"/>
			</g>
		</g>
		<g>
			<g>
				<circle fill="#DAE6F1" cx="35.572" cy="128.837" r="5"/>
			</g>
		</g>
		<g>
			<g>
				<path fill="#70D6F9" d="M192.906,226h-2.4v-2.3c0-1.8-1.4-3.2-3.2-3.2c-1.7,0-3.2,1.4-3.2,3.1v2.4h-2.3c-1.8,0-3.2,1.4-3.2,3.2
					c-0.1,1.7,1.3,3.2,3.2,3.2h2.3v2.3c0,1.8,1.4,3.2,3.2,3.2c1.7,0,3.2-1.4,3.2-3.1v-2.4h2.3c1.8,0,3.2-1.4,3.2-3.2
					C196.006,227.5,194.606,226,192.906,226z"/>
			</g>
		</g>
		<g>
			<g>
				<path fill="#FC657E" d="M200.15,20.075c-3.1-0.6-5.6-3-6.2-6.1c0-0.1-0.3-0.1-0.3,0c-0.6,3.1-3.1,5.5-6.2,6.1
					c-0.1,0-0.1,0.2,0,0.3c3.1,0.6,5.6,3,6.2,6.1c0,0.1,0.3,0.1,0.3,0c0.6-3.1,3.1-5.5,6.2-6.1
					C200.25,20.275,200.25,20.075,200.15,20.075z"/>
			</g>
		</g>
		<g>
			<g>
				<circle fill="#87D147" cx="87.4" cy="16.5" r="3.4"/>
			</g>
		</g>
		<g>
			<g>
				<path fill="#F5C84C" d="M156.6,236.1c-1.878,0-3.4,1.522-3.4,3.4s1.522,3.4,3.4,3.4c1.878,0,3.4-1.522,3.4-3.4
					S158.478,236.1,156.6,236.1z"/>
			</g>
		</g>
		<g>
			<g>
				<path fill="#F5C84C" d="M65.15,31.75c-4.5-0.8-8-4.3-8.9-8.7c0-0.2-0.4-0.2-0.4,0c-0.9,4.4-4.4,7.9-8.9,8.7
					c-0.2,0-0.2,0.3,0,0.4c4.5,0.8,8,4.3,8.9,8.7c0,0.2,0.4,0.2,0.4,0c0.9-4.4,4.4-7.9,8.9-8.7C65.35,32.05,65.35,31.75,65.15,31.75
					z"/>
			</g>
		</g>
		<g>
			<g>
				<path d="M106.5,53.775h-16c-1.381,0-2.5,1.119-2.5,2.5s1.119,2.5,2.5,2.5h16c1.381,0,2.5-1.119,2.5-2.5
					S107.881,53.775,106.5,53.775z"/>
			</g>
		</g>
		<g>
			<g>
				<path d="M106.5,68.33h-16c-1.381,0-2.5,1.119-2.5,2.5s1.119,2.5,2.5,2.5h16c1.381,0,2.5-1.119,2.5-2.5
					S107.881,68.33,106.5,68.33z"/>
			</g>
		</g>
		<g>
			<g>
				<path d="M106.5,82.886h-16c-1.381,0-2.5,1.119-2.5,2.5s1.119,2.5,2.5,2.5h16c1.381,0,2.5-1.119,2.5-2.5
					S107.881,82.886,106.5,82.886z"/>
			</g>
		</g>
		<g>
			<g>
				<path d="M106.5,97.441h-16c-1.381,0-2.5,1.119-2.5,2.5s1.119,2.5,2.5,2.5h16c1.381,0,2.5-1.119,2.5-2.5
					S107.881,97.441,106.5,97.441z"/>
			</g>
		</g>
		<g>
			<g>
				<path d="M106.5,111.997h-16c-1.381,0-2.5,1.119-2.5,2.5s1.119,2.5,2.5,2.5h16c1.381,0,2.5-1.119,2.5-2.5
					S107.881,111.997,106.5,111.997z"/>
			</g>
		</g>
		<g>
			<g>
				<path d="M106.5,126.553h-16c-1.381,0-2.5,1.119-2.5,2.5s1.119,2.5,2.5,2.5h16c1.381,0,2.5-1.119,2.5-2.5
					S107.881,126.553,106.5,126.553z"/>
			</g>
		</g>
		<g>
			<g>
				<path d="M106.5,141.108h-16c-1.381,0-2.5,1.119-2.5,2.5s1.119,2.5,2.5,2.5h16c1.381,0,2.5-1.119,2.5-2.5
					S107.881,141.108,106.5,141.108z"/>
			</g>
		</g>
		<g>
			<g>
				<path d="M106.5,155.664h-16c-1.381,0-2.5,1.119-2.5,2.5s1.119,2.5,2.5,2.5h16c1.381,0,2.5-1.119,2.5-2.5
					S107.881,155.664,106.5,155.664z"/>
			</g>
		</g>
		<g>
			<g>
				<path d="M106.5,170.22h-16c-1.381,0-2.5,1.119-2.5,2.5s1.119,2.5,2.5,2.5h16c1.381,0,2.5-1.119,2.5-2.5
					S107.881,170.22,106.5,170.22z"/>
			</g>
		</g>
		<g>
			<g>
				<path d="M106.5,184.775h-16c-1.381,0-2.5,1.119-2.5,2.5s1.119,2.5,2.5,2.5h16c1.381,0,2.5-1.119,2.5-2.5
					S107.881,184.775,106.5,184.775z"/>
			</g>
		</g>
		<g>
			<g>
				<path d="M246.129,64.775H219.5c-1.381,0-2.5,1.119-2.5,2.5s1.119,2.5,2.5,2.5h26.629c2.686,0,4.871,2.185,4.871,4.87v74.13
					c0,1.381,1.119,2.5,2.5,2.5s2.5-1.119,2.5-2.5v-74.13C256,69.203,251.572,64.775,246.129,64.775z"/>
			</g>
		</g>
		<g>
			<g>
				<path d="M241.5,145.275h-17c-1.381,0-2.5,1.119-2.5,2.5s1.119,2.5,2.5,2.5h17c1.381,0,2.5-1.119,2.5-2.5
					S242.881,145.275,241.5,145.275z"/>
			</g>
		</g>
		<g>
			<g>
				<path d="M77.813,78.224h-9c-1.381,0-2.5,1.119-2.5,2.5s1.119,2.5,2.5,2.5h9c1.381,0,2.5-1.119,2.5-2.5
					S79.193,78.224,77.813,78.224z"/>
			</g>
		</g>
		<g>
			<g>
				<path d="M77.813,91.814h-9c-1.381,0-2.5,1.119-2.5,2.5s1.119,2.5,2.5,2.5h9c1.381,0,2.5-1.119,2.5-2.5
					S79.193,91.814,77.813,91.814z"/>
			</g>
		</g>
		<g>
			<g>
				<path d="M77.813,105.405h-9c-1.381,0-2.5,1.119-2.5,2.5s1.119,2.5,2.5,2.5h9c1.381,0,2.5-1.119,2.5-2.5
					S79.193,105.405,77.813,105.405z"/>
			</g>
		</g>
		<g>
			<g>
				<path d="M77.813,118.995h-9c-1.381,0-2.5,1.119-2.5,2.5s1.119,2.5,2.5,2.5h9c1.381,0,2.5-1.119,2.5-2.5
					S79.193,118.995,77.813,118.995z"/>
			</g>
		</g>
		<g>
			<g>
				<path d="M66.756,164.213c-1.381,0-2.5,1.119-2.5,2.5v15c0,1.381,1.119,2.5,2.5,2.5s2.5-1.119,2.5-2.5v-15
					C69.256,165.332,68.137,164.213,66.756,164.213z"/>
			</g>
		</g>
		<g>
			<g>
				<path d="M56.454,164.213c-1.381,0-2.5,1.119-2.5,2.5v15c0,1.381,1.119,2.5,2.5,2.5s2.5-1.119,2.5-2.5v-15
					C58.954,165.332,57.834,164.213,56.454,164.213z"/>
			</g>
		</g>
		<g>
			<g>
				<path d="M25.546,164.213c-1.381,0-2.5,1.119-2.5,2.5v15c0,1.381,1.119,2.5,2.5,2.5s2.5-1.119,2.5-2.5v-15
					C28.046,165.332,26.927,164.213,25.546,164.213z"/>
			</g>
		</g>
		<g>
			<g>
				<path d="M46.151,164.213c-1.381,0-2.5,1.119-2.5,2.5v15c0,1.381,1.119,2.5,2.5,2.5s2.5-1.119,2.5-2.5v-15
					C48.651,165.332,47.532,164.213,46.151,164.213z"/>
			</g>
		</g>
		<g>
			<g>
				<path d="M15.244,164.213c-1.381,0-2.5,1.119-2.5,2.5v15c0,1.381,1.119,2.5,2.5,2.5s2.5-1.119,2.5-2.5v-15
					C17.744,165.332,16.625,164.213,15.244,164.213z"/>
			</g>
		</g>
		<g>
			<g>
				<path d="M35.849,164.213c-1.381,0-2.5,1.119-2.5,2.5v15c0,1.381,1.119,2.5,2.5,2.5s2.5-1.119,2.5-2.5v-15
					C38.349,165.332,37.229,164.213,35.849,164.213z"/>
			</g>
		</g>
		<g>
			<g>
				<g>
					<g>
						<path d="M197.5,34.775h-87c-7.995,0-14.5,6.505-14.5,14.5v145c0,7.995,6.505,14.5,14.5,14.5h87c7.995,0,14.5-6.505,14.5-14.5
							v-145C212,41.28,205.495,34.775,197.5,34.775z M207,194.275c0,5.238-4.262,9.5-9.5,9.5h-87c-5.238,0-9.5-4.262-9.5-9.5v-145
							c0-5.238,4.262-9.5,9.5-9.5h87c5.238,0,9.5,4.262,9.5,9.5V194.275z"/>
					</g>
				</g>
			</g>
		</g>
		<g>
			<g>
				<path d="M142.5,205.251c-1.381,0-2.5,1.119-2.5,2.5v9.141c0,0.212-0.172,0.384-0.384,0.384h-8.232
					c-0.211,0-0.384-0.172-0.384-0.384v-9.262c0-1.381-1.119-2.5-2.5-2.5s-2.5,1.119-2.5,2.5v9.262c0,2.969,2.415,5.384,5.384,5.384
					h8.232c2.969,0,5.384-2.415,5.384-5.384v-9.141C145,206.37,143.881,205.251,142.5,205.251z"/>
			</g>
		</g>
		<g>
			<g>
				<g>
					<g>
						<path d="M240.609,55.275h-14.218c-2.973,0-5.391,2.418-5.391,5.391v114.109c0,1.381,1.119,2.5,2.5,2.5h20
							c1.381,0,2.5-1.119,2.5-2.5V60.666C246,57.693,243.582,55.275,240.609,55.275z M241,172.275h-15V60.666
							c0-0.216,0.175-0.391,0.391-0.391h14.218c0.216,0,0.391,0.175,0.391,0.391V172.275z"/>
					</g>
				</g>
			</g>
		</g>
		<g>
			<g>
				<path d="M244.187,172.371c-1.328-0.377-2.711,0.39-3.091,1.718l-7.077,24.771c-0.031,0.106-0.112,0.392-0.519,0.392
					s-0.488-0.285-0.519-0.392l-7.077-24.771c-0.379-1.328-1.766-2.095-3.091-1.718c-1.327,0.38-2.096,1.764-1.717,3.091
					l7.077,24.771c0.687,2.403,2.827,4.019,5.327,4.019s4.64-1.615,5.327-4.019l7.077-24.771
					C246.283,174.135,245.514,172.751,244.187,172.371z"/>
			</g>
		</g>
		<g>
			<g>
				<path d="M235.958,38.275h-4.915c-3.487,0-6.324,2.837-6.324,6.323v12.276c0,1.381,1.119,2.5,2.5,2.5s2.5-1.119,2.5-2.5V44.599
					c0-0.729,0.594-1.323,1.324-1.323h4.915c0.73,0,1.324,0.594,1.324,1.323V57c0,1.381,1.119,2.5,2.5,2.5s2.5-1.119,2.5-2.5V44.599
					C242.281,41.112,239.444,38.275,235.958,38.275z"/>
			</g>
		</g>
		<g>
			<g>
				<path d="M242.563,74.275h-17.875c-1.381,0-2.5,1.119-2.5,2.5s1.119,2.5,2.5,2.5h17.875c1.381,0,2.5-1.119,2.5-2.5
					S243.944,74.275,242.563,74.275z"/>
			</g>
		</g>
		<g>
			<g>
				<path d="M118.5,35.958c-1.381,0-2.5,1.119-2.5,2.5v166.481c0,1.381,1.119,2.5,2.5,2.5s2.5-1.119,2.5-2.5V38.458
					C121,37.077,119.881,35.958,118.5,35.958z"/>
			</g>
		</g>
		<g>
			<g>
				<g>
					<g>
						<path d="M192.026,53.775h-56.052c-3.639,0-6.599,2.96-6.599,6.599v24.802c0,3.639,2.96,6.6,6.599,6.6h56.052
							c3.639,0,6.599-2.961,6.599-6.6V60.374C198.625,56.735,195.665,53.775,192.026,53.775z M193.625,85.176
							c0,0.882-0.717,1.6-1.599,1.6h-56.052c-0.882,0-1.599-0.718-1.599-1.6V60.374c0-0.882,0.717-1.599,1.599-1.599h56.052
							c0.882,0,1.599,0.717,1.599,1.599V85.176z"/>
					</g>
				</g>
			</g>
		</g>
		<g>
			<g>
				<path d="M238.969,185.275h-10.72c-1.381,0-2.5,1.119-2.5,2.5s1.119,2.5,2.5,2.5h10.72c1.381,0,2.5-1.119,2.5-2.5
					S240.35,185.275,238.969,185.275z"/>
			</g>
		</g>
		<g>
			<g>
				<g>
					<g>
						<path d="M70.44,60.525H11.56C5.186,60.525,0,65.711,0,72.085v112.88c0,6.374,5.186,11.561,11.56,11.561h58.88
							c6.374,0,11.56-5.187,11.56-11.561V72.085C82,65.711,76.814,60.525,70.44,60.525z M77,184.965c0,3.617-2.943,6.561-6.56,6.561
							H11.56c-3.617,0-6.56-2.943-6.56-6.561V72.085c0-3.617,2.943-6.56,6.56-6.56h58.88c3.617,0,6.56,2.942,6.56,6.56V184.965z"/>
					</g>
				</g>
			</g>
		</g>
		<g>
			<g>
				<path d="M78.125,152.213H3.583c-1.381,0-2.5,1.119-2.5,2.5s1.119,2.5,2.5,2.5h74.542c1.381,0,2.5-1.119,2.5-2.5
					S79.505,152.213,78.125,152.213z"/>
			</g>
		</g>
		<g>
			<g>
				<path d="M78.542,133.9h-7.738c-0.444,0-0.805-0.361-0.805-0.805V64.042c0-1.381-1.119-2.5-2.5-2.5s-2.5,1.119-2.5,2.5v69.054
					c0,3.201,2.604,5.805,5.805,5.805h7.738c1.381,0,2.5-1.119,2.5-2.5S79.923,133.9,78.542,133.9z"/>
			</g>
		</g>
		<g>
			<g>
				<path d="M49.572,86.338c-1.381,0-2.5,1.119-2.5,2.5v40c0,1.381,1.119,2.5,2.5,2.5s2.5-1.119,2.5-2.5v-40
					C52.072,87.457,50.953,86.338,49.572,86.338z"/>
			</g>
		</g>
		<g>
			<g>
				<path d="M21.572,86.338c-1.381,0-2.5,1.119-2.5,2.5v40c0,1.381,1.119,2.5,2.5,2.5s2.5-1.119,2.5-2.5v-40
					C24.072,87.457,22.953,86.338,21.572,86.338z"/>
			</g>
		</g>
		<g>
			<g>
				<g>
					<g>
						<path d="M35.572,72.338c-9.098,0-16.5,7.402-16.5,16.5s7.402,16.5,16.5,16.5s16.5-7.402,16.5-16.5S44.67,72.338,35.572,72.338
							z M35.572,100.338c-6.341,0-11.5-5.159-11.5-11.5s5.159-11.5,11.5-11.5s11.5,5.159,11.5,11.5S41.914,100.338,35.572,100.338z"
							/>
					</g>
				</g>
			</g>
		</g>
		<g>
			<g>
				<g>
					<g>
						<path d="M35.572,112.338c-9.098,0-16.5,7.402-16.5,16.5s7.402,16.5,16.5,16.5s16.5-7.402,16.5-16.5
							S44.67,112.338,35.572,112.338z M35.572,140.338c-6.341,0-11.5-5.159-11.5-11.5s5.159-11.5,11.5-11.5s11.5,5.159,11.5,11.5
							S41.914,140.338,35.572,140.338z"/>
					</g>
				</g>
			</g>
		</g>
		<g>
			<g>
				<g>
					<g>
						<path d="M35.572,81.338c-4.136,0-7.5,3.364-7.5,7.5s3.364,7.5,7.5,7.5s7.5-3.364,7.5-7.5S39.708,81.338,35.572,81.338z
							 M35.572,91.338c-1.378,0-2.5-1.121-2.5-2.5s1.122-2.5,2.5-2.5s2.5,1.121,2.5,2.5S36.951,91.338,35.572,91.338z"/>
					</g>
				</g>
			</g>
		</g>
		<g>
			<g>
				<g>
					<g>
						<path d="M35.572,121.338c-4.136,0-7.5,3.364-7.5,7.5s3.364,7.5,7.5,7.5s7.5-3.364,7.5-7.5S39.708,121.338,35.572,121.338z
							 M35.572,131.338c-1.378,0-2.5-1.121-2.5-2.5s1.122-2.5,2.5-2.5s2.5,1.121,2.5,2.5S36.951,131.338,35.572,131.338z"/>
					</g>
				</g>
			</g>
		</g>
	</g>
</g>
<g id="Layer_77">
</g>
<g id="Layer_78">
</g>
<g id="Layer_79">
</g>
<g id="Layer_80">
</g>
</svg>
