<?xml version="1.0" encoding="utf-8"?>
<!-- Generator: Adobe Illustrator 24.0.0, SVG Export Plug-In . SVG Version: 6.00 Build 0)  -->
<svg version="1.1" xmlns="http://www.w3.org/2000/svg" xmlns:xlink="http://www.w3.org/1999/xlink" x="0px" y="0px"
	 viewBox="0 0 256 256" enable-background="new 0 0 256 256" xml:space="preserve">
<g id="Layer_1">
</g>
<g id="Layer_2">
</g>
<g id="Layer_3">
</g>
<g id="Layer_4">
</g>
<g id="Layer_5">
</g>
<g id="Layer_6">
</g>
<g id="Layer_7">
</g>
<g id="Layer_8">
</g>
<g id="Layer_9">
</g>
<g id="Layer_10">
</g>
<g id="Layer_11">
</g>
<g id="Layer_12">
</g>
<g id="Layer_13">
</g>
<g id="Layer_14">
</g>
<g id="Layer_15">
</g>
<g id="Layer_16">
</g>
<g id="Layer_17">
</g>
<g id="Layer_18">
</g>
<g id="Layer_19">
</g>
<g id="Layer_20">
</g>
<g id="Layer_21">
</g>
<g id="Layer_22">
</g>
<g id="Layer_23">
</g>
<g id="Layer_24">
</g>
<g id="Layer_25">
</g>
<g id="Layer_26">
</g>
<g id="Layer_27">
</g>
<g id="Layer_28">
</g>
<g id="Layer_29">
</g>
<g id="Layer_30">
</g>
<g id="Layer_31">
</g>
<g id="Layer_32">
</g>
<g id="Layer_33">
</g>
<g id="Layer_34">
</g>
<g id="Layer_35">
</g>
<g id="Layer_36">
</g>
<g id="Layer_37">
</g>
<g id="Layer_38">
</g>
<g id="Layer_39">
</g>
<g id="Layer_40">
</g>
<g id="Layer_41">
</g>
<g id="Layer_42">
</g>
<g id="Layer_43">
</g>
<g id="Layer_44">
</g>
<g id="Layer_45">
</g>
<g id="Layer_46">
</g>
<g id="Layer_47">
</g>
<g id="Layer_48">
</g>
<g id="Layer_49">
</g>
<g id="Layer_50">
</g>
<g id="Layer_51">
</g>
<g id="Layer_52">
</g>
<g id="Layer_53">
	<g>
		<g>
			<g>
				<path fill="#F5C84C" d="M76.34,12.5h-7.68c-1.469,0-2.66,1.191-2.66,2.66v19.68c0,1.469,1.191,2.66,2.66,2.66h7.68
					c1.469,0,2.66-1.191,2.66-2.66V15.16C79,13.691,77.809,12.5,76.34,12.5z"/>
			</g>
		</g>
		<g>
			<g>
				<path fill="#F5C84C" d="M187.34,12.5h-7.68c-1.469,0-2.66,1.191-2.66,2.66v19.68c0,1.469,1.191,2.66,2.66,2.66h7.68
					c1.469,0,2.66-1.191,2.66-2.66V15.16C190,13.691,188.809,12.5,187.34,12.5z"/>
			</g>
		</g>
		<g>
			<g>
				<path fill="#9BE5F9" d="M198.53,29H190v5.84c0,1.469-1.191,2.66-2.66,2.66h-7.68c-1.469,0-2.66-1.191-2.66-2.66V29H79v5.84
					c0,1.469-1.191,2.66-2.66,2.66h-7.68c-1.469,0-2.66-1.191-2.66-2.66V29h-8.53C53.897,29,51,31.896,51,35.47V229.53
					c0,3.573,2.897,6.47,6.47,6.47h122.659L205,211.129V35.47C205,31.896,202.103,29,198.53,29z"/>
			</g>
		</g>
		<g>
			<g>
				<path fill="#FC657E" d="M107.59,77.553l-16.387,6.154c-6.568,2.466-9.893,9.79-7.426,16.357l0,0
					c2.466,6.568,9.79,9.893,16.358,7.426l16.387-6.154L107.59,77.553z"/>
			</g>
		</g>
		<g>
			<g>
				<path fill="#FC657E" d="M149.673,98.95l-15.637-41.643c-0.982-2.615-3.898-3.938-6.512-2.957
					c-2.615,0.982-3.939,3.898-2.957,6.512l15.637,41.642c0.982,2.615,3.898,3.938,6.512,2.957
					C149.331,104.48,150.654,101.564,149.673,98.95z"/>
			</g>
		</g>
		<g>
			<g>
				<path fill="#DAE6F1" d="M121.361,113.299l-8.626-10.541l-11.506,4.321l11.124,13.593c2.036,2.488,5.703,2.854,8.191,0.818
					S123.397,115.787,121.361,113.299z"/>
			</g>
		</g>
		<g>
			<g>
				<path fill="#DAE6F1" d="M151.213,74.614L151.213,74.614c-1.97-5.247-7.731-7.949-13.002-6.188l7.287,19.405
					C150.625,85.687,153.183,79.86,151.213,74.614z"/>
			</g>
		</g>
		<g>
			<g>
				<path fill="#DAE6F1" d="M125.926,64.483c-4.1,5.466-8.277,9.292-15.702,12.081l-2.633,0.989l8.931,23.784l2.633-0.989
					c7.426-2.788,13.088-2.657,19.773-1.241L125.926,64.483z"/>
			</g>
		</g>
		<g>
			<g>
				<path fill="#CBEFF7" d="M186.599,211.129c-3.573,0-6.47,2.896-6.47,6.47V236L205,211.129H186.599z"/>
			</g>
		</g>
		<g>
			<g>
				<path fill="#70D6F9" d="M39.737,136.175c-3.1-0.6-5.6-3-6.2-6.1c0-0.1-0.3-0.1-0.3,0c-0.6,3.1-3.1,5.5-6.2,6.1
					c-0.1,0-0.1,0.2,0,0.3c3.1,0.6,5.6,3,6.2,6.1c0,0.1,0.3,0.1,0.3,0c0.6-3.1,3.1-5.5,6.2-6.1
					C39.837,136.375,39.837,136.175,39.737,136.175z"/>
			</g>
		</g>
		<g>
			<g>
				<path fill="#F5C84C" d="M51.369,0c-1.878,0-3.4,1.522-3.4,3.4c0,1.878,1.522,3.4,3.4,3.4c1.878,0,3.4-1.522,3.4-3.4
					C54.769,1.522,53.246,0,51.369,0z"/>
			</g>
		</g>
		<g>
			<g>
				<path fill="#FC657E" d="M205.369,249.2c-1.878,0-3.4,1.522-3.4,3.4c0,1.878,1.522,3.4,3.4,3.4c1.878,0,3.4-1.522,3.4-3.4
					C208.769,250.722,207.246,249.2,205.369,249.2z"/>
			</g>
		</g>
		<g>
			<g>
				<path fill="#87D147" d="M36.249,26.1h-2.4v-2.3c0-1.8-1.4-3.2-3.2-3.2c-1.7,0-3.2,1.4-3.2,3.1v2.4h-2.3c-1.8,0-3.2,1.4-3.2,3.2
					c-0.1,1.7,1.3,3.2,3.2,3.2h2.3v2.3c0,1.8,1.4,3.2,3.2,3.2c1.7,0,3.2-1.4,3.2-3.1v-2.4h2.3c1.8,0,3.2-1.4,3.2-3.2
					C39.349,27.6,37.949,26.1,36.249,26.1z"/>
			</g>
		</g>
		<g>
			<g>
				<path fill="#F5C84C" d="M233.906,221.2c-4.5-0.8-8-4.3-8.9-8.7c0-0.2-0.4-0.2-0.4,0c-0.9,4.4-4.4,7.9-8.9,8.7
					c-0.2,0-0.2,0.3,0,0.4c4.5,0.8,8,4.3,8.9,8.7c0,0.2,0.4,0.2,0.4,0c0.9-4.4,4.4-7.9,8.9-8.7
					C234.106,221.5,234.106,221.2,233.906,221.2z"/>
			</g>
		</g>
		<g>
			<g>
				<g>
					<g>
						<path d="M76.34,10H68.66c-2.845,0-5.16,2.314-5.16,5.16v19.68c0,2.846,2.314,5.16,5.16,5.16h7.681
							c2.845,0,5.16-2.314,5.16-5.16V15.16C81.5,12.314,79.186,10,76.34,10z M76.5,34.84c0,0.088-0.072,0.16-0.16,0.16H68.66
							c-0.088,0-0.16-0.072-0.16-0.16V15.16c0-0.088,0.072-0.16,0.16-0.16h7.681c0.088,0,0.16,0.072,0.16,0.16V34.84z"/>
					</g>
				</g>
			</g>
		</g>
		<g>
			<g>
				<g>
					<g>
						<path d="M187.34,10h-7.68c-2.846,0-5.16,2.314-5.16,5.16v19.68c0,2.846,2.314,5.16,5.16,5.16h7.68
							c2.846,0,5.16-2.314,5.16-5.16V15.16C192.5,12.314,190.186,10,187.34,10z M187.5,34.84c0,0.088-0.072,0.16-0.16,0.16h-7.68
							c-0.088,0-0.16-0.072-0.16-0.16V15.16c0-0.088,0.072-0.16,0.16-0.16h7.68c0.088,0,0.16,0.072,0.16,0.16V34.84z"/>
					</g>
				</g>
			</g>
		</g>
		<g>
			<g>
				<path d="M198.53,26.5h-7.322c-1.381,0-2.5,1.119-2.5,2.5s1.119,2.5,2.5,2.5h7.322c2.188,0,3.97,1.781,3.97,3.97v174.624
					L179.094,233.5H57.47c-2.189,0-3.97-1.781-3.97-3.97V35.47c0-2.188,1.781-3.97,3.97-3.97h7.197c1.381,0,2.5-1.119,2.5-2.5
					s-1.119-2.5-2.5-2.5H57.47c-4.946,0-8.97,4.023-8.97,8.97V229.53c0,4.946,4.024,8.97,8.97,8.97h122.659
					c0.663,0,1.299-0.264,1.768-0.732l24.871-24.871c0.469-0.469,0.732-1.104,0.732-1.768V35.47
					C207.5,30.523,203.477,26.5,198.53,26.5z"/>
			</g>
		</g>
		<g>
			<g>
				<path d="M175.875,26.5H80.417c-1.381,0-2.5,1.119-2.5,2.5s1.119,2.5,2.5,2.5h95.458c1.381,0,2.5-1.119,2.5-2.5
					S177.256,26.5,175.875,26.5z"/>
			</g>
		</g>
		<g>
			<g>
				<path d="M96.087,80.796l-1.422-3.787c-0.485-1.292-1.926-1.944-3.219-1.462c-1.292,0.486-1.947,1.928-1.461,3.22l1.422,3.787
					c0.376,1.003,1.329,1.622,2.341,1.622c0.292,0,0.589-0.052,0.878-0.16C95.918,83.529,96.573,82.088,96.087,80.796z"/>
			</g>
		</g>
		<g>
			<g>
				<path d="M167.852,67.262c-0.511-1.283-1.963-1.911-3.247-1.397l-5.224,2.08c-1.283,0.511-1.908,1.965-1.397,3.247
					c0.39,0.979,1.329,1.576,2.323,1.576c0.308,0,0.62-0.058,0.924-0.179l5.224-2.08C167.737,69.998,168.362,68.544,167.852,67.262z
					"/>
			</g>
		</g>
		<g>
			<g>
				<path d="M158.092,54.171c-1.086-0.856-2.657-0.67-3.512,0.412l-3.484,4.412c-0.855,1.084-0.671,2.656,0.412,3.512
					c0.459,0.362,1.006,0.538,1.548,0.538c0.739,0,1.471-0.326,1.964-0.95l3.484-4.412
					C159.359,56.599,159.175,55.026,158.092,54.171z"/>
			</g>
		</g>
		<g>
			<g>
				<path d="M167.646,80.646l-5.563-0.812c-1.373-0.195-2.636,0.747-2.835,2.112c-0.199,1.367,0.746,2.636,2.112,2.835l5.563,0.812
					c0.123,0.018,0.244,0.026,0.364,0.026c1.221,0,2.289-0.896,2.471-2.139C169.958,82.114,169.013,80.846,167.646,80.646z"/>
			</g>
		</g>
		<g>
			<g>
				<path d="M182.629,150.396H73.371c-1.381,0-2.5,1.119-2.5,2.5s1.119,2.5,2.5,2.5h109.258c1.381,0,2.5-1.119,2.5-2.5
					S184.01,150.396,182.629,150.396z"/>
			</g>
		</g>
		<g>
			<g>
				<path d="M182.629,162.459H73.371c-1.381,0-2.5,1.119-2.5,2.5s1.119,2.5,2.5,2.5h109.258c1.381,0,2.5-1.119,2.5-2.5
					S184.01,162.459,182.629,162.459z"/>
			</g>
		</g>
		<g>
			<g>
				<path d="M146.2,136.667h-36.401c-1.381,0-2.5,1.119-2.5,2.5s1.119,2.5,2.5,2.5H146.2c1.381,0,2.5-1.119,2.5-2.5
					S147.581,136.667,146.2,136.667z"/>
			</g>
		</g>
		<g>
			<g>
				<path d="M182.629,174.521H73.371c-1.381,0-2.5,1.119-2.5,2.5s1.119,2.5,2.5,2.5h109.258c1.381,0,2.5-1.119,2.5-2.5
					S184.01,174.521,182.629,174.521z"/>
			</g>
		</g>
		<g>
			<g>
				<path d="M182.629,186.584H73.371c-1.381,0-2.5,1.119-2.5,2.5s1.119,2.5,2.5,2.5h109.258c1.381,0,2.5-1.119,2.5-2.5
					S184.01,186.584,182.629,186.584z"/>
			</g>
		</g>
		<g>
			<g>
				<path d="M182.629,198.646H73.371c-1.381,0-2.5,1.119-2.5,2.5s1.119,2.5,2.5,2.5h109.258c1.381,0,2.5-1.119,2.5-2.5
					S184.01,198.646,182.629,198.646z"/>
			</g>
		</g>
		<g>
			<g>
				<g>
					<g>
						<path d="M118.861,100.458l-8.931-23.784c-0.484-1.292-1.926-1.945-3.219-1.462l-16.387,6.153
							c-7.848,2.948-11.834,11.73-8.888,19.578c1.428,3.802,4.25,6.819,7.947,8.498c2.006,0.911,4.139,1.368,6.277,1.368
							c1.804,0,3.613-0.325,5.352-0.979l16.387-6.153c0.621-0.233,1.124-0.703,1.397-1.308
							C119.071,101.767,119.095,101.079,118.861,100.458z M99.255,105.149c-2.551,0.958-5.324,0.866-7.804-0.261
							c-2.481-1.127-4.376-3.152-5.334-5.704c-1.978-5.267,0.698-11.16,5.965-13.138l14.047-5.274l7.173,19.103L99.255,105.149z"/>
					</g>
				</g>
			</g>
		</g>
		<g>
			<g>
				<g>
					<g>
						<g>
							<path d="M152.014,98.07L136.376,56.43c-0.71-1.891-2.112-3.392-3.951-4.226c-1.837-0.835-3.89-0.903-5.78-0.194
								c-3.901,1.465-5.883,5.83-4.419,9.732l15.638,41.644c0.71,1.889,2.113,3.389,3.951,4.224c0.997,0.452,2.057,0.68,3.12,0.68
								c0.896,0,1.795-0.162,2.659-0.486c1.891-0.71,3.392-2.112,4.226-3.951C152.654,102.014,152.723,99.961,152.014,98.07z
								 M145.838,103.121c-0.001,0-0.001,0-0.002,0.001c-1.32,0.494-2.797-0.176-3.292-1.495l-15.637-41.642
								c-0.496-1.321,0.175-2.799,1.495-3.294c0.293-0.11,0.597-0.165,0.9-0.165c0.36,0,0.719,0.077,1.057,0.23
								c0.622,0.282,1.097,0.79,1.336,1.43l15.638,41.641C147.828,101.148,147.157,102.626,145.838,103.121z"/>
						</g>
					</g>
				</g>
			</g>
		</g>
		<g>
			<g>
				<path d="M123.296,111.716l-7.577-9.259c-0.875-1.069-2.449-1.226-3.518-0.352c-1.068,0.874-1.226,2.449-0.351,3.518l7.577,9.259
					c1.16,1.417,0.95,3.514-0.466,4.674c-0.687,0.562-1.551,0.816-2.433,0.734c-0.883-0.089-1.678-0.515-2.24-1.201l-10.122-12.368
					c-0.875-1.07-2.449-1.225-3.518-0.352c-1.068,0.874-1.226,2.449-0.351,3.518l10.122,12.368c1.407,1.721,3.401,2.789,5.613,3.01
					c0.281,0.028,0.563,0.042,0.842,0.042c1.914,0,3.753-0.653,5.254-1.882C125.676,120.52,126.201,115.267,123.296,111.716z"/>
			</g>
		</g>
		<g>
			<g>
				<path d="M153.554,73.735c-2.314-6.162-8.865-9.573-15.247-7.943c-1.337,0.343-2.144,1.705-1.801,3.043
					c0.344,1.338,1.706,2.14,3.043,1.801c3.899-0.999,7.908,1.089,9.323,4.857c1.433,3.813-0.247,8.042-3.905,9.835
					c-1.24,0.607-1.753,2.105-1.146,3.345c0.435,0.887,1.322,1.401,2.247,1.401c0.369,0,0.744-0.083,1.098-0.256
					C153.149,86.887,155.896,79.973,153.554,73.735z"/>
			</g>
		</g>
		<g>
			<g>
				<path d="M139.002,96.568c-7.766-1.588-13.77-1.173-20.726,1.438l-2.634,0.989c-1.292,0.486-1.947,1.928-1.461,3.22
					c0.376,1.003,1.329,1.622,2.341,1.622c0.292,0,0.589-0.052,0.878-0.16l2.634-0.989c7.01-2.633,12.251-2.391,17.964-1.222
					c1.352,0.271,2.674-0.595,2.951-1.947C141.227,98.166,140.354,96.846,139.002,96.568z"/>
			</g>
		</g>
		<g>
			<g>
				<path d="M127.108,62.938c-1.098-0.837-2.667-0.628-3.504,0.47c-3.509,4.596-7.277,8.193-14.259,10.815l-2.633,0.988
					c-1.292,0.485-1.947,1.927-1.462,3.22c0.377,1.003,1.329,1.622,2.341,1.622c0.292,0,0.588-0.052,0.878-0.16l2.634-0.988
					c6.931-2.604,11.704-6.214,16.476-12.462C128.416,65.346,128.206,63.777,127.108,62.938z"/>
			</g>
		</g>
		<g>
			<g>
				<path d="M203.917,208.629h-17.318c-4.946,0-8.97,4.023-8.97,8.97v17.215c0,1.381,1.119,2.5,2.5,2.5s2.5-1.119,2.5-2.5v-17.215
					c0-2.188,1.781-3.97,3.97-3.97h17.318c1.381,0,2.5-1.119,2.5-2.5S205.298,208.629,203.917,208.629z"/>
			</g>
		</g>
	</g>
</g>
<g id="Layer_54">
</g>
<g id="Layer_55">
</g>
<g id="Layer_56">
</g>
<g id="Layer_57">
</g>
<g id="Layer_58">
</g>
<g id="Layer_59">
</g>
<g id="Layer_60">
</g>
<g id="Layer_61">
</g>
<g id="Layer_62">
</g>
<g id="Layer_63">
</g>
<g id="Layer_64">
</g>
<g id="Layer_65">
</g>
<g id="Layer_66">
</g>
<g id="Layer_67">
</g>
<g id="Layer_68">
</g>
<g id="Layer_69">
</g>
<g id="Layer_70">
</g>
<g id="Layer_71">
</g>
<g id="Layer_72">
</g>
<g id="Layer_73">
</g>
<g id="Layer_74">
</g>
<g id="Layer_75">
</g>
<g id="Layer_76">
</g>
<g id="Layer_77">
</g>
<g id="Layer_78">
</g>
<g id="Layer_79">
</g>
<g id="Layer_80">
</g>
</svg>
