<?xml version="1.0" encoding="utf-8"?>
<!-- Generator: Adobe Illustrator 24.0.0, SVG Export Plug-In . SVG Version: 6.00 Build 0)  -->
<svg version="1.1" xmlns="http://www.w3.org/2000/svg" xmlns:xlink="http://www.w3.org/1999/xlink" x="0px" y="0px"
	 viewBox="0 0 256 256" enable-background="new 0 0 256 256" xml:space="preserve">
<g id="Layer_1">
</g>
<g id="Layer_2">
</g>
<g id="Layer_3">
</g>
<g id="Layer_4">
</g>
<g id="Layer_5">
</g>
<g id="Layer_6">
</g>
<g id="Layer_7">
</g>
<g id="Layer_8">
</g>
<g id="Layer_9">
</g>
<g id="Layer_10">
</g>
<g id="Layer_11">
</g>
<g id="Layer_12">
</g>
<g id="Layer_13">
</g>
<g id="Layer_14">
</g>
<g id="Layer_15">
</g>
<g id="Layer_16">
</g>
<g id="Layer_17">
</g>
<g id="Layer_18">
</g>
<g id="Layer_19">
</g>
<g id="Layer_20">
</g>
<g id="Layer_21">
</g>
<g id="Layer_22">
</g>
<g id="Layer_23">
</g>
<g id="Layer_24">
</g>
<g id="Layer_25">
</g>
<g id="Layer_26">
</g>
<g id="Layer_27">
</g>
<g id="Layer_28">
</g>
<g id="Layer_29">
</g>
<g id="Layer_30">
</g>
<g id="Layer_31">
</g>
<g id="Layer_32">
</g>
<g id="Layer_33">
</g>
<g id="Layer_34">
	<g>
		<g>
			<g>
				<path fill="#FCE4BE" d="M232.356,155.321c5.478-8.59,2.891-16.954,0.474-21.678c-2.12,3.362-5.856,5.603-10.125,5.603
					c-0.653,0-1.288-0.067-1.913-0.167c-0.673,10.034-6.56,18.699-14.965,23.28v8.697c0,2.784,1.461,5.332,3.801,6.774
					c0.938,0.578-0.252-0.1,7.736,3.873c1.075,0.53,2.494,1.091,3.588,1.434c0.217,0.068,0.437,0.127,0.656,0.189
					c4.22-1.544,7.944-3.997,10.355-7.816c4.422-7.002,1.841-13.786,0.214-16.822C231.607,157.621,231.706,156.342,232.356,155.321z
					"/>
			</g>
		</g>
		<g>
			<g>
				<path fill="#FCE4BE" d="M163.583,139.079c-0.624,0.1-1.26,0.167-1.912,0.167c-4.268,0-8.005-2.24-10.125-5.603
					c-2.416,4.724-5.003,13.088,0.474,21.678c0.651,1.021,0.75,2.3,0.178,3.366c-1.627,3.037-4.208,9.821,0.214,16.822
					c2.412,3.819,6.135,6.271,10.356,7.816c0.219-0.062,0.439-0.121,0.656-0.189c1.094-0.343,2.513-0.904,3.588-1.434
					c8.507-4.231,6.868-3.339,7.736-3.873c2.34-1.441,3.801-3.99,3.801-6.774v-8.697
					C170.143,157.778,164.256,149.113,163.583,139.079z"/>
			</g>
		</g>
		<g>
			<g>
				<path fill="#F9D0B4" d="M222.706,115.3c-0.626,0-1.24,0.053-1.84,0.146v21.71c0,0.647-0.03,1.287-0.072,1.923
					c0.624,0.1,1.26,0.167,1.913,0.167c6.613,0,11.973-5.36,11.973-11.973C234.679,120.66,229.318,115.3,222.706,115.3z"/>
			</g>
		</g>
		<g>
			<g>
				<path fill="#F9D0B4" d="M163.51,137.156v-17.078c-1.969-0.561-3.991-1.287-6.065-2.203c-1.337-0.591-2.899-0.319-3.966,0.681
					c-2.326,2.181-3.782,5.276-3.782,8.717c0,6.612,5.361,11.973,11.973,11.973c0.653,0,1.288-0.066,1.912-0.167
					C163.54,138.443,163.51,137.803,163.51,137.156z"/>
			</g>
		</g>
		<g>
			<g>
				<path fill="#FCE4BE" d="M192.188,72.81c-21.448,0-38.996,17.549-38.996,38.996v7.047c0.097-0.098,0.187-0.203,0.288-0.298
					c1.066-1,2.629-1.272,3.966-0.681c2.074,0.916,4.096,1.642,6.065,2.203c22.539,6.42,38.027-9.046,42.395-14.144
					c0.702-0.82,1.934-0.879,2.733-0.154c4.039,3.67,7.562,5.35,10.464,6.023c1.026,0.238,1.764,1.131,1.764,2.184v1.459
					c0.6-0.093,1.214-0.146,1.84-0.146c3.313,0,6.311,1.346,8.478,3.52v-7.013C231.184,90.359,213.636,72.81,192.188,72.81z"/>
			</g>
		</g>
		<g>
			<g>
				<path fill="#DAE6F1" d="M199.568,197.619l-3.059-2.845c-1.071-0.997-1.132-2.674-0.135-3.745l12.66-13.608
					c-1.989-1.486-3.206-3.827-3.206-6.365v-8.697c-4.063,2.214-8.711,3.474-13.641,3.474c-4.929,0-9.578-1.26-13.64-3.474v8.697
					c0,2.539-1.218,4.879-3.207,6.365l12.66,13.608c0.997,1.071,0.936,2.748-0.135,3.745l-3.059,2.845
					c-2.4,2.233-5.491,3.047-8.405,2.647l5.126,53.234h21.318l5.126-53.234C205.06,200.666,201.969,199.852,199.568,197.619z"/>
			</g>
		</g>
		<g>
			<g>
				<path fill="#3CAADC" d="M174.269,178.108c-0.058,0.03-0.11,0.069-0.169,0.098l-7.09,3.496c-1.585,0.781-3.248,1.393-4.961,1.824
					c-0.101,0.025-14.712,3.714-14.805,3.737l-5.7,1.439c-4.99,1.256-8.584,5.611-8.87,10.75l-1.795,49.335
					c-0.094,2.574,1.968,4.713,4.544,4.713h46.106L174.269,178.108z"/>
			</g>
		</g>
		<g>
			<g>
				<path fill="#3CAADC" d="M251.702,199.452c-0.286-5.139-3.88-9.493-8.87-10.75l-5.7-1.439
					c-0.093-0.023-14.704-3.712-14.805-3.737c-1.714-0.431-3.376-1.043-4.961-1.824l-7.09-3.496
					c-0.059-0.029-0.11-0.068-0.168-0.098l-7.26,75.392h46.106c2.576,0,4.638-2.138,4.544-4.713L251.702,199.452z"/>
			</g>
		</g>
		<g>
			<g>
				<path fill="#F9D0B4" d="M219.102,111.803c-2.902-0.672-6.425-2.353-10.464-6.023c-0.799-0.726-2.031-0.666-2.733,0.154
					c-4.368,5.098-19.855,20.564-42.395,14.144v17.078c0,15.773,12.905,28.677,28.678,28.677c15.772,0,28.677-12.905,28.677-28.677
					v-23.168C220.865,112.934,220.128,112.041,219.102,111.803z"/>
			</g>
		</g>
		<g>
			<g>
				<path fill="#70D6F9" d="M174.269,178.108c-0.058,0.03-0.11,0.069-0.169,0.098l-7.09,3.496c-1.585,0.781-3.248,1.393-4.961,1.824
					c-0.014,0.004-0.317,0.08-0.814,0.205l-1.515,27.783c-0.071,1.3,0.366,2.576,1.218,3.559l6.512,7.514
					c1.547,1.785,1.64,4.407,0.222,6.297l-3.277,4.369c-0.977,1.303-1.261,2.999-0.762,4.549l5.055,15.697h12.841L174.269,178.108z"
					/>
			</g>
		</g>
		<g>
			<g>
				<path fill="#70D6F9" d="M223.438,215.074c0.852-0.984,1.289-2.26,1.219-3.559l-1.516-27.783c-0.497-0.126-0.8-0.202-0.814-0.205
					c-1.714-0.431-3.376-1.043-4.961-1.824l-7.09-3.496c-0.059-0.029-0.11-0.068-0.168-0.098l-7.26,75.392h12.841l5.055-15.697
					c0.499-1.55,0.215-3.246-0.762-4.549l-3.277-4.369c-1.417-1.89-1.325-4.512,0.222-6.297L223.438,215.074z"/>
			</g>
		</g>
		<g>
			<g>
				<path fill="#EDF4FC" d="M188.001,191.029l-12.66-13.608c-0.338,0.253-0.691,0.487-1.072,0.687l2.134,22.158
					c2.913,0.4,6.005-0.414,8.405-2.647l3.059-2.846C188.938,193.777,188.998,192.1,188.001,191.029z"/>
			</g>
		</g>
		<g>
			<g>
				<path fill="#EDF4FC" d="M209.035,177.421l-12.66,13.608c-0.997,1.071-0.936,2.748,0.135,3.745l3.059,2.846
					c2.4,2.233,5.491,3.047,8.405,2.647l2.134-22.158C209.726,177.908,209.373,177.674,209.035,177.421z"/>
			</g>
		</g>
		<g>
			<g>
				<path fill="#F9D0B4" d="M209.035,177.421c-1.989-1.486-3.206-3.827-3.206-6.365v-8.697c-4.063,2.214-8.711,3.475-13.641,3.475
					c-4.929,0-9.578-1.26-13.64-3.475v8.697c0,2.539-1.218,4.879-3.206,6.365l12.66,13.608c0.606,0.651,0.816,1.526,0.65,2.336
					h7.073c-0.165-0.81,0.044-1.685,0.65-2.336L209.035,177.421z"/>
			</g>
		</g>
		<g>
			<g>
				<g>
					<g>
						<path fill="#F5C84C" d="M165.3,33.906h-10.115c-0.561-1.885-1.308-3.691-2.229-5.39l7.15-7.15
							c0.863-0.863,0.863-2.262,0-3.126l-8.336-8.336c-0.863-0.863-2.263-0.863-3.126,0l-7.15,7.15
							c-1.699-0.921-3.504-1.667-5.39-2.229V4.71c0-1.221-0.99-2.21-2.21-2.21h-11.789c-1.221,0-2.21,0.99-2.21,2.21v10.115
							c-1.885,0.561-3.691,1.308-5.39,2.229l-7.15-7.15c-0.863-0.863-2.263-0.863-3.126,0l-8.336,8.336
							c-0.863,0.863-0.863,2.263,0,3.126l7.15,7.15c-0.921,1.699-1.667,3.504-2.229,5.39H90.7c-1.221,0-2.21,0.99-2.21,2.21v11.789
							c0,1.221,0.99,2.21,2.21,2.21h10.115c0.561,1.886,1.308,3.691,2.229,5.39l-7.15,7.15c-0.863,0.863-0.863,2.262,0,3.125
							l8.336,8.336c0.863,0.863,2.263,0.863,3.126,0l7.15-7.15c1.699,0.921,3.504,1.667,5.39,2.229V79.31
							c0,1.221,0.99,2.21,2.21,2.21h11.789c1.221,0,2.21-0.99,2.21-2.21V69.195c1.885-0.561,3.691-1.308,5.39-2.229l7.15,7.15
							c0.863,0.863,2.262,0.863,3.126,0l8.336-8.336c0.863-0.863,0.863-2.262,0-3.125l-7.15-7.15
							c0.921-1.699,1.667-3.504,2.229-5.39H165.3c1.221,0,2.21-0.99,2.21-2.21V36.116C167.51,34.895,166.521,33.906,165.3,33.906z
							 M128,56.953c-8.253,0-14.943-6.69-14.943-14.943c0-8.253,6.69-14.943,14.943-14.943c8.253,0,14.943,6.69,14.943,14.943
							C142.943,50.263,136.253,56.953,128,56.953z"/>
					</g>
				</g>
			</g>
		</g>
		<g>
			<g>
				<path fill="#F9D0B4" d="M92.917,102.878c-2.014-2.112-5.289-2.307-7.585-0.505c-3.63,2.849-9.911,6.371-18.783,6.371
					c-8.893,0-15.207-3.539-18.853-6.392c-2.294-1.795-5.562-1.594-7.572,0.514l-0.01,0.011c-2.825,2.962-4.4,6.898-4.4,10.99v25.85
					c0,16.941,13.861,30.802,30.802,30.802h0c16.941,0,30.802-13.861,30.802-30.802v-25.85
					C97.317,109.776,95.741,105.84,92.917,102.878z"/>
			</g>
		</g>
		<g>
			<g>
				<path fill="#F9D0B4" d="M99.293,116.244c-0.673,0-1.332,0.057-1.977,0.157v23.318c0,0.695-0.032,1.382-0.078,2.066
					c0.67,0.108,1.353,0.179,2.054,0.179c7.102,0,12.86-5.758,12.86-12.86C112.153,122.002,106.396,116.244,99.293,116.244z"/>
			</g>
		</g>
		<g>
			<g>
				<path fill="#F9D0B4" d="M35.713,139.719v-23.318c-0.645-0.1-1.304-0.157-1.977-0.157c-7.102,0-12.86,5.758-12.86,12.86
					c0,7.102,5.758,12.86,12.86,12.86c0.701,0,1.384-0.071,2.054-0.179v-0.001C35.745,141.1,35.713,140.413,35.713,139.719z"/>
			</g>
		</g>
		<g>
			<g>
				<path fill="#5B5D60" d="M97.202,89.97c-1.032,0-1.926-0.795-1.94-1.827c-0.236-17.164-19.836-20.388-39.355-17.017
					c-16.549,2.858-28.644,17.208-28.644,34.002v12.878c1.903-1.112,4.11-1.761,6.473-1.761c0.673,0,1.332,0.057,1.977,0.157v-2.532
					c0-4.093,1.576-8.028,4.4-10.99l0.01-0.011c2.01-2.108,5.278-2.309,7.572-0.514c3.645,2.853,9.96,6.392,18.853,6.392
					c8.872,0,15.153-3.522,18.783-6.371c2.296-1.802,5.571-1.608,7.585,0.505c2.825,2.962,4.4,6.898,4.4,10.99v2.532
					c0.645-0.1,1.304-0.157,1.977-0.157c2.392,0,4.623,0.665,6.541,1.802v-10.573C105.835,92.104,100.285,89.97,97.202,89.97z"/>
			</g>
		</g>
		<g>
			<g>
				<path fill="#DAE6F1" d="M81.816,200.496c-0.832,0.952-2.278,1.05-3.23,0.218l-6.902-6.028c-0.952-0.832-1.05-2.278-0.218-3.23
					l11.378-13.027c-1.36-1.81-2.139-4.039-2.139-6.39v-5.013c-4.254,2.227-9.08,3.495-14.19,3.495c-5.11,0-9.936-1.268-14.19-3.495
					v5.013c0,2.351-0.779,4.58-2.139,6.39l11.378,13.027c0.832,0.952,0.734,2.399-0.218,3.23l-6.902,6.028
					c-0.952,0.832-2.399,0.734-3.23-0.218l-6.361-7.283l9.671,60.287h23.983l9.671-60.287L81.816,200.496z"/>
			</g>
		</g>
		<g>
			<g>
				<path fill="#3A70BF" d="M43.103,182.305c-0.224-1.394-1.644-2.255-2.983-1.808l-20.14,6.714
					c-6.825,2.275-11.698,8.318-12.476,15.47l-4.977,45.781c-0.292,2.69,1.815,5.039,4.521,5.039h47.476L43.103,182.305z"/>
			</g>
		</g>
		<g>
			<g>
				<path fill="#3A70BF" d="M130.503,248.461l-4.977-45.781c-0.778-7.152-5.651-13.195-12.476-15.47l-20.14-6.714
					c-1.339-0.447-2.759,0.414-2.983,1.808L78.507,253.5h47.476C128.688,253.5,130.795,251.151,130.503,248.461z"/>
			</g>
		</g>
		<g>
			<g>
				<path fill="#5290DB" d="M43.103,182.305c-0.224-1.394-1.644-2.255-2.983-1.808l-6.751,2.25V214.1
					c0,2.13,1.204,4.078,3.109,5.031l3.739,1.87c1.543,0.771,2.127,2.677,1.281,4.181l-4.426,7.868
					c-0.814,1.446-0.947,3.179-0.364,4.733l5.894,15.718h11.92L43.103,182.305z"/>
			</g>
		</g>
		<g>
			<g>
				<path fill="#5290DB" d="M92.91,180.497c-1.339-0.447-2.759,0.415-2.983,1.808L78.507,253.5h11.919l5.894-15.718
					c0.583-1.554,0.45-3.286-0.364-4.733l-4.426-7.868c-0.846-1.504-0.262-3.41,1.281-4.181l3.739-1.87
					c1.906-0.953,3.109-2.9,3.109-5.031v-31.353L92.91,180.497z"/>
			</g>
		</g>
		<g>
			<g>
				<path fill="#F9D0B4" d="M82.844,178.428c-1.36-1.81-2.139-4.039-2.139-6.39v-5.013c-4.254,2.227-9.08,3.495-14.19,3.495h0
					c-5.11,0-9.936-1.268-14.19-3.495v5.013c0,2.351-0.779,4.58-2.139,6.39l11.378,13.027c0.476,0.544,0.637,1.249,0.519,1.909
					h8.863c-0.118-0.66,0.044-1.365,0.519-1.909L82.844,178.428z"/>
			</g>
		</g>
		<g>
			<g>
				<path fill="#EDF4FC" d="M87.533,176.54c-0.952-0.832-2.399-0.734-3.23,0.218l-12.837,14.698
					c-0.832,0.952-0.734,2.399,0.218,3.23l6.902,6.028c0.952,0.832,2.399,0.734,3.23-0.218l6.361-7.283l1.75-10.908
					c0.17-1.058,1.03-1.806,2.02-1.911L87.533,176.54z"/>
			</g>
		</g>
		<g>
			<g>
				<path fill="#EDF4FC" d="M61.564,191.456l-12.837-14.698c-0.832-0.952-2.278-1.05-3.23-0.218l-4.414,3.855
					c0.99,0.105,1.85,0.852,2.02,1.911l1.75,10.908l6.361,7.283c0.832,0.952,2.278,1.05,3.23,0.218l6.902-6.028
					C62.299,193.854,62.396,192.408,61.564,191.456z"/>
			</g>
		</g>
		<g>
			<g>
				<polygon fill="#FC657E" points="72.164,206.278 60.866,206.278 56.23,253.5 76.8,253.5 				"/>
			</g>
		</g>
		<g>
			<g>
				<path fill="#F98FA6" d="M71.684,194.686c-0.408-0.356-0.649-0.827-0.737-1.321h-8.863c-0.088,0.495-0.329,0.965-0.737,1.321
					l-4.057,3.544l3.577,8.048h11.299l3.577-8.048L71.684,194.686z"/>
			</g>
		</g>
		<g>
			<g>
				<path d="M234.465,156.666c6.14-9.63,3.13-19.025,0.789-23.769c-0.611-1.237-2.11-1.747-3.349-1.135
					c-1.238,0.611-1.746,2.11-1.136,3.348c2.291,4.642,4.06,11.683-0.521,18.868c-1.148,1.803-1.254,4.06-0.272,5.891
					c1.527,2.85,3.543,8.499-0.124,14.306c-1.846,2.921-4.803,5.171-8.79,6.687c-1.29,0.491-1.938,1.935-1.448,3.225
					c0.38,0.999,1.329,1.612,2.337,1.612c0.296,0,0.596-0.053,0.889-0.164c5.021-1.909,8.804-4.833,11.239-8.691
					c5.21-8.248,1.948-16.271,0.305-19.337C234.229,157.221,234.324,156.885,234.465,156.666z"/>
			</g>
		</g>
		<g>
			<g>
				<path d="M163.294,180.854c-3.978-1.516-6.928-3.763-8.77-6.679c-3.667-5.808-1.651-11.456-0.123-14.307
					c0.98-1.831,0.875-4.087-0.273-5.891c-4.617-7.241-2.795-14.332-0.453-19.005c0.618-1.234,0.119-2.737-1.115-3.355
					c-1.234-0.618-2.736-0.119-3.355,1.115c-2.392,4.773-5.479,14.229,0.707,23.933c0.141,0.22,0.235,0.556,0.083,0.841
					c-1.645,3.067-4.906,11.09,0.303,19.338c2.432,3.851,6.205,6.772,11.216,8.682c0.293,0.112,0.594,0.165,0.891,0.165
					c1.007,0,1.956-0.613,2.336-1.61C165.231,182.79,164.584,181.346,163.294,180.854z"/>
			</g>
		</g>
		<g>
			<g>
				<path d="M222.706,112.8c-0.448,0-0.892,0.022-1.328,0.063c-1.375,0.131-2.383,1.351-2.253,2.726
					c0.132,1.375,1.355,2.389,2.726,2.252c0.282-0.027,0.567-0.041,0.855-0.041c5.224,0,9.473,4.25,9.473,9.473
					s-4.249,9.473-9.473,9.473c-0.317,0-0.647-0.021-1.007-0.063c-1.358-0.167-2.614,0.816-2.777,2.187s0.816,2.615,2.188,2.778
					c0.557,0.066,1.079,0.099,1.597,0.099c7.98,0,14.473-6.493,14.473-14.473S230.687,112.8,222.706,112.8z"/>
			</g>
		</g>
		<g>
			<g>
				<path d="M156.435,120.161c2.117,0.935,4.268,1.716,6.392,2.32c1.332,0.381,2.711-0.392,3.089-1.72
					c0.378-1.328-0.392-2.711-1.72-3.088c-1.903-0.542-3.834-1.243-5.741-2.085c-2.255-0.996-4.879-0.547-6.685,1.145
					c-2.905,2.725-4.572,6.566-4.572,10.541c0,7.98,6.492,14.473,14.473,14.473c0.403,0,0.802-0.02,1.196-0.057
					c1.374-0.126,2.387-1.343,2.26-2.718c-0.126-1.375-1.344-2.389-2.719-2.26c-0.242,0.022-0.488,0.035-0.737,0.035
					c-5.224,0-9.473-4.25-9.473-9.473c0-2.636,1.063-5.084,2.992-6.893C155.527,120.062,156.019,119.977,156.435,120.161z"/>
			</g>
		</g>
		<g>
			<g>
				<path d="M192.188,70.311c-22.881,0-41.496,18.615-41.496,41.496v6.919c0,1.381,1.119,2.5,2.5,2.5s2.5-1.119,2.5-2.5v-6.919
					c0-20.124,16.372-36.496,36.496-36.496c20.125,0,36.497,16.372,36.497,36.496v6.829c0,1.381,1.119,2.5,2.5,2.5
					s2.5-1.119,2.5-2.5v-6.829C233.685,88.926,215.069,70.311,192.188,70.311z"/>
			</g>
		</g>
		<g>
			<g>
				<path d="M202.12,145.546c-1.058-0.887-2.634-0.749-3.522,0.309c-1.403,1.674-3.8,2.674-6.41,2.674c-2.609,0-5.006-1-6.409-2.674
					c-0.89-1.058-2.464-1.196-3.522-0.309c-1.058,0.887-1.196,2.464-0.31,3.522c2.343,2.793,6.171,4.461,10.241,4.461
					c4.071,0,7.899-1.667,10.242-4.461C203.316,148.01,203.178,146.433,202.12,145.546z"/>
			</g>
		</g>
		<g>
			<g>
				<circle cx="204.665" cy="130.587" r="3.716"/>
			</g>
		</g>
		<g>
			<g>
				<path d="M179.711,126.872c-2.052,0-3.716,1.664-3.716,3.716s1.663,3.716,3.716,3.716s3.716-1.664,3.716-3.716
					S181.763,126.872,179.711,126.872z"/>
			</g>
		</g>
		<g>
			<g>
				<path d="M178.548,160.313c-1.381,0-2.5,1.119-2.5,2.5v8.243c0,1.701-0.823,3.332-2.203,4.362
					c-1.106,0.827-1.333,2.393-0.507,3.5c0.491,0.657,1.243,1.003,2.005,1.003c0.521,0,1.046-0.162,1.494-0.497
					c2.637-1.97,4.211-5.099,4.211-8.368v-8.243C181.048,161.432,179.929,160.313,178.548,160.313z"/>
			</g>
		</g>
		<g>
			<g>
				<path d="M210.531,175.418c-1.38-1.031-2.203-2.662-2.203-4.362v-8.4c0-1.381-1.119-2.5-2.5-2.5s-2.5,1.119-2.5,2.5v8.4
					c0,3.27,1.574,6.398,4.211,8.368c0.449,0.335,0.974,0.497,1.494,0.497c0.762,0,1.514-0.347,2.005-1.003
					C211.864,177.811,211.638,176.245,210.531,175.418z"/>
			</g>
		</g>
		<g>
			<g>
				<path d="M202.847,251h-21.317c-1.381,0-2.5,1.119-2.5,2.5s1.119,2.5,2.5,2.5h21.317c1.381,0,2.5-1.119,2.5-2.5
					S204.228,251,202.847,251z"/>
			</g>
		</g>
		<g>
			<g>
				<path d="M233.852,210.004c-1.381,0-2.5,1.119-2.5,2.5v39.452c0,1.381,1.119,2.5,2.5,2.5s2.5-1.119,2.5-2.5v-39.452
					C236.352,211.124,235.232,210.004,233.852,210.004z"/>
			</g>
		</g>
		<g>
			<g>
				<path d="M150.524,210.004c-1.381,0-2.5,1.119-2.5,2.5v39.452c0,1.381,1.119,2.5,2.5,2.5s2.5-1.119,2.5-2.5v-39.452
					C153.024,211.124,151.905,210.004,150.524,210.004z"/>
			</g>
		</g>
		<g>
			<g>
				<g>
					<g>
						<path d="M176.758,177.868c-0.079-0.826-0.563-1.559-1.292-1.956c-0.729-0.397-1.605-0.407-2.344-0.026
							c-0.04,0.021-0.129,0.072-0.197,0.112l-7.02,3.461c-1.424,0.702-2.927,1.254-4.467,1.642c0,0-0.065,0.017-0.066,0.017
							c-1.061,0.268-14.655,3.7-14.739,3.721l-5.698,1.438c-6.084,1.531-10.407,6.77-10.759,13.083l-1.795,49.335
							c-0.07,1.93,0.629,3.758,1.97,5.148c1.34,1.39,3.142,2.155,5.072,2.155h46.106c0.705,0,1.377-0.297,1.851-0.819
							c0.474-0.522,0.705-1.219,0.638-1.921L176.758,177.868z M135.423,251c-0.561,0-1.084-0.222-1.474-0.626
							s-0.593-0.935-0.572-1.496l1.793-49.287c0.228-4.069,3.034-7.47,6.986-8.465l5.704-1.439
							c0.173-0.044,13.679-3.453,14.735-3.72c0,0,0.052-0.013,0.063-0.016c1.882-0.473,3.718-1.148,5.457-2.006l4.014-1.979
							L178.777,251H135.423z"/>
					</g>
				</g>
			</g>
		</g>
		<g>
			<g>
				<g>
					<g>
						<path d="M254.198,199.312c-0.35-6.264-4.673-11.502-10.756-13.034l-5.692-1.437c-0.098-0.025-14.716-3.715-14.813-3.739
							c-1.54-0.388-3.042-0.94-4.466-1.642L211.455,176c-0.067-0.04-0.155-0.09-0.201-0.114c-0.737-0.38-1.614-0.371-2.344,0.026
							c-0.729,0.397-1.213,1.13-1.292,1.956l-7.26,75.392c-0.067,0.702,0.164,1.399,0.638,1.921
							c0.474,0.521,1.146,0.819,1.851,0.819h46.105c1.932,0,3.733-0.766,5.074-2.156c1.34-1.39,2.039-3.218,1.969-5.148
							L254.198,199.312z M250.427,250.374c-0.39,0.404-0.913,0.626-1.475,0.626h-43.354l6.647-69.034l4.014,1.979
							c1.739,0.858,3.574,1.533,5.459,2.007c0.175,0.044,14.618,3.69,14.797,3.735c0.001,0,0.003,0.001,0.005,0.001l5.7,1.439
							c3.951,0.995,6.758,4.396,6.983,8.416l1.795,49.335C251.02,249.439,250.816,249.97,250.427,250.374z"/>
					</g>
				</g>
			</g>
		</g>
		<g>
			<g>
				<g>
					<g>
						<path d="M219.666,109.367c-2.995-0.694-6.14-2.523-9.348-5.438c-0.884-0.803-2.07-1.216-3.255-1.146
							c-1.192,0.075-2.278,0.615-3.057,1.523c-0.001,0-0.001,0.001-0.001,0.001c-3.991,4.659-18.658,19.392-39.811,13.366
							c-0.751-0.215-1.564-0.064-2.19,0.409c-0.626,0.472-0.994,1.211-0.994,1.995v17.079c0,17.191,13.985,31.178,31.177,31.178
							s31.178-13.986,31.178-31.178v-23.168C223.365,111.772,221.844,109.872,219.666,109.367z M218.365,137.156
							c0,14.435-11.743,26.178-26.178,26.178c-14.434,0-26.177-11.743-26.177-26.178v-13.892
							c21.629,4.46,36.613-9.828,41.388-15.239c3.646,3.218,7.332,5.293,10.967,6.172V137.156z"/>
					</g>
				</g>
			</g>
		</g>
		<g>
			<g>
				<path d="M192.188,204.584c-1.381,0-2.5,1.119-2.5,2.5v36.166c0,1.381,1.119,2.5,2.5,2.5s2.5-1.119,2.5-2.5v-36.166
					C194.688,205.704,193.568,204.584,192.188,204.584z"/>
			</g>
		</g>
		<g>
			<g>
				<g>
					<g>
						<path d="M94.727,101.153L94.727,101.153c-2.903-3.042-7.604-3.362-10.938-0.746c-3.393,2.664-9.138,5.838-17.239,5.838
							c-8.119,0-13.896-3.187-17.312-5.861c-3.332-2.606-8.027-2.28-10.934,0.769c-3.283,3.443-5.091,7.959-5.091,12.716v25.85
							c0,18.363,14.939,33.302,33.302,33.302s33.302-14.939,33.302-33.302v-25.85C99.816,109.111,98.009,104.595,94.727,101.153z
							 M94.816,139.719c0,15.605-12.696,28.302-28.302,28.302s-28.302-12.696-28.302-28.302v-25.85c0-3.466,1.317-6.757,3.721-9.277
							c0.605-0.635,1.419-0.959,2.244-0.959c0.69,0,1.388,0.227,1.978,0.688c4.036,3.158,10.85,6.923,20.394,6.923
							c9.53,0,16.313-3.755,20.327-6.905c1.296-1.018,3.117-0.906,4.231,0.264c2.392,2.508,3.709,5.799,3.709,9.265V139.719z"/>
					</g>
				</g>
			</g>
		</g>
		<g>
			<g>
				<path d="M110.075,210.752c-1.381,0-2.5,1.119-2.5,2.5v39c0,1.381,1.119,2.5,2.5,2.5s2.5-1.119,2.5-2.5v-39
					C112.575,211.871,111.456,210.752,110.075,210.752z"/>
			</g>
		</g>
		<g>
			<g>
				<path d="M22.955,210.752c-1.381,0-2.5,1.119-2.5,2.5v39c0,1.381,1.119,2.5,2.5,2.5s2.5-1.119,2.5-2.5v-39
					C25.455,211.871,24.336,210.752,22.955,210.752z"/>
			</g>
		</g>
		<g>
			<g>
				<g>
					<g>
						<path d="M99.293,113.744c-0.769,0-1.563,0.063-2.359,0.186c-1.219,0.189-2.117,1.238-2.117,2.471v23.318
							c0,0.568-0.022,1.171-0.071,1.898c-0.087,1.289,0.822,2.431,2.097,2.636c0.883,0.142,1.685,0.211,2.451,0.211
							c8.47,0,15.36-6.891,15.36-15.36S107.763,113.744,99.293,113.744z M99.816,139.451v-20.693
							c5.471,0.273,9.837,4.81,9.837,10.347S105.287,139.177,99.816,139.451z"/>
					</g>
				</g>
			</g>
		</g>
		<g>
			<g>
				<g>
					<g>
						<path d="M38.213,139.719v-23.318c0-1.232-0.898-2.281-2.116-2.47c-0.796-0.124-1.591-0.187-2.36-0.187
							c-8.469,0-15.359,6.891-15.359,15.36s6.891,15.36,15.359,15.36c0.77,0,1.572-0.069,2.453-0.212
							c1.274-0.206,2.183-1.348,2.096-2.635C38.236,140.88,38.213,140.277,38.213,139.719z M33.213,139.451
							c-5.47-0.273-9.836-4.81-9.836-10.347s4.366-10.073,9.836-10.347V139.451z"/>
					</g>
				</g>
			</g>
		</g>
		<g>
			<g>
				<g>
					<g>
						<path d="M97.745,87.485c-0.223-5.737-2.42-10.377-6.539-13.797c-9.711-8.063-26.55-6.611-35.725-5.025
							c-17.799,3.073-30.718,18.409-30.718,36.465v12.877c0,0.896,0.479,1.723,1.256,2.168c0.777,0.446,1.733,0.441,2.507-0.011
							c1.587-0.928,3.389-1.419,5.21-1.419c0.512,0,1.048,0.043,1.593,0.127c0.721,0.112,1.455-0.097,2.011-0.572
							c0.554-0.475,0.873-1.168,0.873-1.898v-2.532c0-3.466,1.317-6.757,3.721-9.277c1.112-1.167,2.928-1.283,4.222-0.271
							c4.036,3.158,10.85,6.923,20.394,6.923c9.529,0,16.313-3.755,20.327-6.905c1.296-1.018,3.117-0.905,4.231,0.263
							c2.392,2.508,3.709,5.799,3.709,9.266v2.532c0,0.73,0.319,1.423,0.873,1.898c0.554,0.474,1.29,0.683,2.01,0.572
							c0.555-0.086,1.075-0.128,1.594-0.128c1.842,0,3.663,0.502,5.267,1.453c0.394,0.233,0.834,0.35,1.275,0.35
							c0.427,0,0.854-0.109,1.237-0.328c0.78-0.445,1.263-1.274,1.263-2.172v-10.573C108.335,90.806,101.938,87.716,97.745,87.485z
							 M103.335,114.291c-1.146-0.315-2.327-0.497-3.519-0.538c-0.029-4.715-1.834-9.186-5.09-12.601
							c-2.903-3.042-7.604-3.362-10.938-0.746c-3.393,2.664-9.138,5.838-17.239,5.838c-8.119,0-13.896-3.187-17.312-5.861
							c-3.332-2.606-8.027-2.28-10.934,0.769c-3.256,3.415-5.062,7.886-5.091,12.6c-1.167,0.04-2.324,0.215-3.449,0.519v-9.144
							c0-15.616,11.174-28.88,26.569-31.539c14.165-2.447,25.713-1.008,31.679,3.945c3.134,2.603,4.688,6.083,4.75,10.644
							c0.034,2.366,2.025,4.292,4.44,4.292c3.897,0,6.133,5.469,6.133,15.003V114.291z"/>
					</g>
				</g>
			</g>
		</g>
		<g>
			<g>
				<path d="M78.507,251H54.523c-1.381,0-2.5,1.119-2.5,2.5s1.119,2.5,2.5,2.5h23.983c1.381,0,2.5-1.119,2.5-2.5
					S79.888,251,78.507,251z"/>
			</g>
		</g>
		<g>
			<g>
				<path d="M52.324,165.031c-1.381,0-2.5,1.119-2.5,2.5v4.507c0,1.606-0.473,3.165-1.367,4.507
					c-0.766,1.148-0.455,2.701,0.693,3.466c0.427,0.284,0.908,0.42,1.385,0.42c0.808,0,1.601-0.391,2.082-1.114
					c1.444-2.167,2.207-4.684,2.207-7.28v-4.507C54.824,166.15,53.705,165.031,52.324,165.031z"/>
			</g>
		</g>
		<g>
			<g>
				<path d="M84.652,176.663c-0.947-1.37-1.447-2.969-1.447-4.624v-4.601c0-1.381-1.119-2.5-2.5-2.5s-2.5,1.119-2.5,2.5v4.601
					c0,2.676,0.808,5.258,2.334,7.467c0.485,0.702,1.266,1.079,2.059,1.079c0.49,0,0.986-0.144,1.42-0.443
					C85.153,179.355,85.437,177.798,84.652,176.663z"/>
			</g>
		</g>
		<g>
			<g>
				<g>
					<g>
						<path d="M56.992,253.104l-11.42-71.195c-0.224-1.39-1.042-2.605-2.245-3.335c-1.205-0.729-2.659-0.892-3.997-0.448
							c0,0,0,0-0.001,0l-20.139,6.714c-7.729,2.576-13.291,9.473-14.171,17.571l-4.978,45.781c-0.217,1.987,0.425,3.979,1.76,5.467
							C3.137,255.146,5.049,256,7.048,256h47.476c0.732,0,1.428-0.321,1.902-0.878C56.901,254.564,57.107,253.827,56.992,253.104z
							 M7.048,251c-0.59,0-1.131-0.242-1.524-0.68s-0.574-1.002-0.511-1.588L9.99,202.95c0.67-6.161,4.901-11.408,10.781-13.368
							l19.903-6.635L51.591,251H7.048z"/>
					</g>
				</g>
			</g>
		</g>
		<g>
			<g>
				<g>
					<g>
						<path d="M132.988,248.191l-4.978-45.781c-0.88-8.098-6.442-14.995-14.17-17.571L93.7,178.125
							c-1.337-0.446-2.792-0.281-3.996,0.448c-1.204,0.73-2.022,1.946-2.246,3.336l-11.42,71.195
							c-0.115,0.723,0.091,1.46,0.566,2.018c0.475,0.558,1.17,0.878,1.902,0.878h47.476c1.998,0,3.91-0.853,5.245-2.34
							C132.563,252.172,133.204,250.179,132.988,248.191z M127.506,250.32c-0.394,0.438-0.935,0.68-1.523,0.68H81.439l10.916-68.052
							l19.903,6.634c5.88,1.96,10.111,7.208,10.781,13.368l4.978,45.781C128.081,249.317,127.899,249.882,127.506,250.32z"/>
					</g>
				</g>
			</g>
		</g>
		<g>
			<g>
				<g>
					<path d="M76.914,145.938c-1.056-0.886-2.634-0.749-3.521,0.31c-1.407,1.68-3.812,2.682-6.43,2.682s-5.022-1.002-6.43-2.682
						c-0.885-1.058-2.463-1.197-3.521-0.31c-1.059,0.887-1.197,2.464-0.311,3.522c2.347,2.799,6.183,4.47,10.262,4.47
						s7.915-1.671,10.262-4.47C78.111,148.402,77.973,146.825,76.914,145.938z"/>
				</g>
			</g>
			<g>
				<g>
					<path d="M80.859,126.387c-2.286,0-4.138,1.853-4.138,4.138s1.853,4.138,4.138,4.138c2.286,0,4.138-1.853,4.138-4.138
						S83.145,126.387,80.859,126.387z"/>
				</g>
			</g>
			<g>
				<g>
					<circle cx="53.067" cy="130.526" r="4.138"/>
				</g>
			</g>
		</g>
		<g>
			<g>
				<path fill="#70D6F9" d="M215.906,39.1h-2.4v-2.3c0-1.8-1.4-3.2-3.2-3.2c-1.7,0-3.2,1.4-3.2,3.1v2.4h-2.3c-1.8,0-3.2,1.4-3.2,3.2
					c-0.1,1.7,1.3,3.2,3.2,3.2h2.3v2.3c0,1.8,1.4,3.2,3.2,3.2c1.7,0,3.2-1.4,3.2-3.1v-2.4h2.3c1.8,0,3.2-1.4,3.2-3.2
					C219.006,40.6,217.606,39.1,215.906,39.1z"/>
			</g>
		</g>
		<g>
			<g>
				<path fill="#F5C84C" d="M231.206,56.5c-1.878,0-3.4,1.522-3.4,3.4c0,1.878,1.522,3.4,3.4,3.4s3.4-1.522,3.4-3.4
					C234.606,58.022,233.083,56.5,231.206,56.5z"/>
			</g>
		</g>
		<g>
			<g>
				<path fill="#FC657E" d="M15.15,78.175c-3.1-0.6-5.6-3-6.2-6.1c0-0.1-0.3-0.1-0.3,0c-0.6,3.1-3.1,5.5-6.2,6.1
					c-0.1,0-0.1,0.2,0,0.3c3.1,0.6,5.6,3,6.2,6.1c0,0.1,0.3,0.1,0.3,0c0.6-3.1,3.1-5.5,6.2-6.1
					C15.25,78.375,15.25,78.175,15.15,78.175z"/>
			</g>
		</g>
		<g>
			<g>
				<path fill="#87D147" d="M79.369,0c-1.878,0-3.4,1.522-3.4,3.4c0,1.878,1.522,3.4,3.4,3.4c1.878,0,3.4-1.522,3.4-3.4
					C82.769,1.522,81.246,0,79.369,0z"/>
			</g>
		</g>
		<g>
			<g>
				<path fill="#F5C84C" d="M68.15,23.2c-4.5-0.8-8-4.3-8.9-8.7c0-0.2-0.4-0.2-0.4,0c-0.9,4.4-4.4,7.9-8.9,8.7c-0.2,0-0.2,0.3,0,0.4
					c4.5,0.8,8,4.3,8.9,8.7c0,0.2,0.4,0.2,0.4,0c0.9-4.4,4.4-7.9,8.9-8.7C68.35,23.5,68.35,23.2,68.15,23.2z"/>
			</g>
		</g>
		<g>
			<g>
				<path d="M135.102,37.713c-0.977-0.976-2.559-0.976-3.535,0l-4.349,4.349l-2.601-2.601c-0.977-0.977-2.559-0.976-3.535,0
					c-0.977,0.976-0.977,2.559,0,3.536l4.368,4.369c0.469,0.469,1.104,0.732,1.768,0.732s1.299-0.263,1.768-0.732l6.116-6.117
					C136.078,40.272,136.078,38.689,135.102,37.713z"/>
			</g>
		</g>
		<g>
			<g>
				<g>
					<g>
						<path d="M128,24.567c-9.618,0-17.443,7.825-17.443,17.443S118.382,59.453,128,59.453s17.443-7.825,17.443-17.443
							S137.618,24.567,128,24.567z M128,54.453c-6.861,0-12.443-5.582-12.443-12.443S121.139,29.567,128,29.567
							s12.443,5.582,12.443,12.443S134.861,54.453,128,54.453z M165.3,31.406h-8.311c-0.297-0.815-0.628-1.616-0.99-2.398
							l5.874-5.874c0.89-0.889,1.38-2.072,1.38-3.331s-0.49-2.441-1.38-3.331l-8.335-8.335c-0.889-0.891-2.072-1.381-3.331-1.381
							c-1.258,0-2.44,0.49-3.33,1.379l-5.875,5.875c-0.781-0.362-1.582-0.693-2.397-0.99V4.71c0-2.597-2.113-4.71-4.71-4.71h-11.789
							c-2.597,0-4.71,2.113-4.71,4.71v8.311c-0.815,0.297-1.616,0.628-2.397,0.99l-5.875-5.874c-0.89-0.89-2.072-1.38-3.33-1.38
							c-1.259,0-2.442,0.49-3.33,1.38l-8.336,8.336c-0.89,0.89-1.38,2.072-1.38,3.331s0.49,2.441,1.38,3.33l5.874,5.875
							c-0.362,0.782-0.693,1.583-0.99,2.398H90.7c-2.597,0-4.71,2.113-4.71,4.71v11.789c0,2.597,2.113,4.71,4.71,4.71h8.311
							c0.297,0.815,0.628,1.616,0.99,2.398l-5.874,5.874c-1.837,1.836-1.837,4.825,0,6.661l8.335,8.335
							c0.889,0.891,2.072,1.381,3.331,1.381c1.258,0,2.44-0.49,3.33-1.379l5.875-5.875c0.781,0.362,1.582,0.693,2.397,0.99v8.31
							c0,2.597,2.113,4.71,4.71,4.71h11.789c2.597,0,4.71-2.113,4.71-4.71V71c0.815-0.297,1.616-0.628,2.397-0.99l5.875,5.874
							c0.89,0.89,2.072,1.38,3.33,1.38c1.259,0,2.442-0.49,3.33-1.38l8.336-8.336c1.837-1.836,1.837-4.825,0-6.661l-5.874-5.874
							c0.362-0.782,0.693-1.583,0.99-2.398h8.311c2.597,0,4.71-2.113,4.71-4.71V36.116C170.01,33.519,167.896,31.406,165.3,31.406z
							 M165.01,47.615h-9.825c-1.105,0-2.08,0.727-2.396,1.787c-0.511,1.718-1.194,3.371-2.03,4.912
							c-0.527,0.973-0.352,2.177,0.431,2.959l6.944,6.945l-7.926,7.926l-6.945-6.944c-0.782-0.783-1.986-0.958-2.959-0.43
							c-1.542,0.836-3.194,1.52-4.912,2.031c-1.06,0.315-1.786,1.29-1.786,2.396v9.825h-11.209v-9.825
							c0-1.106-0.727-2.081-1.786-2.396c-1.718-0.511-3.37-1.194-4.912-2.031c-0.973-0.527-2.177-0.353-2.959,0.43l-6.945,6.944
							l-7.926-7.926l6.944-6.945c0.782-0.782,0.958-1.986,0.431-2.959c-0.836-1.542-1.52-3.194-2.03-4.912
							c-0.316-1.06-1.291-1.787-2.396-1.787H90.99V36.406h9.825c1.105,0,2.08-0.727,2.396-1.787c0.511-1.718,1.194-3.371,2.03-4.912
							c0.527-0.973,0.352-2.177-0.431-2.959l-6.944-6.945l7.926-7.926l6.945,6.944c0.782,0.783,1.986,0.958,2.959,0.43
							c1.542-0.836,3.194-1.52,4.912-2.031c1.06-0.315,1.786-1.29,1.786-2.396V5h11.209v9.825c0,1.106,0.727,2.081,1.786,2.396
							c1.718,0.511,3.37,1.194,4.912,2.031c0.973,0.527,2.177,0.353,2.959-0.43l6.945-6.944l7.926,7.926l-6.944,6.945
							c-0.782,0.782-0.958,1.986-0.431,2.959c0.836,1.542,1.52,3.194,2.03,4.912c0.316,1.06,1.291,1.787,2.396,1.787h9.825V47.615z"
							/>
					</g>
				</g>
			</g>
		</g>
		<g>
			<g>
				<path d="M44.735,252.063l-5.685-15.159c-0.324-0.865-0.251-1.823,0.202-2.628l4.426-7.868c0.737-1.311,0.907-2.887,0.467-4.324
					c-0.441-1.437-1.466-2.647-2.81-3.318l-3.739-1.87c-1.065-0.533-1.728-1.604-1.728-2.795v-30.558c0-1.381-1.119-2.5-2.5-2.5
					s-2.5,1.119-2.5,2.5V214.1c0,3.097,1.721,5.882,4.491,7.267l3.74,1.87c0.164,0.083,0.234,0.215,0.265,0.313
					c0.029,0.097,0.046,0.247-0.044,0.407l-4.426,7.868c-1.179,2.095-1.37,4.587-0.526,6.836l5.685,15.158
					c0.376,1.003,1.329,1.623,2.341,1.623c0.292,0,0.589-0.051,0.878-0.16C44.565,254.796,45.22,253.355,44.735,252.063z"/>
			</g>
		</g>
		<g>
			<g>
				<path d="M99.66,181.042c-1.381,0-2.5,1.119-2.5,2.5V214.1c0,1.191-0.662,2.262-1.728,2.795l-3.739,1.87
					c-1.344,0.672-2.368,1.882-2.809,3.319c-0.44,1.438-0.271,3.013,0.467,4.324l4.426,7.868c0.453,0.806,0.526,1.764,0.202,2.629
					l-5.655,15.081c-0.484,1.293,0.17,2.734,1.463,3.219c0.289,0.108,0.586,0.16,0.878,0.16c1.012,0,1.965-0.619,2.341-1.623
					l5.655-15.081c0.844-2.25,0.652-4.741-0.526-6.836l-4.426-7.868c-0.09-0.16-0.073-0.31-0.044-0.407
					c0.03-0.097,0.101-0.23,0.265-0.313l3.738-1.869c2.771-1.385,4.492-4.169,4.492-7.267v-30.558
					C102.16,182.161,101.041,181.042,99.66,181.042z"/>
			</g>
		</g>
		<g>
			<g>
				<path d="M93.429,178.37l-4.25-3.712c-0.964-0.842-2.196-1.259-3.475-1.172c-1.276,0.086-2.442,0.664-3.284,1.628l-12.837,14.697
					c-0.842,0.963-1.258,2.197-1.172,3.474c0.086,1.276,0.664,2.443,1.628,3.284l6.901,6.028c0.881,0.77,1.986,1.183,3.145,1.183
					c0.109,0,0.22-0.003,0.33-0.011c1.276-0.086,2.442-0.664,3.284-1.628l6.254-7.161c0.908-1.04,0.802-2.619-0.238-3.527
					c-1.039-0.908-2.619-0.803-3.527,0.238l-6.115,7.002l-6.585-5.751l12.56-14.38l4.093,3.574c1.038,0.908,2.618,0.802,3.527-0.238
					C94.575,180.857,94.469,179.278,93.429,178.37z"/>
			</g>
		</g>
		<g>
			<g>
				<path d="M63.447,189.812L50.61,175.114c-0.842-0.964-2.008-1.542-3.284-1.628c-1.279-0.087-2.511,0.33-3.474,1.171l-4.228,3.692
					c-1.04,0.908-1.146,2.487-0.238,3.527c0.908,1.04,2.488,1.147,3.527,0.238l4.069-3.554l12.56,14.38l-6.585,5.751l-6.09-6.972
					c-0.908-1.041-2.489-1.146-3.527-0.238c-1.04,0.908-1.146,2.487-0.238,3.527l6.229,7.131c0.842,0.964,2.008,1.542,3.284,1.628
					c0.11,0.008,0.221,0.011,0.33,0.011c1.158,0,2.264-0.414,3.144-1.183l6.902-6.028c0.964-0.841,1.542-2.008,1.628-3.284
					C64.705,192.008,64.289,190.774,63.447,189.812z"/>
			</g>
		</g>
		<g>
			<g>
				<path d="M74.652,206.033c-0.135-1.375-1.364-2.372-2.732-2.244c-1.374,0.135-2.379,1.358-2.244,2.732l4.573,46.592
					c0.127,1.291,1.215,2.256,2.485,2.256c0.082,0,0.164-0.004,0.247-0.012c1.374-0.135,2.379-1.358,2.244-2.732L74.652,206.033z"/>
			</g>
		</g>
		<g>
			<g>
				<path d="M61.109,203.789c-1.371-0.127-2.598,0.87-2.732,2.244l-4.573,46.592c-0.135,1.374,0.87,2.597,2.244,2.732
					c0.083,0.008,0.165,0.012,0.247,0.012c1.271,0,2.358-0.965,2.485-2.256l4.573-46.592
					C63.488,205.147,62.483,203.924,61.109,203.789z"/>
			</g>
		</g>
		<g>
			<g>
				<g>
					<path d="M76.569,196.367c-1.261-0.559-2.738,0.006-3.3,1.269l-2.73,6.142H62.49l-2.637-5.932c-0.562-1.263-2.04-1.829-3.3-1.27
						c-1.262,0.561-1.83,2.038-1.269,3.3l3.296,7.417c0.4,0.903,1.296,1.485,2.284,1.485h11.299c0.988,0,1.883-0.582,2.284-1.484
						l3.39-7.626C78.399,198.406,77.831,196.928,76.569,196.367z"/>
				</g>
			</g>
			<g>
				<g>
					<path d="M70.22,190.865h-7.313c-1.381,0-2.5,1.119-2.5,2.5s1.119,2.5,2.5,2.5h7.313c1.381,0,2.5-1.119,2.5-2.5
						S71.601,190.865,70.22,190.865z"/>
				</g>
			</g>
		</g>
		<g>
			<g>
				<path d="M166.013,237.035c-0.25-0.775-0.106-1.628,0.383-2.281l3.277-4.369c2.108-2.811,1.968-6.779-0.333-9.434l-6.513-7.514
					c-0.43-0.496-0.646-1.13-0.611-1.785l1.492-27.362c0.075-1.379-0.981-2.557-2.36-2.632c-1.368-0.086-2.557,0.981-2.632,2.36
					l-1.492,27.363c-0.106,1.958,0.542,3.852,1.825,5.332l6.512,7.514c0.771,0.89,0.818,2.218,0.112,3.16l-3.277,4.37
					c-1.462,1.95-1.889,4.498-1.142,6.814l4.873,15.132c0.342,1.06,1.323,1.734,2.379,1.734c0.254,0,0.513-0.039,0.768-0.121
					c1.314-0.423,2.036-1.832,1.613-3.146L166.013,237.035z"/>
			</g>
		</g>
		<g>
			<g>
				<path d="M225.326,216.712c1.284-1.48,1.933-3.374,1.826-5.333l-1.491-27.324c-0.074-1.378-1.245-2.443-2.633-2.36
					c-1.378,0.075-2.435,1.253-2.359,2.632l1.491,27.323c0.035,0.656-0.182,1.291-0.612,1.787l-6.512,7.514
					c-2.301,2.655-2.441,6.623-0.333,9.434l3.277,4.369c0.489,0.653,0.632,1.506,0.382,2.283l-4.906,15.236
					c-0.423,1.314,0.3,2.723,1.613,3.146c0.255,0.082,0.514,0.121,0.768,0.121c1.056,0,2.037-0.675,2.379-1.734l4.906-15.236
					c0.746-2.318,0.319-4.866-1.142-6.815l-3.277-4.369c-0.706-0.941-0.659-2.27,0.112-3.16L225.326,216.712z"/>
			</g>
		</g>
		<g>
			<g>
				<path d="M189.831,189.326l-12.66-13.608c-0.868-0.935-2.305-1.064-3.326-0.3c-0.271,0.203-0.512,0.358-0.736,0.476
					c-1.223,0.641-1.694,2.152-1.053,3.375c0.539,1.029,1.696,1.527,2.776,1.275l11.339,12.188c0.048,0.052,0.044,0.163-0.008,0.211
					l-3.059,2.845c-1.623,1.51-3.742,2.233-5.953,2.046c-1.381-0.12-2.587,0.901-2.705,2.277c-0.118,1.375,0.901,2.586,2.277,2.705
					c0.38,0.033,0.759,0.049,1.135,0.049c3.224,0,6.261-1.191,8.652-3.416l3.059-2.845c1.007-0.937,1.589-2.21,1.639-3.585
					C191.257,191.645,190.769,190.333,189.831,189.326z"/>
			</g>
		</g>
		<g>
			<g>
				<path d="M211.266,175.893c-0.225-0.117-0.458-0.268-0.734-0.475c-1.023-0.765-2.458-0.635-3.326,0.3l-12.66,13.607
					c-0.938,1.007-1.426,2.319-1.377,3.693c0.05,1.375,0.632,2.648,1.639,3.584l3.059,2.846c2.391,2.225,5.428,3.417,8.652,3.416
					c0.376,0,0.755-0.016,1.135-0.049c1.376-0.118,2.396-1.329,2.277-2.705s-1.332-2.401-2.705-2.277
					c-2.214,0.191-4.331-0.536-5.953-2.046l-3.059-2.846c-0.052-0.048-0.056-0.159-0.008-0.211l11.339-12.188
					c1.081,0.25,2.238-0.248,2.777-1.278C212.962,178.043,212.488,176.533,211.266,175.893z"/>
			</g>
		</g>
		<g>
			<g>
				<path d="M195.094,190.865h-5.844c-1.381,0-2.5,1.119-2.5,2.5s1.119,2.5,2.5,2.5h5.844c1.381,0,2.5-1.119,2.5-2.5
					S196.475,190.865,195.094,190.865z"/>
			</g>
		</g>
	</g>
</g>
<g id="Layer_35">
</g>
<g id="Layer_36">
</g>
<g id="Layer_37">
</g>
<g id="Layer_38">
</g>
<g id="Layer_39">
</g>
<g id="Layer_40">
</g>
<g id="Layer_41">
</g>
<g id="Layer_42">
</g>
<g id="Layer_43">
</g>
<g id="Layer_44">
</g>
<g id="Layer_45">
</g>
<g id="Layer_46">
</g>
<g id="Layer_47">
</g>
<g id="Layer_48">
</g>
<g id="Layer_49">
</g>
<g id="Layer_50">
</g>
<g id="Layer_51">
</g>
<g id="Layer_52">
</g>
<g id="Layer_53">
</g>
<g id="Layer_54">
</g>
<g id="Layer_55">
</g>
<g id="Layer_56">
</g>
<g id="Layer_57">
</g>
<g id="Layer_58">
</g>
<g id="Layer_59">
</g>
<g id="Layer_60">
</g>
<g id="Layer_61">
</g>
<g id="Layer_62">
</g>
<g id="Layer_63">
</g>
<g id="Layer_64">
</g>
<g id="Layer_65">
</g>
<g id="Layer_66">
</g>
<g id="Layer_67">
</g>
<g id="Layer_68">
</g>
<g id="Layer_69">
</g>
<g id="Layer_70">
</g>
<g id="Layer_71">
</g>
<g id="Layer_72">
</g>
<g id="Layer_73">
</g>
<g id="Layer_74">
</g>
<g id="Layer_75">
</g>
<g id="Layer_76">
</g>
<g id="Layer_77">
</g>
<g id="Layer_78">
</g>
<g id="Layer_79">
</g>
<g id="Layer_80">
</g>
</svg>
