<?xml version="1.0" encoding="utf-8"?>
<!-- Generator: Adobe Illustrator 24.0.0, SVG Export Plug-In . SVG Version: 6.00 Build 0)  -->
<svg version="1.1" xmlns="http://www.w3.org/2000/svg" xmlns:xlink="http://www.w3.org/1999/xlink" x="0px" y="0px"
	 viewBox="0 0 256 256" enable-background="new 0 0 256 256" xml:space="preserve">
<g id="Layer_1">
</g>
<g id="Layer_2">
</g>
<g id="Layer_3">
</g>
<g id="Layer_4">
</g>
<g id="Layer_5">
</g>
<g id="Layer_6">
</g>
<g id="Layer_7">
</g>
<g id="Layer_8">
</g>
<g id="Layer_9">
</g>
<g id="Layer_10">
</g>
<g id="Layer_11">
</g>
<g id="Layer_12">
</g>
<g id="Layer_13">
</g>
<g id="Layer_14">
</g>
<g id="Layer_15">
</g>
<g id="Layer_16">
</g>
<g id="Layer_17">
</g>
<g id="Layer_18">
</g>
<g id="Layer_19">
</g>
<g id="Layer_20">
</g>
<g id="Layer_21">
</g>
<g id="Layer_22">
</g>
<g id="Layer_23">
</g>
<g id="Layer_24">
</g>
<g id="Layer_25">
</g>
<g id="Layer_26">
</g>
<g id="Layer_27">
</g>
<g id="Layer_28">
</g>
<g id="Layer_29">
</g>
<g id="Layer_30">
</g>
<g id="Layer_31">
</g>
<g id="Layer_32">
</g>
<g id="Layer_33">
</g>
<g id="Layer_34">
</g>
<g id="Layer_35">
	<g>
		<g>
			<g>
				<path fill="#FC657E" d="M214.296,15.703h-80.933c-11.229,0-20.416,9.187-20.416,20.416v58.194
					c0,11.229,9.187,20.416,20.416,20.416h4.893c3.599,0,6.516,2.917,6.516,6.516v6.874c0,3.191,3.82,4.774,6.126,2.568
					c3.202-3.063,5.763-6.407,7.81-9.745c2.336-3.811,6.408-6.213,10.878-6.213h44.711c11.229,0,20.416-9.187,20.416-20.416V36.119
					C234.712,24.891,225.525,15.703,214.296,15.703z"/>
			</g>
		</g>
		<g>
			<g>
				<path fill="#FC657E" d="M61.082,160.242l-26.365,9.901c-10.567,3.968-15.916,15.75-11.948,26.317l0,0
					c3.968,10.567,15.751,15.916,26.317,11.948l26.365-9.901L61.082,160.242z"/>
			</g>
		</g>
		<g>
			<g>
				<path fill="#FC657E" d="M133.615,193.058l-25.159-66.998c-1.58-4.207-6.271-6.337-10.478-4.757
					c-4.207,1.58-6.337,6.271-4.757,10.478l25.159,66.998c1.58,4.207,6.271,6.337,10.478,4.757
					C133.065,201.956,135.195,197.265,133.615,193.058z"/>
			</g>
		</g>
		<g>
			<g>
				<path fill="#DAE6F1" d="M89.169,225.001L69.36,200.795l-18.512,6.952l23.828,29.116c2.542,3.106,6.781,4.247,10.539,2.836
					C91.216,237.445,93.229,229.962,89.169,225.001z"/>
			</g>
		</g>
		<g>
			<g>
				<path fill="#DAE6F1" d="M94.145,134.239c-7.92,11.527-14.739,19.122-28.825,24.412l-4.237,1.591l14.369,38.265l4.237-1.591
					c14.087-5.29,24.219-4.061,37.769-0.595L94.145,134.239z"/>
			</g>
		</g>
		<g>
			<g>
				<path fill="#DAE6F1" d="M136.093,153.905L136.093,153.905c-3.17-8.441-12.438-12.789-20.919-9.956l11.724,31.221
					C135.147,171.719,139.262,162.346,136.093,153.905z"/>
			</g>
		</g>
		<g>
			<g>
				<path fill="#F5C84C" d="M220.537,64.679c1.018-0.992,0.456-2.721-0.951-2.926l-5.948-0.864
					c-0.559-0.081-1.042-0.432-1.292-0.938l-2.66-5.39c-0.629-1.275-2.447-1.275-3.076,0l-2.66,5.39
					c-0.25,0.506-0.733,0.857-1.291,0.938l-5.948,0.864c-1.407,0.204-1.969,1.933-0.95,2.926l4.304,4.196
					c0.404,0.394,0.589,0.962,0.493,1.518l-1.016,5.924c-0.24,1.401,1.23,2.47,2.489,1.808l5.32-2.797
					c0.5-0.263,1.096-0.263,1.596,0l5.32,2.797c1.258,0.662,2.729-0.407,2.489-1.808l-1.016-5.924
					c-0.095-0.556,0.089-1.124,0.493-1.518L220.537,64.679z"/>
			</g>
		</g>
		<g>
			<g>
				<path fill="#F5C84C" d="M151.899,64.679c1.018-0.992,0.456-2.721-0.95-2.926L145,60.89c-0.559-0.081-1.042-0.432-1.291-0.938
					l-2.66-5.39c-0.629-1.275-2.447-1.275-3.076,0l-2.66,5.39c-0.25,0.506-0.733,0.857-1.292,0.938l-5.948,0.864
					c-1.407,0.204-1.969,1.933-0.951,2.926l4.304,4.196c0.404,0.394,0.589,0.962,0.493,1.518l-1.016,5.924
					c-0.24,1.401,1.23,2.47,2.489,1.808l5.32-2.797c0.5-0.263,1.097-0.263,1.596,0l5.32,2.797c1.258,0.662,2.729-0.407,2.489-1.808
					l-1.016-5.924c-0.095-0.556,0.089-1.124,0.493-1.518L151.899,64.679z"/>
			</g>
		</g>
		<g>
			<g>
				<path fill="#F5C84C" d="M186.218,64.679c1.018-0.992,0.456-2.721-0.951-2.926l-5.948-0.864
					c-0.559-0.081-1.042-0.432-1.292-0.938l-2.66-5.39c-0.629-1.275-2.447-1.275-3.076,0l-2.66,5.39
					c-0.25,0.506-0.733,0.857-1.292,0.938l-5.948,0.864c-1.407,0.204-1.969,1.933-0.951,2.926l4.304,4.196
					c0.404,0.394,0.589,0.962,0.493,1.518l-1.016,5.924c-0.24,1.401,1.23,2.47,2.489,1.808l5.32-2.797
					c0.5-0.263,1.097-0.263,1.596,0l5.32,2.797c1.258,0.662,2.729-0.407,2.489-1.808l-1.016-5.924
					c-0.095-0.556,0.089-1.124,0.493-1.518L186.218,64.679z"/>
			</g>
		</g>
		<g>
			<g>
				<path fill="#70D6F9" d="M155.906,226.1h-2.4v-2.3c0-1.8-1.4-3.2-3.2-3.2c-1.7,0-3.2,1.4-3.2,3.1v2.4h-2.3
					c-1.8,0-3.2,1.4-3.2,3.2c-0.1,1.7,1.3,3.2,3.2,3.2h2.3v2.3c0,1.8,1.4,3.2,3.2,3.2c1.7,0,3.2-1.4,3.2-3.1v-2.4h2.3
					c1.8,0,3.2-1.4,3.2-3.2C159.006,227.6,157.606,226.1,155.906,226.1z"/>
			</g>
		</g>
		<g>
			<g>
				<path fill="#87D147" d="M102.206,0c-1.878,0-3.4,1.522-3.4,3.4c0,1.878,1.522,3.4,3.4,3.4s3.4-1.522,3.4-3.4
					C105.606,1.522,104.083,0,102.206,0z"/>
			</g>
		</g>
		<g>
			<g>
				<path fill="#FC657E" d="M42.15,123.175c-3.1-0.6-5.6-3-6.2-6.1c0-0.1-0.3-0.1-0.3,0c-0.6,3.1-3.1,5.5-6.2,6.1
					c-0.1,0-0.1,0.2,0,0.3c3.1,0.6,5.6,3,6.2,6.1c0,0.1,0.3,0.1,0.3,0c0.6-3.1,3.1-5.5,6.2-6.1
					C42.25,123.375,42.25,123.175,42.15,123.175z"/>
			</g>
		</g>
		<g>
			<g>
				<circle fill="#F5C84C" cx="117.369" cy="252.6" r="3.4"/>
			</g>
		</g>
		<g>
			<g>
				<path fill="#F5C84C" d="M87.15,28.2c-4.5-0.8-8-4.3-8.9-8.7c0-0.2-0.4-0.2-0.4,0c-0.9,4.4-4.4,7.9-8.9,8.7c-0.2,0-0.2,0.3,0,0.4
					c4.5,0.8,8,4.3,8.9,8.7c0,0.2,0.4,0.2,0.4,0c0.9-4.4,4.4-7.9,8.9-8.7C87.35,28.5,87.35,28.2,87.15,28.2z"/>
			</g>
		</g>
		<g>
			<g>
				<g>
					<g>
						<path d="M214.296,13.204h-80.933c-12.636,0-22.916,10.28-22.916,22.916v58.194c0,12.636,10.28,22.916,22.916,22.916h4.893
							c2.214,0,4.016,1.802,4.016,4.016v6.874c0,2.479,1.413,4.623,3.687,5.595c0.797,0.34,1.623,0.506,2.439,0.506
							c1.541,0,3.043-0.593,4.229-1.727c3.099-2.965,5.862-6.412,8.213-10.245c1.927-3.144,5.196-5.02,8.746-5.02h44.71
							c12.636,0,22.916-10.28,22.916-22.916V36.119C237.212,23.483,226.932,13.204,214.296,13.204z M232.212,94.313
							c0,9.879-8.037,17.916-17.916,17.916h-44.71c-5.304,0-10.167,2.769-13.009,7.406c-2.126,3.467-4.618,6.577-7.406,9.245
							c-0.502,0.479-1.04,0.324-1.248,0.235c-0.243-0.104-0.651-0.372-0.651-0.997v-6.874c0-4.972-4.044-9.016-9.016-9.016h-4.893
							c-9.879,0-17.916-8.037-17.916-17.916V36.119c0-9.878,8.037-17.916,17.916-17.916h80.933c9.879,0,17.916,8.037,17.916,17.916
							V94.313z"/>
					</g>
				</g>
			</g>
		</g>
		<g>
			<g>
				<g>
					<g>
						<path d="M77.792,197.628l-14.369-38.266c-0.485-1.292-1.928-1.946-3.22-1.461l-26.365,9.9
							c-11.84,4.446-17.855,17.697-13.41,29.537c2.154,5.736,6.413,10.29,11.991,12.822c3.026,1.374,6.245,2.064,9.472,2.064
							c2.722,0,5.45-0.491,8.074-1.477l26.365-9.9c0.621-0.233,1.123-0.703,1.397-1.307
							C78.002,198.937,78.024,198.249,77.792,197.628z M48.207,206.067c-4.486,1.685-9.358,1.521-13.721-0.459
							c-4.363-1.981-7.693-5.542-9.377-10.027c-3.478-9.259,1.228-19.621,10.486-23.098l24.024-9.021l12.611,33.585L48.207,206.067z
							"/>
					</g>
				</g>
			</g>
		</g>
		<g>
			<g>
				<g>
					<g>
						<g>
							<path d="M135.956,192.179l-25.159-66.998c-0.999-2.66-2.974-4.771-5.561-5.946c-2.586-1.174-5.476-1.271-8.137-0.272
								c-2.66,0.999-4.771,2.974-5.946,5.561c-1.175,2.587-1.271,5.477-0.272,8.137l25.158,66.998
								c1.602,4.263,5.664,6.897,9.971,6.897c1.239,0,2.5-0.218,3.728-0.679C135.228,203.814,138.017,197.67,135.956,192.179z
								 M127.979,201.195c-2.909,1.093-6.167-0.386-7.259-3.295l-25.158-66.998c-0.53-1.41-0.479-2.941,0.144-4.312
								c0.623-1.371,1.742-2.417,3.151-2.947c0.645-0.242,1.315-0.363,1.984-0.363c0.793,0,1.584,0.17,2.327,0.507
								c1.371,0.623,2.418,1.741,2.946,3.151l25.159,66.998C132.367,196.847,130.889,200.103,127.979,201.195z"/>
						</g>
					</g>
				</g>
			</g>
		</g>
		<g>
			<g>
				<path d="M91.104,223.417l-18.972-23.182c-0.875-1.07-2.452-1.226-3.518-0.351c-1.068,0.875-1.227,2.449-0.352,3.518
					l18.972,23.181c1.418,1.734,1.897,3.969,1.315,6.132c-0.582,2.163-2.118,3.854-4.215,4.642c-2.757,1.036-5.861,0.2-7.727-2.079
					l-23.244-28.404c-0.875-1.07-2.452-1.226-3.518-0.351c-1.068,0.874-1.227,2.449-0.352,3.518l23.244,28.404
					c2.302,2.812,5.695,4.352,9.183,4.352c1.396,0,2.809-0.247,4.171-0.759c3.624-1.361,6.279-4.285,7.285-8.023
					C94.386,230.276,93.557,226.414,91.104,223.417z"/>
			</g>
		</g>
		<g>
			<g>
				<path d="M95.298,132.569c-1.136-0.784-2.692-0.499-3.478,0.637c-7.925,11.48-14.335,18.205-27.38,23.104l-4.237,1.591
					c-1.293,0.485-1.947,1.927-1.462,3.219c0.377,1.003,1.329,1.622,2.341,1.622c0.292,0,0.59-0.051,0.879-0.16l4.237-1.591
					c14.205-5.334,21.41-12.882,29.737-24.943C96.72,134.911,96.435,133.354,95.298,132.569z"/>
			</g>
		</g>
		<g>
			<g>
				<path d="M117.597,193.776c-14.198-3.596-24.585-4.534-38.787,0.799l-4.237,1.591c-1.293,0.485-1.947,1.927-1.462,3.219
					c0.377,1.003,1.329,1.622,2.341,1.622c0.292,0,0.59-0.051,0.879-0.16l4.237-1.591c13.044-4.897,22.29-4.056,35.801-0.633
					c1.341,0.339,2.698-0.471,3.038-1.81C119.745,195.475,118.935,194.115,117.597,193.776z"/>
			</g>
		</g>
		<g>
			<g>
				<path d="M41.151,165.995l-2.288-6.094c-0.485-1.292-1.925-1.946-3.22-1.461c-1.293,0.485-1.947,1.927-1.462,3.219l2.288,6.094
					c0.377,1.003,1.329,1.622,2.341,1.622c0.292,0,0.589-0.051,0.879-0.16C40.982,168.729,41.637,167.288,41.151,165.995z"/>
			</g>
		</g>
		<g>
			<g>
				<path d="M138.434,153.025c-3.479-9.26-13.658-14.405-23.178-11.717c-1.328,0.375-2.102,1.756-1.727,3.085
					c0.375,1.329,1.753,2.104,3.086,1.727c7.034-1.984,14.567,1.818,17.137,8.664c2.609,6.949-0.638,14.809-7.393,17.893
					c-1.256,0.573-1.81,2.056-1.236,3.313c0.42,0.919,1.327,1.462,2.276,1.462c0.347,0,0.7-0.073,1.036-0.227
					C137.57,173.054,141.962,162.424,138.434,153.025z"/>
			</g>
		</g>
		<g>
			<g>
				<path d="M166.467,168.784l-5.268-1.626c-1.317-0.408-2.719,0.332-3.126,1.651c-0.407,1.319,0.332,2.719,1.651,3.126l5.268,1.626
					c0.245,0.076,0.494,0.112,0.738,0.112c1.067,0,2.057-0.689,2.388-1.763C168.525,170.591,167.786,169.191,166.467,168.784z"/>
			</g>
		</g>
		<g>
			<g>
				<path d="M168.964,149.513c-0.307-1.346-1.64-2.186-2.993-1.882l-5.376,1.225c-1.346,0.307-2.188,1.647-1.882,2.993
					c0.265,1.159,1.295,1.945,2.436,1.945c0.184,0,0.37-0.021,0.558-0.063l5.376-1.225
					C168.428,152.2,169.271,150.859,168.964,149.513z"/>
			</g>
		</g>
		<g>
			<g>
				<path d="M156.32,187.351l-3.749-4.042c-0.938-1.011-2.52-1.073-3.533-0.133c-1.012,0.939-1.071,2.521-0.133,3.533l3.749,4.042
					c0.492,0.531,1.162,0.8,1.834,0.8c0.607,0,1.218-0.221,1.699-0.667C157.199,189.945,157.259,188.364,156.32,187.351z"/>
			</g>
		</g>
		<g>
			<g>
				<g>
					<g>
						<path d="M223.349,62.149c-0.499-1.537-1.803-2.637-3.403-2.87l-5.539-0.805l-2.478-5.02c-0.715-1.45-2.164-2.35-3.78-2.35
							s-3.065,0.9-3.78,2.35l-2.478,5.02l-5.539,0.805c-1.6,0.232-2.903,1.332-3.403,2.869c-0.499,1.537-0.091,3.192,1.066,4.321
							l4.009,3.907l-0.946,5.518c-0.273,1.592,0.369,3.172,1.676,4.122c1.309,0.951,3.011,1.073,4.44,0.322l4.955-2.605l4.956,2.606
							c0.622,0.327,1.295,0.488,1.964,0.488c0.871,0,1.735-0.273,2.475-0.81c1.307-0.95,1.949-2.53,1.676-4.122l-0.945-5.518
							l4.007-3.906C223.438,65.343,223.848,63.687,223.349,62.149z M214.487,67.084c-0.994,0.969-1.447,2.365-1.212,3.731
							l0.747,4.357l-3.913-2.057c-1.229-0.646-2.693-0.646-3.922,0l-3.913,2.058l0.747-4.356c0.235-1.368-0.218-2.763-1.212-3.732
							L198.644,64l4.375-0.636c1.372-0.199,2.559-1.061,3.174-2.306l1.956-3.964l1.957,3.964c0.614,1.245,1.801,2.106,3.173,2.306
							l4.374,0.635L214.487,67.084z"/>
					</g>
				</g>
			</g>
		</g>
		<g>
			<g>
				<g>
					<g>
						<path d="M154.711,62.149c-0.499-1.537-1.803-2.637-3.403-2.87l-5.539-0.805l-2.478-5.02c-0.715-1.45-2.164-2.35-3.78-2.35
							s-3.065,0.9-3.78,2.35l-2.478,5.02l-5.539,0.805c-1.6,0.232-2.903,1.332-3.403,2.869c-0.499,1.537-0.091,3.192,1.066,4.321
							l4.009,3.907l-0.946,5.518c-0.273,1.592,0.369,3.172,1.676,4.122c1.308,0.951,3.01,1.073,4.44,0.322l4.955-2.605l4.955,2.605
							c0.622,0.327,1.295,0.488,1.965,0.488c0.87,0,1.734-0.272,2.474-0.81c1.308-0.95,1.95-2.529,1.677-4.122l-0.945-5.518
							l4.007-3.906C154.801,65.343,155.21,63.687,154.711,62.149z M145.85,67.084c-0.994,0.969-1.447,2.365-1.212,3.731l0.747,4.357
							l-3.915-2.058c-1.227-0.644-2.693-0.643-3.92,0.001l-3.913,2.058l0.747-4.356c0.235-1.368-0.218-2.763-1.212-3.732L130.006,64
							l4.375-0.636c1.372-0.199,2.559-1.061,3.174-2.306l1.956-3.964l1.957,3.964c0.614,1.245,1.801,2.106,3.173,2.306l4.374,0.635
							L145.85,67.084z"/>
					</g>
				</g>
			</g>
		</g>
		<g>
			<g>
				<g>
					<g>
						<path d="M189.029,62.149c-0.499-1.537-1.803-2.636-3.402-2.869l-5.54-0.805l-2.478-5.02c-0.715-1.449-2.163-2.35-3.778-2.35
							c-0.001,0-0.001,0-0.002,0c-1.615,0-3.063,0.9-3.78,2.35l-2.477,5.02l-5.541,0.805c-1.6,0.233-2.903,1.333-3.402,2.87
							s-0.09,3.193,1.067,4.32l4.008,3.907l-0.945,5.518c-0.273,1.593,0.369,3.172,1.677,4.122c1.309,0.951,3.009,1.072,4.438,0.321
							l4.955-2.605l4.956,2.606c0.622,0.327,1.295,0.488,1.964,0.488c0.871,0,1.736-0.273,2.476-0.81
							c1.307-0.95,1.949-2.529,1.676-4.122l-0.946-5.517l4.009-3.908C189.12,65.341,189.528,63.686,189.029,62.149z M180.169,67.084
							c-0.992,0.968-1.446,2.361-1.213,3.731l0.747,4.357l-3.914-2.059c-0.613-0.322-1.286-0.482-1.959-0.482
							s-1.348,0.161-1.962,0.483l-3.913,2.057l0.747-4.355c0.235-1.368-0.218-2.763-1.212-3.732l-3.165-3.086l4.374-0.635
							c1.373-0.199,2.56-1.062,3.175-2.307l1.955-3.963l1.957,3.964c0.614,1.244,1.801,2.106,3.174,2.306l4.374,0.635
							L180.169,67.084z"/>
					</g>
				</g>
			</g>
		</g>
	</g>
</g>
<g id="Layer_36">
</g>
<g id="Layer_37">
</g>
<g id="Layer_38">
</g>
<g id="Layer_39">
</g>
<g id="Layer_40">
</g>
<g id="Layer_41">
</g>
<g id="Layer_42">
</g>
<g id="Layer_43">
</g>
<g id="Layer_44">
</g>
<g id="Layer_45">
</g>
<g id="Layer_46">
</g>
<g id="Layer_47">
</g>
<g id="Layer_48">
</g>
<g id="Layer_49">
</g>
<g id="Layer_50">
</g>
<g id="Layer_51">
</g>
<g id="Layer_52">
</g>
<g id="Layer_53">
</g>
<g id="Layer_54">
</g>
<g id="Layer_55">
</g>
<g id="Layer_56">
</g>
<g id="Layer_57">
</g>
<g id="Layer_58">
</g>
<g id="Layer_59">
</g>
<g id="Layer_60">
</g>
<g id="Layer_61">
</g>
<g id="Layer_62">
</g>
<g id="Layer_63">
</g>
<g id="Layer_64">
</g>
<g id="Layer_65">
</g>
<g id="Layer_66">
</g>
<g id="Layer_67">
</g>
<g id="Layer_68">
</g>
<g id="Layer_69">
</g>
<g id="Layer_70">
</g>
<g id="Layer_71">
</g>
<g id="Layer_72">
</g>
<g id="Layer_73">
</g>
<g id="Layer_74">
</g>
<g id="Layer_75">
</g>
<g id="Layer_76">
</g>
<g id="Layer_77">
</g>
<g id="Layer_78">
</g>
<g id="Layer_79">
</g>
<g id="Layer_80">
</g>
</svg>
