<?xml version="1.0" encoding="utf-8"?>
<!-- Generator: Adobe Illustrator 24.0.0, SVG Export Plug-In . SVG Version: 6.00 Build 0)  -->
<svg version="1.1" xmlns="http://www.w3.org/2000/svg" xmlns:xlink="http://www.w3.org/1999/xlink" x="0px" y="0px"
	 viewBox="0 0 256 256" enable-background="new 0 0 256 256" xml:space="preserve">
<g id="Layer_1">
</g>
<g id="Layer_2">
</g>
<g id="Layer_3">
</g>
<g id="Layer_4">
</g>
<g id="Layer_5">
</g>
<g id="Layer_6">
</g>
<g id="Layer_7">
</g>
<g id="Layer_8">
</g>
<g id="Layer_9">
</g>
<g id="Layer_10">
</g>
<g id="Layer_11">
</g>
<g id="Layer_12">
</g>
<g id="Layer_13">
</g>
<g id="Layer_14">
</g>
<g id="Layer_15">
</g>
<g id="Layer_16">
</g>
<g id="Layer_17">
</g>
<g id="Layer_18">
</g>
<g id="Layer_19">
</g>
<g id="Layer_20">
</g>
<g id="Layer_21">
</g>
<g id="Layer_22">
</g>
<g id="Layer_23">
</g>
<g id="Layer_24">
</g>
<g id="Layer_25">
</g>
<g id="Layer_26">
</g>
<g id="Layer_27">
</g>
<g id="Layer_28">
</g>
<g id="Layer_29">
</g>
<g id="Layer_30">
</g>
<g id="Layer_31">
</g>
<g id="Layer_32">
</g>
<g id="Layer_33">
</g>
<g id="Layer_34">
</g>
<g id="Layer_35">
</g>
<g id="Layer_36">
</g>
<g id="Layer_37">
</g>
<g id="Layer_38">
</g>
<g id="Layer_39">
</g>
<g id="Layer_40">
</g>
<g id="Layer_41">
</g>
<g id="Layer_42">
</g>
<g id="Layer_43">
</g>
<g id="Layer_44">
</g>
<g id="Layer_45">
</g>
<g id="Layer_46">
</g>
<g id="Layer_47">
</g>
<g id="Layer_48">
</g>
<g id="Layer_49">
</g>
<g id="Layer_50">
</g>
<g id="Layer_51">
</g>
<g id="Layer_52">
</g>
<g id="Layer_53">
</g>
<g id="Layer_54">
</g>
<g id="Layer_55">
	<g>
		<g>
			<g>
				<path fill="#FC657E" d="M42.954,89.619l-17.97,6.748c-7.202,2.705-10.848,10.735-8.144,17.938h0
					c2.704,7.202,10.735,10.848,17.938,8.144l17.97-6.748L42.954,89.619z"/>
			</g>
		</g>
		<g>
			<g>
				<path fill="#FC657E" d="M89.102,113.083L71.954,67.418c-1.077-2.867-4.274-4.319-7.141-3.242s-4.319,4.274-3.242,7.142
					l17.148,45.665c1.077,2.867,4.274,4.319,7.141,3.242S90.178,115.95,89.102,113.083z"/>
			</g>
		</g>
		<g>
			<g>
				<path fill="#DAE6F1" d="M58.056,128.819l-9.46-11.559l-12.618,4.738l12.198,14.906c2.232,2.728,6.254,3.13,8.982,0.897
					C59.886,135.568,60.288,131.547,58.056,128.819z"/>
			</g>
		</g>
		<g>
			<g>
				<path fill="#DAE6F1" d="M90.79,86.396c-2.16-5.753-8.477-8.716-14.258-6.786l7.991,21.28
					C90.146,98.539,92.951,92.15,90.79,86.396z"/>
			</g>
		</g>
		<g>
			<g>
				<path fill="#DAE6F1" d="M63.061,75.287c-4.496,5.994-9.076,10.19-17.219,13.248l-2.888,1.084l9.794,26.081l2.888-1.085
					c8.143-3.058,14.352-2.914,21.682-1.36L63.061,75.287z"/>
			</g>
		</g>
		<g>
			<g>
				<path fill="#FC657E" d="M179.234,13h-52.467c-7.279,0-13.235,5.956-13.235,13.235v37.726c0,7.279,5.956,13.235,13.235,13.235
					h3.172c2.333,0,4.224,1.891,4.224,4.224v4.457c0,2.069,2.476,3.095,3.971,1.665c2.076-1.986,3.736-4.153,5.063-6.317
					c1.515-2.471,4.154-4.028,7.052-4.028h28.985c7.279,0,13.235-5.956,13.235-13.235V26.235C192.469,18.956,186.513,13,179.234,13z
					"/>
			</g>
		</g>
		<g>
			<g>
				<path fill="#FC657E" d="M63.195,188.254l-21.273,7.989c-8.526,3.202-12.842,12.708-9.641,21.234l0,0
					c3.202,8.526,12.709,12.842,21.235,9.641l21.273-7.989L63.195,188.254z"/>
			</g>
		</g>
		<g>
			<g>
				<path fill="#FC657E" d="M117.824,216.031l-20.3-54.058c-1.275-3.394-5.06-5.113-8.454-3.838
					c-3.394,1.275-5.113,5.06-3.838,8.454l20.3,54.058c1.275,3.394,5.06,5.113,8.454,3.838S119.099,219.425,117.824,216.031z"/>
			</g>
		</g>
		<g>
			<g>
				<path fill="#DAE6F1" d="M81.072,234.658l-11.198-13.684l-14.937,5.609l14.44,17.646c2.643,3.229,7.403,3.705,10.633,1.062
					C83.239,242.648,83.715,237.888,81.072,234.658z"/>
			</g>
		</g>
		<g>
			<g>
				<path fill="#DAE6F1" d="M119.824,184.439L119.824,184.439c-2.558-6.811-10.036-10.319-16.879-8.033l9.46,25.191
					C119.06,198.813,122.381,191.25,119.824,184.439z"/>
			</g>
		</g>
		<g>
			<g>
				<path fill="#DAE6F1" d="M86.997,171.288c-5.323,7.096-10.744,12.062-20.384,15.682l-3.418,1.283l11.594,30.875l3.419-1.284
					c9.64-3.62,16.99-3.449,25.668-1.611L86.997,171.288z"/>
			</g>
		</g>
		<g>
			<g>
				<path fill="#FC657E" d="M224.385,97.552h-62.111c-8.617,0-15.668,7.051-15.668,15.668v44.661
					c0,8.617,7.051,15.668,15.668,15.668h3.755c2.762,0,5.001,2.239,5.001,5.001v5.276c0,2.449,2.932,3.664,4.702,1.97
					c2.457-2.35,4.422-4.917,5.993-7.479c1.793-2.925,4.918-4.768,8.348-4.768h34.313c8.617,0,15.668-7.051,15.668-15.668V113.22
					C240.053,104.603,233.002,97.552,224.385,97.552z"/>
			</g>
		</g>
		<g>
			<g>
				<path fill="#F5C84C" d="M133,26.482c-2.762,0-5,2.238-5,5v10.035c0,2.762,2.238,5,5,5s5-2.238,5-5V31.482
					C138,28.721,135.762,26.482,133,26.482z"/>
			</g>
		</g>
		<g>
			<g>
				<path fill="#F5C84C" d="M133,54.759c-2.762,0-5,2.238-5,5v0.482c0,2.762,2.238,5,5,5s5-2.238,5-5v-0.482
					C138,56.997,135.762,54.759,133,54.759z"/>
			</g>
		</g>
		<g>
			<g>
				<path fill="#F5C84C" d="M153,26.482c-2.762,0-5,2.238-5,5v10.035c0,2.762,2.238,5,5,5s5-2.238,5-5V31.482
					C158,28.721,155.762,26.482,153,26.482z"/>
			</g>
		</g>
		<g>
			<g>
				<path fill="#F5C84C" d="M153,54.759c-2.762,0-5,2.238-5,5v0.482c0,2.762,2.238,5,5,5s5-2.238,5-5v-0.482
					C158,56.997,155.762,54.759,153,54.759z"/>
			</g>
		</g>
		<g>
			<g>
				<path fill="#F5C84C" d="M173,26.482c-2.762,0-5,2.238-5,5v10.035c0,2.762,2.238,5,5,5s5-2.238,5-5V31.482
					C178,28.721,175.762,26.482,173,26.482z"/>
			</g>
		</g>
		<g>
			<g>
				<path fill="#F5C84C" d="M173,54.759c-2.762,0-5,2.238-5,5v0.482c0,2.762,2.238,5,5,5s5-2.238,5-5v-0.482
					C178,56.997,175.762,54.759,173,54.759z"/>
			</g>
		</g>
		<g>
			<g>
				<path fill="#F5C84C" d="M173.329,116.482c-2.762,0-5,2.238-5,5v10.035c0,2.762,2.238,5,5,5s5-2.238,5-5v-10.035
					C178.329,118.721,176.091,116.482,173.329,116.482z"/>
			</g>
		</g>
		<g>
			<g>
				<path fill="#F5C84C" d="M173.329,144.759c-2.762,0-5,2.238-5,5v0.482c0,2.762,2.238,5,5,5s5-2.238,5-5v-0.482
					C178.329,146.997,176.091,144.759,173.329,144.759z"/>
			</g>
		</g>
		<g>
			<g>
				<path fill="#F5C84C" d="M193.329,116.482c-2.762,0-5,2.238-5,5v10.035c0,2.762,2.238,5,5,5s5-2.238,5-5v-10.035
					C198.329,118.721,196.091,116.482,193.329,116.482z"/>
			</g>
		</g>
		<g>
			<g>
				<path fill="#F5C84C" d="M193.329,144.759c-2.762,0-5,2.238-5,5v0.482c0,2.762,2.238,5,5,5s5-2.238,5-5v-0.482
					C198.329,146.997,196.091,144.759,193.329,144.759z"/>
			</g>
		</g>
		<g>
			<g>
				<path fill="#F5C84C" d="M213.329,116.482c-2.762,0-5,2.238-5,5v10.035c0,2.762,2.238,5,5,5s5-2.238,5-5v-10.035
					C218.329,118.721,216.091,116.482,213.329,116.482z"/>
			</g>
		</g>
		<g>
			<g>
				<path fill="#F5C84C" d="M213.329,144.759c-2.762,0-5,2.238-5,5v0.482c0,2.762,2.238,5,5,5s5-2.238,5-5v-0.482
					C218.329,146.997,216.091,144.759,213.329,144.759z"/>
			</g>
		</g>
		<g>
			<g>
				<path fill="#70D6F9" d="M224.737,63.175c-3.1-0.6-5.6-3-6.2-6.1c0-0.1-0.3-0.1-0.3,0c-0.6,3.1-3.1,5.5-6.2,6.1
					c-0.1,0-0.1,0.2,0,0.3c3.1,0.6,5.6,3,6.2,6.1c0,0.1,0.3,0.1,0.3,0c0.6-3.1,3.1-5.5,6.2-6.1
					C224.837,63.375,224.837,63.175,224.737,63.175z"/>
			</g>
		</g>
		<g>
			<g>
				<path fill="#F5C84C" d="M120.369,249.2c-1.878,0-3.4,1.522-3.4,3.4c0,1.878,1.522,3.4,3.4,3.4s3.4-1.522,3.4-3.4
					C123.769,250.722,122.246,249.2,120.369,249.2z"/>
			</g>
		</g>
		<g>
			<g>
				<path fill="#87D147" d="M155.249,231.1h-2.4v-2.3c0-1.8-1.4-3.2-3.2-3.2c-1.7,0-3.2,1.4-3.2,3.1v2.4h-2.3
					c-1.8,0-3.2,1.4-3.2,3.2c-0.1,1.7,1.3,3.2,3.2,3.2h2.3v2.3c0,1.8,1.4,3.2,3.2,3.2c1.7,0,3.2-1.4,3.2-3.1v-2.4h2.3
					c1.8,0,3.2-1.4,3.2-3.2C158.349,232.6,156.949,231.1,155.249,231.1z"/>
			</g>
		</g>
		<g>
			<g>
				<path fill="#FC657E" d="M94.369,0c-1.878,0-3.4,1.522-3.4,3.4c0,1.878,1.522,3.4,3.4,3.4s3.4-1.522,3.4-3.4
					C97.769,1.522,96.246,0,94.369,0z"/>
			</g>
		</g>
		<g>
			<g>
				<path fill="#F5C84C" d="M75.906,21.2c-4.5-0.8-8-4.3-8.9-8.7c0-0.2-0.4-0.2-0.4,0c-0.9,4.4-4.4,7.9-8.9,8.7
					c-0.2,0-0.2,0.3,0,0.4c4.5,0.8,8,4.3,8.9,8.7c0,0.2,0.4,0.2,0.4,0c0.9-4.4,4.4-7.9,8.9-8.7C76.106,21.5,76.106,21.2,75.906,21.2
					z"/>
			</g>
		</g>
		<g>
			<g>
				<g>
					<g>
						<path d="M55.089,114.821L45.295,88.74c-0.485-1.292-1.928-1.944-3.22-1.462l-17.971,6.748
							c-8.48,3.185-12.79,12.676-9.605,21.157c1.544,4.108,4.594,7.37,8.59,9.185c2.168,0.984,4.473,1.479,6.783,1.479
							c1.95,0,3.904-0.352,5.784-1.058l17.971-6.748c0.621-0.233,1.123-0.703,1.397-1.308
							C55.299,116.13,55.321,115.442,55.089,114.821z M33.898,120.107c-5.899,2.217-12.503-0.781-14.718-6.682
							c-2.216-5.9,0.781-12.503,6.682-14.718l15.63-5.869l8.036,21.399L33.898,120.107z"/>
					</g>
				</g>
			</g>
		</g>
		<g>
			<g>
				<g>
					<g>
						<g>
							<path d="M91.442,112.204L74.294,66.539c-1.559-4.152-6.208-6.262-10.36-4.703c-2.012,0.755-3.609,2.249-4.498,4.206
								s-0.961,4.143-0.206,6.154l17.147,45.665c1.211,3.225,4.283,5.218,7.541,5.218c0.938,0,1.892-0.165,2.82-0.514
								c0,0,0,0,0-0.001C90.891,121.005,93.001,116.357,91.442,112.204z M84.98,117.884c-1.57,0.59-3.332-0.207-3.922-1.78
								L63.91,70.438c-0.59-1.572,0.209-3.332,1.781-3.922c0.352-0.132,0.712-0.194,1.067-0.194c1.232,0,2.396,0.754,2.854,1.975
								l17.147,45.665C87.352,115.534,86.553,117.293,84.98,117.884z"/>
						</g>
					</g>
				</g>
			</g>
		</g>
		<g>
			<g>
				<path d="M59.99,127.235l-8.795-10.746c-0.875-1.071-2.452-1.225-3.518-0.352c-1.069,0.874-1.227,2.449-0.352,3.518l8.795,10.746
					c1.355,1.657,1.11,4.108-0.546,5.465c-0.802,0.656-1.813,0.967-2.845,0.858c-1.032-0.103-1.962-0.602-2.619-1.404
					l-11.398-13.928c-0.875-1.07-2.453-1.226-3.518-0.352c-1.068,0.874-1.227,2.449-0.352,3.518l11.398,13.928
					c1.502,1.837,3.63,2.978,5.991,3.214c0.301,0.03,0.601,0.045,0.899,0.045c2.043,0,4.007-0.698,5.609-2.01
					C62.531,136.633,63.092,131.025,59.99,127.235z"/>
			</g>
		</g>
		<g>
			<g>
				<path d="M30.114,93.261l-1.56-4.153c-0.485-1.293-1.929-1.945-3.22-1.462c-1.293,0.485-1.947,1.927-1.462,3.22l1.56,4.153
					c0.377,1.003,1.329,1.622,2.341,1.622c0.292,0,0.59-0.052,0.879-0.16C29.945,95.995,30.6,94.554,30.114,93.261z"/>
			</g>
		</g>
		<g>
			<g>
				<path d="M93.131,85.518c-2.401-6.395-9-10.063-15.702-8.727c-1.354,0.271-2.231,1.587-1.961,2.941
					c0.271,1.354,1.578,2.231,2.941,1.961c4.278-0.852,8.505,1.493,10.04,5.582c1.598,4.254-0.259,9.002-4.317,11.045
					c-1.233,0.621-1.729,2.124-1.109,3.357c0.439,0.873,1.32,1.377,2.235,1.377c0.378,0,0.762-0.087,1.122-0.268
					C92.726,99.592,95.628,92.168,93.131,85.518z"/>
			</g>
		</g>
		<g>
			<g>
				<path d="M64.136,73.892c-1.098-0.84-2.666-0.632-3.506,0.463c-3.85,5.021-7.987,8.956-15.667,11.84l-2.888,1.084
					c-1.292,0.485-1.947,1.927-1.462,3.22c0.377,1.003,1.329,1.622,2.341,1.622c0.292,0,0.589-0.052,0.879-0.16l2.888-1.084
					c7.524-2.826,12.703-6.731,17.878-13.479C65.438,76.302,65.231,74.732,64.136,73.892z"/>
			</g>
		</g>
		<g>
			<g>
				<path d="M77.039,110.646c-8.314-1.665-14.77-1.192-22.282,1.63l-2.888,1.084c-1.292,0.485-1.947,1.927-1.462,3.22
					c0.377,1.003,1.329,1.622,2.341,1.622c0.292,0,0.589-0.052,0.879-0.16l2.888-1.084c7.668-2.882,13.358-2.645,19.544-1.409
					c1.346,0.271,2.671-0.606,2.941-1.961C79.271,112.233,78.394,110.916,77.039,110.646z"/>
			</g>
		</g>
		<g>
			<g>
				<path d="M108.812,78.424c-0.511-1.283-1.963-1.911-3.247-1.397l-5.728,2.28c-1.282,0.511-1.908,1.964-1.397,3.247
					c0.39,0.979,1.329,1.576,2.323,1.576c0.308,0,0.62-0.058,0.924-0.179l5.728-2.28C108.696,81.16,109.322,79.707,108.812,78.424z"
					/>
			</g>
		</g>
		<g>
			<g>
				<path d="M98.184,64.168c-1.086-0.856-2.656-0.671-3.511,0.413l-3.82,4.839c-0.855,1.083-0.671,2.655,0.413,3.511
					c0.459,0.362,1.005,0.538,1.547,0.538c0.739,0,1.471-0.326,1.964-0.951l3.82-4.839C99.452,66.596,99.268,65.023,98.184,64.168z"
					/>
			</g>
		</g>
		<g>
			<g>
				<path d="M108.775,93.25l-6.101-0.889c-1.363-0.211-2.636,0.747-2.834,2.113c-0.199,1.366,0.747,2.635,2.113,2.834l6.101,0.889
					c0.122,0.019,0.243,0.026,0.363,0.026c1.222,0,2.29-0.896,2.471-2.14C111.088,94.718,110.142,93.449,108.775,93.25z"/>
			</g>
		</g>
		<g>
			<g>
				<g>
					<g>
						<path d="M179.233,10.5h-52.467c-8.677,0-15.735,7.059-15.735,15.735v37.727c0,8.676,7.059,15.734,15.735,15.734h3.172
							c0.95,0,1.724,0.773,1.724,1.725v4.456c0,1.965,1.12,3.665,2.924,4.436c0.615,0.263,1.264,0.391,1.907,0.391
							c1.229,0,2.44-0.468,3.368-1.354c2.063-1.973,3.903-4.267,5.468-6.817c1.088-1.775,2.927-2.835,4.92-2.835h28.984
							c8.677,0,15.735-7.059,15.735-15.734V26.235C194.969,17.559,187.91,10.5,179.233,10.5z M189.969,63.962
							c0,5.919-4.815,10.734-10.735,10.734h-28.984c-3.746,0-7.179,1.952-9.183,5.222c-1.273,2.075-2.753,3.946-4.404,5.568v-4.065
							c0-3.708-3.017-6.725-6.724-6.725h-3.172c-5.92,0-10.735-4.815-10.735-10.734V26.235c0-5.92,4.815-10.735,10.735-10.735
							h52.467c5.92,0,10.735,4.815,10.735,10.735V63.962z"/>
					</g>
				</g>
			</g>
		</g>
		<g>
			<g>
				<g>
					<g>
						<path d="M77.13,218.25l-11.595-30.875c-0.485-1.292-1.928-1.944-3.22-1.462l-21.272,7.988
							c-4.749,1.784-8.52,5.31-10.616,9.929c-2.097,4.618-2.27,9.777-0.486,14.525c1.783,4.749,5.309,8.519,9.928,10.616
							c2.506,1.138,5.169,1.708,7.841,1.708c2.254,0,4.513-0.406,6.686-1.222l21.273-7.988c0.621-0.233,1.123-0.703,1.397-1.308
							C77.34,219.559,77.362,218.871,77.13,218.25z M52.637,224.776c-3.498,1.315-7.301,1.187-10.702-0.357
							c-3.402-1.545-5.999-4.322-7.313-7.821c-1.314-3.498-1.188-7.299,0.357-10.701s4.322-6,7.821-7.313l18.932-7.109l9.837,26.193
							L52.637,224.776z"/>
					</g>
				</g>
			</g>
		</g>
		<g>
			<g>
				<g>
					<g>
						<g>
							<path d="M120.165,215.151l-20.3-54.058c-0.852-2.267-2.534-4.066-4.739-5.067c-2.204-1.002-4.666-1.083-6.935-0.233
								c-2.267,0.852-4.065,2.535-5.067,4.74c-1.001,2.205-1.083,4.667-0.232,6.934l20.3,54.059
								c1.364,3.633,4.826,5.879,8.496,5.879c1.057,0,2.132-0.187,3.178-0.579C119.544,225.068,121.922,219.831,120.165,215.151z
								 M115.38,220.019c-0.449,0.989-1.256,1.744-2.272,2.125c-2.098,0.79-4.447-0.278-5.234-2.376l-20.3-54.059
								c-0.382-1.017-0.345-2.12,0.104-3.109c0.448-0.989,1.255-1.744,2.271-2.125c0.469-0.177,0.95-0.26,1.425-0.26
								c1.646,0,3.198,1.007,3.81,2.637l20.3,54.058C115.865,217.926,115.828,219.03,115.38,220.019z"/>
						</g>
					</g>
				</g>
			</g>
		</g>
		<g>
			<g>
				<path d="M83.007,233.075l-10.511-12.843c-0.876-1.071-2.452-1.225-3.518-0.352c-1.068,0.874-1.227,2.449-0.352,3.518
					l10.511,12.843c0.854,1.045,1.252,2.361,1.118,3.705c-0.135,1.344-0.784,2.555-1.83,3.41c-1.044,0.856-2.362,1.256-3.704,1.118
					c-1.344-0.134-2.555-0.783-3.41-1.828l-13.943-17.038c-0.875-1.071-2.452-1.225-3.518-0.352
					c-1.068,0.874-1.227,2.449-0.352,3.518l13.943,17.038c1.701,2.079,4.109,3.371,6.782,3.638c0.341,0.034,0.681,0.051,1.018,0.051
					c2.313,0,4.537-0.791,6.351-2.275C85.884,243.715,86.519,237.366,83.007,233.075z"/>
			</g>
		</g>
		<g>
			<g>
				<path d="M47.565,192.727l-1.847-4.917c-0.486-1.292-1.929-1.945-3.22-1.462c-1.293,0.486-1.947,1.927-1.462,3.22l1.847,4.917
					c0.377,1.003,1.329,1.622,2.341,1.622c0.292,0,0.59-0.052,0.879-0.16C47.396,195.46,48.051,194.02,47.565,192.727z"/>
			</g>
		</g>
		<g>
			<g>
				<path d="M122.164,183.56c-2.87-7.645-10.997-11.877-18.91-9.851c-1.337,0.343-2.144,1.705-1.801,3.043
					c0.344,1.338,1.712,2.138,3.043,1.801c5.43-1.392,11.016,1.514,12.986,6.766c1.983,5.28-0.33,11.156-5.379,13.669
					c-1.236,0.615-1.74,2.116-1.125,3.352c0.438,0.879,1.321,1.388,2.24,1.388c0.374,0,0.754-0.085,1.111-0.263
					C121.683,199.806,125.051,191.248,122.164,183.56z"/>
			</g>
		</g>
		<g>
			<g>
				<path d="M103.818,213.669c-8.388-1.718-16.103-2.063-26.49,1.836l-3.418,1.283c-1.292,0.485-1.947,1.927-1.462,3.22
					c0.377,1.003,1.329,1.622,2.341,1.622c0.292,0,0.589-0.052,0.879-0.16l3.418-1.283c9.264-3.479,16.184-3.163,23.73-1.619
					c1.344,0.271,2.674-0.595,2.95-1.948C106.044,215.267,105.172,213.946,103.818,213.669z"/>
			</g>
		</g>
		<g>
			<g>
				<path d="M88.149,169.778c-1.102-0.838-2.668-0.623-3.504,0.475c-4.655,6.115-9.653,10.9-18.911,14.377l-3.419,1.283
					c-1.292,0.485-1.947,1.927-1.462,3.22c0.377,1.003,1.329,1.622,2.341,1.622c0.292,0,0.589-0.052,0.879-0.16l3.419-1.283
					c8.881-3.336,15.003-7.979,21.132-16.029C89.46,172.184,89.248,170.615,88.149,169.778z"/>
			</g>
		</g>
		<g>
			<g>
				<path d="M140.73,175.171c-0.511-1.283-1.964-1.911-3.247-1.397l-6.78,2.699c-1.282,0.51-1.908,1.964-1.397,3.247
					c0.39,0.979,1.329,1.576,2.323,1.576c0.308,0,0.62-0.058,0.924-0.179l6.78-2.699
					C140.615,177.908,141.241,176.454,140.73,175.171z"/>
			</g>
		</g>
		<g>
			<g>
				<path d="M128.291,158.486c-1.084-0.856-2.657-0.671-3.511,0.413l-4.522,5.728c-0.855,1.083-0.671,2.655,0.413,3.511
					c0.458,0.362,1.005,0.538,1.547,0.538c0.739,0,1.471-0.326,1.964-0.951l4.522-5.728
					C129.56,160.914,129.375,159.342,128.291,158.486z"/>
			</g>
		</g>
		<g>
			<g>
				<path d="M141.049,193.007l-7.222-1.053c-1.365-0.198-2.636,0.747-2.834,2.113c-0.199,1.366,0.747,2.635,2.113,2.834l7.222,1.053
					c0.122,0.018,0.243,0.026,0.363,0.026c1.221,0,2.29-0.896,2.471-2.14C143.361,194.475,142.415,193.206,141.049,193.007z"/>
			</g>
		</g>
		<g>
			<g>
				<g>
					<g>
						<path d="M224.385,95.052h-62.11c-10.018,0-18.168,8.15-18.168,18.168v44.66c0,10.018,8.15,18.168,18.168,18.168h3.755
							c1.379,0,2.5,1.122,2.5,2.501v5.275c0,2.14,1.22,3.989,3.183,4.828c0.67,0.286,1.376,0.426,2.077,0.426
							c1.34,0,2.659-0.51,3.671-1.477c2.412-2.309,4.564-4.992,6.396-7.979c1.372-2.238,3.695-3.575,6.216-3.575h34.313
							c10.018,0,18.168-8.15,18.168-18.168v-44.66C242.553,103.202,234.402,95.052,224.385,95.052z M237.553,157.88
							c0,7.261-5.907,13.168-13.168,13.168h-34.313c-4.273,0-8.19,2.229-10.479,5.961c-1.607,2.62-3.488,4.968-5.59,6.979
							c-0.045,0.042-0.15,0.141-0.327,0.066c-0.147-0.063-0.147-0.16-0.147-0.23v-5.275c0-4.136-3.364-7.501-7.5-7.501h-3.755
							c-7.261,0-13.168-5.907-13.168-13.168v-44.66c0-7.261,5.907-13.168,13.168-13.168h62.11c7.261,0,13.168,5.907,13.168,13.168
							V157.88z"/>
					</g>
				</g>
			</g>
		</g>
		<g>
			<g>
				<g>
					<g>
						<path d="M133,23.982c-4.136,0-7.5,3.364-7.5,7.5v10.035c0,4.136,3.364,7.5,7.5,7.5s7.5-3.364,7.5-7.5V31.482
							C140.5,27.347,137.136,23.982,133,23.982z M135.5,41.518c0,1.379-1.121,2.5-2.5,2.5s-2.5-1.121-2.5-2.5V31.482
							c0-1.379,1.121-2.5,2.5-2.5s2.5,1.121,2.5,2.5V41.518z"/>
					</g>
				</g>
			</g>
		</g>
		<g>
			<g>
				<g>
					<g>
						<path d="M133,52.259c-4.136,0-7.5,3.364-7.5,7.5v0.482c0,4.136,3.364,7.5,7.5,7.5s7.5-3.364,7.5-7.5v-0.482
							C140.5,55.623,137.136,52.259,133,52.259z M135.5,60.241c0,1.379-1.121,2.5-2.5,2.5s-2.5-1.121-2.5-2.5v-0.482
							c0-1.379,1.121-2.5,2.5-2.5s2.5,1.121,2.5,2.5V60.241z"/>
					</g>
				</g>
			</g>
		</g>
		<g>
			<g>
				<g>
					<g>
						<path d="M153,23.982c-4.136,0-7.5,3.364-7.5,7.5v10.035c0,4.136,3.364,7.5,7.5,7.5s7.5-3.364,7.5-7.5V31.482
							C160.5,27.347,157.136,23.982,153,23.982z M155.5,41.518c0,1.379-1.121,2.5-2.5,2.5s-2.5-1.121-2.5-2.5V31.482
							c0-1.379,1.121-2.5,2.5-2.5s2.5,1.121,2.5,2.5V41.518z"/>
					</g>
				</g>
			</g>
		</g>
		<g>
			<g>
				<g>
					<g>
						<path d="M153,52.259c-4.136,0-7.5,3.364-7.5,7.5v0.482c0,4.136,3.364,7.5,7.5,7.5s7.5-3.364,7.5-7.5v-0.482
							C160.5,55.623,157.136,52.259,153,52.259z M155.5,60.241c0,1.379-1.121,2.5-2.5,2.5s-2.5-1.121-2.5-2.5v-0.482
							c0-1.379,1.121-2.5,2.5-2.5s2.5,1.121,2.5,2.5V60.241z"/>
					</g>
				</g>
			</g>
		</g>
		<g>
			<g>
				<g>
					<g>
						<path d="M173,23.982c-4.136,0-7.5,3.364-7.5,7.5v10.035c0,4.136,3.364,7.5,7.5,7.5s7.5-3.364,7.5-7.5V31.482
							C180.5,27.347,177.136,23.982,173,23.982z M175.5,41.518c0,1.379-1.121,2.5-2.5,2.5s-2.5-1.121-2.5-2.5V31.482
							c0-1.379,1.121-2.5,2.5-2.5s2.5,1.121,2.5,2.5V41.518z"/>
					</g>
				</g>
			</g>
		</g>
		<g>
			<g>
				<g>
					<g>
						<path d="M173,52.259c-4.136,0-7.5,3.364-7.5,7.5v0.482c0,4.136,3.364,7.5,7.5,7.5s7.5-3.364,7.5-7.5v-0.482
							C180.5,55.623,177.136,52.259,173,52.259z M175.5,60.241c0,1.379-1.121,2.5-2.5,2.5s-2.5-1.121-2.5-2.5v-0.482
							c0-1.379,1.121-2.5,2.5-2.5s2.5,1.121,2.5,2.5V60.241z"/>
					</g>
				</g>
			</g>
		</g>
		<g>
			<g>
				<g>
					<g>
						<path d="M173.329,113.982c-4.136,0-7.5,3.364-7.5,7.5v10.035c0,4.136,3.364,7.5,7.5,7.5s7.5-3.364,7.5-7.5v-10.035
							C180.829,117.347,177.465,113.982,173.329,113.982z M175.829,131.518c0,1.379-1.121,2.5-2.5,2.5s-2.5-1.121-2.5-2.5v-10.035
							c0-1.379,1.121-2.5,2.5-2.5s2.5,1.121,2.5,2.5V131.518z"/>
					</g>
				</g>
			</g>
		</g>
		<g>
			<g>
				<g>
					<g>
						<path d="M173.329,142.259c-4.136,0-7.5,3.364-7.5,7.5v0.482c0,4.136,3.364,7.5,7.5,7.5s7.5-3.364,7.5-7.5v-0.482
							C180.829,145.623,177.465,142.259,173.329,142.259z M175.829,150.241c0,1.379-1.121,2.5-2.5,2.5s-2.5-1.121-2.5-2.5v-0.482
							c0-1.379,1.121-2.5,2.5-2.5s2.5,1.121,2.5,2.5V150.241z"/>
					</g>
				</g>
			</g>
		</g>
		<g>
			<g>
				<g>
					<g>
						<path d="M193.329,113.982c-4.136,0-7.5,3.364-7.5,7.5v10.035c0,4.136,3.364,7.5,7.5,7.5s7.5-3.364,7.5-7.5v-10.035
							C200.829,117.347,197.465,113.982,193.329,113.982z M195.829,131.518c0,1.379-1.121,2.5-2.5,2.5s-2.5-1.121-2.5-2.5v-10.035
							c0-1.379,1.121-2.5,2.5-2.5s2.5,1.121,2.5,2.5V131.518z"/>
					</g>
				</g>
			</g>
		</g>
		<g>
			<g>
				<g>
					<g>
						<path d="M193.329,142.259c-4.136,0-7.5,3.364-7.5,7.5v0.482c0,4.136,3.364,7.5,7.5,7.5s7.5-3.364,7.5-7.5v-0.482
							C200.829,145.623,197.465,142.259,193.329,142.259z M195.829,150.241c0,1.379-1.121,2.5-2.5,2.5s-2.5-1.121-2.5-2.5v-0.482
							c0-1.379,1.121-2.5,2.5-2.5s2.5,1.121,2.5,2.5V150.241z"/>
					</g>
				</g>
			</g>
		</g>
		<g>
			<g>
				<g>
					<g>
						<path d="M213.329,113.982c-4.136,0-7.5,3.364-7.5,7.5v10.035c0,4.136,3.364,7.5,7.5,7.5s7.5-3.364,7.5-7.5v-10.035
							C220.829,117.347,217.465,113.982,213.329,113.982z M215.829,131.518c0,1.379-1.121,2.5-2.5,2.5s-2.5-1.121-2.5-2.5v-10.035
							c0-1.379,1.121-2.5,2.5-2.5s2.5,1.121,2.5,2.5V131.518z"/>
					</g>
				</g>
			</g>
		</g>
		<g>
			<g>
				<g>
					<g>
						<path d="M213.329,142.259c-4.136,0-7.5,3.364-7.5,7.5v0.482c0,4.136,3.364,7.5,7.5,7.5s7.5-3.364,7.5-7.5v-0.482
							C220.829,145.623,217.465,142.259,213.329,142.259z M215.829,150.241c0,1.379-1.121,2.5-2.5,2.5s-2.5-1.121-2.5-2.5v-0.482
							c0-1.379,1.121-2.5,2.5-2.5s2.5,1.121,2.5,2.5V150.241z"/>
					</g>
				</g>
			</g>
		</g>
	</g>
</g>
<g id="Layer_56">
</g>
<g id="Layer_57">
</g>
<g id="Layer_58">
</g>
<g id="Layer_59">
</g>
<g id="Layer_60">
</g>
<g id="Layer_61">
</g>
<g id="Layer_62">
</g>
<g id="Layer_63">
</g>
<g id="Layer_64">
</g>
<g id="Layer_65">
</g>
<g id="Layer_66">
</g>
<g id="Layer_67">
</g>
<g id="Layer_68">
</g>
<g id="Layer_69">
</g>
<g id="Layer_70">
</g>
<g id="Layer_71">
</g>
<g id="Layer_72">
</g>
<g id="Layer_73">
</g>
<g id="Layer_74">
</g>
<g id="Layer_75">
</g>
<g id="Layer_76">
</g>
<g id="Layer_77">
</g>
<g id="Layer_78">
</g>
<g id="Layer_79">
</g>
<g id="Layer_80">
</g>
</svg>
