<?xml version="1.0" encoding="utf-8"?>
<!-- Generator: Adobe Illustrator 24.0.0, SVG Export Plug-In . SVG Version: 6.00 Build 0)  -->
<svg version="1.1" xmlns="http://www.w3.org/2000/svg" xmlns:xlink="http://www.w3.org/1999/xlink" x="0px" y="0px"
	 viewBox="0 0 256 256" enable-background="new 0 0 256 256" xml:space="preserve">
<g id="Layer_1">
	<g>
		<g>
			<g>
				
					<ellipse transform="matrix(0.9732 -0.2298 0.2298 0.9732 -9.063 42.8222)" fill="#5290DB" cx="179.359" cy="60.33" rx="27.141" ry="27.141"/>
			</g>
		</g>
		<g>
			<g>
				
					<ellipse transform="matrix(0.9871 -0.1602 0.1602 0.9871 -17.4342 37.8997)" fill="#5290DB" cx="226.359" cy="127.087" rx="27.141" ry="27.141"/>
			</g>
		</g>
		<g>
			<g>
				
					<ellipse transform="matrix(0.7071 -0.7071 0.7071 0.7071 -84.5349 183.6012)" fill="#5290DB" cx="179.359" cy="193.843" rx="27.141" ry="27.141"/>
			</g>
		</g>
		<g>
			<g>
				<path fill="#70D6F9" d="M107.172,98.594c0-5.933,0.805-14.291-2.862-21.11c-0.568-1.056-0.789-2.264-0.64-3.453v0
					c0.121-0.971,0.476-1.895,1.055-2.684c2.134-2.912,4.47-6.884,5.868-11.71c2.569-8.869-5.887-17.109-14.671-14.265
					c-7.242,2.345-16.619,4.1-26.261,2.398c-20.571-3.63-39.775,15.39-42.958,34.487c-2.825,16.953,5.344,40.502,9.106,50.111
					c1.126,2.877,1.181,6.055,0.153,8.968l-0.706,1.999c-1.026,2.908-3.064,5.352-5.744,6.884c-2.568,1.468-4.432,3.916-5.448,6.693
					l-0.445,1.218c-1.977,5.404-5.355,10.138-9.589,14.035C6.942,178.688,2.5,188.037,2.5,198.428v10.945h101.205l0.124-6.104
					c0.321-14.651-8.09-24.476-15.032-30.983c-2.427-2.275-4.314-5.058-5.499-8.167l-0.948-2.49
					c-0.261-0.685-0.597-1.251-0.973-1.72c-2.298-2.87-3.549-6.435-3.07-10.085c0.233-1.778,2.055-2.887,3.764-2.344
					c2.393,0.76,4.48,1.377,6.305,1.868c5.595,1.504,11.781-0.646,15.227-6.142c0.69-1.101,1.132-2.34,1.43-3.604
					c0.213-0.902,0.417-1.739,0.622-2.445c0.193-0.666,0.092-1.376-0.293-1.953l-0.763-1.144c-0.614-0.921-0.492-2.147,0.29-2.93
					l2.814-1.604c0.435-0.435,0.68-1.026,0.68-1.642v-5.913c0-0.936,0.556-1.782,1.422-2.14c1.389-0.574,3.614-1.603,5.839-3.086
					C119.273,114.325,107.172,105.855,107.172,98.594z"/>
			</g>
		</g>
		<g>
			<g>
				<path fill="#FC657E" d="M184.996,66.908c-1.701-0.31-3.453-0.472-5.244-0.472s-3.543,0.162-5.244,0.472
					c-6.896,1.256-12.17,6.634-13.549,13.369c4.837,4.464,11.298,7.194,18.399,7.194c7.418,0,14.138-2.979,19.037-7.802
					C196.832,73.222,191.681,68.126,184.996,66.908z"/>
			</g>
		</g>
		<g>
			<g>
				
					<ellipse transform="matrix(0.9871 -0.1602 0.1602 0.9871 -6.6653 29.4541)" fill="#F9D0B4" cx="179.359" cy="56.069" rx="10.227" ry="10.227"/>
			</g>
		</g>
		<g>
			<g>
				<path fill="#F5C84C" d="M231.996,133.665c-1.701-0.31-3.453-0.472-5.244-0.472s-3.543,0.162-5.244,0.472
					c-6.896,1.256-12.17,6.634-13.549,13.369c4.837,4.464,11.298,7.194,18.399,7.194c7.418,0,14.138-2.979,19.037-7.802
					C243.832,139.979,238.681,134.883,231.996,133.665z"/>
			</g>
		</g>
		<g>
			<g>
				
					<ellipse transform="matrix(0.9871 -0.1602 0.1602 0.9871 -16.7516 37.8447)" fill="#F9D0B4" cx="226.359" cy="122.826" rx="10.227" ry="10.227"/>
			</g>
		</g>
		<g>
			<g>
				<path fill="#B2E26D" d="M184.996,200.421c-1.701-0.31-3.453-0.472-5.244-0.472s-3.543,0.162-5.244,0.472
					c-6.896,1.256-12.17,6.634-13.549,13.369c4.837,4.464,11.298,7.194,18.399,7.194c7.418,0,14.138-2.979,19.037-7.802
					C196.832,206.735,191.681,201.639,184.996,200.421z"/>
			</g>
		</g>
		<g>
			<g>
				
					<ellipse transform="matrix(0.9871 -0.1602 0.1602 0.9871 -28.0517 31.1781)" fill="#F9D0B4" cx="179.359" cy="189.582" rx="10.227" ry="10.227"/>
			</g>
		</g>
		<g>
			<g>
				<g>
					<g>
						<path d="M179.359,30.689c-16.344,0-29.641,13.297-29.641,29.641s13.297,29.641,29.641,29.641S209,76.674,209,60.33
							S195.703,30.689,179.359,30.689z M179.359,84.971c-13.587,0-24.641-11.054-24.641-24.641s11.054-24.641,24.641-24.641
							S204,46.743,204,60.33S192.946,84.971,179.359,84.971z"/>
					</g>
				</g>
			</g>
		</g>
		<g>
			<g>
				<g>
					<g>
						<path d="M226.359,97.446c-16.344,0-29.641,13.297-29.641,29.641s13.297,29.641,29.641,29.641S256,143.431,256,127.087
							S242.703,97.446,226.359,97.446z M226.359,151.728c-13.587,0-24.641-11.054-24.641-24.641s11.054-24.641,24.641-24.641
							S251,113.5,251,127.087S239.946,151.728,226.359,151.728z"/>
					</g>
				</g>
			</g>
		</g>
		<g>
			<g>
				<g>
					<g>
						<path d="M179.359,164.202c-16.344,0-29.641,13.297-29.641,29.641s13.297,29.641,29.641,29.641S209,210.188,209,193.843
							S195.703,164.202,179.359,164.202z M179.359,218.484c-13.587,0-24.641-11.054-24.641-24.641s11.054-24.641,24.641-24.641
							S204,180.256,204,193.843S192.946,218.484,179.359,218.484z"/>
					</g>
				</g>
			</g>
		</g>
		<g>
			<g>
				<path fill="#87D147" d="M108.906,244.1h-0.1h-2.3v-2.3c0-1.8-1.4-3.2-3.2-3.2c-1.7,0-3.2,1.4-3.2,3.1v0.1v2.3h-2.3
					c-1.8,0-3.2,1.4-3.2,3.2c-0.1,1.7,1.3,3.2,3.2,3.2h2.3v2.3c0,1.8,1.4,3.2,3.2,3.2c1.7,0,3.2-1.4,3.2-3.1v-0.1v-2.3h2.3
					c1.8,0,3.2-1.4,3.2-3.2C112.006,245.6,110.606,244.1,108.906,244.1z"/>
			</g>
		</g>
		<g>
			<g>
				<path fill="#70D6F9" d="M77.206,21.5c-1.878,0-3.4,1.522-3.4,3.4c0,1.878,1.522,3.4,3.4,3.4s3.4-1.522,3.4-3.4
					C80.606,23.022,79.083,21.5,77.206,21.5z"/>
			</g>
		</g>
		<g>
			<g>
				<path fill="#FC657E" d="M239.15,185.175c-3.1-0.6-5.6-3-6.2-6.1c0-0.1-0.3-0.1-0.3,0c-0.6,3.1-3.1,5.5-6.2,6.1
					c-0.1,0-0.1,0.2,0,0.3c3.1,0.6,5.6,3,6.2,6.1c0,0.1,0.3,0.1,0.3,0c0.6-3.1,3.1-5.5,6.2-6.1
					C239.25,185.375,239.25,185.175,239.15,185.175z"/>
			</g>
		</g>
		<g>
			<g>
				<path fill="#F5C84C" d="M136.369,226c-1.878,0-3.4,1.522-3.4,3.4c0,1.878,1.522,3.4,3.4,3.4c1.878,0,3.4-1.522,3.4-3.4
					C139.769,227.522,138.246,226,136.369,226z"/>
			</g>
		</g>
		<g>
			<g>
				<path fill="#F5C84C" d="M125.15,8.85c-4.5-0.8-8-4.3-8.9-8.7c0-0.2-0.4-0.2-0.4,0c-0.9,4.4-4.4,7.9-8.9,8.7
					c-0.2,0-0.2,0.3,0,0.4c4.5,0.8,8,4.3,8.9,8.7c0,0.2,0.4,0.2,0.4,0c0.9-4.4,4.4-7.9,8.9-8.7C125.35,9.15,125.35,8.85,125.15,8.85
					z"/>
			</g>
		</g>
		<g>
			<g>
				<path d="M114.786,108.006c-2.278-2.948-5.113-6.617-5.113-9.412c0-0.852,0.017-1.754,0.035-2.695
					c0.11-5.88,0.247-13.199-3.195-19.6c-0.321-0.598-0.446-1.275-0.361-1.958c0.07-0.561,0.274-1.085,0.591-1.516
					c2.891-3.944,4.994-8.147,6.252-12.492c1.449-5.004,0.01-10.381-3.757-14.032c-3.81-3.692-9.077-4.927-14.085-3.307
					c-8.935,2.893-17.366,3.671-25.057,2.314c-8.925-1.575-18.391,0.779-26.66,6.626c-9.938,7.027-17.295,18.489-19.199,29.913
					c-2.936,17.613,5.487,41.836,9.244,51.433c0.907,2.315,0.95,4.881,0.123,7.225l-0.706,1.999
					c-0.827,2.343-2.47,4.313-4.628,5.545c-2.957,1.691-5.285,4.534-6.555,8.005l-0.445,1.217
					c-1.769,4.833-4.774,9.226-8.934,13.055C4.496,177.542,0,187.784,0,198.428v10.945c0,1.381,1.119,2.5,2.5,2.5s2.5-1.119,2.5-2.5
					v-10.945c0-9.25,3.908-18.151,10.721-24.422c4.752-4.374,8.199-9.426,10.244-15.016l0.445-1.217
					c0.865-2.364,2.407-4.276,4.341-5.382c3.198-1.829,5.635-4.749,6.861-8.222l0.706-1.999c1.227-3.475,1.162-7.279-0.182-10.712
					c-3.606-9.21-11.699-32.403-8.968-48.788c1.693-10.155,8.266-20.368,17.154-26.653c5.073-3.587,13.165-7.504,22.904-5.784
					c8.506,1.501,17.747,0.666,27.466-2.481c3.22-1.042,6.607-0.242,9.065,2.14c2.472,2.396,3.382,5.779,2.434,9.051
					c-1.095,3.78-2.939,7.457-5.482,10.926c-0.818,1.116-1.343,2.448-1.52,3.853c-0.214,1.719,0.104,3.43,0.919,4.946
					c2.822,5.248,2.699,11.84,2.6,17.138c-0.019,0.974-0.036,1.907-0.036,2.789c0,4.502,3.414,8.919,6.157,12.469
					c0.956,1.237,2.319,3.002,2.814,4c-1.819,1.143-3.583,1.958-4.794,2.459c-1.802,0.745-2.966,2.492-2.966,4.45v5.715
					l-2.232,1.272c-0.193,0.11-0.372,0.246-0.529,0.403c-1.621,1.62-1.875,4.179-0.603,6.085l0.716,1.075
					c-0.208,0.728-0.418,1.584-0.635,2.505c-0.273,1.157-0.638,2.09-1.116,2.852c-2.739,4.369-7.627,6.353-12.459,5.055
					c-1.804-0.485-3.889-1.103-6.197-1.836c-1.538-0.488-3.203-0.272-4.566,0.595c-1.341,0.853-2.229,2.241-2.434,3.807
					c-0.542,4.145,0.735,8.397,3.598,11.973c0.239,0.298,0.437,0.651,0.588,1.046l0.948,2.49c1.302,3.417,3.419,6.564,6.125,9.101
					c6.789,6.364,14.542,15.423,14.242,29.108l-0.124,6.104c-0.028,1.38,1.068,2.522,2.449,2.55c0.018,0,0.035,0,0.052,0
					c1.357,0,2.471-1.086,2.499-2.449l0.124-6.101c0.347-15.835-8.863-26.338-15.821-32.861c-2.155-2.02-3.839-4.521-4.872-7.233
					l-0.949-2.491c-0.337-0.883-0.794-1.688-1.357-2.391c-2.004-2.503-2.908-5.415-2.543-8.198c0.004-0.037,0.019-0.148,0.159-0.237
					c0.064-0.042,0.199-0.102,0.369-0.048c2.379,0.756,4.537,1.395,6.413,1.899c6.891,1.854,14.122-1.052,17.994-7.228
					c0.773-1.233,1.344-2.658,1.746-4.358c0.203-0.858,0.396-1.653,0.589-2.322c0.4-1.379,0.177-2.85-0.613-4.036l-0.611-0.917
					l2.111-1.203c0.194-0.111,0.373-0.247,0.53-0.405c0.91-0.911,1.411-2.121,1.411-3.409v-5.793
					c1.553-0.648,3.84-1.728,6.147-3.265c0.958-0.639,1.56-1.554,1.739-2.646C119.177,113.688,117.239,111.181,114.786,108.006z"/>
			</g>
		</g>
		<g>
			<g>
				<path d="M200.742,78.753c-1.914-7.345-7.919-12.959-15.298-14.304c-3.734-0.68-7.648-0.68-11.384,0
					c-7.699,1.403-13.777,7.3-15.485,15.023c-0.298,1.348,0.553,2.683,1.901,2.981c0.182,0.041,0.364,0.06,0.542,0.06
					c1.147,0,2.181-0.794,2.438-1.96c1.272-5.753,5.787-10.144,11.5-11.185c3.144-0.572,6.448-0.572,9.592,0
					c5.473,0.998,9.931,5.176,11.356,10.646c0.348,1.336,1.712,2.138,3.049,1.789C200.29,81.454,201.091,80.089,200.742,78.753z"/>
			</g>
		</g>
		<g>
			<g>
				<g>
					<g>
						<path d="M179.359,43.342c-7.018,0-12.727,5.709-12.727,12.727s5.709,12.727,12.727,12.727s12.727-5.709,12.727-12.727
							S186.376,43.342,179.359,43.342z M179.359,63.796c-4.261,0-7.727-3.466-7.727-7.727s3.466-7.727,7.727-7.727
							s7.727,3.466,7.727,7.727S183.62,63.796,179.359,63.796z"/>
					</g>
				</g>
			</g>
		</g>
		<g>
			<g>
				<path d="M247.783,145.664c-1.873-7.427-7.893-13.102-15.338-14.458c-3.734-0.681-7.652-0.681-11.384,0
					c-7.698,1.402-13.777,7.298-15.485,15.022c-0.298,1.348,0.553,2.683,1.901,2.981c0.182,0.041,0.363,0.06,0.542,0.06
					c1.147,0,2.181-0.794,2.438-1.96c1.273-5.753,5.787-10.143,11.5-11.183c3.142-0.574,6.448-0.574,9.591,0
					c5.522,1.006,9.992,5.23,11.386,10.762c0.338,1.339,1.701,2.152,3.036,1.813C247.309,148.362,248.12,147.003,247.783,145.664z"
					/>
			</g>
		</g>
		<g>
			<g>
				<g>
					<g>
						<path d="M226.359,110.099c-7.018,0-12.727,5.709-12.727,12.727s5.709,12.727,12.727,12.727s12.727-5.709,12.727-12.727
							S233.376,110.099,226.359,110.099z M226.359,130.553c-4.261,0-7.727-3.466-7.727-7.727s3.466-7.727,7.727-7.727
							s7.727,3.466,7.727,7.727S230.62,130.553,226.359,130.553z"/>
					</g>
				</g>
			</g>
		</g>
		<g>
			<g>
				<path d="M200.763,212.345c-1.894-7.387-7.906-13.033-15.319-14.383c-3.73-0.68-7.655-0.68-11.384,0
					c-7.71,1.405-13.79,7.312-15.491,15.048c-0.296,1.349,0.557,2.682,1.905,2.979c0.181,0.04,0.361,0.059,0.539,0.059
					c1.148,0,2.183-0.796,2.439-1.964c1.267-5.763,5.782-10.16,11.503-11.203c3.139-0.572,6.451-0.572,9.591,0
					c5.498,1.001,9.962,5.204,11.372,10.705c0.343,1.338,1.709,2.145,3.042,1.801C200.299,215.044,201.106,213.682,200.763,212.345z
					"/>
			</g>
		</g>
		<g>
			<g>
				<g>
					<g>
						<path d="M179.359,176.855c-7.018,0-12.727,5.709-12.727,12.727s5.709,12.727,12.727,12.727s12.727-5.709,12.727-12.727
							S186.376,176.855,179.359,176.855z M179.359,197.309c-4.261,0-7.727-3.466-7.727-7.727s3.466-7.727,7.727-7.727
							s7.727,3.466,7.727,7.727S183.62,197.309,179.359,197.309z"/>
					</g>
				</g>
			</g>
		</g>
		<g>
			<g>
				<path d="M142.994,126h-6.013c-1.381,0-2.5,1.119-2.5,2.5s1.119,2.5,2.5,2.5h6.013c1.381,0,2.5-1.119,2.5-2.5
					S144.375,126,142.994,126z"/>
			</g>
		</g>
		<g>
			<g>
				<path d="M139.198,105.003c-0.69-1.196-2.22-1.607-3.415-0.915l-5.207,3.006c-1.196,0.69-1.605,2.219-0.915,3.415
					c0.463,0.802,1.303,1.25,2.167,1.25c0.424,0,0.854-0.108,1.248-0.335l5.207-3.006
					C139.479,107.728,139.888,106.199,139.198,105.003z"/>
			</g>
		</g>
		<g>
			<g>
				<path d="M138.283,148.582l-5.207-3.006c-1.197-0.692-2.725-0.281-3.415,0.915c-0.69,1.196-0.281,2.725,0.915,3.415l5.207,3.006
					c0.394,0.228,0.824,0.335,1.248,0.335c0.864,0,1.705-0.448,2.167-1.25C139.888,150.801,139.479,149.272,138.283,148.582z"/>
			</g>
		</g>
	</g>
</g>
<g id="Layer_2">
</g>
<g id="Layer_3">
</g>
<g id="Layer_4">
</g>
<g id="Layer_5">
</g>
<g id="Layer_6">
</g>
<g id="Layer_7">
</g>
<g id="Layer_8">
</g>
<g id="Layer_9">
</g>
<g id="Layer_10">
</g>
<g id="Layer_11">
</g>
<g id="Layer_12">
</g>
<g id="Layer_13">
</g>
<g id="Layer_14">
</g>
<g id="Layer_15">
</g>
<g id="Layer_16">
</g>
<g id="Layer_17">
</g>
<g id="Layer_18">
</g>
<g id="Layer_19">
</g>
<g id="Layer_20">
</g>
<g id="Layer_21">
</g>
<g id="Layer_22">
</g>
<g id="Layer_23">
</g>
<g id="Layer_24">
</g>
<g id="Layer_25">
</g>
<g id="Layer_26">
</g>
<g id="Layer_27">
</g>
<g id="Layer_28">
</g>
<g id="Layer_29">
</g>
<g id="Layer_30">
</g>
<g id="Layer_31">
</g>
<g id="Layer_32">
</g>
<g id="Layer_33">
</g>
<g id="Layer_34">
</g>
<g id="Layer_35">
</g>
<g id="Layer_36">
</g>
<g id="Layer_37">
</g>
<g id="Layer_38">
</g>
<g id="Layer_39">
</g>
<g id="Layer_40">
</g>
<g id="Layer_41">
</g>
<g id="Layer_42">
</g>
<g id="Layer_43">
</g>
<g id="Layer_44">
</g>
<g id="Layer_45">
</g>
<g id="Layer_46">
</g>
<g id="Layer_47">
</g>
<g id="Layer_48">
</g>
<g id="Layer_49">
</g>
<g id="Layer_50">
</g>
<g id="Layer_51">
</g>
<g id="Layer_52">
</g>
<g id="Layer_53">
</g>
<g id="Layer_54">
</g>
<g id="Layer_55">
</g>
<g id="Layer_56">
</g>
<g id="Layer_57">
</g>
<g id="Layer_58">
</g>
<g id="Layer_59">
</g>
<g id="Layer_60">
</g>
<g id="Layer_61">
</g>
<g id="Layer_62">
</g>
<g id="Layer_63">
</g>
<g id="Layer_64">
</g>
<g id="Layer_65">
</g>
<g id="Layer_66">
</g>
<g id="Layer_67">
</g>
<g id="Layer_68">
</g>
<g id="Layer_69">
</g>
<g id="Layer_70">
</g>
<g id="Layer_71">
</g>
<g id="Layer_72">
</g>
<g id="Layer_73">
</g>
<g id="Layer_74">
</g>
<g id="Layer_75">
</g>
<g id="Layer_76">
</g>
<g id="Layer_77">
</g>
<g id="Layer_78">
</g>
<g id="Layer_79">
</g>
<g id="Layer_80">
</g>
</svg>
