<?xml version="1.0" encoding="utf-8"?>
<!-- Generator: Adobe Illustrator 24.0.0, SVG Export Plug-In . SVG Version: 6.00 Build 0)  -->
<svg version="1.1" xmlns="http://www.w3.org/2000/svg" xmlns:xlink="http://www.w3.org/1999/xlink" x="0px" y="0px"
	 viewBox="0 0 256 256" enable-background="new 0 0 256 256" xml:space="preserve">
<g id="Layer_1">
</g>
<g id="Layer_2">
</g>
<g id="Layer_3">
</g>
<g id="Layer_4">
</g>
<g id="Layer_5">
</g>
<g id="Layer_6">
</g>
<g id="Layer_7">
</g>
<g id="Layer_8">
</g>
<g id="Layer_9">
</g>
<g id="Layer_10">
</g>
<g id="Layer_11">
</g>
<g id="Layer_12">
</g>
<g id="Layer_13">
</g>
<g id="Layer_14">
</g>
<g id="Layer_15">
</g>
<g id="Layer_16">
</g>
<g id="Layer_17">
</g>
<g id="Layer_18">
</g>
<g id="Layer_19">
</g>
<g id="Layer_20">
</g>
<g id="Layer_21">
	<g>
		<g>
			<g>
				<path fill="#FC657E" d="M55.401,160.242l-26.365,9.901c-10.567,3.968-15.916,15.75-11.948,26.317l0,0
					c3.968,10.567,15.751,15.916,26.317,11.948l26.365-9.901L55.401,160.242z"/>
			</g>
		</g>
		<g>
			<g>
				<path fill="#FC657E" d="M127.933,193.058l-25.159-66.998c-1.58-4.207-6.271-6.337-10.478-4.757
					c-4.207,1.58-6.337,6.271-4.757,10.478l25.159,66.998c1.58,4.207,6.271,6.337,10.478,4.757S129.513,197.265,127.933,193.058z"/>
			</g>
		</g>
		<g>
			<g>
				<path fill="#DAE6F1" d="M83.488,225.001l-19.809-24.206l-18.512,6.952l23.827,29.116c2.542,3.106,6.781,4.247,10.539,2.836
					C85.535,237.445,87.548,229.962,83.488,225.001z"/>
			</g>
		</g>
		<g>
			<g>
				<path fill="#DAE6F1" d="M88.463,134.239c-7.92,11.527-14.739,19.122-28.826,24.412l-4.237,1.591l14.369,38.266l4.237-1.591
					c14.087-5.29,24.219-4.061,37.769-0.595L88.463,134.239z"/>
			</g>
		</g>
		<g>
			<g>
				<path fill="#DAE6F1" d="M130.411,153.905L130.411,153.905c-3.17-8.441-12.438-12.789-20.919-9.956l11.724,31.221
					C129.465,171.719,133.581,162.346,130.411,153.905z"/>
			</g>
		</g>
		<g>
			<g>
				<path fill="#DAE6F1" d="M234.175,38.085h-59.212c-3.34,0-6.048,2.708-6.048,6.048v87.233c0,3.34,2.708,6.048,6.048,6.048h44.518
					l20.743-20.743V44.133C240.223,40.793,237.515,38.085,234.175,38.085z"/>
			</g>
		</g>
		<g>
			<g>
				<path fill="#70D6F9" d="M121.427,24.541H80.508c-6.523,0-11.86,5.337-11.86,11.86v28.529c0,6.523,5.337,11.86,11.86,11.86h2.842
					c2.091,0,3.785,1.695,3.785,3.785v3.993c0,1.854,2.219,2.773,3.559,1.492c1.86-1.779,3.348-3.722,4.537-5.661
					c1.357-2.214,3.723-3.609,6.319-3.609h19.876c6.523,0,11.86-5.337,11.86-11.86V36.401
					C133.287,29.878,127.95,24.541,121.427,24.541z"/>
			</g>
		</g>
		<g>
			<g>
				<path fill="#F5C84C" d="M142.674,36.344h-9.389c0,0.019,0.003,0.038,0.003,0.057v28.529c0,6.523-5.337,11.86-11.86,11.86
					h-19.876c-2.597,0-4.962,1.396-6.319,3.609c-0.771,1.257-1.683,2.512-2.725,3.726c2.178,2.716,5.516,4.468,9.248,4.468h19.876
					c2.597,0,4.962,1.396,6.319,3.609c1.189,1.939,2.677,3.882,4.537,5.661c1.34,1.282,3.559,0.362,3.559-1.492v-3.993
					c0-2.091,1.695-3.785,3.785-3.785h2.842c6.523,0,11.86-5.337,11.86-11.86V48.204C154.534,41.681,149.197,36.344,142.674,36.344z
					"/>
			</g>
		</g>
		<g>
			<g>
				<path fill="#C7D7E5" d="M224.876,116.672c-2.98,0-5.396,2.416-5.396,5.396v15.347l20.743-20.743H224.876z"/>
			</g>
		</g>
		<g>
			<g>
				<path fill="#70D6F9" d="M150.224,228.1h-2.4v-2.3c0-1.8-1.4-3.2-3.2-3.2c-1.7,0-3.2,1.4-3.2,3.1v2.4h-2.3
					c-1.8,0-3.2,1.4-3.2,3.2c-0.1,1.7,1.3,3.2,3.2,3.2h2.3v2.3c0,1.8,1.4,3.2,3.2,3.2c1.7,0,3.2-1.4,3.2-3.1v-2.4h2.3
					c1.8,0,3.2-1.4,3.2-3.2C153.324,229.6,151.924,228.1,150.224,228.1z"/>
			</g>
		</g>
		<g>
			<g>
				<path fill="#F5C84C" d="M111.524,249.2c-1.878,0-3.4,1.522-3.4,3.4s1.522,3.4,3.4,3.4c1.878,0,3.4-1.522,3.4-3.4
					S113.402,249.2,111.524,249.2z"/>
			</g>
		</g>
		<g>
			<g>
				<path fill="#FC657E" d="M195.469,171.175c-3.1-0.6-5.6-3-6.2-6.1c0-0.1-0.3-0.1-0.3,0c-0.6,3.1-3.1,5.5-6.2,6.1
					c-0.1,0-0.1,0.2,0,0.3c3.1,0.6,5.6,3,6.2,6.1c0,0.1,0.3,0.1,0.3,0c0.6-3.1,3.1-5.5,6.2-6.1
					C195.569,171.375,195.569,171.175,195.469,171.175z"/>
			</g>
		</g>
		<g>
			<g>
				<path fill="#87D147" d="M72.687,0c-1.878,0-3.4,1.522-3.4,3.4c0,1.878,1.522,3.4,3.4,3.4c1.878,0,3.4-1.522,3.4-3.4
					C76.087,1.522,74.565,0,72.687,0z"/>
			</g>
		</g>
		<g>
			<g>
				<path fill="#F5C84C" d="M51.469,24.2c-4.5-0.8-8-4.3-8.9-8.7c0-0.2-0.4-0.2-0.4,0c-0.9,4.4-4.4,7.9-8.9,8.7
					c-0.2,0-0.2,0.3,0,0.4c4.5,0.8,8,4.3,8.9,8.7c0,0.2,0.4,0.2,0.4,0c0.9-4.4,4.4-7.9,8.9-8.7C51.669,24.5,51.669,24.2,51.469,24.2
					z"/>
			</g>
		</g>
		<g>
			<g>
				<path d="M72.11,197.628c-0.485-1.292-1.927-1.946-3.219-1.461l-26.365,9.9c-9.258,3.478-19.621-1.228-23.099-10.487
					c-3.477-9.259,1.228-19.621,10.487-23.098l26.365-9.9c1.292-0.485,1.947-1.927,1.461-3.219s-1.927-1.948-3.219-1.461
					l-26.365,9.9c-11.84,4.447-17.855,17.697-13.409,29.537c3.452,9.194,12.21,14.876,21.498,14.875
					c2.673,0,5.393-0.472,8.039-1.465l26.365-9.9C71.941,200.362,72.596,198.921,72.11,197.628z"/>
			</g>
		</g>
		<g>
			<g>
				<g>
					<g>
						<g>
							<path d="M130.273,192.179l-25.159-66.998c-2.062-5.491-8.207-8.28-13.697-6.218s-8.28,8.206-6.218,13.697l25.159,66.998
								c0.999,2.66,2.974,4.771,5.561,5.946c1.404,0.637,2.896,0.957,4.393,0.957c1.262,0,2.527-0.228,3.744-0.685
								c2.66-0.999,4.771-2.974,5.946-5.561C131.176,197.728,131.272,194.839,130.273,192.179z M125.448,198.249
								c-0.623,1.371-1.741,2.417-3.151,2.947c-1.409,0.529-2.941,0.477-4.312-0.145c-1.371-0.623-2.417-1.742-2.947-3.151
								L89.88,130.902c-1.092-2.91,0.386-6.166,3.295-7.259c0.645-0.242,1.315-0.363,1.984-0.363c0.793,0,1.584,0.17,2.328,0.507
								c1.371,0.623,2.417,1.742,2.947,3.151l25.159,66.998C126.122,195.346,126.071,196.877,125.448,198.249z"/>
						</g>
					</g>
				</g>
			</g>
		</g>
		<g>
			<g>
				<path d="M85.422,223.417l-19.116-23.359c-0.874-1.068-2.449-1.226-3.518-0.351c-1.068,0.875-1.226,2.449-0.351,3.518
					l19.116,23.359c1.418,1.733,1.898,3.968,1.316,6.131c-0.582,2.163-2.118,3.854-4.215,4.642c-2.755,1.036-5.861,0.2-7.726-2.079
					l-23.035-28.147c-0.874-1.068-2.449-1.227-3.518-0.351c-1.068,0.875-1.226,2.449-0.351,3.518l23.035,28.147
					c2.301,2.812,5.694,4.352,9.181,4.352c1.396,0,2.809-0.247,4.171-0.759c3.624-1.36,6.28-4.285,7.286-8.023
					C88.704,230.277,87.875,226.414,85.422,223.417z"/>
			</g>
		</g>
		<g>
			<g>
				<path d="M111.76,193.737c-14.115-3.563-24.453-4.485-38.632,0.838l-1.896,0.712L58.62,161.703l1.896-0.712
					c14.226-5.341,21.454-12.926,29.813-25.054c0.784-1.137,0.498-2.694-0.639-3.477c-1.138-0.785-2.693-0.498-3.478,0.639
					c-7.958,11.546-14.39,18.306-27.454,23.211l-4.237,1.591c-1.292,0.485-1.947,1.927-1.461,3.219l14.37,38.266
					c0.233,0.621,0.703,1.124,1.307,1.397c0.328,0.149,0.68,0.224,1.033,0.224c0.297,0,0.595-0.053,0.879-0.16l4.237-1.591
					c13.02-4.889,22.221-4.062,35.65-0.671c1.339,0.337,2.698-0.473,3.036-1.812C113.91,195.435,113.099,194.075,111.76,193.737z"/>
			</g>
		</g>
		<g>
			<g>
				<path d="M35.469,165.995l-2.289-6.094c-0.485-1.292-1.925-1.948-3.219-1.461c-1.292,0.485-1.947,1.927-1.461,3.219l2.289,6.094
					c0.376,1.003,1.329,1.622,2.341,1.622c0.292,0,0.589-0.051,0.878-0.16C35.3,168.729,35.955,167.288,35.469,165.995z"/>
			</g>
		</g>
		<g>
			<g>
				<path d="M132.751,153.025c-3.344-8.907-12.869-14.054-22.15-11.977c-1.347,0.302-2.195,1.638-1.893,2.986
					s1.639,2.196,2.986,1.893c6.867-1.537,13.904,2.271,16.377,8.856c2.533,6.747-0.391,14.315-6.802,17.606
					c-1.229,0.63-1.713,2.137-1.083,3.366c0.443,0.863,1.318,1.359,2.226,1.359c0.384,0,0.774-0.089,1.14-0.276
					C132.223,172.388,136.178,162.15,132.751,153.025z"/>
			</g>
		</g>
		<g>
			<g>
				<path d="M160.785,168.784l-5.268-1.626c-1.318-0.407-2.719,0.332-3.126,1.651c-0.407,1.319,0.332,2.719,1.651,3.126l5.268,1.626
					c0.246,0.076,0.494,0.112,0.738,0.112c1.067,0,2.056-0.689,2.388-1.763C162.844,170.591,162.104,169.191,160.785,168.784z"/>
			</g>
		</g>
		<g>
			<g>
				<path d="M163.282,149.513c-0.307-1.347-1.649-2.188-2.993-1.882l-5.375,1.225c-1.346,0.307-2.188,1.647-1.882,2.993
					c0.264,1.159,1.294,1.945,2.435,1.945c0.184,0,0.371-0.021,0.558-0.063l5.375-1.225
					C162.746,152.2,163.588,150.859,163.282,149.513z"/>
			</g>
		</g>
		<g>
			<g>
				<path d="M150.639,187.352l-3.749-4.042c-0.938-1.012-2.521-1.072-3.533-0.133c-1.013,0.938-1.072,2.521-0.133,3.533l3.749,4.042
					c0.493,0.531,1.162,0.8,1.833,0.8c0.608,0,1.218-0.221,1.699-0.667C151.518,189.946,151.578,188.364,150.639,187.352z"/>
			</g>
		</g>
		<g>
			<g>
				<g>
					<g>
						<path d="M234.175,35.585h-59.213c-4.713,0-8.548,3.835-8.548,8.548v87.233c0,4.713,3.834,8.548,8.548,8.548h44.518
							c0.663,0,1.299-0.263,1.768-0.732l20.743-20.743c0.469-0.469,0.732-1.104,0.732-1.768V44.133
							C242.723,39.42,238.888,35.585,234.175,35.585z M237.723,115.636l-19.279,19.279h-43.482c-1.957,0-3.548-1.592-3.548-3.548
							V44.133c0-1.957,1.591-3.548,3.548-3.548h59.213c1.957,0,3.548,1.592,3.548,3.548V115.636z"/>
					</g>
				</g>
			</g>
		</g>
		<g>
			<g>
				<path d="M226.268,91.072h-43.674c-1.381,0-2.5,1.119-2.5,2.5s1.119,2.5,2.5,2.5h43.674c1.381,0,2.5-1.119,2.5-2.5
					S227.649,91.072,226.268,91.072z"/>
			</g>
		</g>
		<g>
			<g>
				<path d="M226.268,79.921h-43.674c-1.381,0-2.5,1.119-2.5,2.5s1.119,2.5,2.5,2.5h43.674c1.381,0,2.5-1.119,2.5-2.5
					S227.649,79.921,226.268,79.921z"/>
			</g>
		</g>
		<g>
			<g>
				<path d="M226.268,102.223h-43.674c-1.381,0-2.5,1.119-2.5,2.5s1.119,2.5,2.5,2.5h43.674c1.381,0,2.5-1.119,2.5-2.5
					S227.649,102.223,226.268,102.223z"/>
			</g>
		</g>
		<g>
			<g>
				<path d="M204.431,113.374h-21.837c-1.381,0-2.5,1.119-2.5,2.5s1.119,2.5,2.5,2.5h21.837c1.381,0,2.5-1.119,2.5-2.5
					S205.812,113.374,204.431,113.374z"/>
			</g>
		</g>
		<g>
			<g>
				<path d="M226.268,57.619h-43.674c-1.381,0-2.5,1.119-2.5,2.5s1.119,2.5,2.5,2.5h43.674c1.381,0,2.5-1.119,2.5-2.5
					S227.649,57.619,226.268,57.619z"/>
			</g>
		</g>
		<g>
			<g>
				<path d="M226.268,68.77h-43.674c-1.381,0-2.5,1.119-2.5,2.5s1.119,2.5,2.5,2.5h43.674c1.381,0,2.5-1.119,2.5-2.5
					S227.649,68.77,226.268,68.77z"/>
			</g>
		</g>
		<g>
			<g>
				<g>
					<g>
						<path d="M121.427,22.041H80.508c-7.918,0-14.36,6.442-14.36,14.36v28.528c0,7.918,6.442,14.36,14.36,14.36h2.842
							c0.708,0,1.285,0.577,1.285,1.286v3.993c0,1.839,1.09,3.493,2.778,4.213c0.585,0.25,1.2,0.372,1.811,0.372
							c1.167,0,2.318-0.444,3.198-1.287c1.866-1.785,3.528-3.858,4.94-6.161c0.928-1.513,2.493-2.416,4.188-2.416h19.876
							c7.918,0,14.36-6.442,14.36-14.36V36.401C135.787,28.482,129.345,22.041,121.427,22.041z M130.787,64.929
							c0,5.161-4.199,9.36-9.36,9.36h-19.876c-3.448,0-6.607,1.795-8.451,4.803c-1.014,1.655-2.177,3.163-3.464,4.495v-3.012
							c0-3.466-2.819-6.286-6.285-6.286h-2.842c-5.161,0-9.36-4.199-9.36-9.36V36.401c0-5.161,4.199-9.36,9.36-9.36h40.919
							c5.161,0,9.36,4.199,9.36,9.36V64.929z"/>
					</g>
				</g>
			</g>
		</g>
		<g>
			<g>
				<path d="M142.674,33.844h-8.382c-1.381,0-2.5,1.119-2.5,2.5s1.119,2.5,2.5,2.5h8.382c5.161,0,9.36,4.199,9.36,9.36v28.528
					c0,5.161-4.199,9.36-9.36,9.36h-2.843c-3.466,0-6.285,2.819-6.285,6.285v3.013c-1.287-1.333-2.45-2.841-3.464-4.496
					c-1.844-3.007-5.003-4.803-8.451-4.803h-19.876c-2.569,0-5.059-1.091-6.832-2.994c-0.942-1.01-2.523-1.065-3.534-0.125
					c-1.01,0.941-1.065,2.523-0.124,3.534c2.715,2.914,6.539,4.585,10.49,4.585h19.876c1.695,0,3.26,0.903,4.188,2.416
					c1.412,2.303,3.074,4.376,4.94,6.161c0.881,0.842,2.031,1.286,3.198,1.286c0.611,0,1.227-0.122,1.812-0.371
					c1.687-0.721,2.777-2.375,2.777-4.213v-3.994c0-0.708,0.577-1.285,1.285-1.285h2.843c7.918,0,14.36-6.442,14.36-14.36V48.205
					C157.034,40.286,150.592,33.844,142.674,33.844z"/>
			</g>
		</g>
		<g>
			<g>
				<path d="M239.292,114.172h-14.417c-4.354,0-7.896,3.542-7.896,7.896v14.39c0,1.381,1.119,2.5,2.5,2.5s2.5-1.119,2.5-2.5v-14.39
					c0-1.597,1.299-2.896,2.896-2.896h14.417c1.381,0,2.5-1.119,2.5-2.5S240.673,114.172,239.292,114.172z"/>
			</g>
		</g>
	</g>
</g>
<g id="Layer_22">
</g>
<g id="Layer_23">
</g>
<g id="Layer_24">
</g>
<g id="Layer_25">
</g>
<g id="Layer_26">
</g>
<g id="Layer_27">
</g>
<g id="Layer_28">
</g>
<g id="Layer_29">
</g>
<g id="Layer_30">
</g>
<g id="Layer_31">
</g>
<g id="Layer_32">
</g>
<g id="Layer_33">
</g>
<g id="Layer_34">
</g>
<g id="Layer_35">
</g>
<g id="Layer_36">
</g>
<g id="Layer_37">
</g>
<g id="Layer_38">
</g>
<g id="Layer_39">
</g>
<g id="Layer_40">
</g>
<g id="Layer_41">
</g>
<g id="Layer_42">
</g>
<g id="Layer_43">
</g>
<g id="Layer_44">
</g>
<g id="Layer_45">
</g>
<g id="Layer_46">
</g>
<g id="Layer_47">
</g>
<g id="Layer_48">
</g>
<g id="Layer_49">
</g>
<g id="Layer_50">
</g>
<g id="Layer_51">
</g>
<g id="Layer_52">
</g>
<g id="Layer_53">
</g>
<g id="Layer_54">
</g>
<g id="Layer_55">
</g>
<g id="Layer_56">
</g>
<g id="Layer_57">
</g>
<g id="Layer_58">
</g>
<g id="Layer_59">
</g>
<g id="Layer_60">
</g>
<g id="Layer_61">
</g>
<g id="Layer_62">
</g>
<g id="Layer_63">
</g>
<g id="Layer_64">
</g>
<g id="Layer_65">
</g>
<g id="Layer_66">
</g>
<g id="Layer_67">
</g>
<g id="Layer_68">
</g>
<g id="Layer_69">
</g>
<g id="Layer_70">
</g>
<g id="Layer_71">
</g>
<g id="Layer_72">
</g>
<g id="Layer_73">
</g>
<g id="Layer_74">
</g>
<g id="Layer_75">
</g>
<g id="Layer_76">
</g>
<g id="Layer_77">
</g>
<g id="Layer_78">
</g>
<g id="Layer_79">
</g>
<g id="Layer_80">
</g>
</svg>
