<?xml version="1.0" encoding="utf-8"?>
<!-- Generator: Adobe Illustrator 24.0.0, SVG Export Plug-In . SVG Version: 6.00 Build 0)  -->
<svg version="1.1" xmlns="http://www.w3.org/2000/svg" xmlns:xlink="http://www.w3.org/1999/xlink" x="0px" y="0px"
	 viewBox="0 0 256 256" enable-background="new 0 0 256 256" xml:space="preserve">
<g id="Layer_1">
</g>
<g id="Layer_2">
</g>
<g id="Layer_3">
</g>
<g id="Layer_4">
</g>
<g id="Layer_5">
</g>
<g id="Layer_6">
</g>
<g id="Layer_7">
</g>
<g id="Layer_8">
</g>
<g id="Layer_9">
</g>
<g id="Layer_10">
</g>
<g id="Layer_11">
</g>
<g id="Layer_12">
</g>
<g id="Layer_13">
</g>
<g id="Layer_14">
</g>
<g id="Layer_15">
</g>
<g id="Layer_16">
</g>
<g id="Layer_17">
</g>
<g id="Layer_18">
</g>
<g id="Layer_19">
</g>
<g id="Layer_20">
</g>
<g id="Layer_21">
</g>
<g id="Layer_22">
</g>
<g id="Layer_23">
</g>
<g id="Layer_24">
</g>
<g id="Layer_25">
</g>
<g id="Layer_26">
</g>
<g id="Layer_27">
</g>
<g id="Layer_28">
</g>
<g id="Layer_29">
</g>
<g id="Layer_30">
</g>
<g id="Layer_31">
</g>
<g id="Layer_32">
</g>
<g id="Layer_33">
</g>
<g id="Layer_34">
</g>
<g id="Layer_35">
</g>
<g id="Layer_36">
</g>
<g id="Layer_37">
</g>
<g id="Layer_38">
</g>
<g id="Layer_39">
</g>
<g id="Layer_40">
</g>
<g id="Layer_41">
</g>
<g id="Layer_42">
</g>
<g id="Layer_43">
</g>
<g id="Layer_44">
</g>
<g id="Layer_45">
</g>
<g id="Layer_46">
</g>
<g id="Layer_47">
</g>
<g id="Layer_48">
</g>
<g id="Layer_49">
</g>
<g id="Layer_50">
</g>
<g id="Layer_51">
</g>
<g id="Layer_52">
</g>
<g id="Layer_53">
</g>
<g id="Layer_54">
</g>
<g id="Layer_55">
</g>
<g id="Layer_56">
</g>
<g id="Layer_57">
</g>
<g id="Layer_58">
</g>
<g id="Layer_59">
</g>
<g id="Layer_60">
</g>
<g id="Layer_61">
	<g>
		<g>
			<g>
				<path fill="#70D6F9" d="M236.067,35.143h-88.134c-5.703,0-10.369,4.666-10.369,10.369v53.457
					c0,5.703,4.666,10.369,10.369,10.369h32.384c1.977,0,3.804,1.053,4.794,2.764l4.278,7.39c1.162,2.006,4.058,2.006,5.22,0
					l4.278-7.39c0.99-1.711,2.818-2.764,4.794-2.764h32.384c5.703,0,10.369-4.666,10.369-10.369V45.512
					C246.436,39.809,241.77,35.143,236.067,35.143z"/>
			</g>
		</g>
		<g>
			<g>
				<path fill="#FC657E" d="M108.067,35.143H19.933c-5.703,0-10.369,4.666-10.369,10.369v53.457c0,5.703,4.666,10.369,10.369,10.369
					h32.384c1.977,0,3.804,1.053,4.795,2.764l4.278,7.39c1.162,2.006,4.058,2.006,5.22,0l4.278-7.39
					c0.99-1.711,2.818-2.764,4.794-2.764h32.384c5.703,0,10.369-4.666,10.369-10.369V45.512
					C118.436,39.809,113.77,35.143,108.067,35.143z"/>
			</g>
		</g>
		<g>
			<g>
				<path fill="#EDF4FC" d="M87.719,66.708H53.434l0.889-0.856c2.304-2.218,2.374-5.885,0.156-8.189
					c-2.219-2.304-5.886-2.375-8.19-0.155L35.263,68.123c-1.107,1.066-1.745,2.526-1.774,4.063
					c-0.029,1.536,0.553,3.021,1.619,4.127l10.616,11.025c2.218,2.304,5.884,2.375,8.189,0.155c2.304-2.219,2.374-5.885,0.155-8.189
					l-0.974-1.011h34.625c3.199,0,5.792-2.593,5.792-5.792S90.918,66.708,87.719,66.708z"/>
			</g>
		</g>
		<g>
			<g>
				<path fill="#EDF4FC" d="M220.737,68.123l-11.026-10.616c-2.304-2.219-5.971-2.149-8.19,0.155
					c-2.218,2.304-2.149,5.971,0.156,8.189l0.889,0.856h-34.285c-3.199,0-5.792,2.593-5.792,5.792s2.593,5.792,5.792,5.792h34.625
					l-0.974,1.011c-2.219,2.304-2.149,5.971,0.155,8.189c2.306,2.219,5.971,2.149,8.189-0.155l10.616-11.025
					c1.066-1.106,1.648-2.591,1.619-4.127C222.482,70.649,221.844,69.189,220.737,68.123z"/>
			</g>
		</g>
		<g>
			<g>
				<path fill="#87D147" d="M225.906,141.1h-2.4v-2.3c0-1.8-1.4-3.2-3.2-3.2c-1.7,0-3.2,1.4-3.2,3.1v2.4h-2.3
					c-1.8,0-3.2,1.4-3.2,3.2c-0.1,1.7,1.3,3.2,3.2,3.2h2.3v2.3c0,1.8,1.4,3.2,3.2,3.2c1.7,0,3.2-1.4,3.2-3.1v-2.4h2.3
					c1.8,0,3.2-1.4,3.2-3.2C229.006,142.6,227.606,141.1,225.906,141.1z"/>
			</g>
		</g>
		<g>
			<g>
				<path fill="#F5C84C" d="M239.206,168.5c-1.878,0-3.4,1.522-3.4,3.4c0,1.878,1.522,3.4,3.4,3.4c1.878,0,3.4-1.522,3.4-3.4
					C242.606,170.022,241.083,168.5,239.206,168.5z"/>
			</g>
		</g>
		<g>
			<g>
				<path fill="#70D6F9" d="M35.15,155.175c-3.1-0.6-5.6-3-6.2-6.1c0-0.1-0.3-0.1-0.3,0c-0.6,3.1-3.1,5.5-6.2,6.1
					c-0.1,0-0.1,0.2,0,0.3c3.1,0.6,5.6,3,6.2,6.1c0,0.1,0.3,0.1,0.3,0c0.6-3.1,3.1-5.5,6.2-6.1
					C35.25,155.375,35.25,155.175,35.15,155.175z"/>
			</g>
		</g>
		<g>
			<g>
				<path fill="#FC657E" d="M137.369,0c-1.878,0-3.4,1.522-3.4,3.4c0,1.878,1.522,3.4,3.4,3.4c1.878,0,3.4-1.522,3.4-3.4
					C140.769,1.522,139.246,0,137.369,0z"/>
			</g>
		</g>
		<g>
			<g>
				<path fill="#F5C84C" d="M107.15,13.2c-4.5-0.8-8-4.3-8.9-8.7c0-0.2-0.4-0.2-0.4,0c-0.9,4.4-4.4,7.9-8.9,8.7
					c-0.2,0-0.2,0.3,0,0.4c4.5,0.8,8,4.3,8.9,8.7c0,0.2,0.4,0.2,0.4,0c0.9-4.4,4.4-7.9,8.9-8.7C107.35,13.5,107.35,13.2,107.15,13.2
					z"/>
			</g>
		</g>
		<g>
			<g>
				<g>
					<g>
						<path d="M236.067,32.644h-88.134c-7.096,0-12.869,5.772-12.869,12.868v53.457c0,7.096,5.773,12.869,12.869,12.869h32.384
							c1.082,0,2.09,0.581,2.631,1.517l4.278,7.391c0.998,1.723,2.782,2.751,4.773,2.751s3.775-1.028,4.773-2.751l4.278-7.391
							c0.542-0.936,1.55-1.517,2.631-1.517h32.384c7.096,0,12.869-5.773,12.869-12.869V45.512
							C248.936,38.416,243.163,32.644,236.067,32.644z M243.936,98.969c0,4.339-3.53,7.869-7.869,7.869h-32.384
							c-2.859,0-5.526,1.537-6.958,4.011l-4.278,7.391c-0.197,0.342-0.695,0.342-0.893,0l-4.278-7.391
							c-1.433-2.474-4.099-4.011-6.958-4.011h-32.384c-4.339,0-7.869-3.53-7.869-7.869V45.512c0-4.339,3.53-7.868,7.869-7.868
							h88.134c4.339,0,7.869,3.529,7.869,7.868V98.969z"/>
					</g>
				</g>
			</g>
		</g>
		<g>
			<g>
				<g>
					<g>
						<path d="M108.067,32.644H19.933c-7.096,0-12.869,5.772-12.869,12.868v53.457c0,7.096,5.773,12.869,12.869,12.869h32.384
							c1.082,0,2.09,0.581,2.631,1.517l4.278,7.391c0.998,1.723,2.782,2.751,4.773,2.751s3.775-1.028,4.773-2.751l4.278-7.391
							c0.542-0.936,1.55-1.517,2.631-1.517h32.384c7.096,0,12.869-5.773,12.869-12.869V45.512
							C120.936,38.416,115.163,32.644,108.067,32.644z M115.936,98.969c0,4.339-3.53,7.869-7.869,7.869H75.683
							c-2.859,0-5.526,1.537-6.958,4.011l-4.278,7.391c-0.197,0.342-0.695,0.342-0.893,0l-4.278-7.391
							c-1.433-2.474-4.099-4.011-6.958-4.011H19.933c-4.339,0-7.869-3.53-7.869-7.869V45.512c0-4.339,3.53-7.868,7.869-7.868h88.134
							c4.339,0,7.869,3.529,7.869,7.868V98.969z"/>
					</g>
				</g>
			</g>
		</g>
		<g>
			<g>
				<path fill="#5290DB" d="M79.107,172.845c-2.413-0.439-4.898-0.669-7.438-0.669c-2.539,0-5.025,0.229-7.438,0.669
					c-9.573,1.744-16.944,9.088-19.088,18.355c6.93,1.071,12.244,7.03,12.276,14.252h27.383c0.034-7.592,5.9-13.794,13.349-14.382
					C95.971,181.865,88.634,174.581,79.107,172.845z"/>
			</g>
		</g>
		<g>
			<g>
				<circle fill="#F9D0B4" cx="71.112" cy="157.471" r="14.506"/>
			</g>
		</g>
		<g>
			<g>
				<path fill="#F5C84C" d="M135.496,172.845c-2.413-0.439-4.898-0.669-7.438-0.669c-2.539,0-5.025,0.229-7.438,0.669
					c-9.573,1.744-16.944,9.088-19.088,18.355c6.93,1.071,12.244,7.03,12.276,14.252h27.383c0.034-7.592,5.9-13.794,13.349-14.382
					C152.36,181.865,145.023,174.581,135.496,172.845z"/>
			</g>
		</g>
		<g>
			<g>
				<circle fill="#F9D0B4" cx="127.501" cy="157.471" r="14.506"/>
			</g>
		</g>
		<g>
			<g>
				<path fill="#F98FA6" d="M191.885,172.845c-2.413-0.439-4.898-0.669-7.438-0.669c-2.539,0-5.025,0.229-7.438,0.669
					c-9.573,1.744-16.944,9.088-19.088,18.355c6.93,1.071,12.244,7.03,12.276,14.252h27.383c0.034-7.592,5.9-13.794,13.349-14.382
					C208.749,181.865,201.412,174.581,191.885,172.845z"/>
			</g>
		</g>
		<g>
			<g>
				<circle fill="#F9D0B4" cx="183.89" cy="157.471" r="14.506"/>
			</g>
		</g>
		<g>
			<g>
				<path fill="#70D6F9" d="M70.275,240.618c-1.703-9.908-9.322-17.896-19.362-19.725c-2.412-0.439-4.898-0.669-7.438-0.669
					s-5.025,0.229-7.438,0.669c-10.484,1.91-18.349,10.529-19.573,21.045c-0.072,0.62-0.091,1.247-0.091,1.871v6.864
					c0,1.562,1.266,2.828,2.827,2.828h48.43c1.562,0,2.828-1.266,2.828-2.828v-7.498C70.459,242.319,70.419,241.461,70.275,240.618z
					"/>
			</g>
		</g>
		<g>
			<g>
				<circle fill="#F9D0B4" cx="42.917" cy="205.518" r="14.506"/>
			</g>
		</g>
		<g>
			<g>
				<path fill="#87D147" d="M126.663,240.618c-1.703-9.908-9.322-17.896-19.362-19.725c-2.412-0.439-4.898-0.669-7.438-0.669
					s-5.025,0.229-7.438,0.669c-10.484,1.91-18.349,10.529-19.573,21.045c-0.072,0.62-0.091,1.247-0.091,1.871v6.864
					c0,1.562,1.266,2.828,2.828,2.828h48.43c1.562,0,2.828-1.266,2.828-2.828v-7.498
					C126.848,242.319,126.808,241.461,126.663,240.618z"/>
			</g>
		</g>
		<g>
			<g>
				<circle fill="#F9D0B4" cx="99.306" cy="205.518" r="14.506"/>
			</g>
		</g>
		<g>
			<g>
				<path fill="#B598F9" d="M183.052,240.618c-1.703-9.908-9.322-17.896-19.362-19.725c-2.412-0.439-4.898-0.669-7.438-0.669
					s-5.025,0.229-7.438,0.669c-10.484,1.91-18.349,10.529-19.573,21.045c-0.072,0.62-0.091,1.247-0.091,1.871v6.864
					c0,1.562,1.266,2.828,2.827,2.828h48.43c1.562,0,2.828-1.266,2.828-2.828v-7.498
					C183.237,242.319,183.197,241.461,183.052,240.618z"/>
			</g>
		</g>
		<g>
			<g>
				<circle fill="#F9D0B4" cx="155.695" cy="205.518" r="14.506"/>
			</g>
		</g>
		<g>
			<g>
				<path fill="#FCA265" d="M239.441,240.618c-1.703-9.908-9.322-17.896-19.362-19.725c-2.412-0.439-4.898-0.669-7.438-0.669
					s-5.025,0.229-7.438,0.669c-10.484,1.91-18.349,10.529-19.573,21.045c-0.072,0.62-0.091,1.247-0.091,1.871v6.864
					c0,1.562,1.266,2.828,2.828,2.828h48.43c1.562,0,2.828-1.266,2.828-2.828v-7.498
					C239.626,242.319,239.586,241.461,239.441,240.618z"/>
			</g>
		</g>
		<g>
			<g>
				<circle fill="#F9D0B4" cx="212.084" cy="205.518" r="14.506"/>
			</g>
		</g>
		<g>
			<g>
				<path d="M83.688,202.953H58.917c-1.381,0-2.5,1.119-2.5,2.5s1.119,2.5,2.5,2.5h24.771c1.381,0,2.5-1.119,2.5-2.5
					S85.068,202.953,83.688,202.953z"/>
			</g>
		</g>
		<g>
			<g>
				<path d="M100.339,189.535c-2.711-9.826-10.869-17.343-20.784-19.149c-5.175-0.94-10.597-0.94-15.771,0
					c-10.003,1.822-17.955,9.098-20.752,18.988c-0.375,1.329,0.397,2.711,1.726,3.086c1.325,0.375,2.71-0.396,3.086-1.725
					c2.274-8.041,8.725-13.953,16.836-15.43c4.585-0.835,9.393-0.835,13.979,0c8.039,1.464,14.656,7.571,16.859,15.56
					c0.306,1.108,1.312,1.836,2.409,1.836c0.22,0,0.444-0.029,0.667-0.091C99.924,192.243,100.706,190.866,100.339,189.535z"/>
			</g>
		</g>
		<g>
			<g>
				<g>
					<g>
						<path d="M71.112,140.465c-9.377,0-17.006,7.629-17.006,17.006s7.629,17.006,17.006,17.006c9.377,0,17.006-7.629,17.006-17.006
							S80.489,140.465,71.112,140.465z M71.112,169.477c-6.62,0-12.006-5.386-12.006-12.006s5.386-12.006,12.006-12.006
							s12.006,5.386,12.006,12.006S77.732,169.477,71.112,169.477z"/>
					</g>
				</g>
			</g>
		</g>
		<g>
			<g>
				<path d="M140.417,202.953h-25.5c-1.381,0-2.5,1.119-2.5,2.5s1.119,2.5,2.5,2.5h25.5c1.381,0,2.5-1.119,2.5-2.5
					S141.798,202.953,140.417,202.953z"/>
			</g>
		</g>
		<g>
			<g>
				<path d="M156.707,189.458c-2.773-9.937-10.729-17.244-20.762-19.072c-5.175-0.94-10.595-0.94-15.772,0
					c-9.919,1.808-18.083,9.323-20.796,19.147c-0.368,1.331,0.413,2.708,1.744,3.076c0.223,0.062,0.447,0.091,0.667,0.091
					c1.096,0,2.102-0.728,2.408-1.835c2.206-7.987,8.829-14.095,16.873-15.56c4.587-0.835,9.394-0.835,13.979,0
					c8.134,1.481,14.588,7.419,16.842,15.496c0.372,1.33,1.752,2.104,3.08,1.736C156.3,192.167,157.078,190.788,156.707,189.458z"/>
			</g>
		</g>
		<g>
			<g>
				<g>
					<g>
						<path d="M127.5,140.465c-9.377,0-17.006,7.629-17.006,17.006s7.629,17.006,17.006,17.006c9.377,0,17.006-7.629,17.006-17.006
							S136.878,140.465,127.5,140.465z M127.5,169.477c-6.62,0-12.006-5.386-12.006-12.006s5.386-12.006,12.006-12.006
							s12.006,5.386,12.006,12.006S134.121,169.477,127.5,169.477z"/>
					</g>
				</g>
			</g>
		</g>
		<g>
			<g>
				<path d="M196.542,202.953h-25.229c-1.381,0-2.5,1.119-2.5,2.5s1.119,2.5,2.5,2.5h25.229c1.381,0,2.5-1.119,2.5-2.5
					S197.923,202.953,196.542,202.953z"/>
			</g>
		</g>
		<g>
			<g>
				<path d="M213.026,189.214c-2.836-9.806-10.766-17.02-20.692-18.828c-5.176-0.94-10.597-0.94-15.771,0
					c-9.919,1.808-18.083,9.323-20.796,19.147c-0.368,1.331,0.413,2.708,1.744,3.076c0.223,0.062,0.447,0.091,0.667,0.091
					c1.096,0,2.102-0.728,2.408-1.835c2.206-7.987,8.829-14.095,16.873-15.56c4.585-0.835,9.392-0.835,13.979,0
					c8.048,1.465,14.479,7.327,16.786,15.297c0.384,1.327,1.772,2.093,3.096,1.707C212.646,191.926,213.41,190.54,213.026,189.214z"
					/>
			</g>
		</g>
		<g>
			<g>
				<g>
					<g>
						<path d="M183.89,140.465c-9.377,0-17.006,7.629-17.006,17.006s7.629,17.006,17.006,17.006c9.377,0,17.006-7.629,17.006-17.006
							S193.267,140.465,183.89,140.465z M183.89,169.477c-6.62,0-12.006-5.386-12.006-12.006s5.386-12.006,12.006-12.006
							s12.006,5.386,12.006,12.006S190.51,169.477,183.89,169.477z"/>
					</g>
				</g>
			</g>
		</g>
		<g>
			<g>
				<g>
					<g>
						<path d="M72.738,240.193c-1.896-11.031-10.486-19.776-21.377-21.761c-5.169-0.942-10.603-0.942-15.772,0
							c-11.553,2.105-20.236,11.435-21.608,23.216c-0.074,0.639-0.107,1.305-0.107,2.16v6.864c0,2.938,2.39,5.327,5.328,5.327h48.43
							c2.938,0,5.328-2.39,5.328-5.327v-7.498C72.959,242.017,72.889,241.069,72.738,240.193z M67.959,250.673
							c0,0.181-0.147,0.327-0.328,0.327h-48.43c-0.181,0-0.328-0.146-0.328-0.327v-6.864c0-0.654,0.023-1.143,0.074-1.582
							c1.115-9.581,8.163-17.166,17.538-18.874c2.289-0.417,4.641-0.629,6.989-0.629s4.701,0.212,6.99,0.629
							c8.833,1.609,15.804,8.718,17.346,17.688c0.101,0.589,0.148,1.267,0.148,2.134V250.673z"/>
					</g>
				</g>
			</g>
		</g>
		<g>
			<g>
				<g>
					<g>
						<path d="M42.917,188.512c-9.377,0-17.006,7.629-17.006,17.007c0,9.377,7.629,17.006,17.006,17.006
							c9.377,0,17.006-7.629,17.006-17.006C59.923,196.141,52.294,188.512,42.917,188.512z M42.917,217.524
							c-6.62,0-12.006-5.386-12.006-12.006s5.386-12.007,12.006-12.007s12.006,5.387,12.006,12.007S49.538,217.524,42.917,217.524z"
							/>
					</g>
				</g>
			</g>
		</g>
		<g>
			<g>
				<g>
					<g>
						<path d="M129.127,240.193c-1.896-11.031-10.487-19.776-21.377-21.761c-5.169-0.941-10.604-0.941-15.771,0
							c-11.553,2.105-20.236,11.435-21.608,23.218c-0.074,0.639-0.107,1.304-0.107,2.158v6.864c0,2.938,2.39,5.327,5.327,5.327
							h48.43c2.938,0,5.328-2.39,5.328-5.327v-7.498C129.348,242.017,129.278,241.069,129.127,240.193z M124.348,250.673
							c0,0.181-0.147,0.327-0.328,0.327H75.59c-0.18,0-0.327-0.146-0.327-0.327v-6.864c0-0.654,0.023-1.143,0.074-1.582
							c1.116-9.581,8.164-17.166,17.538-18.874c2.289-0.417,4.641-0.629,6.989-0.629s4.7,0.212,6.989,0.629
							c8.834,1.608,15.805,8.718,17.346,17.688c0.101,0.589,0.148,1.267,0.148,2.134V250.673z"/>
					</g>
				</g>
			</g>
		</g>
		<g>
			<g>
				<g>
					<g>
						<path d="M99.306,188.512c-9.377,0-17.006,7.629-17.006,17.007c0,9.377,7.629,17.006,17.006,17.006
							c9.377,0,17.006-7.629,17.006-17.006C116.313,196.141,108.684,188.512,99.306,188.512z M99.306,217.524
							c-6.62,0-12.006-5.386-12.006-12.006s5.386-12.007,12.006-12.007s12.006,5.387,12.006,12.007S105.926,217.524,99.306,217.524z
							"/>
					</g>
				</g>
			</g>
		</g>
		<g>
			<g>
				<g>
					<g>
						<path d="M185.516,240.193c-1.896-11.031-10.486-19.776-21.377-21.761c-5.169-0.942-10.603-0.942-15.772,0
							c-11.553,2.105-20.236,11.435-21.608,23.216c-0.074,0.639-0.107,1.305-0.107,2.16v6.864c0,2.938,2.39,5.327,5.328,5.327h48.43
							c2.938,0,5.328-2.39,5.328-5.327v-7.498C185.737,242.017,185.667,241.069,185.516,240.193z M180.737,250.673
							c0,0.181-0.147,0.327-0.328,0.327h-48.43c-0.181,0-0.328-0.146-0.328-0.327v-6.864c0-0.654,0.023-1.143,0.074-1.582
							c1.115-9.581,8.163-17.166,17.538-18.874c2.289-0.417,4.641-0.629,6.989-0.629s4.701,0.212,6.99,0.629
							c8.833,1.609,15.804,8.718,17.346,17.688c0.101,0.589,0.148,1.267,0.148,2.134V250.673z"/>
					</g>
				</g>
			</g>
		</g>
		<g>
			<g>
				<g>
					<g>
						<path d="M155.695,188.512c-9.377,0-17.006,7.629-17.006,17.007c0,9.377,7.629,17.006,17.006,17.006
							c9.377,0,17.006-7.629,17.006-17.006C172.701,196.141,165.072,188.512,155.695,188.512z M155.695,217.524
							c-6.62,0-12.006-5.386-12.006-12.006s5.386-12.007,12.006-12.007s12.006,5.387,12.006,12.007S162.315,217.524,155.695,217.524
							z"/>
					</g>
				</g>
			</g>
		</g>
		<g>
			<g>
				<g>
					<g>
						<path d="M241.905,240.193c-1.896-11.031-10.487-19.776-21.377-21.761c-5.169-0.941-10.604-0.941-15.771,0
							c-11.553,2.105-20.236,11.435-21.608,23.216c-0.074,0.639-0.107,1.305-0.107,2.16v6.864c0,2.938,2.39,5.327,5.327,5.327h48.43
							c2.938,0,5.328-2.39,5.328-5.327v-7.498C242.126,242.017,242.056,241.069,241.905,240.193z M237.126,250.673
							c0,0.181-0.147,0.327-0.328,0.327h-48.43c-0.18,0-0.327-0.146-0.327-0.327v-6.864c0-0.654,0.023-1.143,0.074-1.582
							c1.115-9.581,8.163-17.166,17.538-18.874c2.289-0.417,4.641-0.629,6.989-0.629s4.7,0.212,6.989,0.629
							c8.834,1.608,15.805,8.718,17.346,17.688c0.101,0.589,0.148,1.267,0.148,2.134V250.673z"/>
					</g>
				</g>
			</g>
		</g>
		<g>
			<g>
				<g>
					<g>
						<path d="M212.084,188.512c-9.377,0-17.006,7.629-17.006,17.007c0,9.377,7.629,17.006,17.006,17.006
							c9.377,0,17.006-7.629,17.006-17.006C229.09,196.141,221.461,188.512,212.084,188.512z M212.084,217.524
							c-6.62,0-12.006-5.386-12.006-12.006s5.386-12.007,12.006-12.007s12.006,5.387,12.006,12.007S218.704,217.524,212.084,217.524
							z"/>
					</g>
				</g>
			</g>
		</g>
		<g>
			<g>
				<g>
					<g>
						<path d="M87.719,64.208H58.202c0.895-2.81,0.262-6.011-1.922-8.28c-1.537-1.595-3.602-2.497-5.816-2.539
							c-2.203-0.038-4.313,0.781-5.908,2.318L33.53,66.322c-1.596,1.536-2.498,3.602-2.54,5.815
							c-0.042,2.215,0.781,4.313,2.317,5.909l10.616,11.025c1.625,1.688,3.798,2.536,5.974,2.536c2.07,0,4.144-0.77,5.75-2.315
							c1.595-1.535,2.497-3.601,2.539-5.815c0.018-0.925-0.116-1.829-0.389-2.686h29.921c4.572,0,8.292-3.72,8.292-8.292
							S92.292,64.208,87.719,64.208z M87.719,75.792H53.095c-1.002,0-1.908,0.599-2.3,1.521c-0.393,0.922-0.196,1.99,0.499,2.712
							l0.974,1.013c0.61,0.633,0.937,1.466,0.92,2.345s-0.375,1.699-1.008,2.309c-1.307,1.258-3.396,1.22-4.655-0.088L36.909,74.578
							c-0.61-0.633-0.937-1.466-0.92-2.346c0.017-0.879,0.375-1.698,1.008-2.309l11.026-10.615c0.618-0.596,1.426-0.921,2.281-0.921
							c0.021,0,0.042,0,0.064,0.001c0.879,0.017,1.7,0.374,2.309,1.007c1.259,1.309,1.219,3.396-0.089,4.655L51.7,64.907
							c-0.734,0.708-0.965,1.79-0.584,2.735c0.381,0.946,1.299,1.565,2.318,1.565h34.285c1.815,0,3.292,1.477,3.292,3.292
							S89.535,75.792,87.719,75.792z"/>
					</g>
				</g>
			</g>
		</g>
		<g>
			<g>
				<g>
					<g>
						<path d="M222.47,66.322l-11.025-10.615c-1.595-1.537-3.7-2.359-5.909-2.318c-2.214,0.042-4.28,0.944-5.817,2.54
							c-2.184,2.269-2.816,5.471-1.921,8.279h-29.518c-4.572,0-8.292,3.72-8.292,8.292s3.72,8.292,8.292,8.292h29.922
							c-0.273,0.856-0.407,1.761-0.389,2.686c0.042,2.215,0.944,4.28,2.539,5.815c1.606,1.547,3.68,2.315,5.75,2.315
							c2.176,0,4.349-0.85,5.974-2.536l10.616-11.025c1.537-1.596,2.36-3.694,2.317-5.908
							C224.968,69.924,224.066,67.858,222.47,66.322z M219.091,74.578l-10.616,11.025c-1.259,1.309-3.347,1.346-4.655,0.088
							c-0.633-0.609-0.991-1.43-1.008-2.309s0.31-1.712,0.92-2.346l0.974-1.012c0.695-0.722,0.892-1.79,0.499-2.712
							c-0.393-0.923-1.298-1.521-2.3-1.521h-34.625c-1.815,0-3.292-1.477-3.292-3.292s1.477-3.292,3.292-3.292h34.285
							c1.02,0,1.937-0.619,2.318-1.565c0.381-0.945,0.15-2.027-0.584-2.735l-0.89-0.856c-1.308-1.259-1.347-3.347-0.089-4.654
							c0.61-0.634,1.43-0.991,2.31-1.008c0.868-0.048,1.712,0.31,2.346,0.92l11.025,10.615c0.634,0.61,0.992,1.43,1.008,2.31
							C220.027,73.112,219.701,73.945,219.091,74.578z"/>
					</g>
				</g>
			</g>
		</g>
	</g>
</g>
<g id="Layer_62">
</g>
<g id="Layer_63">
</g>
<g id="Layer_64">
</g>
<g id="Layer_65">
</g>
<g id="Layer_66">
</g>
<g id="Layer_67">
</g>
<g id="Layer_68">
</g>
<g id="Layer_69">
</g>
<g id="Layer_70">
</g>
<g id="Layer_71">
</g>
<g id="Layer_72">
</g>
<g id="Layer_73">
</g>
<g id="Layer_74">
</g>
<g id="Layer_75">
</g>
<g id="Layer_76">
</g>
<g id="Layer_77">
</g>
<g id="Layer_78">
</g>
<g id="Layer_79">
</g>
<g id="Layer_80">
</g>
</svg>
