<?xml version="1.0" encoding="utf-8"?>
<!-- Generator: Adobe Illustrator 24.0.0, SVG Export Plug-In . SVG Version: 6.00 Build 0)  -->
<svg version="1.1" xmlns="http://www.w3.org/2000/svg" xmlns:xlink="http://www.w3.org/1999/xlink" x="0px" y="0px"
	 viewBox="0 0 256 256" enable-background="new 0 0 256 256" xml:space="preserve">
<g id="Layer_1">
</g>
<g id="Layer_2">
</g>
<g id="Layer_3">
</g>
<g id="Layer_4">
</g>
<g id="Layer_5">
</g>
<g id="Layer_6">
</g>
<g id="Layer_7">
</g>
<g id="Layer_8">
</g>
<g id="Layer_9">
</g>
<g id="Layer_10">
</g>
<g id="Layer_11">
</g>
<g id="Layer_12">
</g>
<g id="Layer_13">
</g>
<g id="Layer_14">
</g>
<g id="Layer_15">
</g>
<g id="Layer_16">
</g>
<g id="Layer_17">
</g>
<g id="Layer_18">
</g>
<g id="Layer_19">
</g>
<g id="Layer_20">
</g>
<g id="Layer_21">
</g>
<g id="Layer_22">
</g>
<g id="Layer_23">
</g>
<g id="Layer_24">
</g>
<g id="Layer_25">
</g>
<g id="Layer_26">
</g>
<g id="Layer_27">
</g>
<g id="Layer_28">
</g>
<g id="Layer_29">
</g>
<g id="Layer_30">
</g>
<g id="Layer_31">
</g>
<g id="Layer_32">
</g>
<g id="Layer_33">
</g>
<g id="Layer_34">
</g>
<g id="Layer_35">
</g>
<g id="Layer_36">
</g>
<g id="Layer_37">
</g>
<g id="Layer_38">
</g>
<g id="Layer_39">
</g>
<g id="Layer_40">
</g>
<g id="Layer_41">
</g>
<g id="Layer_42">
</g>
<g id="Layer_43">
</g>
<g id="Layer_44">
</g>
<g id="Layer_45">
</g>
<g id="Layer_46">
</g>
<g id="Layer_47">
</g>
<g id="Layer_48">
</g>
<g id="Layer_49">
	<g>
		<g>
			<g>
				<path fill="#70D6F9" d="M179.4,2.5H76.6c-6.652,0-12.094,5.442-12.094,12.094v62.352c0,6.652,5.442,12.094,12.094,12.094h37.773
					c2.306,0,4.437,1.229,5.592,3.224l4.99,8.62c1.355,2.34,4.734,2.34,6.089,0l4.99-8.62c1.155-1.996,3.286-3.224,5.592-3.224
					H179.4c6.652,0,12.094-5.442,12.094-12.094V14.594C191.494,7.942,186.052,2.5,179.4,2.5z"/>
			</g>
		</g>
		<g>
			<g>
				<path fill="#B598F9" d="M243.181,45.007h-51.686v31.94c0,6.652-5.442,12.094-12.094,12.094h-34.253v19.487
					c0,5.676,4.644,10.319,10.319,10.319h32.23c1.967,0,3.786,1.048,4.772,2.751l4.258,7.355c1.156,1.997,4.039,1.997,5.195,0
					l4.258-7.355c0.986-1.703,2.804-2.751,4.772-2.751h32.23c5.676,0,10.319-4.644,10.319-10.319V55.326
					C253.5,49.65,248.856,45.007,243.181,45.007z"/>
			</g>
		</g>
		<g>
			<g>
				<path fill="#FCDD86" d="M76.6,89.041c-6.652,0-12.094-5.442-12.094-12.094v-31.94H12.819C7.144,45.007,2.5,49.65,2.5,55.326
					v53.202c0,5.676,4.644,10.319,10.319,10.319h32.23c1.967,0,3.786,1.048,4.772,2.751l4.258,7.355
					c1.156,1.997,4.039,1.997,5.195,0l4.258-7.355c0.986-1.703,2.804-2.751,4.772-2.751h32.23c5.676,0,10.319-4.644,10.319-10.319
					V89.041H76.6z"/>
			</g>
		</g>
		<g>
			<g>
				<path fill="#DAE6F1" d="M88.9,39.604c-3.576,0.011-6.467,2.918-6.457,6.495c0.01,3.576,2.918,6.467,6.495,6.457
					s6.467-2.918,6.457-6.495C95.385,42.484,92.477,39.593,88.9,39.604z"/>
			</g>
		</g>
		<g>
			<g>
				
					<ellipse transform="matrix(0.2017 -0.9795 0.9795 0.2017 46.4648 149.0071)" fill="#DAE6F1" cx="114.64" cy="46" rx="6.476" ry="6.476"/>
			</g>
		</g>
		<g>
			<g>
				<path fill="#DAE6F1" d="M140.341,39.445c-3.577,0.01-6.467,2.918-6.457,6.495c0.01,3.577,2.918,6.467,6.495,6.457
					s6.467-2.918,6.457-6.495S143.918,39.434,140.341,39.445z"/>
			</g>
		</g>
		<g>
			<g>
				<path fill="#DAE6F1" d="M166.062,39.445c-3.576,0.01-6.467,2.918-6.457,6.495c0.01,3.577,2.918,6.467,6.495,6.457
					c3.576-0.01,6.467-2.918,6.457-6.495C172.546,42.325,169.638,39.434,166.062,39.445z"/>
			</g>
		</g>
		<g>
			<g>
				<circle fill="#DAE6F1" cx="209.96" cy="83" r="6.476"/>
			</g>
		</g>
		<g>
			<g>
				<circle fill="#DAE6F1" cx="233.04" cy="83" r="6.476"/>
			</g>
		</g>
		<g>
			<g>
				
					<ellipse transform="matrix(0.9871 -0.1602 0.1602 0.9871 -12.9987 4.7495)" fill="#DAE6F1" cx="22.96" cy="83" rx="6.476" ry="6.476"/>
			</g>
		</g>
		<g>
			<g>
				
					<ellipse transform="matrix(0.3827 -0.9239 0.9239 0.3827 -48.2605 93.7731)" fill="#DAE6F1" cx="46.04" cy="83" rx="6.476" ry="6.476"/>
			</g>
		</g>
		<g>
			<g>
				<g>
					<g>
						<path d="M179.4,0H76.6c-8.047,0-14.594,6.547-14.594,14.594v62.352c0,8.047,6.547,14.594,14.594,14.594h37.773
							c1.408,0,2.723,0.758,3.429,1.978l4.99,8.619c1.089,1.88,3.035,3.003,5.208,3.003s4.119-1.123,5.207-3.002l4.992-8.62
							c0.705-1.219,2.02-1.977,3.428-1.977H179.4c8.047,0,14.594-6.547,14.594-14.594V14.594C193.994,6.547,187.447,0,179.4,0z
							 M188.994,76.946c0,5.29-4.304,9.594-9.594,9.594h-37.773c-3.187,0-6.158,1.713-7.755,4.472l-4.992,8.62
							c-0.255,0.442-0.661,0.508-0.88,0.508s-0.625-0.066-0.881-0.508l-4.99-8.619c-1.598-2.759-4.569-4.472-7.756-4.472H76.6
							c-5.29,0-9.594-4.304-9.594-9.594V14.594C67.006,9.304,71.31,5,76.6,5H179.4c5.29,0,9.594,4.304,9.594,9.594V76.946z"/>
					</g>
				</g>
			</g>
		</g>
		<g>
			<g>
				<path d="M243.181,42.507H193c-1.381,0-2.5,1.119-2.5,2.5s1.119,2.5,2.5,2.5h50.181c4.312,0,7.819,3.508,7.819,7.819v53.202
					c0,4.312-3.508,7.819-7.819,7.819h-32.229c-2.85,0-5.507,1.532-6.937,3.999l-4.257,7.355c-0.193,0.332-0.677,0.332-0.868,0
					l-4.258-7.355c-1.428-2.466-4.085-3.999-6.936-3.999h-32.229c-4.313,0-7.82-3.508-7.82-7.819V90.375c0-1.381-1.119-2.5-2.5-2.5
					s-2.5,1.119-2.5,2.5v18.153c0,7.069,5.751,12.819,12.82,12.819h32.229c1.072,0,2.071,0.576,2.607,1.503l4.259,7.355
					c0.995,1.719,2.774,2.746,4.761,2.746s3.766-1.026,4.762-2.746l4.257-7.354c0.538-0.928,1.537-1.504,2.609-1.504h32.229
					c7.068,0,12.819-5.75,12.819-12.819V55.326C256,48.258,250.249,42.507,243.181,42.507z"/>
			</g>
		</g>
		<g>
			<g>
				<path d="M110.854,88c-1.381,0-2.5,1.119-2.5,2.5v18.027c0,4.312-3.508,7.819-7.82,7.819H68.304
					c-2.851,0-5.508,1.532-6.936,3.999l-4.257,7.355c-0.193,0.332-0.677,0.332-0.868,0l-4.259-7.355
					c-1.429-2.466-4.086-3.998-6.936-3.998H12.819c-4.312,0-7.819-3.508-7.819-7.819V55.326c0-4.312,3.508-7.819,7.819-7.819h50.473
					c1.381,0,2.5-1.119,2.5-2.5s-1.119-2.5-2.5-2.5H12.819C5.751,42.507,0,48.258,0,55.326v53.202
					c0,7.069,5.751,12.819,12.819,12.819h32.229c1.072,0,2.071,0.576,2.608,1.503l4.259,7.355c0.995,1.719,2.774,2.746,4.761,2.746
					s3.766-1.026,4.762-2.746l4.258-7.355c0.536-0.927,1.535-1.503,2.607-1.503h32.229c7.069,0,12.82-5.75,12.82-12.819V90.5
					C113.354,89.12,112.234,88,110.854,88z"/>
			</g>
		</g>
		<g>
			<g>
				<path fill="#70D6F9" d="M246.906,146.1h-2.4v-2.3c0-1.8-1.4-3.2-3.2-3.2c-1.7,0-3.2,1.4-3.2,3.1v2.4h-2.3
					c-1.8,0-3.2,1.4-3.2,3.2c-0.1,1.7,1.3,3.2,3.2,3.2h2.3v2.3c0,1.8,1.4,3.2,3.2,3.2c1.7,0,3.2-1.4,3.2-3.1v-2.4h2.3
					c1.8,0,3.2-1.4,3.2-3.2C250.006,147.6,248.606,146.1,246.906,146.1z"/>
			</g>
		</g>
		<g>
			<g>
				<path fill="#F5C84C" d="M232.206,175.5c-1.878,0-3.4,1.522-3.4,3.4c0,1.878,1.522,3.4,3.4,3.4s3.4-1.522,3.4-3.4
					C235.606,177.022,234.083,175.5,232.206,175.5z"/>
			</g>
		</g>
		<g>
			<g>
				<path fill="#FC657E" d="M46.206,0c-1.878,0-3.4,1.522-3.4,3.4c0,1.878,1.522,3.4,3.4,3.4c1.878,0,3.4-1.522,3.4-3.4
					C49.606,1.522,48.083,0,46.206,0z"/>
			</g>
		</g>
		<g>
			<g>
				<path fill="#87D147" d="M35.15,160.175c-3.1-0.6-5.6-3-6.2-6.1c0-0.1-0.3-0.1-0.3,0c-0.6,3.1-3.1,5.5-6.2,6.1
					c-0.1,0-0.1,0.2,0,0.3c3.1,0.6,5.6,3,6.2,6.1c0,0.1,0.3,0.1,0.3,0c0.6-3.1,3.1-5.5,6.2-6.1
					C35.25,160.375,35.25,160.175,35.15,160.175z"/>
			</g>
		</g>
		<g>
			<g>
				<path fill="#F5C84C" d="M32.15,21.2c-4.5-0.8-8-4.3-8.9-8.7c0-0.2-0.4-0.2-0.4,0c-0.9,4.4-4.4,7.9-8.9,8.7c-0.2,0-0.2,0.3,0,0.4
					c4.5,0.8,8,4.3,8.9,8.7c0,0.2,0.4,0.2,0.4,0c0.9-4.4,4.4-7.9,8.9-8.7C32.35,21.5,32.35,21.2,32.15,21.2z"/>
			</g>
		</g>
		<g>
			<g>
				<g>
					<g>
						<path d="M88.919,37.104c-0.009,0-0.018,0-0.026,0c-4.948,0.015-8.963,4.053-8.949,9.002c0.015,4.94,4.038,8.949,8.975,8.949
							c0.01,0,0.019,0,0.027,0c4.949-0.014,8.964-4.052,8.95-9.001v0C97.881,41.112,93.856,37.104,88.919,37.104z M88.931,50.055
							c-0.004,0-0.008,0-0.012,0c-2.187,0-3.969-1.776-3.976-3.963c-0.006-2.192,1.772-3.982,3.964-3.988c0.004,0,0.008,0,0.012,0
							c2.188,0,3.97,1.776,3.977,3.964C92.901,48.26,91.123,50.049,88.931,50.055z"/>
					</g>
				</g>
			</g>
		</g>
		<g>
			<g>
				<g>
					<g>
						<path d="M120.968,39.634c-1.7-1.69-3.938-2.576-6.354-2.61c-2.398,0.007-4.649,0.947-6.34,2.647s-2.617,3.957-2.61,6.354
							c0.015,4.94,4.038,8.949,8.975,8.949c0.01,0,0.019,0,0.027,0c2.397-0.007,4.649-0.947,6.339-2.647
							c1.69-1.7,2.617-3.957,2.61-6.354C123.608,43.576,122.669,41.325,120.968,39.634z M118.615,45.988
							c0.003,1.062-0.407,2.062-1.156,2.815c-0.748,0.753-1.745,1.169-2.808,1.172c-2.17,0.004-3.98-1.772-3.987-3.964
							c-0.003-1.062,0.407-2.062,1.156-2.815c0.748-0.753,1.746-1.169,2.809-1.172c0.004,0,0.008,0,0.012,0
							c1.058,0,2.053,0.41,2.803,1.156C118.196,43.929,118.612,44.926,118.615,45.988L118.615,45.988z"/>
					</g>
				</g>
			</g>
		</g>
		<g>
			<g>
				<g>
					<g>
						<path d="M140.361,36.945c-0.01,0-0.019,0-0.027,0c-2.397,0.007-4.649,0.947-6.339,2.647c-1.69,1.701-2.617,3.957-2.61,6.354
							c0.007,2.397,0.946,4.649,2.647,6.34c1.693,1.684,3.939,2.61,6.328,2.61c0.009,0,0.018,0,0.026,0
							c2.397-0.007,4.648-0.948,6.339-2.648s2.617-3.957,2.61-6.354C149.321,40.954,145.298,36.945,140.361,36.945z M143.18,48.724
							c-0.748,0.753-1.746,1.169-2.808,1.173c-0.004,0-0.008,0-0.012,0c-1.058,0-2.053-0.411-2.804-1.156
							c-0.753-0.749-1.169-1.746-1.172-2.808c-0.003-1.062,0.407-2.062,1.156-2.815c0.748-0.753,1.745-1.169,2.808-1.172
							c0.004,0,0.008,0,0.012,0c2.187,0,3.969,1.776,3.976,3.964C144.339,46.971,143.929,47.971,143.18,48.724z"/>
					</g>
				</g>
			</g>
		</g>
		<g>
			<g>
				<g>
					<g>
						<path d="M166.082,36.945c-0.01,0-0.019,0-0.027,0c-4.949,0.014-8.964,4.052-8.95,9.002c0.015,4.941,4.039,8.95,8.977,8.95
							c0.009,0,0.018,0,0.026,0c4.948-0.015,8.963-4.053,8.949-9.002v0C175.042,40.954,171.019,36.945,166.082,36.945z
							 M166.093,49.896c-0.004,0-0.008,0-0.012,0c-2.188,0-3.97-1.776-3.977-3.964c-0.006-2.192,1.772-3.981,3.965-3.988
							c0.004,0,0.008,0,0.012,0c2.187,0,3.969,1.776,3.976,3.964C170.063,48.101,168.284,49.89,166.093,49.896z"/>
					</g>
				</g>
			</g>
		</g>
		<g>
			<g>
				<g>
					<g>
						<path d="M209.96,74.024c-4.949,0-8.977,4.026-8.977,8.976s4.027,8.976,8.977,8.976s8.976-4.026,8.976-8.976
							S214.909,74.024,209.96,74.024z M209.96,86.976c-2.192,0-3.977-1.783-3.977-3.976s1.784-3.976,3.977-3.976
							s3.976,1.783,3.976,3.976S212.152,86.976,209.96,86.976z"/>
					</g>
				</g>
			</g>
		</g>
		<g>
			<g>
				<g>
					<g>
						<path d="M233.04,74.024c-4.949,0-8.976,4.026-8.976,8.976s4.026,8.976,8.976,8.976s8.977-4.026,8.977-8.976
							S237.989,74.024,233.04,74.024z M233.04,86.976c-2.192,0-3.976-1.783-3.976-3.976s1.783-3.976,3.976-3.976
							s3.977,1.783,3.977,3.976S235.232,86.976,233.04,86.976z"/>
					</g>
				</g>
			</g>
		</g>
		<g>
			<g>
				<g>
					<g>
						<path d="M22.96,74.024c-4.949,0-8.977,4.026-8.977,8.976s4.027,8.976,8.977,8.976s8.976-4.026,8.976-8.976
							S27.909,74.024,22.96,74.024z M22.96,86.976c-2.192,0-3.977-1.783-3.977-3.976s1.784-3.976,3.977-3.976
							s3.976,1.783,3.976,3.976S25.152,86.976,22.96,86.976z"/>
					</g>
				</g>
			</g>
		</g>
		<g>
			<g>
				<g>
					<g>
						<path d="M46.04,74.024c-4.949,0-8.976,4.026-8.976,8.976s4.026,8.976,8.976,8.976s8.977-4.026,8.977-8.976
							S50.989,74.024,46.04,74.024z M46.04,86.976c-2.192,0-3.976-1.783-3.976-3.976s1.783-3.976,3.976-3.976
							s3.977,1.783,3.977,3.976S48.232,86.976,46.04,86.976z"/>
					</g>
				</g>
			</g>
		</g>
		<g>
			<g>
				<path fill="#5290DB" d="M79.107,172.845c-2.413-0.439-4.898-0.669-7.438-0.669c-2.539,0-5.025,0.229-7.438,0.669
					c-9.573,1.744-16.944,9.088-19.088,18.355c6.93,1.071,12.244,7.03,12.276,14.252h27.383c0.034-7.592,5.9-13.794,13.349-14.382
					C95.971,181.865,88.634,174.581,79.107,172.845z"/>
			</g>
		</g>
		<g>
			<g>
				
					<ellipse transform="matrix(0.9871 -0.1602 0.1602 0.9871 -24.3058 13.4242)" fill="#F9D0B4" cx="71.112" cy="157.471" rx="14.506" ry="14.506"/>
			</g>
		</g>
		<g>
			<g>
				<path fill="#F5C84C" d="M135.496,172.845c-2.413-0.439-4.898-0.669-7.438-0.669c-2.539,0-5.025,0.229-7.438,0.669
					c-9.573,1.744-16.944,9.088-19.088,18.355c6.93,1.071,12.244,7.03,12.276,14.252h27.383c0.034-7.592,5.9-13.794,13.349-14.382
					C152.36,181.865,145.023,174.581,135.496,172.845z"/>
			</g>
		</g>
		<g>
			<g>
				<circle fill="#F9D0B4" cx="127.501" cy="157.471" r="14.506"/>
			</g>
		</g>
		<g>
			<g>
				<path fill="#F98FA6" d="M191.885,172.845c-2.413-0.439-4.898-0.669-7.438-0.669c-2.539,0-5.025,0.229-7.438,0.669
					c-9.573,1.744-16.944,9.088-19.088,18.355c6.93,1.071,12.244,7.03,12.276,14.252h27.383c0.034-7.592,5.9-13.794,13.349-14.382
					C208.749,181.865,201.412,174.581,191.885,172.845z"/>
			</g>
		</g>
		<g>
			<g>
				<circle fill="#F9D0B4" cx="183.89" cy="157.471" r="14.506"/>
			</g>
		</g>
		<g>
			<g>
				<path fill="#70D6F9" d="M70.275,240.618c-1.703-9.908-9.322-17.896-19.362-19.725c-2.412-0.439-4.898-0.669-7.438-0.669
					c-2.539,0-5.025,0.229-7.438,0.669c-10.484,1.91-18.349,10.529-19.573,21.045c-0.072,0.62-0.091,1.247-0.091,1.871v6.864
					c0,1.562,1.266,2.828,2.828,2.828h48.43c1.562,0,2.828-1.266,2.828-2.828v-7.498C70.459,242.319,70.419,241.461,70.275,240.618z
					"/>
			</g>
		</g>
		<g>
			<g>
				<circle fill="#F9D0B4" cx="42.917" cy="205.518" r="14.506"/>
			</g>
		</g>
		<g>
			<g>
				<path fill="#87D147" d="M126.663,240.618c-1.703-9.908-9.322-17.896-19.362-19.725c-2.412-0.439-4.898-0.669-7.438-0.669
					c-2.539,0-5.025,0.229-7.438,0.669c-10.484,1.91-18.349,10.529-19.573,21.045c-0.072,0.62-0.091,1.247-0.091,1.871v6.864
					c0,1.562,1.266,2.828,2.827,2.828h48.43c1.562,0,2.828-1.266,2.828-2.828v-7.498
					C126.848,242.319,126.808,241.461,126.663,240.618z"/>
			</g>
		</g>
		<g>
			<g>
				<circle fill="#F9D0B4" cx="99.306" cy="205.518" r="14.506"/>
			</g>
		</g>
		<g>
			<g>
				<path fill="#B598F9" d="M183.052,240.618c-1.703-9.908-9.322-17.896-19.362-19.725c-2.412-0.439-4.898-0.669-7.438-0.669
					c-2.54,0-5.025,0.229-7.438,0.669c-10.484,1.91-18.348,10.529-19.573,21.045c-0.072,0.62-0.091,1.247-0.091,1.871v6.864
					c0,1.562,1.266,2.828,2.827,2.828h48.43c1.562,0,2.828-1.266,2.828-2.828v-7.498
					C183.237,242.319,183.197,241.461,183.052,240.618z"/>
			</g>
		</g>
		<g>
			<g>
				<circle fill="#F9D0B4" cx="155.695" cy="205.518" r="14.506"/>
			</g>
		</g>
		<g>
			<g>
				<path fill="#FCA265" d="M239.441,240.618c-1.703-9.908-9.322-17.896-19.362-19.725c-2.412-0.439-4.898-0.669-7.438-0.669
					c-2.54,0-5.025,0.229-7.438,0.669c-10.484,1.91-18.348,10.529-19.573,21.045c-0.072,0.62-0.091,1.247-0.091,1.871v6.864
					c0,1.562,1.266,2.828,2.828,2.828h48.43c1.562,0,2.828-1.266,2.828-2.828v-7.498
					C239.626,242.319,239.586,241.461,239.441,240.618z"/>
			</g>
		</g>
		<g>
			<g>
				<circle fill="#F9D0B4" cx="212.084" cy="205.518" r="14.506"/>
			</g>
		</g>
		<g>
			<g>
				<path d="M83.687,202.953h-24.77c-1.381,0-2.5,1.119-2.5,2.5s1.119,2.5,2.5,2.5h24.77c1.381,0,2.5-1.119,2.5-2.5
					S85.068,202.953,83.687,202.953z"/>
			</g>
		</g>
		<g>
			<g>
				<path d="M100.339,189.535c-2.712-9.826-10.869-17.343-20.783-19.149c-5.168-0.941-10.604-0.941-15.771,0
					c-10.003,1.822-17.954,9.098-20.751,18.988c-0.376,1.329,0.396,2.71,1.725,3.086c1.335,0.376,2.711-0.397,3.086-1.726
					c2.274-8.04,8.726-13.952,16.837-15.43c4.578-0.834,9.4-0.834,13.979,0c8.038,1.464,14.655,7.572,16.859,15.56
					c0.306,1.108,1.313,1.835,2.409,1.835c0.22,0,0.443-0.029,0.666-0.09C99.925,192.242,100.706,190.866,100.339,189.535z"/>
			</g>
		</g>
		<g>
			<g>
				<g>
					<g>
						<path d="M71.111,140.465c-9.377,0-17.006,7.629-17.006,17.006c0,9.377,7.629,17.006,17.006,17.006
							c9.378,0,17.007-7.629,17.007-17.006C88.118,148.094,80.489,140.465,71.111,140.465z M71.111,169.477
							c-6.62,0-12.006-5.386-12.006-12.006s5.386-12.006,12.006-12.006s12.007,5.386,12.007,12.006S77.731,169.477,71.111,169.477z"
							/>
					</g>
				</g>
			</g>
		</g>
		<g>
			<g>
				<path d="M140.417,202.953h-25.5c-1.381,0-2.5,1.119-2.5,2.5s1.119,2.5,2.5,2.5h25.5c1.381,0,2.5-1.119,2.5-2.5
					S141.798,202.953,140.417,202.953z"/>
			</g>
		</g>
		<g>
			<g>
				<path d="M156.707,189.458c-2.773-9.936-10.729-17.244-20.763-19.072c-5.168-0.941-10.604-0.941-15.771,0
					c-9.92,1.807-18.083,9.323-20.796,19.148c-0.367,1.331,0.414,2.708,1.745,3.075c0.223,0.062,0.446,0.091,0.666,0.091
					c1.097,0,2.103-0.727,2.409-1.835c2.205-7.987,8.828-14.095,16.872-15.561c4.578-0.834,9.4-0.834,13.979,0
					c8.135,1.482,14.589,7.42,16.843,15.497c0.371,1.33,1.749,2.109,3.08,1.736C156.301,192.167,157.078,190.788,156.707,189.458z"
					/>
			</g>
		</g>
		<g>
			<g>
				<g>
					<g>
						<path d="M127.501,140.465c-9.378,0-17.007,7.629-17.007,17.006c0,9.377,7.629,17.006,17.007,17.006
							c9.377,0,17.006-7.629,17.006-17.006C144.507,148.094,136.878,140.465,127.501,140.465z M127.501,169.477
							c-6.62,0-12.007-5.386-12.007-12.006s5.387-12.006,12.007-12.006s12.006,5.386,12.006,12.006S134.121,169.477,127.501,169.477
							z"/>
					</g>
				</g>
			</g>
		</g>
		<g>
			<g>
				<path d="M196.542,202.953h-25.229c-1.381,0-2.5,1.119-2.5,2.5s1.119,2.5,2.5,2.5h25.229c1.381,0,2.5-1.119,2.5-2.5
					S197.923,202.953,196.542,202.953z"/>
			</g>
		</g>
		<g>
			<g>
				<path d="M213.025,189.214c-2.835-9.805-10.764-17.019-20.692-18.828c-5.168-0.941-10.604-0.941-15.771,0
					c-9.92,1.807-18.083,9.324-20.796,19.148c-0.367,1.331,0.414,2.708,1.745,3.075c0.223,0.062,0.446,0.091,0.666,0.091
					c1.097,0,2.103-0.727,2.409-1.835c2.205-7.987,8.828-14.095,16.872-15.561c4.578-0.834,9.4-0.834,13.979,0
					c8.05,1.467,14.481,7.329,16.786,15.298c0.383,1.326,1.769,2.093,3.096,1.707C212.645,191.926,213.409,190.54,213.025,189.214z"
					/>
			</g>
		</g>
		<g>
			<g>
				<g>
					<g>
						<path d="M183.89,140.465c-9.377,0-17.006,7.629-17.006,17.006c0,9.377,7.629,17.006,17.006,17.006s17.006-7.629,17.006-17.006
							C200.896,148.094,193.267,140.465,183.89,140.465z M183.89,169.477c-6.62,0-12.006-5.386-12.006-12.006
							s5.386-12.006,12.006-12.006s12.006,5.386,12.006,12.006S190.51,169.477,183.89,169.477z"/>
					</g>
				</g>
			</g>
		</g>
		<g>
			<g>
				<g>
					<g>
						<path d="M72.738,240.194c-1.896-11.032-10.486-19.777-21.377-21.761c-5.171-0.941-10.604-0.941-15.771,0
							c-11.553,2.105-20.236,11.434-21.608,23.215c-0.074,0.638-0.107,1.305-0.107,2.16v6.864c0,2.938,2.39,5.328,5.327,5.328
							h48.431c2.938,0,5.327-2.39,5.327-5.328v-7.498C72.959,242.015,72.889,241.067,72.738,240.194z M67.959,250.672
							c0,0.181-0.147,0.328-0.327,0.328H19.201c-0.181,0-0.327-0.147-0.327-0.328v-6.864c0-0.655,0.022-1.142,0.074-1.582
							c1.115-9.582,8.164-17.167,17.538-18.875c2.289-0.417,4.641-0.628,6.989-0.628c2.348,0,4.699,0.211,6.989,0.628
							c8.834,1.609,15.805,8.718,17.346,17.689c0,0,0,0.001,0,0.002c0.102,0.585,0.148,1.263,0.148,2.131V250.672z"/>
					</g>
				</g>
			</g>
		</g>
		<g>
			<g>
				<g>
					<g>
						<path d="M42.917,188.512c-9.377,0-17.006,7.629-17.006,17.006c0,9.377,7.629,17.006,17.006,17.006
							c9.378,0,17.007-7.629,17.007-17.006C59.924,196.141,52.295,188.512,42.917,188.512z M42.917,217.524
							c-6.62,0-12.006-5.386-12.006-12.006s5.386-12.006,12.006-12.006s12.007,5.386,12.007,12.006S49.537,217.524,42.917,217.524z"
							/>
					</g>
				</g>
			</g>
		</g>
		<g>
			<g>
				<g>
					<g>
						<path d="M129.127,240.194c-1.896-11.032-10.486-19.777-21.377-21.761c-5.168-0.941-10.604-0.941-15.771,0
							c-11.553,2.105-20.236,11.434-21.608,23.215c-0.074,0.638-0.107,1.305-0.107,2.16v6.864c0,2.938,2.391,5.328,5.328,5.328
							h48.43c2.938,0,5.327-2.39,5.327-5.328v-7.498C129.348,242.015,129.277,241.067,129.127,240.194z M124.348,250.672
							c0,0.181-0.146,0.328-0.327,0.328h-48.43c-0.181,0-0.328-0.147-0.328-0.328v-6.864c0-0.655,0.022-1.142,0.074-1.582
							c1.115-9.582,8.164-17.167,17.538-18.875c2.289-0.417,4.641-0.628,6.989-0.628s4.7,0.211,6.989,0.628
							c8.834,1.609,15.805,8.718,17.346,17.689c0,0,0,0.001,0,0.002c0.102,0.585,0.148,1.263,0.148,2.131V250.672z"/>
					</g>
				</g>
			</g>
		</g>
		<g>
			<g>
				<g>
					<g>
						<path d="M99.307,188.512c-9.378,0-17.007,7.629-17.007,17.006c0,9.377,7.629,17.006,17.007,17.006
							c9.377,0,17.006-7.629,17.006-17.006C116.313,196.141,108.684,188.512,99.307,188.512z M99.307,217.524
							c-6.62,0-12.007-5.386-12.007-12.006s5.387-12.006,12.007-12.006s12.006,5.386,12.006,12.006S105.927,217.524,99.307,217.524z
							"/>
					</g>
				</g>
			</g>
		</g>
		<g>
			<g>
				<g>
					<g>
						<path d="M185.517,240.195L185.517,240.195c-1.896-11.033-10.487-19.778-21.378-21.762c-5.168-0.941-10.604-0.941-15.771,0
							c-11.553,2.105-20.236,11.435-21.608,23.219c-0.096,0.828-0.106,1.627-0.106,2.156v6.864c0,2.938,2.39,5.328,5.327,5.328
							h48.43c2.938,0,5.328-2.39,5.328-5.328v-7.498C185.737,242.02,185.667,241.073,185.517,240.195z M180.737,250.672
							c0,0.181-0.147,0.328-0.328,0.328h-48.43c-0.181,0-0.327-0.147-0.327-0.328v-6.864c0-0.654,0.022-1.143,0.073-1.582
							c1.115-9.581,8.164-17.167,17.538-18.875c2.289-0.417,4.641-0.628,6.989-0.628s4.7,0.211,6.989,0.628
							c8.833,1.609,15.804,8.718,17.347,17.688c0.102,0.592,0.148,1.27,0.148,2.134V250.672z"/>
					</g>
				</g>
			</g>
		</g>
		<g>
			<g>
				<g>
					<g>
						<path d="M155.695,188.512c-9.377,0-17.006,7.629-17.006,17.006c0,9.377,7.629,17.006,17.006,17.006
							s17.006-7.629,17.006-17.006C172.701,196.141,165.072,188.512,155.695,188.512z M155.695,217.524
							c-6.62,0-12.006-5.386-12.006-12.006s5.386-12.006,12.006-12.006s12.006,5.386,12.006,12.006S162.315,217.524,155.695,217.524
							z"/>
					</g>
				</g>
			</g>
		</g>
		<g>
			<g>
				<g>
					<g>
						<path d="M241.905,240.195L241.905,240.195c-1.896-11.033-10.487-19.778-21.377-21.762c-5.17-0.942-10.603-0.942-15.772,0
							c-11.553,2.105-20.236,11.435-21.607,23.215c-0.074,0.638-0.107,1.305-0.107,2.16v6.864c0,2.938,2.39,5.328,5.327,5.328h48.43
							c2.938,0,5.328-2.39,5.328-5.328v-7.498C242.126,242.02,242.056,241.073,241.905,240.195z M237.126,250.672
							c0,0.181-0.147,0.328-0.328,0.328h-48.43c-0.181,0-0.327-0.147-0.327-0.328v-6.864c0-0.655,0.022-1.142,0.074-1.582
							c1.115-9.582,8.162-17.167,17.537-18.875c2.29-0.417,4.642-0.628,6.989-0.628c2.349,0,4.7,0.211,6.99,0.628
							c8.832,1.609,15.803,8.718,17.346,17.688c0.102,0.592,0.148,1.27,0.148,2.134V250.672z"/>
					</g>
				</g>
			</g>
		</g>
		<g>
			<g>
				<g>
					<g>
						<path d="M212.084,188.512c-9.377,0-17.006,7.629-17.006,17.006c0,9.377,7.629,17.006,17.006,17.006
							s17.006-7.629,17.006-17.006C229.09,196.141,221.461,188.512,212.084,188.512z M212.084,217.524
							c-6.62,0-12.006-5.386-12.006-12.006s5.386-12.006,12.006-12.006s12.006,5.386,12.006,12.006S218.704,217.524,212.084,217.524
							z"/>
					</g>
				</g>
			</g>
		</g>
	</g>
</g>
<g id="Layer_50">
</g>
<g id="Layer_51">
</g>
<g id="Layer_52">
</g>
<g id="Layer_53">
</g>
<g id="Layer_54">
</g>
<g id="Layer_55">
</g>
<g id="Layer_56">
</g>
<g id="Layer_57">
</g>
<g id="Layer_58">
</g>
<g id="Layer_59">
</g>
<g id="Layer_60">
</g>
<g id="Layer_61">
</g>
<g id="Layer_62">
</g>
<g id="Layer_63">
</g>
<g id="Layer_64">
</g>
<g id="Layer_65">
</g>
<g id="Layer_66">
</g>
<g id="Layer_67">
</g>
<g id="Layer_68">
</g>
<g id="Layer_69">
</g>
<g id="Layer_70">
</g>
<g id="Layer_71">
</g>
<g id="Layer_72">
</g>
<g id="Layer_73">
</g>
<g id="Layer_74">
</g>
<g id="Layer_75">
</g>
<g id="Layer_76">
</g>
<g id="Layer_77">
</g>
<g id="Layer_78">
</g>
<g id="Layer_79">
</g>
<g id="Layer_80">
</g>
</svg>
