<?xml version="1.0" encoding="utf-8"?>
<!-- Generator: Adobe Illustrator 24.0.0, SVG Export Plug-In . SVG Version: 6.00 Build 0)  -->
<svg version="1.1" xmlns="http://www.w3.org/2000/svg" xmlns:xlink="http://www.w3.org/1999/xlink" x="0px" y="0px"
	 viewBox="0 0 256 256" enable-background="new 0 0 256 256" xml:space="preserve">
<g id="Layer_1">
</g>
<g id="Layer_2">
</g>
<g id="Layer_3">
</g>
<g id="Layer_4">
</g>
<g id="Layer_5">
</g>
<g id="Layer_6">
</g>
<g id="Layer_7">
	<g>
		<g>
			<g>
				<path fill="#6CADEF" d="M222.145,71.661H33.855c-8.418,0-15.306,6.888-15.306,15.306v108.128
					c0,8.418,6.888,15.306,15.306,15.306h188.289c8.418,0,15.306-6.888,15.306-15.306V86.967
					C237.451,78.549,230.563,71.661,222.145,71.661z"/>
			</g>
		</g>
		<g>
			<g>
				<path fill="#DAE6F1" d="M35.623,210.402v2.461c0,4.299,3.517,7.816,7.816,7.816h27.297c4.299,0,7.816-3.517,7.816-7.816v-2.461
					H35.623z"/>
			</g>
		</g>
		<g>
			<g>
				<path fill="#DAE6F1" d="M177.447,210.402v2.461c0,4.299,3.517,7.816,7.816,7.816h27.297c4.299,0,7.816-3.517,7.816-7.816v-2.461
					H177.447z"/>
			</g>
		</g>
		<g>
			<g>
				<path fill="#6CADEF" d="M92.425,7.012l-5.65-3.07c-2.493-1.355-5.613-0.432-6.968,2.062c-1.355,2.493-0.432,5.613,2.062,6.968
					l5.65,3.07c2.486,1.351,5.61,0.439,6.968-2.062C95.843,11.486,94.919,8.366,92.425,7.012z"/>
			</g>
		</g>
		<g>
			<g>
				<path fill="#DAE6F1" d="M112.74,18.048c-2.494-1.355-5.614-0.433-6.969,2.062c-1.355,2.494-0.432,5.614,2.062,6.969
					l82.057,44.582h21.528L112.74,18.048z"/>
			</g>
		</g>
		<g>
			<g>
				<path fill="#3A70BF" d="M34.369,84.508c-1.642,0-2.974,1.331-2.974,2.974v107.1c0,1.642,1.331,2.974,2.974,2.974H148.04V84.508
					H34.369z"/>
			</g>
		</g>
		<g>
			<g>
				<path fill="#5290DB" d="M221.631,84.508h-73.59v113.048h73.59c1.642,0,2.974-1.331,2.974-2.974v-107.1
					C224.604,85.839,223.273,84.508,221.631,84.508z"/>
			</g>
		</g>
		<g>
			<g>
				<path fill="#70D6F9" d="M211.607,94.785h-50.569c-1.503,0-2.721,1.218-2.721,2.721v27.959c0,1.503,1.218,2.721,2.721,2.721
					h50.569c1.503,0,2.721-1.218,2.721-2.721V97.505C214.327,96.003,213.109,94.785,211.607,94.785z"/>
			</g>
		</g>
		<g>
			<g>
				<path fill="#FCDD86" d="M211.607,94.785h-50.569c-1.503,0-2.721,1.218-2.721,2.721v8.07h56.01v-8.07
					C214.327,96.003,213.109,94.785,211.607,94.785z"/>
			</g>
		</g>
		<g>
			<g>
				<path fill="#6CADEF" d="M211.607,138.976h-50.569c-1.503,0-2.721,1.218-2.721,2.721v6.378c0,1.503,1.218,2.721,2.721,2.721
					h50.569c1.503,0,2.721-1.218,2.721-2.721v-6.378C214.327,140.194,213.109,138.976,211.607,138.976z"/>
			</g>
		</g>
		<g>
			<g>
				<circle fill="#DAE6F1" cx="170.65" cy="172.89" r="9.249"/>
			</g>
		</g>
		<g>
			<g>
				
					<ellipse transform="matrix(0.7071 -0.7071 0.7071 0.7071 -63.089 193.4704)" fill="#DAE6F1" cx="201.995" cy="172.89" rx="9.249" ry="9.249"/>
			</g>
		</g>
		<g>
			<g>
				<path fill="#70D6F9" d="M231.906,34.833h-2.4v-2.3c0-1.8-1.4-3.2-3.2-3.2c-1.7,0-3.2,1.4-3.2,3.1v2.4h-2.3
					c-1.8,0-3.2,1.4-3.2,3.2c-0.1,1.7,1.3,3.2,3.2,3.2h2.3v2.3c0,1.8,1.4,3.2,3.2,3.2c1.7,0,3.2-1.4,3.2-3.1v-2.4h2.3
					c1.8,0,3.2-1.4,3.2-3.2C235.006,36.333,233.606,34.833,231.906,34.833z"/>
			</g>
		</g>
		<g>
			<g>
				<path fill="#F5C84C" d="M252.6,63.233c-1.878,0-3.4,1.522-3.4,3.4s1.522,3.4,3.4,3.4c1.878,0,3.4-1.522,3.4-3.4
					S254.478,63.233,252.6,63.233z"/>
			</g>
		</g>
		<g>
			<g>
				<path fill="#87D147" d="M3.4,213.733c-1.878,0-3.4,1.522-3.4,3.4s1.522,3.4,3.4,3.4c1.878,0,3.4-1.522,3.4-3.4
					S5.278,213.733,3.4,213.733z"/>
			</g>
		</g>
		<g>
			<g>
				<path fill="#F5C84C" d="M45.15,245.933c-4.5-0.8-8-4.3-8.9-8.7c0-0.2-0.4-0.2-0.4,0c-0.9,4.4-4.4,7.9-8.9,8.7
					c-0.2,0-0.2,0.3,0,0.4c4.5,0.8,8,4.3,8.9,8.7c0,0.2,0.4,0.2,0.4,0c0.9-4.4,4.4-7.9,8.9-8.7
					C45.35,246.233,45.35,245.933,45.15,245.933z"/>
			</g>
		</g>
		<g>
			<g>
				<path fill="#FC657E" d="M78.15,50.173c-3.1-0.6-5.6-3-6.2-6.1c0-0.1-0.3-0.1-0.3,0c-0.6,3.1-3.1,5.5-6.2,6.1
					c-0.1,0-0.1,0.2,0,0.3c3.1,0.6,5.6,3,6.2,6.1c0,0.1,0.3,0.1,0.3,0c0.6-3.1,3.1-5.5,6.2-6.1
					C78.25,50.373,78.25,50.173,78.15,50.173z"/>
			</g>
		</g>
		<g>
			<g>
				<g>
					<g>
						<path d="M222.145,69.161H33.855c-9.818,0-17.806,7.988-17.806,17.806v108.128c0,9.818,7.988,17.806,17.806,17.806h188.289
							c9.818,0,17.806-7.988,17.806-17.806V86.967C239.951,77.149,231.963,69.161,222.145,69.161z M234.951,195.096
							c0,7.062-5.745,12.806-12.806,12.806H33.855c-7.062,0-12.806-5.745-12.806-12.806V86.967c0-7.062,5.745-12.806,12.806-12.806
							h188.289c7.062,0,12.806,5.745,12.806,12.806V195.096z"/>
					</g>
				</g>
			</g>
		</g>
		<g>
			<g>
				<path d="M195.608,138.083c-1.381,0-2.5,1.119-2.5,2.5v8.799c0,1.381,1.119,2.5,2.5,2.5s2.5-1.119,2.5-2.5v-8.799
					C198.108,139.202,196.989,138.083,195.608,138.083z"/>
			</g>
		</g>
		<g>
			<g>
				<path d="M177.036,138.146c-1.381,0-2.5,1.119-2.5,2.5v8.735c0,1.381,1.119,2.5,2.5,2.5s2.5-1.119,2.5-2.5v-8.735
					C179.536,139.265,178.417,138.146,177.036,138.146z"/>
			</g>
		</g>
		<g>
			<g>
				<path d="M212.272,103.076h-52.413c-1.381,0-2.5,1.119-2.5,2.5s1.119,2.5,2.5,2.5h52.413c1.381,0,2.5-1.119,2.5-2.5
					S213.653,103.076,212.272,103.076z"/>
			</g>
		</g>
		<g>
			<g>
				<path d="M199.426,100.506c-1.381,0-2.5,1.119-2.5,2.5v5.139c0,1.381,1.119,2.5,2.5,2.5s2.5-1.119,2.5-2.5v-5.139
					C201.926,101.625,200.807,100.506,199.426,100.506z"/>
			</g>
		</g>
		<g>
			<g>
				<path d="M78.553,209.188c-1.381,0-2.5,1.119-2.5,2.5v1.174c0,2.932-2.385,5.316-5.317,5.316H43.44
					c-2.932,0-5.316-2.385-5.316-5.316V211.5c0-1.381-1.119-2.5-2.5-2.5s-2.5,1.119-2.5,2.5v1.362
					c0,5.688,4.628,10.316,10.316,10.316h27.296c5.689,0,10.317-4.628,10.317-10.316v-1.174
					C81.053,210.307,79.934,209.188,78.553,209.188z"/>
			</g>
		</g>
		<g>
			<g>
				<path d="M220.376,209.063c-1.381,0-2.5,1.119-2.5,2.5v1.3c0,2.932-2.385,5.316-5.316,5.316h-27.296
					c-2.932,0-5.317-2.385-5.317-5.316v-1.424c0-1.381-1.119-2.5-2.5-2.5s-2.5,1.119-2.5,2.5v1.424
					c0,5.688,4.628,10.316,10.317,10.316h27.296c5.688,0,10.316-4.628,10.316-10.316v-1.3
					C222.876,210.182,221.757,209.063,220.376,209.063z"/>
			</g>
		</g>
		<g>
			<g>
				<path d="M134.593,94.568H45.356c-1.381,0-2.5,1.119-2.5,2.5s1.119,2.5,2.5,2.5h89.237c1.381,0,2.5-1.119,2.5-2.5
					S135.974,94.568,134.593,94.568z"/>
			</g>
		</g>
		<g>
			<g>
				<path d="M134.593,107.129H45.356c-1.381,0-2.5,1.119-2.5,2.5s1.119,2.5,2.5,2.5h89.237c1.381,0,2.5-1.119,2.5-2.5
					S135.974,107.129,134.593,107.129z"/>
			</g>
		</g>
		<g>
			<g>
				<path d="M134.593,119.69H45.356c-1.381,0-2.5,1.119-2.5,2.5s1.119,2.5,2.5,2.5h89.237c1.381,0,2.5-1.119,2.5-2.5
					S135.974,119.69,134.593,119.69z"/>
			</g>
		</g>
		<g>
			<g>
				<path d="M134.593,132.251H45.356c-1.381,0-2.5,1.119-2.5,2.5s1.119,2.5,2.5,2.5h89.237c1.381,0,2.5-1.119,2.5-2.5
					S135.974,132.251,134.593,132.251z"/>
			</g>
		</g>
		<g>
			<g>
				<path d="M134.593,144.812H45.356c-1.381,0-2.5,1.119-2.5,2.5s1.119,2.5,2.5,2.5h89.237c1.381,0,2.5-1.119,2.5-2.5
					S135.974,144.812,134.593,144.812z"/>
			</g>
		</g>
		<g>
			<g>
				<path d="M134.593,157.373H45.356c-1.381,0-2.5,1.119-2.5,2.5s1.119,2.5,2.5,2.5h89.237c1.381,0,2.5-1.119,2.5-2.5
					S135.974,157.373,134.593,157.373z"/>
			</g>
		</g>
		<g>
			<g>
				<path d="M134.593,169.934H45.356c-1.381,0-2.5,1.119-2.5,2.5s1.119,2.5,2.5,2.5h89.237c1.381,0,2.5-1.119,2.5-2.5
					S135.974,169.934,134.593,169.934z"/>
			</g>
		</g>
		<g>
			<g>
				<path d="M134.593,182.495H45.356c-1.381,0-2.5,1.119-2.5,2.5s1.119,2.5,2.5,2.5h89.237c1.381,0,2.5-1.119,2.5-2.5
					S135.974,182.495,134.593,182.495z"/>
			</g>
		</g>
		<g>
			<g>
				<path d="M106.341,17.575l-9.573-5.201c-1.213-0.66-2.731-0.209-3.39,1.003c-0.659,1.213-0.21,2.731,1.003,3.39l9.573,5.201
					c0.379,0.206,0.788,0.304,1.191,0.304c0.887,0,1.746-0.473,2.199-1.307C108.003,19.751,107.554,18.234,106.341,17.575z"/>
			</g>
		</g>
		<g>
			<g>
				<g>
					<g>
						<g>
							<path d="M93.619,4.815l-5.649-3.069c-1.793-0.975-3.86-1.192-5.814-0.613c-1.957,0.579-3.57,1.885-4.544,3.679
								c-0.974,1.792-1.192,3.857-0.613,5.814c0.579,1.956,1.885,3.57,3.678,4.544l5.65,3.069c1.135,0.617,2.379,0.93,3.636,0.93
								c0.726,0,1.456-0.104,2.171-0.315c1.959-0.578,3.576-1.885,4.551-3.681C98.695,11.473,97.32,6.826,93.619,4.815z
								 M92.291,12.786c-0.337,0.621-0.895,1.072-1.572,1.271c-0.674,0.198-1.388,0.124-2.006-0.212h0l-5.65-3.069
								c-0.619-0.336-1.07-0.894-1.271-1.57c-0.2-0.676-0.125-1.389,0.212-2.008s0.894-1.071,1.57-1.271
								c0.248-0.074,0.5-0.11,0.752-0.11c0.434,0,0.864,0.108,1.256,0.322l5.65,3.07C92.51,9.903,92.985,11.508,92.291,12.786z"/>
						</g>
					</g>
				</g>
			</g>
		</g>
		<g>
			<g>
				<path d="M212.395,69.346l-98.461-53.495c-1.793-0.975-3.858-1.192-5.814-0.613c-1.957,0.579-3.571,1.886-4.544,3.679
					c-2.011,3.701-0.636,8.348,3.065,10.359l81.85,44.47c0.379,0.206,0.788,0.304,1.191,0.304c0.887,0,1.746-0.473,2.199-1.307
					c0.659-1.213,0.21-2.731-1.003-3.39l-81.85-44.47c-1.278-0.694-1.753-2.3-1.058-3.58c0.336-0.619,0.893-1.07,1.568-1.27
					c0.677-0.199,1.39-0.125,2.009,0.212l98.461,53.495c1.214,0.66,2.732,0.209,3.39-1.003
					C214.057,71.523,213.608,70.005,212.395,69.346z"/>
			</g>
		</g>
		<g>
			<g>
				<path d="M148.041,195.055H34.369c-0.261,0-0.474-0.212-0.474-0.474v-107.1c0-0.261,0.212-0.474,0.474-0.474h113.671
					c1.381,0,2.5-1.119,2.5-2.5s-1.119-2.5-2.5-2.5H34.369c-3.018,0-5.474,2.456-5.474,5.474v107.1c0,3.018,2.456,5.474,5.474,5.474
					h113.671c1.381,0,2.5-1.119,2.5-2.5S149.421,195.055,148.041,195.055z"/>
			</g>
		</g>
		<g>
			<g>
				<g>
					<g>
						<path d="M221.631,82.008h-73.59c-1.381,0-2.5,1.119-2.5,2.5v113.047c0,1.381,1.119,2.5,2.5,2.5h73.59
							c3.018,0,5.474-2.456,5.474-5.474v-107.1C227.104,84.463,224.649,82.008,221.631,82.008z M222.104,194.582
							c0,0.261-0.212,0.474-0.474,0.474h-71.09V87.008h71.09c0.261,0,0.474,0.212,0.474,0.474V194.582z"/>
					</g>
				</g>
			</g>
		</g>
		<g>
			<g>
				<g>
					<g>
						<path d="M211.607,92.285h-50.569c-2.879,0-5.221,2.342-5.221,5.221v27.959c0,2.879,2.342,5.221,5.221,5.221h50.569
							c2.878,0,5.22-2.342,5.22-5.221V97.505C216.827,94.626,214.485,92.285,211.607,92.285z M211.827,125.464
							c0,0.122-0.099,0.221-0.22,0.221h-50.569c-0.122,0-0.221-0.099-0.221-0.221V97.505c0-0.122,0.099-0.221,0.221-0.221h50.569
							c0.122,0,0.22,0.099,0.22,0.221V125.464z"/>
					</g>
				</g>
			</g>
		</g>
		<g>
			<g>
				<g>
					<g>
						<path d="M211.607,136.476h-50.569c-2.879,0-5.221,2.342-5.221,5.221v6.377c0,2.879,2.342,5.221,5.221,5.221h50.569
							c2.878,0,5.22-2.342,5.22-5.221v-6.377C216.827,138.818,214.485,136.476,211.607,136.476z M211.827,148.074
							c0,0.122-0.099,0.221-0.22,0.221h-50.569c-0.122,0-0.221-0.099-0.221-0.221v-6.377c0-0.122,0.099-0.221,0.221-0.221h50.569
							c0.122,0,0.22,0.099,0.22,0.221V148.074z"/>
					</g>
				</g>
			</g>
		</g>
		<g>
			<g>
				<g>
					<g>
						<path d="M170.65,161.141c-6.479,0-11.75,5.271-11.75,11.75s5.271,11.749,11.75,11.749s11.75-5.271,11.75-11.749
							S177.128,161.141,170.65,161.141z M170.65,179.64c-3.722,0-6.75-3.028-6.75-6.749c0-3.722,3.028-6.75,6.75-6.75
							s6.75,3.028,6.75,6.75C177.399,176.612,174.372,179.64,170.65,179.64z"/>
					</g>
				</g>
			</g>
		</g>
		<g>
			<g>
				<g>
					<g>
						<path d="M201.995,161.141c-6.479,0-11.75,5.271-11.75,11.75s5.271,11.749,11.75,11.749s11.749-5.271,11.749-11.749
							S208.474,161.141,201.995,161.141z M201.995,179.64c-3.722,0-6.75-3.028-6.75-6.749c0-3.722,3.028-6.75,6.75-6.75
							c3.721,0,6.749,3.028,6.749,6.75C208.744,176.612,205.716,179.64,201.995,179.64z"/>
					</g>
				</g>
			</g>
		</g>
	</g>
</g>
<g id="Layer_8">
</g>
<g id="Layer_9">
</g>
<g id="Layer_10">
</g>
<g id="Layer_11">
</g>
<g id="Layer_12">
</g>
<g id="Layer_13">
</g>
<g id="Layer_14">
</g>
<g id="Layer_15">
</g>
<g id="Layer_16">
</g>
<g id="Layer_17">
</g>
<g id="Layer_18">
</g>
<g id="Layer_19">
</g>
<g id="Layer_20">
</g>
<g id="Layer_21">
</g>
<g id="Layer_22">
</g>
<g id="Layer_23">
</g>
<g id="Layer_24">
</g>
<g id="Layer_25">
</g>
<g id="Layer_26">
</g>
<g id="Layer_27">
</g>
<g id="Layer_28">
</g>
<g id="Layer_29">
</g>
<g id="Layer_30">
</g>
<g id="Layer_31">
</g>
<g id="Layer_32">
</g>
<g id="Layer_33">
</g>
<g id="Layer_34">
</g>
<g id="Layer_35">
</g>
<g id="Layer_36">
</g>
<g id="Layer_37">
</g>
<g id="Layer_38">
</g>
<g id="Layer_39">
</g>
<g id="Layer_40">
</g>
<g id="Layer_41">
</g>
<g id="Layer_42">
</g>
<g id="Layer_43">
</g>
<g id="Layer_44">
</g>
<g id="Layer_45">
</g>
<g id="Layer_46">
</g>
<g id="Layer_47">
</g>
<g id="Layer_48">
</g>
<g id="Layer_49">
</g>
<g id="Layer_50">
</g>
<g id="Layer_51">
</g>
<g id="Layer_52">
</g>
<g id="Layer_53">
</g>
<g id="Layer_54">
</g>
<g id="Layer_55">
</g>
<g id="Layer_56">
</g>
<g id="Layer_57">
</g>
<g id="Layer_58">
</g>
<g id="Layer_59">
</g>
<g id="Layer_60">
</g>
<g id="Layer_61">
</g>
<g id="Layer_62">
</g>
<g id="Layer_63">
</g>
<g id="Layer_64">
</g>
<g id="Layer_65">
</g>
<g id="Layer_66">
</g>
<g id="Layer_67">
</g>
<g id="Layer_68">
</g>
<g id="Layer_69">
</g>
<g id="Layer_70">
</g>
<g id="Layer_71">
</g>
<g id="Layer_72">
</g>
<g id="Layer_73">
</g>
<g id="Layer_74">
</g>
<g id="Layer_75">
</g>
<g id="Layer_76">
</g>
<g id="Layer_77">
</g>
<g id="Layer_78">
</g>
<g id="Layer_79">
</g>
<g id="Layer_80">
</g>
</svg>
