<?xml version="1.0" encoding="utf-8"?>
<!-- Generator: Adobe Illustrator 24.0.0, SVG Export Plug-In . SVG Version: 6.00 Build 0)  -->
<svg version="1.1" xmlns="http://www.w3.org/2000/svg" xmlns:xlink="http://www.w3.org/1999/xlink" x="0px" y="0px"
	 viewBox="0 0 256 256" enable-background="new 0 0 256 256" xml:space="preserve">
<g id="Layer_1">
</g>
<g id="Layer_2">
</g>
<g id="Layer_3">
</g>
<g id="Layer_4">
</g>
<g id="Layer_5">
</g>
<g id="Layer_6">
</g>
<g id="Layer_7">
</g>
<g id="Layer_8">
</g>
<g id="Layer_9">
</g>
<g id="Layer_10">
</g>
<g id="Layer_11">
</g>
<g id="Layer_12">
</g>
<g id="Layer_13">
</g>
<g id="Layer_14">
</g>
<g id="Layer_15">
</g>
<g id="Layer_16">
</g>
<g id="Layer_17">
</g>
<g id="Layer_18">
</g>
<g id="Layer_19">
</g>
<g id="Layer_20">
</g>
<g id="Layer_21">
</g>
<g id="Layer_22">
</g>
<g id="Layer_23">
</g>
<g id="Layer_24">
</g>
<g id="Layer_25">
</g>
<g id="Layer_26">
</g>
<g id="Layer_27">
</g>
<g id="Layer_28">
</g>
<g id="Layer_29">
</g>
<g id="Layer_30">
</g>
<g id="Layer_31">
</g>
<g id="Layer_32">
</g>
<g id="Layer_33">
</g>
<g id="Layer_34">
</g>
<g id="Layer_35">
</g>
<g id="Layer_36">
</g>
<g id="Layer_37">
</g>
<g id="Layer_38">
	<g>
		<g>
			<g>
				<path fill="#F5C84C" d="M143.522,216.809c1.275-1.243,0.572-3.409-1.191-3.666l-7.453-1.083c-0.7-0.102-1.305-0.541-1.618-1.176
					l-3.333-6.753c-0.788-1.597-3.066-1.597-3.854,0l-3.333,6.753c-0.313,0.634-0.918,1.074-1.618,1.176l-7.453,1.083
					c-1.763,0.256-2.466,2.422-1.191,3.666l5.393,5.257c0.506,0.494,0.738,1.205,0.618,1.902l-1.273,7.423
					c-0.301,1.756,1.542,3.094,3.118,2.265l6.666-3.504c0.626-0.329,1.374-0.329,2,0l6.666,3.504
					c1.577,0.829,3.419-0.51,3.118-2.265l-1.273-7.423c-0.12-0.697,0.112-1.408,0.618-1.902L143.522,216.809z"/>
			</g>
		</g>
		<g>
			<g>
				<path fill="#F5C84C" d="M186.522,216.809c1.275-1.243,0.572-3.409-1.191-3.666l-7.453-1.083c-0.7-0.102-1.305-0.541-1.618-1.176
					l-3.333-6.753c-0.788-1.597-3.066-1.597-3.854,0l-3.333,6.753c-0.313,0.634-0.918,1.074-1.618,1.176l-7.453,1.083
					c-1.763,0.256-2.466,2.422-1.191,3.666l5.393,5.257c0.506,0.494,0.738,1.205,0.618,1.902l-1.273,7.423
					c-0.301,1.756,1.542,3.094,3.118,2.265l6.666-3.504c0.626-0.329,1.374-0.329,2,0l6.666,3.504
					c1.577,0.829,3.419-0.51,3.118-2.265l-1.273-7.423c-0.12-0.697,0.112-1.408,0.618-1.902L186.522,216.809z"/>
			</g>
		</g>
		<g>
			<g>
				<path fill="#F5C84C" d="M229.522,216.809c1.275-1.243,0.572-3.409-1.191-3.666l-7.453-1.083c-0.7-0.102-1.305-0.541-1.618-1.176
					l-3.333-6.753c-0.788-1.597-3.066-1.597-3.854,0l-3.333,6.753c-0.313,0.634-0.918,1.074-1.618,1.176l-7.453,1.083
					c-1.763,0.256-2.466,2.422-1.191,3.666l5.393,5.257c0.506,0.494,0.738,1.205,0.618,1.902l-1.273,7.423
					c-0.301,1.756,1.542,3.094,3.118,2.265l6.666-3.504c0.626-0.329,1.374-0.329,2,0l6.666,3.504
					c1.577,0.829,3.419-0.51,3.118-2.265l-1.273-7.423c-0.12-0.697,0.112-1.408,0.618-1.902L229.522,216.809z"/>
			</g>
		</g>
		<g>
			<g>
				<path fill="#F5C84C" d="M57.522,216.809c1.275-1.243,0.572-3.409-1.191-3.666l-7.453-1.083c-0.7-0.102-1.305-0.541-1.618-1.176
					l-3.333-6.753c-0.788-1.597-3.066-1.597-3.854,0l-3.333,6.753c-0.313,0.634-0.918,1.074-1.618,1.176l-7.453,1.083
					c-1.763,0.256-2.466,2.422-1.191,3.666l5.393,5.257c0.506,0.494,0.738,1.205,0.618,1.902l-1.273,7.423
					c-0.301,1.756,1.542,3.094,3.118,2.265L41,230.152c0.626-0.329,1.374-0.329,2,0l6.666,3.504c1.577,0.829,3.419-0.51,3.118-2.265
					l-1.273-7.423c-0.12-0.697,0.112-1.408,0.618-1.902L57.522,216.809z"/>
			</g>
		</g>
		<g>
			<g>
				<path fill="#F5C84C" d="M100.522,216.809c1.275-1.243,0.572-3.409-1.191-3.666l-7.453-1.083c-0.7-0.102-1.305-0.541-1.618-1.176
					l-3.333-6.753c-0.788-1.597-3.066-1.597-3.854,0l-3.333,6.753c-0.313,0.634-0.918,1.074-1.618,1.176l-7.453,1.083
					c-1.763,0.256-2.466,2.422-1.191,3.666l5.393,5.257c0.506,0.494,0.738,1.205,0.618,1.902l-1.273,7.423
					c-0.301,1.756,1.542,3.094,3.118,2.265L84,230.152c0.626-0.329,1.374-0.329,2,0l6.666,3.504c1.577,0.829,3.419-0.51,3.118-2.265
					l-1.273-7.423c-0.12-0.697,0.112-1.408,0.618-1.902L100.522,216.809z"/>
			</g>
		</g>
		<g>
			<g>
				<path fill="#F9D0B4" d="M156.733,38.352c-2.192-2.299-5.756-2.51-8.255-0.549c-3.951,3.101-10.787,6.934-20.442,6.934
					c-9.679,0-16.551-3.852-20.518-6.957c-2.497-1.954-6.053-1.735-8.241,0.56l-0.011,0.012c-3.074,3.224-4.789,7.507-4.789,11.961
					v28.134c0,18.437,15.085,33.522,33.522,33.522h0c18.437,0,33.522-15.085,33.522-33.522V50.313
					C161.522,45.859,159.807,41.576,156.733,38.352z"/>
			</g>
		</g>
		<g>
			<g>
				<path fill="#F9D0B4" d="M163.673,52.898c-0.732,0-1.45,0.062-2.151,0.171v25.378c0,0.756-0.035,1.504-0.084,2.248
					c0.73,0.118,1.473,0.195,2.236,0.195c7.73,0,13.996-6.266,13.996-13.996C177.669,59.165,171.403,52.898,163.673,52.898z"/>
			</g>
		</g>
		<g>
			<g>
				<path fill="#F9D0B4" d="M94.478,78.447V53.069c-0.702-0.109-1.419-0.171-2.151-0.171c-7.73,0-13.996,6.266-13.996,13.996
					c0,7.73,6.266,13.996,13.996,13.996c0.763,0,1.506-0.078,2.236-0.195v-0.001C94.512,79.95,94.478,79.203,94.478,78.447z"/>
			</g>
		</g>
		<g>
			<g>
				<path fill="#5B5D60" d="M161.397,24.304c-1.123,0-2.096-0.866-2.111-1.988c-0.257-18.68-21.588-22.188-42.831-18.52
					C98.445,6.905,85.281,22.523,85.281,40.8v14.015c2.071-1.211,4.473-1.917,7.045-1.917c0.732,0,1.449,0.062,2.151,0.171v-2.756
					c0-4.454,1.715-8.738,4.789-11.961l0.011-0.012c2.188-2.294,5.745-2.513,8.241-0.56c3.967,3.105,10.839,6.957,20.518,6.957
					c9.655,0,16.491-3.833,20.442-6.934c2.499-1.961,6.063-1.75,8.255,0.549c3.074,3.224,4.789,7.507,4.789,11.961v2.756
					c0.702-0.109,1.419-0.171,2.151-0.171c2.603,0,5.031,0.724,7.119,1.962V43.353C170.793,26.627,164.753,24.304,161.397,24.304z"
					/>
			</g>
		</g>
		<g>
			<g>
				<path fill="#DAE6F1" d="M144.652,144.592c-0.905,1.036-2.479,1.143-3.516,0.237l-7.511-6.561
					c-1.036-0.905-1.143-2.479-0.238-3.516l12.383-14.178c-1.48-1.97-2.328-4.396-2.328-6.954v-5.456
					c-4.63,2.424-9.882,3.804-15.444,3.804h0c-5.562,0-10.814-1.381-15.444-3.804v5.456c0,2.558-0.847,4.985-2.328,6.954
					l12.384,14.178c0.905,1.036,0.799,2.611-0.238,3.516l-7.511,6.561c-1.036,0.906-2.61,0.799-3.516-0.237l-6.923-7.926
					l8.487,52.911h30.176l8.487-52.911L144.652,144.592z"/>
			</g>
		</g>
		<g>
			<g>
				<path fill="#3A70BF" d="M102.52,124.795c-0.243-1.517-1.789-2.454-3.246-1.968l-21.919,7.307
					c-7.427,2.476-12.731,9.053-13.578,16.836l-4.027,37.037c-0.323,2.974,2.006,5.57,4.998,5.57h48.164L102.52,124.795z"/>
			</g>
		</g>
		<g>
			<g>
				<path fill="#3A70BF" d="M196.249,184.006l-4.027-37.038c-0.846-7.783-6.15-14.36-13.577-16.836l-21.919-7.307
					c-1.458-0.486-3.003,0.451-3.246,1.968l-10.392,64.782h48.164C194.243,189.577,196.573,186.98,196.249,184.006z"/>
			</g>
		</g>
		<g>
			<g>
				<path fill="#5290DB" d="M102.52,124.795c-0.243-1.517-1.789-2.454-3.246-1.968l-7.347,2.449v34.122
					c0,2.319,1.31,4.438,3.384,5.475l4.07,2.035c1.68,0.84,2.315,2.914,1.395,4.55l-4.817,8.563
					c-0.886,1.574-1.031,3.459-0.396,5.151l1.652,4.406h15.698L102.52,124.795z"/>
			</g>
		</g>
		<g>
			<g>
				<path fill="#5290DB" d="M156.726,122.827c-1.457-0.486-3.003,0.451-3.246,1.968l-10.392,64.782h15.698l1.652-4.406
					c0.634-1.691,0.489-3.576-0.396-5.151l-4.817-8.563c-0.921-1.637-0.285-3.711,1.395-4.55l4.07-2.035
					c2.074-1.037,3.384-3.156,3.384-5.475v-34.122L156.726,122.827z"/>
			</g>
		</g>
		<g>
			<g>
				<path fill="#F9D0B4" d="M145.771,120.575c-1.48-1.97-2.328-4.396-2.328-6.955v-5.456c-4.63,2.423-9.882,3.804-15.444,3.804h0
					c-5.562,0-10.814-1.38-15.444-3.804v5.456c0,2.558-0.847,4.985-2.328,6.955l12.383,14.178c0.518,0.593,0.693,1.359,0.565,2.078
					h9.646c-0.128-0.719,0.047-1.485,0.565-2.078L145.771,120.575z"/>
			</g>
		</g>
		<g>
			<g>
				<path fill="#EDF4FC" d="M150.875,118.52c-1.036-0.905-2.61-0.799-3.516,0.238l-13.971,15.996
					c-0.905,1.036-0.799,2.61,0.238,3.516l7.511,6.561c1.036,0.905,2.61,0.799,3.516-0.237l6.923-7.926l1.904-11.871
					c0.185-1.152,1.121-1.965,2.198-2.079L150.875,118.52z"/>
			</g>
		</g>
		<g>
			<g>
				<path fill="#EDF4FC" d="M122.612,134.753l-13.971-15.996c-0.905-1.036-2.479-1.143-3.516-0.238l-4.804,4.195
					c1.078,0.114,2.014,0.928,2.198,2.079l1.904,11.871l6.923,7.926c0.905,1.036,2.479,1.143,3.516,0.237l7.511-6.561
					C123.411,137.364,123.517,135.79,122.612,134.753z"/>
			</g>
		</g>
		<g>
			<g>
				<polygon fill="#FC657E" points="134.148,150.884 121.852,150.884 118.054,189.577 137.946,189.577 				"/>
			</g>
		</g>
		<g>
			<g>
				<path fill="#F98FA6" d="M133.625,138.269c-0.444-0.388-0.706-0.9-0.802-1.438h-9.646c-0.096,0.538-0.358,1.05-0.802,1.438
					l-4.416,3.857l3.893,8.758h12.297l3.893-8.759L133.625,138.269z"/>
			</g>
		</g>
		<g>
			<g>
				<path fill="#70D6F9" d="M210.906,30.1h-2.4v-2.3c0-1.8-1.4-3.2-3.2-3.2c-1.7,0-3.2,1.4-3.2,3.1v2.4h-2.3c-1.8,0-3.2,1.4-3.2,3.2
					c-0.1,1.7,1.3,3.2,3.2,3.2h2.3v2.3c0,1.8,1.4,3.2,3.2,3.2c1.7,0,3.2-1.4,3.2-3.1v-2.4h2.3c1.8,0,3.2-1.4,3.2-3.2
					C214.006,31.6,212.606,30.1,210.906,30.1z"/>
			</g>
		</g>
		<g>
			<g>
				<path fill="#FC657E" d="M39.206,170.5c-1.878,0-3.4,1.522-3.4,3.4c0,1.878,1.522,3.4,3.4,3.4c1.878,0,3.4-1.522,3.4-3.4
					C42.606,172.022,41.083,170.5,39.206,170.5z"/>
			</g>
		</g>
		<g>
			<g>
				<path fill="#F5C84C" d="M198.15,249.525c-3.1-0.6-5.6-3-6.2-6.1c0-0.1-0.3-0.1-0.3,0c-0.6,3.1-3.1,5.5-6.2,6.1
					c-0.1,0-0.1,0.2,0,0.3c3.1,0.6,5.6,3,6.2,6.1c0,0.1,0.3,0.1,0.3,0c0.6-3.1,3.1-5.5,6.2-6.1
					C198.25,249.725,198.25,249.525,198.15,249.525z"/>
			</g>
		</g>
		<g>
			<g>
				<path fill="#87D147" d="M183.369,0c-1.878,0-3.4,1.522-3.4,3.4c0,1.878,1.522,3.4,3.4,3.4c1.878,0,3.4-1.522,3.4-3.4
					C186.769,1.522,185.246,0,183.369,0z"/>
			</g>
		</g>
		<g>
			<g>
				<path fill="#F5C84C" d="M39.15,140.2c-4.5-0.8-8-4.3-8.9-8.7c0-0.2-0.4-0.2-0.4,0c-0.9,4.4-4.4,7.9-8.9,8.7
					c-0.2,0-0.2,0.3,0,0.4c4.5,0.8,8,4.3,8.9,8.7c0,0.2,0.4,0.2,0.4,0c0.9-4.4,4.4-7.9,8.9-8.7C39.35,140.5,39.35,140.2,39.15,140.2
					z"/>
			</g>
		</g>
		<g>
			<g>
				<g>
					<g>
						<path d="M158.543,36.626c-3.08-3.228-8.069-3.567-11.608-0.79c-3.719,2.92-10.017,6.4-18.897,6.4
							c-8.899,0-15.232-3.494-18.978-6.425c-3.533-2.766-8.516-2.419-11.602,0.815c-3.534,3.706-5.48,8.566-5.48,13.687v28.133
							c0,19.863,16.16,36.022,36.022,36.022c19.863,0,36.022-16.16,36.022-36.022V50.313
							C164.022,45.193,162.076,40.332,158.543,36.626z M159.022,78.447c0,17.106-13.917,31.022-31.022,31.022
							c-17.106,0-31.022-13.917-31.022-31.022V50.313c0-3.83,1.456-7.465,4.109-10.248c0.703-0.737,1.646-1.113,2.603-1.113
							c0.799,0,1.607,0.263,2.289,0.796c4.365,3.416,11.735,7.488,22.059,7.488c10.309,0,17.646-4.061,21.984-7.467
							c1.504-1.18,3.612-1.046,4.902,0.308c2.644,2.771,4.099,6.406,4.099,10.236V78.447z"/>
					</g>
				</g>
			</g>
		</g>
		<g>
			<g>
				<path d="M175.407,155.975c-1.381,0-2.5,1.119-2.5,2.5v30.089c0,1.381,1.119,2.5,2.5,2.5s2.5-1.119,2.5-2.5v-30.089
					C177.907,157.094,176.788,155.975,175.407,155.975z"/>
			</g>
		</g>
		<g>
			<g>
				<path d="M80.593,155.975c-1.381,0-2.5,1.119-2.5,2.5v30.089c0,1.381,1.119,2.5,2.5,2.5s2.5-1.119,2.5-2.5v-30.089
					C83.093,157.094,81.974,155.975,80.593,155.975z"/>
			</g>
		</g>
		<g>
			<g>
				<path d="M163.674,50.398c-0.42,0-0.835,0.017-1.246,0.049c-1.376,0.109-2.404,1.313-2.295,2.689s1.316,2.409,2.689,2.295
					c0.28-0.022,0.564-0.034,0.852-0.034c6.339,0,11.495,5.157,11.495,11.496s-5.156,11.496-11.495,11.496
					c-0.392,0-0.797-0.026-1.239-0.079c-1.376-0.159-2.615,0.813-2.78,2.185c-0.164,1.371,0.813,2.616,2.185,2.78
					c0.643,0.077,1.242,0.114,1.835,0.114c9.096,0,16.495-7.4,16.495-16.496C180.169,57.798,172.77,50.398,163.674,50.398z"/>
			</g>
		</g>
		<g>
			<g>
				<path d="M96.104,80.563c-0.143-1.374-1.373-2.367-2.744-2.229c-0.34,0.035-0.685,0.056-1.034,0.056
					c-6.339,0-11.496-5.157-11.496-11.496s5.157-11.496,11.496-11.496c0.334,0,0.664,0.016,0.991,0.045
					c1.368,0.123,2.59-0.89,2.714-2.265s-0.89-2.59-2.265-2.714c-0.474-0.043-0.955-0.066-1.44-0.066
					c-9.096,0-16.496,7.4-16.496,16.496c0,9.096,7.4,16.496,16.496,16.496c0.504,0,1.011-0.027,1.548-0.083
					C95.249,83.166,96.247,81.937,96.104,80.563z"/>
			</g>
		</g>
		<g>
			<g>
				<path d="M161.775,21.811c-0.195-6.272-2.563-11.336-7.044-15.057c-7.67-6.368-21.773-8.346-38.702-5.422
					C96.764,4.659,82.781,21.257,82.781,40.8v13.544c0,1.381,1.119,2.5,2.5,2.5s2.5-1.119,2.5-2.5V40.8
					c0-17.103,12.238-31.629,29.099-34.542c15.485-2.673,28.115-1.091,34.657,4.342c3.463,2.875,5.18,6.719,5.249,11.75
					c0.034,2.456,2.103,4.454,4.611,4.454c4.382,0,6.896,6.032,6.896,16.549v10.855c0,1.381,1.119,2.5,2.5,2.5s2.5-1.119,2.5-2.5
					V43.353C173.293,25.125,166.249,21.972,161.775,21.811z"/>
			</g>
		</g>
		<g>
			<g>
				<path d="M143.088,187.077h-30.176c-1.381,0-2.5,1.119-2.5,2.5s1.119,2.5,2.5,2.5h30.176c1.381,0,2.5-1.119,2.5-2.5
					S144.469,187.077,143.088,187.077z"/>
			</g>
		</g>
		<g>
			<g>
				<path d="M112.556,106.25c-1.381,0-2.5,1.119-2.5,2.5v4.871c0,1.905-0.59,3.734-1.707,5.29c-0.805,1.122-0.548,2.684,0.574,3.489
					c0.441,0.316,0.951,0.469,1.456,0.469c0.778,0,1.545-0.362,2.033-1.042c1.729-2.41,2.644-5.248,2.644-8.205v-4.871
					C115.056,107.37,113.937,106.25,112.556,106.25z"/>
			</g>
		</g>
		<g>
			<g>
				<path d="M147.659,118.922c-1.123-1.559-1.716-3.392-1.716-5.301v-4.965c0-1.381-1.119-2.5-2.5-2.5c-1.381,0-2.5,1.119-2.5,2.5
					v4.965c0,2.965,0.919,5.808,2.657,8.223c0.489,0.678,1.255,1.039,2.031,1.039c0.506,0,1.017-0.153,1.459-0.471
					C148.211,121.605,148.466,120.043,147.659,118.922z"/>
			</g>
		</g>
		<g>
			<g>
				<g>
					<g>
						<path d="M115.38,189.181l-10.392-64.783c-0.232-1.449-1.086-2.716-2.341-3.477c-1.255-0.76-2.773-0.93-4.165-0.466
							l-21.919,7.307c-8.329,2.776-14.324,10.209-15.272,18.938l-4.026,37.037c-0.231,2.123,0.454,4.251,1.88,5.84
							c1.426,1.589,3.468,2.501,5.603,2.501h48.164c0.732,0,1.428-0.321,1.903-0.878C115.29,190.642,115.497,189.904,115.38,189.181
							z M64.749,187.077c-0.728,0-1.396-0.298-1.881-0.84c-0.485-0.541-0.709-1.237-0.631-1.961l4.026-37.037
							c0.738-6.791,5.402-12.574,11.883-14.734l21.908-7.303l9.925,61.875H64.749z"/>
					</g>
				</g>
			</g>
		</g>
		<g>
			<g>
				<g>
					<g>
						<path d="M198.734,183.736l-4.026-37.038c-0.949-8.728-6.944-16.161-15.271-18.937l-21.92-7.307
							c-1.391-0.464-2.909-0.294-4.165,0.467c-1.255,0.761-2.108,2.028-2.341,3.477l-10.392,64.782
							c-0.115,0.723,0.091,1.46,0.566,2.018c0.475,0.558,1.17,0.878,1.902,0.878h48.164c2.135,0,4.177-0.911,5.602-2.5
							C198.279,187.988,198.965,185.859,198.734,183.736z M193.132,186.238c-0.485,0.542-1.153,0.839-1.88,0.839h-45.231
							l9.911-61.88l0.003,0.001l21.92,7.307c6.48,2.16,11.145,7.943,11.883,14.734l4.026,37.038
							C193.842,185,193.618,185.696,193.132,186.238z"/>
					</g>
				</g>
			</g>
		</g>
		<g>
			<g>
				<g>
					<path d="M139.177,85.385c-1.058-0.887-2.634-0.749-3.522,0.309c-1.574,1.877-4.253,2.999-7.167,2.999
						c-2.914,0-5.592-1.121-7.166-2.998c-0.887-1.057-2.462-1.197-3.522-0.31c-1.058,0.887-1.197,2.464-0.31,3.522
						c2.512,2.997,6.624,4.786,10.998,4.786c4.374,0,8.486-1.789,10.999-4.786C140.373,87.849,140.234,86.271,139.177,85.385z"/>
				</g>
			</g>
			<g>
				<g>
					<ellipse transform="matrix(0.9975 -0.0709 0.0709 0.9975 -4.4904 10.3525)" cx="143.611" cy="68.442" rx="4.504" ry="4.504"/>
				</g>
			</g>
			<g>
				<g>
					<ellipse transform="matrix(0.9975 -0.0709 0.0709 0.9975 -4.5665 8.2084)" cx="113.364" cy="68.442" rx="4.504" ry="4.504"/>
				</g>
			</g>
		</g>
		<g>
			<g>
				<g>
					<g>
						<path d="M146.443,213.833c-0.552-1.695-1.989-2.908-3.753-3.164l-7.271-1.056l-3.251-6.588
							c-0.789-1.598-2.386-2.591-4.168-2.591h0c-1.782,0-3.38,0.993-4.169,2.591l-3.251,6.588l-7.27,1.056
							c-1.764,0.256-3.202,1.468-3.753,3.164c-0.551,1.696-0.1,3.522,1.176,4.767l5.261,5.127l-1.242,7.241
							c-0.301,1.757,0.408,3.5,1.85,4.547c0.814,0.592,1.768,0.893,2.728,0.893c0.739,0,1.481-0.178,2.167-0.539l6.503-3.418
							l6.502,3.418c1.576,0.83,3.453,0.694,4.896-0.353c1.442-1.048,2.152-2.79,1.851-4.548l-1.242-7.241l5.261-5.128
							C146.543,217.355,146.994,215.529,146.443,213.833z M136.384,220.276c-1.095,1.067-1.595,2.605-1.337,4.115l1.153,6.721
							l-6.037-3.173c-1.354-0.712-2.973-0.712-4.326,0l-6.037,3.173l1.153-6.723c0.257-1.507-0.242-3.044-1.337-4.114l-4.884-4.76
							l6.75-0.981c1.514-0.221,2.822-1.171,3.499-2.543l3.019-6.116l3.019,6.117c0.678,1.371,1.985,2.321,3.5,2.542l6.749,0.98
							L136.384,220.276z"/>
					</g>
				</g>
			</g>
		</g>
		<g>
			<g>
				<g>
					<g>
						<path d="M189.443,213.833c-0.552-1.695-1.989-2.908-3.753-3.164l-7.271-1.056l-3.251-6.588
							c-0.789-1.598-2.387-2.591-4.169-2.591s-3.38,0.993-4.169,2.591l-3.251,6.588l-7.271,1.056
							c-1.764,0.256-3.201,1.468-3.753,3.164c-0.551,1.695-0.1,3.522,1.177,4.766l5.261,5.128l-1.242,7.241
							c-0.302,1.757,0.408,3.5,1.851,4.547c0.814,0.592,1.768,0.892,2.728,0.892c0.738,0,1.481-0.178,2.167-0.539l6.503-3.418
							l6.502,3.418c1.576,0.83,3.453,0.694,4.896-0.353c1.442-1.048,2.152-2.79,1.851-4.548l-1.242-7.241l5.261-5.128
							C189.543,217.355,189.994,215.529,189.443,213.833z M179.384,220.276c-1.095,1.067-1.595,2.605-1.337,4.115l1.153,6.721
							l-6.037-3.173c-1.354-0.712-2.973-0.712-4.326,0l-6.037,3.173l1.153-6.723c0.258-1.508-0.242-3.046-1.337-4.113l-4.884-4.76
							l6.75-0.981c1.514-0.22,2.821-1.17,3.5-2.543l3.018-6.115l3.019,6.117c0.678,1.371,1.985,2.321,3.5,2.542l6.749,0.98
							L179.384,220.276z"/>
					</g>
				</g>
			</g>
		</g>
		<g>
			<g>
				<g>
					<g>
						<path d="M232.443,213.833c-0.552-1.695-1.989-2.908-3.753-3.164l-7.271-1.056l-3.251-6.588
							c-0.789-1.598-2.387-2.591-4.169-2.591s-3.38,0.993-4.169,2.591l-3.251,6.588l-7.271,1.056
							c-1.764,0.256-3.201,1.468-3.753,3.164c-0.551,1.695-0.1,3.522,1.177,4.766l5.261,5.128l-1.242,7.241
							c-0.302,1.757,0.408,3.5,1.851,4.547c0.814,0.592,1.768,0.892,2.728,0.892c0.738,0,1.481-0.178,2.167-0.539l6.503-3.418
							l6.502,3.418c1.576,0.83,3.452,0.694,4.896-0.353c1.442-1.048,2.152-2.79,1.851-4.548l-1.242-7.241l5.261-5.128
							C232.543,217.355,232.994,215.529,232.443,213.833z M222.384,220.276c-1.095,1.067-1.595,2.605-1.337,4.115l1.153,6.721
							l-6.037-3.173c-1.354-0.712-2.973-0.712-4.326,0l-6.037,3.173l1.153-6.723c0.258-1.508-0.242-3.046-1.337-4.113l-4.884-4.76
							l6.75-0.981c1.514-0.22,2.821-1.17,3.5-2.543l3.018-6.115l3.019,6.117c0.678,1.371,1.985,2.321,3.5,2.542l6.749,0.98
							L222.384,220.276z"/>
					</g>
				</g>
			</g>
		</g>
		<g>
			<g>
				<g>
					<g>
						<path d="M60.443,213.833c-0.551-1.695-1.989-2.908-3.753-3.164l-7.27-1.056l-3.251-6.589
							c-0.789-1.598-2.387-2.591-4.169-2.591s-3.38,0.993-4.169,2.591l-3.251,6.588l-7.27,1.056
							c-1.764,0.256-3.202,1.468-3.753,3.164c-0.551,1.696-0.1,3.522,1.176,4.767l5.261,5.127l-1.242,7.241
							c-0.301,1.757,0.408,3.5,1.85,4.547c0.814,0.592,1.768,0.893,2.728,0.893c0.739,0,1.481-0.178,2.167-0.539L42,232.451
							l6.502,3.418c1.58,0.831,3.454,0.694,4.896-0.354c1.442-1.047,2.151-2.79,1.85-4.547l-1.242-7.241l5.261-5.127v0
							C60.543,217.355,60.994,215.529,60.443,213.833z M50.383,220.277c-1.094,1.068-1.594,2.605-1.336,4.114l1.153,6.721
							l-6.036-3.173c-1.355-0.712-2.973-0.712-4.327,0l-6.037,3.173l1.153-6.723c0.257-1.507-0.242-3.044-1.337-4.114l-4.884-4.76
							l6.75-0.981c1.514-0.221,2.822-1.171,3.499-2.543L42,205.875l3.019,6.116c0.677,1.372,1.985,2.322,3.5,2.543l6.749,0.98
							L50.383,220.277z"/>
					</g>
				</g>
			</g>
		</g>
		<g>
			<g>
				<g>
					<g>
						<path d="M103.443,213.833c-0.551-1.695-1.989-2.908-3.753-3.164l-7.27-1.056l-3.251-6.589
							c-0.789-1.598-2.387-2.591-4.169-2.591s-3.38,0.993-4.169,2.591l-3.251,6.588l-7.27,1.056
							c-1.764,0.256-3.202,1.468-3.753,3.164c-0.551,1.696-0.1,3.522,1.176,4.767l5.261,5.127l-1.242,7.241
							c-0.301,1.757,0.408,3.5,1.85,4.547c0.814,0.592,1.768,0.893,2.728,0.893c0.739,0,1.481-0.178,2.167-0.539L85,232.451
							l6.502,3.418c1.579,0.831,3.455,0.694,4.896-0.354c1.442-1.047,2.151-2.79,1.85-4.547l-1.242-7.241l5.261-5.127v0
							C103.543,217.355,103.994,215.529,103.443,213.833z M93.383,220.277c-1.094,1.068-1.594,2.605-1.336,4.114l1.153,6.721
							l-6.036-3.173c-1.355-0.712-2.973-0.712-4.327,0l-6.037,3.173l1.153-6.723c0.257-1.507-0.242-3.044-1.337-4.114l-4.884-4.76
							l6.75-0.981c1.514-0.221,2.822-1.171,3.499-2.543L85,205.875l3.019,6.116c0.677,1.372,1.985,2.322,3.5,2.543l6.749,0.98
							L93.383,220.277z"/>
					</g>
				</g>
			</g>
		</g>
		<g>
			<g>
				<path d="M102.955,172.684c0.772-1.374,0.95-3.025,0.489-4.532c-0.462-1.506-1.535-2.775-2.945-3.479l-4.07-2.036
					c-1.235-0.617-2.002-1.858-2.002-3.239v-33.709c0-1.381-1.119-2.5-2.5-2.5s-2.5,1.119-2.5,2.5v33.709
					c0,3.287,1.827,6.242,4.766,7.711l4.069,2.035c0.263,0.131,0.364,0.353,0.4,0.473c0.037,0.121,0.078,0.36-0.066,0.616
					l-4.817,8.563c-1.25,2.223-1.453,4.867-0.558,7.253l1.415,3.774c0.376,1.004,1.329,1.623,2.341,1.623
					c0.292,0,0.588-0.051,0.877-0.16c1.293-0.484,1.948-1.926,1.463-3.218l-1.415-3.775c-0.376-1.003-0.291-2.113,0.234-3.047
					L102.955,172.684z"/>
			</g>
		</g>
		<g>
			<g>
				<path d="M164.073,123.583c-1.381,0-2.5,1.119-2.5,2.5v33.314c0,1.38-0.767,2.622-2.002,3.239l-4.07,2.035
					c-1.409,0.705-2.483,1.973-2.944,3.48c-0.462,1.507-0.283,3.159,0.489,4.532l4.816,8.563c0.525,0.934,0.61,2.043,0.234,3.047
					l-1.422,3.792c-0.484,1.292,0.17,2.733,1.463,3.218c0.289,0.108,0.586,0.16,0.878,0.16c1.012,0,1.965-0.619,2.341-1.623
					l1.422-3.792c0.896-2.387,0.692-5.031-0.559-7.254l-4.816-8.563c-0.144-0.255-0.104-0.495-0.066-0.615s0.138-0.342,0.4-0.473
					l4.07-2.035c2.939-1.47,4.766-4.424,4.766-7.711v-33.314C166.573,124.703,165.454,123.583,164.073,123.583z"/>
			</g>
		</g>
		<g>
			<g>
				<path d="M157.213,120.737l-4.694-4.101c-1.003-0.876-2.281-1.311-3.62-1.22c-1.33,0.09-2.546,0.692-3.422,1.696l-13.972,15.996
					c-1.811,2.073-1.597,5.232,0.476,7.043l7.512,6.561c0.917,0.801,2.069,1.233,3.276,1.233c0.114,0,0.229-0.004,0.344-0.012
					c1.33-0.09,2.546-0.692,3.423-1.697l6.846-7.838c0.908-1.04,0.802-2.619-0.238-3.527c-1.039-0.909-2.619-0.803-3.527,0.238
					l-6.834,7.837l-7.511-6.549l13.96-15.995l4.693,4.1c1.037,0.907,2.618,0.802,3.527-0.238
					C158.359,123.225,158.253,121.646,157.213,120.737z"/>
			</g>
		</g>
		<g>
			<g>
				<path d="M124.495,133.109l-13.971-15.997c-1.812-2.072-4.972-2.286-7.043-0.475l-4.636,4.049
					c-1.04,0.908-1.146,2.487-0.238,3.527c0.907,1.04,2.486,1.146,3.527,0.238l4.625-4.05l13.972,15.984l-7.5,6.562l-6.778-7.761
					c-0.908-1.04-2.487-1.147-3.527-0.238c-1.04,0.908-1.146,2.487-0.238,3.527l6.778,7.761c0.877,1.004,2.093,1.607,3.423,1.697
					c0.115,0.008,0.229,0.011,0.343,0.011c1.207,0,2.359-0.431,3.277-1.232l7.511-6.561c1.004-0.877,1.607-2.092,1.697-3.423
					C125.806,135.399,125.373,134.113,124.495,133.109z"/>
			</g>
		</g>
		<g>
			<g>
				<path d="M136.637,150.64c-0.136-1.375-1.366-2.375-2.732-2.244c-1.374,0.135-2.379,1.358-2.244,2.732l3.742,38.122
					c0.127,1.291,1.215,2.256,2.485,2.256c0.082,0,0.164-0.004,0.247-0.012c1.374-0.135,2.379-1.358,2.244-2.732L136.637,150.64z"/>
			</g>
		</g>
		<g>
			<g>
				<path d="M122.096,148.396c-1.376-0.131-2.598,0.87-2.732,2.244l-3.742,38.122c-0.135,1.374,0.87,2.597,2.244,2.732
					c0.083,0.008,0.166,0.012,0.247,0.012c1.271,0,2.358-0.965,2.485-2.256l3.742-38.122
					C124.475,149.754,123.47,148.531,122.096,148.396z"/>
			</g>
		</g>
		<g>
			<g>
				<g>
					<path d="M138.916,140.157c-1.259-0.559-2.739,0.007-3.3,1.27l-3.093,6.958h-9.047l-3.091-6.957
						c-0.56-1.262-2.037-1.829-3.3-1.27c-1.262,0.561-1.83,2.038-1.27,3.3l3.751,8.441c0.401,0.903,1.297,1.485,2.285,1.485h12.297
						c0.988,0,1.884-0.582,2.284-1.485l3.752-8.442C140.746,142.195,140.178,140.718,138.916,140.157z"/>
				</g>
			</g>
			<g>
				<g>
					<path d="M132.188,134.331h-7.908c-1.381,0-2.5,1.119-2.5,2.5s1.119,2.5,2.5,2.5h7.908c1.381,0,2.5-1.119,2.5-2.5
						S133.569,134.331,132.188,134.331z"/>
				</g>
			</g>
		</g>
	</g>
</g>
<g id="Layer_39">
</g>
<g id="Layer_40">
</g>
<g id="Layer_41">
</g>
<g id="Layer_42">
</g>
<g id="Layer_43">
</g>
<g id="Layer_44">
</g>
<g id="Layer_45">
</g>
<g id="Layer_46">
</g>
<g id="Layer_47">
</g>
<g id="Layer_48">
</g>
<g id="Layer_49">
</g>
<g id="Layer_50">
</g>
<g id="Layer_51">
</g>
<g id="Layer_52">
</g>
<g id="Layer_53">
</g>
<g id="Layer_54">
</g>
<g id="Layer_55">
</g>
<g id="Layer_56">
</g>
<g id="Layer_57">
</g>
<g id="Layer_58">
</g>
<g id="Layer_59">
</g>
<g id="Layer_60">
</g>
<g id="Layer_61">
</g>
<g id="Layer_62">
</g>
<g id="Layer_63">
</g>
<g id="Layer_64">
</g>
<g id="Layer_65">
</g>
<g id="Layer_66">
</g>
<g id="Layer_67">
</g>
<g id="Layer_68">
</g>
<g id="Layer_69">
</g>
<g id="Layer_70">
</g>
<g id="Layer_71">
</g>
<g id="Layer_72">
</g>
<g id="Layer_73">
</g>
<g id="Layer_74">
</g>
<g id="Layer_75">
</g>
<g id="Layer_76">
</g>
<g id="Layer_77">
</g>
<g id="Layer_78">
</g>
<g id="Layer_79">
</g>
<g id="Layer_80">
</g>
</svg>
