<?xml version="1.0" encoding="utf-8"?>
<!-- Generator: Adobe Illustrator 24.0.0, SVG Export Plug-In . SVG Version: 6.00 Build 0)  -->
<svg version="1.1" xmlns="http://www.w3.org/2000/svg" xmlns:xlink="http://www.w3.org/1999/xlink" x="0px" y="0px"
	 viewBox="0 0 256 256" enable-background="new 0 0 256 256" xml:space="preserve">
<g id="Layer_1">
</g>
<g id="Layer_2">
</g>
<g id="Layer_3">
</g>
<g id="Layer_4">
</g>
<g id="Layer_5">
</g>
<g id="Layer_6">
</g>
<g id="Layer_7">
</g>
<g id="Layer_8">
</g>
<g id="Layer_9">
</g>
<g id="Layer_10">
</g>
<g id="Layer_11">
</g>
<g id="Layer_12">
</g>
<g id="Layer_13">
</g>
<g id="Layer_14">
</g>
<g id="Layer_15">
</g>
<g id="Layer_16">
</g>
<g id="Layer_17">
</g>
<g id="Layer_18">
</g>
<g id="Layer_19">
</g>
<g id="Layer_20">
</g>
<g id="Layer_21">
</g>
<g id="Layer_22">
</g>
<g id="Layer_23">
</g>
<g id="Layer_24">
</g>
<g id="Layer_25">
</g>
<g id="Layer_26">
</g>
<g id="Layer_27">
</g>
<g id="Layer_28">
</g>
<g id="Layer_29">
</g>
<g id="Layer_30">
</g>
<g id="Layer_31">
</g>
<g id="Layer_32">
</g>
<g id="Layer_33">
</g>
<g id="Layer_34">
</g>
<g id="Layer_35">
</g>
<g id="Layer_36">
</g>
<g id="Layer_37">
</g>
<g id="Layer_38">
</g>
<g id="Layer_39">
</g>
<g id="Layer_40">
</g>
<g id="Layer_41">
</g>
<g id="Layer_42">
</g>
<g id="Layer_43">
</g>
<g id="Layer_44">
</g>
<g id="Layer_45">
</g>
<g id="Layer_46">
	<g>
		<g>
			<g>
				<path fill="#F9D0B4" d="M151.902,52.4c-2.496-2.617-6.553-2.858-9.398-0.625c-4.498,3.531-12.281,7.895-23.273,7.895
					c-11.019,0-18.843-4.385-23.36-7.92c-2.842-2.224-6.892-1.975-9.383,0.637L86.474,52.4c-3.5,3.67-5.452,8.547-5.452,13.618
					v32.031c0,20.991,17.175,38.166,38.166,38.166h0c20.991,0,38.166-17.175,38.166-38.166V66.018
					C157.354,60.947,155.402,56.07,151.902,52.4z"/>
			</g>
		</g>
		<g>
			<g>
				<path fill="#F9D0B4" d="M159.804,68.962c-0.834,0-1.65,0.07-2.449,0.194v28.894c0,0.861-0.039,1.712-0.096,2.56
					c0.831,0.134,1.677,0.222,2.545,0.222c8.8,0,15.935-7.134,15.935-15.935C175.738,76.096,168.604,68.962,159.804,68.962z"/>
			</g>
		</g>
		<g>
			<g>
				<path fill="#F9D0B4" d="M81.022,98.049V69.156c-0.799-0.124-1.615-0.194-2.449-0.194c-8.8,0-15.935,7.134-15.935,15.935
					c0,8.8,7.134,15.935,15.935,15.935c0.868,0,1.715-0.088,2.545-0.222v-0.001C81.061,99.761,81.022,98.91,81.022,98.049z"/>
			</g>
		</g>
		<g>
			<g>
				<path fill="#5B5D60" d="M157.212,36.406c-1.278,0-2.386-0.986-2.404-2.264c-0.293-21.267-24.579-25.262-48.764-21.086
					c-20.505,3.541-35.492,21.323-35.492,42.131v15.957c2.358-1.378,5.093-2.182,8.021-2.182c0.834,0,1.65,0.07,2.449,0.194v-3.137
					c0-5.072,1.952-9.948,5.452-13.618l0.013-0.014c2.491-2.612,6.54-2.861,9.383-0.637c4.517,3.535,12.341,7.92,23.36,7.92
					c10.993,0,18.776-4.364,23.273-7.895c2.845-2.233,6.902-1.992,9.398,0.625c3.5,3.67,5.452,8.547,5.452,13.618v3.137
					c0.799-0.124,1.615-0.194,2.449-0.194c2.964,0,5.728,0.824,8.105,2.233V58.094C167.909,39.05,161.032,36.406,157.212,36.406z"/>
			</g>
		</g>
		<g>
			<g>
				<path fill="#DAE6F1" d="M138.148,173.358c-1.031,1.18-2.823,1.301-4.003,0.27l-8.552-7.469c-1.18-1.031-1.301-2.823-0.27-4.003
					l14.099-16.142c-1.685-2.243-2.65-5.005-2.65-7.918v-6.211c-5.271,2.759-11.251,4.331-17.583,4.331h0
					c-6.332,0-12.312-1.572-17.583-4.331v6.211c0,2.913-0.965,5.675-2.65,7.918l14.099,16.142c1.031,1.18,0.91,2.972-0.27,4.003
					l-8.552,7.469c-1.18,1.031-2.972,0.91-4.003-0.27l-7.882-9.024L106.65,253.5h25.076l14.303-89.167L138.148,173.358z"/>
			</g>
		</g>
		<g>
			<g>
				<path fill="#3A70BF" d="M90.179,150.818c-0.277-1.727-2.036-2.794-3.696-2.241l-24.956,8.319
					c-8.456,2.819-14.495,10.306-15.458,19.168l-7.476,68.759c-0.504,4.633,3.125,8.677,7.785,8.677h60.272L90.179,150.818z"/>
			</g>
		</g>
		<g>
			<g>
				<path fill="#3A70BF" d="M199.783,244.823l-7.476-68.759c-0.786-7.23-4.953-13.544-11.053-17.155
					c-1.582,0.498-3.264,0.768-5.01,0.768c-5.882,0-11.042-3.053-14.011-7.653l-10.34-3.447c-1.659-0.553-3.419,0.514-3.696,2.241
					L131.726,253.5h60.272C196.658,253.5,200.287,249.455,199.783,244.823z"/>
			</g>
		</g>
		<g>
			<g>
				<circle fill="#70D6F9" cx="176.245" cy="143" r="16.677"/>
			</g>
		</g>
		<g>
			<g>
				<circle fill="#CBEFF7" cx="221.944" cy="116.577" r="12.129"/>
			</g>
		</g>
		<g>
			<g>
				<path fill="#9BE5F9" d="M221.944,157.294c-6.698,0-12.129,5.43-12.129,12.128c0,6.698,5.43,12.129,12.129,12.129
					s12.129-5.43,12.129-12.129C234.072,162.725,228.642,157.294,221.944,157.294z"/>
			</g>
		</g>
		<g>
			<g>
				<path fill="#5290DB" d="M90.179,150.818c-0.277-1.727-2.036-2.794-3.696-2.241l-8.365,2.788v38.849
					c0,2.64,1.492,5.053,3.853,6.234l4.633,2.317c1.912,0.956,2.636,3.317,1.588,5.181l-5.484,9.749
					c-1.008,1.792-1.173,3.938-0.451,5.864L94.985,253.5h11.665L90.179,150.818z"/>
			</g>
		</g>
		<g>
			<g>
				<path fill="#5290DB" d="M151.893,148.577c-1.659-0.553-3.419,0.514-3.696,2.241L131.726,253.5h11.665l12.728-33.941
					c0.722-1.926,0.557-4.072-0.451-5.864l-5.484-9.749c-1.048-1.864-0.325-4.225,1.588-5.181l4.633-2.317
					c2.361-1.181,3.853-3.594,3.853-6.234v-38.849L151.893,148.577z"/>
			</g>
		</g>
		<g>
			<g>
				<path fill="#EDF4FC" d="M145.232,143.674c-1.18-1.031-2.972-0.91-4.003,0.271l-15.907,18.212c-1.031,1.18-0.91,2.972,0.27,4.003
					l8.552,7.469c1.18,1.031,2.972,0.91,4.003-0.27l7.882-9.024l2.168-13.516c0.21-1.311,1.276-2.237,2.503-2.367L145.232,143.674z"
					/>
			</g>
		</g>
		<g>
			<g>
				<path fill="#EDF4FC" d="M113.054,162.156l-15.907-18.212c-1.031-1.18-2.823-1.301-4.003-0.271l-5.469,4.777
					c1.227,0.13,2.293,1.056,2.503,2.367l2.168,13.516l7.882,9.024c1.031,1.18,2.823,1.301,4.003,0.27l8.552-7.469
					C113.964,165.128,114.085,163.336,113.054,162.156z"/>
			</g>
		</g>
		<g>
			<g>
				<path fill="#F9D0B4" d="M139.421,146.014c-1.685-2.243-2.65-5.005-2.65-7.918v-6.211c-5.271,2.759-11.251,4.331-17.583,4.331h0
					c-6.332,0-12.312-1.572-17.583-4.331v6.211c0,2.913-0.965,5.675-2.65,7.918l14.099,16.142c0.589,0.675,0.789,1.547,0.643,2.365
					h10.982c-0.146-0.818,0.054-1.691,0.643-2.365L139.421,146.014z"/>
			</g>
		</g>
		<g>
			<g>
				<polygon fill="#FC657E" points="126.188,180.521 112.188,180.521 105.642,247.214 106.65,253.5 131.726,253.5 132.735,247.214 
									"/>
			</g>
		</g>
		<g>
			<g>
				<path fill="#F98FA6" d="M125.593,166.159c-0.505-0.441-0.804-1.024-0.914-1.637h-10.982c-0.11,0.613-0.408,1.196-0.914,1.637
					l-5.027,4.391l4.432,9.972h14l4.432-9.972L125.593,166.159z"/>
			</g>
		</g>
		<g>
			<g>
				<path fill="#87D147" d="M236.215,206.1h-2.4v-2.3c0-1.8-1.4-3.2-3.2-3.2c-1.7,0-3.2,1.4-3.2,3.1v2.4h-2.3
					c-1.8,0-3.2,1.4-3.2,3.2c-0.1,1.7,1.3,3.2,3.2,3.2h2.3v2.3c0,1.8,1.4,3.2,3.2,3.2c1.7,0,3.2-1.4,3.2-3.1v-2.4h2.3
					c1.8,0,3.2-1.4,3.2-3.2C239.315,207.6,237.915,206.1,236.215,206.1z"/>
			</g>
		</g>
		<g>
			<g>
				<path fill="#F5C84C" d="M221.515,238.5c-1.878,0-3.4,1.522-3.4,3.4c0,1.878,1.522,3.4,3.4,3.4c1.878,0,3.4-1.522,3.4-3.4
					C224.915,240.022,223.393,238.5,221.515,238.5z"/>
			</g>
		</g>
		<g>
			<g>
				<path fill="#FC657E" d="M29.46,165.175c-3.1-0.6-5.6-3-6.2-6.1c0-0.1-0.3-0.1-0.3,0c-0.6,3.1-3.1,5.5-6.2,6.1
					c-0.1,0-0.1,0.2,0,0.3c3.1,0.6,5.6,3,6.2,6.1c0,0.1,0.3,0.1,0.3,0c0.6-3.1,3.1-5.5,6.2-6.1
					C29.56,165.375,29.56,165.175,29.46,165.175z"/>
			</g>
		</g>
		<g>
			<g>
				<path fill="#70D6F9" d="M62.678,0c-1.878,0-3.4,1.522-3.4,3.4c0,1.878,1.522,3.4,3.4,3.4c1.878,0,3.4-1.522,3.4-3.4
					C66.078,1.522,64.556,0,62.678,0z"/>
			</g>
		</g>
		<g>
			<g>
				<path fill="#F5C84C" d="M47.46,29.2c-4.5-0.8-8-4.3-8.9-8.7c0-0.2-0.4-0.2-0.4,0c-0.9,4.4-4.4,7.9-8.9,8.7c-0.2,0-0.2,0.3,0,0.4
					c4.5,0.8,8,4.3,8.9,8.7c0,0.2,0.4,0.2,0.4,0c0.9-4.4,4.4-7.9,8.9-8.7C47.66,29.5,47.66,29.2,47.46,29.2z"/>
			</g>
		</g>
		<g>
			<g>
				<g>
					<g>
						<path d="M153.712,50.675C153.711,50.675,153.711,50.675,153.712,50.675c-3.381-3.546-8.864-3.919-12.751-0.866
							c-4.278,3.358-11.521,7.361-21.73,7.361c-10.23,0-17.512-4.018-21.82-7.389c-3.882-3.039-9.356-2.659-12.745,0.895
							c-3.962,4.154-6.144,9.604-6.144,15.343v32.031c0,22.423,18.243,40.666,40.667,40.666s40.666-18.243,40.666-40.666V66.018
							C159.854,60.278,157.673,54.83,153.712,50.675z M154.854,98.049c0,19.667-16,35.666-35.667,35.666s-35.666-16-35.666-35.666
							V66.018c0-4.449,1.691-8.673,4.774-11.907c0.868-0.91,2.034-1.375,3.213-1.375c0.985,0,1.979,0.324,2.819,0.981
							c4.927,3.855,13.246,8.452,24.901,8.452c11.637,0,19.919-4.583,24.817-8.428c1.852-1.454,4.45-1.288,6.045,0.384
							c3.071,3.221,4.762,7.444,4.762,11.893V98.049z"/>
					</g>
				</g>
			</g>
		</g>
		<g>
			<g>
				<path d="M173.163,186.664c-1.381,0-2.5,1.119-2.5,2.5v63.404c0,1.381,1.119,2.5,2.5,2.5s2.5-1.119,2.5-2.5v-63.404
					C175.663,187.783,174.544,186.664,173.163,186.664z"/>
			</g>
		</g>
		<g>
			<g>
				<path d="M65.213,186.664c-1.381,0-2.5,1.119-2.5,2.5v63.404c0,1.381,1.119,2.5,2.5,2.5s2.5-1.119,2.5-2.5v-63.404
					C67.713,187.783,66.594,186.664,65.213,186.664z"/>
			</g>
		</g>
		<g>
			<g>
				<path d="M159.804,66.461c-0.485,0-0.965,0.021-1.44,0.059c-1.376,0.112-2.401,1.318-2.289,2.694
					c0.112,1.376,1.32,2.414,2.694,2.289c0.341-0.028,0.687-0.042,1.035-0.042c7.408,0,13.435,6.027,13.435,13.435
					c0,7.408-6.027,13.435-13.435,13.435c-0.406,0-0.824-0.024-1.276-0.073c-1.375-0.149-2.606,0.845-2.754,2.218
					c-0.148,1.373,0.845,2.605,2.218,2.754c0.632,0.068,1.226,0.101,1.813,0.101c10.165,0,18.435-8.27,18.435-18.435
					S169.969,66.461,159.804,66.461z"/>
			</g>
		</g>
		<g>
			<g>
				<path d="M79.605,98.283c-0.34,0.031-0.684,0.048-1.032,0.048c-7.408,0-13.435-6.027-13.435-13.435
					c0-7.408,6.027-13.435,13.435-13.435c0.394,0,0.783,0.019,1.167,0.054c1.379,0.125,2.591-0.889,2.715-2.264
					c0.125-1.375-0.889-2.591-2.264-2.715c-0.544-0.049-1.088-0.074-1.618-0.074c-10.165,0-18.435,8.27-18.435,18.435
					s8.27,18.435,18.435,18.435c0.499,0,0.992-0.024,1.479-0.068c1.375-0.124,2.39-1.338,2.267-2.714
					C82.196,99.175,80.989,98.168,79.605,98.283z"/>
			</g>
		</g>
		<g>
			<g>
				<path d="M157.304,33.906c-0.146-7.19-2.804-12.981-7.903-17.215c-8.654-7.187-24.613-9.411-43.783-6.099
					c-21.768,3.759-37.567,22.514-37.567,44.595v15.469c0,1.381,1.119,2.5,2.5,2.5s2.5-1.119,2.5-2.5V55.187
					c0-19.641,14.054-36.324,33.417-39.668c17.728-3.061,32.211-1.232,39.738,5.019c3.969,3.296,6.022,7.885,6.101,13.638
					c0.036,2.608,2.236,4.729,4.904,4.729c5.209,0,8.197,6.994,8.197,19.188v12.344c0,1.381,1.119,2.5,2.5,2.5s2.5-1.119,2.5-2.5
					V58.094C170.409,37.179,162.243,33.945,157.304,33.906z"/>
			</g>
		</g>
		<g>
			<g>
				<g>
					<path d="M141.22,144.237c-1.274-1.813-1.948-3.937-1.948-6.141v-5.721c0-1.381-1.119-2.5-2.5-2.5s-2.5,1.119-2.5,2.5v5.721
						c0,3.24,0.988,6.357,2.858,9.017c0.487,0.692,1.261,1.062,2.047,1.062c0.497,0,0.999-0.147,1.436-0.455
						C141.742,146.926,142.014,145.366,141.22,144.237z"/>
				</g>
			</g>
			<g>
				<g>
					<path d="M101.605,129.708c-1.381,0-2.5,1.119-2.5,2.5v5.888c0,2.222-0.683,4.358-1.976,6.18
						c-0.799,1.126-0.534,2.687,0.592,3.486c0.439,0.312,0.944,0.461,1.445,0.461c0.783,0,1.553-0.366,2.041-1.053
						c1.896-2.671,2.897-5.809,2.897-9.073v-5.888C104.105,130.827,102.986,129.708,101.605,129.708z"/>
				</g>
			</g>
		</g>
		<g>
			<g>
				<g>
					<g>
						<path d="M109.118,253.104L92.647,150.422c-0.248-1.549-1.16-2.904-2.501-3.718c-1.342-0.813-2.963-0.995-4.453-0.499
							l-24.956,8.318c-9.354,3.118-16.087,11.467-17.153,21.27l-7.475,68.759c-0.317,2.913,0.624,5.834,2.581,8.016
							c1.957,2.181,4.759,3.432,7.689,3.432h60.271c0.732,0,1.428-0.321,1.903-0.878
							C109.027,254.564,109.234,253.827,109.118,253.104z M46.378,251c-1.534,0-2.943-0.629-3.968-1.771s-1.498-2.611-1.332-4.136
							l7.475-68.759c0.855-7.866,6.258-14.565,13.764-17.067l24.956-8.318c0.037-0.012,0.073-0.019,0.109-0.019
							c0.059,0,0.116,0.017,0.17,0.05c0.088,0.053,0.141,0.132,0.157,0.233c0,0,0,0,0,0L103.717,251H46.378z"/>
					</g>
				</g>
			</g>
		</g>
		<g>
			<g>
				<path d="M202.269,244.553l-7.476-68.759c-0.849-7.803-5.369-14.88-12.092-18.933c-1.183-0.714-2.719-0.332-3.432,0.851
					c-0.713,1.183-0.332,2.719,0.851,3.432c5.395,3.251,9.021,8.931,9.703,15.191l7.476,68.759c0.166,1.525-0.307,2.995-1.332,4.136
					c-1.024,1.142-2.434,1.771-3.968,1.771H134.66l16.006-99.787c0.017-0.102,0.069-0.18,0.157-0.233
					c0.088-0.053,0.181-0.064,0.28-0.031l10.169,3.39c1.311,0.438,2.726-0.271,3.162-1.581c0.437-1.31-0.271-2.726-1.581-3.162
					l-10.169-3.39c-1.488-0.496-3.112-0.313-4.453,0.499c-1.342,0.813-2.254,2.168-2.502,3.717l-16.471,102.682
					c-0.116,0.723,0.091,1.46,0.565,2.018c0.475,0.558,1.17,0.878,1.903,0.878h60.271c2.93,0,5.733-1.251,7.689-3.432
					C201.645,250.387,202.585,247.466,202.269,244.553z"/>
			</g>
		</g>
		<g>
			<g>
				<g>
					<path d="M131.69,106.213c-1.059-0.887-2.635-0.748-3.522,0.31c-1.857,2.215-5.006,3.537-8.425,3.537s-6.568-1.322-8.424-3.537
						c-0.886-1.057-2.463-1.198-3.522-0.31c-1.058,0.887-1.197,2.464-0.31,3.522c2.795,3.334,7.376,5.325,12.256,5.325
						c4.879,0,9.461-1.991,12.257-5.325C132.887,108.677,132.748,107.101,131.69,106.213z"/>
				</g>
			</g>
			<g>
				<g>
					<path d="M136.962,81.53c-2.832,0-5.128,2.296-5.128,5.128c0,2.832,2.296,5.128,5.128,5.128c2.832,0,5.128-2.296,5.128-5.128
						C142.09,83.826,139.794,81.53,136.962,81.53z"/>
				</g>
			</g>
			<g>
				<g>
					<path d="M102.525,81.53c-2.832,0-5.128,2.296-5.128,5.128c0,2.832,2.296,5.128,5.128,5.128c2.832,0,5.128-2.296,5.128-5.128
						C107.652,83.826,105.357,81.53,102.525,81.53z"/>
				</g>
			</g>
		</g>
		<g>
			<g>
				<g>
					<g>
						<path d="M176.245,123.823c-10.574,0-19.177,8.603-19.177,19.177s8.603,19.177,19.177,19.177s19.177-8.603,19.177-19.177
							S186.819,123.823,176.245,123.823z M176.245,157.177c-7.817,0-14.177-6.36-14.177-14.177s6.36-14.177,14.177-14.177
							c7.817,0,14.177,6.36,14.177,14.177S184.062,157.177,176.245,157.177z"/>
					</g>
				</g>
			</g>
		</g>
		<g>
			<g>
				<g>
					<g>
						<path d="M221.944,101.948c-8.066,0-14.629,6.563-14.629,14.629c0,8.066,6.563,14.628,14.629,14.628
							c8.066,0,14.628-6.563,14.628-14.628C236.572,108.511,230.01,101.948,221.944,101.948z M221.944,126.206
							c-5.31,0-9.629-4.319-9.629-9.628c0-5.31,4.319-9.629,9.629-9.629c5.309,0,9.628,4.319,9.628,9.629
							C231.572,121.886,227.253,126.206,221.944,126.206z"/>
					</g>
				</g>
			</g>
		</g>
		<g>
			<g>
				<g>
					<g>
						<path d="M221.944,154.794c-8.066,0-14.629,6.563-14.629,14.628c0,8.066,6.563,14.629,14.629,14.629
							c8.066,0,14.628-6.563,14.628-14.629C236.572,161.357,230.01,154.794,221.944,154.794z M221.944,179.052
							c-5.31,0-9.629-4.319-9.629-9.629c0-5.309,4.319-9.628,9.629-9.628c5.309,0,9.628,4.319,9.628,9.628
							C231.572,174.732,227.253,179.052,221.944,179.052z"/>
					</g>
				</g>
			</g>
		</g>
		<g>
			<g>
				<path d="M212.009,160.821l-19.7-11.336c-1.197-0.688-2.725-0.276-3.414,0.92c-0.688,1.197-0.277,2.725,0.92,3.414l19.7,11.336
					c0.393,0.226,0.822,0.333,1.245,0.333c0.865,0,1.707-0.45,2.169-1.253C213.618,163.039,213.206,161.51,212.009,160.821z"/>
			</g>
		</g>
		<g>
			<g>
				<path d="M213.04,121.701c-0.689-1.197-2.216-1.608-3.414-0.92l-19.873,11.436c-1.197,0.689-1.608,2.217-0.92,3.414
					c0.463,0.804,1.304,1.253,2.169,1.253c0.423,0,0.852-0.107,1.245-0.333l19.873-11.436
					C213.316,124.426,213.728,122.898,213.04,121.701z"/>
			</g>
		</g>
		<g>
			<g>
				<path d="M97.097,252.011l-12.499-33.331c-0.464-1.238-0.359-2.608,0.289-3.761l5.484-9.749c0.833-1.482,1.026-3.264,0.528-4.889
					s-1.656-2.994-3.176-3.753l-4.633-2.317c-1.524-0.762-2.471-2.294-2.471-3.998v-38.151c0-1.381-1.119-2.5-2.5-2.5
					s-2.5,1.119-2.5,2.5v38.151c0,3.61,2.006,6.855,5.234,8.47l4.634,2.317c0.414,0.207,0.574,0.557,0.632,0.747
					s0.122,0.568-0.105,0.972l-5.484,9.749c-1.374,2.441-1.597,5.345-0.613,7.968l12.499,33.331
					c0.376,1.003,1.329,1.623,2.341,1.623c0.292,0,0.588-0.051,0.877-0.16C96.926,254.745,97.582,253.304,97.097,252.011z"/>
			</g>
		</g>
		<g>
			<g>
				<path d="M160.259,149.688c-1.381,0-2.5,1.119-2.5,2.5v38.026c0,1.704-0.947,3.236-2.471,3.998l-4.633,2.316
					c-1.521,0.76-2.679,2.128-3.177,3.754s-0.306,3.407,0.528,4.889l5.484,9.749c0.648,1.152,0.753,2.523,0.289,3.761
					l-12.494,33.317c-0.485,1.293,0.17,2.734,1.463,3.219c0.29,0.108,0.586,0.16,0.877,0.16c1.012,0,1.965-0.619,2.341-1.623
					l12.494-33.317c0.983-2.623,0.76-5.527-0.613-7.968l-5.484-9.75c-0.227-0.403-0.163-0.782-0.105-0.972s0.218-0.54,0.632-0.747
					l4.633-2.317c3.229-1.614,5.235-4.86,5.235-8.47v-38.026C162.759,150.807,161.64,149.688,160.259,149.688z"/>
			</g>
		</g>
		<g>
			<g>
				<g>
					<g>
						<path d="M152.345,146.567l-5.469-4.776c-1.073-0.938-2.443-1.397-3.871-1.305c-1.422,0.096-2.722,0.74-3.66,1.814
							l-15.907,18.211c-1.936,2.216-1.708,5.595,0.509,7.53l8.552,7.469c1.01,0.882,2.261,1.315,3.508,1.315
							c1.488,0,2.969-0.617,4.022-1.823v0l7.882-9.024c0.309-0.353,0.511-0.786,0.585-1.249l2.168-13.516
							c0.032-0.197,0.203-0.268,0.299-0.278c0.988-0.105,1.82-0.785,2.12-1.733C153.384,148.256,153.094,147.221,152.345,146.567z
							 M145.729,150.422l-2.055,12.807l-7.41,8.484c-0.076,0.086-0.167,0.11-0.231,0.114c-0.089,0.005-0.174-0.022-0.244-0.083
							l-8.552-7.469c-0.14-0.123-0.154-0.335-0.032-0.476l15.907-18.211c0.076-0.087,0.167-0.11,0.231-0.115
							c0.009,0,0.017,0,0.025,0c0.082,0,0.155,0.028,0.219,0.083l3.04,2.655C146.174,148.857,145.86,149.608,145.729,150.422z"/>
					</g>
				</g>
			</g>
		</g>
		<g>
			<g>
				<path d="M114.937,160.511L99.03,142.3c-0.938-1.074-2.237-1.718-3.66-1.814c-1.427-0.097-2.797,0.367-3.87,1.305l-5.224,4.562
					c-1.04,0.908-1.146,2.487-0.238,3.527c0.908,1.039,2.487,1.146,3.527,0.238l5.224-4.562c0.069-0.061,0.147-0.086,0.244-0.083
					c0.063,0.004,0.155,0.028,0.231,0.115l15.907,18.211c0.122,0.14,0.108,0.353-0.032,0.476l-8.553,7.469
					c-0.069,0.061-0.157,0.086-0.244,0.083c-0.063-0.004-0.155-0.028-0.231-0.114l-7.717-8.836
					c-0.908-1.041-2.488-1.148-3.527-0.238c-1.04,0.908-1.146,2.487-0.238,3.527l7.717,8.836c1.054,1.206,2.535,1.823,4.022,1.823
					c1.246,0,2.498-0.433,3.507-1.315l8.552-7.469c1.074-0.938,1.718-2.237,1.814-3.66
					C116.338,162.959,115.875,161.585,114.937,160.511z"/>
			</g>
		</g>
		<g>
			<g>
				<path d="M128.676,180.277c-0.136-1.374-1.357-2.376-2.732-2.244c-1.374,0.135-2.379,1.358-2.244,2.732l6.536,66.581
					c0.126,1.291,1.214,2.256,2.485,2.256c0.082,0,0.164-0.004,0.247-0.012c1.374-0.135,2.379-1.358,2.244-2.732L128.676,180.277z"
					/>
			</g>
		</g>
		<g>
			<g>
				<path d="M131.727,251H106.65c-1.381,0-2.5,1.119-2.5,2.5s1.119,2.5,2.5,2.5h25.077c1.381,0,2.5-1.119,2.5-2.5
					S133.107,251,131.727,251z"/>
			</g>
		</g>
		<g>
			<g>
				<path d="M112.432,178.033c-1.376-0.133-2.598,0.87-2.732,2.244l-6.527,66.494c-0.135,1.374,0.87,2.597,2.244,2.732
					c0.083,0.008,0.166,0.012,0.247,0.012c1.271,0,2.358-0.965,2.485-2.256l6.527-66.494
					C114.811,179.392,113.806,178.168,112.432,178.033z"/>
			</g>
		</g>
		<g>
			<g>
				<g>
					<path d="M124.031,162.021h-9.718c-1.381,0-2.5,1.119-2.5,2.5s1.119,2.5,2.5,2.5h9.718c1.381,0,2.5-1.119,2.5-2.5
						S125.412,162.021,124.031,162.021z"/>
				</g>
			</g>
			<g>
				<g>
					<path d="M131.438,168.709c-1.261-0.561-2.74,0.007-3.3,1.269l-3.575,8.043h-10.751l-3.639-8.188
						c-0.56-1.262-2.037-1.83-3.3-1.27c-1.262,0.561-1.83,2.038-1.27,3.3l4.299,9.673c0.401,0.903,1.297,1.485,2.285,1.485h14
						c0.988,0,1.883-0.582,2.285-1.484l4.235-9.528C133.268,170.748,132.7,169.27,131.438,168.709z"/>
				</g>
			</g>
		</g>
	</g>
</g>
<g id="Layer_47">
</g>
<g id="Layer_48">
</g>
<g id="Layer_49">
</g>
<g id="Layer_50">
</g>
<g id="Layer_51">
</g>
<g id="Layer_52">
</g>
<g id="Layer_53">
</g>
<g id="Layer_54">
</g>
<g id="Layer_55">
</g>
<g id="Layer_56">
</g>
<g id="Layer_57">
</g>
<g id="Layer_58">
</g>
<g id="Layer_59">
</g>
<g id="Layer_60">
</g>
<g id="Layer_61">
</g>
<g id="Layer_62">
</g>
<g id="Layer_63">
</g>
<g id="Layer_64">
</g>
<g id="Layer_65">
</g>
<g id="Layer_66">
</g>
<g id="Layer_67">
</g>
<g id="Layer_68">
</g>
<g id="Layer_69">
</g>
<g id="Layer_70">
</g>
<g id="Layer_71">
</g>
<g id="Layer_72">
</g>
<g id="Layer_73">
</g>
<g id="Layer_74">
</g>
<g id="Layer_75">
</g>
<g id="Layer_76">
</g>
<g id="Layer_77">
</g>
<g id="Layer_78">
</g>
<g id="Layer_79">
</g>
<g id="Layer_80">
</g>
</svg>
