<?xml version="1.0" encoding="utf-8"?>
<!-- Generator: Adobe Illustrator 24.0.0, SVG Export Plug-In . SVG Version: 6.00 Build 0)  -->
<svg version="1.1" xmlns="http://www.w3.org/2000/svg" xmlns:xlink="http://www.w3.org/1999/xlink" x="0px" y="0px"
	 viewBox="0 0 256 256" enable-background="new 0 0 256 256" xml:space="preserve">
<g id="Layer_1">
</g>
<g id="Layer_2">
</g>
<g id="Layer_3">
</g>
<g id="Layer_4">
</g>
<g id="Layer_5">
</g>
<g id="Layer_6">
</g>
<g id="Layer_7">
</g>
<g id="Layer_8">
</g>
<g id="Layer_9">
</g>
<g id="Layer_10">
</g>
<g id="Layer_11">
</g>
<g id="Layer_12">
</g>
<g id="Layer_13">
</g>
<g id="Layer_14">
</g>
<g id="Layer_15">
</g>
<g id="Layer_16">
</g>
<g id="Layer_17">
</g>
<g id="Layer_18">
</g>
<g id="Layer_19">
	<g>
		<g>
			<g>
				
					<ellipse transform="matrix(0.9239 -0.3827 0.3827 0.9239 -53.5369 102.143)" fill="#5290DB" cx="229.986" cy="185.646" rx="23.514" ry="23.514"/>
			</g>
		</g>
		<g>
			<g>
				<circle fill="#5290DB" cx="94.842" cy="21.999" r="19.499"/>
			</g>
		</g>
		<g>
			<g>
				<circle fill="#5290DB" cx="113.842" cy="232.228" r="21.272"/>
			</g>
		</g>
		<g>
			<g>
				<circle fill="#5290DB" cx="207.857" cy="43.457" r="28.702"/>
			</g>
		</g>
		<g>
			<g>
				<circle fill="#5290DB" cx="31.202" cy="127.457" r="28.702"/>
			</g>
		</g>
		<g>
			<g>
				<circle fill="#F5C84C" cx="137" cy="129" r="57.5"/>
			</g>
		</g>
		<g>
			<g>
				<path fill="#FC657E" d="M234.869,191.345c-1.474-0.268-2.992-0.409-4.543-0.409c-1.551,0-3.069,0.14-4.543,0.409
					c-5.974,1.088-10.544,5.748-11.739,11.582c4.191,3.868,9.789,6.233,15.941,6.233c6.427,0,12.249-2.581,16.493-6.759
					C245.124,196.815,240.662,192.4,234.869,191.345z"/>
			</g>
		</g>
		<g>
			<g>
				<path fill="#F9D0B4" d="M229.986,173.093c-4.893,0-8.86,3.967-8.86,8.86s3.967,8.86,8.86,8.86c4.894,0,8.861-3.967,8.861-8.86
					S234.879,173.093,229.986,173.093z"/>
			</g>
		</g>
		<g>
			<g>
				<path fill="#F5C84C" d="M98.892,26.725c-1.222-0.223-2.481-0.339-3.767-0.339c-1.286,0-2.545,0.116-3.767,0.339
					c-4.954,0.902-8.743,4.766-9.734,9.605c3.475,3.207,8.117,5.168,13.219,5.168c5.329,0,10.157-2.14,13.676-5.605
					C107.395,31.261,103.695,27.6,98.892,26.725z"/>
			</g>
		</g>
		<g>
			<g>
				
					<ellipse transform="matrix(0.7071 -0.7071 0.7071 0.7071 14.3878 72.61)" fill="#F9D0B4" cx="94.842" cy="18.937" rx="7.347" ry="7.347"/>
			</g>
		</g>
		<g>
			<g>
				<path fill="#B2E26D" d="M118.26,237.384c-1.333-0.243-2.706-0.37-4.11-0.37c-1.403,0-2.777,0.127-4.11,0.37
					c-5.404,0.985-9.538,5.2-10.619,10.478c3.791,3.499,8.855,5.638,14.42,5.638c5.814,0,11.08-2.335,14.92-6.115
					C127.536,242.333,123.5,238.339,118.26,237.384z"/>
			</g>
		</g>
		<g>
			<g>
				<circle fill="#F9D0B4" cx="113.842" cy="228.889" r="8.015"/>
			</g>
		</g>
		<g>
			<g>
				<path fill="#70D6F9" d="M213.819,50.413c-1.799-0.328-3.652-0.499-5.545-0.499s-3.747,0.171-5.545,0.499
					c-7.292,1.328-12.87,7.016-14.328,14.138c5.115,4.721,11.948,7.608,19.458,7.608c7.844,0,14.951-3.15,20.132-8.25
					C226.335,57.091,220.889,51.701,213.819,50.413z"/>
			</g>
		</g>
		<g>
			<g>
				<circle fill="#F9D0B4" cx="207.857" cy="38.951" r="10.815"/>
			</g>
		</g>
		<g>
			<g>
				<path fill="#B598F9" d="M37.164,134.413c-1.799-0.328-3.652-0.499-5.545-0.499s-3.747,0.171-5.545,0.499
					c-7.292,1.328-12.87,7.016-14.328,14.138c5.115,4.721,11.948,7.608,19.458,7.608c7.844,0,14.951-3.15,20.132-8.25
					C49.68,141.091,44.234,135.701,37.164,134.413z"/>
			</g>
		</g>
		<g>
			<g>
				
					<ellipse transform="matrix(0.7071 -0.7071 0.7071 0.7071 -77.8003 58.0747)" fill="#F9D0B4" cx="31.202" cy="122.951" rx="10.815" ry="10.815"/>
			</g>
		</g>
		<g>
			<g>
				<path fill="#70D6F9" d="M172.698,166.342l-11.339-2.854c-6.01-1.513-10.736-4.105-10.675-4.074
					c-2.471-1.218-4.036-3.734-4.036-6.489v-3.408c-2.892,1.514-6.174,2.376-9.649,2.376s-6.756-0.862-9.649-2.376v3.408
					c0,2.755-1.565,5.271-4.036,6.489c-3.339,1.646-6.253,2.961-10.675,4.074l-11.339,2.854c-2.037,0.513-3.724,1.773-4.835,3.436
					C106.862,180.112,121.184,186.5,137,186.5s30.138-6.388,40.533-16.722C176.422,168.115,174.735,166.855,172.698,166.342z"/>
			</g>
		</g>
		<g>
			<g>
				<path fill="#F9D0B4" d="M154.952,105.899c-1.369-1.436-3.596-1.568-5.157-0.343c-2.468,1.937-6.739,4.332-12.771,4.332
					c-6.047,0-10.34-2.406-12.819-4.346c-1.56-1.221-3.782-1.084-5.149,0.35l-0.007,0.008c-1.921,2.014-2.992,4.69-2.992,7.473
					v17.577c0,11.519,9.425,20.944,20.944,20.944c11.519,0,20.944-9.425,20.944-20.944v-17.577
					C157.944,110.589,156.872,107.913,154.952,105.899z"/>
			</g>
		</g>
		<g>
			<g>
				<path fill="#F9D0B4" d="M159.288,114.987c-0.458,0-0.906,0.039-1.344,0.107v15.855c0,0.472-0.021,0.94-0.053,1.405
					c0.456,0.073,0.92,0.122,1.397,0.122c4.829,0,8.744-3.915,8.744-8.744S164.117,114.987,159.288,114.987z"/>
			</g>
		</g>
		<g>
			<g>
				<path fill="#F9D0B4" d="M116.056,130.949v-15.855c-0.438-0.068-0.886-0.107-1.344-0.107c-4.829,0-8.744,3.915-8.744,8.744
					s3.915,8.744,8.744,8.744c0.477,0,0.941-0.049,1.397-0.122v0C116.078,131.889,116.056,131.421,116.056,130.949z"/>
			</g>
		</g>
		<g>
			<g>
				<path fill="#5B5D60" d="M157.865,97.122c-0.701,0-1.309-0.541-1.319-1.242c-0.161-11.67-13.487-13.863-26.759-11.571
					c-11.252,1.943-19.476,11.701-19.476,23.119v8.756c1.294-0.756,2.795-1.197,4.402-1.197c0.458,0,0.906,0.039,1.344,0.107v-1.722
					c0-2.783,1.071-5.459,2.992-7.473l0.007-0.008c1.367-1.433,3.589-1.57,5.149-0.35c2.479,1.94,6.772,4.346,12.819,4.346
					c6.032,0,10.303-2.395,12.771-4.332c1.561-1.225,3.788-1.093,5.157,0.343c1.921,2.014,2.992,4.69,2.992,7.473v1.722
					c0.438-0.068,0.886-0.107,1.344-0.107c1.626,0,3.144,0.452,4.448,1.225v-7.189C163.735,98.574,159.962,97.122,157.865,97.122z"
					/>
			</g>
		</g>
		<g>
			<g>
				<path fill="#9BE5F9" d="M150.684,159.414c-0.495-0.244-0.942-0.552-1.358-0.892l-8.403,9.621
					c-0.659,0.755-0.582,1.901,0.173,2.56l5.469,4.777c0.755,0.659,1.901,0.582,2.56-0.173l10.691-12.24
					C154.562,161.54,150.628,159.386,150.684,159.414z"/>
			</g>
		</g>
		<g>
			<g>
				<path fill="#9BE5F9" d="M133.077,168.143l-8.403-9.621c-0.417,0.34-0.864,0.648-1.358,0.892
					c-2.932,1.446-5.539,2.636-9.126,3.659l10.686,12.234c0.659,0.755,1.805,0.832,2.56,0.173l5.469-4.777
					C133.659,170.044,133.736,168.898,133.077,168.143z"/>
			</g>
		</g>
		<g>
			<g>
				<path fill="#F9D0B4" d="M146.649,152.925v-3.409c-2.892,1.514-6.174,2.376-9.649,2.376s-6.756-0.862-9.649-2.376v3.409
					c0,2.203-1.012,4.241-2.677,5.597l8.403,9.621c0.251,0.287,0.393,0.631,0.434,0.982h6.977c0.041-0.352,0.184-0.695,0.434-0.982
					l8.403-9.621C147.661,157.166,146.649,155.128,146.649,152.925z"/>
			</g>
		</g>
		<g>
			<g>
				<g>
					<g>
						<path d="M229.985,159.631c-14.344,0-26.014,11.67-26.014,26.015c0,14.344,11.67,26.014,26.014,26.014
							c14.345,0,26.015-11.67,26.015-26.014C256,171.301,244.33,159.631,229.985,159.631z M229.985,206.66
							c-11.587,0-21.014-9.427-21.014-21.014s9.427-21.015,21.014-21.015c11.588,0,21.015,9.427,21.015,21.015
							S241.573,206.66,229.985,206.66z"/>
					</g>
				</g>
			</g>
		</g>
		<g>
			<g>
				<g>
					<g>
						<path d="M94.842,0c-12.13,0-21.999,9.869-21.999,21.999c0,12.13,9.869,21.999,21.999,21.999s21.999-9.869,21.999-21.999
							C116.841,9.869,106.972,0,94.842,0z M94.842,38.998c-9.373,0-16.999-7.625-16.999-16.999S85.469,5,94.842,5
							s16.999,7.626,16.999,16.999S104.215,38.998,94.842,38.998z"/>
					</g>
				</g>
			</g>
		</g>
		<g>
			<g>
				<g>
					<g>
						<path d="M113.842,208.457c-13.107,0-23.771,10.664-23.771,23.771S100.734,256,113.842,256s23.771-10.664,23.771-23.771
							S126.949,208.457,113.842,208.457z M113.842,251c-10.351,0-18.771-8.421-18.771-18.771s8.421-18.771,18.771-18.771
							s18.771,8.421,18.771,18.771S124.192,251,113.842,251z"/>
					</g>
				</g>
			</g>
		</g>
		<g>
			<g>
				<g>
					<g>
						<path d="M207.857,12.255c-17.205,0-31.202,13.997-31.202,31.202s13.997,31.202,31.202,31.202s31.202-13.997,31.202-31.202
							S225.063,12.255,207.857,12.255z M207.857,69.659c-14.448,0-26.202-11.754-26.202-26.202s11.754-26.202,26.202-26.202
							s26.202,11.754,26.202,26.202S222.306,69.659,207.857,69.659z"/>
					</g>
				</g>
			</g>
		</g>
		<g>
			<g>
				<g>
					<g>
						<path d="M31.202,96.255C13.997,96.255,0,110.252,0,127.457s13.997,31.202,31.202,31.202s31.202-13.997,31.202-31.202
							S48.407,96.255,31.202,96.255z M31.202,153.659C16.754,153.659,5,141.905,5,127.457s11.754-26.202,26.202-26.202
							s26.202,11.754,26.202,26.202S45.65,153.659,31.202,153.659z"/>
					</g>
				</g>
			</g>
		</g>
		<g>
			<g>
				<path fill="#70D6F9" d="M211.906,229.1h-2.4v-2.3c0-1.8-1.4-3.2-3.2-3.2c-1.7,0-3.2,1.4-3.2,3.1v2.4h-2.3
					c-1.8,0-3.2,1.4-3.2,3.2c-0.1,1.7,1.3,3.2,3.2,3.2h2.3v2.3c0,1.8,1.4,3.2,3.2,3.2c1.7,0,3.2-1.4,3.2-3.1v-2.4h2.3
					c1.8,0,3.2-1.4,3.2-3.2C215.006,230.6,213.606,229.1,211.906,229.1z"/>
			</g>
		</g>
		<g>
			<g>
				<circle fill="#F5C84C" cx="171.206" cy="252.6" r="3.4"/>
			</g>
		</g>
		<g>
			<g>
				<path fill="#FC657E" d="M55.15,207.175c-3.1-0.6-5.6-3-6.2-6.1c0-0.1-0.3-0.1-0.3,0c-0.6,3.1-3.1,5.5-6.2,6.1
					c-0.1,0-0.1,0.2,0,0.3c3.1,0.6,5.6,3,6.2,6.1c0,0.1,0.3,0.1,0.3,0c0.6-3.1,3.1-5.5,6.2-6.1
					C55.25,207.375,55.25,207.175,55.15,207.175z"/>
			</g>
		</g>
		<g>
			<g>
				<path fill="#87D147" d="M60.369,0c-1.878,0-3.4,1.522-3.4,3.4c0,1.878,1.522,3.4,3.4,3.4c1.878,0,3.4-1.522,3.4-3.4
					C63.769,1.522,62.246,0,60.369,0z"/>
			</g>
		</g>
		<g>
			<g>
				<path fill="#F5C84C" d="M44.15,32.2c-4.5-0.8-8-4.3-8.9-8.7c0-0.2-0.4-0.2-0.4,0c-0.9,4.4-4.4,7.9-8.9,8.7c-0.2,0-0.2,0.3,0,0.4
					c4.5,0.8,8,4.3,8.9,8.7c0,0.2,0.4,0.2,0.4,0c0.9-4.4,4.4-7.9,8.9-8.7C44.35,32.5,44.35,32.2,44.15,32.2z"/>
			</g>
		</g>
		<g>
			<g>
				<g>
					<g>
						<path d="M137,69c-33.084,0-60,26.916-60,60s26.916,60,60,60s60-26.916,60-60S170.084,69,137,69z M137,184
							c-30.327,0-55-24.673-55-55s24.673-55,55-55s55,24.673,55,55S167.327,184,137,184z"/>
					</g>
				</g>
			</g>
		</g>
		<g>
			<g>
				<path d="M248.718,201.093c-1.831-6.358-6.966-11.036-13.4-12.208c-3.271-0.596-6.711-0.596-9.982,0
					c-6.722,1.225-12.076,6.361-13.64,13.086c-0.313,1.345,0.523,2.688,1.868,3.001c0.19,0.044,0.381,0.065,0.568,0.065
					c1.137,0,2.165-0.78,2.433-1.934c1.112-4.783,4.907-8.433,9.667-9.3c2.682-0.488,5.508-0.488,8.189,0
					c4.553,0.83,8.19,4.153,9.492,8.673c0.382,1.326,1.765,2.093,3.095,1.71C248.334,203.805,249.1,202.42,248.718,201.093z"/>
			</g>
		</g>
		<g>
			<g>
				<g>
					<g>
						<path d="M229.985,170.593c-6.264,0-11.36,5.097-11.36,11.361s5.097,11.36,11.36,11.36s11.36-5.096,11.36-11.36
							S236.249,170.593,229.985,170.593z M229.985,188.314c-3.507,0-6.36-2.853-6.36-6.36s2.854-6.361,6.36-6.361
							s6.36,2.854,6.36,6.361S233.492,188.314,229.985,188.314z"/>
					</g>
				</g>
			</g>
		</g>
		<g>
			<g>
				<path d="M110.774,34.656c-1.57-5.41-5.952-9.392-11.435-10.391c-2.76-0.503-5.667-0.503-8.431,0
					c-5.673,1.033-10.23,5.357-11.612,11.016c-0.327,1.341,0.494,2.694,1.836,3.021c0.199,0.049,0.398,0.072,0.595,0.072
					c1.126,0,2.147-0.766,2.427-1.908c0.914-3.744,3.917-6.603,7.651-7.283c2.173-0.396,4.467-0.396,6.638,0
					c3.605,0.657,6.49,3.288,7.53,6.866c0.385,1.326,1.771,2.089,3.098,1.704S111.16,35.982,110.774,34.656z"/>
			</g>
		</g>
		<g>
			<g>
				<g>
					<g>
						<path d="M94.842,9.09c-5.43,0-9.848,4.417-9.848,9.848c0,5.43,4.418,9.847,9.848,9.847s9.848-4.417,9.848-9.847
							C104.689,13.507,100.271,9.09,94.842,9.09z M94.842,23.785c-2.673,0-4.848-2.174-4.848-4.847s2.175-4.848,4.848-4.848
							s4.848,2.175,4.848,4.848S97.515,23.785,94.842,23.785z"/>
					</g>
				</g>
			</g>
		</g>
		<g>
			<g>
				<path d="M131.08,246.364c-1.598-5.871-6.454-10.362-12.372-11.44c-2.991-0.544-6.127-0.544-9.116,0
					c-6.129,1.117-11.037,5.794-12.504,11.916c-0.321,1.343,0.507,2.692,1.85,3.014c0.195,0.047,0.392,0.069,0.584,0.069
					c1.13,0,2.154-0.771,2.43-1.918c1.005-4.196,4.355-7.4,8.537-8.162c2.397-0.436,4.924-0.437,7.323,0
					c4.034,0.735,7.349,3.81,8.444,7.834c0.362,1.333,1.741,2.118,3.068,1.755C130.657,249.071,131.442,247.697,131.08,246.364z"/>
			</g>
		</g>
		<g>
			<g>
				<g>
					<g>
						<path d="M113.842,218.374c-5.799,0-10.516,4.717-10.516,10.515c0,5.798,4.717,10.516,10.516,10.516
							s10.516-4.717,10.516-10.516C124.357,223.091,119.641,218.374,113.842,218.374z M113.842,234.404
							c-3.041,0-5.516-2.474-5.516-5.516c0-3.041,2.475-5.515,5.516-5.515s5.516,2.474,5.516,5.515
							C119.357,231.93,116.883,234.404,113.842,234.404z"/>
					</g>
				</g>
			</g>
		</g>
		<g>
			<g>
				<path d="M230.148,62.316c-2.214-7.477-8.299-12.98-15.882-14.362c-3.927-0.716-8.063-0.716-11.987,0
					c-7.92,1.443-14.269,7.487-16.174,15.397c-0.323,1.342,0.503,2.693,1.846,3.016c0.196,0.047,0.394,0.07,0.587,0.07
					c1.129,0,2.152-0.77,2.429-1.915c1.442-5.988,6.234-10.561,12.209-11.649c3.335-0.607,6.857-0.608,10.194,0
					c5.717,1.042,10.309,5.204,11.983,10.862c0.393,1.324,1.781,2.079,3.107,1.688C229.784,65.031,230.54,63.64,230.148,62.316z"/>
			</g>
		</g>
		<g>
			<g>
				<g>
					<g>
						<path d="M207.857,25.635c-7.342,0-13.315,5.973-13.315,13.315s5.974,13.315,13.315,13.315s13.315-5.973,13.315-13.315
							S215.199,25.635,207.857,25.635z M207.857,47.266c-4.585,0-8.315-3.73-8.315-8.315s3.73-8.315,8.315-8.315
							s8.315,3.73,8.315,8.315S212.442,47.266,207.857,47.266z"/>
					</g>
				</g>
			</g>
		</g>
		<g>
			<g>
				<path d="M53.633,146.81c-2.055-7.626-8.344-13.458-16.021-14.856c-3.922-0.715-8.06-0.716-11.987,0
					c-8.046,1.465-14.421,7.623-16.242,15.688c-0.305,1.347,0.541,2.685,1.888,2.989c0.186,0.042,0.371,0.062,0.553,0.062
					c1.143,0,2.175-0.789,2.437-1.95c1.379-6.105,6.191-10.765,12.262-11.87c3.337-0.609,6.86-0.608,10.193,0
					c5.79,1.054,10.535,5.465,12.09,11.238c0.359,1.333,1.734,2.12,3.064,1.764C53.202,149.515,53.992,148.144,53.633,146.81z"/>
			</g>
		</g>
		<g>
			<g>
				<g>
					<g>
						<path d="M31.202,109.635c-7.342,0-13.315,5.973-13.315,13.315s5.974,13.315,13.315,13.315s13.315-5.973,13.315-13.315
							S38.544,109.635,31.202,109.635z M31.202,131.266c-4.585,0-8.315-3.73-8.315-8.315s3.73-8.315,8.315-8.315
							s8.315,3.73,8.315,8.315S35.787,131.266,31.202,131.266z"/>
					</g>
				</g>
			</g>
		</g>
		<g>
			<g>
				<path d="M85.348,37.044c-1.188-0.699-2.722-0.305-3.423,0.886l-37.378,63.484c-0.7,1.19-0.304,2.722,0.886,3.423
					c0.398,0.234,0.835,0.346,1.267,0.346c0.856,0,1.69-0.44,2.156-1.232l37.378-63.484C86.934,39.277,86.537,37.745,85.348,37.044z
					"/>
			</g>
		</g>
		<g>
			<g>
				<path d="M101.562,213.92l-50.591-64.609c-0.851-1.086-2.424-1.278-3.51-0.427c-1.087,0.851-1.278,2.422-0.428,3.51
					l50.591,64.609c0.493,0.629,1.229,0.958,1.971,0.958c0.539,0,1.082-0.173,1.539-0.532
					C102.221,216.579,102.412,215.007,101.562,213.92z"/>
			</g>
		</g>
		<g>
			<g>
				<path d="M210.225,194.89c-0.528-1.275-1.99-1.884-3.266-1.354l-72.802,30.125c-1.275,0.528-1.882,1.99-1.354,3.266
					c0.398,0.963,1.329,1.544,2.311,1.544c0.318,0,0.643-0.061,0.955-0.19l72.802-30.125
					C210.146,197.628,210.753,196.166,210.225,194.89z"/>
			</g>
		</g>
		<g>
			<g>
				<path d="M229.088,161.234l-13.869-88.889c-0.213-1.364-1.485-2.298-2.855-2.085c-1.364,0.213-2.297,1.491-2.084,2.855
					l13.869,88.889c0.192,1.234,1.256,2.115,2.467,2.115c0.128,0,0.258-0.01,0.389-0.03
					C228.368,163.877,229.301,162.599,229.088,161.234z"/>
			</g>
		</g>
		<g>
			<g>
				<path d="M179.082,36.752l-63.303-13.327c-1.346-0.285-2.677,0.58-2.961,1.931c-0.284,1.351,0.58,2.677,1.932,2.961
					l63.303,13.327c0.173,0.037,0.347,0.054,0.518,0.054c1.156,0,2.195-0.808,2.443-1.985
					C181.298,38.362,180.434,37.036,179.082,36.752z"/>
			</g>
		</g>
		<g>
			<g>
				<path d="M78.609,125.889l-17.646-0.333c-1.394-0.033-2.521,1.072-2.547,2.452c-0.025,1.381,1.072,2.521,2.453,2.547
					l17.646,0.333c0.016,0,0.032,0,0.048,0c1.358,0,2.473-1.088,2.499-2.453C81.088,127.055,79.99,125.915,78.609,125.889z"/>
			</g>
		</g>
		<g>
			<g>
				<path d="M118.441,73.381l-13.037-33.653c-0.499-1.286-1.945-1.929-3.234-1.428c-1.287,0.499-1.927,1.947-1.428,3.234
					l13.037,33.653c0.384,0.99,1.329,1.597,2.332,1.597c0.3,0,0.605-0.054,0.902-0.169C118.301,76.117,118.94,74.668,118.441,73.381
					z"/>
			</g>
		</g>
		<g>
			<g>
				<path d="M210.144,171.109l-22.151-13.142c-1.188-0.705-2.721-0.314-3.426,0.875c-0.704,1.187-0.313,2.721,0.875,3.425
					l22.151,13.142c0.4,0.238,0.839,0.351,1.273,0.351c0.854,0,1.685-0.438,2.152-1.225
					C211.723,173.347,211.331,171.813,210.144,171.109z"/>
			</g>
		</g>
		<g>
			<g>
				<path d="M188.434,62.47c-1.081-0.86-2.654-0.679-3.513,0.4l-14.584,18.333c-0.86,1.081-0.681,2.653,0.399,3.513
					c0.46,0.366,1.01,0.543,1.555,0.543c0.736,0,1.465-0.323,1.958-0.944l14.584-18.333
					C189.693,64.902,189.514,63.329,188.434,62.47z"/>
			</g>
		</g>
		<g>
			<g>
				<path d="M124.999,183.392c-1.349-0.314-2.689,0.521-3.005,1.864l-5.783,24.7c-0.314,1.344,0.521,2.689,1.864,3.004
					c0.192,0.045,0.384,0.066,0.572,0.066c1.135,0,2.162-0.778,2.433-1.931l5.783-24.7
					C127.178,185.052,126.343,183.707,124.999,183.392z"/>
			</g>
		</g>
		<g>
			<g>
				<path d="M179.333,167.991c-1.485-2.022-3.625-3.469-6.024-4.073l-11.339-2.854c-5.437-1.369-9.822-3.701-10.057-3.827
					c-0.04-0.023-0.081-0.044-0.123-0.065c-1.63-0.803-2.642-2.431-2.642-4.247v-2.633c0-1.381-1.119-2.5-2.5-2.5
					s-2.5,1.119-2.5,2.5v2.633c0,3.679,2.02,6.98,5.281,8.656c0.659,0.417,1.694,0.883,3.362,1.603
					c1.837,0.793,4.709,1.911,7.957,2.729l11.339,2.854c1.274,0.321,2.417,1.097,3.216,2.185c0.489,0.667,1.248,1.02,2.017,1.02
					c0.514,0,1.032-0.158,1.479-0.485C179.911,170.668,180.15,169.104,179.333,167.991z"/>
			</g>
		</g>
		<g>
			<g>
				<path d="M127.352,147.625c-1.381,0-2.5,1.119-2.5,2.5v2.8c0,1.816-1.012,3.444-2.642,4.247
					c-3.017,1.487-5.864,2.806-10.18,3.892l-11.339,2.854c-2.266,0.57-4.247,1.846-5.729,3.689
					c-0.865,1.076-0.694,2.649,0.382,3.515c0.461,0.371,1.015,0.552,1.564,0.552c0.731,0,1.456-0.319,1.95-0.933
					c0.795-0.989,1.852-1.672,3.054-1.975l11.339-2.854c4.791-1.206,7.894-2.641,11.17-4.256c3.35-1.651,5.431-4.997,5.431-8.731
					v-2.8C129.852,148.744,128.732,147.625,127.352,147.625z"/>
			</g>
		</g>
		<g>
			<g>
				<g>
					<g>
						<path d="M156.762,104.174L156.762,104.174c-2.261-2.369-5.918-2.62-8.511-0.585c-2.208,1.733-5.948,3.799-11.228,3.799
							c-5.293,0-9.055-2.075-11.278-3.815c-2.59-2.026-6.243-1.772-8.507,0.601c-2.374,2.49-3.682,5.757-3.682,9.198v17.577
							c0,12.927,10.517,23.443,23.443,23.443s23.443-10.517,23.443-23.443v-17.577C160.443,109.931,159.136,106.665,156.762,104.174
							z M155.443,130.949c0,10.17-8.273,18.443-18.443,18.443s-18.443-8.273-18.443-18.443v-17.577c0-2.15,0.817-4.191,2.309-5.755
							c0.255-0.267,0.598-0.403,0.946-0.403c0.297,0,0.598,0.098,0.852,0.297c2.843,2.225,7.642,4.877,14.36,4.877
							c6.708,0,11.486-2.646,14.315-4.866c0.557-0.437,1.334-0.391,1.804,0.102c1.483,1.556,2.301,3.597,2.301,5.748V130.949z"/>
					</g>
				</g>
			</g>
		</g>
		<g>
			<g>
				<path d="M159.288,112.487c-1.381,0-2.5,1.119-2.5,2.5s1.119,2.5,2.5,2.5c3.442,0,6.243,2.801,6.243,6.244
					s-2.801,6.244-6.243,6.244c-1.381,0-2.5,1.119-2.5,2.5s1.119,2.5,2.5,2.5c6.199,0,11.243-5.044,11.243-11.244
					S165.487,112.487,159.288,112.487z"/>
			</g>
		</g>
		<g>
			<g>
				<path d="M114.713,129.976c-3.443,0-6.244-2.801-6.244-6.244s2.801-6.244,6.244-6.244c1.381,0,2.5-1.119,2.5-2.5
					s-1.119-2.5-2.5-2.5c-6.2,0-11.244,5.044-11.244,11.244s5.044,11.244,11.244,11.244c1.381,0,2.5-1.119,2.5-2.5
					S116.094,129.976,114.713,129.976z"/>
			</g>
		</g>
		<g>
			<g>
				<g>
					<g>
						<path d="M158.993,94.715c-0.31-3.785-1.919-6.976-4.693-9.28c-6.851-5.688-18.566-4.69-24.938-3.59
							c-12.487,2.156-21.551,12.916-21.551,25.583v8.259c0,1.381,1.119,2.5,2.5,2.5s2.5-1.119,2.5-2.5v-8.259
							c0-10.228,7.318-18.915,17.402-20.656c9.266-1.6,17.073-0.661,20.893,2.51c1.94,1.611,2.902,3.78,2.941,6.629
							c0.025,2.046,1.738,3.711,3.818,3.711c2.079,0,3.37,3.603,3.37,9.401v6.768c0,1.381,1.119,2.5,2.5,2.5s2.5-1.119,2.5-2.5
							v-6.768C166.235,97.711,161.802,95.181,158.993,94.715z"/>
					</g>
				</g>
			</g>
		</g>
		<g>
			<g>
				<path d="M160.617,162.148c-1.039-0.908-2.62-0.803-3.527,0.238l-9.397,10.759l-4.436-3.875l7.338-8.401
					c0.908-1.04,0.802-2.619-0.238-3.527c-1.038-0.908-2.619-0.803-3.527,0.238l-7.789,8.917c-1.565,1.792-1.381,4.523,0.411,6.087
					l5.47,4.778c0.816,0.712,1.827,1.062,2.835,1.062c1.203,0,2.4-0.5,3.252-1.475l9.848-11.275
					C161.764,164.636,161.657,163.057,160.617,162.148z"/>
			</g>
		</g>
		<g>
			<g>
				<path d="M134.96,166.499l-7.924-9.072c-0.907-1.04-2.488-1.146-3.527-0.238c-1.04,0.908-1.146,2.487-0.238,3.527l7.473,8.556
					l-4.436,3.874l-9.599-10.989c-0.908-1.041-2.489-1.146-3.527-0.238c-1.04,0.908-1.146,2.488-0.238,3.527l10.048,11.504
					c0.758,0.869,1.809,1.39,2.96,1.468c0.1,0.007,0.198,0.01,0.297,0.01c1.043,0,2.038-0.372,2.832-1.065l5.469-4.776
					c0.868-0.758,1.389-1.809,1.467-2.959C136.093,168.478,135.718,167.367,134.96,166.499z"/>
			</g>
		</g>
		<g>
			<g>
				<path d="M139.594,166.625h-5.655c-1.381,0-2.5,1.119-2.5,2.5s1.119,2.5,2.5,2.5h5.655c1.381,0,2.5-1.119,2.5-2.5
					S140.975,166.625,139.594,166.625z"/>
			</g>
		</g>
	</g>
</g>
<g id="Layer_20">
</g>
<g id="Layer_21">
</g>
<g id="Layer_22">
</g>
<g id="Layer_23">
</g>
<g id="Layer_24">
</g>
<g id="Layer_25">
</g>
<g id="Layer_26">
</g>
<g id="Layer_27">
</g>
<g id="Layer_28">
</g>
<g id="Layer_29">
</g>
<g id="Layer_30">
</g>
<g id="Layer_31">
</g>
<g id="Layer_32">
</g>
<g id="Layer_33">
</g>
<g id="Layer_34">
</g>
<g id="Layer_35">
</g>
<g id="Layer_36">
</g>
<g id="Layer_37">
</g>
<g id="Layer_38">
</g>
<g id="Layer_39">
</g>
<g id="Layer_40">
</g>
<g id="Layer_41">
</g>
<g id="Layer_42">
</g>
<g id="Layer_43">
</g>
<g id="Layer_44">
</g>
<g id="Layer_45">
</g>
<g id="Layer_46">
</g>
<g id="Layer_47">
</g>
<g id="Layer_48">
</g>
<g id="Layer_49">
</g>
<g id="Layer_50">
</g>
<g id="Layer_51">
</g>
<g id="Layer_52">
</g>
<g id="Layer_53">
</g>
<g id="Layer_54">
</g>
<g id="Layer_55">
</g>
<g id="Layer_56">
</g>
<g id="Layer_57">
</g>
<g id="Layer_58">
</g>
<g id="Layer_59">
</g>
<g id="Layer_60">
</g>
<g id="Layer_61">
</g>
<g id="Layer_62">
</g>
<g id="Layer_63">
</g>
<g id="Layer_64">
</g>
<g id="Layer_65">
</g>
<g id="Layer_66">
</g>
<g id="Layer_67">
</g>
<g id="Layer_68">
</g>
<g id="Layer_69">
</g>
<g id="Layer_70">
</g>
<g id="Layer_71">
</g>
<g id="Layer_72">
</g>
<g id="Layer_73">
</g>
<g id="Layer_74">
</g>
<g id="Layer_75">
</g>
<g id="Layer_76">
</g>
<g id="Layer_77">
</g>
<g id="Layer_78">
</g>
<g id="Layer_79">
</g>
<g id="Layer_80">
</g>
</svg>
