<?xml version="1.0" encoding="utf-8"?>
<!-- Generator: Adobe Illustrator 24.0.0, SVG Export Plug-In . SVG Version: 6.00 Build 0)  -->
<svg version="1.1" xmlns="http://www.w3.org/2000/svg" xmlns:xlink="http://www.w3.org/1999/xlink" x="0px" y="0px"
	 viewBox="0 0 256 256" enable-background="new 0 0 256 256" xml:space="preserve">
<g id="Layer_1">
</g>
<g id="Layer_2">
</g>
<g id="Layer_3">
</g>
<g id="Layer_4">
</g>
<g id="Layer_5">
</g>
<g id="Layer_6">
</g>
<g id="Layer_7">
</g>
<g id="Layer_8">
</g>
<g id="Layer_9">
	<g>
		<g>
			<g>
				<path fill="#F5C84C" d="M86.692,174.091l-12.297-3.095c-6.518-1.641-11.644-4.452-11.577-4.419
					c-2.68-1.321-4.377-4.05-4.377-7.038v-3.697c-3.137,1.642-6.696,2.577-10.464,2.577c-3.768,0-7.327-0.935-10.464-2.577v3.696
					c0,2.988-1.697,5.716-4.377,7.038c-3.621,1.785-6.782,3.212-11.577,4.419l-12.297,3.095c-3.804,0.958-6.543,4.277-6.762,8.194
					v11.93h90.953v-11.93C93.235,178.368,90.496,175.049,86.692,174.091z"/>
			</g>
		</g>
		<g>
			<g>
				<path fill="#FCDD86" d="M35.9,164.277c-0.723,0.951-1.652,1.751-2.765,2.3c-2.674,1.319-5.102,2.44-8.118,3.424l8.49,13.064
					c0.451,0.695,1.166,1.105,1.928,1.208v-7.211c0-1.867,1.528-3.395,3.395-3.395h3.173L35.9,164.277z"/>
			</g>
		</g>
		<g>
			<g>
				<path fill="#FCDD86" d="M62.817,166.577c-1.112-0.548-2.042-1.349-2.765-2.3l-6.102,9.39h3.044c1.867,0,3.395,1.528,3.395,3.395
					v7.226c0.809-0.072,1.579-0.489,2.056-1.223l8.497-13.075C66.157,168.412,62.763,166.551,62.817,166.577z"/>
			</g>
		</g>
		<g>
			<g>
				<path fill="#F9D0B4" d="M58.441,159.54v-3.697c-3.137,1.642-6.696,2.577-10.464,2.577h0c-3.768,0-7.327-0.935-10.464-2.577
					v3.696c0,1.748-0.594,3.397-1.612,4.738l6.102,9.39H53.95l6.103-9.391C59.034,162.937,58.441,161.287,58.441,159.54z"/>
			</g>
		</g>
		<g>
			<g>
				<path fill="#DAE6F1" d="M56.995,173.667H38.83c-1.867,0-3.395,1.528-3.395,3.395v32.424c0,1.867,1.528,3.395,3.395,3.395h18.165
					c1.867,0,3.395-1.528,3.395-3.395v-32.424C60.389,175.195,58.862,173.667,56.995,173.667z"/>
			</g>
		</g>
		<g>
			<g>
				<path d="M95.949,182.146c-0.28-5.037-3.755-9.249-8.647-10.479l-12.297-3.095c-5.93-1.492-10.7-4.033-10.957-4.171
					c-0.041-0.023-0.082-0.045-0.125-0.066c-1.84-0.907-2.982-2.745-2.982-4.795v-3.082c0-1.381-1.119-2.5-2.5-2.5
					s-2.5,1.119-2.5,2.5v3.082c0,3.923,2.161,7.443,5.649,9.219c0.688,0.43,1.787,0.932,3.596,1.713
					c1.986,0.858,5.09,2.065,8.599,2.949l12.297,3.095c2.738,0.689,4.688,3.033,4.872,5.845v11.854c0,1.381,1.119,2.5,2.5,2.5
					s2.5-1.119,2.5-2.5v-11.93C95.953,182.239,95.952,182.192,95.949,182.146z"/>
			</g>
		</g>
		<g>
			<g>
				<path d="M37.513,153.958c-1.381,0-2.5,1.119-2.5,2.5v3.082c0,2.051-1.143,3.888-2.982,4.795
					c-3.281,1.618-6.379,3.053-11.082,4.237l-12.297,3.095c-4.893,1.231-8.367,5.443-8.647,10.479
					C0.001,182.192,0,182.239,0,182.285v11.93c0,1.381,1.119,2.5,2.5,2.5s2.5-1.119,2.5-2.5V182.36
					c0.184-2.812,2.134-5.155,4.872-5.845l12.297-3.095c5.179-1.303,8.531-2.855,12.072-4.601c3.56-1.755,5.771-5.311,5.771-9.28
					v-3.082C40.013,155.077,38.894,153.958,37.513,153.958z"/>
			</g>
		</g>
		<g>
			<g>
				<path d="M43.876,171.96l-5.395-8.301c-0.753-1.158-2.302-1.486-3.459-0.734s-1.486,2.301-0.734,3.458l5.395,8.301
					c0.479,0.737,1.281,1.138,2.099,1.138c0.467,0,0.939-0.131,1.36-0.404C44.299,174.667,44.628,173.118,43.876,171.96z"/>
			</g>
		</g>
		<g>
			<g>
				<path d="M35.703,181.779c-0.058-0.021-0.082-0.05-0.1-0.077l-7.859-12.093c-0.752-1.158-2.301-1.485-3.458-0.734
					c-1.158,0.752-1.486,2.301-0.733,3.458l7.857,12.091c0.616,0.949,1.506,1.657,2.572,2.048c0.284,0.104,0.574,0.153,0.86,0.153
					c1.019,0,1.977-0.628,2.348-1.64C37.665,183.69,36.999,182.254,35.703,181.779z"/>
			</g>
		</g>
		<g>
			<g>
				<path d="M71.726,168.786c-1.155-0.751-2.705-0.424-3.459,0.734l-7.918,12.184c-0.011,0.018-0.037,0.058-0.112,0.081
					c-1.317,0.413-2.051,1.816-1.638,3.133c0.335,1.069,1.321,1.753,2.385,1.753c0.248,0,0.5-0.037,0.749-0.115
					c1.155-0.362,2.153-1.118,2.81-2.128l7.917-12.183C73.212,171.086,72.884,169.538,71.726,168.786z"/>
			</g>
		</g>
		<g>
			<g>
				<path d="M61.104,162.659c-1.156-0.751-2.705-0.424-3.458,0.734l-5.569,8.569c-0.753,1.158-0.425,2.706,0.733,3.458
					c0.421,0.273,0.893,0.404,1.36,0.404c0.817,0,1.619-0.401,2.098-1.138l5.57-8.569C62.591,164.96,62.263,163.412,61.104,162.659z
					"/>
			</g>
		</g>
		<g>
			<g>
				<g>
					<g>
						<path d="M56.994,171.167H38.83c-3.25,0-5.895,2.645-5.895,5.895v32.424c0,3.25,2.645,5.895,5.895,5.895h18.164
							c3.251,0,5.896-2.645,5.896-5.895v-32.424C62.89,173.812,60.245,171.167,56.994,171.167z M57.89,209.486
							c0,0.485-0.41,0.895-0.896,0.895H38.83c-0.485,0-0.895-0.41-0.895-0.895v-32.424c0-0.485,0.409-0.895,0.895-0.895h18.164
							c0.485,0,0.896,0.41,0.896,0.895V209.486z"/>
					</g>
				</g>
			</g>
		</g>
		<g>
			<g>
				<path fill="#70D6F9" d="M175.243,207.742l-14.506-3.651c-7.689-1.935-13.736-5.251-13.657-5.213
					c-3.161-1.559-5.163-4.777-5.163-8.302v-4.361c-3.7,1.937-7.899,3.04-12.344,3.04h0c-4.445,0-8.644-1.103-12.344-3.04v4.361
					c0,3.525-2.002,6.743-5.163,8.302c-4.271,2.106-8,3.789-13.657,5.213l-14.506,3.651c-4.487,1.13-7.719,5.046-7.976,9.666v14.073
					h107.294v-14.073C182.962,212.787,179.73,208.871,175.243,207.742z"/>
			</g>
		</g>
		<g>
			<g>
				<path fill="#5290DB" d="M246.739,174.091l-12.297-3.095c-6.518-1.641-11.644-4.452-11.577-4.419
					c-2.68-1.321-4.377-4.05-4.377-7.038v-3.697c-3.137,1.642-6.696,2.577-10.464,2.577s-7.327-0.935-10.464-2.577v3.696
					c0,2.988-1.697,5.716-4.377,7.038c-3.621,1.785-6.781,3.212-11.577,4.419l-12.297,3.095c-3.804,0.958-6.543,4.277-6.761,8.194
					v11.93H253.5v-11.93C253.282,178.368,250.542,175.049,246.739,174.091z"/>
			</g>
		</g>
		<g>
			<g>
				<path fill="#F9D0B4" d="M152.539,130.413c-1.752-1.837-4.601-2.007-6.598-0.439c-3.158,2.479-8.622,5.542-16.339,5.542
					c-7.736,0-13.229-3.079-16.4-5.56c-1.995-1.562-4.838-1.387-6.587,0.447l-0.009,0.01c-2.457,2.577-3.828,6-3.828,9.561v22.487
					c0,14.737,12.057,26.794,26.794,26.794h0c14.737,0,26.794-12.057,26.794-26.794v-22.487
					C156.366,136.414,154.996,132.99,152.539,130.413z"/>
			</g>
		</g>
		<g>
			<g>
				<path fill="#F9D0B4" d="M158.086,142.04c-0.585,0-1.159,0.049-1.719,0.136v20.284c0,0.604-0.028,1.202-0.067,1.797
					c0.583,0.094,1.177,0.156,1.787,0.156c6.178,0,11.187-5.009,11.187-11.187S164.264,142.04,158.086,142.04z"/>
			</g>
		</g>
		<g>
			<g>
				<path fill="#F9D0B4" d="M102.778,162.461v-20.284c-0.561-0.087-1.134-0.136-1.719-0.136c-6.178,0-11.187,5.009-11.187,11.187
					s5.009,11.187,11.187,11.187c0.61,0,1.204-0.062,1.787-0.156v0C102.805,163.663,102.778,163.065,102.778,162.461z"/>
			</g>
		</g>
		<g>
			<g>
				<path fill="#5B5D60" d="M156.266,119.184c-0.897,0-1.675-0.692-1.688-1.589c-0.205-14.931-17.255-17.735-34.235-14.803
					c-14.396,2.486-24.917,14.969-24.917,29.578v11.202c1.655-0.968,3.575-1.532,5.631-1.532c0.585,0,1.159,0.049,1.719,0.136
					v-2.203c0-3.56,1.371-6.984,3.828-9.561l0.009-0.01c1.749-1.834,4.592-2.009,6.587-0.447c3.171,2.482,8.664,5.56,16.4,5.56
					c7.717,0,13.181-3.064,16.339-5.542c1.997-1.568,4.846-1.399,6.598,0.439c2.457,2.577,3.828,6,3.828,9.561v2.203
					c0.561-0.087,1.134-0.136,1.719-0.136c2.081,0,4.022,0.578,5.69,1.568v-9.198C163.776,121.041,158.948,119.184,156.266,119.184z
					"/>
			</g>
		</g>
		<g>
			<g>
				<path fill="#9BE5F9" d="M115.326,196.165c-0.852,1.122-1.949,2.066-3.261,2.713c-3.155,1.556-6.018,2.879-9.577,4.039
					l10.015,15.411c0.533,0.819,1.376,1.303,2.274,1.425v-8.507c0-2.203,1.802-4.005,4.005-4.005h3.743L115.326,196.165z"/>
			</g>
		</g>
		<g>
			<g>
				<path fill="#9BE5F9" d="M147.079,198.878c-1.312-0.647-2.409-1.591-3.261-2.713l-7.199,11.077h3.591
					c2.203,0,4.005,1.802,4.005,4.005v8.524c0.954-0.084,1.863-0.577,2.426-1.443l10.024-15.424
					C151.019,201.042,147.015,198.846,147.079,198.878z"/>
			</g>
		</g>
		<g>
			<g>
				<path fill="#F9D0B4" d="M141.916,190.576v-4.361c-3.7,1.937-7.899,3.04-12.344,3.04h0c-4.445,0-8.644-1.103-12.344-3.04v4.361
					c0,2.062-0.7,4.008-1.902,5.589l7.199,11.077h14.094l7.2-11.079C142.617,194.583,141.916,192.638,141.916,190.576z"/>
			</g>
		</g>
		<g>
			<g>
				<path fill="#EDF4FC" d="M140.21,207.241h-21.428c-2.203,0-4.005,1.802-4.005,4.005v38.249c0,2.203,1.802,4.005,4.005,4.005
					h21.428c2.203,0,4.005-1.802,4.005-4.005v-38.249C144.215,209.044,142.413,207.241,140.21,207.241z"/>
			</g>
		</g>
		<g>
			<g>
				<path fill="#F9D0B4" d="M227.492,108.54c-1.485-1.558-3.9-1.701-5.593-0.372c-2.677,2.101-7.309,4.698-13.851,4.698
					c-6.558,0-11.214-2.61-13.902-4.714c-1.692-1.324-4.101-1.175-5.584,0.379l-0.008,0.008c-2.083,2.184-3.245,5.086-3.245,8.105
					v19.062c0,12.492,10.221,22.714,22.714,22.714c12.492,0,22.714-10.221,22.714-22.714v-19.062
					C230.737,113.626,229.575,110.724,227.492,108.54z"/>
			</g>
		</g>
		<g>
			<g>
				<path fill="#F9D0B4" d="M232.195,118.396c-0.496,0-0.982,0.042-1.458,0.116v17.195c0,0.512-0.023,1.019-0.057,1.523
					c0.494,0.08,0.998,0.132,1.515,0.132c5.237,0,9.483-4.246,9.483-9.483S237.432,118.396,232.195,118.396z"/>
			</g>
		</g>
		<g>
			<g>
				<path fill="#F9D0B4" d="M185.31,135.707v-17.195c-0.475-0.074-0.961-0.116-1.458-0.116c-5.237,0-9.483,4.246-9.483,9.483
					s4.246,9.483,9.483,9.483c0.517,0,1.02-0.053,1.515-0.132v0C185.333,136.726,185.31,136.219,185.31,135.707z"/>
			</g>
		</g>
		<g>
			<g>
				<path fill="#FCE4BE" d="M230.652,99.021c-0.761,0-1.42-0.587-1.431-1.347c-0.174-12.657-14.627-15.034-29.021-12.549
					c-12.203,2.107-21.122,12.69-21.122,25.073v9.496c1.403-0.82,3.031-1.298,4.774-1.298c0.496,0,0.982,0.042,1.458,0.116v-1.867
					c0-3.018,1.162-5.92,3.245-8.105l0.008-0.008c1.482-1.555,3.892-1.703,5.584-0.379c2.688,2.104,7.345,4.714,13.902,4.714
					c6.542,0,11.174-2.597,13.851-4.698c1.693-1.329,4.108-1.186,5.593,0.372c2.083,2.184,3.245,5.086,3.245,8.105v1.867
					c0.475-0.074,0.961-0.116,1.458-0.116c1.764,0,3.409,0.49,4.824,1.329v-7.797C237.018,100.595,232.926,99.021,230.652,99.021z"
					/>
			</g>
		</g>
		<g>
			<g>
				<path fill="#6CADEF" d="M195.947,164.277c-0.723,0.951-1.652,1.751-2.765,2.3c-2.674,1.319-5.102,2.44-8.118,3.424l8.49,13.064
					c0.452,0.695,1.167,1.105,1.928,1.208v-7.211c0-1.867,1.528-3.395,3.395-3.395h3.173L195.947,164.277z"/>
			</g>
		</g>
		<g>
			<g>
				<path fill="#6CADEF" d="M222.864,166.577c-1.112-0.548-2.042-1.349-2.765-2.3l-6.102,9.39h3.044
					c1.867,0,3.395,1.528,3.395,3.395v7.226c0.809-0.072,1.579-0.489,2.056-1.223l8.497-13.075
					C226.204,168.412,222.81,166.551,222.864,166.577z"/>
			</g>
		</g>
		<g>
			<g>
				<path fill="#F9D0B4" d="M218.488,159.54v-3.697c-3.137,1.642-6.696,2.577-10.464,2.577c-3.769,0-7.327-0.935-10.464-2.577v3.696
					c0,1.748-0.594,3.397-1.612,4.738l6.102,9.39h11.948l6.103-9.391C219.081,162.937,218.488,161.287,218.488,159.54z"/>
			</g>
		</g>
		<g>
			<g>
				<path fill="#DAE6F1" d="M217.041,173.667h-18.165c-1.867,0-3.395,1.528-3.395,3.395v32.424c0,1.867,1.528,3.395,3.395,3.395
					h18.165c1.867,0,3.395-1.528,3.395-3.395v-32.424C220.436,175.195,218.908,173.667,217.041,173.667z"/>
			</g>
		</g>
		<g>
			<g>
				<path fill="#F9D0B4" d="M67.445,108.54c-1.485-1.558-3.9-1.701-5.593-0.372c-2.677,2.101-7.309,4.698-13.851,4.698
					c-6.558,0-11.214-2.61-13.902-4.714c-1.692-1.324-4.101-1.175-5.584,0.379l-0.008,0.008c-2.083,2.184-3.245,5.086-3.245,8.105
					v19.062c0,12.492,10.221,22.714,22.714,22.714h0c12.492,0,22.714-10.221,22.714-22.714v-19.062
					C70.69,113.626,69.528,110.724,67.445,108.54z"/>
			</g>
		</g>
		<g>
			<g>
				<path fill="#F9D0B4" d="M72.148,118.396c-0.496,0-0.982,0.042-1.458,0.116v17.195c0,0.512-0.023,1.019-0.057,1.523
					c0.494,0.08,0.998,0.132,1.515,0.132c5.237,0,9.483-4.246,9.483-9.483S77.385,118.396,72.148,118.396z"/>
			</g>
		</g>
		<g>
			<g>
				<path fill="#F9D0B4" d="M25.263,135.707v-17.195c-0.475-0.074-0.961-0.116-1.458-0.116c-5.237,0-9.483,4.246-9.483,9.483
					s4.246,9.483,9.483,9.483c0.517,0,1.02-0.053,1.515-0.132v0C25.286,136.726,25.263,136.219,25.263,135.707z"/>
			</g>
		</g>
		<g>
			<g>
				<path fill="#754E34" d="M70.605,99.021c-0.761,0-1.42-0.587-1.43-1.347C69.001,85.017,54.548,82.64,40.154,85.125
					c-12.203,2.107-21.122,12.69-21.122,25.073v9.496c1.403-0.82,3.031-1.298,4.774-1.298c0.496,0,0.982,0.042,1.458,0.116v-1.867
					c0-3.018,1.162-5.92,3.245-8.105l0.008-0.008c1.482-1.555,3.892-1.703,5.584-0.379c2.688,2.104,7.345,4.714,13.902,4.714
					c6.542,0,11.174-2.597,13.851-4.698c1.693-1.329,4.108-1.186,5.593,0.372c2.083,2.184,3.245,5.086,3.245,8.105v1.867
					c0.475-0.074,0.961-0.116,1.458-0.116c1.764,0,3.409,0.49,4.824,1.329v-7.797C76.972,100.595,72.879,99.021,70.605,99.021z"/>
			</g>
		</g>
		<g>
			<g>
				<path fill="#70D6F9" d="M143.906,2.5H85.867c-8.052,0-14.641,6.588-14.641,14.641v35.217c0,8.052,6.588,14.641,14.641,14.641
					h3.509c2.581,0,4.673,2.092,4.673,4.673v4.93c0,2.289,2.739,3.423,4.393,1.841c2.296-2.196,4.133-4.594,5.6-6.988
					c1.676-2.733,4.595-4.456,7.801-4.456h32.063c8.052,0,14.641-6.588,14.641-14.641V17.141C158.546,9.088,151.958,2.5,143.906,2.5
					z"/>
			</g>
		</g>
		<g>
			<g>
				<path fill="#F5C84C" d="M170.133,17.071h-11.59c0,0.024,0.003,0.046,0.003,0.07v35.217c0,8.052-6.588,14.641-14.641,14.641
					h-32.063c-3.206,0-6.125,1.723-7.801,4.456c-0.952,1.552-2.078,3.1-3.364,4.6c2.689,3.353,6.81,5.515,11.417,5.515h32.063
					c3.206,0,6.125,1.723,7.801,4.456c1.468,2.394,3.304,4.792,5.6,6.988c1.654,1.582,4.393,0.447,4.393-1.841v-4.93
					c0-2.581,2.092-4.673,4.673-4.673h3.509c8.052,0,14.641-6.588,14.641-14.641V31.711
					C184.774,23.659,178.186,17.071,170.133,17.071z"/>
			</g>
		</g>
		<g>
			<g>
				<circle fill="#EDF4FC" cx="92" cy="36" r="5.5"/>
			</g>
		</g>
		<g>
			<g>
				<circle fill="#EDF4FC" cx="115" cy="36" r="5.5"/>
			</g>
		</g>
		<g>
			<g>
				<circle fill="#EDF4FC" cx="138" cy="36" r="5.5"/>
			</g>
		</g>
		<g>
			<g>
				<path d="M185.715,217.269c-0.319-5.744-4.282-10.547-9.861-11.951l-14.507-3.651c-7.077-1.781-12.743-4.806-13.034-4.963
					c-0.042-0.023-0.084-0.046-0.128-0.067c-2.324-1.146-3.769-3.468-3.769-6.06v-3.784c0-1.381-1.119-2.5-2.5-2.5
					s-2.5,1.119-2.5,2.5v3.784c0,4.457,2.454,8.456,6.417,10.474c0.745,0.462,2.011,1.057,4.219,2.01
					c2.327,1.005,5.964,2.42,10.074,3.455l14.507,3.651c3.425,0.862,5.862,3.797,6.086,7.315v14c0,1.381,1.119,2.5,2.5,2.5
					s2.5-1.119,2.5-2.5v-14.073C185.719,217.361,185.718,217.314,185.715,217.269z"/>
			</g>
		</g>
		<g>
			<g>
				<path d="M117.228,184.292c-1.381,0-2.5,1.119-2.5,2.5v3.784c0,2.592-1.443,4.914-3.768,6.06
					c-3.894,1.92-7.57,3.624-13.162,5.031l-14.507,3.651c-5.578,1.404-9.542,6.207-9.862,11.951
					c-0.003,0.046-0.004,0.093-0.004,0.139v14.073c0,1.381,1.119,2.5,2.5,2.5s2.5-1.119,2.5-2.5v-13.999
					c0.224-3.519,2.663-6.454,6.087-7.316l14.507-3.651c6.067-1.527,9.999-3.347,14.152-5.395c4.044-1.994,6.557-6.034,6.557-10.544
					v-3.784C119.728,185.411,118.608,184.292,117.228,184.292z"/>
			</g>
		</g>
		<g>
			<g>
				<path d="M255.996,182.146c-0.28-5.037-3.755-9.248-8.647-10.479l-12.297-3.095c-5.93-1.493-10.702-4.033-10.957-4.171
					c-0.041-0.023-0.082-0.045-0.125-0.066c-1.84-0.907-2.982-2.745-2.982-4.795v-3.04c0-1.381-1.119-2.5-2.5-2.5
					s-2.5,1.119-2.5,2.5v3.04c0,3.923,2.161,7.443,5.649,9.219c0.688,0.43,1.787,0.932,3.596,1.713
					c1.986,0.858,5.09,2.065,8.599,2.949l12.297,3.095c2.738,0.689,4.688,3.033,4.872,5.845v11.854c0,1.381,1.119,2.5,2.5,2.5
					s2.5-1.119,2.5-2.5v-11.93C256,182.239,255.999,182.192,255.996,182.146z"/>
			</g>
		</g>
		<g>
			<g>
				<path d="M197.56,154c-1.381,0-2.5,1.119-2.5,2.5v3.04c0,2.051-1.143,3.888-2.982,4.795c-3.281,1.618-6.379,3.053-11.082,4.237
					l-12.297,3.095c-4.893,1.231-8.367,5.443-8.647,10.479c-0.003,0.046-0.004,0.092-0.004,0.139v11.93c0,1.381,1.119,2.5,2.5,2.5
					s2.5-1.119,2.5-2.5V182.36c0.184-2.812,2.134-5.155,4.872-5.845l12.297-3.095c5.179-1.303,8.531-2.855,12.072-4.601
					c3.56-1.755,5.771-5.311,5.771-9.28v-3.04C200.06,155.119,198.94,154,197.56,154z"/>
			</g>
		</g>
		<g>
			<g>
				<path fill="#FC657E" d="M39.906,231.1h-2.4v-2.3c0-1.8-1.4-3.2-3.2-3.2c-1.7,0-3.2,1.4-3.2,3.1v2.4h-2.3c-1.8,0-3.2,1.4-3.2,3.2
					c-0.1,1.7,1.3,3.2,3.2,3.2h2.3v2.3c0,1.8,1.4,3.2,3.2,3.2c1.7,0,3.2-1.4,3.2-3.1v-2.4h2.3c1.8,0,3.2-1.4,3.2-3.2
					C43.006,232.6,41.606,231.1,39.906,231.1z"/>
			</g>
		</g>
		<g>
			<g>
				<path fill="#F5C84C" d="M63.206,249.2c-1.878,0-3.4,1.522-3.4,3.4s1.522,3.4,3.4,3.4c1.878,0,3.4-1.522,3.4-3.4
					S65.083,249.2,63.206,249.2z"/>
			</g>
		</g>
		<g>
			<g>
				<path fill="#F5C84C" d="M49.15,59.175c-3.1-0.6-5.6-3-6.2-6.1c0-0.1-0.3-0.1-0.3,0c-0.6,3.1-3.1,5.5-6.2,6.1
					c-0.1,0-0.1,0.2,0,0.3c3.1,0.6,5.6,3,6.2,6.1c0,0.1,0.3,0.1,0.3,0c0.6-3.1,3.1-5.5,6.2-6.1
					C49.25,59.375,49.25,59.175,49.15,59.175z"/>
			</g>
		</g>
		<g>
			<g>
				<path fill="#87D147" d="M195.369,0c-1.878,0-3.4,1.522-3.4,3.4c0,1.878,1.522,3.4,3.4,3.4s3.4-1.522,3.4-3.4
					C198.769,1.522,197.246,0,195.369,0z"/>
			</g>
		</g>
		<g>
			<g>
				<path fill="#70D6F9" d="M223.15,30.2c-4.5-0.8-8-4.3-8.9-8.7c0-0.2-0.4-0.2-0.4,0c-0.9,4.4-4.4,7.9-8.9,8.7
					c-0.2,0-0.2,0.3,0,0.4c4.5,0.8,8,4.3,8.9,8.7c0,0.2,0.4,0.2,0.4,0c0.9-4.4,4.4-7.9,8.9-8.7C223.35,30.5,223.35,30.2,223.15,30.2
					z"/>
			</g>
		</g>
		<g>
			<g>
				<g>
					<g>
						<path d="M154.349,128.688c-2.641-2.77-6.919-3.061-9.952-0.68c-2.91,2.285-7.839,5.009-14.795,5.009
							c-6.97,0-11.927-2.735-14.858-5.029c-3.03-2.372-7.302-2.073-9.947,0.7c-2.914,3.056-4.519,7.064-4.519,11.286v22.487
							c0,16.153,13.142,29.294,29.295,29.294c16.152,0,29.294-13.142,29.294-29.294v-22.487
							C158.866,135.751,157.262,131.743,154.349,128.688z M153.866,162.461c0,13.396-10.898,24.294-24.294,24.294
							c-13.396,0-24.295-10.898-24.295-24.294v-22.487c0-2.931,1.114-5.713,3.146-7.844c0.463-0.486,1.086-0.733,1.717-0.733
							c0.53,0,1.067,0.174,1.521,0.529c3.551,2.779,9.546,6.091,17.94,6.091c8.385,0,14.353-3.304,17.883-6.076
							c0.996-0.783,2.393-0.697,3.245,0.197c2.022,2.121,3.137,4.904,3.137,7.835V162.461z"/>
					</g>
				</g>
			</g>
		</g>
		<g>
			<g>
				<path d="M158.086,139.54c-1.381,0-2.5,1.119-2.5,2.5s1.119,2.5,2.5,2.5c4.79,0,8.687,3.897,8.687,8.687
					s-3.896,8.687-8.687,8.687c-1.381,0-2.5,1.119-2.5,2.5s1.119,2.5,2.5,2.5c7.547,0,13.687-6.14,13.687-13.687
					S165.633,139.54,158.086,139.54z"/>
			</g>
		</g>
		<g>
			<g>
				<path d="M101.059,161.914c-4.79,0-8.688-3.897-8.688-8.687s3.897-8.687,8.688-8.687c1.381,0,2.5-1.119,2.5-2.5
					s-1.119-2.5-2.5-2.5c-7.547,0-13.688,6.14-13.688,13.687s6.141,13.687,13.688,13.687c1.381,0,2.5-1.119,2.5-2.5
					S102.439,161.914,101.059,161.914z"/>
			</g>
		</g>
		<g>
			<g>
				<path d="M157.051,116.718c-0.259-4.953-2.205-8.969-5.792-11.948c-8.549-7.098-23.305-5.831-31.34-4.442
					c-15.641,2.701-26.992,16.176-26.992,32.042V143c0,1.381,1.119,2.5,2.5,2.5s2.5-1.119,2.5-2.5v-10.63
					c0-13.426,9.607-24.829,22.844-27.115c12.228-2.111,22.177-0.886,27.294,3.362c2.648,2.199,3.962,5.147,4.015,9.011
					c0.029,2.236,1.908,4.056,4.188,4.056c3.137,0,5.01,4.757,5.01,12.726v8.715c0,1.381,1.119,2.5,2.5,2.5s2.5-1.119,2.5-2.5
					v-8.715C166.276,120.022,160.818,117.052,157.051,116.718z"/>
			</g>
		</g>
		<g>
			<g>
				<path d="M124.306,205.393l-6.516-10.026c-0.753-1.158-2.301-1.486-3.459-0.734c-1.157,0.752-1.486,2.301-0.734,3.458
					l6.516,10.026c0.479,0.737,1.281,1.138,2.099,1.138c0.467,0,0.939-0.131,1.36-0.404
					C124.729,208.099,125.058,206.551,124.306,205.393z"/>
			</g>
		</g>
		<g>
			<g>
				<path d="M114.99,217.25c-0.169-0.05-0.3-0.146-0.39-0.284l-9.546-14.688c-0.754-1.158-2.302-1.486-3.459-0.734
					c-1.157,0.752-1.486,2.301-0.734,3.458l9.546,14.688c0.735,1.132,1.858,1.968,3.163,2.354c0.237,0.07,0.476,0.104,0.711,0.104
					c1.079,0,2.074-0.704,2.396-1.791C117.069,219.032,116.313,217.641,114.99,217.25z"/>
			</g>
		</g>
		<g>
			<g>
				<path d="M157.475,201.657c-1.155-0.75-2.705-0.424-3.459,0.734l-9.472,14.575c-0.123,0.189-0.303,0.266-0.433,0.296
					c-1.345,0.315-2.179,1.66-1.864,3.004c0.271,1.152,1.298,1.93,2.433,1.93c0.188,0,0.381-0.021,0.572-0.066
					c1.445-0.338,2.683-1.205,3.485-2.44l9.472-14.575C158.961,203.958,158.632,202.409,157.475,201.657z"/>
			</g>
		</g>
		<g>
			<g>
				<path d="M144.813,194.632c-1.155-0.75-2.705-0.424-3.459,0.734l-6.616,10.182c-0.752,1.158-0.423,2.707,0.734,3.458
					c0.421,0.273,0.893,0.404,1.36,0.404c0.817,0,1.619-0.401,2.099-1.138l6.616-10.182
					C146.3,196.933,145.971,195.384,144.813,194.632z"/>
			</g>
		</g>
		<g>
			<g>
				<g>
					<g>
						<path d="M140.21,204.741h-21.428c-3.587,0-6.505,2.918-6.505,6.505v38.249c0,3.587,2.918,6.505,6.505,6.505h21.428
							c3.587,0,6.505-2.918,6.505-6.505v-38.249C146.715,207.659,143.797,204.741,140.21,204.741z M141.715,249.495
							c0,0.816-0.689,1.505-1.505,1.505h-21.428c-0.815,0-1.505-0.689-1.505-1.505v-38.249c0-0.816,0.689-1.505,1.505-1.505h21.428
							c0.815,0,1.505,0.689,1.505,1.505V249.495z"/>
					</g>
				</g>
			</g>
		</g>
		<g>
			<g>
				<path d="M123.188,213.152c-1.381,0-2.5,1.119-2.5,2.5v2.103c0,1.381,1.119,2.5,2.5,2.5s2.5-1.119,2.5-2.5v-2.103
					C125.688,214.271,124.569,213.152,123.188,213.152z"/>
			</g>
		</g>
		<g>
			<g>
				<g>
					<g>
						<path d="M229.302,106.814L229.302,106.814c-2.375-2.489-6.219-2.754-8.946-0.613c-2.42,1.9-6.521,4.165-12.307,4.165
							c-5.801,0-9.924-2.274-12.361-4.183c-2.723-2.131-6.563-1.864-8.942,0.631c-2.538,2.662-3.936,6.152-3.936,9.83v19.062
							c0,13.903,11.311,25.214,25.214,25.214s25.214-11.311,25.214-25.214v-19.062C233.237,112.967,231.84,109.476,229.302,106.814z
							 M228.237,135.707c0,11.146-9.068,20.214-20.214,20.214s-20.214-9.068-20.214-20.214v-19.062c0-2.387,0.907-4.652,2.563-6.388
							c0.317-0.333,0.745-0.503,1.18-0.503c0.367,0,0.739,0.122,1.054,0.367c3.057,2.393,8.217,5.246,15.443,5.246
							c7.215,0,12.354-2.845,15.395-5.232c0.689-0.542,1.652-0.484,2.239,0.131v0c1.647,1.727,2.555,3.992,2.555,6.379V135.707z"/>
					</g>
				</g>
			</g>
		</g>
		<g>
			<g>
				<path d="M232.194,115.896c-1.381,0-2.5,1.119-2.5,2.5s1.119,2.5,2.5,2.5c3.851,0,6.983,3.133,6.983,6.983
					s-3.133,6.983-6.983,6.983c-1.381,0-2.5,1.119-2.5,2.5s1.119,2.5,2.5,2.5c6.607,0,11.983-5.375,11.983-11.983
					C244.178,121.271,238.802,115.896,232.194,115.896z"/>
			</g>
		</g>
		<g>
			<g>
				<path d="M183.853,134.862c-3.851,0-6.983-3.132-6.983-6.983s3.133-6.983,6.983-6.983c1.381,0,2.5-1.119,2.5-2.5
					s-1.119-2.5-2.5-2.5c-6.607,0-11.983,5.375-11.983,11.983c0,6.607,5.376,11.983,11.983,11.983c1.381,0,2.5-1.119,2.5-2.5
					S185.233,134.862,183.853,134.862z"/>
			</g>
		</g>
		<g>
			<g>
				<path d="M231.678,96.587c-0.291-4.16-1.979-7.546-5.027-10.077c-7.362-6.115-19.998-5.036-26.875-3.848
					c-13.44,2.321-23.196,13.902-23.196,27.537v9.115c0,1.381,1.119,2.5,2.5,2.5s2.5-1.119,2.5-2.5v-9.115
					c0-11.195,8.011-20.704,19.048-22.61c10.258-1.771,18.579-0.762,22.829,2.768c2.154,1.789,3.223,4.193,3.266,7.353
					c0.03,2.102,1.793,3.812,3.931,3.812c2.421,0,3.866,3.891,3.866,10.407v7.353c0,1.381,1.119,2.5,2.5,2.5s2.5-1.119,2.5-2.5
					v-7.353C239.519,99.83,234.994,97.02,231.678,96.587z"/>
			</g>
		</g>
		<g>
			<g>
				<path d="M195.754,181.781c-0.06-0.021-0.087-0.053-0.103-0.078l-7.93-12.202c-0.753-1.159-2.302-1.486-3.459-0.734
					s-1.486,2.301-0.734,3.458l7.931,12.203c0.63,0.968,1.54,1.683,2.633,2.068c0.274,0.097,0.556,0.143,0.831,0.143
					c1.03,0,1.996-0.642,2.357-1.669C197.739,183.667,197.057,182.24,195.754,181.781z"/>
			</g>
		</g>
		<g>
			<g>
				<path d="M203.977,172.044l-5.452-8.39c-0.753-1.158-2.302-1.486-3.459-0.734s-1.486,2.301-0.734,3.458l5.452,8.39
					c0.479,0.737,1.281,1.138,2.099,1.138c0.467,0,0.939-0.131,1.36-0.404C204.399,174.75,204.729,173.202,203.977,172.044z"/>
			</g>
		</g>
		<g>
			<g>
				<path d="M231.884,168.614c-1.156-0.751-2.704-0.424-3.459,0.734l-8.029,12.356c-0.013,0.02-0.046,0.071-0.147,0.09
					c-1.356,0.256-2.249,1.563-1.993,2.92c0.227,1.2,1.276,2.037,2.454,2.037c0.154,0,0.31-0.014,0.467-0.044
					c1.421-0.268,2.633-1.078,3.413-2.279l8.029-12.355C233.37,170.915,233.041,169.366,231.884,168.614z"/>
			</g>
		</g>
		<g>
			<g>
				<path d="M221.151,162.659c-1.155-0.751-2.705-0.424-3.458,0.734l-5.358,8.245c-0.753,1.158-0.425,2.706,0.733,3.458
					c0.421,0.273,0.893,0.404,1.36,0.404c0.817,0,1.619-0.401,2.098-1.138l5.358-8.245
					C222.638,164.96,222.31,163.412,221.151,162.659z"/>
			</g>
		</g>
		<g>
			<g>
				<g>
					<g>
						<path d="M217.041,171.167h-18.164c-3.25,0-5.895,2.645-5.895,5.895v32.424c0,3.25,2.645,5.895,5.895,5.895h18.164
							c3.251,0,5.896-2.645,5.896-5.895v-32.424C222.937,173.812,220.292,171.167,217.041,171.167z M217.937,209.486
							c0,0.485-0.41,0.895-0.896,0.895h-18.164c-0.485,0-0.895-0.41-0.895-0.895v-32.424c0-0.485,0.409-0.895,0.895-0.895h18.164
							c0.485,0,0.896,0.41,0.896,0.895V209.486z"/>
					</g>
				</g>
			</g>
		</g>
		<g>
			<g>
				<g>
					<g>
						<path d="M69.255,106.814L69.255,106.814c-2.374-2.489-6.219-2.754-8.946-0.613c-2.42,1.9-6.521,4.165-12.307,4.165
							c-5.801,0-9.924-2.274-12.361-4.183c-2.722-2.131-6.563-1.864-8.942,0.631c-2.538,2.662-3.936,6.152-3.936,9.83v19.062
							c0,13.903,11.311,25.214,25.214,25.214s25.214-11.311,25.214-25.214v-19.062C73.19,112.967,71.793,109.476,69.255,106.814z
							 M68.19,135.707c0,11.146-9.068,20.214-20.214,20.214s-20.214-9.068-20.214-20.214v-19.062c0-2.387,0.907-4.652,2.563-6.388
							c0.317-0.333,0.745-0.503,1.18-0.503c0.367,0,0.739,0.122,1.054,0.367c3.057,2.393,8.217,5.246,15.443,5.246
							c7.215,0,12.354-2.845,15.395-5.232c0.689-0.542,1.652-0.484,2.239,0.131v0c1.647,1.727,2.555,3.992,2.555,6.379V135.707z"/>
					</g>
				</g>
			</g>
		</g>
		<g>
			<g>
				<path d="M72.147,115.896c-1.381,0-2.5,1.119-2.5,2.5s1.119,2.5,2.5,2.5c3.851,0,6.983,3.133,6.983,6.983
					s-3.133,6.983-6.983,6.983c-1.381,0-2.5,1.119-2.5,2.5s1.119,2.5,2.5,2.5c6.607,0,11.983-5.375,11.983-11.983
					C84.131,121.271,78.755,115.896,72.147,115.896z"/>
			</g>
		</g>
		<g>
			<g>
				<path d="M23.806,134.862c-3.851,0-6.983-3.132-6.983-6.983s3.133-6.983,6.983-6.983c1.381,0,2.5-1.119,2.5-2.5
					s-1.119-2.5-2.5-2.5c-6.607,0-11.983,5.375-11.983,11.983c0,6.607,5.376,11.983,11.983,11.983c1.381,0,2.5-1.119,2.5-2.5
					S25.187,134.862,23.806,134.862z"/>
			</g>
		</g>
		<g>
			<g>
				<path d="M71.631,96.587c-0.291-4.16-1.979-7.546-5.027-10.077c-7.362-6.115-19.998-5.036-26.875-3.848
					c-13.44,2.321-23.196,13.902-23.196,27.537v8.99c0,1.381,1.119,2.5,2.5,2.5s2.5-1.119,2.5-2.5v-8.99
					c0-11.195,8.011-20.704,19.048-22.61c10.258-1.771,18.579-0.762,22.829,2.768c2.154,1.789,3.223,4.193,3.266,7.353
					c0.03,2.102,1.793,3.812,3.931,3.812c2.421,0,3.866,3.891,3.866,10.407v7.114c0,1.381,1.119,2.5,2.5,2.5s2.5-1.119,2.5-2.5
					v-7.114C79.472,99.83,74.947,97.02,71.631,96.587z"/>
			</g>
		</g>
		<g>
			<g>
				<g>
					<g>
						<path d="M143.905,0H85.867c-9.451,0-17.141,7.689-17.141,17.141v35.217c0,9.451,7.689,17.141,17.141,17.141h3.509
							c1.198,0,2.173,0.975,2.173,2.173v4.93c0,2.066,1.178,3.853,3.073,4.663c0.647,0.276,1.329,0.411,2.005,0.411
							c1.293,0,2.567-0.492,3.543-1.425c2.267-2.169,4.287-4.688,6.003-7.488c1.253-2.042,3.372-3.262,5.67-3.262h32.063
							c9.452,0,17.142-7.689,17.142-17.141V17.141C161.047,7.689,153.357,0,143.905,0z M156.047,52.357
							c0,6.694-5.446,12.141-12.142,12.141h-32.063c-4.05,0-7.763,2.112-9.932,5.649c-1.492,2.434-3.241,4.617-5.276,6.53
							l-0.086-0.077v-4.93c0-3.955-3.218-7.173-7.173-7.173h-3.509c-6.694,0-12.141-5.446-12.141-12.141V17.141
							C73.727,10.446,79.173,5,85.867,5h58.038c6.695,0,12.142,5.446,12.142,12.141V52.357z"/>
					</g>
				</g>
			</g>
		</g>
		<g>
			<g>
				<path d="M170.133,14.571h-11.008c-1.381,0-2.5,1.119-2.5,2.5s1.119,2.5,2.5,2.5h11.008c6.694,0,12.141,5.446,12.141,12.141
					v35.217c0,6.694-5.446,12.141-12.141,12.141h-3.509c-3.955,0-7.173,3.218-7.173,7.173l-0.001,4.971l-0.163-0.006
					c-1.957-1.872-3.706-4.055-5.198-6.488c-2.169-3.537-5.882-5.649-9.932-5.649h-32.063c-3.47,0-6.79-1.514-9.109-4.154
					c-0.911-1.037-2.489-1.14-3.528-0.229c-1.037,0.912-1.139,2.491-0.228,3.528c3.268,3.721,7.957,5.854,12.865,5.854h32.063
					c2.298,0,4.417,1.22,5.67,3.262c1.716,2.8,3.736,5.319,6.003,7.488c0.976,0.934,2.25,1.426,3.543,1.426
					c0.676,0,1.357-0.134,2.005-0.411c1.896-0.81,3.073-2.597,3.073-4.663v-4.93c0-1.198,0.975-2.173,2.173-2.173h3.509
					c9.451,0,17.141-7.689,17.141-17.141V31.711C187.273,22.26,179.584,14.571,170.133,14.571z"/>
			</g>
		</g>
		<g>
			<g>
				<g>
					<g>
						<path d="M92,28c-4.411,0-8,3.589-8,8s3.589,8,8,8s8-3.589,8-8S96.411,28,92,28z M92,39c-1.654,0-3-1.346-3-3s1.346-3,3-3
							s3,1.346,3,3S93.654,39,92,39z"/>
					</g>
				</g>
			</g>
		</g>
		<g>
			<g>
				<g>
					<g>
						<path d="M115,28c-4.411,0-8,3.589-8,8s3.589,8,8,8s8-3.589,8-8S119.411,28,115,28z M115,39c-1.654,0-3-1.346-3-3s1.346-3,3-3
							s3,1.346,3,3S116.654,39,115,39z"/>
					</g>
				</g>
			</g>
		</g>
		<g>
			<g>
				<g>
					<g>
						<path d="M138,28c-4.411,0-8,3.589-8,8s3.589,8,8,8s8-3.589,8-8S142.411,28,138,28z M138,39c-1.654,0-3-1.346-3-3s1.346-3,3-3
							s3,1.346,3,3S139.654,39,138,39z"/>
					</g>
				</g>
			</g>
		</g>
	</g>
</g>
<g id="Layer_10">
</g>
<g id="Layer_11">
</g>
<g id="Layer_12">
</g>
<g id="Layer_13">
</g>
<g id="Layer_14">
</g>
<g id="Layer_15">
</g>
<g id="Layer_16">
</g>
<g id="Layer_17">
</g>
<g id="Layer_18">
</g>
<g id="Layer_19">
</g>
<g id="Layer_20">
</g>
<g id="Layer_21">
</g>
<g id="Layer_22">
</g>
<g id="Layer_23">
</g>
<g id="Layer_24">
</g>
<g id="Layer_25">
</g>
<g id="Layer_26">
</g>
<g id="Layer_27">
</g>
<g id="Layer_28">
</g>
<g id="Layer_29">
</g>
<g id="Layer_30">
</g>
<g id="Layer_31">
</g>
<g id="Layer_32">
</g>
<g id="Layer_33">
</g>
<g id="Layer_34">
</g>
<g id="Layer_35">
</g>
<g id="Layer_36">
</g>
<g id="Layer_37">
</g>
<g id="Layer_38">
</g>
<g id="Layer_39">
</g>
<g id="Layer_40">
</g>
<g id="Layer_41">
</g>
<g id="Layer_42">
</g>
<g id="Layer_43">
</g>
<g id="Layer_44">
</g>
<g id="Layer_45">
</g>
<g id="Layer_46">
</g>
<g id="Layer_47">
</g>
<g id="Layer_48">
</g>
<g id="Layer_49">
</g>
<g id="Layer_50">
</g>
<g id="Layer_51">
</g>
<g id="Layer_52">
</g>
<g id="Layer_53">
</g>
<g id="Layer_54">
</g>
<g id="Layer_55">
</g>
<g id="Layer_56">
</g>
<g id="Layer_57">
</g>
<g id="Layer_58">
</g>
<g id="Layer_59">
</g>
<g id="Layer_60">
</g>
<g id="Layer_61">
</g>
<g id="Layer_62">
</g>
<g id="Layer_63">
</g>
<g id="Layer_64">
</g>
<g id="Layer_65">
</g>
<g id="Layer_66">
</g>
<g id="Layer_67">
</g>
<g id="Layer_68">
</g>
<g id="Layer_69">
</g>
<g id="Layer_70">
</g>
<g id="Layer_71">
</g>
<g id="Layer_72">
</g>
<g id="Layer_73">
</g>
<g id="Layer_74">
</g>
<g id="Layer_75">
</g>
<g id="Layer_76">
</g>
<g id="Layer_77">
</g>
<g id="Layer_78">
</g>
<g id="Layer_79">
</g>
<g id="Layer_80">
</g>
</svg>
