<?xml version="1.0" encoding="utf-8"?>
<!-- Generator: Adobe Illustrator 24.0.0, SVG Export Plug-In . SVG Version: 6.00 Build 0)  -->
<svg version="1.1" xmlns="http://www.w3.org/2000/svg" xmlns:xlink="http://www.w3.org/1999/xlink" x="0px" y="0px"
	 viewBox="0 0 256 256" enable-background="new 0 0 256 256" xml:space="preserve">
<g id="Layer_1">
</g>
<g id="Layer_2">
</g>
<g id="Layer_3">
</g>
<g id="Layer_4">
</g>
<g id="Layer_5">
</g>
<g id="Layer_6">
</g>
<g id="Layer_7">
</g>
<g id="Layer_8">
</g>
<g id="Layer_9">
</g>
<g id="Layer_10">
</g>
<g id="Layer_11">
</g>
<g id="Layer_12">
</g>
<g id="Layer_13">
</g>
<g id="Layer_14">
</g>
<g id="Layer_15">
</g>
<g id="Layer_16">
</g>
<g id="Layer_17">
</g>
<g id="Layer_18">
</g>
<g id="Layer_19">
</g>
<g id="Layer_20">
</g>
<g id="Layer_21">
</g>
<g id="Layer_22">
</g>
<g id="Layer_23">
</g>
<g id="Layer_24">
</g>
<g id="Layer_25">
</g>
<g id="Layer_26">
</g>
<g id="Layer_27">
</g>
<g id="Layer_28">
</g>
<g id="Layer_29">
</g>
<g id="Layer_30">
</g>
<g id="Layer_31">
</g>
<g id="Layer_32">
</g>
<g id="Layer_33">
</g>
<g id="Layer_34">
</g>
<g id="Layer_35">
</g>
<g id="Layer_36">
</g>
<g id="Layer_37">
</g>
<g id="Layer_38">
</g>
<g id="Layer_39">
</g>
<g id="Layer_40">
</g>
<g id="Layer_41">
</g>
<g id="Layer_42">
</g>
<g id="Layer_43">
</g>
<g id="Layer_44">
</g>
<g id="Layer_45">
</g>
<g id="Layer_46">
</g>
<g id="Layer_47">
</g>
<g id="Layer_48">
</g>
<g id="Layer_49">
</g>
<g id="Layer_50">
</g>
<g id="Layer_51">
</g>
<g id="Layer_52">
</g>
<g id="Layer_53">
</g>
<g id="Layer_54">
</g>
<g id="Layer_55">
</g>
<g id="Layer_56">
</g>
<g id="Layer_57">
</g>
<g id="Layer_58">
</g>
<g id="Layer_59">
</g>
<g id="Layer_60">
</g>
<g id="Layer_61">
</g>
<g id="Layer_62">
</g>
<g id="Layer_63">
</g>
<g id="Layer_64">
</g>
<g id="Layer_65">
</g>
<g id="Layer_66">
</g>
<g id="Layer_67">
</g>
<g id="Layer_68">
	<g>
		<g>
			<g>
				<path fill="#FC657E" d="M66.098,68.542L43.69,76.956c-8.981,3.373-13.527,13.386-10.155,22.367l0,0
					c3.372,8.981,13.387,13.527,22.367,10.155l22.408-8.415L66.098,68.542z"/>
			</g>
		</g>
		<g>
			<g>
				<path fill="#FC657E" d="M123.642,97.8l-21.383-56.942c-1.343-3.575-5.33-5.385-8.905-4.043c-3.575,1.343-5.386,5.33-4.043,8.905
					l21.383,56.942c1.343,3.575,5.33,5.385,8.905,4.043C123.174,105.362,124.984,101.375,123.642,97.8z"/>
			</g>
		</g>
		<g>
			<g>
				<path fill="#DAE6F1" d="M84.929,117.421l-11.796-14.414L57.4,108.916l15.211,18.587c2.784,3.402,7.798,3.903,11.2,1.119
					S87.713,120.823,84.929,117.421z"/>
			</g>
		</g>
		<g>
			<g>
				<path fill="#DAE6F1" d="M125.748,64.523L125.748,64.523c-2.694-7.174-10.571-10.869-17.779-8.462l9.964,26.535
					C124.944,79.664,128.442,71.697,125.748,64.523z"/>
			</g>
		</g>
		<g>
			<g>
				<path fill="#DAE6F1" d="M91.17,50.67c-5.607,7.475-11.317,12.706-21.471,16.519l-3.601,1.352l12.213,32.522l3.601-1.352
					c10.154-3.813,17.896-3.634,27.037-1.697L91.17,50.67z"/>
			</g>
		</g>
		<g>
			<g>
				<path fill="#DAE6F1" d="M133.36,155.33l-8.647,39.663c-0.951,4.364,4.263,7.374,7.566,4.368l30.026-27.32L133.36,155.33z"/>
			</g>
		</g>
		<g>
			<g>
				<path fill="#6CADEF" d="M181.446,72.043L133.36,155.33c9.806,5.661,18.321,10.578,28.945,16.712l48.086-83.287
					C198.917,82.13,189.48,76.682,181.446,72.043z"/>
			</g>
		</g>
		<g>
			<g>
				<path fill="#6CADEF" d="M127.876,180.483l-3.163,14.51c-0.951,4.364,4.263,7.374,7.566,4.368l10.984-9.995L127.876,180.483z"/>
			</g>
		</g>
		<g>
			<g>
				<path fill="#70D6F9" d="M214.505,68.303L197.1,58.254c-3.187-1.84-7.261-0.748-9.101,2.439l-6.553,11.35l28.945,16.711
					l6.553-11.35C218.784,74.218,217.692,70.143,214.505,68.303z"/>
			</g>
		</g>
		<g>
			<g>
				<path fill="#DAE6F1" d="M218.759,46.377l-4.787-2.764c-3.633-2.097-8.278-0.853-10.375,2.78l-6.672,11.772
					c0.058,0.031,0.117,0.056,0.174,0.089l17.405,10.049c0.124,0.072,0.239,0.153,0.357,0.231l6.677-11.782
					C223.636,53.12,222.392,48.474,218.759,46.377z"/>
			</g>
		</g>
		<g>
			<g>
				<path fill="#70D6F9" d="M56.906,152.1h-2.4v-2.3c0-1.8-1.4-3.2-3.2-3.2c-1.7,0-3.2,1.4-3.2,3.1v2.4h-2.3c-1.8,0-3.2,1.4-3.2,3.2
					c-0.1,1.7,1.3,3.2,3.2,3.2h2.3v2.3c0,1.8,1.4,3.2,3.2,3.2c1.7,0,3.2-1.4,3.2-3.1v-2.4h2.3c1.8,0,3.2-1.4,3.2-3.2
					C60.006,153.6,58.606,152.1,56.906,152.1z"/>
			</g>
		</g>
		<g>
			<g>
				<path fill="#FC657E" d="M133.206,0c-1.878,0-3.4,1.522-3.4,3.4c0,1.878,1.522,3.4,3.4,3.4c1.878,0,3.4-1.522,3.4-3.4
					C136.606,1.522,135.083,0,133.206,0z"/>
			</g>
		</g>
		<g>
			<g>
				<path fill="#F5C84C" d="M67.206,174.5c-1.878,0-3.4,1.522-3.4,3.4c0,1.878,1.522,3.4,3.4,3.4c1.878,0,3.4-1.522,3.4-3.4
					C70.606,176.022,69.083,174.5,67.206,174.5z"/>
			</g>
		</g>
		<g>
			<g>
				<path fill="#87D147" d="M202.15,249.525c-3.1-0.6-5.6-3-6.2-6.1c0-0.1-0.3-0.1-0.3,0c-0.6,3.1-3.1,5.5-6.2,6.1
					c-0.1,0-0.1,0.2,0,0.3c3.1,0.6,5.6,3,6.2,6.1c0,0.1,0.3,0.1,0.3,0c0.6-3.1,3.1-5.5,6.2-6.1
					C202.25,249.725,202.25,249.525,202.15,249.525z"/>
			</g>
		</g>
		<g>
			<g>
				<path fill="#F5C84C" d="M172.15,20.2c-4.5-0.8-8-4.3-8.9-8.7c0-0.2-0.4-0.2-0.4,0c-0.9,4.4-4.4,7.9-8.9,8.7
					c-0.2,0-0.2,0.3,0,0.4c4.5,0.8,8,4.3,8.9,8.7c0,0.2,0.4,0.2,0.4,0c0.9-4.4,4.4-7.9,8.9-8.7C172.35,20.5,172.35,20.2,172.15,20.2
					z"/>
			</g>
		</g>
		<g>
			<g>
				<path d="M129.271,198.074H51.309c-1.381,0-2.5,1.119-2.5,2.5s1.119,2.5,2.5,2.5h77.962c1.381,0,2.5-1.119,2.5-2.5
					S130.651,198.074,129.271,198.074z"/>
			</g>
		</g>
		<g>
			<g>
				<path d="M181.566,212.147H51.309c-1.381,0-2.5,1.119-2.5,2.5s1.119,2.5,2.5,2.5h130.258c1.381,0,2.5-1.119,2.5-2.5
					S182.947,212.147,181.566,212.147z"/>
			</g>
		</g>
		<g>
			<g>
				<path d="M181.566,226.222H51.309c-1.381,0-2.5,1.119-2.5,2.5s1.119,2.5,2.5,2.5h130.258c1.381,0,2.5-1.119,2.5-2.5
					S182.947,226.222,181.566,226.222z"/>
			</g>
		</g>
		<g>
			<g>
				<path d="M180.224,138.976l-27.297-15.76c-1.192-0.69-2.725-0.281-3.415,0.915s-0.28,2.725,0.915,3.415l27.297,15.76
					c0.394,0.228,0.823,0.335,1.248,0.335c0.863,0,1.704-0.448,2.167-1.25C181.829,141.194,181.419,139.666,180.224,138.976z"/>
			</g>
		</g>
		<g>
			<g>
				<path d="M225.662,87.843c-0.841-3.136-2.853-5.756-5.663-7.379l-36.496-21.071c-1.194-0.689-2.725-0.281-3.415,0.915
					c-0.69,1.195-0.28,2.725,0.915,3.415l36.496,21.071c1.654,0.955,2.839,2.498,3.333,4.344c0.495,1.845,0.242,3.772-0.713,5.426
					l-26.574,46.028c-0.69,1.195-0.28,2.725,0.915,3.415c0.394,0.228,0.823,0.335,1.248,0.335c0.863,0,1.704-0.448,2.167-1.25
					l26.574-46.028C226.072,94.253,226.503,90.979,225.662,87.843z"/>
			</g>
		</g>
		<g>
			<g>
				<g>
					<g>
						<path d="M80.651,100.185L68.438,67.663c-0.485-1.293-1.927-1.945-3.219-1.462l-22.408,8.414
							c-4.969,1.866-8.914,5.555-11.107,10.388s-2.375,10.23-0.509,15.199c2.991,7.964,10.578,12.886,18.623,12.886
							c2.316,0,4.671-0.408,6.963-1.269l22.408-8.415C80.482,102.919,81.136,101.478,80.651,100.185z M55.023,107.138
							c-7.673,2.884-16.265-1.017-19.148-8.693c-1.396-3.718-1.261-7.758,0.381-11.374c1.642-3.617,4.594-6.378,8.313-7.773
							l20.068-7.535l10.455,27.84L55.023,107.138z"/>
					</g>
				</g>
			</g>
		</g>
		<g>
			<g>
				<g>
					<g>
						<g>
							<path d="M125.982,96.921L104.6,39.979c-0.884-2.354-2.632-4.224-4.922-5.263c-2.29-1.038-4.848-1.125-7.202-0.241
								c-2.354,0.884-4.224,2.632-5.264,4.922c-1.04,2.29-1.125,4.848-0.241,7.202l21.383,56.942
								c0.884,2.354,2.632,4.224,4.922,5.263c1.242,0.564,2.563,0.848,3.888,0.848c1.117,0,2.237-0.201,3.314-0.605
								c2.354-0.885,4.224-2.633,5.263-4.923C126.781,101.833,126.866,99.275,125.982,96.921z M121.188,102.056
								c-0.487,1.074-1.364,1.895-2.468,2.309c-1.105,0.417-2.303,0.374-3.377-0.112c-1.074-0.488-1.894-1.364-2.308-2.469
								L91.651,44.841c-0.415-1.104-0.374-2.304,0.113-3.377c0.488-1.074,1.364-1.894,2.468-2.308
								c0.51-0.192,1.033-0.282,1.548-0.282c1.788,0,3.474,1.093,4.138,2.862l21.382,56.942
								C121.716,99.783,121.676,100.982,121.188,102.056z"/>
						</g>
					</g>
				</g>
			</g>
		</g>
		<g>
			<g>
				<path d="M86.863,115.839L75.792,102.31c-0.874-1.069-2.449-1.226-3.518-0.352c-1.069,0.874-1.226,2.449-0.352,3.518
					l11.071,13.53c0.923,1.128,1.353,2.548,1.208,3.999s-0.846,2.758-1.975,3.682c-1.127,0.923-2.548,1.354-4,1.207
					c-1.451-0.145-2.759-0.846-3.682-1.974l-14.552-17.782c-0.874-1.069-2.449-1.226-3.518-0.352
					c-1.068,0.874-1.226,2.449-0.351,3.518l14.552,17.782c1.769,2.162,4.274,3.506,7.054,3.783c0.354,0.035,0.707,0.053,1.059,0.053
					c2.405,0,4.718-0.822,6.604-2.366c2.162-1.769,3.506-4.273,3.784-7.054S88.633,118,86.863,115.839z"/>
			</g>
		</g>
		<g>
			<g>
				<path d="M49.509,73.3l-1.945-5.18c-0.485-1.292-1.925-1.944-3.219-1.462c-1.292,0.485-1.947,1.927-1.461,3.22l1.945,5.18
					c0.376,1.003,1.329,1.622,2.341,1.622c0.292,0,0.589-0.052,0.878-0.16C49.34,76.034,49.995,74.593,49.509,73.3z"/>
			</g>
		</g>
		<g>
			<g>
				<path d="M128.088,63.645c-2.999-7.988-11.494-12.411-19.76-10.294c-1.337,0.344-2.144,1.706-1.8,3.043
					c0.343,1.338,1.705,2.141,3.042,1.801c5.792-1.482,11.737,1.614,13.837,7.208c2.094,5.576-0.33,11.817-5.639,14.518
					c-1.231,0.626-1.721,2.131-1.095,3.362c0.441,0.867,1.32,1.367,2.23,1.367c0.381,0,0.769-0.088,1.131-0.272
					C127.616,80.521,131.078,71.607,128.088,63.645z"/>
			</g>
		</g>
		<g>
			<g>
				<path d="M92.41,49.038c-1.1-0.835-2.668-0.619-3.502,0.482C83.955,56.053,78.644,61.16,68.82,64.85l-3.601,1.353
					c-1.293,0.485-1.947,1.927-1.461,3.219c0.377,1.003,1.329,1.622,2.341,1.622c0.292,0,0.589-0.052,0.878-0.161l3.601-1.352
					c10.947-4.111,16.838-9.766,22.314-16.99C93.726,51.44,93.51,49.872,92.41,49.038z"/>
			</g>
		</g>
		<g>
			<g>
				<path d="M108.767,95.423c-10.383-2.113-18.419-1.55-27.734,1.947l-3.601,1.353c-1.292,0.486-1.947,1.928-1.461,3.22
					c0.376,1.003,1.329,1.622,2.341,1.622c0.292,0,0.589-0.052,0.878-0.16l3.601-1.353c9.766-3.669,17.048-3.345,24.979-1.729
					c1.359,0.276,2.674-0.598,2.949-1.951C110.993,97.019,110.12,95.699,108.767,95.423z"/>
			</g>
		</g>
		<g>
			<g>
				<path d="M147.646,54.81c-0.511-1.283-1.962-1.912-3.247-1.397l-7.143,2.844c-1.283,0.511-1.908,1.964-1.397,3.247
					c0.39,0.979,1.329,1.576,2.323,1.576c0.308,0,0.62-0.058,0.924-0.179l7.143-2.844C147.532,57.546,148.157,56.093,147.646,54.81z
					"/>
			</g>
		</g>
		<g>
			<g>
				<path d="M134.585,37.29c-1.086-0.857-2.658-0.67-3.512,0.412l-4.764,6.033c-0.856,1.084-0.671,2.656,0.413,3.512
					c0.459,0.362,1.005,0.538,1.548,0.538c0.738,0,1.47-0.326,1.964-0.95l4.764-6.033C135.853,39.718,135.668,38.146,134.585,37.29z
					"/>
			</g>
		</g>
		<g>
			<g>
				<path d="M148.086,73.681l-7.607-1.109c-1.364-0.194-2.635,0.746-2.834,2.113c-0.199,1.366,0.747,2.635,2.113,2.834l7.607,1.109
					c0.122,0.018,0.243,0.026,0.363,0.026c1.221,0,2.289-0.896,2.471-2.14C150.398,75.148,149.452,73.88,148.086,73.681z"/>
			</g>
		</g>
		<g>
			<g>
				<path d="M164.153,170.358c-0.929-1.02-2.508-1.097-3.531-0.166l-30.025,27.319c-1.043,0.953-2.137,0.442-2.446,0.265
					c-0.31-0.179-1.296-0.869-0.995-2.251l8.647-39.663c0.294-1.349-0.561-2.681-1.91-2.975c-1.349-0.295-2.681,0.562-2.975,1.91
					l-8.648,39.663c-0.669,3.072,0.657,6.073,3.38,7.646c1.132,0.653,2.357,0.975,3.57,0.975c1.704,0,3.382-0.635,4.741-1.871
					l30.025-27.32C165.009,172.961,165.083,171.38,164.153,170.358z"/>
			</g>
		</g>
		<g>
			<g>
				<g>
					<g>
						<path d="M211.641,86.59l-28.945-16.712c-0.574-0.332-1.256-0.42-1.897-0.25c-0.64,0.172-1.187,0.591-1.518,1.165
							l-48.085,83.287c-0.332,0.574-0.421,1.257-0.25,1.897c0.172,0.64,0.591,1.187,1.165,1.518l28.944,16.711
							c0.394,0.228,0.823,0.335,1.248,0.335c0.863,0,1.704-0.448,2.167-1.25l48.086-83.286
							C213.246,88.81,212.836,87.28,211.641,86.59z M161.39,168.626l-24.614-14.211l45.585-78.957l24.615,14.212L161.39,168.626z"/>
					</g>
				</g>
			</g>
		</g>
		<g>
			<g>
				<path d="M143.803,186.791l-13.824-7.98c-1.195-0.69-2.725-0.28-3.415,0.915c-0.69,1.196-0.281,2.725,0.915,3.415l13.824,7.98
					c0.394,0.228,0.823,0.335,1.248,0.335c0.863,0,1.704-0.448,2.167-1.25C145.408,189.01,144.998,187.481,143.803,186.791z"/>
			</g>
		</g>
		<g>
			<g>
				<path d="M215.755,66.138L198.35,56.089c-2.12-1.225-4.587-1.551-6.953-0.915c-2.364,0.634-4.34,2.15-5.563,4.27l-6.554,11.35
					c-0.69,1.195-0.281,2.725,0.915,3.415c1.192,0.689,2.725,0.281,3.415-0.915l6.554-11.351c0.556-0.963,1.453-1.651,2.527-1.939
					c1.072-0.287,2.195-0.14,3.158,0.416l17.405,10.049c0.963,0.556,1.651,1.453,1.939,2.527s0.14,2.196-0.416,3.159l-6.553,11.351
					c-0.69,1.196-0.28,2.725,0.915,3.415c0.394,0.228,0.823,0.335,1.248,0.335c0.863,0,1.704-0.448,2.167-1.25l6.553-11.351
					C221.635,74.279,220.13,68.664,215.755,66.138z"/>
			</g>
		</g>
		<g>
			<g>
				<path d="M224.713,50.342c-0.698-2.604-2.369-4.781-4.704-6.13l-4.787-2.764c-4.818-2.782-11.007-1.127-13.8,3.712l-6.216,10.969
					c-0.681,1.201-0.259,2.727,0.942,3.407s2.727,0.259,3.407-0.942l6.206-10.951c1.405-2.433,4.527-3.271,6.96-1.864l4.787,2.764
					c1.179,0.681,2.022,1.779,2.374,3.094c0.353,1.314,0.172,2.688-0.519,3.884l-6.184,10.911c-0.681,1.201-0.259,2.727,0.942,3.407
					c0.389,0.221,0.813,0.325,1.23,0.325c0.871,0,1.717-0.455,2.177-1.268l6.174-10.894
					C225.053,55.667,225.411,52.946,224.713,50.342z"/>
			</g>
		</g>
	</g>
</g>
<g id="Layer_69">
</g>
<g id="Layer_70">
</g>
<g id="Layer_71">
</g>
<g id="Layer_72">
</g>
<g id="Layer_73">
</g>
<g id="Layer_74">
</g>
<g id="Layer_75">
</g>
<g id="Layer_76">
</g>
<g id="Layer_77">
</g>
<g id="Layer_78">
</g>
<g id="Layer_79">
</g>
<g id="Layer_80">
</g>
</svg>
