<?xml version="1.0" encoding="utf-8"?>
<!-- Generator: Adobe Illustrator 24.0.0, SVG Export Plug-In . SVG Version: 6.00 Build 0)  -->
<svg version="1.1" xmlns="http://www.w3.org/2000/svg" xmlns:xlink="http://www.w3.org/1999/xlink" x="0px" y="0px"
	 viewBox="0 0 256 256" enable-background="new 0 0 256 256" xml:space="preserve">
<g id="Layer_1">
</g>
<g id="Layer_2">
</g>
<g id="Layer_3">
</g>
<g id="Layer_4">
</g>
<g id="Layer_5">
</g>
<g id="Layer_6">
</g>
<g id="Layer_7">
</g>
<g id="Layer_8">
</g>
<g id="Layer_9">
</g>
<g id="Layer_10">
</g>
<g id="Layer_11">
</g>
<g id="Layer_12">
</g>
<g id="Layer_13">
</g>
<g id="Layer_14">
</g>
<g id="Layer_15">
</g>
<g id="Layer_16">
</g>
<g id="Layer_17">
</g>
<g id="Layer_18">
</g>
<g id="Layer_19">
</g>
<g id="Layer_20">
</g>
<g id="Layer_21">
</g>
<g id="Layer_22">
</g>
<g id="Layer_23">
</g>
<g id="Layer_24">
</g>
<g id="Layer_25">
</g>
<g id="Layer_26">
</g>
<g id="Layer_27">
</g>
<g id="Layer_28">
</g>
<g id="Layer_29">
</g>
<g id="Layer_30">
</g>
<g id="Layer_31">
</g>
<g id="Layer_32">
</g>
<g id="Layer_33">
</g>
<g id="Layer_34">
</g>
<g id="Layer_35">
</g>
<g id="Layer_36">
</g>
<g id="Layer_37">
</g>
<g id="Layer_38">
</g>
<g id="Layer_39">
</g>
<g id="Layer_40">
</g>
<g id="Layer_41">
</g>
<g id="Layer_42">
</g>
<g id="Layer_43">
</g>
<g id="Layer_44">
</g>
<g id="Layer_45">
</g>
<g id="Layer_46">
</g>
<g id="Layer_47">
</g>
<g id="Layer_48">
</g>
<g id="Layer_49">
</g>
<g id="Layer_50">
</g>
<g id="Layer_51">
</g>
<g id="Layer_52">
</g>
<g id="Layer_53">
</g>
<g id="Layer_54">
</g>
<g id="Layer_55">
</g>
<g id="Layer_56">
	<g>
		<g>
			<g>
				<path fill="#70D6F9" d="M119.671,27.278H48.413c-9.886,0-17.975,8.089-17.975,17.975v51.238c0,9.886,8.089,17.975,17.975,17.975
					h39.366c3.936,0,7.52,2.115,9.578,5.47c1.802,2.939,4.057,5.883,6.876,8.58c2.03,1.942,5.394,0.549,5.394-2.26v-6.053
					c0-3.168,2.569-5.737,5.737-5.737h4.308c9.886,0,17.975-8.089,17.975-17.975V45.253
					C137.647,35.367,129.558,27.278,119.671,27.278z"/>
			</g>
		</g>
		<g>
			<g>
				
					<rect x="131.454" y="122.042" transform="matrix(0.5 -0.866 0.866 0.5 -20.746 219.2925)" fill="#F5C84C" width="96.171" height="11.141"/>
			</g>
		</g>
		<g>
			<g>
				
					<rect x="121.806" y="116.472" transform="matrix(0.5 -0.866 0.866 0.5 -20.7461 208.1513)" fill="#FCA265" width="96.171" height="11.141"/>
			</g>
		</g>
		<g>
			<g>
				
					<rect x="112.157" y="110.901" transform="matrix(0.5 -0.866 0.866 0.5 -20.7462 197.0102)" fill="#FC8C48" width="96.171" height="11.141"/>
			</g>
		</g>
		<g>
			<g>
				<path fill="#FCE4BE" d="M131.376,155.33l-8.647,39.663c-0.951,4.364,4.263,7.374,7.566,4.368l30.026-27.32L131.376,155.33z"/>
			</g>
		</g>
		<g>
			<g>
				<path fill="#FC657E" d="M219.434,45.149l-7.723-4.459c-5.86-3.383-13.354-1.375-16.737,4.485l-5.628,9.748l28.945,16.712
					l5.628-9.748C227.302,56.026,225.294,48.533,219.434,45.149z"/>
			</g>
		</g>
		<g>
			<g>
				<path fill="#DAE6F1" d="M189.346,54.923l-9.884,17.12c9.907,5.72,18.365,10.603,28.945,16.711l9.884-17.12
					C208.384,65.915,199.926,61.032,189.346,54.923z"/>
			</g>
		</g>
		<g>
			<g>
				<circle fill="#DAE6F1" cx="111.518" cy="72.778" r="6.476"/>
			</g>
		</g>
		<g>
			<g>
				
					<ellipse transform="matrix(0.3827 -0.9239 0.9239 0.3827 -15.1134 122.9373)" fill="#DAE6F1" cx="84.438" cy="72.778" rx="6.476" ry="6.476"/>
			</g>
		</g>
		<g>
			<g>
				
					<ellipse transform="matrix(0.3827 -0.9239 0.9239 0.3827 -31.8307 97.9181)" fill="#DAE6F1" cx="57.357" cy="72.778" rx="6.476" ry="6.476"/>
			</g>
		</g>
		<g>
			<g>
				<path fill="#818182" d="M126.597,177.249l-3.869,17.745c-0.951,4.364,4.263,7.374,7.566,4.368l13.433-12.222L126.597,177.249z"
					/>
			</g>
		</g>
		<g>
			<g>
				<path fill="#70D6F9" d="M56.906,152.1h-2.4v-2.3c0-1.8-1.4-3.2-3.2-3.2c-1.7,0-3.2,1.4-3.2,3.1v2.4h-2.3c-1.8,0-3.2,1.4-3.2,3.2
					c-0.1,1.7,1.3,3.2,3.2,3.2h2.3v2.3c0,1.8,1.4,3.2,3.2,3.2c1.7,0,3.2-1.4,3.2-3.1v-2.4h2.3c1.8,0,3.2-1.4,3.2-3.2
					C60.006,153.6,58.606,152.1,56.906,152.1z"/>
			</g>
		</g>
		<g>
			<g>
				<path fill="#FC657E" d="M133.206,0c-1.878,0-3.4,1.522-3.4,3.4c0,1.878,1.522,3.4,3.4,3.4c1.878,0,3.4-1.522,3.4-3.4
					C136.606,1.522,135.083,0,133.206,0z"/>
			</g>
		</g>
		<g>
			<g>
				<path fill="#F5C84C" d="M67.206,174.5c-1.878,0-3.4,1.522-3.4,3.4c0,1.878,1.522,3.4,3.4,3.4s3.4-1.522,3.4-3.4
					C70.606,176.022,69.083,174.5,67.206,174.5z"/>
			</g>
		</g>
		<g>
			<g>
				<path fill="#87D147" d="M202.15,249.525c-3.1-0.6-5.6-3-6.2-6.1c0-0.1-0.3-0.1-0.3,0c-0.6,3.1-3.1,5.5-6.2,6.1
					c-0.1,0-0.1,0.2,0,0.3c3.1,0.6,5.6,3,6.2,6.1c0,0.1,0.3,0.1,0.3,0c0.6-3.1,3.1-5.5,6.2-6.1
					C202.25,249.725,202.25,249.525,202.15,249.525z"/>
			</g>
		</g>
		<g>
			<g>
				<path fill="#F5C84C" d="M172.15,20.2c-4.5-0.8-8-4.3-8.9-8.7c0-0.2-0.4-0.2-0.4,0c-0.9,4.4-4.4,7.9-8.9,8.7
					c-0.2,0-0.2,0.3,0,0.4c4.5,0.8,8,4.3,8.9,8.7c0,0.2,0.4,0.2,0.4,0c0.9-4.4,4.4-7.9,8.9-8.7C172.35,20.5,172.35,20.2,172.15,20.2
					z"/>
			</g>
		</g>
		<g>
			<g>
				<g>
					<g>
						<path d="M119.671,24.778H48.413c-11.29,0-20.476,9.185-20.476,20.475v51.238c0,11.29,9.186,20.476,20.476,20.476h39.366
							c3.021,0,5.804,1.599,7.446,4.276c2.082,3.397,4.531,6.452,7.279,9.08c1.089,1.042,2.512,1.592,3.957,1.592
							c0.755,0,1.516-0.149,2.237-0.458c2.114-0.903,3.428-2.896,3.428-5.201v-6.052c0-1.785,1.452-3.237,3.237-3.237h4.308
							c11.29,0,20.475-9.186,20.475-20.476V45.253C140.146,33.963,130.961,24.778,119.671,24.778z M135.146,96.491
							c0,8.533-6.942,15.476-15.475,15.476h-4.308c-4.542,0-8.237,3.695-8.237,8.237v6.052c0,0.289-0.132,0.492-0.392,0.603
							c-0.159,0.068-0.473,0.141-0.773-0.148c-2.438-2.331-4.615-5.05-6.473-8.08c-2.559-4.172-6.936-6.663-11.709-6.663H48.413
							c-8.533,0-15.476-6.942-15.476-15.476V45.253c0-8.533,6.942-15.475,15.476-15.475h71.258c8.533,0,15.475,6.941,15.475,15.475
							V96.491z"/>
					</g>
				</g>
			</g>
		</g>
		<g>
			<g>
				<path d="M199.401,82.07c-1.197-0.692-2.726-0.28-3.415,0.915l-46.997,81.4c-0.69,1.195-0.281,2.725,0.915,3.415
					c0.394,0.228,0.824,0.335,1.248,0.335c0.864,0,1.705-0.448,2.167-1.25l46.997-81.4C201.007,84.29,200.597,82.761,199.401,82.07z
					"/>
			</g>
		</g>
		<g>
			<g>
				<path d="M209.657,86.59c-1.196-0.691-2.726-0.28-3.415,0.915l-48.085,83.286c-0.69,1.195-0.281,2.725,0.915,3.415
					c0.394,0.228,0.824,0.335,1.248,0.335c0.864,0,1.705-0.448,2.167-1.25l48.085-83.286C211.262,88.81,210.853,87.28,209.657,86.59
					z"/>
			</g>
		</g>
		<g>
			<g>
				<path d="M189.909,76.229c-1.197-0.693-2.726-0.28-3.415,0.915l-47.191,81.738c-0.69,1.195-0.281,2.725,0.915,3.415
					c0.394,0.228,0.824,0.335,1.248,0.335c0.864,0,1.705-0.448,2.167-1.25l47.191-81.738
					C191.515,78.448,191.105,76.919,189.909,76.229z"/>
			</g>
		</g>
		<g>
			<g>
				<path d="M180.711,69.878c-1.197-0.692-2.725-0.28-3.415,0.915l-48.085,83.287c-0.69,1.195-0.281,2.725,0.915,3.415
					c0.394,0.228,0.824,0.335,1.248,0.335c0.864,0,1.705-0.448,2.167-1.25l48.085-83.287
					C182.317,72.098,181.907,70.568,180.711,69.878z"/>
			</g>
		</g>
		<g>
			<g>
				<g>
					<g>
						<path d="M161.571,169.876l-28.945-16.711c-0.69-0.399-1.531-0.444-2.261-0.121c-0.73,0.322-1.262,0.974-1.432,1.754
							l-8.646,39.663c-0.67,3.072,0.656,6.073,3.379,7.645c1.132,0.654,2.357,0.976,3.57,0.976c1.704,0,3.382-0.635,4.741-1.871
							l30.026-27.32c0.59-0.536,0.889-1.323,0.803-2.116C162.721,170.979,162.262,170.275,161.571,169.876z M128.612,197.512
							c-1.046,0.953-2.137,0.442-2.446,0.264c-0.31-0.178-1.295-0.868-0.995-2.25l7.918-36.319l23.017,13.289L128.612,197.512z"/>
					</g>
				</g>
			</g>
		</g>
		<g>
			<g>
				<path d="M220.684,42.984l-7.723-4.459c-3.412-1.971-7.389-2.492-11.194-1.475c-3.806,1.021-6.987,3.461-8.958,6.874
					l-5.628,9.748c-0.69,1.195-0.281,2.725,0.915,3.415c1.195,0.69,2.725,0.279,3.415-0.915l5.628-9.748
					c1.303-2.256,3.406-3.87,5.922-4.544c2.517-0.672,5.145-0.327,7.4,0.975l7.723,4.459c4.657,2.688,6.258,8.665,3.57,13.322
					l-5.628,9.748c-0.69,1.195-0.281,2.725,0.915,3.415c0.394,0.228,0.824,0.335,1.248,0.335c0.864,0,1.705-0.448,2.167-1.25
					l5.628-9.748C230.151,56.092,227.729,47.052,220.684,42.984z"/>
			</g>
		</g>
		<g>
			<g>
				<g>
					<g>
						<path d="M220.706,70.987c-0.172-0.64-0.591-1.187-1.165-1.518l-28.945-16.712c-0.575-0.332-1.256-0.421-1.897-0.25
							c-0.641,0.172-1.187,0.591-1.518,1.165l-9.884,17.12c-0.69,1.195-0.281,2.725,0.915,3.415l28.945,16.712
							c0.394,0.228,0.824,0.335,1.248,0.335c0.864,0,1.705-0.448,2.167-1.25l9.884-17.12
							C220.788,72.311,220.877,71.628,220.706,70.987z M207.492,85.34l-24.615-14.212l7.384-12.79l24.615,14.212L207.492,85.34z"/>
					</g>
				</g>
			</g>
		</g>
		<g>
			<g>
				<path d="M213.255,77.254L186.418,61.76c-1.197-0.693-2.725-0.28-3.415,0.915c-0.69,1.195-0.281,2.725,0.915,3.415l26.837,15.494
					c0.394,0.228,0.824,0.335,1.248,0.335c0.864,0,1.705-0.448,2.167-1.25C214.861,79.474,214.451,77.944,213.255,77.254z"/>
			</g>
		</g>
		<g>
			<g>
				<path d="M126.271,198.074H51.309c-1.381,0-2.5,1.119-2.5,2.5s1.119,2.5,2.5,2.5h74.962c1.381,0,2.5-1.119,2.5-2.5
					S127.651,198.074,126.271,198.074z"/>
			</g>
		</g>
		<g>
			<g>
				<path d="M181.566,212.147H51.309c-1.381,0-2.5,1.119-2.5,2.5s1.119,2.5,2.5,2.5h130.258c1.381,0,2.5-1.119,2.5-2.5
					S182.947,212.147,181.566,212.147z"/>
			</g>
		</g>
		<g>
			<g>
				<path d="M181.566,226.222H51.309c-1.381,0-2.5,1.119-2.5,2.5s1.119,2.5,2.5,2.5h130.258c1.381,0,2.5-1.119,2.5-2.5
					S182.947,226.222,181.566,226.222z"/>
			</g>
		</g>
		<g>
			<g>
				<g>
					<g>
						<path d="M111.518,63.802c-4.949,0-8.976,4.027-8.976,8.977s4.026,8.976,8.976,8.976s8.976-4.026,8.976-8.976
							S116.467,63.802,111.518,63.802z M111.518,76.754c-2.192,0-3.976-1.783-3.976-3.976s1.783-3.977,3.976-3.977
							s3.976,1.784,3.976,3.977S113.71,76.754,111.518,76.754z"/>
					</g>
				</g>
			</g>
		</g>
		<g>
			<g>
				<g>
					<g>
						<path d="M84.438,63.802c-4.949,0-8.976,4.027-8.976,8.977s4.026,8.976,8.976,8.976s8.976-4.026,8.976-8.976
							S89.387,63.802,84.438,63.802z M84.438,76.754c-2.192,0-3.976-1.783-3.976-3.976s1.783-3.977,3.976-3.977
							s3.976,1.784,3.976,3.977S86.63,76.754,84.438,76.754z"/>
					</g>
				</g>
			</g>
		</g>
		<g>
			<g>
				<g>
					<g>
						<path d="M57.357,63.802c-4.949,0-8.976,4.027-8.976,8.977s4.026,8.976,8.976,8.976s8.976-4.026,8.976-8.976
							S62.306,63.802,57.357,63.802z M57.357,76.754c-2.192,0-3.976-1.783-3.976-3.976s1.783-3.977,3.976-3.977
							s3.976,1.784,3.976,3.977S59.549,76.754,57.357,76.754z"/>
					</g>
				</g>
			</g>
		</g>
		<g>
			<g>
				<path d="M144.437,184.662l-15.564-8.986c-1.196-0.692-2.726-0.28-3.415,0.915c-0.69,1.195-0.281,2.725,0.915,3.415l15.564,8.986
					c0.394,0.228,0.824,0.335,1.248,0.335c0.864,0,1.705-0.448,2.167-1.25C146.042,186.882,145.633,185.353,144.437,184.662z"/>
			</g>
		</g>
	</g>
</g>
<g id="Layer_57">
</g>
<g id="Layer_58">
</g>
<g id="Layer_59">
</g>
<g id="Layer_60">
</g>
<g id="Layer_61">
</g>
<g id="Layer_62">
</g>
<g id="Layer_63">
</g>
<g id="Layer_64">
</g>
<g id="Layer_65">
</g>
<g id="Layer_66">
</g>
<g id="Layer_67">
</g>
<g id="Layer_68">
</g>
<g id="Layer_69">
</g>
<g id="Layer_70">
</g>
<g id="Layer_71">
</g>
<g id="Layer_72">
</g>
<g id="Layer_73">
</g>
<g id="Layer_74">
</g>
<g id="Layer_75">
</g>
<g id="Layer_76">
</g>
<g id="Layer_77">
</g>
<g id="Layer_78">
</g>
<g id="Layer_79">
</g>
<g id="Layer_80">
</g>
</svg>
