<?xml version="1.0" encoding="utf-8"?>
<!-- Generator: Adobe Illustrator 24.0.0, SVG Export Plug-In . SVG Version: 6.00 Build 0)  -->
<svg version="1.1" xmlns="http://www.w3.org/2000/svg" xmlns:xlink="http://www.w3.org/1999/xlink" x="0px" y="0px"
	 viewBox="0 0 256 256" enable-background="new 0 0 256 256" xml:space="preserve">
<g id="Layer_1">
</g>
<g id="Layer_2">
</g>
<g id="Layer_3">
</g>
<g id="Layer_4">
</g>
<g id="Layer_5">
</g>
<g id="Layer_6">
</g>
<g id="Layer_7">
</g>
<g id="Layer_8">
</g>
<g id="Layer_9">
</g>
<g id="Layer_10">
</g>
<g id="Layer_11">
</g>
<g id="Layer_12">
</g>
<g id="Layer_13">
</g>
<g id="Layer_14">
</g>
<g id="Layer_15">
</g>
<g id="Layer_16">
</g>
<g id="Layer_17">
</g>
<g id="Layer_18">
</g>
<g id="Layer_19">
</g>
<g id="Layer_20">
</g>
<g id="Layer_21">
</g>
<g id="Layer_22">
</g>
<g id="Layer_23">
</g>
<g id="Layer_24">
</g>
<g id="Layer_25">
</g>
<g id="Layer_26">
</g>
<g id="Layer_27">
</g>
<g id="Layer_28">
</g>
<g id="Layer_29">
</g>
<g id="Layer_30">
</g>
<g id="Layer_31">
</g>
<g id="Layer_32">
</g>
<g id="Layer_33">
</g>
<g id="Layer_34">
</g>
<g id="Layer_35">
</g>
<g id="Layer_36">
</g>
<g id="Layer_37">
</g>
<g id="Layer_38">
</g>
<g id="Layer_39">
</g>
<g id="Layer_40">
</g>
<g id="Layer_41">
</g>
<g id="Layer_42">
</g>
<g id="Layer_43">
</g>
<g id="Layer_44">
</g>
<g id="Layer_45">
</g>
<g id="Layer_46">
</g>
<g id="Layer_47">
</g>
<g id="Layer_48">
</g>
<g id="Layer_49">
</g>
<g id="Layer_50">
</g>
<g id="Layer_51">
</g>
<g id="Layer_52">
</g>
<g id="Layer_53">
</g>
<g id="Layer_54">
</g>
<g id="Layer_55">
</g>
<g id="Layer_56">
</g>
<g id="Layer_57">
</g>
<g id="Layer_58">
</g>
<g id="Layer_59">
</g>
<g id="Layer_60">
</g>
<g id="Layer_61">
</g>
<g id="Layer_62">
</g>
<g id="Layer_63">
</g>
<g id="Layer_64">
</g>
<g id="Layer_65">
</g>
<g id="Layer_66">
</g>
<g id="Layer_67">
</g>
<g id="Layer_68">
</g>
<g id="Layer_69">
	<g>
		<g>
			<g>
				<path fill="#F9D0B4" d="M161.93,59.927c-2.589-2.715-6.797-2.964-9.748-0.648c-4.665,3.662-12.737,8.188-24.139,8.188
					c-11.429,0-19.544-4.548-24.229-8.215c-2.948-2.307-7.148-2.049-9.731,0.661l-0.013,0.014c-3.63,3.807-5.655,8.865-5.655,14.125
					v33.222c0,21.772,17.813,39.585,39.585,39.585h0c21.772,0,39.585-17.813,39.585-39.585V74.052
					C167.585,68.792,165.56,63.734,161.93,59.927z"/>
			</g>
		</g>
		<g>
			<g>
				<path fill="#F9D0B4" d="M170.125,77.104c-0.865,0-1.712,0.073-2.54,0.201v29.968c0,0.893-0.041,1.776-0.1,2.655
					c0.862,0.139,1.739,0.23,2.64,0.23c9.128,0,16.527-7.399,16.527-16.527S179.253,77.104,170.125,77.104z"/>
			</g>
		</g>
		<g>
			<g>
				<path fill="#F9D0B4" d="M88.415,107.273V77.306c-0.829-0.129-1.675-0.201-2.54-0.201c-9.128,0-16.527,7.399-16.527,16.527
					s7.399,16.527,16.527,16.527c0.901,0,1.778-0.092,2.64-0.23v-0.001C88.456,109.049,88.415,108.166,88.415,107.273z"/>
			</g>
		</g>
		<g>
			<g>
				<path fill="#5B5D60" d="M167.437,43.338c-1.326,0-2.475-1.022-2.493-2.348c-0.304-22.058-25.492-26.201-50.577-21.87
					c-21.268,3.673-36.812,22.115-36.812,43.698v16.55c2.446-1.43,5.282-2.263,8.319-2.263c0.865,0,1.712,0.073,2.54,0.201v-3.254
					c0-5.26,2.025-10.318,5.655-14.125l0.013-0.014c2.583-2.709,6.783-2.968,9.731-0.661c4.685,3.667,12.8,8.215,24.229,8.215
					c11.401,0,19.474-4.526,24.139-8.188c2.95-2.316,7.159-2.066,9.748,0.648c3.63,3.807,5.655,8.865,5.655,14.125v3.254
					c0.828-0.129,1.676-0.201,2.54-0.201c3.074,0,5.942,0.854,8.407,2.316V65.833C178.532,46.081,171.4,43.338,167.437,43.338z"/>
			</g>
		</g>
		<g>
			<g>
				<path fill="#EDF4FC" d="M155.012,154.594c-1.224-1.069-3.083-0.943-4.151,0.281l-16.498,18.889
					c-1.069,1.224-0.943,3.083,0.281,4.151l8.87,7.747c1.224,1.069,3.083,0.944,4.151-0.28l8.175-9.36l2.249-14.018
					c0.218-1.36,1.324-2.321,2.596-2.456L155.012,154.594z"/>
			</g>
		</g>
		<g>
			<g>
				<path fill="#EDF4FC" d="M121.638,173.764l-16.498-18.889c-1.069-1.224-2.928-1.349-4.152-0.281l-5.672,4.954
					c1.273,0.135,2.378,1.095,2.596,2.456l2.249,14.018l8.175,9.36c1.069,1.224,2.928,1.35,4.151,0.28l8.87-7.747
					C122.581,176.846,122.707,174.988,121.638,173.764z"/>
			</g>
		</g>
		<g>
			<g>
				<path fill="#DAE6F1" d="M147.664,185.382c-1.069,1.224-2.927,1.349-4.151,0.28l-8.87-7.747c-1.224-1.069-1.349-2.928-0.28-4.151
					l14.623-16.742c-1.748-2.326-2.749-5.191-2.749-8.212v-6.442c-5.467,2.862-11.669,4.492-18.237,4.492s-12.77-1.63-18.237-4.492
					v6.442c0,3.021-1.001,5.886-2.748,8.212l14.623,16.742c1.069,1.224,0.943,3.083-0.28,4.151l-8.87,7.747
					c-1.224,1.069-3.083,0.943-4.151-0.28l-8.175-9.36l7.295,45.478h41.088l7.295-45.478L147.664,185.382z"/>
			</g>
		</g>
		<g>
			<g>
				<path fill="#F9D0B4" d="M148.985,157.021c-1.748-2.326-2.749-5.191-2.749-8.212v-6.442c-5.467,2.862-11.669,4.492-18.237,4.492
					h0c-6.568,0-12.77-1.63-18.237-4.492v6.442c0,3.021-1.001,5.886-2.749,8.212l14.623,16.742c0.611,0.699,0.819,1.605,0.667,2.453
					h11.39c-0.152-0.849,0.056-1.754,0.667-2.453L148.985,157.021z"/>
			</g>
		</g>
		<g>
			<g>
				<path fill="#3A70BF" d="M97.912,162.004c-0.287-1.791-2.112-2.898-3.833-2.324l-25.883,8.628
					c-8.771,2.924-15.034,10.69-16.033,19.881L48.541,221.5h58.915L97.912,162.004z"/>
			</g>
		</g>
		<g>
			<g>
				<path fill="#3A70BF" d="M203.838,188.189c-0.999-9.191-7.262-16.957-16.033-19.881l-25.883-8.628
					c-1.721-0.574-3.546,0.533-3.833,2.324l-9.544,59.496h58.915L203.838,188.189z"/>
			</g>
		</g>
		<g>
			<g>
				<path fill="#5290DB" d="M69.543,138.458c-2.23-2.448-6.028-2.624-8.476-0.392l-8.352,7.614
					c-2.449,2.232-2.624,6.027-0.392,8.476c2.226,2.442,6.022,2.631,8.476,0.392l8.352-7.614
					C71.601,144.701,71.775,140.906,69.543,138.458z"/>
			</g>
		</g>
		<g>
			<g>
				<path fill="#5290DB" d="M203.284,145.681l-8.352-7.614c-2.447-2.232-6.245-2.057-8.476,0.392
					c-2.232,2.448-2.058,6.243,0.392,8.476l8.352,7.614c2.454,2.239,6.25,2.051,8.476-0.392
					C205.908,151.708,205.733,147.913,203.284,145.681z"/>
			</g>
		</g>
		<g>
			<g>
				<path fill="#C18E6B" d="M239.963,221.5H16.037c-1.833,0-3.318,1.486-3.318,3.318v10.363c0,1.833,1.486,3.318,3.318,3.318
					h223.926c1.833,0,3.318-1.486,3.318-3.318v-10.363C243.281,222.986,241.796,221.5,239.963,221.5z"/>
			</g>
		</g>
		<g>
			<g>
				<rect x="20.451" y="238.5" fill="#A57453" width="215.098" height="15"/>
			</g>
		</g>
		<g>
			<g>
				<polygon fill="#FC657E" points="135.26,192.812 120.74,192.812 117.924,221.5 138.076,221.5 				"/>
			</g>
		</g>
		<g>
			<g>
				<path fill="#F98FA6" d="M134.643,177.915c-0.524-0.458-0.834-1.063-0.947-1.698h-11.39c-0.114,0.635-0.423,1.24-0.947,1.698
					l-5.214,4.554l4.597,10.342h14.521l4.597-10.343L134.643,177.915z"/>
			</g>
		</g>
		<g>
			<g>
				<path fill="#5290DB" d="M93.38,221.5h14.076l-9.544-59.496c-0.287-1.791-2.112-2.898-3.833-2.324l-8.676,2.892v40.293
					c0,2.738,1.547,5.241,3.996,6.465l4.806,2.403c1.983,0.991,2.734,3.44,1.647,5.373L93.38,221.5z"/>
			</g>
		</g>
		<g>
			<g>
				<path fill="#5290DB" d="M161.921,159.68c-1.721-0.574-3.546,0.533-3.833,2.324l-9.544,59.496h14.076l-2.471-4.393
					c-1.087-1.933-0.336-4.382,1.647-5.373l4.806-2.403c2.449-1.224,3.996-3.727,3.996-6.465v-40.293L161.921,159.68z"/>
			</g>
		</g>
		<g>
			<g>
				<path fill="#70D6F9" d="M56.906,31.1h-2.4v-2.3c0-1.8-1.4-3.2-3.2-3.2c-1.7,0-3.2,1.4-3.2,3.1v2.4h-2.3c-1.8,0-3.2,1.4-3.2,3.2
					c-0.1,1.7,1.3,3.2,3.2,3.2h2.3v2.3c0,1.8,1.4,3.2,3.2,3.2c1.7,0,3.2-1.4,3.2-3.1v-2.4h2.3c1.8,0,3.2-1.4,3.2-3.2
					C60.006,32.6,58.606,31.1,56.906,31.1z"/>
			</g>
		</g>
		<g>
			<g>
				<path fill="#87D147" d="M216.206,124.5c-1.878,0-3.4,1.522-3.4,3.4c0,1.878,1.522,3.4,3.4,3.4s3.4-1.522,3.4-3.4
					C219.606,126.022,218.083,124.5,216.206,124.5z"/>
			</g>
		</g>
		<g>
			<g>
				<path fill="#FC657E" d="M27.15,142.175c-3.1-0.6-5.6-3-6.2-6.1c0-0.1-0.3-0.1-0.3,0c-0.6,3.1-3.1,5.5-6.2,6.1
					c-0.1,0-0.1,0.2,0,0.3c3.1,0.6,5.6,3,6.2,6.1c0,0.1,0.3,0.1,0.3,0c0.6-3.1,3.1-5.5,6.2-6.1
					C27.25,142.375,27.25,142.175,27.15,142.175z"/>
			</g>
		</g>
		<g>
			<g>
				<path fill="#F5C84C" d="M79.369,0c-1.878,0-3.4,1.522-3.4,3.4c0,1.878,1.522,3.4,3.4,3.4c1.878,0,3.4-1.522,3.4-3.4
					C82.769,1.522,81.246,0,79.369,0z"/>
			</g>
		</g>
		<g>
			<g>
				<path fill="#F5C84C" d="M234.15,95.2c-4.5-0.8-8-4.3-8.9-8.7c0-0.2-0.4-0.2-0.4,0c-0.9,4.4-4.4,7.9-8.9,8.7
					c-0.2,0-0.2,0.3,0,0.4c4.5,0.8,8,4.3,8.9,8.7c0,0.2,0.4,0.2,0.4,0c0.9-4.4,4.4-7.9,8.9-8.7C234.35,95.5,234.35,95.2,234.15,95.2
					z"/>
			</g>
		</g>
		<g>
			<g>
				<g>
					<g>
						<path d="M163.739,58.201c-3.475-3.642-9.106-4.022-13.101-0.89c-4.448,3.492-11.979,7.655-22.595,7.655
							c-10.638,0-18.21-4.179-22.688-7.684c-3.99-3.12-9.612-2.73-13.095,0.918c-4.092,4.292-6.346,9.921-6.346,15.851v33.222
							c0,23.206,18.879,42.085,42.085,42.085s42.085-18.879,42.085-42.085V74.052C170.085,68.122,167.831,62.493,163.739,58.201z
							 M165.085,107.273c0,20.448-16.637,37.085-37.085,37.085s-37.085-16.637-37.085-37.085V74.052
							c0-4.639,1.763-9.042,4.977-12.413c0.919-0.964,2.152-1.455,3.401-1.455c1.041,0,2.093,0.342,2.98,1.037
							c5.099,3.99,13.708,8.746,25.771,8.746c12.044,0,20.613-4.743,25.683-8.722c1.958-1.537,4.708-1.362,6.394,0.407
							c3.202,3.357,4.965,7.761,4.965,12.399V107.273z"/>
					</g>
				</g>
			</g>
		</g>
		<g>
			<g>
				<path d="M183.981,199.275c-1.381,0-2.5,1.119-2.5,2.5v18.975c0,1.381,1.119,2.5,2.5,2.5s2.5-1.119,2.5-2.5v-18.975
					C186.481,200.395,185.362,199.275,183.981,199.275z"/>
			</g>
		</g>
		<g>
			<g>
				<path d="M72.019,199.275c-1.381,0-2.5,1.119-2.5,2.5V220.5c0,1.381,1.119,2.5,2.5,2.5s2.5-1.119,2.5-2.5v-18.725
					C74.519,200.395,73.399,199.275,72.019,199.275z"/>
			</g>
		</g>
		<g>
			<g>
				<path d="M170.125,74.604c-0.441,0-0.878,0.016-1.312,0.048c-1.377,0.101-2.412,1.299-2.311,2.676
					c0.102,1.378,1.322,2.425,2.676,2.311c0.313-0.022,0.628-0.034,0.946-0.034c7.734,0,14.027,6.293,14.027,14.027
					s-6.293,14.026-14.027,14.026c-0.39,0-0.774-0.021-1.155-0.057c-1.368-0.121-2.593,0.881-2.723,2.256
					c-0.129,1.375,0.881,2.594,2.256,2.723c0.562,0.053,1.092,0.078,1.622,0.078c10.492,0,19.027-8.535,19.027-19.026
					C189.152,83.14,180.617,74.604,170.125,74.604z"/>
			</g>
		</g>
		<g>
			<g>
				<path d="M85.875,79.604c0.516,0,1.052,0.032,1.594,0.096c1.376,0.151,2.612-0.821,2.773-2.193
					c0.16-1.371-0.821-2.613-2.193-2.773c-0.733-0.085-1.465-0.129-2.174-0.129c-10.492,0-19.027,8.535-19.027,19.027
					c0,10.491,8.535,19.026,19.027,19.026c0.506,0,1.03-0.024,1.561-0.073c1.375-0.125,2.389-1.341,2.263-2.716
					c-0.125-1.374-1.338-2.404-2.716-2.263c-0.365,0.033-0.733,0.052-1.107,0.052c-7.734,0-14.027-6.292-14.027-14.026
					S78.141,79.604,85.875,79.604z"/>
			</g>
		</g>
		<g>
			<g>
				<path d="M167.442,40.826c-0.134-7.466-2.881-13.476-8.166-17.865c-8.953-7.436-25.475-9.73-45.335-6.305
					c-22.532,3.892-38.886,23.305-38.886,46.161V79c0,1.381,1.119,2.5,2.5,2.5s2.5-1.119,2.5-2.5V62.817
					c0-20.416,14.609-37.758,34.737-41.233c18.411-3.183,33.462-1.276,41.289,5.224c4.14,3.438,6.28,8.221,6.362,14.218
					c0.037,2.653,2.277,4.813,4.993,4.813c5.462,0,8.595,7.287,8.595,19.994v13.074c0,1.381,1.119,2.5,2.5,2.5s2.5-1.119,2.5-2.5
					V65.832C181.032,44.147,172.563,40.856,167.442,40.826z"/>
			</g>
		</g>
		<g>
			<g>
				<path d="M162.027,157.402l-5.37-4.69c-1.095-0.957-2.495-1.423-3.947-1.332c-1.451,0.099-2.777,0.756-3.732,1.851
					l-16.498,18.888c-0.956,1.095-1.43,2.497-1.331,3.948c0.098,1.45,0.755,2.775,1.85,3.731l8.869,7.747
					c1.001,0.874,2.257,1.344,3.572,1.344c0.125,0,0.25-0.004,0.375-0.013c1.45-0.098,2.775-0.755,3.732-1.85l8.088-9.26
					c0.908-1.04,0.802-2.619-0.238-3.527c-1.039-0.908-2.619-0.802-3.527,0.238l-8.088,9.259c-0.1,0.115-0.22,0.146-0.304,0.151
					c-0.084,0.002-0.206-0.01-0.32-0.108l-8.87-7.747c-0.114-0.1-0.145-0.22-0.15-0.304c-0.006-0.083,0.009-0.206,0.108-0.32
					l16.499-18.89c0.099-0.113,0.219-0.144,0.302-0.149c0.079-0.011,0.207,0.009,0.321,0.108l5.371,4.69
					c1.04,0.909,2.619,0.801,3.527-0.238C163.174,159.89,163.067,158.311,162.027,157.402z"/>
			</g>
		</g>
		<g>
			<g>
				<path d="M123.521,172.119l-16.497-18.888c-0.956-1.096-2.282-1.753-3.733-1.852c-1.442-0.095-2.852,0.375-3.946,1.332
					l-5.068,4.426c-1.04,0.908-1.146,2.487-0.238,3.527c0.907,1.039,2.488,1.147,3.527,0.238l5.069-4.426
					c0.112-0.1,0.233-0.117,0.32-0.108c0.083,0.006,0.203,0.036,0.303,0.15l16.498,18.89c0.1,0.113,0.114,0.236,0.108,0.319
					c-0.006,0.084-0.036,0.204-0.15,0.304l-8.871,7.747c-0.113,0.099-0.238,0.111-0.319,0.108c-0.084-0.006-0.204-0.036-0.304-0.15
					l-8.005-9.164c-0.908-1.042-2.489-1.146-3.527-0.238c-1.04,0.908-1.146,2.487-0.238,3.527l8.005,9.165
					c0.957,1.094,2.282,1.751,3.732,1.849c0.125,0.009,0.25,0.013,0.375,0.013c1.315,0,2.571-0.47,3.571-1.344l8.87-7.747
					c1.095-0.956,1.752-2.281,1.85-3.731C124.95,174.615,124.477,173.213,123.521,172.119z"/>
			</g>
		</g>
		<g>
			<g>
				<g>
					<path d="M109.764,140.375c-1.381,0-2.5,1.119-2.5,2.5v5.934c0,2.21-0.652,4.354-1.886,6.2c-0.767,1.148-0.458,2.7,0.69,3.468
						c0.427,0.285,0.909,0.421,1.387,0.421c0.807,0,1.599-0.39,2.081-1.111c1.784-2.672,2.728-5.775,2.728-8.978v-5.934
						C112.264,141.494,111.145,140.375,109.764,140.375z"/>
				</g>
			</g>
			<g>
				<g>
					<path d="M150.85,155.336c-1.383-1.918-2.113-4.176-2.113-6.527v-5.559c0-1.381-1.119-2.5-2.5-2.5s-2.5,1.119-2.5,2.5v5.559
						c0,3.407,1.057,6.676,3.057,9.451c0.488,0.678,1.254,1.038,2.03,1.038c0.507,0,1.018-0.153,1.46-0.472
						C151.403,158.02,151.657,156.457,150.85,155.336z"/>
				</g>
			</g>
		</g>
		<g>
			<g>
				<path d="M109.763,220.097l-9.382-58.488c-0.254-1.58-1.184-2.963-2.553-3.792s-3.024-1.016-4.54-0.509l-25.884,8.628
					c-9.668,3.224-16.626,11.852-17.728,21.982l-3.513,32.312c-0.149,1.373,0.843,2.606,2.215,2.756
					c0.092,0.01,0.184,0.015,0.273,0.015c1.26,0,2.343-0.949,2.482-2.229l3.513-32.312c0.891-8.194,6.519-15.173,14.339-17.779
					l25.884-8.629c0.159-0.052,0.287-0.006,0.366,0.042c0.08,0.048,0.181,0.141,0.207,0.307l9.382,58.488
					c0.219,1.363,1.508,2.29,2.864,2.073C109.053,222.742,109.981,221.46,109.763,220.097z"/>
			</g>
		</g>
		<g>
			<g>
				<path d="M209.863,220.479l-3.54-32.562c-1.102-10.131-8.06-18.759-17.728-21.982l-25.884-8.627
					c-1.517-0.509-3.173-0.321-4.54,0.508c-1.369,0.829-2.299,2.212-2.553,3.792l-9.361,58.357c-0.219,1.363,0.71,2.646,2.073,2.864
					c1.354,0.219,2.646-0.71,2.864-2.073l9.361-58.357c0.026-0.166,0.127-0.259,0.207-0.307c0.079-0.048,0.211-0.095,0.366-0.041
					l25.884,8.628c7.82,2.606,13.448,9.585,14.339,17.779l3.54,32.562c0.14,1.28,1.223,2.229,2.482,2.229
					c0.09,0,0.182-0.005,0.273-0.015C209.021,223.086,210.013,221.853,209.863,220.479z"/>
			</g>
		</g>
		<g>
			<g>
				<g>
					<path d="M140.907,115.813c-1.059-0.886-2.633-0.748-3.522,0.31c-1.943,2.318-5.236,3.702-8.81,3.702
						c-3.572,0-6.865-1.384-8.809-3.702c-0.89-1.059-2.464-1.196-3.522-0.31c-1.058,0.887-1.196,2.464-0.31,3.522
						c2.882,3.438,7.607,5.489,12.641,5.489c5.034,0,9.76-2.052,12.642-5.489C142.104,118.276,141.965,116.699,140.907,115.813z"/>
				</g>
			</g>
			<g>
				<g>
					<path d="M146.434,90.14c-2.937,0-5.318,2.381-5.318,5.318c0,2.938,2.381,5.319,5.318,5.319c2.937,0,5.318-2.381,5.318-5.319
						C151.753,92.521,149.372,90.14,146.434,90.14z"/>
				</g>
			</g>
			<g>
				<g>
					<path d="M110.717,90.14c-2.937,0-5.318,2.381-5.318,5.318c0,2.938,2.381,5.319,5.318,5.319s5.318-2.381,5.318-5.319
						C116.035,92.521,113.654,90.14,110.717,90.14z"/>
				</g>
			</g>
		</g>
		<g>
			<g>
				<path d="M53.36,153.213c-0.929-1.02-2.511-1.092-3.532-0.163l-15.093,13.761c-3.893,3.55-6.126,8.606-6.126,13.875V220.5
					c0,1.381,1.119,2.5,2.5,2.5s2.5-1.119,2.5-2.5v-39.814c0-3.865,1.639-7.575,4.495-10.18l15.093-13.761
					C54.218,155.814,54.29,154.233,53.36,153.213z"/>
			</g>
		</g>
		<g>
			<g>
				<g>
					<g>
						<g>
							<path d="M71.391,136.774c-1.528-1.678-3.62-2.66-5.889-2.765c-2.278-0.11-4.443,0.68-6.119,2.209l-8.352,7.614
								c-1.678,1.529-2.659,3.621-2.765,5.89c-0.104,2.268,0.681,4.44,2.21,6.118c1.527,1.676,3.616,2.657,5.882,2.764
								c0.138,0.007,0.274,0.01,0.41,0.01c2.122,0,4.138-0.779,5.716-2.219l8.352-7.614c1.678-1.529,2.659-3.621,2.765-5.89
								C73.705,140.624,72.92,138.451,71.391,136.774z M67.467,145.086l-8.353,7.615c-0.69,0.631-1.608,0.961-2.52,0.909
								c-0.934-0.044-1.794-0.448-2.423-1.138v-0.001c-0.63-0.69-0.953-1.585-0.91-2.519s0.447-1.795,1.139-2.425l8.352-7.615
								c0.649-0.592,1.479-0.913,2.354-0.913c0.055,0,0.11,0.002,0.166,0.004c0.934,0.044,1.795,0.447,2.424,1.139
								c0.63,0.69,0.953,1.585,0.91,2.519C68.562,143.595,68.158,144.456,67.467,145.086z"/>
						</g>
					</g>
				</g>
			</g>
		</g>
		<g>
			<g>
				<path d="M221.265,166.811l-15.093-13.761c-1.021-0.929-2.603-0.856-3.532,0.163c-0.93,1.021-0.857,2.602,0.163,3.532
					l15.093,13.761c2.856,2.604,4.495,6.314,4.495,10.18V220.5c0,1.381,1.119,2.5,2.5,2.5s2.5-1.119,2.5-2.5v-39.814
					C227.391,175.417,225.157,170.36,221.265,166.811z"/>
			</g>
		</g>
		<g>
			<g>
				<g>
					<g>
						<g>
							<path d="M204.969,143.833l-8.352-7.613c-1.677-1.53-3.848-2.321-6.119-2.21c-2.269,0.104-4.36,1.087-5.889,2.764
								c-1.529,1.678-2.314,3.851-2.21,6.118c0.105,2.269,1.087,4.36,2.765,5.89l8.351,7.613c1.579,1.44,3.595,2.22,5.717,2.22
								c0.136,0,0.273-0.003,0.41-0.01c2.266-0.106,4.354-1.088,5.882-2.764c1.529-1.678,2.314-3.851,2.21-6.118
								C207.628,147.454,206.646,145.362,204.969,143.833z M201.828,152.472L201.828,152.472c-0.629,0.69-1.489,1.095-2.423,1.139
								c-0.912,0.051-1.829-0.278-2.521-0.91l-8.352-7.614c-0.691-0.63-1.096-1.491-1.139-2.425s0.28-1.828,0.91-2.52
								c0.629-0.69,1.49-1.094,2.424-1.138c0.056-0.002,0.111-0.004,0.166-0.004c0.874,0,1.704,0.321,2.354,0.914l8.352,7.614
								c0.691,0.63,1.096,1.491,1.139,2.425S202.458,151.781,201.828,152.472z"/>
						</g>
					</g>
				</g>
			</g>
		</g>
		<g>
			<g>
				<g>
					<g>
						<path d="M239.963,219H16.037c-3.208,0-5.818,2.61-5.818,5.818v10.363c0,3.208,2.61,5.818,5.818,5.818h223.926
							c3.208,0,5.818-2.61,5.818-5.818v-10.363C245.781,221.61,243.171,219,239.963,219z M240.781,235.182
							c0,0.451-0.367,0.818-0.818,0.818H16.037c-0.451,0-0.818-0.367-0.818-0.818v-10.363c0-0.451,0.367-0.818,0.818-0.818h223.926
							c0.451,0,0.818,0.367,0.818,0.818V235.182z"/>
					</g>
				</g>
			</g>
		</g>
		<g>
			<g>
				<g>
					<path d="M20.451,237.167c-1.381,0-2.5,1.119-2.5,2.5V253.5c0,1.381,1.119,2.5,2.5,2.5s2.5-1.119,2.5-2.5v-13.833
						C22.951,238.286,21.832,237.167,20.451,237.167z"/>
				</g>
			</g>
			<g>
				<g>
					<path d="M235.549,237.25c-1.381,0-2.5,1.119-2.5,2.5v13.75c0,1.381,1.119,2.5,2.5,2.5s2.5-1.119,2.5-2.5v-13.75
						C238.049,238.369,236.93,237.25,235.549,237.25z"/>
				</g>
			</g>
		</g>
		<g>
			<g>
				<path d="M137.748,192.567c-0.126-1.28-1.202-2.256-2.488-2.256h-14.52c-1.286,0-2.362,0.976-2.488,2.256l-2.677,27.266
					c-0.135,1.374,0.87,2.598,2.244,2.732c1.366,0.121,2.597-0.87,2.732-2.244l2.455-25.01h9.986l2.495,25.42
					c0.127,1.291,1.215,2.256,2.485,2.256c0.082,0,0.164-0.004,0.247-0.012c1.374-0.135,2.379-1.358,2.244-2.732L137.748,192.567z"
					/>
			</g>
		</g>
		<g>
			<g>
				<g>
					<path d="M132.563,173.717h-9.188c-1.381,0-2.5,1.119-2.5,2.5s1.119,2.5,2.5,2.5h9.188c1.381,0,2.5-1.119,2.5-2.5
						S133.943,173.717,132.563,173.717z"/>
				</g>
			</g>
			<g>
				<g>
					<path d="M140.547,180.918c-1.259-0.563-2.739,0.006-3.3,1.269l-4.271,9.609c-0.562,1.262,0.007,2.739,1.269,3.3
						c0.33,0.147,0.675,0.217,1.015,0.217c0.957,0,1.871-0.554,2.285-1.485l4.271-9.609
						C142.377,182.956,141.809,181.479,140.547,180.918z"/>
				</g>
			</g>
			<g>
				<g>
					<path d="M123.024,191.796l-4.296-9.663c-0.561-1.263-2.041-1.831-3.3-1.269c-1.262,0.561-1.83,2.038-1.269,3.3l4.296,9.663
						c0.414,0.932,1.328,1.485,2.285,1.485c0.34,0,0.685-0.07,1.015-0.217C123.018,194.535,123.586,193.058,123.024,191.796z"/>
				</g>
			</g>
		</g>
		<g>
			<g>
				<path d="M98.569,213.334c-0.51-1.661-1.693-3.06-3.247-3.837l-4.806-2.403c-1.612-0.806-2.613-2.427-2.613-4.229v-39.49
					c0-1.381-1.119-2.5-2.5-2.5s-2.5,1.119-2.5,2.5v39.49c0,3.708,2.061,7.042,5.377,8.701l4.807,2.403
					c0.46,0.23,0.638,0.619,0.702,0.83s0.136,0.633-0.116,1.081l-2.308,4.102c-0.677,1.203-0.25,2.728,0.953,3.404
					c0.388,0.218,0.809,0.321,1.224,0.321c0.873,0,1.722-0.458,2.181-1.274l2.308-4.102
					C98.883,216.817,99.079,214.995,98.569,213.334z"/>
			</g>
		</g>
		<g>
			<g>
				<path d="M170.598,160.594c-1.381,0-2.5,1.119-2.5,2.5v39.771c0,1.802-1.002,3.423-2.614,4.229l-4.805,2.403
					c-1.555,0.777-2.738,2.176-3.248,3.837s-0.313,3.483,0.539,4.998l2.168,3.854c0.459,0.816,1.307,1.274,2.181,1.274
					c0.415,0,0.836-0.104,1.224-0.321c1.203-0.677,1.63-2.201,0.953-3.404l-2.168-3.854c-0.252-0.448-0.181-0.87-0.116-1.081
					s0.242-0.6,0.703-0.83l4.806-2.403c3.317-1.659,5.378-4.993,5.378-8.701v-39.771
					C173.098,161.713,171.979,160.594,170.598,160.594z"/>
			</g>
		</g>
	</g>
</g>
<g id="Layer_70">
</g>
<g id="Layer_71">
</g>
<g id="Layer_72">
</g>
<g id="Layer_73">
</g>
<g id="Layer_74">
</g>
<g id="Layer_75">
</g>
<g id="Layer_76">
</g>
<g id="Layer_77">
</g>
<g id="Layer_78">
</g>
<g id="Layer_79">
</g>
<g id="Layer_80">
</g>
</svg>
