<?xml version="1.0" encoding="utf-8"?>
<!-- Generator: Adobe Illustrator 24.0.0, SVG Export Plug-In . SVG Version: 6.00 Build 0)  -->
<svg version="1.1" xmlns="http://www.w3.org/2000/svg" xmlns:xlink="http://www.w3.org/1999/xlink" x="0px" y="0px"
	 viewBox="0 0 256 256" enable-background="new 0 0 256 256" xml:space="preserve">
<g id="Layer_1">
</g>
<g id="Layer_2">
</g>
<g id="Layer_3">
</g>
<g id="Layer_4">
</g>
<g id="Layer_5">
</g>
<g id="Layer_6">
</g>
<g id="Layer_7">
</g>
<g id="Layer_8">
</g>
<g id="Layer_9">
</g>
<g id="Layer_10">
</g>
<g id="Layer_11">
</g>
<g id="Layer_12">
</g>
<g id="Layer_13">
</g>
<g id="Layer_14">
</g>
<g id="Layer_15">
</g>
<g id="Layer_16">
</g>
<g id="Layer_17">
</g>
<g id="Layer_18">
</g>
<g id="Layer_19">
</g>
<g id="Layer_20">
</g>
<g id="Layer_21">
</g>
<g id="Layer_22">
</g>
<g id="Layer_23">
</g>
<g id="Layer_24">
</g>
<g id="Layer_25">
</g>
<g id="Layer_26">
</g>
<g id="Layer_27">
</g>
<g id="Layer_28">
</g>
<g id="Layer_29">
</g>
<g id="Layer_30">
</g>
<g id="Layer_31">
</g>
<g id="Layer_32">
</g>
<g id="Layer_33">
</g>
<g id="Layer_34">
</g>
<g id="Layer_35">
</g>
<g id="Layer_36">
</g>
<g id="Layer_37">
</g>
<g id="Layer_38">
</g>
<g id="Layer_39">
</g>
<g id="Layer_40">
</g>
<g id="Layer_41">
</g>
<g id="Layer_42">
</g>
<g id="Layer_43">
</g>
<g id="Layer_44">
</g>
<g id="Layer_45">
</g>
<g id="Layer_46">
</g>
<g id="Layer_47">
</g>
<g id="Layer_48">
</g>
<g id="Layer_49">
</g>
<g id="Layer_50">
</g>
<g id="Layer_51">
</g>
<g id="Layer_52">
</g>
<g id="Layer_53">
</g>
<g id="Layer_54">
</g>
<g id="Layer_55">
</g>
<g id="Layer_56">
</g>
<g id="Layer_57">
</g>
<g id="Layer_58">
</g>
<g id="Layer_59">
</g>
<g id="Layer_60">
</g>
<g id="Layer_61">
</g>
<g id="Layer_62">
</g>
<g id="Layer_63">
</g>
<g id="Layer_64">
</g>
<g id="Layer_65">
</g>
<g id="Layer_66">
</g>
<g id="Layer_67">
</g>
<g id="Layer_68">
</g>
<g id="Layer_69">
</g>
<g id="Layer_70">
	<g>
		<g>
			<g>
				<path fill="#5B5D60" d="M179.623,127.325c7.039-11.04,3.715-21.788,0.61-27.859c-2.725,4.321-7.527,7.2-13.012,7.2
					c-0.839,0-1.656-0.085-2.458-0.215c-0.865,12.895-8.431,24.031-19.232,29.918v11.177c0,3.578,1.877,6.853,4.885,8.706
					c1.205,0.742-0.324-0.129,9.942,4.977c1.381,0.681,3.205,1.402,4.611,1.843c0.279,0.087,0.562,0.164,0.843,0.243
					c5.424-1.985,10.209-5.137,13.308-10.044c5.683-8.998,2.366-17.717,0.275-21.619C178.66,130.28,178.787,128.636,179.623,127.325
					z"/>
			</g>
		</g>
		<g>
			<g>
				<path fill="#5B5D60" d="M91.238,106.451c-0.802,0.129-1.619,0.214-2.458,0.214c-5.486,0-10.288-2.879-13.012-7.2
					c-3.105,6.071-6.43,16.82,0.61,27.859c0.836,1.312,0.963,2.956,0.228,4.326c-2.092,3.903-5.408,12.621,0.275,21.619
					c3.1,4.908,7.885,8.06,13.308,10.044c0.281-0.08,0.564-0.156,0.843-0.243c1.406-0.44,3.23-1.162,4.611-1.843
					c10.933-5.438,8.826-4.291,9.942-4.977c3.008-1.853,4.885-5.127,4.885-8.706v-11.177
					C99.669,130.482,92.103,119.346,91.238,106.451z"/>
			</g>
		</g>
		<g>
			<g>
				<path fill="#F9D0B4" d="M167.22,75.891c-0.805,0-1.594,0.068-2.365,0.188v27.901c0,0.832-0.038,1.654-0.093,2.472
					c0.802,0.129,1.619,0.215,2.458,0.215c8.498,0,15.387-6.889,15.387-15.387C182.608,82.78,175.719,75.891,167.22,75.891z"/>
			</g>
		</g>
		<g>
			<g>
				<path fill="#F9D0B4" d="M91.145,103.979V82.031c-2.531-0.721-5.13-1.654-7.795-2.831c-1.719-0.759-3.726-0.409-5.096,0.875
					c-2.99,2.803-4.861,6.781-4.861,11.203c0,8.498,6.889,15.387,15.387,15.387c0.839,0,1.656-0.085,2.458-0.214
					C91.183,105.633,91.145,104.811,91.145,103.979z"/>
			</g>
		</g>
		<g>
			<g>
				<path fill="#5B5D60" d="M128,21.286c-27.564,0-50.116,22.553-50.116,50.116v9.056c0.125-0.126,0.24-0.261,0.37-0.383
					c1.37-1.285,3.378-1.634,5.096-0.875c2.665,1.177,5.264,2.11,7.795,2.831c28.967,8.251,48.871-11.626,54.484-18.177
					c0.902-1.053,2.485-1.13,3.512-0.197c5.191,4.716,9.719,6.876,13.448,7.74c1.319,0.306,2.267,1.454,2.267,2.807v1.875
					c0.771-0.119,1.56-0.188,2.365-0.188c4.258,0,8.11,1.73,10.896,4.524v-9.013C178.116,43.838,155.564,21.286,128,21.286z"/>
			</g>
		</g>
		<g>
			<g>
				<path fill="#DAE6F1" d="M137.485,181.685l-3.931-3.657c-1.377-1.281-1.455-3.436-0.174-4.813l16.27-17.488
					c-2.556-1.91-4.121-4.918-4.121-8.181v-11.177c-5.221,2.846-11.195,4.465-17.53,4.465c-6.334,0-12.309-1.62-17.53-4.465v11.177
					c0,3.263-1.565,6.271-4.121,8.181l16.271,17.488c1.281,1.377,1.203,3.531-0.174,4.813l-3.931,3.657
					c-3.085,2.87-7.057,3.916-10.801,3.401l3.507,36.414h33.559l3.507-36.414C144.542,185.6,140.57,184.554,137.485,181.685z"/>
			</g>
		</g>
		<g>
			<g>
				<path fill="#3A70BF" d="M104.972,156.609c-0.075,0.039-0.141,0.089-0.217,0.126l-9.112,4.493
					c-2.037,1.004-4.174,1.79-6.376,2.344c-0.13,0.033-18.906,4.773-19.026,4.803l-7.325,1.849
					c-6.414,1.615-11.032,7.211-11.4,13.815l-1.363,37.46h61.068L104.972,156.609z"/>
			</g>
		</g>
		<g>
			<g>
				<path fill="#3A70BF" d="M204.485,184.04c-0.368-6.604-4.987-12.2-11.4-13.815l-7.325-1.849c-0.12-0.03-18.897-4.77-19.027-4.803
					c-2.202-0.554-4.339-1.34-6.376-2.344l-9.112-4.493c-0.076-0.037-0.142-0.087-0.217-0.126L144.78,221.5h61.068L204.485,184.04z"
					/>
			</g>
		</g>
		<g>
			<g>
				<path fill="#EDF4FC" d="M122.62,173.215l-16.27-17.488c-0.434,0.325-0.888,0.626-1.378,0.883l2.742,28.477
					c3.744,0.515,7.717-0.532,10.801-3.401l3.931-3.657C123.823,176.746,123.901,174.592,122.62,173.215z"/>
			</g>
		</g>
		<g>
			<g>
				<path fill="#EDF4FC" d="M149.651,155.727l-16.27,17.488c-1.281,1.377-1.203,3.531,0.174,4.813l3.931,3.657
					c3.084,2.87,7.057,3.916,10.801,3.401l2.742-28.477C150.539,156.353,150.085,156.051,149.651,155.727z"/>
			</g>
		</g>
		<g>
			<g>
				<path fill="#F9D0B4" d="M162.588,71.397c-3.729-0.864-8.257-3.024-13.448-7.74c-1.026-0.933-2.609-0.856-3.512,0.197
					c-5.613,6.552-25.517,26.428-54.484,18.177v21.948c0,20.27,16.585,36.855,36.855,36.855c20.27,0,36.855-16.585,36.855-36.855
					V74.204C164.855,72.85,163.907,71.702,162.588,71.397z"/>
			</g>
		</g>
		<g>
			<g>
				<path fill="#F9D0B4" d="M149.651,155.727c-2.556-1.91-4.121-4.918-4.121-8.181v-11.177c-5.221,2.846-11.195,4.465-17.53,4.465
					c-6.334,0-12.309-1.62-17.53-4.465v11.177c0,3.263-1.565,6.271-4.121,8.181l16.27,17.488c0.779,0.837,1.048,1.961,0.836,3.002
					h9.089c-0.213-1.041,0.057-2.165,0.836-3.002L149.651,155.727z"/>
			</g>
		</g>
		<g>
			<g>
				<path fill="#5290DB" d="M69.543,138.458c-2.23-2.448-6.028-2.624-8.476-0.392l-8.352,7.614
					c-2.449,2.232-2.624,6.027-0.392,8.476c2.226,2.442,6.022,2.631,8.476,0.392l8.352-7.614
					C71.601,144.701,71.775,140.906,69.543,138.458z"/>
			</g>
		</g>
		<g>
			<g>
				<path fill="#5290DB" d="M203.284,145.681l-8.352-7.614c-2.447-2.232-6.245-2.057-8.476,0.392
					c-2.232,2.448-2.058,6.243,0.392,8.476l8.352,7.614c2.454,2.239,6.25,2.051,8.476-0.392
					C205.908,151.708,205.733,147.913,203.284,145.681z"/>
			</g>
		</g>
		<g>
			<g>
				<path fill="#C18E6B" d="M239.963,221.5H16.037c-1.833,0-3.318,1.486-3.318,3.318v10.363c0,1.833,1.486,3.318,3.318,3.318
					h223.926c1.833,0,3.318-1.486,3.318-3.318v-10.363C243.281,222.986,241.796,221.5,239.963,221.5z"/>
			</g>
		</g>
		<g>
			<g>
				<rect x="20.451" y="238.5" fill="#A57453" width="215.098" height="15"/>
			</g>
		</g>
		<g>
			<g>
				<path fill="#5290DB" d="M111.22,221.5l-6.249-64.891c-0.075,0.039-0.141,0.089-0.217,0.126l-9.112,4.493
					c-2.037,1.004-4.174,1.79-6.376,2.344c-0.018,0.005-0.407,0.103-1.046,0.264l-1.948,35.706c-0.091,1.67,0.47,3.31,1.566,4.574
					l8.368,9.656c1.893,2.184,2.07,5.333,0.513,7.727H111.22z"/>
			</g>
		</g>
		<g>
			<g>
				<path fill="#5290DB" d="M169.727,199.543l-1.948-35.706c-0.639-0.161-1.028-0.26-1.046-0.264
					c-2.202-0.554-4.339-1.34-6.376-2.344l-9.112-4.493c-0.076-0.037-0.142-0.087-0.217-0.126L144.78,221.5h14.499
					c-1.557-2.394-1.379-5.543,0.513-7.727l8.369-9.656C169.256,202.853,169.818,201.213,169.727,199.543z"/>
			</g>
		</g>
		<g>
			<g>
				<path d="M181.731,128.669c7.68-12.046,3.932-23.821,1.014-29.769c-0.608-1.238-2.104-1.751-3.346-1.143
					c-1.239,0.607-1.751,2.105-1.143,3.346c2.999,6.113,5.306,15.393-0.741,24.877c-1.34,2.099-1.464,4.725-0.324,6.852
					c2.036,3.801,4.721,11.335-0.187,19.104c-2.47,3.912-6.421,6.912-11.743,8.916c-1.292,0.487-1.945,1.929-1.459,3.221
					c0.378,1.002,1.329,1.62,2.34,1.62c0.293,0,0.591-0.052,0.881-0.161c6.364-2.396,11.145-6.073,14.209-10.926
					c6.495-10.282,2.419-20.304,0.366-24.135C181.308,129.929,181.357,129.255,181.731,128.669z"/>
			</g>
		</g>
		<g>
			<g>
				<path d="M90.83,160.887c-5.368-2.005-9.351-5.017-11.836-8.951c-4.906-7.769-2.222-15.303-0.186-19.103
					c1.141-2.126,1.017-4.752-0.323-6.852c-6.058-9.5-3.737-18.792-0.725-24.915c0.609-1.238,0.1-2.737-1.14-3.347
					c-1.235-0.609-2.737-0.099-3.347,1.14c-2.931,5.954-6.698,17.745,0.995,29.811c0.374,0.586,0.423,1.259,0.133,1.801
					c-2.054,3.831-6.13,13.853,0.365,24.135c3.081,4.88,7.897,8.569,14.313,10.965c0.289,0.107,0.584,0.159,0.875,0.159
					c1.013,0,1.967-0.621,2.342-1.626C92.78,162.81,92.123,161.369,90.83,160.887z"/>
			</g>
		</g>
		<g>
			<g>
				<path d="M167.221,73.391c-0.465,0-0.925,0.02-1.381,0.056c-1.376,0.11-2.402,1.315-2.292,2.692
					c0.111,1.376,1.32,2.402,2.692,2.292c0.323-0.026,0.65-0.04,0.98-0.04c7.105,0,12.887,5.781,12.887,12.888
					s-5.781,12.888-12.887,12.888c-0.342,0-0.679-0.018-1.012-0.049c-1.365-0.125-2.593,0.884-2.721,2.258
					c-0.128,1.375,0.883,2.593,2.258,2.721c0.501,0.047,0.997,0.07,1.475,0.07c9.862,0,17.887-8.024,17.887-17.888
					S177.083,73.391,167.221,73.391z"/>
			</g>
		</g>
		<g>
			<g>
				<path d="M91.829,79.627c-2.476-0.705-4.988-1.618-7.47-2.714c-2.636-1.163-5.705-0.64-7.816,1.339
					c-3.591,3.367-5.65,8.115-5.65,13.026c0,9.863,8.024,17.888,17.888,17.888c0.468,0,0.931-0.022,1.388-0.062
					c1.376-0.118,2.396-1.329,2.277-2.705c-0.118-1.375-1.338-2.395-2.705-2.277c-0.316,0.027-0.637,0.044-0.96,0.044
					c-7.106,0-12.888-5.781-12.888-12.888c0-3.587,1.445-6.917,4.07-9.378c0.644-0.604,1.574-0.768,2.377-0.413
					c2.691,1.188,5.423,2.181,8.12,2.948c1.325,0.381,2.711-0.392,3.089-1.72C93.927,81.389,93.157,80.005,91.829,79.627z"/>
			</g>
		</g>
		<g>
			<g>
				<path d="M128,18.786c-29.013,0-52.616,23.604-52.616,52.616v8.771c0,1.381,1.119,2.5,2.5,2.5s2.5-1.119,2.5-2.5v-8.771
					c0-26.256,21.36-47.616,47.616-47.616s47.616,21.36,47.616,47.616v8.265c0,1.381,1.119,2.5,2.5,2.5s2.5-1.119,2.5-2.5v-8.265
					C180.616,42.39,157.013,18.786,128,18.786z"/>
			</g>
		</g>
		<g>
			<g>
				<path d="M140.305,115.308c-1.056-0.886-2.634-0.747-3.521,0.311c-1.937,2.311-5.22,3.69-8.783,3.69s-6.847-1.38-8.783-3.69
					c-0.886-1.059-2.464-1.197-3.521-0.311c-1.059,0.887-1.197,2.464-0.311,3.521c2.875,3.432,7.591,5.479,12.615,5.479
					s9.74-2.048,12.615-5.479C141.502,117.771,141.363,116.194,140.305,115.308z"/>
			</g>
		</g>
		<g>
			<g>
				<circle cx="144.034" cy="95.538" r="4.775"/>
			</g>
		</g>
		<g>
			<g>
				<circle cx="111.966" cy="95.538" r="4.775"/>
			</g>
		</g>
		<g>
			<g>
				<path d="M181.545,198.314c-1.381,0-2.5,1.119-2.5,2.5v19.624c0,1.381,1.119,2.5,2.5,2.5s2.5-1.119,2.5-2.5v-19.624
					C184.045,199.434,182.926,198.314,181.545,198.314z"/>
			</g>
		</g>
		<g>
			<g>
				<path d="M74.456,198.314c-1.381,0-2.5,1.119-2.5,2.5V220.5c0,1.381,1.119,2.5,2.5,2.5s2.5-1.119,2.5-2.5v-19.686
					C76.956,199.434,75.837,198.314,74.456,198.314z"/>
			</g>
		</g>
		<g>
			<g>
				<path d="M107.46,156.37c-0.079-0.827-0.564-1.561-1.295-1.957c-0.728-0.396-1.608-0.404-2.346-0.022
					c-0.081,0.042-0.159,0.088-0.244,0.141l-9.037,4.455c-1.877,0.925-3.855,1.652-5.885,2.163
					c-0.168,0.042-18.904,4.772-19.024,4.803l-7.323,1.849c-7.516,1.893-12.854,8.362-13.288,16.147l-1.315,36.149
					c-0.051,1.38,1.027,2.539,2.407,2.589c1.352,0.061,2.539-1.026,2.589-2.407l1.313-36.101c0.309-5.541,4.133-10.175,9.516-11.53
					l7.324-1.849c0.12-0.03,18.9-4.771,19.026-4.803c2.366-0.596,4.678-1.445,6.871-2.526l6.083-2.999l5.798,60.209
					c0.124,1.293,1.213,2.261,2.485,2.261c0.08,0,0.161-0.004,0.242-0.012c1.375-0.132,2.382-1.354,2.249-2.728L107.46,156.37z"/>
			</g>
		</g>
		<g>
			<g>
				<path d="M206.98,183.899c-0.432-7.736-5.771-14.206-13.284-16.099l-7.325-1.849c-0.12-0.03-18.856-4.761-19.028-4.805
					c-2.026-0.509-4.004-1.236-5.88-2.161l-9.037-4.455c-0.079-0.049-0.16-0.097-0.245-0.141c-0.736-0.383-1.617-0.375-2.346,0.022
					c-0.73,0.396-1.216,1.13-1.295,1.957l-6.146,63.829c-0.133,1.374,0.874,2.596,2.249,2.728c0.081,0.008,0.162,0.012,0.242,0.012
					c1.272,0,2.361-0.968,2.485-2.261l5.798-60.206l6.084,2.999c2.191,1.081,4.503,1.931,6.865,2.524
					c0.131,0.033,18.911,4.774,19.031,4.805l7.326,1.849c5.382,1.355,9.205,5.989,9.512,11.481l1.324,36.398
					c0.05,1.38,1.232,2.458,2.589,2.407c1.38-0.05,2.458-1.209,2.407-2.589L206.98,183.899z"/>
			</g>
		</g>
		<g>
			<g>
				<path d="M124.449,171.512l-16.27-17.488c-0.868-0.935-2.301-1.063-3.325-0.301c-0.382,0.285-0.723,0.505-1.041,0.671
					c-1.224,0.641-1.697,2.15-1.058,3.374c0.604,1.152,1.976,1.643,3.156,1.158l14.877,15.992c0.34,0.365,0.319,0.939-0.046,1.279
					l-3.932,3.657c-2.185,2.033-5.034,3.031-8.015,2.831c-1.354-0.097-2.571,0.943-2.667,2.321s0.944,2.571,2.321,2.667
					c0.376,0.026,0.75,0.039,1.122,0.039c3.967,0,7.711-1.469,10.645-4.198l3.932-3.657
					C126.533,177.64,126.668,173.896,124.449,171.512z"/>
			</g>
		</g>
		<g>
			<g>
				<path d="M152.187,154.394c-0.319-0.167-0.659-0.386-1.038-0.669c-1.021-0.766-2.457-0.637-3.327,0.299l-16.271,17.488
					c-1.075,1.155-1.635,2.659-1.578,4.235s0.725,3.036,1.879,4.11l3.931,3.657c2.921,2.718,6.688,4.197,10.661,4.197
					c0.169,0,0.34-0.003,0.51-0.008c1.381-0.044,2.464-1.198,2.42-2.578s-1.209-2.478-2.578-2.42
					c-2.837,0.103-5.533-0.922-7.606-2.852l-3.931-3.657c-0.365-0.34-0.387-0.914-0.047-1.279l14.878-15.991
					c1.181,0.479,2.552-0.007,3.155-1.159C153.884,156.544,153.41,155.034,152.187,154.394z"/>
			</g>
		</g>
		<g>
			<g>
				<g>
					<g>
						<path d="M163.152,68.961c-3.97-0.92-8.118-3.327-12.331-7.155c-0.995-0.903-2.337-1.379-3.661-1.289
							c-1.339,0.084-2.557,0.691-3.431,1.71c0,0,0,0,0,0.001c-5.199,6.068-24.301,25.259-51.9,17.399
							c-0.75-0.215-1.564-0.063-2.19,0.409s-0.994,1.211-0.994,1.995v21.948c0,21.7,17.655,39.355,39.355,39.355
							s39.355-17.655,39.355-39.355V74.204C167.355,71.69,165.627,69.534,163.152,68.961z M162.355,103.979
							c0,18.943-15.412,34.355-34.355,34.355s-34.355-15.412-34.355-34.355V85.244c28.65,6.384,48.294-13.259,53.84-19.715
							c4.844,4.396,9.735,7.189,14.539,8.303c0.165,0.038,0.332,0.168,0.332,0.372V103.979z"/>
					</g>
				</g>
			</g>
		</g>
		<g>
			<g>
				<path d="M110.47,134.458c-1.381,0-2.5,1.119-2.5,2.5v10.588c0,2.41-1.165,4.72-3.117,6.178c-1.105,0.827-1.332,2.394-0.506,3.5
					c0.491,0.656,1.243,1.003,2.005,1.003c0.521,0,1.046-0.162,1.495-0.497c3.208-2.398,5.123-6.205,5.123-10.184v-10.588
					C112.97,135.577,111.851,134.458,110.47,134.458z"/>
			</g>
		</g>
		<g>
			<g>
				<path d="M151.147,153.724c-1.952-1.458-3.117-3.768-3.117-6.178v-10.379c0-1.381-1.119-2.5-2.5-2.5s-2.5,1.119-2.5,2.5v10.379
					c0,3.979,1.916,7.786,5.125,10.184c0.449,0.335,0.974,0.497,1.494,0.497c0.762,0,1.514-0.347,2.005-1.004
					C152.48,156.117,152.254,154.55,151.147,153.724z"/>
			</g>
		</g>
		<g>
			<g>
				<path d="M131.375,173.717h-7.188c-1.381,0-2.5,1.119-2.5,2.5s1.119,2.5,2.5,2.5h7.188c1.381,0,2.5-1.119,2.5-2.5
					S132.756,173.717,131.375,173.717z"/>
			</g>
		</g>
		<g>
			<g>
				<path d="M128,191.349c-1.381,0-2.5,1.119-2.5,2.5v26.59c0,1.381,1.119,2.5,2.5,2.5s2.5-1.119,2.5-2.5v-26.59
					C130.5,192.468,129.381,191.349,128,191.349z"/>
			</g>
		</g>
		<g>
			<g>
				<path d="M53.36,153.213c-0.929-1.02-2.51-1.092-3.532-0.163l-15.093,13.761c-3.893,3.55-6.126,8.606-6.126,13.875V220.5
					c0,1.381,1.119,2.5,2.5,2.5s2.5-1.119,2.5-2.5v-39.814c0-3.865,1.639-7.575,4.495-10.18l15.093-13.761
					C54.218,155.814,54.29,154.233,53.36,153.213z"/>
			</g>
		</g>
		<g>
			<g>
				<g>
					<g>
						<g>
							<path d="M71.391,136.774c-1.528-1.678-3.62-2.66-5.889-2.765c-2.271-0.11-4.442,0.68-6.119,2.209l-8.352,7.614
								c-1.678,1.529-2.659,3.621-2.765,5.89c-0.104,2.268,0.681,4.44,2.21,6.118c1.527,1.676,3.616,2.657,5.882,2.764
								c0.138,0.007,0.274,0.01,0.41,0.01c2.122,0,4.138-0.779,5.716-2.219l8.352-7.614c1.678-1.529,2.659-3.621,2.765-5.89
								C73.705,140.624,72.92,138.451,71.391,136.774z M67.467,145.086l-8.353,7.615c-0.69,0.631-1.607,0.961-2.52,0.909
								c-0.934-0.044-1.794-0.448-2.423-1.138v-0.001c-0.63-0.69-0.953-1.585-0.91-2.519s0.447-1.795,1.139-2.425l8.352-7.615
								c0.649-0.592,1.479-0.913,2.354-0.913c0.055,0,0.11,0.002,0.166,0.004c0.934,0.044,1.795,0.447,2.424,1.139
								c0.63,0.69,0.953,1.585,0.91,2.519S68.158,144.456,67.467,145.086z"/>
						</g>
					</g>
				</g>
			</g>
		</g>
		<g>
			<g>
				<path d="M221.265,166.811l-15.093-13.761c-1.021-0.929-2.602-0.856-3.532,0.163c-0.93,1.021-0.857,2.602,0.163,3.532
					l15.093,13.761c2.856,2.604,4.495,6.314,4.495,10.18V220.5c0,1.381,1.119,2.5,2.5,2.5s2.5-1.119,2.5-2.5v-39.814
					C227.391,175.417,225.157,170.36,221.265,166.811z"/>
			</g>
		</g>
		<g>
			<g>
				<g>
					<g>
						<g>
							<path d="M204.969,143.833l-8.352-7.613c-1.677-1.53-3.848-2.321-6.119-2.21c-2.269,0.104-4.36,1.087-5.889,2.764
								c-1.529,1.678-2.314,3.851-2.21,6.118c0.105,2.269,1.087,4.36,2.765,5.89l8.351,7.613c1.579,1.44,3.595,2.22,5.717,2.22
								c0.136,0,0.273-0.003,0.41-0.01c2.266-0.106,4.354-1.088,5.882-2.764c1.529-1.678,2.314-3.851,2.21-6.118
								C207.628,147.454,206.646,145.362,204.969,143.833z M201.828,152.472L201.828,152.472c-0.629,0.69-1.489,1.095-2.423,1.139
								c-0.911,0.051-1.828-0.278-2.521-0.91l-8.352-7.614c-0.691-0.63-1.096-1.491-1.139-2.425s0.28-1.828,0.91-2.52
								c0.629-0.69,1.49-1.094,2.424-1.138c0.056-0.002,0.111-0.004,0.166-0.004c0.874,0,1.704,0.321,2.354,0.914l8.352,7.614
								c0.691,0.63,1.096,1.491,1.139,2.425S202.458,151.781,201.828,152.472z"/>
						</g>
					</g>
				</g>
			</g>
		</g>
		<g>
			<g>
				<g>
					<g>
						<path d="M239.963,219H16.037c-3.208,0-5.818,2.61-5.818,5.818v10.363c0,3.208,2.61,5.818,5.818,5.818h223.926
							c3.208,0,5.818-2.61,5.818-5.818v-10.363C245.781,221.61,243.171,219,239.963,219z M240.781,235.182
							c0,0.451-0.367,0.818-0.818,0.818H16.037c-0.451,0-0.818-0.367-0.818-0.818v-10.363c0-0.451,0.367-0.818,0.818-0.818h223.926
							c0.451,0,0.818,0.367,0.818,0.818V235.182z"/>
					</g>
				</g>
			</g>
		</g>
		<g>
			<g>
				<g>
					<path d="M20.451,237.313c-1.381,0-2.5,1.119-2.5,2.5V253.5c0,1.381,1.119,2.5,2.5,2.5s2.5-1.119,2.5-2.5v-13.687
						C22.951,238.433,21.832,237.313,20.451,237.313z"/>
				</g>
			</g>
			<g>
				<g>
					<path d="M235.549,237.25c-1.381,0-2.5,1.119-2.5,2.5v13.75c0,1.381,1.119,2.5,2.5,2.5s2.5-1.119,2.5-2.5v-13.75
						C238.049,238.369,236.93,237.25,235.549,237.25z"/>
				</g>
			</g>
		</g>
		<g>
			<g>
				<path fill="#70D6F9" d="M56.906,31.1h-2.4v-2.3c0-1.8-1.4-3.2-3.2-3.2c-1.7,0-3.2,1.4-3.2,3.1v2.4h-2.3c-1.8,0-3.2,1.4-3.2,3.2
					c-0.1,1.7,1.3,3.2,3.2,3.2h2.3v2.3c0,1.8,1.4,3.2,3.2,3.2c1.7,0,3.2-1.4,3.2-3.1v-2.4h2.3c1.8,0,3.2-1.4,3.2-3.2
					C60.006,32.6,58.606,31.1,56.906,31.1z"/>
			</g>
		</g>
		<g>
			<g>
				<path fill="#87D147" d="M216.206,124.5c-1.878,0-3.4,1.522-3.4,3.4c0,1.878,1.522,3.4,3.4,3.4s3.4-1.522,3.4-3.4
					C219.606,126.022,218.083,124.5,216.206,124.5z"/>
			</g>
		</g>
		<g>
			<g>
				<path fill="#FC657E" d="M27.15,142.175c-3.1-0.6-5.6-3-6.2-6.1c0-0.1-0.3-0.1-0.3,0c-0.6,3.1-3.1,5.5-6.2,6.1
					c-0.1,0-0.1,0.2,0,0.3c3.1,0.6,5.6,3,6.2,6.1c0,0.1,0.3,0.1,0.3,0c0.6-3.1,3.1-5.5,6.2-6.1
					C27.25,142.375,27.25,142.175,27.15,142.175z"/>
			</g>
		</g>
		<g>
			<g>
				<path fill="#F5C84C" d="M79.369,0c-1.878,0-3.4,1.522-3.4,3.4c0,1.878,1.522,3.4,3.4,3.4s3.4-1.522,3.4-3.4
					C82.769,1.522,81.246,0,79.369,0z"/>
			</g>
		</g>
		<g>
			<g>
				<path fill="#F5C84C" d="M234.15,95.2c-4.5-0.8-8-4.3-8.9-8.7c0-0.2-0.4-0.2-0.4,0c-0.9,4.4-4.4,7.9-8.9,8.7
					c-0.2,0-0.2,0.3,0,0.4c4.5,0.8,8,4.3,8.9,8.7c0,0.2,0.4,0.2,0.4,0c0.9-4.4,4.4-7.9,8.9-8.7C234.35,95.5,234.35,95.2,234.15,95.2
					z"/>
			</g>
		</g>
		<g>
			<g>
				<path d="M98.098,212.136l-8.369-9.656c-0.674-0.777-1.015-1.772-0.959-2.801l1.901-34.859c0.075-1.378-0.981-2.557-2.36-2.632
					c-1.378-0.084-2.558,0.98-2.632,2.36l-1.901,34.859c-0.127,2.33,0.646,4.585,2.173,6.348l8.369,9.656
					c1.032,1.19,1.245,2.881,0.544,4.308c-0.609,1.239-0.1,2.737,1.14,3.347c0.355,0.175,0.731,0.258,1.102,0.258
					c0.923,0,1.811-0.514,2.245-1.397C100.94,218.691,100.449,214.849,98.098,212.136z"/>
			</g>
		</g>
		<g>
			<g>
				<path d="M172.223,199.407l-1.892-34.674c-0.074-1.38-1.256-2.43-2.632-2.36c-1.379,0.075-2.436,1.254-2.36,2.632l1.892,34.674
					c0.056,1.028-0.285,2.023-0.96,2.801l-8.367,9.656c-2.414,2.785-2.854,6.844-1.094,10.1c0.452,0.837,1.313,1.312,2.201,1.312
					c0.401,0,0.809-0.097,1.187-0.301c1.215-0.656,1.667-2.173,1.011-3.388c-0.777-1.438-0.587-3.225,0.474-4.447l8.367-9.656
					C171.577,203.992,172.35,201.737,172.223,199.407z"/>
			</g>
		</g>
	</g>
</g>
<g id="Layer_71">
</g>
<g id="Layer_72">
</g>
<g id="Layer_73">
</g>
<g id="Layer_74">
</g>
<g id="Layer_75">
</g>
<g id="Layer_76">
</g>
<g id="Layer_77">
</g>
<g id="Layer_78">
</g>
<g id="Layer_79">
</g>
<g id="Layer_80">
</g>
</svg>
