<?xml version="1.0" encoding="utf-8"?>
<!-- Generator: Adobe Illustrator 24.0.0, SVG Export Plug-In . SVG Version: 6.00 Build 0)  -->
<svg version="1.1" xmlns="http://www.w3.org/2000/svg" xmlns:xlink="http://www.w3.org/1999/xlink" x="0px" y="0px"
	 viewBox="0 0 256 256" enable-background="new 0 0 256 256" xml:space="preserve">
<g id="Layer_1">
</g>
<g id="Layer_2">
</g>
<g id="Layer_3">
</g>
<g id="Layer_4">
</g>
<g id="Layer_5">
</g>
<g id="Layer_6">
</g>
<g id="Layer_7">
</g>
<g id="Layer_8">
</g>
<g id="Layer_9">
</g>
<g id="Layer_10">
</g>
<g id="Layer_11">
</g>
<g id="Layer_12">
</g>
<g id="Layer_13">
</g>
<g id="Layer_14">
</g>
<g id="Layer_15">
</g>
<g id="Layer_16">
</g>
<g id="Layer_17">
</g>
<g id="Layer_18">
</g>
<g id="Layer_19">
</g>
<g id="Layer_20">
</g>
<g id="Layer_21">
</g>
<g id="Layer_22">
</g>
<g id="Layer_23">
</g>
<g id="Layer_24">
</g>
<g id="Layer_25">
</g>
<g id="Layer_26">
	<g>
		<g>
			<g>
				<path fill="#FC657E" d="M73.36,121h17.602c2.856-15.203,14.834-27.181,30.037-30.037V73.36
					C96.172,76.511,76.511,96.172,73.36,121z"/>
			</g>
		</g>
		<g>
			<g>
				<path fill="#F5C84C" d="M135,73.36v17.602c15.203,2.856,27.181,14.834,30.037,30.037h17.602
					C179.489,96.172,159.828,76.511,135,73.36z"/>
			</g>
		</g>
		<g>
			<g>
				<path fill="#70D6F9" d="M90.963,135H73.36c3.15,24.828,22.812,44.489,47.64,47.64v-17.602
					C105.797,162.181,93.819,150.203,90.963,135z"/>
			</g>
		</g>
		<g>
			<g>
				<path fill="#87D147" d="M165.037,135c-2.856,15.203-14.834,27.181-30.037,30.037v17.602c24.828-3.151,44.489-22.812,47.64-47.64
					H165.037z"/>
			</g>
		</g>
		<g>
			<g>
				<circle fill="#5290DB" cx="207.463" cy="31.343" r="28.843"/>
			</g>
		</g>
		<g>
			<g>
				
					<ellipse transform="matrix(0.9871 -0.1602 0.1602 0.9871 -4.3938 8.1795)" fill="#5290DB" cx="48.537" cy="31.343" rx="28.842" ry="28.843"/>
			</g>
		</g>
		<g>
			<g>
				<circle fill="#5290DB" cx="207.463" cy="224.657" r="28.843"/>
			</g>
		</g>
		<g>
			<g>
				
					<ellipse transform="matrix(0.9871 -0.1602 0.1602 0.9871 -35.3594 10.6757)" fill="#5290DB" cx="48.537" cy="224.657" rx="28.842" ry="28.843"/>
			</g>
		</g>
		<g>
			<g>
				<path fill="#F5C84C" d="M213.453,38.333c-1.807-0.329-3.67-0.501-5.572-0.501c-1.903,0-3.765,0.172-5.572,0.501
					c-7.328,1.335-12.933,7.05-14.398,14.207c5.14,4.744,12.007,7.645,19.553,7.645c7.883,0,15.024-3.166,20.23-8.291
					C226.031,45.043,220.558,39.627,213.453,38.333z"/>
			</g>
		</g>
		<g>
			<g>
				
					<ellipse transform="matrix(0.1602 -0.9871 0.9871 0.1602 147.763 227.3031)" fill="#F9D0B4" cx="207.463" cy="26.814" rx="10.868" ry="10.868"/>
			</g>
		</g>
		<g>
			<g>
				<path fill="#FC657E" d="M54.527,38.333c-1.807-0.329-3.67-0.501-5.572-0.501s-3.765,0.172-5.572,0.501
					c-7.328,1.335-12.933,7.05-14.398,14.207c5.14,4.744,12.007,7.645,19.553,7.645c7.883,0,15.024-3.166,20.23-8.291
					C67.105,45.043,61.632,39.627,54.527,38.333z"/>
			</g>
		</g>
		<g>
			<g>
				
					<ellipse transform="matrix(0.9951 -0.0985 0.0985 0.9951 -2.406 4.9133)" fill="#F9D0B4" cx="48.537" cy="26.814" rx="10.868" ry="10.868"/>
			</g>
		</g>
		<g>
			<g>
				<path fill="#87D147" d="M213.453,231.648c-1.807-0.329-3.67-0.501-5.572-0.501c-1.903,0-3.765,0.172-5.572,0.501
					c-7.328,1.335-12.933,7.05-14.398,14.207c5.14,4.744,12.007,7.645,19.553,7.645c7.883,0,15.024-3.166,20.23-8.291
					C226.031,238.358,220.558,232.942,213.453,231.648z"/>
			</g>
		</g>
		<g>
			<g>
				
					<ellipse transform="matrix(0.1602 -0.9871 0.9871 0.1602 -43.0557 389.6522)" fill="#F9D0B4" cx="207.463" cy="220.129" rx="10.868" ry="10.868"/>
			</g>
		</g>
		<g>
			<g>
				<path fill="#70D6F9" d="M54.527,231.648c-1.807-0.329-3.67-0.501-5.572-0.501s-3.765,0.172-5.572,0.501
					c-7.328,1.335-12.933,7.05-14.398,14.207c5.14,4.744,12.007,7.645,19.553,7.645c7.883,0,15.024-3.166,20.23-8.291
					C67.105,238.358,61.632,232.942,54.527,231.648z"/>
			</g>
		</g>
		<g>
			<g>
				
					<ellipse transform="matrix(0.9951 -0.0985 0.0985 0.9951 -21.455 5.8541)" fill="#F9D0B4" cx="48.537" cy="220.129" rx="10.868" ry="10.868"/>
			</g>
		</g>
		<g>
			<g>
				<path fill="#70D6F9" d="M150.906,228.1h-2.4v-2.3c0-1.8-1.4-3.2-3.2-3.2c-1.7,0-3.2,1.4-3.2,3.1v2.4h-2.3
					c-1.8,0-3.2,1.4-3.2,3.2c-0.1,1.7,1.3,3.2,3.2,3.2h2.3v2.3c0,1.8,1.4,3.2,3.2,3.2c1.7,0,3.2-1.4,3.2-3.1v-2.4h2.3
					c1.8,0,3.2-1.4,3.2-3.2C154.006,229.6,152.606,228.1,150.906,228.1z"/>
			</g>
		</g>
		<g>
			<g>
				<path fill="#87D147" d="M147.206,0c-1.878,0-3.4,1.522-3.4,3.4c0,1.878,1.522,3.4,3.4,3.4c1.878,0,3.4-1.522,3.4-3.4
					C150.606,1.522,149.083,0,147.206,0z"/>
			</g>
		</g>
		<g>
			<g>
				<path fill="#FC657E" d="M35.15,143.175c-3.1-0.6-5.6-3-6.2-6.1c0-0.1-0.3-0.1-0.3,0c-0.6,3.1-3.1,5.5-6.2,6.1
					c-0.1,0-0.1,0.2,0,0.3c3.1,0.6,5.6,3,6.2,6.1c0,0.1,0.3,0.1,0.3,0c0.6-3.1,3.1-5.5,6.2-6.1
					C35.25,143.375,35.25,143.175,35.15,143.175z"/>
			</g>
		</g>
		<g>
			<g>
				<path fill="#F5C84C" d="M112.369,249.2c-1.878,0-3.4,1.522-3.4,3.4s1.522,3.4,3.4,3.4c1.878,0,3.4-1.522,3.4-3.4
					S114.246,249.2,112.369,249.2z"/>
			</g>
		</g>
		<g>
			<g>
				<path fill="#F5C84C" d="M121.15,22.2c-4.5-0.8-8-4.3-8.9-8.7c0-0.2-0.4-0.2-0.4,0c-0.9,4.4-4.4,7.9-8.9,8.7
					c-0.2,0-0.2,0.3,0,0.4c4.5,0.8,8,4.3,8.9,8.7c0,0.2,0.4,0.2,0.4,0c0.9-4.4,4.4-7.9,8.9-8.7C121.35,22.5,121.35,22.2,121.15,22.2
					z"/>
			</g>
		</g>
		<g>
			<g>
				<g>
					<g>
						<path d="M122.653,71.484c-0.539-0.474-1.255-0.697-1.968-0.604c-26.022,3.302-46.503,23.783-49.805,49.805
							c-0.09,0.712,0.13,1.429,0.604,1.968c0.475,0.539,1.158,0.847,1.876,0.847h17.603c1.203,0,2.235-0.856,2.457-2.039
							c2.653-14.12,13.922-25.389,28.042-28.042c1.182-0.222,2.039-1.254,2.039-2.457V73.36
							C123.5,72.643,123.191,71.959,122.653,71.484z M118.5,88.945c-14.495,3.527-26.028,15.06-29.555,29.555h-12.67
							c3.91-21.479,20.746-38.315,42.225-42.225V88.945z"/>
					</g>
				</g>
			</g>
		</g>
		<g>
			<g>
				<g>
					<g>
						<path d="M185.12,120.685c-3.302-26.022-23.782-46.502-49.805-49.805c-0.716-0.093-1.429,0.13-1.968,0.604
							c-0.539,0.475-0.847,1.158-0.847,1.876v17.603c0,1.203,0.856,2.235,2.039,2.457c14.12,2.653,25.389,13.922,28.042,28.042
							c0.222,1.182,1.254,2.039,2.457,2.039h17.603c0.718,0,1.401-0.309,1.876-0.847C184.99,122.114,185.21,121.397,185.12,120.685z
							 M167.055,118.5c-3.527-14.495-15.06-26.028-29.555-29.555v-12.67c21.479,3.91,38.315,20.747,42.225,42.225H167.055z"/>
					</g>
				</g>
			</g>
		</g>
		<g>
			<g>
				<g>
					<g>
						<path d="M121.461,162.58c-14.12-2.652-25.389-13.921-28.042-28.042c-0.222-1.182-1.254-2.039-2.457-2.039H73.36
							c-0.718,0-1.401,0.309-1.876,0.847c-0.474,0.539-0.694,1.255-0.604,1.968c3.302,26.022,23.782,46.503,49.805,49.805
							c0.105,0.014,0.21,0.02,0.315,0.02c0.605,0,1.193-0.22,1.653-0.624c0.539-0.475,0.847-1.158,0.847-1.876v-17.603
							C123.5,163.834,122.644,162.802,121.461,162.58z M118.5,179.725c-21.479-3.91-38.315-20.746-42.225-42.225h12.67
							c3.527,14.495,15.06,26.028,29.555,29.555V179.725z"/>
					</g>
				</g>
			</g>
		</g>
		<g>
			<g>
				<g>
					<g>
						<path d="M184.516,133.347c-0.475-0.539-1.158-0.847-1.876-0.847h-17.603c-1.203,0-2.235,0.856-2.457,2.039
							c-2.653,14.12-13.922,25.389-28.042,28.042c-1.182,0.222-2.039,1.254-2.039,2.457v17.603c0,0.718,0.309,1.401,0.847,1.876
							c0.459,0.404,1.048,0.624,1.653,0.624c0.104,0,0.209-0.006,0.315-0.02c26.022-3.302,46.503-23.782,49.805-49.805
							C185.21,134.603,184.99,133.886,184.516,133.347z M137.5,179.725v-12.67c14.495-3.527,26.028-15.06,29.555-29.555h12.67
							C175.815,158.979,158.979,175.815,137.5,179.725z"/>
					</g>
				</g>
			</g>
		</g>
		<g>
			<g>
				<g>
					<g>
						<path d="M207.463,0c-17.282,0-31.342,14.06-31.342,31.342s14.06,31.343,31.342,31.343s31.343-14.061,31.343-31.343
							S224.745,0,207.463,0z M207.463,57.685c-14.525,0-26.342-11.817-26.342-26.343S192.938,5,207.463,5
							s26.343,11.817,26.343,26.342S221.988,57.685,207.463,57.685z"/>
					</g>
				</g>
			</g>
		</g>
		<g>
			<g>
				<g>
					<g>
						<path d="M48.537,0C31.255,0,17.194,14.06,17.194,31.342s14.061,31.343,31.343,31.343s31.342-14.061,31.342-31.343
							S65.819,0,48.537,0z M48.537,57.685c-14.525,0-26.343-11.817-26.343-26.343S34.012,5,48.537,5s26.342,11.817,26.342,26.342
							S63.063,57.685,48.537,57.685z"/>
					</g>
				</g>
			</g>
		</g>
		<g>
			<g>
				<g>
					<g>
						<path d="M207.463,193.315c-17.282,0-31.342,14.061-31.342,31.343S190.181,256,207.463,256s31.343-14.06,31.343-31.342
							S224.745,193.315,207.463,193.315z M207.463,251c-14.525,0-26.342-11.817-26.342-26.342s11.817-26.343,26.342-26.343
							s26.343,11.817,26.343,26.343S221.988,251,207.463,251z"/>
					</g>
				</g>
			</g>
		</g>
		<g>
			<g>
				<g>
					<g>
						<path d="M48.537,193.315c-17.282,0-31.343,14.061-31.343,31.343S31.255,256,48.537,256s31.342-14.06,31.342-31.342
							S65.819,193.315,48.537,193.315z M48.537,251c-14.525,0-26.343-11.817-26.343-26.342s11.817-26.343,26.343-26.343
							s26.342,11.817,26.342,26.343S63.063,251,48.537,251z"/>
					</g>
				</g>
			</g>
		</g>
		<g>
			<g>
				<g>
					<path d="M68.5,93.25H51v-22c0-1.381-1.119-2.5-2.5-2.5s-2.5,1.119-2.5,2.5v24.5c0,1.381,1.119,2.5,2.5,2.5h20
						c1.381,0,2.5-1.119,2.5-2.5S69.881,93.25,68.5,93.25z"/>
				</g>
			</g>
			<g>
				<g>
					<path d="M207.5,68.75c-1.381,0-2.5,1.119-2.5,2.5v22h-17.5c-1.381,0-2.5,1.119-2.5,2.5s1.119,2.5,2.5,2.5h20
						c1.381,0,2.5-1.119,2.5-2.5v-24.5C210,69.869,208.881,68.75,207.5,68.75z"/>
				</g>
			</g>
		</g>
		<g>
			<g>
				<g>
					<path d="M68.5,157.75h-20c-1.381,0-2.5,1.119-2.5,2.5v24.5c0,1.381,1.119,2.5,2.5,2.5s2.5-1.119,2.5-2.5v-22h17.5
						c1.381,0,2.5-1.119,2.5-2.5S69.881,157.75,68.5,157.75z"/>
				</g>
			</g>
			<g>
				<g>
					<path d="M207.5,157.75h-20c-1.381,0-2.5,1.119-2.5,2.5s1.119,2.5,2.5,2.5H205v22c0,1.381,1.119,2.5,2.5,2.5s2.5-1.119,2.5-2.5
						v-24.5C210,158.869,208.881,157.75,207.5,157.75z"/>
				</g>
			</g>
		</g>
		<g>
			<g>
				<path d="M229.922,50.542c-2.161-7.642-8.3-13.263-16.021-14.669c-3.944-0.72-8.097-0.72-12.042,0
					c-8.054,1.467-14.451,7.628-16.297,15.695c-0.308,1.346,0.533,2.687,1.879,2.995c0.188,0.043,0.375,0.063,0.56,0.063
					c1.14,0,2.169-0.785,2.435-1.943c1.399-6.115,6.235-10.783,12.32-11.891c3.355-0.611,6.893-0.611,10.249,0
					c5.829,1.062,10.468,5.319,12.105,11.11c0.375,1.329,1.761,2.1,3.086,1.726C229.525,53.252,230.298,51.871,229.922,50.542z"/>
			</g>
		</g>
		<g>
			<g>
				<g>
					<g>
						<path d="M207.463,13.446c-7.371,0-13.368,5.997-13.368,13.368s5.997,13.368,13.368,13.368s13.368-5.997,13.368-13.368
							S214.834,13.446,207.463,13.446z M207.463,35.182c-4.614,0-8.368-3.754-8.368-8.368s3.754-8.368,8.368-8.368
							s8.368,3.754,8.368,8.368S212.077,35.182,207.463,35.182z"/>
					</g>
				</g>
			</g>
		</g>
		<g>
			<g>
				<path d="M71.028,50.657c-2.1-7.586-8.4-13.389-16.053-14.783c-3.944-0.719-8.097-0.719-12.042,0
					c-7.927,1.444-14.296,7.49-16.228,15.402c-0.328,1.341,0.495,2.694,1.836,3.021c0.199,0.049,0.398,0.072,0.595,0.072
					c1.125,0,2.148-0.766,2.427-1.908c1.464-5.997,6.279-10.578,12.267-11.668c3.355-0.611,6.893-0.611,10.249,0
					c5.867,1.069,10.515,5.359,12.13,11.197c0.368,1.331,1.747,2.111,3.076,1.743C70.616,53.364,71.396,51.987,71.028,50.657z"/>
			</g>
		</g>
		<g>
			<g>
				<g>
					<g>
						<path d="M48.537,13.446c-7.371,0-13.368,5.997-13.368,13.368s5.997,13.368,13.368,13.368s13.368-5.997,13.368-13.368
							S55.908,13.446,48.537,13.446z M48.537,35.182c-4.614,0-8.368-3.754-8.368-8.368s3.754-8.368,8.368-8.368
							s8.368,3.754,8.368,8.368S53.151,35.182,48.537,35.182z"/>
					</g>
				</g>
			</g>
		</g>
		<g>
			<g>
				<path d="M229.968,244.019c-2.087-7.611-8.393-13.433-16.066-14.831c-3.944-0.72-8.097-0.72-12.042,0
					c-7.969,1.452-14.348,7.536-16.251,15.499c-0.321,1.343,0.508,2.692,1.851,3.013c0.195,0.046,0.391,0.069,0.583,0.069
					c1.13,0,2.155-0.772,2.43-1.919c1.442-6.036,6.265-10.646,12.285-11.742c3.355-0.611,6.893-0.611,10.249,0
					c5.793,1.056,10.559,5.465,12.14,11.234c0.366,1.332,1.742,2.115,3.072,1.75C229.549,246.726,230.333,245.351,229.968,244.019z"
					/>
			</g>
		</g>
		<g>
			<g>
				<g>
					<g>
						<path d="M207.463,206.761c-7.371,0-13.368,5.997-13.368,13.368s5.997,13.368,13.368,13.368s13.368-5.997,13.368-13.368
							S214.834,206.761,207.463,206.761z M207.463,228.497c-4.614,0-8.368-3.754-8.368-8.368s3.754-8.368,8.368-8.368
							s8.368,3.754,8.368,8.368S212.077,228.497,207.463,228.497z"/>
					</g>
				</g>
			</g>
		</g>
		<g>
			<g>
				<path d="M71.045,244.034c-2.083-7.62-8.391-13.447-16.07-14.846c-3.944-0.719-8.098-0.719-12.041,0
					c-8.014,1.459-14.403,7.584-16.276,15.603c-0.314,1.345,0.521,2.689,1.866,3.003c0.191,0.044,0.383,0.066,0.571,0.066
					c1.135,0,2.163-0.779,2.433-1.932c1.42-6.079,6.249-10.719,12.303-11.821c3.355-0.611,6.893-0.611,10.249,0
					c5.798,1.056,10.564,5.47,12.143,11.245c0.364,1.332,1.737,2.115,3.071,1.752C70.625,246.741,71.409,245.366,71.045,244.034z"/>
			</g>
		</g>
		<g>
			<g>
				<g>
					<g>
						<path d="M48.537,206.761c-7.371,0-13.368,5.997-13.368,13.368s5.997,13.368,13.368,13.368s13.368-5.997,13.368-13.368
							S55.908,206.761,48.537,206.761z M48.537,228.497c-4.614,0-8.368-3.754-8.368-8.368s3.754-8.368,8.368-8.368
							s8.368,3.754,8.368,8.368S53.151,228.497,48.537,228.497z"/>
					</g>
				</g>
			</g>
		</g>
	</g>
</g>
<g id="Layer_27">
</g>
<g id="Layer_28">
</g>
<g id="Layer_29">
</g>
<g id="Layer_30">
</g>
<g id="Layer_31">
</g>
<g id="Layer_32">
</g>
<g id="Layer_33">
</g>
<g id="Layer_34">
</g>
<g id="Layer_35">
</g>
<g id="Layer_36">
</g>
<g id="Layer_37">
</g>
<g id="Layer_38">
</g>
<g id="Layer_39">
</g>
<g id="Layer_40">
</g>
<g id="Layer_41">
</g>
<g id="Layer_42">
</g>
<g id="Layer_43">
</g>
<g id="Layer_44">
</g>
<g id="Layer_45">
</g>
<g id="Layer_46">
</g>
<g id="Layer_47">
</g>
<g id="Layer_48">
</g>
<g id="Layer_49">
</g>
<g id="Layer_50">
</g>
<g id="Layer_51">
</g>
<g id="Layer_52">
</g>
<g id="Layer_53">
</g>
<g id="Layer_54">
</g>
<g id="Layer_55">
</g>
<g id="Layer_56">
</g>
<g id="Layer_57">
</g>
<g id="Layer_58">
</g>
<g id="Layer_59">
</g>
<g id="Layer_60">
</g>
<g id="Layer_61">
</g>
<g id="Layer_62">
</g>
<g id="Layer_63">
</g>
<g id="Layer_64">
</g>
<g id="Layer_65">
</g>
<g id="Layer_66">
</g>
<g id="Layer_67">
</g>
<g id="Layer_68">
</g>
<g id="Layer_69">
</g>
<g id="Layer_70">
</g>
<g id="Layer_71">
</g>
<g id="Layer_72">
</g>
<g id="Layer_73">
</g>
<g id="Layer_74">
</g>
<g id="Layer_75">
</g>
<g id="Layer_76">
</g>
<g id="Layer_77">
</g>
<g id="Layer_78">
</g>
<g id="Layer_79">
</g>
<g id="Layer_80">
</g>
</svg>
