<?xml version="1.0" encoding="utf-8"?>
<!-- Generator: Adobe Illustrator 24.0.0, SVG Export Plug-In . SVG Version: 6.00 Build 0)  -->
<svg version="1.1" xmlns="http://www.w3.org/2000/svg" xmlns:xlink="http://www.w3.org/1999/xlink" x="0px" y="0px"
	 viewBox="0 0 256 256" enable-background="new 0 0 256 256" xml:space="preserve">
<g id="Layer_1">
</g>
<g id="Layer_2">
</g>
<g id="Layer_3">
</g>
<g id="Layer_4">
</g>
<g id="Layer_5">
</g>
<g id="Layer_6">
</g>
<g id="Layer_7">
</g>
<g id="Layer_8">
</g>
<g id="Layer_9">
</g>
<g id="Layer_10">
</g>
<g id="Layer_11">
</g>
<g id="Layer_12">
</g>
<g id="Layer_13">
</g>
<g id="Layer_14">
</g>
<g id="Layer_15">
</g>
<g id="Layer_16">
</g>
<g id="Layer_17">
</g>
<g id="Layer_18">
</g>
<g id="Layer_19">
</g>
<g id="Layer_20">
</g>
<g id="Layer_21">
</g>
<g id="Layer_22">
</g>
<g id="Layer_23">
</g>
<g id="Layer_24">
</g>
<g id="Layer_25">
</g>
<g id="Layer_26">
</g>
<g id="Layer_27">
</g>
<g id="Layer_28">
</g>
<g id="Layer_29">
</g>
<g id="Layer_30">
</g>
<g id="Layer_31">
</g>
<g id="Layer_32">
</g>
<g id="Layer_33">
</g>
<g id="Layer_34">
</g>
<g id="Layer_35">
</g>
<g id="Layer_36">
</g>
<g id="Layer_37">
</g>
<g id="Layer_38">
</g>
<g id="Layer_39">
	<g>
		<g>
			<g>
				<path fill="#70D6F9" d="M226.631,102.501l-11.339-2.854c-6.01-1.513-10.736-4.105-10.675-4.074
					c-2.471-1.218-4.035-3.734-4.035-6.489v-3.408c-2.893,1.514-6.174,2.376-9.649,2.376s-6.756-0.863-9.649-2.376v3.408
					c0,2.751-1.561,5.269-4.028,6.485c-3.342,1.648-6.257,2.964-10.683,4.078l-11.339,2.854c-3.508,0.883-6.033,3.944-6.235,7.555
					c27.314,8.468,56.552,8.468,83.865,0C232.664,106.445,230.138,103.384,226.631,102.501z"/>
			</g>
		</g>
		<g>
			<g>
				<path fill="#5290DB" d="M233,131.966h-89.911c-2.762,0-5,2.239-5,5v39.743H90.403c-2.762,0-5,2.239-5,5v44.632H23
					c-2.762,0-5,2.239-5,5s2.238,5,5,5h67.403c2.762,0,5-2.239,5-5v-44.632h47.686c2.762,0,5-2.239,5-5v-39.743H233
					c2.762,0,5-2.239,5-5S235.762,131.966,233,131.966z"/>
			</g>
		</g>
		<g>
			<g>
				<path fill="#F9D0B4" d="M208.885,42.057c-1.37-1.436-3.596-1.568-5.157-0.343c-2.468,1.938-6.739,4.332-12.771,4.332
					c-6.047,0-10.34-2.406-12.819-4.346c-1.56-1.221-3.782-1.084-5.149,0.349l-0.007,0.008c-1.92,2.014-2.992,4.69-2.992,7.473
					v17.577c0,11.519,9.425,20.944,20.944,20.944c11.519,0,20.944-9.425,20.944-20.944V49.531
					C211.876,46.748,210.805,44.072,208.885,42.057z"/>
			</g>
		</g>
		<g>
			<g>
				<path fill="#F9D0B4" d="M213.22,51.146c-0.458,0-0.906,0.039-1.344,0.107v15.855c0,0.472-0.022,0.94-0.053,1.405
					c0.456,0.073,0.92,0.122,1.397,0.122c4.829,0,8.744-3.915,8.744-8.744C221.964,55.061,218.05,51.146,213.22,51.146z"/>
			</g>
		</g>
		<g>
			<g>
				<path fill="#F9D0B4" d="M169.989,67.107V51.252c-0.438-0.068-0.886-0.107-1.344-0.107c-4.829,0-8.744,3.915-8.744,8.744
					c0,4.829,3.915,8.744,8.744,8.744c0.477,0,0.941-0.048,1.397-0.122v0C170.011,68.047,169.989,67.58,169.989,67.107z"/>
			</g>
		</g>
		<g>
			<g>
				<path fill="#5B5D60" d="M211.798,33.281c-0.701,0-1.309-0.541-1.319-1.242c-0.161-11.67-13.488-13.863-26.759-11.571
					c-11.252,1.943-19.476,11.701-19.476,23.12v8.756c1.294-0.756,2.795-1.197,4.401-1.197c0.458,0,0.906,0.039,1.344,0.107v-1.722
					c0-2.783,1.071-5.459,2.992-7.473l0.007-0.008c1.367-1.433,3.589-1.57,5.149-0.349c2.479,1.94,6.772,4.346,12.819,4.346
					c6.032,0,10.303-2.395,12.771-4.332c1.561-1.225,3.788-1.093,5.157,0.343c1.92,2.014,2.992,4.69,2.992,7.473v1.722
					c0.438-0.068,0.886-0.107,1.344-0.107c1.626,0,3.143,0.452,4.448,1.225v-7.189C217.668,34.732,213.895,33.281,211.798,33.281z"
					/>
			</g>
		</g>
		<g>
			<g>
				<path fill="#9BE5F9" d="M204.617,95.572c-0.495-0.244-0.941-0.552-1.358-0.892l-8.403,9.621
					c-0.659,0.755-0.582,1.901,0.173,2.56l5.469,4.777c0.755,0.659,1.901,0.582,2.56-0.173l10.691-12.24
					C208.495,97.698,204.561,95.545,204.617,95.572z"/>
			</g>
		</g>
		<g>
			<g>
				<path fill="#9BE5F9" d="M187.01,104.301l-8.403-9.621c-0.417,0.34-0.864,0.648-1.358,0.892
					c-2.933,1.446-5.539,2.636-9.126,3.659l10.686,12.234c0.659,0.755,1.805,0.832,2.56,0.173l5.469-4.777
					C187.592,106.202,187.669,105.056,187.01,104.301z"/>
			</g>
		</g>
		<g>
			<g>
				<path fill="#F9D0B4" d="M200.582,89.083v-3.409c-2.893,1.514-6.174,2.376-9.649,2.376h0c-3.475,0-6.756-0.862-9.649-2.376v3.409
					c0,2.203-1.012,4.241-2.677,5.597l8.403,9.621c0.25,0.287,0.393,0.631,0.434,0.982h6.977c0.041-0.352,0.184-0.695,0.434-0.982
					l8.403-9.621C201.594,93.324,200.582,91.286,200.582,89.083z"/>
			</g>
		</g>
		<g>
			<g>
				<path fill="#70D6F9" d="M231.906,179.1h-2.4v-2.3c0-1.8-1.4-3.2-3.2-3.2c-1.7,0-3.2,1.4-3.2,3.1v2.4h-2.3
					c-1.8,0-3.2,1.4-3.2,3.2c-0.1,1.7,1.3,3.2,3.2,3.2h2.3v2.3c0,1.8,1.4,3.2,3.2,3.2c1.7,0,3.2-1.4,3.2-3.1v-2.4h2.3
					c1.8,0,3.2-1.4,3.2-3.2C235.006,180.6,233.606,179.1,231.906,179.1z"/>
			</g>
		</g>
		<g>
			<g>
				<path fill="#F5C84C" d="M252.6,155.5c-1.878,0-3.4,1.522-3.4,3.4c0,1.878,1.522,3.4,3.4,3.4s3.4-1.522,3.4-3.4
					C256,157.022,254.478,155.5,252.6,155.5z"/>
			</g>
		</g>
		<g>
			<g>
				<path fill="#FC657E" d="M131.15,55.175c-3.1-0.6-5.6-3-6.2-6.1c0-0.1-0.3-0.1-0.3,0c-0.6,3.1-3.1,5.5-6.2,6.1
					c-0.1,0-0.1,0.2,0,0.3c3.1,0.6,5.6,3,6.2,6.1c0,0.1,0.3,0.1,0.3,0c0.6-3.1,3.1-5.5,6.2-6.1
					C131.25,55.375,131.25,55.175,131.15,55.175z"/>
			</g>
		</g>
		<g>
			<g>
				<path fill="#87D147" d="M3.4,162c-1.878,0-3.4,1.522-3.4,3.4c0,1.878,1.522,3.4,3.4,3.4c1.878,0,3.4-1.522,3.4-3.4
					C6.8,163.522,5.278,162,3.4,162z"/>
			</g>
		</g>
		<g>
			<g>
				<path fill="#F5C84C" d="M37.15,132.2c-4.5-0.8-8-4.3-8.9-8.7c0-0.2-0.4-0.2-0.4,0c-0.9,4.4-4.4,7.9-8.9,8.7
					c-0.2,0-0.2,0.3,0,0.4c4.5,0.8,8,4.3,8.9,8.7c0,0.2,0.4,0.2,0.4,0c0.9-4.4,4.4-7.9,8.9-8.7C37.35,132.5,37.35,132.2,37.15,132.2
					z"/>
			</g>
		</g>
		<g>
			<g>
				<path d="M181.284,83.516c-1.381,0-2.5,1.119-2.5,2.5v3.067c0,1.816-1.012,3.444-2.642,4.247
					c-3.013,1.486-5.857,2.805-10.18,3.893l-11.339,2.854c-4.594,1.156-7.856,5.111-8.12,9.84c-0.077,1.379,0.979,2.559,2.357,2.635
					c0.047,0.002,0.094,0.004,0.141,0.004c1.317,0,2.42-1.03,2.494-2.361c0.142-2.533,1.889-4.651,4.349-5.27l11.339-2.854
					c4.798-1.208,7.897-2.643,11.17-4.257c3.35-1.651,5.431-4.997,5.431-8.731v-3.067C183.784,84.635,182.665,83.516,181.284,83.516
					z"/>
			</g>
		</g>
		<g>
			<g>
				<path d="M227.241,100.077l-11.339-2.854c-5.433-1.368-9.816-3.698-10.056-3.827c-0.041-0.023-0.082-0.045-0.124-0.065
					c-1.629-0.804-2.642-2.431-2.642-4.247v-2.937c0-1.381-1.119-2.5-2.5-2.5s-2.5,1.119-2.5,2.5v2.937
					c0,3.679,2.02,6.98,5.281,8.656c0.659,0.417,1.695,0.883,3.362,1.603c1.837,0.793,4.709,1.911,7.957,2.729l11.339,2.854
					c2.46,0.619,4.207,2.737,4.349,5.27c0.074,1.331,1.177,2.361,2.494,2.361c0.047,0,0.094-0.001,0.141-0.004
					c1.379-0.077,2.435-1.256,2.357-2.635C235.098,105.187,231.835,101.232,227.241,100.077z"/>
			</g>
		</g>
		<g>
			<g>
				<g>
					<g>
						<g>
							<path d="M233,129.466h-89.911c-4.136,0-7.5,3.364-7.5,7.5v37.243H90.403c-4.136,0-7.5,3.364-7.5,7.5v42.132H23
								c-4.136,0-7.5,3.364-7.5,7.5s3.364,7.5,7.5,7.5h67.403c4.136,0,7.5-3.364,7.5-7.5v-42.132h45.186c4.136,0,7.5-3.364,7.5-7.5
								v-37.243H233c4.136,0,7.5-3.364,7.5-7.5S237.136,129.466,233,129.466z M233,139.466h-84.911c-1.381,0-2.5,1.119-2.5,2.5
								v39.743c0,1.378-1.121,2.5-2.5,2.5H95.403c-1.381,0-2.5,1.119-2.5,2.5v44.632c0,1.378-1.121,2.5-2.5,2.5H23
								c-1.379,0-2.5-1.122-2.5-2.5s1.121-2.5,2.5-2.5h62.403c1.381,0,2.5-1.119,2.5-2.5v-44.632c0-1.378,1.121-2.5,2.5-2.5h47.686
								c1.381,0,2.5-1.119,2.5-2.5v-39.743c0-1.378,1.121-2.5,2.5-2.5H233c1.379,0,2.5,1.122,2.5,2.5S234.379,139.466,233,139.466z"
								/>
						</g>
					</g>
				</g>
			</g>
		</g>
		<g>
			<g>
				<path d="M63.349,160.176c-12.207,0.465-23.503,5.657-31.806,14.618c-8.303,8.961-12.619,20.619-12.153,32.827
					c0.051,1.347,1.159,2.405,2.496,2.405c0.032,0,0.064,0,0.098-0.002c1.379-0.052,2.455-1.214,2.402-2.593
					c-0.415-10.873,3.43-21.256,10.825-29.238c7.395-7.981,17.455-12.605,28.329-13.02c1.379-0.052,2.455-1.213,2.402-2.593
					C65.891,161.2,64.778,160.111,63.349,160.176z"/>
			</g>
		</g>
		<g>
			<g>
				<path d="M70.598,161.016l-8.949-8.615c-0.993-0.958-2.577-0.929-3.534,0.067c-0.958,0.995-0.928,2.577,0.066,3.535l7.147,6.881
					l-6.881,7.147c-0.958,0.995-0.928,2.577,0.066,3.535c0.485,0.467,1.11,0.699,1.734,0.699c0.655,0,1.311-0.256,1.801-0.766
					l8.615-8.948c0.46-0.478,0.711-1.118,0.699-1.781C71.351,162.106,71.075,161.476,70.598,161.016z"/>
			</g>
		</g>
		<g>
			<g>
				<path d="M122.349,102.176c-12.207,0.465-23.503,5.657-31.806,14.618c-8.303,8.961-12.619,20.619-12.153,32.827
					c0.051,1.347,1.159,2.405,2.496,2.405c0.032,0,0.064,0,0.098-0.002c1.379-0.052,2.455-1.214,2.402-2.593
					c-0.415-10.873,3.43-21.256,10.825-29.238c7.395-7.981,17.455-12.605,28.329-13.02c1.379-0.052,2.455-1.213,2.402-2.593
					C124.891,103.2,123.775,102.11,122.349,102.176z"/>
			</g>
		</g>
		<g>
			<g>
				<path d="M129.598,103.016l-8.949-8.615c-0.994-0.958-2.577-0.929-3.534,0.067c-0.958,0.995-0.928,2.577,0.066,3.535l7.147,6.881
					l-6.881,7.147c-0.958,0.995-0.928,2.577,0.066,3.535c0.485,0.467,1.11,0.699,1.734,0.699c0.655,0,1.311-0.256,1.801-0.766
					l8.615-8.948c0.46-0.478,0.711-1.118,0.699-1.781C130.351,104.106,130.075,103.476,129.598,103.016z"/>
			</g>
		</g>
		<g>
			<g>
				<g>
					<g>
						<path d="M210.694,40.333L210.694,40.333c-2.261-2.369-5.918-2.62-8.511-0.585c-2.208,1.733-5.948,3.799-11.228,3.799
							c-5.293,0-9.055-2.075-11.278-3.815c-2.588-2.026-6.242-1.771-8.498,0.593c-0.01,0.01-0.021,0.021-0.031,0.033
							c-2.36,2.487-3.659,5.743-3.659,9.173v17.577c0,12.927,10.517,23.444,23.443,23.444s23.443-10.517,23.443-23.444V49.53
							C214.376,46.089,213.068,42.823,210.694,40.333z M209.376,67.107c0,10.17-8.273,18.444-18.443,18.444
							s-18.443-8.274-18.443-18.444V49.53c0-2.15,0.817-4.191,2.301-5.747c0.007-0.007,0.015-0.015,0.022-0.023
							c0.473-0.48,1.234-0.521,1.783-0.091c2.843,2.225,7.642,4.877,14.36,4.877c6.708,0,11.486-2.646,14.315-4.866
							c0.557-0.437,1.332-0.391,1.804,0.102c1.483,1.556,2.301,3.597,2.301,5.748V67.107z"/>
					</g>
				</g>
			</g>
		</g>
		<g>
			<g>
				<path d="M213.221,48.646c-1.381,0-2.5,1.119-2.5,2.5s1.119,2.5,2.5,2.5c3.443,0,6.244,2.801,6.244,6.244
					s-2.801,6.244-6.244,6.244c-1.381,0-2.5,1.119-2.5,2.5s1.119,2.5,2.5,2.5c6.2,0,11.244-5.044,11.244-11.244
					S219.421,48.646,213.221,48.646z"/>
			</g>
		</g>
		<g>
			<g>
				<path d="M168.646,66.134c-3.443,0-6.244-2.801-6.244-6.244s2.801-6.244,6.244-6.244c1.381,0,2.5-1.119,2.5-2.5
					s-1.119-2.5-2.5-2.5c-6.2,0-11.244,5.044-11.244,11.244s5.044,11.244,11.244,11.244c1.381,0,2.5-1.119,2.5-2.5
					S170.026,66.134,168.646,66.134z"/>
			</g>
		</g>
		<g>
			<g>
				<path d="M212.926,30.874c-0.31-3.785-1.919-6.976-4.693-9.279c-6.85-5.688-18.564-4.691-24.938-3.59
					c-12.487,2.157-21.551,12.916-21.551,25.583v8.372c0,1.381,1.119,2.5,2.5,2.5s2.5-1.119,2.5-2.5v-8.372
					c0-10.228,7.318-18.915,17.402-20.656c9.261-1.599,17.075-0.661,20.894,2.51c1.939,1.611,2.901,3.78,2.94,6.632
					c0.028,2.044,1.741,3.708,3.818,3.708c2.079,0,3.37,3.603,3.37,9.401v6.943c0,1.381,1.119,2.5,2.5,2.5s2.5-1.119,2.5-2.5v-6.943
					C220.168,33.87,215.734,31.339,212.926,30.874z"/>
			</g>
		</g>
		<g>
			<g>
				<path d="M214.828,97.989c-1.039-0.909-2.619-0.803-3.527,0.238l-9.675,11.077l-4.437-3.874l7.64-8.747
					c0.908-1.04,0.802-2.619-0.238-3.527c-1.039-0.908-2.619-0.803-3.527,0.238l-8.091,9.263c-1.565,1.792-1.381,4.523,0.411,6.087
					l5.47,4.777c0.792,0.692,1.788,1.065,2.831,1.065c0.099,0,0.198-0.003,0.298-0.01c1.149-0.078,2.2-0.598,2.958-1.466
					l10.126-11.593C215.975,100.476,215.868,98.897,214.828,97.989z"/>
			</g>
		</g>
		<g>
			<g>
				<path d="M188.893,102.657l-8.003-9.163c-0.908-1.04-2.488-1.147-3.527-0.238c-1.04,0.908-1.146,2.487-0.238,3.527l7.552,8.647
					l-4.436,3.874l-9.876-11.307c-0.909-1.041-2.489-1.146-3.527-0.238c-1.04,0.908-1.146,2.487-0.238,3.527l10.327,11.823
					c0.852,0.975,2.048,1.474,3.252,1.474c1.007,0,2.019-0.35,2.835-1.063l5.469-4.776c0.868-0.758,1.389-1.809,1.467-2.959
					C190.025,104.636,189.65,103.525,188.893,102.657z"/>
			</g>
		</g>
		<g>
			<g>
				<path d="M194.063,102.784h-5.959c-1.381,0-2.5,1.119-2.5,2.5s1.119,2.5,2.5,2.5h5.959c1.381,0,2.5-1.119,2.5-2.5
					S195.443,102.784,194.063,102.784z"/>
			</g>
		</g>
	</g>
</g>
<g id="Layer_40">
</g>
<g id="Layer_41">
</g>
<g id="Layer_42">
</g>
<g id="Layer_43">
</g>
<g id="Layer_44">
</g>
<g id="Layer_45">
</g>
<g id="Layer_46">
</g>
<g id="Layer_47">
</g>
<g id="Layer_48">
</g>
<g id="Layer_49">
</g>
<g id="Layer_50">
</g>
<g id="Layer_51">
</g>
<g id="Layer_52">
</g>
<g id="Layer_53">
</g>
<g id="Layer_54">
</g>
<g id="Layer_55">
</g>
<g id="Layer_56">
</g>
<g id="Layer_57">
</g>
<g id="Layer_58">
</g>
<g id="Layer_59">
</g>
<g id="Layer_60">
</g>
<g id="Layer_61">
</g>
<g id="Layer_62">
</g>
<g id="Layer_63">
</g>
<g id="Layer_64">
</g>
<g id="Layer_65">
</g>
<g id="Layer_66">
</g>
<g id="Layer_67">
</g>
<g id="Layer_68">
</g>
<g id="Layer_69">
</g>
<g id="Layer_70">
</g>
<g id="Layer_71">
</g>
<g id="Layer_72">
</g>
<g id="Layer_73">
</g>
<g id="Layer_74">
</g>
<g id="Layer_75">
</g>
<g id="Layer_76">
</g>
<g id="Layer_77">
</g>
<g id="Layer_78">
</g>
<g id="Layer_79">
</g>
<g id="Layer_80">
</g>
</svg>
