<?xml version="1.0" encoding="utf-8"?>
<!-- Generator: Adobe Illustrator 24.0.0, SVG Export Plug-In . SVG Version: 6.00 Build 0)  -->
<svg version="1.1" xmlns="http://www.w3.org/2000/svg" xmlns:xlink="http://www.w3.org/1999/xlink" x="0px" y="0px"
	 viewBox="0 0 256 256" enable-background="new 0 0 256 256" xml:space="preserve">
<g id="Layer_1">
</g>
<g id="Layer_2">
</g>
<g id="Layer_3">
</g>
<g id="Layer_4">
</g>
<g id="Layer_5">
</g>
<g id="Layer_6">
</g>
<g id="Layer_7">
</g>
<g id="Layer_8">
</g>
<g id="Layer_9">
</g>
<g id="Layer_10">
</g>
<g id="Layer_11">
</g>
<g id="Layer_12">
</g>
<g id="Layer_13">
</g>
<g id="Layer_14">
</g>
<g id="Layer_15">
</g>
<g id="Layer_16">
</g>
<g id="Layer_17">
</g>
<g id="Layer_18">
</g>
<g id="Layer_19">
</g>
<g id="Layer_20">
</g>
<g id="Layer_21">
</g>
<g id="Layer_22">
</g>
<g id="Layer_23">
</g>
<g id="Layer_24">
</g>
<g id="Layer_25">
</g>
<g id="Layer_26">
</g>
<g id="Layer_27">
</g>
<g id="Layer_28">
</g>
<g id="Layer_29">
	<g>
		<g>
			<g>
				<circle fill="#70D6F9" cx="128" cy="99.5" r="82.5"/>
			</g>
		</g>
		<g>
			<g>
				<circle fill="#DAE6F1" cx="128" cy="99.5" r="62.5"/>
			</g>
		</g>
		<g>
			<g>
				<g>
					<g>
						<g>
							<path fill="#FC657E" d="M134.126,57.448c2.275,1.871,3.726,4.707,3.726,7.883c0,5.635-4.568,10.203-10.203,10.203
								s-10.203-4.568-10.203-10.203c0-3.102,1.39-5.876,3.575-7.747C100.896,60.923,85.5,78.443,85.5,99.5
								c0,7.302,1.852,14.179,5.11,20.188c2.235-4.983,6.768-8.73,12.369-9.75c1.697-0.309,3.445-0.471,5.231-0.471
								c1.786,0,3.534,0.161,5.231,0.471c7.062,1.286,12.42,6.904,13.618,13.873c0.102,0.593,0.13,1.197,0.13,1.798v5.274
								c0,1.098-0.89,1.989-1.989,1.989h-23.469C108.968,138.581,118.089,142,128,142c9.911,0,19.032-3.419,26.269-9.127h-23.47
								c-1.098,0-1.989-0.891-1.989-1.989v-4.828c0-0.439,0.013-0.88,0.064-1.316c0.861-7.396,6.393-13.458,13.767-14.802
								c1.697-0.309,3.445-0.471,5.231-0.471s3.534,0.161,5.231,0.471c5.575,1.016,10.078,4.736,12.321,9.684
								c3.236-5.994,5.076-12.846,5.076-20.122C170.5,78.146,154.667,60.427,134.126,57.448z M147.479,109.327
								c-5.635,0-10.203-4.568-10.203-10.203c0-0.017,0.002-0.034,0.003-0.052c0,0.002,0,0.004,0,0.005h-19.26
								c0,0.016,0.002,0.031,0.002,0.046c0,5.635-4.568,10.203-10.203,10.203s-10.203-4.568-10.203-10.203
								s4.568-10.203,10.203-10.203c0.534,0,1.055,0.053,1.566,0.133l0,0c1.508-6.518,6.693-11.683,13.426-12.91
								c1.697-0.309,3.445-0.471,5.231-0.471c1.786,0,3.534,0.162,5.231,0.471c6.701,1.221,11.861,6.344,13.395,12.819
								c0.269-0.021,0.538-0.041,0.812-0.041c5.635,0,10.203,4.568,10.203,10.203S153.114,109.327,147.479,109.327z"/>
						</g>
					</g>
				</g>
			</g>
		</g>
		<g>
			<g>
				<path fill="#C18E6B" d="M95.469,175.303l-19.095,67.842c-1.219,4.33,1.304,8.829,5.634,10.048
					c4.33,1.219,8.829-1.304,10.048-5.634l18.951-67.328C105.616,179.098,100.419,177.436,95.469,175.303z"/>
			</g>
		</g>
		<g>
			<g>
				<path fill="#C18E6B" d="M179.626,243.146l-19.095-67.842c-4.95,2.132-10.146,3.794-15.537,4.928l18.951,67.328
					c1.219,4.33,5.717,6.853,10.048,5.634C178.323,251.974,180.845,247.476,179.626,243.146z"/>
			</g>
		</g>
		<g>
			<g>
				<polygon fill="#A57453" points="150.699,200.5 105.301,200.5 101.361,214.5 154.639,214.5 				"/>
			</g>
		</g>
		<g>
			<g>
				<path fill="#F5C84C" d="M133.273,76.144c-1.697-0.309-3.445-0.471-5.231-0.471c-1.786,0-3.534,0.162-5.231,0.471
					c-6.733,1.227-11.918,6.392-13.426,12.91c4.874,0.753,8.612,4.944,8.635,10.024h19.26c0.024-5.34,4.15-9.702,9.389-10.116
					C145.134,82.488,139.973,77.365,133.273,76.144z"/>
			</g>
		</g>
		<g>
			<g>
				<circle fill="#F9D0B4" cx="127.649" cy="65.33" r="10.203"/>
			</g>
		</g>
		<g>
			<g>
				<path fill="#6CADEF" d="M127.06,123.812c-1.198-6.969-6.557-12.587-13.618-13.873c-1.697-0.309-3.445-0.471-5.231-0.471
					c-1.786,0-3.534,0.161-5.231,0.471c-7.374,1.343-12.905,7.406-13.767,14.802c-0.051,0.436-0.064,0.877-0.064,1.316v4.828
					c0,1.098,0.89,1.989,1.989,1.989h34.063c1.098,0,1.989-0.891,1.989-1.989v-5.274C127.19,125.008,127.162,124.405,127.06,123.812
					z"/>
			</g>
		</g>
		<g>
			<g>
				<circle fill="#F9D0B4" cx="107.818" cy="99.125" r="10.203"/>
			</g>
		</g>
		<g>
			<g>
				<path fill="#87D147" d="M166.721,123.812c-1.198-6.969-6.557-12.587-13.618-13.873c-1.697-0.309-3.445-0.471-5.231-0.471
					s-3.534,0.161-5.231,0.471c-7.374,1.343-12.906,7.406-13.767,14.802c-0.051,0.436-0.064,0.877-0.064,1.316v4.828
					c0,1.098,0.89,1.989,1.989,1.989h34.063c1.099,0,1.989-0.891,1.989-1.989v-5.274
					C166.851,125.008,166.823,124.405,166.721,123.812z"/>
			</g>
		</g>
		<g>
			<g>
				<circle fill="#F9D0B4" cx="147.479" cy="99.125" r="10.203"/>
			</g>
		</g>
		<g>
			<g>
				<g>
					<g>
						<path d="M128,14.5c-46.869,0-85,38.131-85,85s38.131,85,85,85s85-38.131,85-85S174.869,14.5,128,14.5z M128,179.5
							c-44.112,0-80-35.888-80-80s35.888-80,80-80s80,35.888,80,80S172.112,179.5,128,179.5z"/>
					</g>
				</g>
			</g>
		</g>
		<g>
			<g>
				<g>
					<g>
						<path d="M128,34.5c-35.841,0-65,29.159-65,65s29.159,65,65,65s65-29.159,65-65S163.841,34.5,128,34.5z M128,159.5
							c-33.084,0-60-26.916-60-60s26.916-60,60-60s60,26.916,60,60S161.084,159.5,128,159.5z"/>
					</g>
				</g>
			</g>
		</g>
		<g>
			<g>
				<g>
					<g>
						<g>
							<path d="M88,99.5c0-19.582,14.008-36.165,33.307-39.43c1.361-0.23,2.278-1.521,2.048-2.882
								c-0.229-1.361-1.524-2.278-2.882-2.048C98.76,58.814,83,77.47,83,99.5c0,7.391,1.841,14.727,5.323,21.216
								c0.451,0.84,1.313,1.318,2.205,1.318c0.399,0,0.804-0.096,1.181-0.298c1.216-0.653,1.673-2.168,1.021-3.385
								C89.636,112.587,88,106.068,88,99.5z M152.531,131.057c-7.088,5.523-15.57,8.443-24.531,8.443
								c-8.877,0-17.298-2.871-24.35-8.301c-1.096-0.842-2.664-0.638-3.506,0.456c-0.843,1.094-0.639,2.664,0.455,3.506
								c7.935,6.11,17.409,9.339,27.4,9.339c10.085,0,19.631-3.285,27.605-9.499c1.089-0.849,1.283-2.42,0.435-3.509
								C155.193,130.403,153.622,130.209,152.531,131.057z M134.829,55.025c-1.355-0.205-2.64,0.728-2.85,2.093
								c-0.208,1.365,0.729,2.641,2.094,2.849C153.415,62.926,168,79.921,168,99.5c0,6.53-1.618,13.016-4.681,18.756
								c-0.649,1.218-0.188,2.733,1.029,3.383c0.375,0.2,0.777,0.294,1.175,0.294c0.894,0,1.758-0.48,2.208-1.324
								c3.446-6.463,5.269-13.762,5.269-21.11C173,77.474,156.59,58.354,134.829,55.025z"/>
						</g>
					</g>
				</g>
			</g>
		</g>
		<g>
			<g>
				<path fill="#70D6F9" d="M46.906,168.1h-2.4v-2.3c0-1.8-1.4-3.2-3.2-3.2c-1.7,0-3.2,1.4-3.2,3.1v2.4h-2.3c-1.8,0-3.2,1.4-3.2,3.2
					c-0.1,1.7,1.3,3.2,3.2,3.2h2.3v2.3c0,1.8,1.4,3.2,3.2,3.2c1.7,0,3.2-1.4,3.2-3.1v-2.4h2.3c1.8,0,3.2-1.4,3.2-3.2
					C50.006,169.6,48.606,168.1,46.906,168.1z"/>
			</g>
		</g>
		<g>
			<g>
				<path fill="#F5C84C" d="M59.206,197.5c-1.878,0-3.4,1.522-3.4,3.4c0,1.878,1.522,3.4,3.4,3.4c1.878,0,3.4-1.522,3.4-3.4
					C62.606,199.022,61.083,197.5,59.206,197.5z"/>
			</g>
		</g>
		<g>
			<g>
				<path fill="#FC657E" d="M208.15,175.175c-3.1-0.6-5.6-3-6.2-6.1c0-0.1-0.3-0.1-0.3,0c-0.6,3.1-3.1,5.5-6.2,6.1
					c-0.1,0-0.1,0.2,0,0.3c3.1,0.6,5.6,3,6.2,6.1c0,0.1,0.3,0.1,0.3,0c0.6-3.1,3.1-5.5,6.2-6.1
					C208.25,175.375,208.25,175.175,208.15,175.175z"/>
			</g>
		</g>
		<g>
			<g>
				<path fill="#87D147" d="M175.369,0c-1.878,0-3.4,1.522-3.4,3.4c0,1.878,1.522,3.4,3.4,3.4s3.4-1.522,3.4-3.4
					C178.769,1.522,177.246,0,175.369,0z"/>
			</g>
		</g>
		<g>
			<g>
				<path fill="#F5C84C" d="M214.15,23.2c-4.5-0.8-8-4.3-8.9-8.7c0-0.2-0.4-0.2-0.4,0c-0.9,4.4-4.4,7.9-8.9,8.7
					c-0.2,0-0.2,0.3,0,0.4c4.5,0.8,8,4.3,8.9,8.7c0,0.2,0.4,0.2,0.4,0c0.9-4.4,4.4-7.9,8.9-8.7C214.35,23.5,214.35,23.2,214.15,23.2
					z"/>
			</g>
		</g>
		<g>
			<g>
				<path d="M111.439,178.692c-1.333-0.374-2.71,0.401-3.084,1.729l-18.706,66.461c-0.409,1.451-1.358,2.657-2.674,3.395
					c-1.314,0.736-2.839,0.918-4.29,0.51c-2.997-0.844-4.748-3.968-3.905-6.964l18.845-66.953c0.374-1.329-0.399-2.709-1.729-3.083
					c-1.334-0.376-2.71,0.4-3.084,1.729l-18.845,66.953c-1.591,5.65,1.713,11.542,7.362,13.131c0.961,0.271,1.929,0.399,2.881,0.399
					c4.648,0,8.932-3.073,10.251-7.762l18.706-66.461C113.542,180.447,112.769,179.066,111.439,178.692z"/>
			</g>
		</g>
		<g>
			<g>
				<path d="M182.032,242.468l-18.829-66.897c-0.374-1.328-1.751-2.106-3.084-1.729c-1.329,0.374-2.103,1.754-1.729,3.083
					l18.829,66.897c0.843,2.997-0.908,6.121-3.905,6.964c-2.994,0.842-6.121-0.908-6.964-3.904l-18.754-66.631
					c-0.374-1.329-1.752-2.104-3.084-1.729c-1.329,0.375-2.103,1.755-1.729,3.084l18.754,66.631
					c1.319,4.69,5.602,7.762,10.251,7.762c0.952,0,1.92-0.129,2.881-0.399C180.319,254.01,183.623,248.119,182.032,242.468z"/>
			</g>
		</g>
		<g>
			<g>
				<path d="M150,198h-43.833c-1.381,0-2.5,1.119-2.5,2.5s1.119,2.5,2.5,2.5H150c1.381,0,2.5-1.119,2.5-2.5S151.381,198,150,198z"/>
			</g>
		</g>
		<g>
			<g>
				<path d="M153.583,212h-51.25c-1.381,0-2.5,1.119-2.5,2.5s1.119,2.5,2.5,2.5h51.25c1.381,0,2.5-1.119,2.5-2.5
					S154.964,212,153.583,212z"/>
			</g>
		</g>
		<g>
			<g>
				<path d="M136.625,96.578h-17.667c-1.381,0-2.5,1.119-2.5,2.5s1.119,2.5,2.5,2.5h17.667c1.381,0,2.5-1.119,2.5-2.5
					S138.006,96.578,136.625,96.578z"/>
			</g>
		</g>
		<g>
			<g>
				<path d="M148.996,87.966c-1.907-7.332-7.903-12.938-15.275-14.281c-3.727-0.679-7.633-0.679-11.359,0
					c-7.359,1.341-13.354,6.932-15.273,14.243c-0.351,1.335,0.448,2.703,1.783,3.053c1.335,0.353,2.702-0.448,3.053-1.783
					c1.428-5.441,5.877-9.599,11.334-10.594c3.135-0.571,6.432-0.571,9.566,0c5.465,0.996,9.913,5.165,11.332,10.621
					c0.293,1.125,1.308,1.871,2.418,1.871c0.209,0,0.42-0.026,0.631-0.081C148.542,90.667,149.343,89.302,148.996,87.966z"/>
			</g>
		</g>
		<g>
			<g>
				<g>
					<g>
						<path d="M127.648,52.627c-7.004,0-12.702,5.699-12.702,12.703s5.698,12.703,12.702,12.703c7.005,0,12.703-5.698,12.703-12.703
							S134.653,52.627,127.648,52.627z M127.648,73.033c-4.247,0-7.702-3.456-7.702-7.703c0-4.248,3.455-7.703,7.702-7.703
							s7.703,3.456,7.703,7.703C135.352,69.578,131.896,73.033,127.648,73.033z"/>
					</g>
				</g>
			</g>
		</g>
		<g>
			<g>
				<g>
					<g>
						<path d="M129.523,123.386c-1.387-8.063-7.669-14.456-15.633-15.907c-3.724-0.679-7.64-0.678-11.359,0
							c-8.448,1.54-14.799,8.36-15.802,16.972c-0.056,0.477-0.08,0.972-0.08,1.605v4.828c0,2.475,2.014,4.489,4.488,4.489h34.063
							c2.475,0,4.488-2.014,4.488-4.489v-5.274C129.689,124.75,129.637,124.042,129.523,123.386z M124.689,130.373h-33.04v-4.317
							c0-0.433,0.015-0.75,0.047-1.027c0.747-6.413,5.461-11.489,11.731-12.631c3.128-0.57,6.435-0.571,9.566,0
							c5.908,1.077,10.57,5.833,11.602,11.837c0,0.001,0,0.001,0,0.002c0.064,0.369,0.094,0.805,0.094,1.373V130.373z"/>
					</g>
				</g>
			</g>
		</g>
		<g>
			<g>
				<g>
					<g>
						<path d="M107.818,86.422c-7.005,0-12.703,5.698-12.703,12.703s5.698,12.703,12.703,12.703s12.703-5.699,12.703-12.703
							S114.823,86.422,107.818,86.422z M107.818,106.828c-4.247,0-7.703-3.456-7.703-7.703c0-4.247,3.456-7.703,7.703-7.703
							s7.703,3.456,7.703,7.703C115.521,103.372,112.065,106.828,107.818,106.828z"/>
					</g>
				</g>
			</g>
		</g>
		<g>
			<g>
				<g>
					<g>
						<path d="M169.185,123.386c-1.387-8.063-7.669-14.456-15.633-15.907c-3.724-0.679-7.64-0.678-11.359,0
							c-8.448,1.54-14.799,8.36-15.802,16.972c-0.056,0.477-0.08,0.972-0.08,1.605v4.828c0,2.475,2.014,4.489,4.488,4.489h34.063
							c2.475,0,4.488-2.014,4.488-4.489v-5.274C169.351,124.75,169.298,124.042,169.185,123.386z M164.351,130.373h-33.04v-4.317
							c0-0.433,0.015-0.75,0.047-1.027c0.747-6.413,5.461-11.489,11.731-12.631c3.128-0.57,6.435-0.571,9.566,0
							c5.908,1.077,10.57,5.833,11.602,11.837c0,0.001,0,0.001,0,0.002c0.064,0.369,0.094,0.805,0.094,1.373V130.373z"/>
					</g>
				</g>
			</g>
		</g>
		<g>
			<g>
				<g>
					<g>
						<path d="M147.479,86.422c-7.005,0-12.703,5.698-12.703,12.703s5.698,12.703,12.703,12.703s12.703-5.699,12.703-12.703
							S154.484,86.422,147.479,86.422z M147.479,106.828c-4.247,0-7.703-3.456-7.703-7.703c0-4.247,3.456-7.703,7.703-7.703
							s7.703,3.456,7.703,7.703C155.183,103.372,151.727,106.828,147.479,106.828z"/>
					</g>
				</g>
			</g>
		</g>
		<g>
			<g>
				<path d="M128,29.5c-1.381,0-2.5,1.119-2.5,2.5v9c0,1.381,1.119,2.5,2.5,2.5s2.5-1.119,2.5-2.5v-9
					C130.5,30.619,129.381,29.5,128,29.5z"/>
			</g>
		</g>
		<g>
			<g>
				<path d="M128,155.5c-1.381,0-2.5,1.119-2.5,2.5v9c0,1.381,1.119,2.5,2.5,2.5s2.5-1.119,2.5-2.5v-9
					C130.5,156.619,129.381,155.5,128,155.5z"/>
			</g>
		</g>
		<g>
			<g>
				<path d="M69.5,97h-9c-1.381,0-2.5,1.119-2.5,2.5s1.119,2.5,2.5,2.5h9c1.381,0,2.5-1.119,2.5-2.5S70.881,97,69.5,97z"/>
			</g>
		</g>
		<g>
			<g>
				<path d="M195.5,97h-9c-1.381,0-2.5,1.119-2.5,2.5s1.119,2.5,2.5,2.5h9c1.381,0,2.5-1.119,2.5-2.5S196.881,97,195.5,97z"/>
			</g>
		</g>
	</g>
</g>
<g id="Layer_30">
</g>
<g id="Layer_31">
</g>
<g id="Layer_32">
</g>
<g id="Layer_33">
</g>
<g id="Layer_34">
</g>
<g id="Layer_35">
</g>
<g id="Layer_36">
</g>
<g id="Layer_37">
</g>
<g id="Layer_38">
</g>
<g id="Layer_39">
</g>
<g id="Layer_40">
</g>
<g id="Layer_41">
</g>
<g id="Layer_42">
</g>
<g id="Layer_43">
</g>
<g id="Layer_44">
</g>
<g id="Layer_45">
</g>
<g id="Layer_46">
</g>
<g id="Layer_47">
</g>
<g id="Layer_48">
</g>
<g id="Layer_49">
</g>
<g id="Layer_50">
</g>
<g id="Layer_51">
</g>
<g id="Layer_52">
</g>
<g id="Layer_53">
</g>
<g id="Layer_54">
</g>
<g id="Layer_55">
</g>
<g id="Layer_56">
</g>
<g id="Layer_57">
</g>
<g id="Layer_58">
</g>
<g id="Layer_59">
</g>
<g id="Layer_60">
</g>
<g id="Layer_61">
</g>
<g id="Layer_62">
</g>
<g id="Layer_63">
</g>
<g id="Layer_64">
</g>
<g id="Layer_65">
</g>
<g id="Layer_66">
</g>
<g id="Layer_67">
</g>
<g id="Layer_68">
</g>
<g id="Layer_69">
</g>
<g id="Layer_70">
</g>
<g id="Layer_71">
</g>
<g id="Layer_72">
</g>
<g id="Layer_73">
</g>
<g id="Layer_74">
</g>
<g id="Layer_75">
</g>
<g id="Layer_76">
</g>
<g id="Layer_77">
</g>
<g id="Layer_78">
</g>
<g id="Layer_79">
</g>
<g id="Layer_80">
</g>
</svg>
