<?xml version="1.0" encoding="utf-8"?>
<!-- Generator: Adobe Illustrator 24.0.0, SVG Export Plug-In . SVG Version: 6.00 Build 0)  -->
<svg version="1.1" xmlns="http://www.w3.org/2000/svg" xmlns:xlink="http://www.w3.org/1999/xlink" x="0px" y="0px"
	 viewBox="0 0 256 256" enable-background="new 0 0 256 256" xml:space="preserve">
<g id="Layer_1">
</g>
<g id="Layer_2">
</g>
<g id="Layer_3">
</g>
<g id="Layer_4">
</g>
<g id="Layer_5">
</g>
<g id="Layer_6">
</g>
<g id="Layer_7">
</g>
<g id="Layer_8">
</g>
<g id="Layer_9">
</g>
<g id="Layer_10">
</g>
<g id="Layer_11">
</g>
<g id="Layer_12">
</g>
<g id="Layer_13">
</g>
<g id="Layer_14">
</g>
<g id="Layer_15">
</g>
<g id="Layer_16">
</g>
<g id="Layer_17">
</g>
<g id="Layer_18">
</g>
<g id="Layer_19">
</g>
<g id="Layer_20">
</g>
<g id="Layer_21">
</g>
<g id="Layer_22">
</g>
<g id="Layer_23">
</g>
<g id="Layer_24">
</g>
<g id="Layer_25">
</g>
<g id="Layer_26">
</g>
<g id="Layer_27">
</g>
<g id="Layer_28">
</g>
<g id="Layer_29">
</g>
<g id="Layer_30">
</g>
<g id="Layer_31">
</g>
<g id="Layer_32">
</g>
<g id="Layer_33">
</g>
<g id="Layer_34">
</g>
<g id="Layer_35">
</g>
<g id="Layer_36">
</g>
<g id="Layer_37">
</g>
<g id="Layer_38">
</g>
<g id="Layer_39">
</g>
<g id="Layer_40">
</g>
<g id="Layer_41">
</g>
<g id="Layer_42">
</g>
<g id="Layer_43">
</g>
<g id="Layer_44">
</g>
<g id="Layer_45">
</g>
<g id="Layer_46">
</g>
<g id="Layer_47">
</g>
<g id="Layer_48">
	<g>
		<g>
			<g>
				<path fill="#5290DB" d="M79.107,150.823c-2.413-0.439-4.898-0.669-7.438-0.669c-2.539,0-5.025,0.23-7.438,0.669
					c-9.573,1.744-16.944,9.088-19.088,18.355c6.93,1.07,12.244,7.03,12.276,14.252h27.383c0.034-7.592,5.9-13.794,13.349-14.382
					C95.971,159.843,88.634,152.559,79.107,150.823z"/>
			</g>
		</g>
		<g>
			<g>
				
					<ellipse transform="matrix(0.9871 -0.1602 0.1602 0.9871 -20.7782 13.1398)" fill="#F9D0B4" cx="71.112" cy="135.448" rx="14.506" ry="14.506"/>
			</g>
		</g>
		<g>
			<g>
				<path fill="#F5C84C" d="M135.496,150.823c-2.413-0.439-4.898-0.669-7.438-0.669c-2.539,0-5.025,0.23-7.438,0.669
					c-9.573,1.744-16.944,9.088-19.088,18.355c6.93,1.07,12.244,7.03,12.276,14.252h27.383c0.034-7.592,5.9-13.794,13.349-14.382
					C152.36,159.843,145.023,152.559,135.496,150.823z"/>
			</g>
		</g>
		<g>
			<g>
				<circle fill="#F9D0B4" cx="127.501" cy="135.448" r="14.506"/>
			</g>
		</g>
		<g>
			<g>
				<path fill="#F98FA6" d="M191.885,150.823c-2.413-0.439-4.898-0.669-7.438-0.669c-2.539,0-5.025,0.23-7.438,0.669
					c-9.573,1.744-16.944,9.088-19.088,18.355c6.93,1.07,12.244,7.03,12.276,14.252h27.383c0.034-7.592,5.9-13.794,13.349-14.382
					C208.749,159.843,201.412,152.559,191.885,150.823z"/>
			</g>
		</g>
		<g>
			<g>
				<circle fill="#F9D0B4" cx="183.89" cy="135.448" r="14.506"/>
			</g>
		</g>
		<g>
			<g>
				<path fill="#70D6F9" d="M70.275,218.595c-1.703-9.908-9.322-17.896-19.362-19.725c-2.412-0.439-4.898-0.669-7.438-0.669
					c-2.539,0-5.025,0.23-7.438,0.669c-10.484,1.91-18.349,10.529-19.573,21.045c-0.072,0.62-0.091,1.247-0.091,1.871v6.864
					c0,1.562,1.266,2.828,2.828,2.828h48.43c1.562,0,2.828-1.266,2.828-2.828v-7.498C70.459,220.296,70.419,219.438,70.275,218.595z
					"/>
			</g>
		</g>
		<g>
			<g>
				<circle fill="#F9D0B4" cx="42.917" cy="183.496" r="14.506"/>
			</g>
		</g>
		<g>
			<g>
				<path fill="#87D147" d="M126.663,218.595c-1.703-9.908-9.322-17.896-19.362-19.725c-2.412-0.439-4.898-0.669-7.438-0.669
					c-2.539,0-5.025,0.23-7.438,0.669c-10.484,1.91-18.349,10.529-19.573,21.045c-0.072,0.62-0.091,1.247-0.091,1.871v6.864
					c0,1.562,1.266,2.828,2.827,2.828h48.43c1.562,0,2.828-1.266,2.828-2.828v-7.498
					C126.848,220.296,126.808,219.438,126.663,218.595z"/>
			</g>
		</g>
		<g>
			<g>
				<circle fill="#F9D0B4" cx="99.306" cy="183.496" r="14.506"/>
			</g>
		</g>
		<g>
			<g>
				<path fill="#B598F9" d="M183.052,218.595c-1.703-9.908-9.322-17.896-19.362-19.725c-2.412-0.439-4.898-0.669-7.438-0.669
					s-5.025,0.23-7.438,0.669c-10.484,1.91-18.349,10.529-19.573,21.045c-0.072,0.62-0.091,1.247-0.091,1.871v6.864
					c0,1.562,1.266,2.828,2.827,2.828h48.43c1.562,0,2.828-1.266,2.828-2.828v-7.498
					C183.237,220.296,183.197,219.438,183.052,218.595z"/>
			</g>
		</g>
		<g>
			<g>
				<circle fill="#F9D0B4" cx="155.695" cy="183.496" r="14.506"/>
			</g>
		</g>
		<g>
			<g>
				<path fill="#FCA265" d="M239.441,218.595c-1.703-9.908-9.322-17.896-19.362-19.725c-2.412-0.439-4.898-0.669-7.438-0.669
					s-5.025,0.23-7.438,0.669c-10.484,1.91-18.349,10.529-19.573,21.045c-0.072,0.62-0.091,1.247-0.091,1.871v6.864
					c0,1.562,1.266,2.828,2.828,2.828h48.43c1.562,0,2.828-1.266,2.828-2.828v-7.498
					C239.626,220.296,239.586,219.438,239.441,218.595z"/>
			</g>
		</g>
		<g>
			<g>
				<circle fill="#F9D0B4" cx="212.084" cy="183.496" r="14.506"/>
			</g>
		</g>
		<g>
			<g>
				<path fill="#70D6F9" d="M128,18.522c-47.983,0-87.42,36.558-91.996,83.339h183.992C215.42,55.08,175.983,18.522,128,18.522z"/>
			</g>
		</g>
		<g>
			<g>
				<path fill="#FC657E" d="M22.906,118.1h-2.4v-2.3c0-1.8-1.4-3.2-3.2-3.2c-1.7,0-3.2,1.4-3.2,3.1v2.4h-2.3c-1.8,0-3.2,1.4-3.2,3.2
					c-0.1,1.7,1.3,3.2,3.2,3.2h2.3v2.3c0,1.8,1.4,3.2,3.2,3.2c1.7,0,3.2-1.4,3.2-3.1v-2.4h2.3c1.8,0,3.2-1.4,3.2-3.2
					C26.006,119.6,24.606,118.1,22.906,118.1z"/>
			</g>
		</g>
		<g>
			<g>
				<path fill="#87D147" d="M183.206,0c-1.878,0-3.4,1.522-3.4,3.4c0,1.878,1.522,3.4,3.4,3.4c1.878,0,3.4-1.522,3.4-3.4
					C186.606,1.522,185.083,0,183.206,0z"/>
			</g>
		</g>
		<g>
			<g>
				<path fill="#70D6F9" d="M108.15,249.525c-3.1-0.6-5.6-3-6.2-6.1c0-0.1-0.3-0.1-0.3,0c-0.6,3.1-3.1,5.5-6.2,6.1
					c-0.1,0-0.1,0.2,0,0.3c3.1,0.6,5.6,3,6.2,6.1c0,0.1,0.3,0.1,0.3,0c0.6-3.1,3.1-5.5,6.2-6.1
					C108.25,249.725,108.25,249.525,108.15,249.525z"/>
			</g>
		</g>
		<g>
			<g>
				<path fill="#F5C84C" d="M28.369,148c-1.878,0-3.4,1.522-3.4,3.4c0,1.878,1.522,3.4,3.4,3.4c1.878,0,3.4-1.522,3.4-3.4
					C31.769,149.522,30.246,148,28.369,148z"/>
			</g>
		</g>
		<g>
			<g>
				<path fill="#F5C84C" d="M220.15,24.2c-4.5-0.8-8-4.3-8.9-8.7c0-0.2-0.4-0.2-0.4,0c-0.9,4.4-4.4,7.9-8.9,8.7
					c-0.2,0-0.2,0.3,0,0.4c4.5,0.8,8,4.3,8.9,8.7c0,0.2,0.4,0.2,0.4,0c0.9-4.4,4.4-7.9,8.9-8.7C220.35,24.5,220.35,24.2,220.15,24.2
					z"/>
			</g>
		</g>
		<g>
			<g>
				<path d="M83.812,180.93h-25.25c-1.381,0-2.5,1.119-2.5,2.5s1.119,2.5,2.5,2.5h25.25c1.381,0,2.5-1.119,2.5-2.5
					S85.193,180.93,83.812,180.93z"/>
			</g>
		</g>
		<g>
			<g>
				<path d="M100.406,167.762c-2.646-9.958-10.83-17.572-20.851-19.398c-5.169-0.941-10.604-0.941-15.771,0
					c-10.033,1.828-17.992,9.13-20.771,19.058c-0.373,1.33,0.404,2.709,1.733,3.081c1.328,0.375,2.709-0.403,3.081-1.733
					c2.259-8.07,8.717-14.004,16.853-15.486c4.577-0.834,9.4-0.834,13.979,0c8.125,1.48,14.764,7.668,16.915,15.764
					c0.297,1.119,1.309,1.858,2.415,1.858c0.212,0,0.428-0.027,0.644-0.084C99.967,170.465,100.761,169.096,100.406,167.762z"/>
			</g>
		</g>
		<g>
			<g>
				<g>
					<g>
						<path d="M71.112,118.442c-9.377,0-17.006,7.629-17.006,17.006c0,9.377,7.629,17.006,17.006,17.006
							c9.377,0,17.006-7.629,17.006-17.006C88.118,126.071,80.489,118.442,71.112,118.442z M71.112,147.455
							c-6.62,0-12.006-5.386-12.006-12.006s5.386-12.006,12.006-12.006s12.006,5.386,12.006,12.006S77.732,147.455,71.112,147.455z"
							/>
					</g>
				</g>
			</g>
		</g>
		<g>
			<g>
				<path d="M140.125,180.93H115c-1.381,0-2.5,1.119-2.5,2.5s1.119,2.5,2.5,2.5h25.125c1.381,0,2.5-1.119,2.5-2.5
					S141.506,180.93,140.125,180.93z"/>
			</g>
		</g>
		<g>
			<g>
				<path d="M156.743,167.571c-2.695-9.857-10.859-17.397-20.799-19.208c-5.168-0.942-10.603-0.942-15.771,0
					c-9.966,1.816-18.141,9.375-20.826,19.257c-0.362,1.332,0.425,2.706,1.757,3.068c0.219,0.06,0.44,0.088,0.657,0.088
					c1.101,0,2.109-0.732,2.411-1.845c2.183-8.034,8.815-14.176,16.897-15.649c4.578-0.834,9.4-0.834,13.979,0
					c8.059,1.468,14.682,7.595,16.873,15.608c0.364,1.331,1.735,2.117,3.07,1.752C156.323,170.278,157.107,168.903,156.743,167.571z
					"/>
			</g>
		</g>
		<g>
			<g>
				<g>
					<g>
						<path d="M127.5,118.442c-9.377,0-17.006,7.629-17.006,17.006c0,9.377,7.629,17.006,17.006,17.006
							c9.377,0,17.006-7.629,17.006-17.006C144.507,126.071,136.878,118.442,127.5,118.442z M127.5,147.455
							c-6.62,0-12.006-5.386-12.006-12.006s5.386-12.006,12.006-12.006c6.621,0,12.006,5.386,12.006,12.006
							S134.121,147.455,127.5,147.455z"/>
					</g>
				</g>
			</g>
		</g>
		<g>
			<g>
				<path d="M196.667,180.93h-25.292c-1.381,0-2.5,1.119-2.5,2.5s1.119,2.5,2.5,2.5h25.292c1.381,0,2.5-1.119,2.5-2.5
					S198.048,180.93,196.667,180.93z"/>
			</g>
		</g>
		<g>
			<g>
				<path d="M213.263,168.064c-2.563-10.119-10.778-17.852-20.93-19.701c-5.168-0.941-10.604-0.941-15.771,0
					c-10.109,1.842-18.319,9.533-20.914,19.592c-0.345,1.337,0.46,2.7,1.797,3.045c1.33,0.341,2.699-0.459,3.045-1.796
					c2.109-8.179,8.771-14.428,16.969-15.922c4.578-0.834,9.4-0.834,13.979,0c8.23,1.5,14.896,7.784,16.979,16.01
					c0.287,1.132,1.305,1.887,2.422,1.887c0.203,0,0.41-0.025,0.616-0.077C212.791,170.763,213.602,169.403,213.263,168.064z"/>
			</g>
		</g>
		<g>
			<g>
				<g>
					<g>
						<path d="M183.89,118.442c-9.377,0-17.006,7.629-17.006,17.006c0,9.377,7.629,17.006,17.006,17.006s17.006-7.629,17.006-17.006
							C200.896,126.071,193.267,118.442,183.89,118.442z M183.89,147.455c-6.62,0-12.006-5.386-12.006-12.006
							s5.386-12.006,12.006-12.006s12.006,5.386,12.006,12.006S190.51,147.455,183.89,147.455z"/>
					</g>
				</g>
			</g>
		</g>
		<g>
			<g>
				<g>
					<g>
						<path d="M72.738,218.171L72.738,218.171c-1.896-11.031-10.486-19.776-21.377-21.761c-5.169-0.942-10.603-0.942-15.772,0
							c-11.553,2.105-20.236,11.435-21.608,23.215c-0.074,0.639-0.107,1.305-0.107,2.16v6.864c0,2.938,2.39,5.328,5.328,5.328h48.43
							c2.938,0,5.328-2.39,5.328-5.328v-7.498C72.959,219.994,72.889,219.047,72.738,218.171z M67.959,228.65
							c0,0.181-0.147,0.328-0.328,0.328h-48.43c-0.181,0-0.328-0.147-0.328-0.328v-6.864c0-0.654,0.023-1.142,0.074-1.582
							c1.115-9.582,8.163-17.167,17.538-18.875c2.289-0.417,4.641-0.628,6.989-0.628s4.701,0.211,6.99,0.628
							c8.833,1.61,15.804,8.718,17.346,17.689v0c0.101,0.588,0.148,1.267,0.148,2.133V228.65z"/>
					</g>
				</g>
			</g>
		</g>
		<g>
			<g>
				<g>
					<g>
						<path d="M42.917,166.49c-9.377,0-17.006,7.629-17.006,17.006c0,9.377,7.629,17.006,17.006,17.006
							c9.377,0,17.006-7.629,17.006-17.006C59.923,174.119,52.294,166.49,42.917,166.49z M42.917,195.502
							c-6.62,0-12.006-5.386-12.006-12.006s5.386-12.006,12.006-12.006s12.006,5.386,12.006,12.006S49.538,195.502,42.917,195.502z"
							/>
					</g>
				</g>
			</g>
		</g>
		<g>
			<g>
				<g>
					<g>
						<path d="M129.127,218.171L129.127,218.171c-1.895-11.031-10.486-19.776-21.377-21.761c-5.169-0.941-10.604-0.941-15.771,0
							c-11.553,2.105-20.236,11.435-21.608,23.217c-0.074,0.639-0.107,1.305-0.107,2.158v6.864c0,2.938,2.39,5.328,5.327,5.328
							h48.43c2.938,0,5.327-2.39,5.327-5.328v-7.498C129.348,219.994,129.278,219.047,129.127,218.171z M124.348,228.65
							c0,0.181-0.147,0.328-0.328,0.328H75.59c-0.18,0-0.327-0.147-0.327-0.328v-6.864c0-0.654,0.023-1.143,0.074-1.582
							c1.116-9.582,8.164-17.167,17.538-18.875c2.289-0.417,4.641-0.628,6.989-0.628s4.7,0.211,6.989,0.628
							c8.834,1.61,15.805,8.718,17.346,17.689v0c0.101,0.588,0.148,1.267,0.148,2.133V228.65z"/>
					</g>
				</g>
			</g>
		</g>
		<g>
			<g>
				<g>
					<g>
						<path d="M99.306,166.49c-9.377,0-17.006,7.629-17.006,17.006c0,9.377,7.629,17.006,17.006,17.006
							c9.377,0,17.006-7.629,17.006-17.006C116.312,174.119,108.684,166.49,99.306,166.49z M99.306,195.502
							c-6.62,0-12.006-5.386-12.006-12.006s5.386-12.006,12.006-12.006s12.006,5.386,12.006,12.006S105.926,195.502,99.306,195.502z
							"/>
					</g>
				</g>
			</g>
		</g>
		<g>
			<g>
				<g>
					<g>
						<path d="M185.517,218.173C185.517,218.172,185.517,218.172,185.517,218.173c-1.896-11.033-10.487-19.778-21.378-21.762
							c-5.168-0.941-10.604-0.941-15.771,0c-11.553,2.105-20.236,11.435-21.609,23.219c-0.095,0.828-0.106,1.627-0.106,2.156v6.864
							c0,2.938,2.39,5.328,5.327,5.328h48.43c2.938,0,5.328-2.39,5.328-5.328v-7.498
							C185.737,219.997,185.667,219.051,185.517,218.173z M180.737,228.65c0,0.181-0.147,0.328-0.328,0.328h-48.43
							c-0.181,0-0.327-0.147-0.327-0.328v-6.864c0-0.654,0.022-1.143,0.073-1.582c1.115-9.581,8.164-17.167,17.538-18.875
							c2.289-0.417,4.641-0.628,6.989-0.628s4.7,0.211,6.989,0.628c8.833,1.61,15.804,8.718,17.347,17.688
							c0.102,0.592,0.148,1.27,0.148,2.134V228.65z"/>
					</g>
				</g>
			</g>
		</g>
		<g>
			<g>
				<g>
					<g>
						<path d="M155.695,166.49c-9.377,0-17.006,7.629-17.006,17.006c0,9.377,7.629,17.006,17.006,17.006s17.006-7.629,17.006-17.006
							C172.701,174.119,165.072,166.49,155.695,166.49z M155.695,195.502c-6.62,0-12.006-5.386-12.006-12.006
							s5.386-12.006,12.006-12.006s12.006,5.386,12.006,12.006S162.315,195.502,155.695,195.502z"/>
					</g>
				</g>
			</g>
		</g>
		<g>
			<g>
				<g>
					<g>
						<path d="M241.905,218.173C241.905,218.172,241.905,218.172,241.905,218.173c-1.896-11.032-10.487-19.777-21.377-21.762
							c-5.169-0.942-10.602-0.942-15.772,0c-11.553,2.105-20.236,11.435-21.607,23.215c-0.074,0.639-0.107,1.305-0.107,2.16v6.864
							c0,2.938,2.39,5.328,5.327,5.328h48.43c2.938,0,5.328-2.39,5.328-5.328v-7.498
							C242.126,219.997,242.056,219.051,241.905,218.173z M237.126,228.65c0,0.181-0.147,0.328-0.328,0.328h-48.43
							c-0.181,0-0.327-0.147-0.327-0.328v-6.864c0-0.654,0.022-1.142,0.074-1.582c1.115-9.582,8.162-17.167,17.537-18.875
							c2.29-0.417,4.642-0.628,6.989-0.628c2.349,0,4.7,0.211,6.99,0.628c8.832,1.61,15.803,8.718,17.346,17.688
							c0.102,0.592,0.148,1.27,0.148,2.134V228.65z"/>
					</g>
				</g>
			</g>
		</g>
		<g>
			<g>
				<g>
					<g>
						<path d="M212.084,166.49c-9.377,0-17.006,7.629-17.006,17.006c0,9.377,7.629,17.006,17.006,17.006s17.006-7.629,17.006-17.006
							C229.09,174.119,221.461,166.49,212.084,166.49z M212.084,195.502c-6.62,0-12.006-5.386-12.006-12.006
							s5.386-12.006,12.006-12.006s12.006,5.386,12.006,12.006S218.704,195.502,212.084,195.502z"/>
					</g>
				</g>
			</g>
		</g>
		<g>
			<g>
				<path d="M191.961,40.802c-17.518-15.979-40.232-24.78-63.961-24.78s-46.443,8.8-63.96,24.78
					c-17.4,15.873-28.24,37.471-30.524,60.816c-0.134,1.374,0.871,2.597,2.245,2.731c1.368,0.125,2.597-0.871,2.731-2.245
					c2.163-22.112,12.433-42.571,28.917-57.608C84.003,29.359,105.521,21.022,128,21.022c22.479,0,43.997,8.336,60.591,23.474
					c16.484,15.038,26.754,35.497,28.917,57.608c0.127,1.292,1.214,2.257,2.485,2.257c0.081,0,0.164-0.004,0.246-0.012
					c1.374-0.135,2.379-1.357,2.245-2.731C220.2,78.273,209.36,56.675,191.961,40.802z"/>
			</g>
		</g>
		<g>
			<g>
				<path d="M149.652,18.688c-1.202-0.678-2.726-0.256-3.406,0.947c-0.679,1.202-0.255,2.727,0.947,3.406
					c21.338,12.055,36.513,43.058,38.659,78.985c0.079,1.328,1.181,2.351,2.493,2.351c0.05,0,0.101-0.001,0.151-0.004
					c1.378-0.083,2.429-1.267,2.346-2.645C188.599,64.151,172.431,31.556,149.652,18.688z"/>
			</g>
		</g>
		<g>
			<g>
				<path d="M109.451,19.788c-0.688-1.198-2.214-1.612-3.413-0.923C83.435,31.843,67.388,64.37,65.157,101.729
					c-0.082,1.378,0.968,2.562,2.347,2.645c0.051,0.003,0.101,0.004,0.151,0.004c1.313,0,2.414-1.023,2.493-2.351
					c2.134-35.723,17.198-66.664,38.38-78.826C109.725,22.513,110.138,20.985,109.451,19.788z"/>
			</g>
		</g>
		<g>
			<g>
				<path d="M199.147,50.965c-0.762-1.152-2.313-1.468-3.464-0.707C177.862,62.042,153.825,68.531,128,68.531
					c-25.84,0-49.886-6.495-67.71-18.29c-1.15-0.76-2.703-0.446-3.464,0.706s-0.446,2.702,0.706,3.464
					c18.633,12.33,43.659,19.12,70.469,19.12c26.794,0,51.811-6.784,70.441-19.102C199.593,53.667,199.909,52.117,199.147,50.965z"
					/>
			</g>
		</g>
		<g>
			<g>
				<path d="M122.604,17.471c-1.061-0.883-2.637-0.74-3.521,0.32c-9.755,11.708-16.664,44.686-17.601,84.012
					c-0.033,1.38,1.06,2.526,2.44,2.559c0.021,0,0.041,0,0.061,0c1.353,0,2.466-1.081,2.499-2.44
					c0.897-37.68,7.505-70.203,16.443-80.931C123.809,19.932,123.666,18.355,122.604,17.471z"/>
			</g>
		</g>
		<g>
			<g>
				<path d="M136.915,17.79c-0.885-1.062-2.461-1.203-3.521-0.32c-1.061,0.884-1.204,2.46-0.32,3.521
					c8.94,10.728,15.55,43.257,16.445,80.946c0.032,1.36,1.145,2.44,2.498,2.44c0.02,0,0.04,0,0.061,0
					c1.38-0.033,2.473-1.179,2.439-2.559C153.582,62.482,146.673,29.5,136.915,17.79z"/>
			</g>
		</g>
	</g>
</g>
<g id="Layer_49">
</g>
<g id="Layer_50">
</g>
<g id="Layer_51">
</g>
<g id="Layer_52">
</g>
<g id="Layer_53">
</g>
<g id="Layer_54">
</g>
<g id="Layer_55">
</g>
<g id="Layer_56">
</g>
<g id="Layer_57">
</g>
<g id="Layer_58">
</g>
<g id="Layer_59">
</g>
<g id="Layer_60">
</g>
<g id="Layer_61">
</g>
<g id="Layer_62">
</g>
<g id="Layer_63">
</g>
<g id="Layer_64">
</g>
<g id="Layer_65">
</g>
<g id="Layer_66">
</g>
<g id="Layer_67">
</g>
<g id="Layer_68">
</g>
<g id="Layer_69">
</g>
<g id="Layer_70">
</g>
<g id="Layer_71">
</g>
<g id="Layer_72">
</g>
<g id="Layer_73">
</g>
<g id="Layer_74">
</g>
<g id="Layer_75">
</g>
<g id="Layer_76">
</g>
<g id="Layer_77">
</g>
<g id="Layer_78">
</g>
<g id="Layer_79">
</g>
<g id="Layer_80">
</g>
</svg>
