<?xml version="1.0" encoding="utf-8"?>
<!-- Generator: Adobe Illustrator 24.0.0, SVG Export Plug-In . SVG Version: 6.00 Build 0)  -->
<svg version="1.1" xmlns="http://www.w3.org/2000/svg" xmlns:xlink="http://www.w3.org/1999/xlink" x="0px" y="0px"
	 viewBox="0 0 256 256" enable-background="new 0 0 256 256" xml:space="preserve">
<g id="Layer_1">
</g>
<g id="Layer_2">
</g>
<g id="Layer_3">
</g>
<g id="Layer_4">
</g>
<g id="Layer_5">
</g>
<g id="Layer_6">
</g>
<g id="Layer_7">
</g>
<g id="Layer_8">
</g>
<g id="Layer_9">
</g>
<g id="Layer_10">
</g>
<g id="Layer_11">
</g>
<g id="Layer_12">
</g>
<g id="Layer_13">
</g>
<g id="Layer_14">
</g>
<g id="Layer_15">
</g>
<g id="Layer_16">
</g>
<g id="Layer_17">
</g>
<g id="Layer_18">
</g>
<g id="Layer_19">
</g>
<g id="Layer_20">
</g>
<g id="Layer_21">
</g>
<g id="Layer_22">
</g>
<g id="Layer_23">
</g>
<g id="Layer_24">
</g>
<g id="Layer_25">
</g>
<g id="Layer_26">
</g>
<g id="Layer_27">
</g>
<g id="Layer_28">
</g>
<g id="Layer_29">
</g>
<g id="Layer_30">
</g>
<g id="Layer_31">
</g>
<g id="Layer_32">
</g>
<g id="Layer_33">
	<g>
		<g>
			<g>
				<circle fill="#F5C84C" cx="128" cy="128" r="60.5"/>
			</g>
		</g>
		<g>
			<g>
				<circle fill="#6CADEF" cx="231.5" cy="128" r="22"/>
			</g>
		</g>
		<g>
			<g>
				<circle fill="#FCA265" cx="24.5" cy="128" r="22"/>
			</g>
		</g>
		<g>
			<g>
				<circle fill="#70D6F9" cx="201.186" cy="54.814" r="22"/>
			</g>
		</g>
		<g>
			<g>
				<circle fill="#FC657E" cx="54.814" cy="201.186" r="22"/>
			</g>
		</g>
		<g>
			<g>
				<circle fill="#B598F9" cx="201.186" cy="201.186" r="22"/>
			</g>
		</g>
		<g>
			<g>
				<circle fill="#87D147" cx="54.814" cy="54.814" r="22"/>
			</g>
		</g>
		<g>
			<g>
				<path fill="#FC657E" d="M97.602,108.966c-7.996,0-14.477,6.482-14.477,14.477v0c0,7.996,6.482,14.477,14.477,14.477h19.95
					v-28.955H97.602z"/>
			</g>
		</g>
		<g>
			<g>
				<path fill="#FC657E" d="M151.718,92.331c-3.183,0-5.764,2.581-5.764,5.764v50.696c0,3.183,2.581,5.764,5.764,5.764
					c3.183,0,5.764-2.581,5.764-5.764V98.095C157.482,94.912,154.901,92.331,151.718,92.331z"/>
			</g>
		</g>
		<g>
			<g>
				<path fill="#DAE6F1" d="M120.052,158.907l-7.109-20.986H98.935l8.551,25.243c0.912,2.693,3.44,4.505,6.283,4.505
					C118.311,167.669,121.509,163.208,120.052,158.907z"/>
			</g>
		</g>
		<g>
			<g>
				<path fill="#DAE6F1" d="M120.758,108.966h-3.206v28.955h3.206c10.659,0,17.073,3.338,25.195,9.011V99.955
					C137.831,105.627,131.418,108.966,120.758,108.966z"/>
			</g>
		</g>
		<g>
			<g>
				<path fill="#DAE6F1" d="M157.482,111.631v23.624c6.33-0.234,11.393-5.425,11.393-11.812v0
					C168.875,117.056,163.812,111.865,157.482,111.631z"/>
			</g>
		</g>
		<g>
			<g>
				<g>
					<g>
						<path d="M128,65c-34.738,0-63,28.262-63,63s28.262,63,63,63s63-28.262,63-63S162.738,65,128,65z M128,186
							c-31.981,0-58-26.019-58-58s26.019-58,58-58s58,26.019,58,58S159.981,186,128,186z"/>
					</g>
				</g>
			</g>
		</g>
		<g>
			<g>
				<path fill="#87D147" d="M23.15,79.175c-3.1-0.6-5.6-3-6.2-6.1c0-0.1-0.3-0.1-0.3,0c-0.6,3.1-3.1,5.5-6.2,6.1
					c-0.1,0-0.1,0.2,0,0.3c3.1,0.6,5.6,3,6.2,6.1c0,0.1,0.3,0.1,0.3,0c0.6-3.1,3.1-5.5,6.2-6.1
					C23.25,79.375,23.25,79.175,23.15,79.175z"/>
			</g>
		</g>
		<g>
			<g>
				<path fill="#F5C84C" d="M98.919,216.35c-1.878,0-3.4,1.522-3.4,3.4c0,1.878,1.522,3.4,3.4,3.4c1.878,0,3.4-1.522,3.4-3.4
					C102.319,217.872,100.796,216.35,98.919,216.35z"/>
			</g>
		</g>
		<g>
			<g>
				<path fill="#FC657E" d="M157.081,32.85c-1.878,0-3.4,1.522-3.4,3.4c0,1.878,1.522,3.4,3.4,3.4c1.878,0,3.4-1.522,3.4-3.4
					C160.481,34.372,158.959,32.85,157.081,32.85z"/>
			</g>
		</g>
		<g>
			<g>
				<path fill="#70D6F9" d="M135.003,230.925h-2.4v-2.3c0-1.8-1.4-3.2-3.2-3.2c-1.7,0-3.2,1.4-3.2,3.1v2.4h-2.3
					c-1.8,0-3.2,1.4-3.2,3.2c-0.1,1.7,1.3,3.2,3.2,3.2h2.3v2.3c0,1.8,1.4,3.2,3.2,3.2c1.7,0,3.2-1.4,3.2-3.1v-2.4h2.3
					c1.8,0,3.2-1.4,3.2-3.2C138.103,232.425,136.703,230.925,135.003,230.925z"/>
			</g>
		</g>
		<g>
			<g>
				<path fill="#F5C84C" d="M136.247,22.025c-4.5-0.8-8-4.3-8.9-8.7c0-0.2-0.4-0.2-0.4,0c-0.9,4.4-4.4,7.9-8.9,8.7
					c-0.2,0-0.2,0.3,0,0.4c4.5,0.8,8,4.3,8.9,8.7c0,0.2,0.4,0.2,0.4,0c0.9-4.4,4.4-7.9,8.9-8.7
					C136.447,22.325,136.447,22.025,136.247,22.025z"/>
			</g>
		</g>
		<g>
			<g>
				<g>
					<g>
						<path d="M231.5,103.5c-13.51,0-24.5,10.991-24.5,24.5s10.99,24.5,24.5,24.5S256,141.509,256,128S245.01,103.5,231.5,103.5z
							 M231.5,147.5c-10.752,0-19.5-8.748-19.5-19.5s8.748-19.5,19.5-19.5S251,117.248,251,128S242.252,147.5,231.5,147.5z"/>
					</g>
				</g>
			</g>
		</g>
		<g>
			<g>
				<path d="M242.253,122.818c-0.977-0.977-2.559-0.977-3.535,0l-8.132,8.131l-5.304-5.303c-0.977-0.977-2.559-0.977-3.535,0
					c-0.977,0.976-0.977,2.559,0,3.535l7.071,7.071c0.488,0.488,1.128,0.732,1.768,0.732s1.279-0.244,1.768-0.732l9.899-9.899
					C243.229,125.377,243.229,123.794,242.253,122.818z"/>
			</g>
		</g>
		<g>
			<g>
				<path d="M207.387,125.5h-17.773c-1.381,0-2.5,1.119-2.5,2.5s1.119,2.5,2.5,2.5h17.773c1.381,0,2.5-1.119,2.5-2.5
					S208.768,125.5,207.387,125.5z"/>
			</g>
		</g>
		<g>
			<g>
				<g>
					<g>
						<path d="M24.5,103.5C10.991,103.5,0,114.491,0,128s10.991,24.5,24.5,24.5S49,141.509,49,128S38.009,103.5,24.5,103.5z
							 M24.5,147.5C13.748,147.5,5,138.752,5,128s8.748-19.5,19.5-19.5S44,117.248,44,128S35.252,147.5,24.5,147.5z"/>
					</g>
				</g>
			</g>
		</g>
		<g>
			<g>
				<path d="M35.253,122.818c-0.976-0.977-2.56-0.977-3.535,0l-8.132,8.131l-5.304-5.303c-0.976-0.977-2.56-0.977-3.535,0
					c-0.977,0.976-0.977,2.559,0,3.535l7.071,7.071c0.488,0.488,1.128,0.732,1.768,0.732s1.28-0.244,1.768-0.732l9.899-9.899
					C36.229,125.377,36.229,123.794,35.253,122.818z"/>
			</g>
		</g>
		<g>
			<g>
				<path d="M66.386,125.5H48.614c-1.381,0-2.5,1.119-2.5,2.5s1.119,2.5,2.5,2.5h17.772c1.381,0,2.5-1.119,2.5-2.5
					S67.767,125.5,66.386,125.5z"/>
			</g>
		</g>
		<g>
			<g>
				<g>
					<g>
						<path d="M201.186,30.314c-13.51,0-24.5,10.991-24.5,24.5s10.99,24.5,24.5,24.5s24.5-10.991,24.5-24.5
							S214.695,30.314,201.186,30.314z M201.186,74.314c-10.752,0-19.5-8.748-19.5-19.5s8.748-19.5,19.5-19.5
							c10.752,0,19.5,8.748,19.5,19.5S211.937,74.314,201.186,74.314z"/>
					</g>
				</g>
			</g>
		</g>
		<g>
			<g>
				<path d="M211.938,49.633c-0.977-0.977-2.559-0.977-3.535,0l-8.132,8.131l-5.304-5.303c-0.977-0.977-2.559-0.977-3.535,0
					c-0.977,0.976-0.977,2.559,0,3.535l7.071,7.071c0.488,0.488,1.128,0.732,1.768,0.732s1.279-0.244,1.768-0.732l9.899-9.899
					C212.915,52.192,212.915,50.609,211.938,49.633z"/>
			</g>
		</g>
		<g>
			<g>
				<path d="M185.902,70.098c-0.977-0.977-2.559-0.977-3.535,0L169.8,82.665c-0.977,0.976-0.977,2.559,0,3.535
					c0.488,0.488,1.128,0.732,1.768,0.732s1.279-0.244,1.768-0.732l12.567-12.567C186.879,72.657,186.879,71.074,185.902,70.098z"/>
			</g>
		</g>
		<g>
			<g>
				<g>
					<g>
						<path d="M54.814,176.686c-13.509,0-24.5,10.991-24.5,24.5s10.991,24.5,24.5,24.5s24.5-10.991,24.5-24.5
							S68.324,176.686,54.814,176.686z M54.814,220.686c-10.752,0-19.5-8.748-19.5-19.5s8.748-19.5,19.5-19.5s19.5,8.748,19.5,19.5
							S65.567,220.686,54.814,220.686z"/>
					</g>
				</g>
			</g>
		</g>
		<g>
			<g>
				<path d="M65.567,196.004c-0.976-0.977-2.56-0.977-3.535,0l-8.132,8.131l-5.304-5.303c-0.976-0.977-2.56-0.977-3.535,0
					c-0.977,0.976-0.977,2.559,0,3.535l7.071,7.071c0.488,0.488,1.128,0.732,1.768,0.732s1.28-0.244,1.768-0.732l9.899-9.899
					C66.544,198.563,66.544,196.98,65.567,196.004z"/>
			</g>
		</g>
		<g>
			<g>
				<path d="M86.2,169.8c-0.976-0.977-2.56-0.977-3.535,0l-12.567,12.567c-0.977,0.976-0.977,2.559,0,3.535
					c0.488,0.488,1.128,0.732,1.768,0.732s1.28-0.244,1.768-0.732L86.2,173.335C87.177,172.359,87.177,170.776,86.2,169.8z"/>
			</g>
		</g>
		<g>
			<g>
				<g>
					<g>
						<path d="M201.186,176.686c-13.51,0-24.5,10.991-24.5,24.5s10.99,24.5,24.5,24.5s24.5-10.991,24.5-24.5
							S214.695,176.686,201.186,176.686z M201.186,220.686c-10.752,0-19.5-8.748-19.5-19.5s8.748-19.5,19.5-19.5
							c10.752,0,19.5,8.748,19.5,19.5S211.937,220.686,201.186,220.686z"/>
					</g>
				</g>
			</g>
		</g>
		<g>
			<g>
				<path d="M211.938,196.004c-0.977-0.977-2.559-0.977-3.535,0l-8.132,8.131l-5.304-5.303c-0.977-0.977-2.559-0.977-3.535,0
					c-0.977,0.976-0.977,2.559,0,3.535l7.071,7.071c0.488,0.488,1.128,0.732,1.768,0.732s1.279-0.244,1.768-0.732l9.899-9.899
					C212.915,198.563,212.915,196.98,211.938,196.004z"/>
			</g>
		</g>
		<g>
			<g>
				<path d="M185.902,182.367L173.335,169.8c-0.977-0.977-2.559-0.977-3.535,0c-0.977,0.976-0.977,2.559,0,3.535l12.567,12.567
					c0.488,0.488,1.128,0.732,1.768,0.732s1.279-0.244,1.768-0.732C186.879,184.926,186.879,183.343,185.902,182.367z"/>
			</g>
		</g>
		<g>
			<g>
				<g>
					<g>
						<path d="M54.814,30.314c-13.509,0-24.5,10.991-24.5,24.5s10.991,24.5,24.5,24.5s24.5-10.991,24.5-24.5
							S68.324,30.314,54.814,30.314z M54.814,74.314c-10.752,0-19.5-8.748-19.5-19.5s8.748-19.5,19.5-19.5s19.5,8.748,19.5,19.5
							S65.567,74.314,54.814,74.314z"/>
					</g>
				</g>
			</g>
		</g>
		<g>
			<g>
				<path d="M65.567,49.633c-0.976-0.977-2.56-0.977-3.535,0L53.9,57.764l-5.304-5.303c-0.976-0.977-2.56-0.977-3.535,0
					c-0.977,0.976-0.977,2.559,0,3.535l7.071,7.071c0.488,0.488,1.128,0.732,1.768,0.732s1.28-0.244,1.768-0.732l9.899-9.899
					C66.544,52.192,66.544,50.609,65.567,49.633z"/>
			</g>
		</g>
		<g>
			<g>
				<path d="M86.2,82.665L73.633,70.098c-0.976-0.977-2.56-0.977-3.535,0c-0.977,0.976-0.977,2.559,0,3.535L82.665,86.2
					c0.488,0.488,1.128,0.732,1.768,0.732s1.28-0.244,1.768-0.732C87.177,85.224,87.177,83.641,86.2,82.665z"/>
			</g>
		</g>
		<g>
			<g>
				<g>
					<g>
						<path d="M117.552,106.466h-19.95c-9.361,0-16.978,7.616-16.978,16.978s7.616,16.978,16.978,16.978h19.95
							c1.381,0,2.5-1.119,2.5-2.5v-28.955C120.052,107.585,118.933,106.466,117.552,106.466z M115.052,135.421h-17.45
							c-6.604,0-11.978-5.374-11.978-11.978c0-6.604,5.373-11.977,11.978-11.977h17.45V135.421z"/>
					</g>
				</g>
			</g>
		</g>
		<g>
			<g>
				<g>
					<g>
						<g>
							<path d="M151.718,89.832c-4.557,0-8.264,3.707-8.264,8.264v50.696c0,4.557,3.707,8.264,8.264,8.264s8.264-3.707,8.264-8.264
								V98.095C159.981,93.539,156.274,89.832,151.718,89.832z M154.981,148.792c0,1.8-1.464,3.264-3.264,3.264
								s-3.264-1.464-3.264-3.264V98.095c0-1.8,1.464-3.264,3.264-3.264s3.264,1.464,3.264,3.264V148.792z"/>
						</g>
					</g>
				</g>
			</g>
		</g>
		<g>
			<g>
				<path d="M122.42,158.104l-6.808-20.098c-0.442-1.308-1.863-2.009-3.17-1.565c-1.308,0.443-2.009,1.862-1.565,3.17l6.808,20.098
					c0.433,1.277,0.23,2.639-0.556,3.734c-0.786,1.096-2.01,1.725-3.359,1.725c-1.773,0-3.346-1.128-3.915-2.808l-8.246-24.34
					c-0.443-1.308-1.862-2.008-3.17-1.565c-1.308,0.443-2.009,1.862-1.565,3.17l8.246,24.34c1.256,3.71,4.733,6.204,8.65,6.204
					c2.98,0,5.686-1.389,7.423-3.811C122.929,163.935,123.376,160.927,122.42,158.104z"/>
			</g>
		</g>
		<g>
			<g>
				<path d="M147.814,98.661c-0.788-1.134-2.35-1.414-3.479-0.624c-8.033,5.59-13.885,8.429-23.577,8.429h-3.206
					c-1.381,0-2.5,1.119-2.5,2.5s1.119,2.5,2.5,2.5h3.206c10.957,0,17.743-3.277,26.432-9.325
					C148.324,101.352,148.604,99.794,147.814,98.661z"/>
			</g>
		</g>
		<g>
			<g>
				<path d="M147.143,144.712c-8.664-6.026-15.436-9.292-26.384-9.292h-3.206c-1.381,0-2.5,1.119-2.5,2.5s1.119,2.5,2.5,2.5h3.206
					c9.685,0,15.522,2.828,23.529,8.396c0.436,0.303,0.933,0.448,1.426,0.448c0.791,0,1.568-0.374,2.055-1.073
					C148.556,147.059,148.275,145.5,147.143,144.712z"/>
			</g>
		</g>
		<g>
			<g>
				<path d="M101.131,100.707c-1.381,0-2.5,1.119-2.5,2.5v4.611c0,1.381,1.119,2.5,2.5,2.5s2.5-1.119,2.5-2.5v-4.611
					C103.631,101.826,102.512,100.707,101.131,100.707z"/>
			</g>
		</g>
		<g>
			<g>
				<path d="M158.13,109.164c-1.375-0.107-2.577,0.927-2.682,2.304c-0.104,1.377,0.928,2.577,2.305,2.681
					c4.835,0.366,8.622,4.448,8.622,9.294c0,4.809-3.755,8.888-8.549,9.288c-1.376,0.115-2.398,1.323-2.283,2.699
					c0.108,1.306,1.202,2.292,2.488,2.292c0.069,0,0.14-0.003,0.211-0.009c7.364-0.614,13.133-6.882,13.133-14.271
					C171.375,115.997,165.557,109.725,158.13,109.164z"/>
			</g>
		</g>
	</g>
</g>
<g id="Layer_34">
</g>
<g id="Layer_35">
</g>
<g id="Layer_36">
</g>
<g id="Layer_37">
</g>
<g id="Layer_38">
</g>
<g id="Layer_39">
</g>
<g id="Layer_40">
</g>
<g id="Layer_41">
</g>
<g id="Layer_42">
</g>
<g id="Layer_43">
</g>
<g id="Layer_44">
</g>
<g id="Layer_45">
</g>
<g id="Layer_46">
</g>
<g id="Layer_47">
</g>
<g id="Layer_48">
</g>
<g id="Layer_49">
</g>
<g id="Layer_50">
</g>
<g id="Layer_51">
</g>
<g id="Layer_52">
</g>
<g id="Layer_53">
</g>
<g id="Layer_54">
</g>
<g id="Layer_55">
</g>
<g id="Layer_56">
</g>
<g id="Layer_57">
</g>
<g id="Layer_58">
</g>
<g id="Layer_59">
</g>
<g id="Layer_60">
</g>
<g id="Layer_61">
</g>
<g id="Layer_62">
</g>
<g id="Layer_63">
</g>
<g id="Layer_64">
</g>
<g id="Layer_65">
</g>
<g id="Layer_66">
</g>
<g id="Layer_67">
</g>
<g id="Layer_68">
</g>
<g id="Layer_69">
</g>
<g id="Layer_70">
</g>
<g id="Layer_71">
</g>
<g id="Layer_72">
</g>
<g id="Layer_73">
</g>
<g id="Layer_74">
</g>
<g id="Layer_75">
</g>
<g id="Layer_76">
</g>
<g id="Layer_77">
</g>
<g id="Layer_78">
</g>
<g id="Layer_79">
</g>
<g id="Layer_80">
</g>
</svg>
