<?xml version="1.0" encoding="utf-8"?>
<!-- Generator: Adobe Illustrator 24.0.0, SVG Export Plug-In . SVG Version: 6.00 Build 0)  -->
<svg version="1.1" xmlns="http://www.w3.org/2000/svg" xmlns:xlink="http://www.w3.org/1999/xlink" x="0px" y="0px"
	 viewBox="0 0 256 256" enable-background="new 0 0 256 256" xml:space="preserve">
<g id="Layer_1">
</g>
<g id="Layer_2">
</g>
<g id="Layer_3">
</g>
<g id="Layer_4">
</g>
<g id="Layer_5">
</g>
<g id="Layer_6">
</g>
<g id="Layer_7">
</g>
<g id="Layer_8">
</g>
<g id="Layer_9">
</g>
<g id="Layer_10">
</g>
<g id="Layer_11">
</g>
<g id="Layer_12">
</g>
<g id="Layer_13">
</g>
<g id="Layer_14">
</g>
<g id="Layer_15">
</g>
<g id="Layer_16">
</g>
<g id="Layer_17">
</g>
<g id="Layer_18">
</g>
<g id="Layer_19">
</g>
<g id="Layer_20">
</g>
<g id="Layer_21">
</g>
<g id="Layer_22">
</g>
<g id="Layer_23">
</g>
<g id="Layer_24">
</g>
<g id="Layer_25">
</g>
<g id="Layer_26">
</g>
<g id="Layer_27">
</g>
<g id="Layer_28">
</g>
<g id="Layer_29">
</g>
<g id="Layer_30">
</g>
<g id="Layer_31">
</g>
<g id="Layer_32">
</g>
<g id="Layer_33">
</g>
<g id="Layer_34">
</g>
<g id="Layer_35">
</g>
<g id="Layer_36">
</g>
<g id="Layer_37">
	<g>
		<g>
			<g>
				<path fill="#FCDD86" d="M162.027,15.618H93.973c-5.827,0-10.568,4.74-10.568,10.568v28.698
					c0,26.065,16.598,49.147,41.301,57.437c2.138,0.717,4.475,0.708,6.588,0c24.703-8.29,41.301-31.372,41.301-57.437V26.186
					C172.595,20.358,167.854,15.618,162.027,15.618z"/>
			</g>
		</g>
		<g>
			<g>
				<path fill="#F5C84C" d="M162.027,25.936H93.973c-0.138,0-0.25,0.112-0.25,0.249v28.698c0,21.626,13.77,40.778,34.265,47.655
					c20.518-6.878,34.289-26.029,34.289-47.655V26.186C162.277,26.048,162.165,25.936,162.027,25.936z"/>
			</g>
		</g>
		<g>
			<g>
				<path fill="#F9D0B4" d="M165.812,131.245l-6.174,6.003c-4.392,4.036-9.191,6.51-14.054,7.25l-7.349,1.346
					c-6.975,1.26-13.399,4.621-18.411,9.633c-4.677,4.677-4.108,4.108-8.272,8.272c-2.946,2.946-2.946,7.765,0,10.711
					c2.945,2.945,7.765,2.945,10.711,0l6.01-5.895l38.359,38.441l8.678-8.678c2.15-2.15,3.949-4.623,5.333-7.33l2.478-4.849
					c1.519-2.972,3.495-5.688,5.855-8.049l11.845-11.845L165.812,131.245z"/>
			</g>
		</g>
		<g>
			<g>
				<path fill="#F9D0B4" d="M166.333,206.71c-4.534-4.534-31.618-31.689-31.618-31.689l-6.442-6.456l-6.01,5.895
					c-2.921,2.921-7.686,2.945-10.638,0.072c-3.025-2.945-2.913-7.942,0.072-10.928c4.006-4.006,3.505-3.505,8.127-8.126
					c2.473-2.473,5.291-4.543,8.349-6.158c-3.139-1.658-6.529-2.837-10.062-3.475l-7.349-1.346c-4.862-0.74-9.662-3.214-14.054-7.25
					l-6.174-6.003l-35.01,35.01l11.845,11.845c2.36,2.36,4.336,5.076,5.855,8.048l2.478,4.849c1.384,2.707,3.183,5.18,5.333,7.33
					c9.654,9.654,32.217,32.217,39.973,39.973l0.001-0.001c2.588,2.588,6.803,2.826,9.511,0.364c2.89-2.629,2.971-7.106,0.243-9.839
					l6.732,6.732c2.655,2.651,6.957,2.65,9.61-0.003c2.655-2.655,2.655-6.959,0-9.614c2.655,2.655,6.959,2.655,9.614,0
					c2.654-2.654,2.655-6.955,0.004-9.61c2.655,2.651,6.957,2.65,9.61-0.004h0C168.988,213.669,168.988,209.365,166.333,206.71z"/>
			</g>
		</g>
		<g>
			<g>
				<path fill="#DAE6F1" d="M216.285,155.752l-40.002-40.002c-0.274-0.274-0.513-0.57-0.718-0.882l-11.584,11.583
					c-0.818,0.818-0.819,2.146,0,2.964l38.637,38.637c0.819,0.819,2.146,0.818,2.964,0l11.584-11.584
					C216.856,156.265,216.56,156.026,216.285,155.752z"/>
			</g>
		</g>
		<g>
			<g>
				<path fill="#5290DB" d="M237.758,132.131l-0.055-0.047l-37.75-37.75c-0.016-0.019-0.031-0.037-0.047-0.056
					c-2.482-2.933-6.988-3.018-9.705-0.302l-13.916,13.917c-2.17,2.17-2.17,5.688,0,7.858l40.002,40.002
					c2.17,2.17,5.688,2.17,7.858,0l13.916-13.917C240.776,139.119,240.691,134.612,237.758,132.131z"/>
			</g>
		</g>
		<g>
			<g>
				<path fill="#70D6F9" d="M79.716,108.238L65.8,94.321c-2.717-2.717-7.224-2.631-9.705,0.302l-0.047,0.055l-37.75,37.75
					c-0.019,0.016-0.037,0.031-0.056,0.047c-2.933,2.481-3.019,6.989-0.302,9.705l13.916,13.916c2.17,2.17,5.688,2.17,7.858,0
					l40.002-40.002C81.886,113.926,81.886,110.407,79.716,108.238z"/>
			</g>
		</g>
		<g>
			<g>
				<path fill="#DAE6F1" d="M92.017,126.797l-11.584-11.583c-0.205,0.312-0.443,0.608-0.718,0.882l-40.002,40.002
					c-0.274,0.274-0.571,0.512-0.882,0.718l11.584,11.583c0.819,0.818,2.146,0.819,2.964,0l38.638-38.638
					C92.836,128.942,92.836,127.615,92.017,126.797z"/>
			</g>
		</g>
		<g>
			<g>
				<path fill="#EDF4FC" d="M145.294,49.797c-2.005-2.004-5.255-2.004-7.26,0l-11.547,11.547l-7.083-7.083
					c-2.005-2.004-5.256-2.004-7.26,0c-2.005,2.005-2.005,5.255,0,7.26l10.713,10.713c1.003,1.002,2.316,1.503,3.63,1.503
					c1.314,0,2.627-0.501,3.63-1.503l15.176-15.176C147.298,55.052,147.298,51.802,145.294,49.797z"/>
			</g>
		</g>
		<g>
			<g>
				<path fill="#87D147" d="M32.906,179.1h-2.4v-2.3c0-1.8-1.4-3.2-3.2-3.2c-1.7,0-3.2,1.4-3.2,3.1v2.4h-2.3c-1.8,0-3.2,1.4-3.2,3.2
					c-0.1,1.7,1.3,3.2,3.2,3.2h2.3v2.3c0,1.8,1.4,3.2,3.2,3.2c1.7,0,3.2-1.4,3.2-3.1v-2.4h2.3c1.8,0,3.2-1.4,3.2-3.2
					C36.006,180.6,34.606,179.1,32.906,179.1z"/>
			</g>
		</g>
		<g>
			<g>
				<path fill="#70D6F9" d="M252.6,102.5c-1.878,0-3.4,1.522-3.4,3.4c0,1.878,1.522,3.4,3.4,3.4c1.878,0,3.4-1.522,3.4-3.4
					C256,104.022,254.478,102.5,252.6,102.5z"/>
			</g>
		</g>
		<g>
			<g>
				<path fill="#FC657E" d="M62.15,55.175c-3.1-0.6-5.6-3-6.2-6.1c0-0.1-0.3-0.1-0.3,0c-0.6,3.1-3.1,5.5-6.2,6.1
					c-0.1,0-0.1,0.2,0,0.3c3.1,0.6,5.6,3,6.2,6.1c0,0.1,0.3,0.1,0.3,0c0.6-3.1,3.1-5.5,6.2-6.1
					C62.25,55.375,62.25,55.175,62.15,55.175z"/>
			</g>
		</g>
		<g>
			<g>
				<path fill="#F5C84C" d="M3.4,154c-1.878,0-3.4,1.522-3.4,3.4c0,1.878,1.522,3.4,3.4,3.4c1.878,0,3.4-1.522,3.4-3.4
					C6.8,155.522,5.278,154,3.4,154z"/>
			</g>
		</g>
		<g>
			<g>
				<path fill="#F5C84C" d="M243.15,78.2c-4.5-0.8-8-4.3-8.9-8.7c0-0.2-0.4-0.2-0.4,0c-0.9,4.4-4.4,7.9-8.9,8.7
					c-0.2,0-0.2,0.3,0,0.4c4.5,0.8,8,4.3,8.9,8.7c0,0.2,0.4,0.2,0.4,0c0.9-4.4,4.4-7.9,8.9-8.7C243.35,78.5,243.35,78.2,243.15,78.2
					z"/>
			</g>
		</g>
		<g>
			<g>
				<path d="M139.262,233.789l-30.871-30.87c-0.976-0.977-2.56-0.977-3.535,0c-0.977,0.976-0.977,2.559,0,3.535l30.871,30.87
					c0.488,0.488,1.128,0.732,1.768,0.732s1.28-0.244,1.768-0.732C140.239,236.348,140.239,234.765,139.262,233.789z"/>
			</g>
		</g>
		<g>
			<g>
				<path d="M161.062,168.456c-0.371-1.331-1.75-2.107-3.078-1.739c-13.573,3.774-24.003-4.002-24.103-4.078
					c-0.983-0.757-2.371-0.679-3.263,0.183l-4.083,3.945c-0.993,0.959-1.02,2.542-0.061,3.535c0.96,0.993,2.542,1.021,3.535,0.061
					l2.638-2.549c2.978,1.803,9.376,4.958,17.699,4.958c2.793,0,5.805-0.355,8.975-1.237
					C160.653,171.164,161.431,169.786,161.062,168.456z"/>
			</g>
		</g>
		<g>
			<g>
				<path d="M158.491,214.561l-30.871-30.87c-0.976-0.977-2.56-0.977-3.535,0c-0.977,0.976-0.977,2.559,0,3.535l30.871,30.87
					c0.488,0.488,1.128,0.732,1.768,0.732s1.28-0.244,1.768-0.732C159.467,217.12,159.467,215.537,158.491,214.561z"/>
			</g>
		</g>
		<g>
			<g>
				<path d="M148.873,224.171l-30.867-30.866c-0.976-0.977-2.56-0.977-3.535,0c-0.977,0.976-0.977,2.559,0,3.535l30.867,30.866
					c0.488,0.488,1.128,0.732,1.768,0.732s1.28-0.244,1.768-0.732C149.849,226.73,149.849,225.147,148.873,224.171z"/>
			</g>
		</g>
		<g>
			<g>
				<g>
					<g>
						<g>
							<path d="M162.027,13.118H93.973c-7.206,0-13.068,5.862-13.068,13.067v28.698c0,27.141,17.283,51.175,43.006,59.807
								c1.318,0.442,2.703,0.664,4.089,0.664c1.385,0,2.771-0.221,4.09-0.664c25.723-8.632,43.005-32.667,43.005-59.807V26.186
								C175.095,18.98,169.233,13.118,162.027,13.118z M170.095,54.884c0,24.99-15.913,47.12-39.595,55.067
								c-1.613,0.539-3.388,0.54-4.999,0c-23.684-7.947-39.597-30.077-39.597-55.067V26.186c0-4.448,3.62-8.067,8.068-8.067h68.054
								c4.449,0,8.068,3.619,8.068,8.067V54.884z"/>
						</g>
					</g>
				</g>
			</g>
		</g>
		<g>
			<g>
				<g>
					<g>
						<path d="M162.027,23.436H93.973c-1.517,0-2.75,1.233-2.75,2.75v28.698c0,22.702,14.455,42.806,35.97,50.025
							c0.258,0.086,0.527,0.13,0.795,0.13s0.537-0.043,0.794-0.129c21.529-7.216,35.994-27.32,35.994-50.026V26.186
							C164.777,24.669,163.543,23.436,162.027,23.436z M159.777,54.884c0,20.273-12.739,38.255-31.788,45.011
							c-19.036-6.759-31.766-24.741-31.766-45.011V28.436h63.554V54.884z"/>
					</g>
				</g>
			</g>
		</g>
		<g>
			<g>
				<path d="M201.931,165.146c-0.976-0.977-2.56-0.977-3.535,0l-11.186,11.186c-2.55,2.549-4.674,5.469-6.314,8.679l-2.479,4.849
					c-1.268,2.479-2.907,4.733-4.874,6.7l-6.909,6.908l-36.592-36.669c-0.97-0.971-2.541-0.979-3.52-0.019l-6.027,5.912
					c-1.979,1.978-5.197,1.978-7.176,0c-0.952-0.953-1.477-2.227-1.477-3.588s0.524-2.635,1.477-3.588l8.272-8.271
					c4.673-4.674,10.582-7.765,17.093-8.941l7.275-1.333c5.325-0.81,10.64-3.535,15.42-7.929l5.527-5.375
					c0.99-0.962,1.012-2.545,0.05-3.535c-0.963-0.991-2.546-1.011-3.535-0.05l-5.476,5.326c-3.995,3.67-8.399,5.959-12.813,6.631
					l-7.344,1.345c-7.513,1.356-14.336,4.927-19.734,10.325l-8.272,8.271c-1.897,1.896-2.941,4.426-2.941,7.123
					s1.044,5.227,2.941,7.124c3.929,3.927,10.319,3.927,14.229,0.017l4.241-4.159l36.609,36.686
					c0.469,0.469,1.104,0.733,1.768,0.734h0.001c0.663,0,1.299-0.263,1.768-0.732l8.678-8.678c2.337-2.336,4.285-5.015,5.791-7.96
					l2.479-4.849c1.402-2.743,3.218-5.239,5.397-7.419l11.186-11.186C202.907,167.705,202.907,166.122,201.931,165.146z"/>
			</g>
		</g>
		<g>
			<g>
				<path d="M168.102,204.942c-0.977-0.977-2.559-0.977-3.536,0s-0.977,2.559,0,3.536c1.676,1.676,1.676,4.403,0,6.079
					c-1.675,1.674-4.401,1.675-6.076,0.002c-0.977-0.975-2.559-0.974-3.534,0.001c-0.976,0.976-0.977,2.558-0.001,3.534
					c0.001,0.002,0.003,0.004,0.004,0.005c1.668,1.677,1.666,4.399-0.007,6.072c-0.812,0.812-1.891,1.259-3.039,1.259
					s-2.228-0.447-3.039-1.259c-0.977-0.977-2.559-0.976-3.536,0c-0.488,0.488-0.732,1.128-0.732,1.768
					c0,0.64,0.244,1.279,0.732,1.768c1.676,1.676,1.676,4.403,0,6.079c-1.675,1.674-4.4,1.675-6.075,0.004l-6.732-6.732
					c-0.976-0.977-2.558-0.977-3.535-0.001s-0.978,2.558-0.002,3.535c0.838,0.84,1.284,1.956,1.255,3.142
					c-0.028,1.185-0.53,2.279-1.411,3.082c-1.668,1.518-4.388,1.391-6.062-0.282l-39.973-39.973c-1.967-1.967-3.607-4.221-4.875-6.7
					l-2.478-4.85c-1.641-3.21-3.766-6.13-6.314-8.678l-11.204-11.204c-0.976-0.977-2.56-0.977-3.535,0
					c-0.977,0.976-0.977,2.559,0,3.535l11.204,11.204c2.178,2.179,3.994,4.674,5.397,7.418l2.478,4.849
					c1.505,2.945,3.454,5.624,5.792,7.96l39.974,39.973c1.879,1.88,4.333,2.829,6.772,2.829c2.224,0,4.436-0.79,6.188-2.384
					c1.245-1.132,2.138-2.536,2.624-4.089l0.902,0.902c3.625,3.619,9.521,3.618,13.145-0.005c1.894-1.895,2.798-4.409,2.713-6.896
					c2.58,0.085,5.068-0.885,6.901-2.718c1.895-1.895,2.8-4.413,2.713-6.902c2.489,0.083,5.006-0.818,6.901-2.713
					C171.727,214.467,171.727,208.568,168.102,204.942z"/>
			</g>
		</g>
		<g>
			<g>
				<path d="M128.967,146.914c-3.285-1.688-6.789-2.876-10.406-3.529l-7.424-1.359c-4.34-0.66-8.745-2.949-12.688-6.57l-5.472-5.32
					c-0.989-0.961-2.571-0.939-3.535,0.05c-0.962,0.99-0.94,2.573,0.05,3.535l5.523,5.369c4.729,4.345,10.043,7.07,15.295,7.868
					l7.355,1.348c3.138,0.566,6.171,1.595,9.016,3.057c0.366,0.188,0.756,0.277,1.141,0.277c0.907,0,1.782-0.496,2.226-1.358
					C130.679,149.052,130.195,147.545,128.967,146.914z"/>
			</g>
		</g>
		<g>
			<g>
				<path d="M218.649,154.989c-0.976-0.977-2.56-0.977-3.535,0L204.102,166l-38.066-38.066l11.011-11.011
					c0.977-0.976,0.977-2.559,0-3.535c-0.976-0.977-2.56-0.977-3.535,0l-11.297,11.297c-1.792,1.792-1.792,4.708,0,6.499
					l38.638,38.638c0.896,0.896,2.073,1.344,3.25,1.344s2.354-0.448,3.25-1.344l11.297-11.297
					C219.625,157.548,219.625,155.965,218.649,154.989z"/>
			</g>
		</g>
		<g>
			<g>
				<g>
					<g>
						<path d="M239.396,130.241l-37.604-37.604c-1.627-1.909-3.916-3.018-6.45-3.124c-2.579-0.104-5.09,0.875-6.908,2.695
							l-13.917,13.917c-1.522,1.521-2.36,3.544-2.36,5.696c0,2.152,0.838,4.175,2.36,5.696l40.001,40.002
							c1.521,1.522,3.544,2.36,5.697,2.36c2.152,0,4.175-0.838,5.696-2.36l13.917-13.916c1.819-1.819,2.802-4.337,2.695-6.909
							C242.417,134.159,241.306,131.869,239.396,130.241z M236.292,140.068l-13.917,13.917c-1.193,1.191-3.131,1.19-4.323,0
							l-40.001-40.002c-0.577-0.577-0.895-1.344-0.895-2.161c0-0.816,0.318-1.583,0.895-2.161l13.917-13.917
							c0.792-0.792,1.874-1.238,2.991-1.238c0.058,0,0.116,0.001,0.174,0.004c1.132,0.047,2.149,0.538,2.907,1.434
							c0.046,0.055,0.094,0.107,0.145,0.157l37.75,37.75c0.051,0.051,0.104,0.1,0.159,0.146l0.052,0.043
							c0.843,0.715,1.333,1.731,1.381,2.862C237.575,138.081,237.125,139.234,236.292,140.068z"/>
					</g>
				</g>
			</g>
		</g>
		<g>
			<g>
				<g>
					<g>
						<path d="M81.484,106.47L67.567,92.554c-1.82-1.82-4.351-2.809-6.909-2.695c-2.511,0.104-4.781,1.194-6.447,3.12
							l-37.607,37.607c-1.911,1.627-3.021,3.918-3.126,6.454c-0.107,2.571,0.875,5.089,2.695,6.909l13.916,13.916
							c1.521,1.522,3.544,2.36,5.697,2.36c2.152,0,4.175-0.838,5.696-2.36l40.002-40.002
							C84.625,114.722,84.625,109.611,81.484,106.47z M77.949,114.328L37.947,154.33c-1.193,1.191-3.131,1.19-4.323,0
							l-13.916-13.916c-0.833-0.834-1.283-1.987-1.234-3.166c0.047-1.132,0.539-2.149,1.354-2.84
							c0.018-0.015,0.092-0.077,0.109-0.092c0.044-0.039,0.087-0.079,0.128-0.12l37.75-37.75c0.049-0.049,0.143-0.155,0.188-0.208
							c0.714-0.845,1.731-1.336,2.863-1.383c0.059-0.002,0.117-0.003,0.175-0.003c1.117,0,2.199,0.446,2.991,1.238l13.916,13.917
							C79.14,111.197,79.14,113.136,77.949,114.328z"/>
					</g>
				</g>
			</g>
		</g>
		<g>
			<g>
				<path d="M93.785,125.029l-11.279-11.28c-0.976-0.977-2.56-0.977-3.535,0c-0.977,0.976-0.977,2.559,0,3.535l10.993,10.994
					l-38.065,38.066L40.953,155.4c-0.976-0.977-2.56-0.977-3.535,0c-0.977,0.976-0.977,2.559,0,3.535l11.231,11.231
					c0.896,0.896,2.073,1.343,3.25,1.343s2.354-0.448,3.25-1.344l38.637-38.637c0.869-0.868,1.347-2.022,1.347-3.25
					S94.653,125.896,93.785,125.029z"/>
			</g>
		</g>
		<g>
			<g>
				<g>
					<g>
						<g>
							<path d="M147.062,48.029c-2.977-2.975-7.819-2.975-10.795,0l-9.779,9.779l-5.316-5.316
								c-2.977-2.975-7.819-2.975-10.795,0.001c-2.976,2.977-2.976,7.819,0,10.795l10.714,10.714
								c1.443,1.441,3.359,2.235,5.397,2.235c2.039,0,3.955-0.794,5.397-2.236l15.177-15.176
								C150.038,55.848,150.038,51.005,147.062,48.029z M143.526,55.289L128.35,70.465c-0.995,0.995-2.729,0.994-3.725,0
								l-10.713-10.713c-1.026-1.027-1.026-2.698,0-3.724c0.513-0.513,1.188-0.77,1.862-0.77c0.675,0,1.349,0.257,1.862,0.77
								l7.083,7.083c0.469,0.469,1.105,0.732,1.768,0.732s1.299-0.264,1.768-0.732l11.546-11.546c1.026-1.026,2.697-1.026,3.725,0
								C144.553,52.591,144.553,54.262,143.526,55.289z"/>
						</g>
					</g>
				</g>
			</g>
		</g>
	</g>
</g>
<g id="Layer_38">
</g>
<g id="Layer_39">
</g>
<g id="Layer_40">
</g>
<g id="Layer_41">
</g>
<g id="Layer_42">
</g>
<g id="Layer_43">
</g>
<g id="Layer_44">
</g>
<g id="Layer_45">
</g>
<g id="Layer_46">
</g>
<g id="Layer_47">
</g>
<g id="Layer_48">
</g>
<g id="Layer_49">
</g>
<g id="Layer_50">
</g>
<g id="Layer_51">
</g>
<g id="Layer_52">
</g>
<g id="Layer_53">
</g>
<g id="Layer_54">
</g>
<g id="Layer_55">
</g>
<g id="Layer_56">
</g>
<g id="Layer_57">
</g>
<g id="Layer_58">
</g>
<g id="Layer_59">
</g>
<g id="Layer_60">
</g>
<g id="Layer_61">
</g>
<g id="Layer_62">
</g>
<g id="Layer_63">
</g>
<g id="Layer_64">
</g>
<g id="Layer_65">
</g>
<g id="Layer_66">
</g>
<g id="Layer_67">
</g>
<g id="Layer_68">
</g>
<g id="Layer_69">
</g>
<g id="Layer_70">
</g>
<g id="Layer_71">
</g>
<g id="Layer_72">
</g>
<g id="Layer_73">
</g>
<g id="Layer_74">
</g>
<g id="Layer_75">
</g>
<g id="Layer_76">
</g>
<g id="Layer_77">
</g>
<g id="Layer_78">
</g>
<g id="Layer_79">
</g>
<g id="Layer_80">
</g>
</svg>
