<?xml version="1.0" encoding="utf-8"?>
<!-- Generator: Adobe Illustrator 24.0.0, SVG Export Plug-In . SVG Version: 6.00 Build 0)  -->
<svg version="1.1" xmlns="http://www.w3.org/2000/svg" xmlns:xlink="http://www.w3.org/1999/xlink" x="0px" y="0px"
	 viewBox="0 0 256 256" enable-background="new 0 0 256 256" xml:space="preserve">
<g id="Layer_1">
</g>
<g id="Layer_2">
</g>
<g id="Layer_3">
</g>
<g id="Layer_4">
</g>
<g id="Layer_5">
</g>
<g id="Layer_6">
</g>
<g id="Layer_7">
</g>
<g id="Layer_8">
</g>
<g id="Layer_9">
</g>
<g id="Layer_10">
</g>
<g id="Layer_11">
</g>
<g id="Layer_12">
</g>
<g id="Layer_13">
</g>
<g id="Layer_14">
</g>
<g id="Layer_15">
</g>
<g id="Layer_16">
	<g>
		<g>
			<g>
				<path fill="#5290DB" d="M226,41h-33.213c2.315,2.678,3.729,6.154,3.729,9.95v74.029c0,8.395-6.868,15.263-15.263,15.263h-13.219
					c-4.05,0-7.333,3.283-7.333,7.333v7.736c0,3.551-4.266,5.396-6.836,2.946c-3.688-3.516-6.623-7.365-8.956-11.201
					c-2.577-4.236-7.175-6.814-12.133-6.814h-58.03c-8.395,0-15.263-6.868-15.263-15.263V50.95c0-3.796,1.414-7.272,3.729-9.95H30
					c-6.6,0-12,5.4-12,12v136c0,6.6,5.4,12,12,12h196c6.6,0,12-5.4,12-12V53C238,46.4,232.6,41,226,41z"/>
			</g>
		</g>
		<g>
			<g>
				<path fill="#5290DB" d="M185.313,231.501l-2.265-3.934c-0.958-1.663-2.731-2.688-4.65-2.688H77.602
					c-1.919,0-3.692,1.025-4.65,2.688l-2.265,3.934c-0.973,1.689,0.246,3.798,2.195,3.798h110.236
					C185.067,235.299,186.286,233.19,185.313,231.501z"/>
			</g>
		</g>
		<g>
			<g>
				<rect x="118.5" y="201" fill="#3A70BF" width="19" height="23.88"/>
			</g>
		</g>
		<g>
			<g>
				<path fill="#70D6F9" d="M226,51h-29.483v73.979c0,8.395-6.868,15.263-15.263,15.263h-13.219c-4.05,0-7.333,3.283-7.333,7.333
					v7.736c0,3.551-4.266,5.396-6.836,2.946c-3.688-3.516-6.623-7.365-8.956-11.201c-2.577-4.236-7.175-6.814-12.133-6.814h-58.03
					c-8.395,0-15.263-6.868-15.263-15.263V51H30c-1.084,0-2,0.916-2,2v126c0,1.084,0.916,2,2,2h196c1.084,0,2-0.916,2-2V53
					C228,51.916,227.084,51,226,51z"/>
			</g>
		</g>
		<g>
			<g>
				<path fill="#F5C84C" d="M181.254,35.687H74.746c-8.395,0-15.263,6.868-15.263,15.263v74.029c0,8.395,6.868,15.263,15.263,15.263
					h58.03c4.958,0,9.556,2.578,12.133,6.814c2.334,3.836,5.269,7.685,8.956,11.201c2.57,2.451,6.836,0.606,6.836-2.946v-7.736
					c0-4.05,3.283-7.333,7.333-7.333h13.219c8.394,0,15.263-6.868,15.263-15.263V50.95
					C196.517,42.556,189.648,35.687,181.254,35.687z"/>
			</g>
		</g>
		<g>
			<g>
				<path fill="#FC657E" d="M96.347,69.202c-7.996,0-14.477,6.482-14.477,14.477v0c0,7.996,6.482,14.477,14.477,14.477h19.95V69.202
					H96.347z"/>
			</g>
		</g>
		<g>
			<g>
				<path fill="#FC657E" d="M150.462,52.567c-3.183,0-5.764,2.581-5.764,5.764v50.696c0,3.183,2.581,5.764,5.764,5.764
					s5.764-2.581,5.764-5.764V58.331C156.226,55.148,153.645,52.567,150.462,52.567z"/>
			</g>
		</g>
		<g>
			<g>
				<path fill="#DAE6F1" d="M118.797,119.143l-7.109-20.986H97.68l8.551,25.243c0.912,2.693,3.44,4.505,6.283,4.505
					C117.055,127.905,120.254,123.444,118.797,119.143z"/>
			</g>
		</g>
		<g>
			<g>
				<path fill="#DAE6F1" d="M119.503,69.202h-3.206v28.955h3.206c10.659,0,17.073,3.338,25.195,9.011V60.191
					C136.576,65.864,130.162,69.202,119.503,69.202z"/>
			</g>
		</g>
		<g>
			<g>
				<path fill="#DAE6F1" d="M156.226,71.867v23.624c6.33-0.234,11.393-5.425,11.393-11.812v0
					C167.62,77.292,162.556,72.101,156.226,71.867z"/>
			</g>
		</g>
		<g>
			<g>
				<path fill="#FC657E" d="M34.906,227.1h-2.4v-2.3c0-1.8-1.4-3.2-3.2-3.2c-1.7,0-3.2,1.4-3.2,3.1v2.4h-2.3c-1.8,0-3.2,1.4-3.2,3.2
					c-0.1,1.7,1.3,3.2,3.2,3.2h2.3v2.3c0,1.8,1.4,3.2,3.2,3.2c1.7,0,3.2-1.4,3.2-3.1v-2.4h2.3c1.8,0,3.2-1.4,3.2-3.2
					C38.006,228.6,36.606,227.1,34.906,227.1z"/>
			</g>
		</g>
		<g>
			<g>
				<circle fill="#F5C84C" cx="53.206" cy="252.6" r="3.4"/>
			</g>
		</g>
		<g>
			<g>
				<path fill="#70D6F9" d="M99.15,15.175c-3.1-0.6-5.6-3-6.2-6.1c0-0.1-0.3-0.1-0.3,0c-0.6,3.1-3.1,5.5-6.2,6.1
					c-0.1,0-0.1,0.2,0,0.3c3.1,0.6,5.6,3,6.2,6.1c0,0.1,0.3,0.1,0.3,0c0.6-3.1,3.1-5.5,6.2-6.1
					C99.25,15.375,99.25,15.175,99.15,15.175z"/>
			</g>
		</g>
		<g>
			<g>
				<path fill="#87D147" d="M216.6,15c-1.878,0-3.4,1.522-3.4,3.4c0,1.878,1.522,3.4,3.4,3.4c1.878,0,3.4-1.522,3.4-3.4
					C220,16.522,218.478,15,216.6,15z"/>
			</g>
		</g>
		<g>
			<g>
				<path fill="#F5C84C" d="M189.15,8.85c-4.5-0.8-8-4.3-8.9-8.7c0-0.2-0.4-0.2-0.4,0c-0.9,4.4-4.4,7.9-8.9,8.7
					c-0.2,0-0.2,0.3,0,0.4c4.5,0.8,8,4.3,8.9,8.7c0,0.2,0.4,0.2,0.4,0c0.9-4.4,4.4-7.9,8.9-8.7C189.35,9.15,189.35,8.85,189.15,8.85
					z"/>
			</g>
		</g>
		<g>
			<g>
				<path d="M226,38.5h-33c-1.381,0-2.5,1.119-2.5,2.5s1.119,2.5,2.5,2.5h33c5.238,0,9.5,4.262,9.5,9.5v136
					c0,5.238-4.262,9.5-9.5,9.5H30c-5.238,0-9.5-4.262-9.5-9.5V53c0-5.238,4.262-9.5,9.5-9.5h33.059c1.381,0,2.5-1.119,2.5-2.5
					s-1.119-2.5-2.5-2.5H30c-7.995,0-14.5,6.505-14.5,14.5v136c0,7.995,6.505,14.5,14.5,14.5h196c7.995,0,14.5-6.505,14.5-14.5V53
					C240.5,45.005,233.995,38.5,226,38.5z"/>
			</g>
		</g>
		<g>
			<g>
				<path d="M130,188h-4c-1.381,0-2.5,1.119-2.5,2.5s1.119,2.5,2.5,2.5h4c1.381,0,2.5-1.119,2.5-2.5S131.381,188,130,188z"/>
			</g>
		</g>
		<g>
			<g>
				<path d="M218.869,188h-5.598c-1.381,0-2.5,1.119-2.5,2.5s1.119,2.5,2.5,2.5h5.598c1.381,0,2.5-1.119,2.5-2.5
					S220.25,188,218.869,188z"/>
			</g>
		</g>
		<g>
			<g>
				<g>
					<g>
						<path d="M187.479,230.254l-2.265-3.934c-1.399-2.431-4.011-3.94-6.816-3.94H77.602c-2.805,0-5.417,1.51-6.816,3.94
							l-2.265,3.933c-0.907,1.576-0.906,3.457,0.004,5.031c0.91,1.575,2.539,2.515,4.358,2.515h110.235
							c1.819,0,3.448-0.94,4.358-2.515C188.386,233.71,188.387,231.829,187.479,230.254z M183.118,232.799l-110.264-0.05
							l2.265-3.934c0.51-0.886,1.461-1.436,2.483-1.436h100.797c1.022,0,1.973,0.55,2.483,1.436l2.257,3.982
							C183.138,232.797,183.132,232.799,183.118,232.799z"/>
					</g>
				</g>
			</g>
		</g>
		<g>
			<g>
				<g>
					<g>
						<path d="M137.5,198.5h-19c-1.381,0-2.5,1.119-2.5,2.5v23.88c0,1.381,1.119,2.5,2.5,2.5h19c1.381,0,2.5-1.119,2.5-2.5V201
							C140,199.619,138.881,198.5,137.5,198.5z M135,222.38h-14V203.5h14V222.38z"/>
					</g>
				</g>
			</g>
		</g>
		<g>
			<g>
				<path d="M99.875,60.943c-1.381,0-2.5,1.119-2.5,2.5v4.611c0,1.381,1.119,2.5,2.5,2.5s2.5-1.119,2.5-2.5v-4.611
					C102.375,62.062,101.256,60.943,99.875,60.943z"/>
			</g>
		</g>
		<g>
			<g>
				<path d="M226,48.5h-28.625c-1.381,0-2.5,1.119-2.5,2.5s1.119,2.5,2.5,2.5H225.5v125h-195v-125h28.375c1.381,0,2.5-1.119,2.5-2.5
					s-1.119-2.5-2.5-2.5H30c-2.481,0-4.5,2.019-4.5,4.5v126c0,2.481,2.019,4.5,4.5,4.5h196c2.481,0,4.5-2.019,4.5-4.5V53
					C230.5,50.519,228.481,48.5,226,48.5z"/>
			</g>
		</g>
		<g>
			<g>
				<g>
					<g>
						<path d="M181.254,33.188H74.746c-9.794,0-17.763,7.968-17.763,17.763v74.029c0,9.794,7.968,17.763,17.763,17.763h58.03
							c4.06,0,7.891,2.151,9.997,5.613c2.67,4.391,5.822,8.331,9.367,11.711c1.251,1.192,2.837,1.815,4.468,1.815
							c0.874,0,1.759-0.179,2.612-0.544c2.456-1.051,3.981-3.361,3.981-6.026v-7.736c0-2.665,2.168-4.833,4.833-4.833h13.22
							c9.794,0,17.763-7.968,17.763-17.763V50.95C199.017,41.156,191.048,33.188,181.254,33.188z M194.017,124.979
							c0,7.038-5.725,12.763-12.763,12.763h-13.22c-5.422,0-9.833,4.411-9.833,9.833v7.736c0,0.924-0.664,1.308-0.949,1.43
							c-0.281,0.12-1.005,0.333-1.661-0.293c-3.228-3.078-6.103-6.675-8.546-10.691c-3.007-4.943-8.475-8.015-14.269-8.015h-58.03
							c-7.038,0-12.763-5.725-12.763-12.763V50.95c0-7.038,5.725-12.763,12.763-12.763h106.508c7.038,0,12.763,5.725,12.763,12.763
							V124.979z"/>
					</g>
				</g>
			</g>
		</g>
		<g>
			<g>
				<g>
					<g>
						<path d="M116.297,66.702h-19.95c-9.361,0-16.978,7.616-16.978,16.977s7.616,16.978,16.978,16.978h19.95
							c1.381,0,2.5-1.119,2.5-2.5V69.202C118.797,67.821,117.678,66.702,116.297,66.702z M113.797,95.657h-17.45
							c-6.604,0-11.978-5.373-11.978-11.978c0-6.604,5.373-11.977,11.978-11.977h17.45V95.657z"/>
					</g>
				</g>
			</g>
		</g>
		<g>
			<g>
				<g>
					<g>
						<g>
							<path d="M150.462,50.067c-4.557,0-8.264,3.708-8.264,8.264v50.696c0,4.557,3.708,8.264,8.264,8.264s8.264-3.708,8.264-8.264
								V58.332C158.726,53.775,155.019,50.067,150.462,50.067z M153.726,109.027c0,1.8-1.464,3.264-3.264,3.264
								s-3.264-1.464-3.264-3.264V58.332c0-1.8,1.464-3.264,3.264-3.264s3.264,1.464,3.264,3.264V109.027z"/>
						</g>
					</g>
				</g>
			</g>
		</g>
		<g>
			<g>
				<path d="M121.165,118.34l-6.707-19.797c-0.443-1.308-1.862-2.009-3.17-1.565c-1.308,0.443-2.009,1.862-1.565,3.17l6.707,19.797
					c0.433,1.277,0.23,2.639-0.556,3.735s-2.011,1.725-3.359,1.725c-1.773,0-3.346-1.128-3.915-2.808L100.47,98.6
					c-0.442-1.308-1.862-2.008-3.17-1.565s-2.009,1.862-1.565,3.17l8.129,23.997c1.256,3.71,4.733,6.203,8.65,6.203
					c2.98,0,5.686-1.389,7.423-3.812C121.673,124.171,122.121,121.163,121.165,118.34z"/>
			</g>
		</g>
		<g>
			<g>
				<path d="M146.461,58.967c-0.788-1.133-2.346-1.413-3.48-0.626c-7.98,5.545-13.803,8.361-23.478,8.361h-3.206
					c-1.381,0-2.5,1.119-2.5,2.5s1.119,2.5,2.5,2.5h3.206c10.938,0,17.693-3.252,26.332-9.254
					C146.968,61.659,147.249,60.102,146.461,58.967z"/>
			</g>
		</g>
		<g>
			<g>
				<path d="M145.732,104.841c-8.587-5.957-15.31-9.184-26.229-9.184h-3.206c-1.381,0-2.5,1.119-2.5,2.5s1.119,2.5,2.5,2.5h3.206
					c9.658,0,15.45,2.792,23.379,8.292c0.435,0.301,0.931,0.446,1.422,0.446c0.792,0,1.571-0.375,2.057-1.075
					C147.148,107.186,146.867,105.628,145.732,104.841z"/>
			</g>
		</g>
		<g>
			<g>
				<path d="M157.413,69.451c-1.378-0.165-2.61,0.831-2.765,2.203c-0.156,1.372,0.831,2.61,2.203,2.765
					c4.714,0.534,8.27,4.515,8.27,9.26c0,4.779-3.583,8.763-8.335,9.268c-1.373,0.146-2.368,1.377-2.222,2.75
					c0.136,1.283,1.221,2.236,2.483,2.236c0.088,0,0.177-0.004,0.267-0.014c7.301-0.775,12.807-6.897,12.807-14.239
					C170.12,76.388,164.657,70.271,157.413,69.451z"/>
			</g>
		</g>
	</g>
</g>
<g id="Layer_17">
</g>
<g id="Layer_18">
</g>
<g id="Layer_19">
</g>
<g id="Layer_20">
</g>
<g id="Layer_21">
</g>
<g id="Layer_22">
</g>
<g id="Layer_23">
</g>
<g id="Layer_24">
</g>
<g id="Layer_25">
</g>
<g id="Layer_26">
</g>
<g id="Layer_27">
</g>
<g id="Layer_28">
</g>
<g id="Layer_29">
</g>
<g id="Layer_30">
</g>
<g id="Layer_31">
</g>
<g id="Layer_32">
</g>
<g id="Layer_33">
</g>
<g id="Layer_34">
</g>
<g id="Layer_35">
</g>
<g id="Layer_36">
</g>
<g id="Layer_37">
</g>
<g id="Layer_38">
</g>
<g id="Layer_39">
</g>
<g id="Layer_40">
</g>
<g id="Layer_41">
</g>
<g id="Layer_42">
</g>
<g id="Layer_43">
</g>
<g id="Layer_44">
</g>
<g id="Layer_45">
</g>
<g id="Layer_46">
</g>
<g id="Layer_47">
</g>
<g id="Layer_48">
</g>
<g id="Layer_49">
</g>
<g id="Layer_50">
</g>
<g id="Layer_51">
</g>
<g id="Layer_52">
</g>
<g id="Layer_53">
</g>
<g id="Layer_54">
</g>
<g id="Layer_55">
</g>
<g id="Layer_56">
</g>
<g id="Layer_57">
</g>
<g id="Layer_58">
</g>
<g id="Layer_59">
</g>
<g id="Layer_60">
</g>
<g id="Layer_61">
</g>
<g id="Layer_62">
</g>
<g id="Layer_63">
</g>
<g id="Layer_64">
</g>
<g id="Layer_65">
</g>
<g id="Layer_66">
</g>
<g id="Layer_67">
</g>
<g id="Layer_68">
</g>
<g id="Layer_69">
</g>
<g id="Layer_70">
</g>
<g id="Layer_71">
</g>
<g id="Layer_72">
</g>
<g id="Layer_73">
</g>
<g id="Layer_74">
</g>
<g id="Layer_75">
</g>
<g id="Layer_76">
</g>
<g id="Layer_77">
</g>
<g id="Layer_78">
</g>
<g id="Layer_79">
</g>
<g id="Layer_80">
</g>
</svg>
