<?xml version="1.0" encoding="utf-8"?>
<!-- Generator: Adobe Illustrator 24.0.0, SVG Export Plug-In . SVG Version: 6.00 Build 0)  -->
<svg version="1.1" xmlns="http://www.w3.org/2000/svg" xmlns:xlink="http://www.w3.org/1999/xlink" x="0px" y="0px"
	 viewBox="0 0 256 256" enable-background="new 0 0 256 256" xml:space="preserve">
<g id="Layer_1">
</g>
<g id="Layer_2">
</g>
<g id="Layer_3">
</g>
<g id="Layer_4">
</g>
<g id="Layer_5">
</g>
<g id="Layer_6">
</g>
<g id="Layer_7">
</g>
<g id="Layer_8">
	<g>
		<g>
			<g>
				<path fill="#5290DB" d="M226,41H30c-6.6,0-12,5.4-12,12v136c0,6.6,5.4,12,12,12h196c6.6,0,12-5.4,12-12V53
					C238,46.4,232.6,41,226,41z"/>
			</g>
		</g>
		<g>
			<g>
				<path fill="#5290DB" d="M185.313,231.501l-2.265-3.934c-0.958-1.663-2.731-2.688-4.65-2.688H77.602
					c-1.919,0-3.692,1.025-4.65,2.688l-2.265,3.934c-0.973,1.689,0.246,3.797,2.195,3.797h110.236
					C185.067,235.299,186.286,233.19,185.313,231.501z"/>
			</g>
		</g>
		<g>
			<g>
				<rect x="118.5" y="201" fill="#3A70BF" width="19" height="23.88"/>
			</g>
		</g>
		<g>
			<g>
				<path fill="#70D6F9" d="M226,51H30c-1.084,0-2,0.916-2,2v126c0,1.084,0.916,2,2,2h196c1.084,0,2-0.916,2-2V53
					C228,51.916,227.084,51,226,51z"/>
			</g>
		</g>
		<g>
			<g>
				<polygon fill="#9BE5F9" points="165,51 128.695,51 228,150.305 228,114 				"/>
			</g>
		</g>
		<g>
			<g>
				<path fill="#9BE5F9" d="M226,51h-31.305L228,84.305V53C228,51.916,227.084,51,226,51z"/>
			</g>
		</g>
		<g>
			<g>
				<path fill="#70D6F9" d="M34.906,227.1h-2.4v-2.3c0-1.8-1.4-3.2-3.2-3.2c-1.7,0-3.2,1.4-3.2,3.1v2.4h-2.3c-1.8,0-3.2,1.4-3.2,3.2
					c-0.1,1.7,1.3,3.2,3.2,3.2h2.3v2.3c0,1.8,1.4,3.2,3.2,3.2c1.7,0,3.2-1.4,3.2-3.1v-2.4h2.3c1.8,0,3.2-1.4,3.2-3.2
					C38.006,228.6,36.606,227.1,34.906,227.1z"/>
			</g>
		</g>
		<g>
			<g>
				<path fill="#F5C84C" d="M53.206,249.2c-1.878,0-3.4,1.522-3.4,3.4s1.522,3.4,3.4,3.4c1.878,0,3.4-1.522,3.4-3.4
					S55.083,249.2,53.206,249.2z"/>
			</g>
		</g>
		<g>
			<g>
				<path fill="#FC657E" d="M99.15,19.175c-3.1-0.6-5.6-3-6.2-6.1c0-0.1-0.3-0.1-0.3,0c-0.6,3.1-3.1,5.5-6.2,6.1
					c-0.1,0-0.1,0.2,0,0.3c3.1,0.6,5.6,3,6.2,6.1c0,0.1,0.3,0.1,0.3,0c0.6-3.1,3.1-5.5,6.2-6.1
					C99.25,19.375,99.25,19.175,99.15,19.175z"/>
			</g>
		</g>
		<g>
			<g>
				<path fill="#87D147" d="M216.6,15c-1.878,0-3.4,1.522-3.4,3.4c0,1.878,1.522,3.4,3.4,3.4c1.878,0,3.4-1.522,3.4-3.4
					C220,16.522,218.478,15,216.6,15z"/>
			</g>
		</g>
		<g>
			<g>
				<path fill="#F5C84C" d="M189.15,8.85c-4.5-0.8-8-4.3-8.9-8.7c0-0.2-0.4-0.2-0.4,0c-0.9,4.4-4.4,7.9-8.9,8.7
					c-0.2,0-0.2,0.3,0,0.4c4.5,0.8,8,4.3,8.9,8.7c0,0.2,0.4,0.2,0.4,0c0.9-4.4,4.4-7.9,8.9-8.7C189.35,9.15,189.35,8.85,189.15,8.85
					z"/>
			</g>
		</g>
		<g>
			<g>
				<g>
					<g>
						<path d="M226,38.5H30c-7.995,0-14.5,6.505-14.5,14.5v136c0,7.995,6.505,14.5,14.5,14.5h196c7.995,0,14.5-6.505,14.5-14.5V53
							C240.5,45.005,233.995,38.5,226,38.5z M235.5,189c0,5.238-4.262,9.5-9.5,9.5H30c-5.238,0-9.5-4.262-9.5-9.5V53
							c0-5.238,4.262-9.5,9.5-9.5h196c5.238,0,9.5,4.262,9.5,9.5V189z"/>
					</g>
				</g>
			</g>
		</g>
		<g>
			<g>
				<path d="M130,188h-4c-1.381,0-2.5,1.119-2.5,2.5s1.119,2.5,2.5,2.5h4c1.381,0,2.5-1.119,2.5-2.5S131.381,188,130,188z"/>
			</g>
		</g>
		<g>
			<g>
				<path d="M218.868,188h-5.598c-1.381,0-2.5,1.119-2.5,2.5s1.119,2.5,2.5,2.5h5.598c1.381,0,2.5-1.119,2.5-2.5
					S220.249,188,218.868,188z"/>
			</g>
		</g>
		<g>
			<g>
				<g>
					<g>
						<path d="M187.479,230.254l-2.266-3.934c-1.399-2.43-4.012-3.94-6.815-3.94H77.602c-2.805,0-5.417,1.51-6.816,3.94
							l-2.265,3.933c-0.907,1.576-0.906,3.457,0.004,5.031c0.91,1.575,2.539,2.515,4.358,2.515h110.236
							c1.818,0,3.447-0.94,4.357-2.515S188.388,231.829,187.479,230.254z M183.118,232.799l-110.265-0.05l2.265-3.934
							c0.51-0.886,1.461-1.436,2.483-1.436h100.797c1.021,0,1.973,0.55,2.483,1.436l2.257,3.982
							C183.139,232.797,183.132,232.799,183.118,232.799z"/>
					</g>
				</g>
			</g>
		</g>
		<g>
			<g>
				<path d="M137.5,200c-1.381,0-2.5,1.119-2.5,2.5v21c0,1.381,1.119,2.5,2.5,2.5s2.5-1.119,2.5-2.5v-21
					C140,201.119,138.881,200,137.5,200z"/>
			</g>
		</g>
		<g>
			<g>
				<path d="M118.5,199.75c-1.381,0-2.5,1.119-2.5,2.5v21.25c0,1.381,1.119,2.5,2.5,2.5s2.5-1.119,2.5-2.5v-21.25
					C121,200.87,119.881,199.75,118.5,199.75z"/>
			</g>
		</g>
		<g>
			<g>
				<g>
					<g>
						<path d="M226,48.5H30c-2.481,0-4.5,2.019-4.5,4.5v126c0,2.481,2.019,4.5,4.5,4.5h196c2.481,0,4.5-2.019,4.5-4.5V53
							C230.5,50.519,228.481,48.5,226,48.5z M225.5,178.5h-195v-125h195V178.5z"/>
					</g>
				</g>
			</g>
		</g>
	</g>
</g>
<g id="Layer_9">
</g>
<g id="Layer_10">
</g>
<g id="Layer_11">
</g>
<g id="Layer_12">
</g>
<g id="Layer_13">
</g>
<g id="Layer_14">
</g>
<g id="Layer_15">
</g>
<g id="Layer_16">
</g>
<g id="Layer_17">
</g>
<g id="Layer_18">
</g>
<g id="Layer_19">
</g>
<g id="Layer_20">
</g>
<g id="Layer_21">
</g>
<g id="Layer_22">
</g>
<g id="Layer_23">
</g>
<g id="Layer_24">
</g>
<g id="Layer_25">
</g>
<g id="Layer_26">
</g>
<g id="Layer_27">
</g>
<g id="Layer_28">
</g>
<g id="Layer_29">
</g>
<g id="Layer_30">
</g>
<g id="Layer_31">
</g>
<g id="Layer_32">
</g>
<g id="Layer_33">
</g>
<g id="Layer_34">
</g>
<g id="Layer_35">
</g>
<g id="Layer_36">
</g>
<g id="Layer_37">
</g>
<g id="Layer_38">
</g>
<g id="Layer_39">
</g>
<g id="Layer_40">
</g>
<g id="Layer_41">
</g>
<g id="Layer_42">
</g>
<g id="Layer_43">
</g>
<g id="Layer_44">
</g>
<g id="Layer_45">
</g>
<g id="Layer_46">
</g>
<g id="Layer_47">
</g>
<g id="Layer_48">
</g>
<g id="Layer_49">
</g>
<g id="Layer_50">
</g>
<g id="Layer_51">
</g>
<g id="Layer_52">
</g>
<g id="Layer_53">
</g>
<g id="Layer_54">
</g>
<g id="Layer_55">
</g>
<g id="Layer_56">
</g>
<g id="Layer_57">
</g>
<g id="Layer_58">
</g>
<g id="Layer_59">
</g>
<g id="Layer_60">
</g>
<g id="Layer_61">
</g>
<g id="Layer_62">
</g>
<g id="Layer_63">
</g>
<g id="Layer_64">
</g>
<g id="Layer_65">
</g>
<g id="Layer_66">
</g>
<g id="Layer_67">
</g>
<g id="Layer_68">
</g>
<g id="Layer_69">
</g>
<g id="Layer_70">
</g>
<g id="Layer_71">
</g>
<g id="Layer_72">
</g>
<g id="Layer_73">
</g>
<g id="Layer_74">
</g>
<g id="Layer_75">
</g>
<g id="Layer_76">
</g>
<g id="Layer_77">
</g>
<g id="Layer_78">
</g>
<g id="Layer_79">
</g>
<g id="Layer_80">
</g>
</svg>
