<?xml version="1.0" encoding="utf-8"?>
<!-- Generator: Adobe Illustrator 24.0.0, SVG Export Plug-In . SVG Version: 6.00 Build 0)  -->
<svg version="1.1" xmlns="http://www.w3.org/2000/svg" xmlns:xlink="http://www.w3.org/1999/xlink" x="0px" y="0px"
	 viewBox="0 0 256 256" enable-background="new 0 0 256 256" xml:space="preserve">
<g id="Layer_1">
</g>
<g id="Layer_2">
</g>
<g id="Layer_3">
</g>
<g id="Layer_4">
</g>
<g id="Layer_5">
</g>
<g id="Layer_6">
</g>
<g id="Layer_7">
</g>
<g id="Layer_8">
</g>
<g id="Layer_9">
</g>
<g id="Layer_10">
</g>
<g id="Layer_11">
</g>
<g id="Layer_12">
</g>
<g id="Layer_13">
</g>
<g id="Layer_14">
</g>
<g id="Layer_15">
</g>
<g id="Layer_16">
</g>
<g id="Layer_17">
</g>
<g id="Layer_18">
</g>
<g id="Layer_19">
</g>
<g id="Layer_20">
</g>
<g id="Layer_21">
</g>
<g id="Layer_22">
</g>
<g id="Layer_23">
</g>
<g id="Layer_24">
</g>
<g id="Layer_25">
</g>
<g id="Layer_26">
</g>
<g id="Layer_27">
</g>
<g id="Layer_28">
</g>
<g id="Layer_29">
</g>
<g id="Layer_30">
</g>
<g id="Layer_31">
</g>
<g id="Layer_32">
</g>
<g id="Layer_33">
</g>
<g id="Layer_34">
</g>
<g id="Layer_35">
</g>
<g id="Layer_36">
</g>
<g id="Layer_37">
</g>
<g id="Layer_38">
</g>
<g id="Layer_39">
</g>
<g id="Layer_40">
</g>
<g id="Layer_41">
</g>
<g id="Layer_42">
</g>
<g id="Layer_43">
	<g>
		<g>
			<g>
				<path fill="#F5C84C" d="M157.117,179.393h-14.044c-0.779-2.618-1.816-5.125-3.094-7.483l9.927-9.927
					c1.198-1.198,1.198-3.141,0-4.34l-11.574-11.574c-1.198-1.198-3.141-1.198-4.34,0l-9.927,9.927
					c-2.359-1.278-4.865-2.315-7.483-3.094v-14.044c0-1.695-1.374-3.069-3.069-3.069H97.146c-1.695,0-3.069,1.374-3.069,3.069
					v14.044c-2.618,0.779-5.125,1.816-7.483,3.094l-9.927-9.927c-1.198-1.198-3.141-1.198-4.34,0l-11.574,11.574
					c-1.198,1.198-1.198,3.141,0,4.34l9.927,9.927c-1.278,2.359-2.315,4.865-3.094,7.483H53.542c-1.695,0-3.069,1.374-3.069,3.069
					v16.368c0,1.695,1.374,3.069,3.069,3.069h14.044c0.779,2.618,1.816,5.125,3.094,7.483l-9.927,9.927
					c-1.198,1.198-1.198,3.141,0,4.34l11.574,11.574c1.198,1.198,3.141,1.198,4.34,0l9.927-9.927
					c2.359,1.278,4.865,2.315,7.483,3.094v14.044c0,1.695,1.374,3.069,3.069,3.069h16.368c1.695,0,3.069-1.374,3.069-3.069v-14.044
					c2.618-0.779,5.125-1.816,7.483-3.094l9.927,9.927c1.198,1.198,3.141,1.198,4.34,0l11.574-11.574
					c1.198-1.198,1.198-3.141,0-4.34l-9.927-9.927c1.278-2.359,2.315-4.865,3.094-7.483h14.044c1.695,0,3.069-1.374,3.069-3.069
					v-16.368C160.186,180.767,158.812,179.393,157.117,179.393z"/>
			</g>
		</g>
		<g>
			<g>
				<path fill="#70D6F9" d="M96.786,78.688H85.14c-0.646-2.171-1.506-4.25-2.566-6.206l8.232-8.231c0.994-0.994,0.994-2.605,0-3.599
					l-9.597-9.597c-0.994-0.994-2.605-0.994-3.599,0l-8.232,8.231c-1.956-1.06-4.035-1.919-6.205-2.566V45.074
					c0-1.406-1.139-2.545-2.545-2.545H47.055c-1.405,0-2.545,1.139-2.545,2.545V56.72c-2.171,0.646-4.25,1.506-6.205,2.566
					l-8.232-8.231c-0.994-0.994-2.605-0.994-3.599,0l-9.597,9.597c-0.994,0.994-0.994,2.605,0,3.599l8.232,8.231
					c-1.06,1.956-1.92,4.035-2.566,6.206H10.898c-1.405,0-2.545,1.139-2.545,2.544v13.573c0,1.405,1.139,2.545,2.545,2.545h11.646
					c0.646,2.171,1.506,4.25,2.566,6.205l-8.232,8.232c-0.994,0.994-0.994,2.605,0,3.598l9.597,9.597
					c0.994,0.994,2.605,0.994,3.599,0l8.232-8.231c1.956,1.06,4.035,1.92,6.205,2.566v11.646c0,1.406,1.139,2.545,2.545,2.545
					h13.573c1.405,0,2.545-1.139,2.545-2.545v-11.646c2.171-0.646,4.25-1.506,6.205-2.566l8.232,8.231
					c0.994,0.994,2.605,0.994,3.599,0l9.597-9.597c0.994-0.994,0.994-2.605,0-3.598l-8.232-8.232c1.06-1.956,1.92-4.034,2.566-6.205
					h11.646c1.405,0,2.545-1.139,2.545-2.545V81.232C99.33,79.827,98.191,78.688,96.786,78.688z"/>
			</g>
		</g>
		<g>
			<g>
				<path fill="#DAE6F1" d="M244.071,67.722h-17.142c-0.951-3.195-2.217-6.255-3.777-9.134l12.117-12.117
					c1.463-1.463,1.463-3.834,0-5.297l-14.127-14.127c-1.463-1.463-3.834-1.463-5.297,0l-12.117,12.117
					c-2.879-1.56-5.939-2.826-9.134-3.777V18.244c0-2.069-1.677-3.746-3.746-3.746h-19.979c-2.069,0-3.746,1.677-3.746,3.746v17.143
					c-3.195,0.951-6.255,2.217-9.134,3.777l-12.117-12.117c-1.463-1.463-3.834-1.463-5.297,0l-14.127,14.127
					c-1.463,1.463-1.463,3.834,0,5.297l12.117,12.117c-1.56,2.879-2.826,5.939-3.777,9.134h-17.142
					c-2.069,0-3.746,1.677-3.746,3.746v19.979c0,2.069,1.677,3.746,3.746,3.746h17.142c0.951,3.196,2.217,6.255,3.777,9.135
					l-12.117,12.117c-1.463,1.463-1.463,3.834,0,5.297l14.127,14.127c1.463,1.463,3.834,1.463,5.297,0l12.117-12.117
					c2.879,1.56,5.939,2.826,9.134,3.777v17.143c0,2.069,1.677,3.746,3.746,3.746h19.979c2.069,0,3.746-1.677,3.746-3.746v-17.143
					c3.195-0.951,6.255-2.217,9.134-3.777l12.117,12.117c1.463,1.463,3.834,1.463,5.297,0l14.127-14.127
					c1.463-1.463,1.463-3.834,0-5.297l-12.117-12.117c1.56-2.879,2.826-5.939,3.777-9.135h17.142c2.069,0,3.746-1.677,3.746-3.746
					V71.468C247.816,69.399,246.139,67.722,244.071,67.722z"/>
			</g>
		</g>
		<g>
			<g>
				<circle fill="#5290DB" cx="105.33" cy="190.646" r="23.514"/>
			</g>
		</g>
		<g>
			<g>
				<circle fill="#5290DB" cx="53.842" cy="88.018" r="19.499"/>
			</g>
		</g>
		<g>
			<g>
				
					<ellipse transform="matrix(0.9871 -0.1602 0.1602 0.9871 -10.7126 30.0218)" fill="#5290DB" cx="180.857" cy="81.457" rx="28.702" ry="28.702"/>
			</g>
		</g>
		<g>
			<g>
				<path fill="#FC657E" d="M110.214,196.345c-1.474-0.268-2.992-0.409-4.543-0.409c-1.551,0-3.069,0.14-4.543,0.409
					c-5.974,1.088-10.544,5.748-11.739,11.583c4.191,3.868,9.789,6.233,15.941,6.233c6.427,0,12.248-2.581,16.493-6.759
					C120.468,201.815,116.006,197.4,110.214,196.345z"/>
			</g>
		</g>
		<g>
			<g>
				<path fill="#F9D0B4" d="M105.33,178.094c-4.893,0-8.86,3.967-8.86,8.86c0,4.894,3.967,8.861,8.86,8.861s8.86-3.967,8.86-8.861
					C114.19,182.061,110.223,178.094,105.33,178.094z"/>
			</g>
		</g>
		<g>
			<g>
				<path fill="#F5C84C" d="M57.892,92.744c-1.222-0.223-2.481-0.339-3.767-0.339c-1.286,0-2.545,0.116-3.767,0.339
					c-4.954,0.903-8.743,4.766-9.734,9.604c3.475,3.207,8.117,5.168,13.219,5.168c5.329,0,10.157-2.14,13.676-5.605
					C66.395,97.28,62.695,93.619,57.892,92.744z"/>
			</g>
		</g>
		<g>
			<g>
				<path fill="#F9D0B4" d="M53.842,77.61c-4.058,0-7.347,3.289-7.347,7.347c0,4.058,3.289,7.347,7.347,7.347
					s7.347-3.29,7.347-7.347C61.189,80.899,57.9,77.61,53.842,77.61z"/>
			</g>
		</g>
		<g>
			<g>
				<path fill="#70D6F9" d="M186.819,88.413c-1.799-0.328-3.652-0.499-5.545-0.499s-3.747,0.171-5.545,0.499
					c-7.292,1.328-12.87,7.016-14.328,14.138c5.115,4.721,11.948,7.608,19.458,7.608c7.844,0,14.951-3.15,20.132-8.25
					C199.335,95.091,193.889,89.701,186.819,88.413z"/>
			</g>
		</g>
		<g>
			<g>
				<path fill="#F9D0B4" d="M180.857,66.135c-5.973,0-10.815,4.842-10.815,10.815s4.842,10.815,10.815,10.815
					c5.973,0,10.815-4.842,10.815-10.815S186.83,66.135,180.857,66.135z"/>
			</g>
		</g>
		<g>
			<g>
				<g>
					<g>
						<path d="M157.117,176.893h-12.224c-0.534-1.541-1.155-3.046-1.859-4.502l8.641-8.64c2.17-2.172,2.17-5.705-0.001-7.875
							L140.1,144.302c-2.17-2.172-5.705-2.172-7.875,0l-8.64,8.64c-1.455-0.704-2.96-1.326-4.502-1.86v-12.223
							c0-3.071-2.498-5.569-5.568-5.569H97.146c-3.071,0-5.569,2.498-5.569,5.569v12.223c-1.542,0.535-3.047,1.157-4.502,1.86
							l-8.64-8.64c-2.17-2.172-5.703-2.172-7.875,0l-11.574,11.574c-2.171,2.17-2.171,5.703,0,7.875l8.64,8.64
							c-0.704,1.456-1.326,2.961-1.86,4.502H53.542c-3.07,0-5.568,2.498-5.568,5.569v16.368c0,3.071,2.498,5.569,5.568,5.569h12.223
							c0.535,1.541,1.156,3.046,1.86,4.502l-8.64,8.64c-2.171,2.171-2.171,5.704,0,7.875l11.574,11.574
							c1.052,1.052,2.45,1.631,3.938,1.631c1.488,0,2.886-0.579,3.938-1.631l8.64-8.639c1.456,0.704,2.96,1.325,4.502,1.86v12.224
							c0,3.07,2.498,5.568,5.569,5.568h16.368c3.07,0,5.568-2.498,5.568-5.568V230.21c1.542-0.535,3.047-1.157,4.502-1.86
							l8.639,8.639c1.052,1.052,2.451,1.631,3.938,1.631s2.887-0.579,3.938-1.631l11.574-11.574c2.171-2.171,2.171-5.704,0-7.875
							l-8.64-8.64c0.704-1.457,1.325-2.961,1.859-4.502h12.224c3.07,0,5.568-2.498,5.568-5.569v-16.368
							C162.686,179.391,160.187,176.893,157.117,176.893z M157.686,198.83c0,0.313-0.255,0.569-0.568,0.569h-14.044
							c-1.106,0-2.08,0.727-2.396,1.787c-0.728,2.444-1.701,4.801-2.896,7.006c-0.527,0.973-0.352,2.176,0.431,2.958l9.927,9.927
							c0.222,0.222,0.222,0.583,0,0.804l-11.575,11.574c-0.273,0.275-0.528,0.275-0.804,0l-9.927-9.926
							c-0.782-0.782-1.984-0.957-2.958-0.431c-2.202,1.193-4.559,2.168-7.006,2.896c-1.06,0.316-1.787,1.29-1.787,2.396v14.044
							c0,0.313-0.255,0.568-0.568,0.568H97.146c-0.313,0-0.569-0.255-0.569-0.568V228.39c0-1.106-0.727-2.08-1.786-2.396
							c-2.447-0.729-4.804-1.703-7.006-2.896c-0.375-0.203-0.784-0.302-1.19-0.302c-0.648,0-1.288,0.251-1.769,0.732l-9.927,9.926
							c-0.275,0.274-0.527,0.275-0.804,0L62.521,221.88c-0.221-0.222-0.221-0.583,0-0.804l9.927-9.927
							c0.783-0.782,0.958-1.985,0.431-2.958c-1.194-2.205-2.169-4.562-2.896-7.006c-0.315-1.06-1.29-1.787-2.396-1.787H53.542
							c-0.313,0-0.568-0.255-0.568-0.569v-16.368c0-0.313,0.255-0.569,0.568-0.569h14.044c1.106,0,2.081-0.727,2.396-1.787
							c0.728-2.444,1.702-4.801,2.896-7.006c0.527-0.973,0.352-2.176-0.431-2.958l-9.926-9.926c-0.222-0.222-0.222-0.583,0-0.805
							l11.574-11.574c0.222-0.222,0.583-0.221,0.804,0l9.927,9.927c0.782,0.782,1.987,0.959,2.958,0.431
							c2.203-1.194,4.56-2.168,7.006-2.896c1.06-0.315,1.787-1.29,1.787-2.396v-14.044c0-0.313,0.255-0.569,0.569-0.569h16.368
							c0.313,0,0.568,0.255,0.568,0.569v14.044c0,1.106,0.727,2.081,1.787,2.396c2.447,0.729,4.804,1.703,7.005,2.896
							c0.972,0.528,2.177,0.353,2.959-0.43l9.927-9.927c0.223-0.222,0.582-0.222,0.805,0l11.574,11.574
							c0.222,0.222,0.222,0.583,0,0.805l-9.927,9.926c-0.782,0.782-0.958,1.985-0.431,2.958c1.194,2.205,2.168,4.563,2.896,7.006
							c0.316,1.06,1.29,1.787,2.396,1.787h14.044c0.313,0,0.568,0.255,0.568,0.569V198.83z"/>
					</g>
				</g>
			</g>
		</g>
		<g>
			<g>
				<g>
					<g>
						<path d="M96.786,76.188h-9.833c-0.391-1.098-0.835-2.173-1.33-3.218l6.951-6.951c1.967-1.967,1.967-5.167,0-7.134
							l-9.597-9.597c-0.953-0.954-2.22-1.479-3.567-1.479s-2.615,0.525-3.567,1.478l-6.951,6.951
							c-1.046-0.495-2.121-0.939-3.219-1.33v-9.833c0-2.782-2.263-5.044-5.044-5.044H47.056c-2.782,0-5.045,2.263-5.045,5.044v9.833
							c-1.098,0.391-2.173,0.835-3.218,1.33l-6.951-6.951c-0.953-0.953-2.22-1.478-3.567-1.478c-1.347,0-2.614,0.525-3.567,1.478
							l-9.597,9.597c-1.967,1.967-1.967,5.167,0,7.134l6.951,6.951c-0.494,1.045-0.938,2.121-1.33,3.218h-9.833
							c-2.782,0-5.044,2.263-5.044,5.044v13.573c0,2.782,2.263,5.044,5.044,5.044h9.833c0.391,1.098,0.835,2.173,1.33,3.218
							l-6.951,6.951c-1.967,1.967-1.967,5.167,0,7.134l9.597,9.598c1.967,1.967,5.168,1.966,7.134,0l6.951-6.951
							c1.045,0.494,2.121,0.938,3.218,1.33v9.833c0,2.782,2.263,5.044,5.045,5.044h13.573c2.782,0,5.044-2.263,5.044-5.044v-9.833
							c1.098-0.391,2.173-0.835,3.218-1.33l6.951,6.951c1.967,1.967,5.167,1.967,7.134,0l9.597-9.598
							c1.967-1.967,1.967-5.167,0-7.134l-6.951-6.951c0.494-1.045,0.938-2.121,1.33-3.219h9.833c2.782,0,5.045-2.263,5.045-5.044
							V81.232C101.831,78.45,99.567,76.188,96.786,76.188z M96.786,94.849H85.14c-1.106,0-2.081,0.727-2.396,1.787
							c-0.596,2.002-1.393,3.929-2.368,5.728c-0.527,0.973-0.353,2.177,0.43,2.959l8.231,8.295l-9.66,9.598l-8.232-8.232
							c-0.781-0.782-1.985-0.958-2.959-0.43c-1.801,0.976-3.728,1.772-5.727,2.368c-1.06,0.315-1.787,1.29-1.787,2.396l-0.044,11.69
							l-13.618-0.044v-11.646c0-1.106-0.727-2.081-1.787-2.396c-2-0.595-3.927-1.392-5.727-2.368
							c-0.375-0.204-0.784-0.302-1.19-0.302c-0.648,0-1.288,0.251-1.769,0.732l-8.295,8.232l-9.597-9.661l8.231-8.231
							c0.783-0.782,0.958-1.986,0.431-2.958c-0.976-1.801-1.772-3.728-2.368-5.728c-0.315-1.06-1.29-1.787-2.396-1.787l-11.69-0.044
							l0.044-13.617h11.646c1.106,0,2.081-0.727,2.396-1.787c0.595-1.999,1.392-3.926,2.368-5.728
							c0.527-0.973,0.352-2.176-0.431-2.958l-8.231-8.295l9.661-9.597l8.231,8.231c0.781,0.782,1.985,0.958,2.959,0.43
							c1.8-0.976,3.727-1.772,5.727-2.368c1.06-0.315,1.787-1.29,1.787-2.396l0.045-11.69l13.617,0.044V56.72
							c0,1.106,0.727,2.081,1.787,2.396c1.999,0.595,3.926,1.392,5.727,2.368c0.973,0.527,2.177,0.352,2.959-0.43l8.295-8.231
							l9.597,9.661l-8.231,8.231c-0.783,0.782-0.958,1.986-0.43,2.959c0.975,1.799,1.771,3.727,2.368,5.728
							c0.315,1.06,1.29,1.787,2.396,1.787h11.646l0.045,0.044L96.786,94.849z"/>
					</g>
				</g>
			</g>
		</g>
		<g>
			<g>
				<g>
					<g>
						<path d="M244.07,65.222h-15.314c-0.715-2.115-1.566-4.176-2.545-6.159l10.824-10.825c2.436-2.435,2.436-6.397,0-8.833
							l-14.127-14.127c-2.436-2.436-6.398-2.436-8.832,0l-10.825,10.824c-1.982-0.978-4.043-1.83-6.158-2.545V18.244
							c0-3.444-2.802-6.246-6.246-6.246h-19.979c-3.444,0-6.246,2.802-6.246,6.246v15.314c-2.115,0.715-4.176,1.566-6.159,2.545
							l-10.824-10.824c-1.18-1.18-2.748-1.83-4.416-1.83c-1.669,0-3.237,0.65-4.416,1.829l-14.128,14.127
							c-2.434,2.435-2.434,6.397,0,8.833l10.824,10.824c-0.978,1.982-1.83,4.043-2.545,6.159h-15.314
							c-3.444,0-6.246,2.802-6.246,6.246v19.979c0,3.444,2.802,6.246,6.246,6.246h15.314c0.715,2.116,1.567,4.177,2.545,6.159
							l-10.825,10.824c-2.435,2.436-2.435,6.397,0,8.832l14.127,14.127c1.18,1.18,2.748,1.83,4.417,1.83
							c1.668,0,3.236-0.65,4.416-1.83l10.824-10.824c1.983,0.979,4.044,1.83,6.159,2.545v15.314c0,3.444,2.802,6.246,6.246,6.246
							h19.979c3.444,0,6.246-2.802,6.246-6.246v-15.314c2.115-0.715,4.176-1.567,6.158-2.545l10.825,10.824
							c2.436,2.436,6.396,2.436,8.832,0l14.127-14.127c1.18-1.18,1.829-2.748,1.829-4.417c0-1.668-0.649-3.236-1.829-4.416
							l-10.824-10.825c0.979-1.982,1.83-4.043,2.545-6.159h15.314c3.444,0,6.246-2.802,6.246-6.246V71.467
							C250.316,68.023,247.515,65.222,244.07,65.222z M245.316,91.446c0,0.687-0.559,1.246-1.246,1.246h-17.143
							c-1.106,0-2.08,0.727-2.396,1.787c-0.898,3.021-2.103,5.934-3.578,8.657c-0.527,0.973-0.352,2.176,0.431,2.958l12.116,12.117
							c0.317,0.318,0.364,0.688,0.364,0.881c0,0.193-0.047,0.563-0.364,0.881L219.373,134.1c-0.486,0.485-1.275,0.485-1.762,0
							l-12.117-12.117c-0.782-0.783-1.986-0.958-2.959-0.431c-2.723,1.476-5.635,2.68-8.655,3.579
							c-1.061,0.315-1.787,1.29-1.787,2.396v17.143c0,0.687-0.559,1.246-1.246,1.246h-19.979c-0.688,0-1.246-0.559-1.246-1.246
							v-17.143c0-1.106-0.727-2.081-1.787-2.396c-3.02-0.899-5.933-2.104-8.657-3.579c-0.375-0.203-0.783-0.302-1.189-0.302
							c-0.647,0-1.288,0.251-1.769,0.732L144.104,134.1c-0.317,0.317-0.688,0.365-0.881,0.365c-0.193,0-0.563-0.047-0.881-0.365
							l-14.128-14.127c-0.485-0.486-0.485-1.276,0-1.762l12.117-12.117c0.782-0.782,0.958-1.986,0.431-2.959
							c-1.476-2.722-2.68-5.634-3.579-8.656c-0.316-1.06-1.29-1.787-2.396-1.787h-17.142c-0.687,0-1.246-0.559-1.246-1.246V71.467
							c0-0.687,0.559-1.246,1.246-1.246h17.142c1.106,0,2.08-0.727,2.396-1.787c0.899-3.022,2.104-5.935,3.579-8.656
							c0.527-0.973,0.352-2.177-0.431-2.959l-12.117-12.117c-0.486-0.486-0.486-1.276,0-1.762l14.129-14.128
							c0.316-0.317,0.687-0.364,0.88-0.364c0.192,0,0.563,0.047,0.881,0.365l12.116,12.117c0.782,0.783,1.988,0.958,2.958,0.431
							c2.725-1.476,5.638-2.68,8.657-3.579c1.061-0.315,1.787-1.29,1.787-2.396V18.244c0-0.687,0.559-1.246,1.246-1.246h19.979
							c0.688,0,1.246,0.559,1.246,1.246v17.143c0,1.106,0.727,2.081,1.787,2.396c3.021,0.899,5.933,2.104,8.655,3.579
							c0.973,0.527,2.177,0.352,2.959-0.431l12.117-12.117c0.486-0.485,1.275-0.485,1.762,0L233.5,42.941
							c0.485,0.486,0.485,1.276,0,1.762L221.384,56.82c-0.782,0.782-0.958,1.986-0.431,2.958c1.476,2.723,2.68,5.636,3.578,8.657
							c0.316,1.06,1.29,1.787,2.396,1.787h17.143c0.688,0,1.246,0.559,1.246,1.246V91.446z"/>
					</g>
				</g>
			</g>
		</g>
		<g>
			<g>
				<path fill="#87D147" d="M203.906,217.1h-2.4v-2.3c0-1.8-1.4-3.2-3.2-3.2c-1.7,0-3.2,1.4-3.2,3.1v2.4h-2.3
					c-1.8,0-3.2,1.4-3.2,3.2c-0.1,1.7,1.3,3.2,3.2,3.2h2.3v2.3c0,1.8,1.4,3.2,3.2,3.2c1.7,0,3.2-1.4,3.2-3.1v-2.4h2.3
					c1.8,0,3.2-1.4,3.2-3.2C207.006,218.6,205.606,217.1,203.906,217.1z"/>
			</g>
		</g>
		<g>
			<g>
				<path fill="#F5C84C" d="M170.206,249.2c-1.878,0-3.4,1.522-3.4,3.4c0,1.878,1.522,3.4,3.4,3.4c1.878,0,3.4-1.522,3.4-3.4
					C173.606,250.722,172.083,249.2,170.206,249.2z"/>
			</g>
		</g>
		<g>
			<g>
				<path fill="#FC657E" d="M32.15,165.175c-3.1-0.6-5.6-3-6.2-6.1c0-0.1-0.3-0.1-0.3,0c-0.6,3.1-3.1,5.5-6.2,6.1
					c-0.1,0-0.1,0.2,0,0.3c3.1,0.6,5.6,3,6.2,6.1c0,0.1,0.3,0.1,0.3,0c0.6-3.1,3.1-5.5,6.2-6.1
					C32.25,165.375,32.25,165.175,32.15,165.175z"/>
			</g>
		</g>
		<g>
			<g>
				<path fill="#70D6F9" d="M121.369,0c-1.878,0-3.4,1.522-3.4,3.4c0,1.878,1.522,3.4,3.4,3.4c1.878,0,3.4-1.522,3.4-3.4
					C124.769,1.522,123.246,0,121.369,0z"/>
			</g>
		</g>
		<g>
			<g>
				<path fill="#F5C84C" d="M102.15,24.2c-4.5-0.8-8-4.3-8.9-8.7c0-0.2-0.4-0.2-0.4,0c-0.9,4.4-4.4,7.9-8.9,8.7
					c-0.2,0-0.2,0.3,0,0.4c4.5,0.8,8,4.3,8.9,8.7c0,0.2,0.4,0.2,0.4,0c0.9-4.4,4.4-7.9,8.9-8.7C102.35,24.5,102.35,24.2,102.15,24.2
					z"/>
			</g>
		</g>
		<g>
			<g>
				<g>
					<g>
						<path d="M105.33,164.631c-14.344,0-26.014,11.67-26.014,26.015c0,14.344,11.67,26.014,26.014,26.014
							c14.345,0,26.015-11.67,26.015-26.014C131.345,176.301,119.674,164.631,105.33,164.631z M105.33,211.66
							c-11.587,0-21.014-9.427-21.014-21.014s9.427-21.015,21.014-21.015s21.015,9.427,21.015,21.015S116.917,211.66,105.33,211.66z
							"/>
					</g>
				</g>
			</g>
		</g>
		<g>
			<g>
				<g>
					<g>
						<path d="M53.842,66.02c-12.13,0-21.999,9.869-21.999,21.999c0,12.13,9.869,21.999,21.999,21.999
							c12.13,0,21.999-9.869,21.999-21.999C75.841,75.888,65.972,66.02,53.842,66.02z M53.842,105.017
							c-9.373,0-16.999-7.625-16.999-16.999S44.469,71.02,53.842,71.02s16.999,7.626,16.999,16.999S63.215,105.017,53.842,105.017z"
							/>
					</g>
				</g>
			</g>
		</g>
		<g>
			<g>
				<g>
					<g>
						<path d="M180.857,50.255c-17.205,0-31.202,13.997-31.202,31.202s13.997,31.202,31.202,31.202s31.202-13.997,31.202-31.202
							S198.062,50.255,180.857,50.255z M180.857,107.659c-14.448,0-26.202-11.754-26.202-26.202s11.754-26.202,26.202-26.202
							s26.202,11.754,26.202,26.202S195.306,107.659,180.857,107.659z"/>
					</g>
				</g>
			</g>
		</g>
		<g>
			<g>
				<path d="M124.131,206.34c-1.74-6.392-7.027-11.281-13.469-12.455c-3.271-0.596-6.711-0.596-9.982,0
					c-6.744,1.229-12.103,6.385-13.652,13.137c-0.309,1.346,0.532,2.687,1.877,2.996c0.188,0.043,0.376,0.064,0.562,0.064
					c1.139,0,2.168-0.784,2.434-1.941c1.102-4.801,4.9-8.466,9.675-9.336c2.681-0.488,5.509-0.488,8.189,0
					c4.559,0.831,8.304,4.304,9.542,8.85c0.362,1.332,1.734,2.119,3.069,1.755C123.708,209.047,124.494,207.673,124.131,206.34z"/>
			</g>
		</g>
		<g>
			<g>
				<g>
					<g>
						<path d="M105.33,175.593c-6.264,0-11.36,5.097-11.36,11.361s5.096,11.36,11.36,11.36s11.361-5.096,11.361-11.36
							S111.594,175.593,105.33,175.593z M105.33,193.314c-3.507,0-6.36-2.853-6.36-6.36s2.853-6.361,6.36-6.361
							s6.361,2.854,6.361,6.361S108.837,193.314,105.33,193.314z"/>
					</g>
				</g>
			</g>
		</g>
		<g>
			<g>
				<path d="M69.785,100.709c-1.564-5.429-5.95-9.423-11.445-10.424c-2.763-0.504-5.668-0.504-8.431,0
					c-5.704,1.039-10.269,5.392-11.63,11.089c-0.321,1.343,0.508,2.691,1.851,3.012c0.195,0.046,0.39,0.069,0.583,0.069
					c1.13,0,2.156-0.772,2.43-1.92c0.9-3.769,3.908-6.647,7.663-7.331c2.173-0.396,4.465-0.396,6.638,0
					c3.615,0.659,6.503,3.298,7.537,6.889c0.383,1.327,1.77,2.091,3.094,1.71C69.402,103.421,70.167,102.036,69.785,100.709z"/>
			</g>
		</g>
		<g>
			<g>
				<g>
					<g>
						<path d="M53.842,75.109c-5.43,0-9.847,4.417-9.847,9.848c0,5.43,4.417,9.847,9.847,9.847c5.43,0,9.848-4.417,9.848-9.847
							C63.689,79.527,59.272,75.109,53.842,75.109z M53.842,89.804c-2.673,0-4.847-2.174-4.847-4.847s2.174-4.848,4.847-4.848
							s4.848,2.175,4.848,4.848S56.515,89.804,53.842,89.804z"/>
					</g>
				</g>
			</g>
		</g>
		<g>
			<g>
				<path d="M203.272,100.753c-2.069-7.596-8.353-13.405-16.006-14.799c-3.927-0.716-8.063-0.716-11.987,0
					c-7.987,1.455-14.35,7.559-16.21,15.552c-0.313,1.345,0.523,2.689,1.868,3.002c0.19,0.044,0.381,0.065,0.568,0.065
					c1.137,0,2.164-0.78,2.433-1.934c1.408-6.05,6.212-10.669,12.237-11.767c3.335-0.607,6.857-0.608,10.194,0
					c5.771,1.051,10.512,5.445,12.078,11.194c0.362,1.333,1.741,2.119,3.069,1.755C202.85,103.459,203.636,102.085,203.272,100.753z
					"/>
			</g>
		</g>
		<g>
			<g>
				<g>
					<g>
						<path d="M180.857,63.635c-7.342,0-13.315,5.973-13.315,13.315s5.974,13.315,13.315,13.315s13.315-5.973,13.315-13.315
							S188.199,63.635,180.857,63.635z M180.857,85.266c-4.585,0-8.315-3.73-8.315-8.315s3.73-8.315,8.315-8.315
							s8.315,3.73,8.315,8.315S185.442,85.266,180.857,85.266z"/>
					</g>
				</g>
			</g>
		</g>
	</g>
</g>
<g id="Layer_44">
</g>
<g id="Layer_45">
</g>
<g id="Layer_46">
</g>
<g id="Layer_47">
</g>
<g id="Layer_48">
</g>
<g id="Layer_49">
</g>
<g id="Layer_50">
</g>
<g id="Layer_51">
</g>
<g id="Layer_52">
</g>
<g id="Layer_53">
</g>
<g id="Layer_54">
</g>
<g id="Layer_55">
</g>
<g id="Layer_56">
</g>
<g id="Layer_57">
</g>
<g id="Layer_58">
</g>
<g id="Layer_59">
</g>
<g id="Layer_60">
</g>
<g id="Layer_61">
</g>
<g id="Layer_62">
</g>
<g id="Layer_63">
</g>
<g id="Layer_64">
</g>
<g id="Layer_65">
</g>
<g id="Layer_66">
</g>
<g id="Layer_67">
</g>
<g id="Layer_68">
</g>
<g id="Layer_69">
</g>
<g id="Layer_70">
</g>
<g id="Layer_71">
</g>
<g id="Layer_72">
</g>
<g id="Layer_73">
</g>
<g id="Layer_74">
</g>
<g id="Layer_75">
</g>
<g id="Layer_76">
</g>
<g id="Layer_77">
</g>
<g id="Layer_78">
</g>
<g id="Layer_79">
</g>
<g id="Layer_80">
</g>
</svg>
