<?xml version="1.0" encoding="utf-8"?>
<!-- Generator: Adobe Illustrator 24.0.0, SVG Export Plug-In . SVG Version: 6.00 Build 0)  -->
<svg version="1.1" xmlns="http://www.w3.org/2000/svg" xmlns:xlink="http://www.w3.org/1999/xlink" x="0px" y="0px"
	 viewBox="0 0 256 256" enable-background="new 0 0 256 256" xml:space="preserve">
<g id="Layer_1">
</g>
<g id="Layer_2">
</g>
<g id="Layer_3">
</g>
<g id="Layer_4">
</g>
<g id="Layer_5">
</g>
<g id="Layer_6">
</g>
<g id="Layer_7">
</g>
<g id="Layer_8">
</g>
<g id="Layer_9">
</g>
<g id="Layer_10">
</g>
<g id="Layer_11">
</g>
<g id="Layer_12">
</g>
<g id="Layer_13">
	<g>
		<g>
			<g>
				<path fill="#DAE6F1" d="M204.78,26.5H51.22c-3.435,0-6.22,2.785-6.22,6.22v214.56c0,3.435,2.785,6.22,6.22,6.22h153.56
					c3.435,0,6.22-2.785,6.22-6.22V32.72C211,29.285,208.215,26.5,204.78,26.5z"/>
			</g>
		</g>
		<g>
			<g>
				<circle fill="#70D6F9" cx="128" cy="145.055" r="69.38"/>
			</g>
		</g>
		<g>
			<g>
				<path fill="#F5C84C" d="M176.806,125.566H79.194c-3.339,0-6.072,2.732-6.072,6.072v26.835c0,3.339,2.732,6.072,6.072,6.072
					h97.611c3.339,0,6.072-2.732,6.072-6.072v-26.835C182.877,128.299,180.145,125.566,176.806,125.566z"/>
			</g>
		</g>
		<g>
			<g>
				<path fill="#5290DB" d="M204.78,26.5H51.22c-3.435,0-6.22,2.785-6.22,6.22V44.5h166V32.72C211,29.285,208.215,26.5,204.78,26.5z
					"/>
			</g>
		</g>
		<g>
			<g>
				<path fill="#FC657E" d="M51.22,26.5c-3.435,0-6.22,2.785-6.22,6.22V44.5h21.5v-18H51.22z"/>
			</g>
		</g>
		<g>
			<g>
				<path fill="#70D6F9" d="M238.503,190.1h-2.4v-2.3c0-1.8-1.4-3.2-3.2-3.2c-1.7,0-3.2,1.4-3.2,3.1v2.4h-2.3
					c-1.8,0-3.2,1.4-3.2,3.2c-0.1,1.7,1.3,3.2,3.2,3.2h2.3v2.3c0,1.8,1.4,3.2,3.2,3.2c1.7,0,3.2-1.4,3.2-3.1v-2.4h2.3
					c1.8,0,3.2-1.4,3.2-3.2C241.603,191.6,240.203,190.1,238.503,190.1z"/>
			</g>
		</g>
		<g>
			<g>
				<path fill="#F5C84C" d="M228.803,224.5c-1.878,0-3.4,1.522-3.4,3.4c0,1.878,1.522,3.4,3.4,3.4c1.878,0,3.4-1.522,3.4-3.4
					C232.203,226.022,230.68,224.5,228.803,224.5z"/>
			</g>
		</g>
		<g>
			<g>
				<path fill="#FC657E" d="M34.747,156.175c-3.1-0.6-5.6-3-6.2-6.1c0-0.1-0.3-0.1-0.3,0c-0.6,3.1-3.1,5.5-6.2,6.1
					c-0.1,0-0.1,0.2,0,0.3c3.1,0.6,5.6,3,6.2,6.1c0,0.1,0.3,0.1,0.3,0c0.6-3.1,3.1-5.5,6.2-6.1
					C34.847,156.375,34.847,156.175,34.747,156.175z"/>
			</g>
		</g>
		<g>
			<g>
				<path fill="#87D147" d="M54.966,0c-1.878,0-3.4,1.522-3.4,3.4c0,1.878,1.522,3.4,3.4,3.4c1.878,0,3.4-1.522,3.4-3.4
					C58.366,1.522,56.843,0,54.966,0z"/>
			</g>
		</g>
		<g>
			<g>
				<path fill="#F5C84C" d="M32.747,24.2c-4.5-0.8-8-4.3-8.9-8.7c0-0.2-0.4-0.2-0.4,0c-0.9,4.4-4.4,7.9-8.9,8.7
					c-0.2,0-0.2,0.3,0,0.4c4.5,0.8,8,4.3,8.9,8.7c0,0.2,0.4,0.2,0.4,0c0.9-4.4,4.4-7.9,8.9-8.7C32.947,24.5,32.947,24.2,32.747,24.2
					z"/>
			</g>
		</g>
		<g>
			<g>
				<g>
					<g>
						<path d="M204.78,24H51.22c-4.809,0-8.72,3.912-8.72,8.72v214.56c0,4.809,3.912,8.72,8.72,8.72h153.56
							c4.808,0,8.72-3.912,8.72-8.72V32.72C213.5,27.912,209.588,24,204.78,24z M208.5,247.28c0,2.051-1.669,3.72-3.72,3.72H51.22
							c-2.051,0-3.72-1.669-3.72-3.72V32.72c0-2.051,1.669-3.72,3.72-3.72h153.56c2.051,0,3.72,1.669,3.72,3.72V247.28z"/>
					</g>
				</g>
			</g>
		</g>
		<g>
			<g>
				<path d="M209.583,42H46.188c-1.381,0-2.5,1.119-2.5,2.5s1.119,2.5,2.5,2.5h163.395c1.381,0,2.5-1.119,2.5-2.5
					S210.964,42,209.583,42z"/>
			</g>
		</g>
		<g>
			<g>
				<path d="M66.5,25.625c-1.381,0-2.5,1.119-2.5,2.5v14.75c0,1.381,1.119,2.5,2.5,2.5s2.5-1.119,2.5-2.5v-14.75
					C69,26.744,67.881,25.625,66.5,25.625z"/>
			</g>
		</g>
		<g>
			<g>
				<path d="M175.5,33h-95c-1.381,0-2.5,1.119-2.5,2.5s1.119,2.5,2.5,2.5h95c1.381,0,2.5-1.119,2.5-2.5S176.881,33,175.5,33z"/>
			</g>
		</g>
		<g>
			<g>
				<path d="M199.65,33h-11.4c-1.381,0-2.5,1.119-2.5,2.5s1.119,2.5,2.5,2.5h11.4c1.381,0,2.5-1.119,2.5-2.5S201.031,33,199.65,33z"
					/>
			</g>
		</g>
		<g>
			<g>
				<g>
					<g>
						<path d="M128,73.175c-39.635,0-71.88,32.246-71.88,71.88s32.246,71.88,71.88,71.88s71.88-32.245,71.88-71.88
							S167.635,73.175,128,73.175z M128,211.936c-36.878,0-66.88-30.002-66.88-66.88s30.002-66.88,66.88-66.88
							s66.88,30.002,66.88,66.88S164.878,211.936,128,211.936z"/>
					</g>
				</g>
			</g>
		</g>
		<g>
			<g>
				<path d="M174.141,124.484c-4.195-22.729-15.255-41.132-29.584-49.227c-1.202-0.678-2.726-0.256-3.406,0.947
					c-0.679,1.202-0.255,2.727,0.947,3.406c13.056,7.375,23.196,24.49,27.127,45.781c0.222,1.205,1.272,2.047,2.455,2.047
					c0.15,0,0.304-0.014,0.457-0.042C173.494,127.146,174.392,125.841,174.141,124.484z"/>
			</g>
		</g>
		<g>
			<g>
				<path d="M172.061,163.181c-1.357-0.256-2.664,0.635-2.921,1.992c-3.98,21.03-14.066,37.961-26.98,45.292
					c-1.2,0.682-1.621,2.208-0.939,3.409c0.46,0.811,1.306,1.266,2.176,1.266c0.419,0,0.843-0.105,1.232-0.326
					c14.175-8.047,25.174-26.257,29.424-48.711C174.309,164.746,173.417,163.438,172.061,163.181z"/>
			</g>
		</g>
		<g>
			<g>
				<path d="M113.846,210.468c-12.917-7.33-23.004-24.262-26.985-45.295c-0.257-1.357-1.569-2.249-2.921-1.992
					c-1.357,0.257-2.249,1.565-1.992,2.921c4.25,22.458,15.252,40.668,29.43,48.714c0.39,0.221,0.813,0.326,1.231,0.326
					c0.871,0,1.716-0.456,2.177-1.267C115.468,212.676,115.046,211.15,113.846,210.468z"/>
			</g>
		</g>
		<g>
			<g>
				<path d="M114.62,76.315c-0.687-1.197-2.216-1.612-3.413-0.923c-14.209,8.159-25.181,26.511-29.349,49.093
					c-0.25,1.357,0.647,2.662,2.005,2.912c0.153,0.028,0.306,0.042,0.457,0.042c1.182,0,2.233-0.842,2.456-2.047
					c3.905-21.156,13.969-38.227,26.921-45.664C114.895,79.04,115.308,77.512,114.62,76.315z"/>
			</g>
		</g>
		<g>
			<g>
				<path d="M181.514,187.17c-14.113-9.441-33.118-14.641-53.514-14.641c-20.243,0-39.148,5.134-53.234,14.455
					c-1.151,0.762-1.467,2.313-0.705,3.465c0.761,1.15,2.313,1.466,3.465,0.705c13.276-8.786,31.202-13.625,50.475-13.625
					c19.135,0,37.627,5.029,50.734,13.797c0.427,0.286,0.909,0.422,1.388,0.422c0.806,0,1.598-0.39,2.08-1.11
					C182.97,189.491,182.662,187.938,181.514,187.17z"/>
			</g>
		</g>
		<g>
			<g>
				<path d="M181.916,99.679c-0.762-1.152-2.313-1.468-3.464-0.707c-13.274,8.776-31.191,13.61-50.452,13.61
					c-19.271,0-37.196-4.838-50.472-13.623c-1.15-0.761-2.702-0.446-3.464,0.706c-0.762,1.151-0.446,2.702,0.706,3.464
					c14.084,9.32,32.989,14.453,53.23,14.453c20.229,0,39.127-5.128,53.21-14.439C182.361,102.381,182.678,100.831,181.916,99.679z"
					/>
			</g>
		</g>
		<g>
			<g>
				<path d="M124.876,212.423c-5.585-6.356-10.098-24.569-11.776-47.529c-0.1-1.377-1.297-2.423-2.675-2.311
					c-1.377,0.101-2.412,1.298-2.311,2.675c1.78,24.357,6.642,43.222,13.006,50.465c0.494,0.562,1.185,0.85,1.879,0.85
					c0.586,0,1.174-0.205,1.649-0.622C125.686,215.04,125.788,213.46,124.876,212.423z"/>
			</g>
		</g>
		<g>
			<g>
				<path d="M124.35,74.407c-1.061-0.884-2.636-0.74-3.521,0.321c-6.203,7.444-10.953,26.146-12.708,50.027
					c-0.101,1.377,0.933,2.575,2.31,2.676c0.063,0.005,0.124,0.007,0.186,0.007c1.297,0,2.394-1.002,2.491-2.317
					c1.656-22.537,6.086-40.62,11.563-47.193C125.555,76.867,125.411,75.291,124.35,74.407z"/>
			</g>
		</g>
		<g>
			<g>
				<path d="M135.17,74.727c-0.886-1.061-2.461-1.204-3.521-0.32s-1.204,2.46-0.32,3.521c5.478,6.572,9.908,24.656,11.564,47.193
					c0.097,1.315,1.193,2.317,2.49,2.317c0.062,0,0.124-0.002,0.187-0.007c1.377-0.101,2.411-1.299,2.31-2.676
					C146.124,100.873,141.373,82.171,135.17,74.727z"/>
			</g>
		</g>
		<g>
			<g>
				<path d="M145.538,163.144c-1.354-0.096-2.576,0.928-2.681,2.305c-1.714,22.749-6.224,40.764-11.77,47.015
					c-0.916,1.033-0.822,2.613,0.211,3.529c0.477,0.422,1.068,0.63,1.658,0.63c0.69,0,1.377-0.284,1.871-0.841
					c6.331-7.136,11.196-25.812,13.016-49.957C147.947,164.448,146.915,163.248,145.538,163.144z"/>
			</g>
		</g>
		<g>
			<g>
				<path d="M195.555,142.556h-11.93c-1.381,0-2.5,1.119-2.5,2.5s1.119,2.5,2.5,2.5h11.93c1.381,0,2.5-1.119,2.5-2.5
					S196.936,142.556,195.555,142.556z"/>
			</g>
		</g>
		<g>
			<g>
				<path d="M72.25,142.556H60.446c-1.381,0-2.5,1.119-2.5,2.5s1.119,2.5,2.5,2.5H72.25c1.381,0,2.5-1.119,2.5-2.5
					S73.631,142.556,72.25,142.556z"/>
			</g>
		</g>
		<g>
			<g>
				<g>
					<g>
						<path d="M176.806,123.066H79.194c-4.726,0-8.571,3.845-8.571,8.572v26.835c0,4.726,3.845,8.571,8.571,8.571h97.611
							c4.727,0,8.571-3.845,8.571-8.571v-26.835C185.377,126.912,181.532,123.066,176.806,123.066z M180.377,158.473
							c0,1.969-1.603,3.571-3.571,3.571H79.194c-1.969,0-3.571-1.602-3.571-3.571v-26.835c0-1.969,1.602-3.572,3.571-3.572h97.611
							c1.969,0,3.571,1.603,3.571,3.572V158.473z"/>
					</g>
				</g>
			</g>
		</g>
		<g>
			<g>
				<path d="M103.932,133.494c-1.381-0.097-2.578,0.925-2.685,2.301l-0.851,11.064l-0.849-1.212
					c-0.468-0.668-1.232-1.066-2.048-1.066s-1.58,0.398-2.048,1.066l-0.849,1.212l-0.851-11.064
					c-0.106-1.376-1.289-2.398-2.685-2.301c-1.376,0.106-2.407,1.308-2.301,2.685l1.387,18.027c0.081,1.053,0.814,1.941,1.833,2.22
					c1.02,0.277,2.103-0.113,2.708-0.978l2.806-4.008l2.806,4.008c0.475,0.679,1.246,1.066,2.048,1.066
					c0.219,0,0.441-0.029,0.66-0.088c1.019-0.279,1.752-1.167,1.833-2.22l1.387-18.027
					C106.339,134.801,105.309,133.6,103.932,133.494z"/>
			</g>
		</g>
		<g>
			<g>
				<path d="M134.432,133.494c-1.379-0.104-2.578,0.924-2.684,2.301l-0.852,11.064l-0.849-1.212
					c-0.468-0.668-1.232-1.066-2.048-1.066s-1.58,0.398-2.048,1.066l-0.849,1.212l-0.851-11.064
					c-0.106-1.376-1.293-2.398-2.685-2.301c-1.376,0.106-2.407,1.308-2.301,2.685l1.387,18.027c0.081,1.053,0.814,1.941,1.833,2.22
					c1.019,0.277,2.103-0.113,2.708-0.978l2.806-4.008l2.806,4.008c0.476,0.679,1.246,1.066,2.048,1.066
					c0.22,0,0.441-0.029,0.659-0.088c1.019-0.279,1.753-1.167,1.833-2.22l1.387-18.027
					C136.839,134.801,135.809,133.6,134.432,133.494z"/>
			</g>
		</g>
		<g>
			<g>
				<path d="M164.932,133.494c-1.379-0.104-2.578,0.924-2.684,2.301l-0.852,11.064l-0.849-1.212
					c-0.468-0.668-1.232-1.066-2.048-1.066s-1.58,0.398-2.048,1.066l-0.849,1.212l-0.852-11.064
					c-0.105-1.377-1.329-2.406-2.684-2.301c-1.377,0.106-2.407,1.308-2.301,2.685l1.387,18.027c0.08,1.053,0.814,1.941,1.833,2.22
					c1.017,0.278,2.101-0.112,2.707-0.978l2.806-4.008l2.806,4.008c0.476,0.679,1.246,1.066,2.048,1.066
					c0.22,0,0.441-0.029,0.659-0.088c1.019-0.279,1.753-1.167,1.833-2.22l1.387-18.027
					C167.339,134.801,166.309,133.6,164.932,133.494z"/>
			</g>
		</g>
		<g>
			<g>
				<path d="M112.5,150.5c-1.381,0-2.5,1.119-2.5,2.5v0.5c0,1.381,1.119,2.5,2.5,2.5s2.5-1.119,2.5-2.5V153
					C115,151.619,113.881,150.5,112.5,150.5z"/>
			</g>
		</g>
		<g>
			<g>
				<path d="M143.5,150.5c-1.381,0-2.5,1.119-2.5,2.5v0.5c0,1.381,1.119,2.5,2.5,2.5s2.5-1.119,2.5-2.5V153
					C146,151.619,144.881,150.5,143.5,150.5z"/>
			</g>
		</g>
	</g>
</g>
<g id="Layer_14">
</g>
<g id="Layer_15">
</g>
<g id="Layer_16">
</g>
<g id="Layer_17">
</g>
<g id="Layer_18">
</g>
<g id="Layer_19">
</g>
<g id="Layer_20">
</g>
<g id="Layer_21">
</g>
<g id="Layer_22">
</g>
<g id="Layer_23">
</g>
<g id="Layer_24">
</g>
<g id="Layer_25">
</g>
<g id="Layer_26">
</g>
<g id="Layer_27">
</g>
<g id="Layer_28">
</g>
<g id="Layer_29">
</g>
<g id="Layer_30">
</g>
<g id="Layer_31">
</g>
<g id="Layer_32">
</g>
<g id="Layer_33">
</g>
<g id="Layer_34">
</g>
<g id="Layer_35">
</g>
<g id="Layer_36">
</g>
<g id="Layer_37">
</g>
<g id="Layer_38">
</g>
<g id="Layer_39">
</g>
<g id="Layer_40">
</g>
<g id="Layer_41">
</g>
<g id="Layer_42">
</g>
<g id="Layer_43">
</g>
<g id="Layer_44">
</g>
<g id="Layer_45">
</g>
<g id="Layer_46">
</g>
<g id="Layer_47">
</g>
<g id="Layer_48">
</g>
<g id="Layer_49">
</g>
<g id="Layer_50">
</g>
<g id="Layer_51">
</g>
<g id="Layer_52">
</g>
<g id="Layer_53">
</g>
<g id="Layer_54">
</g>
<g id="Layer_55">
</g>
<g id="Layer_56">
</g>
<g id="Layer_57">
</g>
<g id="Layer_58">
</g>
<g id="Layer_59">
</g>
<g id="Layer_60">
</g>
<g id="Layer_61">
</g>
<g id="Layer_62">
</g>
<g id="Layer_63">
</g>
<g id="Layer_64">
</g>
<g id="Layer_65">
</g>
<g id="Layer_66">
</g>
<g id="Layer_67">
</g>
<g id="Layer_68">
</g>
<g id="Layer_69">
</g>
<g id="Layer_70">
</g>
<g id="Layer_71">
</g>
<g id="Layer_72">
</g>
<g id="Layer_73">
</g>
<g id="Layer_74">
</g>
<g id="Layer_75">
</g>
<g id="Layer_76">
</g>
<g id="Layer_77">
</g>
<g id="Layer_78">
</g>
<g id="Layer_79">
</g>
<g id="Layer_80">
</g>
</svg>
