<?xml version="1.0"?><svg fill="#000000" xmlns="http://www.w3.org/2000/svg"  viewBox="0 0 64 64" width="64px" height="64px">    <path d="M 9 6 C 7.346 6 6 7.346 6 9 L 6 55 C 6 56.654 7.346 58 9 58 L 55 58 C 56.654 58 58 56.654 58 55 L 58 9 C 58 7.346 56.654 6 55 6 L 9 6 z M 9 8 L 55 8 C 55.551 8 56 8.448 56 9 L 56 55 C 56 55.552 55.551 56 55 56 L 9 56 C 8.449 56 8 55.552 8 55 L 8 9 C 8 8.448 8.449 8 9 8 z M 15 12 C 13.346 12 12 13.346 12 15 L 12 18 C 12 18.553 12.448 19 13 19 C 13.552 19 14 18.553 14 18 L 14 15 C 14 14.448 14.449 14 15 14 L 49 14 C 49.551 14 50 14.448 50 15 L 50 35 C 50 35.553 50.448 36 51 36 C 51.552 36 52 35.553 52 35 L 52 15 C 52 13.346 50.654 12 49 12 L 15 12 z M 32.09375 19.998047 C 31.800125 19.969828 31.502812 20.072312 31.289062 20.289062 L 27.289062 24.289062 C 26.949063 24.687062 26.97275 25.277437 27.34375 25.648438 C 27.71075 26.015438 28.305219 26.039219 28.699219 25.699219 L 31 23.410156 L 31 40 L 29 40 C 28.449 40 28 40.449 28 41 C 28 41.551 28.449 42 29 42 L 35 42 C 35.551 42 36 41.551 36 41 C 36 40.449 35.551 40 35 40 L 33 40 L 33 21 C 33.004 20.594 32.757813 20.227313 32.382812 20.070312 C 32.289062 20.031063 32.191625 20.007453 32.09375 19.998047 z M 12 21 C 11.448 21 11 21.447 11 22 C 11 22.553 11.448 23 12 23 L 14 23 C 14.552 23 15 22.553 15 22 C 15 21.447 14.552 21 14 21 L 12 21 z M 12 26 C 11.448 26 11 26.447 11 27 C 11 27.553 11.448 28 12 28 L 14 28 C 14.552 28 15 27.553 15 27 C 15 26.447 14.552 26 14 26 L 12 26 z M 12 31 C 11.448 31 11 31.447 11 32 C 11 32.553 11.448 33 12 33 L 14 33 C 14.552 33 15 32.553 15 32 C 15 31.447 14.552 31 14 31 L 12 31 z M 12 36 C 11.448 36 11 36.447 11 37 C 11 37.553 11.448 38 12 38 L 14 38 C 14.552 38 15 37.553 15 37 C 15 36.447 14.552 36 14 36 L 12 36 z M 51 38 C 50.448 38 50 38.447 50 39 L 50 43 C 50 43.553 50.448 44 51 44 C 51.552 44 52 43.553 52 43 L 52 39 C 52 38.447 51.552 38 51 38 z M 12 41 C 11.448 41 11 41.447 11 42 C 11 42.553 11.448 43 12 43 L 14 43 C 14.552 43 15 42.553 15 42 C 15 41.447 14.552 41 14 41 L 12 41 z M 13 45 C 12.448 45 12 45.447 12 46 L 12 49 C 12 50.654 13.346 52 15 52 L 49 52 C 50.654 52 52 50.654 52 49 L 52 47 C 52 46.447 51.552 46 51 46 C 50.448 46 50 46.447 50 47 L 50 49 C 50 49.552 49.551 50 49 50 L 15 50 C 14.449 50 14 49.552 14 49 L 14 46 C 14 45.447 13.552 45 13 45 z"/></svg>