<svg fill="#000000" xmlns="http://www.w3.org/2000/svg"  viewBox="0 0 64 64" width="64px" height="64px"><path d="M 31 4 C 15.011719 4 2 17.011719 2 33 C 2 48.988281 15.011719 62 31 62 C 46.988281 62 60 48.988281 60 33 C 60 17.011719 46.988281 4 31 4 Z M 31 6 C 45.886719 6 58 18.113281 58 33 C 58 47.886719 45.886719 60 31 60 C 16.113281 60 4 47.886719 4 33 C 4 18.113281 16.113281 6 31 6 Z M 30.5625 10.007813 C 24.671875 10.128906 18.960938 12.507813 14.734375 16.734375 C 5.769531 25.703125 5.769531 40.292969 14.734375 49.261719 C 14.929688 49.457031 15.1875 49.554688 15.441406 49.554688 C 15.699219 49.554688 15.957031 49.457031 16.152344 49.261719 C 16.542969 48.871094 16.542969 48.238281 16.152344 47.847656 C 7.960938 39.660156 7.964844 26.339844 16.152344 18.152344 C 20.898438 13.402344 27.699219 11.199219 34.339844 12.265625 C 34.882813 12.355469 35.394531 11.980469 35.484375 11.4375 C 35.574219 10.890625 35.199219 10.375 34.65625 10.289063 C 33.289063 10.070313 31.921875 9.980469 30.5625 10.007813 Z M 38.65625 11.386719 C 38.269531 11.402344 37.90625 11.648438 37.765625 12.035156 C 37.570313 12.554688 37.832031 13.128906 38.351563 13.324219 C 39.0625 13.589844 39.765625 13.894531 40.453125 14.238281 C 40.59375 14.3125 40.746094 14.347656 40.898438 14.347656 C 41.261719 14.347656 41.617188 14.148438 41.792969 13.796875 C 42.042969 13.308594 41.84375 12.703125 41.351563 12.453125 C 40.605469 12.078125 39.828125 11.738281 39.050781 11.449219 C 38.921875 11.402344 38.789063 11.382813 38.65625 11.386719 Z M 44.433594 14.675781 C 44.175781 14.707031 43.9375 14.835938 43.765625 15.050781 C 43.425781 15.488281 43.5 16.113281 43.9375 16.453125 C 44.605469 16.976563 45.25 17.550781 45.847656 18.152344 C 54.039063 26.339844 54.039063 39.660156 45.847656 47.847656 C 45.457031 48.242188 45.457031 48.871094 45.847656 49.265625 C 46.042969 49.457031 46.300781 49.558594 46.558594 49.558594 C 46.8125 49.558594 47.070313 49.457031 47.265625 49.265625 C 56.230469 40.296875 56.230469 25.703125 47.265625 16.734375 C 46.605469 16.078125 45.902344 15.453125 45.171875 14.878906 C 44.953125 14.710938 44.6875 14.644531 44.433594 14.675781 Z M 33 21 C 32.96875 21 32.9375 21.015625 32.90625 21.015625 C 32.835938 21.023438 32.769531 21.039063 32.703125 21.0625 C 32.644531 21.078125 32.589844 21.101563 32.535156 21.128906 C 32.480469 21.160156 32.429688 21.195313 32.375 21.234375 C 32.324219 21.28125 32.28125 21.324219 32.234375 21.375 C 32.214844 21.402344 32.1875 21.417969 32.167969 21.445313 L 22.167969 36.445313 C 21.964844 36.753906 21.941406 37.144531 22.117188 37.46875 C 22.292969 37.796875 22.632813 38 23 38 L 32 38 L 32 43 C 32 43.550781 32.445313 44 33 44 C 33.554688 44 34 43.550781 34 43 L 34 38 L 37 38 C 37.554688 38 38 37.550781 38 37 C 38 36.449219 37.554688 36 37 36 L 34 36 L 34 22 C 34 21.96875 33.984375 21.941406 33.980469 21.90625 C 33.972656 21.839844 33.960938 21.773438 33.9375 21.707031 C 33.921875 21.648438 33.898438 21.589844 33.871094 21.535156 C 33.839844 21.480469 33.804688 21.429688 33.765625 21.378906 C 33.722656 21.328125 33.675781 21.28125 33.621094 21.234375 C 33.597656 21.214844 33.582031 21.1875 33.554688 21.171875 C 33.527344 21.152344 33.496094 21.148438 33.46875 21.136719 C 33.410156 21.101563 33.351563 21.078125 33.28125 21.058594 C 33.21875 21.039063 33.152344 21.027344 33.085938 21.019531 C 33.058594 21.015625 33.03125 21 33 21 Z M 32 25.300781 L 32 36 L 24.867188 36 Z M 21.375 49.394531 C 20.984375 49.347656 20.589844 49.527344 20.386719 49.886719 L 19.386719 51.617188 C 19.109375 52.097656 19.273438 52.707031 19.75 52.984375 C 19.90625 53.074219 20.078125 53.117188 20.25 53.117188 C 20.59375 53.117188 20.929688 52.9375 21.113281 52.617188 L 22.113281 50.886719 C 22.390625 50.410156 22.230469 49.796875 21.75 49.519531 C 21.628906 49.453125 21.503906 49.410156 21.375 49.394531 Z M 40.625 49.394531 C 40.496094 49.410156 40.367188 49.453125 40.25 49.519531 C 39.769531 49.796875 39.609375 50.410156 39.886719 50.890625 L 40.886719 52.621094 C 41.070313 52.941406 41.40625 53.121094 41.75 53.121094 C 41.921875 53.121094 42.09375 53.074219 42.25 52.984375 C 42.730469 52.707031 42.890625 52.097656 42.613281 51.621094 L 41.613281 49.890625 C 41.40625 49.53125 41.011719 49.347656 40.625 49.394531 Z M 25.816406 51.34375 C 25.429688 51.398438 25.09375 51.675781 24.984375 52.078125 L 24.46875 54.011719 C 24.324219 54.542969 24.644531 55.089844 25.175781 55.234375 C 25.261719 55.257813 25.347656 55.265625 25.4375 55.265625 C 25.875 55.265625 26.28125 54.972656 26.402344 54.527344 L 26.921875 52.59375 C 27.0625 52.0625 26.746094 51.511719 26.214844 51.371094 C 26.078125 51.332031 25.945313 51.324219 25.816406 51.34375 Z M 36.1875 51.34375 C 36.058594 51.324219 35.921875 51.332031 35.785156 51.371094 C 35.253906 51.511719 34.9375 52.0625 35.078125 52.59375 L 35.597656 54.527344 C 35.71875 54.972656 36.121094 55.265625 36.5625 55.265625 C 36.652344 55.265625 36.738281 55.257813 36.824219 55.234375 C 37.355469 55.089844 37.675781 54.542969 37.53125 54.011719 L 37.015625 52.078125 C 36.90625 51.675781 36.570313 51.398438 36.1875 51.34375 Z M 31 52 C 30.445313 52 30 52.445313 30 53 L 30 55 C 30 55.554688 30.445313 56 31 56 C 31.554688 56 32 55.554688 32 55 L 32 53 C 32 52.445313 31.554688 52 31 52 Z"/></svg>