<svg fill="#000000" xmlns="http://www.w3.org/2000/svg"  viewBox="0 0 64 64" width="64px" height="64px"><path d="M 9 6 C 7.346 6 6 7.346 6 9 L 6 55 C 6 56.654 7.346 58 9 58 L 55 58 C 56.654 58 58 56.654 58 55 L 58 9 C 58 7.346 56.654 6 55 6 L 9 6 z M 9 8 L 55 8 C 55.551 8 56 8.449 56 9 L 56 55 C 56 55.551 55.551 56 55 56 L 9 56 C 8.449 56 8 55.551 8 55 L 8 9 C 8 8.449 8.449 8 9 8 z M 15 12 C 13.346 12 12 13.346 12 15 L 12 19.5 C 12 20.052 12.448 20.5 13 20.5 C 13.552 20.5 14 20.052 14 19.5 L 14 15 C 14 14.449 14.449 14 15 14 L 49 14 C 49.551 14 50 14.449 50 15 L 50 35 C 50 35.552 50.448 36 51 36 C 51.552 36 52 35.552 52 35 L 52 15 C 52 13.346 50.654 12 49 12 L 15 12 z M 29 21 C 26.802666 21 25 22.802666 25 25 L 25 33 L 25 39 C 25 41.197334 26.802666 43 29 43 L 35 43 C 37.197334 43 39 41.197334 39 39 L 39 33 C 39 30.802666 37.197334 29 35 29 L 27 29 L 27 25 C 27 23.883334 27.883334 23 29 23 L 34 23 C 35.116666 23 36 23.883334 36 25 A 1.0001 1.0001 0 1 0 38 25 C 38 22.802666 36.197334 21 34 21 L 29 21 z M 12 23 C 11.448 23 11 23.448 11 24 C 11 24.552 11.448 25 12 25 L 14 25 C 14.552 25 15 24.552 15 24 C 15 23.448 14.552 23 14 23 L 12 23 z M 12 28 C 11.448 28 11 28.448 11 29 C 11 29.552 11.448 30 12 30 L 14 30 C 14.552 30 15 29.552 15 29 C 15 28.448 14.552 28 14 28 L 12 28 z M 27 31 L 35 31 C 36.116666 31 37 31.883334 37 33 L 37 39 C 37 40.116666 36.116666 41 35 41 L 29 41 C 27.883334 41 27 40.116666 27 39 L 27 31 z M 12 33 C 11.448 33 11 33.448 11 34 C 11 34.552 11.448 35 12 35 L 14 35 C 14.552 35 15 34.552 15 34 C 15 33.448 14.552 33 14 33 L 12 33 z M 12 38 C 11.448 38 11 38.448 11 39 C 11 39.552 11.448 40 12 40 L 14 40 C 14.552 40 15 39.552 15 39 C 15 38.448 14.552 38 14 38 L 12 38 z M 51 38 C 50.448 38 50 38.448 50 39 L 50 43 C 50 43.552 50.448 44 51 44 C 51.552 44 52 43.552 52 43 L 52 39 C 52 38.448 51.552 38 51 38 z M 13 44 C 12.448 44 12 44.448 12 45 L 12 49 C 12 50.654 13.346 52 15 52 L 49 52 C 50.654 52 52 50.654 52 49 L 52 47 C 52 46.448 51.552 46 51 46 C 50.448 46 50 46.448 50 47 L 50 49 C 50 49.551 49.551 50 49 50 L 15 50 C 14.449 50 14 49.551 14 49 L 14 45 C 14 44.448 13.552 44 13 44 z"/></svg>