<svg fill="#000000" xmlns="http://www.w3.org/2000/svg"  viewBox="0 0 64 64" width="64px" height="64px"><path d="M 32 3 C 16.01 3 3 16.01 3 32 C 3 47.99 16.01 61 32 61 C 47.99 61 61 47.99 61 32 C 61 16.01 47.99 3 32 3 z M 32 5 C 46.888 5 59 17.112 59 32 C 59 46.888 46.888 59 32 59 C 17.112 59 5 46.888 5 32 C 5 17.112 17.112 5 32 5 z M 31.5625 9.0078125 C 25.670329 9.1284434 19.962141 11.508563 15.736328 15.734375 C 6.7693281 24.702375 6.7693281 39.294719 15.736328 48.261719 C 15.931328 48.456719 16.187359 48.554687 16.443359 48.554688 C 16.699359 48.554688 16.955391 48.456719 17.150391 48.261719 C 17.541391 47.870719 17.541391 47.238656 17.150391 46.847656 C 8.9623906 38.660656 8.9633906 25.339391 17.150391 17.150391 C 21.899391 12.402391 28.699891 10.200625 35.337891 11.265625 C 35.880891 11.354625 36.396375 10.981547 36.484375 10.435547 C 36.572375 9.8905469 36.199297 9.3760625 35.654297 9.2890625 C 34.290797 9.071 32.922232 8.9799746 31.5625 9.0078125 z M 39.658203 10.386719 C 39.268953 10.403547 38.907672 10.646656 38.763672 11.035156 C 38.570672 11.553156 38.833562 12.130266 39.351562 12.322266 C 40.061563 12.588266 40.767172 12.895234 41.451172 13.240234 C 41.595172 13.313234 41.747438 13.349609 41.898438 13.349609 C 42.263438 13.349609 42.616969 13.147828 42.792969 12.798828 C 43.041969 12.306828 42.844563 11.704078 42.351562 11.455078 C 41.603563 11.077078 40.829781 10.739219 40.050781 10.449219 C 39.921781 10.401469 39.787953 10.381109 39.658203 10.386719 z M 45.431641 13.675781 C 45.177766 13.706781 44.935625 13.835234 44.765625 14.052734 C 44.424625 14.487734 44.5015 15.114078 44.9375 15.455078 C 45.6055 15.978078 46.248609 16.549391 46.849609 17.150391 C 55.037609 25.338391 55.037609 38.661609 46.849609 46.849609 C 46.458609 47.240609 46.458609 47.872672 46.849609 48.263672 C 47.044609 48.458672 47.300641 48.556641 47.556641 48.556641 C 47.812641 48.556641 48.068672 48.458672 48.263672 48.263672 C 57.229672 39.296672 57.229672 24.704328 48.263672 15.736328 C 47.605672 15.078328 46.902922 14.453859 46.169922 13.880859 C 45.952422 13.710359 45.685516 13.644781 45.431641 13.675781 z M 29.371094 20 C 27.520636 20 26 21.521223 26 23.371094 L 26 27.628906 C 26 28.415225 26.286279 29.131192 26.744141 29.707031 C 25.694953 30.430553 25 31.63853 25 33 L 25 39 C 25 41.197334 26.802666 43 29 43 L 35 43 C 37.197334 43 39 41.197334 39 39 L 39 33 C 39 31.63853 38.305047 30.430553 37.255859 29.707031 C 37.713644 29.131153 38 28.414976 38 27.628906 L 38 23.371094 C 38 21.520636 36.478777 20 34.628906 20 L 29.371094 20 z M 29.371094 22 L 34.628906 22 C 35.397035 22 36 22.601552 36 23.371094 L 36 27.628906 C 36 28.397035 35.398448 29 34.628906 29 L 29.371094 29 C 28.602965 29 28 28.398448 28 27.628906 L 28 23.371094 C 28 22.602965 28.601552 22 29.371094 22 z M 29 31 L 35 31 C 36.116666 31 37 31.883334 37 33 L 37 39 C 37 40.116666 36.116666 41 35 41 L 29 41 C 27.883334 41 27 40.116666 27 39 L 27 33 C 27 31.883334 27.883334 31 29 31 z M 22.373047 48.394531 C 21.986187 48.346391 21.591766 48.527469 21.384766 48.886719 L 20.384766 50.617188 C 20.108766 51.096187 20.272 51.708375 20.75 51.984375 C 20.907 52.075375 21.078047 52.117188 21.248047 52.117188 C 21.594047 52.117188 21.930234 51.938187 22.115234 51.617188 L 23.115234 49.886719 C 23.392234 49.408719 23.229 48.798484 22.75 48.521484 C 22.63025 48.452484 22.502 48.410578 22.373047 48.394531 z M 41.625 48.394531 C 41.496266 48.410625 41.369 48.452234 41.25 48.521484 C 40.771 48.797484 40.607766 49.410672 40.884766 49.888672 L 41.884766 51.619141 C 42.070766 51.940141 42.405953 52.119141 42.751953 52.119141 C 42.921953 52.119141 43.093 52.075375 43.25 51.984375 C 43.729 51.708375 43.892234 51.097141 43.615234 50.619141 L 42.615234 48.888672 C 42.407484 48.529422 42.011203 48.34625 41.625 48.394531 z M 26.816406 50.34375 C 26.430719 50.397188 26.093578 50.675672 25.986328 51.076172 L 25.46875 53.009766 C 25.32575 53.542766 25.642781 54.091375 26.175781 54.234375 C 26.262781 54.257375 26.349547 54.267578 26.435547 54.267578 C 26.876547 54.267578 27.281391 53.974344 27.400391 53.527344 L 27.919922 51.595703 C 28.062922 51.062703 27.745891 50.512141 27.212891 50.369141 C 27.080141 50.333141 26.944969 50.325938 26.816406 50.34375 z M 37.185547 50.34375 C 37.056797 50.325984 36.920859 50.332891 36.787109 50.369141 C 36.254109 50.512141 35.937078 51.061703 36.080078 51.595703 L 36.599609 53.527344 C 36.718609 53.974344 37.122453 54.267578 37.564453 54.267578 C 37.650453 54.267578 37.737219 54.257375 37.824219 54.234375 C 38.357219 54.091375 38.67425 53.543766 38.53125 53.009766 L 38.013672 51.076172 C 37.906422 50.675672 37.571797 50.397047 37.185547 50.34375 z M 32 51 C 31.447 51 31 51.447 31 52 L 31 54 C 31 54.553 31.447 55 32 55 C 32.553 55 33 54.553 33 54 L 33 52 C 33 51.447 32.553 51 32 51 z"/></svg>