<?xml version="1.0" encoding="utf-8"?>
<!-- Generator: Adobe Illustrator 22.1.0, SVG Export Plug-In . SVG Version: 6.00 Build 0)  -->
<svg version="1.1" id="Layer_1" xmlns="http://www.w3.org/2000/svg" xmlns:xlink="http://www.w3.org/1999/xlink" x="0px" y="0px"
	 viewBox="0 0 256 256" style="enable-background:new 0 0 256 256;" xml:space="preserve">
<style type="text/css">
	.st0{fill:#4671C6;}
	.st1{fill:#E0EBFC;}
	.st2{fill:#F9A7A7;}
	.st3{fill:#FFEA92;}
	.st4{fill:#3762CC;}
	.st5{fill:#A4C9FF;}
	.st6{fill:#B9BEFC;}
	.st7{fill:#F9CFCF;}
	.st8{fill:#6BDDDD;}
	.st9{fill:#EAA97D;}
</style>
<g>
	<g>
		<g>
			<g>
				<path class="st2" d="M137.81,190.244c-0.164-0.285-0.305-0.576-0.429-0.871c-0.011-0.025-0.019-0.051-0.03-0.076
					c-0.116-0.286-0.218-0.575-0.301-0.868v0l-1.091,0.628c-3.687,2.12-8.38,0.903-10.482-2.72L71.011,92.474
					c-2.102-3.622-0.817-8.278,2.87-10.398l1.135-0.653c-0.109-0.16-0.218-0.32-0.317-0.49L48.306,35.22
					c-0.195-0.338-0.353-0.685-0.493-1.037L37.62,40.045C16.725,52.059,9.443,78.439,21.354,98.966l73.664,126.948
					c11.911,20.526,38.505,27.426,59.399,15.411l9.673-5.562L137.81,190.244z"/>
			</g>
		</g>
	</g>
	<g>
		<g>
			<g>
				<path class="st2" d="M178.961,168.794l24.393,42.25c2.761,4.783,1.123,10.899-3.66,13.66l-24.563,14.182
					c-3.826,2.209-8.719,0.898-10.928-2.928l-26.393-45.714c-2.209-3.826-0.898-8.719,2.928-10.928l24.563-14.182
					C170.084,162.373,176.2,164.012,178.961,168.794z"/>
			</g>
		</g>
	</g>
	<g>
		<g>
			<g>
				<path class="st2" d="M89.458,13.77l24.393,42.25c2.761,4.783,1.123,10.899-3.66,13.66L85.627,83.862
					c-3.826,2.209-8.719,0.898-10.928-2.928L48.306,35.22c-2.209-3.826-0.898-8.719,2.928-10.928L75.798,10.11
					C80.581,7.349,86.697,8.987,89.458,13.77z"/>
			</g>
		</g>
	</g>
	<g>
		<g>
			<g>
				<path class="st1" d="M157.013,134.442L157.013,134.442c-3.582-1.383-5.458-4.98-4.688-8.754
					c1.052-5.154,0.375-10.526-2.313-15.259c-2.689-4.732-6.958-8.063-11.923-9.798c-3.637-1.27-5.766-4.723-5.12-8.508l0,0
					c0.921-5.403,6.915-9.027,12.121-7.249c8.544,2.919,15.897,8.601,20.5,16.703c4.603,8.102,5.721,17.327,3.855,26.162
					C168.307,133.122,162.126,136.416,157.013,134.442z"/>
			</g>
		</g>
	</g>
	<g>
		<g>
			<g>
				<path class="st5" d="M188.947,146.773l-0.007-0.003c-3.986-1.539-5.802-5.767-4.367-9.867
					c5.096-14.555,4.365-30.501-3.406-44.178c-7.771-13.677-21.094-22.467-36.206-25.539c-4.256-0.865-6.959-4.59-6.24-8.802
					l0.001-0.007c0.853-5.004,6.091-8.529,11.15-7.508c19.563,3.945,36.818,15.309,46.873,33.006
					c10.055,17.697,10.984,38.337,4.359,57.163C199.391,145.905,193.682,148.601,188.947,146.773z"/>
			</g>
		</g>
	</g>
	<g>
		<g>
			<g>
				<path class="st0" d="M220.525,158.967l-0.01-0.004c-4.061-1.568-5.939-5.941-4.286-10.067
					c9.647-24.073,9.099-50.982-3.907-73.873s-35.841-37.136-61.459-41.171c-4.391-0.692-7.186-4.543-6.454-8.835l0.002-0.01
					c0.826-4.844,5.787-8.361,10.743-7.58c30.322,4.783,57.35,21.648,72.746,48.744s16.048,58.949,4.635,87.447
					C230.67,158.275,225.109,160.737,220.525,158.967z"/>
			</g>
		</g>
	</g>
	<g>
		<g>
			<g>
				<path class="st4" d="M171.147,241.956c-3.458,0-6.827-1.793-8.677-4.998l-26.393-45.714c-2.757-4.775-1.115-10.903,3.66-13.66
					l24.563-14.182c5.729-3.308,13.084-1.338,16.393,4.392l0,0l24.393,42.25c1.603,2.776,2.029,6.009,1.199,9.105
					s-2.815,5.684-5.591,7.287l-24.563,14.182C174.56,241.525,172.843,241.956,171.147,241.956z M170.287,165.796
					c-1.356,0-2.729,0.344-3.986,1.07l-24.563,14.182c-2.865,1.654-3.85,5.331-2.196,8.196l26.393,45.714
					c1.653,2.864,5.33,3.85,8.196,2.196l24.563-14.182c1.851-1.069,3.174-2.794,3.728-4.858s0.269-4.22-0.799-6.07l-24.393-42.25
					C175.75,167.231,173.054,165.796,170.287,165.796z"/>
			</g>
		</g>
	</g>
	<g>
		<g>
			<g>
				<path class="st4" d="M81.644,86.938c-0.869,0-1.743-0.114-2.604-0.345c-2.58-0.691-4.736-2.346-6.072-4.66L46.574,36.22
					c-2.757-4.775-1.115-10.903,3.66-13.66L74.798,8.378c2.775-1.603,6.008-2.03,9.106-1.199c3.096,0.83,5.684,2.815,7.286,5.591
					l24.393,42.25c1.603,2.776,2.028,6.01,1.199,9.106s-2.815,5.684-5.591,7.286L86.627,85.594
					C85.087,86.483,83.376,86.938,81.644,86.938z M80.785,10.767c-1.386,0-2.754,0.364-3.987,1.075L52.234,26.023
					c-2.865,1.654-3.85,5.332-2.196,8.196l26.393,45.714c0.801,1.388,2.095,2.381,3.644,2.796c1.546,0.414,3.164,0.202,4.553-0.6
					l24.563-14.182c3.82-2.206,5.134-7.108,2.929-10.928l-24.393-42.25l0,0c-1.068-1.851-2.793-3.174-4.858-3.728
					C82.179,10.858,81.479,10.767,80.785,10.767z"/>
			</g>
		</g>
	</g>
	<g>
		<g>
			<g>
				<path class="st4" d="M171.147,241.956c-3.458,0-6.827-1.793-8.677-4.998l-26.393-45.714c-2.757-4.775-1.115-10.903,3.66-13.66
					l24.563-14.182c5.729-3.308,13.084-1.338,16.393,4.392l0,0l24.393,42.25c1.603,2.776,2.029,6.009,1.199,9.105
					s-2.815,5.684-5.591,7.287l-24.563,14.182C174.56,241.525,172.843,241.956,171.147,241.956z M170.287,165.796
					c-1.356,0-2.729,0.344-3.986,1.07l-24.563,14.182c-2.865,1.654-3.85,5.331-2.196,8.196l26.393,45.714
					c1.653,2.864,5.33,3.85,8.196,2.196l24.563-14.182c1.851-1.069,3.174-2.794,3.728-4.858s0.269-4.22-0.799-6.07l-24.393-42.25
					C175.75,167.231,173.054,165.796,170.287,165.796z"/>
			</g>
		</g>
	</g>
	<g>
		<g>
			<g>
				<path class="st4" d="M81.644,86.938c-0.869,0-1.743-0.114-2.604-0.345c-2.58-0.691-4.736-2.346-6.072-4.66L46.574,36.22
					c-2.757-4.775-1.115-10.903,3.66-13.66L74.798,8.378c2.775-1.603,6.008-2.03,9.106-1.199c3.096,0.83,5.684,2.815,7.286,5.591
					l24.393,42.25c1.603,2.776,2.028,6.01,1.199,9.106s-2.815,5.684-5.591,7.286L86.627,85.594
					C85.087,86.483,83.376,86.938,81.644,86.938z M80.785,10.767c-1.386,0-2.754,0.364-3.987,1.075L52.234,26.023
					c-2.865,1.654-3.85,5.332-2.196,8.196l26.393,45.714c0.801,1.388,2.095,2.381,3.644,2.796c1.546,0.414,3.164,0.202,4.553-0.6
					l24.563-14.182c3.82-2.206,5.134-7.108,2.929-10.928l-24.393-42.25l0,0c-1.068-1.851-2.793-3.174-4.858-3.728
					C82.179,10.858,81.479,10.767,80.785,10.767z"/>
			</g>
		</g>
	</g>
	<g>
		<g>
			<g>
				<path class="st4" d="M171.147,241.956c-3.458,0-6.827-1.793-8.677-4.998l-26.393-45.714c-2.757-4.775-1.115-10.903,3.66-13.66
					l24.563-14.182c5.729-3.308,13.084-1.338,16.393,4.392l0,0l24.393,42.25c1.603,2.776,2.029,6.009,1.199,9.105
					s-2.815,5.684-5.591,7.287l-24.563,14.182C174.56,241.525,172.843,241.956,171.147,241.956z M170.287,165.796
					c-1.356,0-2.729,0.344-3.986,1.07l-24.563,14.182c-2.865,1.654-3.85,5.331-2.196,8.196l26.393,45.714
					c1.653,2.864,5.33,3.85,8.196,2.196l24.563-14.182c1.851-1.069,3.174-2.794,3.728-4.858s0.269-4.22-0.799-6.07l-24.393-42.25
					C175.75,167.231,173.054,165.796,170.287,165.796z"/>
			</g>
		</g>
	</g>
	<g>
		<g>
			<g>
				<path class="st4" d="M81.644,86.938c-0.869,0-1.743-0.114-2.604-0.345c-2.58-0.691-4.736-2.346-6.072-4.66L46.574,36.22
					c-2.757-4.775-1.115-10.903,3.66-13.66L74.798,8.378c2.775-1.603,6.008-2.03,9.106-1.199c3.096,0.83,5.684,2.815,7.286,5.591
					l24.393,42.25c1.603,2.776,2.028,6.01,1.199,9.106s-2.815,5.684-5.591,7.286L86.627,85.594
					C85.087,86.483,83.376,86.938,81.644,86.938z M80.785,10.767c-1.386,0-2.754,0.364-3.987,1.075L52.234,26.023
					c-2.865,1.654-3.85,5.332-2.196,8.196l26.393,45.714c0.801,1.388,2.095,2.381,3.644,2.796c1.546,0.414,3.164,0.202,4.553-0.6
					l24.563-14.182c3.82-2.206,5.134-7.108,2.929-10.928l-24.393-42.25l0,0c-1.068-1.851-2.793-3.174-4.858-3.728
					C82.179,10.858,81.479,10.767,80.785,10.767z"/>
			</g>
		</g>
	</g>
	<g>
		<g>
			<g>
				<path class="st4" d="M132.429,249.214c-15.662,0-30.836-7.985-39.141-22.296L19.624,99.97
					c-5.966-10.282-7.55-22.303-4.459-33.848c3.157-11.792,10.777-21.669,21.458-27.811l10.193-5.861
					c0.502-0.289,1.106-0.346,1.653-0.155c0.547,0.19,0.985,0.608,1.201,1.146c0.126,0.314,0.243,0.562,0.368,0.779l26.393,45.714
					c0.066,0.115,0.14,0.22,0.213,0.327c0.313,0.46,0.433,1.049,0.309,1.592c-0.125,0.542-0.457,1.027-0.939,1.305l-1.135,0.653
					c-1.339,0.77-2.293,2.004-2.688,3.477c-0.382,1.429-0.188,2.915,0.549,4.184l54.466,93.863c1.548,2.667,5.026,3.559,7.755,1.99
					l1.092-0.627c0.535-0.308,1.179-0.351,1.75-0.119c0.57,0.231,1.002,0.713,1.17,1.306c0.063,0.223,0.141,0.443,0.23,0.662
					c0.007,0.016,0.032,0.08,0.038,0.097c0.075,0.177,0.178,0.392,0.299,0.602c0,0,0,0,0,0.001l26.28,45.519
					c0.266,0.46,0.337,1.006,0.199,1.52c-0.138,0.513-0.474,0.95-0.934,1.214l-9.673,5.563
					C148.159,247.231,140.233,249.214,132.429,249.214z M47,36.958l-8.383,4.821c-9.752,5.608-16.708,14.621-19.588,25.378
					c-2.813,10.51-1.374,21.45,4.055,30.806L96.748,224.91c11.341,19.544,36.765,26.13,56.672,14.682l7.936-4.563l-25.278-43.784
					c-0.001-0.001-0.002-0.003-0.002-0.004c-4.48,2.011-9.843,0.382-12.329-3.899L69.281,93.478
					c-1.274-2.196-1.613-4.763-0.953-7.227c0.609-2.274,1.997-4.212,3.942-5.526L47,36.958z"/>
			</g>
		</g>
	</g>
</g>
</svg>
