<?xml version="1.0"?><svg fill="#000000" xmlns="http://www.w3.org/2000/svg"  viewBox="0 0 64 64" width="64px" height="64px">    <path d="M 32 3 C 15.984 3 3 15.984 3 32 C 3 48.016 15.984 61 32 61 C 48.016 61 61 48.016 61 32 C 61 15.984 48.016 3 32 3 z M 32 5 C 46.91 5 59 17.09 59 32 C 59 46.91 46.91 59 32 59 C 17.09 59 5 46.91 5 32 C 5 17.09 17.09 5 32 5 z M 31.976562 8.9707031 C 23.439598 8.9658359 15.461047 13.725969 11.482422 21.511719 C 6.9404219 30.406719 8.6602813 41.218531 15.738281 48.269531 C 16.136281 48.609531 16.726656 48.58575 17.097656 48.21875 C 17.468656 47.84775 17.488438 47.257375 17.148438 46.859375 C 8.9414375 38.655375 8.9414375 25.352437 17.148438 17.148438 C 21.925438 12.394438 28.683844 10.211531 35.339844 11.269531 C 35.890844 11.359531 36.408047 10.980688 36.498047 10.429688 C 36.588047 9.8786875 36.209203 9.3595312 35.658203 9.2695312 C 34.425828 9.0692812 33.196129 8.9713984 31.976562 8.9707031 z M 39.519531 10.382812 C 39.342406 10.405187 39.171844 10.474344 39.027344 10.589844 C 38.734344 10.819844 38.593063 11.194594 38.664062 11.558594 C 38.730063 11.921594 38.995562 12.218125 39.351562 12.328125 C 40.066563 12.598125 40.765219 12.907953 41.449219 13.251953 C 41.589219 13.316953 41.746437 13.351563 41.898438 13.351562 C 42.359437 13.347563 42.761188 13.032031 42.867188 12.582031 C 42.972187 12.133031 42.762562 11.671937 42.351562 11.460938 C 41.601562 11.085938 40.835781 10.749938 40.050781 10.460938 C 39.880781 10.384937 39.696656 10.360438 39.519531 10.382812 z M 45.457031 13.724609 C 45.215906 13.763234 44.988625 13.88875 44.828125 14.09375 C 44.504125 14.50775 44.555406 15.098219 44.941406 15.449219 C 45.609406 15.976219 46.246563 16.547437 46.851562 17.148438 C 55.050562 25.351437 55.050562 38.648562 46.851562 46.851562 C 46.566563 47.093562 46.441344 47.47675 46.527344 47.84375 C 46.617344 48.20675 46.902625 48.490078 47.265625 48.580078 C 47.632625 48.666078 48.015719 48.546719 48.261719 48.261719 C 57.238719 39.277719 57.237719 24.723281 48.261719 15.738281 C 47.601719 15.078281 46.902875 14.456906 46.171875 13.878906 C 45.952875 13.734406 45.698156 13.685984 45.457031 13.724609 z M 26.09375 20.998047 C 25.800125 20.969828 25.502812 21.072312 25.289062 21.289062 L 21.289062 25.289062 C 20.949063 25.687062 20.97275 26.277437 21.34375 26.648438 C 21.71075 27.015438 22.305219 27.039219 22.699219 26.699219 L 25 24.410156 L 25 41 L 23 41 C 22.449 41 22 41.449 22 42 C 22 42.551 22.449 43 23 43 L 29 43 C 29.551 43 30 42.551 30 42 C 30 41.449 29.551 41 29 41 L 27 41 L 27 22 C 27.004 21.594 26.757812 21.227313 26.382812 21.070312 C 26.289062 21.031063 26.191625 21.007453 26.09375 20.998047 z M 39.09375 20.998047 C 38.800125 20.969828 38.502813 21.072312 38.289062 21.289062 L 34.289062 25.289062 C 33.949062 25.687062 33.97275 26.277437 34.34375 26.648438 C 34.71075 27.015438 35.305219 27.039219 35.699219 26.699219 L 38 24.410156 L 38 41 L 36 41 C 35.449 41 35 41.449 35 42 C 35 42.551 35.449 43 36 43 L 42 43 C 42.551 43 43 42.551 43 42 C 43 41.449 42.551 41 42 41 L 40 41 L 40 22 C 40.004 21.594 39.757813 21.227313 39.382812 21.070312 C 39.289062 21.031063 39.191625 21.007453 39.09375 20.998047 z M 41.746094 48.355469 C 41.379094 48.347469 41.039375 48.546188 40.859375 48.867188 C 40.683375 49.187188 40.691625 49.578625 40.890625 49.890625 L 41.890625 51.621094 C 42.058625 51.945094 42.394719 52.15225 42.761719 52.15625 C 43.128719 52.16025 43.468437 51.965531 43.648438 51.644531 C 43.828437 51.323531 43.816094 50.929094 43.621094 50.621094 L 42.621094 48.890625 C 42.449094 48.566625 42.113094 48.359469 41.746094 48.355469 z M 22.378906 48.394531 C 22.249406 48.377406 22.117281 48.384969 21.988281 48.417969 C 21.730281 48.487969 21.510906 48.659625 21.378906 48.890625 L 20.378906 50.621094 C 20.183906 50.930094 20.171563 51.324531 20.351562 51.644531 C 20.531562 51.964531 20.871281 52.16025 21.238281 52.15625 C 21.605281 52.15225 21.941375 51.945094 22.109375 51.621094 L 23.109375 49.890625 C 23.246375 49.660625 23.281844 49.386906 23.214844 49.128906 C 23.147844 48.874906 22.98 48.651531 22.75 48.519531 C 22.635 48.453031 22.508406 48.411656 22.378906 48.394531 z M 26.814453 50.347656 C 26.429234 50.402219 26.097031 50.679875 25.988281 51.078125 L 25.46875 53 C 25.36375 53.348 25.452938 53.730187 25.710938 53.992188 C 25.964938 54.254188 26.344312 54.354812 26.695312 54.257812 C 27.046312 54.160812 27.316437 53.874531 27.398438 53.519531 L 27.921875 51.589844 C 28.059875 51.058844 27.741938 50.512094 27.210938 50.371094 C 27.077188 50.335844 26.942859 50.329469 26.814453 50.347656 z M 37.171875 50.380859 C 37.045781 50.364422 36.915156 50.37125 36.785156 50.40625 C 36.262156 50.54725 35.949313 51.074562 36.070312 51.601562 L 36.589844 53.53125 C 36.737844 54.06625 37.289219 54.383375 37.824219 54.234375 C 38.359219 54.089375 38.67625 53.535 38.53125 53 L 38 51.078125 C 37.883 50.694125 37.550156 50.430172 37.171875 50.380859 z M 32 51 C 31.449 51 31 51.449 31 52 L 31 54 C 31 54.551 31.449 55 32 55 C 32.551 55 33 54.551 33 54 L 33 52 C 33 51.449 32.551 51 32 51 z"/></svg>