<?xml version="1.0" encoding="utf-8"?>
<!-- Generator: Adobe Illustrator 22.1.0, SVG Export Plug-In . SVG Version: 6.00 Build 0)  -->
<svg version="1.1" id="Layer_1" xmlns="http://www.w3.org/2000/svg" xmlns:xlink="http://www.w3.org/1999/xlink" x="0px" y="0px"
	 viewBox="0 0 256 256" style="enable-background:new 0 0 256 256;" xml:space="preserve">
<style type="text/css">
	.st0{fill:#4671C6;}
	.st1{fill:#E0EBFC;}
	.st2{fill:#F9A7A7;}
	.st3{fill:#FFEA92;}
	.st4{fill:#3762CC;}
	.st5{fill:#A4C9FF;}
	.st6{fill:#B9BEFC;}
	.st7{fill:#F9CFCF;}
	.st8{fill:#6BDDDD;}
	.st9{fill:#EAA97D;}
</style>
<g>
	<g>
		<g>
			<g>
				<path class="st5" d="M30.093,76.669v151.664c0,6.627,5.373,12,12,12h171.813c6.627,0,12-5.373,12-12V76.669H30.093z"/>
			</g>
		</g>
	</g>
	<g>
		<g>
			<g>
				<path class="st4" d="M213.906,242.333H42.094c-7.72,0-14-6.28-14-14V76.669c0-1.104,0.896-2,2-2h195.813c1.104,0,2,0.896,2,2
					v151.664C227.906,236.053,221.626,242.333,213.906,242.333z M32.094,78.669v149.664c0,5.514,4.486,10,10,10h171.813
					c5.514,0,10-4.486,10-10V78.669H32.094z"/>
			</g>
		</g>
	</g>
	<g>
		<g>
			<g>
				<path class="st2" d="M10.448,81.046v4.821c0,10.76,8.722,19.481,19.481,19.481h0.798c10.759,0,19.481-8.722,19.481-19.481
					v-9.198H10.765C10.555,78.117,10.448,79.58,10.448,81.046z"/>
			</g>
		</g>
	</g>
	<g>
		<g>
			<g>
				<path class="st1" d="M205.792,76.669v9.347c0,10.676,8.655,19.333,19.333,19.333h1.095c10.677,0,19.333-8.656,19.333-19.333
					v-4.965c0-1.469-0.108-2.932-0.318-4.382H205.792z"/>
			</g>
		</g>
	</g>
	<g>
		<g>
			<g>
				<polygon class="st1" points="140.563,15.667 128.032,15.667 127.999,15.667 127.999,76.669 128.032,76.669 140.563,76.669 
					166.59,76.669 160.717,15.667 				"/>
			</g>
		</g>
	</g>
	<g>
		<g>
			<g>
				<polygon class="st2" points="127.968,15.667 117.236,15.667 95.283,15.667 89.41,76.669 117.236,76.669 127.968,76.669 
					127.999,76.669 127.999,15.667 				"/>
			</g>
		</g>
	</g>
	<g>
		<g>
			<g>
				<polygon class="st1" points="62.046,15.667 50.208,76.669 89.41,76.669 95.283,15.667 				"/>
			</g>
		</g>
	</g>
	<g>
		<g>
			<g>
				<polygon class="st2" points="193.954,15.667 160.717,15.667 166.59,76.669 205.792,76.669 				"/>
			</g>
		</g>
	</g>
	<g>
		<g>
			<g>
				<path class="st1" d="M70.066,105.349h-0.514c-10.683,0-19.344-8.661-19.344-19.344V76.67H89.41v9.336
					C89.41,96.689,80.75,105.349,70.066,105.349z"/>
			</g>
		</g>
	</g>
	<g>
		<g>
			<g>
				<path class="st2" d="M108.953,105.349h-0.497c-10.519,0-19.046-8.527-19.046-19.046V76.67h38.589v9.634
					C127.999,96.822,119.472,105.349,108.953,105.349z"/>
			</g>
		</g>
	</g>
	<g>
		<g>
			<g>
				<path class="st1" d="M147.543,105.349h-0.497c-10.519,0-19.046-8.527-19.046-19.046V76.67h38.589v9.634
					C166.589,96.822,158.062,105.349,147.543,105.349z"/>
			</g>
		</g>
	</g>
	<g>
		<g>
			<g>
				<path class="st2" d="M186.595,105.349h-0.809c-10.602,0-19.197-8.595-19.197-19.197V76.67h39.202v9.483
					C205.792,96.755,197.197,105.349,186.595,105.349z"/>
			</g>
		</g>
	</g>
	<g>
		<g>
			<g>
				<path class="st4" d="M166.59,78.669h-38.558c-1.104,0-2.033-0.896-2.033-2V15.667c0-1.104,0.896-2,2-2h32.718
					c1.03,0,1.892,0.783,1.991,1.808l5.873,61.003c0.054,0.562-0.132,1.119-0.511,1.537S167.153,78.669,166.59,78.669z
					 M129.999,74.669h34.389L158.9,17.667h-28.901V74.669z"/>
			</g>
		</g>
	</g>
	<g>
		<g>
			<g>
				<path class="st4" d="M127.999,78.669H89.41c-0.563,0-1.102-0.238-1.48-0.655s-0.564-0.975-0.511-1.537l5.873-61.003
					c0.1-1.025,0.961-1.808,1.991-1.808h32.716c1.104,0,2,0.896,2,2v61.003C129.999,77.774,129.104,78.669,127.999,78.669z
					 M91.612,74.669h34.387V17.667H97.1L91.612,74.669z"/>
			</g>
		</g>
	</g>
	<g>
		<g>
			<g>
				<path class="st4" d="M89.41,78.669H50.208c-0.598,0-1.163-0.267-1.543-0.728c-0.38-0.461-0.534-1.067-0.42-1.653l11.839-61.003
					c0.182-0.94,1.005-1.619,1.963-1.619h33.236c0.563,0,1.102,0.238,1.48,0.655s0.564,0.975,0.511,1.537l-5.873,61.003
					C91.302,77.887,90.44,78.669,89.41,78.669z M52.634,74.669h34.96l5.487-57.003H63.696L52.634,74.669z"/>
			</g>
		</g>
	</g>
	<g>
		<g>
			<g>
				<path class="st4" d="M205.792,78.669H166.59c-1.03,0-1.892-0.783-1.991-1.808l-5.873-61.003
					c-0.054-0.562,0.132-1.119,0.511-1.537s0.917-0.655,1.48-0.655h33.236c0.958,0,1.781,0.679,1.963,1.619l11.839,61.003
					c0.114,0.586-0.04,1.192-0.42,1.653C206.955,78.402,206.39,78.669,205.792,78.669z M168.406,74.669h34.96l-11.063-57.003
					h-29.385L168.406,74.669z"/>
			</g>
		</g>
	</g>
	<g>
		<g>
			<g>
				<path class="st4" d="M70.066,107.349h-0.515c-11.769,0-21.344-9.575-21.344-21.344v-9.336c0-1.104,0.896-2,2-2H89.41
					c1.104,0,2,0.896,2,2v9.336C91.41,97.774,81.835,107.349,70.066,107.349z M52.208,78.669v7.336
					c0,9.563,7.78,17.344,17.344,17.344h0.515c9.563,0,17.344-7.78,17.344-17.344v-7.336H52.208z"/>
			</g>
		</g>
	</g>
	<g>
		<g>
			<g>
				<path class="st4" d="M108.953,107.349h-0.497c-11.604,0-21.046-9.441-21.046-21.045v-9.634c0-1.104,0.896-2,2-2h38.589
					c1.104,0,2,0.896,2,2v9.634C129.999,97.908,120.558,107.349,108.953,107.349z M91.41,78.669v7.634
					c0,9.399,7.646,17.045,17.046,17.045h0.497c9.399,0,17.046-7.646,17.046-17.045v-7.634H91.41z"/>
			</g>
		</g>
	</g>
	<g>
		<g>
			<g>
				<path class="st4" d="M147.543,107.349h-0.497c-11.604,0-21.046-9.441-21.046-21.045v-9.634c0-1.104,0.896-2,2-2h38.589
					c1.104,0,2,0.896,2,2v9.634C168.589,97.908,159.147,107.349,147.543,107.349z M130,78.669v7.634
					c0,9.399,7.646,17.045,17.046,17.045h0.497c9.399,0,17.046-7.646,17.046-17.045v-7.634H130z"/>
			</g>
		</g>
	</g>
	<g>
		<g>
			<g>
				<path class="st4" d="M186.596,107.349h-0.81c-11.688,0-21.196-9.509-21.196-21.196v-9.483c0-1.104,0.896-2,2-2h39.202
					c1.104,0,2,0.896,2,2v9.483C207.792,97.84,198.283,107.349,186.596,107.349z M168.59,78.669v7.483
					c0,9.482,7.714,17.196,17.196,17.196h0.81c9.482,0,17.196-7.714,17.196-17.196v-7.483H168.59z"/>
			</g>
		</g>
	</g>
	<g>
		<g>
			<g>
				<path class="st4" d="M226.22,107.349h-1.095c-11.763,0-21.333-9.57-21.333-21.333v-9.347c0-1.104,0.896-2,2-2h39.442
					c0.994,0,1.837,0.73,1.979,1.713c0.225,1.549,0.338,3.12,0.338,4.668v4.965C247.552,97.779,237.982,107.349,226.22,107.349z
					 M207.792,78.669v7.347c0,9.557,7.775,17.333,17.333,17.333h1.095c9.557,0,17.332-7.775,17.332-17.333v-4.965
					c0-0.79-0.034-1.586-0.101-2.382H207.792z"/>
			</g>
		</g>
	</g>
	<g>
		<g>
			<g>
				<path class="st4" d="M30.727,107.349h-0.798c-11.845,0-21.48-9.636-21.48-21.481v-4.821c0-1.556,0.114-3.125,0.338-4.666
					c0.144-0.982,0.986-1.711,1.979-1.711h39.442c1.104,0,2,0.896,2,2v9.198C52.208,97.712,42.571,107.349,30.727,107.349z
					 M12.549,78.669c-0.067,0.792-0.101,1.586-0.101,2.377v4.821c0,9.639,7.842,17.481,17.48,17.481h0.798
					c9.64,0,17.481-7.842,17.481-17.481v-7.198H12.549z"/>
			</g>
		</g>
	</g>
	<g>
		<g>
			<g>
				<path class="st2" d="M84.619,157.25l28.11-28.066c1.867-1.864,5.055-0.542,5.055,2.096v25.97H84.619z"/>
			</g>
		</g>
	</g>
	<g>
		<g>
			<g>
				<path class="st4" d="M117.784,159.25H84.619c-0.81,0-1.539-0.488-1.848-1.235c-0.31-0.748-0.138-1.608,0.435-2.18l28.109-28.066
					c1.425-1.423,3.55-1.843,5.407-1.072c1.86,0.771,3.062,2.57,3.062,4.583v25.97C119.784,158.354,118.889,159.25,117.784,159.25z
					 M89.453,155.25h26.331v-23.97c0-0.58-0.415-0.814-0.594-0.889c-0.178-0.073-0.637-0.202-1.049,0.208L89.453,155.25z"/>
			</g>
		</g>
	</g>
	<g>
		<g>
			<g>
				<path class="st8" d="M172.764,143.437L123.8,192.4c-1.623,1.623-4.253,1.623-5.876,0l-24.482-24.482
					c-1.623-1.623-1.623-4.253,0-5.876l48.964-48.964c1.623-1.623,4.253-1.623,5.876,0l24.482,24.482
					C174.386,139.184,174.386,141.814,172.764,143.437z"/>
			</g>
		</g>
	</g>
	<g>
		<g>
			<g>
				<circle class="st1" cx="133.103" cy="152.74" r="15.476"/>
			</g>
		</g>
	</g>
	<g>
		<g>
			<g>
				<path class="st0" d="M138.64,159.833c-1.972,1.454-4.273,1.635-6.147,0.042c-0.195-0.166-0.203-0.466-0.021-0.647l1.355-1.355
					c0.155-0.155,0.397-0.169,0.576-0.042c0.706,0.5,1.479,0.67,2.253,0.394c0.309-0.11,0.402-0.502,0.17-0.734l-3.274-3.274
					c-0.14-0.14-0.357-0.17-0.53-0.073c-1.976,1.104-4.148,2.139-6.554-0.267c-1.916-1.916-2-4.522-0.438-6.658
					c0.128-0.175,0.107-0.417-0.046-0.57l-0.881-0.881c-0.173-0.173-0.173-0.453,0-0.626l0.418-0.418
					c0.173-0.173,0.453-0.173,0.626,0l0.862,0.862c0.153,0.153,0.396,0.175,0.57,0.046c1.836-1.354,3.932-1.464,5.887-0.002
					c0.215,0.161,0.234,0.477,0.045,0.667l-1.342,1.342c-0.15,0.15-0.382,0.167-0.561,0.053c-0.55-0.35-1.216-0.501-1.874-0.364
					c-0.348,0.072-0.483,0.498-0.231,0.749l3.148,3.148c0.142,0.142,0.36,0.17,0.534,0.071c1.956-1.119,4.096-2.153,6.5,0.251
					c1.666,1.666,2.189,4.375,0.507,6.696c-0.127,0.175-0.107,0.417,0.046,0.57l0.881,0.881c0.173,0.173,0.173,0.453,0,0.626
					l-0.418,0.418c-0.173,0.173-0.453,0.173-0.626,0l-0.862-0.862C139.059,159.724,138.815,159.704,138.64,159.833z
					 M131.074,151.739l-2.753-2.753c-0.212-0.212-0.577-0.161-0.707,0.109c-0.429,0.894-0.306,1.897,0.609,2.812
					c0.847,0.847,1.74,0.886,2.677,0.566C131.212,152.366,131.307,151.971,131.074,151.739z M135.129,153.706l2.749,2.749
					c0.227,0.227,0.611,0.143,0.729-0.157c0.388-0.985,0.116-2.018-0.662-2.796c-0.833-0.833-1.713-0.857-2.646-0.531
					C134.99,153.081,134.897,153.474,135.129,153.706z"/>
			</g>
		</g>
	</g>
	<g>
		<g>
			<g>
				<path class="st4" d="M120.862,195.617c-1.645,0-3.189-0.64-4.352-1.803l-24.482-24.482c-2.399-2.399-2.399-6.304,0-8.704
					l48.964-48.963c2.4-2.399,6.304-2.399,8.704,0l24.481,24.482c1.163,1.162,1.804,2.708,1.804,4.352s-0.641,3.19-1.804,4.352
					l-48.964,48.963C124.052,194.977,122.507,195.617,120.862,195.617z M145.345,113.864c-0.553,0-1.104,0.21-1.524,0.63
					l-48.964,48.963c-0.84,0.84-0.84,2.207,0,3.047l24.482,24.482c0.814,0.813,2.232,0.813,3.047,0l48.964-48.963v0
					c0.407-0.407,0.632-0.948,0.632-1.523s-0.225-1.117-0.632-1.523l-24.481-24.482
					C146.448,114.074,145.896,113.864,145.345,113.864z"/>
			</g>
		</g>
	</g>
	<g>
		<g>
			<g>
				<path class="st0" d="M158.673,228.342H87.581c-1.636,0-2.962-1.326-2.962-2.962v-68.13h74.054c4.908,0,8.886,3.979,8.886,8.886
					v53.319C167.559,224.363,163.581,228.342,158.673,228.342z"/>
			</g>
		</g>
	</g>
	<g>
		<g>
			<g>
				<circle class="st7" cx="152.378" cy="192.796" r="7.035"/>
			</g>
		</g>
	</g>
	<g>
		<g>
			<g>
				<path class="st4" d="M158.673,230.342H87.581c-2.736,0-4.962-2.226-4.962-4.962v-68.13c0-1.104,0.896-2,2-2h74.054
					c6.003,0,10.887,4.883,10.887,10.886v53.319C169.56,225.458,164.676,230.342,158.673,230.342z M86.619,159.25v66.13
					c0,0.53,0.432,0.962,0.962,0.962h71.092c3.797,0,6.887-3.089,6.887-6.886v-53.319c0-3.797-3.09-6.886-6.887-6.886H86.619z"/>
			</g>
		</g>
	</g>
	<g>
		<g>
			<g>
				<path class="st1" d="M193.954,15.667l11.838,61.003h39.442l-15.639-53.794c-1.242-4.271-5.155-7.208-9.602-7.208H193.954z"/>
			</g>
		</g>
	</g>
	<g>
		<g>
			<g>
				<path class="st2" d="M62.046,15.667L50.208,76.669H10.765c0.206-1.419,0.51-2.824,0.915-4.205l14.699-49.637
					c1.258-4.247,5.159-7.161,9.588-7.161H62.046z"/>
			</g>
		</g>
	</g>
	<g>
		<g>
			<g>
				<path class="st4" d="M50.208,78.669H10.766c-0.581,0-1.133-0.252-1.513-0.691s-0.55-1.021-0.467-1.596
					c0.22-1.514,0.548-3.021,0.976-4.479l14.7-49.643c1.497-5.059,6.229-8.593,11.506-8.593h26.078c0.598,0,1.163,0.267,1.543,0.728
					c0.38,0.461,0.534,1.067,0.42,1.653L52.172,77.05C51.989,77.991,51.166,78.669,50.208,78.669z M13.172,74.669h35.387
					L59.62,17.667H35.968c-3.518,0-6.672,2.355-7.67,5.728L13.599,73.033C13.44,73.57,13.299,74.117,13.172,74.669z"/>
			</g>
		</g>
	</g>
	<g>
		<g>
			<g>
				<path class="st4" d="M245.234,78.669h-39.442c-0.958,0-1.781-0.679-1.963-1.619L191.99,16.048
					c-0.114-0.586,0.04-1.192,0.42-1.653c0.38-0.46,0.945-0.728,1.543-0.728h26.04c5.303,0,10.042,3.557,11.522,8.649l15.64,53.795
					c0.175,0.604,0.057,1.256-0.321,1.759C246.456,78.374,245.863,78.669,245.234,78.669z M207.441,74.669h35.129l-14.896-51.236
					c-0.987-3.395-4.146-5.766-7.682-5.766h-23.614L207.441,74.669z"/>
			</g>
		</g>
	</g>
</g>
</svg>
